<svg width="170" height="30" xmlns="http://www.w3.org/2000/svg" viewBox="0 0 170 30"><g fill="currentColor"><path d="M-0.5078125 19.1259765625 Q-0.5078125 18.9228515625 -0.3681640625 18.5166015625 -0.228515625 18.1103515625 -0.0380859375 17.7041015625 0.15234375 17.2978515625 0.3427734375 17.0185546875 0.533203125 16.7392578125 0.634765625 16.8154296875 0.7109375 16.8662109375 0.96484375 17.2470703125 1.21875 17.6279296875 1.5615234375 18.1484375 1.904296875 18.6689453125 2.310546875 19.265625 2.716796875 19.8623046875 3.0849609375 20.3447265625 3.453125 20.8271484375 3.732421875 21.119140625 4.01171875 21.4111328125 4.138671875 21.3349609375 4.31640625 21.2333984375 4.4814453125 20.2939453125 4.646484375 19.3544921875 4.7734375 17.9833984375 4.900390625 16.6123046875 5.001953125 15.025390625 5.103515625 13.4384765625 5.1796875 12.029296875 5.255859375 10.6201171875 5.2939453125 9.591796875 5.33203125 8.5634765625 5.357421875 8.3095703125 5.357421875 8.0810546875 5.6240234375 7.509765625 5.890625 6.9384765625 6.24609375 6.3798828125 6.6015625 5.8212890625 6.9443359375 5.4404296875 7.287109375 5.0595703125 7.46484375 5.1865234375 7.541015625 5.2626953125 7.5791015625 6.0625 7.6171875 6.8623046875 7.642578125 8.1318359375 7.66796875 9.4013671875 7.642578125 11.013671875 7.6171875 12.6259765625 7.5791015625 14.3017578125 7.541015625 15.9775390625 7.46484375 17.615234375 7.388671875 19.2529296875 7.2998046875 20.560546875 7.2109375 21.8681640625 7.083984375 22.744140625 6.95703125 23.6201171875 6.8046875 23.7978515625 6.703125 23.9248046875 6.1953125 24.1025390625 5.6875 24.2802734375 5.0908203125 24.419921875 4.494140625 24.5595703125 3.935546875 24.6357421875 3.376953125 24.7119140625 3.1484375 24.6357421875 2.640625 24.4833984375 2.0185546875 23.68359375 1.396484375 22.8837890625 0.8251953125 21.9443359375 0.25390625 21.0048828125 -0.126953125 20.1796875 -0.5078125 19.3544921875 -0.5078125 19.1259765625 z" /><path d="M14.87890625 10.3916015625 Q15.056640625 10.5439453125 15.2216796875 10.9755859375 15.38671875 11.4072265625 15.513671875 12.0166015625 15.640625 12.6259765625 15.7421875 13.3369140625 15.84375 14.0478515625 15.919921875 14.7333984375 15.99609375 15.4189453125 16.0341796875 16.015625 16.072265625 16.6123046875 16.09765625 16.9931640625 16.123046875 17.4501953125 16.1357421875 17.9453125 16.1484375 18.4404296875 16.1357421875 18.884765625 16.123046875 19.3291015625 16.0849609375 19.6845703125 16.046875 20.0400390625 15.970703125 20.2177734375 15.818359375 20.5986328125 15.4501953125 20.73828125 15.08203125 20.8779296875 14.625 20.9287109375 14.396484375 20.9541015625 13.8505859375 20.94140625 13.3046875 20.9287109375 12.6826171875 20.890625 12.060546875 20.8525390625 11.501953125 20.8017578125 10.943359375 20.7509765625 10.6640625 20.7001953125 10.10546875 20.5732421875 9.8642578125 20.3701171875 9.623046875 20.1669921875 9.39453125 19.7861328125 9.318359375 19.6337890625 9.267578125 19.01171875 9.216796875 18.3896484375 9.2041015625 17.513671875 9.19140625 16.6376953125 9.216796875 15.6220703125 9.2421875 14.6064453125 9.3056640625 13.6923828125 9.369140625 12.7783203125 9.4580078125 12.0927734375 9.546875 11.4072265625 9.69921875 11.1787109375 9.953125 10.8232421875 10.5751953125 10.5185546875 11.197265625 10.2138671875 11.705078125 10.0361328125 11.958984375 9.9599609375 12.3779296875 9.921875 12.796875 9.8837890625 13.2666015625 9.921875 13.736328125 9.9599609375 14.16796875 10.07421875 14.599609375 10.1884765625 14.87890625 10.3916015625 zM13.45703125 18.2626953125 Q13.5078125 18.1611328125 13.5712890625 17.640625 13.634765625 17.1201171875 13.6728515625 16.3837890625 13.7109375 15.6474609375 13.7236328125 14.8095703125 13.736328125 13.9716796875 13.736328125 13.2607421875 13.736328125 12.5498046875 13.685546875 12.0546875 13.634765625 11.5595703125 13.55859375 11.4833984375 13.431640625 11.3818359375 13.1904296875 11.39453125 12.94921875 11.4072265625 12.6953125 11.470703125 12.44140625 11.5341796875 12.23828125 11.623046875 12.03515625 11.7119140625 11.958984375 11.7880859375 11.62890625 12.0673828125 11.603515625 12.7021484375 11.603515625 12.8798828125 11.5654296875 13.705078125 11.52734375 14.5302734375 11.52734375 15.482421875 11.52734375 16.4345703125 11.5654296875 17.2470703125 11.603515625 18.0595703125 11.73046875 18.2373046875 11.857421875 18.4150390625 12.0986328125 18.50390625 12.33984375 18.5927734375 12.6064453125 18.5927734375 12.873046875 18.5927734375 13.1142578125 18.50390625 13.35546875 18.4150390625 13.45703125 18.2626953125 z" /><path d="M19.6015625 24.1279296875 Q19.423828125 24.1787109375 19.1953125 24.0009765625 18.966796875 23.8232421875 18.7509765625 23.556640625 18.53515625 23.2900390625 18.3828125 22.9853515625 18.23046875 22.6806640625 18.1796875 22.4775390625 18.001953125 20.2431640625 17.8876953125 18.478515625 17.7734375 16.7138671875 17.697265625 15.3427734375 17.62109375 13.9716796875 17.5830078125 12.96875 17.544921875 11.9658203125 17.544921875 11.2548828125 17.51953125 9.6044921875 17.595703125 8.9697265625 17.671875 8.5126953125 18.0146484375 8.0556640625 18.357421875 7.5986328125 18.7509765625 7.2685546875 19.14453125 6.9384765625 19.4873046875 6.7607421875 19.830078125 6.5830078125 19.931640625 6.6591796875 20.033203125 6.7353515625 20.083984375 7.509765625 20.134765625 8.2841796875 20.16015625 9.5283203125 20.185546875 10.7724609375 20.1728515625 12.3212890625 20.16015625 13.8701171875 20.1220703125 15.4951171875 20.083984375 17.1201171875 20.033203125 18.6689453125 19.982421875 20.2177734375 19.90625 21.423828125 19.830078125 22.6298828125 19.75390625 23.3662109375 19.677734375 24.1025390625 19.6015625 24.1279296875 z" /><path d="M24.171875 24.1279296875 Q23.994140625 24.1787109375 23.765625 24.0009765625 23.537109375 23.8232421875 23.3212890625 23.556640625 23.10546875 23.2900390625 22.953125 22.9853515625 22.80078125 22.6806640625 22.75 22.4775390625 22.572265625 20.2431640625 22.4580078125 18.478515625 22.34375 16.7138671875 22.267578125 15.3427734375 22.19140625 13.9716796875 22.1533203125 12.96875 22.115234375 11.9658203125 22.115234375 11.2548828125 22.08984375 9.6044921875 22.166015625 8.9697265625 22.2421875 8.5126953125 22.5849609375 8.0556640625 22.927734375 7.5986328125 23.3212890625 7.2685546875 23.71484375 6.9384765625 24.0576171875 6.7607421875 24.400390625 6.5830078125 24.501953125 6.6591796875 24.603515625 6.7353515625 24.654296875 7.509765625 24.705078125 8.2841796875 24.73046875 9.5283203125 24.755859375 10.7724609375 24.7431640625 12.3212890625 24.73046875 13.8701171875 24.6923828125 15.4951171875 24.654296875 17.1201171875 24.603515625 18.6689453125 24.552734375 20.2177734375 24.4765625 21.423828125 24.400390625 22.6298828125 24.32421875 23.3662109375 24.248046875 24.1025390625 24.171875 24.1279296875 z" /><path d="M32.44921875 10.0615234375 Q32.525390625 10.1123046875 32.576171875 10.7216796875 32.626953125 11.3310546875 32.6650390625 12.30859375 32.703125 13.2861328125 32.703125 14.5302734375 32.703125 15.7744140625 32.703125 17.0947265625 32.703125 18.4150390625 32.6904296875 19.697265625 32.677734375 20.9794921875 32.6396484375 22.033203125 32.6015625 23.0869140625 32.5634765625 23.8232421875 32.525390625 24.5595703125 32.474609375 24.7626953125 32.423828125 24.9150390625 32.1826171875 25.232421875 31.94140625 25.5498046875 31.611328125 25.8798828125 31.28125 26.2099609375 30.9384765625 26.4765625 30.595703125 26.7431640625 30.3671875 26.8193359375 29.91015625 26.9716796875 29.3515625 26.7685546875 28.79296875 26.5654296875 28.2978515625 26.2353515625 27.802734375 25.9052734375 27.4345703125 25.537109375 27.06640625 25.1689453125 26.990234375 25.0166015625 26.9140625 24.8642578125 26.8505859375 24.572265625 26.787109375 24.2802734375 26.76171875 23.98828125 26.736328125 23.6962890625 26.7744140625 23.48046875 26.8125 23.2646484375 26.939453125 23.2646484375 27.041015625 23.2646484375 27.4853515625 23.4931640625 27.9296875 23.7216796875 28.4375 23.962890625 28.9453125 24.2041015625 29.376953125 24.3564453125 29.80859375 24.5087890625 29.91015625 24.3310546875 30.01171875 24.1279296875 30.11328125 23.2265625 30.21484375 22.3251953125 30.31640625 21.0302734375 29.427734375 21.3349609375 28.7041015625 21.423828125 27.98046875 21.5126953125 27.498046875 21.1826171875 27.26953125 21.0302734375 27.0283203125 20.6494140625 26.787109375 20.2685546875 26.5966796875 19.7734375 26.40625 19.2783203125 26.279296875 18.70703125 26.15234375 18.1357421875 26.15234375 17.6279296875 26.15234375 17.2724609375 26.2412109375 16.6123046875 26.330078125 15.9521484375 26.482421875 15.1650390625 26.634765625 14.3779296875 26.7998046875 13.5400390625 26.96484375 12.7021484375 27.1298828125 12.0166015625 27.294921875 11.3310546875 27.4091796875 10.861328125 27.5234375 10.3916015625 27.548828125 10.3408203125 27.599609375 10.2646484375 27.802734375 10.251953125 28.005859375 10.2392578125 28.234375 10.27734375 28.462890625 10.3154296875 28.666015625 10.4169921875 28.869140625 10.5185546875 28.919921875 10.6455078125 28.9453125 10.7470703125 28.9326171875 11.2802734375 28.919921875 11.8134765625 28.8564453125 12.5498046875 28.79296875 13.2861328125 28.7294921875 14.13671875 28.666015625 14.9873046875 28.6025390625 15.736328125 28.5390625 16.4853515625 28.48828125 17.0185546875 28.4375 17.5517578125 28.4375 17.6533203125 28.4375 18.0595703125 28.5263671875 18.427734375 28.615234375 18.7958984375 28.7548828125 19.0625 28.89453125 19.3291015625 29.046875 19.4814453125 29.19921875 19.6337890625 29.326171875 19.5830078125 29.7578125 19.5068359375 30.11328125 19.3798828125 30.291015625 19.3037109375 30.443359375 19.2275390625 30.51953125 17.9833984375 30.595703125 16.67578125 30.671875 15.3681640625 30.72265625 14.2763671875 30.7734375 13.1845703125 30.8115234375 12.4228515625 30.849609375 11.6611328125 30.849609375 11.4580078125 30.849609375 11.2294921875 31.052734375 10.9375 31.255859375 10.6455078125 31.509765625 10.4169921875 31.763671875 10.1884765625 32.0302734375 10.07421875 32.296875 9.9599609375 32.44921875 10.0615234375 z" /><path d="M39.66015625 25.0673828125 Q39.609375 24.9404296875 39.609375 24.1533203125 39.609375 23.3662109375 39.6220703125 22.1728515625 39.634765625 20.9794921875 39.6728515625 19.494140625 39.7109375 18.0087890625 39.7490234375 16.47265625 39.787109375 14.9365234375 39.837890625 13.4765625 39.888671875 12.0166015625 39.9267578125 10.8740234375 39.96484375 9.7314453125 39.990234375 9.0078125 40.015625 8.2841796875 40.041015625 8.2333984375 40.06640625 8.1318359375 40.26953125 7.7255859375 40.47265625 7.3193359375 40.7392578125 6.875 41.005859375 6.4306640625 41.28515625 6.087890625 41.564453125 5.7451171875 41.767578125 5.7705078125 41.84375 5.7958984375 41.9072265625 6.7734375 41.970703125 7.7509765625 42.0341796875 9.2744140625 42.09765625 10.7978515625 42.1357421875 12.638671875 42.173828125 14.4794921875 42.2119140625 16.21875 42.25 17.9580078125 42.275390625 19.3671875 42.30078125 20.7763671875 42.326171875 21.4365234375 43.138671875 21.5126953125 43.9638671875 21.5634765625 44.7890625 21.6142578125 45.44921875 21.677734375 46.109375 21.7412109375 46.5283203125 21.7919921875 46.947265625 21.8427734375 46.97265625 21.8681640625 47.048828125 21.9697265625 47.1884765625 22.337890625 47.328125 22.7060546875 47.455078125 23.125 47.58203125 23.5439453125 47.6455078125 23.8994140625 47.708984375 24.2548828125 47.607421875 24.3310546875 44.6875 24.8642578125 43.087890625 25.0419921875 41.48828125 25.2197265625 40.7265625 25.2197265625 39.837890625 25.2197265625 39.66015625 25.0673828125 z" /><path d="M53.091796875 10.3916015625 Q53.26953125 10.5439453125 53.4345703125 10.9755859375 53.599609375 11.4072265625 53.7265625 12.0166015625 53.853515625 12.6259765625 53.955078125 13.3369140625 54.056640625 14.0478515625 54.1328125 14.7333984375 54.208984375 15.4189453125 54.2470703125 16.015625 54.28515625 16.6123046875 54.310546875 16.9931640625 54.3359375 17.4501953125 54.3486328125 17.9453125 54.361328125 18.4404296875 54.3486328125 18.884765625 54.3359375 19.3291015625 54.2978515625 19.6845703125 54.259765625 20.0400390625 54.18359375 20.2177734375 54.03125 20.5986328125 53.6630859375 20.73828125 53.294921875 20.8779296875 52.837890625 20.9287109375 52.609375 20.9541015625 52.0634765625 20.94140625 51.517578125 20.9287109375 50.8955078125 20.890625 50.2734375 20.8525390625 49.71484375 20.8017578125 49.15625 20.7509765625 48.876953125 20.7001953125 48.318359375 20.5732421875 48.0771484375 20.3701171875 47.8359375 20.1669921875 47.607421875 19.7861328125 47.53125 19.6337890625 47.48046875 19.01171875 47.4296875 18.3896484375 47.4169921875 17.513671875 47.404296875 16.6376953125 47.4296875 15.6220703125 47.455078125 14.6064453125 47.5185546875 13.6923828125 47.58203125 12.7783203125 47.6708984375 12.0927734375 47.759765625 11.4072265625 47.912109375 11.1787109375 48.166015625 10.8232421875 48.7880859375 10.5185546875 49.41015625 10.2138671875 49.91796875 10.0361328125 50.171875 9.9599609375 50.5908203125 9.921875 51.009765625 9.8837890625 51.4794921875 9.921875 51.94921875 9.9599609375 52.380859375 10.07421875 52.8125 10.1884765625 53.091796875 10.3916015625 zM51.669921875 18.2626953125 Q51.720703125 18.1611328125 51.7841796875 17.640625 51.84765625 17.1201171875 51.8857421875 16.3837890625 51.923828125 15.6474609375 51.9365234375 14.8095703125 51.94921875 13.9716796875 51.94921875 13.2607421875 51.94921875 12.5498046875 51.8984375 12.0546875 51.84765625 11.5595703125 51.771484375 11.4833984375 51.64453125 11.3818359375 51.4033203125 11.39453125 51.162109375 11.4072265625 50.908203125 11.470703125 50.654296875 11.5341796875 50.451171875 11.623046875 50.248046875 11.7119140625 50.171875 11.7880859375 49.841796875 12.0673828125 49.81640625 12.7021484375 49.81640625 12.8798828125 49.7783203125 13.705078125 49.740234375 14.5302734375 49.740234375 15.482421875 49.740234375 16.4345703125 49.7783203125 17.2470703125 49.81640625 18.0595703125 49.943359375 18.2373046875 50.0703125 18.4150390625 50.3115234375 18.50390625 50.552734375 18.5927734375 50.8193359375 18.5927734375 51.0859375 18.5927734375 51.3271484375 18.50390625 51.568359375 18.4150390625 51.669921875 18.2626953125 z" /><path d="M62.791015625 7.4716796875 Q62.8671875 8.0810546875 62.841796875 9.9091796875 62.841796875 10.6962890625 62.8037109375 11.8134765625 62.765625 12.9306640625 62.689453125 14.4921875 62.61328125 16.0537109375 62.4990234375 18.09765625 62.384765625 20.1416015625 62.20703125 22.7314453125 62.15625 22.9853515625 61.9912109375 23.2900390625 61.826171875 23.5947265625 61.623046875 23.8486328125 61.419921875 24.1025390625 61.19140625 24.267578125 60.962890625 24.4326171875 60.78515625 24.3818359375 60.734375 24.3564453125 60.6708984375 23.9755859375 60.607421875 23.5947265625 60.556640625 22.9091796875 59.4140625 23.4169921875 58.3984375 23.5947265625 57.3828125 23.7724609375 56.748046875 23.3662109375 56.494140625 23.2138671875 56.2529296875 22.8203125 56.01171875 22.4267578125 55.80859375 21.8935546875 55.60546875 21.3603515625 55.478515625 20.763671875 55.3515625 20.1669921875 55.3515625 19.6337890625 55.3515625 19.2529296875 55.40234375 18.6181640625 55.453125 17.9833984375 55.529296875 17.234375 55.60546875 16.4853515625 55.70703125 15.7109375 55.80859375 14.9365234375 55.91015625 14.2763671875 56.01171875 13.6162109375 56.087890625 13.1591796875 56.1640625 12.7021484375 56.21484375 12.6005859375 56.265625 12.2958984375 56.4052734375 12.0927734375 56.544921875 11.8896484375 56.646484375 11.7880859375 56.900390625 11.5849609375 57.3955078125 11.4833984375 57.890625 11.3818359375 58.4365234375 11.3564453125 58.982421875 11.3310546875 59.46484375 11.369140625 59.947265625 11.4072265625 60.17578125 11.4833984375 L60.2265625 11.4833984375 Q60.17578125 8.3349609375 60.2265625 6.6337890625 60.27734375 4.9326171875 60.4296875 4.8056640625 60.53125 4.7294921875 60.88671875 4.9326171875 61.2421875 5.1357421875 61.6357421875 5.5166015625 62.029296875 5.8974609375 62.3720703125 6.41796875 62.71484375 6.9384765625 62.791015625 7.4716796875 zM58.931640625 21.6904296875 Q59.287109375 21.6142578125 59.5791015625 21.5 59.87109375 21.3857421875 60.07421875 21.2841796875 60.302734375 21.1826171875 60.455078125 21.0302734375 60.4296875 20.3701171875 60.404296875 19.544921875 60.37890625 18.7197265625 60.353515625 17.8310546875 60.328125 16.9423828125 60.302734375 16.015625 60.27734375 15.0888671875 60.251953125 14.2255859375 60.251953125 13.9462890625 60.1630859375 13.7431640625 60.07421875 13.5400390625 59.947265625 13.4130859375 59.87109375 13.3623046875 59.642578125 13.2734375 59.4140625 13.1845703125 59.1220703125 13.12109375 58.830078125 13.0576171875 58.5634765625 13.0576171875 58.296875 13.0576171875 58.1953125 13.1591796875 58.14453125 13.1845703125 58.1064453125 13.654296875 58.068359375 14.1240234375 58.0302734375 14.822265625 57.9921875 15.5205078125 57.9541015625 16.3330078125 57.916015625 17.1455078125 57.890625 17.8564453125 57.865234375 18.5673828125 57.83984375 19.0751953125 57.814453125 19.5830078125 57.814453125 19.6337890625 57.814453125 20.0654296875 57.9287109375 20.4462890625 58.04296875 20.8271484375 58.220703125 21.119140625 58.3984375 21.4111328125 58.6015625 21.576171875 58.8046875 21.7412109375 58.931640625 21.6904296875 z" /><path d="M70.63671875 25.0927734375 Q70.5859375 25.2451171875 70.33203125 25.5751953125 70.078125 25.9052734375 69.72265625 26.2607421875 69.3671875 26.6162109375 69.01171875 26.8955078125 68.65625 27.1748046875 68.427734375 27.2509765625 67.919921875 27.4033203125 67.3486328125 27.1875 66.77734375 26.9716796875 66.2568359375 26.6162109375 65.736328125 26.2607421875 65.35546875 25.892578125 64.974609375 25.5244140625 64.873046875 25.3466796875 64.796875 25.1689453125 64.7333984375 24.8642578125 64.669921875 24.5595703125 64.64453125 24.2548828125 64.619140625 23.9501953125 64.6572265625 23.734375 64.6953125 23.5185546875 64.822265625 23.5185546875 64.94921875 23.5185546875 65.4189453125 23.759765625 65.888671875 24.0009765625 66.4091796875 24.2548828125 66.9296875 24.5087890625 67.38671875 24.6611328125 67.84375 24.8134765625 67.9453125 24.6103515625 68.046875 24.4326171875 68.1357421875 23.607421875 68.224609375 22.7822265625 68.3515625 21.5888671875 68.30078125 21.5888671875 68.2626953125 21.6015625 68.224609375 21.6142578125 68.173828125 21.6142578125 67.9453125 21.6904296875 67.5390625 21.6904296875 67.1328125 21.6904296875 66.6884765625 21.6396484375 66.244140625 21.5888671875 65.8251953125 21.44921875 65.40625 21.3095703125 65.15234375 21.0810546875 65.05078125 20.9794921875 64.9365234375 20.763671875 64.822265625 20.5478515625 64.771484375 20.1923828125 64.6953125 20.0400390625 64.517578125 19.31640625 64.33984375 18.5927734375 64.162109375 17.666015625 63.984375 16.7392578125 63.8447265625 15.7998046875 63.705078125 14.8603515625 63.755859375 14.3017578125 63.78125 13.7431640625 63.958984375 13.146484375 64.13671875 12.5498046875 64.3779296875 12.0166015625 64.619140625 11.4833984375 64.8984375 11.08984375 65.177734375 10.6962890625 65.45703125 10.5439453125 66.06640625 10.2392578125 66.98046875 10.4169921875 67.89453125 10.5947265625 68.935546875 11.1025390625 68.9609375 10.8486328125 69.1640625 10.5439453125 69.3671875 10.2392578125 69.6337890625 9.998046875 69.900390625 9.7568359375 70.1796875 9.642578125 70.458984375 9.5283203125 70.611328125 9.6298828125 70.6875 9.6806640625 70.73828125 10.328125 70.7890625 10.9755859375 70.8271484375 12.00390625 70.865234375 13.0322265625 70.8779296875 14.33984375 70.890625 15.6474609375 70.8779296875 17.03125 70.865234375 18.4150390625 70.8525390625 19.7607421875 70.83984375 21.1064453125 70.8017578125 22.2236328125 70.763671875 23.3408203125 70.7255859375 24.1025390625 70.6875 24.8642578125 70.63671875 25.0927734375 zM68.859375 13.0322265625 Q68.70703125 12.9306640625 68.50390625 12.8291015625 68.326171875 12.7275390625 68.09765625 12.6259765625 67.869140625 12.5244140625 67.58984375 12.4482421875 67.462890625 12.3974609375 67.2470703125 12.5498046875 67.03125 12.7021484375 66.8154296875 12.9814453125 66.599609375 13.2607421875 66.447265625 13.654296875 66.294921875 14.0478515625 66.294921875 14.4794921875 66.294921875 14.5302734375 66.3203125 14.9619140625 66.345703125 15.3935546875 66.396484375 16.0029296875 66.447265625 16.6123046875 66.498046875 17.3232421875 66.548828125 18.0341796875 66.6123046875 18.6435546875 66.67578125 19.2529296875 66.7265625 19.671875 66.77734375 20.0908203125 66.802734375 20.1162109375 66.904296875 20.2177734375 67.0947265625 20.2177734375 67.28515625 20.2177734375 67.4755859375 20.1669921875 67.666015625 20.1162109375 67.818359375 20.0400390625 67.970703125 19.9638671875 68.046875 19.9130859375 68.376953125 19.6845703125 68.453125 19.0244140625 68.50390625 18.9736328125 68.50390625 18.7451171875 68.580078125 17.0693359375 68.65625 15.7109375 68.732421875 14.3525390625 68.859375 13.0322265625 z" /><path d="M74.318359375 16.9423828125 Q74.724609375 16.7900390625 75.2451171875 16.599609375 75.765625 16.4091796875 76.248046875 16.244140625 76.73046875 16.0791015625 77.111328125 15.9521484375 77.4921875 15.8251953125 77.669921875 15.7490234375 77.64453125 15.4697265625 77.6064453125 15.1015625 77.568359375 14.7333984375 77.517578125 14.390625 77.466796875 14.0478515625 77.390625 13.7939453125 77.314453125 13.5400390625 77.23828125 13.4892578125 77.03515625 13.4130859375 76.5654296875 13.349609375 76.095703125 13.2861328125 75.6005859375 13.3876953125 75.10546875 13.4892578125 74.69921875 13.7685546875 74.29296875 14.0478515625 74.2421875 14.6572265625 74.19140625 15.0634765625 74.216796875 15.6728515625 74.2421875 16.2822265625 74.318359375 16.9423828125 zM79.828125 17.3486328125 Q79.802734375 17.3994140625 79.21875 17.5517578125 78.634765625 17.7041015625 77.822265625 17.869140625 77.009765625 18.0341796875 76.095703125 18.19921875 75.181640625 18.3642578125 74.521484375 18.4658203125 74.6484375 19.4814453125 74.826171875 20.28125 75.00390625 21.0810546875 75.130859375 21.2841796875 75.2578125 21.4619140625 75.4609375 21.6142578125 75.638671875 21.7412109375 75.9052734375 21.85546875 76.171875 21.9697265625 76.552734375 22.0205078125 76.83203125 22.0966796875 77.0859375 21.8173828125 77.2890625 21.5634765625 77.4541015625 20.9287109375 77.619140625 20.2939453125 77.619140625 18.9228515625 78.40625 18.7958984375 78.8505859375 18.7705078125 79.294921875 18.7451171875 79.498046875 18.7705078125 79.751953125 18.7958984375 79.802734375 18.8466796875 79.828125 18.9228515625 79.802734375 19.2275390625 79.77734375 19.5322265625 79.6884765625 19.9765625 79.599609375 20.4208984375 79.4853515625 20.94140625 79.37109375 21.4619140625 79.21875 21.931640625 79.06640625 22.4013671875 78.888671875 22.76953125 78.7109375 23.1376953125 78.5078125 23.2900390625 77.8984375 23.7470703125 76.984375 23.734375 76.0703125 23.7216796875 75.181640625 23.48046875 74.29296875 23.2392578125 73.58203125 22.896484375 72.87109375 22.5537109375 72.693359375 22.3251953125 72.56640625 22.1728515625 72.46484375 21.55078125 72.36328125 20.9287109375 72.2998046875 20.0400390625 72.236328125 19.1513671875 72.2109375 18.0849609375 72.185546875 17.0185546875 72.2490234375 16.0029296875 72.3125 14.9873046875 72.4521484375 14.1240234375 72.591796875 13.2607421875 72.845703125 12.7275390625 73.2265625 11.9658203125 74.08984375 11.4833984375 74.953125 11.0009765625 75.91796875 10.8232421875 76.8828125 10.6455078125 77.7587890625 10.7724609375 78.634765625 10.8994140625 79.06640625 11.3310546875 79.3203125 11.5849609375 79.5234375 12.333984375 79.7265625 13.0830078125 79.77734375 14.1494140625 79.77734375 14.2509765625 79.802734375 14.7333984375 79.828125 15.2158203125 79.8408203125 15.76171875 79.853515625 16.3076171875 79.853515625 16.7900390625 79.853515625 17.2724609375 79.828125 17.3486328125 z" /><path d="M86.98828125 10.4423828125 Q87.19140625 10.5693359375 87.3818359375 10.9375 87.572265625 11.3056640625 87.7373046875 11.775390625 87.90234375 12.2451171875 88.0166015625 12.7783203125 88.130859375 13.3115234375 88.2197265625 13.7685546875 88.30859375 14.2255859375 88.333984375 14.54296875 88.359375 14.8603515625 88.333984375 14.9365234375 88.283203125 15.0380859375 88.029296875 15.1396484375 87.80078125 15.2412109375 87.34375 15.3681640625 86.88671875 15.4951171875 86.07421875 15.6474609375 86.0234375 14.2509765625 85.87109375 13.52734375 85.71875 12.8037109375 85.541015625 12.4990234375 85.337890625 12.1435546875 85.109375 12.1435546875 84.880859375 12.2451171875 84.703125 12.384765625 84.525390625 12.5244140625 84.3984375 12.6767578125 84.24609375 12.8544921875 84.119140625 13.0576171875 84.068359375 13.1337890625 84.017578125 13.4130859375 83.966796875 13.6923828125 83.916015625 14.2509765625 83.916015625 14.4287109375 83.9033203125 14.9873046875 83.890625 15.5458984375 83.8779296875 16.2822265625 83.865234375 17.0185546875 83.8525390625 17.8310546875 83.83984375 18.6435546875 83.8271484375 19.341796875 83.814453125 20.0400390625 83.8017578125 20.5224609375 83.7890625 21.0048828125 83.763671875 21.0810546875 83.712890625 21.2080078125 83.509765625 21.4365234375 83.306640625 21.6650390625 83.052734375 21.85546875 82.798828125 22.0458984375 82.5703125 22.16015625 82.341796875 22.2744140625 82.265625 22.1474609375 82.189453125 22.0712890625 82.11328125 21.4873046875 82.037109375 20.9033203125 81.9482421875 20.052734375 81.859375 19.2021484375 81.7578125 18.1865234375 81.65625 17.1708984375 81.580078125 16.2314453125 81.50390625 15.2919921875 81.453125 14.54296875 81.40234375 13.7939453125 81.376953125 13.4638671875 81.3515625 12.9814453125 81.326171875 12.3974609375 81.30078125 11.8134765625 81.2880859375 11.29296875 81.275390625 10.7724609375 81.2880859375 10.37890625 81.30078125 9.9853515625 81.376953125 9.9091796875 81.427734375 9.8330078125 81.7197265625 9.87109375 82.01171875 9.9091796875 82.3544921875 10.0234375 82.697265625 10.1376953125 83.001953125 10.3154296875 83.306640625 10.4931640625 83.408203125 10.6455078125 83.484375 10.7724609375 83.560546875 11.0263671875 84.04296875 10.7724609375 84.4873046875 10.556640625 84.931640625 10.3408203125 85.3505859375 10.2392578125 85.76953125 10.1376953125 86.17578125 10.17578125 86.58203125 10.2138671875 86.98828125 10.4423828125 z" /></g></svg>