<svg width="170" height="30" xmlns="http://www.w3.org/2000/svg" viewBox="0 0 170 30"><g fill="currentColor"><path d="M7.490234375 26.99072265625 Q5.7763671875 26.99072265625 4.55126953125 26.47021484375 3.326171875 25.94970703125 2.6025390625 24.94677734375 1.87890625 23.94384765625 1.548828125 22.591796875 1.21875 21.23974609375 1.21875 19.44970703125 L1.21875 11.19775390625 Q1.21875 9.40771484375 1.548828125 8.07470703125 1.87890625 6.74169921875 2.6025390625 5.7578125 3.326171875 4.77392578125 4.55126953125 4.27880859375 5.7763671875 3.78369140625 7.490234375 3.78369140625 10.81640625 3.78369140625 12.2890625 5.68798828125 13.76171875 7.59228515625 13.76171875 11.19775390625 L13.76171875 19.44970703125 Q13.76171875 21.21435546875 13.42529296875 22.56640625 13.0888671875 23.91845703125 12.365234375 24.927734375 11.6416015625 25.93701171875 10.41650390625 26.4638671875 9.19140625 26.99072265625 7.490234375 26.99072265625 zM5.7763671875 24.32470703125 Q5.7763671875 24.32470703125 7.490234375 24.32470703125 9.2041015625 24.32470703125 9.85791015625 23.29638671875 10.51171875 22.26806640625 10.51171875 20.26220703125 L10.51171875 10.38525390625 Q10.51171875 8.40478515625 9.8642578125 7.42724609375 9.216796875 6.44970703125 7.490234375 6.44970703125 5.763671875 6.44970703125 5.1162109375 7.42724609375 4.46875 8.40478515625 4.46875 10.38525390625 L4.46875 20.26220703125 Q4.46875 22.26806640625 5.12255859375 23.29638671875 z" /><path d="M20.7314453125 26.99072265625 Q18.7255859375 26.99072265625 17.51318359375 25.79736328125 16.30078125 24.60400390625 15.8564453125 22.69970703125 L18.2939453125 21.88720703125 Q19.169921875 24.32470703125 20.7314453125 24.32470703125 21.505859375 24.32470703125 21.93115234375 23.8994140625 22.3564453125 23.47412109375 22.3564453125 22.69970703125 22.3564453125 21.56982421875 21.5439453125 20.82080078125 L18.2939453125 18.38330078125 Q17.748046875 18.01513671875 17.3798828125 17.69140625 17.01171875 17.36767578125 16.630859375 16.89794921875 16.25 16.42822265625 16.05322265625 15.84423828125 15.8564453125 15.26025390625 15.8564453125 14.57470703125 15.8564453125 12.49267578125 17.18310546875 11.38818359375 18.509765625 10.28369140625 20.7314453125 10.28369140625 21.78515625 10.28369140625 22.6357421875 10.6201171875 23.486328125 10.95654296875 24.06396484375 11.56591796875 24.6416015625 12.17529296875 25.01611328125 12.91796875 25.390625 13.66064453125 25.6064453125 14.57470703125 L23.1689453125 15.38720703125 Q22.9912109375 14.90478515625 22.8134765625 14.5556640625 22.6357421875 14.20654296875 22.33740234375 13.80029296875 22.0390625 13.39404296875 21.6328125 13.171875 21.2265625 12.94970703125 20.7314453125 12.94970703125 19.95703125 12.94970703125 19.53173828125 13.375 19.1064453125 13.80029296875 19.1064453125 14.57470703125 19.1064453125 15.33642578125 19.9189453125 15.94580078125 L23.1689453125 18.38330078125 Q23.71484375 18.81494140625 24.10205078125 19.21484375 24.4892578125 19.61474609375 24.857421875 20.1416015625 25.2255859375 20.66845703125 25.416015625 21.31591796875 25.6064453125 21.96337890625 25.6064453125 22.69970703125 25.6064453125 24.78173828125 24.27978515625 25.88623046875 22.953125 26.99072265625 20.7314453125 26.99072265625 z" /><path d="M29.3642578125 26.76220703125 L26.35546875 10.51220703125 29.2373046875 10.51220703125 31.0400390625 22.85205078125 32.7412109375 10.51220703125 35.7119140625 10.51220703125 37.4384765625 22.72509765625 39.2158203125 10.51220703125 42.1103515625 10.51220703125 38.9619140625 26.76220703125 35.9658203125 26.76220703125 34.2392578125 15.56494140625 32.4873046875 26.76220703125 29.3642578125 26.76220703125 z" /><path d="M48.3056640625 24.32470703125 Q48.6484375 24.32470703125 48.97216796875 24.12158203125 49.2958984375 23.91845703125 49.4609375 23.72802734375 49.6259765625 23.53759765625 49.8671875 23.22021484375 49.9052734375 23.15673828125 49.9306640625 23.13134765625 L49.9306640625 18.63720703125 Q49.7275390625 18.77685546875 49.2578125 19.06884765625 48.7880859375 19.36083984375 48.5087890625 19.544921875 48.2294921875 19.72900390625 47.8359375 20.052734375 47.4423828125 20.37646484375 47.2265625 20.6748046875 47.0107421875 20.97314453125 46.845703125 21.40478515625 46.6806640625 21.83642578125 46.6806640625 22.30615234375 46.6806640625 24.32470703125 48.3056640625 24.32470703125 zM46.6806640625 26.99072265625 Q45.322265625 26.99072265625 44.37646484375 25.81640625 43.4306640625 24.64208984375 43.4306640625 23.16943359375 43.4306640625 21.98876953125 43.83056640625 21.02392578125 44.23046875 20.05908203125 44.6748046875 19.4814453125 45.119140625 18.90380859375 46.16015625 18.2880859375 47.201171875 17.67236328125 47.734375 17.44384765625 48.267578125 17.21533203125 49.587890625 16.69482421875 49.81640625 16.60595703125 49.9306640625 16.55517578125 L49.9306640625 15.38720703125 Q49.9306640625 14.15576171875 49.587890625 13.4765625 49.2451171875 12.79736328125 48.3056640625 12.79736328125 47.4677734375 12.79736328125 47.10595703125 13.375 46.744140625 13.95263671875 46.693359375 14.96826171875 46.6806640625 15.10791015625 46.6806640625 15.38720703125 L43.4306640625 15.38720703125 Q43.4560546875 13.05126953125 44.73828125 11.66748046875 46.0205078125 10.28369140625 48.3056640625 10.28369140625 50.578125 10.28369140625 51.87939453125 11.6865234375 53.1806640625 13.08935546875 53.1806640625 15.38720703125 L53.1806640625 22.69970703125 Q53.1806640625 25.23876953125 53.599609375 26.76220703125 L50.3623046875 26.76220703125 49.9306640625 24.32470703125 Q49.6767578125 24.83251953125 49.51806640625 25.11181640625 49.359375 25.39111328125 49.0546875 25.8037109375 48.75 26.21630859375 48.4453125 26.4384765625 48.140625 26.66064453125 47.68359375 26.82568359375 47.2265625 26.99072265625 46.6806640625 26.99072265625 z" /><path d="M55.986328125 26.76220703125 L55.986328125 4.01220703125 59.236328125 4.01220703125 59.236328125 26.76220703125 55.986328125 26.76220703125 z" /><path d="M66.7138671875 24.32470703125 Q67.89453125 24.32470703125 69.1513671875 23.81689453125 L69.1513671875 13.59716796875 Q68.0595703125 12.94970703125 66.7138671875 12.94970703125 66.2314453125 12.94970703125 65.9013671875 13.1845703125 65.5712890625 13.41943359375 65.40625 13.8701171875 65.2412109375 14.32080078125 65.1650390625 14.796875 65.0888671875 15.27294921875 65.076171875 15.92041015625 65.025390625 18.76416015625 65.076171875 20.42724609375 65.0888671875 21.23974609375 65.1650390625 21.87451171875 65.2412109375 22.50927734375 65.41259765625 23.099609375 65.583984375 23.68994140625 65.9140625 24.00732421875 66.244140625 24.32470703125 66.7138671875 24.32470703125 zM65.9013671875 26.99072265625 Q64.822265625 26.99072265625 64.01611328125 26.38134765625 63.2099609375 25.77197265625 62.77197265625 24.73095703125 62.333984375 23.68994140625 62.1181640625 22.56640625 61.90234375 21.44287109375 61.8515625 20.14794921875 61.826171875 19.55126953125 61.8515625 17.22802734375 61.876953125 16.39013671875 61.927734375 15.7109375 61.978515625 15.03173828125 62.09912109375 14.29541015625 62.2197265625 13.55908203125 62.40380859375 12.994140625 62.587890625 12.42919921875 62.892578125 11.90234375 63.197265625 11.37548828125 63.603515625 11.03271484375 64.009765625 10.68994140625 64.5810546875 10.48681640625 65.15234375 10.28369140625 65.8505859375 10.28369140625 66.396484375 10.28369140625 66.87255859375 10.4296875 67.3486328125 10.57568359375 67.7802734375 10.88671875 68.2119140625 11.19775390625 68.47216796875 11.43896484375 68.732421875 11.68017578125 69.1513671875 12.12451171875 L69.1513671875 4.02490234375 72.4013671875 4.02490234375 72.4013671875 26.76220703125 69.1513671875 26.76220703125 69.1513671875 25.28955078125 Q68.4150390625 26.05126953125 67.6533203125 26.52099609375 66.8916015625 26.99072265625 65.9013671875 26.99072265625 z" /></g></svg>