<svg width="170" height="30" xmlns="http://www.w3.org/2000/svg" viewBox="0 0 170 30"><g fill="currentColor"><path d="M6.2080078125 7.357421875 Q4.4814453125 8.0556640625 3.529296875 9.4775390625 2.5771484375 10.8994140625 2.5771484375 13.01953125 2.5771484375 14.0732421875 2.869140625 14.6064453125 2.9326171875 14.7080078125 2.9326171875 14.796875 0.8505859375 14.796875 0.330078125 13.4638671875 0.15234375 12.9814453125 0.15234375 12.2705078125 0.15234375 9.7314453125 3.0849609375 7.5986328125 6.0556640625 5.50390625 9.2802734375 5.50390625 9.6865234375 5.50390625 10.3212890625 5.5673828125 L6.322265625 24.2294921875 Q7.388671875 24.470703125 8.5693359375 25.10546875 L10.4609375 26.1337890625 Q13.0888671875 27.5810546875 15.056640625 27.5810546875 16.25 27.5810546875 17.240234375 27.162109375 17.037109375 29.015625 16.31982421875 30.1328125 15.6025390625 31.25 14.5361328125 31.25 12.8603515625 31.25 10.5625 29.47265625 10.5625 29.47265625 7.591796875 27.1875 5.078125 25.3466796875 2.9326171875 25.3466796875 L2.640625 25.3466796875 Q2.5009765625 25.3466796875 2.3359375 25.3720703125 L6.2080078125 7.357421875 z" /><path d="M24.4638671875 14.873046875 Q22.8896484375 16.5234375 19.85546875 17.03125 19.55078125 20.5859375 17.8115234375 22.71875 16.072265625 24.8515625 13.6474609375 24.8515625 10.6513671875 24.8515625 9.7880859375 22.642578125 9.4833984375 21.8681640625 9.4833984375 20.9287109375 9.4833984375 19.9892578125 9.64208984375 19.01806640625 9.80078125 18.046875 10.1435546875 17.0185546875 10.91796875 14.6953125 12.390625 13.248046875 14.142578125 11.521484375 16.60546875 11.521484375 19.9443359375 11.521484375 19.9443359375 15.6728515625 L19.9443359375 15.6982421875 Q20.0712890625 15.7236328125 20.3759765625 15.7236328125 21.07421875 15.7236328125 22.17236328125 15.279296875 23.2705078125 14.8349609375 24.2353515625 14.162109375 L24.4638671875 14.873046875 zM17.697265625 17.107421875 Q16.9990234375 16.9296875 16.9990234375 15.9521484375 16.9990234375 14.974609375 17.8115234375 14.6064453125 17.7607421875 13.78125 17.55126953125 13.4384765625 17.341796875 13.095703125 16.732421875 13.095703125 15.5390625 13.095703125 14.447265625 15.72998046875 13.35546875 18.3642578125 13.35546875 20.408203125 13.35546875 21.6650390625 13.583984375 22.00146484375 13.8125 22.337890625 14.06640625 22.4267578125 14.3203125 22.515625 14.751953125 22.515625 15.640625 22.515625 16.5166015625 20.9541015625 17.392578125 19.392578125 17.697265625 17.107421875 z" /><path d="M28.7802734375 11.673828125 Q31.8525390625 11.673828125 31.8525390625 16.1171875 31.8525390625 19.11328125 30.3544921875 21.65234375 29.1865234375 23.6328125 27.16796875 24.470703125 26.1015625 24.90234375 24.50830078125 24.90234375 22.9150390625 24.90234375 22.0009765625 24.0263671875 21.0869140625 23.150390625 21.0869140625 21.576171875 21.0869140625 20.8779296875 21.2646484375 20.0908203125 L24.044921875 7.0654296875 27.8916015625 6.544921875 26.6474609375 12.3974609375 Q27.8154296875 11.673828125 28.7802734375 11.673828125 zM24.8828125 20.5859375 Q24.806640625 20.916015625 24.806640625 21.1826171875 24.806640625 22.388671875 26.177734375 22.388671875 27.3203125 22.388671875 28.3359375 20.23046875 29.224609375 18.2119140625 29.224609375 16.2822265625 29.224609375 14.3525390625 28.4501953125 13.73046875 28.18359375 13.5146484375 27.9423828125 13.5146484375 27.447265625 13.5146484375 26.9775390625 13.63525390625 26.5078125 13.755859375 26.3046875 13.984375 L24.8828125 20.5859375 z" /><path d="M43.82421875 20.0908203125 Q42.2119140625 21.9697265625 39.8505859375 23.3408203125 38.3779296875 24.90234375 35.7626953125 24.90234375 33.9345703125 24.90234375 32.95068359375 23.90576171875 31.966796875 22.9091796875 31.966796875 21.78564453125 31.966796875 20.662109375 32.3984375 20.0400390625 32.830078125 19.41796875 33.3505859375 19.1640625 35.1787109375 15.888671875 36.5498046875 11.4580078125 L40.396484375 10.9501953125 Q40.498046875 13.3876953125 40.599609375 15.025390625 L40.9169921875 19.1513671875 Q40.9677734375 19.7607421875 40.9677734375 20.357421875 40.9677734375 20.9541015625 40.8662109375 21.3984375 42.0087890625 20.73828125 42.732421875 20.0908203125 L43.82421875 20.0908203125 zM34.708984375 22.845703125 Q37.197265625 22.845703125 37.197265625 20.43359375 37.197265625 19.7607421875 37.095703125 18.8466796875 L36.943359375 17.361328125 Q36.8037109375 15.939453125 36.7021484375 14.2763671875 36.0419921875 16.4091796875 34.5947265625 19.189453125 35.19140625 19.46875 35.19140625 20.02099609375 35.19140625 20.5732421875 34.88037109375 20.97314453125 34.5693359375 21.373046875 34.04248046875 21.373046875 33.515625 21.373046875 33.3505859375 21.0302734375 33.3505859375 22.845703125 34.708984375 22.845703125 z" /><path d="M50.7685546875 20.0908203125 Q49.0927734375 24.90234375 45.169921875 24.90234375 44.1416015625 24.90234375 43.3291015625 24.166015625 42.529296875 23.4296875 42.529296875 21.7919921875 42.529296875 21.0556640625 42.732421875 20.0908203125 L44.2939453125 12.791015625 43.4306640625 12.791015625 43.646484375 11.75 44.4970703125 11.75 45.2841796875 8.1572265625 49.130859375 7.63671875 48.2421875 11.75 49.8037109375 11.75 49.6005859375 12.791015625 48.0390625 12.791015625 46.3759765625 20.5859375 Q46.2744140625 21.0556640625 46.2744140625 21.5126953125 46.2744140625 22.388671875 47.328125 22.388671875 48.08984375 22.388671875 48.74365234375 21.728515625 49.3974609375 21.068359375 49.6767578125 20.0908203125 L50.7685546875 20.0908203125 z" /><path d="M60.5439453125 20.0908203125 Q57.6240234375 24.90234375 53.396484375 24.90234375 51.54296875 24.90234375 50.4384765625 23.94384765625 49.333984375 22.9853515625 49.333984375 20.7763671875 49.333984375 17.8056640625 50.8447265625 15.025390625 52 12.9052734375 53.9931640625 12.00390625 55.021484375 11.521484375 56.1259765625 11.521484375 57.9287109375 11.521484375 58.576171875 12.20068359375 59.2236328125 12.8798828125 59.2236328125 14.009765625 59.2236328125 16.2314453125 57.43359375 17.78662109375 55.6435546875 19.341796875 53.244140625 19.494140625 53.1806640625 20.23046875 53.1806640625 20.53515625 53.1806640625 21.8681640625 53.650390625 22.29345703125 54.1201171875 22.71875 54.970703125 22.71875 56.46875 22.71875 57.49072265625 22.05224609375 58.5126953125 21.3857421875 59.6552734375 20.0908203125 L60.5439453125 20.0908203125 zM57.2177734375 13.83203125 Q57.2177734375 12.892578125 56.5703125 12.892578125 55.6181640625 12.91796875 54.7294921875 14.57470703125 53.8408203125 16.2314453125 53.447265625 18.25 54.9453125 18.1484375 56.08154296875 16.853515625 57.2177734375 15.55859375 57.2177734375 13.83203125 z" /><path d="M58.6650390625 24.75 L61.419921875 11.75 65.1650390625 11.75 64.8349609375 13.3623046875 Q65.482421875 12.791015625 66.26318359375 12.2705078125 67.0439453125 11.75 67.95166015625 11.75 68.859375 11.75 69.31640625 12.3466796875 69.7734375 12.943359375 69.7734375 13.4892578125 69.7734375 14.4287109375 69.27197265625 15.0126953125 68.7705078125 15.5966796875 68.0595703125 15.5966796875 67.3486328125 15.5966796875 67.1201171875 15.27294921875 66.8916015625 14.94921875 66.8408203125 14.61279296875 66.7900390625 14.2763671875 66.70751953125 14.07958984375 66.625 13.8828125 66.3583984375 13.8828125 65.8251953125 13.8828125 65.4189453125 14.13037109375 65.0126953125 14.3779296875 64.4921875 14.873046875 L62.41015625 24.75 58.6650390625 24.75 z" /></g></svg>