<svg width="170" height="30" xmlns="http://www.w3.org/2000/svg" viewBox="0 0 170 30"><g fill="currentColor"><path d="M13.45703125 7.5986328125 Q13.5458984375 7.662109375 13.4189453125 7.90966796875 13.2919921875 8.1572265625 13.06982421875 8.44921875 12.84765625 8.7412109375 12.59375 9.02685546875 12.33984375 9.3125 12.1748046875 9.46484375 L11.62890625 9.3505859375 Q11.2099609375 8.880859375 10.77197265625 8.576171875 10.333984375 8.271484375 9.85791015625 8.08740234375 9.3818359375 7.9033203125 8.8486328125 7.83349609375 8.3154296875 7.763671875 7.71875 7.763671875 7.4013671875 7.763671875 6.9443359375 7.9033203125 6.4873046875 8.04296875 5.98583984375 8.3603515625 5.484375 8.677734375 4.9892578125 9.1982421875 4.494140625 9.71875 4.1005859375 10.47412109375 3.70703125 11.2294921875 3.45947265625 12.25146484375 3.2119140625 13.2734375 3.2119140625 14.59375 3.2119140625 16.3330078125 3.65625 17.60888671875 4.1005859375 18.884765625 4.82421875 19.72265625 5.5478515625 20.560546875 6.4619140625 20.966796875 7.3759765625 21.373046875 8.3154296875 21.373046875 9.1787109375 21.373046875 9.876953125 21.2080078125 10.5751953125 21.04296875 11.146484375 20.73828125 L11.146484375 16.5869140625 Q11.146484375 16.447265625 11.05126953125 16.31396484375 10.9560546875 16.1806640625 10.689453125 16.0537109375 10.4228515625 15.9267578125 9.94677734375 15.7998046875 9.470703125 15.6728515625 8.7216796875 15.5458984375 L8.7216796875 14.873046875 14.7265625 14.873046875 14.7265625 15.5458984375 Q14.0029296875 15.7236328125 13.71728515625 16.00927734375 13.431640625 16.294921875 13.431640625 16.5869140625 L13.431640625 20.662109375 Q12.4921875 21.4365234375 11.72412109375 21.90625 10.9560546875 22.3759765625 10.30224609375 22.63623046875 9.6484375 22.896484375 9.064453125 22.97900390625 8.48046875 23.0615234375 7.9091796875 23.0615234375 6.6015625 23.0615234375 5.33203125 22.58544921875 4.0625 22.109375 3.0595703125 21.13818359375 2.056640625 20.1669921875 1.44091796875 18.71337890625 0.8251953125 17.259765625 0.8251953125 15.2919921875 0.8251953125 13.1845703125 1.498046875 11.51513671875 2.1708984375 9.845703125 3.33251953125 8.68408203125 4.494140625 7.5224609375 6.06201171875 6.9130859375 7.6298828125 6.3037109375 9.419921875 6.3037109375 9.8388671875 6.3037109375 10.36572265625 6.392578125 10.892578125 6.4814453125 11.44482421875 6.646484375 11.9970703125 6.8115234375 12.52392578125 7.052734375 13.05078125 7.2939453125 13.45703125 7.5986328125 z" /><path d="M21.68359375 11.8896484375 Q21.048828125 11.8896484375 20.53466796875 12.13720703125 20.0205078125 12.384765625 19.6396484375 12.83544921875 19.2587890625 13.2861328125 19.01123046875 13.9208984375 18.763671875 14.5556640625 18.662109375 15.3173828125 L23.689453125 15.3173828125 Q23.9814453125 15.3173828125 24.07666015625 15.22216796875 24.171875 15.126953125 24.171875 14.8603515625 24.171875 14.5048828125 24.0703125 13.9970703125 23.96875 13.4892578125 23.69580078125 13.01953125 23.4228515625 12.5498046875 22.9404296875 12.2197265625 22.4580078125 11.8896484375 21.68359375 11.8896484375 zM26.5712890625 15.634765625 Q26.3427734375 15.888671875 25.8984375 16.13623046875 25.4541015625 16.3837890625 25.0478515625 16.548828125 L18.5986328125 16.548828125 Q18.611328125 17.513671875 18.865234375 18.37060546875 19.119140625 19.2275390625 19.576171875 19.8623046875 20.033203125 20.4970703125 20.68701171875 20.87158203125 21.3408203125 21.24609375 22.166015625 21.24609375 22.5595703125 21.24609375 22.93408203125 21.1953125 23.30859375 21.14453125 23.740234375 20.97314453125 24.171875 20.8017578125 24.705078125 20.4716796875 25.23828125 20.1416015625 25.9619140625 19.5830078125 26.126953125 19.671875 26.279296875 19.8876953125 26.431640625 20.103515625 26.4951171875 20.205078125 25.6318359375 21.119140625 24.9716796875 21.677734375 24.3115234375 22.236328125 23.72119140625 22.54736328125 23.130859375 22.8583984375 22.55322265625 22.9599609375 21.9755859375 23.0615234375 21.2900390625 23.0615234375 20.2744140625 23.0615234375 19.36669921875 22.63623046875 18.458984375 22.2109375 17.7734375 21.4365234375 17.087890625 20.662109375 16.681640625 19.5703125 16.275390625 18.478515625 16.275390625 17.1328125 16.275390625 16.2822265625 16.45947265625 15.4697265625 16.6435546875 14.6572265625 16.99267578125 13.9462890625 17.341796875 13.2353515625 17.849609375 12.6259765625 18.357421875 12.0166015625 19.017578125 11.5595703125 19.322265625 11.34375 19.6904296875 11.1533203125 20.05859375 10.962890625 20.45849609375 10.81689453125 20.8583984375 10.6708984375 21.27734375 10.58203125 21.6962890625 10.4931640625 22.0771484375 10.4931640625 22.90234375 10.4931640625 23.5625 10.708984375 24.22265625 10.9248046875 24.72412109375 11.29931640625 25.2255859375 11.673828125 25.57470703125 12.181640625 25.923828125 12.689453125 26.14599609375 13.2607421875 26.3681640625 13.83203125 26.4697265625 14.44140625 26.5712890625 15.05078125 26.5712890625 15.634765625 z" /><path d="M36.00390625 22.6806640625 L36.00390625 22.0078125 Q36.91796875 21.7666015625 37.33056640625 21.5888671875 37.7431640625 21.4111328125 37.7431640625 21.2333984375 L37.7431640625 14.8349609375 Q37.7431640625 14.0859375 37.6669921875 13.603515625 37.5908203125 13.12109375 37.40673828125 12.84814453125 37.22265625 12.5751953125 36.9306640625 12.46728515625 36.638671875 12.359375 36.2197265625 12.359375 35.8515625 12.359375 35.41357421875 12.51171875 34.9755859375 12.6640625 34.47412109375 13.01318359375 33.97265625 13.3623046875 33.4013671875 13.92724609375 32.830078125 14.4921875 32.220703125 15.330078125 L32.220703125 21.2333984375 Q32.220703125 21.423828125 32.68408203125 21.626953125 33.1474609375 21.830078125 33.97265625 22.0078125 L33.97265625 22.6806640625 28.1962890625 22.6806640625 28.1962890625 22.0078125 Q29.0341796875 21.7919921875 29.48486328125 21.62060546875 29.935546875 21.44921875 29.935546875 21.2333984375 L29.935546875 13.7431640625 Q29.935546875 13.248046875 29.90380859375 12.9560546875 29.8720703125 12.6640625 29.70703125 12.4990234375 29.5419921875 12.333984375 29.19287109375 12.2578125 28.84375 12.181640625 28.1962890625 12.10546875 L28.1962890625 11.470703125 Q29.173828125 11.3310546875 29.9736328125 11.08984375 30.7734375 10.8486328125 31.560546875 10.4931640625 L32.0302734375 10.962890625 32.169921875 13.6796875 Q32.7919921875 12.9052734375 33.47119140625 12.30859375 34.150390625 11.7119140625 34.81689453125 11.31201171875 35.4833984375 10.912109375 36.10546875 10.70263671875 36.7275390625 10.4931640625 37.22265625 10.4931640625 37.7685546875 10.4931640625 38.2763671875 10.66455078125 38.7841796875 10.8359375 39.17138671875 11.19140625 39.55859375 11.546875 39.79345703125 12.09912109375 40.0283203125 12.6513671875 40.0283203125 13.42578125 L40.0283203125 21.2333984375 Q40.0283203125 21.322265625 40.1171875 21.40478515625 40.2060546875 21.4873046875 40.4091796875 21.576171875 40.6123046875 21.6650390625 40.94873046875 21.77294921875 41.28515625 21.880859375 41.7802734375 22.0078125 L41.7802734375 22.6806640625 36.00390625 22.6806640625 z" /><path d="M53.57421875 7.458984375 Q53.421875 7.458984375 53.26318359375 7.46533203125 53.1044921875 7.4716796875 52.9267578125 7.4716796875 L52.9267578125 13.4130859375 53.294921875 13.4130859375 Q54.6787109375 13.4130859375 55.5419921875 13.14013671875 56.4052734375 12.8671875 56.88134765625 12.42919921875 57.357421875 11.9912109375 57.5224609375 11.4453125 57.6875 10.8994140625 57.6875 10.353515625 57.6875 9.71875 57.484375 9.185546875 57.28125 8.65234375 56.80517578125 8.271484375 56.3291015625 7.890625 55.5419921875 7.6748046875 54.7548828125 7.458984375 53.57421875 7.458984375 zM54.89453125 14.4794921875 Q54.28515625 14.4794921875 53.82177734375 14.53662109375 53.3583984375 14.59375 52.9267578125 14.6572265625 L52.9267578125 21.2587890625 Q52.9267578125 21.34765625 53.0283203125 21.4365234375 53.2314453125 21.5126953125 53.4853515625 21.5634765625 53.7392578125 21.6142578125 54.01220703125 21.6396484375 54.28515625 21.6650390625 54.55810546875 21.677734375 54.8310546875 21.6904296875 55.0849609375 21.6904296875 55.9990234375 21.6904296875 56.72265625 21.4619140625 57.4462890625 21.2333984375 57.94775390625 20.82080078125 58.44921875 20.408203125 58.7158203125 19.82421875 58.982421875 19.240234375 58.982421875 18.529296875 58.982421875 17.8310546875 58.76025390625 17.107421875 58.5380859375 16.3837890625 58.04296875 15.7998046875 57.5478515625 15.2158203125 56.7734375 14.84765625 55.9990234375 14.4794921875 54.89453125 14.4794921875 zM61.4833984375 18.1611328125 Q61.4833984375 19.240234375 61.0517578125 20.10986328125 60.6201171875 20.9794921875 59.82666015625 21.5888671875 59.033203125 22.1982421875 57.916015625 22.5283203125 56.798828125 22.8583984375 55.427734375 22.8583984375 55.1484375 22.8583984375 54.74853515625 22.85205078125 54.3486328125 22.845703125 53.8916015625 22.8330078125 53.4345703125 22.8203125 52.94580078125 22.8076171875 52.45703125 22.794921875 51.9873046875 22.76953125 50.8828125 22.7314453125 49.6640625 22.6806640625 L48.7119140625 22.6806640625 48.7119140625 22.0078125 Q49.5751953125 21.830078125 50.044921875 21.62060546875 50.5146484375 21.4111328125 50.5146484375 21.2333984375 L50.5146484375 7.6748046875 Q50.0322265625 7.73828125 49.5751953125 7.8017578125 49.1181640625 7.865234375 48.7119140625 7.94140625 L48.572265625 7.0654296875 Q49.0927734375 6.92578125 49.78466796875 6.79248046875 50.4765625 6.6591796875 51.24462890625 6.55126953125 52.0126953125 6.443359375 52.80615234375 6.37353515625 53.599609375 6.3037109375 54.310546875 6.3037109375 55.6435546875 6.3037109375 56.71630859375 6.53857421875 57.7890625 6.7734375 58.53173828125 7.2177734375 59.2744140625 7.662109375 59.67431640625 8.296875 60.07421875 8.931640625 60.07421875 9.7314453125 60.07421875 11.1025390625 59.39501953125 12.080078125 58.7158203125 13.0576171875 57.4970703125 13.501953125 58.34765625 13.654296875 59.07763671875 14.0732421875 59.8076171875 14.4921875 60.3408203125 15.10791015625 60.8740234375 15.7236328125 61.1787109375 16.50439453125 61.4833984375 17.28515625 61.4833984375 18.1611328125 z" /><path d="M63.5146484375 22.6806640625 L63.5146484375 22.0078125 Q64.3525390625 21.7919921875 64.80322265625 21.626953125 65.25390625 21.4619140625 65.25390625 21.2333984375 L65.25390625 6.3544921875 Q65.25390625 5.7705078125 65.1904296875 5.453125 65.126953125 5.1357421875 64.9365234375 4.97705078125 64.74609375 4.818359375 64.4033203125 4.767578125 64.060546875 4.716796875 63.5146484375 4.6533203125 L63.5146484375 4.0185546875 Q64.5048828125 3.8408203125 65.41259765625 3.60595703125 66.3203125 3.37109375 67.0439453125 3.0029296875 L67.5390625 3.4599609375 67.5390625 15.939453125 71.2587890625 12.6640625 Q71.677734375 12.2958984375 71.779296875 12.07373046875 71.880859375 11.8515625 71.7666015625 11.7373046875 71.65234375 11.623046875 71.37939453125 11.5849609375 71.1064453125 11.546875 70.7763671875 11.546875 L70.7763671875 10.8740234375 75.8798828125 10.8740234375 75.8798828125 11.546875 Q75.3212890625 11.6103515625 74.81982421875 11.775390625 74.318359375 11.9404296875 73.78515625 12.359375 L69.6083984375 15.6474609375 74.318359375 21.1064453125 Q74.49609375 21.3095703125 74.68017578125 21.44287109375 74.8642578125 21.576171875 75.08642578125 21.64599609375 75.30859375 21.7158203125 75.59423828125 21.728515625 75.8798828125 21.7412109375 76.248046875 21.7158203125 L76.32421875 22.388671875 Q75.9560546875 22.4775390625 75.55615234375 22.5537109375 75.15625 22.6298828125 74.80078125 22.68701171875 74.4453125 22.744140625 74.166015625 22.77587890625 73.88671875 22.8076171875 73.759765625 22.8076171875 73.2265625 22.8076171875 72.89013671875 22.6552734375 72.5537109375 22.5029296875 72.2744140625 22.134765625 L67.5390625 16.0791015625 67.5390625 21.2333984375 Q67.5390625 21.3349609375 67.58349609375 21.4111328125 67.6279296875 21.4873046875 67.767578125 21.56982421875 67.9072265625 21.65234375 68.1865234375 21.75390625 68.4658203125 21.85546875 68.935546875 22.0078125 L68.935546875 22.6806640625 63.5146484375 22.6806640625 z" /><path d="M87.7373046875 7.458984375 Q87.5849609375 7.458984375 87.42626953125 7.46533203125 87.267578125 7.4716796875 87.08984375 7.4716796875 L87.08984375 13.4130859375 87.4580078125 13.4130859375 Q88.841796875 13.4130859375 89.705078125 13.14013671875 90.568359375 12.8671875 91.04443359375 12.42919921875 91.5205078125 11.9912109375 91.685546875 11.4453125 91.8505859375 10.8994140625 91.8505859375 10.353515625 91.8505859375 9.71875 91.6474609375 9.185546875 91.4443359375 8.65234375 90.96826171875 8.271484375 90.4921875 7.890625 89.705078125 7.6748046875 88.91796875 7.458984375 87.7373046875 7.458984375 zM89.0576171875 14.4794921875 Q88.4482421875 14.4794921875 87.98486328125 14.53662109375 87.521484375 14.59375 87.08984375 14.6572265625 L87.08984375 21.2587890625 Q87.08984375 21.34765625 87.19140625 21.4365234375 87.39453125 21.5126953125 87.6484375 21.5634765625 87.90234375 21.6142578125 88.17529296875 21.6396484375 88.4482421875 21.6650390625 88.72119140625 21.677734375 88.994140625 21.6904296875 89.248046875 21.6904296875 90.162109375 21.6904296875 90.8857421875 21.4619140625 91.609375 21.2333984375 92.11083984375 20.82080078125 92.6123046875 20.408203125 92.87890625 19.82421875 93.1455078125 19.240234375 93.1455078125 18.529296875 93.1455078125 17.8310546875 92.92333984375 17.107421875 92.701171875 16.3837890625 92.2060546875 15.7998046875 91.7109375 15.2158203125 90.9365234375 14.84765625 90.162109375 14.4794921875 89.0576171875 14.4794921875 zM95.646484375 18.1611328125 Q95.646484375 19.240234375 95.21484375 20.10986328125 94.783203125 20.9794921875 93.98974609375 21.5888671875 93.1962890625 22.1982421875 92.0791015625 22.5283203125 90.9619140625 22.8583984375 89.5908203125 22.8583984375 89.3115234375 22.8583984375 88.91162109375 22.85205078125 88.51171875 22.845703125 88.0546875 22.8330078125 87.59765625 22.8203125 87.10888671875 22.8076171875 86.6201171875 22.794921875 86.150390625 22.76953125 85.0458984375 22.7314453125 83.8271484375 22.6806640625 L82.875 22.6806640625 82.875 22.0078125 Q83.73828125 21.830078125 84.2080078125 21.62060546875 84.677734375 21.4111328125 84.677734375 21.2333984375 L84.677734375 7.6748046875 Q84.1953125 7.73828125 83.73828125 7.8017578125 83.28125 7.865234375 82.875 7.94140625 L82.7353515625 7.0654296875 Q83.255859375 6.92578125 83.94775390625 6.79248046875 84.6396484375 6.6591796875 85.40771484375 6.55126953125 86.17578125 6.443359375 86.96923828125 6.37353515625 87.7626953125 6.3037109375 88.4736328125 6.3037109375 89.806640625 6.3037109375 90.87939453125 6.53857421875 91.9521484375 6.7734375 92.69482421875 7.2177734375 93.4375 7.662109375 93.83740234375 8.296875 94.2373046875 8.931640625 94.2373046875 9.7314453125 94.2373046875 11.1025390625 93.55810546875 12.080078125 92.87890625 13.0576171875 91.66015625 13.501953125 92.5107421875 13.654296875 93.24072265625 14.0732421875 93.970703125 14.4921875 94.50390625 15.10791015625 95.037109375 15.7236328125 95.341796875 16.50439453125 95.646484375 17.28515625 95.646484375 18.1611328125 z" /><path d="M101.7275390625 21.220703125 Q102.3876953125 21.220703125 103.16845703125 20.87158203125 103.94921875 20.5224609375 104.9140625 19.697265625 L104.9140625 16.57421875 Q103.94921875 16.7265625 103.314453125 16.87890625 102.6796875 17.03125 102.2607421875 17.18994140625 101.841796875 17.3486328125 101.59423828125 17.52001953125 101.3466796875 17.69140625 101.15625 17.89453125 100.826171875 18.2373046875 100.623046875 18.65625 100.419921875 19.0751953125 100.419921875 19.646484375 100.419921875 20.12890625 100.5595703125 20.43359375 100.69921875 20.73828125 100.90234375 20.916015625 101.10546875 21.09375 101.333984375 21.1572265625 101.5625 21.220703125 101.7275390625 21.220703125 zM109.1416015625 21.5126953125 Q108.0625 22.26171875 107.21826171875 22.66162109375 106.3740234375 23.0615234375 105.98046875 23.0615234375 105.5361328125 23.0615234375 105.25048828125 22.490234375 104.96484375 21.9189453125 104.9140625 20.916015625 104.3427734375 21.5 103.771484375 21.90625 103.2001953125 22.3125 102.66064453125 22.57275390625 102.12109375 22.8330078125 101.6259765625 22.947265625 101.130859375 23.0615234375 100.724609375 23.0615234375 100.2421875 23.0615234375 99.75341796875 22.90283203125 99.2646484375 22.744140625 98.86474609375 22.4013671875 98.46484375 22.05859375 98.2109375 21.525390625 97.95703125 20.9921875 97.95703125 20.255859375 97.95703125 19.3291015625 98.287109375 18.6943359375 98.6171875 18.0595703125 99.0869140625 17.58984375 99.3916015625 17.28515625 99.78515625 17.005859375 100.1787109375 16.7265625 100.81982421875 16.47265625 101.4609375 16.21875 102.44482421875 15.98388671875 103.4287109375 15.7490234375 104.9140625 15.5205078125 L104.9140625 13.83203125 Q104.9140625 13.4130859375 104.8251953125 13.05126953125 104.736328125 12.689453125 104.5078125 12.42919921875 104.279296875 12.1689453125 103.8984375 12.02294921875 103.517578125 11.876953125 102.9462890625 11.8896484375 102.5654296875 11.8896484375 102.2099609375 12.0166015625 101.8544921875 12.1435546875 101.5751953125 12.359375 101.2958984375 12.5751953125 101.1435546875 12.88623046875 100.9912109375 13.197265625 101.029296875 13.578125 101.0419921875 13.654296875 100.88330078125 13.755859375 100.724609375 13.857421875 100.47705078125 13.958984375 100.2294921875 14.060546875 99.93115234375 14.1494140625 99.6328125 14.23828125 99.34716796875 14.3017578125 99.0615234375 14.365234375 98.82666015625 14.39697265625 98.591796875 14.4287109375 98.490234375 14.4033203125 L98.287109375 13.8447265625 Q98.5791015625 13.171875 99.201171875 12.5625 99.8232421875 11.953125 100.623046875 11.49609375 101.4228515625 11.0390625 102.3369140625 10.76611328125 103.2509765625 10.4931640625 104.1396484375 10.4931640625 105.650390625 10.4931640625 106.4248046875 11.267578125 107.19921875 12.0419921875 107.19921875 13.349609375 L107.19921875 20.1669921875 Q107.19921875 20.7001953125 107.3388671875 20.9287109375 107.478515625 21.1572265625 107.70703125 21.1572265625 107.884765625 21.1572265625 108.1513671875 21.09375 108.41796875 21.0302734375 108.92578125 20.814453125 L109.1416015625 21.5126953125 z" /><path d="M118.5234375 19.087890625 Q118.5234375 19.9892578125 118.26318359375 20.63037109375 118.0029296875 21.271484375 117.59033203125 21.7158203125 117.177734375 22.16015625 116.66357421875 22.4267578125 116.1494140625 22.693359375 115.63525390625 22.8330078125 115.12109375 22.97265625 114.67041015625 23.01708984375 114.2197265625 23.0615234375 113.9404296875 23.0615234375 113.59765625 23.0615234375 113.19140625 23.00439453125 112.78515625 22.947265625 112.34716796875 22.8330078125 111.9091796875 22.71875 111.4521484375 22.541015625 110.9951171875 22.36328125 110.576171875 22.134765625 110.4873046875 22.0966796875 110.45556640625 21.70947265625 110.423828125 21.322265625 110.43017578125 20.80810546875 110.4365234375 20.2939453125 110.5 19.748046875 110.5634765625 19.2021484375 110.6650390625 18.859375 L111.36328125 18.9990234375 Q111.4267578125 19.5830078125 111.693359375 20.07177734375 111.9599609375 20.560546875 112.37890625 20.92236328125 112.7978515625 21.2841796875 113.34375 21.4873046875 113.8896484375 21.6904296875 114.51171875 21.6904296875 115.42578125 21.6904296875 115.958984375 21.21435546875 116.4921875 20.73828125 116.4921875 19.8876953125 116.4921875 19.3798828125 116.2255859375 18.986328125 115.958984375 18.5927734375 115.52099609375 18.2626953125 115.0830078125 17.9326171875 114.5244140625 17.640625 113.9658203125 17.3486328125 113.3818359375 17.0439453125 112.8486328125 16.77734375 112.3408203125 16.46630859375 111.8330078125 16.1552734375 111.43310546875 15.76806640625 111.033203125 15.380859375 110.7919921875 14.90478515625 110.55078125 14.4287109375 110.55078125 13.8193359375 110.55078125 13.0322265625 110.8935546875 12.41015625 111.236328125 11.7880859375 111.794921875 11.36279296875 112.353515625 10.9375 113.08349609375 10.71533203125 113.8134765625 10.4931640625 114.5751953125 10.4931640625 115.01953125 10.4931640625 115.52099609375 10.56298828125 116.0224609375 10.6328125 116.49853515625 10.759765625 116.974609375 10.88671875 117.38720703125 11.064453125 117.7998046875 11.2421875 118.06640625 11.470703125 118.142578125 11.5341796875 118.091796875 11.83251953125 118.041015625 12.130859375 117.92041015625 12.49267578125 117.7998046875 12.8544921875 117.65380859375 13.19091796875 117.5078125 13.52734375 117.40625 13.654296875 L116.7841796875 13.552734375 Q116.2763671875 12.5751953125 115.63525390625 12.13720703125 114.994140625 11.69921875 114.30859375 11.69921875 113.90234375 11.69921875 113.57861328125 11.826171875 113.2548828125 11.953125 113.03271484375 12.14990234375 112.810546875 12.3466796875 112.6962890625 12.6005859375 112.58203125 12.8544921875 112.58203125 13.12109375 112.58203125 13.52734375 112.810546875 13.85107421875 113.0390625 14.1748046875 113.42626953125 14.46044921875 113.8134765625 14.74609375 114.32763671875 15.0126953125 114.841796875 15.279296875 115.4130859375 15.583984375 115.958984375 15.86328125 116.517578125 16.1806640625 117.076171875 16.498046875 117.5205078125 16.91064453125 117.96484375 17.3232421875 118.244140625 17.85009765625 118.5234375 18.376953125 118.5234375 19.087890625 z" /><path d="M131.3076171875 7.458984375 Q131.091796875 7.458984375 130.86962890625 7.46533203125 130.6474609375 7.4716796875 130.4189453125 7.484375 L130.4189453125 13.8447265625 Q130.76171875 13.908203125 131.015625 13.9208984375 131.26953125 13.93359375 131.548828125 13.93359375 133.4658203125 13.93359375 134.44970703125 13.0576171875 135.43359375 12.181640625 135.43359375 10.5439453125 135.43359375 9.8837890625 135.21142578125 9.31884765625 134.9892578125 8.75390625 134.494140625 8.34130859375 133.9990234375 7.9287109375 133.2119140625 7.69384765625 132.4248046875 7.458984375 131.3076171875 7.458984375 zM126.2041015625 22.6806640625 L126.2041015625 22.0078125 Q127.0673828125 21.830078125 127.537109375 21.62060546875 128.0068359375 21.4111328125 128.0068359375 21.2333984375 L128.0068359375 7.7255859375 Q127.5498046875 7.7890625 127.09912109375 7.8525390625 126.6484375 7.916015625 126.2041015625 7.9794921875 L126.064453125 7.0654296875 Q126.6865234375 6.9130859375 127.333984375 6.77978515625 127.9814453125 6.646484375 128.68603515625 6.53857421875 129.390625 6.4306640625 130.1650390625 6.3671875 130.939453125 6.3037109375 131.802734375 6.3037109375 133.3642578125 6.3037109375 134.494140625 6.595703125 135.6240234375 6.8876953125 136.3603515625 7.408203125 137.0966796875 7.9287109375 137.4521484375 8.63330078125 137.8076171875 9.337890625 137.8076171875 10.150390625 137.8076171875 11.0517578125 137.54736328125 11.7880859375 137.287109375 12.5244140625 136.8173828125 13.1083984375 136.34765625 13.6923828125 135.6875 14.111328125 135.02734375 14.5302734375 134.240234375 14.771484375 L138.1376953125 20.7255859375 Q138.328125 20.9921875 138.53759765625 21.1572265625 138.7470703125 21.322265625 139.00732421875 21.40478515625 139.267578125 21.4873046875 139.59130859375 21.5 139.9150390625 21.5126953125 140.3466796875 21.474609375 L140.4990234375 22.1474609375 Q140.080078125 22.287109375 139.6357421875 22.4140625 139.19140625 22.541015625 138.77880859375 22.642578125 138.3662109375 22.744140625 138.00439453125 22.80126953125 137.642578125 22.8583984375 137.4013671875 22.8583984375 137.033203125 22.8583984375 136.68408203125 22.6552734375 136.3349609375 22.4521484375 136.1572265625 22.16015625 L132.38671875 15.1015625 Q132.234375 15.1142578125 132.07568359375 15.12060546875 131.9169921875 15.126953125 131.7646484375 15.126953125 131.4345703125 15.126953125 131.1044921875 15.09521484375 130.7744140625 15.0634765625 130.4189453125 14.9873046875 L130.4189453125 21.2333984375 Q130.4189453125 21.3857421875 130.86328125 21.60791015625 131.3076171875 21.830078125 132.234375 22.0078125 L132.234375 22.6806640625 126.2041015625 22.6806640625 z" /></g></svg>