<svg width="170" height="30" xmlns="http://www.w3.org/2000/svg" viewBox="0 0 170 30"><g fill="currentColor"><path d="M16.453125 7.6875 Q16.453125 8.068359375 16.2373046875 8.1826171875 16.021484375 8.296875 15.69140625 8.296875 15.640625 8.119140625 15.5390625 8.068359375 15.4375 8.017578125 15.4375 7.814453125 15.4375 7.5859375 15.6025390625 7.4208984375 15.767578125 7.255859375 15.99609375 7.255859375 16.173828125 7.255859375 16.3134765625 7.3828125 16.453125 7.509765625 16.453125 7.6875 zM15.005859375 6.51953125 L14.98046875 6.875 Q14.828125 6.9765625 14.7392578125 7.02734375 14.650390625 7.078125 14.548828125 7.205078125 14.294921875 7.12890625 14.142578125 7.001953125 14.091796875 6.900390625 14.0283203125 6.8115234375 13.96484375 6.72265625 13.96484375 6.595703125 13.96484375 6.544921875 14.015625 6.443359375 14.142578125 6.31640625 14.294921875 6.240234375 14.447265625 6.1640625 14.650390625 6.1640625 L14.853515625 6.1640625 Q14.853515625 6.3671875 14.904296875 6.3671875 14.955078125 6.3671875 15.005859375 6.51953125 zM13.380859375 5.3515625 Q13.3046875 5.5546875 13.279296875 5.70703125 13.25390625 5.859375 13.05078125 5.986328125 L12.59375 5.986328125 Q12.517578125 5.884765625 12.4794921875 5.783203125 12.44140625 5.681640625 12.365234375 5.60546875 12.416015625 5.3515625 12.466796875 5.25 L12.54296875 5.021484375 Q12.669921875 4.99609375 12.720703125 4.99609375 12.771484375 4.99609375 12.8984375 4.99609375 13.076171875 4.99609375 13.1650390625 5.1103515625 13.25390625 5.224609375 13.380859375 5.3515625 zM11.248046875 4.970703125 Q11.248046875 5.19921875 11.1083984375 5.3515625 10.96875 5.50390625 10.740234375 5.50390625 10.537109375 5.50390625 10.3974609375 5.3896484375 10.2578125 5.275390625 10.2578125 5.072265625 10.2578125 4.84375 10.486328125 4.7041015625 10.71484375 4.564453125 10.91796875 4.564453125 L11.095703125 4.564453125 Q11.146484375 4.666015625 11.197265625 4.7548828125 11.248046875 4.84375 11.248046875 4.970703125 zM8.98828125 5.046875 Q8.912109375 5.1484375 8.9248046875 5.1611328125 8.9375 5.173828125 8.9375 5.30078125 8.9375 5.453125 8.8486328125 5.5419921875 8.759765625 5.630859375 8.708984375 5.7578125 8.58203125 5.70703125 8.4296875 5.732421875 8.27734375 5.7578125 8.150390625 5.681640625 8.07421875 5.529296875 7.998046875 5.478515625 7.921875 5.427734375 7.921875 5.224609375 7.921875 4.89453125 8.2265625 4.79296875 8.53125 4.69140625 8.78515625 4.666015625 8.78515625 4.869140625 8.8232421875 4.89453125 8.861328125 4.919921875 8.98828125 5.046875 zM6.55078125 6.189453125 Q6.5 6.31640625 6.34765625 6.494140625 6.1953125 6.671875 6.04296875 6.671875 5.9921875 6.671875 5.8271484375 6.62109375 5.662109375 6.5703125 5.611328125 6.544921875 5.560546875 6.443359375 5.4970703125 6.3544921875 5.43359375 6.265625 5.43359375 6.138671875 5.458984375 6.087890625 5.509765625 5.9482421875 5.560546875 5.80859375 5.611328125 5.7578125 5.712890625 5.681640625 5.763671875 5.681640625 5.814453125 5.681640625 5.814453125 5.529296875 5.966796875 5.5546875 6.119140625 5.630859375 6.271484375 5.70703125 6.423828125 5.70703125 6.44921875 5.833984375 6.4619140625 5.9736328125 6.474609375 6.11328125 6.55078125 6.189453125 zM4.697265625 7.814453125 Q4.595703125 8.017578125 4.4814453125 8.169921875 4.3671875 8.322265625 4.1640625 8.3984375 4.037109375 8.34765625 3.9228515625 8.322265625 3.80859375 8.296875 3.70703125 8.1953125 3.60546875 7.94140625 3.60546875 7.814453125 3.60546875 7.611328125 3.7451171875 7.53515625 3.884765625 7.458984375 3.986328125 7.306640625 4.41796875 7.458984375 4.697265625 7.814453125 zM16.580078125 21.271484375 Q16.580078125 21.423828125 16.50390625 21.576171875 16.376953125 21.65234375 16.275390625 21.7412109375 16.173828125 21.830078125 16.021484375 21.830078125 15.818359375 21.830078125 15.666015625 21.65234375 15.513671875 21.474609375 15.513671875 21.271484375 15.513671875 21.017578125 15.6279296875 20.94140625 15.7421875 20.865234375 15.919921875 20.73828125 16.09765625 20.763671875 16.2119140625 20.7509765625 16.326171875 20.73828125 16.529296875 20.814453125 16.529296875 20.94140625 16.5546875 21.04296875 16.580078125 21.14453125 16.580078125 21.271484375 zM3.5546875 9.896484375 Q3.5546875 10.125 3.3896484375 10.2646484375 3.224609375 10.404296875 2.99609375 10.404296875 2.5390625 10.404296875 2.5390625 9.947265625 2.5390625 9.8203125 2.5771484375 9.66796875 2.615234375 9.515625 2.666015625 9.388671875 L2.919921875 9.388671875 Q3.173828125 9.388671875 3.3642578125 9.5029296875 3.5546875 9.6171875 3.5546875 9.896484375 zM14.9296875 22.8203125 Q14.9296875 22.947265625 14.8662109375 23.048828125 14.802734375 23.150390625 14.751953125 23.27734375 14.625 23.27734375 14.5361328125 23.302734375 14.447265625 23.328125 14.3203125 23.328125 14.1171875 23.328125 14.0029296875 23.201171875 13.888671875 23.07421875 13.888671875 22.87109375 13.888671875 22.66796875 14.0029296875 22.515625 14.1171875 22.36328125 14.3203125 22.36328125 14.5234375 22.36328125 14.7265625 22.490234375 14.9296875 22.6171875 14.9296875 22.8203125 zM2.513671875 12.00390625 Q2.513671875 12.2578125 2.310546875 12.51171875 2.18359375 12.5625 2.03125 12.587890625 1.87890625 12.61328125 1.7265625 12.689453125 1.650390625 12.486328125 1.548828125 12.3466796875 1.447265625 12.20703125 1.447265625 12.00390625 1.5234375 11.927734375 1.7138671875 11.75 1.904296875 11.572265625 2.03125 11.572265625 2.08203125 11.572265625 2.1455078125 11.5849609375 2.208984375 11.59765625 2.259765625 11.59765625 L2.513671875 12.00390625 zM12.8984375 23.810546875 L12.8984375 24.0390625 Q12.796875 24.115234375 12.6826171875 24.19140625 12.568359375 24.267578125 12.44140625 24.267578125 12.23828125 24.267578125 12.111328125 24.140625 11.984375 24.013671875 11.8828125 23.8359375 11.8828125 23.6328125 11.9462890625 23.6201171875 12.009765625 23.607421875 11.958984375 23.404296875 12.111328125 23.353515625 12.1494140625 23.3154296875 12.1875 23.27734375 12.314453125 23.150390625 12.44140625 23.201171875 12.568359375 23.27734375 12.6953125 23.353515625 12.84765625 23.353515625 12.873046875 23.48046875 12.8857421875 23.58203125 12.8984375 23.68359375 12.8984375 23.810546875 zM2.462890625 14.64453125 Q2.462890625 14.771484375 2.412109375 15.025390625 2.259765625 15.15234375 2.158203125 15.203125 2.056640625 15.25390625 1.853515625 15.25390625 1.421875 15.25390625 1.421875 14.822265625 1.421875 14.59375 1.548828125 14.4033203125 1.67578125 14.212890625 1.9296875 14.212890625 2.1328125 14.212890625 2.2978515625 14.3271484375 2.462890625 14.44140625 2.462890625 14.64453125 zM10.30859375 24.2421875 L10.181640625 24.419921875 10.029296875 24.419921875 Q9.953125 24.419921875 9.8896484375 24.4326171875 9.826171875 24.4453125 9.75 24.4453125 9.6484375 24.34375 9.572265625 24.2421875 9.49609375 24.140625 9.39453125 24.013671875 9.4453125 23.8359375 9.5341796875 23.68359375 9.623046875 23.53125 9.75 23.404296875 9.876953125 23.404296875 9.9658203125 23.4169921875 10.0546875 23.4296875 10.181640625 23.4296875 10.30859375 23.6328125 10.4609375 23.759765625 10.41015625 23.912109375 10.41015625 23.962890625 10.41015625 24.166015625 10.359375 24.216796875 10.333984375 24.2421875 10.30859375 24.2421875 zM2.919921875 17.056640625 Q2.919921875 17.259765625 2.8564453125 17.361328125 2.79296875 17.462890625 2.716796875 17.640625 2.615234375 17.69140625 2.5390625 17.716796875 2.462890625 17.7421875 2.361328125 17.7421875 2.18359375 17.7421875 2.0439453125 17.615234375 1.904296875 17.48828125 1.802734375 17.361328125 1.853515625 17.234375 1.853515625 17.08203125 1.853515625 16.98046875 1.904296875 16.87890625 2.03125 16.828125 2.18359375 16.7646484375 2.3359375 16.701171875 2.4375 16.701171875 2.48828125 16.701171875 2.6787109375 16.853515625 2.869140625 17.005859375 2.919921875 17.056640625 zM7.998046875 23.556640625 Q7.947265625 23.68359375 7.9091796875 23.7470703125 7.87109375 23.810546875 7.896484375 23.9375 7.76953125 24.013671875 7.6171875 24.08984375 7.46484375 24.166015625 7.3125 24.166015625 7.134765625 24.166015625 6.982421875 24.0390625 6.830078125 23.912109375 6.830078125 23.734375 6.830078125 23.58203125 6.982421875 23.37890625 7.134765625 23.17578125 7.287109375 23.125 7.337890625 23.17578125 7.388671875 23.1630859375 7.439453125 23.150390625 7.515625 23.150390625 L7.66796875 23.150390625 Q7.744140625 23.302734375 7.8076171875 23.3662109375 7.87109375 23.4296875 7.998046875 23.556640625 zM3.7578125 19.875 Q3.70703125 20.12890625 3.580078125 20.306640625 3.453125 20.484375 3.173828125 20.484375 L2.970703125 20.484375 Q2.919921875 20.3828125 2.84375 20.2939453125 2.767578125 20.205078125 2.7421875 20.103515625 2.69140625 19.951171875 2.69140625 19.92578125 2.69140625 19.849609375 2.716796875 19.7861328125 2.7421875 19.72265625 2.767578125 19.671875 3.021484375 19.494140625 3.275390625 19.494140625 3.3515625 19.494140625 3.50390625 19.544921875 3.5546875 19.646484375 3.60546875 19.72265625 3.65625 19.798828125 3.7578125 19.875 zM5.865234375 22.337890625 Q5.7890625 22.515625 5.7001953125 22.6298828125 5.611328125 22.744140625 5.408203125 22.8203125 5.255859375 22.76953125 5.0400390625 22.6806640625 4.82421875 22.591796875 4.82421875 22.388671875 4.82421875 22.236328125 4.92578125 22.083984375 5.052734375 22.0078125 5.1669921875 21.9443359375 5.28125 21.880859375 5.408203125 21.880859375 5.611328125 21.880859375 5.7001953125 22.033203125 5.7890625 22.185546875 5.865234375 22.337890625 z" /><path d="M35.775390625 8.576171875 Q35.6484375 8.779296875 35.5595703125 8.8935546875 35.470703125 9.0078125 35.29296875 9.185546875 L35.140625 9.185546875 Q35.0390625 9.185546875 34.962890625 9.1728515625 34.88671875 9.16015625 34.810546875 9.185546875 34.759765625 9.033203125 34.6328125 8.9443359375 34.505859375 8.85546875 34.505859375 8.677734375 34.505859375 8.3984375 34.6455078125 8.34765625 34.78515625 8.296875 34.98828125 8.24609375 35.140625 8.1953125 35.2421875 8.1953125 35.29296875 8.1953125 35.4833984375 8.3603515625 35.673828125 8.525390625 35.775390625 8.576171875 zM33.794921875 6.875 Q33.794921875 7.02734375 33.6806640625 7.1669921875 33.56640625 7.306640625 33.515625 7.458984375 33.26171875 7.408203125 32.982421875 7.3447265625 32.703125 7.28125 32.703125 6.92578125 32.703125 6.82421875 32.7412109375 6.7353515625 32.779296875 6.646484375 32.779296875 6.544921875 33.033203125 6.3671875 33.287109375 6.3671875 33.4140625 6.3671875 33.5283203125 6.4306640625 33.642578125 6.494140625 33.76953125 6.5703125 33.76953125 6.646484375 33.7822265625 6.72265625 33.794921875 6.798828125 33.794921875 6.875 zM31.611328125 5.275390625 Q31.5859375 5.40234375 31.5478515625 5.529296875 31.509765625 5.65625 31.357421875 5.70703125 31.357421875 6.0625 31.001953125 6.0625 30.849609375 6.0625 30.671875 5.986328125 30.62109375 5.859375 30.544921875 5.7451171875 30.46875 5.630859375 30.46875 5.50390625 30.46875 5.40234375 30.51953125 5.30078125 L30.798828125 5.072265625 30.951171875 5.072265625 Q31.12890625 5.072265625 31.33203125 5.224609375 L31.611328125 5.275390625 zM36.96875 11.49609375 Q36.81640625 11.775390625 36.486328125 11.775390625 36.283203125 11.775390625 36.1689453125 11.7119140625 36.0546875 11.6484375 35.90234375 11.521484375 L35.90234375 11.19140625 Q35.90234375 11.064453125 35.927734375 10.98828125 36.0546875 10.912109375 36.1689453125 10.8232421875 36.283203125 10.734375 36.435546875 10.734375 36.486328125 10.734375 36.638671875 10.78515625 36.841796875 11.0390625 36.841796875 11.140625 36.841796875 11.2421875 36.96875 11.49609375 zM28.69140625 5.19921875 Q28.69140625 5.427734375 28.4501953125 5.5166015625 28.208984375 5.60546875 28.03125 5.630859375 27.87890625 5.50390625 27.7900390625 5.427734375 27.701171875 5.3515625 27.498046875 5.30078125 27.548828125 5.224609375 27.5869140625 5.1357421875 27.625 5.046875 27.625 4.970703125 27.625 4.84375 27.8662109375 4.716796875 28.107421875 4.58984375 28.18359375 4.462890625 28.310546875 4.58984375 28.412109375 4.6787109375 28.513671875 4.767578125 28.640625 4.84375 28.640625 4.9453125 28.666015625 5.021484375 28.69140625 5.09765625 28.69140625 5.19921875 zM37.451171875 14.23828125 Q37.248046875 14.619140625 36.81640625 14.619140625 36.765625 14.619140625 36.689453125 14.6064453125 36.61328125 14.59375 36.5625 14.59375 36.486328125 14.466796875 36.41015625 14.33984375 36.333984375 14.212890625 36.333984375 14.0859375 36.333984375 13.93359375 36.435546875 13.73046875 36.5625 13.62890625 36.71484375 13.62890625 36.8671875 13.62890625 36.994140625 13.552734375 37.12109375 13.6796875 37.375 13.73046875 L37.451171875 14.23828125 zM37.197265625 17.310546875 Q37.197265625 17.38671875 37.146484375 17.5390625 36.943359375 17.7421875 36.6640625 17.7421875 36.5625 17.7421875 36.4736328125 17.716796875 36.384765625 17.69140625 36.283203125 17.666015625 36.232421875 17.564453125 36.1943359375 17.4755859375 36.15625 17.38671875 36.15625 17.259765625 36.15625 17.18359375 36.1689453125 17.1201171875 36.181640625 17.056640625 36.181640625 16.98046875 36.2578125 16.9296875 36.3466796875 16.904296875 36.435546875 16.87890625 36.4609375 16.751953125 36.5625 16.701171875 36.6640625 16.701171875 36.791015625 16.701171875 36.8671875 16.77734375 36.943359375 16.853515625 37.0703125 16.87890625 37.12109375 16.98046875 37.1591796875 17.08203125 37.197265625 17.18359375 37.197265625 17.310546875 zM25.669921875 6.265625 Q25.4921875 6.3671875 25.3779296875 6.46875 25.263671875 6.5703125 25.060546875 6.5703125 L24.908203125 6.5703125 Q24.83203125 6.494140625 24.755859375 6.41796875 24.6796875 6.341796875 24.62890625 6.240234375 24.603515625 6.138671875 24.5908203125 6.0751953125 24.578125 6.01171875 24.578125 5.9609375 24.578125 5.859375 24.62890625 5.7958984375 24.6796875 5.732421875 24.6796875 5.630859375 24.8828125 5.529296875 25.009765625 5.529296875 25.1875 5.529296875 25.3271484375 5.60546875 25.466796875 5.681640625 25.59375 5.7578125 L25.59375 5.91015625 Q25.59375 6.01171875 25.619140625 6.1005859375 25.64453125 6.189453125 25.669921875 6.265625 zM35.826171875 20.205078125 Q35.75 20.763671875 35.2421875 20.763671875 34.98828125 20.763671875 34.912109375 20.6240234375 34.8359375 20.484375 34.734375 20.306640625 34.78515625 20.103515625 34.9248046875 19.92578125 35.064453125 19.748046875 35.29296875 19.748046875 35.419921875 19.748046875 35.623046875 19.849609375 35.623046875 20.001953125 35.6865234375 20.0400390625 35.75 20.078125 35.826171875 20.205078125 zM23.10546875 7.662109375 Q23.10546875 7.94140625 22.90234375 8.09375 22.69921875 8.24609375 22.4453125 8.24609375 22.29296875 8.24609375 22.140625 8.068359375 21.98828125 7.890625 21.98828125 7.763671875 21.98828125 7.5859375 22.0771484375 7.458984375 22.166015625 7.33203125 22.29296875 7.23046875 L22.49609375 7.205078125 Q22.69921875 7.255859375 22.90234375 7.3447265625 23.10546875 7.43359375 23.10546875 7.662109375 zM33.591796875 22.693359375 L33.591796875 22.947265625 Q33.46484375 22.998046875 33.3251953125 23.0234375 33.185546875 23.048828125 33.033203125 23.048828125 32.85546875 23.048828125 32.7158203125 22.947265625 32.576171875 22.845703125 32.44921875 22.744140625 32.55078125 22.515625 32.6904296875 22.3125 32.830078125 22.109375 33.109375 22.109375 33.3125 22.109375 33.4521484375 22.3125 33.591796875 22.515625 33.591796875 22.693359375 zM21.302734375 10.37890625 Q21.302734375 10.455078125 21.2900390625 10.53125 21.27734375 10.607421875 21.27734375 10.68359375 21.150390625 10.759765625 20.998046875 10.8232421875 20.845703125 10.88671875 20.693359375 10.88671875 20.56640625 10.88671875 20.4140625 10.8359375 20.36328125 10.708984375 20.3125 10.658203125 20.26171875 10.607421875 20.185546875 10.48046875 20.236328125 10.17578125 20.36328125 9.97265625 20.490234375 9.921875 20.6171875 9.896484375 20.744140625 9.87109375 20.87109375 9.87109375 L21.099609375 9.87109375 Q21.17578125 9.998046875 21.2392578125 10.1123046875 21.302734375 10.2265625 21.302734375 10.37890625 zM20.541015625 13.2734375 Q20.541015625 13.654296875 20.4013671875 13.908203125 20.26171875 14.162109375 19.830078125 14.162109375 19.728515625 14.060546875 19.5888671875 13.9716796875 19.44921875 13.8828125 19.44921875 13.73046875 19.44921875 13.62890625 19.474609375 13.552734375 19.5 13.4765625 19.5 13.400390625 19.626953125 13.32421875 19.75390625 13.197265625 19.880859375 13.0703125 20.0078125 13.0703125 20.134765625 13.0703125 20.2109375 13.171875 20.287109375 13.2734375 20.541015625 13.2734375 zM30.46875 23.98828125 Q30.46875 24.166015625 30.41796875 24.2421875 30.31640625 24.369140625 30.1767578125 24.4072265625 30.037109375 24.4453125 29.91015625 24.49609375 29.783203125 24.39453125 29.6943359375 24.3564453125 29.60546875 24.318359375 29.478515625 24.267578125 29.478515625 24.19140625 29.4658203125 24.1279296875 29.453125 24.064453125 29.453125 23.98828125 29.453125 23.912109375 29.50390625 23.759765625 29.5546875 23.68359375 29.681640625 23.5693359375 29.80859375 23.455078125 29.91015625 23.455078125 30.11328125 23.455078125 30.1513671875 23.505859375 30.189453125 23.556640625 30.341796875 23.58203125 30.46875 23.78515625 30.46875 23.98828125 zM20.642578125 16.9296875 L20.642578125 17.03125 Q20.515625 17.208984375 20.4521484375 17.3359375 20.388671875 17.462890625 20.134765625 17.462890625 19.830078125 17.462890625 19.6015625 17.234375 19.55078125 17.03125 19.55078125 16.87890625 19.55078125 16.7265625 19.6396484375 16.625 19.728515625 16.5234375 19.8046875 16.396484375 19.90625 16.447265625 19.9951171875 16.421875 20.083984375 16.396484375 20.2109375 16.421875 20.337890625 16.57421875 20.490234375 16.5869140625 20.642578125 16.599609375 20.642578125 16.9296875 zM27.37109375 24.115234375 Q27.37109375 24.318359375 27.21875 24.4580078125 27.06640625 24.59765625 26.86328125 24.59765625 26.634765625 24.59765625 26.533203125 24.5087890625 26.431640625 24.419921875 26.380859375 24.29296875 26.330078125 24.166015625 26.3046875 24.013671875 26.279296875 23.861328125 26.177734375 23.734375 26.330078125 23.708984375 26.40625 23.68359375 26.482421875 23.658203125 26.533203125 23.6328125 26.583984375 23.607421875 26.6220703125 23.5693359375 26.66015625 23.53125 26.787109375 23.48046875 27.015625 23.53125 27.193359375 23.6962890625 27.37109375 23.861328125 27.37109375 24.115234375 zM21.78515625 20.1796875 Q21.78515625 20.306640625 21.734375 20.3828125 21.68359375 20.458984375 21.6328125 20.560546875 21.58203125 20.5859375 21.4423828125 20.63671875 21.302734375 20.6875 21.251953125 20.6875 21.17578125 20.6875 21.1123046875 20.6494140625 21.048828125 20.611328125 20.97265625 20.611328125 20.921875 20.611328125 20.896484375 20.6240234375 20.87109375 20.63671875 20.8203125 20.63671875 20.744140625 20.458984375 20.7314453125 20.3955078125 20.71875 20.33203125 20.71875 20.12890625 L20.66796875 20.02734375 20.947265625 19.62109375 Q20.97265625 19.646484375 21.07421875 19.697265625 21.125 19.697265625 21.17578125 19.6845703125 21.2265625 19.671875 21.27734375 19.671875 21.353515625 19.671875 21.5185546875 19.7734375 21.68359375 19.875 21.734375 19.92578125 21.78515625 20.12890625 21.78515625 20.1796875 zM24.22265625 22.56640625 Q24.22265625 22.71875 24.12109375 22.794921875 24.01953125 22.87109375 23.96875 22.998046875 23.8671875 23.048828125 23.791015625 23.07421875 23.71484375 23.099609375 23.61328125 23.099609375 23.4609375 23.099609375 23.3212890625 22.947265625 23.181640625 22.794921875 23.029296875 22.744140625 23.080078125 22.541015625 23.1435546875 22.36328125 23.20703125 22.185546875 23.359375 22.033203125 23.587890625 22.033203125 23.9052734375 22.16015625 24.22265625 22.287109375 24.22265625 22.56640625 z" /><path d="M54.69140625 6.82421875 Q54.615234375 6.951171875 54.615234375 7.02734375 54.615234375 7.103515625 54.615234375 7.255859375 54.48828125 7.33203125 54.3486328125 7.43359375 54.208984375 7.53515625 54.08203125 7.5859375 53.87890625 7.5859375 53.650390625 7.408203125 53.599609375 7.205078125 53.599609375 7.103515625 53.599609375 6.849609375 53.7138671875 6.6845703125 53.828125 6.51953125 54.107421875 6.51953125 54.28515625 6.51953125 54.412109375 6.6337890625 54.5390625 6.748046875 54.69140625 6.82421875 zM56.392578125 8.982421875 Q56.291015625 9.083984375 56.240234375 9.16015625 56.265625 9.185546875 56.265625 9.26171875 56.265625 9.3125 56.240234375 9.36328125 56.1640625 9.388671875 56.087890625 9.4140625 56.01171875 9.439453125 55.91015625 9.439453125 55.529296875 9.439453125 55.326171875 9.05859375 55.453125 8.830078125 55.5546875 8.6015625 55.65625 8.373046875 55.9609375 8.373046875 56.138671875 8.474609375 56.265625 8.626953125 56.392578125 8.779296875 56.392578125 8.982421875 zM52.3046875 6.037109375 Q52.3046875 6.087890625 52.25390625 6.291015625 52.025390625 6.51953125 51.796875 6.51953125 51.568359375 6.51953125 51.416015625 6.3671875 51.314453125 6.1640625 51.314453125 5.986328125 51.314453125 5.884765625 51.365234375 5.732421875 51.4921875 5.681640625 51.517578125 5.5927734375 51.54296875 5.50390625 51.74609375 5.50390625 51.94921875 5.50390625 52.126953125 5.6689453125 52.3046875 5.833984375 52.3046875 6.037109375 zM57.052734375 10.861328125 L57.001953125 11.546875 Q56.900390625 11.572265625 56.8115234375 11.59765625 56.72265625 11.623046875 56.62109375 11.623046875 56.494140625 11.623046875 56.3291015625 11.5595703125 56.1640625 11.49609375 56.11328125 11.419921875 56.0625 11.318359375 56.0625 11.08984375 56.0625 10.98828125 56.087890625 10.912109375 56.11328125 10.8359375 56.138671875 10.734375 56.31640625 10.6328125 56.4052734375 10.58203125 56.494140625 10.53125 56.697265625 10.53125 56.748046875 10.658203125 56.849609375 10.7216796875 56.951171875 10.78515625 57.052734375 10.861328125 zM49.943359375 5.60546875 Q49.943359375 5.65625 49.892578125 5.80859375 49.81640625 5.884765625 49.7275390625 5.986328125 49.638671875 6.087890625 49.537109375 6.138671875 49.2578125 6.138671875 49.080078125 5.986328125 48.90234375 5.833984375 48.90234375 5.5546875 L48.90234375 5.427734375 Q48.978515625 5.3515625 49.0673828125 5.2880859375 49.15625 5.224609375 49.20703125 5.173828125 49.359375 5.123046875 49.435546875 5.123046875 49.5625 5.123046875 49.6513671875 5.173828125 49.740234375 5.224609375 49.8671875 5.25 49.8671875 5.3515625 49.9052734375 5.427734375 49.943359375 5.50390625 49.943359375 5.60546875 zM57.5859375 13.451171875 Q57.5859375 13.578125 57.5478515625 13.6796875 57.509765625 13.78125 57.509765625 13.908203125 57.43359375 13.984375 57.3193359375 14.0478515625 57.205078125 14.111328125 57.078125 14.111328125 56.875 14.111328125 56.7607421875 13.958984375 56.646484375 13.806640625 56.646484375 13.603515625 56.646484375 13.349609375 56.849609375 13.146484375 57.052734375 13.095703125 57.103515625 13.095703125 57.33203125 13.095703125 57.53515625 13.22265625 57.5859375 13.375 57.5859375 13.451171875 zM47.505859375 5.40234375 Q47.37890625 5.60546875 47.3154296875 5.783203125 47.251953125 5.9609375 46.947265625 5.986328125 46.744140625 5.884765625 46.6044921875 5.7705078125 46.46484375 5.65625 46.46484375 5.40234375 46.46484375 5.326171875 46.515625 5.173828125 46.642578125 5.123046875 46.7822265625 5.072265625 46.921875 5.021484375 47.07421875 5.021484375 47.27734375 5.021484375 47.353515625 5.1357421875 47.4296875 5.25 47.505859375 5.40234375 zM57.560546875 16.1171875 Q57.53515625 16.3203125 57.306640625 16.548828125 57.205078125 16.57421875 57.12890625 16.5869140625 57.052734375 16.599609375 56.951171875 16.599609375 56.82421875 16.599609375 56.798828125 16.5234375 56.72265625 16.447265625 56.6337890625 16.3837890625 56.544921875 16.3203125 56.494140625 16.21875 56.494140625 15.86328125 56.595703125 15.76171875 L57.154296875 15.533203125 Q57.205078125 15.634765625 57.2685546875 15.6982421875 57.33203125 15.76171875 57.458984375 15.8125 L57.560546875 16.1171875 zM45.1953125 5.50390625 Q45.1953125 5.580078125 45.1826171875 5.6435546875 45.169921875 5.70703125 45.169921875 5.7578125 45.04296875 5.833984375 45.0048828125 5.9228515625 44.966796875 6.01171875 44.7890625 6.087890625 44.712890625 6.087890625 44.63671875 6.11328125 44.560546875 6.138671875 44.484375 6.138671875 44.306640625 6.138671875 44.1796875 5.9228515625 44.052734375 5.70703125 44.052734375 5.5546875 44.052734375 5.3515625 44.2431640625 5.2373046875 44.43359375 5.123046875 44.611328125 5.123046875 44.763671875 5.123046875 44.9794921875 5.224609375 45.1953125 5.326171875 45.1953125 5.50390625 zM57.1796875 18.25 Q57.1796875 18.478515625 57.02734375 18.6689453125 56.875 18.859375 56.62109375 18.859375 56.494140625 18.859375 56.341796875 18.7578125 56.31640625 18.65625 56.2275390625 18.60546875 56.138671875 18.5546875 56.0625 18.50390625 56.11328125 18.376953125 56.1259765625 18.3134765625 56.138671875 18.25 56.11328125 18.123046875 56.291015625 17.9453125 56.4814453125 17.89453125 56.671875 17.84375 56.900390625 17.7421875 L56.82421875 17.84375 Q57.02734375 17.9453125 57.12890625 17.970703125 57.1796875 18.123046875 57.1796875 18.25 zM42.478515625 5.70703125 Q42.478515625 5.884765625 42.3642578125 5.9990234375 42.25 6.11328125 42.1484375 6.21484375 41.99609375 6.189453125 41.8564453125 6.1513671875 41.716796875 6.11328125 41.615234375 5.986328125 41.38671875 5.884765625 41.38671875 5.70703125 41.38671875 5.50390625 41.58984375 5.3642578125 41.79296875 5.224609375 41.99609375 5.224609375 42.19921875 5.224609375 42.3388671875 5.3642578125 42.478515625 5.50390625 42.478515625 5.70703125 zM56.265625 20.662109375 Q56.189453125 20.865234375 56.037109375 21.0810546875 55.884765625 21.296875 55.65625 21.296875 55.453125 21.296875 55.3388671875 21.14453125 55.224609375 20.9921875 55.123046875 20.83984375 55.123046875 20.712890625 55.173828125 20.560546875 55.19921875 20.484375 55.19921875 20.43359375 55.224609375 20.3828125 55.275390625 20.357421875 55.376953125 20.306640625 55.427734375 20.306640625 55.630859375 20.205078125 55.7578125 20.205078125 L55.859375 20.205078125 56.265625 20.662109375 zM42.529296875 8.119140625 Q42.529296875 8.220703125 42.5166015625 8.296875 42.50390625 8.373046875 42.529296875 8.474609375 42.376953125 8.525390625 42.25 8.626953125 42.123046875 8.728515625 41.970703125 8.728515625 41.767578125 8.728515625 41.640625 8.5634765625 41.513671875 8.3984375 41.513671875 8.1953125 41.513671875 7.966796875 41.69140625 7.8525390625 41.869140625 7.73828125 42.09765625 7.73828125 42.224609375 7.73828125 42.3388671875 7.814453125 42.453125 7.890625 42.529296875 7.9921875 L42.529296875 8.119140625 zM54.1328125 22.36328125 Q54.08203125 22.541015625 54.0439453125 22.7060546875 54.005859375 22.87109375 53.9296875 23.048828125 53.904296875 23.0234375 53.828125 23.0234375 53.7265625 23.048828125 53.6630859375 23.07421875 53.599609375 23.099609375 53.498046875 23.099609375 53.421875 23.048828125 53.3203125 23.0107421875 53.21875 22.97265625 53.142578125 22.921875 53.06640625 22.744140625 53.06640625 22.515625 53.21875 22.388671875 53.2568359375 22.1982421875 53.294921875 22.0078125 53.57421875 22.0078125 53.650390625 22.0078125 53.802734375 22.05859375 53.904296875 22.109375 53.98046875 22.1982421875 54.056640625 22.287109375 54.1328125 22.36328125 zM42.427734375 10.6328125 Q42.376953125 10.734375 42.3896484375 10.8232421875 42.40234375 10.912109375 42.3515625 11.013671875 42.224609375 11.08984375 42.09765625 11.166015625 41.970703125 11.2421875 41.84375 11.318359375 41.640625 11.318359375 41.48828125 11.166015625 41.3359375 11.013671875 41.234375 10.810546875 41.310546875 10.708984375 41.3359375 10.607421875 41.361328125 10.505859375 41.4375 10.404296875 41.58984375 10.37890625 41.6787109375 10.328125 41.767578125 10.27734375 41.9453125 10.27734375 42.072265625 10.37890625 42.1865234375 10.4423828125 42.30078125 10.505859375 42.427734375 10.6328125 zM42.60546875 13.095703125 Q42.60546875 13.2734375 42.5546875 13.349609375 42.50390625 13.42578125 42.478515625 13.578125 42.3515625 13.603515625 42.19921875 13.654296875 42.046875 13.705078125 41.970703125 13.705078125 41.79296875 13.705078125 41.69140625 13.501953125 41.58984375 13.298828125 41.58984375 13.171875 41.58984375 12.96875 41.716796875 12.791015625 41.84375 12.61328125 42.072265625 12.61328125 42.19921875 12.61328125 42.3515625 12.7275390625 42.50390625 12.841796875 42.60546875 12.892578125 L42.60546875 13.095703125 zM51.416015625 23.353515625 L51.1875 23.88671875 Q50.984375 23.962890625 50.78125 23.962890625 50.705078125 23.962890625 50.6162109375 23.9501953125 50.52734375 23.9375 50.451171875 23.9375 L50.2734375 23.2265625 Q50.501953125 22.947265625 50.83203125 22.947265625 51.060546875 22.947265625 51.23828125 23.125 51.263671875 23.251953125 51.263671875 23.27734375 51.263671875 23.302734375 51.416015625 23.353515625 zM42.224609375 15.35546875 L42.30078125 15.583984375 Q42.3515625 15.736328125 42.3515625 15.787109375 42.3515625 15.9140625 42.25 16.041015625 42.1484375 16.16796875 42.072265625 16.26953125 41.919921875 16.3203125 41.818359375 16.3203125 41.69140625 16.3203125 41.4375 16.21875 41.310546875 16.06640625 41.310546875 15.8125 41.310546875 15.583984375 41.38671875 15.431640625 41.640625 15.25390625 41.869140625 15.228515625 41.99609375 15.25390625 42.0341796875 15.279296875 42.072265625 15.3046875 42.224609375 15.35546875 zM48.013671875 23.53125 Q47.98828125 23.708984375 47.9248046875 23.734375 47.861328125 23.759765625 47.912109375 23.962890625 47.78515625 23.98828125 47.6201171875 24.064453125 47.455078125 24.140625 47.37890625 24.140625 47.2265625 24.140625 47.099609375 23.9248046875 46.97265625 23.708984375 46.97265625 23.556640625 46.97265625 23.37890625 47.1630859375 23.2265625 47.353515625 23.07421875 47.505859375 23.07421875 L47.708984375 23.07421875 Q47.861328125 23.17578125 47.8994140625 23.2900390625 47.9375 23.404296875 48.013671875 23.53125 zM42.60546875 18.580078125 Q42.5546875 18.783203125 42.40234375 18.935546875 42.25 19.087890625 42.046875 19.189453125 41.919921875 19.0625 41.7548828125 18.9736328125 41.58984375 18.884765625 41.58984375 18.681640625 41.58984375 18.580078125 41.6025390625 18.50390625 41.615234375 18.427734375 41.615234375 18.326171875 41.716796875 18.25 41.84375 18.1611328125 41.970703125 18.072265625 42.09765625 18.072265625 42.30078125 18.072265625 42.427734375 18.2373046875 42.5546875 18.40234375 42.60546875 18.580078125 zM45.5 23.455078125 Q45.5 23.6328125 45.423828125 23.7724609375 45.34765625 23.912109375 45.322265625 24.064453125 45.169921875 24.064453125 45.1064453125 24.115234375 45.04296875 24.166015625 44.94140625 24.166015625 44.6875 24.166015625 44.5478515625 23.98828125 44.408203125 23.810546875 44.408203125 23.58203125 44.408203125 23.37890625 44.53515625 23.27734375 44.662109375 23.17578125 44.763671875 23.0234375 45.04296875 23.07421875 45.1826171875 23.150390625 45.322265625 23.2265625 45.5 23.455078125 zM42.5546875 21.04296875 Q42.5546875 21.24609375 42.3515625 21.296875 42.275390625 21.3984375 42.1611328125 21.474609375 42.046875 21.55078125 41.919921875 21.55078125 41.818359375 21.55078125 41.666015625 21.44921875 L41.412109375 20.94140625 41.716796875 20.5859375 Q41.89453125 20.509765625 42.09765625 20.509765625 42.376953125 20.509765625 42.529296875 20.763671875 42.529296875 20.814453125 42.5419921875 20.890625 42.5546875 20.966796875 42.5546875 21.04296875 zM42.529296875 23.556640625 Q42.529296875 23.68359375 42.4404296875 23.7978515625 42.3515625 23.912109375 42.326171875 24.0390625 L42.19921875 24.0390625 Q42.1484375 24.064453125 42.072265625 24.08984375 41.99609375 24.115234375 41.9453125 24.115234375 41.89453125 24.115234375 41.7421875 24.064453125 41.69140625 23.9375 41.640625 23.912109375 41.58984375 23.88671875 41.513671875 23.810546875 41.462890625 23.68359375 41.462890625 23.6201171875 41.462890625 23.556640625 41.38671875 23.4296875 41.4375 23.328125 41.5263671875 23.2392578125 41.615234375 23.150390625 41.7421875 23.099609375 41.818359375 23.0234375 41.99609375 23.0234375 L42.123046875 23.0234375 Q42.25 23.150390625 42.3896484375 23.251953125 42.529296875 23.353515625 42.529296875 23.556640625 z" /><path d="M73.201171875 5.3515625 Q73.125 5.478515625 73.07421875 5.60546875 73.0234375 5.732421875 72.896484375 5.833984375 72.8203125 5.833984375 72.7568359375 5.8466796875 72.693359375 5.859375 72.642578125 5.859375 72.439453125 5.859375 72.3505859375 5.783203125 72.26171875 5.70703125 72.109375 5.65625 72.109375 5.5546875 72.083984375 5.4658203125 72.05859375 5.376953125 72.05859375 5.275390625 72.05859375 5.123046875 72.2744140625 4.9833984375 72.490234375 4.84375 72.642578125 4.84375 72.87109375 4.84375 72.896484375 4.9326171875 72.921875 5.021484375 73.048828125 5.072265625 L73.201171875 5.3515625 zM71.779296875 7.6875 Q71.703125 7.890625 71.576171875 7.9921875 71.44921875 8.09375 71.296875 8.220703125 71.119140625 8.119140625 70.865234375 8.068359375 70.7890625 7.94140625 70.7001953125 7.8271484375 70.611328125 7.712890625 70.611328125 7.5859375 70.611328125 7.458984375 70.7001953125 7.3193359375 70.7890625 7.1796875 70.890625 7.103515625 L71.09375 7.103515625 Q71.1953125 7.103515625 71.2841796875 7.12890625 71.373046875 7.154296875 71.5 7.12890625 71.703125 7.43359375 71.779296875 7.6875 zM70.1796875 10.0234375 Q70.052734375 10.099609375 70.0146484375 10.17578125 69.9765625 10.251953125 69.900390625 10.353515625 69.748046875 10.404296875 69.646484375 10.404296875 69.21484375 10.404296875 68.9609375 10.0234375 68.9609375 9.921875 68.9736328125 9.8203125 68.986328125 9.71875 68.986328125 9.6171875 69.1640625 9.439453125 69.392578125 9.3759765625 69.62109375 9.3125 69.849609375 9.287109375 69.92578125 9.36328125 69.9765625 9.46484375 70.02734375 9.56640625 70.12890625 9.642578125 70.103515625 9.693359375 70.103515625 9.71875 70.103515625 9.744140625 70.078125 9.794921875 70.12890625 9.87109375 70.1796875 10.0234375 zM68.50390625 12.20703125 Q68.50390625 12.333984375 68.453125 12.4482421875 68.40234375 12.5625 68.40234375 12.689453125 68.326171875 12.6640625 68.19921875 12.6640625 68.1484375 12.689453125 68.0849609375 12.71484375 68.021484375 12.740234375 67.970703125 12.740234375 67.79296875 12.740234375 67.666015625 12.61328125 67.5390625 12.486328125 67.38671875 12.41015625 L67.38671875 12.2578125 Q67.38671875 11.876953125 67.640625 11.8388671875 67.89453125 11.80078125 68.173828125 11.69921875 68.25 11.90234375 68.3134765625 11.927734375 68.376953125 11.953125 68.50390625 12.10546875 L68.50390625 12.20703125 zM60.37890625 5.65625 L60.37890625 5.91015625 Q60.125 5.9609375 59.97265625 5.9609375 59.8203125 5.9609375 59.66796875 5.935546875 59.515625 5.91015625 59.36328125 5.859375 59.287109375 5.732421875 59.2490234375 5.5546875 59.2109375 5.376953125 59.109375 5.25 59.236328125 5.123046875 59.4013671875 5.046875 59.56640625 4.970703125 59.693359375 4.84375 59.87109375 4.89453125 60.0234375 5.0087890625 60.17578125 5.123046875 60.353515625 5.19921875 60.353515625 5.326171875 60.3662109375 5.427734375 60.37890625 5.529296875 60.37890625 5.65625 zM62.029296875 7.611328125 Q62.029296875 7.6875 62.00390625 7.763671875 61.978515625 7.83984375 61.978515625 7.916015625 61.673828125 8.09375 61.39453125 8.09375 61.19140625 8.09375 61.013671875 8.017578125 60.962890625 7.890625 60.9248046875 7.763671875 60.88671875 7.63671875 60.88671875 7.509765625 60.88671875 7.154296875 61.1025390625 7.1162109375 61.318359375 7.078125 61.572265625 7.052734375 61.724609375 7.154296875 61.876953125 7.28125 62.029296875 7.408203125 62.029296875 7.611328125 zM63.451171875 9.36328125 Q63.349609375 9.6171875 63.349609375 9.76953125 63.22265625 9.998046875 63.12109375 10.1376953125 63.01953125 10.27734375 62.740234375 10.27734375 62.61328125 10.27734375 62.51171875 10.201171875 62.41015625 10.125 62.283203125 10.07421875 L62.283203125 9.87109375 Q62.283203125 9.541015625 62.4482421875 9.337890625 62.61328125 9.134765625 62.96875 9.134765625 63.146484375 9.3125 63.451171875 9.36328125 zM65.1015625 12.2578125 Q65 12.384765625 64.923828125 12.587890625 64.822265625 12.638671875 64.7333984375 12.689453125 64.64453125 12.740234375 64.517578125 12.740234375 64.33984375 12.740234375 64.2001953125 12.6259765625 64.060546875 12.51171875 63.93359375 12.41015625 63.958984375 12.384765625 64.009765625 12.283203125 63.984375 12.232421875 63.984375 12.10546875 63.984375 11.826171875 64.2763671875 11.75 64.568359375 11.673828125 64.771484375 11.673828125 64.8984375 11.80078125 65 11.9404296875 65.1015625 12.080078125 65.1015625 12.2578125 zM66.87890625 14.517578125 Q66.828125 14.669921875 66.7900390625 14.822265625 66.751953125 14.974609375 66.701171875 15.126953125 L66.57421875 15.1015625 Q66.5234375 15.1015625 66.47265625 15.1396484375 66.421875 15.177734375 66.37109375 15.203125 66.193359375 15.177734375 66.091796875 15.1142578125 65.990234375 15.05078125 65.837890625 14.974609375 65.837890625 14.84765625 65.787109375 14.771484375 65.736328125 14.6953125 65.736328125 14.568359375 65.837890625 14.416015625 65.96484375 14.263671875 66.091796875 14.111328125 66.294921875 14.111328125 66.37109375 14.111328125 66.4345703125 14.1240234375 66.498046875 14.13671875 66.57421875 14.13671875 66.67578125 14.212890625 66.7265625 14.314453125 66.77734375 14.416015625 66.87890625 14.517578125 zM66.9296875 17.005859375 Q66.87890625 17.208984375 66.828125 17.3740234375 66.77734375 17.5390625 66.77734375 17.7421875 66.650390625 17.767578125 66.5361328125 17.8310546875 66.421875 17.89453125 66.294921875 17.89453125 66.041015625 17.89453125 65.787109375 17.716796875 65.787109375 17.615234375 65.7744140625 17.5390625 65.76171875 17.462890625 65.66015625 17.412109375 65.76171875 16.77734375 66.47265625 16.77734375 66.650390625 16.98046875 66.9296875 17.005859375 zM66.955078125 20.6875 Q66.828125 20.814453125 66.701171875 20.9794921875 66.57421875 21.14453125 66.37109375 21.14453125 66.091796875 21.14453125 65.9775390625 21.068359375 65.86328125 20.9921875 65.8125 20.8779296875 65.76171875 20.763671875 65.736328125 20.5986328125 65.7109375 20.43359375 65.583984375 20.28125 65.888671875 20.205078125 65.990234375 20.12890625 66.091796875 20.052734375 66.3203125 19.900390625 66.447265625 19.9765625 66.5869140625 20.078125 66.7265625 20.1796875 66.77734375 20.306640625 66.853515625 20.43359375 66.8408203125 20.4970703125 66.828125 20.560546875 66.955078125 20.6875 zM66.955078125 23.37890625 Q66.904296875 23.4296875 66.853515625 23.53125 66.853515625 23.58203125 66.8662109375 23.6455078125 66.87890625 23.708984375 66.87890625 23.78515625 L66.650390625 24.115234375 Q66.548828125 24.115234375 66.47265625 24.166015625 66.396484375 24.216796875 66.294921875 24.216796875 66.16796875 24.216796875 66.041015625 24.1533203125 65.9140625 24.08984375 65.8125 24.013671875 65.76171875 23.912109375 65.736328125 23.8232421875 65.7109375 23.734375 65.7109375 23.607421875 65.7109375 23.48046875 65.787109375 23.27734375 65.9140625 23.2265625 66.0283203125 23.1376953125 66.142578125 23.048828125 66.294921875 23.048828125 66.625 23.048828125 66.751953125 23.27734375 L66.955078125 23.37890625 z" /><path d="M85.109375 6.849609375 Q85.109375 6.9765625 85.05859375 7.078125 85.0078125 7.1796875 84.982421875 7.306640625 84.728515625 7.408203125 84.55078125 7.408203125 83.9921875 7.408203125 83.9921875 6.849609375 83.9921875 6.697265625 84.0810546875 6.595703125 84.169921875 6.494140625 84.220703125 6.3671875 L84.6015625 6.341796875 85.05859375 6.62109375 Q85.109375 6.7734375 85.109375 6.849609375 zM86.6328125 8.423828125 Q86.6328125 8.55078125 86.58203125 8.5634765625 86.53125 8.576171875 86.58203125 8.703125 86.455078125 8.830078125 86.404296875 8.8427734375 86.353515625 8.85546875 86.201171875 8.880859375 86.125 8.931640625 85.947265625 8.931640625 85.896484375 8.95703125 85.8837890625 8.9697265625 85.87109375 8.982421875 85.8203125 9.0078125 85.744140625 8.90625 85.66796875 8.830078125 85.591796875 8.75390625 85.46484375 8.75390625 L85.46484375 8.119140625 Q85.66796875 8.119140625 85.744140625 8.017578125 85.8203125 7.916015625 86.048828125 7.916015625 86.251953125 7.916015625 86.3916015625 8.04296875 86.53125 8.169921875 86.6328125 8.34765625 L86.6328125 8.423828125 zM83.306640625 5.529296875 Q83.306640625 5.681640625 83.23046875 5.8212890625 83.154296875 5.9609375 83.052734375 6.0625 82.849609375 6.11328125 82.798828125 6.11328125 82.646484375 6.11328125 82.5068359375 6.0498046875 82.3671875 5.986328125 82.240234375 5.935546875 82.240234375 5.833984375 82.21484375 5.7578125 82.189453125 5.681640625 82.189453125 5.580078125 82.189453125 5.40234375 82.4052734375 5.2373046875 82.62109375 5.072265625 82.7734375 5.072265625 82.92578125 5.072265625 83.052734375 5.173828125 83.1796875 5.275390625 83.306640625 5.326171875 L83.306640625 5.529296875 zM81.021484375 5.275390625 Q80.89453125 5.376953125 80.7548828125 5.4658203125 80.615234375 5.5546875 80.48828125 5.681640625 L79.87890625 5.580078125 79.7265625 4.9453125 Q79.87890625 4.818359375 80.03125 4.7294921875 80.18359375 4.640625 80.38671875 4.640625 80.462890625 4.640625 80.615234375 4.69140625 80.7421875 4.818359375 80.8056640625 4.9833984375 80.869140625 5.1484375 81.021484375 5.275390625 zM78.40625 5.681640625 Q78.40625 5.7578125 78.35546875 5.859375 78.177734375 5.986328125 78.1142578125 6.01171875 78.05078125 6.037109375 77.84765625 6.0625 77.796875 6.0625 77.7333984375 6.1005859375 77.669921875 6.138671875 77.59375 6.138671875 L77.44140625 6.138671875 Q77.44140625 5.935546875 77.4033203125 5.8720703125 77.365234375 5.80859375 77.263671875 5.65625 77.390625 5.453125 77.54296875 5.2880859375 77.6953125 5.123046875 77.94921875 5.123046875 78.076171875 5.123046875 78.126953125 5.1484375 78.228515625 5.25 78.3173828125 5.376953125 78.40625 5.50390625 78.40625 5.681640625 zM85.287109375 15.76171875 Q85.287109375 15.96484375 85.1220703125 16.06640625 84.95703125 16.16796875 84.830078125 16.294921875 84.626953125 16.21875 84.4365234375 16.16796875 84.24609375 16.1171875 84.119140625 15.9140625 L84.119140625 15.685546875 Q84.119140625 15.55859375 84.169921875 15.40625 L84.5 15.15234375 84.830078125 15.1015625 85.134765625 15.330078125 Q85.185546875 15.533203125 85.287109375 15.583984375 L85.287109375 15.76171875 zM76.32421875 7.408203125 Q76.0703125 7.509765625 75.943359375 7.5224609375 75.81640625 7.53515625 75.5625 7.5859375 75.41015625 7.484375 75.283203125 7.3701171875 75.15625 7.255859375 75.15625 7.078125 75.15625 6.875 75.30859375 6.72265625 75.4609375 6.5703125 75.638671875 6.494140625 L75.841796875 6.697265625 Q75.892578125 6.671875 75.994140625 6.671875 76.22265625 6.671875 76.2353515625 6.849609375 76.248046875 7.02734375 76.248046875 7.154296875 76.248046875 7.306640625 76.32421875 7.408203125 zM86.810546875 18.25 Q86.810546875 18.376953125 86.78515625 18.427734375 86.734375 18.478515625 86.6708984375 18.5546875 86.607421875 18.630859375 86.53125 18.681640625 86.48046875 18.681640625 86.4169921875 18.6943359375 86.353515625 18.70703125 86.302734375 18.70703125 86.201171875 18.70703125 86.099609375 18.65625 86.048828125 18.630859375 85.896484375 18.5673828125 85.744140625 18.50390625 85.744140625 18.40234375 85.66796875 18.25 85.66796875 18.19921875 85.66796875 18.046875 85.7568359375 17.9580078125 85.845703125 17.869140625 85.845703125 17.7421875 85.97265625 17.69140625 86.0869140625 17.6787109375 86.201171875 17.666015625 86.328125 17.58984375 86.505859375 17.716796875 86.658203125 17.869140625 86.810546875 18.021484375 86.810546875 18.25 zM82.51953125 14.416015625 Q82.51953125 14.517578125 82.494140625 14.619140625 82.46875 14.720703125 82.46875 14.822265625 82.341796875 14.873046875 82.21484375 14.9619140625 82.087890625 15.05078125 81.9609375 15.05078125 81.833984375 15.05078125 81.70703125 14.9873046875 81.580078125 14.923828125 81.453125 14.873046875 L81.529296875 14.74609375 Q81.478515625 14.6953125 81.4404296875 14.6318359375 81.40234375 14.568359375 81.40234375 14.4921875 81.40234375 14.390625 81.427734375 14.3017578125 81.453125 14.212890625 81.478515625 14.111328125 81.732421875 13.93359375 81.986328125 13.93359375 82.138671875 13.93359375 82.291015625 14.03515625 82.341796875 14.162109375 82.4306640625 14.2001953125 82.51953125 14.23828125 82.51953125 14.416015625 zM79.751953125 13.755859375 Q79.701171875 14.03515625 79.548828125 14.23828125 79.345703125 14.314453125 79.16796875 14.314453125 79.015625 14.314453125 78.76171875 14.212890625 78.66015625 14.03515625 78.66015625 13.83203125 78.66015625 13.52734375 78.787109375 13.375 78.86328125 13.349609375 78.939453125 13.32421875 79.015625 13.298828125 79.091796875 13.298828125 L79.21875 13.298828125 Q79.447265625 13.451171875 79.5234375 13.4638671875 79.599609375 13.4765625 79.751953125 13.755859375 zM75.71484375 9.71875 Q75.689453125 9.8203125 75.689453125 9.998046875 75.689453125 10.201171875 75.5244140625 10.3154296875 75.359375 10.4296875 75.181640625 10.4296875 74.953125 10.4296875 74.7880859375 10.2646484375 74.623046875 10.099609375 74.623046875 9.87109375 74.623046875 9.642578125 74.7373046875 9.591796875 74.8515625 9.541015625 74.978515625 9.388671875 75.20703125 9.4140625 75.359375 9.5029296875 75.51171875 9.591796875 75.71484375 9.71875 zM86.302734375 21.169921875 Q86.27734375 21.296875 86.2392578125 21.4365234375 86.201171875 21.576171875 86.201171875 21.703125 86.07421875 21.703125 85.97265625 21.7412109375 85.87109375 21.779296875 85.744140625 21.779296875 85.693359375 21.779296875 85.541015625 21.677734375 85.46484375 21.677734375 85.36328125 21.728515625 85.26171875 21.373046875 85.05859375 21.24609375 L85.337890625 20.712890625 Q85.439453125 20.763671875 85.490234375 20.763671875 85.541015625 20.763671875 85.591796875 20.712890625 85.642578125 20.662109375 85.693359375 20.611328125 85.794921875 20.712890625 85.87109375 20.763671875 85.921875 20.73828125 86.0234375 20.73828125 86.125 20.865234375 86.1884765625 20.9541015625 86.251953125 21.04296875 86.302734375 21.169921875 zM76.958984375 12.61328125 Q76.958984375 12.841796875 76.8193359375 12.96875 76.6796875 13.095703125 76.4765625 13.171875 76.146484375 13.044921875 76.01953125 12.91796875 75.91796875 12.71484375 75.91796875 12.587890625 75.91796875 12.4609375 75.9814453125 12.333984375 76.044921875 12.20703125 76.044921875 12.080078125 76.095703125 12.080078125 76.1591796875 12.0927734375 76.22265625 12.10546875 76.2734375 12.10546875 76.349609375 12.10546875 76.42578125 12.0927734375 76.501953125 12.080078125 76.552734375 12.080078125 76.6796875 12.15625 76.73046875 12.20703125 76.78125 12.2578125 76.958984375 12.30859375 L76.958984375 12.61328125 zM84.169921875 23.150390625 Q84.169921875 23.4296875 84.0048828125 23.556640625 83.83984375 23.68359375 83.63671875 23.759765625 83.509765625 23.734375 83.4208984375 23.68359375 83.33203125 23.6328125 83.205078125 23.607421875 83.12890625 23.48046875 83.0654296875 23.3916015625 83.001953125 23.302734375 82.951171875 23.17578125 83.001953125 23.048828125 83.0654296875 22.947265625 83.12890625 22.845703125 83.1796875 22.71875 83.306640625 22.66796875 83.408203125 22.6298828125 83.509765625 22.591796875 83.63671875 22.591796875 83.712890625 22.591796875 83.865234375 22.642578125 83.966796875 22.76953125 84.068359375 22.87109375 84.169921875 22.97265625 84.169921875 23.150390625 zM81.09765625 23.861328125 Q81.09765625 24.064453125 80.9453125 24.2294921875 80.79296875 24.39453125 80.58984375 24.39453125 80.462890625 24.39453125 80.3359375 24.3564453125 80.208984375 24.318359375 80.08203125 24.318359375 80.03125 24.19140625 79.9931640625 24.064453125 79.955078125 23.9375 79.955078125 23.810546875 L79.955078125 23.58203125 Q80.1328125 23.48046875 80.2978515625 23.455078125 80.462890625 23.4296875 80.615234375 23.328125 L81.046875 23.658203125 Q81.09765625 23.810546875 81.09765625 23.861328125 zM78.228515625 23.37890625 Q78.025390625 23.9375 77.54296875 23.9375 L77.416015625 23.9375 Q77.263671875 23.8359375 77.212890625 23.7216796875 77.162109375 23.607421875 77.03515625 23.48046875 77.111328125 23.251953125 77.111328125 23.07421875 77.2890625 22.896484375 77.466796875 22.896484375 77.59375 22.896484375 77.7080078125 22.921875 77.822265625 22.947265625 77.94921875 22.947265625 L78.228515625 23.37890625 zM75.6640625 22.388671875 Q75.537109375 22.490234375 75.3974609375 22.591796875 75.2578125 22.693359375 75.080078125 22.693359375 75.00390625 22.693359375 74.927734375 22.66796875 74.8515625 22.642578125 74.80078125 22.642578125 74.572265625 22.439453125 74.572265625 22.3505859375 74.572265625 22.26171875 74.4453125 22.134765625 74.59765625 21.95703125 74.7119140625 21.779296875 74.826171875 21.6015625 75.10546875 21.6015625 75.2578125 21.6015625 75.384765625 21.6904296875 75.51171875 21.779296875 75.638671875 21.830078125 75.6640625 21.95703125 75.6640625 22.0966796875 75.6640625 22.236328125 75.6640625 22.388671875 z" /><path d="M104.634765625 5.453125 Q104.634765625 5.529296875 104.583984375 5.681640625 L104.3046875 5.935546875 104.15234375 5.935546875 Q104.05078125 5.935546875 103.9619140625 5.9228515625 103.873046875 5.91015625 103.74609375 5.91015625 103.669921875 5.783203125 103.6064453125 5.65625 103.54296875 5.529296875 103.54296875 5.376953125 103.796875 4.970703125 104.1015625 4.970703125 104.177734375 4.970703125 104.25390625 4.9833984375 104.330078125 4.99609375 104.380859375 4.99609375 104.482421875 5.09765625 104.55859375 5.2119140625 104.634765625 5.326171875 104.634765625 5.453125 zM102.171875 5.453125 Q102.171875 5.60546875 102.095703125 5.7197265625 102.01953125 5.833984375 101.943359375 5.9609375 101.81640625 5.9609375 101.7275390625 5.9736328125 101.638671875 5.986328125 101.537109375 5.986328125 101.435546875 5.986328125 101.283203125 5.935546875 L100.978515625 5.60546875 Q101.080078125 5.50390625 101.0673828125 5.478515625 101.0546875 5.453125 101.0546875 5.326171875 101.0546875 5.25 101.080078125 5.19921875 L101.333984375 4.9453125 Q101.486328125 4.9453125 101.6259765625 4.9453125 101.765625 4.9453125 101.91796875 4.970703125 101.96875 5.072265625 102.0322265625 5.1611328125 102.095703125 5.25 102.171875 5.326171875 L102.171875 5.453125 zM99.734375 5.427734375 Q99.708984375 5.70703125 99.53125 5.8466796875 99.353515625 5.986328125 99.07421875 5.986328125 99.0234375 5.986328125 98.8203125 5.935546875 98.794921875 5.91015625 98.6552734375 5.7451171875 98.515625 5.580078125 98.56640625 5.529296875 98.591796875 5.50390625 98.591796875 5.427734375 98.591796875 5.25 98.7568359375 5.0849609375 98.921875 4.919921875 99.099609375 4.919921875 99.2265625 4.919921875 99.302734375 4.970703125 99.37890625 5.021484375 99.505859375 5.046875 99.58203125 5.1484375 99.6201171875 5.25 99.658203125 5.3515625 99.734375 5.427734375 zM97.119140625 5.630859375 Q97.017578125 5.732421875 96.94140625 5.7578125 L96.94140625 5.884765625 Q96.83984375 5.935546875 96.7255859375 5.9609375 96.611328125 5.986328125 96.484375 6.0625 96.357421875 5.986328125 96.23046875 5.8974609375 96.103515625 5.80859375 95.951171875 5.732421875 95.951171875 5.60546875 95.9384765625 5.478515625 95.92578125 5.3515625 95.92578125 5.224609375 96.078125 5.1484375 96.2177734375 5.046875 96.357421875 4.9453125 96.509765625 4.84375 L96.916015625 5.021484375 Q96.966796875 5.19921875 97.04296875 5.326171875 97.119140625 5.453125 97.119140625 5.630859375 zM94.630859375 5.50390625 Q94.630859375 5.65625 94.5546875 5.681640625 94.50390625 5.80859375 94.453125 5.8466796875 94.40234375 5.884765625 94.3515625 6.01171875 L94.09765625 6.01171875 Q93.666015625 6.01171875 93.5771484375 5.859375 93.48828125 5.70703125 93.4375 5.3515625 93.462890625 5.224609375 93.5263671875 5.173828125 93.58984375 5.123046875 93.615234375 4.99609375 93.7421875 4.9453125 93.8310546875 4.919921875 93.919921875 4.89453125 94.046875 4.89453125 94.173828125 4.89453125 94.2626953125 4.9326171875 94.3515625 4.970703125 94.453125 4.99609375 94.453125 5.173828125 94.5419921875 5.2626953125 94.630859375 5.3515625 94.630859375 5.50390625 zM97.1953125 8.373046875 Q97.068359375 8.576171875 96.966796875 8.7412109375 96.865234375 8.90625 96.611328125 9.0078125 96.484375 8.95703125 96.4462890625 8.9697265625 96.408203125 8.982421875 96.28125 8.982421875 L96.1796875 8.931640625 Q96.078125 8.8046875 96.02734375 8.703125 95.9765625 8.6015625 95.875 8.474609375 96.02734375 8.322265625 96.02734375 8.119140625 96.28125 7.94140625 96.53515625 7.94140625 96.611328125 7.94140625 96.6748046875 7.9541015625 96.73828125 7.966796875 96.814453125 7.9921875 96.890625 8.068359375 96.9033203125 8.1318359375 96.916015625 8.1953125 96.94140625 8.24609375 96.966796875 8.296875 97.017578125 8.322265625 97.068359375 8.34765625 97.1953125 8.373046875 zM92.041015625 5.681640625 Q91.837890625 5.884765625 91.685546875 5.9228515625 91.533203125 5.9609375 91.25390625 5.9609375 91 5.9609375 90.923828125 5.7197265625 90.84765625 5.478515625 90.84765625 5.275390625 91 5.1484375 91.1396484375 5.021484375 91.279296875 4.89453125 91.482421875 4.919921875 L91.609375 4.84375 Q91.7109375 4.99609375 91.787109375 5.072265625 91.86328125 5.1484375 91.9140625 5.224609375 91.96484375 5.30078125 91.990234375 5.40234375 92.015625 5.50390625 92.041015625 5.681640625 zM97.1953125 11.521484375 Q97.14453125 11.572265625 97.09375 11.69921875 97.04296875 11.826171875 97.017578125 11.876953125 96.94140625 11.927734375 96.8525390625 11.978515625 96.763671875 12.029296875 96.6875 12.10546875 96.560546875 12.029296875 96.484375 12.029296875 96.408203125 12.029296875 96.28125 12.00390625 96.1796875 11.876953125 96.1416015625 11.8515625 96.103515625 11.826171875 95.951171875 11.80078125 96.001953125 11.546875 96.078125 11.2294921875 96.154296875 10.912109375 96.509765625 10.912109375 96.814453125 10.912109375 96.9287109375 11.115234375 97.04296875 11.318359375 97.1953125 11.521484375 zM89.375 5.50390625 Q89.375 5.681640625 89.22265625 5.884765625 89.12109375 5.935546875 89.0322265625 5.9609375 88.943359375 5.986328125 88.81640625 5.986328125 88.587890625 5.986328125 88.486328125 5.8466796875 88.384765625 5.70703125 88.2578125 5.529296875 88.30859375 5.275390625 88.30859375 5.1484375 88.435546875 5.072265625 88.587890625 5.0087890625 88.740234375 4.9453125 88.892578125 4.9453125 88.96875 4.9453125 89.0576171875 4.970703125 89.146484375 4.99609375 89.22265625 4.99609375 89.2734375 5.123046875 89.32421875 5.25 89.375 5.376953125 89.375 5.50390625 zM97.14453125 14.517578125 Q97.04296875 14.720703125 96.9541015625 14.8984375 96.865234375 15.076171875 96.5859375 15.076171875 96.458984375 15.076171875 96.3828125 15.0380859375 96.306640625 15 96.205078125 15 96.103515625 14.8984375 96.078125 14.796875 96.052734375 14.6953125 95.92578125 14.64453125 95.92578125 14.44140625 95.9765625 14.33984375 96.02734375 14.23828125 96.154296875 14.0859375 L96.611328125 13.93359375 Q96.73828125 14.060546875 96.7763671875 14.0859375 96.814453125 14.111328125 97.017578125 14.162109375 97.017578125 14.33984375 97.0302734375 14.365234375 97.04296875 14.390625 97.14453125 14.517578125 zM97.119140625 17.513671875 Q97.119140625 17.69140625 97.0556640625 17.69140625 96.9921875 17.69140625 97.04296875 17.869140625 96.916015625 17.9453125 96.8017578125 18.021484375 96.6875 18.09765625 96.53515625 18.09765625 96.458984375 18.09765625 96.3828125 18.072265625 96.306640625 18.046875 96.205078125 18.021484375 96.1796875 17.970703125 96.052734375 17.8056640625 95.92578125 17.640625 95.92578125 17.58984375 95.92578125 17.38671875 96.1416015625 17.208984375 96.357421875 17.03125 96.560546875 17.03125 96.662109375 17.03125 96.8271484375 17.1962890625 96.9921875 17.361328125 97.119140625 17.4375 L97.119140625 17.513671875 zM97.017578125 20.712890625 Q96.966796875 20.83984375 96.890625 20.916015625 96.814453125 20.9921875 96.763671875 21.119140625 L96.154296875 21.068359375 Q96.078125 20.890625 95.9638671875 20.8271484375 95.849609375 20.763671875 95.82421875 20.560546875 95.951171875 20.357421875 96.052734375 20.1923828125 96.154296875 20.02734375 96.43359375 20.02734375 96.73828125 20.02734375 96.94140625 20.28125 L97.017578125 20.712890625 zM97.119140625 23.6328125 Q97.119140625 23.68359375 97.068359375 23.8359375 96.9921875 23.912109375 96.8525390625 24.0263671875 96.712890625 24.140625 96.5859375 24.140625 96.458984375 24.140625 96.4208984375 24.08984375 96.3828125 24.0390625 96.23046875 24.064453125 96.12890625 23.9375 96.0400390625 23.8232421875 95.951171875 23.708984375 95.951171875 23.53125 95.951171875 23.353515625 96.078125 23.2646484375 96.205078125 23.17578125 96.28125 23.048828125 L96.484375 23.048828125 Q96.611328125 23.048828125 96.865234375 23.099609375 96.916015625 23.2265625 97.017578125 23.3408203125 97.119140625 23.455078125 97.119140625 23.6328125 z" /><path d="M114.81640625 5.275390625 Q114.81640625 5.478515625 114.740234375 5.60546875 114.6640625 5.732421875 114.61328125 5.935546875 L114.20703125 5.935546875 Q114.0546875 5.833984375 113.927734375 5.80859375 113.80078125 5.783203125 113.80078125 5.5546875 113.80078125 5.453125 113.826171875 5.3642578125 113.8515625 5.275390625 113.8515625 5.19921875 114.00390625 4.970703125 114.283203125 4.970703125 114.384765625 4.970703125 114.587890625 5.021484375 114.638671875 5.123046875 114.6640625 5.173828125 114.689453125 5.224609375 114.81640625 5.275390625 zM116.23828125 7.73828125 Q116.1875 7.83984375 116.060546875 7.9794921875 115.93359375 8.119140625 115.908203125 8.1953125 L115.78125 8.24609375 Q115.578125 8.24609375 115.451171875 8.169921875 115.32421875 8.09375 115.146484375 7.966796875 115.197265625 7.763671875 115.2607421875 7.5224609375 115.32421875 7.28125 115.603515625 7.28125 115.857421875 7.28125 116.0224609375 7.3701171875 116.1875 7.458984375 116.23828125 7.73828125 zM117.40625 11.013671875 L117.1015625 11.369140625 Q116.94921875 11.419921875 116.8984375 11.419921875 116.771484375 11.419921875 116.6572265625 11.369140625 116.54296875 11.318359375 116.416015625 11.267578125 116.390625 11.19140625 116.365234375 11.115234375 116.33984375 11.0390625 116.33984375 10.9375 116.33984375 10.912109375 116.390625 10.759765625 116.64453125 10.505859375 117.05078125 10.505859375 117.25390625 10.708984375 117.40625 11.013671875 zM113.59765625 8.220703125 Q113.59765625 8.423828125 113.419921875 8.5634765625 113.2421875 8.703125 113.0390625 8.703125 112.9375 8.703125 112.8359375 8.65234375 112.78515625 8.677734375 112.734375 8.6904296875 112.68359375 8.703125 112.6328125 8.728515625 112.607421875 8.576171875 112.5693359375 8.4111328125 112.53125 8.24609375 112.53125 8.09375 112.53125 7.94140625 112.6201171875 7.8779296875 112.708984375 7.814453125 112.810546875 7.6875 112.9375 7.6875 113.08984375 7.7001953125 113.2421875 7.712890625 113.369140625 7.712890625 113.419921875 7.83984375 113.5087890625 7.9541015625 113.59765625 8.068359375 113.59765625 8.220703125 zM118.599609375 13.73046875 Q118.599609375 13.83203125 118.5615234375 13.93359375 118.5234375 14.03515625 118.5234375 14.13671875 118.396484375 14.162109375 118.294921875 14.2255859375 118.193359375 14.2890625 118.06640625 14.2890625 117.939453125 14.2890625 117.8125 14.2001953125 117.685546875 14.111328125 117.55859375 14.0859375 117.55859375 14.03515625 117.583984375 13.9970703125 117.609375 13.958984375 117.609375 13.908203125 117.609375 13.857421875 117.583984375 13.7939453125 117.55859375 13.73046875 117.533203125 13.6796875 117.66015625 13.52734375 117.8125 13.3876953125 117.96484375 13.248046875 118.16796875 13.248046875 118.345703125 13.248046875 118.47265625 13.400390625 118.599609375 13.552734375 118.599609375 13.73046875 zM119.38671875 16.57421875 Q119.38671875 16.904296875 119.1962890625 16.9423828125 119.005859375 16.98046875 118.77734375 17.107421875 118.67578125 17.005859375 118.57421875 16.955078125 118.47265625 16.904296875 118.396484375 16.77734375 118.37109375 16.650390625 118.345703125 16.5107421875 118.3203125 16.37109375 118.26953125 16.244140625 118.421875 16.16796875 118.5869140625 16.1044921875 118.751953125 16.041015625 118.955078125 16.041015625 119.208984375 16.041015625 119.2978515625 16.193359375 119.38671875 16.345703125 119.38671875 16.57421875 zM120.478515625 18.60546875 Q120.478515625 18.80859375 120.40234375 19.037109375 120.275390625 19.087890625 120.1484375 19.1259765625 120.021484375 19.1640625 119.89453125 19.1640625 119.462890625 19.1640625 119.462890625 18.732421875 119.462890625 18.65625 119.4755859375 18.5927734375 119.48828125 18.529296875 119.48828125 18.478515625 L119.7421875 18.173828125 Q119.869140625 18.224609375 119.9833984375 18.224609375 120.09765625 18.224609375 120.224609375 18.25 120.40234375 18.427734375 120.478515625 18.60546875 zM112.251953125 11.0390625 Q112.099609375 11.19140625 111.9091796875 11.318359375 111.71875 11.4453125 111.490234375 11.4453125 111.36328125 11.4453125 111.2109375 11.29296875 111.134765625 11.115234375 111.134765625 10.912109375 111.134765625 10.8359375 111.16015625 10.759765625 111.185546875 10.68359375 111.185546875 10.607421875 111.287109375 10.556640625 111.3759765625 10.4931640625 111.46484375 10.4296875 111.591796875 10.4296875 111.693359375 10.4296875 111.76953125 10.505859375 111.87109375 10.505859375 111.947265625 10.53125 112.0234375 10.556640625 112.099609375 10.556640625 112.150390625 10.708984375 112.1630859375 10.810546875 112.17578125 10.912109375 112.251953125 11.0390625 zM116.8984375 17.08203125 Q116.8984375 17.3359375 116.669921875 17.48828125 116.466796875 17.513671875 116.1875 17.640625 L115.78125 17.361328125 Q115.83203125 17.259765625 115.8193359375 17.1708984375 115.806640625 17.08203125 115.806640625 16.955078125 115.93359375 16.7265625 116.009765625 16.650390625 116.0859375 16.57421875 116.1494140625 16.5615234375 116.212890625 16.548828125 116.2763671875 16.5361328125 116.33984375 16.5234375 116.416015625 16.447265625 L116.796875 16.650390625 116.796875 16.77734375 Q116.796875 16.853515625 116.84765625 16.9169921875 116.8984375 16.98046875 116.8984375 17.08203125 zM121.240234375 21.34765625 Q121.1640625 21.626953125 120.9990234375 21.7666015625 120.833984375 21.90625 120.5546875 21.982421875 120.427734375 21.85546875 120.3134765625 21.7666015625 120.19921875 21.677734375 120.09765625 21.55078125 120.123046875 21.44921875 120.1484375 21.3603515625 120.173828125 21.271484375 120.173828125 21.14453125 120.30078125 21.09375 120.3515625 21.017578125 120.40234375 20.94140625 120.50390625 20.865234375 120.65625 20.916015625 120.80859375 20.94140625 120.9609375 20.966796875 121.11328125 21.04296875 121.11328125 21.169921875 121.138671875 21.220703125 L121.240234375 21.34765625 zM122.12890625 23.912109375 Q122.078125 24.013671875 121.9892578125 24.08984375 121.900390625 24.166015625 121.82421875 24.216796875 121.62109375 24.166015625 121.46875 24.166015625 121.31640625 24.166015625 121.189453125 24.140625 121.1640625 24.013671875 121.1259765625 23.88671875 121.087890625 23.759765625 121.087890625 23.6328125 121.087890625 23.48046875 121.265625 23.37890625 121.443359375 23.27734375 121.595703125 23.27734375 121.798828125 23.27734375 122.02734375 23.353515625 122.078125 23.48046875 122.0908203125 23.6201171875 122.103515625 23.759765625 122.12890625 23.912109375 zM114.689453125 16.9296875 Q114.689453125 17.056640625 114.6767578125 17.158203125 114.6640625 17.259765625 114.6640625 17.38671875 L114.537109375 17.462890625 Q114.2578125 17.564453125 113.927734375 17.564453125 113.724609375 17.361328125 113.724609375 17.2216796875 113.724609375 17.08203125 113.673828125 16.828125 113.953125 16.548828125 114.283203125 16.548828125 L114.4609375 16.548828125 Q114.51171875 16.650390625 114.5625 16.751953125 114.61328125 16.853515625 114.689453125 16.9296875 zM110.90625 14.212890625 Q110.779296875 14.2890625 110.6396484375 14.3779296875 110.5 14.466796875 110.34765625 14.466796875 110.14453125 14.33984375 110.017578125 14.23828125 109.890625 14.13671875 109.890625 13.908203125 L109.83984375 13.755859375 Q110.119140625 13.578125 110.2333984375 13.578125 110.34765625 13.578125 110.626953125 13.552734375 L110.728515625 13.603515625 Q110.85546875 13.73046875 110.85546875 13.8955078125 110.85546875 14.060546875 110.90625 14.212890625 zM112.48046875 17.158203125 L112.201171875 17.513671875 Q112.099609375 17.564453125 111.998046875 17.564453125 111.896484375 17.564453125 111.8076171875 17.5390625 111.71875 17.513671875 111.6171875 17.48828125 111.56640625 17.38671875 111.541015625 17.2978515625 111.515625 17.208984375 111.388671875 17.158203125 111.439453125 16.9296875 111.541015625 16.8154296875 111.642578125 16.701171875 111.8203125 16.548828125 111.947265625 16.599609375 112.07421875 16.599609375 112.201171875 16.599609375 112.328125 16.625 112.37890625 16.751953125 112.3916015625 16.8916015625 112.404296875 17.03125 112.48046875 17.158203125 zM109.814453125 16.7265625 Q109.712890625 16.87890625 109.611328125 17.03125 109.509765625 17.18359375 109.306640625 17.18359375 109.12890625 17.18359375 108.9384765625 17.03125 108.748046875 16.87890625 108.748046875 16.701171875 108.748046875 16.548828125 108.875 16.3583984375 109.001953125 16.16796875 109.1796875 16.16796875 109.306640625 16.16796875 109.3955078125 16.21875 109.484375 16.26953125 109.611328125 16.294921875 109.712890625 16.396484375 109.7255859375 16.498046875 109.73828125 16.599609375 109.814453125 16.7265625 zM108.697265625 19.1640625 Q108.697265625 19.392578125 108.494140625 19.5322265625 108.291015625 19.671875 108.087890625 19.72265625 107.91015625 19.5703125 107.65625 19.494140625 107.65625 19.392578125 107.630859375 19.3291015625 107.60546875 19.265625 107.60546875 19.1640625 107.60546875 19.037109375 107.70703125 18.91015625 107.80859375 18.783203125 107.884765625 18.70703125 108.240234375 18.70703125 108.51953125 18.80859375 108.5703125 18.91015625 108.595703125 18.986328125 108.62109375 19.0625 108.671875 19.1640625 L108.697265625 19.1640625 zM107.630859375 21.75390625 Q107.630859375 21.90625 107.478515625 22.0458984375 107.326171875 22.185546875 107.173828125 22.185546875 107.072265625 22.185546875 106.970703125 22.083984375 106.84375 22.033203125 106.7421875 21.931640625 106.640625 21.830078125 106.640625 21.703125 L106.640625 21.525390625 Q106.716796875 21.44921875 106.7802734375 21.4111328125 106.84375 21.373046875 106.869140625 21.24609375 L107.09765625 21.24609375 Q107.224609375 21.24609375 107.326171875 21.2841796875 107.427734375 21.322265625 107.529296875 21.373046875 107.630859375 21.626953125 107.630859375 21.75390625 zM106.89453125 23.734375 Q106.89453125 23.810546875 106.84375 23.962890625 106.767578125 24.0390625 106.69140625 24.0390625 106.615234375 24.0390625 106.615234375 24.166015625 L106.3359375 24.166015625 Q106.1328125 24.166015625 105.9677734375 24.0390625 105.802734375 23.912109375 105.802734375 23.708984375 105.802734375 23.404296875 106.107421875 23.150390625 106.158203125 23.17578125 106.234375 23.201171875 106.310546875 23.2265625 106.361328125 23.2265625 106.412109375 23.2265625 106.4375 23.2138671875 106.462890625 23.201171875 106.513671875 23.201171875 106.640625 23.201171875 106.716796875 23.2646484375 106.79296875 23.328125 106.869140625 23.37890625 106.869140625 23.48046875 106.8818359375 23.5693359375 106.89453125 23.658203125 106.89453125 23.734375 z" /><path d="M137.287109375 7.205078125 Q137.2109375 7.357421875 137.2109375 7.408203125 137.2109375 7.458984375 137.185546875 7.611328125 137.0078125 7.662109375 136.9697265625 7.7509765625 136.931640625 7.83984375 136.703125 7.83984375 136.576171875 7.83984375 136.474609375 7.7763671875 136.373046875 7.712890625 136.24609375 7.6875 136.1953125 7.560546875 136.1572265625 7.4462890625 136.119140625 7.33203125 136.119140625 7.205078125 136.119140625 7.12890625 136.1318359375 7.0654296875 136.14453125 7.001953125 136.169921875 6.92578125 136.322265625 6.875 136.4873046875 6.8369140625 136.65234375 6.798828125 136.779296875 6.671875 L137.287109375 7.205078125 zM134.900390625 5.453125 Q134.900390625 5.5546875 134.8876953125 5.6435546875 134.875 5.732421875 134.875 5.833984375 134.748046875 5.91015625 134.595703125 5.9990234375 134.443359375 6.087890625 134.291015625 6.087890625 134.087890625 6.087890625 134.01171875 5.986328125 133.935546875 5.884765625 133.833984375 5.7578125 133.70703125 5.5546875 133.7705078125 5.5166015625 133.833984375 5.478515625 133.783203125 5.25 133.884765625 5.173828125 133.986328125 5.1103515625 134.087890625 5.046875 134.21484375 5.046875 134.41796875 5.046875 134.6083984375 5.1611328125 134.798828125 5.275390625 134.900390625 5.453125 zM137.87109375 10.099609375 Q137.87109375 10.201171875 137.7822265625 10.27734375 137.693359375 10.353515625 137.66796875 10.48046875 L137.134765625 10.607421875 Q137.0078125 10.48046875 136.9443359375 10.3408203125 136.880859375 10.201171875 136.75390625 10.07421875 136.8046875 9.896484375 136.8935546875 9.744140625 136.982421875 9.591796875 137.083984375 9.439453125 137.2109375 9.439453125 137.2998046875 9.46484375 137.388671875 9.490234375 137.515625 9.490234375 137.6171875 9.591796875 137.7060546875 9.6552734375 137.794921875 9.71875 137.87109375 9.845703125 L137.87109375 10.099609375 zM132.234375 5.173828125 Q132.234375 5.3515625 132.1708984375 5.453125 132.107421875 5.5546875 131.98046875 5.681640625 131.904296875 5.681640625 131.8154296875 5.6943359375 131.7265625 5.70703125 131.625 5.70703125 131.37109375 5.70703125 131.2822265625 5.50390625 131.193359375 5.30078125 131.06640625 5.1484375 131.26953125 4.9453125 131.294921875 4.716796875 131.396484375 4.716796875 131.4853515625 4.7041015625 131.57421875 4.69140625 131.67578125 4.69140625 131.828125 4.69140625 131.9296875 4.767578125 132.03125 4.84375 132.18359375 4.869140625 132.234375 5.072265625 132.234375 5.173828125 zM136.982421875 12.638671875 Q136.982421875 12.765625 136.9697265625 12.8798828125 136.95703125 12.994140625 136.95703125 13.12109375 L136.576171875 13.197265625 Q136.3984375 13.197265625 136.2587890625 13.197265625 136.119140625 13.197265625 135.916015625 13.0703125 135.865234375 12.892578125 135.9033203125 12.8544921875 135.94140625 12.81640625 135.890625 12.587890625 136.09375 12.2578125 136.220703125 12.2197265625 136.34765625 12.181640625 136.703125 12.0546875 L136.982421875 12.41015625 136.982421875 12.638671875 zM129.365234375 5.19921875 Q129.365234375 5.3515625 129.23828125 5.427734375 129.23828125 5.50390625 129.2890625 5.60546875 129.162109375 5.630859375 129.0478515625 5.6943359375 128.93359375 5.7578125 128.806640625 5.7578125 128.6796875 5.7578125 128.5908203125 5.732421875 128.501953125 5.70703125 128.375 5.681640625 128.248046875 5.580078125 128.22265625 5.4658203125 128.197265625 5.3515625 128.095703125 5.25 128.2734375 5.072265625 128.298828125 4.869140625 128.451171875 4.7421875 128.78125 4.7421875 L128.93359375 4.7421875 Q128.984375 4.79296875 129.0478515625 4.869140625 129.111328125 4.9453125 129.162109375 4.9453125 129.263671875 4.99609375 129.2890625 5.0595703125 129.314453125 5.123046875 129.365234375 5.19921875 zM126.419921875 5.275390625 Q126.34375 5.50390625 126.34375 5.70703125 126.216796875 5.7578125 126.064453125 5.7958984375 125.912109375 5.833984375 125.759765625 5.833984375 125.53125 5.833984375 125.353515625 5.65625 125.353515625 5.5546875 125.3154296875 5.478515625 125.27734375 5.40234375 125.27734375 5.275390625 125.353515625 5.1484375 125.3916015625 5.021484375 125.4296875 4.89453125 125.53125 4.767578125 L125.607421875 4.869140625 Q125.759765625 4.818359375 125.810546875 4.818359375 125.912109375 4.818359375 126.0263671875 4.8818359375 126.140625 4.9453125 126.2421875 4.99609375 126.2421875 5.123046875 126.2802734375 5.1611328125 126.318359375 5.19921875 126.419921875 5.275390625 zM134.697265625 14.466796875 Q134.697265625 15.1015625 134.087890625 15.1015625 133.80859375 15.1015625 133.60546875 14.8984375 133.630859375 14.64453125 133.6435546875 14.5048828125 133.65625 14.365234375 133.783203125 14.13671875 133.859375 14.111328125 133.935546875 14.0859375 134.01171875 14.060546875 134.11328125 14.060546875 134.291015625 14.060546875 134.4306640625 14.2001953125 134.5703125 14.33984375 134.697265625 14.466796875 zM126.419921875 8.271484375 Q126.267578125 8.423828125 126.0771484375 8.525390625 125.88671875 8.626953125 125.658203125 8.626953125 125.48046875 8.44921875 125.328125 8.220703125 125.251953125 7.9921875 125.251953125 7.9287109375 125.251953125 7.865234375 125.2646484375 7.83984375 125.27734375 7.814453125 125.3154296875 7.8017578125 125.353515625 7.7890625 125.353515625 7.712890625 125.48046875 7.662109375 125.5947265625 7.5986328125 125.708984375 7.53515625 125.8359375 7.53515625 125.962890625 7.53515625 126.115234375 7.6240234375 126.267578125 7.712890625 126.369140625 7.814453125 L126.419921875 8.271484375 zM133.80859375 16.7265625 Q133.80859375 16.904296875 133.732421875 17.03125 133.65625 17.158203125 133.630859375 17.310546875 133.529296875 17.310546875 133.427734375 17.2978515625 133.326171875 17.28515625 133.19921875 17.28515625 133.1484375 17.28515625 133.0595703125 17.3232421875 132.970703125 17.361328125 132.919921875 17.38671875 132.89453125 17.234375 132.818359375 17.08203125 132.7421875 16.9296875 132.7421875 16.751953125 L132.7421875 16.447265625 133.30078125 16.21875 Q133.427734375 16.26953125 133.5419921875 16.3330078125 133.65625 16.396484375 133.783203125 16.447265625 133.783203125 16.5234375 133.7958984375 16.599609375 133.80859375 16.67578125 133.80859375 16.7265625 zM131.625 14.822265625 Q131.650390625 15 131.6630859375 15.0380859375 131.67578125 15.076171875 131.67578125 15.279296875 131.67578125 15.5078125 131.4853515625 15.609375 131.294921875 15.7109375 131.091796875 15.7109375 130.939453125 15.7109375 130.787109375 15.634765625 130.736328125 15.5078125 130.6728515625 15.4189453125 130.609375 15.330078125 130.55859375 15.203125 130.55859375 15.05078125 130.634765625 14.9365234375 130.7109375 14.822265625 130.76171875 14.6953125 130.888671875 14.6953125 130.9775390625 14.669921875 131.06640625 14.64453125 131.193359375 14.64453125 131.396484375 14.64453125 131.421875 14.6826171875 131.447265625 14.720703125 131.625 14.822265625 zM134.7734375 19.748046875 Q134.595703125 19.748046875 134.4814453125 19.646484375 134.3671875 19.544921875 134.240234375 19.41796875 134.265625 19.240234375 134.291015625 19.0625 134.31640625 18.884765625 134.443359375 18.732421875 134.5703125 18.65625 134.7099609375 18.65625 134.849609375 18.65625 135.001953125 18.630859375 135.052734375 18.681640625 135.12890625 18.7451171875 135.205078125 18.80859375 135.255859375 18.884765625 135.43359375 19.087890625 135.28125 19.41796875 135.12890625 19.748046875 134.7734375 19.748046875 zM136.982421875 21.5 Q136.982421875 21.703125 136.830078125 21.8046875 L136.677734375 21.982421875 Q136.474609375 21.95703125 136.296875 21.9443359375 136.119140625 21.931640625 135.966796875 21.8046875 135.916015625 21.677734375 135.8779296875 21.5634765625 135.83984375 21.44921875 135.83984375 21.322265625 135.83984375 21.1953125 136.0302734375 21.0556640625 136.220703125 20.916015625 136.34765625 20.916015625 136.474609375 20.916015625 136.6015625 21.0048828125 136.728515625 21.09375 136.85546875 21.14453125 136.982421875 21.322265625 136.982421875 21.5 zM126.419921875 11.064453125 Q126.419921875 11.2421875 126.318359375 11.3818359375 126.216796875 11.521484375 126.115234375 11.673828125 126.0390625 11.673828125 125.962890625 11.6865234375 125.88671875 11.69921875 125.810546875 11.69921875 125.37890625 11.69921875 125.251953125 11.2421875 125.302734375 11.08984375 125.27734375 10.912109375 125.404296875 10.861328125 125.4423828125 10.78515625 125.48046875 10.708984375 125.556640625 10.6328125 125.759765625 10.6328125 125.962890625 10.6962890625 126.166015625 10.759765625 126.369140625 10.810546875 126.419921875 10.962890625 126.419921875 11.064453125 zM138.48046875 23.48046875 Q138.48046875 23.6328125 138.3662109375 23.962890625 138.251953125 24.29296875 138.048828125 24.29296875 137.921875 24.29296875 137.8203125 24.2548828125 137.71875 24.216796875 137.591796875 24.216796875 137.515625 24.115234375 137.4267578125 24.064453125 137.337890625 24.013671875 137.26171875 23.9375 137.287109375 23.68359375 137.3251953125 23.5439453125 137.36328125 23.404296875 137.4521484375 23.328125 137.541015625 23.251953125 137.6806640625 23.2138671875 137.8203125 23.17578125 138.048828125 23.125 138.27734375 23.27734375 138.48046875 23.48046875 zM128.93359375 15.076171875 Q128.8828125 15.279296875 128.857421875 15.380859375 128.83203125 15.482421875 128.705078125 15.634765625 128.552734375 15.7109375 128.375 15.7109375 128.171875 15.7109375 128.01953125 15.5205078125 127.8671875 15.330078125 127.8671875 15.126953125 127.8671875 15.025390625 127.9052734375 14.9365234375 127.943359375 14.84765625 127.994140625 14.771484375 128.171875 14.6953125 128.32421875 14.6953125 128.42578125 14.6953125 128.501953125 14.7080078125 128.578125 14.720703125 128.6796875 14.720703125 L128.93359375 15.076171875 zM126.4453125 14.0859375 Q126.39453125 14.263671875 126.29296875 14.466796875 126.19140625 14.669921875 125.88671875 14.669921875 125.734375 14.669921875 125.6201171875 14.64453125 125.505859375 14.619140625 125.37890625 14.568359375 125.328125 14.44140625 125.328125 14.3525390625 125.328125 14.263671875 125.201171875 14.13671875 125.353515625 13.984375 125.4931640625 13.8447265625 125.6328125 13.705078125 125.88671875 13.705078125 L126.08984375 13.705078125 Q126.216796875 13.78125 126.267578125 13.8955078125 126.318359375 14.009765625 126.4453125 14.0859375 zM126.419921875 17.4375 Q126.369140625 17.5390625 126.1279296875 17.7294921875 125.88671875 17.919921875 125.759765625 17.919921875 125.708984375 17.84375 125.505859375 17.7421875 125.302734375 17.640625 125.2265625 17.615234375 125.302734375 17.462890625 125.302734375 17.4375 125.302734375 17.412109375 125.302734375 17.234375 L125.302734375 17.056640625 Q125.505859375 17.005859375 125.607421875 16.9423828125 125.708984375 16.87890625 125.912109375 16.87890625 125.98828125 16.87890625 126.064453125 16.8916015625 126.140625 16.904296875 126.216796875 16.904296875 126.39453125 17.208984375 126.419921875 17.4375 zM126.419921875 20.484375 Q126.419921875 20.611328125 126.34375 20.7255859375 126.267578125 20.83984375 126.166015625 20.916015625 125.962890625 20.9921875 125.759765625 20.9921875 125.48046875 20.9921875 125.455078125 20.890625 125.4296875 20.7890625 125.27734375 20.63671875 L125.27734375 20.53515625 Q125.27734375 20.458984375 125.2900390625 20.3828125 125.302734375 20.306640625 125.302734375 20.23046875 125.4296875 20.154296875 125.556640625 20.0654296875 125.68359375 19.9765625 125.8359375 19.9765625 125.9375 19.9765625 126.0263671875 20.001953125 126.115234375 20.02734375 126.216796875 20.02734375 126.267578125 20.12890625 126.34375 20.255859375 126.419921875 20.3828125 126.419921875 20.484375 zM126.419921875 23.734375 Q126.419921875 23.8359375 126.369140625 23.98828125 126.2421875 24.0390625 126.19140625 24.1279296875 126.140625 24.216796875 126.013671875 24.267578125 125.861328125 24.216796875 125.6962890625 24.19140625 125.53125 24.166015625 125.37890625 24.115234375 125.328125 23.98828125 125.2900390625 23.88671875 125.251953125 23.78515625 125.251953125 23.658203125 125.251953125 23.455078125 125.404296875 23.37890625 125.455078125 23.302734375 125.53125 23.2265625 125.607421875 23.150390625 125.708984375 23.150390625 125.98828125 23.150390625 126.2041015625 23.2900390625 126.419921875 23.4296875 126.419921875 23.734375 z" /></g></svg>