<svg xmlns="http://www.w3.org/2000/svg" xmlns:xlink="http://www.w3.org/1999/xlink" height="284.351" width="319.936"><defs><linearGradient id="c"><stop offset="0" stop-color="#4b5d32"/><stop offset="1" stop-color="#fff" stop-opacity="0"/></linearGradient><linearGradient id="b"><stop offset="0" stop-color="#8f6b32"/><stop offset="1" stop-color="#b3925d"/></linearGradient><linearGradient id="a"><stop offset="0" stop-color="#75511a"/><stop offset="1" stop-color="#b3925d"/></linearGradient><linearGradient xlink:href="#a" x1="47.545" y1="278.434" x2="97.712" y2="251.917" gradientUnits="userSpaceOnUse"/><linearGradient xlink:href="#b" x1="92.277" y1="232.472" x2="128.593" y2="279.4" gradientUnits="userSpaceOnUse"/><linearGradient xlink:href="#c" x1="219.891" y1="434.256" x2="110.144" y2="411.628" gradientUnits="userSpaceOnUse" gradientTransform="translate(-72.125 -194.454)"/><linearGradient xlink:href="#c" id="d" gradientUnits="userSpaceOnUse" gradientTransform="translate(122.439 -352.004)" x1="219.891" y1="434.256" x2="110.144" y2="411.628"/></defs><g><path d="M193.931 186.83c10.6.557 21.328-2.62 31.625.994 11.138.729 25.091-3.705 29.187-15.136 1.854-14.447 5.579-30.271-1.414-43.841-6.796-12.164-21.78-12.707-33.071-18.388-11.877-1.988-17.13-13.359-25-20.637-11.245-8.823-24.876-16.809-38.961-9.119-15.323 7.861-33.683 5.834-48.559 14.782-10.085 2.638-19.831 6.118-28.39 12.168-6.539 6.838-28.309 3.087-17.561 17.517 7.818 6.856 21.11 10.515 16 24.213 4.714 13.766-9.646 34.13 7.709 42.309 12.303 3.216 24.935 10.375 37.989 7.225 12.878-5.405 27.289-6.391 39.451-14.331 10.758-.922 19.868 6.756 30.996 2.245z" fill="url(#d)"/><path d="M276.236 206.336c-.029-.049-.423-.249-.923-.479l.494.829c.283-.186.45-.316.43-.351zm-20.817-22.141c-.288-.418-.796-.661-2.002-1.011l-1.935-.57-.141-1.64c-.143-1.824-.082-1.778-2.583-1.657-1.801.087-2.12-1.026-.721-2.491.589-.617 1.035-1.306.986-1.52-.049-.214-.707-.479-1.459-.594-1.239-.19-1.346-.289-1.231-.995.279-1.706-.947-4.176-2.42-4.891-.462-.224-1.455-.226-2.198-.021-1.465.406-1.766.187-1.688-1.186.076-1.346-.754-1.293-2.866.177l-1.789 1.245-.79-1.327-.79-1.327-2.589 1.756c-1.421.97-2.655 1.645-2.743 1.498-.087-.147-.251-.868-.363-1.6-.302-1.977-.915-2.814-2.113-2.848-1.028-.029-1.024-.018-1.335 2.049-.252 1.677-.51 2.235-1.322 2.854-.822.628-1.006 1.047-1.03 2.312-.034 1.753-.65 2.314-3.021 2.846-.786.177-1.359.405-1.288.518.071.113.862.55 1.754.966 2.68 1.249 2.645 2.025-.159 3.817-1.055.674-1.91 1.383-1.91 1.577 0 .194.957.485 2.141.667 1.471.227 2.283.576 2.569 1.056.538.904.338 1.267-1.474 2.723-1.269 1.02-1.447 1.314-1.196 1.909.185.439.915.881 1.943 1.201 1.871.582 2.67 1.134 2.414 1.663-.098.202-.723.823-1.382 1.392-.659.569-1.149 1.249-1.09 1.511.059.261 1.129.693 2.381.947 2.762.56 4.275 1.629 3.84 2.737-.158.403-.516.89-.791 1.065-.465.297-.411.377.861 1.282l.011.018 10.817-6.912c5.488-3.507 11.762-4.551 17.612-3.417-.149-.568-.374-1.04-.679-1.347-.454-.458-.498-.674-.161-.889.522-.333.603-1.721.168-3.059-.063-.192-.143-.344-.239-.484z" fill="#28311b"/><path d="M138.776 150.767c-3.193-.594-6.769-.825-9.84.248-3.106 1.838-5.525 4.608-7.951 7.214-4.287 2.469-8.542 5.53-13.619 5.961-3.489 1.399-7.575 2.353-9.997 5.453-2.429 4.185-3.208 9.388-6.693 12.943-1.63 2.405-7.629 4.738-6.809-.136 1.924-3.537 4.347-6.673 6.579-10 2.712-2.607 4.415-6.069 5.869-9.536 1.284-3.414 8.701-4.091 5.186-8.631-2.352-1.855-3.983-4.452-6.734-5.774-3.601-.826-5.575-5.108-7.519-6.705-.74 3.796 2.289 6.964 4.4 9.798 3.255 1.225 2.98 6.82 6.85 6.261 4.073-.055 8.256.098 12.201-.924 3.73-2.705 8.17-4.524 11.68-7.643 4.005-1.814 6.951-6.238 11.565-6.325 4.366-1.333 10.992 3.791 6.022 7.404l-.607.271-.583.12z" fill="#4b2c17"/><path d="M131.246 115.212c-.278 1.109.447.894.5 1 .467.934-.19 1.379-.5 2-.37.741 0 2.654 0 3.5 0 .206.132 1.368 0 1.5h-.5v.5c-.667.667-.5-.833-.5.5 0 .206.132 1.368 0 1.5-.063.063-1.217-.217-.5.5h.5v2h1c.236.236-.149.702 0 1l1 1c.151.302-.231 1.269 0 1.5h.5c.236.236-.149.702 0 1l.5.5c.208.416-.317 1.683 0 2h.5v1.5h.5v1h.5v1h.5v.5h1v.5h1v.5h.5v.5h.5v.5c.118.118.333 0 .5 0 0 .167-.118.382 0 .5h.5v.5h1c.48.48-.447.5 1 .5.333 0 .764-.236 1 0v.5l1.5.5v.5h1c.118.118 0 .333 0 .5.167 0 .382-.118.5 0v.5h.5v.5h1v.5h.5v.5h.5v1h.5c.118.118 0 .333 0 .5.167 0 .382-.118.5 0v.5h.5v.5h.5v1.5h.5v.5h.5v1h.5v1h.5v1h.5v1h.5v1c.118.118.333 0 .5 0 0 .167-.118.382 0 .5h.5v1h.5c.118.118 0 .667 0 .5 0-2.276-.236-.029.5-1.5.362-.724-.381-4.619 0-5h.5c.195-.195 0-1.695 0-2 0-.206-.132-1.368 0-1.5h.5c.302-.302 0-2.526 0-3 0-.636-.405-3.595 0-4h.5v-2.5h.5v-1.5h.5v-1.5h.5v-.5h.5l.5-1.5h.5v-1h.5v-.5h.5v-1c.236-.236.667 0 1 0 .206 0 1.368-.132 1.5 0v.5h.5v.5h.5v1.5h.5c.132.132 0 1.294 0 1.5 0 .392-.249 2.251 0 2.5h.5c.101.101.101 2.399 0 2.5h-.5c-.354.354 0 2.945 0 3.5 0 .531.054 5.446 0 5.5h-.5v2h-.5v1h-.5c-.302.302 0 2.526 0 3 0 .392-.249 2.251 0 2.5h.5c.047.047 0 4.518 0 5 0 .392.249 2.251 0 2.5-.667.667-.5-.833-.5.5 0 .474-.302 2.698 0 3 .667.667.5-.833.5.5 0 .392-.249 2.251 0 2.5h.5v1.5c.118.118.333 0 .5 0 0 .167-.118.382 0 .5h.5c.123.123.123 2.877 0 3-.236.236-.702-.149-1 0l-.5.5c-.149.074-.382-.118-.5 0v.5c-.249.249-2.108 0-2.5 0-.333 0-.764-.236-1 0v.5c-.05.05-1.45.05-1.5 0v-.5c-.118-.118-.333 0-.5 0 0-.167.118-.382 0-.5h-1v-.5c-.118-.118-.351.074-.5 0l-1.5-1.5c-.149-.074-.382.118-.5 0l-.5-1h-.5v-1h-.5v-.5h-.5c-.236-.236.149-.702 0-1l-1.5-2.5c-.149-.298.236-.764 0-1h-.5c-.236-.236 0-.667 0-1 0-1.333.167.167-.5-.5v-1h-.5v-1c-1.035-1.035.04 1.581-1-.5-.151-.302.231-1.269 0-1.5h-.5l-.5-1.5h-.5v-1c-.667-.667-.5.833-.5-.5 0-1.211-.466.034-1-.5v-1h-1v-1.5h-.5v-.5h-.5v-1h-.5v-.5h-.5v-1h-.5v-1h-.5c-.328-.328-.249-1.75-.5-2h-.5v-.5h-1v-1h-1.5v-1h-1v-.5h-.5v-.5h-.5v-.5h-1v-.5h-.5v-1h-.5v-.5c-1.333 0 .167.167-.5-.5h-.5v-.5h-.5v-1h-.5v-.5h-.5v-.5h-.5v-.5h-.5v-.5h-.5v-.5h-.5v-.5h-.5v-.5h-.5c-.236-.236 0-.667 0-1 0-1.333.167.167-.5-.5v-1h-.5v-.5h-.5v-1h-.5v-1h-.5v-.5h-.5v-.5h-.5v-.5h-1v-.5h-1.5v-.5c-.047-.047-4.518 0-5 0-.5 0-1.5.5-1.5 0 0-.167.667 0 .5 0-.222 0-1.69-.155-2 0-.426.213-1.83 1.67-2.5 1-.118-.118-.167-.5 0-.5.236 0 .5.736.5.5 0-.373-.382-.646-.5-1-.127-.382 0-1.094 0-1.5 0-1.687-.138-2.724 0-3 .074-.149.382.118.5 0v-.5h1v-.5c1.333 0-.167.167.5-.5h2v-.5c.399-.399 1.975.262 2.5 0l.5-.5c.889-.444.278.278.5.5l1-.5v.5h.5v1c.792.792.426-.537 1.5 0 .149.074.167.5 0 .5-.667 0 .5-1.167.5-.5l-.5.5c0 .167.333 0 .5 0h2c1.173 0 0-.118 0 .5 0 .333.764.236 1 0v-.5.5c.999 0 .202-1.202.5-1.5h.5c.166-.166.166-3.834 0-4h-.5l.5-.5c0-.236-.395-.289-.5-.5-.59-1.18.359-1.141 0-1.5-.118-.118-.592-.139-.5 0 .392.588 2 2 1.5 1.5l-2.5-2.5c-.167 0-.382.118-.5 0v-1.5c-.661-.661-1.447.947-.5 0 .717-.717-.437-.437-.5-.5v-2h-.5c-.123-.123-.123-2.877 0-3h.5v-.5h.5v-.5c.236-.236.702.149 1 0 2.081-1.04-.535.035.5-1h1.5v-.5c.166-.166 3.834-.166 4 0v.5h.5v1h.5v.5h.5c0 .85-.333 1.667-.5 4.5z" fill="#643b1f"/><path d="M185.799 138.039c.256 4.77-.108 9.662-2.407 13.954-2.482 5.827-7.294 10.635-8.043 17.164-.156 3.176-.727 7.379 2.684 9.131 4.65 2.676 5.947-3.379 6.007-6.738 1.26-4.005 1.034-8.19 1.861-12.244 1.728-6.285 5.965-11.78 6.386-18.416 1.354-3.731-1.278-6.55-5.074-4.62" fill="#643b1f"/><path d="M177.09 161.475c-4.674 4.336-2.692 11.704-9.021 12.417-3.087-3.487-4.563-10.674-9.157-9.502.678 5.16 2.598 11.136-1.431 15.547-3.44 6.477 9.893 6.593 4.198 12.023-4.051 2.496-11.931 2.835-9.051 8.786-.334 6.484.978 13.89 1.606 20.455.239 7.925-1.254 15.891 1.133 23.629.747 5.74 1.588 15.992 2.12 21.735-1.895 6.656-3.532 8.834-8.347 14.014.36 3.506 9.838 5.41 12.34.283 4.996-.379 9.793-.709 14.521-1.768 3.192 2.239 12.568 1.255 5.449-2.517-3.299-4.682-4.011-11.215-5.187-17.132-.913-6.938-.987-13.981-1.443-21 .356-7.194.681-14.408.139-21.552 2.535-6.48 6.222-12.433 9.812-18.383 4.174-6.12.876-14.129 3.959-20.691 2.161-5.599-3.523-4.832-4.837-.852-8.972 3.281-8.775-7.344-6.817-12.951.08-.844.102-1.696.013-2.54zm9.656 30.25l.219-.031zm.219-.031l.24.023zm-5.719 85.031v-.25zm0-.25c.985.772-.188-.989 0 0zm3 1.75l.219-.031zm.219-.031c.395.471.286-.293 0 0zm-33.719 4.031l-.483.028zm-2.844-.5c-2.627-1.138-1.816 2.638 0 0zm-1.656 0c-.439-.516-.698.526 0 0z" fill="#4b2c17"/><path d="M235.03 90.392c-.115 0-1.125.665-2.248 1.49l-2.058 1.49-2.6-.785-2.6-.785-.948 1.408c-.524.765-1.296 2.788-1.706 4.496-.734 3.053-.781 3.091-2.465 3.548-.942.256-2.825 1.359-4.198 2.438-1.825 1.434-2.996 2.013-4.361 2.167-1.732.195-1.978.075-3.575-1.571-1.967-2.027-4.538-3.207-6.094-2.817-.796.2-1.056.107-1.056-.406 0-.794-1.422-1.795-3.142-2.194-.989-.229-1.525.024-3.115 1.49l-1.923 1.761-1.842-.921c-2.038-1.04-1.948-1.077-3.521 1.761-1.133 2.043-2.534 1.665-3.142-.84-.256-1.055-.687-1.998-.948-2.086-.261-.087-.991.465-1.625 1.219-1.045 1.242-1.223 1.294-1.896.704-1.626-1.427-5.09-1.697-6.852-.542-.553.363-1.231 1.456-1.517 2.411-.564 1.882-1.002 2.07-2.411 1.083-1.381-.967-1.89-.018-1.761 3.277l.108 2.79h-3.9l.108 4.009c.066 2.205-.055 4.009-.271 4.009-.216 0-1.094-.293-1.95-.65-2.31-.965-3.618-.838-4.469.46-.73 1.115-.715 1.117 1.273 2.817 1.613 1.379 2.032 2.03 2.14 3.331.11 1.32.43 1.796 1.761 2.654 1.843 1.189 2.021 2.236.975 5.2-.347.983-.493 1.765-.325 1.761.168-.004 1.172-.589 2.221-1.3 3.152-2.136 3.954-1.588 3.954 2.681 0 1.607.173 3.015.379 3.142.206.127 1.167-.737 2.167-1.923 1.242-1.473 2.166-2.14 2.871-2.14 1.328 0 1.578.459 1.896 3.413.222 2.069.414 2.459 1.219 2.573.593.085 1.561-.431 2.6-1.354 1.893-1.681 3.024-2.2 3.413-1.571.148.24.384 1.337.542 2.438.157 1.1.548 2.088.867 2.194.318.106 1.506-.791 2.627-2.004 2.475-2.678 4.642-3.646 5.525-2.438.321.439.596 1.153.596 1.571 0 .708.122.7 1.95-.108 1.877-.83 3.684-.789 3.684.081 0 .077.109.135.298.19l.027-.244c.104-1.387.436-2.437.921-2.79.657-.478 1.054-.329 2.654 1.002 2.284 1.9 2.784 2.062 3.738 1.138.506-.491.702-1.626.569-3.548-.107-1.547-.02-2.819.217-2.871.237-.052 1.346.824 2.465 1.977 2.972 3.066 3.936 2.915 4.713-.813.258-1.24.559-2.372.677-2.492.118-.12.567.542 1.002 1.49 1.312 2.856 2.183 3.49 4.334 3.061 1.552-.31 2.091-.194 3.088.677.983.859 1.755 1.027 3.873.894 2.611-.164 2.62-.171 2.871 1.138.293 1.524-.567 2.525-2.898 3.44-.863.339-1.687.744-1.842.894-.155.15 1.018 1.551 2.6 3.088l2.871 2.79-1.11 1.083c.193.189.118.519-.271.921-.032.033-.032.332-.027.758 1.073 2.028 1.964 2.461 3.846 2.086 1.552-.31 2.091-.194 3.088.677.983.859 1.755 1.027 3.873.894 2.611-.164 2.62-.171 2.871 1.138.293 1.524-.567 2.525-2.898 3.44-.863.339-1.687.744-1.842.894-.155.15 1.018 1.551 2.6 3.088l2.871 2.79-1.408 1.354-1.408 1.354 2.031 1.923c2.386 2.276 2.667 3.336 1.002 3.602-1.698.272-1.88.694-.975 2.438.459.884.741 2.144.596 2.79-.462 2.056-3.148 4.28-5.309 4.388-.894.044-.981.195-.867 1.815.069.983-.05 1.885-.298 2.004s-1.222-.26-2.14-.84c-2.18-1.376-3.453-.657-2.844 1.598.845 3.132.887 3.039-1.3 3.711l-1.977.623-.135 2.6c-.091 1.619-.247 2.34-.677 2.817-.143.159-.324.302-.542.433-1.512.91-3.212 1.166-3.765.596-.357-.369-.624-.264-1.056.433-.29.468-.81.904-1.463 1.246-.226-6.986-2.733-13.931-7.53-19.637-1.263.553-2.498.658-2.952.19-.357-.369-.624-.264-1.056.433-.29.468-.81.904-1.463 1.246-.062-1.927-.294-3.874-.704-5.769-.777.086-1.235-.35-1.761-1.381-.774-1.519-1.758-1.193-6.175 2.004-.827.599-1.427-.442-1.435-2.492-.008-1.854-.393-2.031-1.571-.704-1.172 1.32-4.083 3.413-4.767 3.413-.317 0-.708-.531-.867-1.165-.277-1.105-.325-1.118-.921-.325-.342.455-1.282 2.131-2.086 3.711-1.085 2.134-1.742 2.933-2.573 3.142-1.184.297-1.631 1.081-2.383 4.063-.256 1.013-.641 1.842-.84 1.842-.198 0-.488 1-.65 2.221-.257 1.937-.18 2.274.596 2.817.655.459.892 1.098.894 2.438.002 1.311-1.805 2.204-.85 3.611.729 1.073 2.577 3.84 2.795 4.376.538 1.325 1.742 2.314 2.622.767.817-1.435 1.945-2.818 3.215-1.858.463 1.137 1.235-.539 1.4-.531.165.008.933-1.036 1.706-2.329 2.013-3.366 3.85-4.101 5.634-2.221 1.237 1.304 2.39 1.417 2.763.244.151-.477.657-1.097 1.138-1.354.706-.378 1.176-.243 2.465.65 1.086.753 1.918 1.018 2.6.84.954-.249.403-.193.704 1.408 1.321 7.03.204 11.19-6.094 10.374-2.457-.318-2.43.531-1.869 1.598.284.54 1.08 1.628 1.761 2.411.68.783 1.246 1.807 1.246 2.275 0 .702.278.867 1.679.867 1.165 0 2.101.313 2.952 1.029 1.23 1.035 1.247 1.055 2.302.244 1.663-1.278 2.711-1.029 4.659 1.11.976 1.073 2.07 1.95 2.411 1.95.387 0 .723.64.894 1.706.269 1.682.306 1.709 2.329 1.869 1.131.089 2.113.201 2.194.244.081.043.948-.601 1.923-1.435 1.979-1.694 2.961-1.839 5.525-.813.968.387 1.835.631 1.923.542.088-.089.412-1.235.731-2.546.569-2.335.627-2.389 2.113-2.356.834.018 2.448.315 3.602.65 1.947.565 2.16.534 2.708-.217.325-.445.711-1.668.867-2.708.271-1.805.36-1.869 1.761-1.869 1.378 0 1.463-.089 1.463-1.463 0-2.31.473-4.171 1.083-4.171.308 0 1.498.383 2.627.867l2.058.894.975-.921c.929-.873 1.016-.896 2.329-.217.756.391 1.765 1.402 2.248 2.221.483.819 1.134 1.49 1.435 1.49.301 0 1.294-.585 2.194-1.3 1.927-1.531 3.258-1.64 5.254-.406l1.463.894v-1.219c.013-1.689 1.262-4.204 3.602-7.286 1.086-1.43 1.777-2.68 1.544-2.763-.233-.083-1.654.278-3.169.813-3.443 1.215-4.144 1.002-4.144-1.3 0-1.957-.609-2.219-2.383-1.056-.574.376-1.481.62-2.031.542-.89-.126-.999-.347-.894-2.004.11-1.729.057-1.83-.731-1.408-1.39.744-2.062.526-2.627-.84-.998-2.408.45-4.883 4.279-7.34 2.046-1.313 2.162-1.347 4.361-.84 1.821.42 2.438.429 3.169-.027.782-.488.996-.458 1.49.217.315.431.569.945.569 1.138 0 .922.94.173 1.733-1.381 1.108-2.172 2.477-2.302 4.604-.433.814.715 1.674 1.3 1.896 1.3.542 0 1.222-1.383 1.977-3.927.446-1.502.846-2.087 1.381-2.058.412.022 1.784-.288 3.061-.677 1.619-.493 2.563-.566 3.115-.271 1.012.541 1.83-.578 4.09-5.742 1.345-3.075 1.818-3.792 2.573-3.792 1.119 0 2.694-1.053 3.304-2.194.374-.698.217-.929-.921-1.517-1.302-.673-1.32-.785-1.029-2.736.166-1.113.463-2.232.677-2.492.486-.591.136-.958-1.652-1.706l-1.408-.596v-3.304c0-3.276-.036-3.332-2.248-6.5-2.116-3.031-2.263-3.17-3.115-2.573-1.195.837-3.163.808-3.494-.054-.439-1.145-.273-2.748.379-4.009.798-1.543.165-2.828-.704-1.435-.691 1.106-1.463 1.21-2.004.244-.345-.616-.603-.642-2.004-.135-1.374.497-1.986.481-4.496-.163-1.601-.41-3.326-.76-3.846-.758-.567.003-1.054-.32-1.219-.84-.151-.477-.561-.867-.894-.867-1.043 0-3.657 2.627-5.85 5.877-3.147 4.664-5.319 6.073-5.877 3.846l-.271-1.083-1.408.867c-2.588 1.599-4.55 1.055-4.55-1.273 0-1.092-.83-1.3-4.984-1.3-3.289 0-3.754-.107-5.011-1.165-1.255-1.056-1.364-1.329-1.138-2.979.553-4.037 1.984-5.06 4.388-3.169 1.312 1.032 1.627.866 2.763-1.408 1.058-2.119 2.588-2.205 4.334-.217l1.327 1.544 1.381-1.923 1.381-1.923 1.706.867c.944.482-.368-6.459-.056-6.578.312-.12 2.469.403 3.247-1.057 1.091-2.047 2.77 2.727 3.688 2.544 1.069-.214 1.286-.576 2.086-3.548 1.42-5.283 1.405-5.356-.758-6.338-1.798-.817-1.858-.904-1.706-2.492.137-1.435.025-1.706-.84-1.923-.678-.17-1.602.149-2.844.975-1.896 1.26-4.258 1.592-5.119.731-.264-.264-.85-1.809-1.3-3.44-.451-1.631-1.137-3.186-1.517-3.467-.887-.656-.536-1.785 1.327-4.225 2.759-3.615 3.003-4.641 1.327-5.959-.596-.469-1.083-1.116-1.083-1.435 0-.413-.592-.565-2.058-.515l-2.058.081.054-1.95c.034-1.073.204-2.881.379-4.009l.325-2.058-1.95-.84c-1.077-.461-2.048-1.051-2.14-1.327-.337-1.01-2.577.13-5.634 2.871-3.62 3.246-4.68 3.618-6.771 2.492l-1.49-.785.217-2.952c.115-1.616.115-2.925 0-2.925z" fill="#29331b"/><path d="M146.559 4.819c-.853.819-3.414-2.327-5.073-1.849-1.533.442-2.163 4.509-3.077 5.208-1.737 1.33-.766 3.812-2.354 4.781-2.913 1.777-5.111 2.61-7.94 3.543-3.503 5.056 9.54 7.396 2.456 12.671-4.432 3.716 1.39 9.439 8.913 9.639 1.796 3.865 2.274-6.895 2.228-.463-1.855 4.034-12.616-3.171-14.193-8.203-6.228.574-10.091 3.536-13.98 8.636-6.221-.567 4.349-6.465-2.418-7.651-.872-.872-3.058.085-2.78-1.937.159-1.161-3.364-.089-3.558-1.338-1.345-.098-2.127-2.896-4.011-3.324-2.767-.629-6.652.917-7.855-.47-6.741 2.761-11.803 9.633-19.373 10.608-4.567 2.857-3.352 6.896-1.61 10.167 2.908 4.427-2.955 13.542 2.113 15.154 1.423 4.049 4.109 15.065 9.98 10.729 5.741 3.04-.546 2.123 7.888.829.604 4.7 2.471 1.193 5.718 1.962.505 5.019 5.885-.005 5.769 4.871.303.707-4.007 2.998-.587 4.269 2.854 1.06 9.255-1.597 5.462 3.138 6.537-.831 6.047 12.254 14.486 6.707 2.196 2.491-5.677.922-.933 5.107-4.646 3.013-3.079 8.544.037 11.304-4.789 4.33 7.395 1.92 4.039 6.355-1.837 3.866 10.235 1.239 6.153 5.652-4.075 5.345 2.05 5.773 5.255 2.779 4.012.245 7.314-3.61 10.963.471-2.811-4.897.024-8.058 5.176-5.159 2.12-.465-5.076-9.373 2.387-6.904 7.291 1.676-3.668-10.72 5.769-6.961 1.032-2.402-2.403-6.574 1.567-9.624 1.851-4.475 3.701-8.594 8.23-9.366 2.135-7.402 9.203-.485 12.267-2.544 4.096-3.209 6.106 3.532 10.217-1.206 5.959 1.62 10.799-8.691 17.283-3.892 2.537 1.037 10.205-3.586 5.011-6.25-9.593-4.513 2.227-9.106 7.186-7.985.099-3.077 2.658-6.514 4.713-7.036 1.424-.362 2.606 2.585 2.559.138 3.673.232 5.234-5.32 3.106-9.024-11.775.935 4.568-13.927-.147-10.42-2.72 1 .411-1.743-.019-3.029-.301-.9-5.573.806-6.346 1.931-.576.839-.799-5.983-.96-6.39-5.408 1.312-5.418-8.308-9.832-2.82-.858.365-3.163 2.014-4.01 1.575-3.496-1.81-5.429-10.085-8.539-3.149-2.931 3.636-7.974 6.793-11.41 8.902-1.11-4.334 2.481-6.277-2.713-5.514-4.632-.855-.635-3.841-3.012-8.087.166-3.41-.967-3.715-4.79-5.426.525-1.019-2.758-.973-2.469-2.348 1.074-5.109-.515-8.746-4.318-5.492-3.993.602-7.631 8.449-10.937 3.865-2.82-3.098-4.308 1.88-5.625-2.224-1.347.324-.845-1.071-2.05-1.804-1.028-.625-2.773.329-3.915-.143-1.929-.797-3.148-2.64-3.631-1.016-.879-.566-1.386-1.69-2.466-1.943zm-85.906 43.781c-2.119 1.033 2.816 2.132 0 0z" fill="#29331b"/><path d="M243.017 75.118c-2.808 2.088-2.107 2.807-5.562.562-5.852-2.198-2.048-2.325-6.763-1.345-5.32 3.475-13.235 20.175-18.018 12.934-5.288-.417-9.913-7.505-14.402-.816-3.497-1.042-6.316-.837-8.764 2.943-2.188-2.98-2.617-6.904-6.242-2.278-4.638-4.491-9.908-.117-11.909 3.635-5.972-4.156-.236 7.687-4.759 6.41-4.894-1.3-1.51 5.296-2.585 7.891-.158 2.561-9.969-2.738-7.531 3.236 3.51 3.357 5.707 7.904 7.573 11.873-3.054 7.012 1.653 1.594 5.2 1.494 1.452 3.682.283 11.432 4.863 4.622 6.072-5.827 3.061 11.604 9.676 3.313 5.058-5.68 2.91 9.28 7.816 1.883 2.544-4.313 6.599-3.331 8.071-.597 4.387-2.104 6.161 1.268 7.468-3.983 3.473 3.558 9.367 4.474 7.441-2.62.242-5.662 8.152 8.566 8.583-.706.965-7.115 3.668 6.501 8.959 2.255 2.65 3.318 13.41.056 7.683 6.396-8.036 1.438 1.355 6.017 2.157 8.949-4.437 6.085 6.314 4.794 9.601 7.131 7.571-2.356 4.643 6.044-.587 6.27.118 3.201 8.873 5.6 4.688 8.344-4.871 2.302 6.423 5.604 1.875 7.938-2.714 2.129 1.488 11.157-6.563 11.094-1.881 1.388-.259 7.044-4.704 2.954-4.408-.223-.324 7.699-6.194 7.782 1.509 6.989-5.225 6.351-8.789 8.919-.792-7.676-3.063-21.539-11.545-22.154-2.398-.834-4.185 3.969-3.711-1.688-.026-7.711-7.088-5.062-10.895-2.887.889-10.928-7.172 5.505-9.18-1.811-3.353 6.454-9.348 10.457-10.513 17.915.811 4.603 4.492 13.548 8.695 15.371 2.022-5.101 4.277-6.877 6.448-5.966 1.954-2.358 2.596 5.539 6.773-1.979 9.312.449 8.998 10.384 4.171 14.328-7.295-.2-7.668 10.038-3.71 9.149 1.425 1.446 3.868 3.031 6.914 2.824 4.66-.318 7.345.258 9.066 3.952 1.05 2.572 7.708 5.242 9.324 1.854 1.567-3.287 4.269-.376 6.702-.669 3.799.052 2.319-2.918 3.567-4.725.503-.729 4.306 1.918 4.664.106 5.467 1.55 8.676-.547 9.462-6.762 1.776-.33-1.112-3.826.124-4.799 1.453-1.143 4.892 3.932 5.736 2.175 1.246-2.595 3.313-3.734 5.165 3.429 3.182.454 4.396-3.705 5.586-2.854 2.827-2.063 6.947.894 8.491 1.013-.86-5 11.323-18.301 3.475-13.061-5.257 3.046-3.174-5.342-7.367-2.657-4.299 1.588-1.655-2.401-4.909-3.393-5.17-7.802 5.472-9.533 11.455-8.341 1.439 3.624 1.307-.143 4.032-2.301.938-.743 4.718 2.222 6.022 1.993 1.989-.349 1.345-3.554.644-2.747 3.663.821 5.646-2.877 10.119-4.744 6.464-1.633 4.215-13.003 12.392-14.561-2.332-1.973-2.76-6.685-1.36-9.948-6.179-.769-1.497-6.357-4.28-9.952-.832-9.1-1.521-13.397-7.402-5.607-.952-3.336 2.867-8.88-2.175-5.394-4.499-.708-12.017-1.39-16.094-3.261-.871-5.54-10.499 2.297-12.637 9.437-5.699 5.571-6.755-3.635-12.625-1.969-9.682 3.469-7.813-16.466.295-9.787 1.383.256 2.543 2.937 3.846 2.915 1.908-.031 3.825-3.003 4.734-4.368.616-2.501 1.748 2.517 2.956 2.253 1.829-.399 2.179-3.472 3.632-5.937 3.106-3.999 13.469-11.229 5.641-14.916-3.399-.179-3.523-4.834-6.717-2.495-5.525 2.314-11.689-7.805-9.53-11.373 5.887-3.542 5.539-12.499-.858-10.543-.457-1.513-2.993-.519-2.609-2.368.427-2.054 1.622-7.83-.292-8.522-6.372-6.815-8.512 8.318-15.256 5.327-3.573-.789-3.6-3.616-4.749-5.982z" fill="#384525"/><path d="M40.527 78.663c-2.353.812-4.363 2.317-6.487 3.574-4.675 2.9-9.379 5.758-13.984 8.768-1.419.895-3.007 1.45-4.592 1.971-1.029.404-2.254.729-2.813 1.781-.563.873-.51 1.957-.79 2.928-.141 1.064-1.005 1.897-2.006 2.199-.859.373-3.471-.849-4.378-.633-.714.243.196 2.211.174 3.037-.078.868.544 1.575 1.045 2.21.734.921.323 3.328.528 4.488.259 1.025 1.307.842 2.061 1.649.8.935 2.058 1.431 2.65 2.557.487.951.186 2.037-.065 3.011-1.378 3.451-2.684 2.05-3.169 4.089-.551 2.314-.235 7.851-1.189 8.062-.375 1.223.133 1.245.592 2.349 1.51 3.441 4.419 7.165 6.047 10.552.472.843 1.124 1.579 1.813 2.25.71.716 1.592 1.374 2.611 1.526.998.146 2.793 1.171 3.704.779 1.05-.457 1.179-2.482 2.194-3.011 1.156-.694 2.398-1.219 3.678-1.637.998-.363 2.094-.746 3.156-.438 1.274.363 2.1 1.481 3.031 2.344.757.793 1.442 1.663 2.051 2.57.428.984.415 2.103.813 3.094.393.855 1.496 1.506 2.397 1.011.956-.342 1.716-1.036 2.633-1.459 1.394-.825 1.184 2.641 2.701 2.14 1.067-.317 2.115-2.929 3.132-3.382 1.013-.737 2.438 1.669 3.202.69.701-.92 2.536-6.748 3.384-7.539.953-.613 2.183-.283 2.875.563 1.668 1.581 1.054 6.175 2.761 7.715.774.633 1.805.045 2.864.024 1.212.041 2.039.798 3.227.601 3.325-.695 8.95-4.355 12.262-5.106 2.781-.766 5.573-1.493 8.344-2.297 1.896-.562 3.785-1.167 5.617-1.915 2.979-1.272 5.918-2.64 8.832-4.053.845-.385 1.636-.913 2.164-1.693.962-1.2 1.431-2.694 1.992-4.103.858-2.043 1.704-4.094 2.625-6.11.907-1.575 2.209-2.874 3.651-3.962 1.406-1.109 2.891-2.135 4.112-3.457 1.492-1.503 2.429-3.433 3.452-5.261 2.147-3.982 4.23-7.997 6.351-11.992.591-1.024.519-2.35-.116-3.336-.439-.882-1.063-1.659-1.698-2.407-1.039-1.285-1.993-2.653-3.251-3.742-.784-.722-1.662-1.334-2.469-2.031-2.279-1.86-4.685-3.555-7.05-5.303-.841-.493-1.588-1.29-2.592-1.414-1.298-.17-2.394.708-3.458 1.309-3.448 2.042-6.879 4.112-10.307 6.189l-10.375 4.906c-1.456.27-2.932-.155-4.26-.732-6.475-2.556-12.857-5.34-19.334-7.893-3.69-1.298-7.399-2.545-11.129-3.721-2.616-.832-5.259-1.577-7.915-2.268-.429-.078-.87-.153-1.3-.043zm72.5 36.625c.624.416 1.121 1.162.969 1.938-.25-.752-1.054-1.206-1.125-2.031z" fill="#29331b"/><path d="M82.746 149.319c-5.777 1.523-3.162 9.34-9.747 10.806-3.997 2.501-2.76 8.029-7.564 5.191-1.422 4.556-1.446-2.18-3.856-1.779-1.633-2.104-5.313-9.275-6.883-4.562-2.966.057-5.205 3.748-4.987 7.041-1.428 5.834-3.03 7.939-9.45 5.532-2.823 1.725-15.955.584-11.958 7.151-1.795 3.177-2.095 12.543.824 16.256.931 3.639 5.525 5.557 9.269 1.57 3.77-.135.817 5.966 4.977 2.336 3.026-2.36 5.856-1.51 5.567 2.261.689.946-2.477 4.378-2.737 6.073-.426 2.772 2.058 3.632 5.814 1.66 4.441-4.492 3.408 3.433-.017 6.597-.319 4.663 6.815-4.846 6.967 1.216-.498 5.31 6.226 2.085 7.94-1.2 3.408-1.549 5.176 4.155 7.065-1.224.757-1.953 3.684-3.281 3.738-.19 1.618-4.399 6.273 1.895 6.204-3.396-.389-3.098 3.947-10.351 4.856-3.99-.473 4.397.288 3.471 2.709 3.418 3.903 5.538-.749 5.125-4.45 7.558-.981 1.787-3.567 6.103-2.393 8.282 1.625 3.017 7.463 3.767 7.889 4.451.489-2.893 1.985-4.817 2.162-.608.864 3.121 3.558 2.692 3.862-.185 3.141.999 5.887 3.834 8.669-.142 2.496 1.683 6.556 5.741 7.201-.033 1.111-4.902 2.961-.312 5.701 1.497 1.934 1.277 4.675-.198 6.314-1.386 2.261-1.795.01-8.698 4.884-5.921 2.515-2.227 7.404.051 5.197-4.777-.492-2.474-1.706-6.047-3.697-6.988-3.058-1.446-7.213.113-7.641-3.609 4.325-3.095 12.133-.512 14.04-6.564.084 6.207 3.883.975 4.676-1.731 3.918-5.376 3.162 6.302 6.974.93 1.52-6.144 10.171-2.176 11.927-8.298 2.986-4.42 5.887-13.085-2.109-13.526.682-4.003 2.648-11.09-2.491-9.587 1.793-6.527-8.54-3.269-8.51.858-4.478-6.317-6.836 3.82-8.809 5.494.603-3.72-3.791-5.029-4.971-5.484 2.459-4.323-3.883-4.242-1.229-8.354.758-5.878-6.187.662-4.759-5.603-3.18-1.479-12.061-1.632-12.042 2.302-4.029 3.916-11.588 4.609-16.604 6.371-2.863 4.54-3.293 3.152-7.12 7.016-1.879 3.759-7.579 13.931-8.374 6.48 2.879-6.209-2.639-5.772-3.553-11.21-1.07-4.231 6.679-4.136 2.729-8.543-4.841-3.496 6.659-6.76.263-9.028-.822-.076-1.737.044-2.467-.431zm47.281 12.375c.826.203-.769.599 0 0zm3.5 4.594c.753-.038-.189.195 0 0zm23.625 6.406l-.002.62zm-42.594 39.656c5.269 1.204-1.272 5.204 0 0z" fill="#29331b"/><path d="M61.745 164.593c-.203 3.65-3.697 3.55-4.307 3.216.227 5.065-3.353 12.729-9.266 11.534-4.061-.104-8.952.063-12.303 2.246 2.874 5.235-5.029 8.743-.672 14.074 1.286 4.318 4.039 7.848 8.053 4.341 2.911.272.282 5.435 4.387 2.467 7.771-5.207 6.456 6.001 6.403 10.459 2.007 1.124 10.292-5.185 7.39 1.767-1.967 2.755-1.371 7.23 1.684 2.475 4.007-3.024 1.382 9.422 6.265 3.677 1.545-2.343 5.544-3.714 5.94.165 2.384-2.818 5.658-6.725 7.172-4.263 2.406-2.768 6.075 2.558 5.921-3.274-.471-4.782 5.47-9.19 4.829-1.792.119 5.636 7.339-.711 6.546 6.04-.014 5.423-13.928 8.164-6.084 13.661 2.705 2.499 3.673 3.874 3.94-1.023 4.448-2.773 10.434-1.757 16.256-2.144 3.675-2.421 5.219-11.405 5.707-11.259 3.096.419 3.715-5.694 5.744.023 2.734 1.294 7.259 10.83 7.897 3.777 3.598 6.056 8.821-3.999 1.651-3.834-5.477.355-8.045-7.787-.725-6.633 4.684.957 9.653-9.601 10.291-1.556 5.948-3.763 4.09-11.522-2.297-13.304-2.799 3.609-6.307.907-7.92 6.11-3.812 1.417-8.356-1.521-4.741-5.693.702-3.299-4.674-.806-2.37-5.393-2.419-1.411-10.111-.682-7.976 5.342.181 3.816-1.561 6.263-4.171 3.279-1.932 3.304-2.682 5.024-5.247 1.233-6.235 8.592-4.302-6.381-6.221-7.48-4.446 2.033-6.319-6.82-8.524.551-2.359 2.261-9.949 9.408-9.55 2.001-7.429 2.752-.993-10.885-8.04-11.798-2.986-1.361 3.911-4.582.236-8.004 1.646-2.174 6.193-2.294 4.67-7.187-1.888-6.696-5.729 2.259-6.45 5.08-1.531 2.211-5.355-4.352-4.215.612-3.747 1.576-4.267-5.417-7.8-5.891-.785-1.152-1.383-2.413-2.107-3.601z" fill="#384525"/><path d="M173.208 114.548c3.572 1.122 4.401-3.357 7.251-4.629 1.284-1.749 3.861.194 5.158-1.822 1.656 1.351 3.098 1.584 3.777-.899 1.081-1.996 3.758 1.943 3.507-1.429 2.165-1.658.954-4.363 2.271-6.298 1.895 1.03 2.657.113 1.571-1.761 1.014-.118 2.613-3.286 1.159-2.561-2.139 3.186-4.091-1.216-2.83-3.339.023-2.578 1.568-3.864 3.887-3.663-.361-2.073-.649-4.215 1.914-4.671-.876-1.505-2.976-1.11-2.238-3.337-2.38-1.7 1.329-4.698-.912-6.274-3.312 2.294.177-4.145-3.4-2.116-2.544 1.498-5.026 2.314-6.622 4.63-1.253-1.173-1.172-3.735-3.875-2.651-.793-.5.438-2.755.295-3.885.208-1.117.16-4.943-1.433-2.76-1.855 2.43-2.296-.342-3.411-1.093-.658 2.308-2.634 3.032-3.428.659-2.16 1.824-.901 8.731-5.033 6.233-3.41 1.258-1.294-1.844-1.858-2.734-4.453.297 3.309-4.953-1.675-5.146-2.604-2.93-3.634 4.122-5.917 1.073-.803 1.035-2.092 1.648-2.645 1.538-.656.554-1.573-1.548-3.178-1.232-1.437-.901-3.555-.829-4.066-2.144-.595 1.052-.755 1.279-2.316.976-1.386-.374-2.113.818-3.274 1.412-1.422.69-2.22 1.105-3.309 1.739-1.404.805-3.418-.323-4.265.568-1.402.865-.557 3.257-.648 4.547.55.3 1.206 1.979.24 2.374-.201 1.534-3.407-.607-3.569 1.192-.105 1.162 1.187 1.62.517 2.944-.797-.492-1.407-1.089-2.837-1.195-1.704-.058-2.227-.856-3.783-1.011-.424.553-.287 2.594-.694 3.872.133.851 1.092 3.572-.371 3.93-.522 1.332-4.317-1.858-3.181.096.947 1.265-.412 2.078-1.108 2.466-.536.755-1.006 1.674-2.387 1.238-1.414.179-.837 2.067-1.198 2.84 2.003 1.362 2.701 2.481 2.082 4.313.685 1.131 1.353 1.734 2.241 2.429.933-.184 1.7-1.171 1.892-1.564 2.831 1.216 3.371 3.309 3.01 5.743-.234 1.331 1.183 2.026 2.396 2.428 1.407.188 1.942-.495 2.695-1.682.519.351 1.214-1.627 1.21-2.38.741-2.063 4.176-2.804 5.107-.345 3.566.786 3.837-3.026 6.506-3.783 1.993-1.048 4.781 1.997 7.161 2.414 1.32 1.18-1.684 3.362 1.398 3.15 1.07.905-2.115 3.47.759 1.795 1.963.075-.308 3.604 2.011 1.332 1.686-2.036 2.522 2.053 4.525.217.71 1.778 1.052 3.048 3.282 1.869 1.22.669-.493 3.444 2.168 2.772.548 1.585 1.449 3.016 3.639 1.995 2.075-.295 1.837-.412 1.835 1.619zm-39.208-11.208c-.15-.105.216-.32 0 0zm-2.603-22.303c-.739-1.354-.399-2.336-.019-.357.442-.109.487.539.019.357zm3.816-1.315c-.088-.274.46-.073 0 0z" fill="#384525"/><path d="M261.11 30.784c-.08.024-.512.516-1.026 1.153l1.348-.401c-.149-.479-.265-.769-.321-.752zm-38.956 21.723c-.695.259-1.231.901-2.188 2.509l-1.548 2.579-2.34-.413c-2.596-.48-2.508-.55-3.315 3.105-.581 2.632-2.255 2.675-3.751.105-.63-1.083-1.417-1.984-1.734-1.995-.317-.01-.943.84-1.396 1.882-.747 1.717-.927 1.834-1.865 1.402-2.268-1.043-6.187-.203-7.756 1.654-.493.583-.882 2.015-.885 3.165-.005 2.267-.428 2.619-2.31 1.991-1.846-.616-2.096.602-.869 4.203l1.037 3.05-2.157.641-2.157.641 1.438 4.398c.798 2.417 1.257 4.451 1.019 4.522-.239.071-1.307.036-2.37-.078-2.872-.308-4.277.263-4.791 1.979-.441 1.473-.424 1.471 2.334 2.697 2.238.995 2.915 1.577 3.462 2.981.555 1.423 1.067 1.845 2.82 2.357 2.429.709 2.97 1.809 2.788 5.431-.06 1.202.035 2.114.219 2.054.185-.06 1.102-1.037 2.029-2.168 2.784-3.399 3.851-3.057 5.255 1.665.528 1.777 1.183 3.277 1.453 3.35.27.073 1.048-1.199 1.764-2.839.889-2.038 1.692-3.079 2.471-3.31 1.469-.437 1.896-.012 3.219 3.151.926 2.215 1.267 2.583 2.194 2.445.684-.102 1.584-.99 2.43-2.353 1.54-2.482 2.621-3.428 3.258-2.86.243.217.865 1.353 1.401 2.518.536 1.165 1.293 2.129 1.68 2.141.387.013 1.405-1.37 2.246-3.081 1.857-3.776 3.935-5.558 5.309-4.513.499.38 1.038 1.079 1.176 1.541.233.783.365.735 2.121-.761l.03-.009-5.415-18.212c-2.748-9.241-1.758-18.688 2.1-26.706-.85.002-1.594.15-2.141.474-.815.483-1.133.466-1.302-.102-.261-.878-2.163-1.517-4.196-1.393-.292.018-.535.076-.767.163z" fill="#637b42"/><path d="M244.869 71.297c-2.72 1.764-5.091 4.597-8.396 2.402-5.046-2.696-4.94 6.115-6.573 9.035 3.407 1.275 8.1-6.64 6.435 1.296-1.098 6.481 8.66 3.382 10.622-.55 2.232-4.259 10.056-1.707 9.665 2.048-.236 3.248-2.48 9.175 2.863 7.396 9.747 3.807-5.163 11.07.797 16.625.064 9.144 7.584 3.598 12.036 3.956-.937 5.168 7.484 5.717 2.895 11.824-.01 6.235 4.013-4.909 7.382-5.229 1.963-4.554 3.07-9.467-2.602-11.551.971-8.615-11.211 4.683-10.811-6.095-7.18-6.38 7.911-12.578-.491-17.904-5.706 1.73-4.219-3.457-3.627-7.318.841-3.287-9.795-5.318-12.003-2.18-2.131 3.609-8.739 7.79-8.278.803.086-1.515.316-3.045.087-4.557zm-43.531 9.688c-3.332 2.374-5.456 4.952-9.389 2.119-1.939 5.095-5.698 4.81-6.549-.682-3.399 5.523-12.809-3.909-14.199 5.646-2.433.21-5.478-1.112-4.332 3.729 4.121-.89 7.182 3.952 10.063-.906.851 5.492 4.61 5.777 6.549.682 4.289 3.68 6.241-1.083 10.17-2.026 4.621 3.294 10.227 3.822 14.772 8.141 5.362-1.872 13.395-4.296 14.291-10.704-6.067 6.135-11.956-3.69-17.256-4.092-1.027-1.149-2.602-1.794-4.119-1.908zm-38.844 14.063c-.715 3.139 1.999-.212 0 0zm-5.625 7.781c-5.155 1.373 5.947.51 0 0zm130.094 27.969c-5.293 2.45-12.22 12.035-1.594 11.313 4.178 1.084 9.291-.206 11.027.483-2.901 4.224-.02 8.41 4.441 5.838 4.684 3.604 4.744 9.79 5.348 14.54 6.272.85-.338 8.139 4.589 10.264-2.518 2.152-9.482 5.594-2.168 5.129 3.565-5.131 5.273-11.172 10.837-14.115-4.72-2.88.359-8.988-5.2-10.812.685-4.882-1.771-14.415-7.345-12.852-7.081 1.658 1.521-11.127-5.048-5.994-3.716-1.923-11.541.854-14.887-3.794zm-33.281 5.594c-1.191 6.557-9.321-2.848-8.75 6.094 1.992 5.993 12.751 1.418 14.349 8.715 3.798-.359 5.265-3.169 7.154.429 2.961-1.022 10.57-11.439 5.166-9.928-5.617 4.272-3.575-4.015-9.655-1.271-2.523.121-6.729-1.681-8.264-4.039zm-51.063 31.969c-2.573 2.986-7.123 6.128-8.75 3.219-.921 4.037-6.222 7.678-6.406 10.188 3.719-1.076 8.125-8.807 7.787-.542 3.397-.025 7.445-5.749 10.338-.427.81 3.808-.05 8.251 3.719 4.719 8.543.278 10.853 13.433 12.014 20.927.04 2.613 3.4-1.846 6.005-.472 5.565-4.006 1.492-11.231.69-16.923-1.717-5.902-7.002-16.488-13.146-10.064 1.439-7.362-5.341-12.1-10.629-5.763-1.844-.86-.082-4.178-1.621-4.862zm40.813 14.094c-3.604 3.44 1.916 7.605 3.563 1.469-1.191-.462-2.201-1.517-3.563-1.469zm-3.375 7.219c-3.948.808 1.098 5.882 0 0zm30.594 3.813c-5.622-.188-12.566 12.241-4.033 10.632-1.851 6.224 3.761 2.493 6.017 3.318-2.288 8.461 11.884-2.085 7.236 4.488 6.458 5.68 3.588-6.752 8.876-9.056 2.501-5.048-10.03 4.209-8.108-4.529-4.264 3.237-6.353 1.618-6.755-.866-2.258 1.668-2.595-2.708-3.231-3.987zm-38.281 3.813c-3.245 1.469 2.299.522 0 0zm19.156 20.969c-5.471 8.58 9.974 1.297 0 0z" fill="#4b5d32"/><path d="M42.215 73.944c-1.392.151-2.782.398-4.188.344-1.019-.001-2.054.731-2.188 1.781-.082.899-.213 1.842-.772 2.581-1.036 1.26-2.286 2.336-3.603 3.294-.894.606-1.771 1.256-2.793 1.635-2.137.946-4.447 1.384-6.676 2.052-1.575.395-2.677 1.652-3.875 2.656-.762.541-1.534 1.127-2.438 1.406-.879.363-1.683-.144-2.531-.313-.971-.232-1.976.636-1.469 1.625.386.938 1.419 1.247 2.281 1.594.928.246 1.702 1.09 1.531 2.094-.227 1.096-.781 2.093-1.13 3.154-.518 1.42-1.062 2.831-1.508 4.273-.218.717-.211 1.608.392 2.139.734.726 1.825.404 2.683.121 2.615-1.033 5.2-2.141 7.747-3.332 2.975-1.401 5.886-2.935 8.735-4.578 2.472-1.37 4.931-2.765 7.393-4.153 1.236-.552 2.639-.762 3.969-.469 1.879.165 3.733.569 5.546 1.079 4.736 1.36 9.452 2.797 14.235 3.984 3.665.977 7.335 1.938 10.985 2.967 1.163.4 2.331.804 3.395 1.431.932.546 1.866 1.091 2.819 1.603 1.64.918 3.297 1.809 4.977 2.649 1.085.517 2.285.724 3.444 1.018 1.686.389 3.405.632 5.129.769 1.027.017 2.066-.549 2.488-1.507.525-1.083.219-2.313.168-3.461-.23-2.464-.605-4.913-.921-7.368-.223-1.593-.283-3.205-.579-4.789-.074-1.064 1.244-2.898 1.694-3.813.385-.936-1.154-1.247-2.19-1.156-1.012-.056-1.882.56-2.848.75-1.045.403-2.024.939-2.983 1.509-1.499.81-2.936 1.73-4.457 2.502-.728.472-1.549 1-2.459.867-1.361-.245-2.414-1.222-3.569-1.91-1.72-1.313-3.46-2.613-4.983-4.159-1.016-.944.784-3.474-.536-4.029-1.665-1.428-6.301-1.291-6.003.844-1.794-.037-3.614.143-5.376-.289-1.399-.219-2.635-.933-3.915-1.492-1.756-.879-3.49-1.802-5.283-2.606-1.338-.621-2.16-2.29-3.536-2.828-1.21-.474-2.967.164-4.235-.131-.848-.144-1.709-.393-2.57-.341zm-31.219 31.875c-.666.517-1.083 1.674-.406 2.344.659-.636.652-1.626.531-2.469zm-.281 18.969c-.939.323-.544 2.07.469 1.875.969-.245.522-2.126-.469-1.875z" fill="#546737"/><g fill-rule="evenodd"><path d="M137.402 96.817c-2.324 5.603-6.909 8.948-10.57 13.212-3.565-.345-4.922-5.86-3.964-8.588 2.729.352 1.259 4.907 3.304 5.945 4.299-2.965 6.296-8.233 11.23-10.569z"/><path d="M139.383 102.764c-1.887 4.277-4.072 8.258-9.249 9.248.81-3.49 4.397-5.061 6.607-7.267.856-.855.475-3.043 2.642-1.981z"/><path d="M118.904 105.406h1.983c-1.075 3.288 2.476 3.934.661 5.945-3.842.239-3.307-3.279-2.644-5.945z"/><path d="M147.311 119.939c-2.657-.728-.7-4.603-.66-6.605-.455-2.629-3.858-2.309-3.964-5.285 5.903-1.693 6.797 6.409 4.624 11.89z"/><path d="M100.408 110.03c.389 2.813-.477 4.37-.663 6.606 2.813-.271 2.799-3.367 5.947-3.303.76.78.746 2.335.661 3.963.5 1.298 2.108-1.792 4.625-.66 1.841 2.872-1.977 6.836.66 8.587 1.728.187 2.841-.241 2.642-1.981 3.012 1.391 5.185 3.623 9.249 3.963.535-.126.658-.663 1.321-.661.463-4.167-3.194-7.124-1.321-10.57 2.139 3.366 3.436 7.575 3.304 13.212-3.904 1.599-8.094-.767-11.232-1.982-.405 6.596 4.71 5.547 9.909 5.285 2.618 3.989 4.036 9.177 8.589 11.231-4.198 3.234-7.562-4.993-9.249-8.588-3.412-.112-7.456.409-9.91-.661-2.917 1.929-3.988 5.7-5.945 8.589-3.714-.01-6.649-.54-8.586-.661.125-5.14 3.166-1.985 6.605-1.982 3.755-1.841 6.56-7.848 5.945-11.89-1.087-1.116-3.585-.82-4.625-1.982l.66-6.606c-1.891-1.632-2.817 3.32-5.945 2.643-.332-2.753 1.931-2.914 1.32-5.945-3.401.121-2.727 4.317-7.266 3.303-.523-3.251 2.631-5.311.66-7.927-3.888 1.396-6.113 4.458-10.57 5.285-.672-2.875 1.367-3.037 1.981-4.624 4.237.888 5.623-3.144 11.234-2.644z"/><path d="M136.079 110.03c8.194-1.287 9.909 13.553 4.625 15.854 1.738-3.89.643-6.101 0-10.57-.334-2.967-5.112-1.494-4.625-5.284z"/><path d="M129.473 112.673c3.569 1.279 4.062 9.638 1.983 12.551 2.502 4.986 4.924 10.049 6.605 15.855 5.471 2.458 11.621 4.233 11.891 11.89-3.116-.846-3.174-4.752-5.285-6.605-4.658-.405-6.695-3.435-9.909-5.285-.684-5.92-2.693-10.519-5.285-14.533 2.167-4.809.308-8.32 0-13.873z"/><path d="M150.613 119.279h1.983c1.744 6.076-4.539 9.459-6.608 14.534-.636 1.563.433 4.547-1.981 5.285-1.646-10.366 7.631-12.137 6.606-19.819z"/><path d="M215.354 129.849c.111 2.313-2.324 2.08-3.304 3.303-1.203 4.081-1.536 9.034-1.981 13.872-7.072 1.997-12.754 8.774-19.818 8.589-2.869.435-1.263 5.343-4.625 5.285 1.176-6.141 7.384-12.838 6.606-23.122 5.133 2.532-2.49 10.353.66 15.193 5.733-1.751 9.56-5.414 15.194-7.266 1.476-6.23-.244-15.658 7.268-15.854z"/><path d="M217.335 132.491h1.982c-.806 3.159-2.769 5.158-2.644 9.249 3.232.15 4.152-2.014 7.267-1.982-1.413 3.21-4.851 4.397-8.587 5.285-2.836-3.671 1.543-8.143 1.982-12.552z"/><path d="M157.881 133.151c.768-.107 1.175.146 1.321.661.509 1.704-.985 2.838-1.981 4.624-1.377 3.684-.526 9.72-3.304 15.856-3.965-7.219.69-16.801 3.964-21.141z"/><path d="M253.668 134.473c2.544.539 3.439 2.728 5.285 3.963-2.01 1.765-7.764-1.157-5.285-3.963z" fill="#fff"/><path d="M237.154 142.4c-2.527 4.298-10.347 3.307-13.213 7.267 7.021 2.229 8.419 10.079 12.553 15.194 3.22.304 7.736-.692 9.909.66-1.951 2.787-9.572 2.295-13.213 1.321-.734-8.954-7.631-11.747-11.23-17.836 2.781-4.109 10.252-6.837 15.194-6.606z"/><path d="M140.043 150.988c2.719 1.697 7.968 5.615 4.624 9.249-1.462-2.863-5.4-6.297-4.624-9.249z"/><path d="M99.745 151.648c2.899.018 4.072 4.357 3.304 5.945-2.596-.487-3.146-3.018-3.304-5.945z"/><path d="M101.728 157.594c-.084 1.185.808 1.395.66 2.644-.766.555-1.771.871-3.304.66-3.386 2.338-4.493 7.941-7.205 10.451-2.712 2.51-1.894 4.231-4.685 4.743 1.159-5.503 6.877-12.021 10.57-17.178-1.117-1.819-7.041-4.122-3.304-6.604 2.276 1.025 3.083 3.523 3.964 5.945.769-.554 1.772-.871 3.304-.661z"/><path d="M228.565 167.505c-5.035-.036-6.045-9.806-11.891-11.232-3.752-.125-5.446 3.472-8.588 1.983-3.659 2.95-9.995 6.731-15.194 5.945-.195-2.448 3.306-2.768 4.624-3.304 5.477-2.229 10.688-4.579 15.194-7.929 10.249-.117 11.365 8.899 15.855 14.537z"/><path d="M112.958 163.539c-.459 4.385-6.781 2.908-9.909 4.624-6.345 2.242-3.841 13.335-11.891 13.874 5.489-7.944 7.498-19.368 21.8-18.498z"/><path d="M194.874 168.163v3.304c3.177-.566 3.428-4.06 7.927-3.304v3.304c3.619.535 3.22-2.946 6.607-2.642 1.74-.199 2.167.914 1.981 2.642 3.872-.865 13.504-4.313 12.551 1.321-4.84-2.189-8.834-.319-12.551 1.982-1.823-.159-1.509-2.458-2.644-3.304-3.34.184-4.465 2.582-6.605 3.964-2.055-.147-1.115-3.287-1.321-5.284-3.445.959-3.985 4.821-7.928 5.284-.555-.768-.87-1.771-.66-3.304-2.209 2.636-3.54 6.149-5.285 9.249-4.024-.06-3.585 4.344-4.625 7.269-3.072-2.387 1.098-8.451 1.323-11.893 1.347-1.327 1.295.293 2.642.66 3.681-2.266 2.606-9.284 8.588-9.248z"/><path d="M175.056 176.752h1.981c-1.094 5.953-1.802 12.291-5.285 15.854-.321-4.074 3.316-9.889 3.304-15.854z"/><path d="M275.468 214.408c3.28-.639 3.525 1.76 5.947 1.981-.652-6.063 3.904-8.772 6.606-13.214-2.406-1.486-6.49 2.981-9.249 1.321v-3.962l-5.945 1.32c-1.44-1.381.329-1.886 0-3.964-.457-1.65-1.762 1.227-3.304.66-3.801-5.738 3.086-8.802 6.605-11.23 4.105.832 3.996 2.488 7.268 0 .662.878.625 2.458 1.981 2.644 1.482-.722 1.161-3.244 2.644-3.964 4.004-.92 3.026 3.138 6.605 2.644 1.839-1.245 1.506-4.661 2.644-6.607 2.948.945 5.923-3.24 8.586-.661 3.212-2.514 3.735-7.717 5.945-11.229 2.536-.327 4.591-1.138 5.285-3.304.488-2.251-2.434-1.09-2.642-2.642-.109-2.312.176-4.229 1.32-5.287-.467-1.733-3.1-1.303-3.964-2.642.748-7.645-.213-9.731-.66-17.175-4.379.023-4.31 4.497-9.249 3.964-1.504-3.479.285-8.812 5.287-7.928.115 2.98-4.096 1.631-3.304 5.285 3.715-1.029 5.482-7.124 11.229-3.963-2.573 5.034 2.632 6.782-.66 11.231.447 1.531 1.688 2.273 2.642 3.302.313 2.072-1.777 1.745-1.981 3.304 1.172.812 3.481.48 3.965 1.98.249 2.893-1.89 3.397-1.983 5.945 5.423.974 1.466 5.004 1.322 9.249-1.552.212-2.479 1.044-4.624.66-1.76 4.407-3.969 8.363-5.285 13.214-2.494.291-3.103-1.303-4.624-1.983-2.406.457-3.047 2.68-5.945 2.644.217 2.42-.734 3.669-1.323 5.285-3.327.467-4.538-1.186-6.605-1.983-3.16 2.858-5.418 3.282-9.909 3.966-.004-1.979-1.188-2.777-2.642-3.304-2.877 2.494-1.592 5.738-2.644 9.249 3.212.568 3.394-1.891 6.607-1.322v4.624c3.041-.568 7.213-3.727 9.908-.66-3.099 5.49-7.007 10.169-7.927 17.836-4.216.251-4.507-3.42-7.929-3.962-3.403.559-2.56 5.366-5.944 5.944-1.231-2.07-1.681-4.928-3.303-6.607-1.785.2-1.185 2.781-2.643 3.304-2.861.22-1.626-3.658-4.625-3.304-1.169 1.915-1.107 5.06-1.98 7.269-3.296.448-3.131 4.356-5.945 5.284-2.614-.031-3.831-1.454-5.945-1.982-1.886 1.198-2.131 4.038-2.644 6.607-3.185.102-3.324-2.843-7.267-1.983-.894.65-1.32 1.764-1.982 2.644-.335 3.198 3.028 2.699 1.982 6.605-2.635-1.328-5.28-2.647-5.284-6.605-3.596-.732-3.483 2.244-6.607 1.981 1.055-6.121-4.723-5.407-5.285-9.908-2.58.282-1.813 3.911-5.285 3.303.252-2.232-1.145-2.819-1.98-3.965-2.693-.49-2.274 2.131-5.285 1.321.379-3.681-.302-6.305-1.983-7.927l-3.962.66c-.637-2.809 3.394-6.154 3.962-9.909 2.398-.637.557 2.969 2.644 2.644 4.072-.333 2.215-6.596 2.642-10.569-3.384-.082-2.801 3.804-5.285 4.624-2.809-.054-1.368-4.357-3.962-4.624-3.216 1.849-2.382 7.748-6.607 8.586-.916-.404-.098-2.541-1.321-2.642-3.423-.562-2.535 3.19-4.624 3.963-2.19-.89-1.153-5.012-3.302-5.945-2.861-.583-4.206 4.233-5.947 6.607-1.131 1.544-2.44 2.406-2.642 5.285-.142 2.024 1.274 3.895 1.32 5.945.242 10.885-.183 24.519 0 36.333.068 4.354.786 9.088 1.983 11.891 1.85 4.342 7.98 5.438 6.605 10.57-15.974-6.395-10.208-37.501-11.229-56.813-.136-2.543-1.593-5.609-1.323-7.926.698-5.983 7.137-9.551 7.929-14.534.846-3.009-2.316-6.152.66-7.266 2.634-.432 1.894 2.51 1.983 4.624.884 2.857 3.348 4.138 3.962 7.266 2.314.112 2.081-2.324 3.304-3.304 1.688.074 2.312 1.212 3.304 1.983 2.54-1.644 2.328-6.039 5.945-6.607 2.911-.487 2.705 2.139 4.624 2.644 1.74-.461 1.396-3.007 3.303-3.304 3.243.63 1.785 3.401 5.944 1.98-1.412 6.517-2.026 13.83-9.909 13.874.088 3.878 4.12 3.809 3.965 7.928 3.513-.429 5.338.826 6.605 2.642 1.718-.263 1.992-1.971 3.964-1.98 3.273.469 2.691 4.794 6.607 4.624-.088 1.628-.102 3.183.66 3.964 1.903.078 4.323-.362 5.285.659 1.151-1.71 2.653-3.068 4.624-3.963 2.075.348 3.686 1.159 5.285 1.983 1.771-.872 1.098-4.189 1.981-5.947 2.458-1.073 4.896 1.054 7.926 1.322 2.185-.682 2.229-3.499 2.644-5.946h3.304c-.13-2.552-.023-4.868.661-6.606 3.719.026 5.613 3.975 7.926 0 2.787.738 4.252 2.798 5.285 5.285 2.472-.395 3.415-2.311 5.284-3.304z"/><path d="M145.328.368c.513.588.71 1.492.66 2.643 3.017.593 3.745-1.101 5.945-1.321.734 1.249.844 3.12 1.323 4.624 2.089.108 2.208-1.756 4.625-1.321 1.099.882.219 3.743 1.321 4.625 4.098-.796 5.438 1.167 7.266 2.643 2.563-1.18 2.749-4.738 4.625-6.607.867.233 1.039 1.163 1.982 1.322 1.207-.996 1.555-2.85 2.642-3.964 3.126.839 4.92 3.007 6.605 5.285-.398 2.022-1.402 3.442-1.98 5.285 2.039.108 3.734-1.561 5.284 0-.217 1.544-.794 2.729-1.32 3.964.413 1.568 4.066-.103 4.625 1.321-.354 2.952-1.987 4.62-1.323 8.587 2.292.531 2.54-.983 4.625-.66.731 1.25.844 3.121 1.322 4.625 3.47-.712 4.838-3.528 5.945-6.605 1.381-.28 1.75.452 2.642.66.515-1.468 1.389-2.577 1.32-4.625 4.138.972 3.587.793 7.929 0-.315 2.297-.124 4.087 2.642 3.303l-.661 3.964c3.397-.567 3.929-3.999 4.625-7.267 2.296.128 2.508 2.336 4.624 2.643l-.66 3.963c.916 1.728 5.606-.321 6.605 1.322.571 2.634-.985 4.881 0 5.945 3.839.314 2.848-4.201 6.607-3.963 1.903 1.995-1.655 5.905 1.321 7.267l-3.964 6.605c-.14 2.123 2.355 1.608 3.304 2.643-.138 4.928-.874 9.256-2.644 12.552-2.077.316-2.582-.94-3.965-1.322-1.644.999-.825 4.459-1.98 5.946-3.607-1.547-5.454.071-6.605 2.643-1.899.137-3.355-.167-3.965-1.322-1.346.194-1.294 1.788-2.643 1.982 2.308 2.097 4.391 4.419 4.624 8.588-3.902 2.628-7.086 2.099-8.587 6.606-2.661-.877-5.143-5.405-9.249-2.642 1.612 1.029 4.657.629 4.625 3.303 5.894-.83 6.739 3.39 9.909 5.285 5.433-.107 5.367-8.373 10.57-6.605-.822-6.328 1.502-9.507 2.641-13.874 2.783.3 3.168 2.999 4.625 4.625 1.697-.064.945-2.579 2.644-2.643 2.394-.632.67 2.852 1.98 3.303 3.462-.282 2.833-4.654 7.269-3.963.375 4.127-2.115 8.155 1.32 9.909 5.293-.652 4.074-7.816 8.587-9.249v3.303c2.154-1.149 3.308-3.3 5.947-3.963 1.438 1.381-.331 1.885 0 3.963 2.777.136 2.772-2.51 5.284-2.642-1.146 5.506-.045 7.303-1.982 13.212 2.164-.037 2.525-1.878 5.285-1.321-.729 3.37 1.942 3.342 3.304 4.625-1.222 4.064-2.666 7.905-5.285 10.57.435 1.978 1.412-.632 2.642 0-.367 4.077-1.708 5.145 0 8.588 4.991.368 5.646-3.604 8.589-5.285 2.266 2.156 1.889 1.56 5.284.661.461 3.544-3.27 2.896-3.304 5.946.57 2.887 3.439-.355 4.625 1.32.682 7.509-2.095 11.558-3.963 16.515-5.845-.779-5.234 4.896-7.268 7.928-1.934-.49-3.246-1.598-4.624-2.643-2.189.012-.671 3.733-1.981 4.624-3.818.296-3.294-3.752-6.605-3.963-1.687.736.263 5.109-1.323 5.945 2.232 1.292 5.231 1.817 6.607 3.964 4.549-3.587 13.064-3.71 14.532-11.891 3.619 2.54 4.61-.828 7.269-2.643 2.474.516.425 3.195 0 4.625l4.624-2.643c1.528 1.468-.226 2.576 0 4.625 4.941.757 5.951-2.416 10.569-1.982-.393 2.471-2.31 3.416-3.304 5.285-1.521.203-.733-1.908-1.98-1.982-4.252 3.475-8.346-1.156-11.893 0-.513-.587-.71-1.491-.66-2.643-7.404 1.624-7.351 10.707-13.872 13.212-.555-.767-.872-1.771-.66-3.303-1.886 1.198-2.931 3.234-6.607 2.643-.072-1.645-1.237-2.045 0-3.303-4.449-2.229-10.018 1.725-13.211-3.304-.296-2.938.469-4.815 1.32-6.605 3.288-.866 2.811 2.034 5.285 1.982 1.701-.94.989-4.296 3.304-4.625 2.743.119 3.214 2.51 4.622 3.963 1.219-1.425 2.033-3.253 3.304-4.624 1.654.548 2.594 1.809 4.625 1.981 2.642-1.982 1.975-7.273 6.605-7.266 1.235-2.95 1.813-6.556 2.644-9.909-.57-1.854-3.439-1.406-4.625-2.643-.211-1.532.106-2.537.661-3.304-.164-.717-1.313-.448-1.321-1.321-3.114.409-4.05 2.997-7.268 3.303-4.864-.2-2.06-8.071-5.945-9.248.939-3.905 4.479-5.211 5.285-9.249-.017-2.406-3.439-1.404-2.642-4.625-1.513.421-3.986 1.311-5.285 0-.551-3.632 1.654-4.512 1.32-7.927-.014-2.848-4.959-.766-4.624-3.963-7.061-.077-9.331 11.647-15.854 5.945-.066-2.708-.13-5.415.66-7.267-2.5.803-3.986 2.621-5.945 3.964-1.517-1.127-4.262-1.023-5.945-1.982-2.282 2.562-3.553 6.137-3.964 10.57-6.617-.012-6.691 6.52-13.874 5.945-2.896-2.167-3.864-6.264-9.909-5.285-.295-2.566-2.931-2.793-5.285-3.303-1.907.954-3.1 2.625-4.622 3.964l-3.964-1.982c-2.351.513-1.241 4.484-3.965 4.624-2.464-.179-.867-4.417-2.641-5.285-1.7.504-2.802 1.605-3.304 3.304-3.322-3.917-11.437-3.373-11.23 3.303-1.644.102-2.045-1.037-3.304-1.321-2.47 1.402-.608 4.576-.66 7.267-1.381 1.44-1.886-.33-3.964 0-3.456 2.158.618 8.019-.661 9.91-3.723-1.643-7.116-4.173-8.588 1.322 1.973 1.991 5.536 2.392 4.625 7.266.995 1.208 2.851 1.554 3.964 2.644.439 3.08-1.041 4.243-1.321 6.605 1.535 1.277 3.509-2.626 5.946-2.643 3.331 1.619.235 5.565 1.98 8.588 2.508-1.016 2.779-4.269 5.285-5.285 5.004.186.273 6.454 3.964 7.267 3.481-.043 3.506-3.54 6.605-3.963 1.924 1.932-.249 4.088 1.983 5.945 4.208-.856 3.866-6.261 9.249-5.945.555.766.87 1.771.66 3.303 2.52-.028 4.202-3.243 6.605-1.322.476 1.708-1.165.865-1.98 1.322-2.396 1.338-4.118 4.073-7.269 4.625-.652-2.586 1.461-3.835 0-5.285-2.348.954-3.93 2.676-5.284 4.624 1.604 11.035-3.441 20.647-9.249 26.424 1.833-7.35 13.437-19.501 3.964-25.763v-3.964c-3.554-.251-3.192 3.414-6.605 3.303-1.921-1.162-3.12-3.045-2.644-6.605-3.308-.667-2.324 2.959-4.625 3.303.595 4.352-1.807 8.542-2.511 15.377-.597 5.762-.734 10.277-1.451 15.672-5.133-6.085-1.245-22.917 2.642-29.066-3.053-2.001-2.366-4.82-1.981-9.249-3.02.089-4.817 4.093-7.268 2.643-1.428-2.074 1.396-4.464 1.323-7.267-.014-1.968-3.116-.847-3.964-1.981-.08-1.903.361-4.325-.66-5.285-.604-1.796-1.229 1.76-3.304.66-2.005-4.386.68-9.318 2.644-11.891h3.302c2.051-5.438 5.771-9.203 7.268-15.193 1.54-.202 2.845-1.411 3.302.66 1.327-2.197 2.594-4.455 4.625-5.945 3.361-.059 5.729.876 7.268 2.642 2.322-.099 1.586-3.257 4.625-2.642 1.863-.103 1.653 1.868 2.641 2.642 2.57-.547 4.078-4.493 6.606-1.321 4.608-2.985 10.529-9.743 16.515-3.964 2.162-.921 2.093-4.074 5.947-3.303 1.065-6.35-7.143-3.428-5.947-9.909 4.683.835 6.043-4.462 10.571-1.321 1.482-.278.019-3.505 1.321-3.964 1.628-.087 3.182-.1 3.964.661 1.726-.917 1.871-3.414 2.642-5.285 1.532-.211 2.535.105 3.304.66 1.923-.938 1.812-3.912 2.642-5.945-.664-2.573-2.274-.103-4.625-.661-1.267-6.648 5.509-8.451 3.304-13.873-1.546 1.405-5.253 1.984-6.605 0-.323-2.085 1.189-2.333.661-4.625-1.828-.512-8.074.995-7.269-3.964-3.08.444-3.228 3.819-7.266 3.304-.854-2.45-2.115-4.491-3.964-5.945-4.139.045-3.869 4.5-5.945 6.605-5.943-.878-6.119 4.011-9.91 5.285-1.141-1.5-1.594-3.691-1.32-6.605-1.557-.015-1.945 1.137-3.964.661-1.974-2.046-1.515-7.056 0-9.249-1.253-2.203-4.229 1.145-5.285-.661-.102-1.644 1.037-2.045 1.32-3.303-.88-1.101-2.937-1.026-3.962-1.982-.22-2.42.732-3.671 1.321-5.285.279-2.26-1.979-1.985-2.644-3.303-2.802 3.584-8.317 4.454-10.57 8.588-3.152-1.642-3.966-5.474-9.247-3.303-.381-1.382-1.638-1.887-1.323-3.964-2.081-.319-1.495 2.028-3.964 1.322-.379-1.382-1.636-1.885-1.321-3.964-2.958 2.388-6.462.115-7.926-2.642-1.823 1.92-1.307 6.182-5.285 5.945 1.125 6.411-4.008 6.563-7.268 8.589 1.287 3.813 4.375 4.534 7.928 4.624-1.854 3.874-5.724 5.728-6.605 10.571.555 3.847 7.509 1.298 7.926 5.285 1.361-.182.623-2.461 1.981-2.643 3.43.531 1.175 3.969 0 5.285-5.556-1.49-12.702-1.39-12.551-8.589-.998-.522-6.041.541-7.266 1.982-6.518-2.788-5.105 6.33-11.232 5.945-2.338-2.393.317-4.107.663-7.266-.882-1.321-4.319-.087-3.304-3.304-2.468-.707-1.883 1.641-3.964 1.322-1.792-.852-1.65-3.636-3.302-4.625-2.576-.152-3.426 1.42-5.285 1.982-2.071.309-1.863-1.661-2.643-2.643-1.488 2.093-3.585 1.494-5.285 2.643-3.571 2.411-4.559 8.178-11.23 7.267-2.757.767-3.637 3.409-5.285 5.285 3 2.62 7.312 9.164 1.981 12.551.206.897 1.654.549 2.644.661-.705 5.174 3.473 6.483 2.641 9.91 2.759.558 3.121-1.285 5.285-1.322.666 1.316 1.143 2.822 2.643 3.303-.708 1.495-1.5 2.906-2.643 3.964.892 3.198 5.245-.708 5.945 1.982 1.863-.12.824-3.14 3.304-2.643.79 1.412 3.583.82 2.643 3.963 4.034-1.943 6.167-1.729 11.23-2.643-.527 4.65-4.95 7.038-2.644 12.552-1.217 1.866-3.192 2.973-4.625 4.625-2.318.118-2.172-2.231-3.962-2.643-2.753 1.211-6.829 1.1-5.947 5.945-2.542-.12-2.989 1.854-3.962 3.303-2.394-2.451-7.725-1.964-11.232-3.303-.098-1.641.343-2.741 1.323-3.303-.279-1.484-3.505-.018-3.964-1.322.283-1.258 1.422-1.659 1.321-3.303-.85-1.847-1.367 2.081-3.302 1.321-1.239-1.258-.074-1.659 0-3.303-2.717.135-2.234 2.836-3.964 3.303-.86.233-1.219-1.871-2.643-1.981-1.754-.136-1.191 2.532-3.302 1.321.27-1.591-1.207-1.436-.66-3.303l-4.625 1.321c-1.239-1.259-.074-1.66 0-3.304-1.383-1.439-1.887.33-3.964 0-.754-6.104-4.114-2.284-7.929-1.321-1.227-1.168.288-1.929.661-3.304-3.15.14-2.931 1.684-5.945.662.694 4.421-4.79 6.643-6.605 10.569-3.661-.92-4.295-.241-5.285 2.643-1.688-.294-3.036-.927-3.964-1.982-2.007.635-1.438 3.846-2.642 5.285-2.371.389-3.196-.768-4.625-1.321 1.004 3.745.324 4.921-1.982 6.606.369 2.006 2.456 4.479.66 6.606-3.113.25-4.143-1.583-5.945-2.643-.588.292-1.182.58-1.322 1.321.088 3.151 1.499.879 3.964 1.322-.099 1.64.341 2.741 1.321 3.303l-2.643 2.643c.35.531.689 1.072.662 1.982l3.963-2.642c3.672 2.791 2.125 7.176 1.322 11.89-1.865 1.044-2.806-.76-4.625.661l1.982 5.285c-.634 1.128-2.076 1.448-3.304 1.982.9 2.303 1.158 2.736 3.964 1.982-.508 3.15.933 4.352 2.642 5.285-1.022 1.353-1.022 5.914 0 7.267l3.304-1.322c1.292 1.235.203 2.419 0 3.964 6.069 1.534 6.013-6.14 9.907-4.625 1.062-1.141.321-4.083 1.983-4.625 2.767-.565 1.446 2.958 2.642 3.964 2.496.562 3.102-2.193 4.625-.66-.564 4.66-.834 7.519 1.323 10.569 2.859.218 1.626-3.659 4.623-3.304.774.987.822 2.703 1.983 3.304 2.474.052.167-4.678 2.642-4.624 2.25-.489 1.089 2.434 2.644 2.644 2.659-2.188 1.185-8.505 2.641-11.893 3.388 1.108 3.22 1.108 6.607 0 .477 2.019-.676 2.408-.66 3.964.561 1.938 1.662-.86 3.302 0 .268 3.352-1.566 4.599-2.642 6.605 1.203.18 4.9 1.048 7.266 1.981 1.285-1.357 1.839-3.443 2.644-5.283l3.302 1.32c.954-.808 1.001-2.521 1.983-3.303 2.21 2.583 5.746 3.695 9.247 3.303.453 3.314-1.588 4.136-3.962 4.625.098 5.383-3.487 7.082-3.964 11.891-1.38.279-1.75-.453-2.644-.66-2.92 1.263-.983 7.383-3.962 8.588-2.48.497-1.44-2.525-3.304-2.643l-1.321 3.301c-2.701-.159-2.287-3.439-3.304-5.282-3.288 1.775-3.653-2.797-5.285-4.625-1.694.068-1.061 2.462-1.981 3.304l-3.304-1.322c2.26 6.336-2.691 8.513-4.625 12.551-3.878-1.556-5.538 2.087-7.926-1.32-.894.65-1.321 1.764-1.983 2.643l-3.964-1.322c-.716 1.45-2.909 1.137-3.302 2.644-.293 1.119 5.003 6.021-1.323 5.945-1.291 5.695 2.398 6.41 1.983 11.229 1.305.898 3.074 1.331 3.304 3.305 2.334-.308 2.322-2.961 5.285-2.642 1.488 1.428-.549 2.252 0 4.624 3.004-.957 4.541-3.388 8.586-3.304-.465 3.858-.465 3.831 1.983 5.285-.347 2.077-1.159 3.685-1.983 5.284l1.983 2.642c3.066-.454 3.036-4.008 7.266-3.304.03 3.996-2.444 5.484-2.643 9.249 1.36.886 3.419-3.162 5.287-3.962 1.506.916.246 4.597.66 6.605 4.431.469 4.723-3.204 7.266-4.624 2.005-.242 1.371 2.152 1.981 3.304 3.422-.321 3.29-4.2 5.285-5.947 2.132-.591.93 2.154 1.983 2.644 1.356-.186 1.319-1.766 1.981-2.644 1.654-.112 2.069 1.018 2.644 1.982 4.096-1.408.391-10.617 5.945-10.569.048 2.813 1.105 4.62.66 7.929 2.759.557 3.121-1.285 5.285-1.323 1.042 1.381.457 4.388 1.321 5.947-.992 1.429-4.218.627-3.302 3.962-4.896-.71-5.75 2.618-5.285 7.267 2.091 1.301 4.914-1.077 3.962 3.966 3.339.475 2.38-3.348 5.285-3.304 1.235 1.173-.537 1.678 0 3.962 2.995.132 2.785-2.938 4.625-3.962 2.009.191.912 3.493 2.644 3.962 2.861.22 1.626-3.659 4.625-3.302.299 3.091 3.719.118 4.625 3.302 2.13-1.611 3.3-4.186 3.962-7.266 2.686 1.28 5.012 2.917 5.285 6.607 5.648.58 2.946-7.187 4.625-10.571 2.071-.31 1.863 1.661 2.643 2.643 2.446-2.306 3.715-.446 5.285 1.321 2.653.231-.345-5.188 3.302-3.964-.268-6.777-7.068-7.025-11.891-9.247.547-1.868-.932-1.712-.66-3.305 2.951-1.013 6.063-1.863 9.909-1.982 1.909-.954 1.034-4.692 3.964-4.625.76.782.746 2.337.66 3.967 3.248-.717 3.691-4.238 5.285-6.607 2.123-.141 1.608 2.355 2.641 3.304 1.387-1.918 2.54-4.068 5.945-3.965 2.344-.299 1.736-3.549 3.964-3.964 2.534-.12.239.541.66 1.983 7.254-1.534 3.774-9.808 7.929-14.534-.013-2.19-3.733-.672-4.625-1.981.028-3.08 2.548-6.364.661-9.249-2.564.076-2.045 3.24-4.625 3.302-1.451-1.933 1.622-3.758 1.323-6.605-.164-.718-1.315-.446-1.323-1.32-4.22.622-5.602 4.086-7.926 6.605-2.464.702-1.045-2.478-3.304-1.981-4.08 1.205-3.485 7.083-7.926 7.927-.285-4.614-4.313-6.988-.662-10.569-.096-1.445-1.664-1.419-3.302-1.321-.146-2.129 1.169-2.795.66-5.285-1.323-1.492-1.977 3.271-5.285 1.981-.016-1.557 1.137-1.945.66-3.964-6.047-.763-5.49 5.079-10.57 5.286 2.302-4.083 5.237-7.537 10.57-8.588.599 1.163 2.432 1.091 2.644 2.641 2.081.319 1.494-2.026 3.962-1.32 1.209 1.873-.048 6.215 2.644 6.605.401 4.557-2.753 6.695.661 9.249 2.534-.989 3.27-3.774 5.285-5.284 2.085-.323 2.332 1.19 4.625.66 1.953-2.45 3.717-5.092 8.589-4.625 1.648 2.314 3.154 4.772 5.945 5.945.114 3.504.427 3.372 0 6.607 3.743.88 2.554 6.693 4.625 9.249-3.681 6.01-5.96 13.419-14.534 14.532 8.299 12.05-4.375 32.118 3.302 45.583-1.698 5.841 1.953 14.141 1.983 20.479.038 8.357-4.407 12.69-7.928 19.159-2.077-.332-2.582 1.439-3.962 0 2.424-6.425 7.637-8.204 8.586-13.874 2.037-12.14-5.227-28.202-3.964-40.958.698-7.049 5.119-18.919.66-26.425-3.377-.936-7.16 2.433-8.586-.66-2.785 5.714-8.667 4.266-15.194 5.945 4.643 2.845 10.003 4.972 10.57 11.891-1.855 2.33-2.997 5.37-6.606 5.945-2.071.311-1.863-1.66-2.643-2.642l-3.302 1.32c.94 6.227-3.02 7.55-7.268 8.589-.553-1.429-1.71-2.252-1.321-4.624-4.69-.729-4.253 3.673-7.268 4.624-3.918-.772-5.857-2.753-8.586 0-2.075.313-2.699-.824-3.304-1.981l-3.964 2.642c-2.508-1.364-2.831-2.354-6.605-1.32-.577-2.949-3.396-3.651-5.285-5.285-.762-8.692 5.79-10.064 8.589-15.194-3.807 1.067-4.621.022-7.268-1.322-1.075 1.349-1.386 3.459-2.641 4.624-4.118-1.516-5.499 4.633-7.929.663-1.793.846-1.901 3.383-3.962 3.962-2.075.313-1.746-1.778-3.304-1.981-2.316.769-3.691 2.476-5.945 3.302-1.931-.71-3.459-1.823-3.304-4.622-1.953.688-1.941 3.344-5.285 2.642-1.552-3.125 1.379-6.808 1.981-9.91-2.849.013-2.434 3.292-5.285 3.304-2.569-.293-2.703-3.021-3.962-4.624-.03-2.011 1.395-2.569 1.981-3.962-1.203.025-3.757-1.161-4.625-3.304-2.406.454-3.046 2.677-5.945 2.641v-4.624c-2.975.107-2.308 3.858-5.285 3.964-.868-1.869 1.422-6.019-3.964-4.624.273-4.206.964-5.668-1.981-7.267 1.343-3.403-.034-5.492-.661-8.588-.592-2.133 2.155-.928 2.642-1.981-2.993-5.225.687-7.045 3.964-9.249 2.284-.522 2.789.734 3.964 1.32 2.743-3.042 8.295-3.654 13.211-3.302 2.809-2.29-.597-6.73 1.323-9.911 3.776.918 4.209-1.512 6.605-1.981 4.04 3.007 8.244 5.852 13.211 7.929 1.887-1.857 1.407-6.083 3.304-7.929 1.38-.279 1.75.453 2.643.661.862-3.101 1.644-6.282 3.302-8.587-.078-1.903-2.817-1.147-2.641-3.304-3.585 1.48-7.083 3.046-8.589 6.607-3.478-1.852-6.6-.312-9.909-2.644-.191-2.835.919-4.365 1.983-5.945-2.109-.317-2.631-2.214-3.964-3.304-2.414 2.211-.836 8.413-3.304 10.57-5.175-1.433-4.828 2.659-7.926 3.304-.283-1.261-1.887-1.195-1.323-3.304l-2.641 2.643c-5.177-.109-4.747-5.825-8.589-7.268.419-2.468 1.042-3.783-1.321-4.624-2.839 1.565-5.526 3.281-6.605 6.605-2.883-.601-4.257-2.143-5.947.662-3.302.22-2.798-3.367-5.944-3.304-.602-4.936.678-7.693-1.322-11.23-2.174.028-3.289 1.115-5.945.661-1.339-4.199.248-7.263-1.322-11.23 2.739-.757 2.575 1.39 4.625 1.32 1.594-1.213-.906-3.894 0-6.605.782-.98 2.496-1.028 3.303-1.982-.869-4.196-6.604-3.524-5.285-9.909-2.039-.107-3.733 1.561-5.285 0 .309-4.314 3.599-5.65 4.625-9.248 2.416-.435 2.535 1.429 4.625 1.321 1.047-1.618-3.336-5.121-1.322-7.928 4.863 1.08 1.628-1.855 3.304-3.963 2.925-.723 3.285 1.118 5.285 1.321 1.858-1.003 1.443-4.282 3.303-5.285 1.532-.21 2.536.106 3.304.661 1.099-.881 1.025-2.938 1.981-3.963l3.304 2.643c1.115-2.408 1.776-5.271 5.285-5.285-.353-2.07-2.721-2.124-1.983-5.285.589-.293 1.183-.581 1.323-1.322 3.896.535 6.931 1.851 9.908 0 4.926 1.058 10.789.997 12.553 6.606 3.641.922 5.576 1.144 8.588 1.321 1.105.066 1.259.279 1.321 1.322 2.967-1.839 6.632-1.154 9.91 0-.87 4.614 4.716 2.77 3.302 7.927 1.371 1.493 3.663 2.063 5.947 2.643 1.546-2.638 4.742-3.624 5.283-7.267 3.587-1.128 6.081-1.445 9.249 0 1.5-.702.251-4.153.66-5.945-1.5-.73-6.396-.173-7.266-3.304-3.511 3.044-5.331-.033-9.91 1.322-1.662-2.015-3.399-3.131-1.32-5.945-2.528-2.318-6.32-3.37-9.249-5.285.77-4.733-.613-7.316-3.304-8.589-.899-4.204 2.606-4.002 2.644-7.267-1.018-1.846-1.852-3.873-3.964-4.624-1.169-5.795 4.04-5.209 3.304-10.57h8.586c1.732-.88 1.263-2.933.663-4.625 1.913-2.49 6.404-2.404 7.266-5.946 1.742-.201 1.704 1.379 1.981 2.644 1.907-.296 1.562-2.843 3.304-3.304 2.587-.385 1.686 2.717 3.304 3.304 2.849-.013 2.434-3.292 5.285-3.304 2.825.257 3.146 3.02 3.302 5.945 2.991-.093 3.226-2.938 6.608-2.641-1.265 4.003-.17 4.765 3.302 5.285-.1 2.101-1.497 2.906-1.321 5.285 2.288.82 3.882-7.818 8.589-4.624 1.702-.721 3.174-1.67 3.962-3.304 2.366 1.748 5.06 1.02 6.607-1.321.11-5.176-4.892-5.238-7.268-7.927 1.442-2.742 5.604-2.764 6.607-5.945 1.59-.271 1.435 1.206 3.302.66 1.127-4.43-2.971-3.636-2.642-7.267 1.993-1.799 3.937.458 5.945.661 2.516-.125.405-4.88 1.981-5.945 1.06-1.088 2.753.579 5.275-.01zm113.625 138.068c-1.846-1.236-2.741-3.424-5.285-3.963-2.479 2.806 3.275 5.728 5.285 3.963z"/></g><path d="M189.274 155.01c-2.611.908.817-1.333 1.84-.627 3.27-1.186 6.756-1.474 10.048-2.391 2.909-1.079 5.858-2.271 8.385-4.083 1.783-2.229 2.626-5.141 3.524-7.839-.171-1.851 2.365-6.603 3.989-3.879 1.575 2.451-2.126 6.163.316 7.794 3.647.512 5.316-4.218 9.054-3.938 2.365-2.007 6.93.168 4.146 3.042-1.588 2.007-6.297 2.135-5.689 5.349 1.24 2.678 2.416 5.469 4.636 7.51 1.626 2.258 1.894 5.184 3.168 7.649 1.472 2.002 3.925 3.784 6.511 3.791 3.021-1 4.157 4.2 2.722 5.892-2.473 1.587-6.431 1.133-8.103-1.447-.63-1.257-3.471-2.618-2.926-1.396-1.313 3.224-4.457 3.868-7.496 3.431-2.527-.387-4.224 1.295-5.066 3.356-3.167-.228-2.399-4.619.587-4.724 2.636-1.425 6.055-1.19 8.266-3.302 2.301-2.619-2.127-6.863-3.192-9.335-.979-3.149-3.197-4.558-6.615-5.603-3.888-1.809-6.007-.079-9.033 2.336-2.483 1.434-4.692 3.21-7.342 4.298-2.505 1.932-5.832 2.823-7.677 5.514-2.135 3.221-4.032 6.634-5.218 10.325-1.107 3.024-6.243 3.246-6.846-.224-.261-3.177-.903-6.155.671-9.11 1.357-4.041 3.603-7.726 5.897-11.294.421-.434.898-.821 1.442-1.092z" fill="#4d2d18"/><path d="M143.496 89.155c-.143-.088-.346-.114-.624-.114-.568 0-1.172.253-1.344.531-1.284 2.078-2.723-1.867-1.813-4.969.39-1.329.346-1.709-.25-1.938-1.032-.396-2.275-2.976-1.906-3.938.233-.607-.059-.781-1.219-.781-.492 0-1-.141-1.436-.348" fill="#4c622d"/><path style="text-indent:0;text-align:start;line-height:normal;text-transform:none;block-progression:tb;-inkscape-font-specification:Sans" d="M60.527 195.85c-1.304.151-2.65.796-3.875 1.844-.694.593-1.172.928-1.375 1.031-.203.103.09.065.156.094l-1.188 2.75c.744.324 1.708.182 2.375-.156.667-.339 1.255-.8 2-1.438.704-.602 1.398-.872 1.906-1-.051.25-.027.23-.125.563-.219.743-.535 1.66-.875 2.563-.367.975-.676 1.89-.875 2.625-.1.367-.172.694-.219 1-.023.153-.035.293-.031.5.004.207-.149.538.469 1.156.567.567 1.196.496 1.469.438.272-.059.423-.146.563-.219.279-.145.491-.303.75-.5.519-.393 1.12-.913 1.75-1.531.339-.333.507-.426.75-.625.037.385.094.696.094 1.313 0 1.246-.116 1.948.281 2.875.199.463.702.971 1.188 1.156.486.185.867.156 1.188.156.989 0 1.573-.401 2.281-.875.708-.474 1.449-1.091 2.188-1.844.506-.516 1.01-.956 1.438-1.313l.094.219c.222.672.447 1.273 1 1.813.553.54 1.725.729 2.438.406 1.424-.646 1.992-1.816 3.063-3.656.598-1.028 1.249-1.678 1.5-1.844.125-.083.107.016-.25-.031-.357-.048-.753-.507-.781-.594l2.875-.906c-.204-.63-.907-1.365-1.688-1.469-.78-.104-1.349.193-1.813.5-.926.614-1.685 1.55-2.438 2.844-.697 1.198-.927 1.405-1.188 1.719-.179-.478-.367-.923-.625-1.313-.156-.236-.317-.468-.563-.688-.246-.22-.596-.531-1.281-.531-.849 0-.951.239-1.219.406-.268.167-.524.362-.813.594-.577.463-1.255 1.086-1.906 1.75-.619.631-1.208 1.148-1.688 1.469l-.25.156c-.023-.267-.031-.284-.031-1 0-1.036-.039-1.858-.188-2.594-.149-.736-.424-1.576-1.344-2.063-.92-.486-1.865-.16-2.5.219-.198.118-.4.354-.594.5.236-.671.486-1.359.656-1.938.245-.829.438-1.281.438-2.094 0-.793-.509-1.692-1.188-2.094-.679-.401-1.348-.419-2-.344z" color="#000" fill="#384525" overflow="visible" enable-background="accumulate" font-family="Sans"/><path style="text-indent:0;text-align:start;line-height:normal;text-transform:none;block-progression:tb;-inkscape-font-specification:Sans" d="M175.09 202.163c-3.172 6.461-8.358 12.529-7.563 20.563v.094c-.925 9.219-.154 18.516 1.906 27.5v.031c-1.295 7.102 3.039 12.919 4.969 19.031.13.731-.032 2.158.094 3.469.064.667.215 1.331.594 1.875.378.544 1.014.937 1.844 1l.063-1c-.593-.045-.871-.242-1.094-.563-.223-.321-.351-.826-.406-1.406-.111-1.16.086-2.567-.125-3.625v-.062c-2.023-6.41-6.27-12.041-4.938-18.75v-.188c-2.051-8.931-2.866-18.176-1.938-27.313l.031-.063-.031-.031c-.796-7.6 4.236-13.477 7.5-20.125l-.906-.438z" color="#000" fill="#2e2413" overflow="visible" enable-background="accumulate" font-family="Sans"/><path style="text-indent:0;text-align:start;line-height:normal;text-transform:none;block-progression:tb;-inkscape-font-specification:Sans" d="M158.246 214.413c-.46 6.581-2.434 13.411-1.156 20.219v.031l.031.031c5.105 15.107 5.335 31.575 2.125 47.156l1 .219c3.236-15.705 2.994-32.336-2.156-47.625-1.221-6.502.686-13.211 1.156-19.938l-1-.094z" color="#000" fill="#2e2413" overflow="visible" enable-background="accumulate" font-family="Sans"/><path style="text-indent:0;text-align:start;line-height:normal;text-transform:none;block-progression:tb;-inkscape-font-specification:Sans" d="M170.246 179.194c-.207 4.515-2.156 8.769-3.906 13.156-1.75 4.387-3.305 8.924-2.594 13.938l1-.156c-.671-4.728.793-9.05 2.531-13.406 1.738-4.357 3.75-8.731 3.969-13.5l-1-.031z" color="#000" fill="#2e2413" overflow="visible" enable-background="accumulate" font-family="Sans"/><path style="text-indent:0;text-align:start;line-height:normal;text-transform:none;block-progression:tb;-inkscape-font-specification:Sans" d="M176.246 169.725c-.043 10.171 2.154 20.933-3.719 29.719l-.031.031v.031c-1.268 2.462-2.632 4.9-3.719 7.5l.938.406c1.054-2.521 2.354-4.941 3.625-7.406l.031-.031c6.114-9.185 3.833-20.243 3.875-30.25h-1z" color="#000" fill="#2e2413" overflow="visible" enable-background="accumulate" font-family="Sans"/><path style="text-indent:0;text-align:start;line-height:normal;text-transform:none;block-progression:tb;-inkscape-font-specification:Sans" d="M167.277 202.069c-1.398 5.214-3.039 10.355-4.813 15.375v.062c-1.143 5.312-1.641 10.652-1.219 16.156v.125c-.525 4.629.763 8.825.438 13.094v.062c.292 4.644.668 9.191 2.094 13.719v.031c-.235 4.986.823 9.592 1.563 14.531.263 2.056.444 2.874.344 3.406-.1.533-.505 1.053-1.594 2.531l.813.594c1.079-1.464 1.619-2.076 1.781-2.938.162-.862-.085-1.694-.344-3.719-.748-4.996-1.795-9.58-1.563-14.406l.031-.094-.031-.063c-1.416-4.418-1.8-8.929-2.094-13.594v-.063c.33-4.532-.968-8.7-.438-13.094v-.094c-.431-5.438.052-10.692 1.188-15.969 1.772-5.021 3.382-10.155 4.781-15.375l-.938-.281z" color="#000" fill="#2e2413" overflow="visible" enable-background="accumulate" font-family="Sans"/><path style="text-indent:0;text-align:start;line-height:normal;text-transform:none;block-progression:tb;-inkscape-font-specification:Sans" d="M130.09 145.694c-2.487 3.647-6.961 7.071-11.719 9.594-4.758 2.522-9.813 4.143-13.375 4.188v1c3.843-.048 8.983-1.704 13.844-4.281 4.861-2.577 9.429-6.075 12.063-9.938l-.813-.563z" color="#000" fill="#6d3d20" overflow="visible" enable-background="accumulate" font-family="Sans"/><path style="text-indent:0;text-align:start;line-height:normal;text-transform:none;block-progression:tb;-inkscape-font-specification:Sans" d="M219.496 146.788l-.406.219-.031.031c-3.928 2.9-8.259 5.191-12.594 7.531l-.031.031-.031.031c-2.537 2.001-5.352 3.604-8.281 5.031l-.031.031c-2.99 1.706-4.763 4.393-6.313 7.188-1.549 2.795-2.89 5.695-4.938 7.938l.75.688c2.189-2.397 3.538-5.375 5.063-8.125 1.517-2.736 3.187-5.246 5.906-6.813l.031-.031c2.93-1.43 5.761-3.036 8.344-5.063 4.31-2.326 8.664-4.655 12.656-7.594l.063-.031.344-.188-.5-.875z" color="#000" fill="#331f11" overflow="visible" enable-background="accumulate" font-family="Sans"/></g></svg>