<svg xmlns="http://www.w3.org/2000/svg" width="391.609" height="400.769" viewBox="0 0 391.609 400.769"><path fill="#A07024" stroke="#E8C07A" stroke-width=".567" d="M685.453 263.957" transform="matrix(1.613 0 0 1.927 -879.126 -280.166)"/><path fill="#7C4D27" d="M106.088 399.653s100.693-75.18 62.583-121.937c0 0-15.238-12.938-26.097-44.271 0 0-12.16-21.912-22.201-30.312-7.317-6.128-11.664-13.74-11.036-12.35.629 1.391-17.806 6.812-30.058-6.209-12.249-13.015-26.131-18.266-30.529-27.982-4.395-9.722-.197-9.132-.197-9.132l4.187-.119s-.418 8.456 15.961 18.551l17.743 17.784s-11.073-13.755-3.97-44.882c0 0-6.817-38.478 13.744-28.495l.706 4.902s-9.691-5.355-11.27 4.525c0 0 .195 9.13.269 12.647.081 3.509-5.129 39.517 6.944 44.099 12.067 4.59 26.435 4.893 37.599 22.856l11.157 17.977 3.665 3.418c1.857 2.754 6.196 9.67 6.196 9.67s34.615-31.89 5.037-43.724c0 0-15.962-18.549-7.968-36.339 7.984-17.794 13.144-28.477 5.844-33.904l-7.297-5.421 8.417 1.875s11.523 6.718-.539 30.248c0 0-10.183 26.986 6.234 39.186 16.427 12.208 11.21 20.081 11.21 20.081l11.983-27.04s8.573-18.509 2.11-40.829c-6.471-22.322 8.005-44.498 8.005-44.498s-9.155 19.214-5.081 41.602c4.078 22.388 10.07 22.924-3.932 66.894-14.012 43.968-1.578 65.414-1.578 65.414s26.282-57.66 38.927-26.375c0 0 24.819 40.793 11.683-12.978 0 0 1.266-24.629.605-27.431-.66-2.785-21.046-32.453-4.841-57.506l16.212-25.045s-30.749 44.423-11.067 69.191l2.436 2.037s12.809-16.516 26.353-26.727c13.541-10.221 10.393-45.277 10.393-45.277s13.423 39.702-14.838 60.857l-2.337 2.883s-21.774 16.765-13.72 57.315c0 0-.779 19.002 17.928-1.195 18.714-20.199 27.166-44.327 27.166-44.327s16.64-32.798 23.664-40.02c7.029-7.222 8.951-29.071 3.461-33.838-5.489-4.769-17.767-19.197-12.038-30.601l5.736-11.404s-11.622 15.784.042 29.52c11.673 13.743 20.661 14.198 8.678 41.244-11.978 27.03-19.469 40.6-19.469 40.6s39.322-8.115 40.906-18c1.579-9.882 2.92-31.011 2.92-31.011s4.352-19.798 11.426-24.914c7.068-5.114 14.502 6.623 11.657 13.04-2.858 6.403-8.791 8.675-8.791 8.675s13.846-23.581-3.284-13.267c0 0-9.188 17.827-7.536 38.866 1.648 21.051-12.612 25.658-26.879 30.275-14.256 4.604-33.394 32.547-33.394 32.547s-29.216 32.439-40.419 40.471c-11.188 8.041-35.294-27.142-47.308-1.507 0 0 10.041 21.513-2.107 68.245-12.152 46.732-15.019 52.434-10.455 69.877l-79.553 1.495z"/><path fill="#8F6746" d="M127.631 399.755s80.106-86.553 56.699-117.549c-23.416-30.992-15.653-59.313-15.653-59.313s4.471 40.646 15.509 52.992c11.043 12.354 13.707 24.933-4.192 82.362 0 0-7.289 22.702-4.545 38.796l-47.817 2.711zM192.216 146.283c2.658 3.471 22.429 18.297 16.675-7.968-5.757-26.28 8.363-24.97 8.363-24.97l5.892-1.364s-19.603-3.613-18.808 13.583c.786 17.198 7.515 31.489-14.377 13.574l2.255 7.149v-.004z"/><g fill="#E77126" stroke="#7E4B18"><path d="M12.898 174.35s15.486-2.266 13.004-9.228l-2.484-6.955 1.308-.63s-15.238-2.38-11.828 16.813zM24.615 157.49s-9.417 2.415-11.828 16.819"/></g><g fill="#E77126" stroke="#7E4B18"><path d="M.624 142.065s8.149 15.892 12.423 10.302l4.268-5.586 1.023 1.162s-4.513-17.551-17.714-5.877zM18.326 147.803s-5.747-9.232-17.716-5.877"/></g><g fill="#F29F1F" stroke="#5E3016"><path d="M14.474 157.223s13.936 8.375 15.106.933l1.163-7.432 1.378.339s-11.573-12.069-17.646 6.161zM32.051 150.954s-8.955-4.228-17.648 6.157"/></g><g fill="#E77126" stroke="#7E4B18"><path d="M10.763 125.217s8.15 15.896 12.423 10.306l4.27-5.588 1.023 1.162s-4.516-17.549-17.716-5.879zM28.462 130.961s-5.747-9.234-17.714-5.879"/></g><g fill="#FDE611" stroke="#7E4F19"><path d="M14.602 144.186s13.936 8.381 15.103.94l1.165-7.436 1.379.343s-11.575-12.073-17.646 6.153zM32.177 137.922s-8.959-4.224-17.648 6.161"/></g><g fill="#E77126" stroke="#7E4B18"><path d="M32.745 183.306s15.486-2.266 13.002-9.228l-2.484-6.958 1.308-.63s-15.236-2.374-11.827 16.817zM44.46 166.451s-9.413 2.415-11.825 16.815"/></g><g fill="#E77126" stroke="#7E4B18"><path d="M33.129 147.815s1.779 18.515 7.625 15.601l5.846-2.917.516 1.569s2.102-18.183-13.986-14.252zM47.149 161.936s-1.949-11.265-13.986-14.252"/></g><g fill="#F29F1F" stroke="#5E3016"><path d="M24.309 169.985s13.936 8.379 15.104.94l1.161-7.434 1.382.339s-11.577-12.069-17.648 6.155zM41.884 163.726s-8.955-4.23-17.648 6.155"/></g><g fill="#FDE611" stroke="#7E4F19"><path d="M38.374 155.897s15.488-2.264 13.004-9.228l-2.484-6.958 1.31-.628s-15.238-2.376-11.83 16.815zM50.093 139.041s-9.415 2.415-11.827 16.817"/></g><g fill="#F29F1F" stroke="#5E3016"><path d="M26.101 123.612s8.15 15.892 12.423 10.298l4.268-5.581 1.023 1.162s-4.513-17.547-17.714-5.879zM43.802 129.352s-5.747-9.232-17.716-5.877"/></g><g fill="#FDE611" stroke="#7E4F19"><path d="M38.763 119.76s1.779 18.517 7.628 15.603l5.842-2.917.518 1.567s2.103-18.183-13.988-14.252zM52.786 133.883s-1.95-11.269-13.988-14.256"/></g><g fill="#E77126" stroke="#7E4B18"><path d="M29.946 141.936s13.936 8.379 15.103.933l1.163-7.436 1.381.345s-11.575-12.071-17.646 6.159zM47.52 135.673s-8.955-4.23-17.646 6.155"/></g><g fill="#FDE611" stroke="#7E4F19"><path d="M40.405 177.828s13.94 8.379 15.104.937l1.165-7.434 1.382.343s-11.577-12.075-17.651 6.155zM57.982 171.563s-8.955-4.226-17.648 6.157"/></g><g fill="#E77126" stroke="#7E4B18"><path d="M57.308 149.434s15.488-2.266 13.002-9.226l-2.481-6.958 1.308-.63s-15.238-2.376-11.83 16.815zM69.026 132.576s-9.415 2.415-11.827 16.815"/></g><g fill="#E77126" stroke="#7E4B18"><path d="M45.034 117.147s8.15 15.89 12.425 10.304l4.268-5.586 1.021 1.162s-4.513-17.553-17.714-5.879zM62.735 122.889s-5.747-9.236-17.716-5.881"/></g><g fill="#F29F1F" stroke="#5E3016"><path d="M57.696 113.297s1.779 18.518 7.628 15.605l5.842-2.916.518 1.567s2.102-18.187-13.988-14.256zM71.72 127.421s-1.95-11.267-13.988-14.256"/></g><g fill="#F29F1F" stroke="#5E3016"><path d="M70.354 162.99s15.488-2.264 13.004-9.223l-2.484-6.96 1.308-.628s-15.235-2.376-11.828 16.811zM82.074 146.135s-9.417 2.416-11.828 16.817"/></g><g fill="#FDE611" stroke="#7E4F19"><path d="M58.082 130.701s8.149 15.896 12.423 10.306l4.268-5.584 1.023 1.164s-4.515-17.555-17.714-5.885zM75.783 136.448s-5.747-9.234-17.716-5.881"/></g><g fill="#E77126" stroke="#7E4B18"><path d="M68.762 129.844s1.779 18.517 7.626 15.601l5.841-2.914.518 1.569s2.103-18.183-13.985-14.256zM82.782 143.969s-1.952-11.265-13.986-14.256"/></g><g fill="#F29F1F" stroke="#5E3016"><path d="M45.715 137.188s8.15 15.896 12.423 10.304l4.268-5.586 1.023 1.162s-4.513-17.549-17.714-5.879zM63.414 142.93s-5.747-9.23-17.714-5.881"/></g><g fill="#E77126" stroke="#7E4B18"><path d="M60.35 179.285s15.486-2.262 13.002-9.226l-2.481-6.956 1.308-.628s-15.238-2.378-11.83 16.811zM72.065 162.429s-9.415 2.415-11.827 16.815"/></g><g fill="#FDE611" stroke="#7E4F19"><path d="M51.128 151.415s8.149 15.898 12.425 10.306l4.268-5.586 1.023 1.162s-4.516-17.549-17.716-5.881zM68.828 157.157s-5.747-9.232-17.714-5.877"/></g><g fill="#F29F1F" stroke="#5E3016"><path d="M43.805 165.518s13.938 8.379 15.103.935l1.163-7.434 1.382.343s-11.577-12.071-17.648 6.157zM61.38 159.259s-8.954-4.232-17.648 6.153"/></g><g fill="#F29F1F" stroke="#5E3016"><path d="M78.459 174.654s15.486-2.262 13.002-9.226l-2.482-6.96 1.308-.628s-15.236-2.376-11.828 16.815zM90.176 157.797s-9.417 2.418-11.828 16.817"/></g><g fill="#FDE611" stroke="#7E4F19"><path d="M78.849 138.517s1.778 18.515 7.625 15.603l5.842-2.917.518 1.571s2.103-18.185-13.985-14.256zM92.871 152.638s-1.952-11.265-13.986-14.252"/></g><g fill="#E77126" stroke="#7E4B18"><path d="M70.029 160.693s13.938 8.377 15.104.937l1.161-7.436 1.382.343s-11.577-12.071-17.648 6.157zM87.605 154.43s-8.955-4.23-17.648 6.155"/></g><g fill="#E77126" stroke="#7E4B18"><path d="M36.734 101.222s16.838 10.656 18.424 1.607l1.581-9.047 1.681.462s-13.88-15.092-21.685 6.978zM58.33 94.113s-10.846-5.438-21.68 6.978"/></g><g fill="#E77126" stroke="#7E4B18"><path d="M43.313 58.635s-1.126 22.723 6.423 20.688l7.546-2.035.344 2.016s5.737-21.347-14.312-20.669zM57.691 79.156s-.358-14.044-14.312-20.669"/></g><g fill="#F29F1F" stroke="#5E3016"><path d="M48.331 85.38s9.065 20.023 14.583 13.543l5.512-6.477 1.184 1.493s-4.537-21.756-21.279-8.56zM69.6 93.768s-6.499-11.71-21.279-8.556"/></g><g fill="#E77126" stroke="#7E4B18"><path d="M63.319 50.218s-1.127 22.723 6.421 20.69l7.542-2.035.348 2.018s5.736-21.349-14.312-20.673zM77.698 70.743s-.36-14.046-14.312-20.673"/></g><g fill="#FDE611" stroke="#7E4F19"><path d="M56.075 72.427s9.063 20.023 14.583 13.541l5.512-6.477 1.184 1.493s-4.539-21.752-21.279-8.558zM77.346 80.817s-6.502-11.712-21.282-8.558"/></g><g fill="#E77126" stroke="#7E4B18"><path d="M51.381 126.759s16.845 10.654 18.424 1.605l1.581-9.045 1.681.457s-13.88-15.09-21.685 6.983zM72.978 119.648s-10.846-5.436-21.682 6.978"/></g><g fill="#E77126" stroke="#7E4B18"><path d="M72.518 91.521s-9.044 20.035-1.479 21.997l7.557 1.954-.398 2.004s12.738-16.468-5.679-25.955zM78.31 117.372s4.633-12.919-5.681-25.955"/></g><g fill="#F29F1F" stroke="#5E3016"><path d="M50.718 106.373s9.065 20.029 14.585 13.547l5.512-6.479 1.186 1.495s-4.542-21.758-21.282-8.564zM71.989 114.769s-6.502-11.71-21.282-8.558"/></g><g fill="#FDE611" stroke="#7E4F19"><path d="M73.047 103.997s16.84 10.656 18.424 1.605l1.579-9.041 1.681.461s-13.877-15.096-21.684 6.976zM94.644 96.886s-10.844-5.436-21.682 6.978"/></g><g fill="#F29F1F" stroke="#5E3016"><path d="M79.628 61.406s-1.127 22.723 6.421 20.688l7.544-2.035c.348 2.018.345 2.018.345 2.018s5.737-21.347-14.311-20.671zM94.005 81.931s-.358-14.046-14.311-20.673"/></g><g fill="#FDE611" stroke="#7E4F19"><path d="M94.565 68.118s-9.041 20.035-1.479 21.993l7.559 1.954-.4 2.006s12.739-16.466-5.679-25.953zM100.357 93.971s4.636-12.921-5.678-25.959"/></g><g fill="#E77126" stroke="#7E4B18"><path d="M72.765 82.971s9.065 20.027 14.586 13.545l5.513-6.481 1.184 1.499s-4.541-21.758-21.284-8.564zM94.037 91.365s-6.5-11.708-21.282-8.558"/></g><g fill="#FDE611" stroke="#7E4F19"><path d="M62.258 127.666s9.068 20.025 14.586 13.543l5.513-6.481 1.182 1.493s-4.537-21.752-21.282-8.556zM83.532 136.054s-6.499-11.71-21.28-8.556"/></g><g fill="#E77126" stroke="#7E4B18"><path d="M95.797 113.32s16.838 10.656 18.422 1.607l1.582-9.045 1.678.462s-13.875-15.096-21.682 6.976zM117.393 106.207s-10.846-5.438-21.68 6.98"/></g><g fill="#E77126" stroke="#7E4B18"><path d="M102.376 70.731s-1.127 22.721 6.423 20.692l7.542-2.039.344 2.016s5.741-21.345-14.309-20.669zM116.755 91.252s-.36-14.046-14.314-20.669"/></g><g fill="#F29F1F" stroke="#5E3016"><path d="M117.313 77.439s-9.042 20.037-1.479 21.995l7.559 1.956-.398 2.004s12.738-16.466-5.681-25.955zM123.105 103.292s4.636-12.917-5.679-25.955"/></g><g fill="#F29F1F" stroke="#5E3016"><path d="M100.941 137.789s16.838 10.656 18.424 1.603l1.579-9.04 1.679.459s-13.878-15.096-21.682 6.978zM122.536 130.68s-10.846-5.438-21.682 6.974"/></g><g fill="#FDE611" stroke="#7E4F19"><path d="M107.52 95.202s-1.126 22.721 6.425 20.686l7.541-2.033.344 2.016s5.741-21.349-14.309-20.669zM121.899 115.721s-.36-14.046-14.311-20.669"/></g><g fill="#E77126" stroke="#7E4B18"><path d="M118.724 103.253s-9.044 20.035-1.481 21.993l7.557 1.956-.398 2.006s12.739-16.47-5.678-25.955zM124.515 129.106s4.633-12.921-5.678-25.957"/></g><g fill="#F29F1F" stroke="#5E3016"><path d="M91.34 91.379s-1.127 22.721 6.421 20.688l7.542-2.037.347 2.019s5.737-21.347-14.311-20.671zM105.717 111.899s-.36-14.042-14.311-20.673"/></g><g fill="#E77126" stroke="#7E4B18"><path d="M81.391 145.767s16.838 10.656 18.42 1.605l1.581-9.041 1.681.457s-13.877-15.092-21.682 6.98zM102.986 138.654s-10.849-5.438-21.682 6.978"/></g><g fill="#FDE611" stroke="#7E4F19"><path d="M88.447 110.152s-1.127 22.721 6.42 20.686l7.546-2.033.344 2.014s5.737-21.345-14.309-20.667zM102.822 130.672s-.36-14.046-14.312-20.671"/></g><g fill="#F29F1F" stroke="#5E3016"><path d="M72.86 118.166s9.068 20.025 14.585 13.541l5.513-6.475 1.184 1.495s-4.537-21.754-21.282-8.562zM94.134 126.562s-6.499-11.712-21.28-8.56"/></g><g fill="#F29F1F" stroke="#5E3016"><path d="M102.243 156.236s16.84 10.658 18.422 1.601l1.579-9.038 1.681.459s-13.877-15.096-21.682 6.978zM123.837 149.129s-10.846-5.44-21.684 6.972"/></g><g fill="#FDE611" stroke="#7E4F19"><path d="M123.76 120.357s-9.047 20.035-1.482 21.997l7.559 1.956-.397 2s12.738-16.464-5.679-25.953zM129.551 146.21s4.633-12.919-5.678-25.955"/></g><g fill="#E77126" stroke="#7E4B18"><path d="M101.96 135.21s9.063 20.025 14.585 13.545l5.513-6.479 1.186 1.495s-4.544-21.758-21.284-8.562zM123.231 143.606s-6.502-11.714-21.282-8.562"/></g><g fill="#E77126" stroke="#7E4B18"><path d="M86.88 50.65s16.84 10.651 18.424 1.601l1.579-9.043 1.681.461s-13.878-15.094-21.684 6.982zM108.477 43.539s-10.846-5.438-21.682 6.978"/></g><g fill="#E77126" stroke="#7E4B18"><path d="M93.458 8.055s-1.126 22.725 6.425 20.694l7.544-2.039.344 2.018s5.737-21.345-14.312-20.673zM107.84 28.584s-.36-14.046-14.315-20.671"/></g><g fill="#F29F1F" stroke="#5E3016"><path d="M98.476 34.804s9.065 20.022 14.586 13.539l5.512-6.473 1.184 1.491s-4.539-21.752-21.282-8.558zM119.75 43.196s-6.505-11.71-21.282-8.558"/></g><g fill="#E77126" stroke="#7E4B18"><path d="M113.466-.356s-1.129 22.727 6.421 20.686l7.542-2.033.345 2.016s5.741-21.343-14.309-20.669zM127.844 20.167s-.36-14.044-14.314-20.671"/></g><g fill="#FDE611" stroke="#7E4F19"><path d="M106.222 21.853s9.065 20.027 14.583 13.545l5.512-6.482 1.186 1.497s-4.539-21.758-21.28-8.56zM127.491 30.245s-6.497-11.71-21.279-8.56"/></g><g fill="#E77126" stroke="#7E4B18"><path d="M101.53 76.183s16.84 10.654 18.42 1.607l1.584-9.045 1.678.457s-13.88-15.09-21.682 6.982zM123.124 69.07s-10.847-5.432-21.682 6.98"/></g><g fill="#E77126" stroke="#7E4B18"><path d="M122.665 40.945s-9.044 20.039-1.479 21.999l7.557 1.952-.4 2.004s12.739-16.464-5.678-25.955zM128.454 66.794s4.634-12.911-5.676-25.951"/></g><g fill="#F29F1F" stroke="#5E3016"><path d="M100.865 55.803s9.067 20.025 14.582 13.545l5.515-6.479 1.184 1.493s-4.539-21.76-21.28-8.56zM122.134 64.191s-6.5-11.71-21.282-8.556"/></g><g fill="#FDE611" stroke="#7E4F19"><path d="M123.195 53.425s16.838 10.654 18.422 1.601l1.579-9.04 1.681.461s-13.877-15.096-21.682 6.978zM144.79 46.31s-10.844-5.438-21.682 6.98"/></g><g fill="#F29F1F" stroke="#5E3016"><path d="M129.776 10.83s-1.129 22.725 6.421 20.69l7.544-2.035.345 2.018s5.737-21.347-14.311-20.673zM144.152 31.355s-.358-14.046-14.312-20.673"/></g><g fill="#FDE611" stroke="#7E4F19"><path d="M144.711 17.542s-9.042 20.035-1.479 21.995l7.559 1.958-.398 2.002s12.738-16.466-5.681-25.955zM150.504 43.395s4.634-12.919-5.679-25.957"/></g><g fill="#E77126" stroke="#7E4B18"><path d="M122.912 32.397s9.065 20.025 14.586 13.545l5.513-6.481 1.179 1.493s-4.536-21.754-21.279-8.558zM144.182 40.791s-6.499-11.71-21.28-8.56"/></g><g fill="#FDE611" stroke="#7E4F19"><path d="M112.408 77.092s9.068 20.025 14.583 13.539l5.513-6.475 1.184 1.493s-4.537-21.752-21.28-8.558zM133.678 85.486s-6.499-11.712-21.28-8.562"/></g><g fill="#E77126" stroke="#7E4B18"><path d="M145.945 62.744s16.836 10.656 18.419 1.605l1.581-9.041 1.681.459s-13.877-15.096-21.68 6.978zM167.54 55.635s-10.847-5.442-21.682 6.974"/></g><g fill="#E77126" stroke="#7E4B18"><path d="M152.523 20.157s-1.127 22.723 6.423 20.69l7.544-2.037.345 2.018s5.736-21.351-14.312-20.671zM166.901 40.678s-.358-14.046-14.312-20.673"/></g><g fill="#F29F1F" stroke="#5E3016"><path d="M167.463 26.867s-9.042 20.035-1.482 21.995l7.557 1.956-.398 2.004s12.739-16.47-5.676-25.955zM173.25 52.716s4.636-12.917-5.678-25.953"/></g><g fill="#F29F1F" stroke="#5E3016"><path d="M151.087 87.215s16.84 10.658 18.424 1.605l1.581-9.04 1.681.457s-13.88-15.092-21.685 6.978zM172.682 80.106s-10.846-5.438-21.682 6.976"/></g><g fill="#FDE611" stroke="#7E4F19"><path d="M157.668 44.628s-1.127 22.723 6.421 20.688l7.541-2.035.347 2.016s5.737-21.347-14.309-20.669zM172.044 65.152s-.358-14.048-14.312-20.675"/></g><g fill="#E77126" stroke="#7E4B18"><path d="M168.869 52.675s-9.042 20.039-1.481 21.997l7.562 1.956-.402 2.004s12.739-16.466-5.679-25.957zM174.661 78.53s4.633-12.915-5.678-25.955"/></g><g fill="#F29F1F" stroke="#5E3016"><path d="M141.488 40.805s-1.127 22.723 6.42 20.688l7.542-2.035.348 2.018s5.737-21.351-14.311-20.671zM155.864 61.323s-.36-14.044-14.314-20.673"/></g><g fill="#E77126" stroke="#7E4B18"><path d="M131.536 95.192s16.84 10.656 18.42 1.605l1.581-9.041 1.681.459s-13.875-15.094-21.682 6.978zM153.133 88.084s-10.846-5.442-21.682 6.974"/></g><g fill="#FDE611" stroke="#7E4F19"><path d="M138.593 59.574s-1.126 22.725 6.421 20.69l7.542-2.037.347 2.021s5.736-21.351-14.311-20.675zM152.968 80.098s-.361-14.044-14.312-20.675"/></g><g fill="#F29F1F" stroke="#5E3016"><path d="M123.007 67.594s9.068 20.025 14.585 13.541l5.512-6.475 1.184 1.493s-4.539-21.758-21.28-8.56zM144.281 75.99s-6.502-11.712-21.28-8.56"/></g><g fill="#F29F1F" stroke="#5E3016"><path d="M152.391 105.664s16.838 10.654 18.422 1.605l1.581-9.045 1.681.464s-13.88-15.098-21.684 6.976zM173.986 98.551s-10.847-5.434-21.685 6.98"/></g><g fill="#FDE611" stroke="#7E4F19"><path d="M173.907 69.783s-9.046 20.039-1.482 21.995l7.559 1.956-.397 2.002s12.738-16.462-5.679-25.953zM179.696 95.634s4.633-12.913-5.679-25.957"/></g><g fill="#E77126" stroke="#7E4B18"><path d="M152.105 84.64s9.067 20.025 14.585 13.545l5.512-6.482 1.182 1.495s-4.537-21.756-21.279-8.558zM173.376 93.032s-6.497-11.714-21.282-8.558"/></g><g fill="#E77126" stroke="#7E4B18"><path d="M96.807 113.046s16.84 10.656 18.424 1.605l1.582-9.045 1.681.461s-13.881-15.094-21.687 6.98zM118.403 105.937s-10.846-5.44-21.682 6.976"/></g><g fill="#E77126" stroke="#7E4B18"><path d="M103.386 70.454s-1.126 22.725 6.423 20.692l7.544-2.039.345 2.019s5.737-21.347-14.312-20.673zM117.764 90.976s-.36-14.044-14.314-20.669"/></g><g fill="#F29F1F" stroke="#5E3016"><path d="M108.404 97.2s9.065 20.023 14.585 13.543l5.512-6.481 1.184 1.493s-4.541-21.748-21.28-8.556zM129.675 105.594s-6.499-11.712-21.282-8.558"/></g><g fill="#E77126" stroke="#7E4B18"><path d="M123.391 62.04s-1.127 22.725 6.423 20.688l7.544-2.035.347 2.014s5.737-21.342-14.314-20.667zM137.77 82.563s-.358-14.044-14.312-20.671"/></g><g fill="#FDE611" stroke="#7E4F19"><path d="M116.15 84.251s9.063 20.023 14.583 13.539l5.515-6.475 1.182 1.493s-4.542-21.756-21.28-8.558zM137.419 92.639s-6.5-11.707-21.28-8.556"/></g><g fill="#E77126" stroke="#7E4B18"><path d="M111.454 138.583s16.84 10.652 18.424 1.603l1.581-9.047 1.681.461s-13.878-15.092-21.685 6.983zM133.051 131.468s-10.844-5.438-21.682 6.98"/></g><g fill="#E77126" stroke="#7E4B18"><path d="M132.591 103.344s-9.044 20.037-1.481 21.995l7.56 1.956-.4 2s12.735-16.464-5.679-25.951zM138.38 129.194s4.634-12.919-5.678-25.955"/></g><g fill="#F29F1F" stroke="#5E3016"><path d="M110.791 118.195s9.065 20.027 14.583 13.547l5.512-6.481 1.186 1.493s-4.539-21.754-21.28-8.56zM132.06 126.591s-6.5-11.71-21.279-8.56"/></g><g fill="#FDE611" stroke="#7E4F19"><path d="M133.123 115.819s16.836 10.654 18.422 1.601l1.579-9.043 1.681.461s-13.878-15.09-21.682 6.982zM154.717 108.708s-10.843-5.436-21.682 6.978"/></g><g fill="#F29F1F" stroke="#5E3016"><path d="M139.701 73.23s-1.127 22.721 6.421 20.686l7.544-2.035.347 2.016s5.739-21.345-14.312-20.667zM154.08 93.751s-.361-14.044-14.312-20.673"/></g><g fill="#FDE611" stroke="#7E4F19"><path d="M154.639 79.936s-9.044 20.035-1.481 21.997l7.557 1.956-.398 2.002s12.739-16.464-5.678-25.955zM160.43 105.791s4.636-12.917-5.678-25.955"/></g><g fill="#E77126" stroke="#7E4B18"><path d="M132.84 94.794s9.067 20.027 14.585 13.541l5.512-6.481 1.182 1.497s-4.539-21.752-21.279-8.558zM154.11 103.188s-6.5-11.712-21.28-8.56"/></g><g fill="#FDE611" stroke="#7E4F19"><path d="M122.334 139.486s9.067 20.023 14.585 13.543l5.513-6.477 1.179 1.491s-4.534-21.75-21.277-8.558zM143.605 147.879s-6.5-11.71-21.282-8.558"/></g><g fill="#E77126" stroke="#7E4B18"><path d="M155.872 125.14s16.836 10.658 18.419 1.605l1.584-9.041 1.679.461s-13.877-15.098-21.682 6.976zM177.466 118.031s-10.847-5.44-21.682 6.976"/></g><g fill="#E77126" stroke="#7E4B18"><path d="M162.451 82.551s-1.129 22.723 6.421 20.688l7.542-2.035.348 2.016s5.736-21.345-14.312-20.669zM176.829 103.074s-.36-14.044-14.314-20.669"/></g><g fill="#F29F1F" stroke="#5E3016"><path d="M177.386 89.261s-9.042 20.039-1.479 21.995l7.557 1.958-.397 2.004s12.739-16.466-5.681-25.957zM183.178 115.112s4.633-12.913-5.679-25.955"/></g><g fill="#F29F1F" stroke="#5E3016"><path d="M161.014 149.613s16.836 10.654 18.422 1.603l1.579-9.041 1.679.459s-13.877-15.094-21.68 6.98zM182.61 142.502s-10.846-5.44-21.682 6.974"/></g><g fill="#FDE611" stroke="#7E4F19"><path d="M167.593 107.022s-1.126 22.725 6.421 20.69l7.544-2.035.345 2.016s5.737-21.349-14.311-20.671zM181.972 127.545s-.36-14.046-14.311-20.673"/></g><g fill="#E77126" stroke="#7E4B18"><path d="M178.796 115.073s-9.042 20.039-1.481 21.995l7.56 1.956-.398 2.006s12.738-16.468-5.681-25.957zM184.588 140.928s4.633-12.919-5.679-25.959"/></g><g fill="#F29F1F" stroke="#5E3016"><path d="M151.413 103.199s-1.126 22.727 6.423 20.692l7.542-2.037.345 2.018s5.741-21.347-14.311-20.673zM165.792 123.72s-.36-14.04-14.312-20.671"/></g><g fill="#E77126" stroke="#7E4B18"><path d="M141.463 157.585s16.838 10.656 18.422 1.607l1.579-9.041 1.681.459s-13.877-15.096-21.682 6.976zM163.057 150.48s-10.844-5.438-21.679 6.974"/></g><g fill="#FDE611" stroke="#7E4F19"><path d="M148.52 121.972s-1.129 22.723 6.421 20.69l7.542-2.035.348 2.018s5.734-21.349-14.312-20.673zM162.895 142.493s-.358-14.044-14.312-20.673"/></g><g fill="#F29F1F" stroke="#5E3016"><path d="M132.935 129.99s9.067 20.027 14.586 13.545l5.512-6.481 1.184 1.495s-4.542-21.752-21.282-8.56zM154.207 138.38s-6.499-11.708-21.28-8.554"/></g><g fill="#F29F1F" stroke="#5E3016"><path d="M162.316 168.06s16.838 10.654 18.422 1.603l1.579-9.045 1.681.462s-13.878-15.092-21.682 6.98zM183.91 160.949s-10.846-5.438-21.684 6.976"/></g><g fill="#FDE611" stroke="#7E4F19"><path d="M183.833 132.175s-9.042 20.039-1.481 22.001l7.557 1.956-.397 2s12.738-16.464-5.679-25.957zM189.624 158.032s4.633-12.913-5.679-25.957"/></g><g fill="#E77126" stroke="#7E4B18"><path d="M162.033 147.033s9.062 20.025 14.582 13.547l5.516-6.481 1.182 1.499s-4.539-21.76-21.28-8.566zM183.304 155.427s-6.5-11.712-21.28-8.558"/></g><g fill="#E77126" stroke="#7E4B18"><path d="M180.783 27.549s.008 22.766 7.442 20.199l7.428-2.571.445 1.987s4.663-21.713-15.315-19.615zM196.155 47.014s-1.057-13.994-15.314-19.617"/></g><g fill="#E77126" stroke="#7E4B18"><path d="M215.361 14.546s-17.332 9.458-12.294 16.472l5.041 7.01-1.331 1.308s18.477-3.945 8.584-24.791zM206.918 39.334s10.218-6.956 8.581-24.789"/></g><g fill="#F29F1F" stroke="#5E3016"><path d="M197.929 32.372s-10.56 18.946-3.181 21.735l7.371 2.786-.55 1.95s13.964-14.986-3.641-26.471zM201.69 58.751s5.615-12.346-3.637-26.471"/></g><g fill="#E77126" stroke="#7E4B18"><path d="M230.955 31.719s-17.337 9.456-12.294 16.474l5.041 7.01-1.329 1.308s18.475-3.946 8.583-24.793zM222.513 56.51s10.22-6.96 8.584-24.793"/></g><g fill="#FDE611" stroke="#7E4F19"><path d="M211.136 34.478s-10.564 18.946-3.182 21.735l7.371 2.788-.55 1.944s13.961-14.98-3.639-26.467zM214.893 60.859s5.618-12.344-3.637-26.471"/></g><g fill="#E77126" stroke="#7E4B18"><path d="M168.758 54.97s.01 22.768 7.444 20.197l7.429-2.569.447 1.987s4.66-21.712-15.32-19.615zM184.133 74.435s-1.057-13.994-15.315-19.615"/></g><g fill="#E77126" stroke="#7E4B18"><path d="M204.721 60.774s-19.056-.158-16.962 8.743l2.095 8.889-1.669.522s18.145 5.731 16.536-18.154zM188.315 78.996s11.722-1.156 16.533-18.148"/></g><g fill="#F29F1F" stroke="#5E3016"><path d="M183.523 44.722s-10.564 18.95-3.187 21.738l7.375 2.785-.552 1.95s13.964-14.982-3.636-26.473zM187.278 71.105s5.615-12.342-3.637-26.469"/></g><g fill="#FDE611" stroke="#7E4F19"><path d="M195.74 67.18s.008 22.764 7.444 20.197l7.428-2.571.445 1.989s4.663-21.717-15.317-19.615zM211.115 86.644s-1.058-13.996-15.317-19.617"/></g><g fill="#F29F1F" stroke="#5E3016"><path d="M230.321 54.178s-17.337 9.448-12.294 16.468l5.041 7.01-1.331 1.308s18.475-3.946 8.584-24.787zM221.879 78.963s10.218-6.958 8.583-24.787"/></g><g fill="#FDE611" stroke="#7E4F19"><path d="M232.355 73.086s-19.054-.16-16.959 8.743l2.092 8.889-1.665.522s18.143 5.727 16.532-18.154zM215.951 91.308s11.72-1.162 16.535-18.152"/></g><g fill="#E77126" stroke="#7E4B18"><path d="M211.156 57.036s-10.562 18.948-3.186 21.737l7.375 2.786-.553 1.95s13.967-14.988-3.636-26.473zM214.914 83.417s5.613-12.346-3.641-26.471"/></g><g fill="#FDE611" stroke="#7E4F19"><path d="M173.184 66.881s-10.564 18.948-3.184 21.738l7.373 2.783-.553 1.952s13.967-14.982-3.636-26.473zM176.942 93.263s5.613-12.344-3.637-26.469"/></g><g fill="#E77126" stroke="#7E4B18"><path d="M199.503 95.559s.008 22.764 7.441 20.197l7.429-2.567.447 1.987s4.662-21.717-15.317-19.617zM214.877 115.021s-1.058-13.996-15.317-19.619"/></g><g fill="#E77126" stroke="#7E4B18"><path d="M234.081 82.551s-17.333 9.458-12.293 16.47l5.039 7.012-1.327 1.31s18.474-3.945 8.581-24.793zM225.64 107.34s10.217-6.958 8.581-24.789"/></g><g fill="#F29F1F" stroke="#5E3016"><path d="M236.115 101.463s-19.054-.16-16.959 8.741l2.097 8.893-1.671.52s18.146 5.731 16.533-18.154zM219.709 119.683s11.722-1.158 16.533-18.15"/></g><g fill="#F29F1F" stroke="#5E3016"><path d="M183.815 112.451s.008 22.764 7.444 20.195l7.428-2.569.445 1.989s4.662-21.717-15.317-19.615zM199.189 131.915s-1.06-13.994-15.315-19.617"/></g><g fill="#FDE611" stroke="#7E4F19"><path d="M218.395 99.445s-17.335 9.456-12.293 16.47l5.039 7.008-1.329 1.31s18.474-3.945 8.583-24.789zM209.951 124.236s10.218-6.964 8.583-24.791"/></g><g fill="#E77126" stroke="#7E4B18"><path d="M217.688 115.042s-19.053-.162-16.961 8.739l2.095 8.895-1.669.518s18.145 5.729 16.535-18.152zM201.282 133.262s11.72-1.158 16.533-18.152"/></g><g fill="#F29F1F" stroke="#5E3016"><path d="M213.643 80.576s-17.333 9.454-12.293 16.47l5.037 7.01-1.327 1.31s18.472-3.946 8.583-24.791zM205.199 105.365s10.218-6.96 8.586-24.789"/></g><g fill="#E77126" stroke="#7E4B18"><path d="M168.758 95.553s.01 22.764 7.442 20.197l7.428-2.573.447 1.991s4.663-21.719-15.317-19.615zM184.133 115.012s-1.058-13.994-15.315-19.615"/></g><g fill="#FDE611" stroke="#7E4F19"><path d="M198.403 86.315s-17.335 9.452-12.294 16.472l5.039 7.005-1.327 1.312s18.474-3.946 8.583-24.789zM189.961 111.098s10.218-6.956 8.583-24.789"/></g><g fill="#F29F1F" stroke="#5E3016"><path d="M185.173 73.62s-10.562 18.952-3.182 21.74l7.371 2.785-.552 1.95s13.962-14.982-3.637-26.475zM188.93 100.004s5.618-12.346-3.636-26.471"/></g><g fill="#F29F1F" stroke="#5E3016"><path d="M170.784 122.465s.008 22.764 7.444 20.195l7.426-2.571.445 1.993s4.662-21.717-15.315-19.617zM186.157 141.928s-1.06-13.994-15.317-19.617"/></g><g fill="#FDE611" stroke="#7E4F19"><path d="M207.396 128.37s-19.054-.162-16.961 8.741l2.095 8.889-1.669.522s18.145 5.731 16.535-18.152zM190.991 146.589s11.72-1.162 16.533-18.152"/></g><g fill="#E77126" stroke="#7E4B18"><path d="M186.199 112.316s-10.565 18.948-3.184 21.738l7.373 2.785-.553 1.95s13.965-14.982-3.636-26.473zM189.954 138.7s5.616-12.348-3.639-26.473"/></g><g fill="#E77126" stroke="#7E4B18"><path d="M254.131 41.454s-8.515 20.366-.905 22.041l7.609 1.673-.348 2.019s12.302-16.942-6.355-25.733zM260.596 67.074s4.295-13.082-6.357-25.724"/></g><g fill="#E77126" stroke="#7E4B18"><path d="M289.926 48.293s-19.043-.8-17.164 8.165l1.886 8.961-1.679.461s18.004 6.34 16.957-17.586zM273.098 65.952s11.744-.763 16.954-17.586"/></g><g fill="#F29F1F" stroke="#5E3016"><path d="M267.665 54.924s-16.536 11.308-10.981 17.744l5.549 6.427-1.223 1.453s18.098-5.945 6.655-25.623zM261.152 80.528s9.644-8.043 6.652-25.621"/></g><g fill="#E77126" stroke="#7E4B18"><path d="M297.448 71.98s-19.043-.8-17.161 8.169l1.882 8.959-1.681.461s18.006 6.346 16.959-17.588zM280.618 89.645s11.744-.763 16.954-17.59"/></g><g fill="#FDE611" stroke="#7E4F19"><path d="M278.69 63.863s-16.538 11.304-10.983 17.74l5.552 6.43-1.224 1.449s18.096-5.945 6.655-25.619zM272.175 89.467s9.644-8.043 6.654-25.621"/></g><g fill="#E77126" stroke="#7E4B18"><path d="M233.113 59.558s-8.513 20.368-.903 22.041l7.605 1.675-.344 2.018s12.298-16.938-6.358-25.733zM239.58 85.182s4.291-13.084-6.358-25.729"/></g><g fill="#E77126" stroke="#7E4B18"><path d="M263.109 83.958s-16.988-10.325-18.445-1.245l-1.453 9.072-1.687-.43s14.083 14.824 21.585-7.398zM241.614 91.491s10.917 5.222 21.579-7.404"/></g><g fill="#F29F1F" stroke="#5E3016"><path d="M250.153 58.277s-16.54 11.306-10.985 17.738l5.552 6.432-1.223 1.451s18.098-5.945 6.655-25.621zM243.64 83.885s9.644-8.047 6.652-25.625"/></g><g fill="#FDE611" stroke="#7E4F19"><path d="M252.679 84.895s-8.513 20.366-.902 22.041l7.605 1.669-.347 2.018s12.299-16.938-6.357-25.727zM259.146 110.51s4.292-13.084-6.36-25.724"/></g><g fill="#F29F1F" stroke="#5E3016"><path d="M288.475 91.73s-19.043-.802-17.159 8.167l1.882 8.957-1.678.466s18.003 6.338 16.954-17.59zM271.648 109.391s11.744-.765 16.954-17.588"/></g><g fill="#FDE611" stroke="#7E4F19"><path d="M283.22 109.728s-16.985-10.323-18.443-1.239l-1.457 9.072-1.686-.43s14.086 14.822 21.585-7.404zM261.725 117.266s10.92 5.222 21.584-7.407"/></g><g fill="#E77126" stroke="#7E4B18"><path d="M270.266 84.05s-16.54 11.306-10.985 17.742l5.555 6.428-1.226 1.451s18.099-5.947 6.655-25.621zM263.752 109.653s9.644-8.045 6.65-25.623"/></g><g fill="#FDE611" stroke="#7E4F19"><path d="M232.613 72.571s-16.535 11.31-10.983 17.744l5.552 6.43-1.223 1.453s18.098-5.947 6.654-25.627zM226.103 98.179s9.644-8.041 6.652-25.623"/></g><g fill="#E77126" stroke="#7E4B18"><path d="M245.424 112.285s-8.512 20.366-.903 22.041l7.604 1.676-.345 2.018s12.302-16.944-6.355-25.735zM251.889 137.904s4.292-13.084-6.358-25.727"/></g><g fill="#E77126" stroke="#7E4B18"><path d="M281.219 119.122s-19.043-.802-17.162 8.167l1.884 8.959-1.679.461s18.006 6.34 16.957-17.586zM264.389 136.785s11.746-.765 16.956-17.592"/></g><g fill="#F29F1F" stroke="#5E3016"><path d="M275.963 137.122s-16.983-10.321-18.441-1.243l-1.455 9.074-1.684-.428s14.083 14.821 21.58-7.404zM254.469 144.655s10.918 5.226 21.584-7.404"/></g><g fill="#F29F1F" stroke="#5E3016"><path d="M225.068 119.014s-8.513 20.365-.903 22.041l7.607 1.671-.345 2.019s12.301-16.942-6.358-25.731zM231.536 144.637s4.292-13.084-6.36-25.731"/></g><g fill="#FDE611" stroke="#7E4F19"><path d="M260.867 125.853s-19.045-.802-17.161 8.167l1.882 8.959-1.678.459s18.001 6.342 16.956-17.584zM244.037 143.516s11.746-.765 16.954-17.588"/></g><g fill="#E77126" stroke="#7E4B18"><path d="M254.397 139.425s-16.985-10.321-18.443-1.245l-1.453 9.076-1.689-.43s14.088 14.822 21.585-7.402zM232.905 146.959s10.918 5.224 21.58-7.404"/></g><g fill="#F29F1F" stroke="#5E3016"><path d="M263.676 106.433s-19.043-.802-17.159 8.17l1.882 8.957-1.679.461s18.004 6.344 16.956-17.588zM246.848 124.094s11.744-.763 16.954-17.586"/></g><g fill="#E77126" stroke="#7E4B18"><path d="M217.925 95.855s-8.513 20.363-.9 22.041l7.602 1.673-.344 2.018s12.298-16.936-6.358-25.731zM224.392 121.475s4.292-13.084-6.358-25.727"/></g><g fill="#FDE611" stroke="#7E4F19"><path d="M247.896 103.426s-19.041-.802-17.159 8.169l1.886 8.959-1.679.461s18.003 6.344 16.953-17.588zM231.071 121.091s11.744-.765 16.954-17.592"/></g><g fill="#F29F1F" stroke="#5E3016"><path d="M240.814 85.008s-16.538 11.308-10.981 17.744l5.552 6.428-1.223 1.453s18.095-5.947 6.652-25.625zM234.302 110.612s9.643-8.043 6.652-25.623"/></g><g fill="#F29F1F" stroke="#5E3016"><path d="M209.664 121.012s-8.513 20.363-.902 22.041l7.607 1.669-.347 2.023s12.299-16.944-6.358-25.733zM216.13 146.634s4.289-13.084-6.358-25.731"/></g><g fill="#FDE611" stroke="#7E4F19"><path d="M240.202 145.846s-16.982-10.321-18.441-1.243l-1.455 9.072-1.686-.426s14.085 14.822 21.582-7.404zM218.709 153.384s10.922 5.222 21.582-7.402"/></g><g fill="#E77126" stroke="#7E4B18"><path d="M227.248 120.164s-16.54 11.306-10.985 17.744l5.554 6.43-1.226 1.449s18.101-5.941 6.657-25.623zM220.734 145.772s9.647-8.041 6.654-25.623"/></g><g fill="#E77126" stroke="#7E4B18"><path d="M311.613 35.791s-8.513 20.365-.902 22.041l7.605 1.671-.344 2.016s12.299-16.933-6.36-25.727zM318.08 61.414s4.292-13.084-6.357-25.727"/></g><g fill="#E77126" stroke="#7E4B18"><path d="M347.41 42.628s-19.043-.8-17.161 8.167l1.886 8.962-1.681.459s18.001 6.34 16.956-17.588zM330.582 60.291s11.744-.763 16.953-17.592"/></g><g fill="#F29F1F" stroke="#5E3016"><path d="M325.149 49.259s-16.536 11.308-10.983 17.748l5.554 6.427-1.224 1.449s18.098-5.943 6.654-25.623zM318.638 74.866s9.644-8.045 6.652-25.621"/></g><g fill="#E77126" stroke="#7E4B18"><path d="M354.932 66.322s-19.043-.802-17.159 8.163l1.882 8.962-1.678.461s18.003 6.342 16.954-17.586zM338.105 83.981s11.744-.765 16.953-17.588"/></g><g fill="#FDE611" stroke="#7E4F19"><path d="M336.173 58.198s-16.538 11.31-10.983 17.744l5.554 6.432-1.224 1.447s18.098-5.943 6.654-25.623zM329.661 83.804s9.644-8.041 6.654-25.619"/></g><g fill="#E77126" stroke="#7E4B18"><path d="M290.599 53.899s-8.513 20.365-.907 22.041l7.61 1.671-.347 2.018s12.299-16.938-6.357-25.729zM297.066 79.52s4.292-13.084-6.36-25.731"/></g><g fill="#E77126" stroke="#7E4B18"><path d="M320.593 78.295s-16.987-10.321-18.443-1.243l-1.453 9.074-1.686-.428s14.081 14.822 21.582-7.404zM299.096 85.831s10.92 5.224 21.582-7.404"/></g><g fill="#F29F1F" stroke="#5E3016"><path d="M307.634 52.615s-16.535 11.306-10.985 17.742l5.555 6.428-1.223 1.451s18.099-5.945 6.652-25.621zM301.124 78.217s9.644-8.043 6.652-25.619"/></g><g fill="#FDE611" stroke="#7E4F19"><path d="M310.163 79.227s-8.513 20.366-.903 22.043l7.604 1.669-.344 2.018s12.301-16.934-6.357-25.729zM316.631 104.852s4.289-13.084-6.362-25.731"/></g><g fill="#F29F1F" stroke="#5E3016"><path d="M345.96 86.066s-19.041-.805-17.159 8.169l1.882 8.955-1.681.464s18.006 6.344 16.957-17.588zM329.132 103.727s11.746-.761 16.956-17.588"/></g><g fill="#FDE611" stroke="#7E4F19"><path d="M340.704 104.068s-16.983-10.321-18.443-1.243l-1.455 9.072-1.686-.426s14.085 14.822 21.584-7.404zM319.209 111.605s10.922 5.222 21.587-7.405"/></g><g fill="#E77126" stroke="#7E4B18"><path d="M327.751 78.387s-16.54 11.306-10.986 17.748l5.555 6.423-1.226 1.451s18.099-5.943 6.657-25.621zM321.236 103.995s9.644-8.045 6.652-25.621"/></g><g fill="#FDE611" stroke="#7E4F19"><path d="M290.099 66.914s-16.538 11.306-10.983 17.744l5.55 6.428-1.224 1.449s18.098-5.945 6.657-25.621zM283.586 92.518s9.644-8.043 6.654-25.623"/></g><g fill="#E77126" stroke="#7E4B18"><path d="M302.906 106.621s-8.512 20.363-.903 22.041c7.609 1.676 7.954-.345 7.609 1.675l-.347 2.016s12.299-16.938-6.358-25.731zM309.374 132.243s4.294-13.084-6.357-25.725"/></g><g fill="#E77126" stroke="#7E4B18"><path d="M338.705 113.458s-19.045-.804-17.161 8.165l1.882 8.964-1.678.459s18.003 6.342 16.956-17.588zM321.875 131.123s11.746-.765 16.954-17.592"/></g><g fill="#F29F1F" stroke="#5E3016"><path d="M333.447 131.459s-16.983-10.321-18.443-1.241l-1.453 9.072-1.686-.426s14.083 14.817 21.582-7.405zM311.955 138.993s10.917 5.228 21.58-7.405"/></g><g fill="#F29F1F" stroke="#5E3016"><path d="M282.553 113.352s-8.513 20.363-.903 22.041l7.605 1.669-.345 2.016s12.299-16.934-6.357-25.725zM289.02 138.972s4.292-13.086-6.357-25.731"/></g><g fill="#FDE611" stroke="#7E4F19"><path d="M318.347 120.188s-19.041-.802-17.159 8.169l1.882 8.957-1.679.461s18.004 6.342 16.956-17.586zM301.521 137.852s11.744-.765 16.954-17.59"/></g><g fill="#E77126" stroke="#7E4B18"><path d="M311.883 133.759s-16.985-10.323-18.446-1.239l-1.452 9.072-1.687-.432s14.086 14.822 21.585-7.402zM290.386 141.298s10.92 5.222 21.584-7.405"/></g><g fill="#F29F1F" stroke="#5E3016"><path d="M321.162 100.773s-19.043-.8-17.159 8.167l1.882 8.959-1.678.464s18.001 6.342 16.954-17.59zM304.334 118.434s11.744-.763 16.954-17.588"/></g><g fill="#E77126" stroke="#7E4B18"><path d="M275.409 90.19s-8.512 20.366-.903 22.043l7.605 1.673-.345 2.016s12.299-16.938-6.357-25.731zM281.876 115.815s4.295-13.088-6.357-25.727"/></g><g fill="#FDE611" stroke="#7E4F19"><path d="M305.381 97.763s-19.041-.802-17.157 8.167l1.884 8.961-1.681.462s18.004 6.34 16.954-17.59zM288.554 115.424s11.746-.763 16.954-17.588"/></g><g fill="#F29F1F" stroke="#5E3016"><path d="M298.298 79.343s-16.538 11.31-10.983 17.746l5.55 6.428-1.223 1.449s18.101-5.941 6.655-25.623zM291.785 104.955s9.644-8.043 6.654-25.623"/></g><g fill="#F29F1F" stroke="#5E3016"><path d="M267.148 115.347s-8.515 20.365-.903 22.043l7.607 1.673-.347 2.014s12.301-16.934-6.357-25.729zM273.616 140.966s4.291-13.082-6.362-25.727"/></g><g fill="#FDE611" stroke="#7E4F19"><path d="M297.688 140.188s-16.985-10.327-18.443-1.247l-1.457 9.072-1.684-.424s14.083 14.819 21.584-7.402zM276.193 147.722s10.92 5.22 21.582-7.405"/></g><g fill="#E77126" stroke="#7E4B18"><path d="M284.734 114.507s-16.54 11.302-10.986 17.74l5.555 6.432-1.224 1.451s18.099-5.949 6.655-25.623zM278.221 140.109s9.644-8.043 6.65-25.623"/></g><g fill="#E77126" stroke="#7E4B18"><path d="M347.825 76.456s-8.513 20.365-.905 22.041l7.609 1.669-.347 2.021s12.299-16.938-6.357-25.731zM354.293 102.078s4.292-13.079-6.358-25.727"/></g><g fill="#E77126" stroke="#7E4B18"><path d="M383.621 83.295s-19.041-.8-17.159 8.165l1.884 8.962-1.679.459s18.003 6.338 16.954-17.586zM366.794 100.956s11.746-.763 16.953-17.59"/></g><g fill="#F29F1F" stroke="#5E3016"><path d="M361.361 89.926s-16.536 11.306-10.983 17.742l5.552 6.43-1.221 1.449s18.096-5.943 6.652-25.621zM354.85 115.532s9.644-8.049 6.652-25.625"/></g><g fill="#E77126" stroke="#7E4B18"><path d="M391.139 106.986s-19.041-.804-17.156 8.169l1.882 8.957-1.681.462s18.006 6.34 16.954-17.588zM374.314 124.647s11.746-.763 16.956-17.588"/></g><g fill="#FDE611" stroke="#7E4F19"><path d="M372.383 98.867s-16.538 11.306-10.985 17.74l5.555 6.434-1.223 1.447s18.096-5.943 6.652-25.621zM365.87 124.469s9.644-8.043 6.652-25.623"/></g><g fill="#E77126" stroke="#7E4B18"><path d="M326.811 94.562s-8.512 20.366-.905 22.041l7.607 1.673-.344 2.018s12.296-16.938-6.358-25.731zM333.277 120.182s4.291-13.082-6.362-25.729"/></g><g fill="#E77126" stroke="#7E4B18"><path d="M356.803 118.96s-16.987-10.319-18.445-1.247l-1.453 9.076-1.689-.426s14.088 14.822 21.587-7.404zM335.308 126.497s10.92 5.22 21.582-7.405"/></g><g fill="#F29F1F" stroke="#5E3016"><path d="M343.849 93.281s-16.536 11.304-10.985 17.74l5.557 6.428-1.226 1.453s18.098-5.945 6.654-25.621zM337.336 118.883s9.644-8.041 6.652-25.621"/></g><g fill="#FDE611" stroke="#7E4F19"><path d="M346.373 119.891s-8.513 20.366-.902 22.045l7.605 1.669-.345 2.018s12.299-16.938-6.358-25.731zM352.841 145.516s4.292-13.086-6.36-25.727"/></g><g fill="#F29F1F" stroke="#5E3016"><path d="M382.172 126.732s-19.043-.8-17.162 8.169l1.884 8.959-1.681.461s18.004 6.342 16.959-17.588zM365.342 144.396s11.747-.763 16.956-17.588"/></g><g fill="#FDE611" stroke="#7E4F19"><path d="M376.914 144.728s-16.983-10.315-18.44-1.241l-1.455 9.076-1.687-.432s14.085 14.824 21.582-7.404zM355.421 152.27s10.922 5.224 21.584-7.404"/></g><g fill="#E77126" stroke="#7E4B18"><path d="M363.96 119.049s-16.54 11.31-10.985 17.744l5.554 6.432-1.224 1.451s18.101-5.945 6.655-25.627zM357.448 144.657s9.644-8.045 6.652-25.625"/></g><g fill="#FDE611" stroke="#7E4F19"><path d="M326.311 107.577s-16.54 11.302-10.985 17.742l5.552 6.428-1.221 1.451s18.096-5.943 6.654-25.621zM319.794 133.181s9.646-8.043 6.654-25.623"/></g><g fill="#E77126" stroke="#7E4B18"><path d="M339.116 147.287s-8.512 20.365-.902 22.041l7.609 1.675-.348 2.014s12.301-16.936-6.358-25.729zM345.583 172.906s4.294-13.084-6.355-25.725"/></g><g fill="#E77126" stroke="#7E4B18"><path d="M374.914 154.12s-19.043-.802-17.161 8.169l1.886 8.959-1.681.461s18.004 6.342 16.956-17.588zM358.087 171.789s11.746-.769 16.954-17.592"/></g><g fill="#F29F1F" stroke="#5E3016"><path d="M369.659 172.122s-16.982-10.317-18.441-1.241l-1.455 9.074-1.684-.43s14.083 14.821 21.58-7.404zM348.164 179.657s10.918 5.226 21.584-7.402"/></g><g fill="#F29F1F" stroke="#5E3016"><path d="M318.765 154.016s-8.515 20.366-.903 22.043l7.604 1.671-.344 2.016s12.299-16.938-6.357-25.729zM325.232 179.635s4.291-13.082-6.357-25.727"/></g><g fill="#FDE611" stroke="#7E4F19"><path d="M354.558 160.855s-19.04-.802-17.157 8.165l1.884 8.961-1.681.459s18.004 6.344 16.954-17.584zM337.731 178.514s11.746-.763 16.954-17.584"/></g><g fill="#E77126" stroke="#7E4B18"><path d="M348.093 174.429s-16.985-10.325-18.443-1.245l-1.455 9.076-1.687-.43s14.088 14.819 21.585-7.402zM326.6 181.963s10.92 5.222 21.58-7.402"/></g><g fill="#F29F1F" stroke="#5E3016"><path d="M357.372 141.437s-19.043-.802-17.161 8.167l1.886 8.959-1.682.464s18.003 6.338 16.957-17.59zM340.542 159.098s11.746-.763 16.956-17.586"/></g><g fill="#E77126" stroke="#7E4B18"><path d="M311.623 130.857s-8.515 20.361-.903 22.041l7.607 1.671-.347 2.019s12.296-16.938-6.357-25.731zM318.086 156.481s4.294-13.086-6.36-25.729"/></g><g fill="#FDE611" stroke="#7E4F19"><path d="M341.592 138.43s-19.041-.805-17.159 8.167l1.884 8.959-1.679.461s18.003 6.342 16.954-17.586zM324.766 156.093s11.744-.765 16.953-17.592"/></g><g fill="#F29F1F" stroke="#5E3016"><path d="M334.51 120.008s-16.54 11.308-10.983 17.746l5.55 6.428-1.223 1.451s18.099-5.947 6.655-25.625zM327.996 145.612s9.644-8.041 6.654-25.621"/></g><g fill="#F29F1F" stroke="#5E3016"><path d="M303.359 156.014s-8.517 20.365-.902 22.041l7.604 1.669-.344 2.019s12.298-16.94-6.358-25.729zM309.824 181.636s4.292-13.086-6.358-25.729"/></g><g fill="#FDE611" stroke="#7E4F19"><path d="M333.9 180.853s-16.985-10.325-18.445-1.243l-1.453 9.072-1.686-.428s14.083 14.819 21.584-7.402zM312.405 188.388s10.92 5.226 21.582-7.402"/></g><g fill="#E77126" stroke="#7E4B18"><path d="M320.944 155.168s-16.54 11.308-10.986 17.746l5.554 6.427-1.223 1.453s18.101-5.947 6.655-25.625zM314.433 180.772s9.644-8.043 6.652-25.621"/></g></svg>