<?xml version="1.0" encoding="utf-8"?>
<!-- Generator: Adobe Illustrator 18.0.0, SVG Export Plug-In . SVG Version: 6.00 Build 0)  -->
<!DOCTYPE svg PUBLIC "-//W3C//DTD SVG 1.1//EN" "http://www.w3.org/Graphics/SVG/1.1/DTD/svg11.dtd">
<svg version="1.1"
	 id="svg2" xmlns:dc="http://purl.org/dc/elements/1.1/" xmlns:cc="http://web.resource.org/cc/" xmlns:rdf="http://www.w3.org/1999/02/22-rdf-syntax-ns#" xmlns:svg="http://www.w3.org/2000/svg" xmlns:sodipodi="http://sodipodi.sourceforge.net/DTD/sodipodi-0.dtd" xmlns:inkscape="http://www.inkscape.org/namespaces/inkscape" inkscape:version="0.45.1" sodipodi:version="0.32" sodipodi:docname="baronchon_palm_trees_1.svg" sodipodi:docbase="/Users/johnolsen/Desktop" inkscape:output_extension="org.inkscape.output.svg.inkscape"
	 xmlns="http://www.w3.org/2000/svg" xmlns:xlink="http://www.w3.org/1999/xlink" x="0px" y="0px" viewBox="0 0 871.3 774.1"
	 enable-background="new 0 0 871.3 774.1" xml:space="preserve">
<sodipodi:namedview  inkscape:cy="1407.3522" inkscape:cx="670.91609" inkscape:zoom="0.36597938" borderopacity="1.0" bordercolor="#666666" pagecolor="#ffffff" id="base" inkscape:window-y="22" inkscape:window-x="0" inkscape:window-height="756" inkscape:window-width="1275" inkscape:current-layer="layer3" inkscape:document-units="px" inkscape:pageshadow="2" inkscape:pageopacity="0.0">
	</sodipodi:namedview>
<g id="layer3" transform="translate(-616.70441,-1102.9109)" sodipodi:insensitive="true" inkscape:label="palmtree_02" inkscape:groupmode="layer">
	<g id="g3078" transform="translate(-83.205947,-62.97694)">
		<g id="g16793">
			<path id="path7953" sodipodi:nodetypes="cccccccscccccccccccccccccc" fill="#435705" d="M1118.4,1808.6
				c-0.1,11.8-8.9,40.3-10.9,43.8c1.1,0.3,2.3,0.6,3.4,0.9c-2.7,2.6-3.7,6.5-6,8.5c-0.2,2.5,0,4.8,0.9,7.3c-3.3,3.3-6,7.2-8.1,12
				c3.1-0.6,5.2,0.7,6.8,2.1c-1,6.3-0.4,12.2,0.4,18.4c1.5,11.8-4.7,20.5-4.7,30.7c2.7-2.1,5.4-4.3,8.1-6.4
				c0.6,4.5,3.1,8.2,5.6,10.7c0.8-3,2.5-5.3,5.6-6.6c2.3,1.7,5,2,7.7,1.5c0-3.8,0.6-8.2,1.7-11.5c1.5,1.1,2.9,1.6,4.7,1.7
				c-1.5-2.7-0.7-5.3-1.3-8.1c1.7,0.3,3.4,0.6,5.1,0.9c-1.5-10.5-6.7-20.5-8.5-29.9c2.5,4.2,6.2,6.9,10.7,8.5
				c-1-3.3-0.6-7.1-0.9-10.7c-1.6-3.8-3.1-7.7-4.7-11.5c2.8,2.1,5.7,4.3,8.5,6.4c-0.5-13.4-11-35.6-12.4-42.8c0.9,0.8,2.4,1.7,3.3,2
				c-4.3-8.3-9.1-18.1-11-29.2L1118.4,1808.6z"/>
			<path id="path3571" sodipodi:nodetypes="csssccssscc" fill="#3F3124" d="M1418.9,1909.4c-34.9-14.3-67.1-22.7-104.8-25.4
				c-29.2-2.1-65.9-3.4-97.7-10.4c-27.7-6.2-59-13.9-80.7-29.3c-14.1-10-23-27.3-34.5-41c6.3-0.7,12.6-1.3,18.9-2
				c-3.5,18.7,26.4,41.3,36.5,45.6c28.3,12,103.3,23.4,126.3,23.4c22,0,55.3,0.5,82,5.9c32.6,6.6,63.8,20,95.7,30
				C1449.6,1907.9,1434.1,1909.6,1418.9,1909.4z"/>
			<path id="path16126" sodipodi:nodetypes="csssccsssc" fill-opacity="0.2616" d="M1394.1,1898.9c-35-11.1-76.2-16.9-115.2-18.1
				c-39.2-1.2-74.4-9.3-109.7-21c-20.8-6.9-38.6-17-49.8-32.7c-2.9-4-6.4-8.3-8.8-13.1l4.9-2c2.3,4.2,5.2,9.1,8.1,12.9
				c10.5,13.7,28.8,25.8,46.2,31.4c37.7,12.1,78.6,21.7,118.9,21.7C1325.6,1878.1,1358,1884.5,1394.1,1898.9z"/>
			<path id="path7954" sodipodi:nodetypes="cssccccccccsscc" fill="#212E05" d="M1114.1,1797c-0.2-4.7-3-29.7,4.8-36.3
				c22.7-19,37.9,8.4,42.3,15.7c1.2,2,5.1,10.6,5.9,13.2c-0.8-0.3-1.2-0.3-2-0.4c0.5,2.8,2.1,10.9,2.1,16.6
				c-0.9-1.8-1.2-2.8-2.2-3.9c0.4,1.6,0.5,3.1,0.4,4.1c-0.6,0.8-1.8,1.1-3.2,1.4c-3.6-2.2-8.6-7.1-11.3-11.9
				c-0.5,1.4-0.8,2.1-1.2,4.1c-2.5-2.6-5-5-6.7-10.8c-1.9-6.5-12.3-14.4-17.8-11.5c-2.3,1.2-10.3,5.9-8.5,20L1114.1,1797z"/>
			<path id="path7957" sodipodi:nodetypes="cccccccc" fill="#2D481C" d="M1113.1,1819.2c-0.7-1.2,8.9-4.9,9.5-4
				c2.3-3.5,1-13-2.3-17.9c-2.8-0.9-0.3-2.7-4.7-7.8c-2.8,0.9-7.6,1.2-12,0.1c-3.7,4.2-5.7,9.1-6,14.5c0,3.4,0,6.8,0,10.2
				C1102.5,1815.6,1108.5,1819.2,1113.1,1819.2z"/>
			
				<linearGradient id="path7956_1_" gradientUnits="userSpaceOnUse" x1="1659.7324" y1="-276.481" x2="1672.2233" y2="-270.4669" gradientTransform="matrix(1.2734 0 0 -0.7853 -1000.045 1597.5675)">
				<stop  offset="0" style="stop-color:#1F381A"/>
				<stop  offset="1" style="stop-color:#1F381A;stop-opacity:0"/>
			</linearGradient>
			<path id="path7956" sodipodi:nodetypes="csccscccccccscc" fill="url(#path7956_1_)" d="M1118.1,1799.4
				c-13.7,0.9-52.8,3.1-63.4,6.2c-34.4,10.1-54.9,34.5-59.1,41.6c1.4,0.6,3.4,0.5,4.9,0.2c-0.6,4.4-4.6,8.3-4.1,13.4
				c0.5,4.8,2,9.4,3,14.1c6-3.4,10.2-7.9,13.7-12.8c2.3,1,5.2,1.1,8.1,0.4c1.3-4.2,4.3-7.1,7.7-9.4c3.3,1.1,6.8,0.9,9.8,0
				c2.5-5.3,5.6-10.2,10.7-14.1c5.6,1.7,11.1-1.7,16.7-1.3c2.6-3.7,2.1-8.6,6.4-12.4c11.2-9.9,27.1-17.1,44.8-22.2L1118.1,1799.4z"
				/>
			
				<linearGradient id="path12305_1_" gradientUnits="userSpaceOnUse" x1="1975.4497" y1="416.6995" x2="1978.8606" y2="411.6068" gradientTransform="matrix(0.8121 0 0 -1.2313 -493.6569 2306.6511)">
				<stop  offset="0" style="stop-color:#6C7B16"/>
				<stop  offset="1" style="stop-color:#6C7B16;stop-opacity:0"/>
			</linearGradient>
			<path id="path12305" sodipodi:nodetypes="csccccccccccccccc" fill="url(#path12305_1_)" d="M1115.4,1798.6
				c-1.8-10.7,0.3-18-3.4-28.6c-1.9-5.5-7.3-9.2-10.9-10c-0.7,0.9-1.6,1.6-2.8,1.9c-1.4-0.6-2.7-1.1-4.1-1.7c-2,1.6-4,3.5-5.3,5.8
				c0.1,0.9,0.3,1.7,0.4,2.6c1.4,0.5,2.9,0.5,4.1,0.2c-1,1-2.3,1.4-3.6,1.5c0,0.9,0,1.7,0,2.6c1.3,0.3,2.6,0.6,3.8,0.9
				c0.2,0.9-0.2,1.8-0.9,2.6c2,0.7,4.2,1.1,6,1.4c1.4,1.9,3.2,6.7,3.6,8.6c1.2,0.6,2.4,1.1,3.6,1.7c3.1,3.9,4.3,7.9,5.8,12.2
				L1115.4,1798.6z"/>
			
				<linearGradient id="path7952_1_" gradientUnits="userSpaceOnUse" x1="2019.0237" y1="498.7573" x2="2022.6904" y2="509.0701" gradientTransform="matrix(0.7495 0 0 -1.3341 -424.9332 2470.136)">
				<stop  offset="0" style="stop-color:#627524"/>
				<stop  offset="1" style="stop-color:#627524;stop-opacity:0"/>
			</linearGradient>
			<path id="path7952" sodipodi:nodetypes="csccccccccccccccccccccccc" fill="url(#path7952_1_)" d="M1109.8,1802.6
				c-7.6,6.7-25.1,19.5-32.2,27.6c-7.1,8.1-21.5,23.3-26.5,25.8c2.1-0.3,4.3-0.6,6.4-0.9c-1.4,4.4-3.9,8-7.3,11.5
				c2.4-0.2,4.9-0.9,6.8-3c-1.4,6.8-3.5,13.7-7.3,20.1c6.3-2.7,11.3-6.1,15.8-10.2c0,0-5.3,11.2-9.4,16.2c1.9,1.9,3,11.8,6,16.7
				c0.3,5.2,0.6,9.1,0.9,13.7c4.5-7.7,7.9-15.5,10.2-23.9c1.4,1.3,2.8,2.6,4.3,3.8c-0.1-2.6-0.3-5.1-0.4-7.7
				c2.7-2.3,6.3-4.8,9.4-4.3c0.6-2.7,0.2-5.1-0.9-7.7c2.6-0.9,5.1-1.7,7.7-2.6c1.4-4.2,3.1-6.8,6.4-9.8c-0.3-3.3-1-5.5-2.1-8.5
				c2.5-1.8,4-3.8,5.1-6.4c-1.5-3.6-3.4-9.7-4.7-14.9c3.3-0.1,6-0.8,8.5-2.6c-2.1-3.8-2.2-5.1-4.3-9c2.4-9.3,6.5-16.7,13.5-23.5
				L1109.8,1802.6z"/>
			
				<linearGradient id="path7955_1_" gradientUnits="userSpaceOnUse" x1="1882.2761" y1="279.3704" x2="1890.0259" y2="274.4229" gradientTransform="matrix(0.893 0 0 -1.1198 -582.4866 2129.2944)">
				<stop  offset="0" style="stop-color:#586413"/>
				<stop  offset="1" style="stop-color:#586413;stop-opacity:0"/>
			</linearGradient>
			<path id="path7955" sodipodi:nodetypes="cssccccccccc" fill="url(#path7955_1_)" d="M1115.2,1801.1c-6.5-8.3-11.9-20.6-19.6-24.8
				c-14.4-7.7-26.8-1.6-30.8,11.5c-3.3,10.7,1.9,38.2,12.4,49.6c4.2-4.8,8.2-10.3,10.7-16.7c-2.7-4.4-2.6-9.4-2.1-14.1
				c0.7,4.5,2.8,7.5,5.1,9c0.7-3.3,1.4-6.5,2.1-9.8c2.2-0.2,5.1,0.5,6.6,1.5c2.2-2.2,4.1-5.7,5-8.4c1.8,0.4,5.7,1.7,8.5,3.5
				L1115.2,1801.1z"/>
			
				<linearGradient id="path13564_1_" gradientUnits="userSpaceOnUse" x1="1861.7928" y1="211.1608" x2="1862.4825" y2="213.7542" gradientTransform="matrix(0.9408 0 0 -1.063 -634.8888 2038.9728)">
				<stop  offset="0" style="stop-color:#626F17"/>
				<stop  offset="1" style="stop-color:#626F17;stop-opacity:0"/>
			</linearGradient>
			<path id="path13564" fill="url(#path13564_1_)" d="M1116.9,1810l-0.4,2.3l-4.2,2.2l3.8,1.2l1,3.5l3.4-2.7l-2.1-3.4L1116.9,1810z"
				/>
			
				<linearGradient id="path13565_1_" gradientUnits="userSpaceOnUse" x1="1705.3726" y1="-153.3844" x2="1701.3098" y2="-152.0641" gradientTransform="matrix(1.1923 0 0 -0.8387 -911.0813 1682.4182)">
				<stop  offset="0" style="stop-color:#626F17"/>
				<stop  offset="1" style="stop-color:#626F17;stop-opacity:0"/>
			</linearGradient>
			<path id="path13565" fill="url(#path13565_1_)" d="M1118,1810.4l6.2,3l3.3,2.8l3.1-3.1l-1.8-4.1l-1.9,2.3l-3.6-4.1L1118,1810.4z"
				/>
			
				<linearGradient id="path14251_1_" gradientUnits="userSpaceOnUse" x1="1916.0927" y1="315.1551" x2="1913.9868" y2="313.2357" gradientTransform="matrix(0.8804 0 0 -1.1358 -568.6003 2154.8694)">
				<stop  offset="0" style="stop-color:#5B6618"/>
				<stop  offset="1" style="stop-color:#5B6618;stop-opacity:0"/>
			</linearGradient>
			<path id="path14251" fill="url(#path14251_1_)" d="M1120.1,1802.6l-1.8-4.3l-3.4-2.3l1.9-1.1l-0.8-4.2l1.9-1.2l3.8,3.2l0.6-0.3
				l2.9,3.9l-3.3,1.8l-1.1,4.7L1120.1,1802.6z"/>
			
				<linearGradient id="path13566_1_" gradientUnits="userSpaceOnUse" x1="1856.6697" y1="210.8018" x2="1853.9407" y2="206.8672" gradientTransform="matrix(0.9494 0 0 -1.0533 -644.3868 2023.5748)">
				<stop  offset="0" style="stop-color:#69790B"/>
				<stop  offset="1" style="stop-color:#69790B;stop-opacity:0"/>
			</linearGradient>
			<path id="path13566" fill="url(#path13566_1_)" d="M1116.4,1807.6l0.1-3.3l-1.9-0.7l0.9-1.4l3.7-2.1l2.2,0.7l-2.8,2.2l1.2,0.3
				L1116.4,1807.6z"/>
			
				<linearGradient id="path13567_1_" gradientUnits="userSpaceOnUse" x1="1767.4362" y1="12.0001" x2="1763.7582" y2="11.9063" gradientTransform="matrix(1.0831 0 0 -0.9233 -791.1313 1816.9243)">
				<stop  offset="0" style="stop-color:#626F17"/>
				<stop  offset="1" style="stop-color:#626F17;stop-opacity:0"/>
			</linearGradient>
			<path id="path13567" fill="url(#path13567_1_)" d="M1118.8,1806.5l5.1,2.1l1-1.1l0.4-3.2l-3-1.3l-1.2,1.8L1118.8,1806.5z"/>
			
				<linearGradient id="path13568_1_" gradientUnits="userSpaceOnUse" x1="1880.5436" y1="256.4345" x2="1880.8142" y2="259.2356" gradientTransform="matrix(0.9079 0 0 -1.1014 -598.8071 2100.1453)">
				<stop  offset="0" style="stop-color:#728120"/>
				<stop  offset="1" style="stop-color:#728120;stop-opacity:0"/>
			</linearGradient>
			<path id="path13568" sodipodi:nodetypes="cccccccc" fill="url(#path13568_1_)" d="M1110.5,1814.5l-3.1,3.6l-2.2,2.7l4.3,1.6
				l2.2-3.2l-1.1-1.2l0.6-0.7L1110.5,1814.5z"/>
			
				<linearGradient id="path13569_1_" gradientUnits="userSpaceOnUse" x1="1588.1949" y1="-511.97" x2="1592.5161" y2="-513.7527" gradientTransform="matrix(1.4397 0 0 -0.6946 -1182.656 1453.3234)">
				<stop  offset="0" style="stop-color:#6F8010"/>
				<stop  offset="1" style="stop-color:#6F8010;stop-opacity:0"/>
			</linearGradient>
			<path id="path13569" fill="url(#path13569_1_)" d="M1111,1810.5l-4.2-0.6l-1.5,2l-0.9-1.8l-5.7-2.1l4.2-1.9l2.2,2.6l4.4-0.7
				L1111,1810.5z"/>
			
				<linearGradient id="path13570_1_" gradientUnits="userSpaceOnUse" x1="1900.2261" y1="294.3615" x2="1903.5131" y2="292.6609" gradientTransform="matrix(0.889 0 0 -1.1249 -578.0467 2137.3916)">
				<stop  offset="0" style="stop-color:#626F17"/>
				<stop  offset="1" style="stop-color:#626F17;stop-opacity:0"/>
			</linearGradient>
			<path id="path13570" fill="url(#path13570_1_)" d="M1109.6,1806.6l2.3,3.3l2.2-0.9l0.6-2.7l-2.5-0.5l-0.9-2.6L1109.6,1806.6z"/>
			
				<linearGradient id="path13571_1_" gradientUnits="userSpaceOnUse" x1="1725.287" y1="-96.6196" x2="1721.9452" y2="-95.8268" gradientTransform="matrix(1.1521 0 0 -0.868 -866.8717 1729.0258)">
				<stop  offset="0" style="stop-color:#54610E"/>
				<stop  offset="1" style="stop-color:#54610E;stop-opacity:0"/>
			</linearGradient>
			<path id="path13571" fill="url(#path13571_1_)" d="M1120.3,1814.1l1.3,1.9l2.6-1.2l1.2-3l-3.5-1.7l-1.2,1.9l-0.6-1.3l-2.5,0.4
				L1120.3,1814.1z"/>
			
				<linearGradient id="path13572_1_" gradientUnits="userSpaceOnUse" x1="1791.7435" y1="72.4661" x2="1788.087" y2="71.1746" gradientTransform="matrix(1.0408 0 0 -0.9608 -744.738 1876.5197)">
				<stop  offset="0" style="stop-color:#738315"/>
				<stop  offset="1" style="stop-color:#738315;stop-opacity:0"/>
			</linearGradient>
			<path id="path13572" fill="url(#path13572_1_)" d="M1115.8,1808l2.5-3l1.5,1.9l1.6,1.7l-3.3,1.5l-0.5-1.8L1115.8,1808z"/>
			
				<linearGradient id="path13573_1_" gradientUnits="userSpaceOnUse" x1="1724.553" y1="-84.7549" x2="1724.553" y2="-83.3182" gradientTransform="matrix(1.1456 0 0 -0.8729 -859.8078 1736.7749)">
				<stop  offset="0" style="stop-color:#57621C"/>
				<stop  offset="1" style="stop-color:#57621C;stop-opacity:0"/>
			</linearGradient>
			<path id="path13573" fill="url(#path13573_1_)" d="M1113.7,1809.3l1.2,3.4l3.3-1.2l-1.9-2.1l-0.9,0.7L1113.7,1809.3z"/>
			
				<linearGradient id="path13574_1_" gradientUnits="userSpaceOnUse" x1="1744.9363" y1="-30.5542" x2="1746.1798" y2="-27.7748" gradientTransform="matrix(1.1055 0 0 -0.9045 -815.7696 1787.1267)">
				<stop  offset="0" style="stop-color:#626F17"/>
				<stop  offset="1" style="stop-color:#626F17;stop-opacity:0"/>
			</linearGradient>
			<path id="path13574" fill="url(#path13574_1_)" d="M1111.1,1811.9l0.3,4.8l2.1-0.1l2.5-2.2l1,0.5l-1.4-2.6L1111.1,1811.9z"/>
			
				<linearGradient id="path13575_1_" gradientUnits="userSpaceOnUse" x1="1830.0714" y1="167.6619" x2="1833.6462" y2="167.9801" gradientTransform="matrix(0.9728 0 0 -1.0279 -670.0977 1983.2648)">
				<stop  offset="0" style="stop-color:#4D5718"/>
				<stop  offset="1" style="stop-color:#4D5718;stop-opacity:0"/>
			</linearGradient>
			<path id="path13575" fill="url(#path13575_1_)" d="M1108.1,1810.9l0.5,2.5l4.6,0.4l0.5-3.6l-2.9-2.3L1108.1,1810.9z"/>
			
				<linearGradient id="path14877_1_" gradientUnits="userSpaceOnUse" x1="1457.0632" y1="-2204.2195" x2="1512.9545" y2="-2206.3093" gradientTransform="matrix(2.4702 0 0 -0.4048 -2314.0217 992.6359)">
				<stop  offset="0" style="stop-color:#8C6E53;stop-opacity:0"/>
				<stop  offset="0.15" style="stop-color:#8C6E53"/>
				<stop  offset="0.85" style="stop-color:#8C6E53"/>
				<stop  offset="1" style="stop-color:#8C6E53;stop-opacity:0"/>
			</linearGradient>
			<path id="path14877" sodipodi:nodetypes="csscssc" fill="url(#path14877_1_)" d="M1257.7,1871.1c23.1,0.6,46.3,0.1,69.2,2.8
				c21.2,2.5,41.3,6.7,62.1,11.7c14.5,3.5,29.8,9.2,44.1,14.2c-14.3-6.2-29.2-12.1-44.2-16.6c-19.5-5.9-41.1-9.3-62.1-10.7
				C1304,1871,1280.7,1871,1257.7,1871.1z"/>
		</g>
		<g id="g16748">
			<path id="path20836" sodipodi:nodetypes="cssccccccccccc" fill="#4F5F11" d="M1030.8,1572.7c2.8-7.1,3.5-13,2.4-17.1
				c-2.8-10.9-4.8-20.5-12-28c-4.2-4.4-12.9-6.6-17.8-6.1c-2.7,2.2-5.7,3.1-8.5,3.4c0.6,3.4,2.8,5.4,5.5,6.5
				c-0.9,2.1-2.2,3.4-3.8,4.8c0.2,3.5,0.5,7.1,0.7,10.6c1.6,0.8,3.2,1.6,4.8,2.4c-0.9,1.1-1.8,2.3-2.7,3.4c3.3,1.7,6.6,3.4,9.9,5.1
				c0,2.7,0,5.5,0,8.2c5.2,3.4,12.9,6.5,18.1,9.9L1030.8,1572.7z"/>
			<path id="path3352" sodipodi:nodetypes="cccccccccssc" fill="#3D4C00" d="M1028.7,1572.1c-24.7-0.2-128.7,8-142.8,13.9
				c-4.5-4.8-6.9-2.2-15.9,0.7c-3.7-1.8-6.2-7-7.2-10.9c2-2.6,3-4.9,4.2-6.6c-2-2-3.1-1.6-5.5-2.2c3-13,19.4-27.6,25.5-29.2
				c0.9,1.7,1.3,2.5,2.5,3.7c0-2.9,3-4.4,6.2-6.9c5.8-0.4,23.4-4,28.5-4.2c27.3-1,55.9-1.2,77.9,15
				C1014.2,1554.3,1020.3,1560.4,1028.7,1572.1z"/>
			<path id="path6858" sodipodi:nodetypes="csccccccccc" fill="#465313" d="M885.3,1593.2c9.1-14,32-21,67.8-25.5
				c35.8-4.5,70.2,7.4,70.2,7.4l-6.8,3.8c-26-0.2-50.3,5.8-71.4,15c-3.7-0.1-7.1,0.3-9.6,0.6c-0.5,2.3-1.5,3.8-3.2,5.5
				c-6.2,1.9-16.5,7.1-22.4,11c-4.6-1.9-9.4-4.4-13-7.5c-2.9,1-5.8,3.8-7.5,7.5C886.9,1605.6,885.9,1599.9,885.3,1593.2z"/>
			<path id="path3354" sodipodi:nodetypes="csscccccccscc" fill="#3B4510" d="M1032.2,1598.7c11.7,42.5,26.2,71.9,38,112.1
				c5.8,19.7,8.8,43.7,6.9,63.2c-1.5,15.5-5.9,33.9-12.8,48.7c-4.3-3-9.1-5.5-14.3-6.1c-4.3,4-9.1,6-14.3,6.8
				c-2.4-6.8-4.3-15.5-3.1-23.2c2.5-1.7,5.3-5.8,6.1-10.9c-3-2.3-5.6-9.7-5.5-15.7c4-5.6,5.1-12.2,6.1-20.5
				c-2.5-12.1-5.5-34.4-4.9-49.7c0.6-16.1-3.8-81.9-7.7-106.7L1032.2,1598.7z"/>
			<path id="path3362" sodipodi:nodetypes="csccccsscc" fill="#555F2B" d="M1029.4,1596.6c8.2,29.1,17.4,59.9,23.4,89.6
				c4.8,23.7,10.7,45,18.2,66.8c4.4,3.4,5.9,6.4,7.5,9.6c10.5,2.1,18.1,5.7,30.1,13.7c1.8-5.7,3.6-10.4,5.5-17.1
				c-6.6-17.3-12.9-34.7-19.8-51.9c-7.2-17.9-14-36-22.5-53.3c-7.7-15.5-24-39.1-34.2-52.8L1029.4,1596.6z"/>
			<path id="path3358" sodipodi:nodetypes="cssccccccccccccscc" fill="#3E4812" d="M1041,1598c26.6,15.9,53.9,31.8,78,50.7
				c15.5,12.2,32.6,30,43.3,46.7c13.2,20.8,21.9,40.8,30.4,63.1c-2.4,1.7-5.6,1.8-8.2,1.4c0.9,2.3,1.8,4.6,2.7,6.8
				c-6.2,8.6-9.8,19.1-13,29.4c-3,0.8-6.3,0.6-8.9-0.7c-2.6,2.4-3.6,5.1-4.1,8.2c-2.8-2.2-3.9-5.1-4.8-8.2c-3.1,0.7-4.9,2-6.8,4.8
				c-3.3-8-4.6-15.8-4.8-23.9c-2.3,1-5.2,1.4-7.5,0c0-10-3.1-16.5,1.4-25.3c-14.6-16.6-18.6-36.9-26.6-56.7
				c-11.1-12.4-21.3-20.6-30.7-34.2c-13-18.8-25.7-38.4-39.6-56L1041,1598z"/>
			<path id="path3569" sodipodi:nodetypes="ccsssccssssc" fill="#3F3124" d="M1469,1925.1c15.4,1.6,31.3,1.8,46.2,1.3
				c-52-34.5-89.8-75.5-147.8-103.5c-60.6-29.3-154.6-74.2-209-103.5c-18.9-10.2-83.1-62.3-95.9-83c-4.8-7.8-19.2-32-7-38.7
				c-12.9-12.5-22.1-20.4-33.2-30.6c6.9,22.6,18.4,56.2,31.1,75.2c16.2,24.2,32.2,35.5,55.5,54.4c24.2,19.6,49.7,38.2,76.8,53.4
				c59.5,33.4,128.4,67.1,183,92.5C1390,1852.2,1457,1903.2,1469,1925.1z"/>
			<path id="path6709" sodipodi:nodetypes="cssccccccssc" fill-opacity="0.4007" d="M1462.7,1910.4c-22.2-19.8-73.7-59.1-88-66.7
				c-37.8-20-134.1-61-204.4-104.5c-19.2-11.9-37.8-25.2-55.8-38.7c-14.4-12.5-28.8-24.9-43.2-37.4c-14.1-12.8-26.6-35-30.4-46.7
				c2-0.7,4-1.4,6-2c10.5,14,20.9,28,31.4,41.9c13,13.8,25.9,27.7,38.9,41.5c17.2,14.8,36.6,28.2,56.7,39.3
				c72.5,40.1,158.5,80.4,207.6,106.6C1407.5,1857.7,1444.4,1886.9,1462.7,1910.4z"/>
			<path id="path20834" sodipodi:nodetypes="csscccc" fill="#4C5D0C" d="M1033.7,1571.9c17.2-4.3,34.2-10.6,51.7-13
				c16.2-2.2,33-2,49.3-1c11.5,0.7,23.8,2.3,34.3,6.3l15,12.1l-154.6,12.6L1033.7,1571.9z"/>
			<path id="path17338" sodipodi:nodetypes="cccsccccccccc" fill="#51561A" d="M1014.6,1559.8c2.1,2.7,4.4,4.2,9.4,7
				c3.1-1.8,6.7-5.4,17.5-2.1c-0.4,2.7-0.9,4.2,0.6,6.6c2.5,4.1,3.2,6,5.6,10.1c5.3,4.7,10.6,9.5,15.9,14.2c0.8,6.2,0.1,12-2.9,16.7
				c-5.6,1.5-11.1,3.1-16.7,4.6c-5.2,1.6-11.2,6.6-15.7,12.1c-7.1-2-14.2-4-21.3-6c-7.3-7.8-14.7-15.6-22-23.4
				c8.4-9.1,12.4-18.4,12.8-29.5C1002,1565.1,1006.9,1561.5,1014.6,1559.8z"/>
			
				<linearGradient id="path3364_1_" gradientUnits="userSpaceOnUse" x1="1695.7086" y1="356.7451" x2="1716.9618" y2="358.9188" gradientTransform="matrix(1 0 0 -1 -699.9103 1938.8878)">
				<stop  offset="0" style="stop-color:#4F5E16"/>
				<stop  offset="1" style="stop-color:#4F5E16;stop-opacity:0"/>
			</linearGradient>
			<path id="path3364" sodipodi:nodetypes="csccccccccccccc" fill="url(#path3364_1_)" d="M1018,1573.4c-13.6,1.3-24.8,2.9-38.8,3.7
				c-13.7,0.8-30.9,1.5-44.5,1.1c-1.9,0.4-6.1,1.8-7.9,2.4c0.6,1.2,2,2,1.8,3.1c-2.4-1.2-3.5-1.1-4.5-1.7c-3.1,1.6-5.2,7.1-4.5,8.2
				c0.8-0.7,2-1.8,4-2.1c-1.9,0.8-3.4,2.3-4.2,3.8c1.6,1.8,10.2,2.2,12.4,5.1c1.4-1.1,1.9-2.5,1.7-4.1c1.1,1.8,1.2,2.8,1,4.6
				c4.3,0.5,8.5,0.4,13-0.2c17.2-7.5,48.2-17.3,65.3-20.2L1018,1573.4z"/>
			
				<linearGradient id="path3338_1_" gradientUnits="userSpaceOnUse" x1="1698.6096" y1="353.4718" x2="1714.4011" y2="361.9841" gradientTransform="matrix(1 0 0 -1 -699.9103 1938.8878)">
				<stop  offset="0" style="stop-color:#3D4616"/>
				<stop  offset="1" style="stop-color:#3D4616;stop-opacity:0"/>
			</linearGradient>
			<path id="path3338" sodipodi:nodetypes="cssccccccccccc" fill="url(#path3338_1_)" d="M1013.7,1575.5c-25,6.4-48,11.4-73.8,19.5
				c-28.7,9-49.3,18.3-74.5,38c-16.1,12.6-34.2,34.8-40.9,54.6c4,0.9,16.7-2.6,21-5.1c-0.3-2.3-0.3-4.7,0.2-7.9
				c2.7,3,7.4,2.4,11.6,1.4c5.6-3.6,12.5-7.1,19.8-8.9c8.1,0.7,15.3,0.1,23.2-1.4c3.9-5.5,9.4-9.5,16.4-13
				c11.3-2.6,25.7-10.8,36.9-14.9c1.4-6.4,11.6-17.5,19.1-23.4c6.3,2.7,14.6,1.7,21.9,0C995.7,1602.5,1004.3,1587.9,1013.7,1575.5z"
				/>
			
				<linearGradient id="path3356_1_" gradientUnits="userSpaceOnUse" x1="1725.9043" y1="313.6418" x2="1727.1178" y2="345.2798" gradientTransform="matrix(1 0 0 -1 -699.9103 1938.8878)">
				<stop  offset="0" style="stop-color:#435014"/>
				<stop  offset="1" style="stop-color:#435014;stop-opacity:0"/>
			</linearGradient>
			<path id="path3356" sodipodi:nodetypes="csscccccccccccccc" fill="url(#path3356_1_)" d="M1015.1,1599.4
				c-6.2,29.8-12.5,71.4-15,107.2c-1.8,24.7,0.5,51,4.9,74.9c2.9,15.4,8.4,28.7,16.9,43.2c3-2.5,5.9-5,8.9-7.5
				c1.6,2.6,3.4,3.7,5.5,4.8c1.1-4.2,2.7-6.4,5.5-8.9c0.1-13.9-0.9-25-5.6-29.3c2.8-1.5,2.2-3.1,4.3-4.9c-3.3-6.1,1.5-36.3,1.4-48.5
				c-3-4.6-5.9-9.1-8.9-13.7c2.8,0.3,6.9-0.8,8.9-3.4c0.3-6.4-0.4-12.3-2-18.4c-1.8-1.4-3.6-2.7-5.5-4.1c4.5-7.7,6-15.9,6.1-25.3
				c-9-24.5-13.7-35.9-18.4-66.7L1015.1,1599.4z"/>
			
				<linearGradient id="path3346_1_" gradientUnits="userSpaceOnUse" x1="1724.551" y1="307.7911" x2="1738.3173" y2="327.973" gradientTransform="matrix(1 0 0 -1 -699.9103 1938.8878)">
				<stop  offset="0" style="stop-color:#4F5F11"/>
				<stop  offset="1" style="stop-color:#4F5F11;stop-opacity:0"/>
			</linearGradient>
			<path id="path3346" sodipodi:nodetypes="csscccccsccccccccs" fill="url(#path3346_1_)" d="M996.6,1619.9
				c-16.2,23.6-31.7,47.8-46.5,72.4c-11.5,19.1-22.1,38.9-32.1,58.7c-2.9,5.8-5.3,11.3-6.8,18.4c2-0.7,4.2-0.7,6.1-2
				c-1.8,6.1-2.6,12.9-5.5,18.4c0.8,7.7,4.1,14.2,4.8,21.2c4,3.3,9.3,4.5,13.7,4.8c5.1-3.6,12.5-6.8,15.7-13.7
				c3.5-7.4,8.1-14.5,13-21.2c-2.1-5.2-2.8-10-2.7-15.7c1.6,2.9,4.3,7,7.5,7.5c2.7-5.5,3.8-11.6,8.2-16.4
				c7.1-17.3,13.1-35,17.1-53.3c4.6-4.9,6.3-11.2,12.2-18.2c2.8-12.1,7.1-28.6,12.4-37.8c-1.2-15.5-0.6-29.8,2-46.5
				C1009.4,1604.4,1002.3,1611.6,996.6,1619.9z"/>
			
				<linearGradient id="path3344_1_" gradientUnits="userSpaceOnUse" x1="1697.063" y1="330.6447" x2="1714.1863" y2="355.762" gradientTransform="matrix(1 0 0 -1 -699.9103 1938.8878)">
				<stop  offset="0" style="stop-color:#4D5721"/>
				<stop  offset="1" style="stop-color:#4D5721;stop-opacity:0"/>
			</linearGradient>
			<path id="path3344" sodipodi:nodetypes="cssccccccccccc" fill="url(#path3344_1_)" d="M1015.5,1580.7
				c-22.6,19.6-51.4,43.9-67.4,59.6c-12.6,12.3-45.9,64-51.2,75.8c-5.6,12.3-13.7,53.1-13,60.8c4.4,0.8,7.7,3.6,11.6,6.1
				c5.1-3.8,8.7-9.6,10.9-14.3c-2.4-4.3-2.8-8.7-2-13c5.2,0.6,12.6-2.6,17.9-5.1c2.2-8.5,9.2-23.3,11.3-32.6
				c4.8-2.3,12.5-1.7,17.2-3.9c2.2-9.1,5.2-18.2,9.6-26.6c11.8-4.4,18.8-19,25.3-19.1c1.4-8.9,7.1-16.9,14.3-23.9
				C998.1,1631.3,1002.5,1606,1015.5,1580.7z"/>
			
				<linearGradient id="path3350_1_" gradientUnits="userSpaceOnUse" x1="1697.3671" y1="328.7832" x2="1714.0312" y2="338.9268" gradientTransform="matrix(1 0 0 -1 -699.9103 1938.8878)">
				<stop  offset="0" style="stop-color:#404E09"/>
				<stop  offset="1" style="stop-color:#404E09;stop-opacity:0"/>
			</linearGradient>
			<path id="path3350" sodipodi:nodetypes="cscccccc" fill="url(#path3350_1_)" d="M1015.8,1589.8c-34.8,19.6-41.4,15.3-73.6,37.6
				c-7,4.8-39.6,36.2-43.9,43.7c3.6-2,8-2.6,10.9-6.1c0.5,2.7,2.2,4.5,4.1,5.5c3.6-4.7,8-7.3,13-8.9c6.4,0.5,14.3-2,21.2-4.1
				C968.3,1634.4,993,1612.4,1015.8,1589.8z"/>
			
				<linearGradient id="path3348_1_" gradientUnits="userSpaceOnUse" x1="1735.3296" y1="306.1344" x2="1745.6764" y2="331.9762" gradientTransform="matrix(1 0 0 -1 -699.9103 1938.8878)">
				<stop  offset="0" style="stop-color:#3B4A02"/>
				<stop  offset="1" style="stop-color:#3B4A02;stop-opacity:0"/>
			</linearGradient>
			<path id="path3348" sodipodi:nodetypes="cscccccccccscc" fill="url(#path3348_1_)" d="M1006.2,1612.4
				c-5.4,22.3-25.7,49.7-34.2,81.3c-8.4,31.6-11,65.2-10.9,88.8c3.4-2,6.8-4.1,10.2-6.1c-2.3,8-5.5,38.9-4.8,46.5
				c4.2,3.2,6.7,9.1,7.5,15.7c2.7,1.6,5.4,2.1,9.6,2c2.4-7.7,9.2-14.7,10.9-23.9c4.4-2.1,9.5-8.8,13.5-15.4
				c-2.2-8-4.8-16.3-4.6-24.2c1.8-1.6,3.6-3.2,5.5-4.8c-0.7-16.9,6.1-52.2,8.3-88.9s-6.3-68,2.6-88.7
				C1015.3,1600.5,1010.8,1606.4,1006.2,1612.4z"/>
			
				<linearGradient id="path3360_1_" gradientUnits="userSpaceOnUse" x1="1726.5441" y1="304.1651" x2="1702.8759" y2="330.7294" gradientTransform="matrix(1 0 0 -1 -699.9103 1938.8878)">
				<stop  offset="0" style="stop-color:#435302"/>
				<stop  offset="1" style="stop-color:#435302;stop-opacity:0"/>
			</linearGradient>
			<path id="path3360" sodipodi:nodetypes="cccccccccsscc" fill="url(#path3360_1_)" d="M1022,1590.6c18.6,21.5,36,38.9,47.1,64.1
				c2.4,12.9,3.1,25.4,2,37.6c3.9,4.7,8.1,9,13.7,10.9c-1.1,5-2.3,10-3.4,15c4.2,3.4,12.1,10.4,14.3,17.1c-3.5,6.9-5,13.2-5.5,21.9
				c7.1,2.8,33.5,16.1,39.6,21.9c4.8-3,8.5-7.6,10.2-13c-0.9-8.2-13.4-53-20.5-66.3c-9.3-17.7-24.1-35.9-36.3-51.7
				c-16.8-21.9-38.3-39-56.8-59.7L1022,1590.6z"/>
			
				<linearGradient id="path3342_1_" gradientUnits="userSpaceOnUse" x1="1756.9491" y1="329.9931" x2="1737.8696" y2="342.3153" gradientTransform="matrix(1 0 0 -1 -699.9103 1938.8878)">
				<stop  offset="0" style="stop-color:#4F5E16"/>
				<stop  offset="1" style="stop-color:#4F5E16;stop-opacity:0"/>
			</linearGradient>
			<path id="path3342" sodipodi:nodetypes="csscccccccccccccccccc" fill="url(#path3342_1_)" d="M1040.4,1590.5
				c22.8,5.2,47.1,6.7,68.3,15.7c25.9,11,50.6,27.3,73.1,44.4c12.8,9.8,21.9,24.1,32.8,36.2c-0.6,5.7,0.2,11.6,1.4,17.1
				c-3.2,1-6.4,0.9-9.6,0c-0.2,3.8,0.7,8,2,10.9c-2,3.2-5.3,4.8-8.2,6.1c1,5.2-1.1,8.8-0.7,13c-2.3,1.6-4.7,1.8-7.5,2.7
				c-1.1-3.2-0.8-7-2.7-10.2c-1.8-0.5-3.6-0.9-5.5-1.4c-5.4-8.5-5.6-16.6-13-26c-3.2-0.5-6.4-0.9-9.6-1.4
				c-4.7-5.9-9.3-12.1-11.6-19.1c-5.9-1.2-11.4-1-17.1,0c-3.4-8.2-6.8-16.4-10.2-24.6c-4.2,1.9-6.5,2.2-11,2.9
				c-6.8-7.7-15.7-20.5-19.8-28.9c-6.6-3.3-13.5-3.5-19.1-3.4C1063.9,1609.4,1051.1,1601.9,1040.4,1590.5z"/>
			
				<linearGradient id="path3340_1_" gradientUnits="userSpaceOnUse" x1="1762.9535" y1="323.2487" x2="1747.4967" y2="317.9354" gradientTransform="matrix(1 0 0 -1 -699.9103 1938.8878)">
				<stop  offset="0" style="stop-color:#465708"/>
				<stop  offset="1" style="stop-color:#465708;stop-opacity:0"/>
			</linearGradient>
			<path id="path3340" sodipodi:nodetypes="cssccccccccccccc" fill="url(#path3340_1_)" d="M1032.8,1576.2c26-4.6,37.2-7,63.4-9.8
				c29-3.1,62.7-5.9,90.8-1.9c19.9,2.8,48.9,10.4,67.8,18.6c-2.5,1.1-5,2.3-7.5,3.4c2.3,4.1,3.8,9.4,4.1,14.3
				c-12.4-3.4-24.4-4-36.5-3.9c-2.4,2.4-4.8,4.9-7.2,7.3c-4.6-0.3-7.8-1.7-10.8-3.4c-9.2,2.9-17.7,7.6-24.7,12.6
				c-8.4-2.6-16.9-5.2-25.3-7.8c-4.5,5.3-9.9,8.9-17.1,11.6c-2.2-3.5-4.5-7.1-6.7-10.6c-14.4,3-28.7,4.7-44.5,3.8
				c-10.6-11.3-27.4-21.9-43.3-28.1C1034.5,1580.2,1033.7,1578.2,1032.8,1576.2z"/>
			
				<linearGradient id="path2598_1_" gradientUnits="userSpaceOnUse" x1="1653.528" y1="196.8869" x2="1654.0544" y2="198.9602" gradientTransform="matrix(1.1212 0 0 -0.8919 -833.0035 1766.9939)">
				<stop  offset="0" style="stop-color:#3A4806"/>
				<stop  offset="1" style="stop-color:#3A4806;stop-opacity:0"/>
			</linearGradient>
			<path id="path2598" fill="url(#path2598_1_)" d="M1022.8,1587.8l-2.7,2.7l-4.6-0.7l1,3.6l3.1,2.9l6.5-2.7L1022.8,1587.8z"/>
			
				<linearGradient id="path2600_1_" gradientUnits="userSpaceOnUse" x1="1733.0378" y1="348.0035" x2="1730.985" y2="350.781" gradientTransform="matrix(1 0 0 -1 -699.9103 1938.8878)">
				<stop  offset="0" style="stop-color:#546909"/>
				<stop  offset="1" style="stop-color:#546909;stop-opacity:0"/>
			</linearGradient>
			<path id="path2600" fill="url(#path2600_1_)" d="M1029.8,1587.4l2.9,9.2l4.6-2.7l-4.3-3.4l2.9-2.2L1029.8,1587.4z"/>
			
				<linearGradient id="path2602_1_" gradientUnits="userSpaceOnUse" x1="1849.9529" y1="555.8841" x2="1846.4653" y2="556.107" gradientTransform="matrix(0.8379 0 0 -1.1934 -521.9709 2246.4009)">
				<stop  offset="0" style="stop-color:#4F5F11"/>
				<stop  offset="1" style="stop-color:#4F5F11;stop-opacity:0"/>
			</linearGradient>
			<path id="path2602" fill="url(#path2602_1_)" d="M1025,1585.2l4.3,3.6l-1.4-4.8l5.1,0.7l-2.9-7.2L1025,1585.2z"/>
			
				<linearGradient id="path2604_1_" gradientUnits="userSpaceOnUse" x1="1599.9233" y1="92.4694" x2="1605.6354" y2="87.8382" gradientTransform="matrix(1.2182 0 0 -0.8209 -939.4206 1654.1643)">
				<stop  offset="0" style="stop-color:#5B700E"/>
				<stop  offset="1" style="stop-color:#5B700E;stop-opacity:0"/>
			</linearGradient>
			<path id="path2604" fill="url(#path2604_1_)" d="M1018.5,1580.6l-4.8,3.1l-6.3-1.7l3.9-3.6l-2.7-2.2l8.2,1L1018.5,1580.6z"/>
			
				<linearGradient id="path2606_1_" gradientUnits="userSpaceOnUse" x1="1763.6503" y1="430.9594" x2="1756.3879" y2="422.3515" gradientTransform="matrix(0.9528 0 0 -1.0495 -648.1274 2017.5873)">
				<stop  offset="0" style="stop-color:#5D6931"/>
				<stop  offset="1" style="stop-color:#5D6931;stop-opacity:0"/>
			</linearGradient>
			<path id="path2606" fill="url(#path2606_1_)" d="M1020.9,1575.5l5.3-6.8l1.9-7.2l3.9-2.9l2.4,7.7l3.1,1.4l-6,1.2l2.7,1.4l-8,2.4
				l-3.1,4.1L1020.9,1575.5z"/>
			
				<linearGradient id="path2608_1_" gradientUnits="userSpaceOnUse" x1="1727.7572" y1="362.7538" x2="1723.5308" y2="359.0104" gradientTransform="matrix(1 0 0 -1 -699.9103 1938.8878)">
				<stop  offset="0" style="stop-color:#677F0D"/>
				<stop  offset="1" style="stop-color:#677F0D;stop-opacity:0"/>
			</linearGradient>
			<path id="path2608" fill="url(#path2608_1_)" d="M1022.3,1579.6l2.9-7.7l5.1,2.2l7,0.2l-4.1,2.7L1022.3,1579.6z"/>
			
				<linearGradient id="path2610_1_" gradientUnits="userSpaceOnUse" x1="1725.0576" y1="352.5864" x2="1720.0399" y2="356.077" gradientTransform="matrix(1 0 0 -1 -699.9169 1938.8783)">
				<stop  offset="0" style="stop-color:#63712E"/>
				<stop  offset="1" style="stop-color:#63712E;stop-opacity:0"/>
			</linearGradient>
			<path id="path2610" fill="url(#path2610_1_)" d="M1023.5,1580.4l-5.8,2.4l1.4,3.4l3.4,3.1l4.1-1l-3.1-2.4l2.9-1.7L1023.5,1580.4z
				"/>
			
				<linearGradient id="path2612_1_" gradientUnits="userSpaceOnUse" x1="1705.4417" y1="361.0826" x2="1707.1542" y2="354.6808" gradientTransform="matrix(1.0086 0 0 -0.9915 -709.3337 1925.3579)">
				<stop  offset="0" style="stop-color:#556A07"/>
				<stop  offset="1" style="stop-color:#556A07;stop-opacity:0"/>
			</linearGradient>
			<path id="path2612" fill="url(#path2612_1_)" d="M1004,1567.3l6.5,3.6l2.2-2.7l0.5,5.6l5.1,1.7l-0.2-2.9l-0.7-6.3l-6.5-2.4
				l-1-2.4L1004,1567.3z"/>
			
				<linearGradient id="path2614_1_" gradientUnits="userSpaceOnUse" x1="1799.5195" y1="512.4167" x2="1798.5887" y2="508.8319" gradientTransform="matrix(0.8853 0 0 -1.1295 -574.0031 2144.8323)">
				<stop  offset="0" style="stop-color:#617612"/>
				<stop  offset="1" style="stop-color:#617612;stop-opacity:0"/>
			</linearGradient>
			<path id="path2614" fill="url(#path2614_1_)" d="M1016.3,1571.9l5.8-1.9l0.7-5.1l-3.4-1.9l-0.5,3.9l-3.1-2.7L1016.3,1571.9z"/>
			
				<linearGradient id="path2616_1_" gradientUnits="userSpaceOnUse" x1="1746.1688" y1="346.9224" x2="1740.2517" y2="349.4583" gradientTransform="matrix(1 0 0 -1 -699.9103 1938.8878)">
				<stop  offset="0" style="stop-color:#647912"/>
				<stop  offset="1" style="stop-color:#647912;stop-opacity:0"/>
			</linearGradient>
			<path id="path2616" fill="url(#path2616_1_)" d="M1038.7,1590.5l7.5,7l5.1-1.4l-0.2,3.6l6-1.4l-2.2-8.2l-6.5,1.4l-4.8-1.9
				l1.2-1.4L1038.7,1590.5z"/>
			
				<linearGradient id="path2618_1_" gradientUnits="userSpaceOnUse" x1="1742.9258" y1="340.754" x2="1738.0956" y2="342.4446" gradientTransform="matrix(1 0 0 -1 -699.9103 1938.8878)">
				<stop  offset="0" style="stop-color:#4F5F11"/>
				<stop  offset="1" style="stop-color:#4F5F11;stop-opacity:0"/>
			</linearGradient>
			<path id="path2618" fill="url(#path2618_1_)" d="M1038.7,1594.1l1.4,5.8l4.1-0.5v4.1l4.8-0.2l1-4.6l-4.3-4.6H1038.7z"/>
			
				<linearGradient id="path2620_1_" gradientUnits="userSpaceOnUse" x1="1854.9054" y1="536.8864" x2="1851.8302" y2="540.4" gradientTransform="matrix(0.8377 0 0 -1.1937 -521.7283 2246.9016)">
				<stop  offset="0" style="stop-color:#4F5F11"/>
				<stop  offset="1" style="stop-color:#4F5F11;stop-opacity:0"/>
			</linearGradient>
			<path id="path2620" fill="url(#path2620_1_)" d="M1030,1599.2l-0.2,10.9l2.9-1.9l3.9,4.8l2.9-2.9L1030,1599.2z"/>
			
				<linearGradient id="path2622_1_" gradientUnits="userSpaceOnUse" x1="1819.4447" y1="492.4667" x2="1814.7971" y2="499.4319" gradientTransform="matrix(0.8723 0 0 -1.1464 -559.6797 2171.6904)">
				<stop  offset="0" style="stop-color:#586E07"/>
				<stop  offset="1" style="stop-color:#586E07;stop-opacity:0"/>
			</linearGradient>
			<path id="path2622" fill="url(#path2622_1_)" d="M1025.2,1597.7l-3.9,5.1h2.7l-0.7,6l3.9-1.7l2.7-5.1L1025.2,1597.7z"/>
			
				<linearGradient id="path2624_1_" gradientUnits="userSpaceOnUse" x1="1766.936" y1="404.3405" x2="1760.8131" y2="407.831" gradientTransform="matrix(0.9487 0 0 -1.0541 -643.5722 2024.8849)">
				<stop  offset="0" style="stop-color:#5B6E12"/>
				<stop  offset="1" style="stop-color:#5B6E12;stop-opacity:0"/>
			</linearGradient>
			<path id="path2624" fill="url(#path2624_1_)" d="M1026.2,1590.7v6h3.6v3.9l6.8,2.2l0.5-4.8L1026.2,1590.7z"/>
			
				<linearGradient id="path2630_1_" gradientUnits="userSpaceOnUse" x1="1723.9326" y1="374.4336" x2="1728.5588" y2="376.5092" gradientTransform="matrix(0.9775 0 0 -1.023 -675.2359 1975.4393)">
				<stop  offset="0" style="stop-color:#5E6C25"/>
				<stop  offset="1" style="stop-color:#5E6C25;stop-opacity:0"/>
			</linearGradient>
			<path id="path2630" fill="url(#path2630_1_)" d="M1014.4,1586.3l-5.3,1.7l1,1.7l-5.3,2.2l2.2,2.7l3.1,2.7l1.9-4.1l3.1-2.2
				L1014.4,1586.3z"/>
			<path id="path2632" fill="none" d="M1014.3,1586.4l-5.3,1.7l1,1.7l-5.3,2.2l2.2,2.7l3.1,2.7l1.9-4.1l3.1-2.2L1014.3,1586.4z"/>
			
				<linearGradient id="path2628_1_" gradientUnits="userSpaceOnUse" x1="1923.4321" y1="656.0432" x2="1923.2889" y2="661.7645" gradientTransform="matrix(0.7493 0 0 -1.3346 -424.6335 2470.9104)">
				<stop  offset="0" style="stop-color:#647522"/>
				<stop  offset="1" style="stop-color:#647522;stop-opacity:0"/>
			</linearGradient>
			<path id="path2628" fill="url(#path2628_1_)" d="M1016.3,1586.6l-3.6,6.5l1.2,1l1,6.3h5.3l0.2-5.3l-2.7-3.4L1016.3,1586.6z"/>
			<path id="path5088" sodipodi:nodetypes="cscsc" fill="#4D5F00" d="M1012.3,1612.4c-7.5,30.6-17.5,60.8-22.6,91.8
				c-3.7,22-4.7,44.7-3.8,67c0.3-22.3,1.5-45.2,5.2-67.5C996.1,1673.1,1005.4,1642.9,1012.3,1612.4z"/>
			<path id="path6332" sodipodi:nodetypes="cscsc" fill="#4F5E16" d="M1050,1618.4c20.6,22.1,42,43.9,56.2,69.4
				c11,19.8,15.4,43.9,19.3,66.4c-2.7-22.5-6.9-47.3-17.8-67C1093.4,1661.7,1071.4,1639.6,1050,1618.4z"/>
			<path id="path6333" sodipodi:nodetypes="cscsc" fill="#4F5F11" d="M1010.8,1557.8c-9.8-9.9-29.6-21.2-48.5-20.9
				c-27.6,0.4-53.8,12.7-75.6,29c21.8-17.4,48.3-30,75.7-30.3C980.6,1535.4,1001.6,1547,1010.8,1557.8z"/>
			<path id="path6334" sodipodi:nodetypes="cscsc" fill="#5E6F16" d="M1047.9,1578.9c33.2-6,68.1-12.2,102-12.4
				c27.8-0.2,57.4,5.4,83.3,11.3c-25.7-6.9-55.2-12.5-82.8-12.4C1116.3,1565.7,1080.8,1571.9,1047.9,1578.9z"/>
			<path id="path2920" sodipodi:nodetypes="cscsc" fill="#555F2B" d="M989.6,1583.8c-24.1,5.7-54,13.1-76.7,23.9
				c-21.8,10.4-45.3,26.2-56.8,40.9c12.2-14.3,35.5-29.7,57.5-40.2C936.2,1597.7,965.9,1590.3,989.6,1583.8z"/>
			<path id="path4163" sodipodi:nodetypes="cscsc" fill="#586712" d="M996.8,1602.7c-15.2,7.5-31,15.7-45,25.7
				c-9.7,6.9-18.1,16-26,24.8c8.4-8.2,17.2-16.7,26.9-23.5C966.7,1619.6,982.1,1610.7,996.8,1602.7z"/>
			
				<linearGradient id="path4835_1_" gradientUnits="userSpaceOnUse" x1="1688.5963" y1="-272.4962" x2="1819.0436" y2="-391.648" gradientTransform="matrix(1.337 0 0 -0.7479 -1069.9479 1538.1121)">
				<stop  offset="0" style="stop-color:#C1AA95;stop-opacity:0.3294"/>
				<stop  offset="0.15" style="stop-color:#C1AA95"/>
				<stop  offset="0.85" style="stop-color:#C1AA95"/>
				<stop  offset="1" style="stop-color:#C1AA95;stop-opacity:0.4784"/>
			</linearGradient>
			<path id="path4835" sodipodi:nodetypes="csscssc" fill="url(#path4835_1_)" d="M1134.2,1705.7c16.7,10.2,33.7,20.4,51,29.5
				c31.5,16.4,185.8,89.5,213.9,107.8c24.1,15.7,46.2,33,68.3,50.6c-22.8-16.8-49.4-38.5-69.6-49.7c-43.6-24.2-173.9-86.4-213-106.9
				C1167.7,1727.9,1150.2,1716.4,1134.2,1705.7z"/>
		</g>
		<g id="g4785">
			<path id="path3609" sodipodi:nodetypes="cssccccccccccc" fill="#3D4C00" d="M1027.5,1316.9c41.2,25.2,80.1,33,112.6,66.2
				c26.3,26.9,42.9,62.4,53.2,97.4c2.9,9.8,7.5,36.5,7.3,48c-1.8-5-3.7-11.3-5.7-16.6c2.8,14.3,2.4,41.1-3.3,58.9
				c-3.7-6-4.4-12.1-5.2-19.5c-3.9,2.8-7.8,5.6-11.7,8.5c1.1-3.8,2-10,0.7-15.6c-6.3,2-12.6,3.9-18.9,5.9
				c-3.6-10.3-5.5-20.7-5.2-31.3c-6-2.4-10.4-3-16.3-2.6c-3.7-13.1-8.4-48-9.6-71.8C1105.3,1394.1,1069.5,1368.4,1027.5,1316.9z"/>
			<path id="path3567" sodipodi:nodetypes="ccssssscccssssssc" fill="#3F3124" d="M1513.9,1938.1c20.9,2.2,31.4,2.6,57.3,0.7
				c-22.4-23.8-40.7-47.3-59.1-72.1c-42-56.7-98.8-116.2-157.1-164.9c-64-53.4-128.6-102.1-191.4-151.7
				c-39.6-31.3-69.2-75.9-96.4-117.9c-10.6-16.5-15.6-38.4-16.9-57.3c-0.7-9.7,7.4-19.1,11.1-28.7c-8-6.5-16.1-13-24.1-19.5
				c-14.5,6.1-29.1,12.2-43.6,18.2c12.6,19.5,26.4,38.4,37.8,58.6c6.9,12.2,7.6,27.1,15.5,38.6c22.1,32.4,43.8,67,72,94.9
				c32.5,32.3,71.4,58.5,105.8,88.4c20.1,17.4,39.6,34.6,60.1,51.6c43,35.8,83,71.5,121.8,109.4
				C1453.2,1832.1,1495.3,1884.7,1513.9,1938.1z"/>
			
				<linearGradient id="path6857_1_" gradientUnits="userSpaceOnUse" x1="2156.1509" y1="151.8234" x2="2143.7275" y2="136.3234" gradientTransform="matrix(1 0 0 -1 -699.9103 1938.8878)">
				<stop  offset="0" style="stop-color:#9D7B5D"/>
				<stop  offset="1" style="stop-color:#9D7B5D;stop-opacity:0"/>
			</linearGradient>
			<path id="path6857" sodipodi:nodetypes="ccccc" fill="url(#path6857_1_)" d="M1437.5,1780.4c-4.1-2.4-20.4,11.2-17.5,16
				c9.5,10.2,19,20.3,28.5,30.5c-3.1-4.8,13.3-18,18.5-13.5C1457.2,1802.4,1447.3,1791.4,1437.5,1780.4z"/>
			
				<linearGradient id="path3195_1_" gradientUnits="userSpaceOnUse" x1="2030.6255" y1="257.1529" x2="2023.0339" y2="245.7326" gradientTransform="matrix(1 0 0 -1 -699.9103 1938.8878)">
				<stop  offset="0" style="stop-color:#876B3D"/>
				<stop  offset="1" style="stop-color:#876B3D;stop-opacity:0"/>
			</linearGradient>
			<path id="path3195" sodipodi:nodetypes="ccccc" fill="url(#path3195_1_)" d="M1320.5,1674.4c-5.5-4.8-22.2,10.8-15.2,18
				c8.3,7.8,17.7,15.4,26.5,22.8c-4.4-5.2,7.9-23.2,14.5-19.5C1337.1,1688.4,1329.7,1681.7,1320.5,1674.4z"/>
			
				<linearGradient id="path2287_1_" gradientUnits="userSpaceOnUse" x1="2117.6929" y1="185.8877" x2="2100.9429" y2="172.6377" gradientTransform="matrix(1 0 0 -1 -699.9103 1938.8878)">
				<stop  offset="0" style="stop-color:#897757"/>
				<stop  offset="1" style="stop-color:#897757;stop-opacity:0"/>
			</linearGradient>
			<path id="path2287" sodipodi:nodetypes="ccccc" fill="url(#path2287_1_)" d="M1377.1,1755.8c-4-4.6,12.4-22.5,16.9-18.4
				c13.2,12.7,26.7,25.3,39.5,38c-3.4-2.8-21.1,13.1-17.7,17.4C1403,1780.3,1388.4,1769.2,1377.1,1755.8z"/>
			
				<linearGradient id="path4085_1_" gradientUnits="userSpaceOnUse" x1="1998.4327" y1="279.4832" x2="1992.4897" y2="270.552" gradientTransform="matrix(1 0 0 -1 -699.9103 1938.8878)">
				<stop  offset="0" style="stop-color:#AC8849"/>
				<stop  offset="1" style="stop-color:#AC8849;stop-opacity:0"/>
			</linearGradient>
			<path id="path4085" sodipodi:nodetypes="ccccc" fill="url(#path4085_1_)" d="M1315.2,1670.9c-5.7-3.8-19.2,13.6-15.7,16.7
				c-7.3-4.9-17.7-13.6-26.2-21.5c-4-3.8,10.6-20.3,14.1-17.8C1296.7,1655.5,1305.9,1662.8,1315.2,1670.9z"/>
			
				<linearGradient id="path4087_1_" gradientUnits="userSpaceOnUse" x1="1969.1587" y1="305.9144" x2="1960.4967" y2="295.3079" gradientTransform="matrix(1 0 0 -1 -699.9103 1938.8878)">
				<stop  offset="0" style="stop-color:#C0A178"/>
				<stop  offset="1" style="stop-color:#C0A178;stop-opacity:0"/>
			</linearGradient>
			<path id="path4087" sodipodi:nodetypes="ccccc" fill="url(#path4087_1_)" d="M1281.8,1644c-4.1-1.2-15.8,13.3-13.1,17.3
				c-8.3-7.6-16.8-13.8-25-21.4c-1.9-3,10.7-16.8,14.3-14.9C1265.9,1631.5,1273.7,1637.6,1281.8,1644z"/>
			
				<linearGradient id="path4089_1_" gradientUnits="userSpaceOnUse" x1="1939.5402" y1="328.9015" x2="1932.6393" y2="322.3397" gradientTransform="matrix(1 0 0 -1 -699.9103 1938.8878)">
				<stop  offset="0" style="stop-color:#A57839"/>
				<stop  offset="1" style="stop-color:#A57839;stop-opacity:0"/>
			</linearGradient>
			<path id="path4089" sodipodi:nodetypes="ccccc" fill="url(#path4089_1_)" d="M1237.2,1634.5c-1.9-2.4,10.8-15.5,13.9-14.4
				c-7.2-6.2-15.2-11.9-22.4-18.1c-4.2-2-15.6,11-14.7,13C1221.4,1621.8,1229.7,1627.9,1237.2,1634.5z"/>
			
				<linearGradient id="path5972_1_" gradientUnits="userSpaceOnUse" x1="1798.2578" y1="478.9851" x2="1824.7578" y2="447.4851" gradientTransform="matrix(1 0 0 -1 -699.9103 1938.8878)">
				<stop  offset="0" style="stop-color:#000000;stop-opacity:0.4318"/>
				<stop  offset="1" style="stop-color:#000000;stop-opacity:0"/>
			</linearGradient>
			<path id="path5972" sodipodi:nodetypes="cscccc" fill="url(#path5972_1_)" d="M1049.1,1356.5c-0.4,18.2,3.2,46.4,11.2,64.4
				c4.3,9.7,39,61.2,55.6,81.5l-78.5-70l-21-85L1049.1,1356.5z"/>
			<path id="path2870" sodipodi:nodetypes="cccccccccc" fill="#253D06" d="M1004.4,1269.6l-42.7,11.8l-1.2,40.2l15.5,47.7l38.7,21.1
				c6.1-22.4,30.6-20,36.2-40.1l1.9-32.3l13.6-32.8l-15.5-13L1004.4,1269.6z"/>
			<path id="path3587" sodipodi:nodetypes="cssccccccccccccccccccccccccccccccccccccc" fill="#52630D" d="M962.8,1299.3
				c-27.8,5.2-55.5,11.1-83.3,15.7c-50.7,8.2-95.2,22.9-125.2,44.7c-22.3,16.2-50.8,47.4-53.9,53.9c-1.5,9.4,1.6,18.1,0.5,27.2
				c2.5-8.3,2.6-17.9,7.4-24.9c-0.8,6.1-1.5,12.3-2.3,18.4c4.9-6.7,6.4-15.3,9.7-23c0.5,6.6,0.1,12.4,1.1,18.7
				c1.7-4.4,3.6-19.3,5.9-27.9c3.1,6,4.6,31.8,4.6,31.8c3.5-12.1,5.6-24.6,10.6-36.4c-2,9.9-1,17.2,0.9,25.3
				c0.4-6.7,2.1-11.8,5.5-17c0.5,5.4,2.6,10,5.1,14.3c1.5-9.8,1.4-19.8,4.6-29.5c0.8,6.8,1.5,13.5,2.3,20.3
				c3.5-7.7,8.1-14,13.4-20.7c-1.8,7.4-2.4,13.8-1.4,20.7c3.8-9.2,7.7-18.4,11.5-27.6c-1.5,7.2-2.1,13.5-1.8,20.3
				c4.6-8.4,6.4-17.6,11.1-25.8c-0.8,7.8-1.2,14,0.9,20.7c4.9-8.1,10.7-14.4,17.5-21.6c1.7,6.6,3.4,13.2,5.1,19.8
				c3.5-11.6,10.3-19.5,18.9-28.5c-2.5,7-0.9,13.3,0,18.9c3.3-10.6,8-18.2,14.7-27.6c0,8.1,0,16.3,0,24.4
				c4.5-9.4,8.9-18.7,13.4-28.1c-2.4,8.7-3.6,15.7-3.7,22.1c2.9-9.7,10.4-16.1,12.9-26.2c-0.8,9.9,3.1,18.4,4.6,27.6
				c2.8-10.7,7.1-20.2,13.4-29.9c0.2,4.6,0.3,9.2,0.5,13.8c2.9-7.7,11.4-13.7,14.3-21.4c0.1,11.4,5.8,12.8,11.5,20
				c0.8-8.3,9.1-29.3,15.2-36c8.9-4.3,29.3-17.5,33.1-20.7L962.8,1299.3z"/>
			
				<linearGradient id="path3611_1_" gradientUnits="userSpaceOnUse" x1="1715.4072" y1="661.6473" x2="1696.8306" y2="626.3516" gradientTransform="matrix(1 0 0 -1 -699.9103 1938.8878)">
				<stop  offset="0" style="stop-color:#3D4C00"/>
				<stop  offset="1" style="stop-color:#3D4C00;stop-opacity:0"/>
			</linearGradient>
			<path id="path3611" sodipodi:nodetypes="ccccccccccccccccccccccc" fill="url(#path3611_1_)" d="M995.6,1282.4
				c-2.6-10.1-11.4-16.6-13.7-27.3c2.6,0,5.2,0,7.8,0c-1.3-7.2-2.6-14.3-3.9-21.5c5-4.6,10-2.6,15-3.9c-0.1-8.6,0.4-21.1-2.6-28.7
				c9.2-5.8,13.2-3.4,22.1-2.6c5.1-11.7,18.4-19.7,22.1-29.3c11.2-2.7,22.5-5.9,35.5,0.7c-3.4,3.8-3.8,6.9-3.3,12.4
				c7.7-2.7,28.8-0.9,40.7,13c-5.6,0.2-11.6-1.5-16.9,0.7c3.3,4.8,6.5,9.6,9.8,14.3c-4.3,3-8.7,6.1-13,9.1c-0.7,3.9-1.3,7.8-2,11.7
				c-9.8,3.5-18.6,10.5-29.3,10.4c4.2,3,7.2,7.4,7.8,13c-8.2,4.8-15.8,11.8-24.7,14.3c-2.8,7.9-10.2,9-12.4,16.9
				c-8.9,2.8-16.2-8.4-22.8-5.2l-5.2,16.9l-16.9-3.3L995.6,1282.4z"/>
			
				<linearGradient id="path3613_1_" gradientUnits="userSpaceOnUse" x1="1661.7446" y1="662.2078" x2="1691.2446" y2="631.7078" gradientTransform="matrix(1 0 0 -1 -699.9103 1938.8878)">
				<stop  offset="0" style="stop-color:#556905"/>
				<stop  offset="1" style="stop-color:#283008"/>
			</linearGradient>
			<path id="path3613" sodipodi:nodetypes="ccccccccccccccccccccccccc" fill="url(#path3613_1_)" d="M995.6,1292.5
				c-7.8-11.1-31.6-17.6-39.4-28.7c-7.2,2-22.8-3.6-24.1,1.6c-5.8-5.5-16.1-7.1-20.8-10.9c0,0,2.6-9.8,0-11.1
				c-2.3,2.3-2.4,1.4-9.8,5c-10.4-4.4-7.9-4.3-16-9.4c5.2-5.7,5.9-7.3,12-12.5c-8.2,2.4-10.5,7.5-20.5,7.3
				c-3.1-6.8-5.3-13.9-7.2-20.6c-6.4-0.3-8.8,0-16.6,0.9c-1.8-7.3-2.1-9.5-3.9-17.3c-5.5-3.5-11.8,0.7-16.5-0.7
				c0.3-3.6,0.7-6.9,1.9-11c2.4-1.9,10.6-6,16.2-7c1-3.3,1.6-5.8,2.4-9.2c7.6,3.5,42.1,7.7,58.4,19.3c0.4,3.9,1.1,11.5,2,16.6
				c1.6-3.7,1.6-7.4,2.9-10.7c3.3,2.1,14.8,4.6,18.2,7.8c-2.6,4.3-3.3,6.1-3.9,8.5c2.2-2.2,4.1-4.2,6.5-5.5
				c13.2,7.8,40.5,41.3,53.7,49.2c3.7,10.6,6.4,11.7,10.1,22.3L995.6,1292.5z"/>
			
				<linearGradient id="path3615_1_" gradientUnits="userSpaceOnUse" x1="1741.1586" y1="627.5701" x2="1708.3398" y2="618.5913" gradientTransform="matrix(1 0 0 -1 -699.9103 1938.8878)">
				<stop  offset="0" style="stop-color:#3D4C00"/>
				<stop  offset="1" style="stop-color:#3D4C00;stop-opacity:0"/>
			</linearGradient>
			<path id="path3615" sodipodi:nodetypes="csssccccccccccccsc" fill="url(#path3615_1_)" d="M996.9,1291.5
				c34.7-13.9,65.5-31.8,101-44.4c32.9-11.7,70.5-20.4,104.8-23.3c33.7-2.8,89.3,16.9,103.5,24.7c14.4,8,29.2,18.2,40.4,29.3
				c-11.9,1.5-23.9,4.7-35.8,4.6c-17-9.1-31-21.3-48.2-30.6c7.4,6.7,14.8,13.5,22.1,20.2c-14.6-8.2-28.3-16-39.7-26
				c2.8,8.5,8.7,16.9,11.7,25.4c-11.9-7.2-25.3-13.2-35.8-21.5c0.1,5.9,1.9,11.5,4.6,17.6c-5.7-1.7-11.6-5.8-15-9.1
				c-5.9,2.1-11.5,5.6-16.3,9.8c-7.5-0.9-17.4,2.3-25.4,0.7c-0.7,3.9,0.8,8.3,2.6,11.7c-33.2-6.3-66.3-7.9-99-5.9
				C1046.9,1276.2,1022.1,1285.8,996.9,1291.5z"/>
			
				<linearGradient id="path3601_1_" gradientUnits="userSpaceOnUse" x1="1741.6284" y1="599.963" x2="1705.0942" y2="591.2938" gradientTransform="matrix(1 0 0 -1 -699.9103 1938.8878)">
				<stop  offset="0" style="stop-color:#465705"/>
				<stop  offset="1" style="stop-color:#465705;stop-opacity:0"/>
			</linearGradient>
			<path id="path3601" sodipodi:nodetypes="cssscccccccccccccccccccccccc" fill="url(#path3601_1_)" d="M1004.7,1296.7
				c18.4-8.5,36.6-17.7,55.3-25.4c20.2-8.3,38.9-11.9,65-12.3c36.4-0.6,67,18.3,89.1,41.8c14,14.8,23.9,40.4,25.7,56.5
				c-6.6-6.3-10.7-12.3-13.7-19.5c-4.2,4.3-6.8,9.5-7.8,15.6c-4-7-6.2-12.5-6.5-20.2c-2,8.4-2.6,10.4-3.9,15.6
				c-4-7.3-7.7-15.6-9.1-24.1c-2.1,9.4-5.8,17-10.4,23.4c-0.4-6.9-2.9-12-1.3-20.8c-7,6.5-5.6,12.2-8.5,18.2
				c-1.7-8.5-6-15.8-5.2-25.4c-3.3,5.9-6.5,11.7-9.8,17.6c-3-11.3-8.8-20.3-9.1-33.9c-2.8,9.1-7.5,17.8-8.5,27.3
				c-11-10.4-18.4-21.6-24.1-34.5c1.8,5.6,0.9,9.9,0,16.9c-7.9-1.6-13.4-4.2-21.5-9.8c-2.4,1.7-4.8,3.5-7.2,5.2
				c-6.9-3.5-11.2-8.5-13-18.2c-4.4,9.2-8.7,11.1-16.8,14.9c-5.2-0.6-8.4-0.8-11.8-2.2c2.2-6.7,0.4-7.4,1.7-14.2
				c-6.2,6.8-4,7.1-10.6,10.3c-7.8,0.7-29,1.1-36.8,1.7C1005.6,1299.7,1005.2,1298.2,1004.7,1296.7z"/>
			
				<linearGradient id="path3591_1_" gradientUnits="userSpaceOnUse" x1="1657.166" y1="619.9263" x2="1677.8069" y2="610.6379" gradientTransform="matrix(1 0 0 -1 -699.9103 1938.8878)">
				<stop  offset="0" style="stop-color:#475807"/>
				<stop  offset="1" style="stop-color:#475807;stop-opacity:0"/>
			</linearGradient>
			<path id="path3591" sodipodi:nodetypes="csccccccccccccccccccccccccccccc" fill="url(#path3591_1_)" d="M995.9,1285.5
				c-26.8-15.2-75.9-42.1-113.6-43.2c-40.1-1.1-80,12-93.5,21.1c7.5-0.4,14.4,0.6,21.2,2.3c-7.1,5.6-9.5,10.5-14.3,18.9
				c5.4-6.5,10.4-6.1,15.7-9.2c-1.5,5.4-6.6,8.7-7.8,14.7c6.5-2.1,10.3,0.5,17.5-1.4c-2.1,6.4-7.8,11.6-9.2,18.4
				c5.7-3,11.8-2.3,17-5.5c0.1,6,2.2,9,3.7,15.2c5.1-3.4,7.3-9.5,12-12.9c3.7,5.8,3.2,11.4,6.9,17.5c3.8-8.4,8.6-13.4,11.5-21.2
				c1.3,4.8,5.8,7.8,7.4,12.4c0.7-7.3,5.8-14.1,6.9-21.2c3,11.1,3,22,5.5,32.7c0.4-8.6,1.9-17.2,4.6-25.8c0.3,8.5,1.5,15.7,4.8,23.5
				c2.8-10,5.1-18.6,4.4-28.5c2.9,8.4,5.8,16.9,8.7,25.3c-0.2-6.3-0.3-12.6-0.5-18.9c2,4.3,4,8.6,6,12.9
				c-1.5-13.2-4.7-25.9-4.6-39.6c3.5,13.2,10.1,28.2,15.2,42.4c-1.8-10.9-2.1-21.3-3.9-32.2c1.7,1.4,3.2,1.7,3.7,2.5
				c2.9,8.6,7,14.2,14,22.3c0.6-5.2,2.6-10.4,6-14.3c3.2-0.9,41.1-4.7,46.7-4.6L995.9,1285.5z"/>
			
				<linearGradient id="path3593_1_" gradientUnits="userSpaceOnUse" x1="1665.0582" y1="636.5564" x2="1687.6471" y2="636.0564" gradientTransform="matrix(1 0 0 -1 -699.9103 1938.8878)">
				<stop  offset="0" style="stop-color:#516508"/>
				<stop  offset="1" style="stop-color:#516508;stop-opacity:0"/>
			</linearGradient>
			<path id="path3593" sodipodi:nodetypes="cssccscccccccccccc" fill="url(#path3593_1_)" d="M741.8,1299.3
				c9.1-4.8,46-19.5,79.1-26.7c18.2-4,59.4-6.1,78-4.3c31,2.9,58.4,9.1,89.3,14.9l-19.3,11.5c-22.3,2.3-40,5.9-61.9,11.1
				c-15.3,3.6-34.6,9.7-50,15.1c-3.7-6.4-9-11.9-11.1-19.3c-13.1,11.9-27.9,21.6-43.3,29.9c3.7-4.6,7.4-9.2,11.1-13.8
				c-6.1,1.7-12.3,3.4-18.4,5.1c2.9-6.3,5.8-12.6,8.7-18.9c-6,4-12,8-18,12c3.4-4.5,6.8-8.9,10.1-13.4c-10,4.4-19.6,12.4-30.8,16.1
				c2.8-2.9,5.5-5.8,8.3-8.7c-5.1,1.8-10.1,3.7-15.2,5.5C751.8,1311.4,750.2,1306,741.8,1299.3z"/>
			<path id="path3589" sodipodi:nodetypes="cssccccccccccccccccccccccccccccccccccccccccccc" fill="#3D4C00" d="M944.3,1332.5
				c-33.2,29-53.3,44.6-83.8,76c-13.4,13.8-48.3,58.6-56.6,76c-12.6,26.2-18.9,43.4-22.6,70.4c0.5,6.8,2.4,13.2,5.5,19.3
				c0.5-3.5,0.9-7.1,1.4-10.6c1.8,2.3,3.7,4.6,5.5,6.9c1.1-10.6-0.7-21.2,0-31.8c2.1,4.1,4.3,8.3,6.4,12.4c2.4-4.4,3.4-9.8,4.1-15.2
				c2.9,4.8,7.9,7.3,11.1,12.4c-1.9-7.4-2.5-14.7-1.8-22.1c4,4,8,8,12,12c-2.6-6.9-5.2-13.8-7.8-20.7c3.7,4.3,7.4,8.6,11.1,12.9
				c-1.1-4.9-1.6-9.6-1.4-15.2c4.5,5.4,7.9,10.4,11.1,16.6c-0.1-6.5-1.2-12.3-2.8-18.4c1.7,3.4,3.4,6.8,5.1,10.1
				c-2-7.8-4-15.7-6-23.5c3.6,5.9,9.8,9.2,14.7,13.8c-3.1-5.2-5.7-11.9-7.4-18.4c4,4.3,6.7,8.1,9.7,13.8c2-7.4,0.6-15.3,0.9-23
				c3.2,4,6.4,8,9.7,12c0.3-5.4-2.8-10.4-4.1-15.7c3.7,5.4,7.6,9.6,11.1,16.1c-2.8-12-6.6-24.1-11.1-35.5c5.3,6.9,8,15,12,22.6
				c-1-9.8-4-19.3-6-29c3.9,11,10.1,18.7,15.2,28.1c-1.1-4.5-2.1-8.9-3.2-13.4c3.7-1.1,6.2-1.1,9.7-0.5c-4.8-9.4-8-19.3-12-29
				c4.6,8,9.2,16,13.8,23.9c-0.3-5.5-0.6-11.1-0.9-16.6c3.2,0.8,6.4,1.5,9.7,2.3c0.3-3.7,0.6-7.4,0.9-11.1c4,1.2,8,2.5,12,3.7
				c-1.4-5.8-2.8-11.7-4.1-17.5c3.8,2.3,5.5,5.2,7.4,8.3c2.3-5.2,4.6-10.4,6.9-15.7c1.7,0.8,3.4,1.5,5.1,2.3
				c0.3-5.6-0.5-11,1.8-14.3c0.8-11.7,15.1-52.8,21.9-63.3L944.3,1332.5z"/>
			
				<linearGradient id="path3597_1_" gradientUnits="userSpaceOnUse" x1="1666.7374" y1="610.7056" x2="1664.8798" y2="636.0936" gradientTransform="matrix(1 0 0 -1 -699.9103 1938.8878)">
				<stop  offset="0" style="stop-color:#495A05"/>
				<stop  offset="1" style="stop-color:#495A05;stop-opacity:0"/>
			</linearGradient>
			<path id="path3597" sodipodi:nodetypes="csscccccccccccccccccccccc" fill="url(#path3597_1_)" d="M990.4,1303.5
				c-3.7,37.3-14.4,61-30.8,95.8c-12.6,26.7-27.3,62.4-33.6,96.7c-4.4,23.5,0.8,66.3,6.9,74.8c2.3-2,2.5-2.4,6.1-4.2
				c3,6.3,2.9,10.8,6.5,16c-0.5-5.3,1.4-8.2,2.2-11.5c1.4,2.4,12.8,26.3,12.8,26.3c1.8-5,2.3-9.5,5.5-15.3c2,9.4,7.2,11.9,11.8,19.9
				c-0.3-12.7-1.7-16.8,1.1-25.9c2.2,6.7,6.4,12,12,16.1c-3.1-10.1-6.1-20.3-9.2-30.4c7.3,6.7,15.6,11.7,24.9,16.1
				c-4.7-9.5-7.1-18.7-10.6-28.1c8,3.9,15.7,4.6,23.5,6.9c-1.7-7.4-7.2-39-12.4-51.1c5.4,0.4,8.9-2.5,13.4-3.7
				c-1.9-5.7-1.6-11.3-3.7-18c3.8,1.2,7.7,2.5,11.5,3.7c-1.1-8.7-1.3-17.5-3.2-26.2c2.5-5.4,4.9-10.7,7.4-16.1
				c-3.7-13.6-1.9-30.1-4.6-44.7c-10.1-7.7-30.9-57.9-27.6-93.9C996.8,1305.6,993.6,1304.6,990.4,1303.5z"/>
			<path id="path3145" sodipodi:nodetypes="cccccccccc" fill-opacity="0.1265" d="M1011.9,1373.2c1.6,15.4,2.9,31.3-1.8,47.4
				c4,8.2,6.1,11.8,8.8,20.6c-3.6,5.8-6.2,13.5-9.3,21.1c-0.7,9.8-1.6,23.2-9.1,32.5c2.9,5.2,5,10,7.9,15.2c-0.5-1.7-1-2.9-1.7-4.6
				c2.7,0.5,10.7-1.8,13.1-4.9l17-60.8C1028.6,1417.7,1020.9,1395.2,1011.9,1373.2z"/>
			<path id="path3874" sodipodi:nodetypes="cscsc" fill="#3D4C00" d="M995,1331.4c-1.3,20.8,3.3,43.3,0.5,64
				c-5.1,38.2-13,76-19.5,114c5.7-38.2,11.9-76.3,17-114.5C995.7,1374.3,992.8,1352.1,995,1331.4z"/>
			
				<linearGradient id="path2402_1_" gradientUnits="userSpaceOnUse" x1="1705.3499" y1="598.8121" x2="1715.6029" y2="621.5279" gradientTransform="matrix(1 0 0 -1 -699.9103 1938.8878)">
				<stop  offset="0" style="stop-color:#000000;stop-opacity:0.125"/>
				<stop  offset="1" style="stop-color:#000000;stop-opacity:0"/>
			</linearGradient>
			<path id="path2402" sodipodi:nodetypes="ccccccccccccccccccccccccccccccc" fill="url(#path2402_1_)" d="M984.9,1334.9
				c1.1,7.2,2.8,13,4.6,20c-2.8-0.5-5.7-1-8.5-1.5c1.3,6,2.7,12,5,18c-2.7-1.8-5.3-3.7-8-5.5c0.8,5.9,1.8,11.5,3.5,17.5
				c-1.8-0.5-3.7-1-5.5-1.5c0.6,3.4,4.1,7.7,5.5,10.8c-1.2,0.3-2.6-0.3-3.8,0c0.1,6.4,1.4,14.2-0.2,20.8c-4.8,3.4-5.2,4.4-9.7,10.2
				c2.8,8.6,4.2,20.7,5.7,28.8c-4.7,2.9-4.5,4.9-9.2,7.8c2.6,9.8,0,25,3.5,35c-3.4,1.7-9.5,6.8-13.8,5c-2.4,1.6-5.7,5.1-7.2,6.5
				c3.6,8,0.5,37.8,2,49.8c-2.1-0.8-7-1.8-8.7-3c-2,3.7-3.8,10.5-4.8,14.3c-0.9,0.6-1.7,1.3-2.3,2.1c-6-11.8-11.5-25.1-17.5-37
				c8.5-38.8,17-77.7,25.5-116.5c10.3-13.8,19.9-28,30.2-41.9l3.3-7.1l-9.5-28.5l11-23.5l9.2-11l3.8,9.5l-1.6,9.3
				c2.5,6,4.9,13.9,8.2,19.6C991.7,1339.9,988.7,1338.8,984.9,1334.9z"/>
			<path id="path3595" sodipodi:nodetypes="ccccccccccccccccccccccccccccccscc" fill="#55641A" d="M972.4,1313.6
				c-20.3,50.6-66.3,90.2-91.2,139.5c4.6-1.3,5.5,0.6,8.3,0.9c-9.6,11.4-18,24.3-23.9,36.8c1.5-0.2,3.1-0.3,4.6-0.5
				c-8.1,12.6-14,25.4-16.6,39.1c3.5,0.6,4.3,3.1,6.4,4.6c0.7,11.6-4.4,28.5-2.8,43.7c1.8-3.5,3.7-7.1,5.5-10.6
				c4.5,7.8,4.3,16.7,9.2,23.9c-0.1-5.6,3.1-9.6,6-13.4c3.7,4.1,2.3,10.6,6.9,13.8c-1.3-7.1,1.5-12.3,2.3-18.4
				c4.5,8.6,6.6,15.8,7.8,23c4.4,2,6,1.2,9.7,0.7c-0.2-4.1,0.6-6.8,0.9-10.4c3.2-0.4,5.1,2.7,8.3,2.3c2-4.1,2.1-7.8,6-12.4
				c2.3-1.1,4.6-2.1,6.9-3.2c-2.1-4.1-4.3-8.3-6.4-12.4c3.1,2.3,6.1,4.6,9.2,6.9c3.3-8.2-0.8-18.7,2.3-29.5c2.6,2,5.2,4,7.8,6
				c-2-12-0.8-24.4-6-35.9c3.7-3.1,6-7.3,11.1-9.2c6.8,2.7,10.4-2.5,15.7-3.7c-3.7-8.4-1.8-15.3-2.8-23c4.8-2.4,8.6-7.1,12.9-10.6
				c-0.6-12.4-13-30.7-12.4-41c5.5-3.1,5.5-8.6,15.2-12.9c2.1-11.7,1-24-4.6-39.1c-6.6-17.7,7.1-36.8,10.6-55.3L972.4,1313.6z"/>
			<path id="path3139" sodipodi:nodetypes="cscsc" fill="#404F04" d="M958.8,1357.5c-14.4,31.1-30.3,60.6-42.6,92.5
				c-10.2,26.4-16.8,55.3-24.9,82.6c8.8-27.1,16.3-54.7,26.5-81.3C930.1,1419.4,945.2,1388.7,958.8,1357.5z"/>
			<path id="path3141" sodipodi:nodetypes="cccccccccccccc" fill-opacity="0.1918" d="M937.5,1359.4l-18.9,44.2l5.4-8v12.2l8.5-11
				l3.8,15.2l4.8-10.2l7.8,7.5l9.2-27l5,6.8l4.2-9.4l4.8,0.6l-9.5-32.5L937.5,1359.4z"/>
			
				<linearGradient id="path3573_1_" gradientUnits="userSpaceOnUse" x1="1687.7736" y1="618.8688" x2="1705.7311" y2="636.2071" gradientTransform="matrix(1 0 0 -1 -699.9103 1938.8878)">
				<stop  offset="0" style="stop-color:#5A6C19"/>
				<stop  offset="1" style="stop-color:#5A6C19;stop-opacity:0"/>
			</linearGradient>
			<path id="path3573" sodipodi:nodetypes="cccccccccccccccccccccccccccccccccccccsc" fill="url(#path3573_1_)" d="M980.6,1288.9
				l3.3,9.1c-0.9,1.3-1.7,2.6-2.6,3.9c3.1,11.9,11.3,23.9,16.9,35.8c-5.9-9.8-11.7-19.5-17.6-29.3c2.9,14.8,10.4,26.9,15.6,40.4
				c-5.2-8-11.8-14.5-15.6-24.1c2.1,17.8,7.8,34.7,11.7,52.1c-5.8-8.7-13-15.2-19.5-22.8c6.4,13.3,7.2,25.2,14.3,37.8
				c-6.5-7.1-13.1-15.3-18.2-25.4c3.9,11.5,6.9,23.7,11.7,34.5c-6.3-10.6-12.2-21.4-16.9-34.5c2.6,13.9,4.3,27.8,7.8,41.7
				c-5.9-12.8-10-26.9-15-40.4c4,15.8,7,31.5,9.1,47.5c-4.3-13.7-9.1-25.6-15-38.4c2.7,14.7,2.6,30,3.9,44.9
				c-3-9.6-6.1-19.1-9.1-28.7c-0.4,11.3,0.5,22.8-1.3,33.9c-1.5-10.3-5-18-7.8-28c-1.2,8.9-3.2,17.2-6.5,25.4
				c0.1-9.1-0.8-17.8-2.6-26.7c-1,6.8-4.3,11.7-6.5,17.6c1.7-7.4,2.1-14.3,5.2-22.1c-5.3,4.1-7.4,9.6-11.1,14.3
				c-1.3-4.3-2.6-11.7-3.9-16.9c2.8-5.9,4.7-10.1,8.5-17.6c-3.5,4.3-6.5,9.6-10.4,13c2.6-9.8,4.1-19.1,7.8-29.3
				c-5.9,4.1-9.5,11.4-15.6,15c3.6-9.8,7.7-17.2,13.7-25.4c-4.5,3.8-9.5,6.4-15,7.8c3.6-6.1,8.2-11.7,14.3-17.6
				c-6.1,3.9-12.2,7.8-18.2,11.7c4.4-6.4,6.6-10.2,12.4-14.3c-5.4,2-10.9,3.9-16.3,5.9c10.6-11.6,26.4-28.3,46.5-39.8
				C948,1294.5,969.8,1290.6,980.6,1288.9z"/>
			<path id="path3585" sodipodi:nodetypes="cssccccccccccccc" fill="#37430D" d="M1031.8,1315c20.6,14.2,47.6,22.2,63.7,39.6
				c26.6,28.9,48,72.9,54.7,107.2c3.7,18.9,5.5,39.1,4.6,58.6c-2.5-2.4-2.7-9.6-6.4-16.9c-1.9,7.3-6.5,12.6-9.2,14
				c-8.7-16.8-15.7-33.6-20.5-52.7c0.6-20.7-4.3-42.1-6.5-63.2c-5.1,7-6.5,15.6-9.8,23.4c-3.4-11-3.7-17.5-1.3-29.3
				c-4.3,8.8-11,16.4-18.6,21.8c-0.2-9.2-2.1-16.7-0.7-27.7c-3.5,3.3-6.2,4.9-11.4,6.2c-3.5-14.6-5-28.1-3.6-42.3
				c-3.1,0.5-6.3,1.1-9.4,1.6C1052.2,1341.5,1043.3,1327,1031.8,1315z"/>
			<path id="path4081" sodipodi:nodetypes="cscsscscss" fill-opacity="0.3471" d="M1261.4,1653.5c-39.8-34.4-82.5-71.4-121.4-100.9
				c-28-21.3-50.2-51.8-71.8-80.5c25.3,27.6,46.8,54.4,74.7,76.6c44.9,35.7,101.7,78,149.5,119.1 M1292.4,1667.9
				c45.9,39.4,94.6,78.9,135.5,123.1c39.1,42.3,70.4,85.7,91.1,139.3c-26.6-59.9-67.9-101.9-112.1-147.4
				c-45.1-46.4-96.4-87-145.5-129.4"/>
			
				<linearGradient id="path3599_1_" gradientUnits="userSpaceOnUse" x1="1706.8956" y1="571.5615" x2="1697.0575" y2="603.9569" gradientTransform="matrix(1 0 0 -1 -699.9103 1938.8878)">
				<stop  offset="0" style="stop-color:#536702"/>
				<stop  offset="1" style="stop-color:#536702;stop-opacity:0"/>
			</linearGradient>
			<path id="path3599" sodipodi:nodetypes="cscccccccccccccccccccccccc" fill="url(#path3599_1_)" d="M1013.1,1337.4
				c19.1,45,60.4,105.6,77,151.5c9.8,27.2,14.7,56.2,18.2,84.9c-2.8,3.8-4.8,6.8-8.1,10.1c-0.7,3.6-1,7.4-0.7,10.3
				c-3.2,2.7-7.8,4.5-9.4,6c3.7,4.5,4.8,11.1,5.8,16.8c-4.4,1.5-8.3,3.1-12.4,7.4c-1.5,5.8-6.1,9.8-10.1,13.4
				c-0.6-5.9-4.7-10.9-7.4-14.3c-2,1.8-5.1,3.3-8.7,3.2c-0.4-5.4-5.4-13.5-6.9-18c-4.1-0.8-6.3-1.7-10.6-4.1
				c0.4-8.4,0.1-16-2.3-23.9c-4.2-1-7.1-0.6-12,0.5c2-6.4,4.7-13,8.7-18.4c-4.3-0.3-8.6-0.6-12.9-0.9c0.3-8.4-1-16.4,0.9-25.3
				c-3.4-3-6.5-4.4-11.5-8.3c3.8-5.2,5-8.8,5.1-12.9c-4.5-7.1-8.9-14.1-13.4-21.2c7.7-9,8.3-21.2,8.5-32.2c2.6-6.4,5.4-14.2,10.1-20
				c-2-8.8-5.4-13.3-8.8-21.4c3.9-19.1,3.8-58.2-4.4-80.8L1013.1,1337.4z"/>
			<path id="path3143" sodipodi:nodetypes="cscsc" fill="#3D4C00" d="M1021.1,1360.6c16.3,27.1,33.2,55.1,43.8,84.5
				c13.1,36.1,20.7,74,27.6,112.1c-8.1-38.5-16.5-76.2-29.7-112.4C1052.1,1415.5,1036,1388.7,1021.1,1360.6z"/>
			<path id="path10359" sodipodi:nodetypes="cscccscccccc" fill-opacity="0.1518" d="M1015.1,1343c9.4,20.4,21,40.3,31.2,59.2
				c8.5,15.9,17.5,31.8,26,47.6c-2.6-0.3-5-1.3-7.6-3.2c-1.1,5.2-2.2,9.3-5.8,13c-5.7-3.6-10.5-6-14-13c-3.3-6.6-0.2-21.9-1.4-33.1
				c-5.5-2.4-8.2-4.3-11.3-9.2c0.7-5.7,0.5-11.8-0.3-17.8c-5.6-5.6-10.9-9.6-17.4-13.3c-0.8-11.4-2.8-22.7-6.1-33.6L1015.1,1343z"/>
			
				<linearGradient id="path3603_1_" gradientUnits="userSpaceOnUse" x1="1729.198" y1="581.7614" x2="1705.8417" y2="585.4767" gradientTransform="matrix(1 0 0 -1 -699.9103 1938.8878)">
				<stop  offset="0" style="stop-color:#3D4C00"/>
				<stop  offset="1" style="stop-color:#3D4C00;stop-opacity:0"/>
			</linearGradient>
			<path id="path3603" sodipodi:nodetypes="csscccccccccccccccccccccccc" fill="url(#path3603_1_)" d="M1013.8,1303.2
				c21.5-0.9,61.9-3.8,82.7-0.1c54,9.6,81.3,19.4,127,47.9c21.4,13.3,49.5,46.1,61.1,68.1c-2.3-0.9-5-4.6-7.8-6.8
				c4.3,7.3,8.2,25,8.6,31.9c-4.3-4.1-7.3-5-11.9-5.6c0.7,8-0.9,14.8-3.9,21.5c-5.4-10.2-10.9-20.4-16.3-30.6c1.1,9.6,0.9,18-1.3,26
				c-7.8-21.1-19.3-37.9-23.4-63.2c0,13.5-2.8,18.2-5.2,27.3c-3.7-6.1-6.1-13.9-6.5-20.8c-6.9-0.6-12.8-3-20.8-9.1
				c-2.2,3.3-5.6,5.7-9.1,7.8c-4.8-9.1-11.7-17.6-18.9-25.4c-2.4,4.9-3.4,8.8-4.6,13.7c-3.5-6.1-6.9-12.2-10.4-18.2
				c-4.6,0.7-9.1,1.3-13.7,2c-0.2-6.7-0.4-13.5-0.7-20.2c-5,5.3-10.4,8.6-16.9,10.4c-5.6-9.3-13.6-19.1-21.5-26
				c-2.6,2.8-5.2,5.6-7.8,8.5c-2.9-9-3.7-18.1-3.3-27.3c-7.9,2.5-13.1,5.1-20.1,9.5c-8-3.1-38.6-13.7-51.5-16.1L1013.8,1303.2z"/>
			
				<linearGradient id="path3607_1_" gradientUnits="userSpaceOnUse" x1="1749.778" y1="589.8984" x2="1726.5571" y2="605.0693" gradientTransform="matrix(1 0 0 -1 -699.9103 1938.8878)">
				<stop  offset="0" style="stop-color:#465702"/>
				<stop  offset="1" style="stop-color:#465702;stop-opacity:0"/>
			</linearGradient>
			<path id="path3607" sodipodi:nodetypes="cssccccccccccccccccc" fill="url(#path3607_1_)" d="M1026.7,1317.8
				c46.7,24.1,105.6,49.1,149.9,76.6c18.9,11.8,33.9,29.5,49.5,45.6c10.9,11.3,20,24.3,30,36.5c-4,4.5-8.7,6.4-13,7.8
				c-1.3-1.3-2.6-2.6-3.9-3.9c-2.2,2.7-3.6,3.3-7.4,4.4c-1.9-3.2-3.7-6.4-5.6-9.6c-0.5,4.2-1,6.3-1.8,9.8c-3.6,1.3-9.7,1.1-14.1-0.3
				c-0.1-7.6-0.7-15.1-2.2-22.5c-0.4,7.7-0.6,14.4-3.2,20.9c-4.1-0.6-13.2-4.4-17-6.5c-0.4-8.4,1.1-15.2-0.9-22.8
				c-5.8,0.1-9.3,0.1-16.3-1.1c-2.5-5.1-3.4-22.2-3.1-29.6c-2.4,5.3-4,10.4-4.6,16.3c-16.9-14.1-25.8-25.5-31.3-37.8
				c-6.5-3.6-11.2-3.5-18.2-3.9C1091,1371.8,1059.8,1342.9,1026.7,1317.8z"/>
			
				<linearGradient id="path3605_1_" gradientUnits="userSpaceOnUse" x1="1743.3792" y1="606.6653" x2="1717.7898" y2="618.4241" gradientTransform="matrix(1 0 0 -1 -699.9103 1938.8878)">
				<stop  offset="0" style="stop-color:#465311"/>
				<stop  offset="1" style="stop-color:#465311;stop-opacity:0"/>
			</linearGradient>
			<path id="path3605" sodipodi:nodetypes="csscccccccccccc" fill="url(#path3605_1_)" d="M1024.9,1305.2
				c35.8,7.1,72.4,14.5,106.1,28c34,13.6,68.7,30.9,97,53.4c20.5,16.3,37.8,41.2,49.5,63.2c-1.7,5.9-3.5,11.7-5.2,17.6
				c-4.7-0.3-9-1.2-13-4.6c-5.4,0.4-10.9,0.9-16.3,1.3c-5.9-10.5-8.5-26.6-3.9-37.1c-2.8,4.8-9.6,6.8-13,7.8
				c-1.7-5.2-3.5-10.4-5.2-15.6c-3.8,1.2-9.2,0.9-14.3-2c-1.9-6.6-7.4-12.8-13-16.9c-2.8,1.3-5.6,2.6-8.5,3.9
				c-47.3-36.3-99.4-66.9-158.9-91.8C1025.8,1309.9,1025.3,1307.6,1024.9,1305.2z"/>
			
				<linearGradient id="path3583_1_" gradientUnits="userSpaceOnUse" x1="1704.6891" y1="605.8105" x2="1685.2341" y2="625.4755" gradientTransform="matrix(1 0 0 -1 -699.9103 1938.8878)">
				<stop  offset="0" style="stop-color:#4C5E04"/>
				<stop  offset="1" style="stop-color:#4C5E04;stop-opacity:0"/>
			</linearGradient>
			<path id="path3583" sodipodi:nodetypes="csscccsccccccccccc" fill="url(#path3583_1_)" d="M1009.3,1298
				c7.5,3.9,19,11.8,25.9,19.8c14.6,17,31.4,42,38.6,65.2c7.5,24.3,10.7,40.4,13.3,65.7c-6.8-5.8-11.1-12-15-20.8
				c-1.4,6.1-3.7,8.7-6.2,12.7c-3.2-2.4-8.7-7.5-8.6-14.7c0-7.7,3.7-15.9,3.3-23.8c-5.9-2-9.1-4.3-12.9-8.8c1.6-4.9,3.4-9.3,4.8-16
				c-4.5-5.8-10.3-9.3-16.9-11.9c-1.4-3.5-2.9-6.9-4.3-10.4c-0.6-5,0.7-9.9,1-14.9c-1.4,4.8-2.8,9.4-4.1,14.4
				c-8.3-4.2-17-8.2-18.6-12.4c-2.4,1.5-11,2.8-13.4,4.3c-0.1-9.9,8.1-26.4,6.8-41.8L1009.3,1298z"/>
			
				<linearGradient id="path4083_1_" gradientUnits="userSpaceOnUse" x1="1906.1434" y1="366.1454" x2="2252.9082" y2="33.6229" gradientTransform="matrix(1 0 0 -1 -699.9103 1938.8878)">
				<stop  offset="0" style="stop-color:#A68363;stop-opacity:0"/>
				<stop  offset="0.1" style="stop-color:#A68363;stop-opacity:0.4286"/>
				<stop  offset="0.5" style="stop-color:#A68363"/>
				<stop  offset="0.9" style="stop-color:#A68363;stop-opacity:0.6039"/>
				<stop  offset="1" style="stop-color:#A68363;stop-opacity:0"/>
			</linearGradient>
			<path id="path4083" sodipodi:nodetypes="cscsc" fill="url(#path4083_1_)" d="M1545.6,1913c-39-52.6-83.5-106-130-154.2
				c-33.9-35.2-174.6-147.6-216.7-178.3c39.8,33.4,182,149.8,217.3,186.4C1461.3,1813.6,1503.7,1862.4,1545.6,1913z"/>
			<path id="path3205" sodipodi:nodetypes="ccsc" fill="#526701" d="M1008.3,1273.7c13.7-27.6,29.8-55.2,49.8-80.3
				c-10,17.2-19.6,29.6-28.6,46.4C1024,1250,1015.4,1264.2,1008.3,1273.7z"/>
			<path id="path4090" sodipodi:nodetypes="cscsc" fill="#3D4C00" d="M997,1279.2c-16.2-14.5-31.6-30.1-48.8-43.5
				c-16.6-13-35-23.7-52.5-35.5c16.5,11.9,33.5,23.2,49.5,35.8C963,1249.7,979.8,1264.8,997,1279.2z"/>
			<path id="path3804" sodipodi:nodetypes="cscsc" fill="#4F600C" d="M967,1304.4c-4.5,6.2-10.2,11.7-13.5,18.5
				c-3.5,7.2-4.7,15.7-7,23.5c1.8-8.7,1.8-18.3,5.5-26C955.1,1314.1,962,1309.8,967,1304.4z"/>
			
				<linearGradient id="path3814_1_" gradientUnits="userSpaceOnUse" x1="1688.1604" y1="639.7164" x2="1693.4104" y2="634.4664" gradientTransform="matrix(1 0 0 -1 -699.9103 1938.8878)">
				<stop  offset="0" style="stop-color:#556905"/>
				<stop  offset="1" style="stop-color:#556905;stop-opacity:0"/>
			</linearGradient>
			<path id="path3814" fill="url(#path3814_1_)" d="M997,1300.4l-7.5-2l-10,2.5l6.5-6l2.5-6l5.5,5.5L997,1300.4z"/>
			
				<linearGradient id="path3816_1_" gradientUnits="userSpaceOnUse" x1="1706.7952" y1="631.5507" x2="1702.2952" y2="634.3007" gradientTransform="matrix(1 0 0 -1 -699.9103 1938.8878)">
				<stop  offset="0" style="stop-color:#556905"/>
				<stop  offset="1" style="stop-color:#556905;stop-opacity:0"/>
			</linearGradient>
			<path id="path3816" fill="url(#path3816_1_)" d="M1000,1301.4l5.5,6l-3,6.5l10.5,0.5l1-12L1000,1301.4z"/>
			
				<linearGradient id="path3818_1_" gradientUnits="userSpaceOnUse" x1="1697.0417" y1="621.6082" x2="1694.0417" y2="628.3582" gradientTransform="matrix(1 0 0 -1 -699.9103 1938.8878)">
				<stop  offset="0" style="stop-color:#556905"/>
				<stop  offset="1" style="stop-color:#556905;stop-opacity:0"/>
			</linearGradient>
			<path id="path3818" fill="url(#path3818_1_)" d="M995,1306.9l-3,13.5l4-1.5l1.5,6l10.5,2.5l-4.5-10.5L995,1306.9z"/>
			
				<linearGradient id="path3820_1_" gradientUnits="userSpaceOnUse" x1="1682.796" y1="634.4295" x2="1690.046" y2="635.6795" gradientTransform="matrix(1 0 0 -1 -699.9103 1938.8878)">
				<stop  offset="0" style="stop-color:#617903"/>
				<stop  offset="1" style="stop-color:#617903;stop-opacity:0"/>
			</linearGradient>
			<path id="path3820" fill="url(#path3820_1_)" d="M990,1302.9l-10-4l1.5,3.5l-6.5,1l-3,7l5.5-5.5v6.5l5-5L990,1302.9z"/>
			
				<linearGradient id="path3301_1_" gradientUnits="userSpaceOnUse" x1="1694.6359" y1="661.0159" x2="1703.1211" y2="637.3278" gradientTransform="matrix(1 0 0 -1 -699.9103 1938.8878)">
				<stop  offset="0" style="stop-color:#5E730D"/>
				<stop  offset="1" style="stop-color:#5E730D;stop-opacity:0"/>
			</linearGradient>
			<path id="path3301" fill="url(#path3301_1_)" d="M996,1295.9l-7.1-12l-8.8-8.5l3.5-2.1l0.4-11.3l-3.9-3.9l5.3-8.5l11.3,12h3.5
				l5.3,7.8l-3.9,11.3l-2.1,14.8L996,1295.9z"/>
			
				<linearGradient id="path3303_1_" gradientUnits="userSpaceOnUse" x1="1700.2965" y1="651.8585" x2="1704.8043" y2="641.6938" gradientTransform="matrix(1 0 0 -1 -699.9103 1938.8878)">
				<stop  offset="0" style="stop-color:#719200"/>
				<stop  offset="1" style="stop-color:#719200;stop-opacity:0"/>
			</linearGradient>
			<path id="path3303" fill="url(#path3303_1_)" d="M998.8,1297.7l-3.9-12l3.9-8.5l5.3,3.9l-4.2,6.7l2.1,12L998.8,1297.7z"/>
			
				<linearGradient id="path3822_1_" gradientUnits="userSpaceOnUse" x1="1699.2733" y1="644.1651" x2="1696.7733" y2="638.6651" gradientTransform="matrix(1 0 0 -1 -699.9103 1938.8878)">
				<stop  offset="0" style="stop-color:#495714"/>
				<stop  offset="1" style="stop-color:#495714;stop-opacity:0"/>
			</linearGradient>
			<path id="path3822" fill="url(#path3822_1_)" d="M995.5,1301.4l10.5-8.5l2-7l-8.5,5.5l-4-1V1301.4z"/>
			
				<linearGradient id="path3824_1_" gradientUnits="userSpaceOnUse" x1="1693.4357" y1="630.6069" x2="1697.1857" y2="636.6069" gradientTransform="matrix(1 0 0 -1 -699.9103 1938.8878)">
				<stop  offset="0" style="stop-color:#5E6F18"/>
				<stop  offset="1" style="stop-color:#5E6F18;stop-opacity:0"/>
			</linearGradient>
			<path id="path3824" fill="url(#path3824_1_)" d="M992.5,1303.4l-5,4.5l2.5,9l7.5-5v-9.5L992.5,1303.4z"/>
			
				<linearGradient id="path3305_1_" gradientUnits="userSpaceOnUse" x1="1712.1459" y1="641.861" x2="1702.9535" y2="636.2042" gradientTransform="matrix(1 0 0 -1 -699.9103 1938.8878)">
				<stop  offset="0" style="stop-color:#6D8316"/>
				<stop  offset="1" style="stop-color:#6D8316;stop-opacity:0"/>
			</linearGradient>
			<path id="path3305" fill="url(#path3305_1_)" d="M1004.8,1298.8l6.4-7.8h6.4l1.4-2.5l7.4,3.2l-4.9,6.4l-18.4,4.6L1004.8,1298.8z"
				/>
			
				<linearGradient id="path5087_1_" gradientUnits="userSpaceOnUse" x1="1702.6492" y1="635.1203" x2="1698.4066" y2="637.0649" gradientTransform="matrix(1 0 0 -1 -699.9103 1938.8878)">
				<stop  offset="0" style="stop-color:#698212"/>
				<stop  offset="1" style="stop-color:#698212;stop-opacity:0"/>
			</linearGradient>
			<path id="path5087" fill="url(#path5087_1_)" d="M998.1,1299.5l5.3-1.1l0.4,5.7l-1.1,5.3l-4.2-4.6l-2.1-0.7L998.1,1299.5z"/>
		</g>
	</g>
</g>
</svg>
