<svg xmlns="http://www.w3.org/2000/svg" width="408.149" height="382.093" viewBox="0 192.87 408.14917 382.09306" enable-background="new 0 192.87 1016.143 239.87"><path d="M390.855 359.68" fill="#a07024" stroke="#e8c07a" stroke-width=".638" transform="matrix(1.467 0 0 1.674 -360.975 -184.037)"/><path d="M107.042 574.633s87.41-68.518 55.102-111.647c0 0-12.977-11.962-21.992-40.792 0 0-10.232-20.185-18.783-27.954-6.227-5.665-9.891-12.676-9.367-11.402.524 1.279-15.387 6.17-25.793-5.847-10.407-12.023-22.29-16.906-25.972-25.855-3.685-8.953-.076-8.392-.076-8.392l3.599-.08s-.445 7.756 13.543 17.11l15.076 16.425s-9.383-12.689-2.946-41.236c0 0-5.469-35.367 12.116-26.096l.559 4.5s-8.283-4.968-9.747 4.103c0 0 .079 8.388.107 11.613.029 3.231-4.822 36.254 5.517 40.529 10.328 4.279 22.684 4.639 32.105 21.196l9.415 16.556 3.116 3.162c1.567 2.543 5.23 8.912 5.23 8.912s30.112-29.102 4.787-40.131c0 0-13.539-17.108-6.48-33.408 7.055-16.298 11.601-26.086 5.379-31.103l-6.219-5.014 7.218 1.763s9.838 6.227-.776 27.77c0 0-9.046 24.735 4.961 36.026 14 11.288 9.43 18.494 9.43 18.494l10.589-24.774s7.57-16.956 2.231-37.483c-5.335-20.53 7.354-40.832 7.354-40.832s-8.076 17.614-4.803 38.187c3.277 20.578 8.425 21.102-4.078 61.409-12.505 40.305-2.027 60.071-2.027 60.071s23.199-52.823 33.757-24.025c0 0 20.93 37.59 10.185-11.857 0 0 1.345-22.617.802-25.184-.537-2.571-17.774-29.921-3.562-52.838l14.203-22.92s-26.918 40.638-10.237 63.488l2.073 1.882s11.193-15.103 22.953-24.409c11.754-9.314 9.402-41.53 9.402-41.53s11.137 36.53-13.395 55.82l-2.036 2.628s-18.908 15.284-12.392 52.56c0 0-.873 17.45 15.433-1.003 16.304-18.454 23.831-40.573 23.831-40.573s14.654-30.028 20.771-36.62c6.122-6.606 7.994-26.657 3.324-31.059-4.675-4.409-15.087-17.719-10.033-28.162l5.046-10.446s-10.165 14.437-.27 27.114c9.902 12.674 17.622 13.144 7.037 37.911-10.592 24.774-17.17 37.19-17.17 37.19s33.913-7.248 35.372-16.32c1.466-9.065 2.836-28.463 2.836-28.463s3.954-18.161 10.089-22.823c6.136-4.66 12.411 6.167 9.888 12.033-2.522 5.866-7.652 7.921-7.652 7.921s12.158-21.581-2.683-12.198c0 0-8.086 16.323-6.88 35.658 1.199 19.333-11.114 23.493-23.429 27.654-12.32 4.153-29.073 29.722-29.073 29.722s-25.473 29.636-35.195 36.964c-9.71 7.32-30.085-25.112-40.68-1.63 0 0 8.415 19.807-2.519 62.654-10.939 42.854-13.466 48.074-9.719 64.124l-68.456.956z" fill="#7c4d27"/><path d="M125.575 574.844s69.812-79.073 49.994-107.655c-19.822-28.58-12.854-54.556-12.854-54.556s3.431 37.352 12.797 48.747c9.368 11.398 11.536 22.969-4.463 75.616 0 0-6.505 20.804-4.304 35.601l-41.17 2.247zM183.766 342.404c2.246 3.202 19.099 16.922 14.419-7.232-4.675-24.154 7.466-22.879 7.466-22.879l5.077-1.229s-16.828-3.418-16.328 12.378c.5 15.799 6.145 28.954-12.5 12.388l1.866 6.574z" fill="#8f6746"/><g fill="#c2d468" stroke="#059036"><path d="M33.221 300.082s14.585 13.708 17.717 5.603l3.123-8.104 1.559.802s-10.917-17.195-22.4 1.699zM55.559 298.241s-9.646-7.498-22.398 1.699"/></g><g stroke="#059036"><path d="M47.092 261.734s-5.073 20.995 2.657 20.773l7.727-.228-.016 1.962s9.336-18.678-10.367-22.507z" fill="#84b719"/><path d="M57.548 284.119s2.104-13.211-10.367-22.507" fill="none"/></g><g fill="#5aac32" stroke="#059036"><path d="M36.617 280.367s5.356 20.738 11.881 15.905l6.516-4.828.893 1.661s-.629-21.347-19.291-12.737zM55.93 292.944s-4.303-12.393-19.29-12.736"/></g><g stroke="#059036"><path d="M68.105 258.323s-5.073 20.99 2.658 20.769l7.724-.224-.015 1.96s9.335-18.68-10.367-22.505z" fill="#84b719"/><path d="M78.562 280.706s2.105-13.211-10.367-22.509" fill="none"/></g><g fill="#5aac32" stroke="#059036"><path d="M57.631 276.954s5.355 20.736 11.88 15.903l6.518-4.829.893 1.662s-.632-21.347-19.291-12.736zM76.942 289.529s-4.301-12.394-19.293-12.734"/></g><g fill="#c2d468" stroke="#059036"><path d="M43.066 327.211s14.588 13.708 17.715 5.601l3.126-8.104 1.559.804s-10.92-17.197-22.401 1.699zM65.404 325.37s-9.644-7.498-22.401 1.701"/></g><g stroke="#059036"><path d="M56.938 288.863s-5.073 20.992 2.658 20.769l7.724-.224-.013 1.962s9.332-18.678-10.369-22.507z" fill="#84b719"/><path d="M67.393 311.246s2.105-13.211-10.367-22.507" fill="none"/></g><g fill="#09922f" stroke="#89ba1b"><path d="M70.354 298.457s-12.336 16.72-5.289 20.234l7.04 3.509-.741 1.783s15.321-12.557-1.011-25.525zM71.494 323.912s6.782-11.042-1.011-25.525"/></g><g fill="#5aac32" stroke="#059036"><path d="M46.465 307.496s5.355 20.736 11.878 15.903l6.516-4.828.896 1.661s-.632-21.349-19.291-12.736zM65.775 320.071s-4.303-12.391-19.293-12.736"/></g><g fill="#c2d468" stroke="#059036"><path d="M68.695 310.238s14.583 13.708 17.714 5.6l3.122-8.102 1.559.805s-10.914-17.199-22.395 1.697zM91.031 308.399s-9.643-7.498-22.397 1.701"/></g><g stroke="#059036"><path d="M82.565 271.89s-5.073 20.992 2.658 20.771l7.722-.224-.013 1.962s9.336-18.68-10.367-22.509z" fill="#84b719"/><path d="M93.023 294.273s2.102-13.211-10.367-22.507" fill="none"/></g><g fill="#09922f" stroke="#89ba1b"><path d="M95.982 281.487s-12.335 16.717-5.289 20.23l7.04 3.512-.739 1.781s15.321-12.557-1.012-25.523zM97.122 306.942s6.785-11.043-1.011-25.525"/></g><g fill="#5aac32" stroke="#059036"><path d="M72.092 290.524s5.356 20.736 11.878 15.905l6.521-4.831.892 1.662s-.631-21.345-19.291-12.736zM91.402 303.1s-4.303-12.393-19.291-12.734"/></g><g fill="#c2d468" stroke="#059036"><path d="M61.704 324.712s14.586 13.707 17.715 5.6l3.125-8.104 1.559.807s-10.919-17.2-22.4 1.697zM84.041 322.87s-9.644-7.498-22.4 1.697"/></g><g fill="#09922f" stroke="#89ba1b"><path d="M77.91 320.928s-12.336 16.717-5.289 20.23l7.04 3.51-.738 1.783s15.318-12.558-1.014-25.523zM79.049 346.382s6.785-11.043-1.011-25.525"/></g><g fill="#5aac32" stroke="#059036"><path d="M54.02 329.965s5.355 20.736 11.88 15.905l6.518-4.829.893 1.661s-.632-21.347-19.291-12.736zM73.33 342.541s-4.303-12.394-19.291-12.737"/></g><g fill="#c2d468" stroke="#059036"><path d="M89.285 324.015s14.586 13.707 17.715 5.6l3.125-8.102 1.559.805s-10.917-17.199-22.4 1.697zM111.623 322.174s-9.644-7.498-22.398 1.697"/></g><g stroke="#059036"><path d="M103.156 285.669s-5.073 20.99 2.658 20.771l7.727-.226-.015 1.962s9.332-18.678-10.37-22.507z" fill="#84b719"/><path d="M113.613 308.052s2.105-13.211-10.367-22.507" fill="none"/></g><g fill="#09922f" stroke="#89ba1b"><path d="M116.575 295.263s-12.336 16.717-5.291 20.232l7.042 3.51-.738 1.783s15.32-12.558-1.012-25.525zM117.712 320.718s6.783-11.045-1.009-25.527"/></g><g fill="#c2d468" stroke="#059036"><path d="M90.032 348.036s14.586 13.707 17.715 5.6l3.125-8.1 1.559.804s-10.917-17.2-22.4 1.697zM112.369 346.194s-9.643-7.498-22.398 1.697"/></g><g stroke="#059036"><path d="M103.903 309.688s-5.073 20.99 2.66 20.768l7.724-.224-.015 1.964s9.335-18.68-10.369-22.507z" fill="#84b719"/><path d="M114.361 332.071s2.105-13.213-10.366-22.509" fill="none"/></g><g fill="#09922f" stroke="#89ba1b"><path d="M113.441 319.706s-12.339 16.717-5.293 20.23l7.042 3.512-.739 1.783s15.32-12.56-1.009-25.525zM114.578 345.16s6.783-11.043-1.011-25.523"/></g><g fill="#c2d468" stroke="#059036"><path d="M74.896 340.859s14.588 13.71 17.717 5.603l3.123-8.102 1.559.804s-10.917-17.199-22.4 1.696zM97.234 339.021s-9.644-7.496-22.4 1.697"/></g><g stroke="#059036"><path d="M88.768 302.513s-5.073 20.99 2.658 20.771l7.725-.228-.015 1.964s9.333-18.678-10.369-22.507z" fill="#84b719"/><path d="M99.224 324.896s2.104-13.211-10.367-22.509" fill="none"/></g><g fill="#c2d468" stroke="#059036"><path d="M68.787 357.763s14.583 13.71 17.714 5.601l3.125-8.099 1.561.802s-10.916-17.199-22.4 1.696zM91.125 355.923s-9.644-7.498-22.398 1.699"/></g><g stroke="#059036"><path d="M82.658 319.418s-5.073 20.989 2.658 20.769l7.722-.228-.013 1.965s9.335-18.682-10.367-22.507z" fill="#84b719"/><path d="M93.114 341.8s2.104-13.21-10.366-22.507" fill="none"/></g><g fill="#09922f" stroke="#89ba1b"><path d="M96.076 329.012s-12.336 16.718-5.291 20.232l7.042 3.51-.739 1.781s15.32-12.557-1.011-25.523zM97.213 354.465s6.783-11.042-1.011-25.525"/></g><g fill="#5aac32" stroke="#059036"><path d="M72.183 338.05s5.356 20.736 11.881 15.905l6.516-4.829.895 1.662s-.632-21.349-19.293-12.737zM91.496 350.625s-4.303-12.391-19.293-12.734"/></g><g fill="#c2d468" stroke="#059036"><path d="M88.08 365.567s14.586 13.707 17.717 5.601l3.125-8.104 1.559.805s-10.92-17.199-22.401 1.697zM110.416 363.728s-9.643-7.496-22.398 1.699"/></g><g fill="#09922f" stroke="#89ba1b"><path d="M115.37 336.815s-12.339 16.718-5.293 20.234l7.042 3.509-.738 1.784s15.321-12.558-1.011-25.527zM116.507 362.27s6.782-11.045-1.012-25.525"/></g><g fill="#5aac32" stroke="#059036"><path d="M91.477 345.853s5.355 20.736 11.881 15.905l6.516-4.829.893 1.661s-.631-21.345-19.291-12.736zM110.789 358.431s-4.303-12.393-19.293-12.736"/></g><g fill="#c2d468" stroke="#059036"><path d="M129.65 225.582s6.048 20.428 12.456 15.426l6.402-5 .952 1.622s-1.319-21.183-19.81-12.048zM149.474 237.471s-4.722-12.173-19.809-12.046"/></g><g stroke="#059036"><path d="M159.167 201.365s-14.02 14.775-7.351 19.243l6.665 4.46-.918 1.657s16.57-10.242 1.605-25.359z" fill="#84b719"/><path d="M157.696 226.674s7.897-9.952 1.606-25.361" fill="none"/></g><g fill="#5aac32" stroke="#059036"><path d="M141.654 210.885s-5.044 20.835 2.733 20.664l7.769-.176-.009 1.95s9.339-18.514-10.493-22.438zM152.239 233.197s2.079-13.117-10.492-22.438"/></g><g stroke="#059036"><path d="M178.595 211.119s-14.019 14.775-7.35 19.241l6.665 4.461-.921 1.657s16.571-10.24 1.606-25.359z" fill="#84b719"/><path d="M177.125 236.43s7.898-9.95 1.606-25.361" fill="none"/></g><g fill="#5aac32" stroke="#059036"><path d="M161.082 220.637s-5.044 20.836 2.732 20.664l7.771-.174-.007 1.952s9.335-18.514-10.495-22.442zM171.666 242.95s2.079-13.117-10.496-22.437"/></g><g fill="#c2d468" stroke="#059036"><path d="M125.463 254.554s6.051 20.428 12.456 15.426l6.403-5 .954 1.622s-1.32-21.183-19.813-12.048zM145.288 266.441s-4.724-12.173-19.81-12.044"/></g><g stroke="#059036"><path d="M154.985 230.335s-14.02 14.776-7.351 19.244l6.663 4.46-.92 1.659s16.57-10.243 1.608-25.363z" fill="#84b719"/><path d="M153.512 255.646s7.897-9.954 1.605-25.361" fill="none"/></g><g fill="#09922f" stroke="#89ba1b"><path d="M161.942 246.566s-18.211 6.77-13.853 14l4.358 7.22-1.451 1.071s18.82-1.441 10.945-22.291zM151.136 268.872s10.869-5.293 10.945-22.289"/></g><g fill="#5aac32" stroke="#059036"><path d="M137.471 239.855s-5.044 20.836 2.733 20.664l7.768-.177-.009 1.95s9.339-18.513-10.492-22.437zM148.053 262.169s2.079-13.117-10.493-22.438"/></g><g fill="#c2d468" stroke="#059036"><path d="M155.08 255.574s6.05 20.426 12.458 15.424l6.401-5 .951 1.624s-1.314-21.184-19.809-12.048zM174.907 267.463s-4.725-12.173-19.81-12.046"/></g><g stroke="#059036"><path d="M184.599 231.356s-14.017 14.771-7.35 19.241l6.665 4.461-.918 1.656s16.567-10.24 1.603-25.358z" fill="#84b719"/><path d="M183.129 256.665s7.897-9.952 1.606-25.361" fill="none"/></g><g fill="#09922f" stroke="#89ba1b"><path d="M191.56 247.589s-18.211 6.77-13.854 13.996l4.358 7.222-1.451 1.07s18.82-1.438 10.947-22.288zM180.753 269.893s10.869-5.293 10.948-22.289"/></g><g fill="#5aac32" stroke="#059036"><path d="M167.086 240.874s-5.044 20.835 2.734 20.666l7.769-.176-.009 1.949s9.337-18.513-10.495-22.438zM177.671 263.187s2.079-13.116-10.495-22.437"/></g><g fill="#c2d468" stroke="#059036"><path d="M142.451 263.654s6.048 20.426 12.458 15.426l6.401-4.999.954 1.622s-1.32-21.184-19.812-12.049zM162.275 275.545s-4.722-12.175-19.807-12.048"/></g><g fill="#09922f" stroke="#89ba1b"><path d="M157.965 270.201s-18.208 6.77-13.851 13.998l4.358 7.222-1.454 1.07s18.822-1.438 10.947-22.289zM147.157 292.509s10.872-5.293 10.95-22.289"/></g><g fill="#5aac32" stroke="#059036"><path d="M133.493 263.488s-5.044 20.836 2.733 20.666l7.771-.174-.009 1.949s9.335-18.514-10.495-22.44zM144.079 285.803s2.077-13.117-10.495-22.437"/></g><g fill="#c2d468" stroke="#059036"><path d="M166.197 279.676s6.05 20.428 12.459 15.426l6.401-4.999.951 1.622s-1.316-21.183-19.81-12.049zM186.024 291.565s-4.722-12.175-19.809-12.046"/></g><g stroke="#059036"><path d="M195.716 255.458s-14.016 14.776-7.35 19.243l6.665 4.461-.92 1.657s16.573-10.243 1.605-25.361z" fill="#84b719"/><path d="M194.246 280.769s7.897-9.954 1.605-25.361" fill="none"/></g><g fill="#09922f" stroke="#89ba1b"><path d="M202.676 271.689s-18.208 6.77-13.851 13.996l4.358 7.222-1.455 1.071s18.823-1.438 10.948-22.289zM191.87 293.994s10.868-5.292 10.947-22.291"/></g><g fill="#c2d468" stroke="#059036"><path d="M155.724 300.529s6.048 20.426 12.458 15.424l6.401-4.999.951 1.624s-1.317-21.188-19.809-12.049zM175.549 312.416s-4.725-12.175-19.81-12.046"/></g><g stroke="#059036"><path d="M185.243 276.31s-14.019 14.775-7.35 19.243l6.665 4.461-.918 1.656s16.567-10.242 1.603-25.359z" fill="#84b719"/><path d="M183.771 301.621s7.897-9.954 1.605-25.363" fill="none"/></g><g fill="#09922f" stroke="#89ba1b"><path d="M188.71 290.564s-18.211 6.77-13.853 13.998l4.357 7.22-1.454 1.07s18.825-1.438 10.95-22.288zM177.903 312.87s10.869-5.295 10.945-22.291"/></g><g fill="#c2d468" stroke="#059036"><path d="M146.186 285.319s6.05 20.428 12.456 15.426l6.403-5.002.952 1.624s-1.32-21.183-19.812-12.048zM166.01 297.206s-4.724-12.173-19.809-12.046"/></g><g stroke="#059036"><path d="M175.705 261.1s-14.019 14.775-7.35 19.243l6.665 4.461-.921 1.656s16.568-10.242 1.606-25.359z" fill="#84b719"/><path d="M174.234 286.409s7.897-9.952 1.606-25.361" fill="none"/></g><g fill="#c2d468" stroke="#059036"><path d="M133.178 295.996s6.05 20.428 12.456 15.426l6.401-4.997.954 1.622s-1.317-21.184-19.81-12.051zM153.003 307.886s-4.724-12.178-19.81-12.048"/></g><g stroke="#059036"><path d="M162.696 271.78s-14.016 14.775-7.348 19.241l6.665 4.46-.921 1.661s16.57-10.247 1.605-25.361z" fill="#84b719"/><path d="M161.227 297.089s7.897-9.954 1.606-25.363" fill="none"/></g><g fill="#09922f" stroke="#89ba1b"><path d="M169.657 288.013s-18.21 6.768-13.853 13.995l4.358 7.222-1.455 1.07s18.823-1.44 10.95-22.286zM158.849 310.315s10.868-5.293 10.947-22.289"/></g><g fill="#5aac32" stroke="#059036"><path d="M145.183 281.296s-5.042 20.836 2.734 20.664l7.768-.176-.007 1.95s9.337-18.513-10.495-22.438zM155.768 303.609s2.077-13.117-10.495-22.435"/></g><g fill="#c2d468" stroke="#059036"><path d="M145.954 314.244s6.05 20.428 12.456 15.424l6.405-5 .949 1.625s-1.316-21.186-19.81-12.049zM165.781 326.133s-4.725-12.173-19.812-12.044"/></g><g fill="#09922f" stroke="#89ba1b"><path d="M182.433 306.258s-18.211 6.77-13.853 13.998l4.358 7.222-1.451 1.071s18.82-1.438 10.945-22.291zM171.627 328.564s10.868-5.295 10.945-22.288"/></g><g fill="#5aac32" stroke="#059036"><path d="M157.962 299.545s-5.042 20.836 2.733 20.664l7.769-.176-.01 1.95s9.339-18.514-10.492-22.438zM168.546 321.858s2.077-13.117-10.495-22.437"/></g><g fill="#c2d468" stroke="#059036"><path d="M77.284 276.526s14.582 13.708 17.714 5.601l3.125-8.102 1.559.804s-10.917-17.197-22.398 1.697zM99.62 274.684s-9.643-7.498-22.397 1.699"/></g><g stroke="#059036"><path d="M91.79 236.475s-5.073 20.994 2.657 20.771l7.727-.224-.016 1.962s9.335-18.68-10.367-22.509z" fill="#84b719"/><path d="M101.61 260.562s2.104-13.213-10.367-22.509" fill="none"/></g><g fill="#5aac32" stroke="#059036"><path d="M80.68 256.809s5.355 20.734 11.881 15.903l6.516-4.828.895 1.661s-.632-21.345-19.293-12.736zM99.992 269.388s-4.303-12.391-19.291-12.737"/></g><g stroke="#059036"><path d="M112.165 234.764s-5.073 20.99 2.66 20.768l7.725-.224-.013 1.962s9.332-18.678-10.372-22.505z" fill="#84b719"/><path d="M122.623 257.147s2.105-13.211-10.367-22.507" fill="none"/></g><g fill="#5aac32" stroke="#059036"><path d="M101.695 253.394s5.353 20.738 11.878 15.905l6.518-4.828.893 1.661s-.632-21.345-19.29-12.737zM121.002 265.973s-4.3-12.394-19.291-12.736"/></g><g fill="#c2d468" stroke="#059036"><path d="M87.127 303.656s14.589 13.707 17.715 5.6l3.126-8.104 1.561.802s-10.919-17.195-22.403 1.702zM109.465 301.811s-9.646-7.496-22.398 1.701"/></g><g stroke="#059036"><path d="M100.999 265.306s-5.074 20.994 2.658 20.771l7.722-.226-.015 1.964s9.336-18.68-10.366-22.509z" fill="#84b719"/><path d="M111.456 287.688s2.105-13.21-10.367-22.505" fill="none"/></g><g fill="#09922f" stroke="#89ba1b"><path d="M114.417 274.9s-12.337 16.718-5.291 20.234l7.043 3.509-.741 1.783s15.321-12.557-1.011-25.525zM115.556 300.355s6.782-11.043-1.011-25.523"/></g><g fill="#5aac32" stroke="#059036"><path d="M90.525 283.938s5.356 20.734 11.88 15.905l6.516-4.831.895 1.662s-.631-21.347-19.291-12.736zM109.837 296.517s-4.301-12.394-19.29-12.737"/></g><g fill="#c2d468" stroke="#059036"><path d="M112.756 286.682s14.585 13.707 17.714 5.601l3.123-8.104 1.559.804s-10.917-17.197-22.397 1.699zM135.093 284.842s-9.643-7.498-22.397 1.701"/></g><g stroke="#059036"><path d="M126.628 248.334s-5.073 20.992 2.658 20.769l7.724-.223-.016 1.962s9.336-18.68-10.366-22.509z" fill="#84b719"/><path d="M137.085 270.717s2.105-13.21-10.366-22.507" fill="none"/></g><g fill="#09922f" stroke="#89ba1b"><path d="M140.045 257.929s-12.336 16.717-5.29 20.232l7.042 3.51-.739 1.781s15.321-12.557-1.012-25.523zM141.184 283.384s6.785-11.043-1.012-25.528"/></g><g fill="#5aac32" stroke="#059036"><path d="M116.154 266.967s5.356 20.736 11.881 15.905l6.518-4.829.893 1.661s-.632-21.347-19.293-12.736zM135.465 279.544s-4.303-12.393-19.291-12.736"/></g><g fill="#c2d468" stroke="#059036"><path d="M105.766 301.155s14.586 13.707 17.715 5.6l3.123-8.102 1.561.804s-10.917-17.199-22.4 1.699zM128.104 299.312s-9.644-7.496-22.401 1.699"/></g><g fill="#09922f" stroke="#89ba1b"><path d="M121.972 297.37s-12.336 16.717-5.29 20.234l7.042 3.51-.738 1.783s15.318-12.56-1.014-25.527zM123.11 322.825s6.782-11.045-1.009-25.525"/></g><g fill="#5aac32" stroke="#059036"><path d="M98.082 306.408s5.355 20.734 11.88 15.903l6.518-4.829.893 1.661s-.631-21.343-19.291-12.734zM117.393 318.985s-4.301-12.393-19.291-12.736"/></g><g fill="#c2d468" stroke="#059036"><path d="M133.348 300.459s14.586 13.708 17.715 5.601l3.123-8.102 1.559.805s-10.917-17.199-22.398 1.696zM155.685 298.617s-9.643-7.498-22.397 1.699"/></g><g stroke="#059036"><path d="M147.217 262.107s-5.073 20.994 2.657 20.773l7.725-.226-.013 1.962s9.335-18.677-10.369-22.509z" fill="#84b719"/><path d="M157.674 284.496s2.105-13.211-10.367-22.509" fill="none"/></g><g fill="#09922f" stroke="#89ba1b"><path d="M160.637 271.706s-12.337 16.717-5.291 20.232l7.042 3.51-.738 1.784s15.318-12.56-1.012-25.527zM161.773 297.159s6.783-11.042-1.011-25.523"/></g><g fill="#c2d468" stroke="#059036"><path d="M134.093 324.479s14.586 13.707 17.717 5.598l3.125-8.1 1.558.804s-10.917-17.199-22.4 1.699zM156.433 322.636s-9.644-7.496-22.4 1.699"/></g><g stroke="#059036"><path d="M147.967 286.129s-5.074 20.992 2.658 20.769l7.724-.224-.015 1.962s9.335-18.678-10.367-22.507z" fill="#84b719"/><path d="M158.422 308.514s2.105-13.211-10.366-22.51" fill="none"/></g><g fill="#09922f" stroke="#89ba1b"><path d="M157.502 296.148s-12.337 16.717-5.29 20.23l7.04 3.512-.739 1.783s15.32-12.558-1.011-25.525zM158.641 321.601s6.785-11.043-1.011-25.523"/></g><g fill="#c2d468" stroke="#059036"><path d="M118.96 317.304s14.585 13.708 17.714 5.6l3.123-8.102 1.561.805s-10.92-17.199-22.398 1.697zM141.296 315.463s-9.644-7.498-22.4 1.701"/></g><g stroke="#059036"><path d="M132.827 278.956s-5.071 20.992 2.658 20.771l7.725-.226-.013 1.964s9.333-18.68-10.37-22.509z" fill="#84b719"/><path d="M143.286 301.338s2.104-13.208-10.367-22.505" fill="none"/></g><g fill="#c2d468" stroke="#059036"><path d="M112.848 334.207s14.586 13.71 17.715 5.603l3.125-8.102 1.559.804s-10.917-17.199-22.4 1.696zM135.185 332.367s-9.643-7.498-22.397 1.699"/></g><g stroke="#059036"><path d="M126.72 295.862s-5.073 20.99 2.657 20.769l7.722-.228-.012 1.964s9.335-18.678-10.367-22.505z" fill="#84b719"/><path d="M137.176 318.243s2.104-13.21-10.366-22.507" fill="none"/></g><g fill="#09922f" stroke="#89ba1b"><path d="M140.139 305.454s-12.337 16.72-5.29 20.234l7.04 3.51-.739 1.783s15.318-12.56-1.011-25.527zM141.274 330.909s6.785-11.043-1.011-25.525"/></g><g fill="#5aac32" stroke="#059036"><path d="M116.247 314.492s5.356 20.736 11.88 15.905l6.516-4.829.895 1.661s-.634-21.345-19.291-12.736zM135.558 327.07s-4.301-12.393-19.291-12.736"/></g><g fill="#c2d468" stroke="#059036"><path d="M132.142 342.011s14.586 13.707 17.717 5.6l3.123-8.102 1.559.805s-10.919-17.199-22.4 1.697zM154.479 340.171s-9.643-7.498-22.398 1.697"/></g><g fill="#09922f" stroke="#89ba1b"><path d="M159.432 313.258s-12.339 16.718-5.29 20.232l7.04 3.51-.738 1.783s15.317-12.557-1.012-25.525zM160.57 338.713s6.782-11.045-1.014-25.527"/></g><g fill="#5aac32" stroke="#059036"><path d="M135.54 322.298s5.355 20.734 11.88 15.903l6.518-4.829.895 1.662s-.632-21.349-19.293-12.736zM154.849 334.873s-4.301-12.393-19.291-12.736"/></g><g fill="#c2d468" stroke="#059036"><path d="M95.435 289.896s9.533 18.617 14.927 12.242l5.387-6.371 1.221 1.371s-5.036-20.445-21.534-7.242zM116.955 296.98s-6.776-10.839-21.533-7.24"/></g><g stroke="#059036"><path d="M120.069 259.386s-11.121 17.696-3.8 20.538l7.314 2.836-.607 1.835s14.419-13.847-2.908-25.209z" fill="#84b719"/><path d="M123.098 284.511s5.978-11.562-2.909-25.209" fill="none"/></g><g fill="#5aac32" stroke="#059036"><path d="M104.597 272.737s-1.256 21.566 6.327 19.608l7.579-1.959.337 1.913s5.874-20.282-14.243-19.562zM118.906 292.156s-.283-13.325-14.245-19.561"/></g><g stroke="#059036"><path d="M140.82 264.469s-11.12 17.696-3.798 20.538l7.314 2.836-.607 1.836s14.419-13.847-2.909-25.21z" fill="#84b719"/><path d="M143.851 289.595s5.977-11.562-2.909-25.209" fill="none"/></g><g fill="#5aac32" stroke="#059036"><path d="M125.347 277.823s-1.256 21.568 6.329 19.608l7.579-1.959.337 1.912s5.872-20.282-14.245-19.561zM139.656 297.241s-.28-13.328-14.242-19.561"/></g><g fill="#c2d468" stroke="#059036"><path d="M96.455 319.234s9.536 18.617 14.925 12.242l5.388-6.37 1.219 1.369s-5.035-20.443-21.533-7.242zM117.973 326.319s-6.779-10.837-21.533-7.24"/></g><g stroke="#059036"><path d="M121.089 288.724s-11.12 17.698-3.8 20.538l7.316 2.836-.607 1.835s14.418-13.846-2.909-25.209z" fill="#84b719"/><path d="M124.119 313.851s5.977-11.562-2.908-25.209" fill="none"/></g><g fill="#09922f" stroke="#89ba1b"><path d="M130.771 303.022s-16.642 10.821-11.093 16.897l5.544 6.07-1.234 1.381s18.179-5.737 6.783-24.348zM124.13 327.353s9.71-7.684 6.783-24.35"/></g><g fill="#5aac32" stroke="#059036"><path d="M105.616 302.074s-1.256 21.569 6.327 19.611l7.579-1.962.337 1.913s5.875-20.279-14.243-19.562zM119.925 321.494s-.282-13.325-14.243-19.562"/></g><g fill="#c2d468" stroke="#059036"><path d="M125.644 313.421s9.534 18.615 14.925 12.24l5.385-6.37 1.221 1.369s-5.032-20.445-21.531-7.24zM147.162 320.503s-6.778-10.839-21.533-7.24"/></g><g stroke="#059036"><path d="M150.277 282.907s-11.12 17.696-3.798 20.537l7.313 2.839-.609 1.835s14.421-13.846-2.906-25.21z" fill="#84b719"/><path d="M153.308 308.034s5.978-11.562-2.909-25.209" fill="none"/></g><g fill="#09922f" stroke="#89ba1b"><path d="M159.96 297.203s-16.639 10.824-11.093 16.899l5.544 6.072-1.234 1.383s18.181-5.743 6.783-24.353zM153.319 321.538s9.713-7.687 6.785-24.352"/></g><g fill="#5aac32" stroke="#059036"><path d="M134.804 296.262s-1.256 21.568 6.33 19.609l7.58-1.962.336 1.915s5.874-20.282-14.246-19.562zM149.116 315.679s-.282-13.327-14.243-19.561"/></g><g fill="#c2d468" stroke="#059036"><path d="M114.701 324.243s9.533 18.615 14.927 12.242l5.387-6.371 1.218 1.371s-5.033-20.446-21.531-7.242zM136.219 331.326s-6.779-10.839-21.533-7.242"/></g><g fill="#09922f" stroke="#89ba1b"><path d="M131.055 327.084s-16.642 10.821-11.095 16.899l5.542 6.072-1.231 1.381s18.178-5.742 6.783-24.352zM124.41 351.419s9.712-7.685 6.785-24.35"/></g><g fill="#5aac32" stroke="#059036"><path d="M105.898 326.14s-1.259 21.568 6.329 19.609l7.579-1.962.336 1.915s5.874-20.281-14.243-19.562zM120.208 345.56s-.283-13.328-14.243-19.562"/></g><g fill="#c2d468" stroke="#059036"><path d="M140.792 334.471s9.534 18.615 14.924 12.24l5.387-6.368 1.221 1.368s-5.032-20.445-21.531-7.24zM162.311 341.554s-6.779-10.842-21.533-7.243"/></g><g stroke="#059036"><path d="M165.426 303.957s-11.121 17.694-3.801 20.54l7.316 2.834-.607 1.835s14.419-13.842-2.908-25.209z" fill="#84b719"/><path d="M168.455 329.086s5.977-11.566-2.909-25.21" fill="none"/></g><g fill="#09922f" stroke="#89ba1b"><path d="M175.111 318.255s-16.642 10.821-11.093 16.897l5.542 6.07-1.234 1.384s18.181-5.742 6.785-24.352zM168.464 342.588s9.713-7.685 6.788-24.35"/></g><g fill="#c2d468" stroke="#059036"><path d="M134.217 357.304s9.534 18.617 14.927 12.242l5.387-6.371 1.219 1.371s-5.035-20.446-21.533-7.242zM155.735 364.385s-6.778-10.839-21.533-7.242"/></g><g stroke="#059036"><path d="M158.849 326.792s-11.12 17.693-3.797 20.537l7.314 2.837-.607 1.835s14.418-13.847-2.911-25.209z" fill="#84b719"/><path d="M161.88 351.919s5.978-11.564-2.906-25.21" fill="none"/></g><g fill="#09922f" stroke="#89ba1b"><path d="M164.764 339.952s-16.642 10.822-11.095 16.896l5.544 6.073-1.235 1.383s18.181-5.74 6.786-24.352zM158.12 364.288s9.71-7.685 6.785-24.35"/></g><g fill="#c2d468" stroke="#059036"><path d="M122.186 344.6s9.536 18.617 14.928 12.244l5.385-6.373 1.221 1.369s-5.036-20.441-21.534-7.24zM143.702 351.683s-6.776-10.839-21.531-7.24"/></g><g stroke="#059036"><path d="M146.82 314.087s-11.12 17.696-3.8 20.54l7.316 2.834-.606 1.836s14.418-13.846-2.911-25.21z" fill="#84b719"/><path d="M149.851 339.214s5.975-11.562-2.909-25.207" fill="none"/></g><g fill="#c2d468" stroke="#059036"><path d="M111.333 358.049s9.534 18.618 14.925 12.244l5.385-6.368 1.222 1.368s-5.035-20.443-21.533-7.243zM132.851 365.135s-6.779-10.841-21.531-7.24"/></g><g stroke="#059036"><path d="M135.965 327.539s-11.12 17.696-3.798 20.54l7.316 2.832-.607 1.84s14.418-13.849-2.911-25.212z" fill="#84b719"/><path d="M138.998 352.667s5.975-11.562-2.909-25.21" fill="none"/></g><g fill="#09922f" stroke="#89ba1b"><path d="M145.651 341.837s-16.64 10.822-11.095 16.897l5.544 6.072-1.234 1.381s18.181-5.738 6.785-24.35zM139.006 366.172s9.709-7.685 6.783-24.352"/></g><g fill="#5aac32" stroke="#059036"><path d="M120.493 340.891s-1.256 21.571 6.33 19.611l7.579-1.96.336 1.913s5.872-20.282-14.245-19.564zM134.805 360.313s-.283-13.327-14.245-19.561"/></g><g fill="#c2d468" stroke="#059036"><path d="M127.072 372.986s9.533 18.615 14.925 12.24l5.387-6.37 1.219 1.371s-5.032-20.446-21.531-7.242zM148.587 380.068s-6.776-10.839-21.531-7.24"/></g><g fill="#09922f" stroke="#89ba1b"><path d="M161.388 356.77s-16.639 10.821-11.093 16.897l5.544 6.07-1.232 1.383s18.181-5.74 6.782-24.35zM154.747 381.104s9.71-7.689 6.785-24.352"/></g><g fill="#5aac32" stroke="#059036"><path d="M136.234 355.825s-1.256 21.569 6.33 19.613l7.579-1.96.336 1.91s5.872-20.282-14.245-19.562zM150.543 375.243s-.282-13.325-14.245-19.559"/></g><g fill="#c2d468" stroke="#059036"><path d="M219.499 204.105s-.648 21.553 6.893 19.447l7.537-2.106.39 1.902s5.308-20.356-14.821-19.243zM234.381 223.205s-.66-13.295-14.818-19.243"/></g><g stroke="#059036"><path d="M254.603 193.311s-17.682 8.189-12.82 15.053l4.859 6.855-1.372 1.18s18.671-2.921 9.333-23.088z" fill="#84b719"/><path d="M245.412 216.407s10.461-6.14 9.332-23.089" fill="none"/></g><g fill="#5aac32" stroke="#059036"><path d="M235.274 195.178s-11.155 17.472-3.822 20.436l7.322 2.961-.609 1.823s14.454-13.574-2.891-25.22zM238.286 220.314s5.997-11.438-2.89-25.215"/></g><g stroke="#059036"><path d="M269.77 210.252s-17.683 8.191-12.82 15.054l4.859 6.855-1.373 1.182s18.672-2.924 9.335-23.091z" fill="#84b719"/><path d="M260.578 233.346s10.466-6.137 9.336-23.088" fill="none"/></g><g fill="#5aac32" stroke="#059036"><path d="M250.443 212.117s-11.154 17.473-3.826 20.436l7.325 2.961-.607 1.823s14.454-13.571-2.891-25.22zM253.454 237.255s5.996-11.44-2.891-25.215"/></g><g fill="#c2d468" stroke="#059036"><path d="M206.635 229.533s-.645 21.551 6.893 19.445l7.536-2.103.389 1.9s5.308-20.352-14.818-19.243zM221.516 248.633s-.663-13.295-14.821-19.241"/></g><g stroke="#059036"><path d="M241.742 218.741s-17.685 8.189-12.823 15.053l4.857 6.855-1.373 1.18s18.672-2.923 9.339-23.088z" fill="#84b719"/><path d="M232.547 241.835s10.463-6.137 9.333-23.089" fill="none"/></g><g fill="#09922f" stroke="#89ba1b"><path d="M243.238 236.73s-19.133-.989-17.287 7.53l1.848 8.511-1.69.415s18.06 6.222 17.129-16.455zM226.237 253.257s11.806-.583 17.129-16.455"/></g><g fill="#5aac32" stroke="#059036"><path d="M222.411 220.606s-11.155 17.473-3.826 20.438l7.325 2.96-.609 1.821s14.454-13.571-2.89-25.219zM225.426 245.744s5.994-11.442-2.894-25.219"/></g><g fill="#c2d468" stroke="#059036"><path d="M234.037 242.399s-.648 21.549 6.893 19.445l7.533-2.108.39 1.903s5.309-20.354-14.817-19.241zM248.919 261.498s-.662-13.293-14.821-19.239"/></g><g stroke="#059036"><path d="M269.143 231.607s-17.682 8.191-12.823 15.049l4.86 6.858-1.376 1.18s18.673-2.923 9.339-23.088z" fill="#84b719"/><path d="M259.949 254.698s10.463-6.137 9.336-23.086" fill="none"/></g><g fill="#09922f" stroke="#89ba1b"><path d="M270.643 249.594s-19.136-.986-17.29 7.53l1.848 8.511-1.689.418s18.057 6.221 17.13-16.459zM253.638 266.123s11.809-.583 17.13-16.457"/></g><g fill="#5aac32" stroke="#059036"><path d="M249.812 233.47s-11.155 17.473-3.824 20.438l7.326 2.96-.609 1.825s14.456-13.574-2.893-25.222zM252.828 258.609s5.996-11.438-2.894-25.215"/></g><g fill="#c2d468" stroke="#059036"><path d="M219.721 244.882s-.647 21.551 6.893 19.445l7.535-2.106.39 1.902s5.309-20.351-14.818-19.241zM234.601 263.984s-.659-13.295-14.818-19.241"/></g><g fill="#09922f" stroke="#89ba1b"><path d="M232.218 257.249s-19.133-.989-17.287 7.528l1.848 8.512-1.69.417s18.059 6.222 17.129-16.457zM215.216 273.777s11.805-.584 17.129-16.455"/></g><g fill="#5aac32" stroke="#059036"><path d="M211.391 241.124s-11.155 17.473-3.826 20.438l7.328 2.96-.612 1.821s14.457-13.569-2.89-25.219zM214.404 266.264s5.999-11.442-2.891-25.215"/></g><g fill="#c2d468" stroke="#059036"><path d="M236.999 269.428s-.648 21.549 6.89 19.444l7.535-2.104.39 1.902s5.311-20.354-14.815-19.241zM251.88 288.527s-.66-13.295-14.82-19.241"/></g><g stroke="#059036"><path d="M272.103 258.632s-17.68 8.191-12.823 15.053l4.86 6.857-1.373 1.178s18.671-2.921 9.336-23.088z" fill="#84b719"/><path d="M262.908 281.728s10.464-6.139 9.333-23.091" fill="none"/></g><g fill="#09922f" stroke="#89ba1b"><path d="M273.602 276.621s-19.134-.989-17.287 7.53l1.845 8.511-1.69.418s18.06 6.221 17.132-16.459zM256.597 293.148s11.812-.583 17.133-16.455"/></g><g fill="#c2d468" stroke="#059036"><path d="M220.755 284.728s-.648 21.548 6.895 19.445l7.535-2.106.392 1.902s5.306-20.354-14.821-19.241zM235.636 303.825s-.66-13.293-14.818-19.243"/></g><g stroke="#059036"><path d="M255.859 273.936s-17.682 8.189-12.82 15.051l4.859 6.855-1.375 1.182s18.671-2.923 9.336-23.088z" fill="#84b719"/><path d="M246.665 297.029s10.466-6.139 9.336-23.086" fill="none"/></g><g fill="#09922f" stroke="#89ba1b"><path d="M254.701 288.667s-19.134-.988-17.286 7.528l1.848 8.511-1.69.417s18.057 6.224 17.127-16.455zM237.699 305.196s11.805-.584 17.129-16.457"/></g><g fill="#c2d468" stroke="#059036"><path d="M216.526 266.656s-.648 21.551 6.895 19.445l7.533-2.104.39 1.902s5.309-20.354-14.818-19.243zM231.407 285.756s-.662-13.293-14.82-19.241"/></g><g stroke="#059036"><path d="M251.631 255.865s-17.683 8.189-12.823 15.051l4.86 6.855-1.372 1.182s18.669-2.923 9.335-23.088z" fill="#84b719"/><path d="M242.439 278.958s10.463-6.135 9.332-23.088" fill="none"/></g><g fill="#c2d468" stroke="#059036"><path d="M201.056 271.42s-.648 21.549 6.892 19.445l7.535-2.104.39 1.903s5.309-20.354-14.817-19.244zM215.936 290.519s-.66-13.293-14.818-19.241"/></g><g stroke="#059036"><path d="M236.159 260.628s-17.682 8.188-12.822 15.053l4.86 6.852-1.375 1.184s18.672-2.924 9.336-23.088z" fill="#84b719"/><path d="M226.965 283.722s10.464-6.139 9.335-23.091" fill="none"/></g><g fill="#09922f" stroke="#89ba1b"><path d="M237.659 278.616s-19.134-.988-17.286 7.53l1.845 8.511-1.69.417s18.06 6.222 17.13-16.457zM220.655 295.144s11.808-.584 17.129-16.457"/></g><g fill="#5aac32" stroke="#059036"><path d="M216.831 262.491s-11.155 17.473-3.824 20.438l7.323 2.96-.61 1.821s14.456-13.571-2.889-25.219zM219.844 287.631s5.996-11.44-2.893-25.217"/></g><g fill="#c2d468" stroke="#059036"><path d="M207.377 293.634s-.648 21.549 6.895 19.445l7.535-2.106.389 1.903s5.309-20.354-14.818-19.243zM222.259 312.734s-.662-13.292-14.821-19.243"/></g><g fill="#09922f" stroke="#89ba1b"><path d="M243.982 300.83s-19.134-.988-17.289 7.53l1.848 8.509-1.69.418s18.059 6.222 17.13-16.457zM226.978 317.359s11.808-.586 17.13-16.457"/></g><g fill="#5aac32" stroke="#059036"><path d="M223.151 284.705s-11.152 17.473-3.822 20.438l7.325 2.96-.61 1.823s14.453-13.571-2.893-25.22zM226.167 309.843s5.996-11.44-2.893-25.215"/></g><g fill="#c2d468" stroke="#059036"><path d="M153.154 265.673s9.534 18.615 14.925 12.242l5.387-6.371 1.222 1.371s-5.036-20.443-21.534-7.242zM174.671 272.757s-6.776-10.839-21.531-7.242"/></g><g stroke="#059036"><path d="M177.787 235.161s-11.121 17.696-3.8 20.54l7.316 2.832-.61 1.836s14.422-13.846-2.906-25.209z" fill="#84b719"/><path d="M180.817 260.289s5.978-11.564-2.909-25.21" fill="none"/></g><g fill="#5aac32" stroke="#059036"><path d="M162.314 248.515s-1.257 21.566 6.329 19.609l7.577-1.96.337 1.912s5.877-20.279-14.243-19.561zM176.625 267.933s-.282-13.325-14.243-19.561"/></g><g stroke="#059036"><path d="M198.537 240.245s-11.12 17.696-3.797 20.538l7.313 2.837-.604 1.835s14.418-13.846-2.912-25.21z" fill="#84b719"/><path d="M201.57 265.373s5.978-11.562-2.908-25.21" fill="none"/></g><g fill="#5aac32" stroke="#059036"><path d="M183.066 253.598s-1.257 21.568 6.327 19.608l7.579-1.96.339 1.913s5.871-20.279-14.245-19.561zM197.375 273.017s-.28-13.327-14.243-19.562"/></g><g fill="#c2d468" stroke="#059036"><path d="M154.174 295.013s9.534 18.617 14.925 12.242l5.388-6.37 1.219 1.368s-5.035-20.445-21.533-7.24zM175.692 302.096s-6.778-10.837-21.533-7.24"/></g><g stroke="#059036"><path d="M178.806 264.5s-11.12 17.698-3.798 20.542l7.314 2.832-.606 1.836s14.419-13.846-2.911-25.21z" fill="#84b719"/><path d="M181.837 289.628s5.977-11.564-2.909-25.212" fill="none"/></g><g fill="#09922f" stroke="#89ba1b"><path d="M188.491 278.796s-16.642 10.821-11.095 16.901l5.544 6.07-1.232 1.379s18.178-5.74 6.783-24.35zM181.847 303.13s9.71-7.687 6.783-24.35"/></g><g fill="#5aac32" stroke="#059036"><path d="M163.335 277.851s-1.257 21.571 6.327 19.613l7.579-1.962.337 1.913s5.874-20.282-14.243-19.564zM177.644 297.271s-.282-13.325-14.243-19.561"/></g><g fill="#c2d468" stroke="#059036"><path d="M183.363 289.196s9.536 18.615 14.927 12.242l5.385-6.371 1.219 1.371s-5.033-20.445-21.531-7.242zM204.881 296.28s-6.778-10.837-21.533-7.24"/></g><g stroke="#059036"><path d="M207.995 258.686s-11.121 17.696-3.798 20.537l7.316 2.837-.61 1.836s14.421-13.846-2.908-25.21z" fill="#84b719"/><path d="M211.027 283.811s5.977-11.562-2.909-25.209" fill="none"/></g><g fill="#09922f" stroke="#89ba1b"><path d="M217.68 272.982s-16.639 10.821-11.093 16.897l5.544 6.072-1.235 1.381s18.181-5.74 6.785-24.35zM211.038 297.317s9.713-7.687 6.785-24.353"/></g><g fill="#5aac32" stroke="#059036"><path d="M192.523 272.038s-1.256 21.568 6.332 19.609l7.58-1.962.336 1.915s5.872-20.284-14.248-19.562zM206.835 291.458s-.283-13.328-14.248-19.562"/></g><g fill="#c2d468" stroke="#059036"><path d="M172.419 300.019s9.536 18.617 14.928 12.242l5.387-6.371 1.219 1.369s-5.036-20.445-21.534-7.24zM193.938 307.101s-6.778-10.839-21.534-7.242"/></g><g fill="#09922f" stroke="#89ba1b"><path d="M188.772 302.861s-16.642 10.821-11.095 16.897l5.544 6.072-1.231 1.381s18.181-5.742 6.782-24.35zM182.129 327.194s9.712-7.687 6.785-24.35"/></g><g fill="#5aac32" stroke="#059036"><path d="M163.617 301.917s-1.257 21.569 6.329 19.609l7.58-1.962.336 1.913s5.872-20.281-14.245-19.561zM177.927 321.335s-.283-13.327-14.246-19.562"/></g><g fill="#c2d468" stroke="#059036"><path d="M198.511 310.245s9.534 18.617 14.925 12.242l5.387-6.37 1.219 1.369s-5.033-20.441-21.531-7.242zM220.027 317.331s-6.776-10.842-21.531-7.242"/></g><g stroke="#059036"><path d="M223.145 279.733s-11.12 17.698-3.798 20.542l7.313 2.836-.609 1.833s14.422-13.844-2.906-25.21z" fill="#84b719"/><path d="M226.176 304.863s5.979-11.564-2.909-25.212" fill="none"/></g><g fill="#09922f" stroke="#89ba1b"><path d="M232.828 294.031s-16.64 10.822-11.095 16.897l5.544 6.072-1.234 1.383s18.182-5.74 6.785-24.352zM226.183 318.364s9.712-7.685 6.785-24.35"/></g><g fill="#c2d468" stroke="#059036"><path d="M191.937 333.08s9.533 18.617 14.924 12.242l5.388-6.37 1.218 1.369s-5.033-20.445-21.53-7.242zM213.452 340.163s-6.776-10.841-21.533-7.24"/></g><g stroke="#059036"><path d="M216.568 302.568s-11.121 17.694-3.798 20.537l7.314 2.837-.607 1.835s14.419-13.844-2.909-25.209z" fill="#84b719"/><path d="M219.598 327.695s5.981-11.564-2.906-25.21" fill="none"/></g><g fill="#09922f" stroke="#89ba1b"><path d="M222.483 315.732s-16.643 10.821-11.096 16.896l5.545 6.072-1.235 1.381s18.182-5.74 6.786-24.348zM215.839 340.062s9.71-7.685 6.785-24.347"/></g><g fill="#c2d468" stroke="#059036"><path d="M179.905 320.378s9.537 18.615 14.928 12.242l5.384-6.371 1.219 1.368s-5.033-20.441-21.531-7.238zM201.423 327.46s-6.779-10.839-21.533-7.24"/></g><g stroke="#059036"><path d="M204.539 289.866s-11.12 17.694-3.8 20.537l7.316 2.836-.606 1.836s14.418-13.842-2.911-25.209z" fill="#84b719"/><path d="M207.568 314.992s5.975-11.566-2.908-25.21" fill="none"/></g><g fill="#c2d468" stroke="#059036"><path d="M169.051 333.828s9.536 18.617 14.927 12.242l5.384-6.371 1.223 1.371s-5.033-20.445-21.534-7.242zM190.569 340.914s-6.776-10.839-21.53-7.242"/></g><g stroke="#059036"><path d="M193.686 303.318s-11.121 17.696-3.801 20.54l7.316 2.831-.604 1.841s14.416-13.851-2.911-25.212z" fill="#84b719"/><path d="M196.718 328.445s5.977-11.566-2.911-25.214" fill="none"/></g><g fill="#09922f" stroke="#89ba1b"><path d="M203.37 317.616s-16.64 10.821-11.095 16.896l5.544 6.072-1.232 1.381s18.179-5.74 6.783-24.348zM196.724 341.949s9.71-7.687 6.785-24.35"/></g><g fill="#5aac32" stroke="#059036"><path d="M178.212 316.67s-1.256 21.568 6.327 19.609l7.58-1.962.336 1.915s5.874-20.282-14.243-19.562zM192.524 336.09s-.283-13.327-14.245-19.561"/></g><g fill="#c2d468" stroke="#059036"><path d="M184.792 348.76s9.534 18.618 14.928 12.244l5.382-6.373 1.222 1.371s-5.035-20.445-21.533-7.242zM206.309 355.846s-6.779-10.839-21.533-7.242"/></g><g fill="#09922f" stroke="#89ba1b"><path d="M219.108 332.548s-16.64 10.821-11.095 16.897l5.545 6.072-1.234 1.383s18.181-5.74 6.783-24.352zM212.465 356.881s9.712-7.689 6.785-24.35"/></g><g fill="#5aac32" stroke="#059036"><path d="M193.953 331.602s-1.256 21.568 6.33 19.609l7.577-1.96.336 1.913s5.874-20.281-14.243-19.562zM208.262 351.022s-.279-13.327-14.246-19.561"/></g><g fill="#c2d468" stroke="#059036"><path d="M244.396 277.935s-7.363 19.857.34 20.97l7.696 1.11-.233 1.935s11.341-16.837-7.803-24.015zM252.303 301.843s3.553-12.682-7.804-24.019"/></g><g stroke="#059036"><path d="M280.56 282.189s-19.081.427-16.692 8.819l2.388 8.388-1.652.541s18.349 4.893 15.955-17.748z" fill="#84b719"/><path d="M264.736 299.998s11.696-1.461 15.955-17.751" fill="none"/></g><g fill="#5aac32" stroke="#059036"><path d="M261.926 276.035s-15.895 11.76-9.979 17.527l5.912 5.752-1.14 1.453s17.751-6.771 5.206-24.732zM256.858 300.74s9.186-8.234 5.208-24.728"/></g><g stroke="#059036"><path d="M289.411 304.198s-19.078.429-16.692 8.824l2.387 8.383-1.649.544s18.349 4.89 15.954-17.751z" fill="#84b719"/><path d="M273.585 322.012s11.698-1.46 15.958-17.749" fill="none"/></g><g fill="#5aac32" stroke="#059036"><path d="M270.777 298.048s-15.895 11.762-9.981 17.522l5.915 5.755-1.138 1.451s17.751-6.768 5.205-24.728zM265.708 322.751s9.188-8.234 5.208-24.727"/></g><g fill="#c2d468" stroke="#059036"><path d="M224.408 296.424s-7.361 19.86.34 20.974l7.699 1.11-.232 1.935s11.337-16.835-7.807-24.019zM232.316 320.338s3.552-12.684-7.806-24.019"/></g><g stroke="#059036"><path d="M260.575 300.68s-19.081.427-16.693 8.822l2.387 8.385-1.65.544s18.351 4.891 15.957-17.751z" fill="#84b719"/><path d="M244.746 318.493s11.699-1.461 15.957-17.751" fill="none"/></g><g fill="#09922f" stroke="#89ba1b"><path d="M256.334 318.089s-17.557-8.735-18.502-.027l-.943 8.701-1.708-.301s14.908 13.184 21.153-8.373zM235.274 326.582s11.208 4.279 21.156-8.372"/></g><g fill="#5aac32" stroke="#059036"><path d="M241.94 294.531s-15.895 11.762-9.979 17.523l5.912 5.752-1.141 1.455s17.754-6.771 5.208-24.73zM236.872 319.234s9.186-8.236 5.206-24.73"/></g><g fill="#c2d468" stroke="#059036"><path d="M245.963 319.628s-7.361 19.859.34 20.97l7.697 1.11-.235 1.935s11.341-16.839-7.803-24.015zM253.87 343.539s3.555-12.682-7.804-24.019"/></g><g stroke="#059036"><path d="M282.128 323.883s-19.081.425-16.692 8.822l2.387 8.382-1.652.544s18.351 4.893 15.957-17.748z" fill="#84b719"/><path d="M266.302 341.693s11.696-1.46 15.955-17.749" fill="none"/></g><g fill="#09922f" stroke="#89ba1b"><path d="M277.887 341.293s-17.559-8.737-18.503-.03l-.943 8.703-1.709-.303s14.914 13.186 21.156-8.37zM256.829 349.783s11.211 4.277 21.156-8.373"/></g><g fill="#5aac32" stroke="#059036"><path d="M263.493 317.729s-15.893 11.762-9.977 17.523l5.913 5.755-1.143 1.451s17.754-6.768 5.206-24.73zM258.426 342.436s9.188-8.236 5.205-24.728"/></g><g fill="#c2d468" stroke="#059036"><path d="M231.816 316.102s-7.36 19.855.34 20.972l7.697 1.108-.232 1.935s11.337-16.839-7.806-24.015zM239.723 340.012s3.552-12.682-7.806-24.019"/></g><g fill="#09922f" stroke="#89ba1b"><path d="M239.609 332.752s-17.556-8.735-18.503-.027l-.942 8.703-1.709-.303s14.909 13.184 21.154-8.373zM218.547 341.244s11.211 4.277 21.157-8.375"/></g><g fill="#5aac32" stroke="#059036"><path d="M225.215 309.192s-15.896 11.76-9.98 17.52l5.913 5.755-1.14 1.451s17.751-6.768 5.206-24.727zM220.146 333.895s9.189-8.234 5.208-24.728"/></g><g fill="#c2d468" stroke="#059036"><path d="M240.254 346.075s-7.364 19.857.34 20.97l7.694 1.112-.23 1.935s11.338-16.837-7.804-24.017zM248.162 369.985s3.552-12.684-7.803-24.019"/></g><g stroke="#059036"><path d="M276.419 350.329s-19.081.427-16.694 8.822l2.388 8.385-1.653.542s18.352 4.891 15.959-17.749z" fill="#84b719"/><path d="M260.591 368.139s11.698-1.458 15.958-17.748" fill="none"/></g><g fill="#09922f" stroke="#89ba1b"><path d="M272.178 367.739s-17.559-8.735-18.502-.028l-.948 8.701-1.709-.3s14.916 13.183 21.159-8.373zM251.118 376.229s11.209 4.277 21.159-8.373"/></g><g fill="#c2d468" stroke="#059036"><path d="M220.29 353.73s-7.364 19.857.339 20.972l7.696 1.11-.235 1.935s11.343-16.837-7.8-24.017zM228.197 377.642s3.552-12.684-7.804-24.02"/></g><g stroke="#059036"><path d="M256.453 357.986s-19.078.427-16.692 8.822l2.388 8.383-1.652.544s18.348 4.89 15.955-17.749z" fill="#84b719"/><path d="M240.626 375.797s11.696-1.46 15.958-17.749" fill="none"/></g><g fill="#09922f" stroke="#89ba1b"><path d="M250.754 371.267s-17.559-8.733-18.505-.025l-.945 8.7-1.708-.303s14.915 13.186 21.157-8.372zM229.695 379.763s11.205 4.275 21.154-8.373"/></g><g fill="#c2d468" stroke="#059036"><path d="M222.003 335.131s-7.361 19.859.34 20.974l7.697 1.108-.233 1.935s11.341-16.839-7.804-24.017zM229.909 359.04s3.553-12.682-7.802-24.017"/></g><g stroke="#059036"><path d="M258.171 339.386s-19.08.429-16.693 8.82l2.387 8.387-1.652.542s18.351 4.89 15.958-17.749z" fill="#84b719"/><path d="M242.343 357.196s11.696-1.461 15.957-17.751" fill="none"/></g><g fill="#c2d468" stroke="#059036"><path d="M206.067 333.261s-7.363 19.859.339 20.97l7.694 1.112-.23 1.935s11.338-16.837-7.803-24.017zM213.972 357.171s3.552-12.684-7.804-24.017"/></g><g stroke="#059036"><path d="M242.229 337.514s-19.077.427-16.694 8.822l2.393 8.383-1.655.542s18.351 4.893 15.957-17.748z" fill="#84b719"/><path d="M226.403 355.327s11.695-1.46 15.955-17.751" fill="none"/></g><g fill="#09922f" stroke="#89ba1b"><path d="M237.986 354.927s-17.554-8.737-18.499-.028l-.943 8.7-1.709-.301s14.912 13.184 21.151-8.37zM216.931 363.418s11.208 4.275 21.153-8.377"/></g><g fill="#5aac32" stroke="#059036"><path d="M223.595 331.366s-15.895 11.76-9.979 17.523l5.915 5.755-1.141 1.451s17.751-6.773 5.205-24.73zM218.528 356.067s9.186-8.233 5.206-24.727"/></g><g fill="#c2d468" stroke="#059036"><path d="M205.002 356.588s-7.361 19.855.34 20.972l7.696 1.108-.232 1.935s11.337-16.837-7.804-24.015zM212.912 380.494s3.552-12.681-7.806-24.017"/></g><g fill="#09922f" stroke="#89ba1b"><path d="M236.927 378.25s-17.56-8.735-18.503-.028l-.945 8.701-1.709-.298s14.915 13.183 21.157-8.375zM215.868 386.747s11.208 4.272 21.156-8.377"/></g><g fill="#5aac32" stroke="#059036"><path d="M222.533 354.69s-15.895 11.76-9.98 17.523l5.915 5.755-1.141 1.451s17.752-6.771 5.206-24.73zM217.465 379.396s9.188-8.236 5.206-24.73"/></g><g fill="#c2d468" stroke="#059036"><path d="M296.552 233.738s-9.764 18.458-2.28 20.815l7.482 2.349-.471 1.878s13.323-14.827-4.731-25.041zM301.398 258.689s5.098-11.977-4.731-25.041"/></g><g stroke="#059036"><path d="M331.82 243.822s-18.94-2.677-17.625 6.02l1.32 8.688-1.705.27s17.554 7.823 18.009-14.977z" fill="#84b719"/><path d="M313.933 258.882s11.759.454 18.006-14.976" fill="none"/></g><g fill="#5aac32" stroke="#059036"><path d="M314.141 234.707s-17.199 9.058-12.063 15.726l5.135 6.654-1.31 1.252s18.417-3.817 8.239-23.632zM306.042 258.338s10.121-6.659 8.24-23.63"/></g><g stroke="#059036"><path d="M337.833 267.051s-18.938-2.678-17.62 6.018l1.316 8.685-1.705.271s17.556 7.824 18.009-14.974z" fill="#84b719"/><path d="M319.949 282.108s11.757.454 18.006-14.976" fill="none"/></g><g fill="#5aac32" stroke="#059036"><path d="M320.156 257.932s-17.201 9.06-12.063 15.724l5.135 6.657-1.31 1.252s18.418-3.818 8.239-23.634zM312.06 281.563s10.121-6.657 8.237-23.632"/></g><g fill="#c2d468" stroke="#059036"><path d="M274.463 248.794s-9.763 18.463-2.278 20.816l7.479 2.349-.471 1.877s13.323-14.823-4.73-25.041zM279.309 273.75s5.098-11.977-4.73-25.041"/></g><g stroke="#059036"><path d="M309.733 258.882s-18.942-2.677-17.626 6.02l1.317 8.686-1.703.271s17.556 7.823 18.012-14.977z" fill="#84b719"/><path d="M291.843 273.943s11.758.454 18.007-14.979" fill="none"/></g><g fill="#09922f" stroke="#89ba1b"><path d="M303.36 275.426s-16.287-11.499-18.311-3.033l-2.019 8.46-1.65-.578s13.112 15.473 21.98-4.85zM281.457 280.413s10.558 6.05 21.982-4.853"/></g><g fill="#5aac32" stroke="#059036"><path d="M292.051 249.765s-17.198 9.061-12.063 15.724l5.136 6.659-1.31 1.25s18.415-3.818 8.237-23.634zM283.955 273.399s10.119-6.661 8.239-23.632"/></g><g fill="#c2d468" stroke="#059036"><path d="M292.905 275.263s-9.764 18.458-2.28 20.815l7.477 2.347-.469 1.878s13.326-14.827-4.728-25.04zM297.751 300.213s5.098-11.977-4.728-25.041"/></g><g stroke="#059036"><path d="M328.17 285.348s-18.94-2.677-17.622 6.02l1.316 8.685-1.703.273s17.554 7.823 18.009-14.977z" fill="#84b719"/><path d="M310.286 300.405s11.759.457 18.006-14.974" fill="none"/></g><g fill="#09922f" stroke="#89ba1b"><path d="M321.801 301.892s-16.287-11.497-18.31-3.033l-2.017 8.46-1.656-.578s13.115 15.474 21.983-4.85zM299.897 306.877s10.559 6.052 21.982-4.851"/></g><g fill="#5aac32" stroke="#059036"><path d="M310.493 276.233s-17.199 9.058-12.062 15.726l5.135 6.656-1.31 1.25s18.417-3.818 8.237-23.632zM302.397 299.861s10.119-6.659 8.239-23.63"/></g><g fill="#c2d468" stroke="#059036"><path d="M279.341 269.476s-9.763 18.459-2.28 20.815l7.48 2.349-.469 1.878s13.322-14.83-4.731-25.041zM284.188 294.426s5.095-11.977-4.733-25.041"/></g><g fill="#09922f" stroke="#89ba1b"><path d="M284.976 287.221s-16.287-11.497-18.308-3.032l-2.022 8.459-1.65-.574s13.114 15.471 21.98-4.853zM263.074 292.206s10.559 6.053 21.984-4.851"/></g><g fill="#5aac32" stroke="#059036"><path d="M273.67 261.563s-17.201 9.058-12.063 15.724l5.135 6.656-1.311 1.252s18.418-3.82 8.24-23.632zM265.573 285.194s10.119-6.659 8.237-23.632"/></g><g fill="#c2d468" stroke="#059036"><path d="M283.955 300.512s-9.764 18.461-2.281 20.813l7.479 2.35-.469 1.88s13.323-14.828-4.728-25.043zM288.799 325.463s5.102-11.976-4.731-25.041"/></g><g stroke="#059036"><path d="M319.22 310.597s-18.939-2.675-17.625 6.021l1.319 8.686-1.706.268s17.559 7.824 18.012-14.976z" fill="#84b719"/><path d="M301.333 325.656s11.758.455 18.007-14.977" fill="none"/></g><g fill="#09922f" stroke="#89ba1b"><path d="M312.852 327.141s-16.29-11.495-18.31-3.032l-2.02 8.459-1.653-.574s13.115 15.471 21.983-4.853zM290.944 332.126s10.561 6.053 21.986-4.85"/></g><g fill="#c2d468" stroke="#059036"><path d="M263.239 304.85s-9.767 18.458-2.281 20.815l7.48 2.349-.474 1.878s13.325-14.828-4.725-25.041zM268.08 329.799s5.099-11.976-4.727-25.04"/></g><g stroke="#059036"><path d="M298.503 314.934s-18.94-2.677-17.623 6.021l1.319 8.686-1.703.268s17.554 7.823 18.007-14.976z" fill="#84b719"/><path d="M280.616 329.993s11.761.455 18.007-14.976" fill="none"/></g><g fill="#09922f" stroke="#89ba1b"><path d="M291.202 327.156s-16.288-11.497-18.31-3.032l-2.02 8.459-1.653-.576s13.118 15.473 21.983-4.851zM269.3 332.143s10.559 6.05 21.986-4.851"/></g><g fill="#c2d468" stroke="#059036"><path d="M267.256 286.717s-9.764 18.459-2.28 20.816l7.479 2.349-.469 1.877s13.323-14.827-4.73-25.041zM272.1 311.668s5.099-11.977-4.728-25.04"/></g><g stroke="#059036"><path d="M302.523 296.801s-18.942-2.675-17.623 6.02l1.319 8.688-1.705.268s17.553 7.824 18.009-14.976z" fill="#84b719"/><path d="M284.637 311.86s11.755.454 18.006-14.976" fill="none"/></g><g fill="#c2d468" stroke="#059036"><path d="M251.715 282.277s-9.767 18.458-2.284 20.813l7.479 2.35-.471 1.877s13.326-14.823-4.724-25.04zM256.556 307.228s5.099-11.977-4.728-25.04"/></g><g stroke="#059036"><path d="M286.977 292.363s-18.936-2.678-17.625 6.018l1.322 8.688-1.703.268s17.554 7.823 18.006-14.974z" fill="#84b719"/><path d="M269.091 307.423s11.758.454 18.007-14.977" fill="none"/></g><g fill="#09922f" stroke="#89ba1b"><path d="M280.609 308.907s-16.29-11.497-18.31-3.033l-2.022 8.459-1.65-.576s13.114 15.471 21.982-4.85zM258.705 313.891s10.559 6.053 21.984-4.853"/></g><g fill="#5aac32" stroke="#059036"><path d="M269.3 283.245s-17.198 9.061-12.063 15.726l5.136 6.656-1.31 1.252s18.415-3.818 8.237-23.634zM261.205 306.877s10.118-6.659 8.237-23.63"/></g><g fill="#c2d468" stroke="#059036"><path d="M247.751 305.193s-9.764 18.459-2.278 20.815l7.477 2.35-.471 1.878s13.326-14.83-4.728-25.043zM252.596 330.144s5.096-11.977-4.731-25.041"/></g><g fill="#09922f" stroke="#89ba1b"><path d="M276.649 331.819s-16.291-11.495-18.313-3.032l-2.019 8.46-1.652-.574s13.114 15.471 21.983-4.855zM254.743 336.808s10.562 6.05 21.986-4.853"/></g><g fill="#5aac32" stroke="#059036"><path d="M265.34 306.165s-17.198 9.056-12.063 15.724l5.135 6.654-1.311 1.25s18.418-3.817 8.24-23.629zM257.239 329.792s10.122-6.659 8.24-23.632"/></g><g fill="#c2d468" stroke="#059036"><path d="M331.585 277.167s-9.616 18.563-2.111 20.836l7.499 2.27-.458 1.883s13.204-14.966-4.931-24.989zM336.63 302.066s5.002-12.031-4.931-24.991"/></g><g stroke="#059036"><path d="M366.93 286.878s-18.961-2.476-17.575 6.206l1.389 8.675-1.702.286s17.617 7.638 17.887-15.166z" fill="#84b719"/><path d="M349.167 302.126s11.764.331 17.886-15.165" fill="none"/></g><g fill="#5aac32" stroke="#059036"><path d="M349.179 277.948s-17.126 9.242-11.936 15.851l5.19 6.602-1.3 1.266s18.383-4.011 8.045-23.719zM341.272 301.666s10.068-6.768 8.049-23.717"/></g><g stroke="#059036"><path d="M373.132 310.037s-18.957-2.476-17.572 6.207l1.388 8.673-1.699.288s17.616 7.638 17.883-15.168z" fill="#84b719"/><path d="M355.37 325.288s11.764.33 17.887-15.166" fill="none"/></g><g fill="#5aac32" stroke="#059036"><path d="M355.383 301.112s-17.123 9.242-11.933 15.849l5.186 6.604-1.3 1.266s18.383-4.013 8.046-23.719zM347.477 324.824s10.067-6.765 8.046-23.717"/></g><g fill="#c2d468" stroke="#059036"><path d="M309.616 292.457s-9.613 18.565-2.11 20.838l7.499 2.27-.455 1.883s13.203-14.964-4.935-24.991zM314.664 317.356s5.001-12.031-4.934-24.989"/></g><g stroke="#059036"><path d="M344.964 302.171s-18.958-2.476-17.573 6.204l1.388 8.675-1.7.29s17.617 7.635 17.886-15.168z" fill="#84b719"/><path d="M327.202 317.418s11.761.328 17.886-15.168" fill="none"/></g><g fill="#09922f" stroke="#89ba1b"><path d="M338.73 318.779s-16.381-11.326-18.335-2.836l-1.948 8.48-1.662-.559s13.241 15.33 21.945-5.086zM316.867 323.997s10.609 5.941 21.945-5.086"/></g><g fill="#5aac32" stroke="#059036"><path d="M327.214 293.242s-17.126 9.242-11.937 15.853l5.19 6.599-1.301 1.266s18.386-4.011 8.048-23.717zM319.308 316.956s10.067-6.765 8.046-23.717"/></g><g fill="#c2d468" stroke="#059036"><path d="M328.271 318.727s-9.613 18.565-2.11 20.838l7.496 2.268-.458 1.882s13.209-14.964-4.929-24.988zM333.319 343.626s5-12.029-4.934-24.989"/></g><g stroke="#059036"><path d="M363.619 328.44s-18.957-2.476-17.57 6.204l1.386 8.675-1.7.288s17.614 7.638 17.884-15.166z" fill="#84b719"/><path d="M345.856 343.688s11.762.333 17.884-15.166" fill="none"/></g><g fill="#09922f" stroke="#89ba1b"><path d="M357.386 345.051s-16.381-11.326-18.335-2.839l-1.951 8.48-1.659-.559s13.24 15.334 21.945-5.082zM335.523 350.269s10.609 5.941 21.943-5.086"/></g><g fill="#5aac32" stroke="#059036"><path d="M345.868 319.511s-17.124 9.244-11.936 15.854l5.19 6.602-1.301 1.264s18.386-4.014 8.046-23.721zM337.962 343.226s10.065-6.766 8.044-23.719"/></g><g fill="#c2d468" stroke="#059036"><path d="M314.662 313.086s-9.613 18.561-2.11 20.838l7.498 2.268-.458 1.883s13.206-14.967-4.931-24.989zM319.709 337.985s5.001-12.033-4.934-24.991"/></g><g fill="#09922f" stroke="#89ba1b"><path d="M320.444 330.772s-16.379-11.326-18.336-2.837l-1.95 8.477-1.659-.556s13.24 15.33 21.945-5.084zM298.579 335.986s10.611 5.943 21.945-5.084"/></g><g fill="#5aac32" stroke="#059036"><path d="M308.926 305.231s-17.126 9.242-11.934 15.851l5.187 6.602-1.3 1.266s18.386-4.013 8.046-23.719zM301.022 328.947s10.068-6.766 8.045-23.717"/></g><g fill="#c2d468" stroke="#059036"><path d="M319.527 344.07s-9.613 18.565-2.11 20.838l7.495 2.268-.453 1.883s13.204-14.962-4.932-24.989zM324.573 368.969s5.001-12.031-4.929-24.989"/></g><g stroke="#059036"><path d="M354.876 353.782s-18.958-2.476-17.576 6.207l1.391 8.675-1.702.285s17.614 7.638 17.887-15.166z" fill="#84b719"/><path d="M337.11 369.033s11.762.328 17.884-15.168" fill="none"/></g><g fill="#09922f" stroke="#89ba1b"><path d="M348.641 370.392s-16.381-11.323-18.336-2.836l-1.953 8.48-1.658-.557s13.243 15.33 21.946-5.087zM326.775 375.608s10.611 5.944 21.943-5.084"/></g><g fill="#c2d468" stroke="#059036"><path d="M298.849 348.626s-9.615 18.561-2.11 20.835l7.495 2.272-.456 1.882s13.204-14.966-4.929-24.988zM303.894 373.524s5-12.031-4.931-24.991"/></g><g stroke="#059036"><path d="M334.192 358.339s-18.955-2.476-17.572 6.206l1.388 8.676-1.7.285s17.614 7.637 17.884-15.166z" fill="#84b719"/><path d="M316.428 373.586s11.764.33 17.889-15.166" fill="none"/></g><g fill="#09922f" stroke="#89ba1b"><path d="M326.992 370.636s-16.382-11.325-18.335-2.837l-1.95 8.48-1.659-.559s13.243 15.332 21.943-5.084zM305.131 375.856s10.609 5.941 21.942-5.086"/></g><g fill="#c2d468" stroke="#059036"><path d="M302.719 330.452s-9.615 18.565-2.112 20.838l7.498 2.27-.455 1.882s13.206-14.966-4.931-24.989zM307.766 355.351s5-12.031-4.932-24.988"/></g><g stroke="#059036"><path d="M338.065 340.163s-18.96-2.474-17.573 6.206l1.389 8.676-1.703.286s17.617 7.635 17.887-15.168z" fill="#84b719"/><path d="M320.303 355.413s11.761.33 17.884-15.168" fill="none"/></g><g fill="#c2d468" stroke="#059036"><path d="M287.14 326.178s-9.616 18.561-2.112 20.836l7.498 2.27-.455 1.883s13.204-14.966-4.931-24.989zM292.186 351.076s5.001-12.031-4.935-24.988"/></g><g stroke="#059036"><path d="M322.484 335.891s-18.957-2.476-17.573 6.206l1.391 8.673-1.703.286s17.619 7.637 17.886-15.165z" fill="#84b719"/><path d="M304.72 351.137s11.762.328 17.887-15.168" fill="none"/></g><g fill="#09922f" stroke="#89ba1b"><path d="M316.251 352.502s-16.382-11.326-18.336-2.839l-1.951 8.479-1.661-.556s13.244 15.33 21.948-5.084zM294.388 357.716s10.609 5.939 21.942-5.086"/></g><g fill="#5aac32" stroke="#059036"><path d="M304.735 326.962s-17.127 9.242-11.937 15.853l5.192 6.599-1.301 1.267s18.384-4.014 8.046-23.719zM296.829 350.677s10.064-6.765 8.045-23.717"/></g><g fill="#c2d468" stroke="#059036"><path d="M283.364 349.135s-9.615 18.561-2.111 20.836l7.499 2.27-.458 1.883s13.207-14.967-4.931-24.989zM288.41 374.033s5.002-12.031-4.934-24.991"/></g><g fill="#09922f" stroke="#89ba1b"><path d="M312.476 375.456s-16.382-11.325-18.336-2.839l-1.948 8.482-1.661-.557s13.243 15.332 21.945-5.086zM290.612 380.675s10.612 5.939 21.945-5.086"/></g><g fill="#5aac32" stroke="#059036"><path d="M300.959 349.919s-17.123 9.242-11.934 15.849l5.19 6.604-1.303 1.264s18.384-4.011 8.046-23.717zM293.055 373.634s10.065-6.766 8.046-23.719"/></g><g fill="#c2d468" stroke="#059036"><path d="M382.574 316.196s-16.863 9.729-11.616 16.258l5.247 6.522-1.273 1.307s18.189-4.496 7.642-24.087zM375.072 340.275s9.892-7.061 7.64-24.084"/></g><g stroke="#059036"><path d="M407.77 346.104s-14.805-13.74-17.735-5.576l-2.925 8.164-1.57-.804s11.239 17.262 22.229-1.784z" fill="#84b719"/><path d="M385.606 348.032s9.751 7.51 22.224-1.783" fill="none"/></g><g fill="#5aac32" stroke="#059036"><path d="M397.03 327.67s-18.791-2.739-17.538 6.021l1.254 8.752-1.691.264s17.382 7.92 17.975-15.038zM379.173 342.791s11.674.489 17.974-15.036"/></g><g stroke="#059036"><path d="M402.066 369.429s-14.806-13.739-17.737-5.571l-2.924 8.161-1.568-.802s11.236 17.262 22.229-1.788z" fill="#84b719"/><path d="M379.898 371.361s9.754 7.506 22.229-1.786" fill="none"/></g><g fill="#5aac32" stroke="#059036"><path d="M391.322 350.997s-18.792-2.74-17.537 6.02l1.254 8.752-1.691.268s17.381 7.918 17.974-15.039zM373.467 366.118s11.676.487 17.974-15.038"/></g><g fill="#c2d468" stroke="#059036"><path d="M356.849 315.577s-16.863 9.731-11.614 16.26l5.245 6.522-1.272 1.306s18.189-4.495 7.642-24.087zM349.348 339.657s9.891-7.063 7.637-24.087"/></g><g stroke="#059036"><path d="M382.044 345.486s-14.806-13.74-17.736-5.573l-2.924 8.161-1.571-.804s11.239 17.262 22.231-1.784z" fill="#84b719"/><path d="M359.881 347.413s9.753 7.508 22.228-1.784" fill="none"/></g><g fill="#09922f" stroke="#89ba1b"><path d="M368.95 355.646s-8.456-19.608-14.107-13.658l-5.648 5.946-1.133-1.492s3.917 21.056 20.887 9.204zM348.067 346.606s6.135 11.525 20.89 9.204"/></g><g fill="#5aac32" stroke="#059036"><path d="M371.303 327.052s-18.792-2.74-17.537 6.02l1.253 8.752-1.691.268s17.384 7.921 17.975-15.039zM353.447 342.175s11.676.487 17.977-15.036"/></g><g fill="#c2d468" stroke="#059036"><path d="M360.164 349.176s-16.862 9.731-11.611 16.26l5.245 6.522-1.273 1.304s18.189-4.495 7.64-24.086zM352.663 373.256s9.892-7.064 7.637-24.086"/></g><g stroke="#059036"><path d="M385.36 379.085s-14.803-13.739-17.732-5.571l-2.927 8.159-1.57-.802s11.237 17.261 22.228-1.786z" fill="#84b719"/><path d="M363.196 381.013s9.751 7.508 22.227-1.783" fill="none"/></g><g fill="#09922f" stroke="#89ba1b"><path d="M372.265 389.248s-8.453-19.608-14.107-13.662l-5.645 5.946-1.133-1.49s3.915 21.059 20.884 9.205zM351.384 380.205s6.135 11.527 20.89 9.204"/></g><g fill="#5aac32" stroke="#059036"><path d="M374.62 360.654s-18.791-2.74-17.537 6.018l1.253 8.752-1.693.264s17.384 7.923 17.977-15.034zM356.764 375.774s11.674.487 17.978-15.038"/></g><g fill="#c2d468" stroke="#059036"><path d="M351.362 336.056s-16.862 9.729-11.614 16.26l5.246 6.52-1.273 1.307s18.189-4.495 7.642-24.087zM343.861 360.135s9.892-7.063 7.64-24.087"/></g><g fill="#09922f" stroke="#89ba1b"><path d="M347.882 354.509s-8.454-19.608-14.11-13.66l-5.645 5.946-1.133-1.488s3.92 21.054 20.887 9.202zM327.003 345.464s6.132 11.527 20.889 9.205"/></g><g fill="#5aac32" stroke="#059036"><path d="M350.235 325.915s-18.792-2.74-17.538 6.018l1.256 8.753-1.691.266s17.382 7.92 17.974-15.038zM332.381 341.037s11.674.485 17.977-15.038"/></g><g fill="#c2d468" stroke="#059036"><path d="M340.835 365.154s-16.865 9.729-11.616 16.258l5.245 6.522-1.272 1.307s18.188-4.493 7.643-24.087zM333.334 389.234s9.889-7.063 7.639-24.086"/></g><g stroke="#059036"><path d="M366.029 395.062s-14.805-13.74-17.736-5.574l-2.925 8.162-1.57-.802s11.237 17.261 22.231-1.786z" fill="#84b719"/><path d="M343.863 396.99s9.756 7.508 22.232-1.784" fill="none"/></g><g fill="#09922f" stroke="#89ba1b"><path d="M352.936 405.226s-8.456-19.609-14.108-13.662l-5.646 5.946-1.137-1.488s3.921 21.056 20.892 9.204zM332.053 396.181s6.134 11.527 20.889 9.202"/></g><g fill="#c2d468" stroke="#059036"><path d="M321.259 356.278s-16.862 9.731-11.613 16.26l5.246 6.522-1.275 1.306s18.189-4.495 7.642-24.087zM313.758 380.359s9.891-7.063 7.64-24.089"/></g><g stroke="#059036"><path d="M346.453 386.188s-14.803-13.739-17.735-5.571l-2.924 8.161-1.567-.804s11.236 17.259 22.225-1.786z" fill="#84b719"/><path d="M324.289 388.116s9.756 7.508 22.228-1.784" fill="none"/></g><g fill="#09922f" stroke="#89ba1b"><path d="M334.581 392.125s-8.453-19.613-14.104-13.665l-5.648 5.948-1.134-1.49s3.915 21.059 20.886 9.207zM313.7 383.082s6.135 11.525 20.89 9.204"/></g><g fill="#c2d468" stroke="#059036"><path d="M333.102 343.347s-16.866 9.731-11.617 16.26l5.246 6.522-1.272 1.304s18.188-4.493 7.643-24.086zM325.599 367.427s9.893-7.064 7.64-24.086"/></g><g stroke="#059036"><path d="M358.295 373.254s-14.803-13.739-17.733-5.571l-2.925 8.161-1.568-.802s11.234 17.259 22.227-1.788z" fill="#84b719"/><path d="M336.133 375.183s9.753 7.506 22.228-1.784" fill="none"/></g><g fill="#c2d468" stroke="#059036"><path d="M321.993 330.171s-16.863 9.731-11.614 16.258l5.242 6.522-1.269 1.306s18.186-4.495 7.642-24.086zM314.489 354.248s9.895-7.063 7.64-24.086"/></g><g stroke="#059036"><path d="M347.187 360.078s-14.802-13.74-17.736-5.573l-2.922 8.161-1.571-.804s11.24 17.262 22.229-1.784z" fill="#84b719"/><path d="M325.024 362.005s9.753 7.508 22.228-1.784" fill="none"/></g><g fill="#09922f" stroke="#89ba1b"><path d="M334.094 370.239s-8.456-19.609-14.107-13.662l-5.648 5.946-1.134-1.49s3.918 21.057 20.889 9.205zM313.211 361.198s6.134 11.525 20.889 9.202"/></g><g fill="#5aac32" stroke="#059036"><path d="M336.447 341.643s-18.791-2.737-17.537 6.021l1.254 8.752-1.694.268s17.384 7.918 17.977-15.041zM318.592 356.765s11.674.487 17.972-15.036"/></g><g fill="#c2d468" stroke="#059036"><path d="M307.973 347.192s-16.862 9.729-11.614 16.26l5.246 6.522-1.273 1.306s18.191-4.496 7.642-24.087zM300.473 371.271s9.892-7.064 7.64-24.089"/></g><g fill="#09922f" stroke="#89ba1b"><path d="M320.077 387.261s-8.457-19.609-14.107-13.663l-5.648 5.949-1.134-1.49s3.918 21.057 20.889 9.204zM299.194 378.219s6.136 11.525 20.889 9.204"/></g><g fill="#5aac32" stroke="#059036"><path d="M322.43 358.667s-18.791-2.74-17.538 6.018l1.253 8.752-1.693.268s17.385 7.92 17.978-15.038zM304.575 373.785s11.674.489 17.972-15.036"/></g><g fill="#c2d468" stroke="#059036"><path d="M.64 313.695s14.118 14.333 17.515 6.366l3.392-7.962 1.532.872s-10.336-17.662-22.438.723zM23.024 312.826s-9.387-7.91-22.439.723"/></g><g stroke="#059036"><path d="M15.781 275.978s-5.77 20.756 1.958 20.871l7.73.109-.081 1.962s9.954-18.262-9.607-22.942z" fill="#84b719"/><path d="M25.481 298.798s2.545-13.109-9.609-22.939" fill="none"/></g><g fill="#5aac32" stroke="#059036"><path d="M4.692 294.141s4.661 20.953 11.341 16.41l6.67-4.542.838 1.697s.084-21.359-18.849-13.566zM23.571 307.55s-3.886-12.572-18.854-13.566"/></g><g stroke="#059036"><path d="M36.887 273.477s-5.767 20.756 1.964 20.871l7.725.109-.079 1.96s9.954-18.26-9.61-22.94z" fill="#84b719"/><path d="M46.594 296.299s2.544-13.111-9.61-22.942" fill="none"/></g><g fill="#5aac32" stroke="#059036"><path d="M25.804 291.642s4.659 20.953 11.338 16.41l6.673-4.542.839 1.696s.081-21.354-18.851-13.564zM44.68 305.051s-3.883-12.573-18.852-13.564"/></g><g fill="#c2d468" stroke="#059036"><path d="M9.573 341.231s14.121 14.334 17.517 6.366l3.393-7.96 1.53.87s-10.336-17.659-22.441.723zM31.957 340.36s-9.389-7.906-22.439.728"/></g><g stroke="#059036"><path d="M24.713 303.514s-5.768 20.756 1.963 20.873l7.727.109-.079 1.962s9.949-18.263-9.61-22.944z" fill="#84b719"/><path d="M34.415 326.335s2.545-13.109-9.61-22.94" fill="none"/></g><g fill="#09922f" stroke="#89ba1b"><path d="M37.801 313.685s-12.885 16.169-5.96 19.988l6.918 3.812-.798 1.749s15.729-11.882-.16-25.549zM38.09 339.172s7.147-10.74-.16-25.552"/></g><g fill="#5aac32" stroke="#059036"><path d="M13.626 321.677s4.659 20.953 11.34 16.409l6.673-4.542.838 1.701s.081-21.36-18.851-13.568zM32.504 335.085s-3.885-12.573-18.854-13.566"/></g><g fill="#c2d468" stroke="#059036"><path d="M35.749 325.386s14.118 14.329 17.513 6.363l3.393-7.96 1.532.872s-10.338-17.661-22.438.725zM58.131 324.518s-9.386-7.911-22.438.725"/></g><g stroke="#059036"><path d="M50.888 287.668s-5.768 20.753 1.963 20.868l7.725.112-.079 1.959s9.952-18.258-9.609-22.939z" fill="#84b719"/><path d="M60.591 310.488s2.544-13.107-9.609-22.942" fill="none"/></g><g fill="#09922f" stroke="#89ba1b"><path d="M63.977 297.839s-12.885 16.167-5.962 19.988l6.92 3.812-.798 1.749s15.728-11.882-.16-25.549zM64.266 323.326s7.149-10.74-.158-25.552"/></g><g fill="#5aac32" stroke="#059036"><path d="M39.802 305.834s4.658 20.952 11.34 16.407l6.675-4.542.838 1.699s.079-21.362-18.852-13.564zM58.679 319.238s-3.885-12.572-18.854-13.566"/></g><g fill="#c2d468" stroke="#059036"><path d="M28.282 339.543s14.117 14.333 17.516 6.365l3.392-7.962 1.532.872s-10.335-17.659-22.439.725zM50.664 338.673s-9.387-7.911-22.441.727"/></g><g fill="#09922f" stroke="#89ba1b"><path d="M44.602 336.467s-12.885 16.167-5.96 19.988l6.917 3.81-.795 1.751s15.725-11.884-.161-25.549zM44.887 361.951s7.15-10.74-.157-25.552"/></g><g fill="#5aac32" stroke="#059036"><path d="M20.426 344.462s4.658 20.95 11.34 16.409l6.675-4.543.836 1.699s.082-21.36-18.851-13.564zM39.305 357.867s-3.888-12.573-18.852-13.566"/></g><g fill="#c2d468" stroke="#059036"><path d="M55.864 340.046s14.118 14.333 17.515 6.366l3.392-7.96 1.533.87s-10.334-17.659-22.439.723zM78.249 339.175s-9.387-7.91-22.438.725"/></g><g stroke="#059036"><path d="M71.004 302.327s-5.768 20.756 1.963 20.873l7.728.11-.081 1.96s9.954-18.26-9.61-22.944z" fill="#84b719"/><path d="M80.708 325.15s2.544-13.111-9.61-22.944" fill="none"/></g><g fill="#09922f" stroke="#89ba1b"><path d="M84.095 312.498s-12.886 16.171-5.962 19.988l6.918 3.81-.795 1.754s15.723-11.882-.161-25.552zM84.38 337.985s7.15-10.74-.157-25.55"/></g><g fill="#c2d468" stroke="#059036"><path d="M55.811 364.081s14.118 14.333 17.516 6.363l3.39-7.958 1.532.872s-10.335-17.664-22.438.723zM78.195 363.207s-9.387-7.908-22.441.728"/></g><g stroke="#059036"><path d="M70.951 326.362s-5.77 20.756 1.963 20.871l7.727.109-.079 1.959s9.949-18.262-9.61-22.939z" fill="#84b719"/><path d="M80.654 349.184s2.544-13.111-9.61-22.944" fill="none"/></g><g fill="#09922f" stroke="#89ba1b"><path d="M80.147 336.79s-12.888 16.167-5.963 19.984l6.918 3.812-.797 1.751s15.728-11.882-.158-25.547zM80.434 362.271s7.146-10.739-.158-25.552"/></g><g fill="#c2d468" stroke="#059036"><path d="M40.923 356.253s14.12 14.334 17.516 6.368l3.393-7.96 1.53.87s-10.336-17.661-22.439.721zM63.306 355.384s-9.386-7.911-22.438.725"/></g><g stroke="#059036"><path d="M56.064 318.535s-5.77 20.756 1.964 20.871l7.725.11-.079 1.96s9.951-18.26-9.61-22.942z" fill="#84b719"/><path d="M65.768 341.356s2.542-13.109-9.61-22.94" fill="none"/></g><g fill="#c2d468" stroke="#059036"><path d="M34.257 372.879s14.12 14.333 17.513 6.366l3.393-7.958 1.532.87s-10.335-17.659-22.438.721zM56.639 372.012s-9.386-7.913-22.438.725"/></g><g stroke="#059036"><path d="M49.396 335.162s-5.771 20.754 1.961 20.873l7.725.109-.079 1.96s9.954-18.262-9.607-22.942z" fill="#84b719"/><path d="M59.099 357.982s2.542-13.107-9.61-22.94" fill="none"/></g><g fill="#09922f" stroke="#89ba1b"><path d="M62.485 345.335s-12.886 16.171-5.963 19.986l6.92 3.812-.798 1.749s15.728-11.88-.158-25.547zM62.774 370.819s7.146-10.739-.161-25.55"/></g><g fill="#5aac32" stroke="#059036"><path d="M38.307 353.327s4.661 20.952 11.341 16.409l6.675-4.542.838 1.701s.081-21.364-18.854-13.568zM57.186 366.732s-3.883-12.57-18.852-13.564"/></g><g fill="#c2d468" stroke="#059036"><path d="M53.275 381.517s14.118 14.331 17.516 6.365l3.39-7.96 1.533.872s-10.335-17.661-22.439.723zM75.658 380.645s-9.387-7.908-22.441.727"/></g><g fill="#09922f" stroke="#89ba1b"><path d="M81.502 353.968s-12.885 16.173-5.96 19.989l6.92 3.81-.798 1.751s15.728-11.88-.161-25.55zM81.791 379.455s7.147-10.74-.157-25.55"/></g><g fill="#5aac32" stroke="#059036"><path d="M57.327 361.962s4.659 20.955 11.34 16.41l6.675-4.543.836 1.701s.082-21.36-18.851-13.568zM76.204 375.372s-3.885-12.575-18.852-13.566"/></g></svg>