<svg xmlns="http://www.w3.org/2000/svg" xmlns:xlink="http://www.w3.org/1999/xlink" width="53.426" height="139.806" version="1"><defs><linearGradient id="a"><stop offset="0" stop-color="#3a2d49"/><stop offset="1" stop-color="#3a2d49" stop-opacity="0"/></linearGradient><linearGradient xlink:href="#a" id="d" gradientUnits="userSpaceOnUse" gradientTransform="matrix(-.677 .623 -.646 -.702 1207.25 -108.618)" x1="375.019" y1="812.82" x2="394.826" y2="741.472"/><linearGradient xlink:href="#b" gradientUnits="userSpaceOnUse" gradientTransform="translate(-61.098 -4.749)" x1="293.144" y1="455.166" x2="187.726" y2="601.422"/><linearGradient xlink:href="#b" gradientUnits="userSpaceOnUse" gradientTransform="translate(10.748 1.367)" x1="203.463" y1="438.749" x2="95.921" y2="676.809"/><linearGradient id="b"><stop offset="0" stop-color="#b3d200"/><stop offset="1" stop-color="#b3d200" stop-opacity="0"/></linearGradient><linearGradient xlink:href="#b" gradientUnits="userSpaceOnUse" x1="203.463" y1="438.749" x2="137.514" y2="609.38"/><linearGradient id="c"><stop offset="0" stop-color="#42c43e"/><stop offset="1" stop-color="#2d852a" stop-opacity="0"/></linearGradient><linearGradient xlink:href="#c" gradientUnits="userSpaceOnUse" x1="218.416" y1="431.285" x2="143.111" y2="574.375"/></defs><path d="M37.184 19.072c.942 1.077.09 10.389.053 11.501-.037 1.111.003.206-.017.289-.02.083.158-.354-.113.253-.27.606-.792 3.475-1.688 3.788-.896.313-1.868-.258-2.174-1.203-.306-.946 1.242-1.992 1.577-3.562.335-1.569-.872-5.854.061-6.811.932-.956 1.359-5.332 2.301-4.254zM29.117 18.896c1.426 1.208 1.448 12.798.254 14.295-1.194 1.498-.982 1.492-2.4.147-1.418-1.344-.455-11.012.582-9.847 1.037 1.165.138-5.803 1.564-4.595zM25.767 1.64l2.307 10.545s-3.837-2.018-4.818-3.143c-.981-1.125-.928-6.492.078-7.522 1.006-1.03 2.433.12 2.433.12z" fill="#829a6b" fill-rule="evenodd"/><path d="M479.265-300.467c.348-2.465-4.717-5.869-4.969-8.172-.253-2.302.206-4.254 1.891-5.563l8.324-.649c1.988-1.279 2.981-4.521 3.589-6.488.608-1.967-.484-4.11.593-6.281 1.077-2.171 6.771-4.349 7.247-6.667.476-2.318-1.648-.547-2.43-5.411-.782-4.864 2.953-16.311 2.774-26.765-.179-10.454-3.221-31.979-5.868-42.391-2.646-10.411-5.51-20.124-10.16-26.972-4.65-6.848-12.61-15.078-19.505-17.737-6.895-2.659-16.632-2.861-22.9.042-6.268 2.903-12.544 10.582-15.004 17.628-2.46 7.045-.557 19.488.884 26.586 1.441 7.098 4.803 13.709 7.786 20.236 2.983 6.527 9.118 14.328 12.313 23.079 3.195 8.751 5.096 29.389 7.496 35.157 2.401 5.768 2.554 3.366 3.12 4.776.566 1.41-.497 2.271.815 4.348 1.312 2.077 8.325 4.588 9.663 7.04 1.338 2.452 1.367 5.038.387 6.653-.98 1.615-4.836.199-5.411 2.43-.575 2.231 3.394 5.995 5.66 7.537 2.266 1.542 6.215 2.907 8.531 2.346 2.315-.561 4.828-2.297 5.176-4.762z" fill="#552f53" fill-rule="evenodd" stroke="#000039" stroke-width="3.208" transform="matrix(.762 -.143 -.156 -.834 -385.299 -177.568)"/><path d="M27.958 11.416c.576 1.884-2.567 5.306-2.439 7.15.128 1.845.714 3.309 2.085 4.087l5.998-.722c1.583.71 2.72 3.108 3.414 4.562.694 1.454.205 3.298 1.259 4.842 1.055 1.545 5.389 2.412 6.036 4.161.647 1.75-1.097.674-1.004 4.607.094 3.934 4.273 12.367 5.54 20.6 1.267 8.233 1.978 25.58 1.488 34.145-.49 8.565-1.228 16.612-3.617 22.676-2.389 6.064-6.944 13.702-11.486 16.81-4.542 3.107-11.43 4.707-16.269 3.356-4.838-1.351-10.32-6.451-13.007-11.617-2.687-5.166-2.995-15.216-2.919-21 .076-5.785 1.582-11.472 2.83-17.037 1.248-5.565 4.564-12.597 5.666-19.939 1.102-7.342-.302-23.824.634-28.708.935-4.883 1.364-3.02 1.578-4.211.214-1.19-.656-1.709-.002-3.534.654-1.825 5.3-4.833 5.923-6.956.623-2.122.299-4.157-.613-5.28-.912-1.123-3.461.559-4.167-1.107s1.61-5.208 3.014-6.754c1.404-1.546 4.026-3.202 5.745-3.104 1.719.098 3.735 1.089 4.311 2.972z" fill="url(#d)" fill-rule="evenodd"/><path d="M48.499 96.74c-1.261 29.7-14.671 34.053-25.679 38.928 12.614-20.853 20.916-25.219 18.802-90.898 7.617 30.197 7.375 34.222 6.878 51.971z" fill="#774666"/><path d="M43.317 29.779c.724 1.865 1.426 3.769-1.007 4.86-2.433 1.091-8.386-8.271-11.437-7.423-3.051.848-2.436 5.429-3.826 7.546-1.389 2.117-3.458 5.829-5.388 6.469-1.93.64-4.482.11-5.315-1.35-.833-1.46 2.773-4.153 1.195-5.193-1.577-1.04-3.61 5.319-5.136 5.254-1.526-.066-1.619-.571-2.124-2.39-.504-1.819 1.1-7.551 1.638-9.054.539-1.503.674-.767.752-1.333.079-.565.003-.527.504-2.43.5-1.903 5.681-4.81 6.265-7.253.584-2.443-.352-4.603-1.556-5.702-1.204-1.099-3.903 1.406-4.878-.586-.975-1.993 2.487-6.903 4.202-8.212 1.715-1.309 3.965-1.191 5.318-.962 1.353.229 2.636-.048 3.313 1.821s-3.248 6.26-3.076 8.525c.172 2.265.93 4.244 2.746 5.133 1.816.889 5.203-3.087 7.509-1.766 2.306 1.32 2.054 7.368 3.741 9.522 1.686 2.154 5.838 2.659 6.562 4.524z" fill="#93b279" fill-rule="evenodd"/><path d="M32.224 17.274c1.498.781 1.103 5.492 2.133 7.239 1.03 1.747 4.134 2.884 4.201 4.192.067 1.307 1.952 1.596.703 1.626-1.249.03-6.038-3.499-6.749-4.189-.711-.69-.192-.141-.246-.231-.054-.09.353.766-.095-.343-.448-1.109-1.426-5.883-.928-7.581.499-1.697-.517-1.493.98-.712zM27.503 25.74c.394 1.415-4.324 9.138-4.829 10.091-.505.954-.085.182-.138.244-.053.062.292-.23-.209.165s-2.188 2.644-3.13 2.469c-.942-.175-1.577-1.162-1.452-2.143.125-.981 1.966-1.121 2.934-2.327.968-1.206 1.696-5.56 2.943-5.93 1.247-.37 3.487-3.985 3.881-2.57zM20.297 21.543c.775 1.772-4.12 11.926-5.833 12.638-1.713.712-1.519.813-2.229-1.074-.71-1.887 4.259-9.866 4.701-8.326.442 1.539 2.585-5.01 3.36-3.238zM24.591 4.762l-2.389 10.384s-2.607-3.689-3.016-5.165c-.408-1.477 1.915-6.147 3.26-6.544 1.345-.397 2.145 1.325 2.145 1.325z" fill="#829a6b" fill-rule="evenodd"/></svg>