<svg xmlns="http://www.w3.org/2000/svg" xmlns:xlink="http://www.w3.org/1999/xlink" width="62.065" height="60.776" version="1"><defs><linearGradient xlink:href="#a" gradientUnits="userSpaceOnUse" x1="878.306" y1="638.423" x2="878.042" y2="587.671"/><linearGradient xlink:href="#a" gradientUnits="userSpaceOnUse" x1="872.673" y1="640.582" x2="874.335" y2="587.689"/><linearGradient xlink:href="#a" gradientUnits="userSpaceOnUse" x1="870.714" y1="641.313" x2="867.67" y2="585.221"/><linearGradient xlink:href="#a" gradientUnits="userSpaceOnUse" x1="866.386" y1="629.352" x2="866.386" y2="599.372"/><linearGradient xlink:href="#a" gradientUnits="userSpaceOnUse" x1="866.689" y1="639.065" x2="864.219" y2="578.795"/><linearGradient xlink:href="#a" gradientUnits="userSpaceOnUse" x1="857.4" y1="635.724" x2="861.863" y2="572.932"/><linearGradient xlink:href="#a" gradientUnits="userSpaceOnUse" x1="857.4" y1="641.313" x2="854.931" y2="579.962"/><linearGradient id="a"><stop offset="0" stop-color="#bf7a1b"/><stop offset="1" stop-color="#bf7a1b" stop-opacity="0"/></linearGradient><linearGradient xlink:href="#a" gradientUnits="userSpaceOnUse" x1="853.865" y1="642.904" x2="846.625" y2="590.263"/><linearGradient id="b"><stop offset="0" stop-color="#e8a000"/><stop offset="1" stop-color="#eeeeec" stop-opacity=".466"/></linearGradient><linearGradient xlink:href="#b" gradientUnits="userSpaceOnUse" gradientTransform="matrix(.962 0 0 .946 38.278 36.72)" x1="856.555" y1="654.865" x2="860.372" y2="571.146"/></defs><path d="M32.255.387c.825 2.276-.116 8.083.732 9.462.899 1.463 11.881-1.245 18.294 3.145 6.413 4.39 14.023 16.518 9.341 27.502-4.682 10.984-19.944 19.822-28.552 20.156-15.532.467-24.919-3.57-30.755-19.4-1.533-6.106-1.895-7.87-.41-14.648 3.738-13.399 13.98-15.53 25.717-17.556 4.795-.979-1.779-7.644.386-8.659 1.834-.247 5.254-.834 5.246-.001z" fill="#9c151c" fill-rule="evenodd"/><path d="M31.194 1.177c.785 2.167-.106 7.903 2.097 9.37 1.972 1.313 11.313-1.185 17.419 2.995s13.352 15.728 8.894 26.186-18.99 18.874-27.186 19.192c-14.789.445-23.727-3.399-29.284-18.472-1.46-5.814-1.805-7.494-.39-13.947 3.559-12.759 13.311-14.787 24.487-16.716 4.566-.932-1.694-7.278.367-8.245 1.747-.235 3.602-1.155 3.595-.362z" fill="#e10119" fill-rule="evenodd"/><path d="M22.028 12.413c-10.88 1.845-18.4 13.323-16.805 25.603 1.595 12.28 11.706 20.749 22.586 18.904.271 1.287-13.184-9.599-15.59-19.953-1.444-11.116 2.083-21.482 11.311-24.732-.494.042-1.003.093-1.501.178z" opacity=".347" fill="#9c151c"/><path d="M40.444 14.179c-1.401.054-2.754.283-4.052.647 4.886 3.827 8.296 11.376 8.484 20.161.107 5.002-.848 9.661-2.559 13.536 9.009-.925 15.999-8.669 15.804-17.791-.203-9.5-8.13-16.918-17.677-16.553z" opacity=".347" fill="#fcaf3e"/><path d="M27.982 1.616c-.092.866.94 4.534 1.12 5.993.18 1.459.57 2.011-.909 2.328-1.478.317-2.642.621-3.982.672-1.34.051-2.619-.113-3.311.97-.692 1.083-1.464 1.954-2.02 2.988s.885.322 1.958.195 3.884-2.053 4.593-.978c.709 1.075-1.169 7.201-.337 7.428.832.227 3.621-5.944 5.327-6.067 1.706-.123 3.998 5.279 4.909 5.331.91.051-.103-4.825.554-5.022.657-.198 2.894 3.913 3.389 3.837.494-.076-.549-3.915-.422-4.295.127-.38 2.13.628 1.18-.352s-.825-2.487-2.576-2.845c-1.752-.358-4.39-.363-5.554-1.99-1.164-1.627-.599-6.723-1.1-8.227-.474-.268-2.459-.225-2.818.032z" fill="#639f1b" fill-rule="evenodd"/><path d="M27.852 11.349c1.391.792-1.62-2.878-5.567.213-3.992 3.126-2.001 4.204-1.732 2.764.232-1.241 5.989-3.722 7.298-2.977zM31.059 11.942c-1.333.932 1.428-1.971 5.568.703 5.763 5.687-3.738-1.158-5.568-.703z" opacity=".508" fill="#8ae234" fill-rule="evenodd"/><path d="M28.842 11.104l-2.129 2.779-.68 5.422 2.809-8.201zM29.502 11.562l2.926 1.735 2.478 4.769-5.404-6.505z" fill="#77c127" fill-rule="evenodd"/></svg>