<svg xmlns="http://www.w3.org/2000/svg" viewBox="0 0 564.2 831.9" enable-background="new 0 0 564.2 831.9"><g fill="#53973B"><path d="M472.3 739c-7.5-7.6-15.1-14.1-16.9-14.6-1.8-.5-3.3-1.9-3.3-3.3s-2.7-2.3-6.1-2.2c-3.5.2-4.9-.4-3.3-1.4 4.3-2.7.9-4.4-6.1-2.9-5.1 1-5.7.8-2.7-1.1 5-3.2 2.6-5.4-5.4-4.7-5.8.5-6.2.2-3.7-2.6 2.2-2.5 1.8-3.2-2-3.8-2.6-.3-6.4.3-8.4 1.5-3.2 1.8-3.3 1.6-1.2-1.7 3.3-5.2-.6-8.8-6-5.6-2.4 1.4-5 1.9-5.8 1.1-.8-.8-.3-2.1 1-2.9 4.4-2.6-2.8-4.1-9-1.8-5 1.8-6.8 1.4-9.4-2.4-3.1-4.4-3.6-4.4-9.1.3-5.6 4.7-6 4.7-8.1.1-2.2-4.7-2.4-4.6-9.2 1-6.2 5.1-7.4 5.4-9.9 2.7-4-4.3-6-2.4-7.9 7.2-1.5 7.8 2.8 16.3 8.5 16.6 1.4.1 2.9-2.5 3.3-5.7l.8-5.8 2.4 5c2.6 5.3 5.7 4.9 7.6-1 1-3 1.4-2.9 2.3.4 3.1 11.1 6.4 12.8 9 4.6.6-2 1.2-.8 1.2 2.6 0 7.2 5.6 8 8.4 1.2 1.4-3.4 1.7-3 1.6 2.4-.1 7.6 3.6 8.8 7.4 2.4 1.4-2.4 3.2-3.8 3.9-3s.7 2.4 0 3.7c-1.6 2.7 3.3 8.6 5.8 7.1 1-.6 2.3-2.7 2.9-4.7 1-3 1.3-2.7 1.8 1.5.8 6.3 8.8 8.2 8.7 2.1 0-1.9.6-2.8 1.4-2s1.4 3 1.4 4.9c0 4.8 4.4 5.3 6.2.8 1.3-3.2 1.9-3 3.9 1.3 2.2 4.7 2.7 4.8 6.3 1.1 3.4-3.5 4.1-3.5 5.5.3 1.3 3.5 2.1 3.7 4.2 1.3 1.5-1.7 3.3-2.3 4.1-1.5.8.9 3.8 1.7 6.6 1.9 2.8.2 9.7 3.3 15.3 7.1 16.1 10.8 16.9 7.5 2-7.5zM547.6 657.3c-.7-.8-3.5-.7-6.1.1s-10.7 1.4-18 1.2c-7.3-.2-14.2.3-15.4 1-1.2.7-2.5-.1-3-1.7-.6-2.1-2.2-2.2-5.5-.2-4.5 2.7-4.6 2.6-3.5-2.6 1.1-5.3 1-5.3-5.3-1.7-3.6 2-5.6 2.6-4.4 1.3 3.9-4.5-.5-5.2-7.8-1.1-4 2.2-5.8 2.7-4.1 1.1 5.7-5.3-.2-7.7-7.8-3.1-6.6 3.9-6.9 3.9-4.7-.5 2.1-4.4 1.9-4.6-2.5-3.4-2.6.7-7 3.3-9.8 5.9-4.8 4.4-5 4.4-3.9-.5 1.6-7.5-.2-8-7.3-2.3-5.7 4.6-6 4.7-3 .4 4.9-7 2.2-7.6-8.7-2.1-8.2 4.1-9.2 4.3-6 .8 6.1-6.6 2.1-7.3-8-1.3-8.5 5-9.2 5.1-7.3 1 3-6.5-2.9-7.1-10.2-1.1-4.9 4.1-5.6 4.3-3.8 1.1 4.2-7.2-.1-7.4-9-.5l-8.4 6.5 2.6-6c3.2-7.6-2-7.3-12 .6-6.4 5.1-7 5.3-5.3 1.4 1-2.4 1.2-5.2.3-6.1-2.3-2.5-9.7 2.5-10.5 7.1-.9 5.4-3.7 4.8-4.3-.8-.4-3.6-1.1-4.2-3.4-2.9-1.6 1-3.4 3.4-4 5.3-.9 2.9-1.4 2.9-3 .3-3.2-5.4-8.4-1.9-7.5 5.1.4 3.6-.1 7.4-1.2 8.6-1.4 1.5.9 4.4 7.8 10.1l9.8 7.9.7-6.2.7-6.2 4.6 4.9c5.2 5.5 7.2 5.2 7.9-1.2.4-3.9.9-3.9 5.1.5 5.3 5.6 9.7 4.3 8-2.4-1.3-5.1.6-4.3 5.8 2.4 4 5.1 6.3 4.4 7.2-2 .6-4 1-3.9 3.8 1.2 3.5 6.2 7.8 5.7 7.5-.9-.2-3.2.9-2.8 5.5 2l5.7 6 .9-6.4.9-6.4 4.5 7.3c4.7 7.5 10.5 8 7.8.6-2.1-5.8 2.1-6.9 6.8-1.8 4.6 5 10.9 5.2 10.9.4 0-2.4.8-2.4 3.1.1 3.8 4.1 9.9 3.6 9.9-.8 0-2.4.8-2.4 3.1.1 3.8 4.1 9.9 3.6 9.9-.8 0-2.3 1.1-2 3.9.9 4.4 4.7 8.1 3.6 7.8-2.3-.2-3.4.4-3.4 3.7.1 4.2 4.4 6.8 4 8.4-1.4.7-2.6 1.6-2.6 4-.1 3.2 3.4 8.8 2.2 5.8-1.2-.9-1.1.8-1.3 3.8-.5 3.6 1 7.6.1 11.7-2.4 3.4-2.1 12.6-5.2 20.3-6.9 16-3.4 16.3-3.6 14.5-5.5zM349.3 742.2c-12.6-13.9-19.7-32.4-32.3-84.4-5.2-21.4-18.3-67.9-29.2-103.3-10.9-35.4-21.8-76.9-24.3-92.2-7.8-48.8-8.5-135.9-1.4-187.9 11.2-82.7 28.4-167.3 35.5-174.6 1.7-1.7 11.7-6.1 22.2-9.6s22.8-8.1 27.5-10.2c8.2-3.7 7.9-3.7-10.5-2.1-10.4.9-20.5 2.6-22.6 3.8s-5 1.9-6.5 1.5c-1.8-.5 0-1.9 5.4-4.1 4.5-1.9 10.4-4.3 13-5.5 2.7-1.2 9.2-4 14.6-6.3l9.7-4.2-7.2-.8c-3.9-.4-9 .4-11.3 1.7-4.4 2.6-20.8 6.2-22.1 4.8-.4-.5 7.6-5.1 17.7-10.2s18.1-9.8 17.6-10.3c-1.2-1.3-23.2 3-27.2 5.4-1.9 1.1-4 1.4-4.7.6-1.2-1.3 6.1-5.4 19.3-10.7 2.8-1.1 6-3.5 7-5.2 1.4-2.4.1-2.6-5.6-1.1-9.9 2.7-9.9 1.8-.1-2.9 9.1-4.4 9.2-6.3.4-6-5.1.2-5-.1 1.6-2.6 6.1-2.4 6.7-3.1 3.6-4.5-2.7-1.2-2.5-2.4 1-4.5 2.6-1.5 3.7-2.8 2.6-2.9-1.1-.1-1.4-2.5-.6-5.5.8-3 .6-6.4-.6-7.7-2.4-2.6-9.2 2.5-16.9 12.8-3.5 4.6-5.2 5.8-7.8 5.1-2.2-.6-3 1.1-2.2 5 1 5.2.6 5.7-3 4-3.5-1.6-3.9-.9-2.5 4.8 2.2 8.6-.5 10-6.6 3.4-2.7-2.9-5.7-4.8-6.7-4.2-2.7 1.6-.4 11.2 3.9 15.9 2.1 2.3 3.7 5.6 3.8 7.5 0 2.4-2.4 1.5-8.7-3.5-8.3-6.6-20-9.8-16.4-4.5 3.6 5.4 6.7 9.3 14.1 17.8 8.1 9.3 6.5 12.4-3.1 5.8-9.2-6.2-28.7-13.4-30.1-11-.8 1.3 1.7 4.4 6 7.5 4 2.9 10.2 7.7 13.9 10.7s7.2 5.5 8 5.8c.8.2 2 2.2 2.6 4.4.9 3.1-2 2.3-13.3-3.7-8-4.2-17.3-8.4-20.8-9.2s-7.5-2.6-8.9-4.1c-1.4-1.5-5-3.1-8-3.6-4.9-.8-5.1-.4-2.4 4.6 3.9 7.2 20.3 17.6 41.4 26.1 8.9 3.6 8.9 1.6-.3 44.3-14.6 67.6-27 160-27.3 202.4-.7 93.8 4.3 126.6 34.7 228.9 5.9 19.7 14.3 51.6 18.9 70.8 7.2 30.7 27.3 99.5 32.1 109.8 1.2 2.7 4.2 3.3 10.6 2.4 4.9-.7 9.8-1.7 10.8-2.4.9-.6-2.8-6-8.3-12.1zM233.1 819.2c4.1-7.5 8.8-13.8 10.4-14 1.6-.2 2.9-1.8 2.9-3.6 0-2.7.4-2.8 2.2-1 1.7 1.7 2.3 1 2.7-2.8.4-4.3 1.1-4.8 4.7-4 3.6.8 4.2.4 4-3.3-.2-3.2.7-4 3.2-3.4 4.8 1.2 7-3.4 3.6-7.6-2.2-2.7-2-3 .6-1.4 5.1 3 7.3.6 4.7-5.2l-2.3-5.1 5.9 1.8c6.3 2 8.5-.4 4.4-4.9-3.1-3.4 0-5.7 4.8-3.5 5.1 2.3 6.8-2.3 2.5-6.9-3.5-3.8-3.4-3.9 2.2-2.9 5.7 1 5.8.9 4.6-4-.7-2.8-.4-4.3.6-3.3 3.4 3.2 6.2-.6 4-5.4-1.9-4.2-1.7-4.6 2.9-3.7 4.7.9 5.1.6 4.8-3.4-.2-3.9 0-4.1 2.3-1.7 3.5 3.6 5.4 1.8 7.8-7.1 1.8-6.6 1.1-8.4-5.1-13.3-7.9-6.2-10.9-5.8-10.9 1.3.1 6.2-2.5 7.4-6.6 3-4.8-5.2-12-2.6-10.3 3.6 1.7 6-.1 7.3-8.7 6.3-9.2-1.1-12.5 1.5-6.6 5.1 5.6 3.4 5 4.1-4.5 5.1-8.9.9-13.3 6.8-5.8 7.7 4.3.6 3.8 1.2-4.3 4.8-7.6 3.4-8.4 4.2-4.6 4.5 7.2.6 6.9 2-1.2 5.7-6.3 2.8-6.9 3.7-3.9 5.1 2.6 1.2 2.4 2.4-.7 4.3-2.4 1.4-4 4-3.5 5.6s-1.1 4.2-3.5 5.6c-3.1 1.9-3.4 3.1-.8 4.2 2.6 1.2 2.4 1.9-.6 2.8-2.4.6-3.9 2.4-3.4 4.1.5 1.6-.2 3.6-1.4 4.3-4.1 2.4-10.2 37.4-6.8 39 1.2.8 5.5-4.9 9.7-12.4zM556.2 616.9c-4.2-1.4-11.3-2.1-16-1.6-12.2 1.4-15.9 1-16.8-1.7-.5-1.3-2.7-1.4-5-.1-2.4 1.3-3.3 1.3-2.1-.1 3.3-3.9-.1-5.4-5.2-2.4-3.9 2.3-4.5 2.1-4-1.1s-.5-3.6-5.9-2.2c-3.6.9-5.3.9-3.8-.1 6-3.9-.7-4.4-7.3-.5-6 3.5-6.8 3.6-4.7.3 3.6-5.7-2.2-6-8.5-.5-5.6 4.9-10.2 4.1-5.7-1 5.3-6-.7-6.4-8.2-.6-6.8 5.3-7.2 5.4-5.2 1 3.3-7-4.6-7.2-10.1-.2-2.2 2.8-4.5 4.5-5.1 3.7s-.1-2.6 1.3-4.1c1.4-1.6 1.8-3.6.9-4.6-1.1-1.2-4.4.3-10.1 4.7-7.3 5.5-8.2 5.8-6.5 2.2 1.1-2.3 1.2-5.1.3-6.1-1.8-1.9-6.9 1.6-13.5 9.3-3 3.5-3.2 3.3-1.8-2.9.8-3.7 1-7.2.4-7.9-1.2-1.3-7.3 3.5-12.9 10-3 3.5-3.2 3.3-1.8-2.9 2.1-9.3.4-10-8-3.1-7.2 5.9-7.2 5.9-6 .4 1.1-4.9.7-5.4-3-4.4-2.3.6-5.7 3.8-7.5 7.1-3.6 6.5-5 6.4-5.1-.5-.1-6.3-4.4-5.9-9.2.9-6.8 9.4-7.3 9.8-6.2 4.3 1.1-5.6-1-9.6-4.1-7.7-1 .6-3.3 4.4-5.1 8.3l-3.2 7.2v-6.3c.1-8.6-5.7-7.7-8.7 1.3l-2.3 6.9-1.6-4.3c-2.2-5.7-6.4-3.1-10.5 6.5-2.5 6-2 8.8 2.7 14.7 6.4 8 12.5 9.3 10.4 2.1-1.2-4.3-.9-4.3 6.3-1l7.6 3.5-2.7-5.4-2.7-5.4 5.8 3.6c9.6 5.9 10.9 6.4 13.1 5.1 1.2-.7 1.1-3-.1-5.2-1.6-2.9-.9-2.7 2.6.8 5.6 5.5 9.4 4.4 7.2-1.9-1.4-3.9-.9-3.9 4.6 0 7.3 5.1 13.3 4.2 10.1-1.6-1.7-3.1-1.1-2.9 2.6.7 5.5 5.3 7.4 5 8.1-1.3.4-3.9.9-3.7 3.7 1.3 3.3 5.9 6.5 5.8 8.2-.1.7-2.6 1.9-2.3 5.4 1.5 4.6 5 9.6 4.4 8.2-.9-1.3-4.6 3.5-4.1 6.2.7 3.2 5.7 9.4 4.7 7.9-1.3-1.1-4.2-.6-4.1 4.2.9 5.4 5.6 10.6 5.5 9.1-.1-1.4-5.1 2.9-5.6 7.3-.8 4.6 5 11.5 3.1 9-2.4-.8-1.8.7-1.1 3.3 1.5 5.3 5.2 9.1 4.5 8.7-1.7-.2-3.1.3-3.5 2-1.8 1.2 1.2 4.1 2.6 6.4 3.2 3.8.9 4.3.6 4.3-2.6.1-3 .8-3.1 4.6-1 3.6 2.1 4.8 1.9 6-.9 1.1-2.8 2.1-2.8 4.6-.1 2.6 2.8 3.4 2.8 4.7-.5 1.3-3.2 2-3.4 4-1.2 1.6 1.7 3.3 1.6 4.9-.2 1.4-1.6 3-2.2 3.7-1.5s6.9-.2 13.7-2 15.5-2.7 19.1-1.8c9.5 1.5 11.9-1.2 3-4.1zM557.2 571.6c-4.6-1.2-15.4-1.4-24.1-.5s-15.6.9-15.3-.1-1.5-1.2-4-.6c-2.5.7-4.5.3-4.5-.9 0-1.1-1.5-1.2-3.4-.1-2.1 1.2-3.7.9-4.2-1-.6-2.1-2.3-2.1-5.9 0-3.9 2.3-4.8 2.3-4.1-.4 1.6-5.6-.9-6-8.4-1.6-5.9 3.5-6.7 3.5-4.7.4 3.9-6.2.3-7-8.5-1.9-7.4 4.3-7.9 4.3-4.5.4 5-5.8 0-6.9-8.6-1.8-6.8 4-6.8 4-5.6-1.7l1.2-5.7-8.7 6.5-8.7 6.5 1.6-6.9 1.6-6.9-9.7 7.5-9.7 7.5 2.7-7.8 2.7-7.8-8.8 6.4c-8.5 6.2-8.8 6.2-7.7 1.3.9-4.3.5-4.9-2.9-4-2.2.6-6 3.3-8.4 6.1-5.3 6-8.5 4.3-4-2.3 4.6-6.8-3.4-6.6-8.7.2-6 7.7-9 8.7-7.7 2.6 1.6-7.2-2.6-7.1-9.1.2-6.3 7.1-9 7.4-7.6.8 2-9.1-2.4-7.9-13 3.7-3.2 3.4-3.3 3.4-1.6-.8 4-9.7-4.6-9.1-9.6.7-1.5 2.9-3.3 4.6-4.1 3.8-.8-.8-.8-2.5-.1-3.7 2.4-4.1-1.2-5.1-6.7-1.9-3 1.8-5.3 5-5.3 7.2.1 3.3-.4 3.1-2.4-.9-3.5-7.1-7.6-3.7-7.1 6 .2 4.4-.9 8.7-2.5 9.7-3.6 2.2-2.4 6.7 3.6 13.1 5.8 6.2 11.3 6 9.6-.4-1.2-4.7-1.2-4.7 2.7-.7 5.4 5.6 9.8 4.4 7.7-2.1l-1.8-5.4 6.1 4c7.8 5 11.5 3 5.9-3.1-2.5-2.7-3-4.8-1.2-5 1.7-.2 4.5 1.2 6.4 3.2 4.9 5.3 9.2 3.8 7.3-2.6-1.4-4.8-1.2-5.1 1.6-2.3 7.2 7.1 17.1 7.6 11.3.5-2.2-2.7-1.5-2.7 3 .2 10.4 6.5 13.6 6.3 12.1-.5l-1.4-6.1 5.1 5.4c6.5 6.8 10.2 7 9.8.5-.3-5-.1-5 3.9.3 4.9 6.5 10.3 5.8 9.2-1.1-.7-4.4-.2-4.2 5.3 1.5 5.8 6.1 10.8 6.8 9.5 1.4-.4-1.4.7-1.2 2.4.3 1.6 1.6 4.7 3.3 6.9 3.8 3 .7 3.8-.5 3.4-5.5l-.5-6.5 3.8 6.3c4.7 7.9 10.9 7.7 9.1-.4l-1.3-5.8 5.6 4.8c9.5 8.2 12.2 8.7 11.7 2.4l-.4-5.6 4.4 4.6c5.8 6.1 9.5 6.1 9-.2-.4-5-.3-5 4-.5 5.8 6.1 9.5 6.1 8.9 0-.5-4.8-.3-4.8 5.5-1 6.9 4.5 10.6 3.4 7.5-2.3l-2.2-4 4.8 2.4c2.6 1.3 5.8 1.6 7 .7 3.3-2.7 38.4-9.8 44.4-8.9 8.6 1.4 9.2-1.3.4-3.6zM161 803.4c15.1-15.7 22.4-21.8 25.1-21.1 1.7.4 2.7-.8 2.6-3.2-.2-3.1.4-3.7 3.4-3 2.8.7 3.4-.3 2.3-4-1.2-4.3-.8-4.8 2.6-3.3 2.2.9 4.9 1.2 5.9.5 1.1-.6.9-2.4-.3-3.9-1.4-1.6-1.1-2.3.6-1.5 3.9 1.7 9.5-2 7-4.7-1.1-1.2-1.4-3.2-.7-4.4.8-1.3 1.7-.9 2.2.9 1.5 5.6 5.9.3 4.5-5.5l-1.4-5.6 5.6 3.7 5.6 3.7-.3-7.4c-.3-8.4 1.7-11 4.2-5.5 2.4 5.3 6.8 1.7 5.6-4.5-1.2-6.3 1.6-8.8 3.9-3.5 2.4 5.3 6.8 1.7 5.6-4.5-1.2-6.3 2.4-9.3 4.4-3.8 2 5.5 5.6 2.4 6.6-5.7.6-4.6 1.1-5.4 1.6-2.4.7 4.5 3.4 5.9 7.2 3.6 1.1-.6 1.1-3.8 0-7.1-2.1-6.5.7-10.2 3.3-4.3.9 2.1 2.7 3.1 4.1 2.3 1.3-.8 2.4-3.5 2.4-6.1s.8-5.2 1.9-5.8c1.1-.6 1.6.6 1.3 2.8-1 5.9 3.6 5 5.8-1.2 1.7-4.8 2.1-5.1 4.2-2.9 2.8 3 5.4 1.8 7-3.2 1-3 1.4-3 2.3-.2 1.7 5.4 6.5 1.1 8.8-8.1 2.1-8.2 2.1-8.2-8.4-14.2-10.8-6.2-19.2-6.7-13.8-.9 1.6 1.8 1.6 3.4-.1 3.6-1.7.2-4.3-.9-5.8-2.6s-4.2-2-6-1c-1.8 1.1-2 3.3-.5 5 4 4.3-.6 6.2-6.4 2.6-2.7-1.6-6.3-2.1-8.1-1-2.2 1.3-1.9 2.6 1 4.1 4.8 2.5 1.7 5.5-3.4 3.2-4.9-2.2-8.3.7-5.1 4.2 4.2 4.5.3 5.5-7.5 1.9-7.4-3.4-12.7.3-6.2 4.2 6 3.6 1.5 7.1-7 5.5-9.5-1.8-12.4 1.4-5.2 5.9l5.2 3.2-11.4-.2-11.4-.2 5.9 4.1c6.9 4.8 5.9 5.9-4.9 5.6-9-.3-12.8 3.7-6.6 6.9 3.7 1.9 3.4 2.3-1.8 3.2-8.2 1.4-11 3.4-8.5 6.1 1.2 1.2 3.1 1.7 4.3 1 1.2-.7 2.9-.5 3.7.4 1 1-1.4 2-6.1 2.5-4.2.4-9.2 1.7-11 2.8-3.8 2.3-2.3 5 2.3 4.5 1.7-.2 3.7.3 4.4 1.1.8.8-1.8 1.8-5.6 2.1-10 .8-11.7 2.4-6 5.9 4.4 2.7 4.3 3.1-.6 4-6.4 1.1-7.9 3.5-3.3 5.5 2.1.9 1.6 2.4-1.6 4.2-2.6 1.6-3.5 3.1-2 3.5s1.7 1.3.4 2.1c-1.3.8-1.6 2.2-.6 3.3.9 1.1-1.4 6.9-5.2 13.1-12.7 20.6-13.5 25.6-2 13.7zM559.7 538c-1.5-1.7-6.1-3.5-10.2-4.2-10.8-1.7-23.2-6.2-22.6-8.1.3-.9-1.5-1.2-4-.5s-4.5.2-4.5-1-2.6-2.1-5.6-1.9c-5.2.3-5.4.2-2.8-2.9 4.3-4.9-1.8-5.2-9.8-.5l-7 4.1 3.5-5.4c3.1-4.7 3-5.2-1.2-4.1-2.6.7-5.9 2.5-7.3 4.1-2.8 3.1-5.8 1.4-3.7-2.2 2.8-4.7-1.6-4.9-9.6-.3-8.2 4.7-8.3 4.7-3.7-.3 6.3-7 1.5-7.5-9.7-1-8.3 4.8-8.9 4.9-5.9.8 5.8-7.9 1.4-8.1-8.9-.4l-9.5 7.1 2.3-5.8c3.4-8.6 1.3-8.8-9.2-.8-9 6.8-9.3 6.9-6.8 1.9 5.4-10.6-1.3-9.2-12.1 2.5-3.2 3.4-3.3 3.4-1.6-.8 1-2.5 1-5.3.1-6.4-1.7-1.9-4.4.1-11.3 8-3.2 3.8-3.3 3.7-2.1-2 1.5-7.5-2.5-7.6-9.1-.2-6.3 7.1-9 7.4-7.6.8.6-2.7.7-5.4.1-6-1.7-1.8-7.6 2.9-10.8 8.7-4 7.1-8.1 7.3-6.6.2 1.8-8.5-4.2-7.9-9.4.9-4.4 7.4-8 8.4-6.1 1.7 1.7-5.9-4.3-3.8-8.7 3-5 7.8-8.5 8.6-7 1.5.6-2.7.7-5.4.1-6-2.1-2.2-8.5 3.8-10.6 10-2.2 6.4-2.6 6.2-4.9-2.9-1.3-5.1-7.9-.7-7.3 5 .2 2.4-.7 5.1-2 5.9-1.4.8-2-.7-1.4-3.5 2.6-12.2-7.9-5.5-11.1 7.1-2.2 8.3-1.6 10.1 5.1 16.3 7.8 7.2 12.8 7 9.4-.5-1.8-4-1.6-4 3-.4 6.5 5.2 12.1 3.3 8-2.7-3.1-4.7-3.1-4.7 6.5-1.1l9.7 3.6-2.7-5.4-2.7-5.4 6.9 4.6c8.4 5.6 12.5 4.1 6.6-2.3-2.5-2.7-3-4.8-1.2-5 1.7-.2 5.2 1.9 7.8 4.7 6.3 6.8 10.8 5.9 7.2-1.4l-2.9-5.8 6.4 4c8.7 5.5 15.5 5.8 10.5.4-6.1-6.6-.2-7.1 7-.5 7.6 6.9 12.1 5.7 8.1-2-2.4-4.6-2-4.5 3.5 1 4.5 4.5 7.1 5.7 9.5 4.3 1.8-1.1 2.1-3.3.6-4.9-1.5-1.6-2.1-3.9-1.4-5.2.8-1.4 3.5.2 6.9 3.8 6.7 7.3 11.8 7.4 8.9.2-2-5-1.9-5 4.6 0 8 6.2 14.2 5.3 10-1.5-2.2-3.5-1.4-3.2 3.2 1.3 7.7 7.6 12.3 7.4 9.8-.4-2.5-7.7-1.7-7.9 4.5-1.2 2.8 3.1 6.6 5.1 8.4 4.5 2.1-.6 2-2.4-.3-4.9-5.5-6-.2-7 6.3-1.2 6.8 6 14.4 5.2 8.7-.9-2.1-2.3-2.4-4.2-.6-4.4 1.7-.2 3.1.7 3.1 1.9.1 3.1 9 8.4 11.7 6.8 1.2-.7.6-3-1.3-5.1s-2.5-4.4-1.2-5.1c1.4-.9 3.6.9 5.7 4.8 2.8 5 4.1 5.7 7 4 1.9-1.2 2.6-3.1 1.4-4.4s-1.1-2.9.1-3.6 4.2.8 6.5 3.4c3.7 4.1 4.6 4.2 5.9.8 1.3-3.3 1.7-3.3 2.6-.2.8 2.8 1.6 3 3.8.5 1.5-1.7 3.4-2.5 4.1-1.7s2.7.7 4.3-.3c2.9-1.7 12.3-1.2 30.1 1.6 8.2 1.8 9 1.6 6.5-1.1zM295 644.5c1.4-6 .3-8.9-5.4-14.8-8-8.3-13.3-8.3-11.2 0l1.5 5.6-4.8-4.8c-3.3-3.3-5.8-4.1-8.3-2.7-2.5 1.5-2.3 2.8.4 4.5 2.2 1.3 3.4 3.2 2.8 4.2-.6 1-3.1.2-5.6-1.8-6.2-5.1-12.1-2.8-7.3 2.8l3.8 4.4-8.3-3.2-8.3-3.2 2.7 6.6 2.7 6.6-7.5-3.1c-9.2-3.8-13.2-2-8.2 3.7l3.7 4.2-6.6-1.3c-3.6-.7-7.9-.6-9.4.4-1.6.9-1.8 3.5-.6 5.6 2.2 3.8 2.1 3.8-4.5 1.5-7-2.5-15.9.2-9.8 2.9 5 2.3.1 4.2-5.9 2.3-6.8-2.2-10.1.1-6.2 4.3 3.1 3.3 2.9 3.4-6.3 2.6-11-1-15.7 1-10.2 4.3 4.6 2.8 2.5 4.6-4.3 3.8-6.7-.9-9.2 1.1-5.8 4.7 2.4 2.6 1.9 3.2-2.8 4-7.8 1.3-9.2 2.5-5.3 4.2 2.6 1.2 1.7 2.1-4.4 4.6-6.7 2.7-7.2 3.4-3.8 4.9 2.9 1.3 2.9 2.1-.2 2.9-2.5.7-3.3 2-2.1 3.3 1.2 1.3.4 2.6-2.1 3.3-2.4.6-3.3 1.9-2.2 3.1 1.9 2-4.3 14.1-14.5 28.4-7.8 10.9-.1 6.9 12-6.2 5.8-6.3 13.5-13.4 17-15.6 3.5-2.3 7.1-5.4 8-7 .9-1.7 2.2-2.2 3.1-1.3 2.6 2.8 5.2-.4 4.6-5.5l-.6-4.9 1.9 4.1c1 2.3 2.8 3.6 4 2.9 1.1-.7 2.2-3.7 2.3-6.7l.3-5.4 1.9 4.1c1.1 2.3 2.9 3.5 4.1 2.8s2.4-3.8 2.6-6.9l.5-5.6 1.8 4.2c2.6 5.9 7.1 2.5 8.7-6.4 1.1-6.3 1.4-6.6 2.1-2.2 1.2 7.7 5.4 6.2 6.8-2.5l1.2-7.7 2.7 5.4 2.7 5.4 2.8-8.5c2.5-7.8 6.7-9.9 4.6-2.2-.5 1.8 0 3.4 1.2 3.5 2.9.2 8.5-8.3 6.8-10.2-.7-.8-.2-2.1 1.1-2.9 1.7-1 2.3-.2 1.8 2.5-1.1 6.8 3.9 4.6 6.4-2.9l2.4-7.1 1.6 4.3c2 5.3 5.2 3.7 6.8-3.5.6-3 2.2-6 3.4-6.7 1.2-.7 1.7.9 1.1 3.6-2 9.2 4.4 8.1 7.8-1.3 1.8-5.1 1.9-5.1 2.4-.3.7 5.9 2 5.4 6.4-2.6 3.3-6 3.3-6 3.8-1.1.4 4 1.1 4.5 3.7 3 1.8-1.1 3.2-3 3.2-4.2-.1-3.7 3.8-5 4.8-1.7 1.4 4.5 2.6 2.9 4.5-5.5zM530.4 482.8c-5.8 0-16.1.1-22.9.3s-13.8-.8-15.6-2.2-5.7-1.9-8.6-1.2-4.1.6-2.6-.4 1.7-2.8.5-4c-1.4-1.5-4.3-1-8.5 1.6-7.8 4.6-13.8 3.8-8.5-1.2 5.5-5.1.2-5.5-8.1-.7-6.3 3.7-6.8 3.7-5.1-.2 3-6.4 1.1-6.7-8.1-1.4-7.3 4.3-8 4.4-6.3.6 3.1-6.7.5-7.1-7-1.2-7.5 5.9-13.7 6.4-8.1.6 6.5-6.7 1-7.1-7.6-.7-7.8 5.9-8.1 5.9-7.1 1.3 1.3-6-4-6-8.1 0-3.8 5.5-6.4 6.9-5.2 2.8 1.8-6.5-2.6-8-8.6-3-4.8 4-5.7 4.2-7.1 1-1.2-2.7-2.7-3-6.1-.9-2.5 1.5-4.5 3.7-4.5 5 .1 4.4-4.2 5.1-4.7.7-.6-5.9-4-5.3-8.9 1.7-4.2 6-4.3 6-6.4 1.4-2.5-5.5-6.9-3.9-9.5 3.6-2 5.9-6.5 6.4-5.6.6 1-6.2-4-5-8.5 2.1-4 6.2-4.1 6.3-4.5 2.2-.6-5.6-1.4-6.3-5.2-4-1.8 1.1-3.9 4.7-4.7 8.1l-1.5 6.2-3.7-6.6c-4.4-7.8-7.9-6.8-9.1 2.7l-.8 6.5-3.7-6.2c-3.1-5.1-4.2-5.7-6.3-3.3-4.7 5.4-3.3 21.1 2.4 27.3 6.9 7.5 10.6 7.6 9.1.3l-1.2-5.8 4 4c4.7 4.8 8.6 3.4 6.2-2.2-1-2.1-.4-4.1 1.2-4.3s3.6 1.2 4.5 3 3.9 3.3 6.9 3.3c4.7-.1 5.2-.7 3.6-4.3-1.8-4-1.5-4.1 5.3-1.2 8.4 3.5 13.1 1.8 8.8-3.3-2.5-3-1.8-3.1 4.7-.5 9.1 3.6 10.4 3.2 8.8-2.9-.7-2.7-.2-3.7 1.1-2.4 1.2 1.2 4.1 2.6 6.4 3.2 3.6.9 4.2.3 4.7-4 .5-4.9.6-4.9 4.2-1.1 5.1 5.3 8.8 5.1 8.2-.6-.5-4.5-.2-4.6 5.8-.6 5.9 4 6.3 3.9 6.7-.6.5-4.6.6-4.7 4.1-.9 4.6 5 9.5 4.6 9.2-.8-.2-3.4.5-3.2 4.4.8 4.7 5 9.8 4.5 8.3-.8-1.4-5.1 2.8-5.6 7.2-.9 5.3 5.7 10.6 5.1 9.1-1-1.1-4.2-.6-4.1 4.1.8 6.1 6.3 11.1 6.7 10.8.8-.2-3.5.3-3.5 3.7.1 4.4 4.7 8.2 3.6 7.9-2.3-.2-3.4.3-3.5 3.5-.1 4.6 4.9 8 5.1 9.8.7 1.1-2.6 1.9-2.8 3.8-.8 1.6 1.7 3.3 1.6 4.9-.2 1.5-1.8 3.3-2 4.6-.5 1.5 1.6 3.2 1.3 5.6-1.3 2-2.1 4.1-2.9 5-2 .8.9 2.9.8 4.6-.3s11.9-3.4 22.7-5.4c23.5-4 25.6-5 11.6-5zM285.4 610.7c3.2-11.3 2-14.4-7.6-19.7-8.2-4.5-17.4-5.5-13.7-1.5.8.9.5 2.2-.7 2.9-1.2.7-3.4 0-4.9-1.6-1.5-1.6-4.1-2.8-5.8-2.6s-1.8 1.8-.2 3.5c3.8 4.1-.2 6.3-4.9 2.7-4.7-3.6-11.3-1.9-7.7 2.1 4.6 4.9 2 6.7-6.6 4.5-10.3-2.7-14.4-.6-7.6 4l5.1 3.4-7.3-2.1c-4-1.1-8.9-1.2-10.8 0-2.6 1.6-2.2 2.9 1.7 5.4l5.2 3.3-8.9-1.1c-11-1.4-16.5 1.2-10.3 5 3.9 2.4 3.5 2.5-3.9 1.2-4.6-.8-9.2-1-10.3-.3-1.1.7-.3 3.1 1.8 5.4 3.5 3.9 3.4 4.1-1.5 2.7-2.9-.8-6.7-1.4-8.5-1.2-4.6.5-6.1 4-2.4 5.6 5.4 2.4 0 3.6-6.8 1.5-7.7-2.4-12.2-.5-6.6 2.8 2.2 1.3 3.3 2.7 2.5 3.2-.8.5-3.9.2-7-.5-7.3-1.8-10.6.4-6.8 4.6 2.8 3.2 2.7 3.4-2.3 2.5-6.2-1.1-11.1 1.2-8.6 4 1.1 1.3.3 1.6-2.5.9-3.2-.8-4.7-.1-6.5 3-1.8 3.1-3.4 3.8-7.3 3.2-4-.7-5-.2-5 2.4 0 2.1-4 5.4-12.2 9.9-19.5 10.6-28.5 16.9-25.5 17.6 1.5.4 7.2-2 12.7-5.2 8.4-5 11.7-5.8 22.2-5.1 8.2.6 13.2-.2 15-2.3 2.2-2.5 3-2.3 4.2 1 1.8 4.9 4.2 3.9 7.9-3.4 2.7-5.2 2.8-5.2 4.9-.6 2.6 5.8 5.5 4.4 8.2-3.8 2-6.2 7.2-8.6 5.5-2.5-2.3 8.1 5.3 5.9 8.2-2.3 1.6-4.7 1.8-4.8 2.7-1.6 1.2 4.4 5 2.1 9.3-5.6 3.3-6 3.3-6 3.8-1.1.4 4.3 1 4.6 4.7 2.4 2.3-1.4 4.5-4.3 4.8-6.4.3-2.1 1.6-4.5 2.8-5.2 1.2-.7 1.9.5 1.5 2.7-1.2 7.2 6.1 5.2 9.5-2.7l3.1-7.1 1.8 4.1c2.3 5.2 3.8 4.2 6.7-4.1 1.7-4.9 2.5-5.8 3.3-3.4 1.6 5.3 5.2 4 7.3-2.7l2-6.2 1.7 3.9c2.1 4.7 4.6 3.6 6.8-2.8 1.5-4.4 1.8-4.4 3.4-.8 2.2 4.9 5.6 3 7.1-4 .6-3 2.2-6 3.5-6.8 1.4-.8 1.9-.1 1.3 2-2.3 8.2 5.2 6 8.3-2.5 1.8-5.1 1.9-5.1 2.4-.3.7 6.2 4.8 4.4 7.9-3.6 2.1-5.3 2.1-5.3 1.2.1-.5 3-.5 5.9 0 6.4 2 2.1 7.4-2.6 8.7-7.2zM556.8 417.6c-7.6-8.7-20.3-16.8-29.3-18.8-2.9-.7-5.7-2.4-6.1-4s-1.9-2.1-3.3-1.3c-1.6.9-3.1 0-4-2.3-1-2.6-2.9-3.5-5.9-2.7-3.3.9-4.1.5-2.9-1.5 2.3-3.8-3.6-4.8-9.2-1.5-4.6 2.7-4.6 2.7-2.5-2 1.9-4.1 1.6-4.7-2.5-4.3-2.6.2-7.2 1.9-10.2 3.6l-5.6 3.2 4-5.9c5-7.5 1-8.6-9-2.6l-7.8 4.6 2.3-6.2 2.3-6.2-11 7.5-11 7.5 1.4-5.9c.8-3.3 1-6.4.5-7-1.5-1.6-9.7 3.9-13.2 9-3.1 4.4-3.1 4.4-2.1-.7 1.6-8-.4-8.3-9.3-1.5-7.7 5.8-8.1 5.9-7.1 1.5 1.2-5.4-1.2-8.9-4.5-6.9-1.3.8-4.2 4.1-6.6 7.5-4.5 6.5-8 6.2-5.3-.4 3.8-9.4-5.4-6.4-11 3.5-3.3 6-3.3 6-3.8.9-.7-7.1-3.9-6.5-10.1 1.8-5.8 7.7-6.7 7.9-6.8 1.1-.1-7-4.3-5.6-9.5 3.2-5 8.4-7.2 8.6-6.4.6.8-7.6-4-6.7-9.3 1.8-5.1 8.1-8.8 10.4-6.1 3.7 1.8-4.5-1.2-8.7-4.7-6.6-1.3.8-4.1 4.7-6.1 8.8-4 7.9-3.6 8.1-6.3-3.1-1-4.1-6.8.6-10.1 8.2l-3 6.9-1.7-4.6c-.9-2.6-2-5.8-2.4-7.1-1.2-4.1-5.6.1-7.6 7.2l-1.9 6.7-3.5-5.8c-5.2-8.6-8.9-5.4-9.8 8.5-.3 4.7-.5 4.7-4.7.4l-4.3-4.5-3.3 13c-3.5 13.7-2.3 15.6 13.2 22.1l5.8 2.4-3.2-5.1-3.2-5.1 7.4 3.6c11 5.4 16.4 2.9 7.4-3.4-7.9-5.6-4.6-6.3 5.4-1.2 9.4 4.8 14.3 2.6 8.8-3.8l-4.5-5.1 6.5 3.2c9.6 4.6 14.1 5 15.7 1.2.9-2.3 2.3-2.6 5.3-.8 6.1 3.6 8.9.3 4.7-5.7l-3.8-5.4 7 3.9c8.9 4.9 12.7 3.8 10.9-3.4l-1.5-5.6 3.9 3.8c5.1 5 14.4 5.2 14.5.3 0-1.9-1.5-4.3-3.3-5.5-1.9-1.2-2.1-2.2-.6-2.4s3.9.9 5.4 2.5c6.9 7.5 15.2 6.8 10.3-.8l-3-4.7 6.3 3.9c7.3 4.5 10.7 3.4 9.1-3.1-1.2-4.7 1.5-3.5 6.3 2.9 1.4 1.8 4.9 3.3 7.7 3.3 5.5-.1 5.6-.9 1.5-9-1.1-2.2.1-1.6 3.1 1.3 9.7 9.7 22.3 9 13.4-.7-2.3-2.4-3.1-5-2-5.7s4.3 1.4 6.9 4.7c5.6 7 12.4 5.1 9.2-2.5-1.6-3.8-.8-3.5 4.2 1.6 6.4 6.6 11.2 6.6 8.8 0-2.3-6.3 1.5-6.2 5.8.1s8.8 5.8 8.4-.9c-.2-3.4.4-3.4 3.7.1 4.2 4.4 6.8 4 8.4-1.4.8-2.7 1.6-2.2 4 2.3 3 5.5 7.8 5.9 7.7.6-.1-4.4 3.5-4.4 5.9 0 2.5 4.5 7.5 3.8 6.3-.9-.4-1.4 1.2-.7 3.5 1.6 2.5 2.5 4.6 3.2 5.5 1.8 1.6-2.8 21-1 29.1 2.6 3.1 1.4 10.2 5 15.8 8.2l10.2 5.6-7.6-8.7zM541.2 433.4c-2.2-2.4-22.6-2.7-26.4-.5-1.7 1-4.6 1.2-6.5.4-1.8-.8-4.8-.7-6.5.4-1.8 1.1-3.2.8-3.2-.8 0-1.9-1.6-1.3-5.2 2.1-4.3 4-5.1 4.2-4.6 1.1.7-4.4-2.5-4.8-8.8-1.3-4.6 2.6-4.6 2.6-1.4-1.2 3-3.6 2.9-3.8-1.6-2.6-2.7.7-6.6 2.8-8.7 4.8-3.7 3.5-3.8 3.4-2.6-2 1.2-5.5 1.1-5.5-6.5 0-8.5 6.2-9.8 6.2-6.8 0 3.1-6.3-2.5-5.4-9.5 1.7-6.5 6.5-9.4 6.5-6.8 0 3.6-9-2.8-6.7-13.2 4.7-2.5 2.7-2.8 1.9-1.5-4.1l1.6-7.5-7.6 6c-7.2 5.6-7.6 5.7-6.6 1.1.6-2.6.6-5.3.1-5.8-1.4-1.6-9.6 3.9-12.8 8.5-1.9 2.9-3.2 3.6-4.3 2.5-.8-.9-.4-2.9 1-4.4 5-5.7-.4-5.9-7.5-.3-6.7 5.3-7 5.4-6.1.8.6-2.6.6-5.3.1-5.8-1.5-1.6-9.7 3.9-12.9 8.6-2.8 4.1-2.9 4.1-2.8-1.8.1-7.1-2.9-6.1-9.3 3.1-4.8 6.9-6.8 6.5-5.2-.9 1.6-7.2-3.4-6.3-8.4 1.4-4.7 7.4-8.2 8.6-7.2 2.5 1-6.1-3.3-5-7.1 1.7-3.7 6.7-7.7 7.9-6.7 1.9 1.3-7.8-4.2-6.3-7.5 1.9-3.5 8.8-4.9 9.3-5 1.9-.1-7-4.9-5.6-8.8 2.7l-3.6 7.5-2.8-5.6c-3.5-6.9-9.3-4.6-9.8 3.9-.3 5.4-.4 5.4-3.4-.3-3.1-5.7-5.5-5.9-8.3-.8-3.1 5.5-.7 19 4.3 24.4 5.6 6 9.5 5.7 9.2-.8-.2-3.4.3-3.4 3.6 0 5 5.3 10.3 4.5 8.7-1.2-1.2-4.2-1-4.2 4.5-.5 5.8 4 12.7 2.6 11.5-2.3-.4-1.5.4-1.5 2 0 3.9 3.8 9.7-.8 6.2-4.9-2.3-2.7-1.4-2.7 3.6.2 8.1 4.6 14.5 1.6 9.5-4.5-3.1-3.8-2.8-3.8 2.7.1 7.4 5.3 16.7 3.2 11.8-2.7-2.5-3-1.9-3 3.8-.1 7.9 4.1 13.5 2 10.2-3.7-1.8-3-.8-2.9 4.7.7 7.2 4.7 12.7 4.5 8.6-.4-1.4-1.7 0-1.7 3.8.1 5.8 2.7 11.5 2 8.7-1.1-.8-.8-.4-2.1.8-2.8s3.7.4 5.6 2.4c1.9 2 4.8 3.5 6.5 3.3 1.7-.2 2.1-1.4.9-2.7-3.3-3.6 1.4-5.2 5.6-1.9 4.7 3.6 10.4 2 8.4-2.4-1-2.2-.2-2.1 2.5.5 5.1 4.9 10.5 7.4 13 5.9 1.1-.6.7-2.5-.8-4.2-1.5-1.7-1.8-3.6-.6-4.3 1.2-.7 4 .7 6.3 3.1 5.2 5.6 11.2 5.1 8.8-.8-1.8-4.2-1.7-4.3 3.4-.7 5.6 3.9 13.4 3.4 9.7-.7-1.2-1.3-1.2-3 0-3.7s3.8.4 5.7 2.5c4 4.3 11.5 1.5 7.7-2.8-1.7-1.9-.3-2.1 4.8-.5 8.1 2.5 12.5 1 9-3.1-1.6-1.9-.6-2 3.3-.3 3.7 1.6 5.6 1.5 5.6-.3-.1-3.7 21.4-10.8 37.5-12.4 5.9-.7 10.5-2 9.6-2.9zM275.9 566.3c.8-6.3-.2-8.3-7.5-14.1-4.7-3.7-9.4-6.2-10.4-5.6-1 .6-.9 2.2.3 3.5 1.2 1.3.8 2.5-.9 2.7-1.7.2-4.2-.9-5.7-2.5-4-4.3-9-2.7-7.5 2.4 1.3 4.5 1.3 4.5-3.9 1.3-6.4-3.9-9.5-2.4-7.5 3.5 1.4 4.3 1.4 4.3-3.2.9-6-4.5-12.5-2.8-10.2 2.6 1.6 3.8 1.2 3.9-6.4 1.3-9.5-3.3-12.5-2.2-9.2 3.2 2.2 3.6 1.8 3.7-6 1.2-10.2-3.2-13.9-1.5-8.9 4.1l3.8 4.2-7.1-2.2c-7.9-2.4-14.9.2-11.1 4.2 2 2.1 1.2 2.4-4.1 1.3-8.3-1.7-11.5.2-7.5 4.5 2.8 3 2.1 3.1-5.7 1.1-10.3-2.7-14.7-1.1-10.2 3.7l3.1 3.4-6.5-1.3c-7.9-1.6-11.6.2-8.1 3.9 4.2 4.6 2 6.4-6.1 5.1-9.3-1.4-13.8.7-8.3 3.9 4.7 2.8 2.5 4.6-4.3 3.8-2.7-.3-6.3.2-8.1 1.3-2 1.2-1.9 2.5.1 3.5 3.7 1.7 1 4.3-3.4 3.2-4.4-1.1-10 3.1-6.2 4.8 2.6 1.2 1.7 2.1-4.1 4.5-6.1 2.5-6.7 3.3-3.7 4.6 2.7 1.2 2.5 2-.7 2.8-2.4.6-4.9 3.1-5.6 5.6s-4.7 7.6-9 11.5c-17.4 15.9-21.3 20.1-18.9 20.7 1.5.4 4.2-1.3 6.8-4.2 5.5-6.2 29.2-18.7 32.5-17 1.7.8 3-.4 4.2-3.8 1.6-4.7 1.9-4.9 4.1-2.6 3 3.3 6.5 1.1 6.4-4.1 0-3.5.2-3.5 1.8.1 2.5 5.8 5.9 3.1 6.9-5.3l.8-6.9 3.2 5.7c4 7.3 8.1 5.2 7-3.6-.4-3.6-.2-6.9.4-7.3s2.4 1.7 4 4.7c3.5 6.8 6.9 5 7.8-4 .4-3.8 1.4-6 2.4-5.1 1 1 1.1 2.8.4 4-.7 1.2-.7 2.9 0 3.7 2.3 2.5 7.2-1.9 8.4-7.5 1.7-7.6 5-8.8 4.9-1.7-.1 5.6.1 5.8 3.8 3.6 2.2-1.3 5.1-5.4 6.4-9.1 1.4-3.7 2.2-5 1.8-2.9s.1 4.7 1.1 5.8c2.8 3 8.4-1.4 8.3-6.6 0-2.6.9-5.2 2-5.9s1.7.3 1.1 2.1c-1.1 4 1.8 7.8 4.8 6.1 1.2-.7 2.9-4.6 3.8-8.7 1-4.1 2.5-6.7 3.4-5.7.9 1 1.1 2.8.3 4-.7 1.2-.7 2.9 0 3.7 2.3 2.5 7.2-1.9 8.4-7.5 1.7-7.7 5-8.8 4.9-1.7-.1 8.2 3.8 7.8 8-.9s6.8-10.7 5.4-4c-1.5 6.7 3 6.5 6.8-.4 3-5.3 3.2-5.4 4.6-1.6 1.8 4.8 4.1 3.8 6.4-2.8 2-5.8 6.5-6.4 5.6-.7-.9 5.7 4.5 2.2 6.7-4.3.9-2.7 2.4-4.1 3.2-3.2.8.9.9 2.7.2 3.9s-.7 2.9 0 3.7c2.1 2.3 6.3-1.2 8.3-6.9 1.8-5 1.9-5.1 3.5-.9 2 6.1 6.7 2.3 7.9-6.8zM263.4 527.5c.7-8.3-10.5-22.5-15.4-19.5-1.7 1-1.7 3.3 0 5.2 4 4.3-2.1 4-7.7-.4-6.5-5.1-11.4-2-6.3 4 2.5 3 2.8 4.1.7 2.7-2-1.4-5.6-3.7-8-5.3-5.1-3.4-8.1.2-3.9 4.8 3.9 4.2-2.3 3.9-7.8-.5-5.9-4.6-11-2.2-7.2 3.4l3.1 4.7-7-3.9c-9.3-5.2-13.6-3.5-9.9 3.9l3 6-6.3-3.2c-12-6.1-19.7-4.4-13.6 3 2.7 3.3 2.6 3.3-2 .7-2.6-1.5-8.2-2.4-12.3-2-7.5.7-7.5.7-1.6 4.8 7.4 5 6.2 6-3.6 2.7-9.9-3.3-12.9-1.2-7.6 5.1 2.8 3.3 2.9 4.2.4 2.7-4.4-2.7-14.6-4.2-17.4-2.5-1 .6-.2 3 1.9 5.3l3.8 4.2-7.1-2.2c-3.9-1.2-8.1-1.6-9.2-.9-1.2.7-.4 3.2 1.6 5.5l3.8 4.2-7.1-2.2c-7.1-2.2-15 .1-11.9 3.4 1 1-.9 1.7-4.7 1.6-3.5-.1-6.6.7-6.8 1.7-.3 1-3 1.9-6.1 1.9-4.2.1-5.4.7-4.8 2.5.6 1.9-.5 2.6-5.4 3.2-4.8.7-6 1.4-5.5 3.2.4 1.3-1 2.8-3.2 3.4-2.2.6-3.2 1.8-2.3 2.8.9 1 0 2-1.9 2.2s-3.7 2-4 4-2.8 6.8-5.6 10.9c-6.3 9-12 22.3-9.6 22.4 1 .1 5.3-4.8 9.7-10.7 7.7-10.5 21.4-21.6 23.7-19.1.6.7 2.6.4 4.4-.7s3.8-1 4.5.3c1.3 2.4 5.5.1 10.6-6 2.9-3.4 3.2-3.4 2.6.6-.9 5.7 3.5 5.9 6.8.3 3.6-6.1 4.9-6.5 5.4-1.4.4 3.7 1.1 4 4.6 1.9 2.3-1.4 4.5-4.3 4.8-6.4.9-5.7 4.6-7 5.1-1.9.4 3.7 1.1 4 4.4 2 2.2-1.3 5.2-4.8 6.8-7.8 2.7-5.3 2.8-5.3 2.8-.6.1 7.3 4.8 6 8.8-2.3 3.3-7 3.6-7.2 4-3 .6 5.8 1.4 6.6 5 4.4 1.6-1 3.5-4.2 4.1-7.2 1.4-6.6 4-6.9 4.7-.6.4 4 1.1 4.2 4.8 2 2.4-1.4 4.2-4.6 3.9-7-.2-2.4.7-5.1 2-5.9 1.4-.8 2 .7 1.4 3.5-.6 2.7-.6 5.4-.1 5.9 2.1 2.2 8.5-3.8 10.5-10l2.2-6.6.6 5.1c.8 6.9 3.8 6.6 7.9-.7 1.8-3.3 4.4-6 5.7-5.9s1.2 1.8-.1 3.9-1.9 4.4-1.1 5.2c2.2 2.4 7.2-1.8 10.2-8.7 3.2-7.3 5.5-7 3.9.6-1.6 7.5 3.3 6.1 7.2-2 3.8-7.9 6-8 4.3-.2-.9 4.3-.6 4.7 2.3 2.9 1.8-1.1 3.6-3.8 4-5.9.9-5.7 4.6-7 5.1-1.9.6 5.6 5 3.5 7.4-3.6 1.9-5.3 4.9-4.1 3.4 1.4-.7 2.6-.2 2.9 2.4 1.4 1.7-1.1 3.5-5 3.8-8.8zM545.1 356.7c-1.4-1.5-7.8-3.7-14.3-4.9-6.5-1.2-14.4-3.8-17.5-5.8-3.2-2-7.4-3.5-9.5-3.3-2.8.2-3.1-.4-1.4-2.4 1.7-2 .4-2.4-4.8-1.5-3.9.6-5.9.4-4.4-.6 4.6-2.9-.9-6-7-3.9-5.5 1.9-5.7 1.8-3.3-2.1 2.1-3.3 1.7-4-1.7-3.6-2.3.3-6.7 1.9-9.8 3.7l-5.5 3.2 3.2-4.9c4-6 .5-6.5-8.6-1.2-6.5 3.8-6.7 3.8-4.5-.9 1.9-4.2 1.6-4.8-2.3-4.4-2.5.3-7.1 1.9-10.2 3.6-4.1 2.2-4.7 2.2-2.4 0 5.3-4.9-1-5.9-8.6-1.4-3.8 2.3-7.4 3.6-8 3s-.1-1.7 1.1-2.5 1.6-2 .8-2.8c-.8-.8-4.3.2-7.8 2.3-5.4 3.2-6.6 3.2-8.1-.2-1.7-3.7-2.3-3.6-10 2.5-7.8 6.1-8.2 6.2-8.3 1.9-.1-6.3-4.5-6-10.3.6-4.5 5.1-4.9 5.2-5.3 1.5-.6-6.4-6.6-4.3-10.5 3.8-3.6 7.5-4.8 7.7-5.4 1.1-.6-6.1-5.4-4.5-8.6 2.8-3.6 8.1-4.6 8.6-8.8 4.1-3.8-4.1-10.1-2.1-8.8 2.9 1.4 5.2-3.5 5.9-7.9 1.2-5-5.4-8.6-3.8-11.6 5.1l-2.2 6.6-3-5.8c-3.7-7.1-9.4-5-10.2 3.7l-.5 5.6-2.4-4.9c-3.2-6.4-7.9-5.6-10 1.7l-1.6 5.8-2.1-4.6c-2.8-6-8.8-2.9-9.2 4.8l-.3 5.4-3.1-3.4c-4.1-4.5-7-2.4-8 5.8-.7 5.1 1.2 8.9 7.4 15.7 5.9 6.4 8.9 8.3 10.4 6.8 1.2-1.2 1.1-4.2 0-6.6-1.9-3.9-1.6-4.2 2-2.6 2.3 1 5.3 3.1 6.8 4.7 3.9 4.2 7.4 1.1 5.7-4.9-1.5-5.5 3.1-7.6 7.1-3.2 1.3 1.5 5.1 3.1 8.3 3.7 5.8 1 5.8 1 4.5-2.8-.7-2.1-1.8-5.2-2.3-6.8-.6-1.9 2.9-1.5 9.9 1.1l10.9 4.1-3.7-5.4c-4.8-6.8-2.1-8.5 6.1-3.9 8.4 4.7 14.2 3 9.2-2.8l-3.8-4.4 7.6 3c9 3.6 11.6 2.6 10.6-4l-.8-4.8 3.2 3.2c4 4 9.7 3.6 8.5-.7-1.4-5.2 2.8-5.8 7.2-1 4.9 5.3 8.9 4 6.8-2.3-1.4-4.2-1.2-4.2 3.8-.7 6.6 4.6 11.8 3.3 9.6-2.5-1.6-4.2-1.5-4.3 4.9-1.2 8.8 4.2 9.3 4.2 9.9-1.4.5-4.5.8-4.5 5.1 0 5.1 5.4 9.5 4.5 7.3-1.5-1.9-5.3 3.8-5.6 6.2-.3 2.2 4.9 9.1 5.1 7.7.3-1.5-5.4 2.8-5.7 7.5-.6 3.5 3.8 4.7 4.1 5.4 1.5 1.5-5.2 4.1-5.8 7.8-1.9 2.3 2.5 4.4 2.8 7 1.1 2.7-1.9 4.3-1.5 6.2 1.6 2.1 3.2 3.2 3.4 5.4.9 1.9-2.2 4-2.5 6.7-.8 2.2 1.3 4.4 1.5 5 .6s2.6-1 4.5-.2c1.9.9 4.1.6 4.8-.7.7-1.2 2-1.5 2.9-.6s6.9 1.7 13.5 1.7 12.8 1 13.9 2.2 2.9 1.6 4 .9c1.1-.7 3.9-.2 6.2 1 5.3 2.6 9.2.6 5.8-3.1zM255.6 494.3c1.1-4.9-10.6-22.6-15.2-22.9-1.1-.1-2.4 2.5-2.8 5.7l-.7 5.8-3.2-5.7c-3.5-6.3-8-5.6-7.8 1.1.1 3.3-.3 3.1-2.3-.8-1.3-2.7-4.5-5.4-7-6.2-4-1.2-4.5-.4-3.9 6.2l.7 7.6-6.6-6c-7.3-6.7-10.4-6.4-9.3.9.7 4.4.3 4.3-4.6-.8-6.1-6.4-9.1-5.7-9.5 2.2-.3 5.4-.4 5.4-5.6-.1-5.5-5.7-12.3-5.1-10.6 1.1 1.4 5.2-3.5 5.9-7.9 1.2-4.5-4.9-12.6-2.9-8.5 2.1 1.3 1.5-1.1 1.1-5.2-.8-9.2-4.4-13.7-3.4-11.5 2.5 1.6 4.1 1.3 4.2-5 .7-7.2-4-14.8-1.7-10.3 3.2 4.1 4.5.3 5.5-7.3 2-8.3-3.8-12.1-1.8-8 4.2l3.1 4.6-7.4-2.5c-9-3.1-12.8-1.4-9.3 4 2.5 3.9 2.4 4-5.9 1.8-10.5-2.8-14.2-.9-9.2 4.6l3.7 4.2-6.6-1.3c-7.4-1.5-15 1.7-9.7 4.1 3.7 1.7 1 4.3-3.4 3.2-5-1.3-9.9 3.2-5.6 5.1 3.1 1.4 3 1.7-.6 1.5-5.3-.3-13.9 4.3-9.9 5.3 1.6.4.9 1.2-1.8 1.9-2.5.7-4.5 2.4-4.5 3.8s-6.5 9.5-14.6 17.9c-8 8.4-15.9 17.3-17.4 19.7-3.7 5.9 1.1 5.9 5.1 0 4.1-6 33.1-26.6 34.9-24.7.7.8 2-.3 2.8-2.5 1.3-3.2 2-3.4 4-1.2 2.3 2.4 2.6 2.2 5.6-3.1 2.7-4.8 3.3-5.2 4-2.7.9 3.4 7.6.5 7.6-3.3-.1-4.1 3.6-4.7 5.3-.8 2.2 5 6.2 2.3 6.8-4.6l.5-5.6 1.7 4.3c2.1 5.2 6.3 3.2 10.4-4.8 2.7-5.3 2.8-5.4 3.3-.8.4 3.9 1.1 4.3 4.2 2.5 2.1-1.2 4.5-4.4 5.4-7.1 1.9-5.5 4.9-4.1 3.5 1.6-.7 3-.2 3 2.8.2 2-1.9 5.1-5.1 6.9-7.2 3.2-3.7 3.2-3.6 2.2 1.5-.6 2.9-.6 5.8-.1 6.3 1.5 1.6 9.4-3.8 9.4-6.4 0-1.3 1.1-3 2.5-3.8 1.8-1.1 2.2-.5 1.5 1.9-.5 1.9-.4 3.9.2 4.6 1.6 1.7 9.6-3.4 9.6-6.2 0-1.3 1.1-3 2.4-3.8s1.7 1.6.8 5.4l-1.7 6.8 6.7-4c3.7-2.2 7-5.7 7.3-7.9.3-2.1 1.7-4.5 2.9-5.3s1.6 1.5.8 5-1.1 6.8-.6 7.4c1.7 1.9 8.8-3.6 11.1-8.5 3.8-8.2 6.3-7.6 4.1 1-1.9 7.5-1.7 8 2.3 5.7 2.4-1.4 5.4-4.8 6.6-7.4 3.8-8.2 8.5-9.4 6.7-1.7-1.4 5.9-1.1 6.5 2.2 4.6 2.1-1.3 5.1-4.2 6.7-6.6 4.3-6.4 7.2-5 4.6 2.2l-2.3 6.3 4.8-4c2.6-2.2 6.8-5.9 9.4-8.3l4.6-4.3-2.2 6c-2.5 6.8 2.4 7.6 6.8 1.1 1.6-2.3 4.6-5.2 6.7-6.4 3.5-2.1 3.6-1.9 1.6 2.4-2.9 6.1 1.5 6.3 5.6.4 3.8-5.6 7.4-5.8 6.5-.4-1.2 6.2 5.3 1.5 6.7-4.9zM553.9 292.7c-1.1-1.2-10.8-1.4-32.7-.6-4.6.2-9.1-.5-10.1-1.6-1-1-2.7-1.3-3.9-.6-1.2.7-2.5-.1-3-1.8-.5-1.9-2.1-2.2-4.4-.9-2.2 1.3-4.3 1-5.4-.9-1.4-2.3-3-2.2-6.6.5-3.9 2.8-4.7 2.8-4.3 0 .7-4.5-2.7-4.7-9.8-.4-5.2 3-5.5 3-3.7-1 3-6.6.6-7.1-7.2-1.4-4.7 3.5-6.8 4.3-6.3 2.4.4-1.5-.1-3.8-1.2-4.9-1.5-1.6-3.6-.8-9.2 3.8-7.2 5.9-7.2 5.9-6 .4 1.1-5.2.9-5.5-3.4-4.3-2.6.7-5 2.7-5.5 4.4-.5 1.8-1.9 3.8-3.1 4.5-1.2.7-1.8-.2-1.2-2.1 1.7-6.1-1.5-6.2-8.7-.3-6.4 5.3-7 5.4-6.4 1.7 1-6-3.4-5.4-9.3 1.3-4.9 5.6-5.1 5.6-4 .8 1.4-6.3-3.4-6-9.2.6-4.2 4.7-8.3 4.6-5.5-.1.7-1.2.7-2.9 0-3.7-1.8-1.9-12 4.3-12 7.3 0 1.3-1.1 3-2.5 3.8-1.8 1.1-2.2.5-1.5-1.9.5-1.9.1-4.3-1-5.5-1.9-2.1-4.7-.3-11.1 7.4-2.5 3-3.2 2.8-5.1-1.4-2.6-5.6-7.1-4.1-10.6 3.6-3.4 7.3-5.9 7.8-5.8 1.2.1-5.1-.5-5.8-3.9-4.9-2.2.6-5.3 3-6.9 5.3-4.8 7.1-7.7 7.5-7.6 1.2.1-5.6-.1-5.8-4.4-3.3-2.4 1.5-4.9 5.8-5.4 9.6-.7 5-1.3 5.9-2.2 3.1-4.1-12.8-6.6-12.6-11.8.6-3.4 8.7-3.4 8.7-6.1-2.2-1.2-4.9-8.6 2.2-9.8 9.4l-1.2 7.2-4-6.7c-3.8-6.4-4.1-6.5-7-2.2-6.2 9 1.9 27 13.4 29.7 3.3.8 3.4.1.4-3.2-5.3-5.8-1.2-7.3 7.6-2.8 9.4 4.8 13.8 2.6 6.1-3l-5.7-4.2 8.8 3.6c10.3 4.2 14 3 8.9-3l-3.7-4.3 7.1 3.4c8.8 4.1 13.1 2.9 9.5-2.7-2.5-3.9-2.2-4 4.7-.5 8.6 4.4 12.9 3 9.1-3-2.5-4-2.3-4 5.6-1l8.2 3.2-2.9-5.3c-2.4-4.8-2.2-5.2 1.7-3.4 16.6 7.7 20 7.5 16.5-1l-2.1-5.2 5.4 3.6c7.2 4.9 13.1 2.9 8.2-2.8-2.1-2.5-2.3-3.7-.5-2.9 1.8.8 5.8 2.7 8.9 4.1 5.1 2.4 5.6 2.2 5.9-1.7.4-5.1 3.8-5.3 8.2-.6 4.2 4.6 10.1 3.7 8-1.3-2.5-5.6 1.4-6.9 7.8-2.5 5.6 3.8 11 3.2 7.2-.8-1.2-1.2-1.1-2.9.1-3.6s3.6.2 5.4 2.1 5.1 3.8 7.4 4.4c3.5.8 4 .3 2.5-3.2-2.2-5.2 2.5-6.1 7-1.2 4 4.3 9.8 4.1 8.6-.3-1.4-5.2 2.8-5.8 7.2-1 2.3 2.5 5.2 3.9 6.4 3.2s1.6-2 .8-2.8c-3.2-3.5 2.9-3.5 7.9-.1 6.4 4.4 11.3 2.7 7.1-2.5-2.8-3.4-2.8-3.5 1.9-.8 5.3 3 12.5 2.1 9.6-1.2-1.1-1.3-.1-1.6 2.9-.7 2.6.7 5.2.5 5.8-.5s2.6-1.2 4.4-.4c1.8.8 4.3.4 5.5-1s12.2-3.7 24.5-5.2c23.9-2.8 24.6-3 22.7-5zM244.2 458c5.1-7.2 5-16.1-.2-24.5-4.9-8-9.3-7.8-10.6.5-.7 4.2-.8 4.3-2 .6-2.6-8.2-5.4-12-7.9-10.5-1.4.8-1.9 3.8-1.1 6.5 2.1 7.6-.8 7.5-5.3-.1-2.5-4.1-5.3-6.6-7.3-6.3-1.8.2-2.7 1-2.1 1.7s1 3.5.6 6.2c-.5 4.5-.9 4.3-5.1-2.3-5.3-8.4-7.4-8.2-6.7.5.4 6.1.4 6.1-4.8-1.8-5.7-8.6-10.1-8.8-10-.5.1 6.6-2.9 7.5-4.6 1.4-.8-2.8-2-5.8-2.7-6.6-2.2-2.4-7.7 2.2-7.4 6.4.2 3.2-1 2.7-5.8-2.4-6.3-6.7-11.1-6.7-8.7-.1 2.3 6.3-2.1 6.6-5.9.3-4.5-7.5-10.6-6.9-9.1.9l1.1 5.8-6.5-5.2c-7.9-6.3-13.9-5.2-10.6 1.9 2.4 5.1 2.3 5.1-5.6.6-8.8-5-12.8-3.8-9.8 2.8 2 4.5-1.1 4-8.2-1.2-4.9-3.7-10.6-1.2-6.8 3 3.7 4-1.5 4.3-6.9.5-4.2-3-10.9-1.3-7.9 2 1.2 1.3 1.2 3 0 3.7s-3.1.3-4.2-.9c-2.8-3-8.8-2-8.7 1.5 0 2-1 2.3-3.7 1.1-2.9-1.3-4.1-.9-5.2 1.8-1.1 2.7-2.2 3.2-4.8 2-4.7-2.1-8.5.5-5.5 3.8 1.4 1.5 1.1 2.4-.6 2.1-1.7-.3-6 1.1-9.7 3.3-3.6 2.1-12.7 6.8-20.2 10.3-8.8 4.2-13.1 7-12.1 8 1.6 1.7 7.2.4 25.3-5.5 6.3-2.1 15.2-3.6 19.7-3.3s10.2-.7 12.6-2.2c3-1.8 4.7-1.7 5.2.4 1 3.6 4.7 1.7 9.2-4.6 3-4.2 3.1-4 1.6 2.9l-1.6 7.5 4.7-4.1c2.6-2.3 6.7-6 9.2-8.4l4.5-4.3-2.6 6.3c-3.5 8.3 1.3 8.3 8.8 0 6.7-7.4 11.3-8.7 6.6-2-1.7 2.4-2.1 5.4-1 6.6 2.7 2.9 4 2 9.3-7 2.5-4.2 5.1-6.8 5.9-6 .8.9.2 3.5-1.4 5.8s-2.3 4.9-1.5 5.7c1.8 1.9 9.9-3 9.8-5.9 0-1.3 1-3 2.4-3.8 1.3-.8 1.9.9 1.3 3.7-1.4 6.5 3.4 6.1 9.4-.7 5.5-6.3 8.9-6.6 4.7-.5-3.8 5.6-1.6 8.1 4.1 4.7 2.6-1.5 5.3-1.6 6.7-.2 1.9 2 3.8 1.3 10.5-3.7 7.7-5.8 8.1-5.9 5.7-1.2-4 7.9-.5 9 7.8 2.4 5.5-4.3 6.8-4.8 5-2-4.1 6.5 0 7.4 7.8 1.7l7.2-5.3-2.4 5.9-2.4 5.9 8.5-6.5c9.5-7.2 12.1-7.3 5.7 0-6.4 7.3.4 7.5 9.5.4 8.7-6.8 11.1-6.7 5 .3-2.3 2.6-3.5 5.4-2.7 6.3 1.9 2 9.7-2.7 13.3-8 3.3-4.8 6-3 3.8 2.5-1.6 4.1-.2 7.2 2.5 5.5.7-.6 3-3.3 4.9-6.1zM542.4 260.4c-1.4-5-17-9-42.5-10.9-4.4-.3-5.8-1.3-5.1-3.5.6-2.3-.9-2.1-5.5.7-5 3-6.1 3.1-5.4.4.8-2.7-.5-3.2-5.7-2.3-3.7.6-5.5.3-4-.6 1.5-.9 2.1-2.4 1.3-3.2s-5.1.7-9.7 3.3c-7.3 4.3-8 4.4-6.3.6 3-6.4 1.1-6.8-7.9-1.4-7.5 4.5-7.9 4.5-5.8.1 2.2-4.5 2-4.6-4.6-2.2-3.8 1.4-7.5 3.6-8.2 4.9-.8 1.3-2 1.7-2.7.9s-.2-2.8 1.3-4.4c4.8-5.5-3.2-4.7-10.6 1.1-6.3 4.9-6.7 5-3.8 1 5.3-7.4 1.9-7.7-9.5-1l-10.4 6.2 2.8-6.2c2.3-5.1 2-6-1.5-5-2.4.6-6.4 3.5-8.9 6.4-5.8 6.5-8.9 6.8-5.2.4 1.5-2.6 2.3-5.2 1.7-5.9-1.6-1.7-9.7 3.6-13.3 8.8-3.1 4.4-3.1 4.4-2.1-.7.6-2.9.7-5.7.1-6.3-1.8-1.9-10.9 5-13.7 10.4-3.8 7.4-7.5 6.6-5.6-1.2.8-3.5 1.1-6.8.6-7.4-2-2.2-9.2 4.1-12 10.4-3 6.8-6.7 6.7-4-.1.9-2.1 1-4.4.3-5.2-2.4-2.5-7.5 2.5-10.6 10.3-2.2 5.7-3.7 7.3-5.2 5.7-1.1-1.2-1.4-3.9-.5-6.1 1.9-4.6-1.2-8.6-4.9-6.4-1.4.9-3.8 5.2-5.2 9.6-2.7 8.3-4.2 7.6-6.7-3-1.2-5.1-4.7-2.3-7.5 6.2-3 9.2-4 9.8-5.3 3.1-1.7-8.9-6.3-6.1-8.5 5.1l-2.1 10.6-4.4-7.3c-5.4-8.9-8.7-7.8-9.3 3.2-.3 4.3-.9 9.6-1.5 11.8-1.1 4.1 5.8 9.6 13.1 10.6 6.2.8 8.7-1.7 4-4.1-7-3.7-2.3-3.9 6.3-.3 10.7 4.5 14.2 2.1 6-4-4.6-3.4-5.4-4.9-2.9-5.2 1.9-.2 4.9 1.1 6.7 3 3.2 3.4 10.1 4.8 13.7 2.7 1.1-.6-.8-2.9-4.1-5.1-7.3-4.8-2.8-5.1 6.4-.4 9.3 4.7 15.7 2.5 8.6-3-3-2.3-4.6-4.6-3.6-5.2 1-.6 3 .2 4.4 1.8 1.5 1.6 6.1 3.2 10.4 3.7l7.8.9-6-5.2c-7.7-6.7-5.4-8.1 3.9-2.5 9.5 5.7 15.2 4 9.3-2.8-4.3-5-4.2-5 4.3 0 11.4 6.7 17.1 5.2 10.3-2.8-2.8-3.3-3.4-4.8-1.4-3.5 2 1.4 5.6 3.7 7.9 5.2 5.7 3.8 8.5 1.6 6.5-5l-1.6-5.5 5.1 5.2c6.1 6.2 13.9 8.9 12.3 4.3-.6-1.6-1.5-4.2-2-5.8-.5-1.6.8-1.2 2.9 1 8.2 8.2 15.6 8.6 12.9.7-1.4-4.1-1.1-4.1 3.6-.4 9.2 7.3 11.9 7.6 10.5 1.1l-1.3-6 7.2 5.4c8.7 6.5 11.7 5.4 8.6-3.1l-2.3-6.3 4.2 4.1c2.3 2.3 6.6 4.9 9.6 5.8 5.3 1.7 5.4 1.6 4.2-4.4l-1.3-6.1 4.4 4.4c2.4 2.4 6.2 4.9 8.5 5.4 3.3.8 3.8.1 2.7-3.9-1.4-4.9-1.4-4.9 4.7-1 6.7 4.3 10.6 3.6 8.4-1.5-1.1-2.5-.7-2.5 1.9-.1 4.4 4.2 9.1 3.4 8.8-1.6-.2-3.6.2-3.6 3.1-.5 2.2 2.3 4.1 2.7 5.6 1 4.1-4.7 24.6-6.2 35.8-2.6 7.3 2.8 10.1 2.9 9.5.7zM242.1 405.7c3.1-4.2.6-25.3-2.9-25.5-1.1-.1-2.8 2.3-3.9 5.3-2.1 5.9-4.1 4.9-6.4-3.2-2.1-7.6-7.1-8.1-8.1-.7l-.9 6.1-4.5-7.3c-3.5-5.7-5.2-6.9-7.7-5.4-1.7 1-2.8 4.1-2.4 6.7.6 4.1 0 3.7-3.9-2.3-5.2-8-8.8-7.7-9.5 1l-.5 5.6-2.2-4.6c-1.2-2.5-2.8-6-3.5-7.9-2.1-5-5.6-1.6-6.4 6.2l-.7 6.9-4.6-7.2c-5.1-8.1-8.8-7.8-9.3.8-.3 5.3-.4 5.3-6.3-.9-4.4-4.6-6.9-5.8-9.3-4.4-1.8 1.1-2.3 3.2-1 4.7 1.3 1.5-.8 1.3-4.7-.5-9.6-4.5-13-4.3-10.8.5 3 6.7-1.6 6.9-7.6.4-6.5-7-10.6-5.9-8.8 2.3l1.2 5.7-6-5.2c-6.7-5.8-10.8-5-9.1 1.9 1.1 4.4 1 4.4-2.8.5-4.5-4.6-8.2-3.5-7.9 2.4.2 3.3-.6 3.1-4.4-.9-4.6-4.8-9.3-4.8-7.9 0 .4 1.4-2.1 1.3-5.6-.3-3.5-1.5-6.9-1.8-7.6-.7-.7 1.2-3.4 1.5-6 .8-3.9-1.1-4.8-.7-4.8 2 0 2.6-1 2.8-4.5.9-2.5-1.3-5.5-1.2-7.2-.7-11.4 3.3-31.7 6.9-40.8 6.8-1.6 0-.9 3.2 1.6 3.2 6.8-.2 38.5 4.8 39 6.4 1 2.9-.7 2.9 4.1 2.1 3.2-.6 6.1-1.4 6.4-1.8s0 .8-.8 2.7c-1.8 4.9 3.3 5.7 10.6 1.7 3.8-2.1 4.9-2.2 2.9-.4-5.7 5.3-.8 5.9 7.7 1 7.6-4.4 8-4.4 4.9-.2-5 6.8-2.1 7.8 7 2.4 7.8-4.7 8-4.7 6.8.6-1 4.5-.5 5.2 2.8 4.3 2.2-.6 6-3.3 8.4-6.1 5.1-5.7 7.1-5.2 4.2 1.1-1.7 3.8-.8 3.6 8-1.5 7.8-4.6 9.4-5 7.5-2-1.3 2.1-1.7 4.6-.9 5.4 1.5 1.6 6.6-2 13.4-9.4 2.3-2.6 2.4-1.5.3 3.4-3.7 8.4 1.5 8.9 9.7.9 5.1-5 5.3-5 4.3-.2-1.3 6.1 4 6.2 8.1.1 4.8-7 8.3-7.8 7-1.6l-1.2 5.7 6.5-5.5 6.5-5.5-1.2 5.7-1.2 5.7 7.6-5.5c8.3-6.1 11.4-5.6 6.9 1-5.1 7.4-.5 8.1 8.7 1.2 8.2-6.1 8.4-6.2 5.8-1.1-4.4 8.3-1 9 8.6 1.9 7.3-5.5 8.2-5.8 6.5-2.2-1.1 2.3-1.2 5.1-.3 6.1 1.7 1.9 4.4 0 11.3-8 2.6-3 2.8-2.5.8 2.7l-2.5 6.5 5.4-3.3c2.6-1.7 6.4-5 8.1-7.3zM536.4 192.8c-1.7-1.8-13.8-.1-25.6 3.6-11.7 3.7-16.7 4-19.2 1.3-.9-1-4.1-.7-7.1.7s-5.4 1.5-5.4.3-2-1-4.3.4c-2.7 1.6-5 1.5-6.3-.2-1.2-1.6-4.7-1.8-8.5-.5-3.6 1.2-5.3 1.4-3.9.4 5.7-3.9-.7-4.5-7.5-.7-4 2.2-5.8 2.7-4 1 5.4-5-1.2-5.9-8.6-1.1-6.1 4-6.6 4-4.7 0 2-4.2 1.9-4.3-2.7-3.1-2.7.7-7 3.1-9.6 5.2-5.2 4.3-8.4 3.5-4.4-1.1 1.4-1.6 1.8-3.5 1-4.4-1.9-2-9.7 2.7-13.3 7.9-3.4 5-5.1 3.6-3.7-3 1-4.6.8-4.8-3.8-2-2.7 1.6-6.1 4.7-7.7 7-3.5 5.1-5.1 3.6-3.7-3.3 1.1-5.2.9-5.2-7.7 1.3-6.5 4.9-8.5 5.7-7.9 3.4 1.6-5.7-1.6-6.1-7.7-.9-4.8 4.1-5.9 4.4-5.4 1.5.9-5.6-3.4-4.3-9.2 2.7-5.1 6.2-5.4 6.3-5.4 2.1-.1-6.4-3.8-5.6-9.1 2-4.6 6.5-4.6 6.6-5.1 1.9-.6-6.2-3.7-6.2-8.6.1-5.3 6.8-6.6 7.4-5.8 2.6 1-6.2-4-4.9-8.5 2.1-3.6 5.7-8.6 7-5.2 1.4 2-3.4-.9-5.3-4.7-3.1-1.9 1.1-4.3 5.3-5.4 9.2-2.3 8.2-5.2 9.3-5.9 2.2-.3-2.6-1.5-4.9-2.7-4.9-3.4-.2-6.4 6.2-8 16.8-1.2 8.2-.6 9.7 4.6 11.7 7.2 2.7 12.7.4 7.1-3-6.8-4.1-.7-4.7 7.1-.7 8.4 4.3 13 3.1 8.4-2.1-2.5-2.8-1.6-2.9 5.4-.3l8.5 3.1-3-4.6c-4-6.2-1-7.5 6.9-3.1 8.1 4.5 16.2 2.9 8.6-1.7-3-1.8-4.2-3.7-2.9-4.4 1.2-.7 3.4-.2 4.7 1.3 2.7 2.8 12.2 5 14.9 3.4.9-.5-.4-2.4-2.9-4.1s-3.7-3.7-2.6-4.3c1-.6 2.8-.2 3.8 1 1.1 1.2 5.5 2.5 9.8 3l7.8.9-5.7-4.2c-7.4-5.4-4.4-7.3 4.2-2.6 8 4.3 14.5 3 9.9-2.1-2.6-2.9-1.3-2.9 6.5 0 9.6 3.5 9.7 3.5 5.8-1-4.9-5.7.8-5.8 7.5-.1 6.4 5.3 12.6 3.4 7.7-2.5-3.6-4.3-3.5-4.3 2.7-.4 7.7 4.8 14.6 5.7 13.1 1.7-.5-1.5-1.4-4-2-5.7-.5-1.6.8-1.2 2.9 1 7.8 7.9 18.6 8.8 11.4 1-5.1-5.5-.3-7 5.7-1.8 6.1 5.2 12.3 4.2 9.1-1.6-2.1-3.9-2.1-3.9 1.6-.4 2.1 2 6.5 4.1 9.8 4.7 5.6 1 5.7.8 2-3.7l-4-4.7 7.5 3.6c9 4.3 15 3.2 10.8-2-2.8-3.6-2.8-3.6 1-1 2.2 1.5 6.1 2.7 8.8 2.7 3.9-.1 4.3-.6 2.3-3-2.1-2.4-1.6-2.6 3.7-1 4.2 1.3 6 1 5.4-.7-.6-1.7.6-2.8 3.5-3.1 2.4-.3 5.5-1 6.9-1.6 1.3-.6 5.8-2.4 9.8-4.1 4-1.7 12.9-4.9 19.8-7.1 6.9-2.2 12-4.5 11.4-5.2zM245.3 360.4c1.1-1.3 1-3.5-.1-4.7-1.2-1.3-1.5-5.8-.8-10.1s-.2-9.4-2.1-11.4c-4.2-4.5-5-4.1-7 3.8-1.5 5.7-1.7 5.9-2.7 2.2-1.7-6.5-6.5-13.7-8.4-12.6-.9.6-2.5 3.2-3.4 5.8-1.6 4.5-1.9 4.4-5.9-1.8l-4.2-6.5-1.3 6.4c-1.4 7.3-5 8.3-5.7 1.7-1-9.7-9.2-11.1-10.4-1.8-.5 3.9-1.3 3.4-6.1-4l-5.5-8.4-2.6 7.4c-2.3 6.5-2.8 6.9-3.7 3.4-3.2-12.3-9.5-14.9-10.2-4-.4 6.9-3.8 6.7-5.8-.3-2.8-10.1-6.2-11.2-7.9-2.6l-1.6 7.8-4.2-7.1c-4.8-8.2-10.7-8.9-11.8-1.5-.7 4.5-.8 4.5-3.1.3-1.3-2.5-4-4.9-6.1-5.4-4.5-1.1-7.6 3.1-4.6 6.3 1.2 1.2.7 2.4-1 2.6-1.7.2-3.9-1.6-5-3.9-2.6-5.6-8.8-4.8-9.5 1.2-.4 4.2-.9 4.2-5.8-1-6-6.4-9.3-5.8-8.4 1.5.6 4.5.3 4.4-2.6-.6-3.8-6.7-10.4-6.7-10.9 0-.3 4.2-.8 4.1-4.8-.3-4.5-4.9-11.4-3.9-10 1.4.4 1.4-.8 1.1-2.6-.7-4-3.9-10-3.5-10 .7 0 2.2-1.4 2.2-5.2-.1-5.9-3.6-10.4-2.3-6.9 1.9 1.8 2.1 1.1 2.3-3.3.7-3.1-1.1-6.6-.9-7.8.5-1.2 1.4-2.8 1.9-3.5 1.1-.7-.8-2.4-.1-3.8 1.4-1.4 1.6-3.2 2-4.1 1.1-.9-1-2.2-.8-2.9.3-.7 1.1-2.5 1.8-4 1.4-3.4-.9-9.6 2.6-7.9 4.4.7.7 6 1.7 11.8 2.2s10.4 1.6 10.1 2.4c-.2.8 2 .2 5-1.5 3.8-2.1 4.5-2.1 2.3 0-5.2 4.8-1.1 6.1 6 1.9 7.5-4.5 10.9-2.9 5.7 2.5-5.5 5.6 1.2 5.6 8 0 4.9-4.1 5.6-4.3 3.7-1-3.1 5.3 1.3 6.2 8.8 1.8 5.1-3 5.6-3 3.5.4-3.9 6.1 2.4 5.9 10.4-.3 7-5.5 7.1-5.5 4.5-.3-4 8.1-.9 9.1 8.3 2.6 9.1-6.4 12.7-6.2 5.5.4-8.4 7.7-2.2 8.2 7.7.6l9.2-7-2.5 6c-3.3 7.9.6 7.8 8.9-.2l6.7-6.4-1.5 6.2c-1.8 7.5 1.3 8.3 7.1 1.7 5.4-6.1 8.2-5.9 6.9.4-1.7 7.7.5 7.9 9.6.9 8.2-6.3 8.4-6.3 5.8-1.1-4.1 8.2-.9 9.2 8.1 2.4 8.5-6.4 12.9-6.3 6.2.2-3.8 3.6-3.7 3.8 1.4 3.1 3-.4 6.5-2 7.8-3.5s2.9-2.1 3.6-1.4c.7.7-.3 3-2.2 4.9-5.8 6-1.6 6.5 8.7 1.2l9.8-5-4.7 5.8c-3.6 4.4-3.7 5.7-.5 5.3 2.3-.3 5.2-1.7 6.4-3s4.4-3.1 7-3.8c4.1-1.1 4.2-.4.8 4.6-5.6 8.1-.2 8.7 9.9 1l8.3-6.3-5.1 6.6c-6.8 8.7-1.6 9.8 9 1.8 8.1-6.1 8.2-6.1 2.5-.4-3.2 3.3-4.7 6.5-3.3 7.2 2.5 1.5 16.5-5.1 20-9.4zM247.2 311c.2-1.8-.3-5.1-1.1-7.4s-.1-5.7 1.6-7.5c3.3-3.4 3-9.7-.5-9.9-1.1-.1-3.8 2.8-6 6.4-4.8 7.7-6.2 7.1-5-2.1 1-8.1-4.1-7.5-7.2.7l-2.1 5.6-.3-8.3c-.4-13.8-6.6-15-10.8-2.1l-2.1 6.5-1.3-8c-1.7-10-5.5-10.4-8.7-1.1-2.2 6.3-2.6 6.7-3.5 3.1-1.8-7.2-6.6-13.7-8.9-12.2-1.3.8-2.9 3.4-3.6 5.9-1.8 6.5-4.9 5.4-7.3-2.7-2.7-8.8-7.3-9.4-8.4-1.1l-.8 6.3-1.9-7.5c-2.2-8.8-7.3-9.6-10.1-1.6-1.7 5-1.9 5-6.9-.3-5.7-6.1-7.6-6-8.5.6-.5 3.9-1 3.7-4.4-2-4.2-7.1-6.4-7-9 .4-1.6 4.7-1.9 4.6-7-.9-5.2-5.7-5.3-5.7-7.2-.4-1.8 5.2-1.9 5.3-6.3.6-5-5.4-7-5.1-7.7 1.3-.4 4-.8 4-4.3.4-4.4-4.6-10.6-4.7-10.6-.1 0 2.3-1.6 2.4-6.2.3-5.2-2.4-6.6-2.2-7.8.9-1.2 3.1-1.9 3.4-3.6 1.5-1.2-1.2-4.2-2.2-6.7-2.2-3.6.1-4.4.9-3.7 3.7.8 3.2.4 3.4-4.1 1.4-5.4-2.4-10.7-.8-7.8 2.3 1.1 1.3.3 1.6-2.5.9-2.3-.6-5.3-.5-6.6.1-1.3.6-2.8 1.2-3.3 1.2s-2.5.7-4.6 1.5-7.7 2.5-12.6 3.7-9 3.1-9.3 4.1c-.6 2.3 28 3.8 31.6 1.7 1.7-1 1.9-.3.7 1.9-1.5 2.6-.4 2.5 4.7-.5 4.6-2.7 6.1-2.9 4.8-.8-2.1 3.6 2.9 5.5 7.4 2.8 2-1.2 3.4-.6 4 1.5.8 2.9 2 2.5 9.7-3.4 8.7-6.7 8.7-6.7 6.2-1.1-3.2 7.3 0 7.4 9.4.5 6.7-4.9 7.1-5 4.1-.7-5 7.2-1.9 7.9 8.4 1.8 7.4-4.4 8.9-4.7 6.9-1.7-4.1 6.5 0 7.4 7.8 1.7 7.1-5.2 7.2-5.2 4.7.1-3.1 6.6 2.4 6.6 9.7 0 4.7-4.3 4.9-4.3 3.8.6-1.7 7.7.4 8.1 8.5 1.7l7.4-5.8-2.7 5.9c-2.7 5.9-2.6 5.9 2.8 4.2 3-.9 7.9-3.8 10.9-6.3l5.4-4.6-4.1 6.6-4.1 6.6 10.6-5.1c8.8-4.2 10-4.4 6.8-.9-5.7 6.2-2.5 7.3 7.4 2.5 7.6-3.7 8.3-3.7 4.9-.2-5.4 5.8-3 7.1 6.5 3.4l8.1-3.1-4.9 5.2c-5.8 6.1-.4 6.5 9.5.7 3.3-2 6.7-2.9 7.4-2.1.8.8-.6 2.7-3 4.1-9.7 5.8 1.2 6.1 11.6.3 4.2-2.4 4.3-2.1.2 2.4-6.8 7.5-3.4 8.7 7.3 2.4 8.4-4.9 9-5 6-.9-1.9 2.5-2.9 5.2-2.2 5.9 2.1 2.1 14-5.7 14.5-9.3zM492.3 156.1c-1.7-1.9-23.7-.3-27.5 2.1-1.4.9-4.5.6-6.8-.6s-5.6-1.3-7.3-.3c-1.7 1-3.6.9-4.2-.2-.6-1.1-4-1.1-7.6.1s-5.3 1.4-3.9.4c5.2-3.6-.3-4.7-6.1-1.3-4.6 2.7-5.7 2.8-5 .1 1.6-5.6-.9-6-8.3-1.6-6.6 4-6.9 3.9-4.8-.6 2.1-4.4 1.6-4.4-6.5.4-6.8 4-8.5 4.4-7.7 1.7 1.7-5.9-1.4-6.3-7.6-1.1-5 4.2-5.9 4.4-5.4 1.4.8-4.7-4.5-4.3-9.5.9-3.1 3.2-3.9 3.1-5.1-.3-1.7-4.5-4.8-3.5-9.4 3.2-2.6 3.8-3.1 3.8-4.4.3-1.8-5-6.2-2.8-10.2 5-2.7 5.3-2.8 5.4-3.3.8-.4-3.9-1.1-4.3-3.9-2.7-1.9 1.1-5 4.8-6.9 8.2l-3.5 6.2v-6.5c0-5.7-.4-6.2-3.4-4.4-1.9 1.1-4.7 3.9-6.2 6.1-2.2 3.3-2.9 3.5-3.6 1-1.2-4.4-5.4-1.2-7.3 5.5-1.8 6.2-2.9 6.1-3.6-.3-.6-5.9-5.7-2.7-9.5 6l-2.9 6.6-1-5.5c-1.5-8.1-5.5-6.9-8.5 2.7-3.4 10.7-1.7 17.3 4.8 19.4 6.2 2 10-.1 6.8-3.6-1.6-1.8.5-1.9 6.4-.3 10.8 2.8 13.3 1.8 6.7-2.8-4.6-3.2-4.6-3.4.8-2.4 3.2.6 6.3 1.6 6.9 2.3s2.5.4 4.2-.6c2-1.2 1.7-2.8-1-4.7-3.8-2.7-3.8-2.7.8-1 2.7 1 7.5 1.8 10.8 1.8 5.5-.1 5.5-.4.5-3.9s-5-3.7.4-2.7c3.2.6 6.3 1.6 6.9 2.3s2.1.6 3.3-.1c1.2-.7 1.2-2.4 0-3.7-1.5-1.6.7-2 7.1-1.3l9.3 1-4-4.6-4-4.6 7.6 3.1c8.7 3.5 14.9 1.6 8.1-2.5-2.7-1.6-1.1-1.6 3.8.1 9.1 3 13 2.1 9.6-2.2-1.2-1.5.3-1.2 3.3.8 6.8 4.5 13.3 3 9-2.1-2.7-3.1-2.1-3.2 3.9-.4 9.4 4.4 13 4.3 9.1-.2-2.7-3-1.6-3 5.8.1 7.6 3.2 8.8 3.2 7.8 0-1-3.1-.1-3.1 4.9.2 6.5 4.2 11.7 3.4 7.9-1.2-1.2-1.5.8-1 4.6 1.1 6.2 3.5 6.8 3.4 7.2-.5.3-4 .7-4.2 4.9-1.6 3.6 2.2 4.8 2 6-.9.8-2 2.5-3.5 3.9-3.4 1.4.1 3.8-.5 5.4-1.2 4-1.8 24.2-8.8 29-10.1 2.1-.8 3.2-2 2.4-2.9zM251 263.4c1.5-2.8 1.8-6 .8-7.1s-1-4.4.1-7.3c1.7-4.9-.3-10.4-3.1-8.7-.6.4-2.6 3.2-4.3 6.4-3.8 6.9-5.4 5.8-4.3-2.9 1.3-10.1-5.9-14.3-7.5-4.4-1.1 7-4.4 6.3-5.6-1.3-1.4-8.8-5.3-9.9-7.9-2.3-1 3-2.5 4.6-3.4 3.7s-.9-2.7-.2-3.9c.7-1.2-.2-3.9-2.1-5.9-4-4.3-9.9-1.8-9.5 4 .5 6-4 4.4-5.1-1.9-1.4-7.3-5.2-7.3-7.9-.1-2.1 5.7-2.1 5.7-3.2 1.7-2.1-8-3.8-10.6-6-9.3-1.2.7-1.8 2.8-1.3 4.7.6 2.3-.2 3.3-2.8 3.1s-4-2.3-4.6-7.3c-1.1-9.3-7.1-9.9-9.5-1-.9 3.6-2.1 5.2-2.7 3.6-3.5-10.7-4.2-11.5-7.5-9.6-1.8 1.1-3.3 3-3.3 4.3.1 4.5-4.2 5-4.7.6-.2-2.4-1.4-5.3-2.6-6.6-2.8-3-9.2.7-8.1 4.7 1.6 5.7-2.8 5.2-6.4-.8-4-6.6-6.8-6.5-7.5.4-.4 3.9-1.2 3.6-6.5-2-6.5-7-8.6-7-9.3-.3-.4 3.9-1.1 3.7-6.2-1.6l-5.7-6-.8 6.3c-.8 6.2-.9 6.3-3.9 3.1-4.1-4.3-9.7-6.7-12.1-5.3-1.1.6-1 2.2.1 3.4 3.1 3.3-1.1 5-5.7 2.2-4.2-2.5-9.8-.7-7.1 2.3.9 1-1 1.4-4.3.8-4.6-.8-6-.3-6 2.1-.1 2.5-1.1 2.9-5.2 2.4-2.8-.4-5.1.3-5.2 1.4 0 1.2-6.4 4.6-15 8-8.2 3.3-17.2 7.2-19.9 8.8-8.2 4.7-3.1 6 6.8 1.8 5-2.1 10.6-3.9 12.4-4s5.5-1.1 8.1-2.2c2.7-1.2 7.7-1.8 11.2-1.5 3.9.3 7.5-.7 9.1-2.6 2.3-2.6 2.7-2.5 2.1.8-.5 3.4.3 3.4 5.5.3 4.8-2.9 6-2.9 5.2-.3-1.7 5.9 1.4 6.3 7.9 1 4.9-4 5.7-4.3 3.8-1.3-3.4 5.4 1.4 6 9.4 1.2 5.4-3.2 6.6-3.3 6.1-.5-.7 4.4 2.6 4.6 10 .5 3.8-2.1 4.7-2.2 2.6-.2-6.5 6.1 2 6.4 12.6.4 4.8-2.7 4.8-2.7 1.4 1.9-4.7 6.3-.6 7.7 9.5 3.4 5.3-2.3 6.6-2.4 3.6-.4-9.5 6.3.5 6.9 11.2.7 4.7-2.8 4.8-2.7 2.5 2.1-1.9 4.2-1.6 4.8 2.3 4.4 2.5-.3 7.1-2 10.1-3.7l5.5-3.2-3.2 4.9c-3.9 5.9-.5 6.5 8 1.5 3.4-2 6.8-3 7.6-2.2.8.8-1.1 3-4.2 4.9-3.2 1.9-4.4 3.7-2.9 4 1.5.4 5.1-.7 8-2.4 7-4.2 11.1-2.8 6 2-3.4 3.2-3.3 3.8.6 3.4 2.6-.3 7.7-2.2 11.4-4.3l6.7-3.8-5.6 6.1c-6.6 7.2-3.3 8.2 6.9 2.1 4-2.4 7.9-3.7 8.7-2.9.8.8-1.1 3-4.1 4.8-7.4 4.4-4.4 6.9 4.1 3.6 10.4-4.1 12.6-4.5 8.5-1.9-6.2 4-1.6 5.5 7.4 2.5 6.2-2.1 7.2-2.1 3.8.2-4.8 3.1-6.3 7.6-2.3 7 8.4-1.3 16.3-5.9 18.7-10.5zM445.4 109.1c-1.3-1.4-26 3.4-30.2 6-1.8 1.1-4.2.9-5.4-.4-1.6-1.7-3.2-1.3-5.7 1.2-2.1 2.2-4.1 2.9-5.1 1.8-1-1.1-3.3-.3-6.2 2.4-3.6 3.3-4.7 3.5-5.4 1.1-1-3.7-2.7-2.8-6.9 3.3-2.9 4.3-3.1 4.3-2.4-.1.7-4.4.3-4.4-5.5.1-4.6 3.5-6.4 4.1-7 2.2-.9-3.2-4.8-1.1-9.1 5-2.7 3.8-3.1 3.9-2.3.9 1.5-6-1.4-6.7-7.3-1.7-3.5 3-6.6 4.3-8.2 3.5-2-1-3.4-.1-5.8 3.8-2.7 4.4-3.2 4.6-4 1.9-1.4-4.9-6.9-3-9 3.1-1.9 5.4-2 5.4-3.6 1.2-1.6-4.3-6.1-3.9-6 .6.1 4.3-3.7 4.6-5.5.4-1.8-4-1.9-4-5.1 1.8-3.1 5.7-3.3 5.8-4.9 2.3-2.2-5-6.3-2-8.6 6.3-2.2 7.7 3.8 16.9 7.9 12.2 1.5-1.7 4-1.9 6.5-.6 5.1 2.7 9 .6 5.9-3-1.8-2.2-1.2-2.3 3.2-.8 6 2.1 10.2.9 7.5-2.2-.9-1.1.4-1.3 3-.6 2.6.7 5.6.8 6.8.1 1.1-.7 1-2.5-.2-4-1.8-2.2-1.3-2.3 2.6-.6 6.4 2.8 12.1 2 9.1-1.2-1.9-2-.8-2.3 5.3-1.5 6 .8 7.6.3 7.7-2.2.1-2.4 1-2.6 4.2-.7 5 3 9.8.6 6.6-3.2-1.9-2.2-1.3-2.4 3.1-.8 6.9 2.5 13.7.8 10.5-2.6-1.8-2-.7-2.2 4.8-1.1l7.2 1.5-1.9-4.6-1.9-4.6 4.7 2.5c5.5 2.9 11.8.1 8.4-3.9-1.8-2.1-1.1-2.2 2.8-.5 6 2.6 10.7.6 7.3-3-2.1-2.2-1.6-2.4 3.6-1.6 5.2.9 6 .5 6.1-2.6.1-2 .8-2.9 1.6-2 .8.9 7.4-1.8 14.8-6.1 7.1-4.4 12.6-8.4 12-9zM258.4 221.1c.6-1.3 1-4.4.8-6.9s-.4-6.8-.5-9.6c-.1-6.1-4.4-7-6.6-1.5-1.4 3.5-1.8 3.1-3.3-3.4-1-4.2-2.9-7.2-4.5-7-1.5.2-2.8 1.4-2.8 2.7.1 4.5-4.2 5.1-4.7.6-.6-6.1-3.3-8.3-6.1-5.1-1.9 2.2-3 1.7-5.3-2.5-3-5.5-6.1-5.2-8.1.8-1 3-1.4 2.9-2.3-.4-3.3-12.1-7.2-14.2-10.3-5.3-1.5 4.5-1.8 4.4-4.2-2.2-3.2-8.5-6.7-9-9.4-1.4-2.1 5.7-2.1 5.7-3.2 1.7-2.9-11-6.5-12.9-8.8-4.7-.8 2.8-1.9 2.1-5.4-3.8-4.8-7.9-7-8-9.6-.4-1.6 4.5-1.9 4.4-5.4-1.5-4.1-6.7-8.7-6.4-8.3.6.2 3.3-.6 3.1-4.5-1.1-3.6-3.8-5.3-4.4-7.2-2.3-1.9 2.2-3 1.7-5.3-2.5-3.2-6-8.1-4.7-8.8 2.4-.4 4-.6 4-2.3.2-1-2.3-3.6-4.9-5.6-5.8-3.4-1.5-3.8-1.2-4.2 3.1-.5 4.5-.7 4.6-4.2.9-4.6-4.9-8-5.1-9.8-.7-1.1 2.7-2.1 2.7-4.5.1-2.2-2.4-3.8-2.5-5.7-.5-1.5 1.7-4 2.3-5.9 1.4-1.8-.8-4.3-.7-5.5.3-1.2 1-10.8 3.5-21.4 5.6-12.2 2.4-21.3 5.4-24.8 8.1-5.6 4.2-5.6 4.2 5.6 1.7 12.7-2.9 40.4-1.6 41.6 1.9.4 1.3 2.3 1.4 4.3.2s4.1-1.4 4.9-.6c.8.8.4 2.1-.9 2.9-1.3.8-1 1.7.7 2.2 1.7.4 5.4-1.2 8.6-3.9 3.4-2.9 5.6-3.8 5.6-2.4 0 1.3-1.4 3.1-3.1 4.2-6.3 3.7-.4 4.5 9 1.2 6.9-2.4 8.2-2.5 4.6-.2-6.9 4.5-1.4 6.6 7.5 2.9 6.9-2.9 7-2.9 2.9 1-6.1 5.8.2 6.4 9.8.8 7.5-4.3 7.9-4.3 4.8-.1-5.9 8-.5 8.3 10.7.5 2-1.4 4.2-1.8 5-1s-.1 2.4-1.9 3.5c-7.4 4.4.2 4.6 7.8.2 7.6-4.4 8-4.4 4.9-.2-4.7 6.4-2.3 7.9 5.4 3.3 7.8-4.6 12.9-4 8 1.1-5.7 5.9-1.6 6.8 7.4 1.6l8.3-4.8-4.7 5.9c-4.3 5.4-4.2 5.8.6 4.4 12.8-3.8 13.6-3.8 9-.1-5.6 4.5-1.7 6.8 6.6 3.9 4.5-1.5 5.2-1.4 2.4.4-5.4 3.5.2 5.8 6.8 2.8 5.1-2.3 5.3-2.2 3.3 2-2 4.1-1.4 4.3 7.7 2.2 9.6-2.2 9.7-2.2 3.8 1.4-8 4.9-5 7.5 4.4 3.7 8.8-3.6 14.2-3 7.7.9-6.3 3.8-3 6.2 5.3 3.9 8.2-2.1 11.7-4 13.3-7.3zM398.3 102.2c-.7-.7-6.3-.2-12.5 1.2s-12.2 1.5-13.3.3c-1.2-1.3-3-1.1-4.5.6-1.4 1.6-3.1 2.2-3.8 1.4-.7-.8-2.8-.6-4.6.5s-4 1.2-4.8.3c-.9-1-3-.1-5.2 2.2-2.7 2.8-3.7 3-3.8.9 0-2.1-1.1-1.9-4 .7-2.7 2.5-4.6 3-6 1.4-1.5-1.6-3.1-1.1-5.8 1.6-2.7 2.8-3.7 3-3.8.9 0-2.1-1.1-1.9-4 .7-2.2 2-4.6 3-5.3 2.1-.8-.8-2.5-.3-3.9 1.3s-3.1 2.1-3.9 1.3c-.8-.9-3 0-4.9 2-2 2.1-4.1 2.9-5 2-2.5-2.7-7.9 2-7.5 6.5.6 6.1 4.3 9.3 8.1 7 1.8-1.1 4-1.2 4.8-.3.9.9 2.6.5 3.9-1 1.3-1.5 4-1.9 5.9-1.1 2.7 1.2 3.8.8 4.5-1.6.7-2.4 2.2-3 6.1-2.3 4.9.8 5.1.7 2.6-2.2-1.6-1.8-1.4-2.8.4-2.4 1.7.4 5.6.1 8.7-.7 3.1-.7 6.2-1.5 7-1.7.8-.2 4.1-1.1 7.4-2.2 3.3-1 6.4-1.3 7-.7.6.6 4.1-.9 7.9-3.4 3.7-2.5 8.7-5 11.1-5.5 7.5-1.4 22.5-8.4 21.2-9.8zM266.8 174c1.9-11.4.8-13.9-4.2-9.3-3.2 3-3.6 2.7-4.5-2.1-.8-4.2-1.8-5.2-4.3-4.4-2.1.6-4.1-.7-5.5-3.8-1.8-3.9-2.7-4.2-5-1.6s-2.8 2.4-3.2-1.1c-.6-6-3.3-8.2-6.1-5-1.9 2.2-3 1.6-5.4-2.7-2.8-5.1-3.1-5.2-6-.9-2.9 4.2-3.2 4.2-6.1-1.2-2.6-4.7-3.5-5.2-5.7-2.6s-3.2 2.2-5.7-2.5-3.4-5-5.7-2.4c-2.2 2.5-3.6 2.2-7.1-1.5-3.7-4-4.5-4.1-5.9-.8-1.3 3.3-2.2 3.1-6.1-1.1-4.5-4.9-4.6-4.8-6.4.4-1.8 5.2-1.9 5.3-5.6 1.3-2-2.2-4.7-3.4-5.9-2.7-1.2.7-3.1.3-4.3-1-1.2-1.3-4-1.1-6.5.4-2.9 1.7-5.3 1.6-7.1-.4-1.9-2-3.5-2.1-5.2-.1-1.6 1.8-3.3 1.9-4.7.4-1.2-1.3-3.2-1.9-4.3-1.2-2.3 1.4-9.1 1.2-20.6-.6-9.5-1.5-28.7 2.6-26 5.6 1 1 6 1.5 11.1 1s10-.2 10.8.7c.8.9 4.7 1.9 8.6 2.2 3.9.3 6.9 1.3 6.7 2.2-.3.9 1.6 1.1 4.1.4 3.5-.9 4.4-.4 4 2.3-.5 2.8.8 3.2 5.9 1.9 3.6-.9 5.3-.9 3.8.1-4.8 3.1 0 4.8 5.1 1.8 4-2.4 4.6-2.3 3 .5-1.7 3.1-1.4 3.4 2.7 3 2.6-.3 6.7-1.6 9.1-3 4.1-2.4 4.3-2.3 2 1.3-3 4.8 1.1 6.1 7.5 2.3 3.6-2.1 4.4-2.1 3 .3-2.4 4.2 3.2 5.3 9.2 1.9 4.4-2.5 4.6-2.4 2.4 1-3.6 5.7-.6 7.2 6.3 3.1 5.9-3.4 6-3.4 3.8 1.3-2.2 4.8-2.2 4.8 3.5 2.8 6.8-2.4 9.2-.7 4.7 3.3-2.4 2.2-.7 2.4 6.7.8 5.6-1.2 8.3-1.1 6.1.2-5.3 3.3-2.7 5.2 5 3.6 5.1-1 5.7-.8 2.7 1.1-6 3.9-1.5 5.7 8.1 3.4 8.7-2.1 8.8-2.1 4.1 1.6l-4.9 3.8 8.9-1.4c5.8-.9 7.7-.6 5.3.9-6.8 4.2-3.6 6.8 5.7 4.7 6-1.4 7.9-1.3 5.3.4-5.1 3.3 0 5.9 6.1 3.1 3.4-1.1 5.6-5.3 6.7-11.7zM272.8 139.5c.6-8.8-1.8-11.9-5.8-7.4-2.3 2.6-2.7 2.6-1.9-.2 1.4-5-2.4-8.4-5.4-5-2.8 3.1-5.8 1.4-3.7-2.2 2.1-3.6-1.3-5.7-4.1-2.6-2 2.2-3 1.9-4.6-1.7-1.3-2.9-3-4-4.7-3-1.6.9-3.1 0-4-2.3-1-2.8-2.4-3.3-5-1.7-2.6 1.5-4 1.1-5-1.7s-2.4-3.3-4.9-1.8c-2.8 1.7-3.6 1.2-3.9-2.2-.6-6.2-1.9-6.8-6-2.9-2.9 2.7-4.3 2.7-7.2-.4-2.4-2.6-4.2-3-5.8-1.2-1.4 1.6-3.9 1.7-6.3.3-2.2-1.3-4.6-1.3-5.4 0-.8 1.3-2.4 1.3-3.6 0s-3.1-1.8-4.3-1.1c-1.2.7-9.3 0-18.1-1.6-15.6-2.8-32.3-2.7-33.1.3-.2.8 5 2.3 11.6 3.2 13 1.9 35.4 11 34.6 13.9-.3 1 1.9.9 4.9-.1 3.1-1.1 5.8-.8 6.2.7.4 1.5 3.8 1.7 8.3.5 4.2-1.2 6.4-1.3 5-.4-3.9 2.6-.4 5.1 3.7 2.7 2.8-1.7 3.4-1.4 3 1.6-.5 2.9.5 3.3 5.2 1.9 4.6-1.4 5.4-1.2 4.1 1.5-1 1.9-.5 3 1.1 2.6 1.5-.4 4.9-.9 7.5-1.1 4.1-.4 4.4-.1 2.7 2.9-1.6 2.8-.8 3 4.5 1.6 6-1.7 6.2-1.5 3.3 1.8-2.9 3.4-2.6 3.5 4.3 2.5 4.1-.6 6.2-.4 4.7.5-4.4 2.8-.2 4.9 6.4 3.2 5.1-1.3 5.5-1.1 2.3.9-5.5 3.5 0 5.6 7.4 2.8l6.1-2.3-4.3 4c-2.4 2.3-3 4.3-1.3 4.8 5.3 1.3 11-4.2 11.5-11.3zM363.1 88.1c8.2-5.7 13.2-12.8 6.5-9.3-12 6.2-17.6 8.4-19.5 7.4-1.2-.6-3.2.2-4.5 1.7-1.3 1.5-3 2.1-3.7 1.3-.7-.8-4.2.5-7.6 2.8s-6.9 3.6-7.6 2.8-2.2-.4-3.4.9c-1.2 1.3-6.3 3.6-11.4 5.1-11.7 3.5-16.1 7.3-14.3 12.3 1.7 4.8 3.6 4.9 11 1 3.2-1.7 6.2-2.8 6.6-2.3.4.4 2.6-.1 4.8-1.2 20.2-10.3 31.4-15.7 32.9-16.1 1.1-.5 5.7-3.3 10.2-6.4zM279.3 109.3c-.4-3.6-1.4-4.6-4.2-4.2-2.1.3-3.8-.7-3.8-2.1s-1.1-2-2.3-1.2c-1.2.7-2.6 0-3.1-1.7s-2-2.3-3.5-1.4c-1.5.9-3 .4-3.4-1s-3.3-3.1-6.4-3.7c-3.1-.6-6.5-1.9-7.5-3-1.7-1.9-6.4-2.7-29.3-5.3-10.6-1.2-14.7 1.5-6.3 4.1 2.7.9 7 3.2 9.5 5.2 2.6 2 6.6 3.4 9 3.1 2.4-.3 4.1-.1 3.8.5-.5.9 7.4 5.7 11.2 6.9.7.2 3.4 1.5 6 2.8s5.6 1.9 6.6 1.3c1-.6 2.2.2 2.7 1.9s2 2.3 3.5 1.4c1.5-.9 3-.2 3.5 1.4.5 1.7 3.2 2.6 6.4 2 7.8-1.3 8.1-1.7 7.6-7z"/></g></svg>