<?xml version="1.0" encoding="utf-8"?>
<!-- Generator: Adobe Illustrator 18.0.0, SVG Export Plug-In . SVG Version: 6.00 Build 0)  -->
<!DOCTYPE svg PUBLIC "-//W3C//DTD SVG 1.1//EN" "http://www.w3.org/Graphics/SVG/1.1/DTD/svg11.dtd">
<svg version="1.1"
	 id="svg2" xmlns:dc="http://purl.org/dc/elements/1.1/" xmlns:cc="http://creativecommons.org/ns#" xmlns:rdf="http://www.w3.org/1999/02/22-rdf-syntax-ns#" xmlns:svg="http://www.w3.org/2000/svg" xmlns:sodipodi="http://sodipodi.sourceforge.net/DTD/sodipodi-0.dtd" xmlns:inkscape="http://www.inkscape.org/namespaces/inkscape" inkscape:version="0.46" sodipodi:version="0.32" sodipodi:docname="paisaje.svg" inkscape:export-xdpi="90" inkscape:export-ydpi="90" inkscape:export-filename="/home/roger/curro/dimitri/photo_player/paisaje.png" inkscape:output_extension="org.inkscape.output.svg.inkscape"
	 xmlns="http://www.w3.org/2000/svg" xmlns:xlink="http://www.w3.org/1999/xlink" x="0px" y="0px" viewBox="0 0 753 199.3"
	 enable-background="new 0 0 753 199.3" xml:space="preserve">
<pattern  x="339" y="137" width="30.1" height="5.2" patternUnits="userSpaceOnUse" id="Wavywhite" viewBox="0 -5.2 30.1 5.2" overflow="visible">
	<g>
		<polygon fill="none" points="0,0 30.1,0 30.1,-5.2 0,-5.2 		"/>
		<path id="path4647_1_" fill="#FFFFFF" d="M7.6-0.1C5.1,0.2,2.7-0.3,0-1.8v-1.3c2.8,1.6,5.2,2,7.5,1.8c2.3-0.2,4.5-1.1,6.8-1.9
			c4.6-1.7,9.6-3.5,15.8,0.2l0,1.3c-6.4-3.7-10.8-2-15.4-0.3C12.4-1.2,10.1-0.3,7.6-0.1z"/>
	</g>
</pattern>
<pattern  x="339" y="137" width="753" height="199.3" patternUnits="userSpaceOnUse" id="pattern5217" viewBox="0 -199.3 753 199.3" overflow="visible">
	<g>
		<polygon fill="none" points="0,0 753,0 753,-199.3 0,-199.3 		"/>
	</g>
</pattern>
<pattern  x="339" y="137" width="753" height="199.3" patternUnits="userSpaceOnUse" id="pattern5531" viewBox="0 -199.3 753 199.3" overflow="visible">
	<g>
		<polygon fill="none" points="0,0 753,0 753,-199.3 0,-199.3 		"/>
	</g>
</pattern>
<defs>
	
	
		<inkscape:perspective  id="perspective10" inkscape:vp_z="744.09448 : 526.18109 : 1" inkscape:vp_y="0 : 1000 : 0" inkscape:vp_x="0 : 526.18109 : 1" sodipodi:type="inkscape:persp3d" inkscape:persp3d-origin="372.04724 : 350.78739 : 1">
		</inkscape:perspective>
	
		<inkscape:perspective  id="perspective2453" inkscape:vp_z="744.09448 : 526.18109 : 1" inkscape:vp_y="0 : 1000 : 0" inkscape:vp_x="0 : 526.18109 : 1" sodipodi:type="inkscape:persp3d" inkscape:persp3d-origin="372.04724 : 350.78739 : 1">
		</inkscape:perspective>
</defs>
<sodipodi:namedview  showguides="true" showgrid="false" inkscape:cy="71.006691" inkscape:cx="488.78636" inkscape:zoom="0.5" borderopacity="1.0" bordercolor="#666666" pagecolor="#ffffff" id="base" inkscape:guide-bbox="true" inkscape:window-y="38" inkscape:window-x="0" inkscape:window-height="915" inkscape:window-width="1272" inkscape:current-layer="layer1" inkscape:document-units="px" inkscape:pageshadow="2" inkscape:pageopacity="0.0">
	<sodipodi:guide  position="-124.45079,223.44574" orientation="1,0" id="guide3239"></sodipodi:guide>
	<sodipodi:guide  position="12.727922,144.24978" orientation="0,1" id="guide3241"></sodipodi:guide>
</sodipodi:namedview>
<g id="layer1" transform="translate(0.4289322,-1)" inkscape:label="Capa 1" inkscape:groupmode="layer">
	
		<linearGradient id="rect3250_1_" gradientUnits="userSpaceOnUse" x1="364.065" y1="329.0665" x2="375.065" y2="87.0665" gradientTransform="matrix(0.9967 0 0 -0.7426 3.5337 166.9604)">
		<stop  offset="0" style="stop-color:#729FCF"/>
		<stop  offset="1" style="stop-color:#E4EAED"/>
	</linearGradient>
	<path id="rect3250" fill="url(#rect3250_1_)" d="M7.4,1h736.7c4.1,0,7.4,3.3,7.4,7.4v135.1c0,4.1-3.3,7.4-7.4,7.4H7.4
		c-4.1,0-7.4-3.3-7.4-7.4V8.4C0,4.3,3.3,1,7.4,1z"/>
	<g id="g5545" transform="matrix(0.5134228,0,0,0.5134228,131.18202,-60.10141)">
		
			<linearGradient id="path5533_1_" gradientUnits="userSpaceOnUse" x1="-814.5792" y1="51.9958" x2="-844.1506" y2="-46.3613" gradientTransform="matrix(0.3993 0 0 -0.3993 967.6382 298.1703)">
			<stop  offset="0" style="stop-color:#C0CE43"/>
			<stop  offset="1" style="stop-color:#626200"/>
		</linearGradient>
		<path id="path5533" fill="url(#path5533_1_)" d="M632.8,294c-89.1,0-161.5,26.5-161.8,59.3h298v-31.9
			C740.2,304.9,690,294,632.8,294z"/>
		<g id="g5491" transform="matrix(0.2667921,2.5771849e-2,-2.5771849e-2,0.2667921,572.13768,217.38415)">
			
				<linearGradient id="rect5493_1_" gradientUnits="userSpaceOnUse" x1="-17082.1426" y1="946.1219" x2="-17085.3242" y2="1016.1254" gradientTransform="matrix(0.137 -1.323194e-02 -1.323194e-02 -0.137 2581.6631 298.0759)">
				<stop  offset="0" style="stop-color:#C17D11"/>
				<stop  offset="1" style="stop-color:#8F5902"/>
			</linearGradient>
			<path id="rect5493" fill="url(#rect5493_1_)" d="M224.3,291.9h6.2c5.5,0,10,4.5,10,10l0,99.5c0,5.5-4.5,10-10,10h-6.2
				c-5.5,0-10-4.5-10-10l0-99.5C214.3,296.4,218.7,291.9,224.3,291.9z"/>
			
				<linearGradient id="path5495_1_" gradientUnits="userSpaceOnUse" x1="-16962.2402" y1="2329.6941" x2="-16989.1113" y2="2268.8452" gradientTransform="matrix(0.137 -1.323194e-02 -1.323194e-02 -0.137 2609.9473 312.218)">
				<stop  offset="0" style="stop-color:#98A026"/>
				<stop  offset="1" style="stop-color:#626200"/>
			</linearGradient>
			
				<path id="path5495" sodipodi:sides="12" sodipodi:arg1="-0.18394346" sodipodi:r1="61.854668" sodipodi:arg2="0.077855928" sodipodi:r2="54.060871" sodipodi:cx="197.9899" sodipodi:cy="270.00357" sodipodi:type="star" inkscape:randomized="0" inkscape:rounded="0.2" inkscape:flatsided="false" fill="url(#path5495_1_)" d="
				M287.1,272.8c0.6,3.3-6.6,12.1-6.9,15.5c-0.3,3.4,5.6,13.2,4.4,16.4c-1.1,3.2-11.8,7.2-13.7,10c-1.9,2.8-1.8,14.2-4.4,16.4
				s-13.8,0.3-16.9,1.8c-3.1,1.5-8.7,11.4-12,12s-12.1-6.6-15.5-6.9c-3.4-0.3-13.2,5.6-16.4,4.4c-3.2-1.1-7.2-11.8-10-13.7
				c-2.8-1.9-14.2-1.8-16.4-4.4c-2.2-2.6-0.3-13.8-1.8-16.9c-1.5-3.1-11.4-8.7-12-12c-0.6-3.3,6.6-12.1,6.9-15.5s-5.6-13.2-4.4-16.4
				c1.1-3.2,11.8-7.2,13.7-10c1.9-2.8,1.8-14.2,4.4-16.4s13.8-0.3,16.9-1.8c3.1-1.5,8.7-11.4,12-12c3.3-0.6,12.1,6.6,15.5,6.9
				c3.4,0.3,13.2-5.6,16.4-4.4c3.2,1.1,7.2,11.8,10,13.7c2.8,1.9,14.2,1.8,16.4,4.4s0.3,13.8,1.8,16.9
				C276.5,263.9,286.5,269.5,287.1,272.8z"/>
		</g>
		<g id="g5499" transform="matrix(0.2506402,2.271555e-2,-2.4211589e-2,0.2351531,526.3491,214.10697)">
			
				<linearGradient id="rect5501_1_" gradientUnits="userSpaceOnUse" x1="-19231.0508" y1="1446.274" x2="-19234.2344" y2="1516.2776" gradientTransform="matrix(0.1287 -1.166317e-02 -1.243120e-02 -0.1207 2721.9961 344.8276)">
				<stop  offset="0" style="stop-color:#C17D11"/>
				<stop  offset="1" style="stop-color:#8F5902"/>
			</linearGradient>
			<path id="rect5501" fill="url(#rect5501_1_)" d="M224.3,291.9h6.2c5.5,0,10,4.5,10,10l0,99.5c0,5.5-4.5,10-10,10l-6.2,0
				c-5.5,0-10-4.5-10-10l0-99.5C214.3,296.4,218.7,291.9,224.3,291.9z"/>
			
				<linearGradient id="path5503_1_" gradientUnits="userSpaceOnUse" x1="-19094.0605" y1="3015.9084" x2="-19120.9297" y2="2955.0596" gradientTransform="matrix(0.1287 -1.166317e-02 -1.243120e-02 -0.1207 2750.2803 358.9696)">
				<stop  offset="0" style="stop-color:#98A026"/>
				<stop  offset="1" style="stop-color:#626200"/>
			</linearGradient>
			
				<path id="path5503" sodipodi:sides="12" sodipodi:arg1="-0.18394346" sodipodi:r1="61.854668" sodipodi:arg2="0.077855928" sodipodi:r2="54.060871" sodipodi:cx="197.9899" sodipodi:cy="270.00357" sodipodi:type="star" inkscape:randomized="0" inkscape:rounded="0.2" inkscape:flatsided="false" fill="url(#path5503_1_)" d="
				M287.1,272.8c0.6,3.3-6.6,12.1-6.9,15.5c-0.3,3.4,5.6,13.2,4.4,16.4c-1.1,3.2-11.8,7.2-13.7,10c-1.9,2.8-1.8,14.2-4.4,16.4
				c-2.6,2.2-13.8,0.3-16.9,1.8c-3.1,1.5-8.7,11.4-12,12c-3.3,0.6-12.1-6.6-15.5-6.9s-13.2,5.6-16.4,4.4c-3.2-1.1-7.2-11.8-10-13.7
				c-2.8-1.9-14.2-1.8-16.4-4.4c-2.2-2.6-0.3-13.8-1.8-16.9c-1.5-3.1-11.4-8.7-12-12c-0.6-3.3,6.6-12.1,6.9-15.5
				c0.3-3.4-5.6-13.2-4.4-16.4c1.1-3.2,11.8-7.2,13.7-10c1.9-2.8,1.8-14.2,4.4-16.4s13.8-0.3,16.9-1.8c3.1-1.5,8.7-11.4,12-12
				c3.3-0.6,12.1,6.6,15.5,6.9c3.4,0.3,13.2-5.6,16.4-4.4c3.2,1.1,7.2,11.8,10,13.7c2.8,1.9,14.2,1.8,16.4,4.4
				c2.2,2.6,0.3,13.8,1.8,16.9C276.5,263.9,286.5,269.5,287.1,272.8z"/>
		</g>
	</g>
	<g id="g5255" transform="matrix(0.7900285,0,0,0.7900285,-61.012263,-125.31055)">
		<path id="path5253" sodipodi:nodetypes="ccccc" fill="#AA7828" d="M520.2,301.5c-111.6,2.7-222.3,9.5-320.2,68.2h581V339
			C717.9,316,624.4,301.5,520.2,301.5z"/>
		<path id="path5241" sodipodi:nodetypes="ccccc" fill="#E9B96E" d="M305.6,318.1l37.1-3.9c36.8,13.2,61.9,31.7,81.7,55.5l-61.5,0
			L305.6,318.1z"/>
		<path id="path5243" sodipodi:nodetypes="ccccc" fill="#E9B96E" d="M389.9,308.2l-18.2,2.4c45.3,16,63.6,30.6,81.3,59.4l36.3-0.6
			C468,342.2,423.6,326.6,389.9,308.2z"/>
		<path id="path5245" sodipodi:nodetypes="ccccc" fill="#E9B96E" d="M424.9,304.9l-16.4,1.3c45.3,16,88.9,34.5,106.5,63.3l30.2-0.6
			C530,338.8,460.4,322.6,424.9,304.9z"/>
		<path id="path5247" sodipodi:nodetypes="ccccc" fill="#E9B96E" d="M467.6,302.4l-19.6,0.9c45.3,16,115.8,37.4,133.5,66.1l30.2-0.6
			C596.5,338.8,501.3,320.8,467.6,302.4z"/>
		<path id="path5249" sodipodi:nodetypes="ccccc" fill="#E9B96E" d="M496.5,301.6l-9.4,0.2c45.3,16,150.2,38.4,167.9,67.2l37.3,0.5
			C677,339.4,536.2,315.7,496.5,301.6z"/>
		<path id="path5251" sodipodi:nodetypes="ccccc" fill="#E9B96E" d="M540.1,300.9l-18.9-0.5c54.1,9,176.8,40.5,194.5,69.3l46.5,0.1
			C746.9,339.7,562.8,304,540.1,300.9z"/>
		
			<linearGradient id="path5264_1_" gradientUnits="userSpaceOnUse" x1="596.4159" y1="-71.733" x2="580.0004" y2="-0.8494" gradientTransform="matrix(0.79 0 0 -0.79 26.9835 344.3201)">
			<stop  offset="0" style="stop-color:#2E3436"/>
			<stop  offset="1" style="stop-color:#2E3436;stop-opacity:0"/>
		</linearGradient>
		<path id="path5264" sodipodi:nodetypes="ccccc" fill="url(#path5264_1_)" d="M517.7,304c-111.6,2.7-222.3,9.5-320.2,68.2h581
			v-30.7C715.3,318.6,621.9,304,517.7,304z"/>
	</g>
	
		<linearGradient id="path3252_1_" gradientUnits="userSpaceOnUse" x1="131.7435" y1="-110.6709" x2="102.1721" y2="-209.0281" gradientTransform="matrix(0.7778 0 0 -0.7778 527.3336 -21.3333)">
		<stop  offset="0" style="stop-color:#C0CE43"/>
		<stop  offset="1" style="stop-color:#626200"/>
	</linearGradient>
	<path id="path3252" fill="url(#path3252_1_)" d="M615.8,80C526.5,80,454,106.7,454,139.5S526.5,199,615.8,199
		c57.2,0,107.4-10.9,136.2-27.4v-64.2C723.2,90.9,673,80,615.8,80z"/>
	
		<linearGradient id="path2387_1_" gradientUnits="userSpaceOnUse" x1="482.4033" y1="7.756" x2="722.4033" y2="-70.9627" gradientTransform="matrix(1 0 0 -1 0.6468 199.4009)">
		<stop  offset="0" style="stop-color:#C17D11"/>
		<stop  offset="1" style="stop-color:#8F5902"/>
	</linearGradient>
	<path id="path2387" sodipodi:nodetypes="ccccc" fill="url(#path2387_1_)" d="M491.4,131.9c-111.6,2.7-222.3,9.5-320.2,68.2h581
		v-30.8C689.1,146.4,595.6,131.9,491.4,131.9z"/>
	<path id="path3243" sodipodi:nodetypes="ccccc" fill="#E9B96E" d="M284.6,149.1l37.1-3.9c36.8,13.2,61.7,31.1,81.5,54.9l-61.5,0
		L284.6,149.1z"/>
	<pattern  id="use5282_1_" xlink:href="#Wavywhite" patternTransform="matrix(1 0 0 -1 -8.2738 -16273.79)">
	</pattern>
	<path id="use5282" sodipodi:nodetypes="ccccc" opacity="0.1" fill="url(#use5282_1_)" enable-background="new    " d="M491.8,132
		c-111.6,2.7-222.3,9.5-320.2,68.2h581v-30.8C689.5,146.5,596,132,491.8,132z"/>
	<path id="path3245" sodipodi:nodetypes="ccccc" fill="#E9B96E" d="M368.9,139.2l-18.2,2.4c45.3,16,63.6,29.9,81.3,58.7l35.9-0.3
		C446.6,172.7,402.6,157.6,368.9,139.2z"/>
	
		<linearGradient id="path3229_1_" gradientUnits="userSpaceOnUse" x1="190.4579" y1="88.6174" x2="188.3366" y2="-1.1852" gradientTransform="matrix(1 0 0 -1 0.4289 200)">
		<stop  offset="0" style="stop-color:#C0CE43"/>
		<stop  offset="1" style="stop-color:#626200"/>
	</linearGradient>
	<path id="path3229" sodipodi:nodetypes="ccccc" fill="url(#path3229_1_)" d="M141.4,101.4c-56.8,0-107.6,15.1-141.4,38.8V200h379
		C319.5,147.7,237.8,101.4,141.4,101.4z"/>
	<pattern  id="path3294_1_" xlink:href="#pattern5217" patternTransform="matrix(10 0 0 -10 76098.7109 -91996.7344)">
	</pattern>
	<path id="path3294" sodipodi:nodetypes="ccccc" fill="url(#path3294_1_)" d="M141,101.4c-56.8,0-107.6,15.1-141.4,38.8V200h379
		C319.1,147.7,237.4,101.4,141,101.4z"/>
	<g id="g4895" transform="matrix(0.5659186,0,0,0.5659186,-21.408718,-53.531494)">
		
			<linearGradient id="rect4897_1_" gradientUnits="userSpaceOnUse" x1="-17.254" y1="-165.0813" x2="-20.4359" y2="-95.0777" gradientTransform="matrix(0.5659 0 0 -0.5659 239.0461 301.0877)">
			<stop  offset="0" style="stop-color:#C17D11"/>
			<stop  offset="1" style="stop-color:#8F5902"/>
		</linearGradient>
		<path id="rect4897" fill="url(#rect4897_1_)" d="M224.3,291.9h6.2c5.5,0,10,4.5,10,10v99.5c0,5.5-4.5,10-10,10h-6.2
			c-5.5,0-10-4.5-10-10v-99.5C214.3,296.4,218.7,291.9,224.3,291.9z"/>
		
			<linearGradient id="path4899_1_" gradientUnits="userSpaceOnUse" x1="-20.5822" y1="172.6072" x2="-47.4522" y2="111.7583" gradientTransform="matrix(0.5659 0 0 -0.5659 267.3304 315.2298)">
			<stop  offset="0" style="stop-color:#98A026"/>
			<stop  offset="1" style="stop-color:#626200"/>
		</linearGradient>
		
			<path id="path4899" sodipodi:sides="12" sodipodi:arg1="-0.18394346" sodipodi:r1="61.854668" sodipodi:arg2="0.077855928" sodipodi:r2="54.060871" sodipodi:cx="197.9899" sodipodi:cy="270.00357" sodipodi:type="star" inkscape:randomized="0" inkscape:rounded="0.2" inkscape:flatsided="false" fill="url(#path4899_1_)" d="
			M287.1,272.8c0.6,3.3-6.6,12.1-6.9,15.5s5.6,13.2,4.4,16.4c-1.1,3.2-11.8,7.2-13.7,10c-1.9,2.8-1.8,14.2-4.4,16.4
			s-13.8,0.3-16.9,1.8c-3.1,1.5-8.7,11.4-12,12s-12.1-6.6-15.5-6.9c-3.4-0.3-13.2,5.6-16.4,4.4c-3.2-1.1-7.2-11.8-10-13.7
			c-2.8-1.9-14.2-1.8-16.4-4.4c-2.2-2.6-0.3-13.8-1.8-16.9s-11.4-8.7-12-12c-0.6-3.3,6.6-12.1,6.9-15.5s-5.6-13.2-4.4-16.4
			c1.1-3.2,11.8-7.2,13.7-10c1.9-2.8,1.8-14.2,4.4-16.4s13.8-0.3,16.9-1.8c3.1-1.5,8.7-11.4,12-12c3.3-0.6,12.1,6.6,15.5,6.9
			c3.4,0.3,13.2-5.6,16.4-4.4c3.2,1.1,7.2,11.8,10,13.7c2.8,1.9,14.2,1.8,16.4,4.4s0.3,13.8,1.8,16.9
			C276.5,263.9,286.5,269.5,287.1,272.8z"/>
	</g>
	<g id="g4905" transform="matrix(0.4040835,3.9034059e-2,-3.9034059e-2,0.4040835,92.340585,-55.163325)">
		
			<linearGradient id="rect4907_1_" gradientUnits="userSpaceOnUse" x1="-938.7511" y1="-230.1011" x2="-941.9331" y2="-160.0975" gradientTransform="matrix(0.4041 -3.903405e-02 -3.903405e-02 -0.4041 599.6342 264.8877)">
			<stop  offset="0" style="stop-color:#C17D11"/>
			<stop  offset="1" style="stop-color:#8F5902"/>
		</linearGradient>
		<path id="rect4907" fill="url(#rect4907_1_)" d="M224.3,291.9h6.2c5.5,0,10,4.5,10,10v99.5c0,5.5-4.5,10-10,10h-6.2
			c-5.5,0-10-4.5-10-10l0-99.5C214.3,296.4,218.7,291.9,224.3,291.9z"/>
		
			<linearGradient id="path4909_1_" gradientUnits="userSpaceOnUse" x1="-898.1067" y1="238.906" x2="-924.9767" y2="178.0572" gradientTransform="matrix(0.4041 -3.903405e-02 -3.903405e-02 -0.4041 627.9186 279.0298)">
			<stop  offset="0" style="stop-color:#98A026"/>
			<stop  offset="1" style="stop-color:#626200"/>
		</linearGradient>
		
			<path id="path4909" sodipodi:sides="12" sodipodi:arg1="-0.18394346" sodipodi:r1="61.854668" sodipodi:arg2="0.077855928" sodipodi:r2="54.060871" sodipodi:cx="197.9899" sodipodi:cy="270.00357" sodipodi:type="star" inkscape:randomized="0" inkscape:rounded="0.2" inkscape:flatsided="false" fill="url(#path4909_1_)" d="
			M287.1,272.8c0.6,3.3-6.6,12.1-6.9,15.5s5.6,13.2,4.4,16.4s-11.8,7.2-13.7,10c-1.9,2.8-1.8,14.2-4.4,16.4s-13.8,0.3-16.9,1.8
			c-3.1,1.5-8.7,11.4-12,12c-3.3,0.6-12.1-6.6-15.5-6.9c-3.4-0.3-13.2,5.6-16.4,4.4c-3.2-1.1-7.2-11.8-10-13.7
			c-2.8-1.9-14.2-1.8-16.4-4.4c-2.2-2.6-0.3-13.8-1.8-16.9s-11.4-8.7-12-12c-0.6-3.3,6.6-12.1,6.9-15.5s-5.6-13.2-4.4-16.4
			c1.1-3.2,11.8-7.2,13.7-10s1.8-14.2,4.4-16.4c2.6-2.2,13.8-0.3,16.9-1.8c3.1-1.5,8.7-11.4,12-12c3.3-0.6,12.1,6.6,15.5,6.9
			c3.4,0.3,13.2-5.6,16.4-4.4c3.2,1.1,7.2,11.8,10,13.7c2.8,1.9,14.2,1.8,16.4,4.4s0.3,13.8,1.8,16.9
			C276.5,263.9,286.5,269.5,287.1,272.8z"/>
	</g>
	<g id="g4915" transform="matrix(0.2742165,-3.2014316e-2,3.2014316e-2,0.2742165,-18.675291,14.368236)">
		
			<linearGradient id="rect4917_1_" gradientUnits="userSpaceOnUse" x1="-2223.7319" y1="85.255" x2="-2226.9141" y2="155.2585" gradientTransform="matrix(0.2742 3.201395e-02 3.201395e-02 -0.2742 836.337 489.0775)">
			<stop  offset="0" style="stop-color:#C17D11"/>
			<stop  offset="1" style="stop-color:#8F5902"/>
		</linearGradient>
		<path id="rect4917" fill="url(#rect4917_1_)" d="M224.3,291.9h6.2c5.5,0,10,4.5,10,10l0,99.5c0,5.5-4.5,10-10,10l-6.2,0
			c-5.5,0-10-4.5-10-10l0-99.5C214.3,296.4,218.7,291.9,224.3,291.9z"/>
		
			<linearGradient id="path4919_1_" gradientUnits="userSpaceOnUse" x1="-2310.7764" y1="772.0018" x2="-2337.6462" y2="711.153" gradientTransform="matrix(0.2742 3.201395e-02 3.201395e-02 -0.2742 864.6212 503.2195)">
			<stop  offset="0" style="stop-color:#98A026"/>
			<stop  offset="1" style="stop-color:#626200"/>
		</linearGradient>
		
			<path id="path4919" sodipodi:sides="12" sodipodi:arg1="-0.18394346" sodipodi:r1="61.854668" sodipodi:arg2="0.077855928" sodipodi:r2="54.060871" sodipodi:cx="197.9899" sodipodi:cy="270.00357" sodipodi:type="star" inkscape:randomized="0" inkscape:rounded="0.2" inkscape:flatsided="false" fill="url(#path4919_1_)" d="
			M287.1,272.8c0.6,3.3-6.6,12.1-6.9,15.5c-0.3,3.4,5.6,13.2,4.4,16.4s-11.8,7.2-13.7,10c-1.9,2.8-1.8,14.2-4.4,16.4
			s-13.8,0.3-16.9,1.8c-3.1,1.5-8.7,11.4-12,12c-3.3,0.6-12.1-6.6-15.5-6.9c-3.4-0.3-13.2,5.6-16.4,4.4c-3.2-1.1-7.2-11.8-10-13.7
			c-2.8-1.9-14.2-1.8-16.4-4.4c-2.2-2.6-0.3-13.8-1.8-16.9s-11.4-8.7-12-12c-0.6-3.3,6.6-12.1,6.9-15.5c0.3-3.4-5.6-13.2-4.4-16.4
			s11.8-7.2,13.7-10c1.9-2.8,1.8-14.2,4.4-16.4c2.6-2.2,13.8-0.3,16.9-1.8c3.1-1.5,8.7-11.4,12-12c3.3-0.6,12.1,6.6,15.5,6.9
			c3.4,0.3,13.2-5.6,16.4-4.4c3.2,1.1,7.2,11.8,10,13.7c2.8,1.9,14.2,1.8,16.4,4.4c2.2,2.6,0.3,13.8,1.8,16.9
			C276.5,263.9,286.5,269.5,287.1,272.8z"/>
	</g>
	<g id="g4936" transform="matrix(0.2667921,2.5771849e-2,-2.5771849e-2,0.2667921,600.13768,1.3841476)">
		
			<linearGradient id="rect4938_1_" gradientUnits="userSpaceOnUse" x1="-4931.082" y1="-83.1267" x2="-4934.2642" y2="-13.1232" gradientTransform="matrix(0.2668 -2.577201e-02 -2.577201e-02 -0.2668 1542.7134 245.2483)">
			<stop  offset="0" style="stop-color:#C17D11"/>
			<stop  offset="1" style="stop-color:#8F5902"/>
		</linearGradient>
		<path id="rect4938" fill="url(#rect4938_1_)" d="M224.3,291.9h6.2c5.5,0,10,4.5,10,10l0,99.5c0,5.5-4.5,10-10,10h-6.2
			c-5.5,0-10-4.5-10-10l0-99.5C214.3,296.4,218.7,291.9,224.3,291.9z"/>
		
			<linearGradient id="path4940_1_" gradientUnits="userSpaceOnUse" x1="-4869.522" y1="627.231" x2="-4896.3916" y2="566.3822" gradientTransform="matrix(0.2668 -2.577201e-02 -2.577201e-02 -0.2668 1570.9977 259.3904)">
			<stop  offset="0" style="stop-color:#98A026"/>
			<stop  offset="1" style="stop-color:#626200"/>
		</linearGradient>
		
			<path id="path4940" sodipodi:sides="12" sodipodi:arg1="-0.18394346" sodipodi:r1="61.854668" sodipodi:arg2="0.077855928" sodipodi:r2="54.060871" sodipodi:cx="197.9899" sodipodi:cy="270.00357" sodipodi:type="star" inkscape:randomized="0" inkscape:rounded="0.2" inkscape:flatsided="false" fill="url(#path4940_1_)" d="
			M287.1,272.8c0.6,3.3-6.6,12.1-6.9,15.5c-0.3,3.4,5.6,13.2,4.4,16.4c-1.1,3.2-11.8,7.2-13.7,10c-1.9,2.8-1.8,14.2-4.4,16.4
			c-2.6,2.2-13.8,0.3-16.9,1.8c-3.1,1.5-8.7,11.4-12,12s-12.1-6.6-15.5-6.9c-3.4-0.3-13.2,5.6-16.4,4.4c-3.2-1.1-7.2-11.8-10-13.7
			c-2.8-1.9-14.2-1.8-16.4-4.4c-2.2-2.6-0.3-13.8-1.8-16.9s-11.4-8.7-12-12c-0.6-3.3,6.6-12.1,6.9-15.5s-5.6-13.2-4.4-16.4
			c1.1-3.2,11.8-7.2,13.7-10c1.9-2.8,1.8-14.2,4.4-16.4s13.8-0.3,16.9-1.8c3.1-1.5,8.7-11.4,12-12c3.3-0.6,12.1,6.6,15.5,6.9
			c3.4,0.3,13.2-5.6,16.4-4.4c3.2,1.1,7.2,11.8,10,13.7c2.8,1.9,14.2,1.8,16.4,4.4s0.3,13.8,1.8,16.9
			C276.5,263.9,286.5,269.5,287.1,272.8z"/>
	</g>
	<pattern  id="path4946_1_" xlink:href="#pattern5531" patternTransform="matrix(3.8889 0 0 -3.8889 24602.332 -41102.5391)">
	</pattern>
	<path id="path4946" fill="url(#path4946_1_)" d="M618.8,75.4c-83.1,0-151.5,23.1-160.7,52.7c12.1-0.4,23.8-0.7,34.2-0.7
		c103.9,0,197.1,14.4,260.3,37.3v-63.3C723.4,85.7,674.3,75.4,618.8,75.4z"/>
	<g id="g5136" transform="matrix(0.2506402,2.271555e-2,-2.4211589e-2,0.2351531,547.3491,-3.8930349)">
		
			<linearGradient id="rect5138_1_" gradientUnits="userSpaceOnUse" x1="-5364.8906" y1="4.3637" x2="-5368.0723" y2="74.3672" gradientTransform="matrix(0.2506 -2.271650e-02 -2.421241e-02 -0.2352 1574.0452 273.6647)">
			<stop  offset="0" style="stop-color:#C17D11"/>
			<stop  offset="1" style="stop-color:#8F5902"/>
		</linearGradient>
		<path id="rect5138" fill="url(#rect5138_1_)" d="M224.3,291.9l6.2,0c5.5,0,10,4.5,10,10l0,99.5c0,5.5-4.5,10-10,10l-6.2,0
			c-5.5,0-10-4.5-10-10l0-99.5C214.3,296.4,218.7,291.9,224.3,291.9z"/>
		
			<linearGradient id="path5140_1_" gradientUnits="userSpaceOnUse" x1="-5294.5562" y1="810.25" x2="-5321.4263" y2="749.4012" gradientTransform="matrix(0.2506 -2.271650e-02 -2.421241e-02 -0.2352 1602.3295 287.8068)">
			<stop  offset="0" style="stop-color:#98A026"/>
			<stop  offset="1" style="stop-color:#626200"/>
		</linearGradient>
		
			<path id="path5140" sodipodi:sides="12" sodipodi:arg1="-0.18394346" sodipodi:r1="61.854668" sodipodi:arg2="0.077855928" sodipodi:r2="54.060871" sodipodi:cx="197.9899" sodipodi:cy="270.00357" sodipodi:type="star" inkscape:randomized="0" inkscape:rounded="0.2" inkscape:flatsided="false" fill="url(#path5140_1_)" d="
			M287.1,272.8c0.6,3.3-6.6,12.1-6.9,15.5s5.6,13.2,4.4,16.4c-1.1,3.2-11.8,7.2-13.7,10c-1.9,2.8-1.8,14.2-4.4,16.4
			c-2.6,2.2-13.8,0.3-16.9,1.8c-3.1,1.5-8.7,11.4-12,12s-12.1-6.6-15.5-6.9c-3.4-0.3-13.2,5.6-16.4,4.4c-3.2-1.1-7.2-11.8-10-13.7
			c-2.8-1.9-14.2-1.8-16.4-4.4c-2.2-2.6-0.3-13.8-1.8-16.9c-1.5-3.1-11.4-8.7-12-12c-0.6-3.3,6.6-12.1,6.9-15.5
			c0.3-3.4-5.6-13.2-4.4-16.4c1.1-3.2,11.8-7.2,13.7-10c1.9-2.8,1.8-14.2,4.4-16.4c2.6-2.2,13.8-0.3,16.9-1.8
			c3.1-1.5,8.7-11.4,12-12c3.3-0.6,12.1,6.6,15.5,6.9c3.4,0.3,13.2-5.6,16.4-4.4c3.2,1.1,7.2,11.8,10,13.7
			c2.8,1.9,14.2,1.8,16.4,4.4c2.2,2.6,0.3,13.8,1.8,16.9C276.5,263.9,286.5,269.5,287.1,272.8z"/>
	</g>
	<g id="g5146" transform="matrix(0.2183363,1.8418414e-2,-2.109107e-2,0.1906688,642.77195,3.4011564)">
		
			<linearGradient id="rect5148_1_" gradientUnits="userSpaceOnUse" x1="-7504.9336" y1="272.1012" x2="-7508.1157" y2="342.1048" gradientTransform="matrix(0.2183 -1.841754e-02 -2.109095e-02 -0.1907 1873.6207 308.1694)">
			<stop  offset="0" style="stop-color:#C17D11"/>
			<stop  offset="1" style="stop-color:#8F5902"/>
		</linearGradient>
		<path id="rect5148" fill="url(#rect5148_1_)" d="M224.3,291.9h6.2c5.5,0,10,4.5,10,10l0,99.5c0,5.5-4.5,10-10,10h-6.2
			c-5.5,0-10-4.5-10-10l0-99.5C214.3,296.4,218.7,291.9,224.3,291.9z"/>
		
			<linearGradient id="path5150_1_" gradientUnits="userSpaceOnUse" x1="-7417.5562" y1="1265.944" x2="-7444.4263" y2="1205.0951" gradientTransform="matrix(0.2183 -1.841754e-02 -2.109095e-02 -0.1907 1901.9052 322.3116)">
			<stop  offset="0" style="stop-color:#98A026"/>
			<stop  offset="1" style="stop-color:#626200"/>
		</linearGradient>
		
			<path id="path5150" sodipodi:sides="12" sodipodi:arg1="-0.18394346" sodipodi:r1="61.854668" sodipodi:arg2="0.077855928" sodipodi:r2="54.060871" sodipodi:cx="197.9899" sodipodi:cy="270.00357" sodipodi:type="star" inkscape:randomized="0" inkscape:rounded="0.2" inkscape:flatsided="false" fill="url(#path5150_1_)" d="
			M287.1,272.8c0.6,3.3-6.6,12.1-6.9,15.5c-0.3,3.4,5.6,13.2,4.4,16.4c-1.1,3.2-11.8,7.2-13.7,10c-1.9,2.8-1.8,14.2-4.4,16.4
			c-2.6,2.2-13.8,0.3-16.9,1.8c-3.1,1.5-8.7,11.4-12,12c-3.3,0.6-12.1-6.6-15.5-6.9c-3.4-0.3-13.2,5.6-16.4,4.4s-7.2-11.8-10-13.7
			c-2.8-1.9-14.2-1.8-16.4-4.4c-2.2-2.6-0.3-13.8-1.8-16.9s-11.4-8.7-12-12c-0.6-3.3,6.6-12.1,6.9-15.5s-5.6-13.2-4.4-16.4
			c1.1-3.2,11.8-7.2,13.7-10c1.9-2.8,1.8-14.2,4.4-16.4c2.6-2.2,13.8-0.3,16.9-1.8c3.1-1.5,8.7-11.4,12-12
			c3.3-0.6,12.1,6.6,15.5,6.9s13.2-5.6,16.4-4.4c3.2,1.1,7.2,11.8,10,13.7c2.8,1.9,14.2,1.8,16.4,4.4s0.3,13.8,1.8,16.9
			C276.5,263.9,286.5,269.5,287.1,272.8z"/>
	</g>
	
		<linearGradient id="path5164_1_" gradientUnits="userSpaceOnUse" x1="358.2083" y1="318.0166" x2="365.7083" y2="271.0166" gradientTransform="matrix(1 0 0 -1 -86.5711 332)">
		<stop  offset="0" style="stop-color:#F7F7F7"/>
		<stop  offset="1" style="stop-color:#F7F7F7;stop-opacity:0"/>
	</linearGradient>
	<path id="path5164" fill="url(#path5164_1_)" d="M262.5,11c-9.7,0-17.5,5.4-17.5,12c0,2.2,0.9,4.3,2.4,6
		C237,31.4,230,35.6,230,40.5c0,1,0.3,2,0.9,2.9c-8.6,1.2-14.9,5.1-14.9,9.6c0,5.5,9.4,10,21,10c11.1,0,20.3-4.1,21-9.4
		c2.7,0.2,5.6,0.4,8.5,0.4c15.5,0,28.7-3.6,34-8.6c2.4,0.4,4.9,0.6,7.5,0.6c15.5,0,28-7.2,28-16s-12.5-16-28-16
		c-14.3,0-26.1,6.1-27.8,14c-0.5-0.1-1.1-0.2-1.7-0.2c0.9-1.5,1.4-3.1,1.4-4.8C280,16.4,272.2,11,262.5,11z"/>
	
		<linearGradient id="path5191_1_" gradientUnits="userSpaceOnUse" x1="244.0318" y1="177.2124" x2="245.0318" y2="156.2124" gradientTransform="matrix(1 0 0 -1 320.4289 185.5)">
		<stop  offset="0" style="stop-color:#F7F7F7"/>
		<stop  offset="1" style="stop-color:#F7F7F7;stop-opacity:0"/>
	</linearGradient>
	<path id="path5191" fill="url(#path5191_1_)" d="M568.5,4.5c-5.2,0-9.6,3.4-11,8.1c-1.1-0.4-2.2-0.6-3.5-0.6
		c-4.7,0-8.5,3.2-8.5,7.2s3.8,7.2,8.5,7.2c2.4,0,4.5-0.9,6.1-2.2c0.5,2.7,2.5,4.7,4.9,4.7c1.5,0,2.8-0.8,3.7-2
		c2.8-0.1,5.3-1.1,7.3-2.7c0.9,1.1,2.1,1.7,3.5,1.7c2.8,0,5-2.7,5-6c0-3.2-2.1-5.8-4.7-6C579,8.6,574.3,4.5,568.5,4.5z"/>
	
		<linearGradient id="path5210_1_" gradientUnits="userSpaceOnUse" x1="453.4402" y1="299.5522" x2="460.9402" y2="252.5523" gradientTransform="matrix(1.4083 0 0 -1.4083 -563.5459 388.525)">
		<stop  offset="0" style="stop-color:#F7F7F7"/>
		<stop  offset="1" style="stop-color:#F7F7F7;stop-opacity:0"/>
	</linearGradient>
	<path id="path5210" fill="url(#path5210_1_)" d="M21.1,1.1c-0.2,0.7-0.3,1.5-0.3,2.2c0,1.4,0.4,2.8,1.2,4.1C9.8,9.2,1,14.6,1,20.9
		C1,28.7,14.2,35,30.6,35c15.7,0,28.6-5.8,29.5-13.2c3.9,0.3,7.9,0.5,12,0.5c21.8,0,40.4-5,47.9-12.1c3.4,0.5,6.9,0.8,10.6,0.8
		c13.6,0,25.7-3.9,32.8-10H21.1z"/>
	<path id="path5233" sodipodi:nodetypes="ccccc" fill="#E9B96E" d="M403.9,135.9l-16.4,1.3c45.3,16,88.8,34.3,106.4,63l30.3-0.3
		C509,169.8,439.4,153.6,403.9,135.9z"/>
	<path id="path5235" sodipodi:nodetypes="ccccc" fill="#E9B96E" d="M446.6,133.4l-19.6,0.9c45.3,16,116,36.8,133.7,65.6l30.1-0.1
		C575.5,169.8,480.3,151.8,446.6,133.4z"/>
	<path id="path5237" sodipodi:nodetypes="ccccc" fill="#E9B96E" d="M475.5,132.6l-9.4,0.2c45.3,16,150.2,38.4,167.9,67.2l37.1,0
		C655.8,169.9,515.2,146.7,475.5,132.6z"/>
	<path id="path5239" sodipodi:nodetypes="ccccc" fill="#E9B96E" d="M520.1,131.4l-18.9-0.5c54.1,9,176.8,40.2,194.5,69l46.6,0.1
		C727,169.9,542.8,134.5,520.1,131.4z"/>
</g>
</svg>
