<svg xmlns="http://www.w3.org/2000/svg" viewBox="0 0 900 458.7" enable-background="new 0 0 900 458.7"><g transform="translate(-2.016 -601.362)"><linearGradient id="a" gradientUnits="userSpaceOnUse" x1="508.703" y1="496.954" x2="409.703" y2="36.954" gradientTransform="matrix(1.138 0 0 -.957 -63.128 1067.971)"><stop offset="0" stop-color="#A8DDE0"/><stop offset="1" stop-color="#A8DDE0" stop-opacity="0"/></linearGradient><path fill="url(#a)" d="M12 602.4h890v440h-890z"/><path fill="#020000" stroke="#000" stroke-width=".934" d="M2.5 601l2.7 456.9h76.5l1.4-37.9 62.3-18.9s394.7-108.4 397.6-166.3c49.4-60.4 227.5-85.3 229.8-141.2-21.9 42.6-252.4 63.2-282.1 127.4-29.7 64.3-333.9 78.1-399 63-65.2-15.2-48.7-282.5-48.7-282.5l-40.5-.5z"/><path fill="#fff" stroke="#000" stroke-width=".934" d="M688.1 753.4c-11.1 6.2-28.2 5.3-52 19.2-1.4.8-2.8 1.6-4.2 2.5 2.8-1.2 5.5-2.4 8.3-3.5 22.4-13.8 44.4-15.6 48.1-18.2h-.2z"/><path fill="#fff" stroke="#000" stroke-width=".934" d="M672 740.2l-4.1 1.2c-3.6 2.1-7.2 4.2-10.8 6.4l4.6-4.6-1.3.3c-2.1 2-4.1 4.1-6.3 6-10.8 6.6-21.3 13.5-31.8 20.5-.7 1.2-1.4 2.4-2.2 3.6 9.6-6.6 19.1-13 28.9-19.3-6.8 6.2-13.8 12.2-21 17.9-1.5 1.2-3 2.3-4.4 3.5l10.4-6.9c6.4-5.4 12.7-11 18.8-16.9 6.4-4 12.8-7.9 19.2-11.7z"/><path fill="#fff" stroke="#000" stroke-width=".934" d="M17.9 818.1v6.5c6.9 8.8 14.2 17.3 21.6 25.6 6.1 6.9 12.4 13.6 18.7 20.2l4.4 4.3c-.5-2.5-1-5.1-1.5-7.7-7.4-7.6-14.6-15.3-21.7-23.2-7.3-8.4-14.5-16.9-21.5-25.7z"/><path fill="#fff" stroke="#000" stroke-width=".934" d="M614.5 775.3c-18.1 12.2-36.1 24.5-54.6 36-7.6 4.7-15.2 9.3-23 13.7-22.2 7.6-44.7 14.2-67.4 20.1-7.2 3.8-15.6 7.3-24.8 10.6l7-1.8-8.5 7c-13.2 2.3-26.5 4.5-39.7 6.7.2-.1.4-.2.6-.4-38.7 8.9-84.9 14.9-129.9 18.5l-29.7 5.7c-24 0-48 1.5-72 2.6l-13.7.6h-.8c-19.9.7-39.8.8-59.4-1.4-11.7-1.3-23.2-3.5-34.4-6.9-11.4-3.4-22.4-8.1-32.8-13.9-3-1.7-6-3.5-8.9-5.4l-1.9-1.3-1.1-.7c1 2.9 2 5.7 3 8.5 2.9 1.9 5.9 3.7 8.9 5.4 10.4 5.8 21.4 10.5 32.8 13.9 2.1.6 4.2 1.2 6.3 1.7 9.1 2 18.3 3.3 27.6 4 18.8 1.5 37.6 1 56.3-.3l.9-.1 17.3-1.3c23.4-1.9 46.7-4.1 70-5-11.3 2.2-22.6 4.6-34 7 11.9-.5 23.8-.9 35.8-.9 9.9-1.9 19.8-3.9 29.7-5.7 13.2-1 26.5-2.3 39.6-3.8l19.6-3.7 46.1-8.4-6.4 3.6c4.6-.8 9.1-1.7 13.5-2.6l5.8-3.4 44.7-8.1-3.1 2.5c-1 .3-2.1.6-3.1 1 4.1-.7 8.2-1.4 12.2-2 1.3-1.1 2.7-2.2 4.1-3.3-1.7.6-3.4 1.2-5.1 1.7l1.2-1c1.3-.2 2.6-.5 4-.7 1.5-1.2 3-2.4 4.5-3.7l-7 1.8c2.6-.9 5.1-1.8 7.5-2.8-1.1.2-2.1.4-3.2.5l9.1-7.7 7.2-1.9c18.8-5.1 37.5-10.6 56-16.8l15.3-5.1 14.8-8.4c3.3-2 6.6-4.1 9.8-6.1 17.2-11 33.9-22.8 50.7-34.4l1.6-1.1c1.8-1.2 3.5-2.4 5.3-3.7l2.3-3.8-2.4 1.6-3 2-1.2.9z"/><path fill="#fff" stroke="#000" stroke-width=".934" d="M621 761.9l-13 3.9-.1.1c-6.5 2.5-12.9 5.1-19.4 7.8-19.8 8.3-39.3 17.3-58.6 26.8l-7 3.5c-5.1 2.5-10.1 5.1-15.1 7.7-2.2 2-4.3 4-6.1 6.1l9.2-4.9 8.6-4.5c7.3-3.8 14.7-6.8 22.1-10.5 1.5-1.1 2.8-2.5 4.5-3.2 14-6.9 28.8-12.5 43.1-18.7 10.7-4.7 21.1-10 31.8-14.1z"/><path fill="#fff" stroke="#000" stroke-width=".934" d="M618.7 781.2c-1.7 1.2-3.4 2.3-5 3.5-.1.2-.2.4-.4.6 1.8-1.4 3.6-2.8 5.4-4.1z"/><path fill="#fff" stroke="#fff" stroke-width=".934" d="M552.9 804c-11.7 8.1-23.3 16.2-35.1 24.1 24.3-16.1 21.6-11.8 34.6-23.3.2-.2.3-.5.5-.8z"/><path fill="#fff" stroke="#000" stroke-width=".934" d="M545.1 825c-5.1 2.6-10.2 5.1-15.3 7.6 3.3-1.8 6.5-3.6 9.7-5.5 1.9-.7 3.8-1.4 5.6-2.1z"/><path fill="#fff" stroke="#000" stroke-width=".934" d="M521 840c-15.6 5.2-31.4 9.9-47.2 14.3-1.9.7-3.8 1.5-5.8 2.2l-6.2 1.1-3.7 1-9.1 7.7c1.2-.2 2.4-.4 3.5-.6 3.8-.6 7.5-1.3 11.3-2l15.3-5.7 3.7-.7c4.8-1.9 9.7-3.9 14.5-6-1 .2-1.9.4-2.9.5 8.9-3.8 17.8-7.7 26.6-11.8z"/><path fill="#fff" stroke="#fff" stroke-width=".934" d="M533.6 806.2c-9.1 2-15.4 14.4-24.5 16.2-3.8 1.8-7.6 3.5-11.4 5.2 12.4-2.6 22-15.7 34.3-18.6.6-1 1.1-1.9 1.6-2.8z"/><path fill="#fff" stroke="#000" stroke-width=".934" d="M747.6 718.1c-15.9 13.2-42.4 14.8-61.4 22.4-22.1 8.9-45 15.2-68.2 20.4-1.6.4-3.2.7-4.9 1.1-1.6 1.3-3.1 2.6-4.7 4l10.1-2.4c23.1-5.7 46.1-12.6 68.1-21.9 19-8.1 45.4-10 61-23.6z"/><path fill="#fff" d="M13.8 860.1v6.5c3.3 2.6 6.7 5.1 10.2 7.5-1.1-2.9-2.2-5.8-3.2-8.7-2.4-1.8-4.7-3.5-7-5.3z"/><path fill="#fff" stroke="#000" stroke-width=".934" d="M437.1 872.3l-43.2 7.8-1.8.4-17.9 10.4 1.1-.3c10.8-2.9 21.7-5.9 32.4-9.2 5.3-1.5 10.6-3 15.9-4.6-.7.6-1.4 1.2-2.2 1.8l8.4-2.6c.6-.6 1.3-1.1 1.9-1.6 1.5-.5 2.9-1 4.3-1.4.5-.2.8-.5 1.1-.7z"/><path fill="#fff" stroke="#000" stroke-width=".934" d="M10.4 879.9v6.5c.8 1.3 1.6 2.6 2.4 3.8 5.8 1.5 11.5 2.9 17.3 4.2l-3.3-7.2c-4.7-1.1-9.4-2.2-14-3.4-.7-1.3-1.6-2.6-2.4-3.9z"/><path fill="#fff" stroke="#000" stroke-width=".934" d="M735.8 729.5c-21.3 9.9-43.5 17.7-65.9 24.3-12.1 3.6-24.4 6.8-36.6 9.7-.5.5-1.1.9-1.6 1.3 5-1 10-2.1 15-3.2 12.6-2.8 25.2-6 37.6-9.8 5.8-2 11.6-4 17.3-6.2 12.3-5.4 23.8-10.8 34.2-16.1z"/><path fill="#fff" stroke="#000" stroke-width=".934" d="M376.4 883.3l-13.7 2.5-3.7 2.1-1.3.3c-19.4 3.8-38.9 7-58.4 9.4-2.8.5-5.6 1.1-8.3 1.6l-6.4 2.1c-7.2 2.3-14.4 4.5-21.7 6.6 31.8-2.7 63.5-7.1 94.9-13.3l1.3-.3c6.1-3.4 12.2-6.8 18.3-10.3l-3.4.8c.7-.5 1.5-1 2.4-1.5z"/><path fill="#fff" stroke="#000" stroke-width=".934" d="M29.5 886.4l.7 1.5-2.2-.5 3.1 7.2c41 9.2 83.1 13.9 125.1 15.6 4.6.2 9.1.3 13.7.4l-8.2-6.6c-21.1 1.6-42.3 2.5-63.6.8-11.9-1-23.9-2.8-35.5-5.9-9.5-2.5-18.8-5.8-27.8-10l-3.7-.8-.6-1.2c-.3-.1-.6-.3-1-.5z"/><path fill="#fff" stroke="#000" stroke-width=".934" d="M242.7 898.2c-15.2.6-30.4 1.7-45.6 3l-14.7 3.3c-4.1 0-8.2-.1-12.3-.2-1.4-1.3-3.3-.1-7.8-.3l7.8 6.7 12.3.2c20-4.6 40.1-8.8 60.3-12.7z"/><path fill="#fff" stroke="#000" stroke-width=".934" d="M89.9 898.4l8.7 1.2c3.3.4 6.5.7 9.8.9-6.2-.7-12.3-1.3-18.5-2.1z"/><path fill="#fff" stroke="#000" stroke-width=".934" d="M31.5 913.1c-.9-.1-1.8-.3-2.6-.4 1.9 2.5 3.9 4.9 5.9 7.3 29.9 4.2 60.2 5.4 90.4 4.1 1.5-.1 3.1-.2 4.6-.2 7.1-1.9 14.2-3.8 21.4-5.6-7-.2-14.1-.5-21.1-.9-.1 0-.2 0-.3.1-1.5.1-3.1.2-4.6.2-28.2 1.3-56.5.3-84.4-3.3l-6-.8-3.3-.5z"/><path fill="#fff" stroke="#000" stroke-width=".934" d="M334.8 907.1c-6.2 1.4-12.3 2.8-18.5 4.1-9.5 5-19 10-28.5 14.9l-39.3 5-10.6 1.3c-14.4 0-28.9.4-43.4 1.3-6.4.4-12.9 1-19.3 1.6l-22 2.9c-4.9.8-9.9 1.7-14.8 2.7-18.6 3.8-37 9.1-54.7 16.3l-.7.3-1.8-1.3-.6.3 1.9 1.2c-1.7.7-3.4 1.4-5.2 2.2 1.9 1.4 3.8 2.7 5.7 4l.7-.3c17.7-7.2 36.1-12.5 54.7-16.3 18.5-3.7 37.3-6 56-7.2 14.5-.9 28.9-1.3 43.4-1.3 3.5-.5 7.1-.9 10.6-1.3l39.3-5c5.6-2.8 11.2-5.7 16.8-8.7h-.1c7.2-3.9 14.4-7.8 21.6-11.8 3-1.6 5.9-3.3 8.8-4.9z"/><path fill="#fff" stroke="#000" stroke-width=".934" d="M10.6 909.5v6.5c6.9 1.4 13.9 2.6 20.9 3.7-2.1-2.4-4.2-4.9-6.2-7.4-4.9-1-9.8-1.9-14.7-2.8z"/><path fill="#fff" stroke="#000" stroke-width=".934" d="M465.5 869.5l-30.4 6.4-7.6 1.7-4.1 3.4c11.7-2.6 23.4-5.5 35.1-8.7 2.3-.9 4.6-1.8 7-2.8z"/><path fill="#fff" stroke="#000" stroke-width=".934" d="M248.3 913.5c-12.2 1.2-24.5 2.1-36.8 2.8-18.4 4.3-37 7.7-55.7 10.3 23.2-2.8 46.4-5.9 69.5-9.5 7.6-1.1 15.3-2.3 23-3.6z"/><path fill="#fff" stroke="#000" stroke-width=".934" d="M422.5 889.2c-15.7 3.2-31.4 6.1-47.1 8.7-12.3 2-24.5 4-36.8 5.8l-5.1 2.6 12.3.4c18.8-3.4 37.6-6.8 56.3-10.6 5.4-1.1 10.7-2.2 16.1-3.4 1.3-1.2 2.8-2.4 4.3-3.5z"/><path fill="#fff" stroke="#000" stroke-width=".934" d="M51.6 933.8c-1.3.1-2.7.2-4 .4 2 2 3.9 4 5.9 5.9 11-1 22-2.1 33-3.2l.6-.2 10.7-3.5c-10.8.1-21.6-.1-32.4-.7-4 .4-8 .8-11.9 1.1.1.1-1.9.2-1.9.2z"/><path fill="#fff" stroke="#000" stroke-width=".934" d="M329.6 932.5c-2.5.6-5 1.2-7.5 1.7h-.9c2.7-.6 5.5-1.1 8.4-1.7z"/><path fill="#fff" stroke="#000" stroke-width=".934" d="M45.5 934.4l-34.7 3.3v6.5l40.8-3.8-6.1-6z"/><path fill="#fff" stroke="#000" stroke-width=".934" d="M329.6 939c-2.8.6-5.6 1.1-8.5 1.7h.9c2.5-.6 5-1.2 7.6-1.7z"/><path fill="#fff" stroke="#000" stroke-width=".934" d="M321 947.2l-12.5 3.1c5.8-.9 11.6-1.7 17.4-2.7.4-.1.8-.3 1.1-.4h-6z"/><path fill="#fff" stroke="#000" stroke-width=".934" d="M49.9 950.2l-20.4 2.2c-2 .9-4 1.8-5.9 2.7l-4.1-1.1-.9 3.5c-2.5 1.2-5 2.4-7.5 3.7v6.4l7.5-3.6.9-3.5c1.4.4 2.7.8 4.1 1.1 8.6-4.1 17.4-7.8 26.3-11.4z"/><path fill="#fff" stroke="#000" stroke-width=".934" d="M231.8 959.1c-5.9 1.3-11.8 2.6-17.7 4l12.4-1.7c1.7-.8 3.5-1.6 5.3-2.3z"/><path fill="#fff" stroke="#000" stroke-width=".934" d="M76.6 960.2c-2.9 1.3-5.8 2.6-8.7 4l-3-.4c-3.3 1.6-6.5 3.2-9.7 4.9 4.2.7 8.5 1.4 12.7 1.9 4.8-2.3 9.7-4.4 14.6-6.5-2-1.2-3.9-2.6-5.9-3.9z"/><path fill="#fff" stroke="#000" stroke-width=".934" d="M47.5 962.1l-7.9 3.4 1.2.3c2.2-1.2 4.4-2.5 6.7-3.7z"/><path fill="#fff" stroke="#000" stroke-width=".934" d="M278 963.3l-32.6 2.8-5.1.8c-6.2 1.4-12.4 2.7-18.5 3.9l-9.2 3.9 3.3-.4c14.4-1.9 28.9-3.5 43.5-5.1 6.1-1.9 12.3-3.9 18.6-5.9z"/><path fill="#fff" stroke="#000" stroke-width=".934" d="M24.3 972.8l-11.4 5.8-1.8 1.5v6.4c4.8-4.2 9.9-8.1 15.1-11.6l1.9-1.2-3.8-.9z"/><path fill="#fff" stroke="#000" stroke-width=".934" d="M203.4 973c-8 1.2-16 2.3-24 3.2-10.6 2.2-21.2 4.6-31.7 7.3-5.1 1.9-10.2 3.9-15.3 6 20.7-6.2 41.8-10.4 63-13.6l8-2.9z"/><path fill="#fff" stroke="#000" stroke-width=".934" d="M44 977c-4.6 2.8-9.2 5.6-13.7 8.7-5.7 3.9-11.3 7.9-16.8 12.2l-.1.1c-.7.7-1.5 1.4-2.2 2.2v5.9c6.2-4.9 12.5-9.5 19-13.9 7.2-4.9 14.7-9.4 22.3-13.6-2.8-.5-5.7-1-8.5-1.6z"/><path fill="#fff" stroke="#000" stroke-width=".934" d="M90.6 982.6c-9.1 3-18.1 6.4-26.9 10.3l2.3 5.5c14.4-6.2 29.1-11.1 44-15.2h-1.2c-6.1 0-12.1-.2-18.2-.6z"/><path fill="#fff" stroke="#000" stroke-width=".934" d="M64.7 1001.7c-6 .8-12.1 1.5-18.2 2.1l-1.8.2-.9 1c-1.7 1.9-3.2 3.9-4.6 5.9l7.3-.6c6.3-.6 12.7-1.3 19-2.2.5-.3 1-.6 1.5-.8l-2.3-5.6z"/><path fill="#fff" stroke="#000" stroke-width=".934" d="M32.5 1002.6c-4.2 3-8.3 6.1-12.4 9.3l6.7-.3c1.6-3.2 3.6-6.2 5.7-9z"/><path fill="#fff" stroke="#000" stroke-width=".934" d="M46.1 1019.6c-3.6.4-7.2.7-10.9 1l.2.5c-.1-.2-.2-.3-.2-.5h-.1c-8.2 5.8-16.1 12-23.7 18.5v6.4c11-9.4 22.6-18 34.7-25.9z"/><path fill="#fff" stroke="#000" stroke-width=".934" d="M89.4 1057l-5 .6h5v-.6z"/><path fill="#fff" stroke="#000" stroke-width=".934" d="M10.3 765.1l-1.4 6.3c4.8 10.2 9.9 20.2 15.3 30.1 4.4 8.1 9 16.2 13.7 24.1l3.3 5.2.3-7.8c-5.5-9.1-10.8-18.4-15.9-27.8-5.3-9.9-10.5-19.9-15.3-30.1z"/><path fill="#fff" stroke="#000" stroke-width=".934" d="M27.3 764.5c-.5 6.3-1.1 12.6-1.9 18.8l-.2 1.8.8 1.2c1.4 2.1 3 4 4.6 5.9l.9-7.5c.8-6.5 1.4-13.1 1.9-19.7l-.5-1.7-5.6 1.2z"/><path fill="#fff" stroke="#000" stroke-width=".934" d="M11 643.6l-3.9 5.2c.2 11.3 4.9 66.5 5.8 77.7.7 9.2 1.7 18.4 2.8 27.6l.9 6.1c1.1-2.3 2.3-4.7 3.4-7.1-1.3-10.6-2.4-21.2-3.3-31.8-.8-11.1-5.4-66.4-5.7-77.7z"/><path fill="#fff" stroke="#000" stroke-width=".934" d="M23.6 605.4l-3 5.2c.2 11.3 3.8 66.5 4.5 77.7.6 9.2 1.3 18.4 2.2 27.6l.7 6.1c.9-2.3 1.8-4.7 2.7-7.1-1-10.6-1.9-21.2-2.6-31.8-.7-11.1-4.3-66.4-4.5-77.7z"/><g><g opacity=".9"><path d="M125.485 673.742c-1.597 3.098-3.364 6.174-5.388 9.08 65.537 46.974 110.445 118.312 145.02 203.391l.064.043 10.005 10.253-1.671-4.16 2.865 2.92-1.671-4.16 2.865 2.92c-.771-1.899-1.478-3.755-2.185-5.611l2.865 2.92c-35.844-91.652-82.575-168.452-152.768-217.596z"/><path d="M62.705 599.121c.77 1.066 1.54 2.132 2.246 3.156l-3.161-1.362c.77 1.066 1.54 2.132 2.246 3.156l-3.161-1.362c1.005 1.407 2.011 2.815 3.08 4.265l-5.767-2.446c91.807 131.061 234.817 168.809 402.021 168.76l-4.485-1.872 7.172.054-4.421-1.829 5.337.035-4.421-1.829 5.337.035-15.592-6.574c-156.556-2.208-290.75-39.733-379.765-159.421l-6.664-2.765z"/><g><path fill="#F0C8EE" d="M225.759 690.055c-2.394 4.973-9.24 12.364-15.61 14.305-.745.225-.729-.632-.89-1.122-.269-.788 1.644-1.684.924-2.21-.64-.457-2.011-.013-2.725-.42-.851-.482 1.271-2.287.337-2.694l-3.018-.282c-1.035-.454 1.736-1.61.902-2.232-.596-.457-2.139.471-2.7-.003-.773-.675 1.237-2.094.538-2.818-.601-.619-2.371-.115-3.226-.54-.793-.39-1.512-.288-.89-1.122 3.593-4.845 14.173-9.487 19.952-8.627"/><path fill="#F0C8EE" d="M232.348 693.092c-7.794 2.411-8.159 2.277-12.854-4.377-4.69-6.667-4.693-7.063.192-13.589 4.886-6.527 5.258-6.639 12.972-4.009s7.944 2.953 7.829 11.106c-.111 8.14-.35 8.471-8.14 10.869z"/><path fill="#F0C8EE" d="M223.088 683.418c-5.508.235-15.267-2.301-19.984-7.006-.552-.545.204-.941.562-1.321.562-.605 2.257.647 2.382-.231.109-.782-.939-1.78-.922-2.593.024-.97 2.617.035 2.535-.97l-1.178-2.793c-.087-1.123 2.231.771 2.391-.258.109-.738-1.429-1.663-1.272-2.371.221-.994 2.433.106 2.734-.862.271-.832-1.011-2.14-1.049-3.101-.019-.882-.458-1.463.562-1.321 5.977.881 15.069 8.019 17.034 13.506"/><path fill="#F0C8EE" d="M225.326 673.635c-.042-5.518 2.842-15.179 7.71-19.725.567-.531.928.244 1.29.61.584.584-.727 2.231.144 2.383.774.135 1.816-.869 2.633-.821.975.055-.136 2.613.874 2.562l2.833-1.077c1.124-.043-.85 2.205.166 2.405.743.14 1.703-1.373 2.415-1.184.994.265-.19 2.42.765 2.761.823.297 2.176-.941 3.124-.939.887.011 1.477-.41 1.29.61-1.088 5.939-8.548 14.766-14.107 16.547"/><path fill="#F0C8EE" d="M233.608 678.376c5.158-1.941 15.225-2.589 21.168.413.692.342.099.952-.126 1.419-.346.749-2.353.095-2.197.963.141.776 1.454 1.408 1.683 2.184.279.938-2.488.781-2.104 1.709.33.779 1.67 1.508 1.987 2.282.433 1.046-2.367-.041-2.193.994.124.741 1.882 1.124 1.949 1.861.09 1.022-2.335.67-2.324 1.667.01.865 1.632 1.714 1.954 2.608.3.828.891 1.254-.126 1.419-5.942 1.028-16.808-2.906-20.404-7.508"/><path fill="#F0C8EE" d="M233.783 687.208c3.733 4.049 8.102 13.137 7.559 19.779-.065.782-.844.44-1.363.418-.834-.038-.963-2.153-1.719-1.67-.664.426-.755 1.871-1.389 2.38-.755.615-1.665-2.017-2.38-1.301l-1.373 2.692-1.737-1.661c-.638.391-.341 2.167-.993 2.509-.914.476-1.493-1.917-2.421-1.533-.81.335-.982 2.162-1.684 2.795-.659.588-.817 1.296-1.363.418-3.178-5.124-3.604-16.68-.689-21.731"/><path fill="#C3EC9A" d="M231.852 684.754c-3.377 3.017 2.967 6.938-1.547 7.395-4.51.444.947-4.656-2.967-6.938s-5.691 4.965-7.51.824c-1.815-4.154 4.72-.55 5.678-4.969.962-4.432-6.476-3.876-3.098-6.893 3.377-3.017 1.979 4.324 6.493 3.867 4.51-.444 1.684-7.365 5.594-5.069 3.914 2.282-3.499 3.211-1.684 7.365 1.815 4.154 7.52-.675 6.558 3.757-.953 4.405-4.139-2.356-7.516.662z"/></g><g><path fill="#F0C8EE" d="M248.764 879.667c3.586-4.291 12.146-9.853 18.885-10.178.787-.036.559.801.596 1.323.068.841-2.032 1.246-1.457 1.942.515.607 1.972.511 2.572 1.089.716.684-1.816 1.931-1 2.562l2.895 1.026c.904.703-2.105 1.151-1.44 1.969.472.597 2.218.068 2.651.673.592.855-1.735 1.75-1.228 2.634.437.758 2.301.702 3.035 1.331.682.58 1.414.658.596 1.323-4.732 3.868-16.277 5.803-21.741 3.523"/><path fill="#F0C8EE" d="M243.038 875.061c8.255-.434 8.58-.212 11.541 7.49 2.953 7.714 2.858 8.103-3.562 13.302-6.419 5.199-6.813 5.217-13.738.719-6.925-4.498-7.071-4.873-4.935-12.853 2.137-7.981 2.447-8.235 10.694-8.657z"/><path fill="#F0C8EE" d="M249.733 886.862c5.469 1.136 14.427 6.05 17.893 11.842.407.672-.434.874-.88 1.158-.703.455-2.056-1.196-2.398-.364-.301.741.48 1.982.262 2.776-.264.947-2.562-.684-2.731.324l.464 3.036c-.194 1.125-2-1.311-2.413-.34-.29.698.992 1.988.661 2.645-.464.921-2.364-.708-2.899.168-.472.75.462 2.353.26 3.307-.2.871.087 1.551-.88 1.158-5.653-2.349-12.813-11.617-13.382-17.495"/><path fill="#F0C8EE" d="M245.106 895.918c-1.328 5.431-6.559 14.206-12.47 17.464-.689.381-.851-.47-1.116-.92-.428-.719 1.267-2.011.45-2.377-.726-.325-1.999.402-2.79.154-.944-.296.782-2.533-.222-2.734l-3.05.355c-1.114-.237 1.382-1.955.434-2.403-.695-.322-2.013.926-2.667.564-.911-.507.787-2.33-.067-2.902-.735-.496-2.371.385-3.302.147-.868-.231-1.552.036-1.116-.92 2.542-5.564 12.061-12.384 17.964-12.754"/><path fill="#F0C8EE" d="M238.147 889.204c-5.549.626-15.599-1.235-20.692-5.659-.595-.508.139-.96.476-1.362.526-.65 2.335.49 2.398-.401.054-.797-1.079-1.744-1.112-2.563-.041-.99 2.638-.15 2.491-1.157-.131-.847-1.266-1.895-1.385-2.735-.166-1.135 2.315.627 2.401-.432.063-.759-1.57-1.571-1.453-2.312.165-1.027 2.46-.079 2.697-1.06.205-.852-1.177-2.089-1.272-3.046-.089-.887-.564-1.453.476-1.362 6.092.464 15.79 7.026 18.181 12.44"/><path fill="#F0C8EE" d="M240.175 880.473c-2.662-4.904-4.699-14.916-2.517-21.306.258-.752.939-.223 1.442-.072.81.245.412 2.354 1.275 2.067.758-.254 1.206-1.65 1.955-1.994.895-.417 1.135 2.394 2.015 1.868l2.017-2.304 1.294 2.063c.724-.225.872-2.044 1.598-2.219 1.016-.241.99 2.254 1.998 2.107.879-.128 1.501-1.88 2.348-2.328.793-.414 1.124-1.071 1.442-.072 1.851 5.822-.599 17.28-4.717 21.519"/><path fill="#C3EC9A" d="M241.456 883.375c4.067-2.126-1.193-7.552 3.355-6.88 4.541.684-2.086 4.338 1.193 7.552 3.279 3.214 6.823-3.465 7.582 1.054.752 4.531-4.773-.631-6.811 3.472-2.045 4.115 5.399 5.415 1.333 7.541s-.871-4.739-5.419-5.41c-4.541-.684-3.482 6.817-6.753 3.592s4.234-2.286 3.482-6.817c-.752-4.531-7.555-1.203-5.51-5.318 2.037-4.103 3.469 3.334 7.548 1.215z"/></g><g><path fill="#F0C8EE" d="M218.753 843.98c-3.284 6.819-12.674 16.953-21.41 19.612-1.021.308-.999-.866-1.22-1.539-.368-1.081 2.254-2.309 1.268-3.031-.877-.626-2.757-.018-3.736-.577-1.166-.66 1.743-3.136.463-3.693l-4.139-.388c-1.419-.623 2.381-2.207 1.238-3.06-.817-.627-2.934.646-3.703-.006-1.06-.926 1.697-2.871.739-3.864-.824-.849-3.252-.159-4.424-.741-1.087-.535-2.074-.396-1.22-1.539 4.929-6.643 19.437-13.006 27.362-11.825"/><path fill="#F0C8EE" d="M227.787 848.146c-10.688 3.304-11.189 3.121-17.625-6.005-6.43-9.144-6.434-9.686.268-18.634 6.701-8.948 7.212-9.102 17.79-5.494 10.578 3.608 10.893 4.051 10.733 15.232-.155 11.163-.477 11.598-11.165 14.902z"/><path fill="#F0C8EE" d="M215.093 834.878c-7.553.321-20.935-3.16-27.402-9.613-.758-.748.28-1.29.771-1.811.771-.83 3.094.888 3.267-.317.149-1.073-1.287-2.442-1.264-3.556.033-1.331 3.588.048 3.477-1.33l-1.615-3.83c-.119-1.54 3.059 1.057 3.279-.353.15-1.012-1.96-2.281-1.743-3.251.304-1.363 3.336.146 3.749-1.181.372-1.14-1.386-2.935-1.437-4.253-.026-1.21-.627-2.007.771-1.811 8.196 1.21 20.662 11 23.355 18.526"/><path fill="#F0C8EE" d="M218.164 821.462c-.056-7.567 3.901-20.814 10.579-27.047.778-.728 1.273.335 1.769.837.8.801-.997 3.059.196 3.268 1.061.186 2.49-1.191 3.611-1.126 1.337.075-.187 3.583 1.197 3.514l3.885-1.477c1.541-.058-1.166 3.024.227 3.298 1.019.192 2.335-1.882 3.312-1.623 1.363.364-.261 3.319 1.049 3.786 1.128.408 2.984-1.29 4.284-1.287 1.216.016 2.025-.561 1.769.837-1.493 8.143-11.725 20.246-19.349 22.686"/><path fill="#F0C8EE" d="M229.519 827.967c7.074-2.66 20.879-3.546 29.027.572.948.469.135 1.305-.174 1.946-.475 1.027-3.226.13-3.013 1.32.194 1.064 1.993 1.931 2.308 2.995.382 1.286-3.412 1.07-2.886 2.343.453 1.069 2.289 2.068 2.724 3.13.593 1.435-3.245-.057-3.007 1.362.169 1.016 2.581 1.542 2.672 2.553.124 1.402-3.203.918-3.188 2.285.014 1.186 2.237 2.351 2.679 3.576.411 1.135 1.222 1.72-.174 1.946-8.148 1.409-23.048-3.989-27.978-10.301"/><path fill="#F0C8EE" d="M229.756 840.078c5.118 5.553 11.107 18.017 10.361 27.125-.089 1.072-1.158.604-1.869.572-1.144-.053-1.32-2.953-2.357-2.29-.911.584-1.036 2.565-1.905 3.264-1.036.844-2.282-2.766-3.263-1.784l-1.884 3.691c-1.095 1.085-1.158-3.02-2.381-2.278-.875.536-.468 2.971-1.362 3.441-1.254.652-2.046-2.629-3.319-2.103-1.111.459-1.347 2.965-2.31 3.832-.904.807-1.12 1.777-1.869.572-4.357-7.027-4.938-22.874-.939-29.8"/><path fill="#C3EC9A" d="M227.109 836.712c-4.632 4.137 4.067 9.515-2.124 10.14-6.185.607 1.3-6.384-4.067-9.515-5.367-3.131-7.805 6.807-10.299 1.128-2.488-5.697 6.473-.753 7.787-6.813 1.32-6.077-8.879-5.317-4.247-9.454 4.632-4.137 2.712 5.93 8.903 5.305 6.185-.607 2.311-10.099 7.672-6.95 5.367 3.131-4.799 4.403-2.311 10.099 2.488 5.697 10.313-.923 8.992 5.154-1.308 6.041-5.675-3.231-10.307.905z"/></g><g><path fill="#fff" d="M162.688 679.17c-5.027 5.461-16.729 12.291-25.685 12.293-1.046-.003-.69-1.098-.706-1.792-.037-1.12 2.774-1.523 2.055-2.482-.644-.838-2.582-.803-3.341-1.608-.906-.953 2.53-2.445 1.488-3.333l-3.772-1.545c-1.154-.989 2.864-1.392 2.035-2.518-.588-.821-2.937-.231-3.472-1.062-.73-1.171 2.411-2.21 1.796-3.415-.531-1.032-2.991-1.066-3.939-1.958-.868-.812-1.833-.963-.706-1.792 6.52-4.827 21.949-6.658 29.047-3.289"/><path fill="#fff" d="M169.976 685.657c-10.971.051-11.389-.264-14.824-10.663-3.425-10.415-3.273-10.924 5.567-17.409 8.841-6.485 9.364-6.483 18.259-.08 8.896 6.403 9.066 6.91 5.725 17.355-3.33 10.43-3.756 10.747-14.728 10.797z"/><path fill="#fff" d="M161.851 669.585c-7.179-1.854-18.742-8.938-22.969-16.838-.497-.917.631-1.131 1.24-1.48.96-.559 2.65 1.716 3.156.635.446-.964-.51-2.658-.171-3.697.411-1.239 3.353 1.069 3.642-.256l-.422-4.055c.328-1.479 2.569 1.865 3.177.604.429-.907-1.188-2.699-.708-3.548.674-1.192 3.089 1.089 3.854-.038.674-.964-.463-3.149-.135-4.4.321-1.143-.016-2.062 1.24-1.48 7.345 3.473 16.249 16.217 16.629 24.046"/><path fill="#fff" d="M168.56 657.873c2.106-7.116 9.599-18.417 17.642-22.36.937-.461 1.099.677 1.421 1.29.522.98-1.808 2.586-.748 3.122.942.477 2.676-.407 3.709-.026 1.233.452-1.198 3.309.121 3.639l4.067-.277c1.462.385-1.957 2.505-.728 3.159.901.471 2.728-1.099 3.571-.578 1.175.731-1.192 3.04-.096 3.851.943.705 3.168-.359 4.387.015 1.137.362 2.06.051 1.421 1.29-3.724 7.215-16.778 15.651-24.628 15.767"/><path fill="#fff" d="M177.359 667.216c7.397-.477 20.602 2.629 27.074 8.818.756.711-.246 1.264-.718 1.776-.738.828-3.064-.799-3.204.379-.122 1.054 1.319 2.381 1.311 3.468-.009 1.315-3.507.031-3.377 1.375.12 1.132 1.558 2.593 1.663 3.714.147 1.516-3.029-.979-3.21.42-.131 1.002 1.982 2.183 1.779 3.158-.284 1.351-3.267-.052-3.643 1.234-.325 1.117 1.428 2.844 1.493 4.12.062 1.182.656 1.962-.718 1.776-8.047-1.003-20.488-10.318-23.313-17.648"/><path fill="#fff" d="M174.126 678.648c3.218 6.67 5.281 20.074 1.983 28.407-.39.981-1.259.236-1.917.004-1.059-.376-.396-3.148-1.558-2.821-1.022.288-1.704 2.111-2.718 2.519-1.213.496-1.352-3.247-2.552-2.605l-2.821 2.926c-1.337.706-.225-3.164-1.584-2.817-.974.253-1.287 2.654-2.259 2.84-1.363.254-1.17-3.051-2.514-2.92-1.173.114-2.11 2.398-3.261 2.937-1.078.499-1.558 1.348-1.917.004-2.084-7.836 1.893-22.872 7.622-28.229"/><path opacity=".433" fill="#73D216" enable-background="new" d="M172.602 674.735c-5.527 2.56 1.101 10.088-4.886 8.909-5.976-1.195 3.041-5.619-1.101-10.088-4.142-4.469-9.266 4.16-9.986-1.88s6.288 1.14 9.25-4.171c2.973-5.326-6.814-7.522-1.288-10.082s.853 6.338 6.84 7.518c5.976 1.195 5.05-8.817 9.181-4.333 4.142 4.469-5.759 2.762-5.05 8.817.709 6.055 9.94 2.076 6.967 7.401s-4.387-4.64-9.929-2.091z"/></g><g><path fill="#fff" d="M102.628 747.181c-4.169 8.625-16.073 21.436-27.135 24.786-1.293.388-1.263-1.098-1.542-1.95-.464-1.369 2.857-2.918 1.611-3.834-1.109-.794-3.49-.027-4.728-.737-1.475-.838 2.212-3.967.593-4.674l-5.238-.498c-1.795-.791 3.018-2.79 1.572-3.872-1.033-.795-3.714.812-4.687-.013-1.34-1.174 2.153-3.631.942-4.89-1.042-1.077-4.116-.207-5.598-.946-1.375-.679-2.624-.504-1.542-1.95 6.25-8.4 24.626-16.429 34.655-14.919"/><path fill="#fff" d="M114.078 752.478c-13.535 4.163-14.168 3.93-22.299-7.633-8.123-11.586-8.127-12.272.372-23.587 8.498-11.315 9.145-11.509 22.527-6.923 13.382 4.586 13.782 5.147 13.559 19.299-.215 14.129-.647 14.672-14.159 18.843z"/><path fill="#fff" d="M98.033 735.66c-9.561.393-26.494-4.037-34.667-12.216-.958-.948.357-1.633.979-2.291.978-1.049 3.915 1.13 4.136-.395.191-1.357-1.624-3.093-1.593-4.503.044-1.684 4.542.068 4.403-1.677l-2.037-4.851c-.147-1.95 3.871 1.344 4.151-.441.191-1.281-2.477-2.89-2.201-4.119.387-1.724 4.223.191 4.747-1.488.472-1.443-1.749-3.717-1.811-5.386-.031-1.532-.791-2.541.979-2.291 10.372 1.546 26.134 13.96 29.53 23.491"/><path fill="#fff" d="M101.952 718.662c-.058-9.578 4.975-26.339 13.438-34.217.986-.92 1.61.426 2.238 1.063 1.011 1.016-1.267 3.87.243 4.136 1.342.237 3.155-1.502 4.572-1.419 1.692.098-.243 4.535 1.509 4.45l4.921-1.862c1.95-.071-1.481 3.826.281 4.174 1.289.245 2.959-2.378 4.196-2.049 1.725.463-.336 4.2 1.321 4.794 1.428.518 3.779-1.628 5.425-1.621 1.539.022 2.564-.707 2.238 1.063-1.904 10.305-14.877 25.606-24.531 28.682"/><path fill="#fff" d="M116.307 726.938c8.959-3.354 26.434-4.452 36.741.775 1.2.596.169 1.653-.223 2.462-.603 1.299-4.084.159-3.817 1.666.243 1.348 2.52 2.448 2.916 3.795.481 1.628-4.321 1.349-3.657 2.961.571 1.353 2.894 2.621 3.442 3.967.749 1.817-4.108-.077-3.809 1.719.213 1.287 3.264 1.957 3.378 3.236.154 1.775-4.056 1.157-4.039 2.886.016 1.501 2.828 2.98 3.384 4.531.518 1.438 1.543 2.179-.223 2.462-10.316 1.769-29.166-5.09-35.396-13.089"/><path fill="#fff" d="M116.585 742.269c6.468 7.038 14.027 22.825 13.066 34.352-.115 1.357-1.467.762-2.366.721-1.448-.069-1.666-3.74-2.98-2.903-1.154.738-1.317 3.245-2.417 4.128-1.313 1.066-2.884-3.505-4.127-2.264l-2.391 4.668c-1.387 1.371-1.46-3.825-3.01-2.888-1.109.676-.597 3.76-1.73 4.353-1.588.824-2.586-3.332-4.197-2.668-1.407.579-1.71 3.751-2.931 4.847-1.145 1.02-1.421 2.248-2.366.721-5.503-8.902-6.21-28.962-1.135-37.722"/><path opacity=".433" fill="#73D216" enable-background="new" d="M113.24 738.004c-5.871 5.228 5.131 12.051-2.706 12.831s1.657-8.079-5.131-12.051c-6.788-3.973-9.892 8.602-13.038 1.41-3.139-7.215 8.194-.942 9.869-8.609 1.682-7.69-11.229-6.746-5.359-11.974s3.423 7.511 11.26 6.731c7.83-.757 2.943-12.779 9.723-8.784 6.788 3.973-6.082 5.564-2.943 12.779s13.055-1.151 11.373 6.539-7.177-4.1-13.048 1.128z"/></g><g><path fill="#F0C8EE" d="M98.696 666.244c-3.445 7.118-13.276 17.688-22.409 20.449-1.068.32-1.042-.907-1.272-1.611-.383-1.13 2.36-2.408 1.331-3.164-.915-.656-2.881-.024-3.903-.61-1.217-.692 1.827-3.273.491-3.858l-4.323-.413c-1.481-.653 2.493-2.301 1.299-3.195-.852-.656-3.066.669-3.869-.013-1.105-.97 1.778-2.996.78-4.036-.86-.889-3.397-.172-4.621-.783-1.135-.561-2.166-.417-1.272-1.611 5.163-6.931 20.334-13.552 28.612-12.302"/><path fill="#F0C8EE" d="M108.127 670.614c-11.174 3.431-11.697 3.239-18.404-6.309-6.701-9.567-6.703-10.133.316-19.47s7.553-9.496 18.598-5.706c11.045 3.791 11.374 4.255 11.184 15.936-.183 11.663-.521 12.117-11.695 15.548z"/><path fill="#F0C8EE" d="M94.889 656.726c-7.893.321-21.868-3.343-28.612-10.098-.79-.782.295-1.348.809-1.891.807-.866 3.231.934 3.414-.325.158-1.12-1.339-2.554-1.314-3.717.037-1.39 3.749.058 3.635-1.382l-1.68-4.005c-.121-1.61 3.194 1.111 3.426-.362.159-1.058-2.043-2.387-1.815-3.401.32-1.423 3.485.159 3.919-1.226.391-1.191-1.442-3.069-1.493-4.446-.025-1.264-.652-2.098.809-1.891 8.561 1.28 21.567 11.534 24.366 19.402"/><path fill="#F0C8EE" d="M98.13 642.696c-.044-7.907 4.117-21.739 11.106-28.239.814-.759 1.329.352 1.847.878.834.839-1.048 3.194.199 3.415 1.108.196 2.604-1.239 3.775-1.169 1.397.081-.202 3.744 1.244 3.674l4.062-1.535c1.61-.058-1.224 3.157.23 3.446 1.064.203 2.444-1.962 3.464-1.69 1.423.383-.279 3.467 1.088 3.958 1.178.428 3.12-1.342 4.479-1.336 1.271.019 2.117-.583 1.847.878-1.576 8.506-12.291 21.131-20.261 23.666"/><path fill="#F0C8EE" d="M109.976 649.534c7.397-2.765 21.822-3.664 30.328.654.99.492.139 1.364-.185 2.033-.498 1.072-3.371.129-3.151 1.374.2 1.112 2.079 2.022 2.405 3.134.396 1.344-3.568 1.112-3.02 2.442.471 1.117 2.388 2.165 2.84 3.276.617 1.5-3.391-.066-3.145 1.418.175 1.062 2.694 1.616 2.787 2.673.127 1.465-3.348.953-3.335 2.381.012 1.239 2.333 2.461 2.792 3.742.427 1.187 1.273 1.799-.185 2.033-8.516 1.456-24.074-4.213-29.213-10.818"/><path fill="#F0C8EE" d="M110.2 662.188c5.337 5.812 11.569 18.847 10.772 28.361-.095 1.12-1.211.629-1.953.594-1.195-.057-1.373-3.088-2.458-2.397-.953.608-1.088 2.679-1.997 3.406-1.084.879-2.379-2.895-3.406-1.871l-1.976 3.853c-1.146 1.131-1.204-3.158-2.483-2.385-.916.558-.495 3.103-1.43 3.592-1.311.679-2.133-2.751-3.464-2.204-1.161.477-1.413 3.095-2.421 4-.946.841-1.174 1.855-1.953.594-4.539-7.35-5.115-23.91-.922-31.138"/><path fill="#C3EC9A" d="M107.441 658.666c-4.848 4.313 4.23 9.95-2.239 10.591-6.463.622 1.371-6.668-4.23-9.95-5.601-3.282-8.168 7.096-10.763 1.158s6.764-.774 8.15-7.103c1.391-6.347-9.267-5.573-4.419-9.886s2.822 6.201 9.292 5.56c6.463-.622 2.434-10.548 8.029-7.247 5.601 3.282-5.023 4.591-2.434 10.548s10.777-.945 9.385 5.402c-1.379 6.309-5.904-3.381-10.771.926z"/></g><g><path fill="#fff" d="M209.981 733.503c-2.499 5.159-9.629 12.82-16.251 14.819-.774.231-.755-.658-.922-1.168-.277-.82 1.712-1.745.966-2.293-.663-.476-2.089-.018-2.829-.444-.882-.502 1.326-2.373.357-2.797l-3.134-.301c-1.074-.474 1.808-1.668.943-2.316-.618-.476-2.223.484-2.805-.01-.801-.703 1.29-2.172.566-2.926-.623-.645-2.449-.121-3.35-.569-.823-.407-1.57-.303-.922-1.168 3.745-5.023 14.745-9.819 20.746-8.91"/><path fill="#fff" d="M216.831 736.678c-8.101 2.484-8.481 2.345-13.34-4.579-4.855-6.937-4.857-7.348.234-14.115s5.478-6.882 13.484-4.131c8.006 2.751 8.245 3.088 8.104 11.556-.15 8.45-.395 8.78-8.483 11.269z"/><path fill="#fff" d="M207.224 726.601c-5.722.23-15.852-2.429-20.74-7.328-.573-.568.215-.977.587-1.371.586-.627 2.342.678 2.475-.234.115-.812-.97-1.852-.951-2.695.027-1.008 2.718.043 2.636-1.001l-1.217-2.904c-.087-1.167 2.316.806 2.484-.262.115-.767-1.481-1.731-1.315-2.466.233-1.032 2.527.117 2.842-.888.283-.863-1.045-2.225-1.081-3.224-.018-.917-.472-1.521.587-1.371 6.206.93 15.632 8.368 17.659 14.073"/><path fill="#fff" d="M209.587 716.45c-.03-5.732 2.991-15.759 8.059-20.469.59-.55.963.256 1.339.637.605.608-.76 2.315.143 2.476.803.142 1.889-.898 2.737-.847 1.013.059-.148 2.714.901 2.664l2.946-1.112c1.167-.042-.888 2.288.166 2.498.771.147 1.772-1.421 2.512-1.224 1.032.278-.203 2.514.788 2.869.854.311 2.262-.972 3.247-.967.921.014 1.535-.422 1.339.637-1.145 6.166-8.916 15.315-14.695 17.151"/><path fill="#fff" d="M218.177 721.396c5.363-2.003 15.821-2.65 21.986.483.718.357.1.989-.135 1.474-.361.777-2.444.093-2.285.995.145.806 1.507 1.466 1.743 2.272.287.975-2.587.805-2.19 1.77.341.81 1.731 1.57 2.058 2.376.447 1.088-2.458-.048-2.28 1.027.127.77 1.952 1.172 2.019 1.938.091 1.062-2.428.69-2.418 1.725.009.898 1.691 1.785 2.023 2.714.309.861.922 1.305-.135 1.474-6.174 1.053-17.451-3.061-21.175-7.851"/><path fill="#fff" d="M218.336 730.57c3.867 4.215 8.382 13.666 7.801 20.564-.069.812-.878.455-1.416.43-.867-.042-.995-2.239-1.781-1.739-.691.441-.789 1.942-1.448 2.469-.786.637-1.724-2.099-2.468-1.357l-1.433 2.792-1.8-1.73c-.664.404-.359 2.25-1.037 2.604-.951.492-1.546-1.995-2.511-1.599-.842.346-1.025 2.244-1.757 2.899-.686.61-.851 1.344-1.416.43-3.288-5.33-3.701-17.335-.66-22.574"/><path opacity=".433" fill="#73D216" enable-background="new" d="M216.337 728.016c-3.516 3.125 3.064 7.214-1.626 7.677-4.686.449.996-4.834-3.064-7.214-4.06-2.381-5.924 5.142-7.803.837-1.875-4.319 4.904-.56 5.91-5.147s-6.717-4.043-3.201-7.168c3.516-3.125 2.044 4.496 6.735 4.034 4.686-.449 1.768-7.646 5.823-5.251 4.06 2.381-3.643 3.327-1.768 7.646 1.875 4.319 7.813-.682 6.803 3.919-1.015 4.569-4.293-2.457-7.809.668z"/></g><g><path fill="#F0C8EE" d="M165.373 764.661c-3.616 7.496-13.949 18.634-23.557 21.552-1.123.338-1.098-.953-1.341-1.693-.404-1.189 2.481-2.537 1.397-3.332-.964-.689-3.032-.021-4.108-.637-1.282-.727 1.919-3.448.512-4.061l-4.551-.429c-1.56-.686 2.62-2.426 1.363-3.365-.898-.69-3.226.708-4.072-.009-1.165-1.019 1.868-3.156.815-4.248-.906-.935-3.576-.177-4.864-.818-1.195-.589-2.28-.436-1.341-1.693 5.424-7.302 21.383-14.29 30.097-12.985"/><path fill="#F0C8EE" d="M175.325 769.255c-11.755 3.626-12.306 3.424-19.378-6.616-7.065-10.06-7.069-10.656.307-20.492 7.375-9.836 7.937-10.005 19.566-6.03 11.629 3.975 11.977 4.463 11.793 16.757-.177 12.275-.552 12.747-12.288 16.38z"/><path fill="#F0C8EE" d="M161.374 754.655c-8.306.348-23.02-3.489-30.127-10.589-.833-.823.309-1.419.849-1.991.849-.912 3.402.979 3.593-.346.165-1.179-1.413-2.686-1.387-3.911.038-1.463 3.946.056 3.824-1.46l-1.773-4.213c-.129-1.694 3.364 1.165 3.606-.386.165-1.113-2.154-2.509-1.915-3.577.335-1.498 3.669.163 4.123-1.296.409-1.254-1.522-3.228-1.577-4.678-.028-1.331-.689-2.207.849-1.991 9.012 1.336 22.714 12.11 25.671 20.388"/><path fill="#F0C8EE" d="M164.76 739.905c-.057-8.321 4.304-22.886 11.651-29.736.856-.8 1.399.369 1.945.922.879.882-1.099 3.363.214 3.594 1.166.205 2.74-1.308 3.971-1.236 1.47.084-.208 3.94 1.314 3.865l4.274-1.621c1.694-.063-1.284 3.325.247 3.626 1.12.212 2.569-2.068 3.644-1.783 1.499.401-.289 3.649 1.151 4.164 1.241.449 3.282-1.417 4.712-1.412 1.337.018 2.227-.616 1.945.922-1.647 8.954-12.907 22.256-21.292 24.935"/><path fill="#F0C8EE" d="M177.243 747.065c7.781-2.92 22.962-3.886 31.92.648 1.042.517.148 1.436-.192 2.14-.523 1.129-3.548.141-3.315 1.45.212 1.171 2.191 2.125 2.536 3.295.419 1.414-3.753 1.175-3.175 2.575.497 1.175 2.516 2.275 2.993 3.444.652 1.578-3.569-.065-3.308 1.496.186 1.118 2.837 1.698 2.937 2.809.135 1.542-3.522 1.008-3.507 2.51.014 1.304 2.459 2.587 2.943 3.934.451 1.249 1.342 1.892-.192 2.14-8.961 1.544-25.342-4.402-30.76-11.347"/><path fill="#F0C8EE" d="M177.496 760.384c5.624 6.11 12.202 19.82 11.375 29.835-.099 1.179-1.274.663-2.055.628-1.258-.059-1.45-3.248-2.591-2.52-1.002.642-1.141 2.821-2.097 3.588-1.14.927-2.508-3.043-3.587-1.964l-2.074 4.058c-1.204 1.192-1.271-3.322-2.617-2.506-.963.588-.516 3.267-1.5 3.783-1.379.717-2.248-2.893-3.649-2.315-1.222.504-1.483 3.26-2.543 4.213-.994.887-1.233 1.954-2.055.628-4.787-7.73-5.415-25.157-1.012-32.771"/><path fill="#C3EC9A" d="M174.587 756.681c-5.097 4.546 4.466 10.466-2.342 11.149-6.802.663 1.434-7.019-4.466-10.466-5.9-3.447-8.588 7.48-11.326 1.234-2.732-6.266 7.118-.824 8.568-7.486 1.456-6.682-9.761-5.853-4.664-10.399 5.097-4.546 2.979 6.523 9.787 5.84 6.802-.663 2.548-11.104 8.441-7.638 5.9 3.447-5.28 4.838-2.548 11.104 2.732 6.266 11.341-1.009 9.885 5.673-1.443 6.642-6.238-3.557-11.335.989z"/></g><g><path fill="#fff" d="M303.433 880.233c3.341-3.963 11.298-9.084 17.546-9.358.73-.03.515.745.547 1.229.06.78-1.889 1.147-1.358 1.794.475.565 1.826.482 2.38 1.02.661.637-1.691 1.783-.937 2.371l2.679.963c.835.655-1.956 1.058-1.343 1.819.435.555 2.056.072 2.455.635.545.795-1.615 1.615-1.149 2.437.402.704 2.119.653 2.808 1.246.63.54 1.308.616.547 1.229-4.402 3.566-15.111 5.313-20.166 3.178"/><path fill="#fff" d="M298.151 875.929c7.653-.369 7.954-.162 10.667 6.989 2.706 7.162 2.616 7.522-3.355 12.315-5.971 4.793-6.336 4.808-12.737.611s-6.535-4.545-4.522-11.934 2.294-7.612 9.947-7.981z"/><path fill="#fff" d="M304.309 886.895c5.065 1.075 13.348 5.666 16.537 11.049.375.625-.406.808-.82 1.07-.653.419-1.901-1.117-2.221-.347-.282.686.437 1.839.232 2.574-.249.877-2.372-.644-2.533.289l.418 2.816c-.184 1.042-1.849-1.223-2.235-.325-.272.646.911 1.847.602 2.454-.434.852-2.188-.666-2.688.144-.441.693.419 2.183.228 3.066-.189.807.074 1.438-.82 1.07-5.23-2.2-11.83-10.82-12.333-16.271"/><path fill="#fff" d="M299.977 895.281c-1.253 5.029-6.137 13.141-11.629 16.137-.64.35-.787-.439-1.031-.857-.394-.668 1.183-1.859.427-2.201-.672-.304-1.855.365-2.587.131-.874-.278.735-2.345-.195-2.535l-2.829.317c-1.032-.224 1.289-1.807.412-2.226-.643-.301-1.87.85-2.474.512-.842-.474.739-2.157-.05-2.69-.679-.463-2.199.347-3.061.123-.804-.218-1.439.027-1.031-.857 2.379-5.147 11.23-11.43 16.703-11.749"/><path fill="#fff" d="M293.561 889.019c-5.146.558-14.454-1.208-19.157-5.329-.549-.473.133-.889.447-1.261.49-.6 2.162.464 2.224-.362.053-.739-.993-1.621-1.02-2.38-.034-.918 2.446-.128 2.314-1.062-.118-.786-1.166-1.762-1.273-2.541-.149-1.053 2.143.591 2.227-.391.061-.703-1.449-1.463-1.337-2.149.157-.951 2.281-.063 2.504-.972.193-.789-1.083-1.941-1.167-2.829-.079-.823-.517-1.349.447-1.261 5.645.455 14.608 6.576 16.802 11.604"/><path fill="#fff" d="M295.469 880.945c-2.448-4.556-4.295-13.845-2.247-19.759.242-.696.871-.203 1.337-.061.75.23.372 2.184 1.173 1.921.704-.232 1.125-1.525 1.82-1.84.831-.383 1.042 2.224 1.86 1.74l1.879-2.127 1.191 1.917c.672-.206.817-1.891 1.49-2.05.943-.219.909 2.093 1.843 1.961.815-.115 1.399-1.737 2.186-2.148.737-.381 1.046-.988 1.337-.061 1.692 5.404-.625 16.015-4.459 19.927"/><path opacity=".433" fill="#73D216" enable-background="new" d="M296.651 883.629c3.778-1.954-1.075-7.005 3.138-6.364s-1.951 4.013 1.075 7.005 6.338-3.184 7.024 1.008c.679 4.203-4.422-.604-6.327 3.191-1.912 3.806 4.983 5.041 1.205 6.995-3.778 1.954-.788-4.396-5.001-5.037-4.206-.652-3.255 6.305-6.274 3.302-3.026-2.992 3.934-2.102 3.255-6.305-.679-4.203-6.998-1.146-5.086-4.952 1.898-3.784 3.202 3.104 6.991 1.157z"/></g></g><path fill="#2E3436" stroke="#000" stroke-width="0.774792" d="M282.181 738.474s149.84 90.528 137.078 106.779c-19.005-11.201-119.908-91.63-141.944-93.742"/><g><path fill="#fff" d="M399.38 811.905c.608-5.414 4.575-14.533 9.877-18.419.621-.452.885.351 1.195.755.508.647-.982 2.105-.14 2.361.745.217 1.877-.644 2.676-.497.95.171-.438 2.545.565 2.619l2.904-.722c1.112.085-1.092 2.066-.113 2.374.704.231 1.839-1.137 2.517-.878.94.377-.469 2.354.418 2.801.762.381 2.233-.666 3.182-.549.866.104 1.503-.225 1.195.755-1.767 5.686-10.109 13.462-15.773 14.545"/><path fill="#fff" d="M392.252 811.225c6.474-4.788 6.858-4.783 13.402-.115 6.545 4.681 6.676 5.049 4.254 12.723s-2.733 7.9-10.777 7.967c-8.044.066-8.365-.16-10.917-7.793-2.552-7.62-2.437-7.992 4.038-12.781z"/><path fill="#fff" d="M404.034 817.217c5.055-2.016 14.974-2.836 20.903.008.693.328.117.943-.092 1.414-.326.747-2.314.133-2.144.993.154.764 1.455 1.353 1.705 2.115.294.912-2.449.821-2.046 1.731l2.009 2.218c.447 1.018-2.33.01-2.143 1.02.139.723 1.874 1.083 1.958 1.794.118.998-2.301.695-2.266 1.694.019.863 1.64 1.664 1.988 2.547.306.816.904 1.214-.092 1.414-5.855 1.129-16.655-2.555-20.275-7.026"/><path fill="#fff" d="M405.14 827.076c1.839 5.127 2.304 15.068-.749 20.892-.355.679-.944.076-1.401-.148-.734-.354-.051-2.315-.911-2.173-.765.126-1.409 1.402-2.185 1.624-.926.267-.726-2.479-1.65-2.102l-2.288 1.928c-1.033.406.072-2.332-.939-2.186-.738.112-1.139 1.834-1.864 1.891-1.013.077-.613-2.317-1.613-2.322-.864-.009-1.72 1.587-2.604 1.894-.83.279-1.242.863-1.401-.148-.924-5.887 3.147-16.544 7.745-20.017"/><path fill="#fff" d="M395.878 825.346c-4.173 3.491-13.339 7.378-19.855 6.521-.756-.093-.402-.855-.345-1.363.078-.81 2.161-.856 1.733-1.614-.385-.677-1.814-.838-2.28-1.485-.565-.783 2.063-1.539 1.403-2.279-.562-.618-2.047-.86-2.595-1.478-.745-.834 2.218-.734 1.719-1.641-.357-.65-2.12-.433-2.423-1.098-.418-.923 1.957-1.386 1.622-2.311-.292-.802-2.079-1.065-2.671-1.792-.549-.673-1.239-.877-.345-1.363 5.2-2.896 16.606-2.776 21.458.339"/><path fill="#fff" d="M392.834 817.175c-4.798-2.554-11.833-9.596-13.494-15.961-.195-.75.643-.686 1.133-.834.79-.237 1.6 1.692 2.146.995.48-.614.093-1.99.517-2.67.503-.82 2.209 1.336 2.641.436l.401-2.956c.485-.998 1.506 1.776 2.16.981.467-.572-.389-2.13.106-2.661.697-.742 2.016 1.299 2.755.639.645-.576.209-2.335.657-3.153.422-.763.338-1.474 1.133-.834 4.632 3.736 8.799 14.364 7.73 20.021"/><path opacity=".433" fill="#73D216" enable-background="new" d="M395.434 818.831c2.162-3.913-5.027-5.496-.971-7.394 4.057-1.884.636 4.646 5.027 5.496 4.391.85 3.682-6.482 6.728-3.218s-4.218 2.052-3.669 6.481c.55 4.443 7.297 1.499 5.135 5.411-2.162 3.913-3.254-3.383-7.311-1.485s.834 7.411-3.557 6.547c-4.391-.85 2.212-4.133-.834-7.411-3.046-3.278-6.786 3.082-7.335-1.361-.549-4.415 4.61.845 6.786-3.068z"/></g><g><path fill="#F0C8EE" d="M372.609 776.093c.634-5.611 4.753-15.06 10.252-19.083.644-.468.917.364 1.238.784.526.671-1.019 2.181-.147 2.447.772.225 1.946-.666 2.774-.513.984.178-.456 2.638.583 2.715l3.01-.745c1.153.089-1.134 2.141-.118 2.46.73.24 1.907-1.177 2.609-.907.974.391-.488 2.44.431 2.903.79.395 2.329-.688 3.298-.567.897.109 1.558-.232 1.238.784-1.836 5.892-10.488 13.945-16.36 15.063"/><path fill="#F0C8EE" d="M365.221 775.383c6.714-4.958 7.112-4.952 13.891-.109 6.78 4.857 6.915 5.238 4.398 13.19-2.517 7.952-2.839 8.186-11.177 8.248-8.338.063-8.669-.172-11.309-8.086-2.639-7.9-2.519-8.286 4.195-13.244z"/><path fill="#F0C8EE" d="M377.427 781.603c5.241-2.085 15.522-2.928 21.665.025.717.34.12.978-.097 1.465-.339.774-2.398.136-2.223 1.027.159.792 1.507 1.403 1.765 2.193.304.945-2.539.849-2.121 1.792l2.08 2.3c.463 1.056-2.415.008-2.222 1.056.144.75 1.942 1.124 2.028 1.861.121 1.034-2.386.718-2.35 1.754.019.895 1.699 1.726 2.059 2.641.316.846.936 1.259-.097 1.465-6.07 1.165-17.26-2.661-21.009-7.299"/><path fill="#F0C8EE" d="M378.566 791.808c1.902 5.316 2.376 15.619-.793 21.653-.369.704-.979.077-1.452-.154-.761-.367-.051-2.4-.943-2.253-.793.13-1.461 1.452-2.266 1.682-.96.276-.75-2.57-1.708-2.18l-2.373 1.996c-1.071.42.077-2.417-.971-2.267-.765.116-1.182 1.9-1.933 1.959-1.05.079-.633-2.402-1.67-2.408-.895-.009-1.784 1.643-2.7 1.961-.86.288-1.288.894-1.452-.154-.953-6.103 3.275-17.145 8.043-20.741"/><path fill="#F0C8EE" d="M368.968 790.021c-4.328 3.615-13.832 7.637-20.585 6.742-.783-.097-.416-.886-.357-1.413.082-.84 2.24-.885 1.797-1.672-.398-.702-1.879-.869-2.362-1.541-.585-.812 2.14-1.594 1.456-2.361-.582-.641-2.121-.893-2.689-1.534-.771-.864 2.3-.759 1.782-1.7-.369-.674-2.197-.451-2.51-1.14-.432-.957 2.03-1.435 1.683-2.394-.302-.832-2.154-1.105-2.767-1.859-.569-.698-1.284-.91-.357-1.413 5.392-2.998 17.214-2.864 22.241.368"/><path fill="#F0C8EE" d="M365.82 781.55c-4.971-2.651-12.257-9.955-13.974-16.553-.201-.777.667-.71 1.175-.863.819-.245 1.657 1.755 2.224 1.033.498-.636.098-2.062.538-2.767.522-.849 2.288 1.386 2.737.454l.418-3.063c.504-1.034 1.559 1.842 2.238 1.018.485-.593-.402-2.208.112-2.758.722-.768 2.088 1.348 2.855.664.669-.597.219-2.42.684-3.268.438-.791.351-1.527 1.175-.863 4.798 3.876 9.108 14.895 7.996 20.757"/><path fill="#C3EC9A" d="M368.512 783.269c2.244-4.054-5.206-5.7-1-7.665 4.206-1.95.656 4.816 5.206 5.7 4.55.884 3.822-6.715 6.976-3.33s-4.373 2.124-3.807 6.715c.566 4.605 7.562 1.559 5.318 5.613-2.244 4.054-3.37-3.509-7.576-1.545-4.206 1.95.858 7.682-3.692 6.783-4.55-.884 2.296-4.282-.858-7.682s-7.036 3.189-7.602-1.416c-.565-4.577 4.778.879 7.036-3.175z"/></g><g><path fill="#fff" d="M439.178 751.941c.608-5.414 4.575-14.533 9.877-18.419.621-.452.885.351 1.195.755.508.647-.982 2.105-.14 2.361.745.217 1.877-.644 2.676-.497.95.171-.438 2.545.565 2.619l2.904-.722c1.112.085-1.092 2.066-.113 2.374.704.231 1.839-1.137 2.517-.878.94.377-.469 2.354.418 2.801.762.381 2.233-.666 3.182-.549.866.104 1.503-.225 1.195.755-1.767 5.686-10.109 13.462-15.773 14.545"/><path fill="#fff" d="M432.05 751.261c6.474-4.788 6.858-4.783 13.402-.115 6.545 4.681 6.676 5.049 4.254 12.723-2.423 7.674-2.733 7.9-10.777 7.967-8.044.066-8.365-.16-10.917-7.793-2.552-7.62-2.437-7.992 4.038-12.781z"/><path fill="#fff" d="M443.832 757.253c5.055-2.016 14.974-2.836 20.903.008.693.328.117.943-.092 1.414-.326.747-2.314.133-2.144.993.154.764 1.455 1.353 1.705 2.115.294.912-2.449.821-2.046 1.731l2.009 2.218c.447 1.018-2.33.01-2.143 1.02.139.723 1.874 1.083 1.958 1.794.118.998-2.301.695-2.266 1.694.019.863 1.64 1.664 1.988 2.547.306.816.904 1.214-.092 1.414-5.855 1.129-16.655-2.555-20.275-7.026"/><path fill="#fff" d="M444.938 767.111c1.839 5.127 2.304 15.068-.749 20.892-.355.679-.944.076-1.401-.148-.734-.354-.051-2.315-.911-2.173-.765.126-1.409 1.402-2.185 1.624-.926.267-.726-2.479-1.65-2.102l-2.288 1.928c-1.033.406.072-2.332-.939-2.186-.738.112-1.139 1.834-1.864 1.891-1.013.077-.613-2.317-1.613-2.322-.864-.009-1.72 1.587-2.604 1.894-.83.279-1.242.863-1.401-.148-.924-5.887 3.147-16.544 7.745-20.017"/><path fill="#fff" d="M435.676 765.382c-4.173 3.491-13.339 7.378-19.855 6.521-.756-.093-.402-.855-.345-1.363.078-.81 2.161-.856 1.733-1.614-.385-.677-1.814-.838-2.28-1.485-.565-.783 2.063-1.539 1.403-2.279-.562-.618-2.047-.86-2.595-1.478-.745-.834 2.218-.734 1.719-1.641-.357-.65-2.12-.433-2.423-1.098-.418-.923 1.957-1.386 1.622-2.311-.292-.802-2.079-1.065-2.671-1.792-.549-.673-1.239-.877-.345-1.363 5.2-2.896 16.606-2.776 21.458.339"/><path fill="#fff" d="M432.632 757.211c-4.798-2.554-11.833-9.596-13.494-15.961-.195-.75.643-.686 1.133-.834.79-.237 1.6 1.692 2.146.995.48-.614.093-1.99.517-2.67.503-.82 2.209 1.336 2.641.436l.401-2.956c.485-.998 1.506 1.776 2.16.981.467-.572-.389-2.13.106-2.661.697-.742 2.016 1.299 2.755.639.645-.576.209-2.335.657-3.153.422-.763.338-1.474 1.133-.834 4.632 3.736 8.799 14.364 7.73 20.021"/><path opacity=".433" fill="#73D216" enable-background="new" d="M435.232 758.867c2.162-3.913-5.027-5.496-.971-7.394 4.057-1.884.636 4.646 5.027 5.496 4.391.85 3.682-6.482 6.728-3.218 3.046 3.278-4.218 2.052-3.669 6.481.55 4.443 7.297 1.499 5.135 5.411-2.162 3.913-3.254-3.383-7.311-1.485-4.057 1.884.834 7.411-3.557 6.547-4.391-.85 2.212-4.133-.834-7.411-3.046-3.278-6.786 3.082-7.335-1.361-.549-4.415 4.61.845 6.786-3.068z"/></g><g><path fill="#fff" d="M291.89 734.067c.828-7.35 6.219-19.729 13.419-25.001.843-.614 1.201.477 1.622 1.026.689.878-1.334 2.857-.192 3.205 1.011.295 2.549-.874 3.633-.674 1.289.233-.596 3.455.765 3.556l3.943-.978c1.51.116-1.484 2.805-.154 3.223.956.314 2.498-1.542 3.417-1.19 1.276.512-.638 3.196.566 3.803 1.035.517 3.032-.903 4.32-.744 1.175.142 2.04-.304 1.622 1.026-2.402 7.718-13.731 18.271-21.422 19.739"/><path fill="#fff" d="M282.213 733.159c8.792-6.497 9.314-6.49 18.196-.149 8.883 6.359 9.061 6.858 5.768 17.275-3.293 10.417-3.714 10.724-14.636 10.81-10.921.086-11.356-.221-14.817-10.586s-3.304-10.871 5.489-17.35z"/><path fill="#fff" d="M298.205 741.3c6.864-2.734 20.331-3.843 28.379.022.94.445.158 1.281-.126 1.919-.443 1.014-3.141.179-2.911 1.347.208 1.038 1.975 1.837 2.313 2.872.399 1.238-3.326 1.114-2.778 2.349l2.726 3.012c.607 1.383-3.163.012-2.91 1.384.189.982 2.544 1.471 2.658 2.436.159 1.355-3.125.942-3.077 2.299.025 1.172 2.226 2.26 2.698 3.459.415 1.108 1.226 1.648-.126 1.919-7.95 1.529-22.61-3.477-27.523-9.55"/><path fill="#fff" d="M299.702 754.666c2.494 6.962 3.12 20.458-1.028 28.363-.483.922-1.282.102-1.902-.201-.997-.481-.068-3.143-1.236-2.951-1.038.171-1.913 1.902-2.967 2.204-1.258.362-.984-3.366-2.239-2.855l-3.107 2.616c-1.402.551.099-3.166-1.273-2.969-1.002.152-1.547 2.49-2.531 2.567-1.375.104-.831-3.146-2.189-3.154-1.173-.012-2.336 2.153-3.536 2.57-1.127.378-1.687 1.171-1.902-.201-1.251-7.993 4.281-22.46 10.525-27.172"/><path fill="#fff" d="M287.128 752.331c-5.667 4.737-18.114 10.01-26.96 8.842-1.026-.127-.546-1.161-.468-1.851.107-1.1 2.934-1.161 2.353-2.191-.522-.919-2.462-1.138-3.095-2.018-.767-1.063 2.802-2.089 1.906-3.093-.762-.84-2.779-1.168-3.523-2.008-1.011-1.132 3.012-.995 2.334-2.227-.484-.883-2.878-.589-3.289-1.492-.567-1.253 2.658-1.881 2.203-3.136-.396-1.089-2.822-1.447-3.625-2.434-.745-.914-1.682-1.192-.468-1.851 7.061-3.929 22.547-3.76 29.133.471"/><path fill="#fff" d="M283 741.218c-6.513-3.47-16.06-13.034-18.312-21.676-.264-1.018.873-.931 1.539-1.131 1.072-.321 2.171 2.298 2.913 1.352.652-.833.128-2.701.704-3.625.683-1.113 2.998 1.815 3.586.593l.546-4.013c.659-1.354 2.043 2.412 2.932 1.333.635-.777-.527-2.892.146-3.613.946-1.007 2.736 1.765 3.74.869.876-.782.285-3.17.894-4.281.573-1.036.459-2.001 1.539-1.131 6.287 5.075 11.938 19.506 10.484 27.185"/><path opacity=".433" fill="#73D216" enable-background="new" d="M286.529 743.487c2.938-5.311-6.822-7.464-1.314-10.039 5.509-2.556.861 6.308 6.822 7.464 5.961 1.156 5.003-8.798 9.136-4.365 4.134 4.452-5.727 2.784-4.984 8.797.744 6.032 9.906 2.039 6.969 7.349-2.938 5.311-4.416-4.594-9.925-2.02s1.128 10.062-4.833 8.887c-5.961-1.156 3.006-5.61-1.128-10.062-4.134-4.452-9.214 4.18-9.958-1.851-.743-6.013 6.277 1.149 9.215-4.162z"/></g><g><path fill="#fff" d="M442.614 840.943c.55-4.98 4.182-13.375 9.052-16.958.57-.417.815.321 1.101.692.468.594-.899 1.938-.125 2.171.685.198 1.726-.596 2.46-.462.874.156-.398 2.342.524 2.408l2.669-.669c1.023.076-1.001 1.902-.099 2.183.648.211 1.69-1.049 2.313-.811.866.345-.427 2.166.389 2.575.702.349 2.053-.616 2.925-.511.796.095 1.382-.209 1.101.692-1.615 5.233-9.274 12.399-14.482 13.406"/><path fill="#fff" d="M436.044 840.343c5.946-4.415 6.299-4.411 12.327-.13 6.028 4.294 6.149 4.632 3.934 11.694-2.215 7.062-2.5 7.271-9.898 7.346-7.399.075-7.694-.132-10.054-7.148-2.361-7.016-2.243-7.36 3.691-11.762z"/><path fill="#fff" d="M446.89 845.821c4.646-1.863 13.767-2.635 19.225-.029.637.3.109.867-.082 1.3-.299.688-2.128.126-1.97.917.143.703 1.341 1.241 1.572 1.942.272.838-2.251.76-1.878 1.595l1.851 2.036c.413.936-2.143.013-1.97.942.129.665 1.726.993 1.804 1.646.11.918-2.115.643-2.081 1.562.019.794 1.511 1.527 1.833 2.339.283.75.833 1.115-.082 1.3-5.384 1.048-15.322-2.321-18.66-6.427"/><path fill="#fff" d="M447.926 854.886c1.701 4.712 2.145 13.855-.652 19.216-.326.626-.868.071-1.289-.133-.676-.324-.051-2.129-.842-1.997-.703.118-1.293 1.292-2.007 1.498-.851.247-.672-2.279-1.521-1.931l-2.101 1.777c-.949.376.062-2.145-.867-2.009-.678.104-1.044 1.689-1.711 1.743-.931.073-.568-2.13-1.488-2.133-.794-.006-1.579 1.462-2.392 1.746-.763.258-1.141.796-1.289-.133-.86-5.413 2.865-15.222 7.088-18.424"/><path fill="#fff" d="M439.404 853.311c-3.832 3.218-12.256 6.81-18.25 6.032-.695-.084-.372-.785-.32-1.253.071-.746 1.986-.791 1.591-1.488-.355-.622-1.67-.767-2.1-1.362-.521-.719 1.895-1.419 1.286-2.098-.518-.568-1.885-.787-2.39-1.355-.686-.765 2.039-.679 1.578-1.513-.329-.597-1.951-.395-2.23-1.006-.386-.848 1.798-1.278 1.487-2.128-.27-.737-1.914-.976-2.46-1.643-.506-.618-1.141-.805-.32-1.253 4.777-2.673 15.269-2.582 19.737.274"/><path fill="#fff" d="M436.59 845.801c-4.418-2.341-10.9-8.805-12.439-14.656-.18-.689.59-.632 1.041-.769.726-.219 1.474 1.553 1.976.911.44-.565.082-1.83.471-2.457.461-.755 2.034 1.225 2.43.396l.364-2.719 1.988.898c.429-.527-.362-1.958.093-2.448.639-.683 1.856 1.191 2.535.583.593-.531.188-2.148.599-2.901.387-.703.308-1.356 1.041-.769 4.267 3.428 8.118 13.195 7.145 18.4"/><path opacity=".433" fill="#73D216" enable-background="new" d="M438.984 847.333c1.982-3.602-4.633-5.046-.906-6.799s.593 4.272 4.633 5.046 3.375-5.968 6.182-2.971c2.807 3.009-3.876 1.895-3.363 5.968.513 4.085 6.714 1.366 4.732 4.968-1.982 3.602-2.999-3.106-6.727-1.353-3.728 1.74.78 6.814-3.26 6.028s2.027-3.805-.78-6.814c-2.807-3.009-6.236 2.846-6.749-1.239-.5-4.073 4.254.769 6.236-2.834z"/></g></g><path fill="#2E3436" d="M555.7 824.1l-11.9 3.7c1.7 5.1-1 14.4 1.8 19.3 11.4 19.5 36.5 20.1 57.5 18.6 8.1-.7 16.1-2 23.9-3.1 8-1.1 15.9-2 23.8-1.8 7.8.2 15.6 1.4 22.7 4.4 8 3.3 15.1 8.9 20.8 15.6 7.9 9.4 13.4 20.8 17.7 32.5-3.6-11.9-8.4-23.7-16-33.9-5.5-7.3-12.5-13.6-20.9-17.8-7.5-3.7-15.7-5.5-24-6.2-8.3-.7-16.6-.3-24.8.4-8 .6-15.9 1.4-23.7 1.6-7.1.2-14.1-.1-20.4-1.9-6-1.7-11.5-4.9-15.5-9.3-2.4-2.6-4.4-5.7-6.1-9-2-4.1-3.6-8.5-4.9-13.1z"/><path fill="#020000" d="M372.9 900.4l-28.9 17c24.4 57.4 95.1 69.9 151.6 84.4 13.7 3.4 27.3 6.5 40.8 10.1 13.3 3.5 26.5 7.3 39.3 12.2 12.4 4.7 24.5 10.5 35.6 17.9 4.1 2.7 8.1 5.7 11.9 8.9h1.6c-4-3.7-8.1-7.1-12.5-10.3-10.9-7.9-22.9-14.3-35.3-19.7-12.8-5.5-25.9-9.9-39.2-13.9-26.7-7.9-53.5-15-79.5-25-12.4-5-24.3-10.7-35.2-18-11-7.3-20.9-16-29.1-26-9.1-11.2-16.1-24.1-21.1-37.6z"/><g><path fill="#FF80DF" d="M646.218 818.187c-.324.013-.703.524-1.324.928-1.077.705-1.65 3.083-2.787 3.361-1.299.323-1.598-2.969-2.898-2.511-.934.318-.902 2.72-1.821 3.092-1.298.535-.745-3.438-1.966-2.558-.916.66-1.432 2.617-2.343 3.295-1.088.804-1.762-2.866-2.89-2.205-.946.553-1.342 2.457-2.304 2.879-1.083.475-.842-2.331-1.925-2.55-.693-.135-1.634-.741-1.891.276-1.8 7.6 1.003 18.432 4.485 25.121-7.347-2.97-19.242-3.363-25.383-.477-1.26.601-.323.919.352 1.889.736 1.049 3.152 1.553 3.461 2.663.359 1.289-2.917 1.718-2.428 2.99.354.924 2.749.797 3.179 1.719.584 1.265-3.409.852-2.48 2.041l3.382 2.241c.835 1.06-2.8 1.86-2.103 2.977.583.918 2.491 1.255 2.949 2.208.511 1.073-2.324.936-2.503 2.028-.117.688-.673 1.673.352 1.889 5.312 1.068 12.111-.15 17.971-2.244-5.693 5.327-11.006 14.792-11.333 21.171-.076 1.391.646.727 1.824.592 1.267-.16 2.85-2.028 3.979-1.783 1.315.29.148 3.373 1.51 3.553.982.132 1.992-2.059 2.995-1.991 1.391.076-.825 3.412.665 3.152 1.104-.192 2.434-1.719 3.556-1.916 1.342-.238.314 3.346 1.619 3.253 1.08-.069 2.293-1.603 3.344-1.568 1.192.054-.277 2.469.602 3.131.561.422 1.16 1.394 1.824.592 4.049-4.927 6.308-13.098 6.899-20.053 3.002 7.112 9.62 15.088 15.257 17.666 1.26.575.929-.336 1.228-1.48.31-1.244-.847-3.391-.21-4.359.75-1.116 3.186 1.119 3.858-.071.473-.865-1.174-2.624-.752-3.533.593-1.265 2.863 2.039 3.184.56l-.463-4.019c.267-1.328 3.213.938 3.599-.307.329-1.037-.64-2.715-.215-3.682.49-1.082 2.195 1.164 3.136.593.595-.358 1.73-.578 1.228-1.48-3.064-5.532-9.804-10.62-16.014-13.733 7.561-.349 16.812-3.426 21.136-7.504 1.007-.955.019-.97-.928-1.671-1.021-.757-3.458-.503-4.11-1.46-.756-1.121 2.21-2.525 1.352-3.598-.62-.773-2.842.116-3.529-.619-.96-1.025 2.961-1.905 1.704-2.75-.927-.629-2.961-.449-3.906-1.073-1.133-.745 2.086-2.625 1.063-3.459-.83-.695-2.762-.427-3.494-1.188-.816-.853 1.892-1.588 1.723-2.679-.113-.682.109-1.824-.915-1.694-8.863 1.078-19.589 9.253-23.898 15.255l6.021 10.612-6.44 8.12-10.895-3.314c1.24-.673 2.363-1.352 3.309-2.04l-2.579-12.939 11.088-1.813c4.884-6.085 6.658-21.471 3.472-28.898-.206-.463-.386-.625-.58-.629z"/><path fill="#F0C8EE" d="M652.307 866.395c-6.904 8.461-7.41 8.583-17.574 4.641s-10.464-4.398-9.851-15.294c.613-10.896.945-11.297 11.494-14.079s11.045-2.592 16.956 6.584c5.906 9.158 5.861 9.692-1.025 18.148z"/><path fill="#C3EC9A" d="M645.577 857.466c-1.531 5.866 8.447 5.538 3.752 9.391s-2.393-5.893-8.447-5.538c-6.055.354-2.668 9.751-7.763 6.482-5.101-3.287 4.855-4.11 2.65-9.746s-10.091.475-8.561-5.391 5.409 3.355 10.104-.498c4.7-3.835-3.578-9.459 2.482-9.796 6.055-.354-1.523 6.172 3.578 9.459s7.885-6.323 10.095-.669c2.182 5.623-6.359.439-7.89 6.305z"/></g><g><path fill="#FF80DF" d="M470.494 934.694c-.438.015-.95.6-1.789 1.063-1.456.808-2.23 3.532-3.768 3.851-1.756.37-2.16-3.403-3.917-2.878-1.262.364-1.219 3.117-2.461 3.543-1.754.613-1.007-3.94-2.658-2.932-1.238.756-1.936 2.999-3.167 3.776-1.47.922-2.382-3.284-3.906-2.527-1.278.633-1.813 2.815-3.115 3.299-1.464.544-1.138-2.671-2.602-2.923-.937-.155-2.208-.849-2.556.316-2.434 8.709 1.355 21.122 6.062 28.787-9.931-3.404-26.01-3.854-34.311-.546-1.703.689-.436 1.053.476 2.164.994 1.202 4.261 1.78 4.679 3.052.485 1.477-3.943 1.969-3.281 3.427.478 1.059 3.716.914 4.297 1.97.789 1.45-4.607.977-3.352 2.338l4.572 2.568c1.129 1.215-3.785 2.131-2.843 3.412.789 1.052 3.367 1.438 3.986 2.53.691 1.23-3.142 1.073-3.383 2.324-.158.789-.909 1.917.476 2.164 7.181 1.223 16.371-.172 24.292-2.571-7.696 6.104-14.877 16.95-15.319 24.261-.103 1.594.873.833 2.465.678 1.713-.183 3.852-2.324 5.379-2.043 1.778.332.2 3.865 2.041 4.072 1.327.151 2.693-2.36 4.049-2.282 1.88.087-1.115 3.91.899 3.612 1.492-.22 3.29-1.97 4.807-2.195 1.814-.273.425 3.834 2.189 3.728 1.46-.079 3.1-1.837 4.521-1.796 1.611.062-.375 2.829.813 3.588.759.484 1.568 1.597 2.465.678 5.473-5.646 8.526-15.01 9.325-22.979 4.058 8.15 13.004 17.29 20.623 20.245 1.703.659 1.256-.385 1.66-1.696.419-1.425-1.145-3.885-.284-4.995 1.014-1.278 4.306 1.283 5.214-.081.639-.991-1.587-3.008-1.016-4.049.802-1.449 3.87 2.336 4.305.642l-.625-4.605c.361-1.522 4.343 1.075 4.865-.352.444-1.188-.865-3.112-.29-4.22.662-1.239 2.967 1.333 4.239.68.804-.411 2.338-.662 1.66-1.696-4.141-6.339-13.252-12.169-21.646-15.737 10.22-.4 22.726-3.926 28.571-8.599 1.361-1.095.026-1.111-1.254-1.914-1.38-.868-4.674-.577-5.556-1.673-1.021-1.284 2.987-2.893 1.827-4.123-.838-.885-3.842.133-4.77-.709-1.298-1.175 4.003-2.182 2.303-3.152-1.254-.721-4.002-.515-5.28-1.23-1.532-.854 2.819-3.008 1.436-3.964-1.122-.796-3.733-.49-4.723-1.361-1.103-.978 2.558-1.819 2.33-3.07-.152-.782.148-2.091-1.237-1.941-11.98 1.235-26.479 10.603-32.303 17.482l8.139 12.16-8.705 9.305-14.728-3.797c1.676-.771 3.194-1.549 4.473-2.338l-3.487-14.828 14.989-2.078c6.602-6.974 9-24.605 4.693-33.116-.254-.537-.498-.722-.784-.721z"/><path fill="#F0C8EE" d="M478.725 989.937c-9.332 9.696-10.017 9.835-23.755 5.318-13.745-4.537-14.145-5.04-13.316-17.526.828-12.486 1.277-12.945 15.537-16.133 14.259-3.188 14.93-2.971 22.92 7.545 7.983 10.495 7.947 11.1-1.385 20.796z"/><path fill="#C3EC9A" d="M469.629 979.705c-2.069 6.722 11.419 6.346 5.072 10.762s-3.234-6.753-11.419-6.346c-8.185.406-3.606 11.174-10.494 7.428s6.563-4.71 3.582-11.168c-2.988-6.479-13.641.544-11.572-6.178 2.069-6.722 7.312 3.845 13.658-.57 6.353-4.395-4.837-10.84 3.355-11.225 8.185-.406-2.058 7.073 4.837 10.84 6.895 3.767 10.658-7.246 13.646-.767 2.974 6.438-8.572.497-10.665 7.225z"/></g><g><path fill="#FF80DF" d="M709.924 858.336c-.334.009-.723.361-1.362.64-1.108.486-1.697 2.127-2.868 2.318-1.337.223-1.644-2.049-2.982-1.732-.961.219-.928 1.877-1.873 2.133l-2.023-1.765c-.942.455-1.474 1.805-2.411 2.273-1.119.555-1.813-1.977-2.974-1.521-.973.381-1.38 1.695-2.371 1.986-1.114.328-.866-1.608-1.981-1.76-.713-.093-1.681-.511-1.946.19-1.853 5.243 1.032 12.716 4.615 17.33-7.56-2.049-19.799-2.32-26.118-.329-1.297.415-.332.634.362 1.303.757.724 3.243 1.071 3.561 1.837.369.889-3.001 1.186-2.498 2.063.364.637 2.829.55 3.271 1.186.6.873-3.507.588-2.552 1.408l3.48 1.546c.859.731-2.881 1.283-2.164 2.054.6.633 2.563.866 3.034 1.523.526.74-2.392.646-2.575 1.399-.12.475-.692 1.154.362 1.303 5.466.736 12.462-.103 18.491-1.548-5.858 3.675-11.325 10.205-11.661 14.606-.078.959.665.501 1.876.408 1.304-.11 2.932-1.399 4.094-1.23 1.353.2.152 2.327 1.554 2.451 1.01.091 2.05-1.421 3.082-1.374 1.431.052-.849 2.354.684 2.174 1.136-.132 2.505-1.186 3.659-1.322 1.381-.165.323 2.308 1.666 2.244 1.112-.048 2.359-1.106 3.441-1.081 1.226.037-.285 1.703.619 2.16.578.291 1.193.962 1.876.408 4.166-3.399 6.49-9.036 7.099-13.834 3.089 4.906 9.899 10.409 15.699 12.188 1.296.397.956-.232 1.263-1.021.319-.858-.872-2.339-.216-3.007.772-.77 3.278.772 3.969-.049.487-.597-1.208-1.811-.774-2.437.61-.872 2.946 1.406 3.277.387l-.476-2.772c.275-.916 3.306.647 3.703-.212.338-.715-.659-1.873-.221-2.54.504-.746 2.259.803 3.227.409.612-.247 1.78-.399 1.263-1.021-3.153-3.816-10.088-7.326-16.478-9.474 7.78-.241 17.299-2.363 21.748-5.177 1.036-.659.02-.669-.955-1.153-1.051-.523-3.558-.347-4.229-1.007-.777-.773 2.274-1.742 1.391-2.482-.638-.533-2.924.08-3.631-.427-.988-.707 3.047-1.314 1.753-1.897-.954-.434-3.046-.31-4.019-.74-1.166-.514 2.146-1.811 1.093-2.386-.854-.479-2.842-.295-3.595-.819-.84-.589 1.947-1.095 1.773-1.848-.116-.471.113-1.259-.942-1.168-9.119.744-20.156 6.383-24.59 10.524l6.195 7.321-6.626 5.602-11.211-2.286c1.276-.464 2.431-.933 3.405-1.407l-2.654-8.927 11.41-1.251c5.025-4.198 6.851-14.812 3.573-19.936-.217-.332-.403-.444-.597-.434z"/><path fill="#F0C8EE" d="M716.184 891.581c-7.104 5.837-7.625 5.921-18.083 3.202-10.463-2.732-10.767-3.034-10.136-10.551.631-7.517.972-7.793 11.827-9.713 10.854-1.919 11.365-1.788 17.447 4.542s6.031 6.686-1.055 12.52z"/><path fill="#C3EC9A" d="M709.26 885.421c-1.575 4.047 8.692 3.821 3.861 6.479-4.836 2.646-2.462-4.065-8.692-3.821-6.23.244-2.745 6.727-7.988 4.472s4.996-2.835 2.727-6.724c-2.274-3.901-10.384.328-8.809-3.719 1.575-4.047 5.566 2.315 10.397-.343 4.836-2.646-3.682-6.526 2.554-6.758s-1.567 4.258 3.682 6.526 8.113-4.362 10.388-.461c2.264 3.876-6.543.303-8.118 4.35z"/></g><g><g><path fill="#FFE6F9" d="M158.674 705.309c-.466.019-1.011.753-1.903 1.334-1.548 1.013-2.372 4.432-4.008 4.832-1.868.464-2.298-4.27-4.167-3.611-1.343.457-1.297 3.911-2.618 4.445-1.866.769-1.071-4.944-2.827-3.679-1.317.949-2.059 3.763-3.369 4.737-1.564 1.156-2.534-4.121-4.155-3.17-1.36.795-1.929 3.532-3.313 4.14-1.557.683-1.21-3.352-2.768-3.667-.997-.194-2.349-1.066-2.719.396-2.589 10.927 1.442 26.502 6.448 36.119-10.563-4.271-27.667-4.835-36.496-.686-1.812.865-.464 1.322.506 2.716 1.058 1.508 4.532 2.233 4.976 3.829.516 1.853-4.194 2.471-3.49 4.3.508 1.328 3.952 1.146 4.571 2.472.839 1.819-4.901 1.225-3.565 2.934l4.863 3.223c1.201 1.524-4.026 2.674-3.024 4.281.839 1.32 3.581 1.805 4.24 3.174.735 1.543-3.342 1.346-3.598 2.915-.168.99-.967 2.405.506 2.716 7.638 1.535 17.413-.215 25.839-3.226-8.186 7.659-15.824 21.268-16.294 30.44-.109 2 .929 1.045 2.622.851 1.822-.23 4.098-2.916 5.721-2.563 1.891.417.213 4.85 2.171 5.109 1.412.189 2.865-2.961 4.306-2.863 2 .109-1.186 4.906.956 4.532 1.587-.275 3.5-2.472 5.113-2.755 1.929-.343.452 4.811 2.328 4.677 1.553-.1 3.297-2.304 4.809-2.254 1.713.078-.399 3.55.865 4.502.807.607 1.667 2.004 2.622.851 5.822-7.084 9.069-18.833 9.919-28.832 4.316 10.225 13.832 21.694 21.937 25.401 1.811.827 1.336-.483 1.765-2.128.445-1.788-1.218-4.875-.302-6.267 1.079-1.604 4.581 1.609 5.546-.102.68-1.243-1.688-3.774-1.081-5.08.853-1.818 4.116 2.931 4.579.806l-.665-5.778c.384-1.91 4.619 1.349 5.174-.442.473-1.491-.92-3.904-.309-5.295.704-1.555 3.156 1.673 4.509.853.855-.515 2.487-.831 1.765-2.128-4.405-7.954-14.096-15.269-23.025-19.745 10.871-.502 24.173-4.926 30.39-10.789 1.448-1.374.028-1.395-1.334-2.402-1.468-1.089-4.972-.724-5.91-2.099-1.086-1.611 3.178-3.63 1.944-5.173-.892-1.111-4.086.167-5.074-.89-1.381-1.474 4.258-2.738 2.449-3.955-1.333-.905-4.257-.646-5.616-1.543-1.63-1.072 2.999-3.775 1.528-4.974-1.193-.999-3.971-.614-5.024-1.708-1.173-1.227 2.721-2.283 2.478-3.852-.162-.981.157-2.623-1.316-2.435-12.743 1.55-28.165 13.304-34.36 21.934l8.657 15.258-9.259 11.674-15.665-4.764c1.783-.968 3.397-1.944 4.758-2.933l-3.709-18.604 15.943-2.607c7.022-8.75 9.573-30.872 4.992-41.55-.304-.692-.563-.925-.834-.905z"/><path fill="#F0C8EE" d="M167.422 774.597c-9.927 12.165-10.655 12.34-25.268 6.673-14.62-5.693-15.045-6.324-14.164-21.99s1.359-16.243 16.526-20.243 15.881-3.727 24.38 9.467c8.498 13.194 8.435 13.961-1.474 26.093z"/><path fill="#C3EC9A" d="M157.746 761.759c-2.201 8.434 12.146 7.963 5.395 13.503s-3.44-8.472-12.146-7.963c-8.706.51-3.836 14.02-11.162 9.32-7.334-4.726 6.981-5.909 3.81-14.013-3.178-8.129-14.51.683-12.309-7.751 2.201-8.434 7.777 4.824 14.528-.716s-5.145-13.6 3.568-14.084c8.706-.51-2.189 8.874 5.145 13.6 7.334 4.726 11.337-9.091 14.515-.962 3.138 8.085-9.143.631-11.344 9.065z"/></g><g><path fill="#FFE6F9" d="M553.919 925.005c-.415.017-.899.671-1.692 1.189-1.377.903-2.107 3.946-3.562 4.304-1.662.415-2.049-3.797-3.711-3.209-1.194.408-1.15 3.482-2.325 3.958-1.66.686-.958-4.399-2.519-3.271-1.171.846-1.829 3.35-2.993 4.219-1.391 1.031-2.259-3.665-3.701-2.817-1.209.708-1.713 3.145-2.945 3.687-1.385.609-1.08-2.982-2.467-3.261-.887-.172-2.091-.946-2.419.355-2.294 9.726 1.307 23.583 5.772 32.136-9.404-3.791-24.625-4.277-32.479-.576-1.611.771-.412 1.177.453 2.416.943 1.341 4.035 1.983 4.432 3.403.461 1.649-3.73 2.203-3.102 3.83.454 1.182 3.518 1.016 4.07 2.196.748 1.618-4.36 1.095-3.17 2.614l4.331 2.863c1.07 1.355-3.58 2.383-2.687 3.812.748 1.174 3.188 1.603 3.776 2.821.655 1.372-2.973 1.201-3.2 2.598-.149.881-.858 2.141.453 2.416 6.799 1.359 15.496-.208 22.991-2.895-7.277 6.823-14.062 18.941-14.472 27.104-.095 1.779.827.929 2.334.755 1.621-.206 3.644-2.598 5.089-2.286 1.683.369.194 4.316 1.937 4.545 1.257.167 2.546-2.637 3.83-2.552 1.779.095-1.051 4.367.855 4.032 1.412-.247 3.112-2.203 4.548-2.456 1.716-.307.406 4.281 2.076 4.16 1.382-.09 2.932-2.054 4.277-2.01 1.525.068-.351 3.16.774 4.006.719.54 1.486 1.782 2.334.755 5.174-6.31 8.053-16.768 8.8-25.667 3.851 9.096 12.329 19.293 19.545 22.584 1.613.734 1.188-.431 1.569-1.895.395-1.592-1.089-4.337-.275-5.577.959-1.428 4.078 1.428 4.936-.096.604-1.107-1.506-3.357-.967-4.519.757-1.619 3.666 2.605 4.075.713l-.597-5.141c.34-1.7 4.112 1.196 4.604-.398.419-1.327-.823-3.473-.28-4.711.625-1.385 2.81 1.486 4.013.755.76-.459 2.212-.742 1.569-1.895-3.928-7.074-12.558-13.575-20.508-17.55 9.674-.457 21.507-4.406 27.034-9.629 1.287-1.224.024-1.241-1.19-2.136-1.307-.968-4.425-.64-5.261-1.863-.968-1.433 2.824-3.234 1.725-4.605-.795-.988-3.636.152-4.516-.787-1.23-1.31 3.787-2.441 2.176-3.521-1.188-.804-3.789-.571-4.999-1.368-1.451-.952 2.665-3.362 1.355-4.428-1.063-.888-3.534-.543-4.472-1.515-1.045-1.09 2.419-2.034 2.202-3.43-.145-.873.138-2.335-1.173-2.166-11.338 1.391-25.051 11.865-30.557 19.551l7.718 13.57-8.229 10.398-13.945-4.225c1.586-.863 3.021-1.733 4.232-2.615l-3.317-16.552 14.185-2.335c6.241-7.793 8.491-27.481 4.404-36.98-.241-.599-.479-.829-.743-.804z"/><path fill="#F0C8EE" d="M561.767 986.656c-8.822 10.835-9.47 10.991-22.479 5.962-13.016-5.053-13.395-5.614-12.625-19.555.77-13.942 1.194-14.456 14.688-18.029s14.129-3.332 21.704 8.402c7.575 11.733 7.542 12.409-1.287 23.221z"/><path fill="#C3EC9A" d="M553.145 975.24c-1.951 7.507 10.816 7.075 4.814 12.011s-3.069-7.536-10.816-7.075c-7.747.461-3.4 12.48-9.925 8.304s6.207-5.265 3.377-12.474c-2.836-7.231-12.911.621-10.961-6.886 1.951-7.507 6.926 4.286 12.928-.65 6.009-4.913-4.591-12.098 3.162-12.537 7.747-.461-1.94 7.899 4.591 12.098 6.531 4.199 10.08-8.101 12.916-.869 2.829 7.208-8.113.564-10.087 8.078z"/></g><g><path fill="#FFE6F9" d="M601.91 956.707c-.411.016-.892.663-1.679 1.175-1.366.893-2.094 3.906-3.537 4.258-1.647.408-2.023-3.766-3.671-3.186-1.184.402-1.146 3.447-2.311 3.918-1.646.677-.941-4.36-2.49-3.245-1.162.836-1.818 3.316-2.973 4.175-1.38 1.019-2.231-3.635-3.661-2.798-1.199.7-1.703 3.113-2.924 3.647-1.373.601-1.065-2.956-2.438-3.235-.879-.172-2.07-.941-2.397.347-2.29 9.633 1.253 23.367 5.661 31.85-9.311-3.773-24.39-4.282-32.178-.629-1.598.761-.41 1.165.445 2.395.932 1.331 3.994 1.972 4.385 3.379.454 1.634-3.699 2.176-3.08 3.789.447 1.172 3.484 1.013 4.029 2.183.739 1.604-4.322 1.077-3.146 2.584l4.286 2.845c1.058 1.345-3.552 2.355-2.669 3.772.739 1.164 3.156 1.593 3.736 2.802.647 1.361-2.947 1.185-3.175 2.568-.149.873-.854 2.12.445 2.395 6.734 1.358 15.353-.178 22.784-2.827-7.222 6.747-13.966 18.741-14.387 26.828-.097 1.763.818.922 2.311.752 1.607-.201 3.615-2.568 5.046-2.256 1.667.369.184 4.276 1.911 4.506 1.245.168 2.528-2.609 3.799-2.521 1.763.097-1.049 4.325.84 3.996 1.4-.242 3.088-2.177 4.51-2.425 1.701-.301.395 4.242 2.05 4.125 1.369-.087 2.908-2.03 4.241-1.984 1.511.07-.354 3.13.76 3.97.711.536 1.469 1.768 2.311.752 5.138-6.242 8.009-16.598 8.765-25.414 3.799 9.019 12.181 19.136 19.324 22.41 1.596.73 1.178-.425 1.558-1.875.394-1.576-1.071-4.299-.262-5.526.952-1.413 4.038 1.422 4.89-.086.601-1.096-1.486-3.328-.95-4.479.753-1.603 3.627 2.587 4.036.713l-.583-5.095c.34-1.683 4.072 1.193 4.563-.386.418-1.314-.809-3.443-.269-4.668.622-1.371 2.781 1.477 3.975.755.754-.454 2.193-.731 1.558-1.875-3.879-7.016-12.418-13.472-20.287-17.424 9.585-.435 21.316-4.327 26.802-9.492 1.278-1.21.026-1.23-1.175-2.119-1.294-.961-4.383-.642-5.209-1.855-.957-1.421 2.804-3.199 1.717-4.559-.785-.98-3.603.144-4.473-.788-1.217-1.3 3.756-2.412 2.162-3.485-1.175-.798-3.753-.572-4.95-1.364-1.436-.946 2.646-3.326 1.35-4.384-1.051-.882-3.501-.544-4.428-1.509-1.034-1.082 2.4-2.011 2.187-3.394-.142-.865.14-2.313-1.158-2.148-11.236 1.358-24.841 11.711-30.31 19.316l7.622 13.458-8.171 10.287-13.809-4.211c1.573-.852 2.997-1.712 4.197-2.583l-3.257-16.405 14.059-2.288c6.197-7.71 8.461-27.212 4.43-36.631-.261-.588-.489-.793-.735-.798z"/><path fill="#F0C8EE" d="M609.559 1017.832c-8.76 10.719-9.402 10.873-22.283 5.866-12.887-5.029-13.261-5.586-12.474-19.398.788-13.812 1.209-14.32 14.584-17.837s14.005-3.276 21.489 8.363c7.478 11.616 7.444 12.285-1.317 23.005z"/><path fill="#C3EC9A" d="M601.037 1006.506c-1.946 7.435 10.703 7.029 4.748 11.909s-3.027-7.472-10.703-7.029c-7.676.443-3.391 12.359-9.848 8.21-6.463-4.172 6.159-5.205 3.368-12.352s-12.793.592-10.847-6.842c1.946-7.435 6.854 4.259 12.81-.621 5.962-4.857-4.527-11.995 3.155-12.415 7.676-.443-1.936 7.823 4.527 11.995 6.463 4.172 10.002-8.008 12.798-.838 2.784 7.124-8.039.544-10.008 7.985z"/></g></g><path stroke="#C8EAEC" stroke-width="1.3" d="M583.6 767.7c12.2.7 12.3 1 15.6 11.9" fill="none"/><path stroke="#C8EAEC" d="M611.6 758.2c9.2.5 9.2.7 11.7 8.9" fill="none"/><g><path fill="#FFE6F9" d="M293.869 889.568c-.519.087-1.024.986-1.939 1.762-1.588 1.353-2.023 5.294-3.796 5.973-2.023.785-3.176-4.449-5.173-3.446-1.437.702-.895 4.558-2.296 5.343-1.978 1.125-1.9-5.377-3.684-3.712-1.338 1.248-1.768 4.5-3.094 5.777-1.585 1.516-3.419-4.249-5.097-2.955-1.408 1.082-1.656 4.224-3.117 5.1-1.644.985-1.83-3.577-3.617-3.708-1.143-.075-2.778-.858-2.984.829-1.343 12.588 5.376 29.434 12.342 39.478-12.42-3.276-31.628-1.478-40.913 4.417-1.903 1.225-.331 1.544.952 2.965 1.397 1.537 5.386 1.854 6.109 3.575.84 1.999-4.339 3.359-3.293 5.304.757 1.413 4.583.721 5.463 2.115 1.197 1.915-5.307 2.067-3.571 3.788 1.292 1.287 4.604 1.627 5.897 2.913 1.559 1.534-4.123 3.562-2.774 5.217 1.126 1.357 4.261 1.509 5.192 2.948 1.041 1.621-3.546 1.98-3.61 3.772-.048 1.131-.74 2.827.952 2.965 8.761.632 19.444-2.714 28.439-7.278-8.067 9.728-14.677 26.033-13.9 36.358.162 2.252 1.187 1.037 3.053.579 2.005-.516 4.168-3.843 6.034-3.679 2.174.197.927 5.394 3.154 5.406 1.606.011 2.783-3.718 4.41-3.813 2.252-.162-.629 5.656 1.713 4.933 1.736-.534 3.563-3.262 5.327-3.807 2.109-.657 1.188 5.316 3.268 4.9 1.723-.332 3.36-3.046 5.058-3.204 1.927-.156.058 4.027 1.607 4.912.989.565 2.149 2.005 3.053.579 5.505-8.75 7.468-22.35 6.998-33.654 6.279 10.823 18.551 22.297 28.141 25.292 2.143.668 1.425-.73 1.672-2.63.244-2.063-2.055-5.279-1.228-6.966.979-1.947 5.351 1.149 6.189-.901.584-1.487-2.424-3.98-1.931-5.527.696-2.155 5.02 2.694 5.235.251l-1.565-6.367c.158-2.19 5.357.853 5.724-1.229.317-1.734-1.584-4.236-1.097-5.877.567-1.839 3.767 1.423 5.163.313.883-.698 2.663-1.282 1.672-2.63-6.056-8.27-17.933-15.074-28.555-18.812 12.087-2.106 26.335-8.942 32.455-16.382 1.424-1.742-.167-1.564-1.833-2.497-1.796-1.009-5.663-.103-6.907-1.508-1.444-1.648 3.038-4.511 1.439-6.061-1.155-1.116-4.546.767-5.801-.274-1.754-1.452 4.373-3.667 2.178-4.771-1.62-.822-4.852-.117-6.5-.928-1.975-.967 2.817-4.647 1.002-5.78-1.477-.948-4.528-.123-5.861-1.196-1.487-1.205 2.718-2.939 2.224-4.659-.321-1.074-.197-2.956-1.817-2.536-14.031 3.543-29.609 18.879-35.312 29.411l11.849 15.834-8.697 14.371-18.196-3.103c1.857-1.336 3.523-2.657 4.905-3.956l-6.79-20.28 17.46-5.18c6.611-10.783 6.322-35.885-.318-47.177-.438-.731-.761-.955-1.062-.894z"/><path fill="#F0C8EE" d="M313.493 965.815c-9.374 15.015-10.163 15.314-27.311 11.051-17.159-4.291-17.724-4.935-18.964-22.581-1.24-17.646-.788-18.358 15.607-24.986 16.394-6.628 17.231-6.424 28.61 7.125 11.367 13.521 11.404 14.387 2.058 29.391z"/><path fill="#C3EC9A" d="M300.849 952.831c-1.264 9.745 14.714 7.18 7.951 14.335-6.775 7.127-5.051-8.987-14.714-7.18s-2.298 16.224-11.16 12.008c-8.873-4.244 6.968-7.6 2.271-16.213-4.709-8.64-16.13 2.824-14.866-6.92 1.264-9.745 9.383 4.291 16.146-2.864 6.775-7.127-7.685-14.48 1.99-16.258 9.664-1.806-1.188 10.236 7.685 14.48s11.388-11.777 16.097-3.137-10.136 2.005-11.399 11.75z"/></g><g><path fill="#FF80DF" d="M233.158 781.567c-.601.101-1.185 1.141-2.244 2.04-1.838 1.567-2.342 6.128-4.394 6.915-2.342.908-3.677-5.15-5.988-3.989-1.663.812-1.036 5.277-2.658 6.185-2.289 1.302-2.199-6.224-4.264-4.298-1.549 1.445-2.047 5.21-3.582 6.687-1.835 1.754-3.958-4.918-5.901-3.421-1.63 1.252-1.917 4.89-3.609 5.904-1.904 1.14-2.118-4.14-4.187-4.292-1.323-.087-3.216-.993-3.455.96-1.555 14.572 6.224 34.073 14.287 45.701-14.378-3.792-36.613-1.711-47.362 5.113-2.203 1.418-.384 1.788 1.102 3.433 1.617 1.779 6.235 2.146 7.072 4.139.973 2.315-5.023 3.888-3.812 6.141.877 1.636 5.305.834 6.324 2.449 1.385 2.217-6.143 2.392-4.134 4.385l6.826 3.373c1.805 1.776-4.773 4.124-3.211 6.039 1.303 1.571 4.933 1.747 6.011 3.413 1.205 1.877-4.105 2.292-4.179 4.366-.055 1.309-.857 3.272 1.102 3.433 10.141.731 22.508-3.142 32.921-8.425-9.338 11.262-16.99 30.136-16.09 42.088.188 2.607 1.374 1.2 3.535.671 2.321-.597 4.825-4.448 6.985-4.259 2.517.228 1.073 6.244 3.651 6.258 1.859.013 3.222-4.304 5.105-4.414 2.607-.188-.729 6.547 1.983 5.71 2.01-.618 4.125-3.776 6.167-4.407 2.441-.761 1.376 6.154 3.783 5.672 1.994-.384 3.889-3.526 5.855-3.708 2.231-.181.068 4.662 1.86 5.686 1.145.654 2.488 2.321 3.535.671 6.372-10.129 8.645-25.873 8.101-38.958 7.269 12.529 21.474 25.811 32.576 29.278 2.481.773 1.65-.845 1.935-3.045.282-2.388-2.379-6.111-1.422-8.064 1.133-2.254 6.195 1.331 7.164-1.044.676-1.721-2.806-4.608-2.235-6.399.805-2.494 5.811 3.118 6.06.29l-1.811-7.371c.183-2.535 6.202.987 6.626-1.423.367-2.007-1.833-4.903-1.27-6.804.656-2.129 4.361 1.647 5.977.363 1.022-.808 3.083-1.485 1.935-3.045-7.011-9.573-20.76-17.45-33.055-21.777 13.992-2.437 30.485-10.352 37.57-18.964 1.649-2.017-.193-1.81-2.122-2.89-2.08-1.169-6.556-.12-7.996-1.746-1.671-1.907 3.517-5.222 1.666-7.017-1.337-1.292-5.263.888-6.715-.318-2.03-1.681 5.062-4.245 2.521-5.522-1.875-.952-5.617-.136-7.524-1.074-2.286-1.12 3.262-5.38 1.16-6.69-1.709-1.097-5.242-.142-6.785-1.385-1.721-1.395 3.147-3.403 2.575-5.394-.371-1.243-.228-3.422-2.104-2.936-16.242 4.102-34.276 21.854-40.877 34.046l13.716 18.33-10.067 16.636-21.064-3.592c2.149-1.546 4.079-3.075 5.678-4.58l-7.86-23.476 20.212-5.997c7.653-12.482 7.318-41.541-.368-54.613-.461-.827-.848-1.119-1.229-1.034z"/><path fill="#F0C8EE" d="M255.875 869.831c-10.851 17.382-11.765 17.728-31.615 12.793-19.864-4.967-20.518-5.713-21.953-26.14s-.912-21.252 18.067-28.924 19.947-7.436 33.119 8.247c13.172 15.684 13.247 16.673 2.382 34.023z"/><path fill="#C3EC9A" d="M241.238 854.801c-1.463 11.281 17.033 8.312 9.205 16.594s-5.847-10.403-17.033-8.312c-11.187 2.091-2.661 18.781-12.919 13.901-10.272-4.913 8.066-8.798 2.628-18.768-5.451-10.002-18.672 3.27-17.21-8.011 1.463-11.281 10.862 4.967 18.691-3.315 7.842-8.25-8.897-16.762 2.304-18.821 11.187-2.091-1.375 11.849 8.897 16.762s13.183-13.634 18.634-3.632c5.438 9.97-11.701 2.307-13.196 13.601z"/></g><g><path fill="#020000" stroke="#000" d="M545.942 690.242c10.244 10.675 10.289 16.604 17.717 14.355 1.113-.341 1.499-3.293 3.044-3.884 41.748-.136 51.605-60.759 84.926-64.075 17.83-1.704 26.53 13.628 22.895 13.628-.023 0 11.198 10.88 9.721 10.744-15.536-1.545-13.469-1.658-14.718-1.658-.636 0 11.811 3.68 10.925 4.543-2.998 1.363-11.311 1.272-13.378 2.839 12.901 46.063-28.733 78.135-48.448 73.024-32.685-5.792-39.59-18.216-65.87-31.345-6.314-3.157-28.596.931-32.708-3.18l25.894-14.991z" stroke-width="0.227"/><path fill="#fff" d="M664.711 650.198c0 1.772-1.431 3.203-3.203 3.203s-3.203-1.431-3.203-3.203c0-1.772 1.431-3.203 3.203-3.203s3.203 1.431 3.203 3.203z"/><path fill="#fff" d="M674.955 653.468c.772 1.09 1.022 2.158.568 2.385-.432.227-1.408-.477-2.181-1.545-.772-1.09-1.022-2.158-.568-2.385.432-.227 1.408.477 2.181 1.545z"/><path fill="#fff" d="M651.605 679.816l-2.249-.341c-.818 5.61-2.249 11.152-4.679 16.24-1.999 4.157-4.656 7.995-8.018 11.13-3.044 2.885-6.655 5.179-10.539 6.814-3.884 1.658-8.063 2.68-12.288 3.203-4.361.545-8.79.568-13.197.227-4.429-.341-8.858-1.045-13.197-2.044-4.179-.954-8.29-2.181-12.334-3.634-3.611-1.295-7.155-2.794-10.585-4.497 3.384 1.794 6.905 3.339 10.494 4.724 4.02 1.545 8.109 2.862 12.288 3.907 4.338 1.09 8.767 1.908 13.242 2.34 4.429.432 8.926.5 13.378.045 4.316-.454 8.608-1.408 12.674-3.021 4.066-1.613 7.859-3.929 11.13-6.882 3.566-3.225 6.473-7.178 8.631-11.47 2.657-5.27 4.293-10.971 5.247-16.74z"/><path fill="#020000" stroke="#000" d="M588.643 727.947c8.472 39.703 19.806 4.361 23.168 7.723v8.177c.795.795 9.79 4.497 11.357 1.363 10.653-21.305-25.417-17.58-31.799-15.445" stroke-width="0.227"/><path fill="#020000" d="M597.729 745.663c-4.793 1.113 1.272 17.808-1.817 20.897-1.726 1.726-8.086 1.908-6.36 3.634 1.386 1.386 7.564-1.658 9.994-.454 4.702 2.34 2.885 13.015 5.451 10.448 1.999-1.999 1.431-11.743-.454-13.628-.681-.681-3.816.273-4.543-.454-2.158-2.158 0-17.944 0-21.351"/><path fill="#020000" stroke="#000" stroke-width="0.214969" d="M617.262 738.327c-4.543 1.068 1.204 16.876-1.726 19.784-1.635 1.635-7.654 1.817-6.019 3.452 1.317 1.317 7.178-1.567 9.472-.432 4.452 2.226 2.748 12.311 5.156 9.903 1.885-1.885 1.34-11.13-.432-12.901-.659-.659-3.634.25-4.293-.432-2.044-2.044 0-16.99 0-20.215"/></g></g></svg>