<svg xmlns="http://www.w3.org/2000/svg" viewBox="0 0 376.3 405.2" enable-background="new 0 0 376.3 405.2"><title>tree house</title><path d="M171.5 0c-3.4.1-7.4 1.4-12.6 3.9-3.4.6-5.6 2.8-6.9 5.2-.1-.1-.3-.2-.4-.2-1.6-.3-2.7.2-4 .8-1.1.5-2.2 1.1-3.3 1.8-2.2-.3-4.3-.4-6.3-.2-2.2.2-4.2.6-5.8 1.7-.8.5-1.5 1.3-1.9 2.3s-.1 2.3.5 3.2l.3.3c-.8.2-1.6.2-2.3.5-3.1 1.2-5.6 3.2-7 5.6-.7 1.2-1.2 2.6-.9 4 .3 1.5 1.4 2.8 2.9 3.4.9.4 1.9.6 3 .7l-.4.4c-.5.7-.7 1.5-.8 2.4-2.4-.4-4.5-.6-6-.2-1.2.3-2.3.8-3 1.9s-.7 2.5-.3 3.6c.9 2.1 2.8 3.5 5.6 4.6l1.3.3-1 .4c-1.2.6-2.2 1.3-2.9 2.2-.6.7-.8 1.8-.7 2.8h-.1c-.1.6 0 1.2.2 1.8l-2.2 2.2c-.5.5-.8.7-1.2 1.2 0-.8-.1-.8.2-2.3.8-2 1.3-3.7.3-5.4-.5-.9-1.5-1.4-2.3-1.6-.8-.2-1.6-.1-2.3.1-2.3.5-4.5 2-6.3 3.8-2.9-2.2-6-3.6-8.9-4.2-3.5-.7-6.8-.4-9.3.8-1.2.6-2.4 1.5-3 2.8-.6 1.3-.4 3 .3 4.3.9 1.6 2.6 2.9 4.9 4.2-.4.7-.7 1.4-.6 2.1.1.4.3.7.4 1-2.4.7-4.5 1.5-6 2.4-2.5 1.6-4 3.9-4.1 6.3-.1 1.6.5 3.1 1.3 4.5-.7-.4-1.4-.8-2.2-1-3.4-1-7.2-.5-10.3 1.5-1.5-1.5-3.1-2.7-4.9-2.8-2.4-.2-4.5.8-6.3 2.3-2.9 2.4-4.9 5.9-6.2 9.2-3.4-1.4-7-1.3-9.8.1-2.8 1.4-4.6 4.4-4.6 7.8-2.6.7-4.8 1.5-6.3 2.3-1.9 1-3.4 2.1-3.8 4.1-.2 1 .3 2.2.9 2.9.4.4 1 .6 1.5.9-7.5 3.5-13.7 6.6-17.8 9.2-5.3 3.4-8.3 6.1-9.6 9-.6 1.4-.8 3-.4 4.3.4 1.3 1.3 2.4 2.2 3.2 2 1.6 4.5 2.6 6.9 3.4 1.6.5 3.3 1.2 5.1 1.5 1.4.3 3 0 4.4-.8 5.3 1.1 8.5 1.1 10.8-.1.3-.2.6-.4.8-.7.3.7.6 1.3 1.1 1.9.8.9 2.2 1.6 3.7 1.7-.6 1.1-.9 2.5-.4 3.7.6 1.5 1.8 2.5 3.4 3.6.5.3 1.4.6 2 .9-.6.8-1 1.9-.8 2.7-.1.1-.3.1-.5.2-.3.3-.3.5-.5.8-4.4-.2-8.9.5-12.8 1.8-4.4 1.4-8 3.4-10.3 5.5-1.2 1.1-2.1 2.2-2.4 3.8-.1.8.1 1.8.5 2.5.5.7 1.2 1.2 1.9 1.6l.6.2c-1.7.9-3.3 1.8-4.6 2.9-1 .8-1.9 1.7-2.4 2.7-.6 1-.9 2.4-.5 3.7.4 1.3 1.4 2.3 2.5 3 .6.4 1.5.6 2.2.8-1 3-1 5.9.7 8.2 1.7 2.4 4.7 3.8 8.4 4.8-.7 2.4-1.4 4.8-1.2 7 .1 1.4.7 3 2 3.9.3.2.6.3.9.4-.4.8-.5 1.7-.4 2.7.2 1.5 1.2 2.8 2.5 4.1-1.7 1.2-3.2 2.6-3.9 4.5-1.1 2.8-.5 6.1 1.8 9.5-.2 1.9-.2 3.7.3 5.1.6 1.7 1.9 2.9 3.4 3.5 1.3.4 2.6.4 3.9.2-.6 3.1.1 6.2 2.1 8.7 3.3 3.9 9.5 5.8 17.5 3.8 4.2 1.6 8.4 2.8 12.5 2.3 3.2-.4 6.2-1.8 8.8-4.3 1.4 2.9 3.9 5.1 6.9 5.8 3.3.7 6.9-.3 10.1-3.1.7.8 1.6 1.4 2.6 1.6 1.4.4 3 .2 4.3-.8.5-.4.8-.9 1.1-1.4 3.4 2.3 6.8 3 9.6 2.1 1.8-.5 3.2-1.7 4.1-3.3.3-.6.4-1.3.5-2h.1c.1 1.1.2 2.3.5 3.4.4 1.6 1.3 3.3 3 4.3s3.9 1.1 6.4.6c1.6-.3 3.6-1.1 5.8-2 .1 1.1.4 2.1 1.1 2.8 1.5 1.8 3.9 2.2 6.1 2.2 2.2 0 4.6-.5 6.8-1.3.6-.2 1.1-.5 1.6-.7.1 1.4.4 2.7.9 3.8.9 1.9 3 3.1 4.9 3 3.3-.2 6.2-2.6 9.2-5.2 2.4 2.1 4.7 4.2 6.8 6.5 1.6 1.8 3.1 5.6 4.4 9.6 1.2 3.7 2.2 7.4 3.6 10.2l-1.2 20.6c-1.4 2.2-2.1 4-2.6 5.4-7 5-8.2 9-10.7 13.3 0 0-.1.1-.3.2-.4.2-.9.4-1.6.7-1.3.5-2.8 1.1-4.1 1.8-1.4.8-2.1 1.6-2.8 2.1s-1.5 1.1-3.2 1.7c-2.9 1-4.8 2.1-6.4 3.1-7-10.7-12.4-18.8-15.7-23.6-1.8-2.6-3.2-4.5-4.1-5.7-.5-.6-.9-1.1-1.2-1.4-.2-.2-.4-.4-.6-.5-.2-.2-.4-.7-1.7-.5-.4 0-1 .3-1.3.7-.4.4-.5.8-.6 1-.1.6 0 .8 0 1 .1.4.2.7.3 1 .2.6.6 1.3 1.1 2.3 1 1.9 2.4 4.4 4.2 7.5 1.8 3.1 4.6 7.3 7 11.1-.5 0-1.3.2-1.8.8-.5.6-.5 1.3-.5 1.6.1.7.2 1 .4 1.3s.4.7.6 1.1c.4.7 1 1.3 1.6 2.2-.8.1-1.8.6-2.2 1.4-.4.7-.4 1.4-.3 2l-10.7-5.1c-.5-.2-.8-.4-1.2-.5s-.5-.3-1.4-.3c-.2 0-.6 0-1 .3s-.9.9-1 1.4c-.2 1.1.2 1.5.3 1.8.3.5.6.7 1 1.1.8.8 3.9 3 6.1 4.6-.9.1-1.6.2-2.7.4-3.9.7-8.9 1.8-14.3 3.1-15.7 3.5-36.8 8.8-54.1 13.2-8.7 2.2-16.4 4.2-22 5.8-2.8.8-5.1 1.4-6.7 1.8-.8.2-1.5.4-1.9.6l-.6.2c-.2.1-.1 0-.6.2-1 .5-1.5 1.8-.9 2.9.2.4.5.7.8.9.9.5 1.2 1.1 1.7 2 .4.9.8 2.3 1.8 3.6s2.6 2.6 4.9 3.3c2.2.7 5.2.9 9.3.7 1.8.4 3.5 1.5 6.2 2.1 1.1.2 2.4.3 3.7.2.1.8.6 1.5 1.3 1.8 21 8.1 28.1 12.6 79.4 17.7 2.2 2 4.4 4.6 8.2 6.1 4 1.6 9.5 1.6 17.7-1.1h.2c6.1-2.5 13-3 19.9-7.5-.1 1.2.8 2.2 1.9 2.3.7.1 1.4-.2 1.8-.8l.6-.6c-.5 2.5-.2 5.1 1.3 7.5.4.6 1.1 1 1.8 1 29.7-.1 54.1 15.1 108.6-.8 8.2.3 17.3 1.5 24.9.5 3.9-.5 7.4-1.5 10.2-3.8 2.8-2.2 4.6-5.6 5-10.1 0-.4 0-.7-.2-1l-2.1-4.9c6.9-.9 12 1 16 6 .4.5 1.1.8 1.8.8 16.8-.9 25.4-5.6 29.5-12 4.1-6.4 3.7-13.8 3.9-19.3 0-.9-.5-1.8-1.4-2.1l-33.7-11.7c-3.1-2.5-7.1-3.6-11.2-4.4-2.2-.4-4.1-.8-6.2-1.2l.7-.3c.9-.5 1.7-1 2.3-1.4.6-.4 1.1-.7 1.6-1.4.1-.2.3-.4.4-.8.1-.4.1-1.3-.3-1.9-.4-.6-1-.8-1.3-.9-.3-.1-.6-.1-.8-.1-.8 0-1.5.2-2.5.5-1.1.3-3.6 1.3-5.4 2 0-.3.1-.7-.1-1.2-.2-.6-.8-1-1.3-1.3 3.8-4.2 8.4-9.2 10.3-11.4 1.5-1.8 2.5-2.9 3.1-3.7.1-.2.3-.4.4-.5.1-.2.3-.1.4-1 0-.2.1-.6-.1-1.1s-.8-1.1-1.3-1.3c-1.1-.4-1.3 0-1.6.1-.4.2-.5.3-.7.4-1.3 1-3.6 3.2-7.4 6.8-3.6 3.4-8.4 8.1-13.8 13.2-1.9-.5-14.9-4.1-22.7-5.1-2.8-.4-5.9-.7-9-1-1.7-2.2-3.8-4.8-5.7-6.6-2.3-2.1-5-3.3-7.4-4.6-2.4-1.2-4.5-2.5-5.8-4.2-1.5-1.9-3.8-3-6.2-4-1.9-.8-3.7-1.2-5.4-1.7-.5-6.3-1.1-12.7-1.4-18.2-.4-5.9-.5-10.7-.4-12.6.4-5.9 2.6-15.5 5.2-25.4 2.4 0 5.4-.8 9.2-2.7 5.1.2 9-1.8 11.7-4.8-.2.9-.4 1.8-.2 2.7.2 1.6 1 3.1 2.2 4.3 2.5 2.3 6.8 3.7 13.5 4.7 2.9 3.4 5.9 5.4 8.8 5.9 3.2.6 6.1-.6 8.5-2.4 4.2-3.3 7-8.7 9-13.2 9.1 3.2 16.6 1.7 21.4-2 4.5-3.5 6.8-8.4 6.1-12.8 6.2-5 15.5-9.1 22.2-14.8 3.5-3 6.4-6.5 7.4-11 .9-4 .2-8.7-2.4-14 9.3-5.2 13.9-12.2 13.5-18.2-.2-3.2-2.1-6.1-5.1-7.4-1-.4-2.1-.6-3.2-.7 1-1.1 2-2.2 2.8-3.4 2.2-3.6 3.5-7.5 3.3-11.2-.2-3.6-2.4-7.1-6.4-8-2.2-.5-4.9-.3-8.1.6.1-.2.1-.5.2-.8 1.8-1.6 3.2-3.2 4-4.9.4-.9.8-1.9.7-3s-.6-2.2-1.3-2.9c-1.6-1.5-3.8-2.1-6.9-2.3-1.8-.2-4.1-.1-6.7 0 1.6-2.6 2.2-5.5 1.1-8.2-.9-2.3-3-4.2-5.9-5.1-.9-.3-2-.3-3.1-.5 1.4-1.5 2.2-3.2 2.2-4.9.1-2.9-1.7-5.1-3.8-7.1 4.6-4 8.4-8.6 8.4-13.9 0-3-1.4-6-4.2-8.3-2.2-1.8-5.6-3.2-9.7-4.4 1.9-2 3.4-3.9 4.3-5.6 1.2-2.5 1.4-5.3-.2-7.2s-4.1-2.8-7.2-3.2c-1-.1-2.2-.1-3.4-.2l.8-.6c3-2.5 5.8-5.6 6.9-9.1.5-1.8.5-3.8-.4-5.5-.9-1.8-2.6-3.1-5-4.1-4.4-1.8-11.4-2.4-22.3-1.7-.2-.9-.3-2-.6-2.7-.6-1.3-1.6-2.4-2.9-2.7-1.4-.3-2.6.1-3.5.7s-1.8 1.4-2.7 2.2c-1.4 1.4-2.7 3-4 4.6-.1-.7-.3-1.4-.6-2-1-1.7-2.8-2.8-5.1-3.3-.9-.2-1.9-.3-3-.3.3-.6.6-1.2.7-1.8.6-2.6-.2-5.6-2.5-7.3-2.3-1.7-5.7-2-9.5-.5-1.1.4-2.1 1-3.3 1.7v-.3c-.4-.7-1.2-1.3-1.8-1.4-1.2-.2-1.9.1-2.7.5-.8.3-1.8.9-2.9 1.5-1.6.9-3.8 2.5-6 4-.9-1.9-2.4-3.4-4.1-4.3-2.6-1.4-5.6-1.8-8.3-1.2-2.7.6-5.4 2.5-5.9 5.6-.2 1.3 0 2.8.5 4.3-1.1-.7-2.2-1.5-3.5-2.2-.5-1.6-1-3.1-1.6-4.3-.8-1.5-1.7-2.8-3.3-3.5-1.6-.7-3.6-.1-5 1.1l-.6.7-.2-.9c-.5-.9-1.5-1.6-2.4-1.8-1-.2-1.9-.1-2.7.1-2.3.7-4.3 2.3-5.9 3.8-.6-.7-1.3-1.3-2-1.8-1.4-.8-3-1.1-4.5-.9-.5.1-1 .3-1.4.4.3-.7.5-1.3.4-2.2-.2-1.1-1.2-2.1-2.1-2.4-1.3-.5-2.6-.4-3.9-.2.3-.7.5-1.3.5-2.1.1-1.8-.9-3.7-2.6-4.9-1.6-1.1-3.7-1.7-6.5-2.1-2.8-2.7-5.9-3.6-8.6-2.9-1.3.4-2.5 1.1-3.6 1.9-.2-1.4-.6-2.6-1.3-3.8-.9-2.5-3.7-3.9-6.9-3.8zm22.9 106c1 .8 2.3 1.6 3.8 2.3l-.4.3c-.9.8-1.5 1.9-1.6 3.2-.7-.8-1.6-1.4-2.5-1.8.7-1.1 1-2.5.7-4zm-51.8 21.2l.9 1.5c-.3-.2-.9-.5-1.2-.8.1-.2.2-.4.3-.7zm61.4 29.4c.9.3 2 .6 3 .8-.2 1.9-.3 3.7-.1 5.7.1 1.2 1.1 2 2.3 2 .1 0 .2 0 .4-.1.7-.2.8-.1 1.2-.2-.3.5-.9 1.1-1.3 1.7l-7-1.7-.1-.6.8-.5c.8-.7 1.7-1.5 1.9-3 .1-.8-.2-1.6-.6-2.2-.2-.4-.6-.6-.9-.8 0-.5.2-.8.4-1.1zm-92.6 38.3c.5 0 1.6.1 3.3.7h.1c2.3.7 3.9 1 5.4 1l.1.9c-2.5 0-5.2.4-8 1.4l-.6-.4c-.4-1.5-.6-2.8-.5-3.3l.1-.3h.1zm162.3 30.6c-.6 1.1-1.4 2.4-2.3 3.7-.6.9-1.3 1.9-2 2.8.5-2.2.6-4.3.2-6.4 1.4 0 2.7 0 4.1-.1z"/><path fill="#052" d="M259.7 61.9l-14.3-6.6-82.2-8.2-101.7 77.9-12.1 64.7c-13.9 5.5-36.7 9.7-13.6 20.7l75.7 18.6c6.4 4.2-4.8 24.9 19.3 12.5-4.9 9.9 11.2 6.9 14.7 2.8-.8 14.7 8 7.5 16.1 0l73.9-5.7c5.4 1.8 5.5 9.6 18.6 2.9 12.7 1 16.3-13.1 12.2-19.3l36-45h-42.4l-.2-115.3zm-70.7 38.5c6.1 5.7 13.2 1.4 13.2 1.4l13.2 16.1s-19.6 8.2-19.3 6.4c2.1-13.9-4.3-13.6-10.7-12.1 4.3-1.2 11.6-2.5 3.6-11.8zm-46.5 17.5c-.4 10.1 6.9 13.9 11.8 19.7l-19.7 3.6c3-4.1 18.1-6.5 3.2-13.2 7.6-1.2-1.3-9.3-3.9-3.9-3.2-6.9 3.7-5.8 8.6-6.2zm20 30.4l25.4 25.3c9.3 3.2 15.4-7.5 11.4-10 3.5-2.1 6.5-4.3-2.2-6.4 8.9.2 3.5-4.9 2.8-8.2l16.4 4.6c-8-2.4-7.9 3.3-7.5 9.3 11.2-2.8-1 7.3-3.6 12.2l-62.5 29.7c-10.8-1-19-9-32.5-2.9-2.6-6.9-2.4-11 5-8.2 10.9 3.5 6.5-2.4 5.7-6.1l30-11.8-2.2-20.4 13.8-7.1z"/><path fill="#003A17" d="M164.5 51.8l-99 75.7-11.8 63c-.3 1.5-1.3 2.8-2.7 3.3-7.4 2.9-16.7 5.7-19.8 7.8-.3.2-.2.2-.3.3.6.6 2.4 2.1 6.5 4.2l75.2 18.5c.5.1 1 .3 1.4.6 3.5 2.3 4.1 6.1 4.3 8.8.3 2.7.3 5.2.6 6.4l.1.5c.7.1 4-.5 9.7-3.4 2.2-1.1 4.9-.3 6 1.9.7 1.3.7 2.8 0 4l-.1.2h.2c1.3 0 3.1-.3 4.5-.9s2.6-1.4 2.5-1.3c1.6-1.9 4.4-2.1 6.3-.6 1.1.9 1.7 2.3 1.6 3.7-.1 1.4 0 2.3.1 3 1.7-1 5.1-3.5 8.5-6.6.7-.7 1.7-1.1 2.7-1.2l73.9-5.7c.6-.1 1.2 0 1.7.2 2.3.7 3.9 2.1 5 3.1s1.8 1.7 2.3 1.9c.5.3.7.4 1.8.3 1.1-.1 3.1-.6 6-2.2.7-.4 1.6-.5 2.4-.5 4.7.4 6.7-1.6 8-4.4 1.3-2.8 1-6.6.1-7.9-1.1-1.6-1-3.8.2-5.3l30.2-37.8h-33.2c-2.5 0-4.5-2-4.5-4.5v-112.1l-11-5.1-79.4-7.9zm24.5 44.1c1.1 0 2.2.5 3 1.2 2 1.9 3.6 1.9 5.2 1.7 1.6-.2 2.7-.8 2.7-.8 1.9-1.1 4.3-.7 5.7 1l13.2 16.1c1.6 1.9 1.3 4.7-.6 6.3-.3.3-.7.5-1.1.7 0 0-4.9 2.1-9.9 3.9-2.5.9-5 1.8-7 2.4-1 .3-1.8.5-2.9.7-.5.1-1.1.2-2.3-.2-.6-.2-1.6-.6-2.4-1.6s-1.1-2.6-.9-3.6c.5-3.2.4-5.3.2-6.4-.2-1.1-.4-1-.4-1.1-.1-.1-2.1-.3-5.1.3-2.4.4-4.7-1.2-5.2-3.6-.4-2.2.9-4.3 3-5 2.1-.6 3.4-1.3 3.7-1.2-.3-.6-.8-1.7-2.2-3.4-1.6-1.9-1.4-4.7.5-6.3.7-.7 1.7-1.1 2.8-1.1zm-46.4 17.5c2.5 0 4.4 2.1 4.4 4.5v.1c-.1 4 1 6.1 2.9 8.5s5 4.8 7.8 8.1c1.6 1.9 1.3 4.7-.6 6.3-.6.5-1.3.8-2.1 1l-19.7 3.6c-2.4.4-4.7-1.2-5.2-3.6-.2-1.2.1-2.4.8-3.3 1.7-2.3 3.6-3.2 5.3-4.2.9-.5 1.2-.8 1.9-1.2-.6-.4-1.1-.8-2.2-1.2-1.4-.6-2.4-2-2.6-3.6-1.5-.2-2.9-1.1-3.5-2.5-1.1-2.2-1.7-4.5-.9-7 .8-2.5 3.1-4 4.8-4.6 3.4-1.1 6.4-.7 8.3-.9h.6zm20 30.4c1.2 0 2.3.5 3.1 1.3l24.5 24.4c2.4.5 3.9-.4 5-1.7.5-.6.7-1.1.8-1.4-1.2-1.4-1.4-3.5-.4-5.1-2.3-.9-3.4-3.6-2.4-5.8.6-1.5 2-2.6 3.7-2.7-.4-.8-.9-1.6-1.1-2.9-.5-2.4 1.1-4.8 3.5-5.2.7-.1 1.4-.1 2.1.1l16.4 4.6-1.2 4.3-1.3 4.3c-1.1-.3-1.4-.3-1.6-.3v.6c1.3.2 2.8.8 3.8 2.4 1.3 2.1.8 4.2.3 5.3-.4 1.1-1 2-1.6 2.8-1.2 1.7-2.7 3.4-4 4.9-1.3 1.5-2.4 3.1-2.7 3.6-.5.8-1.2 1.5-2 1.9l-62.5 29.7c-.7.3-1.5.5-2.3.4-6.4-.6-11.4-3-16-4.2s-8.5-1.6-14.2 1c-2.2 1-4.9 0-5.9-2.2 0-.1-.1-.2-.1-.2-1.4-3.8-3-6.9-1.2-11.1.9-2.1 3.4-3.8 5.6-4 2.1-.2 4 .3 6.1 1l.3.1-.3-1c-.4-2.1.7-4.2 2.8-5l26.8-10.5-1.8-17c-.2-1.8.8-3.6 2.4-4.4l13.6-7.1c.3-.7 1-.9 1.8-.9z"/><path fill="#00943B" d="M259.7 61.9v115.2h42.4l14-17.5c21.2-8.2 74.1-38.4 27.8-33.2 8.2-4.6 7.8-17.5-10.3-13.9 13.2-5.1 7.8-12 1.1-16.1l-75-34.5z"/><path fill="#00AC45" d="M316.8 130.8c5.3.7 21.2-3 12.1 3.6 38.1-4.1 29.9 2.5 23.6 8.6 27-13.8 22 13.7 7.9 20.4 17-6.6 19.8 12.1-.4 22.1 12.7 23-13.7 28.3-26.8 39.6 2.5 6.5-7.4 21.2-26.4 13.2-4.1 9.4-12.4 24.7-24.3 10.4-28.4-3.9-7.1-16.3-5.7-25.4-14.8.7-31 1.9-12.5-7.5-11.1 1.4-21.5 1.7-26.1-7.9-27-8.8-19.4-22.3-27.9-33.6 4.9-7.2 8.5-20.7 16.1-15.7l-.4-21.8 90.8-6z"/><path fill="#008033" d="M238.3 137.6l-10.6.7.2 14.1c2.8-5 6-8.8 10.5-5.8l-.1-9zm-15.1 21.5c-.4 0-.7.1-1.1.3-1 .5-2.2 1.7-3.3 3.4-2.1 3.2-4.2 7.8-6.5 11.5 3.9 5.8 4.3 11.8 6.6 17.1 2.4 5.5 6.7 10.7 19.9 15 .4.1.7.4.9.8 2.1 4.4 5.3 6.3 9.5 7.2s9.5.5 15-.2c.9-.1 1.6.6 1.7 1.5 0 .6-.3 1.2-.8 1.5-4.2 2.1-6.3 3.7-7 4.5.2.1.1.1.4.1 3 .7 10.9.3 18.3-.1.9 0 1.6.6 1.7 1.5v.3c-.4 2.8-2.2 5.4-4 7.9-1.8 2.5-3.6 5-4.5 7.1-.4 1-.6 1.9-.5 2.6s.3 1.3 1.1 2c1.5 1.4 5.2 3 12.2 3.9.4.1.7.3 1 .6 2.8 3.4 5.3 4.8 7.3 5.2 2 .4 3.8-.3 5.6-1.7 2.4-1.9 4.6-5.3 6.4-8.7-2.6-.4-5.4-2.1-8.5-5.8-28.4-3.9-7.1-16.4-5.7-25.4-14.8.7-31 1.9-12.5-7.5-11.1 1.4-21.5 1.7-26.1-7.8-27-8.8-19.4-22.3-27.8-33.6.6-.9 1.2-2 1.8-3.1-.4-.1-.8-.1-1.1-.1zm136.5 44.5c-5 3-10.4 5.9-14.4 9.4.2.6.3 1.2.4 1.9 3.5-2.1 6.9-4.2 9.6-6.5 1.8-1.5 3.3-3.1 4.4-4.8zm-40.9 22.6c-1.7 3.8-4 8.6-7 12 6.8 1.7 11.9.1 15.3-2.5 2.8-2.1 4.3-5.1 4.8-7.4-3.7.6-8.1 0-13.1-2.1z"/><path fill="#917C6F" d="M236.4 303.3c.1 0 12.3 2.1 15.4 6.1 3.3 4.2 9.5 5.3 13.5 9 3 2.7 7.8 9.5 7.8 9.5l-23.1-.6-16.5-14.3 2.9-9.7z"/><path fill="#6C5D53" d="M243.4 311.8c3.5 1.9 5.7 5.8 9.2 7.8 3 1.7 6.9 1.3 9.7 3.2 1.9 1.3 4.4 5.1 4.4 5.1l-23.2.2-7-18.4c0 .1 4.8 1 6.9 2.1zM178.2 292.9c-5.6 4.9-6 7.8-6.9 10.4-7.5 5.2-8 8.5-10.8 13.3-.6 1-4.5 2.1-6.6 3.3-2.2 1.2-2.4 2.6-6.4 4-9.9 3.5-9.2 7.1-12.1 9.1l45.9-4.1-3.1-36z"/><path fill="#0a4" d="M15.6 358.6c1.5-.7 105.3-28.2 108-25.2l50-11.2s71.9-.4 107.5 4.3c8 1.1 23.6 5.4 23.6 5.4 23.1-22.3 34.1-33.5 2.4 1.2 11.4-7.3 5.6-.6 4.4 1.2 21-8.4 12.1-2.8 3.6 1.4 7.2 2 17.8 2 22.9 6.5l33.9 11.8c-.6 11.5 1.5 27.5-31.4 29.3-4.9-6.1-11.8-8.4-20.7-6.4l3.2 7.5c-1.4 16.1-21.5 12-38.2 11.4-54.4 16-78 .7-108.4.9-3-4.6-.8-9.3 3.6-13.9-2.7 2.5-5.7 2.9-8.9 6.8l.7-5c-7.7 7.2-15.7 7.1-23.6 10.4-15.9 5.2-19.4-.5-24.3-5-52-5.1-58.4-9.4-79.6-17.6l4.3-3.6c-9 3.9-11.4.3-16.1-.7-16.9.8-11.6-6.3-16.9-9.5z"/><path fill="#008033" d="M117.3 295.4c-.9.1 8.7 16.6 19.1 32.1-17.9-17.8-3.2 1-1.4 3.2-6.5-5-9.4-5.5-6.1 1.4-8.3-2.9-29.9-16.4-5.5 1.1-3-1.4-31.5 5.7-52.4 11.4 2.4 2.8 4.2 6.9 15.2 2.2 9.5.8 9.4-1.5 8.2-4.2 9.2 7 11.5-.1 9.8-2.8 3 4.7 5.2 13.8 10.8 2 1.7 5.8 5.8.9 6.8-2 2.6 9.2 9.9.9 15 1l40.5-18.8h-3.6c-10.3-1.8-22.4 4-33.6 6.1-15.8-24-22.1-32.7-22.8-32.7z"/><path fill="#917C6F" d="M175.4 223.3c.1 33.9 1.5 67.9-2.9 101.8 24.7 7.9 46.2 13.7 69.6 4.3 0 0-5-48.9-4.3-57.9 1.3-17.5 16.1-62.9 16.1-62.9 10.8-18.1 22-26.8 37.5-32.5-2.3 1-4.7 2-6.1-3.6-11 2.1 1.2-9.1 6.8-11.4 0 0-23.1 13.6-37.1 19.6-10.6 4.6-2.5-34.6-2.5-34.6l-6.8 3.6-5-.7s-5 34.3-6.4 37.5-18.9 33.2-23.9 35.4c-5 2.1-35 1.4-35 1.4z"/><path fill="#6C5D53" d="M291.1 161.6l-12.7 7.6s-4.9 3.4-3.9 5.5c.9 1.9 6.2.4 6.2.4.6 1 .5 2.3 5.5 1.6-16 3.8-23.3 16.7-27.9 24.4 8.7-9.6 17.4-20.8 36-24.8-7.2.7-10.1-.2-6.5-6.2-3.1-.1-11 1.8 3.6-7.9l-.3-.6zM244.7 146.8l-5 5.7-1.2 14.7c-.5 4.9-3.5 20.2-3.9 20.9-4.2 5.7-10.2 17-10.2 17l-46.4 25.7-4.9 87.3 21.3 2s.7-16.4.1-25c-.3-3.7-1.1-11.6-1.1-11.6l-.5 10.7-1.3 2.1 1-20.6c.3-6.1 2.4-11.7 2.8-20l1.2 2.9c-.6 4.7-1.3 7.9-1.3 11.6l2.3-4.5c.4-5.8 1-9.4 1.1-15.5 1.4-3 3-3 4.2-4.2v5.3l1.6.5c-.1-3 .7-5.2 1.6-7.1 4.9-2.3 6.8-3.8 11.9-4.8l9.7-20.1 5.6-14.4c1.1-.7 1.9.1 3.7.3l2.1-4.3c-2.2-1.2-3-2.7-6.8-1.5 0 0 6.7-8.5 8.6-14.4 2.1-6.4 1.3-20.1 1.3-20.1 2.6 2.3 9.1 8.2 6.9-5.6l-4.4-13z"/><path fill="#483E37" d="M215.8 228.6c-1.3 3.4-3.4 7.3-4.8 10.2-9.1 6.4-10.5 4-19.4 5.1l-12.2-15.5 36.4.2z"/><path d="M164.3 157.5c-.2 0-.3.1-.5.2l-13 7.5-.3.3h-.1l-10 4.5c-.3.2-.6.5-.7.8-.1 0-.3 0-.4.1l-8.7 3.3c-.5.2-.8.7-.8 1.2-.4-.3-.8-.3-1.2-.2l-10 4.2c-.5.2-.8.8-.8 1.3l.4 3.9c.1.6.5 1 1 1.1l2 .4.2 7.8c0 .5.3.9.7 1.1l.7 7.7c-.3.3-.5.7-.5 1.1l.5 9.2c0 .6.5 1.2 1.2 1.2l.6 9.4v.2h-.1c-.7.1-1.1.8-1 1.4l.5 3.9v.30000000000000004c.2.7.8 1.1 1.5 1l.5-.1 47.5 1.6h.1l52.5-1.1c.5 0 1-.4 1.2-.9 0 0 .5-1.3.7-2.8.1-.7.2-1.5.2-2.2l-.1-.3c.2-.3.3-.6.2-.9l-1-9.1c0-.2-.1-.3-.2-.5.1-.2.1-.4.1-.6l-1-9c.3-.3.5-.6.5-1l-.5-12.5v-.1c.2-.3.2-.6.2-.9l-1.1-7.8 3.9-1.3c.6-.2.9-.8.9-1.4l-.5-4.7c-.1-.5-.5-1-1-1.1l-63.9-16.1c-.1-.1-.2-.1-.4-.1z"/><path fill="#28170B" d="M225.2 190l-3.6 1.3 3.9 12.2-12 3 12.5 7.1-8.1 1.3 9.2 8.9-4.3 1.3-47.8-4 3-40.8 47.2 9.7z"/><path fill="#502D16" d="M196 192.4l.4-2.8 8.5-1.8-.1-4.9-44.4-15-9.3-1.3v4.4l-7.7 1.8-3.4-.8.4 3.7.9 17 54.7-.3z"/><path fill="#28170B" d="M122.7 193.9l1.7.4-.3 8.9 1.6.1 7.7 21.5 37-9.2-3.6-.4-2.4-11.5 5.4-1.1-2.9-.4-2.1-10.2 4.6-1.2-3.4-.4-1.2-11.9 4.4-1-2.9-.7-43.6 17.1z"/><path fill="#241F1C" d="M130 180.2l65.9 12.2-11.1 4.8-65.4-12.8 10.6-4.2zm10.1-4.4l64.7 12.1-7.2 4.2-66-12.6 8.5-3.7zm10.8-4.7l65.5 12.2-10.4 4.5-64.7-12.7 9.6-4zm1.1-1.1l67.2 12.7 9.8-3.2-64.6-15-12.4 5.5z"/><path fill="#784421" d="M166.2 177.4l-42.9 16.7.8 9.1 42-12.8.1-13zm1.1 25.2l-42.1 11.1.6 9.7 40.9-8.2.6-12.6zm-1.3-11.6l-42.4 12.7.5 9.2 42.8-10.6-.9-11.3zm.1-25.9l-43.7 20.4.3 8.3 43.7-17.1-.3-11.6z"/><path fill="#502D16" d="M222.6 190.1l-53.6 18.9-.5 8 54.3-13.5-.2-13.4zm.9 23.6l-46.9 8.2 2 5.8 45.6-4.3-.7-9.7zm-.3-9.4l-54.3 12.6.5 6.8 53.8-10.5v-8.9zm-1.5-23.9l-53.7 20.5 1.2 7.8 53.2-19.2-.7-9.1z"/><path fill="#28170B" d="M125.2 228.9l48.4 1.6 52.5-1.1-58.8-8.4-42.1 7.9z"/><path fill="#784421" d="M167 215.4l-42.2 9.6.6 4.1 42-8-.4-5.7zM129 176.4l1 3.8-10.6 4.3-.4-3.9 10-4.2zm10.8-4.3l.4 3.7-8.6 3.7-.5-4 8.7-3.4zm11.1-5.4v4.4l-9.6 4-.4-3.9 10-4.5zm.6-.4l13-7.5-.2 5.7-12.3 5.5-.5-3.7z"/><path fill="#28170B" d="M171 215.7l16 2.3-1.6.5-15-2.5.6-.3zm-.3-13.2l14.4 2.7-1.3.6-14.2-3.1 1.1-.2zm-.3-11.7l15.5 2.7-2.1.5-14.3-2.8.9-.4zm36.4 29.9l2.8.3 14.4 2.1-1.1.3-16.1-2.7zm-.8-9.4l2.5-.4 13.7 2.3-2.3.8-13.9-2.7zm-1.2-11.2l2.2-.4 15.7 3.4-2.4.7-15.5-3.7zm16.8-10.6l-1.9.8-50-12.2.9-1 51 12.4z"/><path fill="#A05A2C" d="M167 215.4l.4 5.7 58.8 8.4s1.8-5.4.2-5.5l-59.4-8.6z"/><path fill="#502D16" d="M170.8 166.3l-1.5 1.3.3 10.5.9-1 .3-10.8zm-.3 11.5l-.9.9v12.4l.9-.4v-12.9zm-.6 13.8l-1.1.5.6 10.6 1.2-.2-.7-10.9zm1.2 11.7h-.5l-.2 12.6.6-.3.1-12.3z"/><path fill="#784421" d="M206 186.4l-2.4 1.1 1.2 12.7 2.2-.3-1-13.5zm3.2 25.3l-2.9.2.5 8.9 2.8.2-.4-9.3zm-1.7-10.2l-2.7.4 1.2 9.4 2.5-.4-1-9.4z"/><path fill="#A05A2C" d="M167.3 202.6l3.2.7-.2 12.2-3.6-.4.6-12.5zm-1.3-11.6l3.1.5.7 11.1-2.9-.4-.9-11.2zm.2-13.6l3.2.7.1 12.8-3.4-.4.1-13.1zm-.1-12.3l4.2 1-1 11.4-2.9-.7-.3-11.7zM171.1 203.3l-.1 12.4 16 2.3-.3-12.1-15.6-2.6zm-.4-.8l14.4 2.7.5-10.7-15.6-2.9.7 10.9zm-.3-11.7l15.5 2.7-.5-12.2-14.9-3.4-.1 12.9zm.2-13.7l51.1 12.4-.3-9.3-50.5-13.9-.3 10.8zm35.4 9.3l1 13.5 15.7 3.4-1-13.5-15.7-3.4zm1.5 15.1l1 9.4 13.8 2.3-.1-9.1-14.7-2.6zm1.7 10.2l.4 9.3 14.5 2.1-.8-8.6-14.1-2.8z"/><path fill="#784421" d="M164.3 164.5l64.6 15-.5-4.6-63.9-16.1-.2 5.7z"/><path fill="#A05A2C" d="M223.5 213.7l2.6 1 1 9.1-2.8-.4-.8-9.7zm-.3-9.4l1.9.3 1 9.1-2.8-.5-.1-8.9zm-.6-14.2l2.5.8.5 12.5-2.6-.1-.4-13.2zm-.9-9.7l2.4 1.1 1.2 8.5-2.9-.6-.7-9z"/><path fill="#784421" d="M166.1 165.1l.3 11.7 2.9.7 1-11.4-4.2-1zm4.7 1.2l-.2 10.8 12.9 3.1c4.9-.5 3.9-4.7 2.7-8 1.6 5.2 9.4 12.9 10.9 6.5 11.7 6.5 9.5-.7 6.9-3.3l-33.2-9.1zm36.9 10.1c.3 1.5-1.3 5.2 3 3.5-.1 3 .2 5.4 1.1 7.2l8.8 2.2.8-.3.2.2-.3-9-13.6-3.8zm-41.5.9v1.1c1 0 2 .4 3.2 1.4v-1.8l-3.2-.7zm4.3.5v3c1.5 4.6 5.6 5.4 4.8.9 1.4 2.6 6 2.4 5.1-1.7l-9.9-2.2zm51.2 2.6l.7 9 2.9.6-1.2-8.5-2.4-1.1zm-9.6 7.3c1.4 2.3 3.9 3 8 1.7l-8-1.7zm-46 .4v2.3l1.1.2c-.2-.9-.6-1.7-1.1-2.5zm56.5 2v.3c.9 1.1 1.8 1.9 2.5 2.5l-.1-1.9-2.4-.9zm-56.6.9l.4 5.2c1-1.1 1.4-2.9 1-5l-1.4-.2z"/><path fill="#6C5D53" d="M179.3 229.1c-1-1.5-26.9-13.9-34.7-24.7-13.7-19-11.8-51.7-11.8-51.7l-13.1 3.3c1.7 16.6 4 29.7 7.9 46.2 1.2 5.1-8.6 6-9.6 4.7 0 0-4.7-4.9-8.8-7.6-7.8-5.1-19.5-14.1-19.5-14.1l3.6 8.8s13.4 7.6 14.3 13c.5 3.1-4.7 2.6-6.4 3.7-5.2 3.3-18 3.3-18 3.3l1.1 6.8c-1-1.4 24.3-9.9 39.5 1.7 14.2 10.8 31.1 19.1 43 32.4 6 6.7 7 27.9 13 21.8 31.4-31.5 1.3-45.1-.5-47.6z"/><path fill="#006529" d="M50.7 130.4c-15.4 3.5-19.5 7.8-5.4 13.2-6.5.6-3.1 3.3-1.4 5.7-3.9-3.6-3.9 0-3.9 0-18.4-1.9-39.7 16.5-10 10.4-13.5 3.2-27.4 11.4-13.9 14.6-3.5 6.7-.5 11 8.9 12.9-2.8 8.6-4.4 16.2 14.3 7.5 3 2.3 5.6 5.3 13.2-.7-7 5.2-9.5 9.5-1.8 11.8l36.4-3.9c5.2-2.8 17.5-3.5 6.4-11.1 1.4-3.8 3.7-7.8-11.1-7.9 3.5-.9 18.4-6.3-6.1-8.9 8-.5 8.2-5.3-1.8-8.2 8.9 2.3 9.9-1.5 8.9-6.8-.6-3.6 2.1-7.9-11.1-9.3 16-4 8.5-13.4 11.4-20.4l-33 1.1z"/><path fill="#052" d="M50.4 132.5c-3.4.8-6.2 1.7-8.2 2.5-2.1.9-3.3 1.9-3.5 2.2v.1c0 .1.2.4.7.9.4.4 1.1.8 1.9 1.3 2.1-.3 4.3-.3 6.4-.1 0 0 0-3.6 3.9 0-1.7-2.4-5.1-5.1 1.4-5.7-.9-.4-1.8-.8-2.6-1.2zm30.8 7c-.3.1-.6.2-.9.2l.9.1v-.3zm-50.8 12.5c-1.1.3-2.2.5-3.2.9-3.9 1.3-7.2 3.2-8.8 4.7-.6.5-.7.8-.8 1 .3.1.8.2 1.5.2 1.6-2.3 6-4.8 11.3-6.8zm-7.7 12.1c-3.6 1.4-6.7 3-8.5 4.4-.7.6-1.2 1.2-1.4 1.6l-.2.4s.1.2.7.6c.6.4 1.7.8 3.2 1.2 1.1.3 1.8 1.4 1.5 2.4 0 .2-.1.3-.2.5-1.5 3-1.5 4.7-.5 6.1s3.6 2.9 8 3.8c1.1.2 1.8 1.3 1.6 2.4 0 .1 0 .1-.1.2-.7 2.1-1.3 4.1-1.5 5.7s0 2.4.2 2.6.8.6 2.9.3c2.1-.3 5.4-1.4 10-3.6.7-.3 1.5-.2 2.1.2 1.6 1.2 2.7 2.2 3.9 2.3 1.2.2 3.2-.2 6.8-3.1l1.2 1.6 1.2 1.6c-3.4 2.5-5.4 4.9-5.7 5.8-.1.5-.1.5.2.8.3.4 1.3.9 2.8 1.4l35.7-3.8c1.4-.7 3-1.3 4.6-1.8 1.7-.6 3.3-1.2 4.1-1.7.4-.3.6-.5.6-.5-.1-.3-1-1.6-3.6-3.4-.1-.1-.2-.1-.2-.2l-33.7 3.6c-7.2-2.2-5.5-6 .4-10.8-6.6 4.6-9 1.9-11.8-.3-18.7 8.7-17.1 1.1-14.3-7.5-9.4-1.9-12.4-6.2-8.9-12.9-.3.3-.7.2-1.1.1z"/><path fill="#009F3F" d="M100.5 86.9c-4.2-9.9-17.6-9.5-16.7-2.5-1.2-8.6-11.1-10.6-16.7-5.8-6.1-9.1-14.1 1.9-16.1 8.8-7-4.1-14.9-.3-13.1 6.6-13.4 3.2-12.9 8.2-2.5 7.6-44.6 19.1-34.6 25.2-25.4 28.2 3.4 1.1 6.6 2.7 8.7.6 11.3 2.4 11.3-.8 12.1-3.5 1.6 3.6 1.6 9.1 9.6 5.1.7 9.6 11.5 10.5 30.3 4.5 14.2 5.5 20.5-1.4 15.7-5.1 5 6.2 11.5 6.4 19.2 2.5 16.9 7.1 21.9-.9 18.4-6.1 12-8.9 3.8-8.5-2.3-11.1 1.2-3.4-.5-5.4-14.6-1.5 3.7-2.5 9.2-4.6 4.5-9.1 8.2 3.8 13.6.7 19.2-2 10.3 3.1 7.2-1 1.5-6.6 5.2-7.4-1.8-5.9-5.6-4 5.9-5.3.1-6.1-2.5-8.1 1.6-5.2-11.2-5.2-13.6 1 1.6-7.4-10.3-7.3-10.1.5z"/><path fill="#008033" d="M40.5 90.6c-.3.7-.4 1.5-.1 2.7.1.4.1.9 0 1.3 2.2-1 4.5-2 6.9-3.1-3.3.2-5.7-.1-6.8-.9zm83.1 5.5c4.6 4.5-.8 6.6-4.5 9.1 2.5-.7 4.7-1.2 6.5-1.5h.1c1.3-.6 2.6-1.2 4-1.9.6-.3 1.3-.4 1.9-.2.6.2.6.1 1.2.2-.7-.8-1.3-1.5-2.2-2.4-.4-.4-.7-1-.8-1.6-2-.2-4-.7-6.2-1.7zm-109.2 18.7c-.6.3-1.1.7-1.6 1-5 3.2-7.2 5.7-7.8 7-.3.6-.2.8-.2 1s.3.5.8.9c1 .8 3.1 1.8 5.3 2.5 1.8.6 3.5 1.2 4.5 1.4 1 .2 1.1.2 1.5-.2.6-.6 1.6-.9 2.4-.7 5.4 1.2 7.7.7 8.1.5.2-.1.2-.1.3-.4l.6-1.8c.4-1.4 1.9-2.2 3.3-1.7.7.2 1.3.7 1.6 1.4 1 2.3 1.6 4.3 2 4.7.2.2.1.2.6.2s1.6-.2 3.4-1.2c1.3-.7 2.9-.2 3.6 1.1.2.3.3.7.3 1.1.1 1.9.7 3 1.5 3.8.9.8 2.3 1.5 4.5 1.8 4.4.6 11.6-.5 20.8-3.4.6-.2 1.2-.2 1.8.1 6.6 2.6 11.1 2 12.7 1.1.8-.5.9-.8.9-.9s.1-.2-.5-.7l1.6-2.1 2.1-1.7c2.1 2.7 4.3 3.8 6.8 4.1 2.5.3 5.6-.5 9.1-2.2.7-.3 1.5-.4 2.2-.1 8 3.4 12.7 2.8 14.4 1.7.9-.5 1.2-1.1 1.3-1.7.1-.6 0-1.4-.6-2.2-.8-1.2-.5-2.8.6-3.6l.1-.1c-1.5-.4-3.1-1-4.9-1.8-7 3.6-13.2 3.7-18-1.2 2 3.7-4.3 8.6-16.9 3.7-18.8 5.9-29.7 5-30.3-4.5-8 4.1-8-1.5-9.6-5.1-.9 2.8-.8 6-12.1 3.5-2.1 2.1-5.2.6-8.7-.6-3.2-.8-6.6-2.3-7.5-4.7z"/><path fill="#00C44E" d="M132.6 45.2c-14.5 3.3-17.4 7.2-1 11.9l15.4 13.9 12.4-2 22.2 3.8 22.5-.5c14-6.3 31.7-7.2 40.9-20.7 7.5-.6 15.4-5-10.4-21-2.1-7.5-5-11.5-10.6-1.6 1.7-11.8-6.5-4.9-9.9-1.5-3.7-6.2-7.2-3.8-14.9 0 12.8-12 .7-7.8-8.6-5.6 6.6-.2 15.2-10.2.8-11.6-5.2-5.6-9.3-2.6-13.1 1.8.8-9.6-3.7-13.5-18.4-6.3-6.6.7-6.8 7.8-9.8 12.1 4.9-9.7.1-7.4-5.3-4.3-8.8-1.7-19.1 1.9-6.6 7.6-11.2-5.3-27.2 15.2-1 8.3-18.5 6.7-5.6 11.5.5 12.6-26.5-12.3-24.1 3.6-5.1 3.1z"/><path fill="#00B046" d="M121.2 53.6c-3.9 3.4-10.2 13.1-7.8.3 3.6-7.9-5.7-3.9-8.3 0-11.8-10.9-31.8-2.2-10.2 5.7-7.6-1.5-4.7 4.8.8 3.3-23.9 3.2-14.3 15-5.6 17.7-5.1 9.8 12 12 23 8.6-6.8 3.1-.7 11 8.8 5.8 7.4 6.4 8.9 9.5 15.2 9.1-5.6 7.3 11.5 8.4 10.9 2.3-1.8 18.1 15.9 7.9 17.7 2.8 14.3 6.1 13.9-21.2 5.7-23.6 12.2 7.1 14.8 10.9 17.5 5.7 12.7 8.1 28.6.8 24.5-5.3 9.1 10.7 29.2-8.4 11.1-7.6 11.7-4.1 4.4-11.7-3.3-8.6 10.4-8.7 3.6-15-8.1-11.6 10.1-10.7-19.3-8.1-9.3-4.3-5.8-1.5-12.9-4.4-13.6.5 3.5-14.3-12.3-12.7-16.4.8 3-7.2-6.9-11-8.3-.8.4-10.4-16.9-4.5-15.7.3-7.6 8.7-9.2 4.2-10.9-.3 2.4-5.4-22.8-8.2-17.7-.8z"/><path fill="#00943B" d="M92.1 51.8c-1.4 0-2.6.3-3.3.6l-.2.1c.4.5 2 1.9 5.4 3.4.9-1 2.4-2 4.4-2.8-1.2-.5-2.4-.9-3.5-1.1-1-.1-1.9-.2-2.8-.2zm3.9 13.4l.1.8c-5.7.8-9.2 2.1-10.8 3.2-1.7 1.2-1.6 1.6-1.5 2.3.1.7.8 2.1 2.2 3.3s3.3 2.3 5.1 2.8c1.6.5 2.5 2.2 2 3.8l-.2.5c-.9 1.8-.7 2.2-.3 2.8s1.7 1.5 3.8 2.1c4.2 1.1 10.9.9 15.8-.6 1.6-.5 3.3.4 3.8 2.1.4 1.5-.3 3-1.7 3.7-1.1.5-1.1.9-1.1.8l.2.2c.6.6 3.1 1.5 7-.7 1.1-.6 2.5-.5 3.5.4 3.8 3.3 6.1 5.7 7.8 6.9 1.7 1.2 2.5 1.6 5.2 1.4 1.7-.1 3.1 1.2 3.3 2.9.1.8-.2 1.5-.6 2.1-.3.4-.3.5-.4.6.1.1.8.5 1.9.6 1.2.2 2.7-.1 3.4-.4.4-.2.5-.3.5-.3s-.1.2-.1.1l3.1-.3 3.1.3c-.4 4 .4 5.8.9 6.3.5.6 1.3.8 2.9.4 1.6-.3 3.6-1.3 5.2-2.5s2.7-2.7 2.7-2.8c.6-1.6 2.3-2.4 3.9-1.9.1 0 .1 0 .2.1 2.6 1.1 3.6.8 4.5 0 .9-.7 1.9-2.5 2.3-4.8-5.5 4-14.5 6.1-13.8-6.1-1.3 4.9-16 3.5-10.8-3.3-6.3.4-7.8-2.7-15.2-9.1-9.5 5.2-15.7-2.7-8.8-5.8-10.9 3.4-28.1 1.2-23-8.6-2.1-.6-4.3-1.8-6.1-3.3zm129.4 8.7c.1.2.2.4.3.5l.2-.1c-.2-.1-.4-.3-.5-.4zm-40.1.8c2.7 2.5 4.1 8.3 3.7 13.5.6 0 1.1.2 1.6.5 5.5 3.5 11.8 3.6 16 2.3 2.1-.7 3.6-1.7 4.2-2.4.5-.7.5-.4.2-.9-.9-1.4-.5-3.3.9-4.2 1.3-.8 3-.6 4 .6 1.6 1.9 3.4 2.3 5.5 2.1 2.1-.2 4.4-1.3 5.9-2.6.7-.6 1.3-1.3 1.5-1.7h-.1c-.6-.2-1.9-.4-3.9-.3-.8 0-1.6-.2-2.2-.8-4.9 2.7-13.8 3.6-21.5-1.4-2.8 4.7-5.3 1.6-15.8-4.7z"/><path fill="#00D756" d="M239.7 51.5c-9 3.5-8 16.3.4 12.5-5.9 9.8 1 11.6 5.4 15-11.1-5.5-7.7 2.4-9.6 5.4l20.7 16.4c22.5 1.6 38.2 13.9 67.5 4.6 11.8-3.7 40-25.4 6.8-32.9 12.6-11.9 8-16.5-11.1-15 7.6-1.6 34.3-25-13.2-21.1-1.2-14.8-11 4-16.1 7.1 3.3-5.9 4.3-12.2-10.7-10.7 10.5-3.2 2.9-22.5-17.1.4 11.4-13.3 7.4-12.4-6.1-2.9-.8-10.7-24.4-9.4-11.1 6.1-12.2-8.6-22.3 11.4-5.8 15.1z"/><path fill="#554941" d="M176.9 272.3c0 12-2.1 36.2-3.2 37.4-2.8 3.1-2.5 4.8-3.8 7.2l8.9.4 2.1-45.6c-1 1.6-2.2-.1-4 .6z"/><path fill="#917C6F" d="M177.3 311.5c-5.6 4.1-11.9 5.7-18.4 14.1-4 5.2-6.8 3.4-11.8 8.4-3.7 3.7-8.8 3-13.8 3.2-3.4.1-8.7 5-.5 7.5 7.2 2.2 13.9 5.9 23.9 1.1 3.8-1.8 7.4 1.3 9.7-7.8.5-1.9 3.9-1.9 6.1-2.2 8.3-1.1 15.7 7.3 25.2 2 3.9-2.2 15.4-2.9 16.6-3.8 1.3-.9-2.2-20.5-14.3-20.4-3.8.1-1.6-6.6-5.9-7.9-12.5-3.5-18.6 5.5-16.8 5.8zM230.6 307.9c-10.3 2.4-20.1 15.9-16.4 25.8 1.9 5.1 11.4 4.5 16.4 7.8 2.7 1.8 1.8 5.9 3.3 8.8 1.2 2.4 2.8 4.7 4.8 5.8 3 1.7 8.4-.2 9.8-3.3.7-1.5-3.1-7.5-1.5-8.1 3.1-1.2 5.8-2.7 5.3-3 7.1 4.9 13 6.3 20 6.3 1.3 0 5.9-.8 5.3-2.8-1.9-6.2-11.2-6.7-16.2-10.9-5.4-4.5-9.3-10.6-14.6-15.2-5.1-4.2-9.8-12.7-16.2-11.2z"/><path fill="#6C5D53" d="M129.5 340.2s11.1 6.1 17.1 6c3.7-.1 10.5-4 10.5-4s4.4.2 6-1c2.5-1.8 1.8-6.2 4.2-8 5.5-4.1 20-4 20-4s5.5 6.8 7.2 6.5 18.8-3.2 20.8-4.4c2-1.2 4.8-2.9 7.2-2.4 5 1 11.2 8.2 11.8 9.8s.6 10.3 3.8 14c1.4 1.6 5.8 2.5 5.8 2.5s-3.2 3.5-8.4-2.5c-2.8-3.2-2.5-9.6-4.1-11-3.1-2.7-12.4-4.1-12.4-4.1-2.1-.5-3.7-2.4-4.4-3.5-1.4-.9-15.7 3.1-21 4.8-3.7 1.1-9.4-1-12.1-2s-10.2-2.5-14-.4c-2.6 1.5-.8 4.3-4.4 7.1-1.6 1.3-3 .9-5.6 1.6-2.5.6-7.4 2.9-10.5 2.8-5.7-.3-13-2.3-17.8-5.6-.5-.5.3-2.2.3-2.2z"/><path fill="#00973C" d="M131.7 130.3c-9.8-4.1-12.9-1.9-12.8 3.1-6.2-5.1-15.5-.1-16.8 8.3-9.3-9.8-35.5 8.3-23.1 18.5-7.7 4.9-.2 17.1 12.5 11.7-4.7 7.3 9.7 17.7 20.9 3.7-1.1 1.2 8.5-.9 11.4-7.7 3.9 6.4 16.5 5.8 17.6-6 0 0 14.1 4.8 16-6.8 9.1 9.1 25.7 6.1 12.8-6.6 14 2.7 22.5 2.6 17.1-4.6 10.7 7 19.3 17.4 39.6 8.5 10.6-8.2 1.8-17.5-9.5-27.1-3-3.2 2.3-9.1-20.1-6-.5-2.3-10.7-5.6-19.5 1.7 11.9-6.6 3-10.5-4.3-3.7 12.9-14.5-.9-13.1-10.9-8.8 2.3-6.4-26.4-6.6-18.2 2.3-5.5-.4-10.7 12.1 4.3 13.7-1.1 7.8-6 11.2-13.6 11.4-.9-1.9 4.2-7.8-3.4-5.6z"/><path fill="#008033" d="M145.9 112.4c-.4.4-1 .6-1.6.6-.6 0-1.4.3-2.1 1.1-.7.8-1.2 1.9-1.2 3s.3 2.1 1.4 3.1c.5.4 1.2.9 2.1 1.3 2.3-1.9 3.8-4.7 4.3-8.6-1.1-.1-2.1-.3-2.9-.5zm41.4 19.9c5.4 7.1-3.1 7.2-17.1 4.6 5 4.9 5.6 8.4 3.9 10.2 5.3.9 9.5 1.2 11.6.8.6-.1 1-.3 1.2-.4 0 .1 0-.8-1.2-2.3-.7-.9-.5-2.2.4-2.9.7-.5 1.6-.6 2.4-.1 5.5 3.6 10.2 7.9 15.8 10.1 5.5 2.2 12 2.6 21.6-1.6 2.3-1.8 3.3-3.4 3.7-5 .4-1.6.1-3.3-.9-5.3-.1-.2-.3-.4-.4-.7l-1.2 1.1c-20.5 8.9-29.1-1.5-39.8-8.5zm-29.8 11.1c-1.9 11.7-16 6.8-16 6.8-1.2 11.8-13.8 12.4-17.7 6-2.9 6.8-12.5 8.9-11.4 7.7-11.2 14-25.6 3.6-20.9-3.7-4.2 1.8-7.8 1.6-10.5.5-.1.5-.5.9-.9 1.2-1.5.9-2 2-2.2 3.1-.1 1.1.3 2.4 1.2 3.5 1.9 2.2 5.8 3.8 11.5 1.4 1-.5 2.3 0 2.7 1 .3.6.2 1.4-.2 2-.8 1.2-.8 2.3-.2 3.6s1.9 2.5 3.7 3.2c3.6 1.4 8.9 1 14.1-5.5l1.6 1.3 1.5 1.4c.1-.1.6-.6.4-1.6-.1-.5-.5-1-.8-1.2s-.5-.2-.6-.3v-.1c.5-.1 1.6-.4 2.8-.9 2.3-1.1 5-3.1 6.2-5.8.5-1 1.7-1.5 2.7-1 .4.2.7.4.9.8 1.4 2.3 4.7 3.5 7.7 2.9 3-.6 5.7-2.8 6.2-8 .1-1.1 1.1-1.9 2.3-1.8.1 0 .3 0 .4.1 0 0 3.3 1.1 6.5.8 1.6-.1 3.1-.5 4.3-1.4s2.1-2.2 2.5-4.7c.2-1.1 1.3-1.9 2.4-1.7.4.1.8.3 1.1.6 4 4 10.1 5.2 12.6 4.4.6-.2 1-.5 1.2-.7.2-.2.3-.5.2-1-.1-1.1-1.1-3.3-4.1-6.3-.4-.4-.6-.8-.6-1.3-3.4-.4-7.4-2.1-10.6-5.3z"/><path fill="#00CC52" d="M200.4 92.9c-2.8 5.9-15 8.2 2.1 15-5.6 3-6.8 5.7 2.5 7.9-17 2.6-12.4 8.7-5.4 10-8.4 4.7-11.1 20.6 15 22.1-7.1 11.2 17.3 11.8 17.5 1.4-2.7 3.7-.7 14.1 12.1 5-4.1 14.2 19.4 12.5 16.4 0 4.3 15.4 18.3 6.1 25-.4 10 4.1 31 .8 28.9-18.6 9.6-.6 39.4-22.3 7.1-18.9 22.5-15.7-6.9-11.9-13.2-8.9 10.3-1.7 18.7-14.2-16.1-13.2 0-7.5 6.2-18.7-18.2-11.8-9.6-17.9-19.9-3-22.6 2.2 2.4-10.2-4.1-8.9-8.5-1.5 1.9-5.1-9.2-13.2-15.4-1.8-14.8-8-20.6-3.6-18.2 12.1-2.2-7.2-5.6-14.4-9-.6z"/><path d="M203.8 231.2l-2.9.1c.1 1.5.2 2.9.3 4.6-3.2-.2-6.7-.8-9.5-1.2-.2-.3-.5-.5-.8-.7 0-.8-.1-1.6-.1-2.5l-2.8.1c0 .9.1 1.7.2 2.7h-.2l-.3-.1c-.4 0-.8.3-1.1.5s-.4.6-.6 1c-.3.8-.4 1.7-.4 2.7.1 1 .3 1.9.6 2.6.3.6.8 1.1 1.4 1.3.2.2.4.5 1 .8.2 4.3.3 8.2.4 12h-.5c-.4.1-.8.3-1.1.6s-.4.7-.5 1.1c-.2.8-.3 1.7-.2 2.8s.5 1.9.9 2.6c.2.3.5.7.8.9.2.1.4.1.7.2 0 2.5.1 5.1.1 5.6 0 2.7-.1 5.4-.3 8l-.1.1c-.3 0-.5 0-.7.2-.3.2-.6.5-.8.9-.4.7-.8 1.6-.9 2.6s-.1 2 .2 2.8c.1.4.3.8.5 1.1.2.3.6.5 1 .6h.30000000000000004c-.4 4.6-.9 9.1-1.5 13.6l-.4.3h-.3c-.1 0-.3-.1-.4 0-.4.1-.8.4-1 .7s-.3.7-.4 1.1c-.2.8-.2 1.8 0 2.8.3 1.3.8 2.3 1.6 3-.4 3.7-.8 7.3-1.1 11l-.2.2h-.6c-.4.1-.8.4-1 .7-.2.3-.3.7-.4 1.1-.1.8-.1 1.8.2 2.8.3 1.1.8 2 1.4 2.7-.2 4.6-.3 9.2 0 13.9.1 1.9-.2 4.3 1.2 6.2 1.2 1.6 3.5 2.7 5.6 3.5 2 .8 3.8 1.3 3.8 1.3.2.1.3.3.7.3.3 0 .7-.1 1-.3.3-.2.6-.6.8-1.1.3-.7.1-1.3-.1-1.8l-.4-.8c-.1-.2-.3-.3-.5-.3 0 0-1.5-.2-3.2-.7s-3.7-1.3-4.4-2.2c-1.1-1.3-1.1-3.5-1.2-5.7-.3-3.7-.3-7.3-.2-11 .2 0 .4 0 .6-.1.5-.3.9-.7 1.1-1.2 3.9-1.1 5.5-1.1 8.4-1.2-.2 4.1-.3 8.2-.1 12.5.1 1.9-.2 4.3 1.2 6.1 1.2 1.6 3.5 2.7 5.6 3.5 2 .8 3.8 1.3 3.8 1.3.2.1.3.3.7.3.3 0 .7-.1 1-.3.3-.2.6-.6.8-1.1.3-.7.1-1.3-.1-1.8l-.4-.8c-.1-.2-.3-.3-.5-.3 0 0-1.5-.2-3.2-.7s-3.7-1.3-4.4-2.2c-1.1-1.3-1.1-3.5-1.2-5.7-.3-3.6-.2-7.1-.1-10.6.4.2.9.2 1.3 0s.7-.5.9-.8c.5-.2.9-.6 1.2-1.2.2-.6.3-1.2.2-1.9-.1-1.3-.8-2.8-2-3.8l-.1-.1h-.1c-.2-.2-.5-.4-.8-.6.3-3 .7-6.1 1.2-9.2.3 0 .5 0 .8-.1.4-.1.7-.5 1-.8.5-.2 1-.6 1.2-1.1.3-.6.4-1.2.3-1.9 0-1.3-.6-2.8-1.8-3.8l-.1-.1-.1-.1-.2-.1c.6-4.2 1.2-8.5 1.5-12.9.4-.2.7-.4 1-.8l.1-.1v-.1c1.2-1.1 1.6-2.6 1.6-4 0-.7-.2-1.4-.5-1.9s-.7-.8-1.3-1c-.2-.2-.4-.2-.6-.3v-.5c.1-4.5 0-8.8-.1-13.1.4-.1.7-.4 1-.7.6-.2 1-.5 1.3-1 .3-.5.5-1.2.5-1.9.1-1.3-.4-2.9-1.6-4 0 0 0-.1-.1-.1l-.1-.1c-.3-.4-.7-.8-1.3-.9-.2-3.7-.4-7.4-.6-11.2l.3-.2c.6-.1 1-.4 1.3-.9.4-.5.6-1.1.7-1.8.2-1.3-.2-2.9-1.2-4.1l-.1-.2c-.3-.5-.7-.9-1.3-1.1l-.1-2c0-1-.1-1.8-.1-2.5zm-10.7 11c3.2-.1 4.6.3 8.4.9.2 4.4.3 8.5.4 12.5-3.2 0-6.7-.2-9.4-.3-.1-.2-.3-.3-.4-.4-.2-4.1-.4-8.3-.7-12.6.6-.1 1.3-.1 1.7-.1zm3.7 20.2h1.1c1.2 0 2.5.2 4.2.3.1 4.4.2 8.1.2 8.8 0 2-.1 4-.2 6-4 .3-5.3.5-9.9-.2.1-1.1.1-2.3.2-3.5.1-3.6 0-7.2 0-10.8l.2-.2c1.7-.2 3.1-.4 4.2-.4zm3.7 22.1h1.1c-.4 4.9-.9 9.5-1.5 14.1-3.3.3-7.1.3-10.1.2.6-4.4 1.2-8.9 1.6-13.3.3-.2.5-.4.6-.6 2.5-.2 5.4-.4 8.3-.4zm-3.5 21.1h2.2c-.5 3.6-.9 7.3-1.2 10.9-3.3.5-7 .6-9.9.8l-.3-.2c.3-3.2.7-6.4 1.1-9.6h.2c.6-.2.9-.7 1.2-1.1 3.2-.7 4.7-.8 6.7-.8z"/><path fill="#917C6F" d="M169.8 227c4 5 7.9 10 9.6 15.7 1.2-2 3.5-2.2 3.5-6.3-2.7-3.8-8-6.5-13.1-9.4zM130.2 179.3c3.4.7 2.7-.7 4-.9l.9 5.6-3.9 1.8-1-6.5z"/><path fill="#C8BEB7" d="M200.8 221c1.4 9.8 2.2 47.3 2.2 50.5-.3 24.8-6.1 43-4.9 64.6.1 1.9-.1 4.2 1.1 5.7 2 2.7 9 4.5 9 4.5s.8.9 1.6-.8c.3-.7-.5-1.9-.5-1.9s-6.2-.9-8.1-3.1c-1.4-1.6-1.3-4-1.4-6.1-1.4-19.3 4.5-36.8 4.9-58 .3-14.4-.8-27.8-1.6-43.2-.2-4 0-10.7-1.2-13.7-.3-.7-1.9-.9-2.8-1.1-1.6-.3-3.5 1-3.5 1l4.5.6c0 .2.7.6.7 1zM187.7 218.3c1.4 9.8 2.2 47.3 2.2 50.5-.3 24.8-6.3 46.7-4.9 70.1.1 1.9-.1 4.2 1.1 5.7 2 2.7 9 4.5 9 4.5s.8.9 1.6-.8c.3-.7-.5-1.9-.5-1.9s-6.2-.9-8.1-3.1c-1.4-1.6-1.3-4-1.4-6.1-1.6-21.2 4.5-42.2 4.9-63.5.3-14.4-.8-27.8-1.6-43.2-.2-4 0-10.7-1.2-13.7-.3-.7-1.9-2.2-1.9-2.2l.1 2.6c0 .2.7.7.7 1.1z"/><path fill="#A05A2C" d="M187.4 235c1.1-.4 11.7 2 17.4 1.7 2.2 2.1 1.2 6.2-.6 5.9-8.2-1.1-7.3-1.7-16.4-1l-.4-6.6z"/><path fill="#784421" d="M189.2 238.6c.1 1.9-.5 3.4-1.4 3.5-.9 0-1.6-1.4-1.7-3.3-.1-1.9.5-3.4 1.4-3.5.8-.1 1.6 1.4 1.7 3.3z"/><path fill="#C8BEB7" d="M188.3 235.1l1.3.1c1.4 2.6.6 5-.4 6.4l-1.3.1s.5 1 1.5.7c1.6-.4 2.1-2.9 2.1-4.5 0-1.3 0-3.2-1.4-3.6-.8-.1-1.5.3-1.8.8zM202.2 236.8h1.2c1.4 2.6 1 4.3 0 5.8l-.8-.1s0 1 1.1.7c1.4-.3 1.9-2 1.9-3.6 0-1.3-.5-3.4-1.6-3.6-.9-.2-1.5.3-1.8.8z"/><path fill="#A05A2C" d="M188.3 256c1.1-.5 11.8 1 17.5.2 2.4 1.9 1.8 6.1-.1 5.9-8.3-.4-7.4-1.1-16.4.5l-1-6.6z"/><path fill="#784421" d="M190.7 259.2c.3 1.9-.2 3.5-1.1 3.6s-1.8-1.3-2-3.2c-.3-1.9.2-3.5 1.1-3.6s1.7 1.4 2 3.2z"/><path fill="#C8BEB7" d="M189.2 255.9l1.3-.1c1.6 2.5 1 4.9.2 6.4l-1.2.2s.6.9 1.6.6c1.5-.5 1.9-3.1 1.7-4.7-.1-1.3-.3-3.2-1.7-3.5-.9.1-1.6.6-1.9 1.1zM203.2 256.4l1.2-.1c1.6 2.5 1.3 4.2.5 5.8h-.9s.1.9 1.1.6c1.3-.4 1.7-2.2 1.6-3.8-.1-1.3-.8-3.3-1.9-3.5-.8 0-1.3.5-1.6 1z"/><path fill="#A05A2C" d="M188 284.2c1.1.5 11.8-1 17.5-.2 2.4-1.9 1.8-6.1-.1-5.9-8.3.4-7.4 1.1-16.4-.5l-1 6.6z"/><path fill="#784421" d="M190.3 280.9c.3-1.9-.2-3.5-1.1-3.6s-1.8 1.3-2 3.2c-.3 1.9.2 3.5 1.1 3.6s1.7-1.3 2-3.2z"/><path fill="#C8BEB7" d="M188.9 284.2h1.3c1.6-2.5 1-4.9.2-6.4l-1.2-.2s.6-.9 1.6-.6c1.5.5 1.9 3.1 1.7 4.7-.1 1.3-.3 3.2-1.7 3.5-1 0-1.7-.5-1.9-1zM202.9 283.8l1.2.1c1.6-2.5 1.3-4.2.5-5.8h-.9s.1-.9 1.1-.6c1.3.4 1.7 2.2 1.6 3.8-.1 1.3-.8 3.3-1.9 3.5-.8 0-1.4-.5-1.6-1z"/><path fill="#A05A2C" d="M185.7 299.8c1.1-.5 11.9.3 17.5-.8 2.5 1.8 2.1 6 .3 5.9-8.3.1-7.4-.6-16.3 1.4l-1.5-6.5z"/><path fill="#784421" d="M187.9 302.5c.4 1.8 0 3.5-.8 3.6s-1.8-1.2-2.2-3c-.4-1.8 0-3.5.8-3.6s1.8 1.2 2.2 3z"/><path fill="#C8BEB7" d="M186.6 299.7l1.3-.1c1.8 2.4 1.3 4.8.6 6.4l-1.2.3s.6.9 1.6.5c1.5-.6 1.7-3.2 1.5-4.8-.2-1.3-.5-3.2-1.9-3.3-1.1 0-1.7.5-1.9 1zM200.6 299.4l1.2-.1c1.8 2.4 1.6 4.1.8 5.7h-.8s.2.9 1.2.6c1.3-.5 1.6-2.3 1.4-3.8-.2-1.3-1-3.3-2.1-3.4-1-.1-1.5.4-1.7 1z"/><path fill="#A05A2C" d="M184 318.6c1-.6 11.8-.4 17.4-1.9 2.6 1.6 2.5 5.8.6 5.9-8.3.6-7.5-.2-16.2 2.4l-1.8-6.4z"/><path fill="#784421" d="M186.5 321.4c.5 1.8.2 3.5-.6 3.7s-1.9-1.1-2.4-2.9-.2-3.5.6-3.7 1.9 1.1 2.4 2.9z"/><path fill="#C8BEB7" d="M184.9 318.4l1.3-.2c1.9 2.3 1.6 4.7 1 6.4l-1.2.4s.7.9 1.6.4c1.4-.7 1.5-3.3 1.2-4.8-.3-1.3-.7-3.1-2.1-3.2-1-.1-1.6.5-1.8 1zM198.8 317.2l1.2-.2c1.9 2.3 1.8 4 1.2 5.7l-.8.1s.2.9 1.2.5c1.3-.6 1.5-2.3 1.2-3.9-.3-1.3-1.2-3.2-2.3-3.2-1-.1-1.5.5-1.7 1z"/><path fill="#554941" d="M126.9 197.7s6.1 10.5 2 16.5c-3.4 4.9-14.1-1.3-19-1.3-7.4.9-14.1 1.6-20.7 2.9l-2 1.6c6.3-.8 9.3-2.6 16.9-2.2 4.7.3 12.7 2.3 17.5 5.3 16.6 10.5 32.1 19.9 46.1 33.1 4.6 4.3 6.8 24.4 12.3 22 6.4-2.9 5-25.7 5-25.7s-15.8-8.2-21.2-13c-14.5-12.9-25.8-16-31.8-35.8-.7-1.9-5.1-3.4-5.1-3.4z"/><path fill="#6C5D53" d="M250.9 339.2c-1.3 3-4 4-3.6 4.2 1.5 1 3.9-1.1 5.2-2.8 4.8 5.4 15.9 8.5 21.9 6.6 4.2-1.3 1.2-2.4 1.2-2.4-7.5 1.7-16.2-4.1-23.2-8.8 0 .2-1.1 2.3-1.5 3.2z"/><path fill="#0a4" d="M214.4 80.2l-.3.1c.1.4.3.8.5 1.2 0-.4-.1-.8-.2-1.3zm-11.7 13.5l-.1.2c-1 2-2.5 3.5-3.8 4.7s-2.4 2.3-2.7 2.7l-.1.2c0 .1.1.2.3.4.7.7 2.8 2 6.6 3.6 1.8-.6 4.1-1.2 7.1-1.7-9.3-2.1-8.1-4.9-2.5-7.8-2-.9-3.6-1.6-4.8-2.3zm-6.7 7.7zm134.9 17.3c-4.1 2.6-8.6 4.5-11.3 4.7.3 3.2 0 5.9-.7 8.3 1.3-.6 2.8-1.2 4.2-2.1 3.5-2 7-4.6 9-6.8 1-1.1 1.6-2.1 1.8-2.7.2-.5.2-.3 0-.5-.1-.1-1-.7-3-.9zm-131.4.8c-1 .3-1.8.6-2.4.9-.9.5-1.2.8-1.3.9.1.1.2.3.7.7.5.4 1.3.7 2.2 1 .1-1.2.3-2.4.8-3.5zm-3.7 1.8zm4.5 6.9c-3 2-4.8 5.8-3.8 9 .6 1.7 1.9 3.5 4.8 5.1s7.3 2.8 13.6 3.2c1.3.1 2.3 1.2 2.2 2.6 0 .4-.2.8-.4 1.1-1.3 2-1.1 2.7-.7 3.3s1.5 1.3 3.3 1.7c1.8.3 4 .2 5.8-.4 1.9-.6 3.3-1.6 4-2.6.7-1.1 2.2-1.4 3.3-.7.7.5 1.2 1.3 1.1 2.2-.1 1.4.3 2.4 1.2 2.8.9.3 3.4.3 8.1-3 1.1-.8 2.6-.5 3.4.6.4.6.6 1.4.4 2.1-.9 3-.3 4.4.7 5.4s2.7 1.6 4.7 1.5c2-.1 4-.9 5.2-2 1.2-1.2 1.8-2.6 1.2-5-.2-1.3.6-2.6 2-2.8 1.2-.2 2.3.5 2.7 1.6 1 3.5 2.4 5.1 3.7 5.9 1.4.8 3 .9 5 .4 4.1-1 9.1-4.7 12.3-7.8.7-.7 1.7-.8 2.6-.5 4.3 1.7 11.6 1.9 17.1-.5 4.5-2 7.9-5.3 8.5-11.2-6.5 4.1-15.9 4.2-21.6 1.9-6.7 6.4-20.7 15.8-25 .4 2.9 12.5-20.5 14.2-16.4 0-10 7.1-13.3 2.4-13.1-1.8-4.5 6.9-22.8 5.3-16.5-4.6-11-.9-16.9-4.1-19.4-7.9z"/><path fill="#00C64F" d="M287.8 152c-6.3 8.4-4.4 10.9 2.5 9.9-7.9 5.5-10.4 9-3.2 8.8-1.8 5.5-.8 8.1 5 6-8.4 10.1 4.8 25.4 19.4 9.5 13.1 11.7 27.9 3.8 19.1-12.4 17.9 8.8 23.1-4.4 13.4-7.1 9.7.3 17.2-1 12-11 12.2-10.2 1.5-17.1-18.7-8.1 12.7-16.1-17.2-13.6-28.3-11-6.1-9.5-16.3-.7-9.6 6.9-8.1-6.5-24.8 6.1-11.6 8.5z"/><path fill="#008033" d="M86.1 218c5-2 4.4-8.6-6.8-6.1-3.3-1.6-4.6-3.8 2.8-8.1 8.5 5.2 10.7 2.7 13.4.8 8.1-1 2.4-10.1-7.1-11.4 6.8-1.7-14.8-19.2-17.9-3.3-11.1.4-14.1 4.7-11.1 11.9-8.9-4.9-15.7-5-17.9 5.6-5.8-4.6-24 1.4-15.2 12.9-1.5 8.6 4.3 8.6 9.6 5.3-6.3 6.7.1 18.7 15.7 14.4 8.5 3.4 16.3 4.3 22-4.3.8 8.7 10.8 12 17.4 2.5-2.4 3.9 5.6 6.9 5.8.5 7.7 6.9 14.8 3.5 13.1-2.8 11.3 4.6 21.2 2.3 12.9-6.3 4.5-2.6 2.9-8.2-9.8-11.6 2.7-4.9-6.8-9.1-10.7-2.5-4.8 3.6-15 8.3-16.2 2.5z"/><path fill="#0a4" d="M291.7 144.2c-1.8.3-3.6 1.1-4.8 2-1.4 1.1-1.9 2.2-1.9 2.3 0 .1 0 .1.4.4.4.3 1.3.7 2.8 1 1.2.2 1.9 1.4 1.7 2.5-.1.3-.2.6-.4.9-1.5 2-2.5 3.6-3 4.8-.5 1.1-.4 1.7-.4 1.7l.4.1c.6.1 1.8.2 3.4-.1 1.2-.2 2.3.6 2.5 1.8.1.8-.2 1.6-.9 2.1-1.9 1.3-3.5 2.6-4.6 3.6-.7.6-.8.8-1.1 1.2.4.1.4.1 1.2.1 1.2 0 2.2.9 2.2 2.1 0 .2 0 .5-.1.7-.4 1.3-.7 2.3-.7 3 0 .6 0 .8.1.8h.2c.4 0 1.4-.1 2.6-.6 1.1-.4 2.4.2 2.7 1.4.2.7.1 1.5-.4 2-3.5 4.2-2.4 9 .7 11.4 1.6 1.2 3.6 1.8 6.2 1.2s5.8-2.2 9.2-5.9c.8-.9 2.1-.9 3-.2 6.1 5.4 12.1 5.9 15.2 4 1.6-.9 2.6-2.4 2.9-4.6.1-1.2.1-2.6-.3-4.2-3.7-.1-8.2-1.8-12.5-5.6-14.6 15.8-27.9.6-19.4-9.5-5.7 2.1-6.8-.5-4.9-6-7.2.1-4.7-3.3 3.2-8.8-5.5.9-7.8-.6-5.2-5.6zm-3.2 31.1zm62.2-20.4c1.4.4 2.5 1 3.3 1.7-.2-.6-.1-1.2.2-1.7h-3.5zm4.7 5.6c-.3 1.5-1.4 2.8-3.3 3.7 1-.2 1.8-.5 2.3-.8.8-.5 1-.8 1.1-1.7.1-.3 0-.7-.1-1.2zm-18.1 1.4c2.8 5.2 3.2 9.6 2 12.7 3.7.5 5.9-.4 6.7-1.3.7-.7.8-1.4.5-2.1s-1.1-1.6-3.1-2.2c-1.2-.3-1.8-1.5-1.5-2.6.3-1 1.2-1.6 2.2-1.6h1.7c-2.4-.4-5.3-1.3-8.5-2.9z"/><path fill="#00692A" d="M66.8 192.7c-.9.1-1.7.3-2.3.5 1 .4 2 .9 3 1.5-.3-.7-.6-1.3-.7-2zm23.4 4.1c-4.6 2.7-5.8 4.5-5.3 5.9 2.1 1.1 3.6 1.6 4.6 1.8.7-.1 1.4-.2 2-.2.7-.3 1.4-.9 2.5-1.7.3-.2.7-.4 1.2-.4 1.5-.2 1.7-.6 1.7-.6s.1-.4-.4-1.3c-.2-.3-.4-.6-.7-.8-1.5-.5-3.3-1.4-5.6-2.7zm-58 12c-1 .3-1.9.6-2.7 1.1-1.7 1-2.8 2.2-3.1 3.5-.3 1.3-.2 3 1.8 5.4.4.5.6 1.2.5 1.9-.3 1.9-.2 3.1 0 3.7.2.6.3.6.7.7.7.2 3-.1 5.3-1.6 1.1-.7 2.6-.3 3.3.8.6.9.4 2.1-.3 2.9-2.4 2.5-2.3 5.7-.2 8.1s6.4 4.2 13.5 2.2c.5-.1 1.1-.1 1.6.1 4.1 1.6 7.8 2.6 10.8 2.2 2.8-.3 5.2-1.5 7.5-4.6-3.5.2-7.2-.8-11.1-2.4-15.6 4.3-22-7.7-15.7-14.4-5.3 3.3-11.1 3.3-9.6-5.3-1.3-1.5-2-3-2.3-4.3zm49.4 19.8c-1.8 2.8-3.9 4.6-6.2 5.6.3.4.4.8.5 1.2.3 3.4 2.2 5.4 4.6 5.9 2.4.5 5.5-.4 8.4-4.5h.1c-3.9-.4-7-3.5-7.4-8.2zm36.4.2c.8 3-.4 5.4-2.8 6.2 3.5.8 6.4.8 7.6.4l.6-.3v-.1c0-.3-.5-1.7-2.4-3.7-.4-.4-.6-1-.7-1.6l-2.3-.9zm-19 2.3c-2.1 3-4.5 4.7-6.8 5.3.9.7 1.2 2 .7 3l-.1.1s.3.3.6.3c.3.1.4 0 .5 0s.3-.2.4-1.3c0-1.3 1.1-2.4 2.5-2.4.6 0 1.1.2 1.6.6 3.4 3.1 6.3 3.5 7.8 3 .7-.2 1.1-.6 1.3-1.1.2-.5.4-1.2.1-2.3-.2-.9.1-1.9.8-2.5-1.1-.6-2.3-1.4-3.4-2.4-.4 6.6-8.4 3.5-6-.3z"/></svg>