<svg width="170" height="30" xmlns="http://www.w3.org/2000/svg" viewBox="0 0 170 30"><g fill="currentColor"><path d="M6.256 23.889499999999998 Q4.025 23.889499999999998 2.9095 22.624499999999998 1.794 21.3595 1.794 18.6225 L1.794 7.605499999999999 3.864 7.605499999999999 3.864 18.438499999999998 Q3.864 20.255499999999998 4.393 21.163999999999998 4.922 22.072499999999998 6.302 22.072499999999998 7.728 22.072499999999998 8.2455 21.141 8.763 20.2095 8.763 18.438499999999998 L8.763 7.605499999999999 10.833 7.605499999999999 10.833 18.6225 Q10.833 21.313499999999998 9.683 22.601499999999998 8.533 23.889499999999998 6.256 23.889499999999998 z" /><path d="M16.376 21.9345 Q16.698 22.0265 16.997 22.061 17.296 22.095499999999998 17.549 22.095499999999998 18.883000000000003 22.095499999999998 19.5385 21.026 20.194000000000003 19.9565 20.194000000000003 17.4725 20.194000000000003 16.1845 20.033 15.3105 19.872 14.436499999999999 19.561500000000002 13.907499999999999 19.251 13.378499999999999 18.814 13.1485 18.377000000000002 12.9185 17.802 12.9185 17.043 12.9185 16.376 13.2865 L16.376 21.9345 zM16.376 11.561499999999999 Q16.744 11.3775 17.1235 11.274 17.503 11.170499999999999 18.032 11.170499999999999 19.159 11.170499999999999 19.964 11.619 20.769 12.067499999999999 21.275 12.884 21.781 13.7005 22.0225 14.862 22.264000000000003 16.0235 22.264000000000003 17.4725 22.264000000000003 20.6695 21.125500000000002 22.2565 19.987000000000002 23.8435 17.549 23.8435 16.698 23.8435 15.870000000000001 23.671 15.042000000000002 23.4985 14.398 23.2225 L14.398 6.041499999999999 16.376 5.6965 16.376 11.561499999999999 z" /><path d="M32.637 23.1995 Q32.338 23.3145 31.9125 23.418 31.487000000000002 23.5215 31.015500000000003 23.602 30.544000000000004 23.6825 30.0725 23.74 29.601000000000003 23.7975 29.21 23.7975 28.267000000000003 23.7975 27.485000000000003 23.579 26.703000000000003 23.3605 26.151000000000003 22.8085 25.599000000000004 22.2565 25.3 21.302 25.001 20.3475 25.001 18.8985 L25.001 11.4695 26.979000000000003 11.4695 26.979000000000003 18.8295 Q26.979000000000003 20.6005 27.5195 21.325 28.060000000000002 22.0495 29.164 22.0495 29.532000000000004 22.0495 29.900000000000002 22.015 30.268 21.9805 30.659000000000002 21.8655 L30.659000000000002 11.4695 32.637 11.4695 32.637 23.1995 z" /><path d="M36.202 11.814499999999999 Q37.053000000000004 11.561499999999999 38.042 11.389 39.031 11.2165 39.859 11.2165 40.756 11.2165 41.492000000000004 11.458 42.228 11.699499999999999 42.7455 12.2745 43.263000000000005 12.849499999999999 43.5505 13.827 43.838 14.804499999999999 43.838 16.2535 L43.838 23.5445 41.86 23.5445 41.86 16.4145 Q41.86 14.6205 41.4 13.792499999999999 40.94 12.9645 39.675000000000004 12.9645 39.008 12.9645 38.18 13.1945 L38.18 23.5445 36.202 23.5445 36.202 11.814499999999999 z" /><path d="M49.128 11.4695 L52.164 11.4695 52.164 13.1715 49.128 13.1715 49.128 19.8185 Q49.128 21.060499999999998 49.576499999999996 21.555 50.025 22.0495 50.784 22.0495 51.175 22.0495 51.5315 21.9345 51.888 21.819499999999998 52.141 21.6585 L52.532 23.2455 Q51.589 23.7975 50.531 23.7975 48.829 23.7975 47.9895 22.843 47.15 21.8885 47.15 19.6805 L47.15 8.2265 49.128 7.881499999999999 49.128 11.4695 z" /><path d="M62.146 23.1995 Q61.847 23.3145 61.4215 23.418 60.996 23.5215 60.5245 23.602 60.053000000000004 23.6825 59.581500000000005 23.74 59.11 23.7975 58.719 23.7975 57.776 23.7975 56.994 23.579 56.212 23.3605 55.660000000000004 22.8085 55.108000000000004 22.2565 54.809000000000005 21.302 54.510000000000005 20.3475 54.510000000000005 18.8985 L54.510000000000005 11.4695 56.488 11.4695 56.488 18.8295 Q56.488 20.6005 57.0285 21.325 57.569 22.0495 58.673 22.0495 59.041000000000004 22.0495 59.409000000000006 22.015 59.777 21.9805 60.168 21.8655 L60.168 11.4695 62.146 11.4695 62.146 23.1995 z" /><path d="M75.463 23.889499999999998 Q72.657 23.889499999999998 71.162 21.796499999999998 69.667 19.7035 69.667 15.333499999999999 69.667 13.1025 70.0925 11.561499999999999 70.518 10.0205 71.277 9.054499999999999 72.036 8.0885 73.071 7.663 74.106 7.237500000000001 75.325 7.237500000000001 76.337 7.237500000000001 77.211 7.501999999999999 78.08500000000001 7.766499999999999 78.637 8.157499999999999 L78.016 9.8825 Q77.464 9.5145 76.8315 9.2845 76.199 9.054499999999999 75.371 9.054499999999999 73.531 9.054499999999999 72.703 10.584 71.875 12.1135 71.875 15.333499999999999 71.875 18.5765 72.749 20.3245 73.623 22.072499999999998 75.601 22.072499999999998 76.544 22.072499999999998 77.1305 21.8425 77.717 21.6125 78.269 21.2445 L78.844 22.877499999999998 Q78.315 23.2915 77.4525 23.5905 76.59 23.889499999999998 75.463 23.889499999999998 z" /><path d="M88.734 17.5185 Q88.734 18.944499999999998 88.481 20.105999999999998 88.228 21.2675 87.7105 22.095499999999998 87.193 22.9235 86.39949999999999 23.383499999999998 85.606 23.8435 84.52499999999999 23.8435 83.44399999999999 23.8435 82.639 23.383499999999998 81.83399999999999 22.9235 81.31649999999999 22.095499999999998 80.79899999999999 21.2675 80.54599999999999 20.105999999999998 80.29299999999999 18.944499999999998 80.29299999999999 17.5185 80.29299999999999 16.115499999999997 80.54599999999999 14.942499999999999 80.79899999999999 13.769499999999999 81.31649999999999 12.93 81.83399999999999 12.090499999999999 82.639 11.6305 83.44399999999999 11.170499999999999 84.52499999999999 11.170499999999999 85.606 11.170499999999999 86.39949999999999 11.6305 87.193 12.090499999999999 87.7105 12.93 88.228 13.769499999999999 88.481 14.942499999999999 88.734 16.115499999999997 88.734 17.5185 zM86.66399999999999 17.5185 Q86.66399999999999 16.5065 86.54899999999999 15.667 86.434 14.827499999999999 86.181 14.218 85.928 13.6085 85.514 13.275 85.1 12.9415 84.52499999999999 12.9415 83.92699999999999 12.9415 83.52449999999999 13.275 83.12199999999999 13.6085 82.85749999999999 14.218 82.59299999999999 14.827499999999999 82.478 15.667 82.363 16.5065 82.363 17.5185 82.363 18.5305 82.478 19.369999999999997 82.59299999999999 20.2095 82.85749999999999 20.807499999999997 83.12199999999999 21.4055 83.52449999999999 21.739 83.92699999999999 22.072499999999998 84.52499999999999 22.072499999999998 85.1 22.072499999999998 85.514 21.739 85.928 21.4055 86.181 20.807499999999997 86.434 20.2095 86.54899999999999 19.369999999999997 86.66399999999999 18.5305 86.66399999999999 17.5185 z" /><path d="M91.63199999999999 11.814499999999999 Q92.48299999999999 11.561499999999999 93.472 11.389 94.461 11.2165 95.28899999999999 11.2165 96.18599999999999 11.2165 96.922 11.458 97.65799999999999 11.699499999999999 98.1755 12.2745 98.693 12.849499999999999 98.98049999999999 13.827 99.268 14.804499999999999 99.268 16.2535 L99.268 23.5445 97.28999999999999 23.5445 97.28999999999999 16.4145 Q97.28999999999999 14.6205 96.83 13.792499999999999 96.36999999999999 12.9645 95.10499999999999 12.9645 94.43799999999999 12.9645 93.61 13.1945 L93.61 23.5445 91.63199999999999 23.5445 91.63199999999999 11.814499999999999 z" /><path d="M107.916 13.2865 Q107.249 12.9185 106.49 12.9185 105.91499999999999 12.9185 105.478 13.1485 105.041 13.378499999999999 104.73049999999999 13.907499999999999 104.41999999999999 14.436499999999999 104.25899999999999 15.3105 104.098 16.1845 104.098 17.4725 104.098 19.9565 104.75349999999999 21.026 105.40899999999999 22.095499999999998 106.743 22.095499999999998 106.996 22.095499999999998 107.29499999999999 22.061 107.594 22.0265 107.916 21.9345 L107.916 13.2865 zM107.916 6.041499999999999 L109.89399999999999 5.6965 109.89399999999999 23.2225 Q109.25 23.4985 108.422 23.671 107.594 23.8435 106.743 23.8435 104.25899999999999 23.8435 103.14349999999999 22.2565 102.02799999999999 20.6695 102.02799999999999 17.4725 102.02799999999999 16.0235 102.2695 14.862 102.511 13.7005 103.0285 12.884 103.54599999999999 12.067499999999999 104.351 11.619 105.15599999999999 11.170499999999999 106.25999999999999 11.170499999999999 106.78899999999999 11.170499999999999 107.1685 11.274 107.54799999999999 11.3775 107.916 11.561499999999999 L107.916 6.041499999999999 z" /><path d="M114.81599999999999 18.0935 Q114.839 18.9675 114.97699999999999 19.692 115.115 20.4165 115.42549999999999 20.957 115.73599999999999 21.4975 116.25349999999999 21.796499999999998 116.77099999999999 22.095499999999998 117.576 22.095499999999998 118.243 22.095499999999998 118.80649999999999 21.9 119.36999999999999 21.7045 119.62299999999999 21.566499999999998 L119.99099999999999 23.1535 Q119.692 23.3605 118.9905 23.602 118.28899999999999 23.8435 117.323 23.8435 116.05799999999999 23.8435 115.1955 23.383499999999998 114.333 22.9235 113.79249999999999 22.095499999999998 113.252 21.2675 113.02199999999999 20.1175 112.79199999999999 18.9675 112.79199999999999 17.5875 112.79199999999999 14.2525 113.89599999999999 12.7115 114.99999999999999 11.170499999999999 116.817 11.170499999999999 118.86399999999999 11.170499999999999 119.71499999999999 12.7115 120.56599999999999 14.2525 120.56599999999999 17.0355 120.56599999999999 17.2885 120.56599999999999 17.552999999999997 120.56599999999999 17.8175 120.54299999999999 18.0935 L114.81599999999999 18.0935 zM116.817 12.849499999999999 Q115.82799999999999 12.849499999999999 115.3795 13.8385 114.931 14.827499999999999 114.839 16.4835 L118.496 16.4835 Q118.496 14.804499999999999 118.151 13.827 117.806 12.849499999999999 116.817 12.849499999999999 z" /><path d="M123.487 11.814499999999999 Q124.338 11.561499999999999 125.327 11.389 126.316 11.2165 127.14399999999999 11.2165 128.041 11.2165 128.777 11.458 129.513 11.699499999999999 130.0305 12.2745 130.548 12.849499999999999 130.8355 13.827 131.123 14.804499999999999 131.123 16.2535 L131.123 23.5445 129.145 23.5445 129.145 16.4145 Q129.145 14.6205 128.685 13.792499999999999 128.225 12.9645 126.96 12.9645 126.29299999999999 12.9645 125.465 13.1945 L125.465 23.5445 123.487 23.5445 123.487 11.814499999999999 z" /><path d="M136.252 22.1415 Q137.126 22.1415 137.5745 21.647 138.023 21.1525 138.023 20.3475 138.023 19.8415 137.839 19.485 137.655 19.1285 137.356 18.8525 137.057 18.5765 136.666 18.358 136.275 18.139499999999998 135.884 17.886499999999998 135.493 17.6565 135.125 17.346 134.757 17.0355 134.46949999999998 16.633 134.182 16.2305 134.0095 15.713 133.837 15.1955 133.837 14.5055 133.837 13.010499999999999 134.7685 12.090499999999999 135.7 11.170499999999999 137.287 11.170499999999999 137.954 11.170499999999999 138.552 11.343 139.15 11.5155 139.541 11.7225 L139.10399999999998 13.3095 Q138.69 13.0795 138.276 12.9645 137.862 12.849499999999999 137.379 12.849499999999999 136.643 12.849499999999999 136.206 13.275 135.769 13.7005 135.769 14.5055 135.769 14.965499999999999 135.93 15.299 136.091 15.6325 136.3555 15.896999999999998 136.62 16.1615 136.9535 16.3915 137.287 16.621499999999997 137.655 16.8285 138.09199999999998 17.0815 138.51749999999998 17.380499999999998 138.94299999999998 17.679499999999997 139.2765 18.082 139.60999999999999 18.4845 139.817 19.025 140.024 19.5655 140.024 20.3245 140.024 21.9115 139.0925 22.877499999999998 138.161 23.8435 136.367 23.8435 135.447 23.8435 134.71099999999998 23.5905 133.975 23.3375 133.607 23.130499999999998 L134.021 21.4975 Q134.36599999999999 21.6815 134.9525 21.9115 135.539 22.1415 136.252 22.1415 z" /><path d="M143.773 18.0935 Q143.796 18.9675 143.934 19.692 144.07199999999997 20.4165 144.3825 20.957 144.69299999999998 21.4975 145.2105 21.796499999999998 145.72799999999998 22.095499999999998 146.533 22.095499999999998 147.2 22.095499999999998 147.7635 21.9 148.327 21.7045 148.57999999999998 21.566499999999998 L148.94799999999998 23.1535 Q148.64899999999997 23.3605 147.9475 23.602 147.24599999999998 23.8435 146.27999999999997 23.8435 145.015 23.8435 144.15249999999997 23.383499999999998 143.29 22.9235 142.74949999999998 22.095499999999998 142.20899999999997 21.2675 141.97899999999998 20.1175 141.749 18.9675 141.749 17.5875 141.749 14.2525 142.85299999999998 12.7115 143.957 11.170499999999999 145.77399999999997 11.170499999999999 147.821 11.170499999999999 148.672 12.7115 149.523 14.2525 149.523 17.0355 149.523 17.2885 149.523 17.552999999999997 149.523 17.8175 149.5 18.0935 L143.773 18.0935 zM145.77399999999997 12.849499999999999 Q144.785 12.849499999999999 144.33649999999997 13.8385 143.88799999999998 14.827499999999999 143.796 16.4835 L147.45299999999997 16.4835 Q147.45299999999997 14.804499999999999 147.10799999999998 13.827 146.76299999999998 12.849499999999999 145.77399999999997 12.849499999999999 z" /><path d="M157.64199999999997 13.2865 Q156.97499999999997 12.9185 156.21599999999998 12.9185 155.64099999999996 12.9185 155.20399999999998 13.1485 154.76699999999997 13.378499999999999 154.45649999999998 13.907499999999999 154.146 14.436499999999999 153.98499999999999 15.3105 153.82399999999998 16.1845 153.82399999999998 17.4725 153.82399999999998 19.9565 154.47949999999997 21.026 155.135 22.095499999999998 156.46899999999997 22.095499999999998 156.72199999999998 22.095499999999998 157.021 22.061 157.31999999999996 22.0265 157.64199999999997 21.9345 L157.64199999999997 13.2865 zM157.64199999999997 6.041499999999999 L159.61999999999998 5.6965 159.61999999999998 23.2225 Q158.97599999999997 23.4985 158.14799999999997 23.671 157.31999999999996 23.8435 156.46899999999997 23.8435 153.98499999999999 23.8435 152.8695 22.2565 151.754 20.6695 151.754 17.4725 151.754 16.0235 151.99549999999996 14.862 152.23699999999997 13.7005 152.75449999999998 12.884 153.272 12.067499999999999 154.07699999999997 11.619 154.88199999999998 11.170499999999999 155.986 11.170499999999999 156.515 11.170499999999999 156.89449999999997 11.274 157.27399999999997 11.3775 157.64199999999997 11.561499999999999 L157.64199999999997 6.041499999999999 z" /></g></svg>