<svg width="170" height="30" xmlns="http://www.w3.org/2000/svg" viewBox="0 0 170 30"><g fill="currentColor"><path d="M16.833984375 21.169921875 Q17.2529296875 21.169921875 17.55126953125 21.46826171875 17.849609375 21.7666015625 17.849609375 22.185546875 17.849609375 22.6044921875 17.5576171875 22.896484375 14.7265625 25.15625 11.171875 25.15625 6.9697265625 25.15625 3.99267578125 22.17919921875 1.015625 19.2021484375 1.015625 15 1.015625 10.7978515625 3.99267578125 7.82080078125 6.9697265625 4.84375 11.171875 4.84375 14.802734375 4.84375 17.6337890625 7.1669921875 17.92578125 7.4716796875 17.92578125 7.890625 17.92578125 8.3095703125 17.62744140625 8.60791015625 17.3291015625 8.90625 16.91015625 8.90625 16.4912109375 8.90625 16.1865234375 8.6015625 14.041015625 6.875 11.171875 6.875 7.8076171875 6.875 5.42724609375 9.25537109375 3.046875 11.6357421875 3.046875 15 3.046875 18.3642578125 5.42724609375 20.74462890625 7.8076171875 23.125 11.171875 23.125 14.0791015625 23.125 16.25 21.34765625 16.50390625 21.169921875 16.833984375 21.169921875 z" /><path d="M34.0234375 18.046875 Q34.0234375 20.9921875 31.94140625 23.07421875 29.859375 25.15625 26.9140625 25.15625 23.96875 25.15625 21.88671875 23.07421875 19.8046875 20.9921875 19.8046875 18.046875 19.8046875 15.1015625 21.88671875 13.01953125 23.96875 10.9375 26.9140625 10.9375 29.859375 10.9375 31.94140625 13.01953125 34.0234375 15.1015625 34.0234375 18.046875 zM26.9140625 12.96875 Q24.806640625 12.96875 23.3212890625 14.4541015625 21.8359375 15.939453125 21.8359375 18.046875 21.8359375 20.154296875 23.3212890625 21.6396484375 24.806640625 23.125 26.9140625 23.125 29.021484375 23.125 30.5068359375 21.6396484375 31.9921875 20.154296875 31.9921875 18.046875 31.9921875 15.939453125 30.5068359375 14.4541015625 29.021484375 12.96875 26.9140625 12.96875 z" /><path d="M38.0859375 24.140625 Q38.0859375 24.5595703125 37.78759765625 24.85791015625 37.4892578125 25.15625 37.0703125 25.15625 36.6513671875 25.15625 36.35302734375 24.85791015625 36.0546875 24.5595703125 36.0546875 24.140625 L36.0546875 11.953125 Q36.0546875 11.5341796875 36.35302734375 11.23583984375 36.6513671875 10.9375 37.0703125 10.9375 37.4892578125 10.9375 37.78759765625 11.23583984375 38.0859375 11.5341796875 38.0859375 11.953125 L38.0859375 12.2197265625 Q39.5966796875 10.9375 41.640625 10.9375 43.951171875 10.9375 45.5888671875 12.5751953125 45.931640625 12.91796875 46.2109375 13.298828125 46.490234375 12.91796875 46.8330078125 12.5751953125 48.470703125 10.9375 50.78125 10.9375 53.091796875 10.9375 54.7294921875 12.5751953125 56.3671875 14.212890625 56.3671875 16.5234375 L56.3671875 24.140625 Q56.3671875 24.5595703125 56.06884765625 24.85791015625 55.7705078125 25.15625 55.3515625 25.15625 54.9326171875 25.15625 54.63427734375 24.85791015625 54.3359375 24.5595703125 54.3359375 24.140625 L54.3359375 16.5234375 Q54.3359375 15.05078125 53.294921875 14.009765625 52.25390625 12.96875 50.78125 12.96875 49.30859375 12.96875 48.267578125 14.009765625 47.2265625 15.05078125 47.2265625 16.5234375 L47.2265625 24.140625 Q47.2265625 24.5595703125 46.92822265625 24.85791015625 46.6298828125 25.15625 46.2109375 25.15625 45.7919921875 25.15625 45.49365234375 24.85791015625 45.1953125 24.5595703125 45.1953125 24.140625 L45.1953125 16.5234375 Q45.1953125 15.05078125 44.154296875 14.009765625 43.11328125 12.96875 41.640625 12.96875 40.16796875 12.96875 39.126953125 14.009765625 38.0859375 15.05078125 38.0859375 16.5234375 L38.0859375 24.140625 z" /><path d="M66.5234375 4.84375 Q66.9423828125 4.84375 67.24072265625 5.14208984375 67.5390625 5.4404296875 67.5390625 5.859375 67.5390625 6.2783203125 67.24072265625 6.57666015625 66.9423828125 6.875 66.5234375 6.875 62.4609375 6.875 62.4609375 10.9375 L62.4609375 11.69921875 65.5205078125 11.69921875 Q65.939453125 11.69921875 66.23779296875 11.99755859375 66.5361328125 12.2958984375 66.5361328125 12.71484375 66.5361328125 13.1337890625 66.23779296875 13.43212890625 65.939453125 13.73046875 65.5205078125 13.73046875 L62.4609375 13.73046875 62.4609375 24.140625 Q62.4609375 24.5595703125 62.16259765625 24.85791015625 61.8642578125 25.15625 61.4453125 25.15625 61.0263671875 25.15625 60.72802734375 24.85791015625 60.4296875 24.5595703125 60.4296875 24.140625 L60.4296875 13.73046875 59.4140625 13.73046875 Q58.9951171875 13.73046875 58.69677734375 13.43212890625 58.3984375 13.1337890625 58.3984375 12.71484375 58.3984375 12.2958984375 58.69677734375 11.99755859375 58.9951171875 11.69921875 59.4140625 11.69921875 L60.4296875 11.69921875 60.4296875 10.9375 Q60.4296875 4.84375 66.5234375 4.84375 z" /><path d="M82.7734375 18.046875 Q82.7734375 20.9921875 80.69140625 23.07421875 78.609375 25.15625 75.6640625 25.15625 72.71875 25.15625 70.63671875 23.07421875 68.5546875 20.9921875 68.5546875 18.046875 68.5546875 15.1015625 70.63671875 13.01953125 72.71875 10.9375 75.6640625 10.9375 78.609375 10.9375 80.69140625 13.01953125 82.7734375 15.1015625 82.7734375 18.046875 zM75.6640625 12.96875 Q73.556640625 12.96875 72.0712890625 14.4541015625 70.5859375 15.939453125 70.5859375 18.046875 70.5859375 20.154296875 72.0712890625 21.6396484375 73.556640625 23.125 75.6640625 23.125 77.771484375 23.125 79.2568359375 21.6396484375 80.7421875 20.154296875 80.7421875 18.046875 80.7421875 15.939453125 79.2568359375 14.4541015625 77.771484375 12.96875 75.6640625 12.96875 z" /><path d="M84.8046875 11.953125 Q84.8046875 11.5341796875 85.10302734375 11.23583984375 85.4013671875 10.9375 85.8203125 10.9375 86.2392578125 10.9375 86.53759765625 11.23583984375 86.8359375 11.5341796875 86.8359375 11.953125 L86.8359375 13.0703125 Q88.96875 10.9375 91.9140625 10.9375 93.3994140625 10.9375 94.6435546875 11.4453125 94.8720703125 11.5341796875 95.0625 11.7119140625 95.3544921875 12.0166015625 95.3544921875 12.435546875 95.3544921875 12.8544921875 95.05615234375 13.15283203125 94.7578125 13.451171875 94.3388671875 13.451171875 94.09765625 13.451171875 93.89453125 13.349609375 92.9931640625 12.96875 91.9140625 12.96875 89.806640625 12.96875 88.3212890625 14.4541015625 86.8359375 15.939453125 86.8359375 18.046875 L86.8359375 24.140625 Q86.8359375 24.5595703125 86.53759765625 24.85791015625 86.2392578125 25.15625 85.8203125 25.15625 85.4013671875 25.15625 85.10302734375 24.85791015625 84.8046875 24.5595703125 84.8046875 24.140625 L84.8046875 11.953125 z" /><path d="M104.1015625 23.125 Q104.5205078125 23.125 104.81884765625 23.42333984375 105.1171875 23.7216796875 105.1171875 24.140625 105.1171875 24.5595703125 104.81884765625 24.85791015625 104.5205078125 25.15625 104.1015625 25.15625 99.0234375 25.15625 99.0234375 20.078125 L99.0234375 12.96875 98.0078125 12.96875 Q97.5888671875 12.96875 97.29052734375 12.67041015625 96.9921875 12.3720703125 96.9921875 11.953125 96.9921875 11.5341796875 97.29052734375 11.23583984375 97.5888671875 10.9375 98.0078125 10.9375 L99.0234375 10.9375 99.0234375 5.859375 Q99.0234375 5.4404296875 99.32177734375 5.14208984375 99.6201171875 4.84375 100.0390625 4.84375 100.4580078125 4.84375 100.75634765625 5.14208984375 101.0546875 5.4404296875 101.0546875 5.859375 L101.0546875 10.9375 103.0986328125 10.9375 Q103.517578125 10.9375 103.81591796875 11.23583984375 104.1142578125 11.5341796875 104.1142578125 11.953125 104.1142578125 12.3720703125 103.81591796875 12.67041015625 103.517578125 12.96875 103.0986328125 12.96875 L101.0546875 12.96875 101.0546875 20.078125 Q101.0546875 23.125 104.1015625 23.125 z" /><path d="M114.2578125 12.96875 Q112.150390625 12.96875 110.6650390625 14.4541015625 109.1796875 15.939453125 109.1796875 18.046875 109.1796875 20.154296875 110.6650390625 21.6396484375 112.150390625 23.125 114.2578125 23.125 116.365234375 23.125 117.8505859375 21.6396484375 119.3359375 20.154296875 119.3359375 18.046875 119.3359375 15.939453125 117.8505859375 14.4541015625 116.365234375 12.96875 114.2578125 12.96875 zM119.3359375 23.0234375 Q117.203125 25.15625 114.2578125 25.15625 111.3125 25.15625 109.23046875 23.07421875 107.1484375 20.9921875 107.1484375 18.046875 107.1484375 15.1015625 109.23046875 13.01953125 111.3125 10.9375 114.2578125 10.9375 117.203125 10.9375 119.28515625 13.01953125 121.3671875 15.1015625 121.3671875 18.046875 L121.3671875 24.140625 Q121.3671875 24.5595703125 121.06884765625 24.85791015625 120.7705078125 25.15625 120.3515625 25.15625 119.9326171875 25.15625 119.63427734375 24.85791015625 119.3359375 24.5595703125 119.3359375 24.140625 L119.3359375 23.0234375 z" /><path d="M130.5078125 12.96875 Q128.400390625 12.96875 126.9150390625 14.4541015625 125.4296875 15.939453125 125.4296875 18.046875 125.4296875 20.154296875 126.9150390625 21.6396484375 128.400390625 23.125 130.5078125 23.125 132.615234375 23.125 134.1005859375 21.6396484375 135.5859375 20.154296875 135.5859375 18.046875 135.5859375 15.939453125 134.1005859375 14.4541015625 132.615234375 12.96875 130.5078125 12.96875 zM135.5859375 23.0234375 Q133.453125 25.15625 130.5078125 25.15625 127.5625 25.15625 125.48046875 23.07421875 123.3984375 20.9921875 123.3984375 18.046875 123.3984375 15.1015625 125.48046875 13.01953125 127.5625 10.9375 130.5078125 10.9375 133.453125 10.9375 135.53515625 13.01953125 137.6171875 15.1015625 137.6171875 18.046875 L137.6171875 24.140625 Q137.6171875 24.5595703125 137.31884765625 24.85791015625 137.0205078125 25.15625 136.6015625 25.15625 136.1826171875 25.15625 135.88427734375 24.85791015625 135.5859375 24.5595703125 135.5859375 24.140625 L135.5859375 23.0234375 z" /></g></svg>