<svg width="170" height="30" xmlns="http://www.w3.org/2000/svg" viewBox="0 0 170 30"><g fill="currentColor"><path d="M17.41796875 14.67626953125 Q17.41796875 16.80908203125 16.884765625 18.529296875 16.3515625 20.24951171875 15.2978515625 21.4619140625 14.244140625 22.67431640625 12.6572265625 23.328125 11.0703125 23.98193359375 8.9501953125 23.98193359375 L0.990234375 23.98193359375 0.990234375 22.89013671875 1.3203125 22.89013671875 Q1.7646484375 22.89013671875 2.15185546875 22.82666015625 2.5390625 22.76318359375 2.8310546875 22.56640625 3.123046875 22.36962890625 3.2880859375 22.00146484375 3.453125 21.63330078125 3.453125 21.02392578125 L3.453125 8.27783203125 Q3.453125 7.70654296875 3.28173828125 7.357421875 3.1103515625 7.00830078125 2.818359375 6.81787109375 2.5263671875 6.62744140625 2.13916015625 6.5703125 1.751953125 6.51318359375 1.3203125 6.51318359375 L0.990234375 6.51318359375 0.990234375 5.42138671875 8.9501953125 5.42138671875 Q10.9560546875 5.42138671875 12.5302734375 6.037109375 14.1044921875 6.65283203125 15.18994140625 7.83349609375 16.275390625 9.01416015625 16.8466796875 10.74072265625 17.41796875 12.46728515625 17.41796875 14.67626953125 zM8.3408203125 22.66162109375 Q9.8896484375 22.66162109375 11.05126953125 22.134765625 12.212890625 21.60791015625 12.9873046875 20.59228515625 13.76171875 19.57666015625 14.14892578125 18.09130859375 14.5361328125 16.60595703125 14.5361328125 14.67626953125 14.5361328125 10.80419921875 12.99365234375 8.76025390625 11.451171875 6.71630859375 8.3662109375 6.71630859375 L6.0810546875 6.71630859375 6.0810546875 22.66162109375 8.3408203125 22.66162109375 z" /><path d="M27.26953125 23.98193359375 L19.7666015625 23.98193359375 19.7666015625 22.89013671875 19.8427734375 22.89013671875 Q20.287109375 22.89013671875 20.67431640625 22.82666015625 21.0615234375 22.76318359375 21.34716796875 22.56640625 21.6328125 22.36962890625 21.80419921875 22.00146484375 21.9755859375 21.63330078125 21.9755859375 21.02392578125 L21.9755859375 12.91162109375 Q21.9755859375 12.34033203125 21.80419921875 11.9912109375 21.6328125 11.64208984375 21.3408203125 11.45166015625 21.048828125 11.26123046875 20.66162109375 11.19775390625 20.2744140625 11.13427734375 19.8427734375 11.13427734375 L19.7666015625 11.13427734375 19.7666015625 10.04248046875 23.765625 10.04248046875 24.2607421875 12.61962890625 24.3876953125 12.61962890625 Q24.6416015625 12.03564453125 24.908203125 11.521484375 25.1748046875 11.00732421875 25.56201171875 10.6201171875 25.94921875 10.23291015625 26.5205078125 10.0107421875 27.091796875 9.78857421875 27.955078125 9.78857421875 29.376953125 9.78857421875 30.06884765625 10.28369140625 30.7607421875 10.77880859375 30.7607421875 11.68017578125 30.7607421875 12.08642578125 30.62744140625 12.42919921875 30.494140625 12.77197265625 30.2021484375 13.01953125 29.91015625 13.26708984375 29.453125 13.400390625 28.99609375 13.53369140625 28.3359375 13.53369140625 28.3359375 12.45458984375 28.03125 11.978515625 27.7265625 11.50244140625 26.96484375 11.50244140625 26.482421875 11.50244140625 26.1015625 11.775390625 25.720703125 12.04833984375 25.43505859375 12.4990234375 25.1494140625 12.94970703125 24.95263671875 13.53369140625 24.755859375 14.11767578125 24.63525390625 14.7333984375 24.5146484375 15.34912109375 24.4638671875 15.95849609375 24.4130859375 16.56787109375 24.4130859375 17.06298828125 L24.4130859375 21.15087890625 Q24.4130859375 21.72216796875 24.58447265625 22.0712890625 24.755859375 22.42041015625 25.0478515625 22.59814453125 25.33984375 22.77587890625 25.72705078125 22.8330078125 26.1142578125 22.89013671875 26.5458984375 22.89013671875 L27.26953125 22.89013671875 27.26953125 23.98193359375 z" /><path d="M44.7255859375 16.98681640625 Q44.7255859375 20.65576171875 43.17041015625 22.44580078125 41.615234375 24.23583984375 38.619140625 24.23583984375 37.2099609375 24.23583984375 36.0927734375 23.79150390625 34.9755859375 23.34716796875 34.19482421875 22.44580078125 33.4140625 21.54443359375 33.00146484375 20.1796875 32.5888671875 18.81494140625 32.5888671875 16.98681640625 32.5888671875 13.34326171875 34.13134765625 11.56591796875 35.673828125 9.78857421875 38.6953125 9.78857421875 40.1044921875 9.78857421875 41.2216796875 10.2265625 42.3388671875 10.66455078125 43.11962890625 11.5595703125 43.900390625 12.45458984375 44.31298828125 13.806640625 44.7255859375 15.15869140625 44.7255859375 16.98681640625 zM35.1025390625 16.98681640625 Q35.1025390625 18.43408203125 35.29296875 19.53857421875 35.4833984375 20.64306640625 35.90869140625 21.3857421875 36.333984375 22.12841796875 37.01318359375 22.50927734375 37.6923828125 22.89013671875 38.669921875 22.89013671875 39.6474609375 22.89013671875 40.3203125 22.50927734375 40.9931640625 22.12841796875 41.412109375 21.3857421875 41.8310546875 20.64306640625 42.01513671875 19.53857421875 42.19921875 18.43408203125 42.19921875 16.98681640625 42.19921875 15.53955078125 42.0087890625 14.44775390625 41.818359375 13.35595703125 41.3994140625 12.6259765625 40.98046875 11.89599609375 40.30126953125 11.52783203125 39.6220703125 11.15966796875 38.64453125 11.15966796875 37.6669921875 11.15966796875 36.994140625 11.52783203125 36.3212890625 11.89599609375 35.90234375 12.6259765625 35.4833984375 13.35595703125 35.29296875 14.44775390625 35.1025390625 15.53955078125 35.1025390625 16.98681640625 z" /><path d="M47.099609375 22.89013671875 Q47.53125 22.89013671875 47.91845703125 22.8330078125 48.3056640625 22.77587890625 48.59765625 22.59814453125 48.8896484375 22.42041015625 49.06103515625 22.0712890625 49.232421875 21.72216796875 49.232421875 21.15087890625 L49.232421875 12.91162109375 Q49.232421875 12.34033203125 49.06103515625 11.9912109375 48.8896484375 11.64208984375 48.59765625 11.45166015625 48.3056640625 11.26123046875 47.91845703125 11.19775390625 47.53125 11.13427734375 47.099609375 11.13427734375 L47.0234375 11.13427734375 47.0234375 10.04248046875 51.669921875 10.04248046875 51.669921875 21.02392578125 Q51.669921875 21.63330078125 51.84130859375 22.00146484375 52.0126953125 22.36962890625 52.29833984375 22.56640625 52.583984375 22.76318359375 52.9775390625 22.82666015625 53.37109375 22.89013671875 53.802734375 22.89013671875 L54.1455078125 22.89013671875 54.1455078125 23.98193359375 46.7568359375 23.98193359375 46.7568359375 22.89013671875 47.099609375 22.89013671875 zM48.8642578125 5.82763671875 Q48.8642578125 5.37060546875 48.978515625 5.06591796875 49.0927734375 4.76123046875 49.2958984375 4.57080078125 49.4990234375 4.38037109375 49.765625 4.30419921875 50.0322265625 4.22802734375 50.349609375 4.22802734375 50.654296875 4.22802734375 50.9208984375 4.30419921875 51.1875 4.38037109375 51.38427734375 4.57080078125 51.5810546875 4.76123046875 51.70166015625 5.06591796875 51.822265625 5.37060546875 51.822265625 5.82763671875 51.822265625 6.28466796875 51.70166015625 6.58935546875 51.5810546875 6.89404296875 51.38427734375 7.08447265625 51.1875 7.27490234375 50.9208984375 7.357421875 50.654296875 7.43994140625 50.349609375 7.43994140625 50.0322265625 7.43994140625 49.765625 7.357421875 49.4990234375 7.27490234375 49.2958984375 7.08447265625 49.0927734375 6.89404296875 48.978515625 6.58935546875 48.8642578125 6.28466796875 48.8642578125 5.82763671875 z" /><path d="M67.6279296875 21.12548828125 Q67.6279296875 21.69677734375 67.79931640625 22.0458984375 67.970703125 22.39501953125 68.2626953125 22.58544921875 68.5546875 22.77587890625 68.94189453125 22.8330078125 69.3291015625 22.89013671875 69.7607421875 22.89013671875 L69.9765625 22.89013671875 69.9765625 23.98193359375 65.5712890625 23.98193359375 65.2919921875 21.64599609375 65.1904296875 21.64599609375 Q64.8984375 22.24267578125 64.52392578125 22.71875 64.1494140625 23.19482421875 63.6669921875 23.53125 63.1845703125 23.86767578125 62.5751953125 24.0517578125 61.9658203125 24.23583984375 61.2041015625 24.23583984375 59.921875 24.23583984375 58.931640625 23.810546875 57.94140625 23.38525390625 57.2685546875 22.5029296875 56.595703125 21.62060546875 56.2529296875 20.26220703125 55.91015625 18.90380859375 55.91015625 17.03759765625 55.91015625 15.15869140625 56.2529296875 13.78759765625 56.595703125 12.41650390625 57.2685546875 11.52783203125 57.94140625 10.63916015625 58.931640625 10.2138671875 59.921875 9.78857421875 61.2041015625 9.78857421875 61.953125 9.78857421875 62.5625 9.95361328125 63.171875 10.11865234375 63.66064453125 10.42333984375 64.1494140625 10.72802734375 64.5302734375 11.14697265625 64.9111328125 11.56591796875 65.1904296875 12.07373046875 L65.3427734375 12.07373046875 Q65.3046875 11.43896484375 65.2666015625 10.88037109375 65.2412109375 10.39794921875 65.2158203125 9.921875 65.1904296875 9.44580078125 65.1904296875 9.21728515625 L65.1904296875 7.08447265625 Q65.1904296875 6.51318359375 65.01904296875 6.1640625 64.84765625 5.81494140625 64.5556640625 5.62451171875 64.263671875 5.43408203125 63.87646484375 5.376953125 63.4892578125 5.31982421875 63.0576171875 5.31982421875 L62.841796875 5.31982421875 62.841796875 4.22802734375 67.6279296875 4.22802734375 67.6279296875 21.12548828125 zM61.6484375 22.57275390625 Q62.6640625 22.57275390625 63.34326171875 22.236328125 64.0224609375 21.89990234375 64.43505859375 21.21435546875 64.84765625 20.52880859375 65.01904296875 19.48779296875 65.1904296875 18.44677734375 65.1904296875 17.03759765625 65.1904296875 15.67919921875 65.01904296875 14.63818359375 64.84765625 13.59716796875 64.43505859375 12.892578125 64.0224609375 12.18798828125 63.3369140625 11.81982421875 62.6513671875 11.45166015625 61.623046875 11.45166015625 60.7724609375 11.45166015625 60.1630859375 11.81982421875 59.5537109375 12.18798828125 59.16650390625 12.89892578125 58.779296875 13.60986328125 58.6015625 14.6572265625 58.423828125 15.70458984375 58.423828125 17.06298828125 58.423828125 19.83056640625 59.1728515625 21.20166015625 59.921875 22.57275390625 61.6484375 22.57275390625 z" /><path d="M83.611328125 24.23583984375 Q82.341796875 24.23583984375 81.37060546875 23.96923828125 80.3994140625 23.70263671875 79.74560546875 23.2265625 79.091796875 22.75048828125 78.76171875 22.0712890625 78.431640625 21.39208984375 78.431640625 20.57958984375 78.431640625 19.79248046875 78.92041015625 19.31005859375 79.4091796875 18.82763671875 80.310546875 18.82763671875 80.3486328125 19.64013671875 80.55810546875 20.38916015625 80.767578125 21.13818359375 81.1865234375 21.70947265625 81.60546875 22.28076171875 82.2529296875 22.62353515625 82.900390625 22.96630859375 83.814453125 22.96630859375 85.56640625 22.96630859375 86.55029296875 22.1220703125 87.5341796875 21.27783203125 87.5341796875 19.69091796875 87.5341796875 18.97998046875 87.3310546875 18.43408203125 87.1279296875 17.88818359375 86.658203125 17.4248046875 86.1884765625 16.96142578125 85.42041015625 16.5361328125 84.65234375 16.11083984375 83.509765625 15.64111328125 82.3037109375 15.14599609375 81.40234375 14.5810546875 80.5009765625 14.01611328125 79.904296875 13.32421875 79.3076171875 12.63232421875 79.015625 11.78173828125 78.7236328125 10.93115234375 78.7236328125 9.86474609375 78.7236328125 8.74755859375 79.14892578125 7.87158203125 79.57421875 6.99560546875 80.3359375 6.392578125 81.09765625 5.78955078125 82.138671875 5.47216796875 83.1796875 5.15478515625 84.4111328125 5.15478515625 85.5791015625 5.15478515625 86.48046875 5.39599609375 87.3818359375 5.63720703125 88.00390625 6.04345703125 88.6259765625 6.44970703125 88.94970703125 6.9765625 89.2734375 7.50341796875 89.2734375 8.07470703125 89.2734375 8.91259765625 88.72119140625 9.337890625 88.1689453125 9.76318359375 87.2294921875 9.76318359375 87.2294921875 9.15380859375 87.08349609375 8.5634765625 86.9375 7.97314453125 86.5947265625 7.509765625 86.251953125 7.04638671875 85.693359375 6.75439453125 85.134765625 6.46240234375 84.3095703125 6.46240234375 83.560546875 6.46240234375 82.97021484375 6.671875 82.3798828125 6.88134765625 81.9736328125 7.2685546875 81.5673828125 7.65576171875 81.3515625 8.20166015625 81.1357421875 8.74755859375 81.1357421875 9.42041015625 81.1357421875 10.19482421875 81.3388671875 10.78515625 81.5419921875 11.37548828125 82.01806640625 11.8515625 82.494140625 12.32763671875 83.2685546875 12.7529296875 84.04296875 13.17822265625 85.1728515625 13.63525390625 86.3154296875 14.10498046875 87.21044921875 14.62548828125 88.10546875 15.14599609375 88.7275390625 15.787109375 89.349609375 16.42822265625 89.6796875 17.2216796875 90.009765625 18.01513671875 90.009765625 19.01806640625 90.009765625 20.24951171875 89.55908203125 21.220703125 89.1083984375 22.19189453125 88.2705078125 22.86474609375 87.4326171875 23.53759765625 86.251953125 23.88671875 85.0712890625 24.23583984375 83.611328125 24.23583984375 z" /><path d="M98.4775390625 11.18505859375 Q97.0302734375 11.18505859375 96.24951171875 12.359375 95.46875 13.53369140625 95.3291015625 15.79345703125 L101.30859375 15.79345703125 Q101.30859375 14.76513671875 101.15625 13.91455078125 101.00390625 13.06396484375 100.673828125 12.45458984375 100.34375 11.84521484375 99.80419921875 11.51513671875 99.2646484375 11.18505859375 98.4775390625 11.18505859375 zM98.794921875 24.23583984375 Q97.3857421875 24.23583984375 96.26220703125 23.759765625 95.138671875 23.28369140625 94.3642578125 22.36962890625 93.58984375 21.45556640625 93.17724609375 20.12890625 92.7646484375 18.80224609375 92.7646484375 17.11376953125 92.7646484375 13.47021484375 94.2626953125 11.62939453125 95.7607421875 9.78857421875 98.5283203125 9.78857421875 99.78515625 9.78857421875 100.7880859375 10.18212890625 101.791015625 10.57568359375 102.4892578125 11.3564453125 103.1875 12.13720703125 103.56201171875 13.298828125 103.9365234375 14.46044921875 103.9365234375 15.99658203125 L103.9365234375 17.18994140625 95.2783203125 17.18994140625 Q95.3037109375 18.61181640625 95.56396484375 19.6337890625 95.82421875 20.65576171875 96.31298828125 21.31591796875 96.8017578125 21.97607421875 97.5126953125 22.287109375 98.2236328125 22.59814453125 99.150390625 22.59814453125 99.8232421875 22.59814453125 100.40087890625 22.44580078125 100.978515625 22.29345703125 101.4482421875 22.03955078125 101.91796875 21.78564453125 102.27978515625 21.4619140625 102.6416015625 21.13818359375 102.8701171875 20.78271484375 103.0478515625 20.85888671875 103.20654296875 21.10009765625 103.365234375 21.34130859375 103.365234375 21.67138671875 103.365234375 22.06494140625 103.0859375 22.515625 102.806640625 22.96630859375 102.2353515625 23.34716796875 101.6640625 23.72802734375 100.80712890625 23.98193359375 99.9501953125 24.23583984375 98.794921875 24.23583984375 z" /><path d="M113.6103515625 23.98193359375 L106.107421875 23.98193359375 106.107421875 22.89013671875 106.18359375 22.89013671875 Q106.6279296875 22.89013671875 107.01513671875 22.82666015625 107.40234375 22.76318359375 107.68798828125 22.56640625 107.9736328125 22.36962890625 108.14501953125 22.00146484375 108.31640625 21.63330078125 108.31640625 21.02392578125 L108.31640625 12.91162109375 Q108.31640625 12.34033203125 108.14501953125 11.9912109375 107.9736328125 11.64208984375 107.681640625 11.45166015625 107.3896484375 11.26123046875 107.00244140625 11.19775390625 106.615234375 11.13427734375 106.18359375 11.13427734375 L106.107421875 11.13427734375 106.107421875 10.04248046875 110.1064453125 10.04248046875 110.6015625 12.61962890625 110.728515625 12.61962890625 Q110.982421875 12.03564453125 111.2490234375 11.521484375 111.515625 11.00732421875 111.90283203125 10.6201171875 112.2900390625 10.23291015625 112.861328125 10.0107421875 113.4326171875 9.78857421875 114.2958984375 9.78857421875 115.7177734375 9.78857421875 116.40966796875 10.28369140625 117.1015625 10.77880859375 117.1015625 11.68017578125 117.1015625 12.08642578125 116.96826171875 12.42919921875 116.8349609375 12.77197265625 116.54296875 13.01953125 116.2509765625 13.26708984375 115.7939453125 13.400390625 115.3369140625 13.53369140625 114.6767578125 13.53369140625 114.6767578125 12.45458984375 114.3720703125 11.978515625 114.0673828125 11.50244140625 113.3056640625 11.50244140625 112.8232421875 11.50244140625 112.4423828125 11.775390625 112.0615234375 12.04833984375 111.77587890625 12.4990234375 111.490234375 12.94970703125 111.29345703125 13.53369140625 111.0966796875 14.11767578125 110.97607421875 14.7333984375 110.85546875 15.34912109375 110.8046875 15.95849609375 110.75390625 16.56787109375 110.75390625 17.06298828125 L110.75390625 21.15087890625 Q110.75390625 21.72216796875 110.92529296875 22.0712890625 111.0966796875 22.42041015625 111.388671875 22.59814453125 111.6806640625 22.77587890625 112.06787109375 22.8330078125 112.455078125 22.89013671875 112.88671875 22.89013671875 L113.6103515625 22.89013671875 113.6103515625 23.98193359375 z" /><path d="M118.4345703125 22.89013671875 Q118.8662109375 22.89013671875 119.25341796875 22.8330078125 119.640625 22.77587890625 119.9326171875 22.59814453125 120.224609375 22.42041015625 120.39599609375 22.0712890625 120.5673828125 21.72216796875 120.5673828125 21.15087890625 L120.5673828125 12.91162109375 Q120.5673828125 12.34033203125 120.39599609375 11.9912109375 120.224609375 11.64208984375 119.9326171875 11.45166015625 119.640625 11.26123046875 119.25341796875 11.19775390625 118.8662109375 11.13427734375 118.4345703125 11.13427734375 L118.3583984375 11.13427734375 118.3583984375 10.04248046875 123.0048828125 10.04248046875 123.0048828125 21.02392578125 Q123.0048828125 21.63330078125 123.17626953125 22.00146484375 123.34765625 22.36962890625 123.63330078125 22.56640625 123.9189453125 22.76318359375 124.3125 22.82666015625 124.7060546875 22.89013671875 125.1376953125 22.89013671875 L125.48046875 22.89013671875 125.48046875 23.98193359375 118.091796875 23.98193359375 118.091796875 22.89013671875 118.4345703125 22.89013671875 zM120.19921875 5.82763671875 Q120.19921875 5.37060546875 120.3134765625 5.06591796875 120.427734375 4.76123046875 120.630859375 4.57080078125 120.833984375 4.38037109375 121.1005859375 4.30419921875 121.3671875 4.22802734375 121.6845703125 4.22802734375 121.9892578125 4.22802734375 122.255859375 4.30419921875 122.5224609375 4.38037109375 122.71923828125 4.57080078125 122.916015625 4.76123046875 123.03662109375 5.06591796875 123.1572265625 5.37060546875 123.1572265625 5.82763671875 123.1572265625 6.28466796875 123.03662109375 6.58935546875 122.916015625 6.89404296875 122.71923828125 7.08447265625 122.5224609375 7.27490234375 122.255859375 7.357421875 121.9892578125 7.43994140625 121.6845703125 7.43994140625 121.3671875 7.43994140625 121.1005859375 7.357421875 120.833984375 7.27490234375 120.630859375 7.08447265625 120.427734375 6.89404296875 120.3134765625 6.58935546875 120.19921875 6.28466796875 120.19921875 5.82763671875 z" /><path d="M134.544921875 22.89013671875 L134.544921875 23.98193359375 126.5087890625 23.98193359375 126.5087890625 22.89013671875 126.8515625 22.89013671875 Q127.2958984375 22.89013671875 127.68310546875 22.82666015625 128.0703125 22.76318359375 128.35595703125 22.56640625 128.6416015625 22.36962890625 128.81298828125 22.00146484375 128.984375 21.63330078125 128.984375 21.02392578125 L128.984375 11.27392578125 126.6103515625 11.27392578125 126.6103515625 10.04248046875 128.984375 10.04248046875 128.984375 8.74755859375 Q128.984375 7.57958984375 129.3017578125 6.69091796875 129.619140625 5.80224609375 130.2158203125 5.19287109375 130.8125 4.58349609375 131.6630859375 4.2724609375 132.513671875 3.96142578125 133.580078125 3.96142578125 134.595703125 3.96142578125 135.2939453125 4.0947265625 135.9921875 4.22802734375 136.41748046875 4.46923828125 136.8427734375 4.71044921875 137.033203125 5.04052734375 137.2236328125 5.37060546875 137.2236328125 5.77685546875 137.2236328125 6.13232421875 137.06494140625 6.4052734375 136.90625 6.67822265625 136.62060546875 6.8623046875 136.3349609375 7.04638671875 135.94775390625 7.1416015625 135.560546875 7.23681640625 135.0908203125 7.23681640625 135.0908203125 6.84326171875 135.00830078125 6.46875 134.92578125 6.09423828125 134.72900390625 5.80224609375 134.5322265625 5.51025390625 134.2021484375 5.33251953125 133.8720703125 5.15478515625 133.376953125 5.15478515625 132.818359375 5.15478515625 132.44384765625 5.37060546875 132.0693359375 5.58642578125 131.8408203125 6.01171875 131.6123046875 6.43701171875 131.51708984375 7.05908203125 131.421875 7.68115234375 131.421875 8.50634765625 L131.421875 10.04248046875 135.0908203125 10.04248046875 135.0908203125 11.27392578125 131.421875 11.27392578125 131.421875 21.02392578125 Q131.421875 21.63330078125 131.59326171875 22.00146484375 131.7646484375 22.36962890625 132.05029296875 22.56640625 132.3359375 22.76318359375 132.7294921875 22.82666015625 133.123046875 22.89013671875 133.5546875 22.89013671875 L134.544921875 22.89013671875 z" /></g></svg>