<svg width="170" height="30" xmlns="http://www.w3.org/2000/svg" viewBox="0 0 170 30"><g fill="currentColor"><path d="M12.15 21.787499999999998 L12.175 22.037499999999998 12.175 22.0625 Q12.225000000000001 23.2625 12.225000000000001 23.625 12.225000000000001 23.987499999999997 12.137500000000001 24.25 12.05 24.5125 11.912500000000001 24.549999999999997 11.775 24.5875 11.575000000000001 24.5875 11.4 24.5875 11.25 24.5875 11.25 24.5875 10.825000000000001 24.5625 L5.6000000000000005 24.6375 Q2.85 24.6375 1.1500000000000001 24.612499999999997 L1.1500000000000001 24.112499999999997 0.65 24.112499999999997 0.65 23.412499999999998 Q0.8250000000000001 19.8875 0.8250000000000001 14.824999999999998 0.8250000000000001 9.762499999999998 0.7250000000000001 6.087499999999999 1.4500000000000002 5.787499999999998 2.8875 5.787499999999998 4.325 5.787499999999998 5.2250000000000005 6.1874999999999964 L5.2 6.512499999999999 Q5.550000000000001 6.587499999999999 5.7250000000000005 6.6874999999999964 5.675000000000001 8.487499999999997 5.675000000000001 9.662499999999998 L5.75 18.5875 5.75 19.5875 Q9.15 19.787499999999998 10.162500000000001 19.787499999999998 11.175 19.787499999999998 11.725000000000001 19.737499999999997 L11.725000000000001 20.287499999999998 12.225000000000001 20.237499999999997 12.15 21.787499999999998 zM11.425 21.5625 L11.4 21.3125 Q11.4 21.0875 11.4375 20.662499999999998 11.475000000000001 20.237499999999997 11.475000000000001 20.037499999999998 11.425 20.0625 11.100000000000001 20.0625 L5.75 19.8375 Q5.3500000000000005 19.8375 5 19.8875 L5 19.862499999999997 5.025 17.912499999999998 4.925000000000001 9.337499999999999 Q4.925000000000001 8.287499999999998 4.9750000000000005 6.337499999999999 4.25 6.037499999999998 2.9000000000000004 6.037499999999998 1.55 6.037499999999998 0.9750000000000001 6.262499999999999 1.075 11.237499999999997 1.075 15.562499999999998 1.075 19.8875 0.9 23.412499999999998 L0.9 23.862499999999997 Q4.55 23.912499999999998 5.675000000000001 23.912499999999998 6.800000000000001 23.912499999999998 7.925000000000001 23.8875 9.05 23.862499999999997 9.637500000000001 23.8375 10.225000000000001 23.8125 10.4 23.8125 L10.950000000000001 23.8375 Q11.275 23.8375 11.375 23.6875 11.475000000000001 23.537499999999998 11.475000000000001 23.15 11.475000000000001 22.7625 11.425 21.5625 z" /><path d="M11.925 16.8125 L11.875 15.737499999999999 Q11.875 13.837499999999999 12.3 12.787499999999998 L12.275 12.787499999999998 Q12.35 12.287499999999998 12.425 12.287499999999998 L12.425 12.312499999999998 Q12.425 12.337499999999999 12.425 12.337499999999999 L12.425 12.337499999999999 Q12.8 11.537499999999998 13.912500000000001 11.137499999999998 15.025 10.737499999999997 16.425 10.737499999999997 16.625 10.762499999999998 17.35 10.762499999999998 L17.950000000000003 10.737499999999997 Q20.1 10.737499999999997 21.3 11.912499999999998 L21.275 11.912499999999998 21.75 12.387499999999998 Q22.9 13.162499999999998 22.9 17.537499999999998 22.9 19.3125 22.675 21.2125 22.450000000000003 23.112499999999997 22.05 23.5625 21.125 24.862499999999997 18.525 24.862499999999997 17.25 24.862499999999997 16.575000000000003 24.799999999999997 15.9 24.737499999999997 15.025 24.3875 14.15 24.037499999999998 13.450000000000001 23.3125 L13.225000000000001 23.0875 Q11.9 21.8125 11.9 18.5625 L11.9 17.662499999999998 11.925 16.8125 zM17.85 10.987499999999997 L16.9 11.012499999999998 Q16.575000000000003 11.012499999999998 15.850000000000001 10.999999999999998 15.125 10.987499999999997 14.05 11.362499999999997 12.975000000000001 11.737499999999997 12.65 12.437499999999998 12.125 14.262499999999998 12.125 15.712499999999999 L12.15 16.7625 12.15 18.612499999999997 Q12.15 23.4375 15.55 24.0125 L18.05 24.0875 Q20.525 24.0875 21.35 22.912499999999998 21.950000000000003 22.3125 22.125 17.4625 22.15 17.162499999999998 22.15 17.037499999999998 22.05 13.937499999999998 21.8 13.149999999999999 21.55 12.362499999999997 21.125 12.087499999999999 20 10.987499999999997 17.85 10.987499999999997 zM17.275 14.762499999999998 Q19.025 14.762499999999998 19.025 17.362499999999997 19.025 19.3375 18.575000000000003 19.912499999999998 18.125 20.5125 17.1 20.5125 15.4 20.5125 15.4 19.1375 15.425 18.862499999999997 15.425 17.8375 15.425 15.612499999999999 15.775 15.387499999999998 16.275 14.762499999999998 17.275 14.762499999999998 zM16.15 19.662499999999998 Q16.15 20.0625 16.4 20.162499999999998 16.65 20.2625 17.1 20.2625 18.625 20.2625 18.625 19.2125 18.775 17.9625 18.775 17.375 18.775 16.787499999999998 18.75 16.487499999999997 18.725 16.1875 18.475 15.862499999999997 18.225 15.537499999999998 17.9 15.537499999999998 17.575000000000003 15.537499999999998 17.200000000000003 15.587499999999999 16.725 15.712499999999999 16.475 16.037499999999998 L16.425 16.0875 Q16.15 16.2625 16.15 19.662499999999998 z" /><path d="M23.425 24.1875 L23.35 14.687499999999998 Q23.35 13.362499999999997 23.400000000000002 11.112499999999997 24 11.187499999999998 24.3 11.187499999999998 24.6 11.187499999999998 25.1625 11.112499999999997 25.725 11.037499999999998 26.425 11.037499999999998 27.125 11.037499999999998 27.150000000000002 11.337499999999999 27.150000000000002 11.487499999999997 27.387500000000003 11.599999999999998 27.625 11.712499999999999 27.650000000000002 11.837499999999999 L27.650000000000002 11.962499999999999 Q28.875 11.212499999999999 30.3 11.212499999999999 32.225 11.212499999999999 32.975 12.337499999999999 L33.275000000000006 12.562499999999998 Q33.925000000000004 13.062499999999998 33.925000000000004 16.7625 L33.825 22.4625 Q33.825 23.4625 33.875 24.5125 32.975 24.6375 31.775000000000002 24.6375 L30.275000000000002 24.6375 Q30.25 24.4625 30.25 24.1375 L29.775000000000002 24.1375 Q29.700000000000003 23.362499999999997 29.700000000000003 21.112499999999997 L29.700000000000003 19.862499999999997 Q29.700000000000003 17.037499999999998 29.375 16.2625 29.175 16.1875 28.85 16.1875 28.1 16.1875 27.8125 16.6875 27.525000000000002 17.1875 27.525000000000002 18.612499999999997 L27.625 22.3125 Q27.625 23.3875 27.525000000000002 24.1875 L27.525000000000002 24.4625 Q26.650000000000002 24.6875 26.075000000000003 24.6875 L24.925 24.6375 Q24.3 24.6375 23.925 24.6875 L23.925 24.1375 Q23.725 24.1875 23.425 24.1875 zM26.950000000000003 12.687499999999998 L26.975 12.037499999999998 Q26.975 11.262499999999998 26.6 11.262499999999998 25.925 11.262499999999998 25.275000000000002 11.349999999999998 24.625 11.437499999999998 24.275000000000002 11.437499999999998 23.925 11.437499999999998 23.650000000000002 11.387499999999998 23.6 12.262499999999998 23.6 15.187499999999998 L23.675 23.912499999999998 Q23.975 23.8875 24.475 23.8875 L25.675 23.912499999999998 Q26.200000000000003 23.912499999999998 26.775000000000002 23.7625 L26.775000000000002 23.662499999999998 Q26.875 22.8375 26.875 21.8125 L26.775000000000002 18.0125 Q26.775000000000002 16.5125 27.150000000000002 15.974999999999998 27.525000000000002 15.437499999999998 28.35 15.437499999999998 29 15.437499999999998 29.425 15.812499999999998 29.650000000000002 16.0125 29.725 16.487499999999997 29.900000000000002 17.5625 29.900000000000002 18.0875 29.950000000000003 18.5125 29.950000000000003 20.162499999999998 L29.950000000000003 22.0125 Q29.950000000000003 23.537499999999998 30 23.8875 L31.450000000000003 23.912499999999998 Q32.35 23.912499999999998 33.125 23.787499999999998 33.075 22.8375 33.075 22.2125 L33.175000000000004 16.3875 Q33.175000000000004 12.762499999999998 32.6 12.237499999999997 31.75 11.462499999999999 30.275000000000002 11.462499999999999 29.625 11.462499999999999 29.275000000000002 11.574999999999998 28.925 11.687499999999998 28.762500000000003 11.737499999999997 28.6 11.787499999999998 28.2875 11.949999999999998 27.975 12.112499999999997 27.875 12.162499999999998 27.325000000000003 12.437499999999998 26.950000000000003 12.687499999999998 z" /><path d="M41.075 11.462499999999999 L41.025000000000006 8.912499999999998 Q41.025000000000006 8.712499999999999 41.150000000000006 6.537499999999998 L41.150000000000006 6.262499999999999 Q41.150000000000006 6.137499999999999 41.7625 6.012499999999999 42.375 5.887499999999999 43.225 5.887499999999999 44.075 5.887499999999999 44.800000000000004 6.037499999999998 L44.800000000000004 6.462499999999999 Q45.025000000000006 6.537499999999998 45.300000000000004 6.537499999999998 L45.300000000000004 8.387499999999998 45.475 21.287499999999998 Q45.475 23.5875 45.45 24.5625 L43.1 24.612499999999997 Q42.650000000000006 24.612499999999997 42.1 24.612499999999997 41.550000000000004 24.612499999999997 41.550000000000004 24.112499999999997 L41.550000000000004 24.0625 41.225 24.037499999999998 41.175000000000004 23.987499999999997 Q40.525000000000006 24.537499999999998 39.550000000000004 24.537499999999998 37.4 24.537499999999998 36.225 23.0875 34.25 21.5125 34.25 16.7125 34.25 14.787499999999998 34.800000000000004 13.312499999999998 35.35 11.837499999999999 36.45 11.412499999999998 37.375 11.037499999999998 38.825 11.037499999999998 40.275000000000006 11.037499999999998 41.075 11.462499999999999 zM44.725 21.0875 L44.550000000000004 7.8874999999999975 44.550000000000004 6.237499999999997 Q44.025000000000006 6.137499999999999 42.712500000000006 6.137499999999999 41.400000000000006 6.137499999999999 41.400000000000006 6.262499999999999 L41.400000000000006 6.537499999999998 Q41.300000000000004 8.312499999999998 41.300000000000004 8.912499999999998 L41.300000000000004 10.062499999999998 Q41.300000000000004 11.187499999999998 41.325 11.962499999999999 41.225 11.687499999999998 40.475 11.487499999999997 39.725 11.287499999999998 38.675000000000004 11.287499999999998 37.625 11.287499999999998 36.525 11.637499999999998 35.475 12.012499999999998 34.987500000000004 13.412499999999998 34.5 14.812499999999998 34.5125 16.375 34.525 17.9375 34.6 18.787499999999998 34.675000000000004 19.6375 34.9625 20.662499999999998 35.25 21.6875 35.725 22.3125 36.2 22.9375 37.075 23.362499999999997 37.95 23.787499999999998 39.2 23.787499999999998 40.45 23.787499999999998 41.025000000000006 22.6875 41.050000000000004 22.5875 41.125 22.5875 41.300000000000004 22.5875 41.35 23.612499999999997 L41.325 23.787499999999998 Q41.875 23.862499999999997 42.6 23.862499999999997 L44.7 23.8125 Q44.725 22.9375 44.725 21.0875 zM39.900000000000006 14.187499999999998 Q40.95 14.187499999999998 41.1875 14.649999999999999 41.425000000000004 15.112499999999999 41.425000000000004 16.5625 41.425000000000004 18.0125 41.375 18.549999999999997 41.325 19.0875 41.175000000000004 19.6375 40.85 20.6875 39.725 20.6875 38.6 20.6875 37.975 19.7125 37.35 18.737499999999997 37.35 17.5875 37.35 16.4375 37.525 15.962499999999999 37.800000000000004 14.187499999999998 39.900000000000006 14.187499999999998 zM38.1 17.912499999999998 Q38.1 20.4375 39.625 20.4375 40.85 20.4375 41.050000000000004 19.0875 41.175000000000004 18.2625 41.175000000000004 17.5625 L41.175000000000004 15.837499999999999 Q41.175000000000004 15.312499999999998 41.0625 15.199999999999998 40.95 15.087499999999999 40.875 15.037499999999998 40.7 14.937499999999998 40.400000000000006 14.937499999999998 38.5 14.937499999999998 38.275 16.487499999999997 38.1 16.8375 38.1 17.912499999999998 z" /><path d="M46.25000000000001 24.1875 L46.175000000000004 14.687499999999998 Q46.175000000000004 13.362499999999997 46.225 11.112499999999997 46.825 11.187499999999998 47.12500000000001 11.187499999999998 47.425000000000004 11.187499999999998 47.987500000000004 11.124999999999998 48.550000000000004 11.062499999999998 49.325 11.062499999999998 50.1 11.062499999999998 50.1 11.362499999999997 L50.1 11.587499999999999 Q50.425000000000004 11.637499999999998 50.50000000000001 11.687499999999998 51.925000000000004 11.237499999999997 53.337500000000006 11.237499999999997 54.75000000000001 11.237499999999997 54.75000000000001 11.412499999999998 L54.75000000000001 11.787499999999998 Q55.25000000000001 11.862499999999997 55.25000000000001 11.912499999999998 L55.2 15.137499999999998 Q55.2 15.537499999999998 55.275000000000006 16.662499999999998 L54.7 16.4625 54.72500000000001 16.487499999999997 54.425000000000004 16.3875 54.45 16.412499999999998 Q53.050000000000004 16.0625 52.18750000000001 16.0625 51.325 16.0625 50.91250000000001 16.4 50.50000000000001 16.737499999999997 50.50000000000001 17.612499999999997 50.60000000000001 20.6875 50.60000000000001 24.162499999999998 L50.60000000000001 24.4625 Q49.800000000000004 24.6875 49.12500000000001 24.6875 L47.775000000000006 24.6375 Q47.12500000000001 24.6375 46.75000000000001 24.6875 L46.75000000000001 24.1375 Q46.550000000000004 24.1875 46.25000000000001 24.1875 zM49.87500000000001 12.212499999999999 L49.85 11.837499999999999 49.85 11.362499999999997 Q49.85 11.312499999999998 49.325 11.312499999999998 48.800000000000004 11.312499999999998 48.12500000000001 11.374999999999998 47.45 11.437499999999998 47.1 11.437499999999998 46.75000000000001 11.437499999999998 46.475 11.387499999999998 46.425000000000004 12.262499999999998 46.425000000000004 15.187499999999998 L46.50000000000001 23.912499999999998 Q46.800000000000004 23.8875 47.325 23.8875 L48.675000000000004 23.912499999999998 Q49.275000000000006 23.912499999999998 49.85 23.7625 L49.85 23.662499999999998 49.75000000000001 16.9625 Q49.75000000000001 16.037499999999998 50.237500000000004 15.674999999999999 50.72500000000001 15.312499999999998 51.712500000000006 15.312499999999998 52.7 15.312499999999998 53.75000000000001 15.562499999999998 53.825 15.612499999999999 54.00000000000001 15.637499999999998 54.025000000000006 15.662499999999998 54.50000000000001 15.812499999999998 54.47500000000001 15.537499999999998 54.47500000000001 15.012499999999998 L54.47500000000001 14.087499999999999 54.50000000000001 11.412499999999998 Q54.50000000000001 11.362499999999997 53.7625 11.362499999999997 53.025000000000006 11.362499999999997 51.737500000000004 11.624999999999998 50.45 11.887499999999998 49.87500000000001 12.212499999999999 z" /><path d="M55.47500000000001 9.537499999999998 L55.37500000000001 6.087499999999999 55.37500000000001 5.5624999999999964 59.275000000000006 5.637499999999999 59.275000000000006 6.137499999999999 59.775000000000006 6.137499999999999 59.85000000000001 9.662499999999998 Q59.57500000000001 10.087499999999999 58.650000000000006 10.087499999999999 58.425000000000004 10.087499999999999 57.70000000000001 10.037499999999998 L56.85000000000001 10.012499999999998 Q56.35000000000001 10.012499999999998 55.97500000000001 10.037499999999998 L55.97500000000001 9.512499999999998 55.47500000000001 9.537499999999998 zM59.87500000000001 11.637499999999998 L59.75000000000001 20.412499999999998 Q59.75000000000001 22.6375 59.85000000000001 24.2625 59.425000000000004 24.7125 57.32500000000001 24.5875 L56.72500000000001 24.5625 Q56.175000000000004 24.5625 55.800000000000004 24.6875 55.800000000000004 24.5125 55.85000000000001 24.0625 55.47500000000001 24.112499999999997 55.300000000000004 24.1875 55.425000000000004 22.5125 55.425000000000004 20.737499999999997 L55.32500000000001 14.687499999999998 Q55.32500000000001 12.937499999999998 55.50000000000001 11.012499999999998 L56.150000000000006 10.937499999999998 58.12500000000001 11.012499999999998 58.70000000000001 11.012499999999998 59.37500000000001 11.137499999999998 59.37500000000001 11.562499999999998 59.87500000000001 11.637499999999998 zM59.10000000000001 9.087499999999999 L59.025000000000006 5.887499999999999 55.62500000000001 5.8124999999999964 55.62500000000001 6.212499999999999 55.72500000000001 9.262499999999998 56.150000000000006 9.262499999999998 58.12500000000001 9.337499999999999 Q58.95000000000001 9.337499999999999 59.10000000000001 9.087499999999999 zM59.00000000000001 19.662499999999998 L59.12500000000001 11.337499999999999 59.12500000000001 11.262499999999998 58.12500000000001 11.262499999999998 55.82500000000001 11.187499999999998 55.72500000000001 11.187499999999998 55.72500000000001 11.212499999999999 Q55.57500000000001 12.537499999999998 55.57500000000001 14.637499999999998 L55.675000000000004 20.7625 Q55.675000000000004 22.4625 55.57500000000001 23.8375 55.62500000000001 23.8125 55.97500000000001 23.8125 L57.95000000000001 23.862499999999997 Q58.97500000000001 23.862499999999997 59.10000000000001 23.6875 59.00000000000001 21.912499999999998 59.00000000000001 19.662499999999998 z" /><path d="M60.625000000000014 24.1875 L60.55000000000001 14.687499999999998 Q60.55000000000001 13.362499999999997 60.60000000000001 11.112499999999997 61.20000000000001 11.187499999999998 61.500000000000014 11.187499999999998 61.80000000000001 11.187499999999998 62.36250000000001 11.112499999999997 62.92500000000001 11.037499999999998 63.625000000000014 11.037499999999998 64.32500000000002 11.037499999999998 64.35000000000001 11.337499999999999 64.35000000000001 11.487499999999997 64.5875 11.599999999999998 64.82500000000002 11.712499999999999 64.85000000000001 11.837499999999999 L64.85000000000001 11.962499999999999 Q66.07500000000002 11.212499999999999 67.50000000000001 11.212499999999999 69.42500000000001 11.212499999999999 70.17500000000001 12.337499999999999 L70.47500000000001 12.562499999999998 Q71.12500000000001 13.062499999999998 71.12500000000001 16.7625 L71.025 22.4625 Q71.025 23.4625 71.07500000000002 24.5125 70.17500000000001 24.6375 68.97500000000001 24.6375 L67.47500000000001 24.6375 Q67.45000000000002 24.4625 67.45000000000002 24.1375 L66.97500000000001 24.1375 Q66.9 23.362499999999997 66.9 21.112499999999997 L66.9 19.862499999999997 Q66.9 17.037499999999998 66.57500000000002 16.2625 66.37500000000001 16.1875 66.05000000000001 16.1875 65.30000000000001 16.1875 65.01250000000002 16.6875 64.72500000000001 17.1875 64.72500000000001 18.612499999999997 L64.82500000000002 22.3125 Q64.82500000000002 23.3875 64.72500000000001 24.1875 L64.72500000000001 24.4625 Q63.85000000000001 24.6875 63.27500000000001 24.6875 L62.125000000000014 24.6375 Q61.500000000000014 24.6375 61.125000000000014 24.6875 L61.125000000000014 24.1375 Q60.92500000000001 24.1875 60.625000000000014 24.1875 zM64.15 12.687499999999998 L64.17500000000001 12.037499999999998 Q64.17500000000001 11.262499999999998 63.80000000000001 11.262499999999998 63.125000000000014 11.262499999999998 62.47500000000001 11.349999999999998 61.82500000000001 11.437499999999998 61.47500000000001 11.437499999999998 61.125000000000014 11.437499999999998 60.85000000000001 11.387499999999998 60.80000000000001 12.262499999999998 60.80000000000001 15.187499999999998 L60.875000000000014 23.912499999999998 Q61.17500000000001 23.8875 61.67500000000001 23.8875 L62.875000000000014 23.912499999999998 Q63.40000000000001 23.912499999999998 63.97500000000001 23.7625 L63.97500000000001 23.662499999999998 Q64.07500000000002 22.8375 64.07500000000002 21.8125 L63.97500000000001 18.0125 Q63.97500000000001 16.5125 64.35000000000001 15.974999999999998 64.72500000000001 15.437499999999998 65.55000000000001 15.437499999999998 66.20000000000002 15.437499999999998 66.62500000000001 15.812499999999998 66.85000000000001 16.0125 66.92500000000001 16.487499999999997 67.10000000000001 17.5625 67.10000000000001 18.0875 67.15 18.5125 67.15 20.162499999999998 L67.15 22.0125 Q67.15 23.537499999999998 67.20000000000002 23.8875 L68.65 23.912499999999998 Q69.55000000000001 23.912499999999998 70.32500000000002 23.787499999999998 70.275 22.8375 70.275 22.2125 L70.37500000000001 16.3875 Q70.37500000000001 12.762499999999998 69.80000000000001 12.237499999999997 68.95000000000002 11.462499999999999 67.47500000000001 11.462499999999999 66.82500000000002 11.462499999999999 66.47500000000001 11.574999999999998 66.12500000000001 11.687499999999998 65.9625 11.737499999999997 65.80000000000001 11.787499999999998 65.48750000000001 11.949999999999998 65.17500000000001 12.112499999999997 65.07500000000002 12.162499999999998 64.525 12.437499999999998 64.15 12.687499999999998 z" /><path d="M82.4 11.362499999999997 L82.42500000000001 11.637499999999998 82.67500000000001 11.637499999999998 82.9 11.862499999999997 Q82.95000000000002 12.262499999999998 82.95000000000002 12.487499999999997 L82.95000000000002 12.737499999999997 Q82.92500000000001 13.412499999999998 82.92500000000001 14.687499999999998 L82.97500000000001 20.3125 Q82.97500000000001 21.787499999999998 82.93750000000001 22.737499999999997 82.9 23.6875 82.9 23.862499999999997 82.9 24.037499999999998 82.88750000000002 24.075 82.87500000000001 24.112499999999997 82.85000000000001 24.2 82.82500000000002 24.287499999999998 82.80000000000001 24.325 82.775 24.362499999999997 82.73750000000001 24.424999999999997 82.70000000000002 24.487499999999997 82.65 24.5125 82.60000000000001 24.537499999999998 82.37500000000001 24.612499999999997 L82.025 24.612499999999997 80.4 24.537499999999998 79.32500000000002 24.612499999999997 Q78.92500000000001 24.5125 78.80000000000001 24.112499999999997 78.47500000000001 23.987499999999997 78.4 23.8375 77.10000000000001 24.6375 75.80000000000001 24.6375 74.50000000000001 24.6375 73.45000000000002 23.424999999999997 72.4 22.2125 71.9 20.537499999999998 71.4 18.862499999999997 71.4 17.1875 71.4 14.362499999999999 72.81250000000001 12.762499999999998 74.22500000000001 11.162499999999998 76.4 11.162499999999998 77.10000000000001 11.162499999999998 77.48750000000001 11.262499999999998 77.87500000000001 11.362499999999997 78.20000000000002 11.762499999999998 78.20000000000002 11.512499999999998 78.22500000000001 11.412499999999998 78.25000000000001 11.312499999999998 78.26250000000002 11.224999999999998 78.275 11.137499999999998 78.30000000000001 11.112499999999997 78.32500000000002 11.087499999999999 78.35000000000001 11.037499999999998 78.37500000000001 10.987499999999997 78.42500000000001 10.987499999999997 78.57500000000002 10.937499999999998 78.70000000000002 10.937499999999998 L79.47500000000001 11.012499999999998 79.70000000000002 11.012499999999998 Q80.35000000000001 11.012499999999998 82.17500000000001 11.137499999999998 L82.4 11.362499999999997 zM82.25000000000001 19.5625 L82.17500000000001 14.012499999999998 Q82.17500000000001 12.837499999999999 82.20000000000002 12.237499999999997 L82.20000000000002 11.987499999999997 Q82.20000000000002 11.787499999999998 82.15 11.387499999999998 81.45000000000002 11.337499999999999 79.70000000000002 11.262499999999998 L79.42500000000001 11.262499999999998 78.75000000000001 11.237499999999997 Q78.4 11.237499999999997 78.4 12.437499999999998 L78.4 12.562499999999998 Q78.17500000000001 12.012499999999998 77.76250000000002 11.749999999999998 77.35000000000001 11.487499999999997 76.98750000000001 11.449999999999998 76.62500000000001 11.412499999999998 75.85000000000001 11.412499999999998 74.07500000000002 11.462499999999999 72.86250000000001 13.087499999999999 71.65 14.712499999999999 71.65 17.1875 71.65 20.6375 73.25000000000001 22.737499999999997 74.12500000000001 23.8875 75.32500000000002 23.8875 76.17500000000001 23.8875 77.0875 23.474999999999998 78.00000000000001 23.0625 78.62500000000001 22.4375 L78.525 23.3125 Q78.525 23.737499999999997 78.82500000000002 23.862499999999997 L79.9 23.787499999999998 81.525 23.862499999999997 81.82500000000002 23.862499999999997 Q82.15 23.787499999999998 82.15 23.1875 L82.15 22.8375 Q82.25000000000001 21.362499999999997 82.25000000000001 19.5625 zM75.025 15.687499999999998 Q75.025 15.687499999999998 75.62500000000001 15.224999999999998 76.22500000000001 14.762499999999998 76.97500000000001 14.762499999999998 77.72500000000001 14.762499999999998 77.9625 14.799999999999999 78.20000000000002 14.837499999999999 78.3375 15.187499999999998 78.47500000000001 15.537499999999998 78.48750000000001 15.837499999999999 78.50000000000001 16.1375 78.50000000000001 16.8875 L78.50000000000001 17.9375 Q78.50000000000001 19.2625 78.23750000000001 19.825 77.97500000000001 20.3875 76.95000000000002 20.3875 75.92500000000001 20.3875 75.32500000000002 19.612499999999997 74.72500000000001 18.8375 74.72500000000001 17.849999999999998 74.72500000000001 16.862499999999997 74.87500000000001 16.275 zM78.25000000000001 17.0125 L78.275 16.287499999999998 Q78.275 15.612499999999999 77.95000000000002 15.537499999999998 77.85000000000001 15.512499999999998 77.70000000000002 15.512499999999998 76.82500000000002 15.512499999999998 76.30000000000001 15.912499999999998 75.775 16.3125 75.62500000000001 16.912499999999998 L75.62500000000001 16.9375 Q75.47500000000001 17.4375 75.47500000000001 18.1875 75.47500000000001 20.1375 76.95000000000002 20.1375 77.62500000000001 20.1375 77.97500000000001 19.737499999999997 78.20000000000002 19.4375 78.22500000000001 18.849999999999998 78.25000000000001 18.2625 78.25000000000001 17.662499999999998 L78.25000000000001 17.0125 z" /><path d="M89.57500000000002 18.362499999999997 L92.45000000000002 18.412499999999998 Q92.45000000000002 18.6875 92.52500000000002 18.912499999999998 L92.95000000000002 18.912499999999998 Q92.95000000000002 19.537499999999998 93.22500000000002 19.775 93.50000000000001 20.0125 94.05000000000001 20.0125 94.60000000000002 20.0125 94.97500000000002 19.7125 95.35000000000002 19.412499999999998 95.35000000000002 19 95.35000000000002 18.5875 95.27500000000002 18.362499999999997 95.20000000000002 18.1375 95.01250000000002 17.987499999999997 94.82500000000002 17.8375 94.68750000000001 17.737499999999997 94.55000000000001 17.6375 94.23750000000001 17.549999999999997 93.92500000000001 17.4625 93.78750000000002 17.424999999999997 93.65000000000002 17.3875 93.27500000000002 17.325 92.90000000000002 17.2625 92.82500000000002 17.237499999999997 L92.45000000000002 17.162499999999998 Q91.27500000000002 16.912499999999998 90.12500000000001 15.762499999999998 88.37500000000001 14.087499999999999 88.37500000000001 11.762499999999998 88.37500000000001 9.437499999999998 90.07500000000002 7.774999999999999 91.77500000000002 6.112499999999997 94.30000000000001 6.112499999999997 96.82500000000002 6.112499999999997 98.67500000000001 7.524999999999999 100.52500000000002 8.937499999999998 100.52500000000002 11.312499999999998 100.52500000000002 11.937499999999998 100.37500000000001 12.737499999999997 L100.17500000000001 12.737499999999997 Q99.07500000000002 12.912499999999998 98.01250000000002 12.912499999999998 96.95000000000002 12.912499999999998 96.07500000000002 12.662499999999998 96.10000000000002 12.587499999999999 96.10000000000002 12.287499999999998 95.75000000000001 12.237499999999997 95.57500000000002 12.162499999999998 95.60000000000002 12.087499999999999 95.60000000000002 11.837499999999999 95.60000000000002 10.962499999999999 94.65000000000002 10.962499999999999 94.15000000000002 10.962499999999999 93.80000000000001 11.262499999999998 93.45000000000002 11.562499999999998 93.45000000000002 11.949999999999998 93.45000000000002 12.337499999999999 93.50000000000001 12.474999999999998 93.55000000000001 12.612499999999997 93.67500000000001 12.674999999999997 93.80000000000001 12.737499999999997 93.87500000000001 12.762499999999998 94.05000000000001 12.837499999999999 94.40000000000002 12.837499999999999 96.75000000000001 13.187499999999998 98.57500000000002 15.074999999999998 100.40000000000002 16.9625 100.40000000000002 19.299999999999997 100.40000000000002 21.6375 98.80000000000001 23.174999999999997 97.20000000000002 24.7125 94.80000000000001 24.7125 92.40000000000002 24.7125 90.25000000000001 23.075 88.10000000000002 21.4375 88.10000000000002 19.1375 L88.12500000000001 18.8125 88.12500000000001 18.4625 Q88.80000000000001 18.362499999999997 89.57500000000002 18.362499999999997 zM92.20000000000002 18.662499999999998 L89.67500000000001 18.612499999999997 Q88.97500000000002 18.612499999999997 88.37500000000001 18.6875 L88.37500000000001 19.112499999999997 Q88.37500000000001 21.3125 90.26250000000002 22.6375 92.15000000000002 23.9625 94.40000000000002 23.9625 96.65000000000002 23.9625 98.15000000000002 22.549999999999997 99.65000000000002 21.1375 99.65000000000002 18.849999999999998 99.65000000000002 16.5625 98.07500000000002 14.949999999999998 96.50000000000001 13.337499999999999 94.37500000000001 13.087499999999999 92.70000000000002 12.912499999999998 92.70000000000002 11.612499999999997 92.70000000000002 10.937499999999998 93.12500000000001 10.574999999999998 93.55000000000001 10.212499999999999 94.20000000000002 10.212499999999999 94.85000000000002 10.212499999999999 95.37500000000001 10.612499999999997 95.90000000000002 11.012499999999998 95.90000000000002 11.662499999999998 95.90000000000002 11.887499999999998 95.87500000000001 11.962499999999999 96.70000000000002 12.187499999999998 97.53750000000002 12.187499999999998 98.37500000000001 12.187499999999998 99.62500000000001 11.987499999999997 L99.65000000000002 11.987499999999997 Q99.77500000000002 11.287499999999998 99.77500000000002 10.812499999999998 99.77500000000002 8.587499999999999 98.18750000000001 7.474999999999998 96.60000000000002 6.362499999999997 94.22500000000002 6.362499999999997 91.85000000000002 6.362499999999997 90.23750000000001 7.937499999999998 88.62500000000001 9.512499999999998 88.62500000000001 11.787499999999998 88.62500000000001 13.237499999999997 89.51250000000002 14.687499999999998 90.40000000000002 16.1375 92.00000000000001 16.412499999999998 92.12500000000001 16.4375 92.58750000000002 16.525 93.05000000000001 16.612499999999997 93.22500000000002 16.662499999999998 93.40000000000002 16.7125 93.80000000000001 16.825 94.20000000000002 16.9375 94.38750000000002 17.037499999999998 94.57500000000002 17.1375 94.85000000000002 17.325 95.12500000000001 17.5125 95.27500000000002 17.7125 95.60000000000002 18.2125 95.60000000000002 18.8875 95.60000000000002 19.5625 95.15000000000002 19.912499999999998 94.70000000000002 20.2625 94.01250000000002 20.2625 93.32500000000002 20.2625 92.78750000000002 19.849999999999998 92.25000000000001 19.4375 92.20000000000002 18.662499999999998 z" /><path d="M100.85000000000002 24.1875 L100.80000000000001 11.937499999999998 Q100.80000000000001 6.5624999999999964 100.85000000000002 5.487499999999997 101.45000000000002 5.5624999999999964 101.75000000000001 5.5624999999999964 102.05000000000001 5.5624999999999964 102.61250000000001 5.487499999999997 103.17500000000001 5.412499999999998 103.87500000000001 5.412499999999998 104.57500000000002 5.412499999999998 104.60000000000002 5.712499999999999 L104.60000000000002 5.912499999999998 Q104.92500000000001 5.962499999999999 105.01250000000002 6.162499999999998 105.10000000000002 6.362499999999997 105.13750000000002 6.512499999999999 105.17500000000001 6.662499999999998 105.17500000000001 6.962499999999999 L105.17500000000001 7.487499999999997 105.15000000000002 8.987499999999997 Q105.15000000000002 9.562499999999998 105.13750000000002 10.562499999999998 105.12500000000001 11.562499999999998 105.12500000000001 11.937499999999998 106.22500000000002 11.212499999999999 107.93750000000001 11.212499999999999 109.65000000000002 11.212499999999999 110.40000000000002 12.337499999999999 L110.70000000000002 12.562499999999998 Q111.35000000000002 13.062499999999998 111.35000000000002 16.7625 L111.25000000000001 22.4625 Q111.25000000000001 23.4625 111.30000000000001 24.5125 110.40000000000002 24.6375 109.20000000000002 24.6375 L107.70000000000002 24.6375 Q107.67500000000001 24.4625 107.67500000000001 24.1375 L107.20000000000002 24.1375 Q107.12500000000001 23.362499999999997 107.12500000000001 21.112499999999997 L107.12500000000001 19.862499999999997 Q107.12500000000001 17.1375 106.80000000000001 16.2625 106.60000000000002 16.1875 106.27500000000002 16.1875 105.52500000000002 16.1875 105.23750000000001 16.6875 104.95000000000002 17.1875 104.95000000000002 18.612499999999997 L105.05000000000001 22.3125 Q105.05000000000001 23.3875 104.95000000000002 24.1875 L104.95000000000002 24.4625 Q104.07500000000002 24.6875 103.50000000000001 24.6875 103.50000000000001 24.6875 102.35000000000002 24.6375 101.72500000000002 24.6375 101.35000000000002 24.6875 L101.35000000000002 24.1375 Q101.15000000000002 24.1875 100.85000000000002 24.1875 zM110.50000000000001 22.2125 L110.60000000000002 16.3875 Q110.60000000000002 12.762499999999998 110.02500000000002 12.237499999999997 109.17500000000001 11.462499999999999 107.70000000000002 11.462499999999999 107.05000000000001 11.462499999999999 106.70000000000002 11.574999999999998 106.35000000000002 11.687499999999998 106.18750000000001 11.737499999999997 106.02500000000002 11.787499999999998 105.71250000000002 11.949999999999998 105.40000000000002 12.112499999999997 105.30000000000001 12.162499999999998 104.75000000000001 12.437499999999998 104.37500000000001 12.687499999999998 L104.37500000000001 5.787499999999998 Q104.37500000000001 5.637499999999999 104.15000000000002 5.637499999999999 L104.05000000000001 5.637499999999999 Q103.37500000000001 5.637499999999999 102.72500000000002 5.724999999999998 102.07500000000002 5.8124999999999964 101.72500000000002 5.8124999999999964 101.37500000000001 5.8124999999999964 101.10000000000002 5.762499999999999 101.05000000000001 8.762499999999998 101.05000000000001 11.512499999999998 L101.05000000000001 14.962499999999999 101.10000000000002 23.912499999999998 Q101.40000000000002 23.8875 101.90000000000002 23.8875 L103.10000000000002 23.912499999999998 Q103.62500000000001 23.912499999999998 104.20000000000002 23.7625 L104.20000000000002 23.662499999999998 Q104.30000000000001 22.8375 104.30000000000001 21.8125 L104.20000000000002 18.0125 Q104.20000000000002 16.5125 104.57500000000002 15.974999999999998 104.95000000000002 15.437499999999998 105.77500000000002 15.437499999999998 106.42500000000001 15.437499999999998 106.85000000000002 15.812499999999998 107.07500000000002 16.0125 107.15000000000002 16.487499999999997 107.32500000000002 17.5625 107.32500000000002 18.0875 107.37500000000001 18.5125 107.37500000000001 20.162499999999998 L107.37500000000001 22.0125 Q107.37500000000001 23.537499999999998 107.42500000000001 23.8875 L108.87500000000001 23.912499999999998 Q109.77500000000002 23.912499999999998 110.55000000000001 23.787499999999998 110.50000000000001 22.8375 110.50000000000001 22.2125 z" /><path d="M122.62500000000003 11.362499999999997 L122.65000000000002 11.637499999999998 122.90000000000002 11.637499999999998 123.12500000000003 11.862499999999997 Q123.17500000000003 12.262499999999998 123.17500000000003 12.487499999999997 L123.17500000000003 12.737499999999997 Q123.15000000000002 13.412499999999998 123.15000000000002 14.687499999999998 L123.20000000000002 20.3125 Q123.20000000000002 21.787499999999998 123.16250000000002 22.737499999999997 123.12500000000003 23.6875 123.12500000000003 23.862499999999997 123.12500000000003 24.037499999999998 123.11250000000003 24.075 123.10000000000002 24.112499999999997 123.07500000000002 24.2 123.05000000000003 24.287499999999998 123.02500000000002 24.325 123.00000000000003 24.362499999999997 122.96250000000002 24.424999999999997 122.92500000000003 24.487499999999997 122.87500000000003 24.5125 122.82500000000002 24.537499999999998 122.60000000000002 24.612499999999997 L122.25000000000003 24.612499999999997 120.62500000000001 24.537499999999998 119.55000000000003 24.612499999999997 Q119.15000000000002 24.5125 119.02500000000002 24.112499999999997 118.70000000000002 23.987499999999997 118.62500000000001 23.8375 117.32500000000002 24.6375 116.02500000000002 24.6375 114.72500000000002 24.6375 113.67500000000003 23.424999999999997 112.62500000000001 22.2125 112.12500000000001 20.537499999999998 111.62500000000001 18.862499999999997 111.62500000000001 17.1875 111.62500000000001 14.362499999999999 113.03750000000002 12.762499999999998 114.45000000000002 11.162499999999998 116.62500000000001 11.162499999999998 117.32500000000002 11.162499999999998 117.71250000000002 11.262499999999998 118.10000000000002 11.362499999999997 118.42500000000003 11.762499999999998 118.42500000000003 11.512499999999998 118.45000000000002 11.412499999999998 118.47500000000002 11.312499999999998 118.48750000000003 11.224999999999998 118.50000000000001 11.137499999999998 118.52500000000002 11.112499999999997 118.55000000000003 11.087499999999999 118.57500000000002 11.037499999999998 118.60000000000002 10.987499999999997 118.65000000000002 10.987499999999997 118.80000000000003 10.937499999999998 118.92500000000003 10.937499999999998 L119.70000000000002 11.012499999999998 119.92500000000003 11.012499999999998 Q120.57500000000002 11.012499999999998 122.40000000000002 11.137499999999998 L122.62500000000003 11.362499999999997 zM122.47500000000002 19.5625 L122.40000000000002 14.012499999999998 Q122.40000000000002 12.837499999999999 122.42500000000003 12.237499999999997 L122.42500000000003 11.987499999999997 Q122.42500000000003 11.787499999999998 122.37500000000003 11.387499999999998 121.67500000000003 11.337499999999999 119.92500000000003 11.262499999999998 L119.65000000000002 11.262499999999998 118.97500000000002 11.237499999999997 Q118.62500000000001 11.237499999999997 118.62500000000001 12.437499999999998 L118.62500000000001 12.562499999999998 Q118.40000000000002 12.012499999999998 117.98750000000003 11.749999999999998 117.57500000000002 11.487499999999997 117.21250000000002 11.449999999999998 116.85000000000002 11.412499999999998 116.07500000000002 11.412499999999998 114.30000000000003 11.462499999999999 113.08750000000002 13.087499999999999 111.87500000000001 14.712499999999999 111.87500000000001 17.1875 111.87500000000001 20.6375 113.47500000000002 22.737499999999997 114.35000000000002 23.8875 115.55000000000003 23.8875 116.40000000000002 23.8875 117.31250000000001 23.474999999999998 118.22500000000002 23.0625 118.85000000000002 22.4375 L118.75000000000001 23.3125 Q118.75000000000001 23.737499999999997 119.05000000000003 23.862499999999997 L120.12500000000001 23.787499999999998 121.75000000000003 23.862499999999997 122.05000000000003 23.862499999999997 Q122.37500000000003 23.787499999999998 122.37500000000003 23.1875 L122.37500000000003 22.8375 Q122.47500000000002 21.362499999999997 122.47500000000002 19.5625 zM115.25000000000001 15.687499999999998 Q115.25000000000001 15.687499999999998 115.85000000000002 15.224999999999998 116.45000000000002 14.762499999999998 117.20000000000002 14.762499999999998 117.95000000000002 14.762499999999998 118.18750000000001 14.799999999999999 118.42500000000003 14.837499999999999 118.56250000000001 15.187499999999998 118.70000000000002 15.537499999999998 118.71250000000002 15.837499999999999 118.72500000000002 16.1375 118.72500000000002 16.8875 L118.72500000000002 17.9375 Q118.72500000000002 19.2625 118.46250000000002 19.825 118.20000000000002 20.3875 117.17500000000003 20.3875 116.15000000000002 20.3875 115.55000000000003 19.612499999999997 114.95000000000002 18.8375 114.95000000000002 17.849999999999998 114.95000000000002 16.862499999999997 115.10000000000002 16.275 zM118.47500000000002 17.0125 L118.50000000000001 16.287499999999998 Q118.50000000000001 15.612499999999999 118.17500000000003 15.537499999999998 118.07500000000002 15.512499999999998 117.92500000000003 15.512499999999998 117.05000000000003 15.512499999999998 116.52500000000002 15.912499999999998 116.00000000000001 16.3125 115.85000000000002 16.912499999999998 L115.85000000000002 16.9375 Q115.70000000000002 17.4375 115.70000000000002 18.1875 115.70000000000002 20.1375 117.17500000000003 20.1375 117.85000000000002 20.1375 118.20000000000002 19.737499999999997 118.42500000000003 19.4375 118.45000000000002 18.849999999999998 118.47500000000002 18.2625 118.47500000000002 17.662499999999998 L118.47500000000002 17.0125 z" /><path d="M130.40000000000003 11.462499999999999 L130.35000000000002 8.912499999999998 Q130.35000000000002 8.712499999999999 130.47500000000002 6.537499999999998 L130.47500000000002 6.262499999999999 Q130.47500000000002 6.137499999999999 131.08750000000003 6.012499999999999 131.70000000000002 5.887499999999999 132.55 5.887499999999999 133.40000000000003 5.887499999999999 134.12500000000003 6.037499999999998 L134.12500000000003 6.462499999999999 Q134.35000000000002 6.537499999999998 134.62500000000003 6.537499999999998 L134.62500000000003 8.387499999999998 134.8 21.287499999999998 Q134.8 23.5875 134.77500000000003 24.5625 L132.425 24.612499999999997 Q131.97500000000002 24.612499999999997 131.425 24.612499999999997 130.87500000000003 24.612499999999997 130.87500000000003 24.112499999999997 L130.87500000000003 24.0625 130.55 24.037499999999998 130.50000000000003 23.987499999999997 Q129.85000000000002 24.537499999999998 128.87500000000003 24.537499999999998 126.72500000000002 24.537499999999998 125.55000000000003 23.0875 123.57500000000003 21.5125 123.57500000000003 16.7125 123.57500000000003 14.787499999999998 124.12500000000003 13.312499999999998 124.67500000000003 11.837499999999999 125.77500000000002 11.412499999999998 126.70000000000003 11.037499999999998 128.15000000000003 11.037499999999998 129.60000000000002 11.037499999999998 130.40000000000003 11.462499999999999 zM134.05 21.0875 L133.87500000000003 7.8874999999999975 133.87500000000003 6.237499999999997 Q133.35000000000002 6.137499999999999 132.03750000000002 6.137499999999999 130.72500000000002 6.137499999999999 130.72500000000002 6.262499999999999 L130.72500000000002 6.537499999999998 Q130.62500000000003 8.312499999999998 130.62500000000003 8.912499999999998 L130.62500000000003 10.062499999999998 Q130.62500000000003 11.187499999999998 130.65000000000003 11.962499999999999 130.55 11.687499999999998 129.8 11.487499999999997 129.05 11.287499999999998 128.00000000000003 11.287499999999998 126.95000000000003 11.287499999999998 125.85000000000002 11.637499999999998 124.80000000000003 12.012499999999998 124.31250000000003 13.412499999999998 123.82500000000003 14.812499999999998 123.83750000000002 16.375 123.85000000000002 17.9375 123.92500000000003 18.787499999999998 124.00000000000003 19.6375 124.28750000000002 20.662499999999998 124.57500000000003 21.6875 125.05000000000003 22.3125 125.52500000000002 22.9375 126.40000000000002 23.362499999999997 127.27500000000002 23.787499999999998 128.52500000000003 23.787499999999998 129.77500000000003 23.787499999999998 130.35000000000002 22.6875 130.37500000000003 22.5875 130.45000000000002 22.5875 130.62500000000003 22.5875 130.675 23.612499999999997 L130.65000000000003 23.787499999999998 Q131.20000000000002 23.862499999999997 131.925 23.862499999999997 L134.02500000000003 23.8125 Q134.05 22.9375 134.05 21.0875 zM129.22500000000002 14.187499999999998 Q130.27500000000003 14.187499999999998 130.51250000000002 14.649999999999999 130.75000000000003 15.112499999999999 130.75000000000003 16.5625 130.75000000000003 18.0125 130.70000000000002 18.549999999999997 130.65000000000003 19.0875 130.50000000000003 19.6375 130.175 20.6875 129.05 20.6875 127.92500000000003 20.6875 127.30000000000003 19.7125 126.67500000000003 18.737499999999997 126.67500000000003 17.5875 126.67500000000003 16.4375 126.85000000000002 15.962499999999999 127.12500000000003 14.187499999999998 129.22500000000002 14.187499999999998 zM127.42500000000003 17.912499999999998 Q127.42500000000003 20.4375 128.95000000000002 20.4375 130.175 20.4375 130.37500000000003 19.0875 130.50000000000003 18.2625 130.50000000000003 17.5625 L130.50000000000003 15.837499999999999 Q130.50000000000003 15.312499999999998 130.38750000000002 15.199999999999998 130.27500000000003 15.087499999999999 130.20000000000002 15.037499999999998 130.02500000000003 14.937499999999998 129.72500000000002 14.937499999999998 127.82500000000003 14.937499999999998 127.60000000000002 16.487499999999997 127.42500000000003 16.8375 127.42500000000003 17.912499999999998 z" /><path d="M135.27500000000003 16.8125 L135.22500000000002 15.737499999999999 Q135.22500000000002 13.837499999999999 135.65000000000003 12.787499999999998 L135.62500000000003 12.787499999999998 Q135.70000000000002 12.287499999999998 135.77500000000003 12.287499999999998 L135.77500000000003 12.312499999999998 Q135.77500000000003 12.337499999999999 135.77500000000003 12.337499999999999 L135.77500000000003 12.337499999999999 Q136.15000000000003 11.537499999999998 137.26250000000002 11.137499999999998 138.37500000000003 10.737499999999997 139.77500000000003 10.737499999999997 139.97500000000002 10.762499999999998 140.70000000000002 10.762499999999998 L141.30000000000004 10.737499999999997 Q143.45000000000002 10.737499999999997 144.65000000000003 11.912499999999998 L144.62500000000003 11.912499999999998 145.10000000000002 12.387499999999998 Q146.25000000000003 13.162499999999998 146.25000000000003 17.537499999999998 146.25000000000003 19.3125 146.02500000000003 21.2125 145.80000000000004 23.112499999999997 145.40000000000003 23.5625 144.47500000000002 24.862499999999997 141.87500000000003 24.862499999999997 140.60000000000002 24.862499999999997 139.92500000000004 24.799999999999997 139.25000000000003 24.737499999999997 138.37500000000003 24.3875 137.50000000000003 24.037499999999998 136.80000000000004 23.3125 L136.57500000000002 23.0875 Q135.25000000000003 21.8125 135.25000000000003 18.5625 L135.25000000000003 17.662499999999998 135.27500000000003 16.8125 zM141.20000000000002 10.987499999999997 L140.25000000000003 11.012499999999998 Q139.92500000000004 11.012499999999998 139.20000000000002 10.999999999999998 138.47500000000002 10.987499999999997 137.40000000000003 11.362499999999997 136.32500000000002 11.737499999999997 136.00000000000003 12.437499999999998 135.47500000000002 14.262499999999998 135.47500000000002 15.712499999999999 L135.50000000000003 16.7625 135.50000000000003 18.612499999999997 Q135.50000000000003 23.4375 138.90000000000003 24.0125 L141.40000000000003 24.0875 Q143.87500000000003 24.0875 144.70000000000002 22.912499999999998 145.30000000000004 22.3125 145.47500000000002 17.4625 145.50000000000003 17.162499999999998 145.50000000000003 17.037499999999998 145.40000000000003 13.937499999999998 145.15000000000003 13.149999999999999 144.90000000000003 12.362499999999997 144.47500000000002 12.087499999999999 143.35000000000002 10.987499999999997 141.20000000000002 10.987499999999997 zM140.62500000000003 14.762499999999998 Q142.37500000000003 14.762499999999998 142.37500000000003 17.362499999999997 142.37500000000003 19.3375 141.92500000000004 19.912499999999998 141.47500000000002 20.5125 140.45000000000002 20.5125 138.75000000000003 20.5125 138.75000000000003 19.1375 138.77500000000003 18.862499999999997 138.77500000000003 17.8375 138.77500000000003 15.612499999999999 139.12500000000003 15.387499999999998 139.62500000000003 14.762499999999998 140.62500000000003 14.762499999999998 zM139.50000000000003 19.662499999999998 Q139.50000000000003 20.0625 139.75000000000003 20.162499999999998 140.00000000000003 20.2625 140.45000000000002 20.2625 141.97500000000002 20.2625 141.97500000000002 19.2125 142.12500000000003 17.9625 142.12500000000003 17.375 142.12500000000003 16.787499999999998 142.10000000000002 16.487499999999997 142.07500000000002 16.1875 141.82500000000002 15.862499999999997 141.57500000000002 15.537499999999998 141.25000000000003 15.537499999999998 140.92500000000004 15.537499999999998 140.55000000000004 15.587499999999999 140.07500000000002 15.712499999999999 139.82500000000002 16.037499999999998 L139.77500000000003 16.0875 Q139.50000000000003 16.2625 139.50000000000003 19.662499999999998 z" /><path d="M149.22500000000002 24.662499999999998 Q149.22500000000002 24.3875 149.15 24.162499999999998 L148.72500000000002 24.162499999999998 Q147.525 16.6875 146.00000000000003 11.012499999999998 146.775 11.137499999999998 147.3 11.137499999999998 147.82500000000002 11.137499999999998 148.675 11.124999999999998 149.525 11.112499999999997 149.87500000000003 11.162499999999998 L150.10000000000002 11.362499999999997 Q150.10000000000002 11.562499999999998 150.15 11.612499999999997 150.20000000000002 11.662499999999998 150.37500000000003 11.662499999999998 L150.60000000000002 11.862499999999997 Q150.75000000000003 12.637499999999998 151.1125 14.987499999999999 151.47500000000002 17.3375 151.70000000000002 18.4625 151.9 17.5875 153.25000000000003 11.062499999999998 153.525 11.112499999999997 154.22500000000002 11.112499999999997 L155.55 11.062499999999998 Q155.87500000000003 11.062499999999998 156.45000000000002 11.137499999999998 L156.525 11.587499999999999 Q156.60000000000002 11.587499999999999 156.95000000000002 11.637499999999998 157.15 12.537499999999998 157.47500000000002 14.912499999999998 157.8 17.287499999999998 158.05 18.4625 158.275 17.5875 158.82500000000002 14.812499999999998 159.37500000000003 12.037499999999998 159.70000000000002 11.187499999999998 L162.25000000000003 11.087499999999999 Q162.82500000000002 11.087499999999999 163.47500000000002 11.137499999999998 163.45000000000002 11.237499999999997 163.38750000000002 11.387499999999998 163.32500000000002 11.537499999999998 163.3 11.612499999999997 163.45000000000002 11.612499999999997 163.675 11.624999999999998 163.9 11.637499999999998 163.97500000000002 11.637499999999998 163.05 14.087499999999999 162.06250000000003 18.65 161.07500000000002 23.2125 160.70000000000002 24.5875 159.95000000000002 24.7125 158.82500000000002 24.7125 L155.87500000000003 24.662499999999998 Q155.87500000000003 24.5625 155.82500000000002 24.412499999999998 L155.775 24.162499999999998 155.37500000000003 24.162499999999998 Q155.22500000000002 23.4375 154.925 21.287499999999998 154.45000000000002 24.1875 154.35000000000002 24.5875 153.60000000000002 24.7125 152.35000000000002 24.7125 L149.22500000000002 24.662499999999998 zM155.50000000000003 11.287499999999998 L154.07500000000002 11.362499999999997 Q153.675 11.362499999999997 153.45000000000002 11.337499999999999 L153.4 11.612499999999997 Q153.37500000000003 11.712499999999999 153.3 12.149999999999999 153.22500000000002 12.587499999999999 153.175 12.812499999999998 L153.12500000000003 13.087499999999999 Q152.675 15.137499999999998 152.425 16.4375 152.025 18.3375 151.47500000000002 19.9625 150.97500000000002 18.5625 150.4875 15.387499999999998 150.00000000000003 12.212499999999999 149.85000000000002 11.412499999999998 149.20000000000002 11.362499999999997 148.85000000000002 11.362499999999997 L147.425 11.387499999999998 Q146.60000000000002 11.387499999999998 146.35000000000002 11.337499999999999 147.75000000000003 16.4625 148.95000000000002 23.912499999999998 L151.8 23.9625 Q152.95000000000002 23.9625 153.65 23.862499999999997 153.9 22.8875 154.175 20.9 154.45000000000002 18.912499999999998 154.62500000000003 18.112499999999997 154.675 18.3875 155.60000000000002 23.912499999999998 155.60000000000002 23.912499999999998 158.25000000000003 23.9625 159.3 23.9625 160.00000000000003 23.862499999999997 160.35000000000002 22.537499999999998 161.3375 18.037499999999998 162.32500000000002 13.537499999999998 163.12500000000003 11.362499999999997 162.82500000000002 11.337499999999999 162.3 11.337499999999999 L159.87500000000003 11.437499999999998 Q159.60000000000002 12.137499999999998 158.925 15.524999999999999 158.25000000000003 18.912499999999998 157.82500000000002 19.9625 157.4 18.7625 156.8375 15.199999999999998 156.275 11.637499999999998 156.22500000000002 11.362499999999997 155.82500000000002 11.287499999999998 155.50000000000003 11.287499999999998 z" /></g></svg>