<svg width="170" height="30" xmlns="http://www.w3.org/2000/svg" viewBox="0 0 170 30"><g fill="currentColor"><path d="M12.272 7.187000000000001 Q12.402 8.408999999999999 12.402 8.825 12.402 9.241 12.389 9.683 12.376 10.125 12.193999999999999 10.58 12.011999999999999 11.035 11.7 11.450999999999999 11.102 12.257 9.542 12.257 8.475999999999999 12.257 7.813 11.75 7.1499999999999995 11.243 6.552 10.280999999999999 6.005999999999999 12.179 6.005999999999999 14.726999999999999 6.005999999999999 17.847 7.54 19.302999999999997 8.32 20.057 9.542 20.057 10.764 20.057 12.324 19.433 12.506 20.186999999999998 12.35 20.98 12.193999999999999 21.773 11.856 22.319 11.517999999999999 22.865 10.998 23.255 9.75 24.191 7.3839999999999995 24.191 3.7439999999999998 24.191 1.976 21.747 1.3259999999999998 20.837 0.9099999999999999 19.342 0.494 17.847 0.494 15.923 0.494 12.568999999999999 1.807 10.437 3.1199999999999997 8.305 5.018 7.369 5.278 6.797000000000001 5.888999999999999 6.277000000000001 6.5 5.7570000000000014 7.553 5.7570000000000014 8.606 5.7570000000000014 9.958 6.472000000000001 11.309999999999999 7.187000000000001 12.272 7.187000000000001 z" /><path d="M17.706 21.122999999999998 Q17.706 22.397 18.018 23.021 17.862 23.436999999999998 17.147 23.814 16.432 24.191 15.561 24.191 14.69 24.191 14.209 23.657999999999998 13.728 23.125 13.728 22.215 L13.728 11.243 Q13.728 9.084999999999999 13.312 7.655000000000001 L13.155999999999999 7.161000000000001 Q13.26 7.030999999999999 13.454999999999998 6.823 13.649999999999999 6.614999999999998 14.299999999999999 6.263999999999999 14.95 5.913 15.652 5.913 17.706 5.913 17.706 9.163 L17.706 12.205 Q18.043999999999997 11.450999999999999 18.823999999999998 10.931 19.604 10.411 20.916999999999998 10.411 22.229999999999997 10.411 23.165999999999997 11.437999999999999 24.101999999999997 12.465 24.101999999999997 14.258999999999999 L24.101999999999997 21.279 24.674 22.605 Q24.57 22.787 24.387999999999998 23.047 24.205999999999996 23.307 23.582 23.749 22.958 24.191 22.256 24.191 20.124 24.191 20.124 21.122999999999998 L20.124 16.104999999999997 Q20.124 14.674999999999999 19.604 14.181 19.084 13.687 17.706 13.687 L17.706 21.122999999999998 z" /><path d="M34.944 20.473 Q35.23 20.759 35.23 21.227 35.23 21.695 34.983 22.176 34.736 22.657 34.254999999999995 23.112 33.774 23.567 32.89 23.878999999999998 32.006 24.191 30.953 24.191 29.9 24.191 29.067999999999998 23.892 28.235999999999997 23.593 27.482 22.942999999999998 25.843999999999998 21.487 25.843999999999998 18.185 25.843999999999998 14.883 26.962 13.283999999999999 28.08 11.684999999999999 29.509999999999998 11.529 30.549999999999997 10.411 32.019 10.411 33.488 10.411 34.411 11.477 35.333999999999996 12.543 35.333999999999996 14.389 35.333999999999996 16.547 33.748 17.794999999999998 32.448 18.835 30.628 19.381 31.537999999999997 20.576999999999998 33.644 20.576999999999998 34.242 20.576999999999998 34.944 20.473 zM31.72 15.662999999999998 Q31.72 14.077 29.77 13.921 L29.77 16.261 Q29.77 17.430999999999997 29.977999999999998 18.133 31.72 17.171 31.72 15.662999999999998 z" /><path d="M36.582 21.122999999999998 L36.582 11.243 Q36.582 9.084999999999999 36.166 7.655000000000001 L36.01 7.161000000000001 Q36.114 7.030999999999999 36.309 6.823 36.504 6.614999999999998 37.153999999999996 6.263999999999999 37.804 5.913 38.506 5.913 40.56 5.913 40.56 9.163 L40.56 21.279 41.132 22.605 Q41.028 22.787 40.846000000000004 23.047 40.664 23.307 40.04 23.749 39.416 24.191 38.714 24.191 36.582 24.191 36.582 21.122999999999998 z" /><path d="M47.71 16.365 Q47.71 14.519 45.656 14.519 44.486 14.519 43.211999999999996 15.273 42.796 14.857 42.796 14.245999999999999 42.796 13.635 43.147 12.985 43.498 12.334999999999999 44.083 11.75 44.668 11.165 45.577999999999996 10.788 46.488 10.411 47.501999999999995 10.411 49.53 10.411 50.622 11.684999999999999 51.714 12.959 51.714 15.325 L51.714 21.279 52.286 22.605 Q52.181999999999995 22.787 52 23.047 51.818 23.307 51.193999999999996 23.749 50.57 24.191 49.894 24.191 48.204 24.191 47.839999999999996 22.319 46.982 24.191 45.461 24.191 43.94 24.191 43.147 23.241999999999997 42.354 22.293 42.354 20.759 42.354 16.781 47.71 16.547 L47.71 16.365 zM45.604 19.796999999999997 Q45.604 20.811 46.306 21.096999999999998 46.461999999999996 21.174999999999997 46.644 21.174999999999997 47.164 21.174999999999997 47.71 20.576999999999998 L47.71 17.717 Q45.604 18.211 45.604 19.796999999999997 z" /><path d="M58.837999999999994 16.183 Q58.837999999999994 13.998999999999999 59.358 12.27 59.87799999999999 10.541 60.736 9.527 62.373999999999995 7.550999999999998 64.22 7.108999999999998 65.28599999999999 5.7570000000000014 67.392 5.7570000000000014 70.27799999999999 5.7570000000000014 71.916 7.966999999999999 73.55399999999999 10.177 73.55399999999999 14.584 73.55399999999999 18.991 71.344 21.604 69.13399999999999 24.217 65.81899999999999 24.217 62.50399999999999 24.217 60.67099999999999 22.189 58.837999999999994 20.160999999999998 58.837999999999994 16.183 zM67.47 21.174999999999997 Q67.47 21.174999999999997 68.029 19.849 68.588 18.523 68.588 16.027 68.588 13.530999999999999 67.50899999999999 12.049 66.42999999999999 10.567 64.948 9.865 64.29799999999999 12.360999999999999 64.29799999999999 15.247 64.29799999999999 21.174999999999997 66.482 21.174999999999997 67.47 21.174999999999997 68.029 19.849 z" /><path d="M78.832 21.122999999999998 Q78.832 22.397 79.14399999999999 23.021 78.98799999999999 23.436999999999998 78.273 23.814 77.55799999999999 24.191 76.687 24.191 75.81599999999999 24.191 75.335 23.657999999999998 74.85399999999998 23.125 74.85399999999998 22.215 L74.85399999999998 15.610999999999999 Q74.85399999999998 13.453 74.43799999999999 12.023 L74.282 11.529 Q74.386 11.399 74.58099999999999 11.190999999999999 74.776 10.982999999999999 75.42599999999999 10.645 76.076 10.307 76.77799999999999 10.307 78.416 10.307 78.75399999999999 12.386999999999999 79.03999999999999 11.581 79.833 10.996 80.62599999999999 10.411 81.99099999999999 10.411 83.356 10.411 84.29199999999999 11.437999999999999 85.228 12.465 85.228 14.258999999999999 L85.228 21.279 85.79999999999998 22.605 Q85.696 22.787 85.514 23.047 85.332 23.307 84.708 23.749 84.08399999999999 24.191 83.38199999999999 24.191 81.24999999999999 24.191 81.24999999999999 21.122999999999998 L81.24999999999999 16.104999999999997 Q81.24999999999999 14.674999999999999 80.72999999999999 14.181 80.21 13.687 78.832 13.687 L78.832 21.122999999999998 z" /><path d="M96.07 20.473 Q96.356 20.759 96.356 21.227 96.356 21.695 96.109 22.176 95.862 22.657 95.38099999999999 23.112 94.89999999999999 23.567 94.01599999999999 23.878999999999998 93.13199999999999 24.191 92.079 24.191 91.02599999999998 24.191 90.19399999999999 23.892 89.362 23.593 88.60799999999999 22.942999999999998 86.96999999999998 21.487 86.96999999999998 18.185 86.96999999999998 14.883 88.088 13.283999999999999 89.20599999999999 11.684999999999999 90.636 11.529 91.67599999999999 10.411 93.14499999999998 10.411 94.61399999999999 10.411 95.53699999999999 11.477 96.46 12.543 96.46 14.389 96.46 16.547 94.874 17.794999999999998 93.57399999999998 18.835 91.75399999999999 19.381 92.66399999999999 20.576999999999998 94.76999999999998 20.576999999999998 95.368 20.576999999999998 96.07 20.473 zM92.84599999999999 15.662999999999998 Q92.84599999999999 14.077 90.89599999999999 13.921 L90.89599999999999 16.261 Q90.89599999999999 17.430999999999997 91.10399999999998 18.133 92.84599999999999 17.171 92.84599999999999 15.662999999999998 z" /></g></svg>