<svg width="170" height="30" xmlns="http://www.w3.org/2000/svg" viewBox="0 0 170 30"><g fill="currentColor"><path d="M25.427999999999997 24.464 Q25.48 24.49 25.48 24.567999999999998 25.427999999999997 24.75 25.272 24.645999999999997 23.009999999999998 23.06 23.009999999999998 19.991999999999997 23.009999999999998 18.718 23.517 17.275 24.023999999999997 15.831999999999999 25.323999999999998 13.803999999999998 26.624 11.776 27.846 10.293999999999999 29.067999999999998 8.812 30.198999999999998 7.524999999999999 31.33 6.2379999999999995 31.381999999999998 6.134 31.694 5.666 31.798 6.2379999999999995 31.823999999999998 6.42 31.823999999999998 6.654 31.823999999999998 6.888 31.694 7.0699999999999985 30.081999999999997 9.046 28.573999999999998 11.542 26.052 15.753999999999998 24.959999999999997 19.212 24.544 20.59 24.544 22.072 24.544 23.554 25.427999999999997 24.464 zM3.796 15.363999999999999 Q8.06 13.595999999999998 14.065999999999999 13.595999999999998 17.029999999999998 13.595999999999998 19.994 14.532 20.695999999999998 13.803999999999998 22.073999999999998 12.360999999999999 23.451999999999998 10.918 24.258 10.085999999999999 26.598 7.667999999999999 28.08 6.523999999999999 30.575999999999997 4.573999999999998 32.656 4.573999999999998 33.592 4.573999999999998 34.372 4.873000000000001 35.152 5.172000000000001 35.308 5.341000000000001 35.464 5.509999999999998 35.464 5.535999999999998 35.464 5.561999999999998 35.412 5.626999999999999 35.36 5.692 35.256 5.561999999999998 34.762 5.093999999999998 33.332 5.093999999999998 30.913999999999998 5.093999999999998 28.235999999999997 7.199999999999999 26.311999999999998 8.76 25.038 10.046999999999999 23.764 11.334 22.372999999999998 12.777 20.982 14.219999999999999 20.488 14.713999999999999 23.087999999999997 15.675999999999998 23.322 17.235999999999997 23.348 17.392 23.308999999999997 17.444 23.27 17.496 23.205 17.444 23.14 17.392 23.113999999999997 17.287999999999997 22.906 16.793999999999997 21.657999999999998 16.508 20.54 16.247999999999998 19.084 16.118 13.806 21.214 9.75 22.592 7.54 23.372 5.564 23.372 2.028 23.372 0.6629999999999999 22.319 -0.702 21.266 -0.702 19.991999999999997 -0.702 19.497999999999998 -0.52 18.977999999999998 0.26 16.846 3.796 15.363999999999999 zM16.822 16.014 Q13.363999999999999 16.014 9.542 16.741999999999997 3.666 17.782 1.898 19.836 1.3519999999999999 20.485999999999997 1.3519999999999999 21.058 1.3519999999999999 21.733999999999998 2.08 22.279999999999998 2.9379999999999997 22.93 5.0569999999999995 22.93 7.175999999999999 22.93 9.645999999999999 22.227999999999998 13.338 21.084 18.433999999999997 16.066 17.628 16.014 16.822 16.014 z" /><path d="M33.93 16.95 Q32.785999999999994 18.276 32.071 19.381 31.355999999999998 20.485999999999997 31.355999999999998 20.941 31.355999999999998 21.395999999999997 31.888999999999996 21.395999999999997 32.422 21.395999999999997 34.07299999999999 20.33 35.724 19.264 37.128 17.938 37.257999999999996 17.808 37.361999999999995 17.834 37.465999999999994 17.86 37.465999999999994 17.964 37.465999999999994 18.067999999999998 37.361999999999995 18.198 34.007999999999996 21.266 32.239999999999995 22.046 31.459999999999997 22.357999999999997 31.121999999999996 22.357999999999997 29.874 22.357999999999997 29.418999999999997 21.942 28.964 21.526 28.964 21.032 28.964 20.043999999999997 29.354 19.523999999999997 30.627999999999997 17.729999999999997 31.381999999999998 16.482 31.615999999999996 16.118 31.290999999999997 15.974999999999998 30.965999999999998 15.831999999999999 30.484999999999996 15.831999999999999 30.003999999999998 15.831999999999999 29.977999999999998 15.806 28.235999999999997 18.146 26.519999999999996 19.497999999999998 26.311999999999998 19.68 26.285999999999998 19.497999999999998 26.285999999999998 19.29 26.572 19.003999999999998 28.391999999999996 17.444 29.561999999999998 15.701999999999998 29.327999999999996 15.546 29.327999999999996 15.273 29.327999999999996 15 29.366999999999997 14.61 29.406 14.219999999999999 29.769999999999996 13.569999999999999 30.394 12.478 31.069999999999997 12.478 31.641999999999996 12.478 31.641999999999996 13.101999999999999 31.641999999999996 13.959999999999999 30.836 14.974 30.445999999999998 15.442 30.107999999999997 15.649999999999999 31.069999999999997 15.338 32.916 15.338 33.82599999999999 15.338 34.215999999999994 16.014 34.268 16.118 34.268 16.326 34.268 16.534 33.93 16.95 z" /><path d="M41.132 13.985999999999999 Q41.132 13.985999999999999 41.184 13.543999999999999 41.236 13.101999999999999 41.651999999999994 12.607999999999999 42.068 12.113999999999999 42.769999999999996 12.113999999999999 42.977999999999994 12.113999999999999 43.211999999999996 12.309 43.446 12.504 43.394 12.959 43.342 13.414 42.977999999999994 13.816999999999998 42.614 14.219999999999999 42.159 14.337 41.70399999999999 14.453999999999999 41.418 14.219999999999999 zM41.08 15.597999999999999 Q40.013999999999996 16.689999999999998 39.299 18.366999999999997 38.583999999999996 20.043999999999997 38.583999999999996 20.72 38.583999999999996 21.395999999999997 39.117 21.395999999999997 39.65 21.395999999999997 40.885 20.616 42.12 19.836 43.705999999999996 18.406 44.044 18.093999999999998 44.044 18.483999999999998 44.044 18.535999999999998 43.992 18.587999999999997 42.744 19.68 41.885999999999996 20.381999999999998 41.028 21.084 39.845 21.721 38.662 22.357999999999997 37.907999999999994 22.357999999999997 36.971999999999994 22.357999999999997 36.516999999999996 21.942 36.062 21.526 36.062 21.032 36.062 20.096 36.4 19.549999999999997 36.738 19.003999999999998 37.544 18.041999999999998 37.257999999999996 18.276 36.647 18.822 36.035999999999994 19.368 35.802 19.549999999999997 35.568 19.732 35.568 19.445999999999998 35.568 19.264 35.983999999999995 18.926 36.4 18.587999999999997 37.791 17.21 39.181999999999995 15.831999999999999 39.68899999999999 15.572 40.196 15.311999999999998 40.520999999999994 15.311999999999998 40.846 15.311999999999998 41.001999999999995 15.402999999999999 41.157999999999994 15.494 41.08 15.597999999999999 z" /><path d="M47.762 18.509999999999998 Q50.05 17.548 50.05 17.171 50.05 16.793999999999997 47.866 16.793999999999997 45.083999999999996 16.793999999999997 44.746 17.808 44.33 17.522 44.33 17.08 44.33 16.976 44.356 16.872 44.876 14.947999999999999 48.594 14.947999999999999 48.724 14.947999999999999 48.879999999999995 14.947999999999999 50.31 14.947999999999999 50.882 15.376999999999999 51.454 15.806 51.454 16.274 51.454 17.105999999999998 50.257999999999996 17.886 49.452 18.406 47.294 19.107999999999997 47.814 19.055999999999997 48.724 19.055999999999997 49.634 19.055999999999997 50.751999999999995 19.497999999999998 51.87 19.939999999999998 52.234 20.901999999999997 52.338 21.214 52.338 21.759999999999998 52.338 22.305999999999997 51.87 23.215999999999998 51.168 24.567999999999998 49.269999999999996 26.063 47.372 27.558 45.37 28.415999999999997 41.392 30.105999999999998 38.324 30.105999999999998 36.634 30.105999999999998 35.984 29.351999999999997 35.775999999999996 29.092 35.775999999999996 28.857999999999997 35.775999999999996 28.624 35.906 28.247 36.036 27.869999999999997 36.582 27.298 37.804 25.997999999999998 40.677 24.892999999999997 43.55 23.787999999999997 45.838 23.787999999999997 47.502 23.787999999999997 48.204 24.229999999999997 48.542 24.464 48.542 24.633 48.542 24.802 48.243 24.723999999999997 47.944 24.645999999999997 47.254999999999995 24.645999999999997 46.566 24.645999999999997 44.967 24.983999999999998 43.368 25.322 41.236 26.128 39.104 26.933999999999997 38.22 28.182 37.934 28.598 37.934 28.884 37.934 29.612 39.338 29.612 41.548 29.612 44.902 28.13 47.684 26.959999999999997 49.426 24.828 50.57 23.424 50.57 22.41 50.57 21.942 50.336 21.552 49.686 20.459999999999997 47.242 20.459999999999997 47.034 20.459999999999997 46.266999999999996 20.473 45.5 20.485999999999997 43.524 20.927999999999997 43.03 21.032 43.056 20.694 43.108 20.252 43.68 19.862 43.836 19.758 43.927 19.718999999999998 44.018 19.68 45.318 19.329 46.618 18.977999999999998 47.762 18.509999999999998 z" /><path d="M58.708 21.708 Q56.966 22.592 55.666 22.592 54.574 22.592 54.184 21.863999999999997 53.976 21.5 53.976 21.032 53.976 19.965999999999998 54.47 18.951999999999998 54.132 19.29 53.82 19.497999999999998 53.559999999999995 19.732 53.559999999999995 19.445999999999998 53.559999999999995 19.264 54.015 18.874 54.47 18.483999999999998 55.406 17.561 56.342 16.637999999999998 56.888 16.169999999999998 58.474 14.843999999999998 60.242 14.843999999999998 60.891999999999996 14.843999999999998 61.568 15.181999999999999 62.556 15.649999999999999 62.556 16.898 62.556 18.406 61.047999999999995 19.991999999999997 60.449999999999996 20.668 59.384 21.343999999999998 61.516 21.006 63.908 18.77 64.038 18.665999999999997 64.142 18.679 64.246 18.692 64.246 18.796 64.246 18.9 64.142 19.003999999999998 61.282 21.708 58.812 21.708 58.76 21.708 58.708 21.708 zM61.23 18.977999999999998 Q61.879999999999995 17.99 61.879999999999995 17.301 61.879999999999995 16.612 61.282 16.247999999999998 60.943999999999996 15.962 60.501999999999995 15.962 58.916 15.962 57.577 17.21 56.238 18.458 55.796 19.862 55.614 20.355999999999998 55.614 20.889 55.614 21.421999999999997 56.016999999999996 21.642999999999997 56.419999999999995 21.863999999999997 56.914 21.863999999999997 57.408 21.863999999999997 58.343999999999994 21.369999999999997 58.292 21.369999999999997 58.187999999999995 21.317999999999998 57.876 21.162 57.876 20.901999999999997 57.876 19.991999999999997 58.89 19.055999999999997 59.617999999999995 18.406 60.372 18.406 61.126 18.406 61.23 18.977999999999998 z" /><path d="M70.798 16.326 Q71.16199999999999 15.91 71.16199999999999 15.675999999999998 71.16199999999999 15.442 70.681 15.442 70.2 15.442 69.16 16.351999999999997 68.198 17.183999999999997 66.833 19.134 65.468 21.084 64.857 21.773 64.246 22.462 63.778 22.462 63.726 22.462 63.674 22.462 62.998 22.462 62.348 21.915999999999997 62.504 21.682 63.102 20.901999999999997 64.428 19.29 65.416 17.782 64.298 18.9 63.518 19.523999999999997 63.257999999999996 19.732 63.219 19.549999999999997 63.18 19.368 63.336 19.224999999999998 63.492 19.081999999999997 63.856 18.756999999999998 64.22 18.432 64.337 18.328 64.454 18.224 64.779 17.924999999999997 65.104 17.625999999999998 65.26 17.444 65.988 16.586 66.326 15.988 66.456 15.675999999999998 66.443 15.376999999999999 66.42999999999999 15.078 66.313 14.986999999999998 66.196 14.895999999999999 66.222 14.765999999999998 66.222 14.558 66.42999999999999 14.558 66.53399999999999 14.558 66.664 14.61 67.47 14.974 67.47 16.052999999999997 67.47 17.131999999999998 67.002 18.354 68.01599999999999 17.028 68.536 16.456 69.888 14.947999999999999 71.188 14.947999999999999 72.462 14.947999999999999 72.696 16.04 72.722 16.195999999999998 72.722 16.521 72.722 16.846 72.475 17.392 72.228 17.938 71.318 19.186 70.408 20.433999999999997 70.265 20.759 70.122 21.084 70.17399999999999 21.24 70.226 21.395999999999997 70.408 21.421999999999997 70.72 21.474 71.474 21.006 72.53999999999999 20.252 74.23 18.692 74.51599999999999 18.406 74.51599999999999 18.744 74.51599999999999 18.874 74.386 19.003999999999998 71.864 21.343999999999998 70.642 21.915999999999997 69.212 22.644 68.40599999999999 22.15 67.91199999999999 21.837999999999997 67.91199999999999 21.279 67.91199999999999 20.72 68.12 20.148 68.588 18.822 70.798 16.326 z" /><path d="M79.03999999999999 13.985999999999999 Q79.03999999999999 13.985999999999999 79.092 13.543999999999999 79.14399999999999 13.101999999999999 79.56 12.607999999999999 79.976 12.113999999999999 80.678 12.113999999999999 80.886 12.113999999999999 81.12 12.309 81.354 12.504 81.30199999999999 12.959 81.25 13.414 80.886 13.816999999999998 80.52199999999999 14.219999999999999 80.067 14.337 79.612 14.453999999999999 79.326 14.219999999999999 zM78.988 15.597999999999999 Q77.922 16.689999999999998 77.207 18.366999999999997 76.492 20.043999999999997 76.492 20.72 76.492 21.395999999999997 77.02499999999999 21.395999999999997 77.55799999999999 21.395999999999997 78.79299999999999 20.616 80.02799999999999 19.836 81.614 18.406 81.952 18.093999999999998 81.952 18.483999999999998 81.952 18.535999999999998 81.89999999999999 18.587999999999997 80.652 19.68 79.794 20.381999999999998 78.93599999999999 21.084 77.753 21.721 76.57 22.357999999999997 75.816 22.357999999999997 74.88 22.357999999999997 74.425 21.942 73.97 21.526 73.97 21.032 73.97 20.096 74.30799999999999 19.549999999999997 74.646 19.003999999999998 75.452 18.041999999999998 75.166 18.276 74.55499999999999 18.822 73.944 19.368 73.71 19.549999999999997 73.476 19.732 73.476 19.445999999999998 73.476 19.264 73.892 18.926 74.30799999999999 18.587999999999997 75.699 17.21 77.09 15.831999999999999 77.597 15.572 78.104 15.311999999999998 78.429 15.311999999999998 78.75399999999999 15.311999999999998 78.91 15.402999999999999 79.066 15.494 78.988 15.597999999999999 z" /><path d="M90.402 18.483999999999998 Q90.402 18.483999999999998 90.103 18.874 89.804 19.264 89.349 19.939999999999998 88.894 20.616 88.894 21.084 88.894 21.552 89.297 21.552 89.7 21.552 90.61 21.058 92.43 20.017999999999997 94.64 17.938 94.9 17.677999999999997 94.978 17.86 94.978 17.886 94.978 17.964 94.978 18.041999999999998 94.874 18.146 90.402 22.357999999999997 88.374 22.357999999999997 87.776 22.357999999999997 87.373 21.955 86.97 21.552 86.97 21.006 86.97 20.459999999999997 87.438 19.342 86.268 20.798 84.929 21.590999999999998 83.59 22.384 82.836 22.384 82.082 22.384 81.549 21.929 81.016 21.474 81.016 20.798 81.016 18.874 82.732 17.028 84.032 15.649999999999999 85.956 15.078 86.81400000000001 14.791999999999998 87.633 14.791999999999998 88.452 14.791999999999998 89.219 15.247 89.986 15.701999999999998 90.194 16.326 90.974 16.326 91.312 16.898 91.364 16.976 91.364 17.157999999999998 91.364 17.34 91.169 17.573999999999998 90.974 17.808 90.688 18.146 zM88.79 15.572 Q88.244 15.572 87.49 15.91 86.164 16.482 84.968 17.886 83.07000000000001 20.122 83.07000000000001 21.162 83.07000000000001 21.708 83.512 21.708 83.876 21.708 84.721 21.24 85.566 20.772 86.944 19.394 87.022 19.316 87.542 18.822 88.062 18.328 88.426 17.964 89.648 16.689999999999998 89.648 16.131 89.648 15.572 88.79 15.572 z" /></g></svg>