<svg width="170" height="30" xmlns="http://www.w3.org/2000/svg" viewBox="0 0 170 30"><g fill="currentColor"><path d="M16.19921875 14.52392578125 Q16.19921875 16.87255859375 15.58984375 18.6435546875 14.98046875 20.41455078125 13.8251953125 21.6015625 12.669921875 22.78857421875 10.98779296875 23.38525390625 9.3056640625 23.98193359375 7.1728515625 23.98193359375 L2.5263671875 23.98193359375 2.5263671875 5.42138671875 7.693359375 5.42138671875 Q9.6357421875 5.42138671875 11.2099609375 6.00537109375 12.7841796875 6.58935546875 13.888671875 7.73828125 14.9931640625 8.88720703125 15.59619140625 10.58837890625 16.19921875 12.28955078125 16.19921875 14.52392578125 zM13.6982421875 14.60009765625 Q13.6982421875 12.74658203125 13.279296875 11.39453125 12.8603515625 10.04248046875 12.060546875 9.16650390625 11.2607421875 8.29052734375 10.0927734375 7.865234375 8.9248046875 7.43994140625 7.439453125 7.43994140625 L4.8876953125 7.43994140625 4.8876953125 21.95068359375 6.9443359375 21.95068359375 Q10.2958984375 21.95068359375 11.9970703125 20.09716796875 13.6982421875 18.24365234375 13.6982421875 14.60009765625 z" /><path d="M26.025390625 9.78857421875 Q26.3935546875 9.78857421875 26.8505859375 9.8203125 27.3076171875 9.85205078125 27.6376953125 9.91552734375 L27.3330078125 12.04833984375 Q26.9775390625 11.98486328125 26.60302734375 11.9404296875 26.228515625 11.89599609375 25.8984375 11.89599609375 25.0986328125 11.89599609375 24.4384765625 12.2197265625 23.7783203125 12.54345703125 23.30224609375 13.146484375 22.826171875 13.74951171875 22.56591796875 14.59375 22.3056640625 15.43798828125 22.3056640625 16.46630859375 L22.3056640625 23.98193359375 19.9951171875 23.98193359375 19.9951171875 10.04248046875 21.8740234375 10.04248046875 22.1533203125 12.59423828125 22.2548828125 12.59423828125 Q22.572265625 12.04833984375 22.93408203125 11.54052734375 23.2958984375 11.03271484375 23.74658203125 10.6455078125 24.197265625 10.25830078125 24.755859375 10.0234375 25.314453125 9.78857421875 26.025390625 9.78857421875 z" /><path d="M41.7294921875 16.98681640625 Q41.7294921875 18.72607421875 41.30419921875 20.078125 40.87890625 21.43017578125 40.08544921875 22.3505859375 39.2919921875 23.27099609375 38.162109375 23.75341796875 37.0322265625 24.23583984375 35.623046875 24.23583984375 34.3154296875 24.23583984375 33.2109375 23.75341796875 32.1064453125 23.27099609375 31.30029296875 22.3505859375 30.494140625 21.43017578125 30.04345703125 20.078125 29.5927734375 18.72607421875 29.5927734375 16.98681640625 29.5927734375 15.26025390625 30.01806640625 13.9208984375 30.443359375 12.58154296875 31.23046875 11.6611328125 32.017578125 10.74072265625 33.15380859375 10.2646484375 34.2900390625 9.78857421875 35.69921875 9.78857421875 37.0068359375 9.78857421875 38.111328125 10.2646484375 39.2158203125 10.74072265625 40.02197265625 11.6611328125 40.828125 12.58154296875 41.27880859375 13.9208984375 41.7294921875 15.26025390625 41.7294921875 16.98681640625 zM31.9794921875 16.98681640625 Q31.9794921875 19.64013671875 32.84912109375 20.9794921875 33.71875 22.31884765625 35.673828125 22.31884765625 37.62890625 22.31884765625 38.48583984375 20.9794921875 39.3427734375 19.64013671875 39.3427734375 16.98681640625 39.3427734375 14.33349609375 38.47314453125 13.01953125 37.603515625 11.70556640625 35.6484375 11.70556640625 33.693359375 11.70556640625 32.83642578125 13.01953125 31.9794921875 14.33349609375 31.9794921875 16.98681640625 z" /><path d="M47.68359375 23.98193359375 L45.373046875 23.98193359375 45.373046875 10.04248046875 47.68359375 10.04248046875 47.68359375 23.98193359375 zM45.1953125 6.27197265625 Q45.1953125 5.51025390625 45.58251953125 5.16748046875 45.9697265625 4.82470703125 46.541015625 4.82470703125 46.8203125 4.82470703125 47.06787109375 4.9072265625 47.3154296875 4.98974609375 47.49951171875 5.16748046875 47.68359375 5.34521484375 47.79150390625 5.6181640625 47.8994140625 5.89111328125 47.8994140625 6.27197265625 47.8994140625 7.00830078125 47.49951171875 7.3701171875 47.099609375 7.73193359375 46.541015625 7.73193359375 45.9697265625 7.73193359375 45.58251953125 7.37646484375 45.1953125 7.02099609375 45.1953125 6.27197265625 z" /><path d="M60.708984375 22.11572265625 L60.607421875 22.11572265625 Q60.328125 22.54736328125 59.95361328125 22.9345703125 59.5791015625 23.32177734375 59.09033203125 23.61376953125 58.6015625 23.90576171875 57.9921875 24.07080078125 57.3828125 24.23583984375 56.62109375 24.23583984375 55.4404296875 24.23583984375 54.462890625 23.77880859375 53.4853515625 23.32177734375 52.787109375 22.4140625 52.0888671875 21.50634765625 51.7080078125 20.16064453125 51.3271484375 18.81494140625 51.3271484375 17.03759765625 51.3271484375 15.24755859375 51.7080078125 13.8955078125 52.0888671875 12.54345703125 52.787109375 11.62939453125 53.4853515625 10.71533203125 54.462890625 10.251953125 55.4404296875 9.78857421875 56.62109375 9.78857421875 57.3701171875 9.78857421875 57.9794921875 9.95361328125 58.5888671875 10.11865234375 59.07763671875 10.39794921875 59.56640625 10.67724609375 59.947265625 11.04541015625 60.328125 11.41357421875 60.607421875 11.81982421875 L60.759765625 11.81982421875 Q60.7216796875 11.38818359375 60.68359375 10.99462890625 60.658203125 10.66455078125 60.6328125 10.3154296875 60.607421875 9.96630859375 60.607421875 9.76318359375 L60.607421875 4.22802734375 62.91796875 4.22802734375 62.91796875 23.98193359375 61.0517578125 23.98193359375 60.708984375 22.11572265625 zM57.0654296875 22.31884765625 Q58.0302734375 22.31884765625 58.69677734375 22.02685546875 59.36328125 21.73486328125 59.77587890625 21.13818359375 60.1884765625 20.54150390625 60.38525390625 19.646484375 60.58203125 18.75146484375 60.607421875 17.55810546875 L60.607421875 17.03759765625 Q60.607421875 15.75537109375 60.43603515625 14.7587890625 60.2646484375 13.76220703125 59.85205078125 13.0830078125 59.439453125 12.40380859375 58.75390625 12.0546875 58.068359375 11.70556640625 57.0400390625 11.70556640625 55.326171875 11.70556640625 54.52001953125 13.08935546875 53.7138671875 14.47314453125 53.7138671875 17.06298828125 53.7138671875 19.71630859375 54.52001953125 21.017578125 55.326171875 22.31884765625 57.0654296875 22.31884765625 z" /><path d="M84.1826171875 19.01806640625 Q84.1826171875 20.24951171875 83.74462890625 21.220703125 83.306640625 22.19189453125 82.494140625 22.86474609375 81.681640625 23.53759765625 80.513671875 23.88671875 79.345703125 24.23583984375 77.8857421875 24.23583984375 76.4765625 24.23583984375 75.25146484375 24.013671875 74.0263671875 23.79150390625 73.201171875 23.35986328125 L73.201171875 21.10009765625 Q73.6328125 21.30322265625 74.18505859375 21.5 74.7373046875 21.69677734375 75.3466796875 21.84912109375 75.9560546875 22.00146484375 76.603515625 22.0966796875 77.2509765625 22.19189453125 77.8857421875 22.19189453125 79.9169921875 22.19189453125 80.88818359375 21.43017578125 81.859375 20.66845703125 81.859375 19.24658203125 81.859375 18.56103515625 81.67529296875 18.05322265625 81.4912109375 17.54541015625 81.02783203125 17.1201171875 80.564453125 16.69482421875 79.7900390625 16.294921875 79.015625 15.89501953125 77.8349609375 15.42529296875 76.705078125 14.98095703125 75.87353515625 14.4541015625 75.0419921875 13.92724609375 74.50244140625 13.26708984375 73.962890625 12.60693359375 73.70263671875 11.76904296875 73.4423828125 10.93115234375 73.4423828125 9.86474609375 73.4423828125 8.74755859375 73.8486328125 7.87158203125 74.2548828125 6.99560546875 74.9912109375 6.392578125 75.7275390625 5.78955078125 76.74951171875 5.47216796875 77.771484375 5.15478515625 79.0029296875 5.15478515625 80.513671875 5.15478515625 81.7197265625 5.4404296875 82.92578125 5.72607421875 83.865234375 6.17041015625 L83.0146484375 8.15087890625 Q82.189453125 7.78271484375 81.14208984375 7.509765625 80.0947265625 7.23681640625 78.9775390625 7.23681640625 77.4287109375 7.23681640625 76.578125 7.9541015625 75.7275390625 8.67138671875 75.7275390625 9.89013671875 75.7275390625 10.61376953125 75.91796875 11.140625 76.1083984375 11.66748046875 76.552734375 12.0927734375 76.9970703125 12.51806640625 77.72705078125 12.892578125 78.45703125 13.26708984375 79.5234375 13.68603515625 80.6787109375 14.14306640625 81.54833984375 14.62548828125 82.41796875 15.10791015625 83.001953125 15.71728515625 83.5859375 16.32666015625 83.88427734375 17.12646484375 84.1826171875 17.92626953125 84.1826171875 19.01806640625 z" /><path d="M95.443359375 23.98193359375 L94.9736328125 22.05224609375 94.8720703125 22.05224609375 Q94.453125 22.62353515625 94.0341796875 23.0361328125 93.615234375 23.44873046875 93.1201171875 23.71533203125 92.625 23.98193359375 92.015625 24.10888671875 91.40625 24.23583984375 90.6064453125 24.23583984375 89.73046875 24.23583984375 88.994140625 23.98828125 88.2578125 23.74072265625 87.71826171875 23.2265625 87.1787109375 22.71240234375 86.8740234375 21.931640625 86.5693359375 21.15087890625 86.5693359375 20.08447265625 86.5693359375 18.00244140625 88.03564453125 16.88525390625 89.501953125 15.76806640625 92.498046875 15.66650390625 L94.833984375 15.57763671875 94.833984375 14.70166015625 Q94.833984375 13.85107421875 94.64990234375 13.27978515625 94.4658203125 12.70849609375 94.11669921875 12.359375 93.767578125 12.01025390625 93.25341796875 11.85791015625 92.7392578125 11.70556640625 92.0791015625 11.70556640625 91.025390625 11.70556640625 90.11767578125 12.01025390625 89.2099609375 12.31494140625 88.3720703125 12.74658203125 L87.5595703125 11.00732421875 Q88.4990234375 10.49951171875 89.654296875 10.14404296875 90.8095703125 9.78857421875 92.0791015625 9.78857421875 93.3740234375 9.78857421875 94.31982421875 10.048828125 95.265625 10.30908203125 95.88134765625 10.8740234375 96.4970703125 11.43896484375 96.8017578125 12.31494140625 97.1064453125 13.19091796875 97.1064453125 14.43505859375 L97.1064453125 23.98193359375 95.443359375 23.98193359375 zM91.203125 22.36962890625 Q91.9775390625 22.36962890625 92.6376953125 22.12841796875 93.2978515625 21.88720703125 93.7802734375 21.3984375 94.2626953125 20.90966796875 94.53564453125 20.1669921875 94.80859375 19.42431640625 94.80859375 18.42138671875 L94.80859375 17.16455078125 92.9931640625 17.25341796875 Q91.8505859375 17.30419921875 91.076171875 17.50732421875 90.3017578125 17.71044921875 89.83837890625 18.072265625 89.375 18.43408203125 89.171875 18.9482421875 88.96875 19.46240234375 88.96875 20.10986328125 88.96875 21.27783203125 89.58447265625 21.82373046875 90.2001953125 22.36962890625 91.203125 22.36962890625 z" /><path d="M110.09375 23.98193359375 L110.09375 15.00634765625 Q110.09375 13.35595703125 109.42724609375 12.53076171875 108.7607421875 11.70556640625 107.3388671875 11.70556640625 106.310546875 11.70556640625 105.6123046875 12.03564453125 104.9140625 12.36572265625 104.48876953125 13.01318359375 104.0634765625 13.66064453125 103.87939453125 14.60009765625 103.6953125 15.53955078125 103.6953125 16.75830078125 L103.6953125 23.98193359375 101.384765625 23.98193359375 101.384765625 10.04248046875 103.263671875 10.04248046875 103.59375 11.92138671875 103.720703125 11.92138671875 Q104.0380859375 11.37548828125 104.47607421875 10.9755859375 104.9140625 10.57568359375 105.4345703125 10.30908203125 105.955078125 10.04248046875 106.5390625 9.91552734375 107.123046875 9.78857421875 107.732421875 9.78857421875 110.0556640625 9.78857421875 111.22998046875 11.0009765625 112.404296875 12.21337890625 112.404296875 14.87939453125 L112.404296875 23.98193359375 110.09375 23.98193359375 z" /><path d="M125.0361328125 20.16064453125 Q125.0361328125 21.17626953125 124.66796875 21.93798828125 124.2998046875 22.69970703125 123.60791015625 23.2138671875 122.916015625 23.72802734375 121.9384765625 23.98193359375 120.9609375 24.23583984375 119.7421875 24.23583984375 118.3583984375 24.23583984375 117.3681640625 24.013671875 116.3779296875 23.79150390625 115.62890625 23.35986328125 L115.62890625 21.25244140625 Q116.0224609375 21.45556640625 116.5048828125 21.65234375 116.9873046875 21.84912109375 117.5205078125 22.00146484375 118.0537109375 22.15380859375 118.61865234375 22.2490234375 119.18359375 22.34423828125 119.7421875 22.34423828125 120.5673828125 22.34423828125 121.14501953125 22.20458984375 121.72265625 22.06494140625 122.08447265625 21.8046875 122.4462890625 21.54443359375 122.611328125 21.169921875 122.7763671875 20.79541015625 122.7763671875 20.33837890625 122.7763671875 19.94482421875 122.6494140625 19.62744140625 122.5224609375 19.31005859375 122.18603515625 18.9990234375 121.849609375 18.68798828125 121.265625 18.37060546875 120.681640625 18.05322265625 119.767578125 17.65966796875 118.853515625 17.26611328125 118.12353515625 16.88525390625 117.3935546875 16.50439453125 116.8857421875 16.03466796875 116.3779296875 15.56494140625 116.10498046875 14.94921875 115.83203125 14.33349609375 115.83203125 13.48291015625 115.83203125 12.59423828125 116.18115234375 11.90234375 116.5302734375 11.21044921875 117.1650390625 10.74072265625 117.7998046875 10.27099609375 118.6884765625 10.02978515625 119.5771484375 9.78857421875 120.6689453125 9.78857421875 121.900390625 9.78857421875 122.92236328125 10.05517578125 123.9443359375 10.32177734375 124.8583984375 10.75341796875 L124.05859375 12.61962890625 Q123.2333984375 12.25146484375 122.36376953125 11.978515625 121.494140625 11.70556640625 120.5927734375 11.70556640625 119.2978515625 11.70556640625 118.67578125 12.130859375 118.0537109375 12.55615234375 118.0537109375 13.34326171875 118.0537109375 13.78759765625 118.19970703125 14.11767578125 118.345703125 14.44775390625 118.701171875 14.73974609375 119.056640625 15.03173828125 119.6533203125 15.330078125 120.25 15.62841796875 121.138671875 15.99658203125 122.052734375 16.37744140625 122.77001953125 16.75830078125 123.4873046875 17.13916015625 123.9951171875 17.615234375 124.5029296875 18.09130859375 124.76953125 18.70068359375 125.0361328125 19.31005859375 125.0361328125 20.16064453125 z" /></g></svg>