<svg xmlns="http://www.w3.org/2000/svg" width="562.147" height="531.118"><title>online</title><g><path fill="#784421" stroke="#2b0000" stroke-width="2" stroke-linecap="round" stroke-linejoin="round" d="M1 116.306h560v234h-560z"/><path d="M198.719.069c-15.715.538-31.206 8.09-39.735 21.503-12.08 16.572-13.93 39.92-3.828 57.903.138 4.489.293 10.868 5.531 12.438 3.034-9.352 2.87-.386 3.5 4.156 5.034 1.835 4.877-5.516 7.281-1.719 1.732 6.582.312 14.514 1.438 21.594.649 7.334 2.025 16.739 10.156 19.313 9.067 3.691 20.087 4.556 29.094 4.125-2.224 4.607-8.476-1.015-12.156 1.875-7.099 3.225-16.83 5.941-19.25 14.219-1.089 6.482 3.35 12.426 5.219 17.813-3.356 7.347-6.602 15.905-14.864 18.722-5.304 3.785-13.683 6.807-14.917 13.997-.872 1.764-5.401.428-7.219 2.5-1.903 1.725-3.456 4.17-3.313 6.844-4.466-.878-8.007 3.574-6.594 7.781-3.392 1.237-3.201 5.448-7.375 5.5-12.366 5.193-24.459 12.057-36.906 16.375-6.038-4.094-13.356-1.839-19.5.969-5.092-2.701-10.511-3.28-16.156-2.688-2.589-.702-8.096 1.06-8.906-1.438-.674-2.347-5.256 3.11-7.719 3.813-3.823 1.931-8.434 4.945-12.688 2.75-2.338 1.953-1.845 5.227-.469 7.563-3.909.751-6.404 4.635-6.375 8.5-3.839 1.882-5.142 7.633-12.591 7.627-4.703 1.901 2.581 9.65 2.722 13.909 1.068 4.679 8.648.174 9.994 4.901 3.912 4.154 10.935 1.991 14.094 7.031 6.185 5.378 15.667.52 21.781 5.969 5.575 3.138 12.292-1.568 15.688-5.938 2.203-8.432 12.751-9.89 16.406-17.5 3.523-2.775 9.307-5.314 13.656-2.375 20.644 8.18 34.169 28.765 37.531 50.031-27.809 5.679-48.437 28.643-60.251 53.274-4.847 10.18-9.762 24.212-1.499 33.945 8.84 9.077 23.476 5.001 33.344-.063 25.653-13.131 40.976-41.337 40.875-69.813.865-2.861-2.241-9.15 2.594-7.875 7.187.251 14.41 1.765 21.031 4.688-12.419 30.35-15.335 65.762-4.063 96.875 4.372 11.512 13.845 24.776 27.781 23.625 14.799-2.007 22.121-17.401 25.688-30.25 5.864-20.671 5.805-44.136-4.875-63.344-6.664-13.243-17.899-24.185-29.781-32 8.572-16.165 20.329-30.835 35.563-41.156-8.808 24.913-4.988 52.461-.815 78.045 3.694 22.694 10.432 47.451 28.908 62.361 8.747 7.549 23.247 9.048 31.688.188 12.856-13.025 14.931-32.533 16.406-49.906.56-5.033.053-10.766.781-15.375 4.279-1.951 5.13-.214 4.469 3.813-.36 4.992-4.863 9.339-1.577 14.431 1.918 4.657 2.302 13.954 5.108 15.913 5.659-1.732 4.362 9.088 6.792 13.019 7.401-2.66 15.311-4.488 23.146-6.207-.436-4.251-4.685-9.887-3.094-13.375 5.181-3.273-.197-9.321-1.594-13.219-1.292-5.537-3.506-10.584-6.993-14.564.054-2.204-2.571-5.546-1.632-7.061 8.05 1.481 17.534 1.454 24.719 3.844 1.486 4.195 5.91 6.702 10.25 6.75.154 4.278-.374 8.379-3.188 11.656-2.304 3.475 1.118 8.987-3.469 10.781-7.736 6.787-10.23 17.61-11.063 27.5-2.986 2.529-3.896 7.968-4.813 12.031 2.434 8.404 11.588 12.435 18.969 15.719 3.084 1.519 6.419 1.467 9.063-.594 5.184-1.497 6.816 5.689 7.469 9.406.424 7.508 9.867 9.145 15.719 10.438 16.504 2.364 34.282 2.833 50.156-2.813 4.535-1.375 6.468-6.022 6-10.531 3.508-5.338-4.932-6.177-3.594-10.594 1.739-5.649-2.795-10.117-7.656-12.063-7.041-4.698-15.655-8.235-20.875-14.813.002-3.003 1.6-5.553-.25-8.563.161-2.826-2.769-3.005-3.375-4.406.815-3.333-2.856-5.241-1.938-7.906-.489-2.825.464-8.172-3.344-8-.345-2.823 2.912-4.449 2.375-7.656 1.669-3.705-5.038-7.018 1.813-6.688 4.545-1.639 1.667-11.737 3.196-16.805 1.548-3.145 7.724-.6 11.054-2.507 2.212-2.067 7.13-4.748 7.094.406 2.264 2.177 5.425 2.425 2.375 5.469-2.064 4.019 3.907 4.261 4.594 7.563 1.678 4.096 4.277 9.183 4.063 13.281-1.701 2.837-5.087 8.725.188 9.938 4.382 2.692 4.417 9.323 5.906 13.844.945 3.727.247 9.251 5.5 7.656 2.587.469 7.443-2.588 6.875 1.938 1.799 9.069 5.255 17.932 11.563 24.781 1.761 3.115 5.811 7.622 1.25 10.344-3.442 2.764-1.213 7.193-3.781 10.25-3.319 5.458-6.749 11.545-8.813 17.25-5.519 2.2-8.026 9.306-10.031 14.625.333 9.196 10.654 12.697 17.875 15.5 4.522 1.676 9.118 2.866 13.688 4.25 2.28-2.153 3.762-8.78 7.438-5.563 5.737 2.732 9.842 7.545 13.688 12.344 12.314 6.24 26.832 6.991 40.406 8.625 4.687.388 11.717 1.443 13.375-4.406 1.097-3.62 2.151-9.019.07-11.684-2.359-1.009 1.344-5.019 1.023-7.566 1.427-4.94-1.873-9.688-6.904-10.417-8.865-3.891-19.92-6.277-25.409-14.865-.84-2.222-1.278-4.648-1.594-6.938 4.4 3.179 3.729-12.541-1.031-10.438 2.087-3.084 4.208-4.351 1.125-11.094-1.446-7.251-4.308-15.337-6.375-22.938-1.732 2.131 3.817-5.877-.536-10.511-1.089-6.361-4.465-13.851-4.151-19.521 4.19-2.255 12.272-4.756 9.375-10.938-2.535-6.944-6.878-12.952-9.688-19.75-1.789-3.357-6.76-7.09-10.031-3.375-8.066-19.018-16.217-38.531-19.438-58.938-6.303-7.797-17.078-10.032-25.941-13.902-13.207-4.97-27.626-8.48-40.591-12.942-.529-10.943.399-22.718-4.281-32.813-4.593-7.526-11.615-13.726-19.875-16.906 6.644-1.205 10.527-7.024 13.281-12.594 6.004-1.327 15.965-1.248 16.625-9.313-7.876-31.224-15.939-62.523-24.281-93.656-2.505-.622-5.421-2.426-8.447-1.014-3.904-.187-8.266 1.815-11.553 1.67-6.637 1.024-13.538 1.149-20.031 2.688-2.264-3.52-4.154-7.307-7.438-3.156-5.026 3.244-8.465-7.655-12.426-2.027-7.589 6.107-18.282 5.143-27.543 5.746-13.611-.226-27.1-2.878-40.344-5.531-2.317-.967-6.631.033-5-3.5-1.289-3.822 4.548-1.707 6.813-3.344 6.298-1.735 12.252-4.389 18.344-6.781-2.452-.98-8.552-3.576-8.594-4.688 4.408.588 10.003-.233 12.313 1.375 3.278 2.226 5.838 5.458 10.031 5.938-3.289-8.572-11.812-13.943-19.563-18.313-4.569-1.28 1.041-2.25 3.031-2.063 7.366.236 14.712 1.488 22.094.5-8.523-4.572-16.865-9.561-26.188-12.25 3.793-.434 13.604-.028 12.65-.996-9.991-7.219-22.121-9.861-33.463-14.191 4.373-4.501 10.085-7.395 16.406-5.969 3.788.596 7.379 1.975 11.219 2.375-6.388-7.358-15.071-14.046-24.844-15.75-4.93.11-8.9 3.556-13.563 4.719-2.507-13.547-12.199-24.578-23.906-31.344-9.771-6.532-21.612-9.915-33.375-9.313zm280.406 450.531l-.063.094.063-.094zm-221.969-342.469c2.582.946 8.04 3.278 8.313 4.281-2.449-.188-5.964-.122-7.688-.156 1.619-.949-2.626-3.776-.625-4.125zm-78.031 2.031c5.89 8.637 15.947 12.932 24.688 17.969 1.485 2.07 5.152 2.752 6.125 4.438-.08 1.979 1.044 3.748-1.688 2.531-9.017-2.685-22.134-1.44-26.813-11.313-1.851-4.277-2.308-9.132-2.313-13.625zm38.688 29.406c-5.148-.792 1.603-3.748 0 0zm118.938 55.219c-3.963-2.415-7.055-10.411-3.156-10.759l3.156 10.759zm1.531 5.25c.731 3.16 4.914 15.517 3.688 13.563-1.608-2.813-3.729-6.665-4.781-8.719.753-3.049.042-6.207-.188-9.219l1.281 4.375zm-104.406 32.188c3.951 5.201 12.545 3.382 17.188-.156 1.419-2.916 6.348-.157 3.375 1.938-3.643 4.638-4.931 12.623 1 16.094 1.708 1.574 6.436 1.962 2.594 3.906-2.492 1.913-3.124 6.219-6.938 4.969-6.429-.16-11.919 7.024-8.969 13.188 1.148 4.228-2.353 7.782-6.438 7.969-23.79 9.287-41.295 29.977-52.813 52.188-9.202-4.171-19.462-5.876-29.563-5.531-3.843-23.699-18.134-46.135-40.094-56.719 11.034-2.417 22.581-5.359 33.719-5.969 2.917 1.724 6.686-.968 8.875 1.875 2.935 1.762 7.659 2.098 9.5-1.094 4.265-1.625 8.306-5.932 12.438-6.375 8.093 4.201 18.332 2.02 24.249-4.883 5.068-4.533 8.638-11.404 5.907-18.21-1.789-2.859 3.633-1.959 4.781-4.281 4.199-3.966 5.473-9.881 7.25-15.156l13.938 16.25zm110.844-10.25c-2.47.147.382-3.017 0 0zm16.906 3.469c-1.14 3.2 1.711 5.444 4.438 5.438 2.328 4.149 8.124 2.15 11.844 2-7.577 1.809-15.178 5.435-21.969 8.469-.465-5.429-3.039-10.687-5.281-15.094 3.605.086 7.579-.78 10.969-.813zm-116.594 71.688c1.883 1.411 1.663 3.328.438 5.813-7.685 19.754-2.345 44.148 14.5 57.375 9.653 7.656 21.453 14.391 34.313 12.688-.585 18.153-.86 38.047-11.281 53.563-4.207 6.553-13.395 6.446-18.844 1.625-17.25-13.685-22.061-36.572-25.656-57.094-3.635-23.527-7.396-48.721.625-71.688 1.256-2.93 2.763-5.853 4.906-8.281l1 6zm-101.5 41.969c1.66 23.072-7.239 47.139-26.383 60.801-7.842 5.391-17.822 12.126-27.554 8.824-4.834-3.815-1.556-11.905 0-16.969 9.668-23.91 28.25-46.288 53.938-52.938v.281zm44.875 8.375c23.447 14.433 36.92 43.791 31.125 70.969-2.381 11.797-4.84 25.788-15.688 32.75-8.383 3.241-14.794-6.308-17.844-12.719-10.333-23.995-9.384-52.128-2.594-77 1.466-4.689 2.977-9.749 5-14zm335.125 93.688c-.318.497-.582-.488 0 0zm3.906 10.469c-1.79.55-1.736-.415 0 0z" fill="#2b0000" fill-rule="evenodd"/></g><g><path d="M465.38 414.261c.87 6.527 4.351 18.711 8.268 23.063 3.916 4.351 8.268 11.749 7.397 13.925-.87 2.176-5.657 5.657-4.351 8.703.979 2.283-9.669 15.173-10.495 23.306l-2.124-.244c-4.351 3.046-7.833 12.619-7.833 12.619-.466 9.036 16.502 13.892 28.719 17.406 1.741-2.611 5.222-6.962 5.222-6.962s11.749 4.787 16.971 13.489c3.328 5.547 44.82 10.879 49.171 9.138 4.351-1.741 3.481-12.184 3.481-12.184l-3.046-.87s6.752-12.836.87-15.665c-4.854-2.335-25.238-8.268-29.59-16.535-3.013-5.724-3.481-24.368-3.481-27.849 0-3.481-3.046-13.489-4.351-16.971-1.305-3.481-3.046-9.138-3.046-9.138l3.916-1.305-8.268-33.071-49.171 7.833 1.741 11.314z" fill="#784421" fill-rule="evenodd"/><path d="M512.813 395.1l-28.906 4.625-19.688 7.094 1.156 7.438c.144 1.082.378 2.356.656 3.688 7.047-2.578 34.149-8.012 42.875-12.375 3.046 6.527 6.094 20.438 6.094 20.438s-18.288 10.455-19.594 7.844c-1.305-2.611-5.656-4.344-5.656-4.344s.447 2.584 2.188 6.5 16.519-2.608 20-5.219c5.657 11.314 11.75 43.094 11.75 43.094s-3.956 3.127-6.531 2.156c-7.727-2.912-21.782 2.5-23.938 15.688-1.283 7.848-21.182-3.339-25.563-6.563-.006 4.18 20.158 14.199 24.281 15.688 4.336 1.565 34.705 23.024 53.938 19.156 6.395-1.286 6.12 2.764 5.438 9 2.145.064 3.795-.008 4.656-.219 1.04-1.254 2.173-2.73 3.313-4.438.894-3.542.531-7.844.531-7.844l-3.063-.844s6.757-12.858.875-15.688c-.959-.461-2.634-1.08-4.563-1.813 1.813 3.146 3.303 9.099-3.688 17.063-6.688 7.618-44.533-7.058-54.406-16.531-2.096-14.805 15.776-25.559 22.625-18.719 1.406 1.405 5.249.746 9.125-.438-1.836-7.721-2.156-21.046-2.156-23.938 0-3.481-3.038-13.488-4.344-16.969-1.305-3.481-3.063-9.125-3.063-9.125l3.938-1.313-8.281-33.094z" fill="#2b1100" fill-rule="evenodd"/><path d="M259.613 263.802l2.29 17.745 86.427-28.226-1.717-13.165-87 23.647z" fill="#ffe6d5" fill-rule="evenodd"/><path d="M239.814 56.183c2.686.537 6.715 4.566 7.253 6.447.537 1.88 1.612 12.625-1.074 13.699-2.686 1.074-2.686 4.029-2.686 4.029l-5.372 20.683 13.431 16.923c1.522-1.414 3.044-2.298 4.566-6.447-1.612-1.668-1.074-5.16-2.686-5.91 3.351-.474 8.492 2.037 13.968 5.104.329-1.498-.005-3.261-3.223-6.178 3.205 3.689 13.543.246 25.25-4.566-4.71-2.015-5.583-5.426-17.46-4.835 3.654-1.967 11.124-2.239 21.221-1.343-1.588-2.868-4.03-5.63-11.282-7.79l3.223-4.029c4.138-3.384 14.41-.633 21.758-.806-7.031-3.294-10.098-6.259-24.981-10.207 1.46-2.762 6.648-2.451 12.625-2.686-11.767-7.304-33.865-10.114-38.832-17.88l-4.176-6.618-16.087-3.706 4.566 16.117z" fill="#2b1100" fill-rule="evenodd"/><path d="M174.003 90.566c.806 4.029-1.14 32.41 4.835 39.486 5.165 6.117 23.367 7.671 31.159 7.521-11.743-3.097-22.173-2.675-27.936-9.133-9.069-10.164-2.955-37.337-2.955-37.337l-5.104-.537z" fill="#784421" fill-rule="evenodd"/><path d="M163.259 71.225c1.612 3.761 4.729 13.332 6.447 17.46 2.042 4.907 9.402 8.596 9.402 8.596s-1.29 7.657 1.88 12.088c5.288 7.392 16.117 13.162 21.221 15.311 3.022 1.272 4.298 4.029 8.327 5.372 2.803.934 12.088-1.343 12.088-1.343l1.371 11.382 40.533 5.809 7.79-11.013-11.819-17.46-5.372 3.223-12.356-16.117s1.736-8.589 1.88-12.356c.112-2.905-.806-12.894-.806-12.894s2.197.178 3.761-2.149c1.563-2.327 2.686-9.67 1.88-14.237-.806-4.566-6.447-6.178-8.327-5.641-1.88.537-5.104 7.253-5.104 7.253l-16.117-22.832s-42.441 4.835-42.441 5.91c0 1.074-14.237 23.369-14.237 23.638z" fill="#ffe6d5" fill-rule="evenodd"/><path d="M177.543 95.018c1.144-2.535 7.501-4.273 10.658-2.253 2.256 1.444 4.167 8.839 4.167 8.839l-1.263.631-1.898-2.393c-4.29.885-5.115 4.422-7.868 2.535-.667-.809-1.203-1.749-1.176-2.391-2.202-1.082-3.332-3.391-2.62-4.968zm8.766 3.331c0 .767-.622 1.389-1.389 1.389s-1.389-.622-1.389-1.389.622-1.389 1.389-1.389 1.389.622 1.389 1.389z" fill="#2b1100" fill-rule="evenodd" stroke="#000" stroke-width=".3"/><path d="M200.236 94.135c-6.658-6.164-5.615-10.028-3.95-12.377 3.036-4.286 12.143-5.702 17.679-5.166l-3.75 2.5c2.5.179 4.821 1.429 7.321 4.107-5.012 1.107-17.505 7.433-15.66 9.81l-1.64 1.126zm3.171-11.598c1.071.418 2.368 1.998 2.7 3.341 3.272-1.462 7.143-3.036 7.143-3.036-1.786-1.964-6.45-3.698-9.843-.305zm.83 4.104c0 .732-.651 1.326-1.452 1.326-.802 0-1.452-.594-1.452-1.326 0-.732.651-1.326 1.452-1.326.802 0 1.452.594 1.452 1.326z" fill="#2b1100" fill-rule="evenodd" stroke="#000" stroke-width=".3"/><path d="M195.875 110.181c-1.773 2.551-.088 3.715.875 3.875 2.25.375 8-.25 8-.25s2 .375 1.125 1.625-2.323 2.042-1.75 4.25c1.94 3.69 7.336 1.751 10.5.375 2.875-1.25 5.5-4.029 5.5-6.75-.853-3.17-2.454-5.015-1.875-8.125l2.75.5s-1-3.75-2.25-3.875-2.364 1.801-3.125 2.25c-.471.278-17.977 3.574-19.75 6.125zm6.125 1.875c4.72-2.907 10.178-3.826 14.875-6.75l.375 6.875s-6.933 2.19-9.875 4.375c-1.187-2.2 1.168-5.114-5.375-4.5z" fill="#2b1100" fill-rule="evenodd"/><path d="M192.25 103.306c.5 4.375 4.25 4.75 6.75 2.875s5.5-3 5.5-3c-3.822-.978-6.936-2.071-12.25.125z" fill="#2b1100" fill-rule="evenodd"/><path d="M204.25 93.806c-.125 2 .5 5.75.5 5.75 5.827-6.3 12.269-7.982 18.75-9.375l-.5-3.375c-6.259-.138-11.892.595-18.75 7z" fill="#2b1100" fill-rule="evenodd"/><path d="M189.875 103.181c.75.625 1.863 1.22 2.5 3.5-3.5.375-7.5 3.25-7.5 3.25-1.071-.972-2.109-1.952-1.875-3.25 1.766-2.217 4.109-3.282 6.875-3.5z" fill="#2b1100" fill-rule="evenodd"/><path d="M188.208 78.115l.177 3.183 4.422-.884c5.199-5.995 12.236-8.925 18.747-12.734l-2.653-2.653c-7.232 4.393-18.061 9.113-20.693 13.088z" fill="#2b1100" fill-rule="evenodd"/><path d="M181.841 85.72s-10.428-.894-11.142.177c-1.769 2.653-.177 4.068-.177 4.068 2.225-.354 2.995-.707 7.782-1.061l3.537-3.183z" fill="#2b1100" fill-rule="evenodd"/><path d="M160.841 67.465c-5.833 7.416-3.646 20.793-1.074 21.758 2.487-4.983 3.022-6.044 4.835-6.984l1.343 11.55 1.88-.269c.229-11.743 7.25-16.834 9.133-39.755l-16.117 13.699z" fill="#784421" fill-rule="evenodd"/><path d="M176.689 52.959c4.957 15.166 23.731 14.65 34.383 18.803v-2.149c-2.865-2.776-4.77-5.551-11.013-8.327 5.989-3.184 14.412 2.412 25.25 3.223-1.991-2.418-3.202-4.835-8.596-7.253 3.94 1.062 7.611-.754 11.819 4.029 0 2.213 14.321 22.017 23.101 20.952 23.235-2.818 43.503 8.364 53.454 17.46-9.977-10.273-19.847-19.516-54.529-21.758-5.257-.34-11.262-8.596-11.819-9.939-1.97-5.283-1.254-7.954 3.761-10.819 0 0 7.657-1.354 15.888 2.303-8.882-12.307-20.992-19.42-20.992-19.42l-41.367-2.149-19.34 15.042z" fill="#784421" fill-rule="evenodd"/><path d="M201.625 2.006c-7.426-.037-15.247 1.499-23.219 4.969-16.668 7.255-38.305 38.097-22.188 70 18.49-34.07 74.169-44.027 95.094-29.781 1.735 4.183 7.161 6.127 11.188 8.875l10.5-8c3.698-1.002 9.891-1.573 16.25.75 0 0-14.25-11.75-20.75-10.75-3.143.483-8.511 3.547-14.031 5.844-5.239-22.043-26.53-41.774-52.844-41.906z" fill="#ffe6d5" fill-rule="evenodd"/><path d="M233.344 12.912c3.265 3.59 8.553 12.346 5.219 11.469-9.557-2.515-18.568-.943-27.063-.656-1.538-3.542 1.896-5.615 4.063-6.688-4.188-2.562-8.491-.2-10.656 1.438-1.464 3.019.546 7.368 12.156 6 16.224-1.912 28.534 6.9 36.063 19.375l-1.625 3.469.031.313c1.924 3.877 7.089 5.79 10.969 8.438l10.5-8c9.094-3.275 5.206-3.554 1.5-3.875-4.264 2.123-4.756 5.392-12.219 5.688-2.287-1.818 2.244-4.513 3.563-6.781-2.756.893-6.601 5.923-7.813 2.219l-.906-2.719-2.75.344c-1.356-8.595-6.672-22.049-21.031-30.031z" fill="#784421" fill-rule="evenodd"/><path d="M244.25 77.806c-2.5 3.5-6.827 1.362-7.75 4-2.042 5.835-1.739 12.656-.75 11.25.449-.639 4.5-5.739 4.5-6 0 0 2.714 7.759 1.5 12-3.134 10.947-9.128 15.079-20.5 31l.691 6.748c7.726-5.383 9.526-22.572 16.309-23.748 6.522-1.131 14.75 8.25 18.5 12.5 1.334 1.511 2.5 12.25 2.5 12.25l2.109.558c-.468-7.45 2.832-10.37 6.97-.546 1.072-13.043-6.573-16.555-7.83-17.012-2.75-1-5-.25-5-.25l-12-15.75c2.481-4.538 2.257-14.486.75-27z" fill="#784421" fill-rule="evenodd"/><path d="M143.5 226.056c-23.427 8.667-38.343 18.947-60.5 25.25 0 0-15.523-6.613-17-6.25-2.319.569-18.728.027-17.75-.75.608-.483-11.775 8.99-17.75 6.5-1.407 1.759 1.816 6.626 3.75 9 2.466 3.028 16.638-2.537 16.5-3.5l-3.5 6.25s-28.742 10.748-28.5 11.75c1.054 4.794 4.248 11.016 5.003 13.75.865 3.136 4.835 3.693 10.997 4.75 2.379 2.047 3.947 4.983 8.5 5.75l12 .75s5 3.5 7.25 3.75 9.443-3.603 10.5-6.25c1.114-2.789 2.5-5.5 2.5-5.5s10.75-6.75 13-10.5c1.186-1.976 4-6.5 4-6.5 17.041-6.438 38.561-10.636 62.25-13.75l11.5-9.75-22.75-24.75z" fill="#ffe6d5" fill-rule="evenodd"/><path d="M260.625 114.225c-3.908.185-8.781 1.563-8.781 1.563l3.656 4.781c8.862-1.108 12.296 7.748 11.875 15.844-.131 2.527-1.636 5.371-2.188 7.313-23.932-8.992-27.096-5.334-41.188-8l-.219-1.063c-.43.408-.867.824-1.344 1.156l.281-6.594-.094-.531s-5.501 1.366-9.313 1.563c-2.583 2.539-1.188 4.688.688 8.063 2.5 4.5-16.5 13.5-19 18.5s-10.85 30.193-17.906 34.094c-10.78 5.959-24.441 14.111-16.594 17.906 0 0-8.25-.706-10.438 1.406-3.2 3.091-2.8 6.377-1.219 7.375.543.067 1.066.136 1.656.219-.623.178-1.184.079-1.656-.219-6.086-.755-9.168-.339-7.531 6.656-.838.558-4.71 1.67-3.281 3.781 9.148.634 16.637 11.376 19.219 16.781 1.638 3.429.169 14.341-9.688 16.188.224 1.375 3.072 2.471 7.313 1.125 1.623 3.924 9.117 3.62 6.688 2 5.424-2.53 12.563-6.799 16.438-8.813-2.222 1.333 8.413 4.913 14.5 2.5 5.316-2.107 12.276-8.827 14.188-14.563.323-4.958-.763-8.726-2.688-11.438 13.349 1.534 11.919-18.445 19.5-29.5 0 0 25.249 22.982 35 29.5-3.543 4.381-5.538 8.731-5.25 11.5.546 5.253 7.031 7.074 10.75 8.5-3.042 2.832-6.083 3.342-9.125 10.406-.014 4.338.991 6.127 2.125 7.594 28.579-9.016 58.731-18.755 84.415-23.717l10.737-.479-.152-12.303c-2.244-3.385-3.079-8.531-7.406-9.313l-4.094-1.188 2.813-4.688c-3.01-2.579-3.834-4.745-6.844-10.5l-2.469-.313c2.453-3.833 1.277-7.667 1-11.5l-12-14.688 1.875-6.313-4.094-4.094-2.656-18.938-2.813-2.281 9.688-1.688 28.5 5 12.5-25.5-8.5-11.5c-5.053 4.653-8.741 1.112-12.5-2l-4.5 3.5c-7.093 3.498-25.374 5.116-40.5 2.781-9.307-.562-24.213-6.537-32.594-.219-2.808 2.782-.653-4.403-3.406-5.344-.869-.297-2.072-.374-3.375-.313z" fill="#784421" fill-rule="evenodd"/><path d="M143.5 226.069c-1.262.467-2.472.962-3.688 1.438 10.71 4.74 21.316 22.063 19.438 22.063l-53.5 14.75c-.452-7.627-2.739-12.56-7.75-18.188-4.729 1.908-8.397 3.165-13.75 4.688 0 0-2.038.15-2.469-.031 2.93 2.859 6.184 5.901 7.219 7.281 2.25 3-3.75 2.5-6.25 3.5s-8.5-4.5-10-5.25 2 5.25 1.25 7.5c-.173.518-.723.835-1.469.969-2.144-1.755-5.281-2.969-5.281-2.969s-1.829-.136-4.344-.375c-2.62-2.839-7.726-10.645-9.406-11.125-1.75-.5-12.75 5.75-17 5.75-3.546 0-3.977-2.952-5.469-5.094-.176-.051-.365-.087-.531-.156-1.008 1.26.369 4.109 1.938 6.5-1.304.26-2.188.5-2.188.5l-2.75 4.75-1.625 8.344c-4.084 1.689-7.204 3.079-7.125 3.406 1.054 4.794 4.246 11.015 5 13.75.865 3.136 4.837 3.693 11 4.75 2.379 2.047 3.947 4.983 8.5 5.75l12 .75s5 3.5 7.25 3.75 9.443-3.603 10.5-6.25c1.114-2.789 2.5-5.5 2.5-5.5s10.75-6.75 13-10.5c1.186-1.976 4-6.5 4-6.5 17.041-6.438 38.561-10.636 62.25-13.75l11.5-9.75-22.75-24.75zm-92.875 30.469l-1.469 2.625c-.837-.254-1.599-.514-2.219-.813 1.813-.71 3.26-1.402 3.688-1.813zm29.344 19.969c2.977-.041 5.657.551 5.781 2.063.143 1.744-7 6.5-7 6.5s-3.5-4.5-7-6c.068-1.421 4.391-2.51 8.219-2.563zm-15.094 4.281c1.79.11 2.125 3.281 2.125 3.281l-5.75 12s-1.302-.388-2.719-1.5c-4.73 2.136-10.121 2.184-11.531 1 2 0 7-1 7-1 4.853-3.229 5.021-10.588 10.5-13.75.133-.022.256-.039.375-.031zm-20.656 4.656c2.138.041 4.161.745 6.031 2.125l2 5.75-5.75-1s-.116-2.329-1.469-2.281c-2.656.095-4.331-2.167-4.781-3.969 1.372-.422 2.686-.65 3.969-.625zm29.25 3.094c.797.371-2.719 8.281-2.719 8.281s-.75 0-2.75-1.75c.25.5 3.75-5.75 5.25-6.5.094-.047.166-.056.219-.031z" fill="#784421" fill-rule="evenodd"/><path d="M261.594 114.194c-.31-.003-.643.016-.969.031-3.908.185-8.781 1.563-8.781 1.563l3.656 4.781c8.862-1.108 12.296 7.748 11.875 15.844-.063 1.202-.444 2.472-.875 3.688l.844.156c1.646-5.076 1.589-10.03-2.094-18.438l2.25.5c4.685 4.823 2.382 9.014 1.344 18.375 5.975-6.781 5.102-10.436 4.656-14.875 12.417 9.5 16.92 4.175 37.25 28.5 5.774 6.909 3.467 8.511 4.25 11.5-4.768-2.779-4.464-1.331-5.5-1 3.433 2.653 9.217 5.477 9.5 7.5l-1.25 5.5c-4.001-2.835-6.467-4.79-8.5-5 12.72 14.804 15.566 15.732 22.75 25 .488 12.847-5.833 14.75-11 23.75v5c5.702-9.527 8.959-14.285 12-12.5l2.5 8.75c-10.298 7.609-12.334 8.334-18.5 12.5-1.265 2.681-2.392 6.152 7.344 3.656-2.46-1.198-3.615-1.698-2.938-2.813 1.833-3.014 7.532-4.826 11.094-7.344 13.273.133 12.616 13.882 13.688 17.25l7.531-.156c1.763-7.392-4.798-21.125-9.125-21.906l-4.094-1.188 2.813-4.688c-3.01-2.579-3.834-4.745-6.844-10.5l-2.469-.313c2.453-3.833 1.277-7.667 1-11.5l-12-14.688 1.875-6.313-4.094-4.094-.406-7.625c11.748-.731 21.093-13.475 34.125-7.781l2-23.5s-22 6.5-29 8-12.5-9-12.5-9l-14.688 5.375c-6.195-5.92-11.849-11.641-29.406-15.063 0 0-4.153-5.653-6.906-6.594-.652-.223-1.478-.334-2.406-.344zm-38.969 14.5s-5.501 1.366-9.313 1.563c-.356.35-.63.692-.844 1.031 3.967.635 6.262 2.493 10 4.125l.25-6.188-.094-.531zm1.156 5.969c-.323.306-.656.599-1 .875l.031.031c.37-.06.75-.107 1.125-.156l-.156-.75zm-9.594 4.875c-.094.597-.448 1.222-.969 1.906 24.833-2.385 37.097 4.174 53.031 6.969 1.52.267 2.375-2.492-.25-2.594-17.37-4.878-34.406-5.618-51.813-6.281zm47.688 12.75c-1.606.053-.783.517-2.625.531-6.476 13.951 4.911 45.078-19.438 41.844-1.711-3.033-8.082-.569-9.813 1.156 0 0-2.123-3.642.75-8.25 2.873-4.608 8.75-7.25 8.75-7.25l-3-1.25-6.25 2.25-21.25 42c-3.132 3.912-5.188 2.441-7-.25-.099-8.645 3.976-8.246 7.75-8.5-.829-1.742 1.15-2.39-6-3.5-4.726 3.921-7.524 8.163-8.25 12.75 3.73 7.068 8.061 14.742 6.75 17.75-3.44 7.894-6.62 9.599-11.75 12.25-1.525-1.953-8.654-.063-.5-6.25-6.681-8.771-18.389-9.821-25.5-15.25-4.281-3.268-5.707-4.619-6.531-6.031-7.125-2.923-9.94-2.397-13.969-2.844l.5 1.625c12.018 4.25 16.693 11.75 33.25 18.75.268 13.368-8 11.417-12.75 13l-7.219-3.75c1.023-3.086 1.086-6.697.344-8.25-2.027-4.244-7.963-11.777-14.469-15.125 8.218 5.824 12.367 16.554 10.281 19.875-2.389 3.804-3.552 6.302-9.594 12.469.85-.128 1.706-.253 2.563-.375.922 1.079 4.258 1.646 7.969.469 1.623 3.924 9.867 3.62 7.438 2 5.424-2.53 11.813-6.799 15.688-8.813-2.222 1.333 8.413 4.913 14.5 2.5 5.316-2.107 12.276-8.827 14.188-14.563.323-4.958-.763-8.726-2.688-11.438 13.349 1.534 11.919-18.445 19.5-29.5 0 0 2.498 2.292 6.063 5.469l16.438 15.031s1.75-4 5.75-4 26.721 5.403 33.25 3.5c6.446-1.879 21.73-5.734 27.25-18-9.004-14.794-24.396-30.82-43.75-51.5-3.832-.446-5.661-.563-6.625-.531zm-109.125 61.531l-2.25 3 2.531 3.719 4.094 1.594c-.041-.107-.458.597-.594.688 8.033.855 10.15-1.956 17.969 4.75 1.38.452-7.004 1.602-6.094 1.969 2.58 1.039 3.92 1.37 7.344 2.594 3.424 1.224 6.379-1.168 6.25-2.813l-8-8.5-21.25-7zm117.75 23.75c-5.784.814-9.198 2.175-11.281 6l3 .188c3.297 5.591 21.674.27 21.031-.438h-19.156c6.966-3.729 16.865-.333 18.406-2.5 0 0-6.872-3.482-12-3.25zm6.438 11.563c-4.623 2.01-11.713 1.435-17 .125h-2.031c2.049 1.137 4.366 1.9 6.094 2.563-1.688 1.571-3.375 2.467-5.063 4.125 4.279-2.169 9.252-3.505 15.063-3.375l2.938-3.438z" fill="#2b1100" fill-rule="evenodd"/><path d="M366.21 222.297c-2.652 2.298-2.828 3.536-2.652 5.303.177 1.768 4.243.707 4.243.707.063.769-.632 1.032.707 2.652 4.474 1.292 6.837-.058 9.192-.354 3.074 1.695 8.564.17 12.905.177l9.192-3.182c6.773-4.949 5.775-7.307 8.662-10.96l-42.25 5.657z" fill="#784421" fill-rule="evenodd"/><path d="M396.875 115.912l-11.853 1.449c-1.517 1.275-1.95 1.318-3.286.655l-18.267 2.177c-1.266.459-2.238 1.473-3.219 2.375l-1.5 1.844.625 3.813-7.969 9.531-1.313-3.438-9.438 12.406.875 2-6.563 8.156-1.719-2.281-2 3.719s-.75 2-.75 4.75l17.25 59s2.25 2.25 3.5 2.25 37.5-3.75 37.5-3.75.35-.18.813-.531c3.644-.372 4.904-.52 7.438-.781v.063c1.25 0 8.5-.75 8.5-.75s1.75-.75 3-3.25-23.75-94.5-23.75-94.5l-.063-.156 7.344-.75c26.966 114.19 43.881 128.025 8.969-1.219-.794-1.968-2.106-2.959-4.125-2.781zm-21.719 6.188l-.156.188.625 3.813-5.094 6.094c-1.103-4.09-2.531-9.375-2.531-9.375l7.156-.719z" fill="#784421" fill-rule="evenodd"/><path d="M362.438 120.912c-1.977.47-3.305 2.227-4.594 3.75.779 3.223 2.307 6.393 2.438 9.688-3.25 3.646-6.501 7.291-9.75 10.938-.781-2.828-1.749-5.598-2.594-8.406-2.729 3.375-5.458 6.75-8.188 10.125.704 2.636 1.955 5.287 1.969 8-2.358 2.548-4.703 5.108-7.094 7.625-.693-2.237-1.417-4.465-2.156-6.688-1.824 1.828-3.474 4.253-2.906 6.969.531 3.213 1.985 6.192 2.656 9.375 4.791 16.456 9.629 32.913 14.469 49.344.604.694 1.391 1.182 2.25 1.469.739.592 1.653 1.219 2.313 1.219 1.25 0 37.5-3.75 37.5-3.75s1.75-.75 3-3.25l-3.156-2.156c-2.811-14.082-6.658-27.93-10.188-41.844-4.379-16.81-8.882-33.621-13.438-50.375-.549-.935-1.253-2.181-2.531-2.031z" fill="#2b1100" fill-rule="evenodd"/><path d="M400.625 117.569l-16.375 1.75 23.5 93.5-.844 1.188c.089-.423.136-.883.094-1.438l-23.5-93.25-16.25 1.75 24.25 95.25-.531.469-2.375-1.625c-2.811-14.082-6.658-27.93-10.188-41.844-4.379-16.81-8.882-33.621-13.438-50.375-.549-.935-1.253-2.181-2.531-2.031-1.977.47-3.305 2.227-4.594 3.75.111.457.24.919.375 1.375l-7.688 9.25c-2.146 3.261-1.218 5.732.406 7.563l7.938-8.156.594.594-7.594 8.5-1.344 1.5c-.781-2.828-1.749-5.598-2.594-8.406l-7.906 9.781.063-.594-5.656 7.781c-1.16 1.763-1.413 3.295-1.156 4.625-.274-.843-.533-1.69-.813-2.531-1.824 1.828-3.474 4.253-2.906 6.969.531 3.213 1.985 6.192 2.656 9.375 4.791 16.456 9.629 32.913 14.469 49.344.604.694 1.391 1.182 2.25 1.469.739.592 1.653 1.219 2.313 1.219 12.59-1.343 25.409-2.142 37.875-3.969l15.125-3.031 16.625-3.375c1.402-1.098 3.708-2.792 3.5-5.5l-23.75-90.875zm-41.938 10.031c.72 2.23 1.503 4.459 1.594 6.75l-.094.094c-1.883-3.054-1.79-4.998-1.5-6.844zm-18.781 19.969c.718 2.451 1.8 4.917 1.813 7.438l-.438.5c-2.249-3.644-1.725-5.736-1.375-7.938zm.344 7.375l.5 1-1.969 2.25-.594.625c-1.18 1.273-2.367 2.554-3.563 3.813-.301-.972-.626-1.937-.938-2.906.248.529.564 1.017.938 1.469l5.625-6.25z" fill="#2b1100" fill-rule="evenodd"/><path d="M397 129.569c-1.104 0-2 .896-2 2s.896 2 2 2 2-.896 2-2-.896-2-2-2z" fill="#784421" fill-rule="evenodd"/><path d="M395.75 133.819l-2.25 2.25 3.75 14.75 2-2.25 5.75-2.25-2.75-9.75-6.5-2.75z" fill="#784421" fill-rule="evenodd"/><path d="M402.25 150.569c-1.104 0-2 .896-2 2s.896 2 2 2 2-.896 2-2-.896-2-2-2z" fill="#784421" fill-rule="evenodd"/><path d="M404.125 160.319c-1.863 0-3.375 1.512-3.375 3.375s1.512 3.375 3.375 3.375 3.375-1.512 3.375-3.375-1.512-3.375-3.375-3.375z" fill="#784421" fill-rule="evenodd"/><path d="M408.438 170.949l.228.921 2.446-.401 2.602 10.53-2.446.401.258 1.044 4.157-.682-3.087-12.495-4.157.682z" fill="#784421"/><path d="M402.378 172.053l.228.921 2.446-.401 2.602 10.53-2.446.401.258 1.044 4.157-.682-3.087-12.495-4.157.682z" fill="#784421"/><path d="M412.335 186.449l.228.921 2.446-.401 2.602 10.53-7.196 1.401.258 1.044 8.908-1.682-3.087-12.495-4.157.682z" fill="#784421"/><path d="M80.488 250.319l-5-2.286 10.081-3.45c15.935-.001 21.011 20.198 13.996 29.966l-9.942 3.475 2.775-3.846c6.147-7.838-6.847-26.423-11.91-23.86z" fill="#2b1100" fill-rule="evenodd"/><path d="M394.125 232.131c-18.485 1.283-33.748 8.921-45.219 15.469 0 0-93.88 20.027-99.031 38.344-2.023-.039.586 9.384-2.125 16.563-8.841 23.414-3.147 53.059 31.906 67 15.868 6.311 50.344-7.437 50.344-7.438l30.938 4.031-1.938-3.625c1.133-.504 2.094-1.177 2.094-2.063 0-2.25-5.5-3.406-4.5-5.156 1-1.75 11.156-6.438 11.156-6.438 7.149-4.074 16.505-5.498 25.813-5.844 8.727.847 12.11 1.136 19.25 2.094l1.906 12.438 20.031-4.594 1.719 5.156 5.75 2.875s-5.692 4.954-2.875 5.719c6.196 1.683 10.694 18.889 10.875 19.469-2.372-.511-.682-2.029-2.813-.281-2.771 6.005-3.896 6.347-.438 7.375 3.303.981 5.932 9.863 7.844 21.25 17.128.263 66.756-14.815 70.219-21.719-1.102-7.026-7.314-14.67-7.875-17.094-.924-3.993-6.049-11.687-9.219-7.844-.364.442-1.119 1.001-2.156 1.656-2.612-5.866-18.669-42.52-20.063-60.063-.687-8.648-55.732-23.842-66.969-26.906-.702-9.8.609-16.105-2.875-31.469 0 0-6.295-13.755-21.75-18.906zm17.75 72.125l.031.594c-.806-.026-1.63-.026-2.469-.031l2.438-.563zm-58.469 13.063l-.5.313v-.188l.5-.125z" fill="#784421" fill-rule="evenodd"/><path d="M520.25 432.819l-10.188 2.281c.048 2.218 1.75 5.844 1.75 5.844 3.078-1.66 6.285-2.107 10.281-1.844l-1.844-6.281zm3.031 10.438l-10.188 2.281c.049 2.218 1.75 5.844 1.75 5.844 3.078-1.66 6.285-2.107 10.281-1.844l-1.844-6.281zm2.781 10.625l-10.25 1.844c-.042 2.218 1.5 5.938 1.5 5.938 3.143-1.534 6.362-1.863 10.344-1.438l-1.594-6.344zm-8.469 12.594c-.435 2.176.438 6.094.438 6.094 3.365-.951 6.594-.688 10.438.438l-.438-6.531h-10.438z" fill="#2b1100" fill-rule="evenodd"/><path d="M394.125 232.131c-6.442 1.228-4.316-.114-10.719 2-5.376 3.01-21.2 18.051-44.969 25.531-34.124 10.74-48.217 22.626-53.813 27.969l-9.125-6.344c23.022-13.046 47.561-23.779 68.875-32.688-11.489 2.61-42.884 10.124-66.406 19.219-.009-1.081.125-2.166.25-3.188.654-.74.544.006.906-.969-.083-.685-.752-.421-1.563-.531-1.521.541-3.04 1.275-4.25 1.75-.556 2.03-1.325 3.107-1 5.219-11.967 5.071-20.942 10.527-22.438 15.844-2.023-.039.586 9.384-2.125 16.563-8.841 23.414-3.147 53.059 31.906 67 15.868 6.311 50.344-7.437 50.344-7.438l29.563 3.844.094.031c6.291 1.433 8.471 2.303 8.594-.875l-.5-16.25s-3.43 1.58-6.5 3.25c-.442-.978-.571-.792-1.594-1.094-.676-.496-1.586-1.956-1.813-5.813-.462-7.856-.445-6.495-.906-12.031l-1 .094c.462 5.55.445 4.151.906 12 .235 3.996 1.163 5.757 2.219 6.531.792.581.757.741 1.125.656-2.139 1.171-3.187 2.131-3.594 2.844-1 1.75 4 2.906 4 5.156 0 .817-.329 1.446-1.344 1.938l-.219.156-.031-.031c-1.517.674-3.362 1.036-3.75 1.063-8.755-3.151-9.25-10.219-9.25-10.219s1.5-21.5 1-29.5c3.282-5.764 10.011-8.517 15.688-10.844.368 6.472.663 21.21 1.094 28.531.235 3.996 1.163 5.788 2.219 6.563 1.056.774 2.156.344 2.156.344l-.375-.906s-.511.246-1.188-.25c-.676-.496-1.586-1.925-1.813-5.781-.432-7.352-.482-22.397-.875-28.844 12.63-4.499 29.963-7.7 43.75-7.844 9.311-.097 16.953.962 20.344 3.531 3.286 2.49 0 4-2 10.5-1.652 5.37.375 26.111 1.156 33.75l-5.219-.906c-.537-6.036-6.647-6.708-8.313-7.344l.125 13.5 12-1s.995.029 2.25-1.813l6.75-2.094 1.719 5.156 5.75 2.875s-5.692 4.954-2.875 5.719c4.909 1.333 6.988 13.579 9.594 19.563 6.769 1.413 19.676-1.717 31.719-5.844 1.148 4.42 2.095 9.411 3.063 14.094 1.099 5.321 2.23 10.2 3.906 13.313l.875-.469c-1.557-2.892-2.717-7.728-3.813-13.031-.969-4.693-1.894-9.728-3.063-14.219 10.319-3.596 19.856-7.877 24.156-10.594-2.612-5.866-18.669-42.52-20.063-60.063-.687-8.648-55.732-23.842-66.969-26.906-.702-9.8.609-16.105-2.875-31.469 0 0-6.295-13.755-21.75-18.906zm-19.781 22.875c2.157 7.468-18.079 27.845-21.125 42.719 5.219-10.863 10.371-16.764 17.281-25.813 1.515-1.984 5.028-9.043 6.563-11.25 2.413 6.837-4.922 19.125-13.344 28.594-7.751 8.714-13.531 25.406-13.531 25.406l-1.594-6.031c1.406-3.757 2.767-7.001 4.125-9.906l-1.625-8.406c-2.255-2.469-2.194-2.688 1.094-5.875 1.626-7.157 8.159-13.113 16.594-21.375 1.907-1.868 3.433-6.232 5.563-8.063zm-21.625 43.719l.188.969c.064-.642.176-1.303.313-1.969l-.5 1zm-91.813-8.219l7.063 3.188c-6.012 7.188-32.321 20.349-8.469 58.688-7.893-9.01-21.896-19.495-7.438-55.5l8.844-6.375zm213.313 97.031l-.938.281c1.381 4.834 1.818 7.365 2.344 9.469.526 2.104 1.121 3.788 2.75 6.813l.906-.5c-1.605-2.98-2.174-4.509-2.688-6.563-.513-2.053-.985-4.634-2.375-9.5z" fill="#2b1100" fill-rule="evenodd"/><path d="M353.781 247.131c-31.079 3.608-55.533 9.702-73.313 16.063l-2.719 1.125c-.436 2.612-.029 7.703 2 11.5 15.948-5.926 30.576-10.341 45.938-13.281l28.094-15.406zm-80.813 18.969c-18.472 7.519-28.039 15.005-27.969 18.719l2 12 2.25.5-.25-2.5c.225-6.821 11.551-10.51 26.281-16.844-1.759-2.553-3.137-8.663-2.313-11.875z" fill="#784421" fill-rule="evenodd"/><path d="M398.594 342.631c-1.713.025-3.409.146-5.031.344-9.308.346-18.663 1.77-25.813 5.844 0 0-2.675 1.223-5.406 2.656 1.782 2.228 4.313 5.375 4.313 5.375l.281 2.031s-6.13 3.148-7.781 4.594c-2.305 2.017-2.313 3.75-2.313 3.75s.313 1.733 2.906 3.75c2.594 2.017 7.469 1.75 7.469 1.75.082 14.503-2.457 10.654-3.75 15.531-.865 2.882-.281 8.094-.281 8.094-12.862 6.99-13.511 26.842-13.813 29.969l-1.438.281s-3.764 9.215-3.188 10.656c3.138 7.816 20.07 15.444 22.781 14.125 2.759-2.64 6.903-2.003 8.344-.563 1.441 1.441 4.518 7.415 4.313 10.375-.956 13.785 67.165 12.545 67.438 1.438.035-1.44.875-8.063.875-8.063l-4.625-4.063s2.126-7.036-.563-9.5c-3.253-2.982-26.544-14.754-27.375-19.875-.261-1.609.281-3.188.281-3.188-2.594-14.217-12.883-6.208-7.781-42.656l4.906.313 1.281-17.813-.375.031-.5-13.375c-4.643-1.202-10.017-1.887-15.156-1.813z" fill="#784421" fill-rule="evenodd"/><path d="M398.063 380.35c-2.477.023-5.183.456-8.344 1.594.576 1.441.816 6.258 3.156 4.875 3.5-2.068 13.827-.306 15 .875 1.323 1.332 1.719-5.75 1.719-5.75-3.918-.57-7.403-1.633-11.531-1.594zm-.813 12.313c-2.68.074-5.526.519-8.688 1.656.576 1.441.816 6.289 3.156 4.906 3.5-2.068 16.983-.025 18.156 1.156 1.323 1.332-.281-6.344-.281-6.344-3.918-.57-7.878-1.498-12.344-1.375zm7.156 9.656c-5.494 0-11.633 1.975-16.438 5.844.576 1.441 1.376 6.933 3.188 4.906 3.398-3.801 13.328-6.21 20.469-4.906 1.846.337-.313-4.625-.313-4.625-2.049-.825-4.409-1.219-6.906-1.219zm7.344 8.156c-7.543-.102-13.847 3.526-19.75 8.344.576 1.441.219 6.652 2.031 4.625 3.398-3.801 17.876-12.558 22.469-6.938.982 1.202-1.438-5.75-1.438-5.75-1.131-.174-2.235-.267-3.313-.281z" fill="#2b1100" fill-rule="evenodd"/><path d="M398.594 342.631c-1.713.025-3.409.146-5.031.344-9.308.346-18.663 1.77-25.813 5.844 0 0-2.675 1.223-5.406 2.656l1.281 1.594c1.175-.458 2.758-1.033 4.625-1.656l.875 1.563 11.094.281c.315-1.947.618-3.879.75-5.781 2.896-.837 5.221-1.481 5.438-1.438.497.099.239 4.29.031 6.938h-.031v.125c-.068.472-.752 2.231-2.906 3.031-1.934.719-13.115.307-14.844-.125-1.729-.432-1.844-1.875-1.844-1.875l-1.625.906c.453.564 1.469 1.813 1.469 1.813l.219 1.688c.309-.019.625-.037.938-.094 1.192-.217 10.648-.369 14.969.656 1.425.338 1.152.821 1.438 1.5l.031.031-.312 14.813c-1.113 1.338-6.249 1.959-13.531.719 1.29 3.156 14.468 3.407 16.125.875h11.563c-4.57 25.592-1.067 38.912 4 45.531l-4.906 7.781s-10.931-2.889-13.813-2.313c-2.882.576-6.344 8.656-6.344 8.656-8.245-4.831-15.843-3.237-24.781-15v6.938c3.269 3.822 6.448 6.419 10.094 8.344 6.799 3.591 12.876 5.183 15.563 8.656 11.328 14.648 27.328 16.252 33.457 15.936 0 0 2.007-.285.566 3.174-7.493.865-8.089.769-11.835-.672l-4.125 5.906c18.963 3.058 48.595.464 51.438-6.344l.125-.375.031-.125c.037-.169.058-.326.063-.5.035-1.44.875-8.063.875-8.063l-4.563-4-.063-.063s2.126-7.036-.563-9.5c-3.253-2.982-26.544-14.754-27.375-19.875-.261-1.609.281-3.188.281-3.188-2.594-14.217-12.883-6.208-7.781-42.656l4.906.313 1.281-17.813-.375.031-.5-13.375c-4.643-1.202-10.017-1.887-15.156-1.813zm-9.906 3.719l16.594 1.5v25.719c-6.193.704-12.442.639-18.656.281l.25-13.094c3.289-.328 8.469-1.438 8.469-1.438s.977-1.885-.031-2.75c-.799-.684-5.122-2.226-7.219-2.969l.594-7.25zm-9.469 1.656c-.045 1.044-.125 2.078-.281 3.094-3.551.816-7.604.787-8.969 0l-.094-.219c3.123-1.017 6.344-1.989 9.344-2.875zm-3.781 13.469l3.906 2.063c.698 2.932.564 5.657.156 8.313-3.551.816-7.604.787-8.969 0l-.719-1.719 4.031-1.469h-8.344l.563 1.469 1.75.281 1.875 3.313 11.094.281c.634-3.915 1.272-7.835.406-11.375-1.857-.619-3.8-.913-5.75-1.156zm29.625 15.563h1.063c-3.826 29.096 1.974 28.656 7.219 37.75l-1.656 1.375c-4.623-8.364-11.456-12.482-6.625-39.125zm6.111 44.778l1.014 3.066c17.068 6.552 25.416 18.468 21.844 27-7.774 3.728-15.247 2.828-20.406 3.25-12.112.99-34.281-15.281-34.281-15.281-.565-.688-1.122-5.258 4.313-8.938 2.058-1.393 14.406 1.358 14.406 2.031l6.344-10.656 6.767-.472zm-45.392 24.66l-1.25 4.719c1.395.355 2.473.444 3 .188 1.706-1.633 3.952-2.007 5.75-1.719-2.343-1.16-5.823-2.815-7.5-3.188z" fill="#2b1100" fill-rule="evenodd"/><path d="M27.25 268.819l-16.438 5.25 4.438 12 15.25 1.75-3-12.75 14-5-14.25-1.25z" fill="#ffe6d5" fill-rule="evenodd"/><path d="M21.75 272.556l.25-6 3-.25c-1.041-13.273 15.404-9.232 16.25 0l5.25.25.75 13-3.75-1.5-1-8.75-4.5-.5c-1.983-8.663-11.492-8.047-10 .5l-6.25 3.25z" fill="#ffe6d5" fill-rule="evenodd"/><path d="M256.5 265.056c.75-3.5 9.25-4.75 10.25-1.5 1.154 7.038 1.36 11.921-.75 18.75l-12.25-1.75 2.75-15.5z" fill="#2b1100" fill-rule="evenodd"/><path d="M253.25 264.306c.75-3.5 9.25-4.75 10.25-1.5 1.154 7.038 1.36 11.921-.75 18.75l-12.25-1.75 2.75-15.5z" fill="#784421" fill-rule="evenodd"/><path d="M76.188 264.1c-1.002.011-2.009.051-3.031.094v6.969c32.178-1.459 52.404 13.362 63.313 33.688 4.11 7.659 6.774 16.152 8.156 24.844-20.567 3.637-41.156 17.481-56.813 45-8.506 14.951-11.227 25.643-9 33.531 1.114 3.944 3.711 7.049 7.063 8.719 3.351 1.67 7.283 2.055 11.406 1.594 16.492-1.846 38.062-16.899 48.375-40 5.738-12.853 8-27.928 6.75-42.906 8.8-.449 17.48 1.106 25.594 4.281 1.004.393 1.921.995 2.906 1.438-7.658 17.773-12.159 38.178-11.531 59.906.5 17.318 3.686 31.103 8.5 41.125 4.814 10.022 11.332 16.534 18.938 18.156 7.606 1.622 15.415-2.341 21.063-10.531 5.648-8.19 9.748-20.665 11.5-37.875 3.192-31.359-14.201-59.766-39.094-73.969 10.957-22.17 26.973-39.155 43.063-47.219-2.299 4.043-4.188 8.85-5.5 14.594-4.221 18.482-3.308 46.01 5.25 84.375 3.365 15.087 9.435 27.898 16.813 36.969 7.378 9.07 16.278 14.674 25.375 13.844 9.097-.831 16.945-8.36 21.813-22.094 4.867-13.734 7.253-34.097 5.844-62.906-.597-12.209-2.151-22.732-4.438-31.875 6.566 12.169 12.438 26.591 16.625 43.5l6.813-1.688c-6.734-27.196-17.473-49.098-29.438-64.375-11.964-15.277-25.174-24.227-37.656-24.219-3.646.002-7.165.951-10.406 2.625-4.507.929-9.041 2.444-13.469 4.594-18.176 8.822-35.539 27.024-47.188 50.719-1.102-.495-2.126-1.154-3.25-1.594-9.105-3.563-18.91-5.194-28.875-4.531-1.502-9.511-4.433-18.835-9-27.344-11.195-20.86-32.287-36.623-63.125-37.406-1.101-.028-2.218-.043-3.344-.031zm177.094 21.406c.698-.019 1.405-.001 2.094.031 6.777.317 13.133 2.742 18.781 7.5 11.296 9.517 20.135 29.376 21.781 63.031 1.382 28.256-1.066 47.916-5.438 60.25-4.371 12.334-10.14 16.917-15.844 17.438-5.704.521-12.795-3.268-19.313-11.281-6.518-8.013-12.25-19.943-15.406-34.094-8.424-37.763-9.08-64.51-5.25-81.281 1.915-8.385 4.911-14.224 8.375-17.844 1.219-1.274 2.522-2.214 3.844-3 2.161-.407 4.281-.693 6.375-.75zm-107.906 50.906c1.108 13.803-.926 27.705-6.094 39.281-9.244 20.705-30.061 34.451-42.781 35.875-3.18.356-5.759-.038-7.5-.906-1.741-.868-2.826-2.066-3.469-4.344-1.286-4.555.266-13.99 8.344-28.188 14.77-25.961 33.188-38.474 51.5-41.719zm42 8.094c22.263 12.993 37.928 38.758 35.063 66.906-1.673 16.438-5.68 27.907-10.313 34.625-4.632 6.718-9.292 8.627-13.844 7.656-4.551-.971-9.851-5.509-14.094-14.344-4.243-8.834-7.334-21.718-7.813-38.281-.592-20.484 3.764-39.779 11-56.563z" fill="#ffe6d5" fill-rule="evenodd"/><path d="M312.402 368.376c-1.401-7.389 12.425-7.761 14.255-5.604s4.608 14.174 4.608 14.174l2.43.952 3.313 8.549s3.893 7.593 3.77 9.088c-.123 1.495-4.023 3.182-4.023 3.182l-.584-2.055-13.553 3.153-5.249 2.831-3.051.502-4.738-18.7s.993-2.929 2.214-5.588c.608-1.325.053-6.768.609-10.485z" fill="#784421" fill-rule="evenodd"/><path d="M317.679 401.919l4.109 14.133 4.13-1.417-4.546-14.921-3.693 2.206z" fill="#ffe6d5" fill-rule="evenodd"/><path d="M325.938 414.385l15.089-3.529-4.546-14.921-15.338 3.509 4.796 14.942z" fill="#784421" fill-rule="evenodd"/><path d="M323.452 361.706c-.43-.043-.873-.042-1.344-.048l1.509 10.659 4.026 8.873c1.168 2.574-2.517 3.184-4.006 6.179 6.633-7.483 11.694 4.219 11.989 6.752-4.775.11-11.061 3.358-11.061 3.358l-6.433 1.981-3.839 3.605.024.096 3.051-.502 5.249-2.831 13.553-3.153.584 2.055s3.901-1.687 4.023-3.182c.123-1.495-3.77-9.088-3.77-9.088l-3.211-9.795-3.284-2.778s-2.026-8.945-3.856-11.102c-.457-.539-1.672-.925-3.204-1.078z" fill="#2b1100" fill-rule="evenodd"/><path d="M74.125 268.944c-2.556.034-5.192.187-7.906.438l.25 2.313c25.797-2.832 44.537 4.224 57.375 16.406-11.267-11.804-27.536-19.45-49.719-19.156zm177.063 14.469c-7.067.688-13.391 2.421-19.969 5.406-16.357 7.425-32.356 25.674-43.313 47.844.831.474 1.655.963 2.469 1.469 9.94-19.835 24.444-35.667 38.594-44.719 3.026-1.935 6.974-3.716 10.469-5.063-2.718 3.637-5.29 9.686-6.875 16.625-3.83 16.771-3.174 43.518 5.25 81.281 3.156 14.15 8.889 26.081 15.406 34.094 1.386 1.704 2.8 3.21 4.219 4.531-.704-.757-1.4-1.554-2.094-2.406-6.518-8.013-12.25-19.943-15.406-34.094-8.424-37.763-9.08-64.51-5.25-81.281 1.915-8.385 4.911-14.224 8.375-17.844 1.219-1.274 2.522-2.214 3.844-3 2.882-.543 5.712-.848 8.469-.719 6.777.317 13.133 2.742 18.781 7.5.353.297.714.62 1.063.938-1.044-1.12-2.093-2.14-3.188-3.063-5.648-4.758-12.005-7.183-18.781-7.5-.689-.032-1.364-.019-2.063 0zm-122.156.156c4.581 4.765 8.417 10.1 11.5 15.844 5.346 11.387 8.827 22.977 9.844 35.469 1.004 14.524-1.281 29.071-6.844 41.531-10.313 23.101-31.883 38.154-48.375 40-4.123.461-8.055.076-11.406-1.594-.812-.405-1.599-.873-2.313-1.438 1.217 1.509 2.736 2.715 4.438 3.563 3.351 1.67 7.283 2.055 11.406 1.594 16.492-1.846 38.062-16.899 48.375-40 5.738-12.853 8-27.928 6.75-42.906 8.8-.449 17.48 1.106 25.594 4.281l.375.156v-.031l.313.156c.264.127.522.268.781.406l.656.344c.261.136.514.286.781.406l3.875 2c-6.999 16.566-11.112 35.485-10.531 55.594.478 16.563 3.569 29.447 7.813 38.281 2.387 4.969 5.11 8.588 7.844 10.969-2.003-2.241-3.952-5.166-5.719-8.844-4.243-8.834-7.334-21.718-7.813-38.281-.592-20.484 3.764-39.779 11-56.563 6.091 3.555 11.673 8.059 16.531 13.313-5.307-6.233-11.642-11.492-18.656-15.438-3.053-1.717-5.993-3.21-9.375-4.594-7.32-2.995-15.72-4.201-23.688-4.125l-1.031-7h.125c-1.591-8.741-4.413-17.278-8.625-25.125-3.549-6.613-8.092-12.695-13.625-17.969zm154.844 8.063c2.199 2.305 4.369 4.81 6.5 7.531 11.964 15.277 22.703 37.179 29.438 64.375l-5.344 1.313c.216.826.449 1.662.656 2.5l6.813-1.688c-6.734-27.196-17.473-49.098-29.438-64.375-2.81-3.588-5.703-6.8-8.625-9.656zm12.5 28.344c2.286 9.143 3.84 21.416 4.438 33.625 1.409 28.81-.977 49.173-5.844 62.906-4.867 13.734-12.716 21.263-21.813 22.094-7.138.652-14.151-2.662-20.406-8.5 6.77 7.138 14.572 11.352 22.531 10.625 9.097-.831 16.945-8.36 21.813-22.094 4.867-13.734 7.253-34.097 5.844-62.906-.52-10.63-1.771-21.724-3.594-30-.968-1.968-1.964-3.889-2.969-5.75zm-151.375 13.813c-18.312 3.245-38.48 16.258-53.25 42.219-8.077 14.197-9.63 23.633-8.344 28.188.571 2.021 1.49 3.187 2.906 4.031-.311-.539-.572-1.164-.781-1.906-1.286-4.555.266-13.99 8.344-28.188 14.241-25.031 33.622-38.038 51.281-41.813-.044-.842-.089-1.689-.156-2.531zm61.063 16.25c14.737 15.396 23.537 36.888 21.188 59.969-1.752 17.21-5.852 29.685-11.5 37.875-5.648 8.19-13.457 12.154-21.063 10.531-3.505-.748-6.798-2.529-9.781-5.219 3.53 3.887 7.544 6.413 11.906 7.344 7.606 1.622 15.415-2.341 21.063-10.531 5.648-8.19 9.748-20.665 11.5-37.875 2.461-24.17-7.307-46.583-23.313-62.094z" fill="#784421" fill-rule="evenodd"/><path d="M309.194 384.241l4.816 18.376 4.13-3.185-6.314-21.639-2.632 6.448z" fill="#ffe6d5" fill-rule="evenodd"/><path d="M245.5 278.056c3.001-4.09-.25-8.75.5-11.5s4.75-6.25 8.25-5.5 10.75 8.5 9.25 11.75-3 3.375-7.75 7.375c-2.965 5.074.866 6.026 3.5 5.75l4.125 1.125c-1.714 1.984-5.062 2.651-8.382 2.712-5.979.11-4.733.347-9.66-1.514-.67-.253-3.08-5.772.167-10.198z" fill="#2b1100" fill-rule="evenodd"/><path d="M243 278.056c3.001-4.09-.25-8.75.5-11.5s4.75-6.25 8.25-5.5 10.75 8.5 9.25 11.75-3 3.375-7.75 7.375c-2.965 5.074-.134 8.776 2.5 8.5-10.429.772-8.911-.037-12.917-.427-.67-.253-3.08-5.772.167-10.198z" fill="#784421" fill-rule="evenodd"/><path d="M347.75 329.487a2.875 4.375 0 1 1-5.75 0 2.875 4.375 0 1 1 5.75 0z" transform="matrix(1.174 0 0 1.229 -152.728 -136.117)" fill="#2b1100"/><path d="M347.75 329.487a2.875 4.375 0 1 1-5.75 0 2.875 4.375 0 1 1 5.75 0z" transform="matrix(1.174 0 0 1.229 -153.978 -136.367)" fill="#ffe6d5"/><path d="M44.75 258.069c3.693 3.126 3.801 5.456 1.5 7.25 0 0 3.75.25 8.25-1.5-2.626-5.289-9.75-5.75-9.75-5.75zm28 9.25l-12.5-.75 1.25 7.5-14.5 5.75 1 2.5c.851.017 4.03-1.07 5.125 2.031 1.776-2.943 3.182-6.025 10.125-7.031l2.063-1.438 7.938-2.063-.5-6.5z" fill="#2b1100" fill-rule="evenodd"/><path d="M188.782 173.123s-9.899-14.496-4.596-20.506c5.303-6.01 18.738-10.253 18.738-10.253s29.345 3.536 35.355 5.303c6.01 1.768 17.888.577 22.274 2.121 3.978 1.401 46.669 53.74 46.669 53.74-1.145 10.082-28.27 21.071-54.801 12.374-3.169-1.039-8.132 3.536-8.132 3.536l8.839 8.485c-4.527 3.084-8.845 7.295-16.617 4.243l-17.324-20.153 4.243-10.253s15.742-3.298 19.092-8.485c13.893-21.515-28.784-47.989-40.659-42.073-9.732 4.849-12.646 22.98-13.081 21.92z" fill="#ffe6d5" fill-rule="evenodd"/><path d="M255.906 152.631c-.962.192-2.325.048-6.156 2.438 1.823-1.247 6.333-1.781 6.125-1.781 6.08 2.846 5.058 3.921 7.875 5.688l-14.156 9.188s-3.888-6.002-5.656-7.063c-1.715-1.029-2.418-.026-3.75 1.969 1.52-.979 9.995 16.927 11.875 16.938 2.345.013 18.251-9.372 19.094-12.719.965-3.833-13.482-15.01-15.25-14.656zm9.25 8.469c3.778 1.65 3.135 3.288 3.875 4.938 0 0-15.553 11.852-15.906 10.438-.354-1.414-3.187-6.188-3.188-6.188l15.219-9.188z" fill="#784421" fill-rule="evenodd"/><path d="M276.438 171.787c-.735-.195-5.834 1.892-12.094 6.563 10.432-5.263 12.46-6.018 11.813-5.531 5.925 3.105 5.621 5.796 8.438 7.563l-24.219 15.719s-5.67-6.877-7.438-7.938c-1.715-1.029-2.093.119-3.406 2.125 1.613-.876 11.62 18.708 13.5 18.719 2.345.013 28.157-16.966 29-20.313.965-3.833-13.851-16.444-15.594-16.906zm9.563 10.719c3.778 1.65 3.166 3.288 3.906 4.938 0 0-25.459 19.445-25.813 18.031-.354-1.414-3.719-7.438-3.719-7.438l25.625-15.531z" fill="#784421" fill-rule="evenodd"/><path d="M240.656 196.881l-4.438 2.094c.551-1.651-.116-1.649-1.404-.893-3.721 1.564-7.722 2.579-11.565 3.58-1.072 2.094-2.148 4.186-3.219 6.281 5.025 5.799 10.018 11.627 15.031 17.438-.288 2.075-.076 4.338.723 6.246.99 1.372 2.958 1.381 4.488 1.7 4.366.626 8.301-1.789 11.617-4.301.92-.601 2.196-1.171.639-1.962-2.613-2.551-5.396-5.099-7.904-7.651 2.065-1.682 4.336-3.489 7.125-3.438 6.417 2.002 13.116 3.235 19.862 3.271 9.841.059 19.949-1.805 28.513-6.834 3.206-2.088 6.732-4.869 7.313-8.938-.64-.676-1.39-2.204-1.47-.467-1.766 4.944-6.777 7.729-11.365 9.731-8.48 3.444-17.788 4.779-26.908 4.261-5.453-.374-10.47-2.733-15.758-3.868-3-2.978-4.864-6.9-7.202-10.403-1.27-1.996-2.508-4-3.923-5.91l-.156.063z" fill="#784421" fill-rule="evenodd"/><path d="M188.42 168.159l-.93 2.951c.845 1.453 1.292 1.845 1.292 1.845.667 1.524 3.601-16.434 13.094-21.761.821-.461 1.847-.643 2.969-.75-17.712-2.747-25.318 4.342-16.424 17.715z" fill="#2b1100" fill-rule="evenodd"/><path d="M244.875 218.945c-13.938 10.372-4.744 12.966 4.781 9.061.327-.05.937.492 1.625 1.219.616-.439 1.23-.894 1.844-1.313l-8.25-8.967z" fill="#2b1100" fill-rule="evenodd"/><path d="M264.063 114.506c-.13.005-1.984.039-2.063.063 4.278 1.454 6.954 3.975 9.25 6.75 14.886 4.432 20.62 8.788 32.156 19.75 8.302 7.354 15.277 14.708 16.969 22.063l.406 7.594 4.094 4.094-1.875 6.313 5.625 6.906c3.228-6.949 7.121-15.625 7.125-17.469.006-2.305-4.5-9.75-4.5-9.75l4.5-4.5s-.5-5-3.5-8.5-3.5-3-3.5-3l.75-1.75s-9.75-5.75-11.25-6-2.25 4.25-2.25 4.25l-3-3s2.75-5.25 2.5-6.25-7-6.25-7-6.25l.25-1.5s-8.5-4.5-9.75-4.25-2.5 4.75-3.5 3.75c-.969-.969-22.154-10.466-31.438-9.313z" fill="#ffe6d5" fill-rule="evenodd"/><path d="M268.406 118.569c1.081.876 1.898 2.2 2.973 2.994 8.143 2.341 15.995 5.811 22.497 11.254 5.021 4.135 9.717 8.685 14.465 13.105 4.933 4.919 10.082 10.32 11.847 17.272.154 2.56.246 5.139.438 7.688l4.031 4.031c-.568 2.109-1.399 4.26-1.813 6.344 1.951 2.383 3.878 4.786 5.844 7.156 2.53-5.735 5.465-11.341 7.219-17.375.394-1.391-.708-1.227-1.774-1.147-3.628-.056-6.264-3.092-7.194-6.415-9.038-14.383-21.477-26.707-36.156-35.344-7.144-4.307-14.919-7.655-22.906-10.125l.531.563z" fill="#784421" fill-rule="evenodd"/><path d="M300 126.806s4.306 3.045 6.25 2.5c.722-.203 1.5-2 1.5-2l-.5 2s2.766 5.264 5 5.75c.886.193 2.75-1.25 2.75-1.25l-2 4.5c-.526-2.474-6.586-6.408-13-11.5z" fill="#784421" fill-rule="evenodd"/><path d="M318 141.806s5.616 6.226 7.5 5.5c2.472-.953 2.75-1.25 2.75-1.25l-1.5 4.5s2.766 5.514 5 6c.886.193 2.75 0 2.75 0l-3.25 4.25c-1.303-2.669-10.885-16.108-13.25-19z" fill="#784421" fill-rule="evenodd"/><path d="M334.75 247.069c-2.136-.922-17.546 2.226-19.25 3.25l-1 2 1.688 8.375c1.098-.504 2.186-1.01 3.281-1.5 1.345-.956 4.305-1.78 5.844-2.469.522-.609.811.161 0-.781l-6.25.875-.813-4.5c4.917-2.534 9.833-1.745 14.75-2.5l.5 3.344 2.844-1.188-.844-4.156-.75-.75z" fill="#ffe6d5" fill-rule="evenodd"/><path d="M363.912 226.009c2.428-1.22 4.794-1.64 3.712 2.475.241-2.121 5.994-6.298 8.568-4.793-.441 1.177-.554 4.536 2.392 6.384-.261-3.588 4.228-5.878 8.485-6.187 0 0-2.553-4.089-5.127-4.066-2.131.019-4.676 1.397-5.48 2.298-.857-1.911-6.694-.817-6.894.884-2.152-1.696-5.436-.405-5.657 3.005z" fill="#ffe6d5" fill-rule="evenodd"/></g></svg>