<svg xmlns="http://www.w3.org/2000/svg" width="382.08" height="638.932"><title>archer</title><g color="#000"><path d="M152.549 330.713c-17.458 2.021-33.181 11.047-48.5 19.063-3.668 1.895-5.972 8.061-1.5 10.25-2.308 3.889-.913 8.567-1.719 12.875-.188 2.407 2.003 4.579-.563 6.5-1.63 2.711-2.212 6.884.719 8.938-3.284 7.767-2.283 16.698-6.531 24.094-.926 2.634-.076 6.657 2.656 7.313-2.879 12.75-1.776 26.898-2.871 40.154-1.119 11.198.47 23.387-3.942 33.815-3.803 1.385-5.476 6.701-2.469 9.688-4.32 3.434 1.971 8.235-1.344 12 1.556 3.389-1.533 4.491-4.219 4.469-6.057 1.563-3.028 9.267-4.65 13.512-1.262 12.755-4.633 25.539-5.256 38.206.844 3.556 4.777 7.406 1.156 10.625-2.057 4.065-.043 8.824 1.938 12.125-4.022 5.347-1.55 12.36-4.625 18.031-1.629 6.854-3.033 15.286.938 21.469 5.573 5.161 14 4.708 21.031 5.094 7.745-.526 16.582-8.007 12.875-16.313-1.249-5.401-4.956-10.709-5.563-15.875 4.269-6.249 2.663-14.257 1.094-20.906 7.988-9.462 6.414-23.366 10.297-34.58 2.144-9.716 4.359-19.765 6.172-29.295 2.903-4.794 5.691-9.857 5.219-15.594 4.682-3.612.021-9.977 3.133-14.318 6.735-22.238 13.57-45.058 20.242-66.932 5.919 20.355 8.862 41.834 18.719 60.813-1.918 2.726-1.383 6.718.031 9.063-3.411 3.44-1.953 9.143 2.094 11.375-3.269 2.094-3.572 6.901-4.844 9.469-5.548 2.579-1.504 9.806-2.638 14.406.803 18.778-5.834 37.168-5.924 55.688.802 3.127-3.688 6.76-.719 9.906 3.628 1.707-1.274 4.082-1.406 6.844-2.026 6.482-1.464 14.284 1.531 20.125 10.773 5.897 22.877-1.349 34.188 1.25 8.1.431 17.813 1.826 24.531-3.625 4.432-6.543-1.437-16.643-9.531-15.125-7.472.92-11.232-6.456-17.188-9.281.507-2.46-1.411-4.55 1-6.313 2.563-4.585-.327-9.962 2.098-14.676 4.497-19.655 9.714-39.135 14.339-58.761-3.773 1.878-1.271-3.185-3.25-4.969.552-4.317 6.021-7.345 4.269-12.337-2.389-25.292-5.429-50.628-10.582-75.507-.167-2.596-3.681-8.443-2.094-9.188 4.441 1.729 7.74-3.916 5.063-7.5-2.621-8.975-8.195-17.422-10.531-26.094 3.111-3.5-.841-7.623-1.094-11.219 5.264-4.975 11.771-12.661 7.219-20.156-1.822-3.406-6.373-3.476-9.563-2.813 1.798-4.944-.506-10.656-5.719-12.188-7.334-3.442-15.726-3.841-23.719-3.594zM138.174 149.557c-5.222 1.446-9.932 5.543-15.531 4.031-6.136 1.204-9.181 9.262-16.219 7.594-5.9-.079-10.209 4.499-11.781 9.844-1.712 4.308-9.076 8.752-5.563 13.688.636 2.003 5.808.848 4.719 2.719-4.866 1.977-6.762 10.368-.313 11.125 3.888-1.235.948 4.714.844 6.813-.933 2.226-1.684 5.502.719 7.094-5.298.584-10.553 1.56-14.75 5.188-3.421 1.782-7.326.188-10.844 2.313-9.127 2.534-18.176 7.43-27.781 5.938-7.278 1.431-14.015 5.122-20.625 8.344-3.203 1.866-3.562 6.476-8.094 6-5.286 1.241-9.413 5.368-12.188 9.781-2.472 6.747 1.658 13.775 3.531 20.188 1.694 4.383 5.054 9.02 10.344 7.125 1.805.946 3.314.319 5.063.406 4.654 6.03 11.713-1.894 17.375 1.406 11.662 2.579 23.699.872 35.469 0 5.955 11.033 10.239 24.657 21.406 31.625 3.192 2.076 7.864 2.267 10.594 4.188 2.335 9.051 7.093 19.026 2.25 28.031-.541 5.784-1.731 11.964 1.344 17.344 3.701 10.816 16.199 13.635 23.719 21.125 2.062-4.599-1.198-9.579-.406-13.813 14.233-1.073 29.049-1.718 42.813-6.094 4.602-7.54 4.918-16.897 5.344-25.469-.78-3.735-3.206-8.16.063-11.406-7.089-4.173-3.144-13.387-4.781-19.969-.811-10.62-1.544-21.548 1.781-31.781 1.387-11.59 8.4-23.855 3.156-35.344-1.637-7.058-11.855-8.479-15.938-3.75-3.14-3.455-6.049-7.728-11.156-8.594 3.421-1.438 3.687-5.351 3.781-8.469 1.504-3.412 2.905-7.188 2.031-10.844 5.502-2.676 1.953-9.792-1.471-12.628-2.672-2.014-4.132-5.683-2.998-8.654 5.117.002 2.672-6.518 3.094-9.5 1.406-2.207-2.593-4.233.438-5.313 1.942-2.102-2.943-5.154 1.25-4.469 3.426.317 4.904-4.36 1.406-5.531-7.54-2.913-13.627-10.021-22.094-10.281zm-24.406 69.281c1.695.798 2.438 4.06 2.156 4.75-.633-1.599-1.551-3.292-2.156-4.75zM233.861.026c-4.54 1.675-4.566 8.288-7.25 11.844-2.776 6.028-4.979 14.279 1.031 19.156 9.022 9.417 19.684 16.993 28.36 26.828 23.042 22.744 44.575 48.284 56.752 78.796 5.161 11.332 12.679 23.592 8.233 36.313-1.363 6.042-3.877 12.992-3.25 18.719-5.167 1.362-10.85 3.499-12.857 9.095-3.897 7.068-13.566 8.675-20.674 8.093-5.389-5.666-13.315.006-18.969 2.219-3.873 1.117-9.747.518-10.281 5.75-26.239 6.064-52.159 15.503-79.094 18.313-14.194 3.165-25.604 13.354-39.094 18.219-5.776 2.144-4.839 9.037-3.335 13.751 2.075 12.622 4.136 25.246 6.179 37.874 21.663-17.167 44.416-33.996 71.5-41.188 16.555-5.109 34.021-7.399 51.094-9.469 4.792 1.991 9.209-2.491 13.938-2 6.359-.939 15.83-1.973 16.5-10.156-1.279-4.346 5.425-3.095 6.875-6.656.728-2.946 3.621 1.419 5.594-.406 3.071-1.086 4.655-5.83 8.313-2.969 3.463 1.059 7.363-.791 8.969-3.438 2.602-.569 4.633-.532 5.276 2.525 5.312 8.304 7.973 18.482 5.073 28.17-3.256 28.466-10.525 56.61-24.337 81.843-9.645 19.799-21.953 38.344-33.262 57.242-2.437 9.41 6.657 16.534 11.656 23.344 2.265 4.866 5.439 2.55 8.031-.438 4.193-3.38 6.739-10.526 1.656-14.344-2.143-3.004-5.494-6.158-8.844-7 14.05-19.236 27.578-39.534 38.603-60.863 15.546-29.347 20.52-62.749 26.709-95.074.118-4.479 3.063-10.052 1.344-13.875-2.419-2.886-7.753-5.225-8.063-8.719 1.539-1.988 4.228-3.921 3.313-7.063-1.175-3.489.517-7.004-.688-10.656 1.989-4.7-3.19-8.192-3.906-12.406-1.905-2.736-6.496-2.538-8.344-3.625 2.158-6.776 6.519-12.553 10.25-18.5-17.903-37.703-34.847-77.423-65.781-106.438-13.896-13.886-29.156-26.633-43.938-39.344 4.756-.503 4.967-6.419 7.25-9.625 2.964-5.554-2.068-10.584-6.781-12.813-1.124-.681-2.408-1.178-3.75-1.031z" overflow="visible" enable-background="accumulate"/><path d="M333.361 221.744l-10.906-24.688-6.656 2.156 2.094 23.938s3.383 1.998 5.75 1.5c1.378-.29 5.42-1.585 9.719-2.906z" fill="#d38d5f" overflow="visible" enable-background="accumulate"/><path d="M276.79 215.043c10.418-3.592 22.649.07 31.144-11.212 0 0 10.215 4.734 12.209 4.236l3.095 3.055c-4.241 10.667-41.014 23.887-41.014 23.887z" fill="#6c5d53" overflow="visible" enable-background="accumulate"/><path d="M234.636 4.109s-7.931 15.566-6.973 20.147c.208.994 2.382 4.18 6.75 7.91 20.124 17.189 48.546 46.253 63.883 68.719 11.78 17.255 26.283 51.976 27.455 56.356 2.686 10.032-4.615 28.929-4.378 31.822.23 2.813 4.171 13.829 4.391 14.444-.036.468-.937 12.363-.412 15.161.535 2.853 12.56 19.13 12.618 29.515.025 4.534-4.787 41.843-11.594 61.596-8.862 25.719-28.61 61.252-43.482 83.144-3.227 4.751-4.47 8.409-4.408 9.422.286 4.672 12.019 17.604 12.019 17.604s6.737-5.75 4.515-8.463c-2.222-2.714-6.28-6.985-6.28-6.985l-4.035.291c-2.801-1.867-1.175-5.445-1.175-5.445s2.599-4.041 7.712-11.089c7.144-9.848 29.628-43.45 39.216-67.709 11.067-28.003 20.396-88.019 20.396-88.019s-11.826-9.821-15.14-16.52c-2.025-4.093-2.402-13.495-2.402-13.495s-2.107-9.161-1.235-13.644c1.428-7.337 10.236-19.934 10.236-19.934s-24.846-55.402-42.913-79.49c-15.652-20.867-46.205-47.352-55.695-54.964-6.793-5.449-10.373-8.656-10.373-8.656s-2.502-3.016-.293-5.556l3.956-.784s2.776-5.197 4.203-8.401c1.427-3.204-6.564-6.973-6.564-6.973z" fill="#917c6f" overflow="visible" enable-background="accumulate"/><path d="M172.215 239.875s28.055-4.634 31.033-5.201c2.978-.567 61.916-16.878 61.916-16.878l6.358 29.323s-8.832 3.078-20.641 4.679c-3.219.437-21.124 2.732-31.369 5.519-13.842 3.766-27.604 8.404-40.319 15.045-13.185 6.886-36.693 25.396-36.693 25.396l-6.451-39.162z" fill="#5d6c53" overflow="visible" enable-background="accumulate"/><path d="M262.486 231.744s-1.441 12.714-2.531 14.531c-1.091 1.818-2.209 1.824-5.844 2.188-3.635.364-43.249 6.886-50.156 7.25-6.907.364-56.719 25.094-56.719 25.094l2.688 11.281c8.012-6.026 20.759-15.268 29.281-19.719 12.715-6.64 26.471-11.296 40.313-15.063 10.244-2.787 28.156-5.063 31.375-5.5 8.509-1.154 15.397-3.079 18.625-4.063l-7.031-16z" fill="#37483e" overflow="visible" enable-background="accumulate"/><path d="M328.87 199.247s-2.199 6.252-6.102 7.842c-2.118 3.823-6.018 10.565-7.313 10.75-1.799.257-5.408 0-8.75 0-3.147 0-24.537 5.748-27.094 6.438l4.156 13.688s10.957-7.222 16.688-8.219c5.731-.997 7.618-2.5 10.719-2.5 4.236 0 8.719-3.219 8.719-3.219s3.502-7.979 4-10.969c.498-2.99 7.719-5 7.719-5zM333.344 203l-7.688 2.344c-.236 3.451-.727 11.104-.313 13.313.535 2.853 12.567 19.147 12.625 29.531.005.954-.26 3.581-.656 6.969 1.748-1.9 2.856-10.843 2.687-12.258-.386-3.213-9.874-20.301-9.874-21.586 0-.738 4.323-1.197 8.063-1.469-1.019-1.322-1.877-2.647-2.469-3.844-1.86-3.759-2.311-11.68-2.375-13z" fill="#5e5148" overflow="visible" enable-background="accumulate"/><path d="M264.191 215.618c-3.632 1.17-5.953-1.608-5.068 4.353.885 5.961 3.252 24.345 4.114 29.309.603 3.472 2.682.808 6.158.229 3.476-.579 15.211-2.619 16.932-3.656 1.721-1.037 2.964-3.986 1.893-7.202-1.071-3.215-4.589-19.84-6.741-26.714-1.39-4.44-11.68 1.874-17.288 3.68z" fill="#7c916f" overflow="visible" enable-background="accumulate"/><path d="M315.174 219.026l-1.75 1.75 1 7.469 2.969-.25-2.219-8.969zm-10.969 6.219l-2.5.5 1.25 5.5 3-1.5-1.75-4.5zm-11.219 3.5l-2.5 1.25 1.5 5.469 3.75-1.5-2.75-5.219z" fill="#483e37" overflow="visible" enable-background="accumulate"/><path d="M335.891 192.185c-3.168.099-10.221 2.867-10.221 2.867s-1.131 1.82-1.003 4.468c.089 1.841 2.967 2.096 2.967 2.096l4.01 11.284s-.992 4.103 3.769 4.305l4.448.132c.053.262 1.767 1.006 3.011 1.197.781-.152.34-.031 1.251-.718 3.186-2.4.68-5.151-.371-5.844 0 0 1.471-2.19 1.721-3.186l-.997-3.719s.783-2.066.909-3.187c.251-2.242-2.372-3.627-2.372-3.627s-.708-3.911-1.122-4.376c-.332-.373-.714-.378-1.899-.94-1.185-.562-2.394-.805-4.1-.752z" fill="#fca" overflow="visible" enable-background="accumulate"/><path d="M339.356 197.344s-9.635.899-10.032.899l-4.656.278c-.022.322-.018.646-.001 1 .089 1.841 2.967 2.096 2.967 2.096-2.311 2.97-1.306 4.223 1.996 4.751 0 0-1.892.308-1.597 3.78.102 1.202 3.154 2.752 3.154 2.752s-1.483 4.488 3.278 4.69l4.658.027c.053.261 1.484 1.339 1.321 1.603.723-.232 1.581-.289 2.427-.686l-1.561-1.845s-5.755-.107-7.937-.506c-2.182-.398-1.186-2.167-1.186-2.563 0-.397 3.192-2.081 4.283-2.278 1.091-.198 6.437.38 6.437.38l-1.479-.862s-2.198-.217-4.082-1.111c-1.267-.601-4.841-5.164-4.246-5.659.596-.496 9.625-.087 9.625-.087l-.406-.407-8.437-.694-1.499-2.001s-1.075-1.511 1.408-2.155c2.483-.644 7.938-.994 7.938-.994z" fill="#d38d5f" overflow="visible" enable-background="accumulate"/><path d="M308.059 204.827s.872-4.734 3.114-6.229 15.198-5.731 16.693-5.731c1.495 0 8.118 10.372 8.866 11.618.747 1.246 2.492 4.236 2.492 4.236s-6.478.747-7.973-.249c-1.495-.997-4.63-4.642-4.63-4.642s-2.169 4.359-4.734 5.357c-4.485 1.744-13.828-4.36-13.828-4.36z" fill="#fca" overflow="visible" enable-background="accumulate"/><path d="M72.982 270.604s11.461 26.161 18.936 33.885c7.475 7.724 32.39 8.222 32.39 8.222l-16.195-45.845z" fill="#7c916f" overflow="visible" enable-background="accumulate"/><path d="M25.49 239.567s-7.047 3.524-8.457 3.876c-1.409.352-4.404.529-6.166 1.762-1.762 1.233-4.933 4.933-6.342 5.99-1.409 1.057.176 7.928 1.409 11.628s4.181 9.943 5.414 9.766l7.371-.419c.705-.176 4.485.39 4.485.39l8.533.686 18.627 2.209 43.245-2.481c4.225-.242 8.166-7.333 8.695-10.328.529-2.995-12.861-15.328-14.271-15.856-1.409-.529-28.189.529-28.189.529z" fill="#5d6c53" overflow="visible" enable-background="accumulate"/><path d="M120.445 248.588l-.779-33.323-10.913-18.903 3.897-22.216 30.205-2.728c2.169 5.092 6.962 11.536 7.113 12.959.337 3.187-.712 4.773.65 7.169 1.508 2.653 9.367 9.807 6.187 10.871-3.46 1.157-3.346 1.495-3.001 2.253l.939 2.995c.974.877-1.559 3.118-1.559 3.118s1.462 2.241.585 2.631l-1.754 2.826s.779 4.872-.585 5.262c-1.629.465-2.389.402-4.19.585-3.931.398-9.646.097-9.646.097l3.995 19.78 13.154 7.015-15.59 15.98z" fill="#fca" overflow="visible" enable-background="accumulate"/><path d="M121.615 209.126l-2.826 1.559s2.046 5.749 2.144 6.723c.097.974-1.267 3.021-1.267 3.021s-2.533-4.385-2.533-4.872c0-.487.195-2.046.195-2.046l-.585 2.046s-4.872-1.267-5.846-1.072c-.974.195-2.533.195-2.533.195l2.728-2.241s-7.405-3.41-8.672-3.41h-4.969s-.195-1.364.779-2.728.877-5.651 1.072-6.918c.195-1.267.195-6.333.195-6.333s-5.164 1.462-5.749 1.462-.877-.779.195-1.851 4.969-4.19 4.58-5.846c-.39-1.656-2.826-4.482-3.605-4.482-.779 0-4.092.877-2.241-1.656 1.851-2.533 3.995-4.677 4.58-6.236.585-1.559 3.995-8.477 6.041-8.672 2.046-.195 10.732-.96 11.511-2.13.779-1.169 4.371-2.788 4.371-3.373 0-.585 3.215-3.021 4.872-2.826 1.656.195 4.287.195 5.846.097 1.559-.097 7.308-4.677 10.133-3.995 2.826.682 14.908 8.087 14.908 8.087s-3.313.292-4.19.292c-.877 0-.877 2.436-.097 3.313.779.877 2.241 2.241 2.241 2.241s-4.19 1.267-3.995 1.754c.195.487 3.897 3.703 4.287 4.19.39.487-.585 1.364-.585 1.364l.585 3.118s-1.559-2.533-2.923-2.533-5.359.585-6.528.779c-1.169.195-3.215.097-3.215.097s2.046 2.338 1.656 2.533c-.39.195-1.462 1.656-2.826 1.364-1.364-.292-4.969.292-6.333.195-1.364-.097-1.559-1.462-3.508-1.364-1.949.097-4.19.39-4.677 1.656-.487 1.267 0 2.774 0 2.774l1.267.974s-2.533.585-2.631 1.656c-.097 1.072 3.021 4.287 3.021 4.287s-2.338.585-2.241 1.169c.097.585 1.462 2.631 1.949 2.923.487.292 1.949 9.451 1.949 9.744 0 .292 3.021 5.554 3.703 6.139.682.585.682 1.364.682 1.364l-8.769-.585s1.559-5.262 1.072-5.651c-.487-.39-3.703-.974-3.703-.974s1.851-.682 2.241-1.559c.39-.877-3.118-6.041-3.118-6.041s-3.41-1.851-4.872-1.656c-1.462.195-4.482.974-2.923 4.774 1.559 3.8 3.192 5.859 5.803 7.406 1.577.935 2.289 1.857 3.356 1.753z" fill="#502d16" overflow="visible" enable-background="accumulate"/><path d="M137.594 222.182c-4.668-.325-6.735-2.21-9.738-3.534 2.912 2.428 4.183 5.02 10.461 7.112z" fill="#d38d5f" overflow="visible" enable-background="accumulate"/><path d="M137.984 189.151c.487-.292 6.528-3.703 7.113-3.605.585.097 3.995.487 3.995.487s.974 3.021-.195 2.728c-1.169-.292-2.765-.959-4.19-.877-2.051.118-5.359 2.046-5.846 1.949-.487-.097-1.169-.195-.877-.682z" fill="#502d16" overflow="visible" enable-background="accumulate"/><path d="M140.858 194.461s.142-.301-1.36-.921c2.004.681 9.217-2.83 9.201-3.632 0 0-.833 1.701-1.556 2.263-.519.404-1.851.682-1.851.682v1.656l2.046.487s-.487 1.267-.487 1.656c0 .39.487 2.046.487 2.046s-1.559-2.826-2.338-3.021c-.779-.195-1.034.164-2.35-.372-.361-.147-1.792-.846-1.792-.846z" fill="#d38d5f" overflow="visible" enable-background="accumulate"/><path d="M141.248 194.461c1.411-.897 1.8-1.593 4.628-1.9l.292 2.241c-.889-.543-3.225-.259-4.921-.341z" overflow="visible" enable-background="accumulate"/><path d="M154.796 208.107s-3.789 1.654-4.478 1.86c-.689.207-1.95.515-2.687.896-1.672.864-.75 1.053-.153 2.839.207.276.348-1.921.761-2.127.413-.207 5.165-.982 5.165-.982 1.598-1.282 1.545-1.524 1.393-2.485z" fill="#d38d5f" overflow="visible" enable-background="accumulate"/><path d="M153.964 213.072s-3.605.097-3.897.195c-.292.097-1.997 1.121-1.608 1.364.39.244 3.508 1.803 3.508 1.803z" fill="#ffb380" overflow="visible" enable-background="accumulate"/><path d="M78.525 271.838s16.536 7.717 19.843 11.299c3.307 3.583 14.882 47.402 14.882 50.433 0 3.032-2.756 11.299-3.032 12.677-.276 1.378 1.654 3.583 1.654 3.583s-1.929.551-1.929 1.929c0 1.378 3.307 11.299 5.787 12.677.453.252 2.559.283 5.711.15 14.109-.593 49.158-4.461 50.51-6.489 1.654-2.48 4.134-19.843 3.858-20.669-.276-.827-2.205-9.095-2.205-9.095l1.102-2.756-2.756-2.756s-2.48-36.929-1.654-39.685c.827-2.756 2.629-10.952 2.629-10.952-.514-5.141-6.487-24.875-6.487-24.875s-17.362 1.654-19.843 2.205c-2.48.551-3.858 3.858-3.858 3.858l.551 4.685-4.134-5.787-46.3-4.134z" fill="#5d6c53" overflow="visible" enable-background="accumulate"/><path d="M4.799 250.963l-.281.219c-1.409 1.057.173 7.925 1.406 11.625 1.233 3.7 4.048 11.114 5.281 10.938 1.233-.176 3.719-1.063 3.719-1.063s1.92 1.582 2.625 1.406c.705-.176 4.25-1.406 4.25-1.406s.519 3.531 2.281 3.531 6.525-1.938 7.406-1.938c.881 0 17.443 2.469 18.5 2.469 1.057 0 38.74-2.824 42.969-3 2.039-.085 4.166-1.983 5.875-4.25-6.659-1.497-14.695-1.617-22.688-1.781 3.346 1.113 8.731 1.208 10.031 3.344 0 0-31.11 3.07-33.938 2.813-2.828-.257-20.813-6.688-20.813-6.688s-4.628 5.413-5.656 5.156c-1.028-.257.25-4.625.25-4.625l-7.969 3.844-1.813-2.563s-3.586 3.598-6.156 2.313c-1.699-.849-3.944-12.479-5.281-20.344zM148.236 249.369l-2.438 1.188 4.438 8.531-14.531 2.719-.531 3.281 16.531-3.719 14.625 27.531c2.068 1.674 1.094-2.395 1.094-3.719zm-47.688 18.063c-7.12.086-12.155 4.606-18.156 6.281 5.088 2.507 13.673 6.95 15.969 9.438 3.307 3.583 14.875 47.375 14.875 50.406 0 3.032-2.756 11.31-3.031 12.688-.276 1.378 1.656 3.594 1.656 3.594s-1.906.528-1.906 1.906c0 .333.736 6.852 4.851 12.684l13.125 9.056-2.851-24.333s-10.199-6.182-10.563-8c-.364-1.818 2.938-11.25 2.938-11.25l-12.375-41.469 2.531.75-9.406-12.281s5.785-1.443 9.281 1c6.038 4.219 16.385 18.494 17.105 18.355 1.693-.326 2.301-8.73 2.301-8.73l-18.406-18.438c-2.947-1.224-5.564-1.685-7.938-1.656z" fill="#37483e" overflow="visible" enable-background="accumulate"/><path d="M70.558 246.639s9.744 1.754 16.369 5.651c6.626 3.897 20.072 18.708 22.8 22.8 2.728 4.092 15.005 19.682 15.005 19.682s10.718-19.682 12.082-21.631c1.364-1.949 1.364-13.446 0-15.2-1.364-1.754-14.031-6.821-19.487-7.99-5.456-1.169-13.251-11.498-13.251-11.498s-6.041 5.456-8.38 5.846c-2.338.39-6.626 1.169-6.626 1.169s-4.092-2.728-5.846-2.533c-1.754.195-12.667 3.703-12.667 3.703z" fill="#7c916f" overflow="visible" enable-background="accumulate"/><path d="M137.816 266.915s1.922-10.143-.222-13.846c-2.144-3.703-17.32-11.797-17.32-11.797l-.278-11.872s-12.997-.885-15.336 1.258c-2.338 2.144-2.923 7.99.195 11.108 3.118 3.118 9.676 7.068 15.005 9.744 5.014 2.518 13.836 3.313 15.785 5.846 1.949 2.533 2.171 9.558 2.171 9.558z" fill="#bec8b7" overflow="visible" enable-background="accumulate"/><path d="M120.274 241.272s-6.343-2.41-7.048-4.348c-.705-1.938 6.892-2.307 6.892-2.307zM89.071 245.47s12.082 5.944 16.857 13.933c4.774 7.99 5.554 9.354 6.139 10.426.585 1.072 1.462 1.072.779-1.656-.682-2.728-7.21-10.426-7.21-10.426s-10.718-9.451-12.374-11.205c-1.656-1.754-1.59-1.539-1.59-1.539z" fill="#5d6c53" overflow="visible" enable-background="accumulate"/><path d="M145.29 243.784s4.821 12.828 5.372 13.792c.551.965 16.604 30.108 16.604 30.108s9.921-31.418 10.473-37.894c.551-6.476-2.343-12.402-2.756-13.091-.413-.689-3.858-2.067-5.236-1.791-1.378.276-3.307 3.032-3.72 3.445-.413.413-2.48.965-2.48.965s-1.378-2.067-2.894-3.032c-1.516-.965-18.725-3.697-18.725-3.697z" fill="#7c916f" overflow="visible" enable-background="accumulate"/><path d="M138.889 228.594l2.7 13.368s9.417 13.34 9.004 14.718c-.413 1.378 6.339-2.205 7.303-4.823.965-2.618 4.134-16.26-.965-20.118-5.098-3.858-13.219-4.109-18.042-3.145z" fill="#bec8b7" overflow="visible" enable-background="accumulate"/><path d="M166.017 238.338c-.413.413-2.469.969-2.469.969l-.125-.156c.832 1.801 1.744 3.756 2.25 4.906.758 1.722.624 4.976.969 7.25.344 2.274 2.618-3.585 3.031-4.688-.103-3.323-1.589-6.056-3.656-8.281z" fill="#5d6c53" overflow="visible" enable-background="accumulate"/><path d="M150.593 290.038l-6.229-31.892-1.246.249z" fill="#37483e" overflow="visible" enable-background="accumulate"/><path d="M132.487 259.143s-.498 3.737 0 4.859c.498 1.121 2.492 1.37 2.492 1.37s1.37-1.744 2.492-1.869c1.121-.125 17.69-3.986 18.562-3.986.872 0 .249-3.114-.374-3.114l-3.114.747s-16.32 2.616-16.818 2.492c-.498-.125-3.239-.498-3.239-.498z" fill="#784421" overflow="visible" enable-background="accumulate"/><path d="M141.478 270.813l.591 3.044 8.043-1.318s.182-1.091-.182-1.091l-8.452-.636z" fill="#37483e" overflow="visible" enable-background="accumulate"/><path d="M141.499 270.48l.872 2.99 8.222-1.246s.125-2.99-.374-2.99c-.498 0-8.72 1.246-8.72 1.246z" fill="#784421" overflow="visible" enable-background="accumulate"/><path d="M143.568 279.811l.863 3.59 6.634-1.136-.136-2.681z" fill="#37483e" overflow="visible" enable-background="accumulate"/><path d="M143.866 279.449l.872 3.613 7.101-1.246-.125-2.741z" fill="#784421" overflow="visible" enable-background="accumulate"/><path d="M148.385 296.805c.605.837 1.772 1.681 3.044 1.363 1.272-.318 2.272-1.318 2.272-1.318l-3.272-8.997s-4.908.727-5.68 1.59c0 0 1.648 4.612 3.635 7.361z" fill="#37483e" overflow="visible" enable-background="accumulate"/><path d="M144.738 289.291c.784-1.293 10.261-2.859 10.091-1.495 0 0-.623 8.098-.623 8.845 0 .747-4.111 2.118-5.232.623-1.121-1.495-4.236-7.973-4.236-7.973z" fill="#784421" overflow="visible" enable-background="accumulate"/><path d="M38.615 255.775c.529 0 17.618-4.14 17.618-4.14l.793 9.954-4.14 7.311-8.545.969z" fill="#37483e" overflow="visible" enable-background="accumulate"/><path d="M75.736 233.088l-38.156 13.906c1.521 4.777 1.563 12.531 1.563 12.531 9.219-1.744 23.902-10.029 27.219-12.031 2.528-1.526 14.906-7.563 14.906-7.563 1.071-1.096.906-2.375.906-2.375s-2.587 1.239-4.563-.063c-1.01-.665-1.54-2.467-1.875-4.406z" fill="#5e5148" overflow="visible" enable-background="accumulate"/><path d="M75.736 222.276c-.271.02-.546.059-.844.125-1.305.29-4.247 1.501-6.406 2.188-5.95 1.893-11.916 3.749-17.969 5.281-3.551.899-10.75 2.313-10.75 2.313-1.448 7.802-3.267 9.15-1.906 16.438l35.912-14.143.991 2.455c.604.805 3.285 1.282 3.285 1.282l-2.75-4.281.719-.281c-.502-2.905-.735-6.768-.313-7.719.705-1.586 3.156-2.937 3.156-2.938 0 0-1.227-.858-3.125-.719z" fill="#6c5d53" overflow="visible" enable-background="accumulate"/><path d="M37.227 244.725l36.022-14.177 2.127.31.051.639-2.312-.269-35.888 13.713zM69.267 230.057c-.704 3.258.35 5.016 1 6.469l1.469-.719c-.708-.902-1.215-3.204-1.219-5.75h-1.25zm-11.375 3.531l-1.563.688c.301 3.534.996 6.465 2.469 8.125l1.938-1.594c-1.194-1.898-2.753-3.112-2.844-7.219zm-11.188 3.438l-1.563.344c.221 4.209 1.404 6.781 2.719 9.156l1.844-.969c-1.493-2.107-2.892-4.348-3-8.531z" fill="#483e37" overflow="visible" enable-background="accumulate"/><path d="M46.279 230.934s-1.233-1.233-2.819-1.233c-1.586 0-6.871 1.762-8.985 2.643-2.114.881-9.866 4.581-11.452 5.285-1.586.705-3.524 6.695-2.995 10.747.529 4.052 9.69 21.494 11.099 21.846 1.409.352 17.442 2.995 19.204 2.29 1.762-.705 7.752-7.047 8.28-10.395.529-3.347-.888-9.88-.888-9.88l-2.702 1.277s1.828 9.484-1.343 11.951c-3.171 2.467-5.646 4.171-8.369-1.586-2.879-6.087-9.095-19.505-5.462-28.453.984-2.423 6.431-4.493 6.431-4.493z" fill="#7c916f" overflow="visible" enable-background="accumulate"/><path d="M139.815 233.04s4.334-1.098 10.057 1.418c5.723 2.515 1.586 18.675 1.586 18.675s-3.63-6.661-4.335-7.366c-.705-.705-5.533-3.805-5.533-3.805z" fill="#5d6c53" overflow="visible" enable-background="accumulate"/><path d="M115.236 197.463c-.522.036-.936.242-1.031.906-.19 1.328.844 4 .844 4s-.168-1.907.781-1.813c.949.095 1.505-.466 1.125-.656-.38-.19-2.384-1.341-1.625-1.531.759-.19 4.938 1.438 4.938 1.438s-2.174-2.093-3.313-2.188c-.569-.048-1.197-.192-1.719-.156zm4.25 3.188c-.633.166-1.351 2.745-2.063 2.656-.759-.095-1.5.5-1.5.5s-.01.737.844 1.781 4.838 1.623 5.313 1.813c.474.19-.68-1.438-1.344-1.438s-1.035-2.086-.75-2.75c.285-.664.75-2.281.75-2.281s-.461-.091-1.125-.281h-.125z" fill="#d38d5f" overflow="visible" enable-background="accumulate"/><path d="M231.857 20.99l-123.897 204.867h2.056l173.25 176.077.257 1.799-174.792-177.106 123.768-204.224z" fill="#f4eed7" overflow="visible" enable-background="accumulate"/><path d="M114.812 224.592s-2.29-1.938-2.467-3.171c-.176-1.233 1.334-2.117 3.259-2.555 5.734-1.303 19.644 0 19.644 0l5.99 2.026zM114.662 225.56s-1.595 2.541-1.388 3.77c.206 1.229 1.914 1.613 3.881 1.446 5.859-.497 18.718-5.959 18.718-5.959l5.093-3.748z" fill="#782121" overflow="visible" enable-background="accumulate"/><path fill="#483e37" overflow="visible" enable-background="accumulate" d="M106.621 224.78l246.377-36.62.355 2.386-246.377 36.62z"/><path d="M350.012 187.77l.529 4.052 6.695-.881 3.524 2.819 21.318-8.457-22.903-2.643-3.171 4.052z" fill="#b3b3b3" overflow="visible" enable-background="accumulate"/><path d="M359.486 182.682c.161 1.132.522 2.491 1.281 3.156.919.804 12.424.257 20.563-.219l.75-.313-22.594-2.625z" fill="#e6e6e6" overflow="visible" enable-background="accumulate"/><path d="M74.726 233.979c.776 1.946.747 4.485 3.986 4.485 3.239 0 6.416-2.492 7.163-3.114-.747 1.993 1.059 7.724 3.8 6.852 0 0 6.113-.686 8.97-1.744 3.226-1.195 6.822-4.376 7.817-5.513 1.471-1.68-.467-4.641-.467-4.641s2.865-.81 5.108-1.557c2.242-.747 1.495-2.99.498-4.983-.997-1.993-2.242-5.232-3.239-6.976-.997-1.744-4.236-2.492-5.481-1.993-1.246.498-9.468 2.242-9.468 2.242s-3.239-.249-5.481.747c-2.242.997-12.956 7.724-12.956 7.724s-1.366 5.673-.249 8.471z" fill="#fca" overflow="visible" enable-background="accumulate"/><path d="M88.861 228.557s.186 2.439-.188 2.875c-.374.436-4.786 3.784-6.281 4.531-1.495.747-6.219 1.313-6.219 1.313l.031.281c.686.514 1.514.906 2.5.906 3.004 0 5.866-2.098 6.875-2.906l.031-.031.25-.188-.031.156c.484-.07 2.078-.26 2.344.219.311.561.563 2.375.563 2.375s1.253-2.626 2-2.813c.747-.187 3.063 1 3.063 1s-.564-.439-1.063-.938c-.498-.498-3.875-6.781-3.875-6.781z" fill="#d38d5f" overflow="visible" enable-background="accumulate"/><path d="M145.677 193.32c0 .222-.135.403-.302.403-.167 0-.302-.18-.302-.403 0-.222.135-.403.302-.403.167 0 .302.18.302.403z" fill="#fff" overflow="visible" enable-background="accumulate"/><path d="M155.406 202.446s-2.013-.47-2.483-.134c-.47.335-.403 1.141-.738 1.208-.335.067-1.745-.201-1.745-.201l1.342.738s1.208-.805 1.879-1.006c.671-.201 1.745-.604 1.745-.604z" fill="#c87137" overflow="visible" enable-background="accumulate"/><path d="M105.662 397.085s-2.699 20.654-3.838 26.727c-1.139 6.073-3.707 59.948-4.087 62.605l-1.518 8.73-.38 7.212-2.12 5.088-5.536 24.361 21.654-2.634s7.971-15.942 8.73-18.219c.759-2.277-.38-5.314-.38-5.314l2.921-3.681c.939-.939-1.024-3.911-1.024-3.911l25.051-83.125h2.277s16.705 53.63 18.223 57.425c1.518 3.796 4.865 11.272 4.865 11.272l-.824 6.924 3.013 2.189-1.074 3.416s-4.888 1.898-2.611 4.934c2.277 3.037 5.805 4.263 5.805 4.263s-1.227 6.836-4.263 8.354c-3.037 1.518-3.017 9.017-3.017 9.017l23.913 3.416s4.934-6.453 4.934-9.489c0-3.037-1.518-5.314-1.139-7.212.38-1.898 4.934-5.314 4.555-10.248-.38-4.934-6.453-55.796-9.489-69.84-3.037-14.044-12.526-37.577-12.526-37.577z" fill="#483e37" overflow="visible" enable-background="accumulate"/><path d="M177.767 391.776l-72.094 5.313s-4.174 20.114-5.313 26.188c-1.139 6.073-3.058 60.343-3.438 63-.38 2.657-2.281 6.844-2.281 6.844l.781 1.906s-5.313 3.013-5.313 4.531c0 1.518 4.938 2.656 4.938 2.656l-4.938 5.313 2.281 1.531-5.563 21.156 6.313.469 4.563-21.25 6.813-2.656h-7.594c-4.471 0-1.261-2.017.375-3.781l7.594-1.156-8.719-1.906 1.906-2.656 3.406-1.875-2.656-1.531s5.303-64.146 6.063-67.563c.759-3.416 3.063-10.625 3.063-10.625s.352 5.313 2.25 5.313c1.898 0 30-4.188 30-4.188-2.469 10.382-10.559 19.515-15.938 29.25 6.217-9.539 13.019-16.737 18.594-28.844l1.656-.156.625-2.125h2.281l1.125 4.188c5.707 17.563 8.577 36.123 14.813 53.5 1.518 3.796 6.063 13.281 6.063 13.281l-1.906 5.313c1.61 2.281 3.438 1.531 3.438 1.531v3.406s-5.715 1.901-3.438 4.938c2.277 3.037 6.094 4.938 6.094 4.938s-5.049 3.701-6.145 6.465c-1.256 3.168.051 10.222.051 10.222l6.469.938c.019-3.795.121-14.461.75-15.719.759-1.518 4.563-5.344 4.563-5.344s-8.695 1.906-9.5-2.656l3.031-4.531 5.719-3.813s-5.246.065-7.594-1.5c-1.345-.896 1.125-7.219 1.125-7.219l-16.193-54.609 14.772 16.103c-8.168-8.389-14.11-18.559-18.704-29.807 3.9 4.394 8.753 5.928 13.313 8.344-2.798-2.959-10.902-6.343-10.518-8.347 13.035-2.457 22.377-2.357 30.8-1.621-3.675-10.968-7.781-21.156-7.781-21.156z" fill="#241f1c" overflow="visible" enable-background="accumulate"/><path d="M109.382 380.636l-4.01 22.519c.997-.747 2.99-1.495 2.99-1.495s.997 13.953 3.737 14.451c2.741.498 35.878-5.481 39.616-5.731 3.737-.249 32.141-2.492 35.131-1.993 2.99.498 5.481 2.99 5.98 1.993.498-.997-9.717-24.417-10.714-25.912-.997-1.495-3.488-12.209-3.488-12.209l-53.319 1.495z" fill="#5d6c53" overflow="visible" enable-background="accumulate"/><path d="M114.511 378.781c6.614-.827 47.262-5.2 51.671-5.2l16.517 4.084s-1.654-4.685-2.205-6.89c-.551-2.205-4.409-15.433-3.583-19.567.827-4.134 1.654-7.992 1.654-9.646 0-1.654-4.685-4.134-4.685-4.134s-11.299-4.134-23.977-2.48c-12.677 1.654-40.512 15.984-43.268 17.914z" fill="#502d16" overflow="visible" enable-background="accumulate"/><path d="M166.517 372.588l-41.219 1.156-17.438 7s-4.471 13.446-5.219 15.938c-.747 2.492-.75 7.969-.75 7.969s-4.747 10.97-3.75 11.219c.997.249 3 .25 3 .25s3.222-12.221 4.219-12.969c.371-.278.883-.542 1.375-.781.256-1.587.483-2.777.625-2.813.759-.19 3.793-1.529 2.844-1.719-.949-.19-3.031-.375-3.031-.375s2.676-12.52 3.625-13.469c.949-.949 31.313-5.125 31.313-5.125s3.23 1.149 5.508.96l17.74-2.111c1.613-.474 2.27-3.305 2.27-3.305z" fill="#37483e" overflow="visible" enable-background="accumulate"/><path d="M117.609 350.576l-8.717 3.231 1.594-3.094c-1.863.993-3.351 1.812-3.844 2.156-2.756 1.929-2.75 3.313-2.75 3.313s5.776 3.011 5.5 6.594c-.276 3.583-2.474 12.96-2.75 14.063-.276 1.102-3.795 5.548-3.875 6.875-.134 2.214 3.313 2.219 3.313 2.219 1.006-1.812.535-3.727 6.344-4.688 6.576-1.088 48.778-6.344 53.188-6.344 4.409 0 13.964 2.124 13.964 2.124l.854 2.564 2.27-1.923c-.285-2.088-3.776-2.014-3.776-2.014l-1.531-4.375-7.219-3.219-44.787 1.876s-2.274-15.749-3.412-17.078c-1.139-1.328-4.365-2.279-4.365-2.279z" fill="#3b2210" overflow="visible" enable-background="accumulate"/><path d="M105.809 361.681l2.033 10.057c8.075-4.67 49.274-4.196 58.322-2.616 0 0 9.37.827 12.126 0 2.756-.827 10.748-11.024 10.748-12.402 0-1.378 0-6.614-3.032-6.614s-12.126 3.032-13.78 3.032l-7.717-1.102c-1.873-2.919-9.517-2.783-14.606-.827 0 0-11.437 1.102-21.91 3.032-10.473 1.929-22.185 7.441-22.185 7.441z" fill="#a05a2c" overflow="visible" enable-background="accumulate"/><path d="M119.986 356.244c-7.658 2.359-14.188 5.438-14.188 5.438l-1.094 12.531 2.286 1.17s.33-1.535 1.135-2.139c3.249-3.249 38.991-5.336 43.423-4.531 6.547 1.727 14.625.406 14.625.406s9.369.827 12.125 0c2.451-.735 9.01-8.863 10.438-11.625-.398-.067-.768-.125-1.063-.125-1.879 0-3.706 8.852-12.875 10.75-2.103.435-12.877-1.612-14.219-1.344-1.342.268-9.125.25-9.125.25s-8.327-.268-9.938 0c-1.61.268-23.094 2.156-23.094 2.156z" fill="#784421" overflow="visible" enable-background="accumulate"/><path d="M157.986 346.213c-3.652.005-8.086.339-11.125 1.826-1.498.733-3.419 2.287-3.281 3.565.138 1.278 1.506 14.949 1.781 15.972.276 1.023 1.231 4.486 4.125 4.87 1.855.246 17.104.518 18.344-.377 1.24-.895 3.832-4.593 3.281-6.638-.551-2.045-2.599-13.301-2.875-15.218-.276-1.917-3.311-3.759-4.969-3.826-1.188-.048-3.09-.177-5.281-.174zm-.156 3.42c1.623-.002 3.026.08 3.906.116 1.228.05 3.483 1.42 3.688 2.841.204 1.42 1.717 9.761 2.125 11.276.408 1.515-1.519 4.265-2.438 4.928-.919.663-12.188.472-13.563.29-2.144-.284-2.858-2.837-3.063-3.594-.204-.757-1.242-10.909-1.344-11.856-.102-.947 1.359-2.095 2.469-2.638 2.252-1.102 5.513-1.359 8.219-1.362z" fill="#c8ab37" overflow="visible" enable-background="accumulate"/><path d="M145.081 353.689c-1.678.194-.619 2.364.138 2.205 2.696-.566 4.434-.303 5.65.413 1.142.673 1.066-2.072.138-2.48-1.492-.657-3.712-.393-5.925-.138zM146.321 362.163c-1.074.258-.981 2.5.069 2.411 1.822-.154 3.636-.29 5.098.276 1.099.425 1.718-2.221.138-2.549-1.502-.312-2.916-.713-5.305-.138z" fill="#a0892c" overflow="visible" enable-background="accumulate"/><path d="M82.889 523.479l29.986 2.657s-10.248 46.307-10.248 48.205c0 1.898-3.037 7.971-4.934 9.869-1.898 1.898.38 5.693.38 5.693s1.139 8.35.759 9.869c-.38 1.518-3.666 7.215-3.666 7.215s2.256 4.644 3.037 7.211c.782 2.568 6.159 12.489 3.565 15.58-2.594 3.09-7.872 6.212-13.414 5.15-5.542-1.062-14.152-1.018-14.723-5.786-.655-5.468-.29-15.511 3.34-21.834.432-4.227-2.216-5.885 4.021-13.61 0 0-2.467-1.708-3.985-5.124-1.518-3.416 2.088-7.781 2.467-9.299.38-1.518-4.555-7.971-3.037-12.526 1.518-4.555 6.453-43.27 6.453-43.27zM163.546 519.874c7.781.759 33.781.949 33.781.949s-13.095 53.519-14.234 57.884c-1.139 4.365 1.328 7.022-.38 8.92-1.708 1.898-3.606 3.226-3.606 3.226l.38 2.277s1.518 0 1.708.949c.19.949-.569 3.796-.569 3.796l.569 2.847s1.328-1.708 2.657-.949c1.328.759 10.628 8.92 13.095 9.11 2.467.19 9.299.19 11.007 2.088 1.708 1.898 1.328 6.263.759 7.022-.569.759-2.657 1.898-11.007 2.467-8.35.569-15.942-1.139-18.219-1.139-2.277 0-10.818 2.088-14.613 1.898-3.796-.19-7.971-.759-8.92-1.139-.949-.38-2.277-12.336-.759-15.942 1.518-3.606 3.416-5.124 4.175-6.073.759-.949-.759-3.416-2.467-3.985-1.708-.569-.38-3.985.759-5.124 1.139-1.139-.569-4.365-.38-5.504.19-1.139 4.365-31.124 5.504-36.248 1.139-5.124.759-27.329.759-27.329z" fill="#784421" overflow="visible" enable-background="accumulate"/><path d="M96.024 578.128s2.952-2.416.403-2.818c-2.55-.403-8.991.805-9.931 1.342-.939.537-5.502 5.636-3.623 6.441 1.879.805 5.502 1.342 5.502 1.342s-2.013-1.342-2.281-2.281c-.268-.939 6.978-4.428 8.052-4.563 1.074-.134 1.879.537 1.879.537zM82.892 523.494s-4.95 38.695-6.469 43.25c-1.518 4.555 3.442 11.013 3.063 12.531-.112.45-.538 1.18-1 2.031l.375-.219c2.416-1.342 3.48-6.186 2.406-7.125-1.074-.939-3.366-4.301-3.5-5.375-.13-1.037 7.492-41.947 8.031-44.844zm-6.125 64.406c.058.23.151.464.25.688 1.518 3.416 3.969 5.125 3.969 5.125-.468.58-.86 1.091-1.219 1.594 1.915-1.102 4.436-2.541 5.25-2.813 1.208-.403 1.474-1.744.938-2.281-.492-.492-7.06-1.435-9.188-2.313zm13.219 8.781c-1.51 0-3.208.085-4.281.219-2.147.268-7.272 3.908-7.406 2.969-.052-.361-.164-.986-.281-1.563-1.533 3.592-.722 5.822-1.046 8.992-3.63 6.324-4.009 16.365-3.354 21.833.571 4.767 9.204 4.718 14.746 5.78 3.216.616 6.336-.159 8.901-1.537-1.991-.508-4.484-1.168-5.074-1.523-.898-.54-14.331-.375-15.73-1.517-1.399-1.141-1.159-4.039-1.152-6.62.008-2.581 5.413-18.475 6.084-18.878.671-.403-1.61-1.088-2.281-1.625-.671-.537 2.164-2.142 2.969-2.813.805-.671 8.846-1.884 10.188-1.75 1.342.134 1.349-1.057.813-1.594-.268-.268-1.584-.375-3.094-.375zM163.549 519.869s.389 22.22-.75 27.344c-1.139 5.124-5.31 35.111-5.5 36.25-.19 1.139 1.514 4.361.375 5.5-1.139 1.139-2.489 4.556-.781 5.125 1.688.563 3.196 2.964 2.5 3.938 2.381-2.053 6.36-4.954 6.938-5.531.805-.805 7.002-2.813 8.344-2.813 1.342 0 .939-1.877 0-3.219-.939-1.342-4.579-.296-7.531.375s-7.235 7.384-7.906 7.25c-.671-.134-2.009-1.855-1.875-3.063.134-1.208 5.364-6.329 6.438-7 1.074-.671 1.057-2.272-.688-2.406-1.745-.134-2.281-1.608-2.281-3.219 0-1.572 11.139-55.405 11.688-58.063-3.692-.127-6.953-.272-8.969-.469zm16.063 70.594c-1.095.454-2.2.934-2.656 1.219-1.074.671-6.191 3.086-6.594 4.563-.403 1.476 1.083 2.143 2.156 1.875 1.074-.268 4.417-3.342 5.625-4.281.38-.296.733-.537 1.313-.969l-.344-2.031.5-.375zm1.406 5.656c-.754.491-1.626 1.055-2.344 1.594-1.61 1.208-5.892 3.232-6.563 5.781-.671 2.55.658 2.952 2 2.281 1.044-.522 4.989-3.693 7.031-5.344l-.531-2.563s.232-.832.406-1.75zm-23.406 3.969c-.767.953-1.637 2.235-2.406 4.063-1.518 3.606-.199 15.558.75 15.938.949.38 5.111.935 8.906 1.125 3.796.19 12.348-1.906 14.625-1.906 2.277 0 9.868 1.726 18.219 1.156 8.35-.569 10.431-1.71 11-2.469.139-.186.286-.596.375-1.125-4.029 1.529-18.1 2.437-20.469 2.188-2.55-.268-8.305-3.357-9.781-3.625-1.476-.268-6.459 3.222-8.875 3.625-2.416.403-10.987.281-13-2s-.267-12.224 1.344-13.969c1.61-1.745 5.221-.54 6.563-.406 1.342.134.688 1.344.688 1.344s3.077-2.007 2.406-2.813c-.671-.805-3.358-.259-4.969-.125-1.51.126-5.244.009-5.375-1z" fill="#502d16" overflow="visible" enable-background="accumulate"/></g></svg>