<svg xmlns="http://www.w3.org/2000/svg" width="395.889" height="569.98"><title>centaur</title><path d="M306.656 45c-13.951-.192-27.396 5.67-36.75 13.969s-14.792 19.224-11.844 29.156l9.406 31.625c-3.494 6.161-6.165 9.996-10.438 13.063-4.357 3.126-10.647 5.646-21.219 8.938-15.686-4.553-27.595-3.697-35.781.938-8.289 4.694-12.531 13.161-13.063 22.781-.208 3.761-.865 4.215-1.938 6.125-13.471 16.233-17.314 28.117-18.656 38.563-13.971 12.05-17.033 18.846-25.875 30.625-.36.057-.714.089-1.094.188-3.026.781-4.542 2.887-7.625 3.938-4.728 1.61-8.917 2.849-12.625 7.594a1.607 1.607 0 0 0-.219.406c-1.222 3.068-.533 6.336-.75 7.844-.04.278-.314 1.092-.688 2.094-.374 1.001-.831 2.237-1.063 3.656a1.607 1.607 0 0 0 0 .375c.088 1.114.418 2.173.656 3.156.239.983.301 1.868.25 2.063-.809 3.078-.696 4.686-.25 8.063.116.879.151 2.154.219 3.375s.094 2.3.563 3.406a1.607 1.607 0 0 0 .094.188s.257.4.625.75.933.812 1.781 1.344c4.354 2.727 8.105 3.88 11.938 4 3.832.12 7.646-.748 12.469-1.813 1.555-.343 2.76-1.411 3.625-2.719.821-1.24 1.432-2.763 2-4.469.214-.055.445-.042.656-.125.177-.068.379-.183.625-.344v.031l.063-.063c.24-.15.5-.303.75-.625.246-.317.481-.662.719-1.031l.031-.063a1.607 1.607 0 0 0 0-.031l.063-.094.094-.156c.127-.198.263-.396.406-.656.117-.207.139-.307.125-.281l.313-.594v-.031c.057-.114.188-.31.313-.594v-.031l.094-.25a1.607 1.607 0 0 0 .031-.031c.114-.281.205-.575.313-.906l.031-.031h-.031c.342-.966.58-1.855.656-2.75.951-.09 2.148-.145 3.5-.688.31-.124.581-.226.875-.406.294-.18.703-.542.906-1.094.204-.551.099-1.023.031-1.281-.067-.259-.135-.395-.188-.563-.194-.613-.387-1.743.094-4.313 2.323-1.548 4.666-3.169 7.031-4.906 1.718-1.261 3.438-2.561 5.188-3.969 2.623-2.112 5.29-4.422 8-6.969 3.196-3.004 4.391-6.337 4.844-9.719.435-3.255.368-6.607.969-10.406 1.313-1.378 2.404-2.514 3.281-3.469l.281-.313c.377-.413.707-.809 1.031-1.188l.375-.406c.241-.29.478-.578.75-.938l.375-.5.031-.031c-.684 10.03.047 19.992.563 29.844a1.607 1.607 0 0 0 0 .188c.958 5.253 2.062 8.89 3.75 11.219-.051 4.388-.256 8.713-.188 12.438.063 3.433.385 6.233 1.375 8.469l-.438 1.188c-.537.074-1.056.07-1.625.219-1.028.269-2.099.655-3.063 1a1.607 1.607 0 0 0-.875 2.281c-.381.194-.827.374-1.156.563a1.607 1.607 0 0 0 .5 2.969 1.607 1.607 0 0 0 .719 2.781c-10.603 19.701-13.585 41.605-10.656 62.625-2.123-.107-4.245-.223-6.594-.375a1.607 1.607 0 0 0-.125 0c-6.978.097-11.923 2.673-15.438 6.563-3.515 3.89-5.684 8.949-7.75 14.156a1.607 1.607 0 0 0-.031.125c-1.704 5.725.556 11.119 3.438 16.188l-1.719 1.688c-7.433 7.378-13.848 13.568-17.281 16.531-8.716 7.523-12.237 15.072-12.813 21.594-.575 6.522 1.749 11.905 4.375 15.281a1.607 1.607 0 0 0 .094.094c2.798 2.984 10.461 10.206 18.438 18.438 7.977 8.231 16.228 17.499 19.906 23.906 5.737 9.994 9.845 14.525 13.5 21.313 7.06 13.111 14.953 17.203 22.188 21.688a1.607 1.607 0 0 0 2.094-.375l23.125-28.469a1.607 1.607 0 0 0-.188-2.219c-3.242-2.853-7.181-5.698-10.844-7.813-3.663-2.115-6.842-3.668-9.688-3.281-2.862.389-4.572.112-5.594-.375-1.022-.487-1.528-1.164-2-2.219s-.792-2.46-1.313-3.906c-.52-1.446-1.299-3.01-2.813-4.156a1.607 1.607 0 0 0-.031-.031c-4.655-3.268-12.472-12.287-19.438-21.938-6.707-9.292-12.681-19.235-15-25.344 2.049-2.689 5.274-4.962 9.313-7 .417-.211.875-.417 1.313-.625 3.785 11.276 6.817 23.004 10.75 34.344a1.607 1.607 0 0 0 .031.031c1.83 5.023 3.67 9.938 12.5 13.563 14.538 5.967 27.799 15.711 45.406 17.281a1.607 1.607 0 0 0 1.625-.969c3.633-8.723 3.548-21.374-.313-31.188-1.93-4.907-4.82-9.121-8.906-11.625-4.087-2.504-9.323-3.114-15.25-1a1.607 1.607 0 0 0-.906.781c-.871 1.73-1.4 1.88-2.281 1.875-.881-.005-2.328-.591-3.969-1.344-2.679-1.23-4.683-3.506-5.625-8.906-1.447-8.293-4.045-16.231-6.5-24.125.337-.167.659-.318 1-.5l.156-.094c.505-.272 1.027-.523 1.531-.813.386-.221.418-.263.125-.094.508-.293.997-.595 1.5-.906l.094-.063.344-.25h.031c.362-.228.789-.46 1.219-.75.492-.331.968-.695 1.469-1.063a1.607 1.607 0 0 0 .031 0c.365-.278.369-.303 0-.031l.344-.25c.536-.402 1.041-.852 1.563-1.281 28.037 21.094 56.816 26.639 90.688 32.594a1.607 1.607 0 0 0 .094 0c4.603.586 8.794.745 12.75.688 2.377-.034 4.675-.154 6.906-.313 5.66-.401 10.97-1.044 16.594-1.344 7.915 13.114 15.911 22.328 29.875 29.813.198.106.416.269.688.438l.313.188h.031l.281.219c.212.151.38.283.531.406.163.133.376.291.563.469l.188.188.25.25a1.607 1.607 0 0 0 0 .031l.375.406c.099.126.21.298.344.5l.094.156.188.313.063.156c.315.6.555 1.186.688 1.781.083.372.1.419.031.094.129.61.172 1.264.156 1.938-.037 1.278-.359 2.535-.781 3.594l-20.219 41.25c-13.081 8.767-20.122 17.597-23.969 25.156-3.892 7.647-4.602 14.072-5.344 17.313a1.607 1.607 0 0 0 1.313 1.938l41.532 6.344a1.607 1.607 0 0 0 1.719-.938c1.68-3.761 1.638-9.073 1.719-14.219.078-4.945.35-9.641 1.281-11.719 3.391-1.559 5.866-2.92 7.563-4.344 1.822-1.529 2.856-3.216 3.344-5 .966-3.531.199-7.055 1.438-13l.031-.063c2.414-7.339 6.095-16.96 9.625-25.781.255-.637.519-1.211.781-1.844a1.607 1.607 0 0 0 0-.031l.719-1.781.75-1.906.781-1.906.344-.844c1.926-4.705 3.035-7.414 4.125-10 .936-2.225 1.188-2.796 1.531-3.594 15.163 9.005 27.358 10.558 33.375 13.563 6.635 3.313 7.991 8.063 7.938 13.438-.17 17.182 4.027 33.921-.406 50.313-13.518 13.541-12.33 25.13-14.906 33.094a1.607 1.607 0 0 0 1.375 2.094l39.375 4.031a1.607 1.607 0 0 0 1.719-1.219s1.292-5.535 2.344-12.625c1.052-7.09 1.902-15.725.969-22.344-.269-1.909-1.08-3.325-1.656-4.5-.576-1.175-.946-2.065-.875-3.25 1.57-26.191.85-62.587.781-66.313-.076-4.128-2.379-6.961-5.094-9.188-2.715-2.227-5.884-4.108-8.5-6.781-3.153-3.223-3.587-5.992-1.938-9.594 13.382-29.216 19.012-47.084 19.063-62.469.044-13.196-4.208-24.557-10.75-39.063 4.07 4.405 9.172 11.144 16.125 22.438 6.505 10.565 3.759 22.959-.75 36.344-4.509 13.384-10.755 27.454-10.094 41.156.156 3.228 1.172 7.557 2.156 11.156.985 3.6 1.938 6.438 1.938 6.438a1.607 1.607 0 0 0 2.969.188c1.799-3.715 3.566-7.483 5.375-10.344 1.025-1.622 2.056-2.771 3.031-3.625-.411 6.309-3.566 10.909-7.094 15.875a1.607 1.607 0 0 0 2.25 2.25c2.096-1.498 4.909-2.302 7.594-4.188 2.149-1.509 4.002-3.905 5.031-7.594.885 1.263 1.314 2.761 1.5 4.594.285 2.802-.056 6.155 0 9.469a1.607 1.607 0 0 0 2.969.813c18.007-28.994 26.327-75.923 12.813-105-19.869-42.75-53.74-52.714-75-52.375-19.337-8.895-41.166-5.966-52.5-4.688-24.721 2.788-36.274-4.808-53.969-9.563-3.794-1.02-8.818-4.09-14.188-7.875-4.2-2.961-8.652-6.271-13.031-9.406h.094a1.607 1.607 0 0 0 .031 0c.441.036.929.097 1.469.125a1.607 1.607 0 0 0 1-2.906c-2.866-1.981-6.181-3.372-9.781-4.344a1.607 1.607 0 0 0-.938-1.75c-.334-.147-.71-.308-1.094-.438l-.188-.063h-.031c-.305-.089-.468-.114-.188-.031-.742-.22-1.466-.37-2.188-.438-.232-.022-.537-.055-.906-.063h-.344l-.531.031c.211-4.734.472-9.7 1.094-14.125.702-4.994 1.847-9.316 3.344-11.594 6.442-9.801 15.274-15.915 21.75-25.969 7.193 13.868 14.839 20.283 25.313 27.844.157.688.325 1.368.563 2 .179.477.381.845.531 1.156 2.386 4.961 6.951 7.216 11.313 9.594.59.322 1.188.615 1.781.906h.031v.031h.031c.397.194.79.408 1.188.594-.057.266-.104.511-.125.688l-.031.406c-.04.666.022 1.302.156 1.906.011.052.011.187.063.375.057.206.113.307.125.344.036.11.1.341.25.688a1.607 1.607 0 0 0 0 .031c.145.331.3.604.438.844v.031l.219.344a1.607 1.607 0 0 0 .031.031l.063.094c.733 1.138 1.683 2.125 2.75 3.031l.281.25h.031c1.984 1.614 4.313 2.941 6.469 3.906 4.556 2.041 9.565 2.885 14.688 2.281 2.439-.287 4.05-2.327 5.469-4.875 1.419-2.548 2.637-5.855 3.656-9.531 2.038-7.352 3.258-16.107 3.125-22.688-.05-2.441-1.498-4.394-3.344-5.719-1.845-1.325-4.125-2.209-6.438-2.938-2.312-.728-4.658-1.279-6.563-1.781-1.904-.502-3.467-1.123-3.625-1.25l-.469-.406-.094-.063c-1.788-2.203-3.55-4.304-5.25-5.844-1.875-1.698-4.775-3.479-7.25-4.906-2.146-1.237-3.489-1.894-3.938-2.125-2.24-6.854-4.532-13.116-10.625-20.156.429-8.043-.196-16.578-4.406-23.438-4.229-6.89-12.164-11.718-25.125-12.375-2.423-2.444-4.27-4.695-5.719-6.938l-.031-.031-.063-.125a1.607 1.607 0 0 0-.031-.031l-.438-.688v-.031l-.281-.5a1.607 1.607 0 0 0 0-.031l-.094-.125c-.792-1.429-1.39-2.98-2-4.531 1.998 2.286 4.41 4.376 7.563 4.75 2.198.261 4.868.946 7.438 1.375 2.569.429 5.1.736 7.281-.406 2.673-1.4 3.733-3.459 4.563-4.906.829-1.447 1.386-2.424 3.875-3.406a1.607 1.607 0 0 0 .531-.344c1.555-1.495 2.233-3.136 2.75-4.719.517-1.583.912-3.166 1.969-5.156 1.507-2.838 3.466-4.914 5.531-7.438 2.065-2.523 4.205-5.488 5.844-9.875 1.467-3.927.908-7.43 1.094-10.563 1.852-1.845 3.082-3.624 3.844-5.313a1.607 1.607 0 0 0 .375-.438c1.843-3.142.901-6.189.844-8.406a1.607 1.607 0 0 0-.5-1.156c-.117-.81-.281-1.63-.281-2.344-.056-14.037-2.801-25.924-8.75-35.219-5.949-9.294-15.102-15.899-27.5-19.469-3.973-1.144-7.983-1.695-11.969-1.75z" transform="translate(-116.427 -32.625)"/><path d="M309.857 295.779c20.144-1.789 56.829 5.99 77.879 51.279 13.122 28.232 4.984 74.945-12.724 103.458-.107-6.344 1.438-13.514-4.041-17.173-1.299 10.367-7.851 10.224-12.627 13.637 4.025-5.666 8.186-11.251 7.576-19.698-4.508.939-8.032 8.759-11.617 16.162 0 0-3.757-11.299-4.041-17.173-1.269-26.303 24.413-55.862 10.607-78.287-25.579-41.545-27.889-26.374-39.901-34.85l-11.112-17.356z" fill="#28170b"/><path d="M160.354 253.531l-77.281 3.031c-1.111-.22-3.571.569-5.563 1.281 1.984.31 2.56.855 2.531 1.5-1.644-.234-2.967.496-4.281 1.25 1.464.114 3.136-.189 3.969 1.188l-.188.313c-1.17.427-2.198.854-3.031 1.281l2.031.406c-12.923 22.761-15.271 48.77-9.813 72.906-17.399 17.342-39.669 40.075-47.656 46.969-16.96 14.638-13.018 28.486-8.219 34.656 5.357 5.714 30.847 29.185 38.563 42.625 5.677 9.889 9.752 14.416 13.5 21.375 6.894 12.802 14.321 16.537 21.634 21.071l23.117-28.484c-6.313-5.556-15.466-11.227-19.251-10.712-12.182 1.656-8.266-7.454-12.906-10.969-10.142-7.119-30.906-36.051-35.375-48.844 7.922-11.884 34.096-14.022 48.406-26.75 28.046 21.501 56.758 26.975 91.031 33 14.467 1.84 24.804-.476 36.875-1.031 8.024 13.483 15.784 22.543 29.813 30.063 6.516 3.493 6.262 9.332 4.75 13.125l-20.438 41.688c-26.363 17.475-27.455 34.876-29.035 41.775l41.549 6.336c2.839-6.354.318-21.098 3.142-26.392 14.959-6.708 9.432-9.116 12.125-21.719 5.906-17.976 19.438-49.5 19.438-49.5 15.689 9.776 28.071 10.978 34.875 14.375 7.147 3.569 8.869 9.198 8.813 14.906-.168 17.004 4.215 34.027-.5 51.031-13.61 13.373-12.105 24.242-14.883 32.829l39.383 4.035s5.052-21.798 3.281-34.363c-.443-3.145-2.721-4.892-2.531-8.063 1.563-26.073.85-62.449.781-66.188-.131-7.15-7.559-9.154-13.156-14.875-3.48-3.557-4.113-7.308-2.25-11.375 26.971-58.882 21.992-70.958 4.531-108.594-19.346-35.135-59.184-29.706-76.25-27.781-25.102 2.831-37.117-4.906-54.563-9.594-8.428-2.265-20.437-12.703-31.406-20.156.584-.807 3.831-.282 6.281-.156-3.214-2.221-6.901-3.813-11.125-4.688l.641-1.256c-3.051-1.342-5.362-.831-7.766-.556-1.253-.458-2.45-.793-3.594-.969z" fill="#483e37"/><path d="M107.5 322.469c-11.119 4.388-39.656 10-39.656 10l55.018-4.621s-10.315-7.371-15.362-5.379zm69.25 16.688l-20.969 28.625c-7.648-5.468-14.013-12.363-21.688-20.313l-61.125 6.563-5.563 26.281 10.75 5.125.094-.031c4.52-2.156 8.753-4.643 12.281-7.781 28.046 21.501 56.758 26.975 91.031 33 14.467 1.84 24.804-.476 36.875-1.031 8.024 13.483 15.784 22.543 29.813 30.063 4.407 2.362 5.698 5.817 5.625 8.969 1.237.511 1.684 1.403.906 2.906 4.861 4.892 10.831 10.917 15.25 17 .518-1.294 1.001-2.422 1.5-3.656.447-1.105.819-2.039 1.25-3.094l.625-1.563c1.927-4.708 3.064-7.441 4.156-10.031 1.139-2.709 1.621-3.854 1.844-4.375-25.577-20.562-37.817-36.256-41.5-55.281-.73-3.772-8.461-9.627-11.656-9.469-19.957.988-33.906 1.498-42.531-4.281-5.819-3.899 2.537-20.448 5.406-31.563l-12.375-6.063z" opacity=".5"/><path d="M190.198 13.969c-26.965-.372-52.429 22.879-47.031 41.063l9.625 32.344c-7.416 13.21-11.518 16.653-33.313 23.406-31.44-9.345-46.327 3.735-47.344 22.156-.22 3.987-1.124 5.029-2.125 6.813-13.751 16.489-17.338 28.14-18.594 38.563-14.538 12.429-17.046 18.905-26.438 31.313-.539.064-1.066.145-1.594.281-2.321.599-4.014 2.719-7.5 3.906-4.769 1.624-8.433 2.658-11.875 7.063-.968 2.431-.363 5.432-.656 7.469-.183 1.269-1.343 3.287-1.75 5.781.127 1.601 1.28 4.206.875 5.75-.773 2.944-.663 4.073-.219 7.438.269 2.034.144 5.164.656 6.375 0 0 .328.563 1.875 1.531 8.368 5.24 13.587 4.126 23.229 1.999 2.239-.494 3.519-3.138 4.723-7.006.728.01 1.688-.279 2.049-.742 1.922-2.473 3.297-6.421 2.781-7.875.722-.189 2.79-.133 4.563-.844 2.24-.898-.646-.377.813-7.063 6.685-4.422 13.482-9.381 20.625-16.094 5.851-5.498 3.915-11.323 5.344-19.656 6.724-7.059 6.795-6.997 10.188-14.438-2.081 12.679-1.008 25.353-.344 38.031 1.016 5.566 2.258 9.306 3.75 11.063-.086 9.165-.781 17.94 1.25 21.438l-3.406 9.625-1.344 3.125c-.841-.06-1.419.926-2.031 1.781l1.781-.25c-1.062 1.106-2.081 2.799-1.969 4.375.737-.644 1.465-1.241 1.969-.719-.096 1.741-.291 3.531.531 4.813-1.09-.041-1.631 1.181-2.25 1.969 1.198-.873 2.396-.705 3.594-.156l-.188 1.25c.947-.081 1.623.822 2.094 2.406-1.07.034-1.439.769-1.813 1.5 1.565-.679 1.682.088 2.125.531-1.414.529-1.486 1.505-1.5 2.5.802-.85 1.604-.696 2.406-.625-1.137.586-.883 1.636-.625 2.688.513-.838 1.23-1.27 2.219-1.156l.25 1.938c1.068-.081 2.084-.081 2.219 1.938-1.07.792-1.058 1.583-1.219 2.375l1.969-.375c-1.211 1.229-1.38 2.458-1.156 3.688.708-1.22 1.417-1.687 2.125-1.719l-.25 2.063c.291-.735.646-1.345 1.406-.906l1.813 3.219c.592-.419 1.215-.832 1.813-1.25.807.594.614 1.188.5 1.781l1.063-2.313c2.24-1.474 2.889.629 4.281 1.063.107-1.384.351-2.772-.688-4.156.933-1.181 1.962-1.28 3.469-2.281 2.021.927.856.078 2.5 1.875l.25-3.688.844-.563c1.817 1.53 2.401 1.132 3.031 3.375l.688-4.5c1.101-.659 4.51-.803 6.813.844l.25-3.031c2.845-2.01 3.913-1.834 6.531-1.125-.472-1.386-.401-2.077-1.344-2.625 2.468-2.128 5.194-3.224 8.375-2.5l-.938-2.375c3.161-1.233 4.088-.656 6.313.219-.843-1.996.451-2.729-.188-4.094 2.054-.827 4.072-1.392 5.656-.813l-2.156-1.719c.856-.456 1.667-.889 2.5-1.344 2.603.093 2.695.541 3.75 1.563-.012-1.354.099-1.708-.25-3.063 1.69.298 3.127.935 4.313 1.906-.745-1.143-1.8-2.131-3.219-2.938 1.464-.816 2.933-1.627 4.406-2.438 1.334.108 1.982.644 1.969 1.594.917-.698 1.662-1.46 1.25-2.656 1.763-.227 3.462-.262 4.563 1.5-.224-1.457-.748-2.739-2.969-3.031 2.854-1.496 6.477-4.016 8.375-6.625.377-11.25 1.704-24.344 5.75-30.5 7.148-10.875 16.91-16.931 23.219-28.063 7.568 15.698 15.259 21.679 26.594 29.844 1.327 6.915 6.377 9.366 11.781 12.313 1.1.6 2.302 1.175 3.531 1.75.092.496.4.965.281 1.469-1.158 4.901 4.875 9.007 9.813 11.219 4.308 1.93 9.014 2.725 13.844 2.156 5.998-.707 11.101-22.775 10.844-35.469-.15-7.394-16.533-8.185-19.375-10.469l-.594-.5c-1.836-2.274-3.666-4.383-5.313-5.875-3.33-3.016-11.406-7.125-11.406-7.125-2.365-7.262-4.454-13.457-10.906-20.719.974-16.139-2.561-33.896-28.75-34.844-6.903-6.505-9.959-13.458-12-22.5 3.194 3.703 6.709 10.508 11.906 11.125 4.721.56 10.705 2.736 13.781 1.125 4.601-2.41 2.947-6.146 8.594-8.375 2.639-2.537 2.152-5.166 4.438-9.469 3.24-6.1 8.159-8.765 11.281-17.125 1.364-3.653.689-7.084 1-10.625 7.709-7.229 4.28-12.069 4.281-17.031-.11-27.658-10.903-46.192-35.094-53.156-3.828-1.102-7.71-1.634-11.563-1.688z" fill="#deaa87"/><path d="M155.281 57.844c-.24.007-.477.033-.719.094-1.704.43-.406 5.188-.406 5.188s1.895-1.59 2.781-1.125c4.35 2.283.671 9.089 3.281 13.25 1.101 1.755 1.922 3.356 3.688 3.781 0 0-.695-3.628-.656-4.531.132-3.099 1.328-4.852.375-7.344-1.437-3.759-4.746-9.422-8.344-9.313zM221.781 77.406c-.958.736-2.875 1.849-2.5 5.281.713 6.525-1.217 24.368-3.563 23.75-1.437-.379-7.887-2.08-10.813-5.094-.684-.705-.344-2.406-.344-2.406-3.894.045-1.939 3.946-1.719 6.156 2.154 2.643 8.573 3.42 13.688 2.844.95-.107 1.345-1.255 1.5-2.031 1.606-8.029 2.421-13.931 2.906-21.281 1.752 3.123 2.159 6.252 3.25 9.375l-1.188-7.406c2.301-.49 1.801-.979 2.438-1.469 2.02.346 4.429.571 6.625.156-2.795-.479-3.717-3.192-6.969-7.5l-3.313-.375zM197.093 81.563c.456 1.179-.178 2.728 2.406 3.906l-5.438 4.156c2.534-1.146 4.411-2.681 6.969-3.813 2.077-.554 4.784-1.353 6.438-3.625-3.099.669-6.966 2.743-10.375-.625zM220.968 84.125c.516.108 2.136.598 4.188.969-1.685-.033-3.315-.102-4.219-.656l.031-.313zM164.375 92.156c-2.553 7.162-6.496 16.44-1.75 22.219 2.066 2.516 4.518 4.031 6.406 5.781 1.112 1.031 1.585 2.471 1.156 4.688 1.749-.977 2.69-2.307 4-2.719 1.747-.55 1.444 2.454.188 3.469l-9.563 7.719c-3.483 3.128-1.524 4.473 1.063 4.813 8.586 1.126 19.192 3.228 27.5 3.344-7.192-7.203-9.544-12.767-11.938-22.281-7.647-9.613-16.475-8.752-17.063-27.031zM156.25 93.313c-9.821 11.667-17 31.342-15.531 46.25.303 3.071 3.751 3.164 6.063 2.5 4.13-1.186 4.086-3.196 6.063-4.813-3.559-.348-8.842-1.252-8.75-7.5.197-13.409 4.468-23.785 12.156-36.438zM145.343 102.938c-5.501 6.389-9.318 16.618-17.844 16.094 1.513 1.48 5.045 6.215 6.25 4.469 5.468-7.926 8.022-14.015 11.594-20.563zM196.031 110.094c-1.821.845-2.116 2.124-2.844 3.281.934-.404 1.531-1.509 2.844-1.063 5.006 1.702 11.298 3.23 14.094 3.688 1.104.181.764 1.585-.063 2.281-.636.535 1.781.656 1.781.656 1.264-2.463.718-2.474 1.406-3.656-4.576-.322-11.033-2.933-17.219-5.188zM110.562 113.281c-.922.003-1.367 1.497 2.063 4.656 13.691 6.44 14.61 12.519 21.219 19.313 1.935 1.989 5.337-4.18-.25-8.094l-22.344-15.656c-.222-.155-.475-.219-.688-.219zM198.562 116.406c-1.171.236-.855.962.375 1.781 2.516 1.676 4.645 1.935 7 2.313 1.011.162 1.173-.756.688-1.5-3.336-.539-5.511-1.336-8.063-2.594zM156.687 141.156c-3.084.27-4.832 3.812-2.938 3.75 19.157-.629 23.469-.019 35.188.188 1.795.032 3.87-1.804-1.969-2.156l-29.656-1.781c-.217-.013-.419-.018-.625 0zM81.062 142.531s.069 1.844.25 4.469c-4.879 18.694-6.872 36.488-24.5 47.313-3.424 6.233-2.72 6.519-4.188 10.469 1.473-.693 2.964-2.61 4.438-1.5 3.509 2.429 9.569-.701 6.219 6.531-3.454 7.456-10.611 12.022-18.281 16.188l-3.219-12.938s-8.026-3.637-10.656-3.781c-.956-.052-2.153.088-3.25.281 4.937.365 9.63 2.757 11.219 3.281.741.348 1.432 1.392 2.063 2.813-.403 1.089-1.049 2.058-2.5 2.563-4.474 1.555-7.801-1.256-13.406-.719-1.866.179-5.199.682-6.594 2.156 4.733-.845 9.793.11 15 1.875-1.518-.853-2.757-1.388-2.938-2.688 2.564-.269 4.785.673 6.875 2.063l.719 4.438c.144 2.238.092 4.434-.625 4.594-8.344 1.858-16.125 2.952-25.938.688l-.438 2.906c.696-1.317 2.853-2.128 4.031-1.875 5.688 1.22 15.706 1.521 23.406.438 1.492.875.182 5.09-.75 7-8.344 1.858-16.125 2.952-25.938.688l-.438 2.906c.696-1.317 2.196-2.065 3.375-1.813 4.818 1.033 13.297 1.865 20.563 1.125-.632 2.416-1.828 6.392-2.875 6.625-8.344 1.858-11.187 2.546-21 .281l-.469 2.875c.696-1.317 3.29-2.159 4.469-1.906 4.662 1 10.646 1.529 16.875.969.011-.231.125-.396.156-.625 1.295-.143 1.56-.267 2.063-.75.235-.303.471-.629.688-.969v-.031c1.365-2.128 2.181-4.369 2.094-6.875 1.539-.234 3.057-.41 4.563-.844 2.24-.898-.648-.374.813-7.063 6.684-4.425 13.482-9.381 20.625-16.094 5.851-5.498 3.915-11.323 5.344-19.656 6.087-6.39 6.761-6.995 9.344-12.563l5.188-23.375-.063-.438c1.007 3.988 2.447 7.395 4.5 8.75 6.313 4.167 10.816 6.871 18.188 7.219 7.323.345 18.862 1.74 21.719-4.563 2.713-5.985 4.781-10.844 4.781-10.844 1.515-4.293 0-12.875 0-12.875 0 4.292-7.118 18.838-8.063 21.188-2.106 5.238-24.503 2.097-34.531-4.375-5.931-3.828-7.129-14.929-8.906-23.531z" opacity=".5" fill="#520"/><path d="M164.388 254.388l-.103 2.098c-1.905 2.736-4.683 4.53-7.473 6.232 1.941-.13 3.144 1.317 3.406 3.219l-3.813 2.375c-1.081 1.46-2.318 2.374-3.188 4.469.1-1.092-.801-.969-1.625-.906l-1.969 3.031h-1.406l-2.5 3.219-2.688-.344-.875 2.313v3.5c.677.21 1.255.539 1.75.969.607-1.446-.29-3.136-1.063-4.813 1.971-.196 4.016-.6 5.531.344.188-.952-.604-1.891-1.594-2.844 1.714-.542 3.45-1.156 4.469.156l.156-3.75c.747.722 2.28.508 1.969 2.5 2.385-1.547 1.59-3.733 1.781-5.719 1.724.371 2.723 1.071 2.781 2.156 1.108-1.024.883-2.546.094-4.281 1.718.196 3.376.461 4.625 1.594.59-1.012-.057-2.019-.875-3.031 1.934-.43 3.898-.935 4.906.719-1.152-2.017-.399-2.144-2.156-2.906 1.999-.339 4.001-.549 6 .75l-1.25-2.844c2.336-.847 3.88.154 5.531.906l-1.438-2.344c1.021-.696 1.573-.939 2.594.031.453-.929 4.95-.266 6.219-.188-3.214-2.221-6.901-3.813-11.125-4.688l.656-1.25c-2.541-1.217-5.365-.921-7.33-.674z" opacity=".5"/><path d="M197.844 159.75l-5.531 12.125c-7.887 17.301-50.727 21.609-54.656 2.875.291 6.913 1.399 9.192 4.063 10.781 11.369 5.722 41.613 5.555 47.75 2.063-6.29 11.954-15.945 26.096-25 37.844-6.185 7.613-9.867-.069-14.844-1.406 4.051 12.969 8.785 26.116 6.353 39.085 3.14-1.619 5.995-3.8 8.263-6.54-.039-.733.164-2.128.165-2.232.417-10.554 2.046-22.947 5.594-28.344 7.148-10.875 16.91-16.931 23.219-28.063 7.568 15.698 15.259 21.679 26.594 29.844 1.327 6.915 6.377 9.366 11.781 12.313 1.155.627 2.345 1.185 3.531 1.75.092.496.4.965.281 1.469-.773 3.27 1.673 6.175 4.844 8.406-1.177-2.717-.754-5.657 1.625-7.875l-1.25-1.313.063-.125c-1.587-1.81-2.542-5.335-.25-8.656-.917-2.671-1.295-6.094 1-8.281.913.484 1.832.867 2.781 1.031l18.813 3.25c1.263.307 2.39.29 2.688 1.938l.531-2.844c-4.868.091-9.628-1.072-14.375-2l-6.344-1.406c-1.115-.247-2.846-1.11-4.25-2.094-.746-3.251 1.809-9.064 4.594-8.531 4.535 1.788 7.029 1.734 9.906 1.969-5.168-2.983-8.385-5.509-12.219-7.313-1.486 9.618-4.536 8.91-5.563 18.563-1.078.99-3.37 1.698-4.531-.688-2.808-5.771-3.26-11.598-2.719-18.125.601-3.588 6.437-4.975 10.063-4.656 1.551.137 2.972.834 4.313 1.75-.097-.441.044-.696-1.563-1.5-3.242-1.624-7.965-1.834-11.5 1.125-5.366 4.492-1.336 23.001 1.438 24.031l-1.188 2.25c-1.349-1.984-6.094-7.343-6.438-10.875-.455 2.343-1.59 4.389-4.813 3.563-11.388-2.922-16.848-18.655-24.438-30.531-1.901-2.975-1.039-5.679-1.219-8.031 3.81-5.376 6.022-17.92 2.438-26.594zM122.718 190.906c-15.103 2.152-27.309 12.021-37.625 23.75-4.134 4.701-2.864 6.563-1.125 5.031 7.207-8.413 9.827-13.589 28.656-23.094 5.446-2.749 9.403-2.949 10.094-5.688zM125.75 205.438c-4.672 6.229-7.901 13.371-14 18.688-4.558 3.973-16.405.178-21.969-2.406 4.167 3.451 9.529 4.711 14.125 5.313 3.072.402 6.403-.215 9.219-.781 1.649-.332 8.416-13.868 12.625-20.813zM143.687 218.938c.047 4.711 2.818 9.445.125 14.156-1.704 2.981-18.352-2.172-21.719-5.688.442 1.099 1.002 3.797 3.656 4.906 9.863 4.121 17.216 4.693 19.188 3.813 2.541-1.136.786-11.63-1.25-17.188zM108.468 234.094c.085.085-7.551 16.651-9.219 17.031-1.745.398-12.633-.247-14.906-.5 1.641 1.389 12.81 3.695 15.156 2.781 3.892-1.516 9.681-19.313 8.969-19.313zM248.562 235.25l13.219 3.188c1.263.307 2.39.322 2.688 1.969l.531-2.844c-5.476.184-10.961-1.534-16.438-2.313zM146.093 238.5c-.366 9.433-8.516 17.057-14.656 19.969-6.12 2.902-11.3-.061-18.188-4.188.629 2.182 1.321 3.8 2.906 4.813 3.645 2.327 7.7 3.098 12.875 2.656 4.687-.4 16.066-8.697 17.938-18.063.443-2.217-.373-3.6-.875-5.188zM244.656 244.313l13.219 3.219c1.263.307 2.359.322 2.656 1.969l.531-2.844c-5.476.184-10.93-1.565-16.406-2.344zM99.718 253.594c-1.282.117-2.545.721-3.125 2.969-.828 3.205.4 4.645 1.375 6.188-.022-.004-1.406-3.93.906-5.188 1.421-.773 3.19-1.55 3.406-.25.78-.881 1.482-1.787-.375-3.656-.624-.027-1.418-.133-2.188-.063zM95.843 265.156c-1.052 5.219.077 11.592-4.188 15.281-3.057 2.645-7.653-2.319-9.344-6.188.457 3.115 1.249 5.59 3.938 7.188 3.374 2.004 7.918 1.36 8.563-1.375 1.251-5.306 1.41-9.603 1.031-14.906zM128.406 271.469c-3.997 5.227-13.941 12.819-27.531 11.875 1.872 1.622 8.787 1.83 13.281.25 7.221-2.539 13.046-7.216 14.25-12.125z" opacity=".5" fill="#520"/><path d="M196.917 66.156c-1.609-.028-3.43.12-5.75.375-.408 2.419-.595 4.687 0 6.438 5.307-1.56 9.82 2.324 15.031 3.406 2.02.419 4.042.86 6.063.625 0 0 .813-4.28.375-4.531-8.051-4.61-10.892-6.227-15.719-6.313zm30.094 5.813c-2.099.021-4.228.182-6.438.625-.005 1.96-.793 4.33.406 5.688 5.617-.268 10.714.994 16.031 1.625 1.481-2.525.69-5.037.625-7.563-3.683-.055-7.127-.409-10.625-.375zM194.826 78.906h3.914s3.665-3.221 5.303-2.778c3.319.898 3.788 5.682 3.788 5.682s-2.97-.335-5.808-.884c-2.407-.466-7.197-2.02-7.197-2.02z"/><path d="M206.278 78.859c0 .665-.484 1.204-1.082 1.204-.597 0-1.082-.539-1.082-1.204 0-.665.484-1.204 1.082-1.204.598 0 1.082.539 1.082 1.204z" fill="#fff"/><path d="M220.838 83.705c2.515.489 5.15 1.079 6.692.758l-1.515-.884c.459-2.725-.614-3.704-1.515-3.851-1.119-.183-3.319.583-3.662 3.977zM197.729 0c1.434 2.272 5.175 3.875 4.281 6.813-18.332-4.925-18.248-2.414-23.469-2.031l-15.656-4.031c1.335 2.587 3.692 5.287 2.531 7.563-8.078-4.711-10.201-3.443-14.656-4.531 2.984 2.768 7.277 5.213 7.813 8.594-11.062-4.49-19.615-1.913-28.781-1.031 8.266 1.875 18.213 2.262 23.75 6.563-14.408 4.072-17.492 7.14-17.188 9.875 3.62-1.008 7.255-3.098 10.875-2.281 0 0-14.879 4.18-18.813 10.344-1.132 1.774-1.156 4.813-1.156 4.813 2.956-5.712 9.389-6.829 14.156-10.125-1.673 5.753-5.071 11.375-3.031 17.438-3.885 3.135-9.434 7.498-28.531 4.281l4.281 5.063c.594.699 17.088 5.18 21.531 5.75-4.652.125-22.499 1.079-23.813.313 4.014 1.605 7.143 3.39 15.656 4.031-6.564.824-11.636 4.255-16.906 7.344 6.756-.92 13.425-1.648 19.188-.25 6.032.324-8.117 3.963-31.313 4.781-5.229.185 13.706 3.772 19.875 3.406-5.277.904-8.046 5.316-7.75 5.438 7.263-1.958 14.394-5.191 21.969-4.031-4.125 5.808-.909 12.332-12.375 17.406-5.802 2.568-12.404 1.587-16.281-9.844 0 0-4.511 6.999-1.406 9.094 15.136 10.211 22.063 1.545 34.227 4.028 10.502-4.348 16.614-13.086 21.085-23.466-3.15-7.402-5.432-13.98-6.563-21.719-.309-2.115.129-6.094 3.031-5.063 4.381 1.558 8.277 5.104 12.125 9.969l1.25 11.25-.616 2.783-.384 5.311h-2.531c3.542 2.668 7.083 6.239 10.625 11.594l-1.531-6.313h2.031l-4.031-14.875 1.622-7.967-.233-1.885 6.689-4.166c4.272-2.291 4.567-7.202 11.36-8.233 3.674-.558 4.381 3.995-3.031 8.094 5.682 2.652 23.259-1.802 24.75-1.531 3.324.603-18.156 10.136-18.188 10.125 8.259-2.225 17.74-6.802 24.5-8.344 3.401-.776-3.315 3.708-5.313 5.563 4.483-1.286 9.83-1.463 12.125-5.563 1.485 3.787-2.722 5.504-4.531 8.094 5.251-2.281 11.177-2.764 15.531-7.438l.25 3s8.639 9.552 9.219 9.969c.423.303.952-9.732-4.969-15.094 1.182-1.436 3.892 1.711 5.976 2.978.405-1.435-3.679-6.705-4.569-7.791 2.074-.279 5.866 4.026 8.844 6.156 0 0-6.655-11.696-10.438-15.406-.834-4.728-1.839-9.519-3.813-14.531l-.781 5.813c-4.408-9.876-9.789-16.903-20.313-23.469-4.846-7.853-14.128-11.376-18.188-12.625z"/><path d="M47.885 357.594c-3.253 3.26-6.476 6.467-9.469 9.438l14.188 29.156c3.087-1.558 6.523-3 10.125-4.406l-14.844-34.188z" opacity=".5"/><path d="M124.494 323.237c-17.088 1.599-11.832 9.027-65.66 5.556-13.216.183-17.612 9.346-21.718 19.698-2.303 7.74 3.373 15.124 7.929 22.692 10.889 18.086 14.941 39.654 21.871 59.636 1.842 5.055 3.143 9.149 11.617 12.627 14.781 6.067 27.868 15.649 44.952 17.173 6.818-16.371-.204-49.613-22.476-41.669-2.081 4.135-5.047 2.771-8.334 1.263-3.14-1.441-5.564-4.361-6.566-10.102-2.809-16.096-10.159-31.132-12.122-47.477 16.92-1.01 59.463 16.897 68.438 18.435 14.803 2.537 41.31-29.661 47.225-38.386l-65.155-19.445z" fill="#483e37"/><path d="M225.824 82.003c0 .591-.384 1.07-.859 1.07-.474 0-.859-.479-.859-1.07 0-.591.384-1.07.859-1.07.474 0 .859.479.859 1.07z" fill="#fff"/><path d="M113.135 415.844c-4.35.113-8.573.871-12.125 3.094-.186.371-.393.683-.594.969l4.219 10.531c.47 2.867 2.168 3.726 3.594 5-1.25-.309-1.553.944-4.313-1.781 1.677 2.639 2.841 5.491 6.094 7.5-3.15.335-6.553.329-10.375-.344 2.708 1.026 4.27 1.644 6.281 3.375-1.996-.321-3.49-1.526-4.5-.531-1.202.786.384 4.47 1.375 5.563-1.265.015-3.875.157-3.875-1.281l-2.125 3.219.594 1.25c8.115 5.339 21.099 10.574 30.737 11.433 5.45-12.669 3.811-32.541-2.112-47.152-4.048-.4-8.525-.956-12.875-.844zM91.323 464.188l-3.938 2.875c2.102.029 2.25.687 2.375 1.375-2.351-.729-3.349-.648-4.031-.375-.757 1.406-.845 2.936-3.156 4.031 2.48.288 3.18 1.641 4.031 2.906-2.104-.459-4.208-1.631-6.313-.875 1.292.556 2.125 1.427 2.406 2.656-1.894-.732-3.793-1.343-5.688-.75-.466 2.463-.674 4.522-.125 6.313-1.179-.693-2.353-.992-3.531-3.281-1.467 2.207-2.16 3.998-2.281 5.531l2.156 2.656c-1.551.065-2.942-.305-4.156-1.25l-1.063 1.625c5.79 9.245 13.228 20.25 19.442 24.103 8.924-1.482 19.995-22.236 25.603-34.768-5.88-5.174-17.195-12.412-21.732-12.772zM317.385 531.625c-8.291 10.902-9.23 20.79-11.563 28 1.649 12.627 38.422 12.562 44.335 5.92 0 0 .04-13.136.79-25.576l-1.438 1.969c-.196-2.92-1.489-3.135-2.281-4.563.138 2.09.33 4.207-1.5 5.313-.652-3.579-2.743-4.318-4.313-6.063.802 2.54-.469 4.724-1.625 6.938-.524-2.394-.731-4.862-2.531-6.938 0 0-2.646 2.266-3.656 3.781-.371 1.387-2.899-3.41-3.031-4.634-2.027.526-6.084 3.233-8.094 5.415-.16-1.846.495-4.126 2.281-6.165l-1.781-1.929c.13-.441-5.458 2.139-6.813 3.031-1.039.685 3.285-4.03 4.031-3.781l-2.813-.719zM213.292 511.281c-9.36 11.203-11.466 20.939-12.531 25.594 15.321 15.52 34.562 10.471 45.969 7.094 2.422-5.422-.23-17.929.688-24.781l-2.969-.094c-.126.989.252 2.074-1.125 2.75-.001-2.501-1.056-2.402-1.656-3.406-.386 1.785-1.017 3.169-2.406 3.281.712-1.11.343-1.976-.625-2.75l-2.906-.781c.816 1.677-.057 2.95-.5 4.313-.458-2.661-1.274-4.624-2.406-5.938-.134 1.513-.413 2.975-1.875 4.156.533-1.748.521-3.369-.625-4.781l-8.094-1.781c-1.987.648-2.309 2.126-3.031 3.406-.213-1.305-.544-2.601.875-3.906-1.104.584-2.503.984-2 2.531-1.669-1.179-1.62-2.384-1.656-3.563-1.221.465-2.436 1.502-3.656 3.313.006-1.396-.247-2.864 1.375-3.938l-.844-.719z"/><path d="M212.008 515.684c-3.254 4.342-7.849 11.179-9.688 20.711.869 1.464 1.939 1.927 3.043 2.214.622-8.098 2.345-11.81 6.357-20.4l.288-2.525zM315.426 538.382c-3.254 4.342-6.242 11.893-8.081 21.425.869 1.464 1.224 2.463 2.329 2.75.622-8.098 2.345-13.417 6.357-22.007l-.604-2.168z" fill="#999"/></svg>