<svg xmlns="http://www.w3.org/2000/svg" width="428.146" height="642.289"><title>dwarf warrior</title><path d="M255.875 86.625c-4.423.02-7.547 1.899-10.719 3.469-2.402 1.189-3.513 1.872-4.375 2.375-1.975-.082-16.142-.688-20.25-.688-2.126 0-3.012.562-4.188 1.094-1.176.532-2.397 1.189-3.719 1.969-2.643 1.559-5.635 3.566-8.625 5.688-2.99 2.121-5.948 4.34-8.375 6.281-2.427 1.941-4.118 3.291-5.531 4.969-2.789 3.312-2.102 5.816-1.969 8.563.133 2.746.592 5.698 1.125 8.531.867 4.608 1.613 7.279 2.031 8.844-1.111 1.897-2.136 3.824-3.094 5.75-.213.093-.264.033-.625.25-2.308 1.385-2.235 2.046-2.938 3.063-.702 1.016-1.397 2.16-2.031 3.375-.634 1.215-1.19 2.449-1.594 3.844-.202.697-.38 1.412-.375 2.5.005 1.088.236 3.076 2.094 4.563.426.34.788.507 1.188.75.246 2.765.568 5.07.813 6.313l-.125.375c-.301.975-.756 1.68-.719 3.875.013.763.159 1.438.375 2.063-.933 1.099-1.852 2.116-2.844 3.625-2.895 4.403-5.871 10.821-4.219 18.063.727 3.188 1.841 7.303 2.969 11.469-.391.862-.925 2.097-1.469 2.563-1.728 1.481-1.738 2.467-1.969 3.281-.231.815-.335 1.533-.438 2.344-.205 1.622-.321 3.522-.375 5.688-.108 4.33-.013 9.733.156 15.156.169 5.424.407 10.86.594 15.094.093 2.117.169 3.926.219 5.281l.063 2.188c-.094 1.507.081 2.58.344 3.531l-16.75 17.406a5.032 5.032 0 0 0-1.031 5.375c-.667 1.434-1.107 3.06-.781 4.688.498 2.489 1.424 2.987 2.188 3.813.764.825 1.574 1.567 2.5 2.344.854.716 1.862 1.408 2.813 2.125a5.032 5.032 0 0 0 0 .031c-.273.561-.155.339-.031.094v.031c-.185.372-.409.736-.563 1v.031l-.031.031v.031h-.031a5.032 5.032 0 0 0 0 .031c-.185.311-.348.482-.313.438-.462.578-.698 1.173-.688 1.156h-.031v.063c-.674 1.443-.637 4.177.5 5.75a5.032 5.032 0 0 0 .031.063c.579.778.748.821.656.719l.031.063.031-.031c1.372 1.314 2.33 1.529 3.156 1.781h.031c-.033-.008.214.086.75.219.475.117.763.165.875.188l.656.125a5.032 5.032 0 0 0 .031 0l.719.094h.031c.424.06.828.117 1.188.156.51.054 1.002.117 1.531.156 1.068.082 1.189.059 2.031.094-2.68 9.867-6.404 23.943-9.063 36.219-.769.51-2.696 1.695-3.281 4.594-.571 2.829-1.009 5.284-1.313 7.219-.152.967-.275 1.793-.344 2.563l.031 1.094a5.032 5.032 0 0 0 0 .031 5.032 5.032 0 0 0 .063 1.625v.031a5.032 5.032 0 0 0 0 .031 5.032 5.032 0 0 0 .031.094l.063.156a5.032 5.032 0 0 0 .063.219 5.032 5.032 0 0 0 .219.594c.354 1.231.757 2.254 1.156 3.094-.346.987-.729 2.148-.969 3.406-.502 2.635 1.139 4.998 2.25 5.906l.281.156c-.298 1.684-.079 2.639.25 3.344-1.778.597-3.712.917-5.969 3.625-2.166 2.6-2.191 4.856-2.281 7.031-.073 1.755.109 3.361.594 5.063 0 .065-.001.344-.031.719-.06.75-.187 1.892-.375 3.25-.376 2.715-.956 6.275-1.563 9.781-1.137 6.569-2.225 12.187-2.375 12.969l-1.75 2.875c-1.248 2.028-1.203 3.6-1.156 5.063.046 1.462.281 2.832.656 4.156.268.947.709 1.85 1.156 2.75-2.037 2.261-4.247 4.615-5.469 6.281-1.588 2.165-1.897 3.782-2.625 6.156-.728 2.374-1.452 5.157-2.063 7.875-.611 2.718-1.113 5.357-1.438 7.563-.162 1.103-.293 2.077-.344 3-.026.462-.034.904 0 1.438.029.465.104 1.122.531 2.125l-39.906 36.375-.25-2.406 10.281-9.406a5.032 5.032 0 0 0 1.594-4.219l-4.688-47.75a5.032 5.032 0 0 0-3.281-4.218l-5.625-2.063a5.032 5.032 0 0 0-1.813-.313l-37.406.656a5.032 5.032 0 0 0-2.688.844l-34.156 22.813a5.032 5.032 0 0 0-.813.688l-5.594 5.75a5.032 5.032 0 0 0-1.375 4.313l6.969 42.625a5.032 5.032 0 0 0 3.594 4.031l9.438 2.656.688 4.938c-3.714 5.209-7.176 11.116-9.031 15.063a5.032 5.032 0 0 0-.438 1.625c-1.492 14.513 1.79 24.801 4.813 33.969-.219-.666-.215-.622.031.125a5.032 5.032 0 0 0 3.656 3.344l9.063 4.031 1.656 11.969c-2.413 1.586-5.25 3.542-7.875 6.406a5.032 5.032 0 0 0-1.281 3.969l4.344 39.219a5.032 5.032 0 0 0 2.469 3.781l6.531 3.813a5.032 5.032 0 0 0 1.781.625l38 5.656a5.032 5.032 0 0 0 4.469-1.563l26.656-29.188a5.032 5.032 0 0 0 .813-1.188l3.094-6.344a5.032 5.032 0 0 0 .469-2.813l-4.375-36.031a5.032 5.032 0 0 0-3.063-4.063c-3.198-1.325-6.541-1.745-9.188-1.844l-.844-7.75 9.031-11.281.188-.156a5.032 5.032 0 0 0 1.844-4.438l-.25-2.625 45.625-42.25c.071 2.488 1.157 4.041 2.094 5.625.591.999 1.238 1.905 2 2.75s1.278 1.798 3.625 2.469c.292.084 1.83.497 2.719.75-.165 1.465-.321 2.91-.469 4.406v.063c-2.473-.194-5.105.144-7.219 1.875-2.255 1.847-3.094 4.728-3.094 7.094 0 2.113.329 4.285.625 6.531.296 2.247.563 4.518.563 5.5 0 2.282.888 3.902 1.719 5.156-.699-1.057-.712-1.013.031.094a5.032 5.032 0 0 0 .031 0c.33.489.568.78.719.969a5.032 5.032 0 0 0 0 .031c.334.418.574.627.656.719-.337-.379-.308-.288.156.219.363.396.644.614.75.719.261.26.543.539.844.813.259.234.571.551 1 .906.324.269.502.375.75.563.512 1.753 4.439 15.146 8.438 29.531 2.059 7.406 4.089 14.881 5.563 20.719.737 2.919 1.331 5.441 1.719 7.281.194.92.331 1.691.406 2.188l.031.281c.002-.176-.071.213-.563.938-.446.657-1.116 1.437-1.844 2.219l-.188.188c-.704.743-1.428 1.451-2.063 2.031-.384.352-.397.399-.063.094-.639.581-1.283 1.088-1.781 1.5l-.031.031-.813.656a5.032 5.032 0 0 0-1.781 4.688l.094.531v.063l.531 3.688-20.125 6.563-2.031-1a5.032 5.032 0 0 0-2.906-.469 5.032 5.032 0 0 0-.031 0 5.032 5.032 0 0 0-1.781.281s-7.454 2.613-15.406 5.844c-3.976 1.615-8.088 3.382-11.563 5.125-3.475 1.743-6.079 2.735-8.438 5.844-2.09 2.755-2.455 5.483-2.781 8.594-.326 3.111-.277 6.564 0 9.969.277 3.405.776 6.751 1.594 9.719.818 2.968 1.511 5.584 4.219 7.938 2.752 2.392 5.351 2.909 9.063 3.938 3.711 1.029 8.191 1.946 12.875 2.688 9.367 1.482 19.098 2.431 26.125.813 9.133-2.104 36.491-3.303 49.781-2.344 9.928.717 24.635.667 34.406-.469l.25-.031c.728-.087 1.361-.2 1.906-.281h.031c1.758-.259 3.299-.543 4.781-1l.031-.031h.188a5.032 5.032 0 0 0 .063-.031c.605-.196.923-.368.938-.375h.031c.306-.125.523-.248.594-.281a5.032 5.032 0 0 0 .031 0l.344-.188h.031l.281-.156c.303-.176.557-.362.781-.531-1.287.972-.935.741.156-.125h.031c.298-.242.66-.613.906-.906h.031l.031-.063.031-.031v-.031l.031-.031.906-2-.219.813-.625 1.094c.187-.24.42-.555.688-1.031a5.032 5.032 0 0 0 .031-.031c.418-.756.753-1.54 1.031-2.438.114-.367.237-.802.344-1.25a5.032 5.032 0 0 0 0-.031 5.032 5.032 0 0 0 0-.031v-.063c.084-.359.168-.736.25-1.188.244-1.349.433-2.818.531-4.406.066-1.05.087-2.131.094-3.25v-.031c.012-2.286-.112-4.734-.344-7.313a5.032 5.032 0 0 0 0-.031v-.031c-.471-5.196-1.459-10.909-3.063-16.594a5.032 5.032 0 0 0 0-.031l-.031-.063v-.063c-.509-1.79-1.121-3.544-1.75-5.281.366-.34.751-.581 1.094-1 1.564-1.912 2.498-4.916 2.031-7.719.093.557-.077-1.294-.063-3.375.015-2.081.071-4.887.156-8.125.17-6.475.446-14.761.625-23.063.179-8.301.278-16.586.094-23.25-.092-3.332-.254-6.255-.531-8.656-.139-1.201-.285-2.257-.531-3.281-.246-1.025-.413-1.998-1.469-3.406-1.142-1.522-2.534-2.541-3.906-3.344.195.114.019-.032-.563-.344l-.5-.25c-.495-.246-.885-.397-1.125-.5-.558-.238-.813-.306-.75-.281.053.021-.21-.124-.844-.344l-.469-.156-.094-.031h-.031c-.589-.191-1.247-.409-1.969-.594l-.656-.156-.563-.094c-.046-1.722-.429-2.644-.906-3.281.27-.343.61-.595.813-1 .95-1.899.887-3.98.5-5.438-.307-1.155-.783-1.908-1.25-2.656l.906-1.438a5.032 5.032 0 0 0 .656-1.625h.469c1.539-.033 2.311-.022 3.344-.125 3.285-.329 4.133-1.896 4.906-3.063 1.126.913 2.53 1.783 4.5 1.906 1.583.099 1.422-.073 2.031-.156.609-.084 1.347-.2 2.219-.344 1.744-.288 3.98-.696 6.438-1.156 3.219-.603 6.336-1.265 9.5-1.938.598 2.739 1.215 5.643 1.75 7.906.434 1.834.831 3.445 1.188 4.75.357 1.305.477 2.017 1.156 3.375.154.309 1.11 2.581 1.781 4.156-.337.228-.345.278-.75.531-1.81 1.131-3.17 3.104-3.656 4.938-.486 1.834-.33 3.443-.063 4.813.534 2.739 1.624 4.883 2.156 6.125-.038-.089.832 2.379 1.719 5.25.887 2.871 1.972 6.54 3.063 10.344 2.182 7.608 4.397 16.07 4.875 18.938 1.136 6.815 2.209 19.693 1.406 25.313-.156 1.092-1.439 4.394-2.938 7.281-1.499 2.888-3.048 5.436-3.938 7.125-.991 1.882-1.055 4.741-.094 6.594.961 1.853 2.292 2.758 3.438 3.438l.469.219c-2.313 6.114-4.431 13.597-4.406 25.375.026 12.103.287 20.589 4.844 27.438 4.659 7.003 12.878 9.682 21.938 11.094 9.059 1.412 19.558 1.592 30.469 2.188 16.499.9 30.212-1.376 38.531-5.469l.031-.031c1.488-.728 2.799-1.544 3.906-2.438-.159.129-.002.041.438-.344l.438-.406.156-.156c1.023-1.013 1.974-2.229 2.5-3.938 1.122-3.647 1.817-9.141 2.031-14.781.107-2.82.058-5.554-.281-8.063-.31-2.289-.395-4.62-2.875-6.875a5.032 5.032 0 0 0 .282-3.782s-3.885-11.916-6.406-18.563c.115-.181.268-.268.375-.469.964-1.808 1.156-4.519.313-6.688-1.079-2.774-3.357-7.049-4.813-10.688-.02-.05-.528-2.01-.906-4.375s-.77-5.361-1.063-8.5c-.586-6.279-.843-13.334-.5-17.281.404-4.641 1.313-15.466 2.063-25.719.375-5.126.717-10.114.938-14.125.22-4.011.388-6.543.188-8.75-.023-.251-.104-.771-.219-1.313h.031l-.063-.156-.031-.219h-.031c-.862-3.872-2.649-6.118-4.125-7.594-.103-1.561-.557-3.438-1.75-5.656l-.156-.313c-.12-.21-.177-.415-.313-.625l.031-.031a5.032 5.032 0 0 0-.25-.375 5.032 5.032 0 0 0 0-.063c-.167-.238-.418-.555-.719-.906-1.363-1.591-6.607-7.554-11.594-13.188.136-3.684.073-7.338.125-11.063.909.603 1.595 1.044 2.25 1.438.38 1.492 1.001 3.918 1.906 7.094 1.06 3.72 2.091 7.369 3.469 10.125.608 1.216 1.485 2.214 2.344 2.969v.031c-.265-.23-.39-.32.094.094a5.032 5.032 0 0 0 .031.031c.287.243.511.414.719.563.05.036.239.17.563.375l.531.313c.572.324.916.479 1.031.531a5.032 5.032 0 0 0 .031 0c.155.07.361.166.656.281-.268-.106-.186-.059.313.125a5.032 5.032 0 0 0 .031 0c.575.209 1.016.326 1.313.406h.031c.805.22 1.406.265 2.125.375.574.882 1.357 1.745 2.563 2.469 1.828 1.097 2.618 1.003 3.75 1.188 1.132.185 2.355.308 3.594.406 2.478.197 4.996.281 6.594.281 1.58 0 2.102-.242 3.25-.5 1.148-.258 2.498-.605 4.063-1.031 3.129-.853 6.993-1.993 10.844-3.25 3.85-1.257 7.683-2.605 10.813-3.906 1.565-.65 2.936-1.297 4.156-1.969 1.22-.671 2.285-.89 3.688-3.094 1.372-2.157 2.758-5.137 4-8.406 1.242-3.269 2.478-6.074 2.156-9.938-.2-2.406-.979-3.752-1.813-5.375-.833-1.623-1.812-3.27-2.781-4.781-1.757-2.74-3.196-4.617-3.5-5.031-.167-.348-8.618-17.972-14.094-29.344.25-.333.551-.664.719-1 1.098-2.196 1.544-4.306 2.031-6.531.487-2.226.818-3.77.906-5.531.105-2.109-.276-3.888-.781-5.188l-.219-.344-.813-48.094c1.187-1.355 2.303-3.388 2-5.75h.063l-.063-.406c-.041-.342-.26-2.275-.688-4.813-.232-1.376-.505-2.827-.844-4.188-.339-1.36-.432-2.403-1.688-4.219l-.438-.563c.572-.028 1.217.105 1.719-.031 2.225-.604 3.813-2.281 3.813-2.281a5.032 5.032 0 0 0 1.188-3.844c-1.001-9.589-7.024-15.36-9.906-20.531-1.508-2.705-3.729-3.967-5.031-4.781-1.303-.814-1.715-1.213-1.719-1.219a5.032 5.032 0 0 0 0-.031l-2.344-3.875c.3-3.557.594-7.188.594-7.188a5.032 5.032 0 0 0-.406-2.344l-4.75-11.156c1.572-.648 2.925-1.631 3.719-2.875 1.382-2.166 1.525-4.146 1.469-5.875v-.063c.115-1.011.243-2.156.281-3.313.039-1.179.274-2.093-.5-4.156-.842-2.246-1.295-2.219-2.031-3.125-.49-.604-1.12-1.284-1.719-1.969l.25-.063c3.017-1.006 4.903-2.668 6.344-4.25a5.032 5.032 0 0 0 2.875-4.219 5.032 5.032 0 0 0-1.719-5.594c-.357-.832-.577-1.57-1.125-2.5-.847-1.438-1.925-3.121-4.125-4.281-1.648-8.14-6.349-14.704-10.531-20.719-.147-1.325-.44-2.321-.813-3.531-.483-1.569-1.087-3.279-1.688-4.906-1.202-3.255-2.406-6.156-2.406-6.156a5.032 5.032 0 0 0-1.031-1.594s-2.993-3.441-6.438-5.594c-10.957-6.848-22.778-12.681-35.156-16.969l-.219-.281c1.213.533 2.436.947 4.219 1.125.832.083 1.587.68 3.969-.781.39-.239.758-.775 1.125-1.25.595.172 1.269.383 1.813.531.877.24 1.636.44 2.375.594.369.077.715.138 1.156.188.442.049.766.295 2.344-.156 1.664-.475 3.565-3.004 3.688-4.5.122-1.496-.217-2.112-.406-2.563-.379-.9-.646-1.196-.938-1.594-.583-.796-1.245-1.538-2.063-2.438-1.57-1.728-3.709-3.911-5.969-6.156l.063.031c3.68 1.394 7.351 2.805 10.313 3.875 1.481.535 2.782.967 3.844 1.313 1.062.345 1.263.638 3.125.781.781.06 1.781.379 3.75-.938.984-.658 2.051-2.087 2.281-3.469.23-1.382-.121-2.411-.406-3.063-1.139-2.606-2.007-2.612-3.031-3.344-2.048-1.464-4.893-2.977-8.594-4.438.494.195-.549-.354-1.688-1.438-1.139-1.083-2.599-2.667-4.188-4.531-3.176-3.728-6.93-8.623-10.469-13.563-3.539-4.939-6.87-9.932-9.313-13.844-1.221-1.956-2.225-3.63-2.875-4.844-.316-.59-.536-1.067-.656-1.344-.032-.562-.108-2.542-.125-5.188-.019-2.852.001-6.393-.031-9.969-.033-3.575-.115-7.178-.25-10.25s-.155-5.215-.813-7.563c-.215-.766-.534-1.875-.938-3.094-.27-.812-.587-1.666-.906-2.531-.176-.478-.346-.87-.469-1.188.047.121.009-.065-.188-.563-2.785-7.031-7.012-16.895-16.281-20.438-4.138-1.581-6.812.147-8.719 1.031-.675.313-1.1.508-1.531.719l-.688-.188c-1.153-.305-2.672-.714-4.438-1.156-3.531-.884-8.04-1.99-12.5-3.031-4.46-1.042-8.859-2.022-12.188-2.688-1.664-.333-3.057-.567-4.188-.719l-.313-.031-.125-.125c-1.276-1.157-3.233-2.903-5.563-4.75-4.659-3.695-10.6-8.189-17.969-8.156zm17.625 15.813c-.604 1.346-.729 3.111-.344 4.094-.141-.36-1.256-.865.156-3.875l.188-.219zm-88.531 66.344c.036.213.103.388.156.594l-.156.031-.094-.594.094-.031zm164.844 59.719l.406.094c-.302-.011-.365-.088-.406-.094zm-159.469 32.063c-.036.139-.056.278-.219.625-.211.45-.562 1.296-2 2.125v.031c-1.112.641-2.533.72-3.438.531-.904-.189-1.422-.494-1.75-.719-.463-.317-.495-.407-.594-.531l2.906-1.625.344.344 1.281-.219 3.469-.563zm136.531 112.844l.063.563-.125-.281.063-.281zm2.375 6.531c.3.4.548.801.938 1.219.671.72 1.488 1.487 2.875 2.094.823.36 1.977.468 3.188.375.126.395.238.813.375 1.188.621 1.694 1.32 3.171 1.938 4.313.617 1.142.829 1.574 1.5 2.469 1.228 1.637 2.183 1.929 3.094 2.375.91.446 1.823.775 2.813 1.125 1.979.7 4.199 1.372 6.313 2.031 1.613.503 2.872.961 4.031 1.406-.478 1.096-1.057 2.296-1.688 3.531-1.483 2.903-2.969 5.5-2.969 5.5a5.032 5.032 0 0 0-.563 1.375s-.535 2.242-.344 5c.074 1.061.367 2.33.813 3.625l-1.406.906c-2.808 1.852-2.969 4.444-3.031 6.156-.062 1.713.174 3.276.5 4.875.156.765.428 1.337.625 2.094-1.407-2.689-2.877-5.537-4.031-7.688-.908-1.692-1.708-3.134-2.344-4.25-.318-.558-.582-1.018-.844-1.438-.262-.419-.201-.576-1.156-1.531-1.516-1.516-2.605-1.874-3.656-2.156a5.032 5.032 0 0 0-.406-3l-3.938-8.563v-.031a5.032 5.032 0 0 0 .281-2.094l-1.094-12.656a5.032 5.032 0 0 0-2.063-3.656 5.032 5.032 0 0 0 .344-4.344l-.094-.25zm24.625 62.406c.958.511.971.639 1.594.844.127 1.022.235 2.059.406 3l-2-3.844z" transform="translate(-15.937 -86.625)"/><path d="M79.864 477.265l106.572-98.636-11.904-30.044-108.839 99.203z" fill="#784421"/><path d="M79.298 481.233l106.572-98.636-6.236-13.038-108.839 99.203z" fill="#502d16"/><path d="M23.177 422.279l13.038 94.101 32.312 3.401-9.637-93.534z" fill="#666"/><path d="M58.89 426.247l9.637 93.534 20.407-21.541-9.637-89.566z" fill="#4d4d4d"/><path d="M148.006 347.242s-10.021 10.823-12.226 13.829c-2.205 3.006-6.213 21.645-5.411 23.249.802 1.603 1.403 3.207 1.403 3.207s8.017-8.017 10.622-8.418c2.605-.401 8.618 16.434 8.618 16.434l21.846-6.213-5.01-37.679z" fill="#deaa87"/><path d="M162.628 254.88l-5.669 32.879s-1.701 2.834-1.984 4.252c-.283 1.417 3.401 5.952 3.401 5.952l-3.685 1.417-7.369 49.318 22.108 8.503 24.375-82.196z" fill="#501616"/><path d="M147.405 337.823c9.161-1.2 15.21 3.045 22.447 5.211l-4.81 10.622c-5.17-2.474-11.543-4.604-20.443-6.013zM155.021 309.564c9.161-1.2 15.21 3.045 22.447 5.211l-4.81 10.622c-5.17-2.474-11.543-4.604-20.443-6.013z" fill="#28170b"/><path d="M168.863 213.781s-8.45 30.099-12.416 48.702c-.369 1.731-2.696 1.958-3.004 3.484-1.127 5.583-1.788 9.578-1.586 10.453l9.776 4.162c6.629-.525 13.543-49.455 20.835-72.47z" fill="#c8ab37"/><path d="M169.063 252.844l-8.031 21.844-9.156 1.813c.85 3.606 2.094 4.875 2.094 4.875s-1.235 3.131-1.531 4.688c-.309 1.624 4.094 2.406 4.094 2.406 1.509-2.476 1.075-7.557 5.094-7.875 3.174-.251 6.435-11.649 9.75-25.938l-2.313-1.813z" fill="#504416"/><path d="M171.043 550.541l-27.78 9.046-4.399-1.965s-29.398 10.296-33.04 15.096c-3.642 4.801-1.896 25.704 2.339 29.386 4.235 3.682 33.004 8.773 43.63 6.325 10.626-2.448 37.263-3.458 51.256-2.448 13.993 1.01 39.215.367 41.583-2.624 3.875-4.894 2.677-34.851-9.898-52.156z" fill="#c8ab37"/><path d="M172.243 550.536l4.828 4.988 24.477 16.739s14.062 10.104 20.867 9.912c6.806-.192 9.918-.412 9.918-.412 2.769 7.857.758 16.049-.517 24.189 6.652-.476 11.812-1.316 12.819-2.588 3.875-4.894 2.663-34.85-9.913-52.154z" fill="#504416"/><path d="M291.106 566.501c-3.384 10.22-8.457 16.339-8.418 34.873.025 11.958.565 19.476 4.008 24.652 6.814 10.242 26.455 9.821 48.502 11.023 22.046 1.203 39.282-4.008 40.886-9.219l-9.305-30.464 1.288-20.844c.321-5.201-35.675-31.265-35.675-31.265z" fill="#c8ab37"/><path d="M328.532 547.25l-37.438 19.25c-.906 2.737-1.92 5.19-2.938 7.656h3.875s18.168-11.784 28.469-12.75c27.21-2.551 43.65 20.573 43.65 20.573l-1.838 1.418-5.53-2.835c1.976 6.652 1.457 11.307 1.688 16.563l2.01-.002c1.193 6.175 1.53 11.836.834 16.877l-.938 21.469c8.917-1.788 14.814-4.684 15.719-7.625 1.603-5.211 3.207-22.47 0-24.875-3.207-2.405-.813-5.594-.813-5.594s-5.215-16.034-7.219-20.844c-1.746-4.189-26.316-23.844-32.938-29.094z" fill="#504416"/><path d="M166.596 418.706s-5.669 36.28-2.834 41.949c2.834 5.669 66.891 43.082 66.891 43.082s.728-26.622.728-28.225c0-1.603-5.612-6.013-5.612-6.013s4.81 1.603 6.013-.802c1.203-2.405-2.405-5.612-2.405-5.612l2.806-4.409-1.603-24.852 39.683-4.81s7.215 36.476 8.818 39.683c1.603 3.207 9.219 22.046 9.219 22.046l55.316-3.207s7.616-76.56-2.405-88.986c-10.021-12.426-174.615 20.156-174.615 20.156z" fill="#501616"/><path d="M166.244 337.021s-17.837 29.462-18.439 30.865c-.601 1.403.483 3.664 1.036 4.522.86 1.334 2.17 3.294 2.17 3.294s-5.211 19.842-6.213 22.447c-1.002 2.605-.802 9.42 1.403 10.422 2.205 1.002 10.021 5.411 10.021 5.411s-1.804 6.213-2.205 8.418c-.401 2.205 2.605 6.814 4.008 7.215 1.403.401 11.223 3.207 12.025 3.207.802 0 2.405-2.205 2.405-2.205s.601 4.209.401 5.812c-.2 1.603 3.207 7.015 4.61 7.015 1.403 0 19.441 5.211 21.044 5.211 1.603 0 8.017-5.01 8.017-5.01s1.203 2.605.802 4.81c-.401 2.205 2.405 5.812 4.81 6.213 2.405.401 26.255.2 28.259 0 2.004-.2 4.81-8.017 4.81-8.017s2.205 6.614 5.411 6.814c1.342.084 24.932-4.318 27.658-5.612 2.636-1.252 3.608-19.04 3.608-19.04s3.197 3.006 5 3.006c1.804 0 26.504-8.134 29.276-10.647 2.11-1.913.846-8.677.846-8.677s1.354 2.288 2.757 2.488c1.403.2 21.846-7.215 21.846-7.215l8.217-5.211s-7.215-23.249-8.217-25.052c-1.002-1.804-4.209-2.605-4.209-2.605s3.608-3.006 2.405-4.81c-1.203-1.804-18.038-35.073-19.441-36.476-1.403-1.403-8.618-2.605-8.618-2.605z" fill="#504416"/><path d="M379.09 221.379s9.821 10.221 10.422 11.825c.601 1.603-.401 7.816-.401 7.816l-16.034-13.629z" fill="#c8ab37"/><path d="M163.839 303.952l3.006 5.211-.601 3.407-1.427 13.325-.604 2.663s-1.566 13.102 1.641 17.511l14.821 11.395 4.409-51.909z" fill="#504416"/><path d="M167.782 286.222l-3.566 2.23-.77 15.892 3.188 1.219 12.232.196 5.043-19.118-11.856-.884zm-.743 22.154l-2.813 2.375-.601 13.165 1.219 2 14.638 3.419-.401-20.182zm-3.061 19.851l-.992 2.989 1.291 12.182 15.411 11.852-1.425-24.535z" fill="#c8ab37"/><path d="M225.67 280.737l75.536 1.429 3.929 3.929 3.571 9.286-2.5 2.5.536 3.75 3.393.357 1.071 12.679-2.679 2.679.536 1.25 2.321-.179 3.929 8.571-1.607 4.643-28.929 15.536-36.429 13.036z" fill="#504416"/><path d="M244.242 285.023s25.536-2.143 28.75 0c3.214 2.143 5 5 5 5s1.786 8.929 1.071 11.429c-.714 2.5-22.321 1.429-22.321 1.429z" fill="#c8ab37"/><path d="M197.992 172.166l-7.143 40.714 51.429 2.143 56.071-58.571-25-10.714z" fill="#241c1c"/><path d="M255.036 191.96s-5.808-3.03-8.839-1.768c-3.03 1.263-11.869 11.112-14.647 11.112-2.778 0-31.315.253-31.315.253l-7.324-9.849s-16.162 19.698-18.435 20.708c-2.273 1.01-13.89 45.962-13.637 49.497.253 3.536 6.313 9.344 6.313 9.344l5.925 15.374 10.19.261s32.625-5.533 36.918-6.038c4.293-.505 85.038 7.633 85.543 6.117.505-1.515 13.127-55.738 13.127-55.738l-22.151-33.969zM157.809 206.608s-2.525 7.576-4.546 10.102c-2.02 2.525 10.607 2.525 10.607 2.525l28.284-14.142-13.637-5.051z" fill="#504416"/><path d="M370.446 179.839c5.494 9.642 12.271 19.028 14.647 29.294l-57.074-16.162 7.071-21.718z" fill="#312a25"/><path d="M194.68 32.104s-18.863 22.828-21.718 36.618c-.89 4.299 1.01 13.132 1.01 13.132s-1.028 2.71-1.01 3.788c.026 1.552 2.02 2.273 2.02 2.273s-11.232 9.968-8.839 20.456c2.985 13.082 11.364 40.659 11.364 40.659l60.104 4.546 39.901-52.528-1.515-56.569-52.023-26.769z" fill="#deaa87"/><path d="M215.375 66.688s-6.506.106-9.75 2.531c-1.53 1.144-1.299 4.951-1.219 5.563 2.282 17.479.875 28.531.875 28.531s3.797-1.008 5.313-.25c1.515.758 3.599 5.573 1.875 7.469-2.034 2.238-8.938-1.406-8.938-1.406s-3.428 3.279-7.469 3.531c-4.041.253-7.688-3.531-7.688-3.531s-1.258 3.173-3.531 1.531c-1.942-1.403-1.531 2-1.531 2s4.287 4.041 6.813 3.031c2.525-1.01 3.548 2.031 8.094 2.031 4.546 0 8.329-3.034 9.844-2.781 1.515.253 4.532 2.914 7.563 2.156 3.03-.758 4.893-5.152 4.813-6.844-.053-1.122-2.327-7.623-5.5-9.906-1.489-5.761-3.739-13.167-3.594-14.188.253-1.768 2.531-.5 2.531-.5s10.946 4.788 8.018 2.119c-2.619-2.899-2.297-4.452-2.58-7.432 0 0-3.436-1.134-6.719-.25-1.857.5-2.906.25-2.906.25s-.903.389.656-2.031c3.945-6.124 20.633 1.232 20.188 3.281l1.281-1s-6.693-6.68-9.219-7.438c-2.525-.758-6.433-1.54-9.969-.656 0-2.525 2.75-5.813 2.75-5.813zm2.281 6.594l-.375 1.875c-1.894-.47-3.482-.123-5.25 1 1.398-2.727 3.761-2.79 5.625-2.875zm17.563 5.781s3.174 2.552 2.78 4.066c-.219.841-2.28.621-2.28.621l-2.531.625c.459 1.254.101.107-2.513.068 0 0-.452 3.408-2.22 3.786-1.768.379-4.552.251-4.552.251 3.339 1.733 6.303 2.297 8.907.997 1.974-.985 3.206-1.932 2.659-3.697 0 0 4.722-.006 4.091-1.269-.631-1.263 6.003-.263 6.003-.263-3.735-1.154-7.111-3.027-10.344-5.188z" fill="#b4754b"/><path d="M206.549 61.903c-.138 2.561 1.515 6.819 3.03 7.071 1.515.253 7.978-2.902 12.122-2.778 5.086.152 14.647 4.293 14.647 4.293s-.884-7.45-5.556-11.112c-3.482-2.729-6.527-4.113-10.228-4.419-4.018-.333-8.534.463-11.743 2.904-1.23.936-2.19 2.498-2.273 4.041z" fill="#782121"/><path d="M198.469 68.969c-.379.126-1.375 1.906-1.375 1.906s-2.407-1.402-5.438-1.781c-3.03-.379-6.084 5.426-9.844 6.688-2.67.896-7.112 1.069-8.438.438 0 0 .469 3.232.469 5 0 1.768 2.019.501 3.281.375 1.263-.126.004 3.401-.375 3.906-.379.505-2.019.028-3.281.406-1.263.379 1.75 1.875 1.75 1.875 3.199-1.178 2.219 2.048 8.594 2.031 3.542-.365 8.969-5.813 8.969-5.813s-2.272 11.764-4.607 17.809c-5.728 3.188-4.734 6.371-4.986 7.066-.505 1.389 1.772-2.525 2.656-3.156.884-.631 2.779.14 3.031 1.781.253 1.641 1.875-3.563 1.875-3.563s8.098-35.095 7.719-34.969zm-13.5 8.156l.531 1.188c-1.108.226-1.991 1.239-2.866 2.281-.012-1.007.415-2.417 2.335-3.469zm4.906 4.094s-.61 6.441-5.906 7.281c-1.005.16-2.424-4.143-2.424-4.143s1.841-2.072 3.862-2.451c2.02-.379 4.469-.688 4.469-.688z" fill="#b4754b"/><path d="M173.719 72.257c.288-1.441 14.777-.397 17.173.758 2.594 1.25 3.03-6.566 3.03-6.566s-2.525-6.566-4.798-7.071c-2.273-.505-13.637 1.263-14.9 2.02-1.263.758-5.556 8.081-4.293 9.091 1.263 1.01 3.788 1.768 3.788 1.768z" fill="#782121"/><path d="M209.832 80.086s3.682-.966 5.556-.884c5.201.227 15.152 3.788 15.152 3.788l-.126-1.263s-5.444-3.861-8.586-4.798c-2.871-.857-6.221-1.833-8.965-.631-1.481.649-3.03 3.788-3.03 3.788z"/><path d="M215.514 77.308c0 .523-.452.947-1.01.947s-1.01-.424-1.01-.947c0-.523.452-.947 1.01-.947s1.01.424 1.01.947z" fill="#f2f2f2"/><path d="M192.659 80.212l-1.326-2.147s-5.638-.068-7.576 1.641c-.903.797-1.2 3.409-1.2 3.409s1.263-1.515 2.273-1.641c1.01-.126 7.829-1.263 7.829-1.263z"/><path d="M185.498 80.394c0 .453-.382.821-.853.821s-.853-.368-.853-.821c0-.453.382-.821.853-.821s.853.368.853.821z" fill="#f2f2f2"/><path d="M251.206 33.951c-7.392 12.083-10.122 24.167-13.929 36.25 0 0 4.286 6.429 4.821 8.75.536 2.321-1.071 5.179-1.071 5.179s-5.574 3.905-5.714 7.143c-.125 2.889 7.857 13.036 6.607 17.143-1.25 4.107-9.107 10.536-9.107 10.536l.357 23.393h53.571l34.821-52.5-48.571-55.714z" fill="#b4754b"/><path d="M203.266 216.457s-2.259 28.463-2.809 30.047c-.446 1.284-9.932 17.436-11.684 17.899-7.296 1.928-17.665 1.557-18.873 1.557-1.768 0-6.597-6.597-6.597-6.597l11.173-43.158s8.334-10.859 9.344-10.859c1.01 0 19.445 11.112 19.445 11.112zM210.559 247.039c-.253 1.515 13.962 17.621 16.74 18.126 2.778.505 46.425.283 48.446-.979 2.02-1.263 17.173-36.113 17.173-36.113l-6.061-3.283-4.293-11.617-15.405-7.324-1.263 3.03-17.678-2.778c-3.788-.505.505-11.869.505-11.869s-2.198-1.226-5.095.428c-5.079 2.901-12.306 9.421-13.593 9.421-2.02 0-7.829 17.425-7.829 17.425l2.273-14.142-8.081 17.173 1.768 9.344-6.061-6.313zM173.467 170.747l-25.254 26.264 1.515 2.525s-2.525.505-2.02 3.03c.505 2.525 14.647 11.617 14.647 11.617l28.789-13.132z" fill="#c8ab37"/><path d="M357.915 385.544s-10.971 9.754-11.538 13.155c-.567 3.401 1.618 29.077 2.468 31.627.85 2.551 8.932 7.003 8.932 7.003s3.539 14.255 5.523 18.223c1.984 3.968 9.07 3.685 9.07 3.685l41.308-21.43-18.003-55.817-22.171-9.768z" fill="#deaa87"/><path d="M307.747 217.466l-1.134 29.477s6.661 28.769 13.747 28.91l5.065 12.668c-3.211 3.951 2.212 12.718 2.729 13.408 1.701 2.267 18.14 5.102 18.14 7.936 0 2.834-6.236 13.605-6.236 13.605s-1.702 7.223 3.457 9.385l1.106 12.418c-1.794 10.093 2.062 20.924 2.806 22.413 1.701 3.401 7.369 20.407 7.369 20.407l33.445-15.872 5.102-64.623-5.669-23.809z" fill="#501616"/><path d="M344.31 295.694s2.267 8.22 3.118 9.92c.85 1.701 6.738 4.906 9.92 3.968 7.928-2.336 22.991-9.121 35.132-10.667 7.401-.943 8.251-.916 10.149.312 3.407 2.205 5.171.152 5.171.152-.791-7.571-5.916-12.574-9.285-18.618-1.49-2.672-5.072-3.244-6.657-5.861l-5.6-9.25z" fill="#504416"/><path d="M217.277 23.951c-3.393 5-17.857 8.214-20.714 9.107-2.857.893-15.893 18.75-15.893 18.75s-5.536-20-2.679-23.393c2.857-3.393 22.857-18.214 26.607-18.214l21.429.714s9.76-5.874 13.929-5.893c9.663-.043 22.547 14.523 21.964 13.036-.46-1.174 34.322 7.357 36.071 8.036.999.387 5.681-3.358 8.393-2.321 9.054 3.46 14.464 20 15.714 24.464l-62.143 117.857s-12.5 17.143-13.571 18.571c-1.071 1.429 1.964-8.571 1.607-9.286-.357-.714-20.357 22.5-21.964 26.607-1.607 4.107-4.107 16.786-5 14.821-.893-1.964 4.286-21.429 2.857-23.214-.709-1.828-6.963 17.671-8.727 24.268-.684 2.617-1.311-1.984-.332-8.056.971-6.017-.135-11.771-1.921-9.271s-1.907 13.304-1.63 19.98c.266 6.405 5.646 18.615 3.146 18.972-2.5.357-13.393-23.214-14.286-24.464-.893-1.25 2.321 10.893.893 9.643-1.429-1.25-5.893-12.679-6.071-14.107-.179-1.429 1.786 7.143.179 7.5-1.607.357-4.643-4.286-5.357-8.929-.714-4.643-4.464-9.643-4.464-6.786 0 2.857.357 5.357-1.607 1.964-1.964-3.393-13.393-34.643-14.107-31.786-.714 2.857 4.107 14.464 2.679 14.464-1.429 0-6.429-11.25-6.25-14.107.179-2.857-2.5-43.393 0-45.536 2.5-2.143 3.571-6.071 3.571-6.071l9.107 15.179s2.5-15.357 5.536-17.857c3.036-2.5 20.357-1.964 23.036-1.25 2.679.714 19.107 10.179 21.964 13.393 2.857 3.214 2.857 4.286 2.857 4.286s8.571-15.893 11.964-16.429c3.393-.536 23.965-7.019 23.965-7.019l5.179-39.679s-8.965-9.73-12-11.695c-3.036-1.964-15.893-25.714-18.929-28.393-3.036-2.679-8.036-4.821-8.036-4.821s2.5 1.25-3.393 1.071c-5.893-.179-13.571-4.107-13.571-4.107z" fill="#782121"/><path d="M283.25 34.219c-3.844-.004-7.991.677-12.625 2.406l22.656 39.969s-7.868-2-13.031-4.531c-9.196-4.509-24.219-18.906-24.219-18.906 2.276 3.575 4.236 6.416 5.188 7.031 3.036 1.964 8.375 10.906 8.375 10.906l-.531 12.313-.906 1.625 1.25 4.094-2.656 1.25 2.656 1.781-5.531 3.219s4.129.719 3.594 1.969c-.536 1.25-3.063 9.813-3.063 9.813s-16.951 10.902-20.344 11.438c-.228.036-.476.223-.75.469 0 0 13.496 12.732 17.344 20.938 2.137 4.558 2.781 14.844 2.781 14.844l-9.219-7.625-.406 18.438-2.375-4.406-4.063 14.594c.353-.324.591-.536.625-.469.357.714-2.696 10.71-1.625 9.281 1.071-1.429 13.594-18.563 13.594-18.563s2.295 3.75 3.188 2.5c.893-1.25 11.813-13.938 11.813-13.938s55.522-3.567 56.594-4.281c1.071-.714-15.897-17.491-15.719-18.563.179-1.071 19.991 9.643 23.563 10 3.571.357-4.085-3.741-5.156-4.813-1.071-1.071 14.813 4.451 16.063 4.094 1.25-.357-16.241-17.152-19.813-20.188-3.571-3.036-.549-3.013 1.594-2.656 2.143.357 29.304 11.228 31.625 11.406 2.321.179-1.433-2.853-8.219-5.531-6.786-2.679-31.987-39.625-32.344-43.375-.357-3.75.188-28.036-1.063-32.5-.387-1.38-1.177-3.929-2.344-6.875-5.393 3.236-9.307 2.388-14-.781-7.112-3.017-14.044-6.367-22.5-6.375z" fill="#501616"/><path d="M279.028 99.026s4.041-11.869 10.859-13.637c6.819-1.768 13.888 1.625 15.657 7.071 4.042 12.443-16.162 33.588-19.445 34.093-3.283.505-10.102 9.091-10.102 9.091s1.768-25.506.505-27.022c-1.263-1.515 2.525-9.596 2.525-9.596z" fill="#b4754b"/><path d="M282.816 102.309s2.778-9.091 6.313-9.849c3.536-.758 12.627 0 12.879 3.536.253 3.536-1.01 10.354-3.788 17.678l-14.647 9.344s9.004-5.923 11.869-10.859c2.6-4.479 4.293-14.142 3.788-14.9-.505-.758-11.364-1.768-11.364-.758s4.99 2.768 4.293 4.798c-.611 1.78-5.556 1.01-5.556 1.01s-2.273 4.293.505 5.808c2.778 1.515 2.525 7.576.758 8.334-1.768.758-8.586 2.778-8.586 2.778s4.546-4.041 5.051-5.808c.505-1.768-1.515-11.112-1.515-11.112z" fill="#754c31"/><path d="M294.937 153.827s-12.879-3.788-17.173 0c-10.177 11.36-16.503 23.85-20.203 38.386l16.92 2.525z" fill="#504416"/><path d="M358.438 206.344l4.031 27.25s16.826 8.842 22.438 9.844c5.612 1.002 4.802-5.834 4-7.438-.655-1.309-7.502-7.181-8.946-11.665-.874-2.713 4.998-1.446 9.165-2.835 4.546-1.515 6.063-5.281 6.063-5.281l-18.188-7.594-8.188 2.875z" fill="#312a25"/><path d="M315.825 276.562s-.142 10.487.425 11.904c.567 1.417 2.551 4.393 4.11 3.543 1.559-.85 3.26-2.693 3.26-2.693l7.653-4.393-5.527-15.589z" fill="#28170b"/><path d="M317.938 244.406c-3.039-.573-5.802-.039-7.344 5.377 0 0 4.797 19.549 6.781 20.967 1.984 1.417 8.781-1.406 8.781-1.406zm12.781 44.188s-4.254 2.576-3.688 4.844c.567 2.267 2.268 7.06 3.969 7.344 1.701.283 9.906 1.719 9.906 1.719l-5.094-4.813zm17.281 22.688l-7.094 12.188 2 5.375 21.813-9.906-3.406-7.094s-7.081 2.846-8.781 2.563c-1.701-.283-4.531-3.125-4.531-3.125zm15.031 30.625l-16.75 7.063s-.54 3.4.594 8.219c1.134 4.818 3.094 9.938 3.094 9.938l12.469-6.25z" fill="#782121"/><path d="M311.148 227.103s18.99 62.072 19.557 64.623c.567 2.551 8.22 6.802 10.487 6.236 2.267-.567 43.933-9.637 45.35-13.038 1.417-3.401 2.834-24.092 2.834-24.092l-23.525-55.27z" fill="#c8ab37"/><path d="M365.844 205.563l-54.688 21.531s2.399 7.87 3.375 11.063h.031l11.313 2.844.469.313c3.562 10.273 8.669 24.331 13.156 33.969 1.964 4.218 11.326 3.408 13.594 3.125 2.267-.283-9.116-2.22-10.781-5.969-3.821-8.604-7.717-18.919-10.813-27.5l.063.031s24.666 9.346 27.5 9.063c2.834-.283 5.938-9.625 5.938-9.625l15.594 29.188s4.248 1.987 4.531 3.688c.223 1.335-.191 6.399-.406 8.938 1.01-.488 1.658-.91 1.813-1.281 1.417-3.401 2.844-24.094 2.844-24.094l-23.531-55.281z" fill="#504416"/><path d="M286.099 207.113l3.03 13.637s52.78 19.698 58.336 19.951c5.556.253 17.425-2.778 12.879-6.819-4.546-4.041-10.859-15.405-5.556-17.678 5.303-2.273 22.728-5.556 28.537-3.536 5.808 2.02 11.617 4.798 11.617 4.798s-1.918-6.759-4.798-7.829l-68.69-25.506z" fill="#c8ab37"/><path d="M286.697 215.767l36.677 13.428 10.221-10.221c.808-.808 18.639 9.32 18.639 9.32l-15.232-12.827s.563.384 5.512-4.008c2.339-2.077.103-2.364 3.135-3.934 8.359-4.328 21.115-6.688 21.115-6.688l-35.374-15.533-46.096 22.447 1.203 8.818z" fill="#504416"/><path d="M309.25 145.906c-6.688.059-15.831.6-17.094 3.125-2.02 4.041-2.031 10.094-2.031 10.094l-7.563 12.125-4.031 2.031s-11.619 27.256-9.094 29.781c2.525 2.525 53.531 23.25 53.531 23.25s12.64-17.167 11.125-19.188c-1.515-2.02-2.031-4.063-2.031-4.063l11.094-20.188s18.355 5.282 29.063 3.625c6.13 7.001 9.749 14.42 11.844 22.094l4.281-1.063c-1.184-7.672-6.326-14.553-11-21.375.096-.073.188-.154.188-.25 0-2.525-4.665-13.871-4.665-13.871s-3.402-3.531-5.46-4.817c-15.614-9.759-32.968-17.494-51-21.219-2.336-.483-3.143-.129-7.156-.094zM255.134 185.023c.893-1.429 16.25-1.964 15.714.714 0 0-3.929 18.214-7.143 19.286-3.214 1.071-12.857 2.143-15.357-1.071-1.096-1.41 4.107-15.893 6.786-18.929z" fill="#c8ab37"/><path d="M251.92 202.523c4.821 1.25 10.179.536 11.429-.179 1.25-.714 5.179-14.107 5.179-14.107s-2.679 4.286-3.036 5.536c-.357 1.25-1.429 8.036-4.107 7.679-2.679-.357-8.393-.714-9.286-1.786-.8-.96-.179 2.857-.179 2.857z" fill="#504416"/><path d="M170.689 273.783l2.778 11.112 11.364-3.283.253-9.091zM242.41 272.773l35.86-2.273s1.263 9.596.253 9.849c-1.01.253-36.113-1.263-36.113-1.263zM189.42 267.523c0-2.448 36.071-1.986 38.571-.357 2.116 1.379 5.179 9.821 5.536 12.321.357 2.5 17.679 24.464 22.321 27.321 4.643 2.857 4.643 6.786 4.643 8.929 0 2.143-5.291 35.237-6.071 39.643-2.5 14.107-29.346 24.47-46.786 23.571-16.316-.84-27.969-12.849-29.821-19.464-2.5-8.929-3.393-54.821-3.393-54.821s9.643-19.286 10.357-22.857c.714-3.571.357-14.643 4.643-14.286z" fill="#c8ab37"/><path d="M199.063 308.951s10.483 1.18 10.483-1.093l-.126-30.335 15.357.714s22.143 31.429 24.643 32.857c2.5 1.429 3.214 6.429 3.214 6.429l-3.571 1.429s-.714 20.357-2.143 23.571c-.605 1.362-1.92 4.947-3.525 6.734-2.183 2.432-4.69 2.934-4.69 2.934l1.786-43.597s-15-21.786-16.786-24.286c-1.786-2.5-10.714-2.857-10.714-2.857s-1.288 21.071-1.429 28.036c-.084 4.184-11.071 1.429-11.071 1.429zM196.206 278.594l.179 3.929s-4.286.357-5.714.714c-1.429.357-11.25 23.75-11.25 23.75l-2.143-.357s10.357-26.071 11.607-26.607c1.25-.536 7.321-1.429 7.321-1.429z" fill="#504416"/><path d="M189.42 270.201c6.25-1.25 32.5-1.429 35-1.429s1.376-.851.179-1.25c-.914-.305-28.548-1.326-33.571.714-1.999.812-5.179 2.143-1.607 1.964z" fill="#e9ddaf"/><path d="M210.59 323.154c1.009.707 1.822 28.652 3.03 29.042.601.194 1.136 2.525 1.136 2.525l-3.788 1.515-2.02-31.946z" fill="#504416"/><path d="M200.849 324.666c0-.747 7.864.519 8.75-.253 0 0 1.964-1.712.197-1.585l-7.909.348zM213.746 354.469c-.496.992 21.504-.825 26.011-2.778 5.275-2.285 8.99-13.185 8.46-14.773 0 0 .043 8.811-.884 10.859-.94 2.078-3.939 5.385-7.843 6.558-9.659 2.902-25.726 4.097-27.259 2.281-.977-1.158 1.515-2.147 1.515-2.147zM201.625 357.499s-13.77-.56-15.784-.884c-7.071-1.136-7.45-8.713-7.45-8.713s.758-2.525 1.641 0c0 0 2.585 6.183 4.041 6.44 2.147.379 17.804.505 17.804.505z" fill="#e9ddaf"/><path d="M281.92 286.987l3.75 12.857 11.607-.179-3.393-13.571zM262.456 307.344s14.821-1.786 15.893-1.429c1.071.357 3.214 2.143 3.214 4.286s1.429 10.357.536 12.321c-.893 1.964-3.393 3.571-6.786 3.929-3.393.357-11.786 2.679-11.786 2.679l1.786-18.393zM262.099 333.773l-2.5 21.964s17.5-9.107 18.393-10.179c.893-1.071 1.25-3.393 1.25-3.393s.357-7.321 0-8.393c-.357-1.071-1.786-2.5-3.571-2.321-1.786.179-13.571 2.321-13.571 2.321zM288.884 306.63c-.893.714-1.607 1.25-1.964 3.036s-1.786 9.464-1.071 11.429c.714 1.964 1.607 3.571 3.571 3.393 1.964-.179 9.107-1.964 9.107-1.964l-.536-17.857zM286.206 330.559c.893 0 10.893-2.5 10.893-2.5l.714 10.536s-11.071 6.786-12.321 6.964c-1.25.179-3.393-1.25-3.036-2.679.357-1.429.357-9.643 1.429-10.714 1.071-1.071 2.321-1.607 2.321-1.607z" fill="#c8ab37"/><path d="M181.877 150.149l2.004 2.205-1.203-15.633 1.804 3.608 1.403-2.405s2.405 7.416 3.207 7.416l1.403-8.017 1.804 1.603 1.403-1.403 4.209-1.002.802 2.405 1.203-2.004 2.806 6.814 1.603-5.211 1.403 2.405 1.002-2.605 3.006 5.411.802-5.411 3.207.401 1.403 4.61.401-3.608 2.205 2.806.802-3.407 2.806.802 1.804 5.411.802-3.006 2.806-1.002 3.608 6.013 5.612 14.831 1.403-11.743 1.203 18.639-.2 2.205-1.403-2.205-.2 2.205-10.221-21.846-1.403 2.605-1.203 2.806-3.006-7.215-1.002-.2-.2 4.008-3.407-4.008-.401 3.006-2.605-4.61-2.405-.601.601 6.614-5.01-6.013-.401 2.205-1.603-2.405-.802 6.614-3.808-7.816-.802 2.405-1.002-2.605-4.209 1.203-1.403 1.002-.802-.802-1.603 8.017-3.808-8.017-.601 2.605-2.605-3.207 1.804 16.434z" fill="#501616"/><path d="M353.097 278.405l24.659-3.401-5.669-2.267-23.95 3.685z" fill="#e9ddaf"/><path d="M379.282 291.125l-28.844 7.219-4.906 1.563c.686 2.318 1.469 4.844 1.906 5.719.763 1.527 5.563 4.259 8.844 4.125l1.563-4 24.438-6.813-3-7.813z" fill="#c8ab37"/><path d="M296.317 149.228s-5.455 4.407 2.806 6.213c7.406 1.62 42.088 25.854 42.088 25.854-9.191-15.284-22.436-23.027-44.894-32.067z" fill="#e9ddaf"/><path d="M373.879 318.783c-13.827 3.237-25.191 9.529-36.877 17.236-2.096 1.383.385 9.578 2.004 13.829.767 2.013 5.612 3.207 5.612 3.207v-7.215c7.568-5.365 15.347-9.462 23.449-11.624zM365.862 362.074c-6.746 3.082-13.689 6.125-19.641 12.626-.908.992 3.384 11.838 4.409 12.827.812.783 1.685 1 3.796.181.008-1.662 2.251-3.924 2.932-4.332 6.91-4.141 11.013-4.976 17.923-7.674z" fill="#28170b"/><path d="M373.282 372.5l-4.625 8 25.656 5.219s16.241 45.902 14.438 47.906c-1.804 2.004-37.281 12.031-37.281 12.031l.813-2.813s6.006-8.032 7.409-10.438c1.403-2.405-1.406-23.438-1.406-23.438l4.219-2.594s-13.624-4.223-11.219-2.219c2.405 2.004 2.002 20.65 1 23.656-1.002 3.006-3.208 5.607-6.215 5.406-2.65-.177-12.225-.605-15.475-.719 2.632 2.328 7.188 4.844 7.188 4.844l.219.813.438.063 8.625 6.219-1.938 4.438 2.125 2.594-2.781 5.563c2.74 2.424 7.906 2.219 7.906 2.219s-.011 1.962 1.406 2.813c1.417.85 8.509 1.156 11.344 1.156 2.834 0 30.578-8.288 32.563-11.406 1.984-3.118 5.69-11.849 5.406-15.25-.283-3.401-7.469-13.125-7.469-13.125s-18.935-39.433-19.938-41.438l-21.188-9.344z" fill="#b4754b"/><path d="M402.415 308.449c-2.311-3.342-8.787-7.653-9.92-7.086-1.134.567-12.119 4.432-13.82 6.416-1.701 1.984-7.991 8.5-11.56 12.022-8.813 8.695-7.782 39.495-6.365 43.463 1.417 3.968 4.286 12.657 9.388 13.86 4.966 1.17 26.609 5.302 26.609 5.302l5.102-8.503z" fill="#c8ab37"/><path d="M398.344 304.438l1.375 12.813s-3.839-4.115-6.531-3.406c-2.693.709-17.712 9.335-18.563 10.469-.85 1.134-7.913 24.94-7.063 28.625.85 3.685 4.67 14.762 6.938 15.188 2.267.425 1.563-2.281 1.563-2.281s-5.969-9.203-5.969-11.188c0-1.984 4.395-26.52 5.813-27.938 1.417-1.417 13.461-8.358 16.438-8.5 2.976-.142 5.688 2.406 5.688 2.406l.969 52.438-5.785-2.129 4.941 3.972-2.125 7.375.719.156 1.406 5.375s2.835 2.83 3.969.563c1.134-2.267 2.338-8.691 2.406-10.063.142-2.834-.969-4.094-.969-4.094l-.875-51.594s2.55-.718 2.125-2.844c0 0-1.101-9.456-2.406-11.344-.907-1.311-2.448-2.744-4.063-4z" fill="#504416"/><path d="M377.472 369.388l13.747 2.976-3.685-2.267-8.645-2.551z" fill="#e9ddaf"/><path d="M175.563 365.969c-1.005 13.952-2.584 35.848-3 37.719l-.031.094c.852 1.452 1.687 2.792 2.125 3.375 1.203 1.603 17.845 4.831 20.25 5.031 2.405.2 5.018-4.014 5.219-6.219.2-2.205 0-21.438 0-21.438-8.783-4.104-16.845-10.729-24.563-18.563zM206.93 383.518c11.037.281 20.495-2.42 28.86-4.81 0 0 3.207 25.453 3.006 29.261-.026.496-.808 5.298-3.197 5.641-6.916.994-23.331.905-25.463.372-3.207-.802-2.605-4.81-3.006-9.62zM166.846 352.053l-7.416 28.66c-.365 1.413 1.246 2.422 3.049 3.707 2.658 1.895 5.316 2.342 7.974 2.106l4.209-27.658zM161.875 344.281c-4.908 8.125-13.186 21.817-13.969 23.406 2.932 1.698 8.05 4.594 8.906 4.594 1.203 0 3.43-.378 4.031-1.781.601-1.403 5.406-20.656 5.406-20.656l-4.375-5.563zm-11.531 33.875c-.984 3.731-4.65 17.708-5.531 20-.47 1.223-.674 3.365-.531 5.406 3.522 1.632 8.134 3.731 9.344 4 1.804.401 3.992-1.389 4.594-3.594.601-2.205 2.406-18.25 2.406-18.25l-10.281-7.563zM162.436 392.938l8.818 3.006s-.802 8.818-.601 10.221c.2 1.403 3.006 3.808 3.006 3.808s-1.203 10.021-1.203 11.424c0 1.403-2.039 8.598-4.776 8.397-1.231-.09-7.262-2.525-10.938-4.433-1.136-.59-1.993-2.594-2.324-3.162-1.403-2.405 8.017-29.261 8.017-29.261zM175.063 413.581s21.244 4.81 22.247 4.81c1.002 0 4.81-1.002 4.81-1.002s.2 20.242-.601 22.447c-.802 2.205-2.522 6.252-4.927 6.051-2.405-.2-20.927-5.65-22.129-6.853-1.203-1.203.601-25.453.601-25.453zM208.934 420.997l30.865-.802s1.403 23.85 1.203 25.453c-.2 1.603-.601 5.411-3.407 5.612-2.806.2-26.455.601-28.059-.401-1.603-1.002-.601-29.863-.601-29.863zM273.469 357.875l-15.031 5.813s-1.185 4.145-2.387 5.548c-.601.701-4.176 5.8-7.033 8.031-3.141 1.239-4.289-.107-4.289-.107s2.395 28.31 1.994 29.512c-.401 1.203 4.782 4.685 8.214 4.978 3.157.27 22.948-6.5 24.752-6.9 1.804-.401 2.594-6.202 2.594-8.406 0-2.205-8.813-38.469-8.813-38.469zM247.898 416.905l4.88 1.762 25.902-6.288s.176 27.385-.2 30.122c-.244 1.776-1.15 4.399-3.154 4.8-1.518.304-18.317 3.931-24.259 3.887-1.902-.014-3.782-4.215-3.921-5.514-.156-1.451.753-28.767.753-28.767zM277.986 354.224l3.968-3.543 20.266-6.944s7.936 23.809 8.503 25.509c.567 1.701 1.417 6.519-.567 6.802-1.984.283-20.833 7.511-20.833 7.511l-4.393 2.551zM284.789 391.637l2.834-.567 23.383-7.653s3.968 29.761 4.393 31.887c.425 2.126.85 5.385-1.701 5.952-2.551.567-24.517 8.361-26.076 8.361-1.559 0-2.693-1.559-2.693-1.559zM307.139 435.026s15.633-1.203 20.844-1.203c5.211 0 9.62 8.818 9.62 8.818s18.839 21.244 21.244 24.05c2.405 2.806-.2 8.818-.2 8.818s6.213 1.203 6.614 5.612l-6.413 73.754 7.215 22.046s-24.852-19.24-36.877-20.042c-12.025-.802-39.282 16.434-39.282 16.434s-9.219-1.403-7.215-5.211c1.382-2.625 6.714-11.125 7.416-16.034 1.002-7.015-.2-19.641-1.403-26.856-1.203-7.215-8.818-32.869-10.021-35.675-1.203-2.806-3.608-7.616-.401-9.62 3.207-2.004 4.81-3.608 4.81-3.608s-2.004-8.418.401-10.823c2.405-2.405 14.43-22.848 17.637-25.654 3.207-2.806 6.013-4.81 6.013-4.81z" fill="#c8ab37"/><path d="M299.924 464.488s37.278.802 39.282.2c2.004-.601 6.814 3.608 6.814 3.608l-1.203 1.603s-16.835 1.002-21.044 1.403-19.24-2.405-20.443-2.405c-1.203 0-4.81 4.409-5.211 6.614-.401 2.205-3.006 8.418-1.403 9.42 1.603 1.002 6.413 7.015 6.213 9.62-.2 2.605-3.006 61.729-3.006 61.729s-1.603-57.52-2.605-60.527c-1.002-3.006-5.812-9.62-4.81-12.426 1.002-2.806 4.81-15.232 5.411-16.234.601-1.002 2.004-2.605 2.004-2.605z" fill="#504416"/><path d="M298.12 557.282l-4.409 8.818c5.211-4.008 22.447-11.223 31.666-12.626 1.401-.213 2.806-6.413 2.806-6.413-9.757.69-17.699 2.753-30.063 10.221zM343.616 482.526s-2.806 3.608-3.608 6.814c-.802 3.207 3.207 6.213 4.409 3.808 1.203-2.405 2.806-9.42 2.806-9.42zM289.502 459.477s-5.211 3.808-5.812 7.215-.2 9.62 1.002 12.226c1.203 2.605 6.814 22.247 6.814 22.247s-6.614-30.464-5.612-33.069c1.002-2.605 3.608-8.618 3.608-8.618zM328.985 435.828c-2.205.2-18.639-.401-21.645 1.203-3.006 1.603-9.42 8.818-9.42 8.818s8.418-6.814 10.422-6.814c2.004 0 20.643-3.207 20.643-3.207zM281.686 479.72s-2.605.2-3.407 1.603l1.203 8.418c-.713-4.499.25-7.657 2.205-10.021z" fill="#e9ddaf"/><path d="M357 464.594l-5.563 72.844 6.594-35.063s3.219 1.204 3.219 2.406c0 1.203-6.609 38.471-5.406 43.281 1.203 4.81 2.406 18.438 2.406 18.438s-15.234-9.003-19.844-10.406c-1.997-.608-5.87-.047-9.625.781h.406c12.025.802 36.875 20.063 36.875 20.063s4.997-1.424 3.594-5.031c-.746-1.918-3.178-6.617-4.781-10.625-1.603-4.008-3.614-23.249-2.813-32.469.802-9.219 3.588-43.278 3.188-47.688-.401-4.409-4.406-7.625-4.406-7.625s.405-4.007-2-6.813l-1.844-2.094z" fill="#504416"/><path d="M158.829 444.646c-3.608-.401-5.211 1.203-5.211 4.008 0 2.806 1.203 8.818 1.203 12.025 0 3.207 6.013 7.215 6.013 7.215s17.236 58.923 16.835 63.333c-.401 4.409-9.219 11.223-9.219 11.223l.802 5.612s22.447 6.814 27.257 11.624c4.81 4.81 10.422 17.236 22.046 17.637 11.624.401 13.228-13.228 17.236-14.43l8.017-78.564c-3.608-4.81-16.034-5.211-16.034-5.211l-3.207 1.603-27.658-8.017s2.405-4.409-2.004-6.413c-4.409-2.004-12.827-4.81-17.637-10.021-4.81-5.211-8.017-10.021-11.624-10.823-3.608-.802-6.814-.802-6.814-.802z" fill="#c8ab37"/><path d="M193.702 468.095l1.603 54.514s2.205-50.305 1.403-53.111c-.802-2.806-3.006-1.403-3.006-1.403zM155.688 463.063c1.668 2.518 5.156 4.844 5.156 4.844l.188.688c4.963.838 10.694 1.782 11.813 1.906 1.804.2 6.625 3.813 6.625 3.813s-3.418-4.42-6.625-6.625c-2.853-1.961-14.497-4.146-17.156-4.625z" fill="#504416"/><path d="M176.188 534.625c-2.608 3.844-7.75 7.813-7.75 7.813l.094.594 23.969 8.031s-2.564-6.976-4.205-9c-2.207-2.723-8.882-6.859-12.108-7.438z" fill="#e9ddaf"/><path d="M231.25 479.438c-2.244.742-2.09 3.114-2.281 3.688-.2.601 4.401 77.358 4 79.563-.401 2.205-6.982 11.971-14.418 11.836-12.707-.23-16.642-12.821-17.644-14.024-1.002-1.203-5-2.406-5-2.406l.281 1.313.313.281c4.81 4.81 10.438 17.224 22.063 17.625 11.624.401 13.21-13.204 17.219-14.406 4.008-1.203 9.614-2.815 8.813-7.625-.802-4.81 2.826-66.127-.781-70.938-2.394-3.191-8.61-4.426-12.563-4.906z" fill="#504416"/><path d="M154.42 446.25c3.182.001 6.494.477 10.021 1.102 1.203.1 1.846-1.22.601-1.603-1.303-.401-6.313-1.403-8.117-.902-1.804.501-2.505 1.403-2.505 1.403zM281.886 176.285c2.06 1.595 48.101 27.858 48.101 27.858s-43.422-28.053-45.094-29.261c-3.608-2.605-7.738-2.262-3.006 1.403zM332.124 570.579c-10.735-.771-29.263 1.344-32.186 2.546-6.579 2.706-12.332 9.779-15.004 17.847-.968 5.121.275 5.819 2.192 11.685l2.969-1.469c-1.725-2.692-2.583-6.772-2.711-9.371 2.452-5.875 5.991-13.184 13.942-14.693 17.302-3.285 53.704 1.82 53.423 2.523 0 0 .067-.758-.063-3.967-3.179-.656-14.871-4.548-22.562-5.1zM293.717 602.514c.683-5.458 6.586-7.822 11.621-6.802.212 6.08 1.415 9.603 2.267 14.03-4.937-1.59-10.04-2.736-13.888-7.228z" fill="#e9ddaf"/><path d="M139.711 557.562l3.531 1.742c4.129 13.215 11.202 24.691 18.161 36.235 0 0-9.204-10.005-13.141-17.265-3.146-5.802-8.552-20.712-8.552-20.712z" fill="#504416"/><path d="M164.685 595.735s26.924-2.377 28.629-2.997c6.705-2.436-14.967-37.903-16.695-37.616 0 0 13.674 24.77 15.711 33.707 1.342 5.888-28.179 5.38-28.179 5.38zM111.539 572.392c-3.423-.738-4.931 2.399-4.984 4.869.764 3.788 4.982 5.505 9.258 5.983z" fill="#e9ddaf"/><path d="M156.157 211c-.866 2.139-1.939 4.509-2.906 5.719-1.427 1.784 4.423 2.284 8 2.438.697-1.507 1.375-3.25 1.375-3.25l-6.469-4.906zM155.258 298.245c-.987 4.451-.86 7.331 2.551 10.204 3.496 2.944-5.385 28.344-6.236 32.312-.85 3.968-5.816 10.317-8.361 10.487-1.72.115-3.723-6.651-2.409-8.787l2.267-3.685s5.261-27.387 4.535-29.194c-.762-1.897-.85-6.519.567-8.22 1.417-1.701 7.086-3.118 7.086-3.118z" fill="#c8ab37"/><path d="M159.43 283.108l-1.403 4.61-2.605 4.61s1.002 2.405 2.806 2.806c1.804.401 2.806-1.002 2.806-1.002l.2-6.614 2.806-2.605zM158.428 299.342l4.008 1.002-3.608 5.612-2.405-5.211c-.635-1.376 1.114-1.625 2.004-1.403z" fill="#782121"/><path d="M158 308.938c-1.428.075-3.067.33-3.969 1.031-1.564 1.216-8.969 32.533-11 41.25l.188.031c2.545-.17 7.493-6.532 8.344-10.5.815-3.804 8.996-27.28 6.594-31.813h-.156z" fill="#504416"/><path d="M10.637 380.758l34.133-22.823 37.431-.669-27.94 24.522z" fill="#ccc"/><path d="M68.126 493.75l-1.722 5.422 20.872-16.352 10.676-13.323z" fill="#333"/><path d="M5.037 386.509l6.963 42.616 49.463 1.674-5.963-43.111zm11.244 72.241c-1.4 13.619 1.595 22.842 4.625 32.031l47.219 2.969c-2.804-9.184-7.48-16.289-3.875-32.594zm10.067 62.759l4.354 39.204 45.938 5.688-4.639-40.12z" fill="#666"/><path d="M87.813 359.344l-32.313 28.344 5.963 43.111 31.037-23.705zm7.469 76.125l-31.031 25.688c-2.423 11.979-1.26 22.882 3.875 32.594l30.438-24.75zm5.297 63.168l-28.579 27.644 4.639 40.12 28.344-31.75z" fill="#4d4d4d"/><path d="M16.282 458.75l47.969 2.406 31.031-25.688c-4.192-1.955-6.285-5.347-13.374-8.268l-21.119 17.466-34.214-2.68c-4.077 5.216-8.339 12.606-10.293 16.763zM26.349 521.509c3.118-3.401 7.481-5.986 10.031-7.686l31.746 3.152 20.707-19.676s7.097-.589 11.746 1.338l-28.579 27.644z" fill="#808080"/><path d="M10.637 380.758l-5.599 5.75 50.463 1.179-1.239-5.899z" fill="#999"/><path d="M54.262 381.789l1.239 5.899 32.313-28.344-5.612-2.077z" fill="#666"/><path d="M12.001 429.125l12.31 3.469 36.28 1.984.873-3.779z" fill="#4d4d4d"/><path d="M61.464 430.799l31.037-23.705-12.069 11.045-19.841 16.439z" fill="#333"/><path d="M30.702 560.714l6.529 3.804 37.98 5.669 1.428-3.785z" fill="#4d4d4d"/><path d="M76.64 566.401l28.344-31.75-3.114 6.341-26.657 29.194z" fill="#333"/><path d="M20.89 490.664l12.538 5.601 32.975 2.908 1.722-5.422z" fill="#4d4d4d"/></svg>