<svg xmlns="http://www.w3.org/2000/svg" viewBox="0 0 260 480" enable-background="new 0 0 260 480"><filter id="a" color-interpolation-filters="sRGB"><feGaussianBlur stdDeviation="2.549"/></filter><title>Girl with Lantern (Ukiyo-e SVG No.004)</title><path fill="#EDBD30" d="M194.1 18.3c9.3 11.3 2.8 38-13.8 62.9-11.7 17.6-27.8 36.6-45 55.6-10.5 11.5-38.6 36.4-52 45.5-19 12.1-43.1 23.2-56.2 22.8-8.8-.3-15.7-3.8-19.4-11.9.3-3.8 2.4-10.4 1.6-11.7.3-12.4 1.6-5.4 3.9-15.1 4.6-14.1 11.8-28.8 21.7-44.1 10.7-16.6 23.5-34.1 41.1-51.8 15.2-13.3 29.6-23.4 42.8-31.1 28-14.7 52.8-21.4 67-22.1 2.4.5 6.9.4 8.3 1z"/><path fill="#655931" d="M117.5 54.3c-4.4.6-8.5.8-14 3l-11.3 4.7-8.7 4.6-6.8 4.6-6.4 7-5.4 6.2-5.6 8.4c-1.6 3.7-3.8 6.8-4.3 11.6l.8 8.3 4.5 5.6 7.5.5 7.6-1.8 6.2-2.5 7.3-3.3 5.5-3.1 9.1-7.5 7.6-8.3 6.5-8.4 4.9-8.9 3-8-.5-7-2.2-3.3-5.3-2.4zm-6.2 5.6l5.8.9 1.8 2.1 1 5.6-1.9 7-4.5 7.5-6.7 8.1-4.9 5.6-6.2 5.4-6.7 4.3-7.3 3.2-6 2.1-5.9 1-6-1.1c-1.8-1.6-3.3-3.3-3.1-5.2l-.2-5.9 2.7-9.1 4.6-6.7 4.6-5.9 5.4-4.8 5.7-4.3 8.3-4.5 8.9-3.7 10.6-1.6zm-34.4 23.2l-3 1.6.2 3.2-3.5.8.6 1.8 4.2 3.1 2.1-.6 2.1-1.4 2.5.1 2.5-1.9 1.1 1.4 3.2-3.3 1.8.2 1.2-2.5 2.3-1.8 1.1-3.7 3.1-.2.6-1.4-1.7-3.4-3.4 1.8-.5-3h-2.4l-3.5 1.5-2.4 1.1-1.9.1-1.9 1.3-2.6 2.1-1.1 1-.2 1.8-.5.3zm-67.8 102.1c1.1-2.8 2.1-3.2 3.1-2.5 13.2 35.5 86.5-24.8 105-43.2 16.5-15.4 29.1-30.3 39-43.4 7.7-10.3 13.2-19.4 17.9-27.8 3-5.5 5.3-10.6 7.1-15.4 6.8-18.6 6-27 .1-35.1l4.3-.5c3 4.9 5 11.1 4.5 18-.7 9.6-5.4 20.8-11.4 32.9-27.8 55.1-103 126.6-150.9 130.4-12.2-.3-15.5-6.8-18.7-13.4z"/><path fill="#8F7B35" d="M135.7 135.3l14.9 15.7-2.5 2.3-14.3-15.8 1.9-2.2zm65.8 70.2l16.5 18.5c.6 2.7.6 1.9-1.9 3.3l-15.4-17.7.6-1.5.2-2.6z"/><path fill="#F0F0DF" d="M168.3 98.3l-12.2 14.5-8.7 10.7 1.9 6.4 12.5 12.3 4.8 1.1.1 2.9-1.4 3.3-2.3 2.9-.8 1.2 5.1 1.9 9.9.3 4.9 2.2 4.1-4 5.5-1.3 8.5-.6c2.6-1.3 4.9-3.1 5.2-9.5 1-1.5 1.1-2.8.8-4.1.3-1.8.4-3.6-.1-4.9 2.4-2.8 5.1-1.9 0-8-4.5-1.9-6.5-8.7-8.5-15.5-2.5-4.9-7.1-7.5-11.7-9.9l-17.6-1.9z"/><path fill="#DD573D" d="M166 148.2c-.9 1.7-1.9 3.4-4.2 5.2 5.3 3.2 11.9.7 20.3 4.6 2.5 2.4 4.1 4.8 3.9 7.4-12.2-9.7-15.9-2.1-32.8-6.8-2.6-3.6-1.2-5.6 1.1-7.2 3.9-1.3 7.5-2.8 11.7-3.2z"/><path fill="#CBC49E" d="M150.8 151.1c2.3-1 2.6-.3 3.6-.2-2.8 1.9-7.2 9.3 9.1 9.3 11.3-.8 19.2.6 22 5.3l.9 2.5-.5 1.1c-6-7.5-16.1-3.8-24.6-4.5-7.5-1.1-16.8-.7-12.9-12l2.4-1.5z"/><path fill="#DD573D" d="M147.6 153.8c-3.2 12 9.1 9.3 16.9 10.9 7.9-.3 16.4-2.3 21.7 5.2l.2 4.5 4.1 4.6c3 4.3 3.7 8.4 3.1 12.2 3.3 14.3-.7 21.1 3.4 42.8 24 5.5 18.5 6.7 23.1 6.8l1.2 2.5c-1.2-.3-2.5 0-3.7.5l-2.9 5.2-.9 3 2.9-.1-.9 2.5-4.2 4.8-.5 4.5c-9.6 22.6-35.5 17.3-41.9 8.8-7.5-10.5-8.8-23-9.5-35.8l-4.5-1.4-4.5-4.5-7.6-3.7-4.9-4.3c.5-7.4-5.9-11-10.5-14.2-.4-17.1 2.9-32.6 11.1-43.6 2.2-3.4 1.4-7.1 8.8-11.2zm29 200.8l1 1.9c3 18.1 8 35.8 12.6 53.5l-1.8 1-7.6 1.6-5.2 6.4-.4 1c.3 1.3 1.3 2.6.6 3.9l1.2 4.2c-.9 1.6-2.1-.1-3.1-.2l-1.1.3c-.7-1.3-3.3-1.5-6-1.8-2.6 1.1-4.9 2.2-6.9 3.4-7.5 7.4-18.2 19.9-38.1 4.5-9.9-14.7-4.8-17.6-5.6-25.1 1.3-3.6 2.7-7.3 5-10-3.8 17.9 1.5 25.8 9 31.5 15.9 10.7 33.2-9.7 40.5-9.6l4.5-3.7c-3-11.3.6-41.7 1.4-62.8z"/><path fill="#BDB68C" d="M176.2 325.7c.7 9.3.7 19.3.5 29.1-.7 25.2-3.4 49.9-1.6 64.5l1.3 2.6-.5 2.5c-.6-2.1-2.7-2.7-4.7-3.4-14 2.4-21.8 20.3-40.7 10.3-13.9-13.6-10.9-22.2-9.1-31.2-4.3 2.5-.8-2 2.1-5.6 4.5-7.3 9.5-13.7 14.2-20.9 12.8-16.2 20.7-34.6 38.5-47.9z"/><path fill="#DD573D" d="M141.9 271.2l27.5 1.5 6.1 4.5c6.6 16.3 13.7 32.6 9.1 51.4l-5.9 12.5-2.3 1.1-.4-16.1-9.2 8-2.7 2.3-6.8 12.9-1-.6-11.3 16.6c-6.2 9.7-19.6 19.1-28.6-2.8-1.9-9.3-2.8-19.3-.4-31.6l25.9-59.7z"/><path fill="#634A59" d="M127.4 208.7c-11-1.3-19.3 1.4-24.6 8.4-.3-.5-1.1-.2-2.2.4-23.2 19.2-25.6 62.8-23.7 80.1 5.1 15.8 11.9 8.5 14.5 5.3l6.9-.2c-5 14.2-1.6 17.7 10.4 23.5 10.9 7.4 22.7 17.4 23.8-1.4 5.2-.2 12.8 7.4 13.6-7.2l-4.3-46.9c8.9 5.1 18.1 7.5 27.9 2.5-11.9-18.5-8.8-26.1-9.5-36.5-4.3.3-5.3-2.1-8.7-5.1-2.5-2.1-6.8-2.1-12.8-8.2-.6-5.6-3.3-10.7-11.3-14.7z"/><path fill="#CBC49E" d="M185.8 306.6c1-7.8-2.4-18.9-5.9-27.8l-4.6-1.8-5.6-4.3.1 5.8c-3.6 31.7-10.6 61.5-24.2 86.9 14.8-15.2 24.3-57.9 27.4-89.4l2.7 1.8c4.6 9.9 7.6 19.4 10.1 28.8z"/><path fill="#F0EACD" d="M117.3 427.6l-1.8 1.5-4.9 8.8-1.4 3.3 2 2.5 13 1.6-6.9-17.7zm11.8 12.5l-1.8 6.8 2.2 1.4 4.1-.2-2.8-7.6-1.7-.4zm16.3 1.4c-2.1 5.2-3 10.3-3.4 15.4l2.8.4 14.6-3.3-10.8-14-3.2 1.5zm18.7 3.9l-2.1 14.6 2.9.9 12-2.2-11.3-14.2-1.5.9z"/><path fill="#E4AF04" d="M117.7 428.6c-1.8 4.9-8.7 11.4-5.2 14.7l12.1 2c.4-.1.9.2 1.1-.5 1.1-2.1 1.1-3.9 1.6-5.8l2.9 1.4c-.8 2.6-1.1 5-.9 7.2 3.5.5 7.4-.2 11-.4 1.5-1.5 1.4-2.9 1.8-4.9l5.5-1.7c-.3 5.4-7.7 17.1-2 16.4l13.5-3.3 1-.6c.2-2.4-.6-4.8-1.4-7.2l6.6-.2-1.4 13.1 2 1.2 15-2.3c4.5-.9 1.2-3.2-.8-12.4 2.4-2.5 4-5.5 5.6-8.4l-1.4-.2-3.8 4.6-4.5.9-4.1-.6-1.9-1.8-6.3-2-5.8-.6-4-.5-3.3 2.4-5.5 1.8-6.1 1.3-7.4-1.6-5-2.4-8.9-9.6z"/><path fill="#F0EACD" d="M152.9 436.9l9.9.9c8.5 1.7 12.4 8.1 19.8 1l4.5-5-.9-2-4.9.9-2.1-.3-6.7-4.6c-9.4-4.3-16.1 6.5-19.6 9.1z"/><path fill="#DD573D" d="M159.2 437.3c5.3-3 11.6-2.4 17.4-3.7l.7-1.7-4.1-3.2c-.3-1 .7-.9 2.1-.6l3.4 2.4.8 2.9.1 1.6c-.7 0-1.3.5-2.1-.7-4.1 2.6-12.4 1.9-15.9 4-1.8 1.6-2.9 1.9-2.4-1zm65.2-121.2c6.8 2.7 15.3 3.6 25.9 0l.9-1.2.6-4.9c.7-1.8 1.7-3.4-1.6-6.4-8.8-4.5-17.6-5.4-26.6.1-2 3.9-.6 6.1-.6 9 .4 1.2.4 3.7 1.4 3.4z"/><path fill="#DBAF2E" d="M231.3 305.2c1-.7.9-1.7 4.2-1.9 1.8.1 3.9-.3 5.3.7 1.1 1.1 3 2 2.8 3.9-3.7 3.2-7.6 2.1-11.8.5-1-.9-.5-2.1-.5-3.2z"/><path fill="#DD573D" d="M223.5 374.8c-2.3 1.3-1 5.9-1.3 9.1 2.4 3 17.8 7.7 27.5-.8.5-6 .6-7.2-1-7.2l-25.2-1.1z"/><path fill="#FAF8E5" d="M224.5 316.1l-.4 21.2-.3 3.5-.2 18.9v4.5l.3 9.3-.2 1.8c3.1 10.2 21.5 5.2 25.3.9l-.2-15.4.1-3.8-.1-6.8.8-15.2.2-4.8-.3-6.2c1-1.5.5-3.5.7-5.2l-.2-2.8c-9.8 4.6-21.4 1.8-25.5.1z"/><path fill="#D3CEB6" d="M212.2 238.8c2.8-.2 5.1-.2 3.7 2.1-8.1 5.4-8.8 15.2-10.4 20l4.6-1.2c-1.6 2.1-2.6 4.5-7.1 6.7l-2.1.2c2.3-9.1 1.2-17.3 9.5-26.8l1.8-1z"/><path fill="#F0F0DF" d="M221.2 243.6c-3.3-1.2-3.6 1-4.7 2.3l-2.5 6.1 8.7-.1 1.1.9c1.8 3.6 3.3 7.2 9.2 9.9l-2.1.6-.2 1.2-.6 1 .6.9 3.9-.2-1 4 1 1.6.7-.2.5-4 1-2.1 1.1-.7.6-1.3 1-.9.2-1.4 1-.1 1.1-1 .2-1.8c-2.1-5-6.9-7.3-10.8-10.6-3-2-6.4-3.2-10-4.1zm-26.5-45.3l.4 14.2c1.7-.7 2.2-3.7 3.2-5.5l2.2 1.6c1-.3.5-3.7.2-5.6-1.4-.9-.9-1.3-1.3-1.8-1.7-2.1-3.3-3.2-4.7-2.9z"/><path fill="#E6E1C9" d="M77.1 295l7.6 13-4.5-2.7c-2.5-2.3-3.1-6.2-3.1-10.3zm13.3 8.8l-4.5-6.8-.2-3-9.7-15.7v7.8l8.4 14.8 3.5 6c.6-.7 1.6-.8 2.5-3.1zm-12.1-37.8l8.6 14.3 9.5 16.2-2.5 3.1-7.4-13.6-9.2-15.3 1-4.7zm3.4-16.8l6.7 15.5-.8 6.8-7.5-16.7 1.6-5.6zm7.5 13.4l13.5 25.9-1.8 6-13-24.8 1.3-7.1zm7 34.3l2.6 3.2-1.1 3.5-1.4-.2-2.5-3.9 2.4-2.6zm3.5 4.2l22.1 33.3-8.3-5.3-15.7-23.7 1.9-4.3zm32.1 29.1l-28.5-43.1-1.8 7.5 27.7 40 2.6-4.4zm-44.2-94.7l3.4 10.5-1.3 7.3-4.7-12.7 2.6-5.1zm4.3 10.7l14.2 28.8-1.9 5.8-14.1-27.9 1.8-6.7zm15.3 28.4l25.2 40.3-.1 7.4-27.3-41.8 2.2-5.9zm25.6 38.1l10.7 13.3-1.9 1-1.6-.3-7.6-8.8.4-5.2zm.1-13.6l12.5 15.9.2 6.2-13.2-15.7.5-6.4zm.4-13.5l9.9 12.9.6 7.3-10.8-14.4.3-5.8zm.4-15.7l8.4 11.3.6 8.4-9.4-12.9.4-6.8zm0-16.2l7.8 12.4-.3 7-7.6-12.2.1-7.2zm-24.7 14l23.4 37.4v-9.2l-21.3-34.9-2.1 6.7zm4-14.5l19.6 33.4.2-8.6-18-31.5-1.8 6.7zm3-13.5l16.7 28.9.5-8-15.7-28.3-3.3 5.6.2 6.8 1.6-5zm2.7-14l14.3 25.9.2-10.2-9.9-16.9-4.6 1.2zm-28.6 4.3l3.3 7.8 2.2-6.5-2.5-5.9-3 4.6zm6.5-8.4l1.3 4.6 4 6.7-1-13.4-.8-1.6-3.5 3.7zm-.6 11.1l13.7 29.6-1.6 5.4-14.9-30.4 2.8-4.6zm9.2 8.1l6.2 14.3 1.3-3.7-7.5-10.6zm-9.1 71.7l7.2 11-6.7-4.6-.5-6.4zm7-93.8l4.1 25c-3.5-4-4.3-10-5.7-15.6-.6-4.1.2-7.1 1.6-9.4zm5.9-6.7c-1.9 5.4-2 16.2 1 36.3 1.7 3.1 3.3 5.3 3.5-.2-.8-7-1.7-11.6-1.6-37l-2.9.9zm8.9-2l-1.6 15.3.2 7 3.5-8.1 2.2-15.1-4.3.9zm8.6-.2l-1.7 14.3h3.8l2.4-12.4-4.5-1.9zm9.2 7.5l-2.5 7.5 2.5 4.6 2.4-7.2-2.4-4.9zm-2.2 20.2l7.3 11.3v7.6l-7.6-11 .3-7.9zm8 9.7l18.4 29.3-6-.5-12.7-20.7.3-8.1zm.3 17.5l5.2 8.6-5.2-2.1v-6.5zm-3.4-31.2l27.8 41c1.7-.1 3.6-.1 2.9-1.6l-5.7-10.2-24.3-35.1-.7 5.9zm9.4-1.9l12.9 20.2-1-9.4-8.1-10.8h-3.8zm-17.7-6.1l.8 2.1 8.5 12c-.5-6.4-3.6-9.5-5.5-14.1h-3.8z"/><g filter="url(#a)" fill="#1A1A1A"><path d="M174.2 329c-.4 48.3-3.1 59.3-2 89.7l2.7.7c-2.3-19 2.9-47.2 1.4-92.6l-2.1 2.2zm-1.3.9c-.4 34-4.9 59.6-1.7 88.3l-1.2-.3c-3.4-26.3 1.2-55.6 1.4-86.3l1.5-1.7zm-2.8 3.3c.7 28-5.8 56.5-1.7 85.1h-1.4c-4.7-25.3 3.7-61.4 1.6-84.2l1.5-.9zM166.1 335.7c-2.1 30-6.1 52.8-3.6 82.5l2.2-.2c-2.3-18.5-.9-33.5.6-48.4 1.2-11.5 2.1-23 2.8-35.9l-2 2zm-3.3 3.8c-1.6 26.4-7.5 54.3-4.1 79.1l1.6-.3c-4.2-16.5 2.6-51.7 3.2-79.7l-.7.9zm-3.2 5.9c-2 24.7-6.4 51-3.5 73.3l1.2-.1c-4.3-24.2 2-50.4 3.5-75.6l-1.2 2.4zm-4.9 6.6c-2 22.5-6.5 46-3.9 66.6.6.1 1.6.3 2.1.1-2.4-23.4 2.5-46.1 4.7-69-2 1-2.5 1.1-2.9 2.3zm-4 7.6c-1.7 19.7-3.8 39.3-3.2 58.5.4.1 1 .2 1.4.1-1-19.9.9-39.8 2.7-60.1-.4.5-.7 1-.9 1.5zm-3.1 4.2c-.9 18-2.8 36.4-1.7 53.4.4.6 1.1.7 1.7.7-2.5-12.1.4-37.2 1.4-55.9-1.2 1.3-.5.8-1.4 1.8zm-4.4 5.1c-.1 15.4-3.7 35-1.4 46.5.8 0 1.5.8 2.1.9-1.6-16.7.7-33.6 1.3-50.4-.8.9-1.7 1.8-2 3zm-2.9 3.8c-1 13.4-2.4 26.8-1.6 40.1.3.8.6 1 1.3.6-1-13.9.3-27.8 1.4-41.8-1-.8-.7.5-1.1 1.1zm-1.5 1.2c-3.8 19.3-3.2 27-2.6 36.7.1.3.7.4 1 .5-.3-12.3.7-25.1 2.4-37.5-.3 0-.6.1-.8.3zm-2 1.5c-6.5 18.7-9.5 36.9-8.5 54.6 1.2.2 2 1.3 2.9 1.8-.9-10-.5-19.8.7-29.3l.9-.6c1.2-8.8 3.4-18.1 4.6-26.8.2-.8-.4 0-.6.3zm-5.6 8.5c-5.6 15.3-6.2 29.7-6.3 43.1.6.2 1.5.9 2.1.9-1.7-15.8 1.4-33.1 5.8-45.4-.5-.2-1.3 1.1-1.6 1.4zm-4.4 5.5c-3.2 11.9-4.4 23.1-4.1 34.1.1.3 1 .9 1.2.9-.1-13.8 1.9-26 4-35.8-.5.3-.9.4-1.1.8zm5.7 16.2c-1.4 9.4-.1 18.3.3 27.4.5.6 1.4.9 2.1.7-2.1-6.5-3.2-16.7-1.5-26.1-.2-.3-.6-2.5-.9-2zm2.4 3.2h-.5c-.1 8.7-.1 17.3 1.2 25.2.2.3.7.3.9.3-.7-7.9-1-16.2-1-24.6-.2-.2-.3-.7-.6-.9zm4.5 4.5c-.1 0-.8.1-.8.2 0 7.1-.4 14.3.4 21.3.8.1 1.9.2 2.6-.1-1-6.8-1.2-13.8-1.6-20.8 0-.1-.6-.6-.6-.6zm3.5 3.3c-.1 6.4.4 12.4 1.3 18 .6.1.9-.1 1.2-.6-.8-5.5-1.2-11.3-1.6-17.2-.3-.5-.6-.8-.9-.2zm2.3 1.3c.3 5.2.5 10.5 1.4 15.7.3 0 .9-.1 1.2-.3-1-4.9-1.1-10-1.5-15-.3-.5-.7-.7-1.1-.4zm3.7.9l1 13.6c.8.2 1.4-.4 1.8-1l-1.2-12.5c-.4-.2-1.2-.2-1.6-.1zm4.8.5c-.2 4 0 7.6.8 10.7.5 0 1-.4 1.2-.9-.6-2.8-.8-6.5-1.1-9.9-.1-.6-.5-.2-.9.1zm2 .1c0 3.3.3 6.5 1 9.2.6.2 1.2-.3 1.4-.8l-1.1-8.8c-.6-.2-1-.1-1.3.4zm3.7-.3l1.1 7.1c.6-.1 1.2-.4 1.5-.9l-.6-6.4c-.7-.3-1.7-.7-2 .2z"/><path stroke="#fff" stroke-width=".318" d="M164.3 418.7c0 1.8-.1 3.7.6 4.9.2-.3.6-.5.8-.6-.5-1.1-.6-2.7-.6-4.5-.4-.2-.6-.1-.8.2z"/><path d="M166.2 418.5l.5 4 1.2-.3-.6-3.8c-.4.1-.7.1-1.1.1zm4.2-.3c-.1 0-.3.1-.3.2l.4 3.3c0 .1 1 .3 1.1.2l1.1-.2c-.8-1.6-.8-3.4-2-3.4-.1-.1-.2-.1-.3-.1z"/></g><path fill="#EBE2D3" d="M150.9 187.1l-1.5 2.2.9 2.3 2.4.2 1.6-1.7-.6-2.8-2.1-.5-.7.3zm6.8 1.2l1.7-.9 1.7.2.7 1.3v.7l-1.1.9-2.4-.7-.6-1.5zm-9.6 10.1l-.2-2.9 1.4-.8 2.6.7.6 1.7-.2 1.8 1.1-.1 2.4-.6 2.5 1.2.2 1.7-1.6 1.1-3-.1.3 1.8-.7 1.8-2 .2-1.6-1.5-.7-1.4-1.2 1.7-2.4.6-1.6-.4-.3-1.7 1.8-1.7-.2-.6-2.9-.6-1.4-1.4 1-1.3 2.2-.9 2.9 1.4 1 .3zm-11.4 7.3l-.5-2.5 1.4-1.4 3 1 .7 1.9.7 2.2 3.2-.3 1.4.3.9 1.7-2 .9-1.4.2.3 2.1-1.2 1.4-1.4.1-1.9-1.8-1.7 1.9h-1.9l-1.1-.6-.2-1.7 1.7-1.4-1-.6-2.4.4-1.9-1.5-.6-1.6 1.4-1.3h2.1l2.4.6zm5.4 13l1.9.1 2.9 2.8 1.6 2.3 1.4 1v2l-1.4-.3c-1.2-2-3.8-5.3-6.9-7.4l.8-.5h-.3zm19.8.2l-1.3 2.4 2.2 1.9-2.2 1.8-.1 1 1.2 1.3 1.2-.6 1.3-1.6.6 2.3.9 1 1.8.2.8-.6.2-2.5 1.8.7 2.5-.2.7-1.4-.4-2-2.5-.6-2 .5-.6-.2.9-2v-1.7l-1.3-1.4-1.6.6-1.2 1.4-.8.8-1.6-1.1h-.5zm12.8-6.1l1.8 1.3 1.7.9h.8l.8-2.2-.9-2.8-1.8-.3-1.7 1.1-.9.9.3 1.3-.1-.2zm-.5 5.1l.9.7 1.6.9.2 1c0 .5-.1 1-.5 1.2l-1.6-.4-1-1c-.2-1.1-.1-1.9.4-2.4zm1.6 23l-1.3.9-2.9-1.9c0-1.7.6-2.3 2.1-1.7l2.1 2.7zm19.9 3l1.6-1.3c.2-1.5-.4-1.9-.9-2.5-.8-.5-2-.4-3.1 0 .4 1.6-.1 3.8 2.4 3.8zm4 .1h2.3l1.5.9-.2 1.8c-.8.2-1.5.1-2.2-.2l-1.7-2.2.5-.2-.2-.1zm-10.6 3.7h.7l.4-2.2.8-.7 2.6.8.4 1.5.1 1.7 3.6.8 1.5 1 .3 1.9-1.4 1.4-3.1.1c-.4 0-.8.1-1.3-.3.1.9.7 1.5-.1 2.8-1.1.5-2.2 1.2-3.6-.3l-1.1-2.4-2.5 1.2-.9-.2c-2.1-.6.1-1.3-1.8-1.2l-2.2-.3c-1-.4-1 .3-1.1.4v1.8c-.9 2.9-3 1.3-3.6.1l-.4-2.1-2.9 2c-1.5.5-2.3.4-2.8-1.3.5-2 3.1-1.9 3.7-3.3-1.5-.5-3.1-.3-4.3-3.3-.1-1.9 1.4-1.4 2.5-1.6l3.8 2.1.1-2.2c.8-1.4 1.9-1.6 3.7.4.1 1.1.8 2.2-.1 3.4l4.6-.1 1.3 1 .7-.3-1.1-1.8c-.7-4.4 2.3-1.7 3.5-.8zm-25.1 5.8c1.7-.4 2.6.1 3 1.2l-.7 1.7c-1.2-.2-2.4-.2-2.3-2.9zm4.7 6.7c.6-.6 1.1-.1 1.6 0 1 .4 1.5 1.3 1.4 2.9.9 1.7.5 1.6.7 2.2 1.7-1.3 2.6-.4 3.6-.1 1.4 1.4 1.1 2.3-.7 3l-3.6-.2c.4 1.4.6 2.8-1.6 3.4-.9-.4-2.3-1.5-2.1-3.6l-.1 1.1-1 .3-2.6-5.5c.4-.9 1.3-.5 2.1-.3l1.7.9h.9c-.2-1.1-.9-1.4-.3-4.1zm15.7-1.7c-2.3.5-1.5 2.3-1 2.7l1.5.6c2.6-.8 2-1.9 1.2-3-.6-.1-.9-.7-1.7-.3zm5.2 6l.6 1.6c-.2.6-.1 1.5-1.4 1.1l-1-.6c-.4-2.2-.3-3.6 1.8-2.1zm-44.5 31.7c-.2-2.2 3.2-.8 3.5.5v.9c-.7.4-1.7 1.6-3.3-.4l-.2-1zm8.9 10.5l.5-.8c-.4-.6-.3-1.4-1.5-1.8-2.9-.9-.5 3.5 1 2.6zm11-.1c-.5-1.7-1.7-2-2.9-2.1.3 2 .2 4.3 1.3 5.9-.5-.8-2.2-.8-3.7-.9-6.3 2-4 4.9-1.7 5 1.2-.5 2.5-.5 3.6-1.6 1.4 2.4-.3 2.5.3 3.2.5.5 1-.3 1.4-.8l1.7-8.7zm-14.7 13.3c-.9-3.9 1.8-4.3 3.5-2.2l.8 3 1.9-1.1c4.7-1.9 3.4 1.7 2.4 2.6l-1.3 1.2c.5 1.3 1.5 2.7-1 4.1-2.3.3-1.4-2.1-3.1-1.9-.5 2.5-5 8.3-3.7-1-4.4 4.1-6.7-4.3-.3-3.4.2-.3 1.2-1.8.8-1.3zm-10.7 16.5c.2-1.8 1-3 3.3-2.6.6.5 1.6-.3 1.3 2.8-.6 2-1.9 1.2-2.8 1.8-1-.5-1.7-1.1-1.8-2zm-2.9 1.5c.3.4.8.6.1 1.2l-.4.3c-1.8-.1-1.7-.9-1.1-2l1.4.5zm17.4 8.3l-3.9 9.6-1.2-.3c1.5-.1-1.3-1.3.3-3.4l-2.4-1c.9-1.1.1-3.9 3-3.1l1.2.8c3 .7-4.1-5.2 2.7-3.7l.3 1.1zm-12.6-3c1.1 1.4 2.4-2 4.6-1.6 3.1 1.1 1.4 2.4.2 3.7l-2.1.9 1.1 2.2-1.1 1.6c-.6.4-1.1.9-1.9.4l-.6-.5c-.6-1.4-1.3 0-2 .7l-1.4 1.2c-3.7-.3 1.9-3-1.3-4.1l-2 .8c-1.1.5-1.8-.4-2.6-.7-.6-3 2.2-2.5 2.8-3.8l2.4.5c.8-1.2-1.8-6 2.6-3.3l1.3 2zm-15.8 13.9c-1.7-2.6-2.1.1-1.3 1.4l.9 1.2c.6.7-2.4.5-3.6.7 1.3.3-3.2 2.6 0 4.2 2.1.3 3.2-1 4.7-1.9 3-1.9-.6 2.7.3 4.8.6.7 1.2 1.3 3.1-.6.4-.8.7-1.7.7-2.6.8.7 1.8.1 2.7-.3 2.5 1.2 4 .1 5.6-.6 3.1-.6-3.3 5.9.8 4.3 1.5-.7 1.6-2.6 2.1-2.8 4.7 1 4.1-1.5 3-2.6-.3-1.9.5-6.8-1.9-3.5-5.2-1.4 1.5 5.9-3.7 2.3-1.3-.2-3 .6-3.8-.8-.7.2-1.7 1-1.9.5-.6-1.8-3-.1-3.6-1-.6-.8-1.2-3-4.1-2.7z"/><path d="M127.5 369c-.4-.1-1.3-.9-1-1.1.1-.1.3 0 .6.2.5.4.8.4 1.7 0 .6-.3.8-.5 1-1 .1-.4.3-.6.3-.6.1.1-.2 1.3-.5 1.6-.4.3-1.4.9-1.6.9h-.5zm10.7-.1c-.4-.3-.2-.6.4-.6.7 0 1.8-.8 2-1.4.1-.3.2-.8.3-1.2.1-.9.4-1.3.7-.8.1.2.5.4.9.6.7.3.8.3 1 0 .2-.1.4-.2.6-.2.3.1.2.1-.1.5-.4.4-.8.5-2 .2-.4-.1-.5 0-.7.2-.1.2-.2.3-.2.4 0 .6-.3 1.1-1.1 1.8s-1.3.8-1.8.5zm-16.5-3.3l-.7-.4c-.5-.3-.6-.8-.2-.7.2.1.4.1.5.1l.3.1s.4.1.8.1c.7 0 2.1-.6 3.6-1.7.6-.4.8-.1.2.4-1.4 1.2-2.2 1.7-3 1.9-1 .4-1.2.4-1.5.2zm12.2-.2c-.1-.1-.2-.2-.4-.2s-.4-.1-.5-.2c-.2-.2-.3-.2-.7.1-.3.2-.6.3-.9.2-.5-.2-.4-.4.1-.3.3.1.5-.1 1.1-.7.6-.6.7-.8.9-.6.1.1.1.3 0 .4-.2.3-.1.3.9.6 1.5.4 2.3.3 3.8-.7.8-.5.8-.5.8 0 0 .3-.1.5-.7.7-.4.2-1 .3-1.4.3-.4 0-.9.1-1 .2-.5.4-1.9.5-2 .2zm-3.7-.4c-.1-.3 0-.5.3-.3.3.1.3.4 0 .5-.1 0-.2-.1-.3-.2zm14.6-1.1c-.3-.4-.5-1.1-.4-1.7.1-1.3.1-3-.1-3.4-.2-.6-1.1-.5-1.1.2 0 .6-.9 1-1.2.6-.1-.2.2-.5 1.5-1.6.4-.3.5-.6.5-1 0-.3-.1-.6-.2-.8-.1-.1-.2-.4-.2-.5s0-.4-.1-.5l-.2-.4-.1-.7c-.1-.3 0-.5.3-.6.3-.2.4-.1.7.2.2.2.3.5.3.7s.1.4.2.5c.1.1.3.4.5.7.3.6.3 1.2-.1 1.7-.1.1-.1.4.1 1 .4 1.3.5 1.8.4 1.9-.1 0-.1.4-.1.8s0 .9-.1 1.1c-.1.4 0 .5.3.9.4.4.4.5.2.8-.7.4-.9.4-1.1.1zm-25-.6c-.1-.1-.2-.3-.2-.4 0-.3 1-1.3 1.2-1.3.2 0 .2.1-.1.3-.2.2-.4.5-.4.8 0 .6-.2.9-.5.6zm22.9-.8c-.2-.3-.1-.3.6-.5.3-.1.5 0 .5.1s-.1.2-.2.2-.3.1-.3.2c-.1.3-.3.3-.6 0zm-4.1-.5c-.4-.1-.9-.2-1.2-.2-.6 0-.6-.2-.2-.6.3-.3.3-.3.8 0 .3.2.5.2.5.2s.2 0 .5.2c.3.1.5.4.5.5v.2c-.2-.1-.5-.2-.9-.3zm-17.1-1c.3-.4 2.4-.7 2.9-.4.1.1-.1.2-.7.2-.5.1-1.2.1-1.6.2-.5.1-.7.1-.6 0zm3.3-1.3c-.2-.3-.6-.7-.7-.9-.2-.2-.3-.3-.2-.4.1-.1 1.5 1.2 1.6 1.6 0 .5-.2.4-.7-.3zm23.9-4c-.8-.8-1-1.4-.5-1.9.3-.3.5-.2.4.1-.1.7 0 1 .5 1.5.8.9.5 1.1-.4.3zm-.6-3.5c-.6-.2-1.3-.6-1.6-.8l-.5-.4.4-.6c.2-.3.5-.7.7-.8.3-.2.3-.1.2.2-.4 1.1.1 1.8 1.5 2.3.4.1.8.3.9.4.2.3-.6.2-1.6-.3zm-10.8.1c-.3-.1-.5-.3-.5-.4 0-.2.2-.2 1.1.2.5.2.5.2 1.4-.6.6-.6.9-.8 1-.7.1.2-.4 1-.9 1.2-.2.1-.4.3-.5.4-.3.2-.9.2-1.6-.1zm-5.4-1.6c-.2-.3-.6-.9-.8-1.3l-.9-1.5c-.3-.5-.5-.9-.5-1s-.2-.4-.4-.7-.4-.5-.3-.5 0-.1-.1-.3c-.3-.4-1.1-1.8-1.1-2 0-.2-.7-1.6-1-2.2-.5-.8-1.1-2-1.4-2.8-.4-1-.4-1.3.1-1.3.2 0 1.1 1.2 1.1 1.6 0 .1.1.3.3.5.1.1.3.4.4.6s.2.5.3.6c.1.2.9 2.2 1.3 3.2.1.3.4 1 .7 1.6s.6 1.3.8 1.6c.3.8.7 1.3.8 1 .1-.4.8-.2 1.4.3.3.3.7.5.9.6s.4.1.6.3c.8.7-.6.6-1.6 0-1-.7-1.2-.5-.6 1 .6 1.1.6 1.6 0 .7zm10.4.4c-.4-.1-.8-.6-.6-.8.1-.1 1.2.4 1.2.6 0 .2-.2.3-.6.2zm1.7-.2c-.4-.1-.4-.1.3-.8.4-.4.7-.9.8-1.2.1-.5 0-.6-.6-1.3-.4-.4-.6-.9-.6-.9.2-.2.9-.6 1.5-.7.6-.1.8-.2 1.9-1.3.7-.7.8-.6.4.2-.3.5-2.1 1.9-2.5 1.9-.4 0-.5.4-.1.6.2.1.3.4.3.5s.1.4.2.5c.3.3.3.9-.1 1.6-.4.8-1 1.1-1.5.9zm-9-1.7c-.3-.1-.2-.1.1-.3.2-.1.7-.4 1.2-.6 1-.3 1.3-.2 1.2.4-.1.3-.2.4-.7.4-.3 0-.8 0-1.1.1s-.5.1-.7 0zm15.9 0c-.1-.1-.4-.3-.8-.5-.7-.3-.9-.6-.5-.6.2 0 1.4.8 1.6 1.1.1.1 0 .2-.1.2 0-.1-.1-.1-.2-.2zm-.4-3c0-.8.9-1.3 2.1-1.3 1.2 0 1.8.3 1.6 1l-.1.4-.5-.4c-.6-.4-1.5-.5-2.2-.2-.3.1-.4.3-.4.6s-.1.5-.2.5c-.2-.2-.3-.3-.3-.6zm-14.6-1.2c-.4-.1-.8-.2-1.1-.3-.3-.1-.8-.1-1.2-.1-.7.1-.7.1-.5-.2.2-.3.4-.3 1.9-.2 1.1.1 1.8.2 2 .3.2.1.5.2.6.2.1 0 .3.1.4.2.1.3-1.1.3-2.1.1zm5.2-2c-.3-.7-.6-1.1-1.1-1.3-.7-.5-.9-.7-.7-.9.4-.4 1.6 1.1 2.1 2.4.3.8.3.8.1.8.1-.1-.2-.5-.4-1zm6.4 0c-.2-.5-.8-.7-1.8-.8-.8-.1-1-.1-1-.4 0-.3 0-.3.7-.4.9-.1 1.4.1 2.6.9 0 0 .1.3.1.5 0 .6-.3.7-.6.2zm7-.1c-.2-.2-.2-.7 0-.9.3-.2-.1-3-.5-3.8-.1-.2-.1-.4.2-.8.2-.3.4-.6.5-.6.2 0 .6 1.2.6 2.1 0 .5 0 1.4.1 1.9 0 1.9-.3 2.7-.9 2.1zm-18.3-3.1c.1-.2.9-.5 1.1-.3.1.1-.1.2-.4.3-.6.2-.8.2-.7 0zm1.9 0c-.1-.1-.2-.5-.3-.8s-.2-.7-.2-.8c-.1-.1-.2-.4-.2-.8-.1-.4-.2-.7-.2-.8-.1-.1-.2-.5-.4-1-.2-.4-.4-1-.5-1.3-.6-1.3-.7-1.6-.7-2.1 0-.3 0-.5.1-.5.2-.1 1.7 3 1.9 4 .1.4.3 1.2.5 1.7.5 1.8.6 3 0 2.4zm2.4-1.2c-.5-.2-1-.6-1.1-.8-.1-.2-.4-.5-.5-.6-.1-.1-.2-.3-.1-.4.1-.2.2-.2.5-.1.2.1.8.2 1.4.3 1.2.1 1.8-.1 2.3-.9.3-.4.3-.5.1-1.1-.2-.7-.8-1.3-1.2-1.3-.3 0-.6-.3-.6-.5s1 .1 1.4.4c.2.2.4.3.5.3.3 0 .5.8.5 1.7 0 .8 0 .9-.5 1.3s-1.8.8-2.3.8c-.8-.1-.7.3.2.7.9.4 1.6.2 2.5-.7.4-.4.7-.5.7-.4 0 .3-1.3 1.5-1.7 1.6h-.5l-.3.1c-.2.1-.4 0-1.3-.4zm-3.8 0c-.2-.1-.8-.3-1.3-.4-1.1-.2-1.2-.3-.8-.6.4-.3 1.7-.2 1.9.2.1.1.3.3.4.3.1 0 .2.2.2.4 0 .4.1.4-.4.1zm18.2-5.6c-.1-.4-.1-.9-.2-1.2-.2-.9-.3-3.4-.2-3.4.1-.1.6 1.1.8 2.2.1.5.2 1 .3 1 .4.5.2 1.5-.4 2-.2.1-.2 0-.3-.6zm-4.5-2.9c.2 0 .4-.2.6-.3.1-.1.5-.3.8-.5.3-.2.6-.5.8-.9.1-.3.4-1 .6-1.4.2-.4.4-.9.4-1.1 0-.3.4-.2.4.1 0 .1-.1.4-.3.6s-.2.4-.2.5c.1.2-.5 1.3-.8 1.6-.1.1-.2.3-.2.4 0 .4-.7.9-1.5.9-.5.2-.7.2-.6.1zm5.5-1.9c-.2 0-.3-.2-.3-.4 0-.3.1-.3.6-.2.5.1.7 0 1.3-.5.6-.5.7-.7.7-1.3 0-.7-.2-1.4-.6-1.9-.2-.2-.2-.3 0-.5.1-.1.3-.2.4-.2.3 0 1.6-1.3 1.7-1.6 0-.1.1-.4.2-.5.3-.4.2-1-.2-1.3-.6-.5-1.9-.2-3 .6-.2.2-.5.3-.7.3s-.4.1-.5.3c-.2.3-.6.4-.8.2l-.2-1.4c-.2-1.5-.5-2.2-1.1-2.4-.9-.3-1.9-.5-2.4-.4-.3.1-.5 0-.5-.1s.4-.3 1-.4c.9-.1 1.1-.1 1.7.2.7.3.8.4 1.2 1.5.4 1 .5 1.5.5 1.9 0 .2.4.1 1.1-.4.6-.4.8-.5 1.9-.5 1.5 0 2 .2 2.3.8.2.4.2.6 0 1.4-.3 1.1-.3 1.1-1.1 1.6s-.9.8-.5 1.3.4 1.4 0 2.4c-.3.9-.5 1.1-1.2 1.4-.7.2-1.1.2-1.5.1zm-8.2-1.9c-.2-.2-.1-.6.1-.5.1 0 .4 0 .5-.1.2-.1.5-.3.7-.3.2-.1.6-.2.7-.4.3-.4.6-.4.7-.1.1.1 0 .3-.2.3-.4.1-.9.4-1.4.7-.4.4-.9.6-1.1.4zm2.2-4.6c-.6-.2-.7-.2-.4-.3.4-.1.4-.2 0-1.2s-.2-1.4.4-.7c.2.2.8.9 1.4 1.5l1 1h-.8c-.5 0-1.2-.1-1.6-.3zm11.9-4.9c-.4-.6-.6-1-.3-1.2.1-.1.2-.1.3 0 0 .1.2.4.5.7.2.2.4.6.4.7-.1.3-.5.2-.9-.2zm-11-1.1c-.5-.2-1.3-.9-1.3-1.1 0-.1.1-.4.3-.5.3-.3.4-.8.2-1.2-.1-.1-.2-.9-.3-1.7s-.1-1.5-.2-1.5-.1-1.1-.2-2.3c-.1-2.4-.3-4.1-.6-6.4-.1-1-.2-3.1-.2-6s-.1-4.6-.2-4.7c-.1-.1-.1-.6-.1-1.2s0-1.7-.1-2.5c-.1-1.4 0-2.2.2-1.5.2.7.6 4.7.6 7 0 .1 0 1.3-.1 2.7-.1 2.1-.1 2.9.2 4.4.2 1 .4 1.9.4 2 .3.2 4.3-4.3 5-5.7l.5-.7c.2-.2.3-.4.3-.5 0-.1.2-.4.5-.7.2-.3.6-.8.7-1 .1-.3.3-.5.4-.5.1 0 1-1.3 2.3-3.5.3-.5.8-1.2 1-1.6.3-.4.8-1.3 1.1-1.9s.8-1.4 1.1-1.6c.3-.2.5-.5.5-.6s.1-.4.2-.7.3-.7.4-.9c.2-.5.6-.7.9-.4.4.3.3.9-.5 1.9-.4.5-1 1.4-1.3 2-.3.6-.7 1.3-.9 1.5s-.5.8-.7 1.3c-.2.5-.6 1.1-.9 1.4-.3.3-.6.7-.7 1l-1.4 2.1s-1.4 2.1-1.8 2.6-.7.9-.8 1c-.1.1-.2.2-.2.3 0 .1-.8 1.1-1.8 2.1s-1.8 2-1.9 2.2c-.1.2-.4.5-.8.7s-.8.6-1 .9c-.3.5-.4.8-.3 2 0 3.4.8 8.3 1.3 8.5.2.1.4-.2 1.2-1.5.3-.5.5-1 .5-1.2l.1-.3c.1 0 .2-.4.4-.8.1-.5.4-.9.5-1 .2-.1.4-.4.6-.7.1-.3.5-1.1.8-1.7s.6-1.5.7-1.8c.1-.3.2-.7.3-.9.1-.1.5-.8.8-1.5.3-.7.7-1.5.8-1.7s.2-.6.3-1c.4-2.7.9-4.1 1.2-3.8.2.2.1 1.5 0 1.9-.1.3-.2.8-.3 1.2-.1.9-.7 2.4-1 2.6-.3.2-.7 1-.7 1.3 0 .2-.1.4-.3.6-.2.2-.3.5-.3.7 0 .4-.2.8-1.2 3-.2.5-.5 1.2-.6 1.4-.1.3-.3.7-.5.9s-.4.5-.4.6-.2.4-.5.7c-.3.3-.7.8-.8 1.2-.4.9-.7 1.7-.9 2.1-.1.2-.1.4-.1.5s-.1.3-.3.5c-.2.3-.2.4-.1 1.3.7.7.6.9 0 .7zm5.8-.7c-.6-.2-1.1-.6-1-.9.1-.3.3-.3.7.1.2.2.6.4.8.4.6.1 2.1 0 2.3-.2.1-.1.5-.2.8-.3.4-.1.8-.3 1.1-.5.4-.3.4-.4.6-.1.3.4.1.5-1.5 1-1.4.5-3.1.7-3.8.5zm.5-4.8c.1-.3.3-.4 1.3-.7 1.1-.3 2-.3 3.2-.1 1.7.4 1.3.6-1.3.7-.9 0-2 .1-2.4.2-.7.1-.9.1-.8-.1zm-3.7-4.3c0-.3-.1-.8-.1-1-.1-.3-.1-.5 0-.5.2 0 .2.3.4 1.4.1.4 0 .7-.1.7-.2-.1-.2-.4-.2-.6zm10.7-.2c-.3-.3-.6-.5-1-.5-.3 0-.7-.1-.9-.1l-.4-.1.4-.3c.3-.2.6-.3 1.1-.2 1 .2 1.4.4 1.4 1.1.1.7 0 .7-.6.1zm-19.4-7.8c-.1-.2-.2-.7-.2-1.2-.2-1.3.1-1.4.9-.4.4.4.8.8.9.8s.3.1.4.2c.2.2.2.2 0 .2-.1 0-.3-.1-.4-.2-.3-.3-.7-.1-.8.3-.2.7-.7.8-.8.3zm3.1-.9c0-.8 0-.9.2-.6.1.2.2.4.2.5 0 .1-.1.4-.1.6 0 .2-.1.4-.2.4 0 0-.1-.4-.1-.9zm22.2-25.2c-.2-.2.1-.4.3-.2.1.1.1.2 0 .3-.1.1-.2 0-.3-.1zm-1.8-1.9c-.5-.6-.7-1.3-.3-1.6.3-.3.4-.2.4.6 0 .6.1.9.3 1.1.2.2.3.4.2.4-.1 0-.3-.2-.6-.5zm3.3-1.2c0-.6.1-.7.5-.4.1.1.8.3 1.4.3.9.1 1.3 0 1.9-.2.7-.3 1-.2.7.2-.1.1-.5.3-1 .4l-1.2.1c-.2 0-.7 0-1-.1-.5-.2-.6-.2-.8 0-.3.3-.5.2-.5-.3zm16.7-.8c-.2-.1-.4-.2-.4-.3s-.1-.3-.1-.4c-.4-.6 1.1-.1 1.7.6.3.3.3.3-.2.3-.3-.1-.8-.2-1-.2zm1.9-1.1c-.1-.2-.3-.5-.3-.8s-.1-.7-.2-.9c-.3-.8.2-.4.7.5.6 1.1.4 1.9-.2 1.2zm-13.4-.2c-.1-.1-.2-.3-.2-.5s-.3-.4-.6-.5c-.9-.4-1.2-.9-1.2-1.5l.1-.7c0-.3.5.3.5.7.1.3.5.9 1 1.4.6.6.9 1 .7 1.1s-.2.1-.3 0zm-9.4-2.2c-.4-.2-.9-.5-1.3-.6-.7-.2-.9-.5-.3-.5.6 0 2.7 1.1 2.7 1.3-.1.4-.4.3-1.1-.2zm3.9-.1c0-.1.1-.4.2-.8.3-.8.1-2-.4-2.4-.3-.3-1.4-.6-2.4-.8-.2 0-.4-.2-.4-.3 0-.3 1.9-.1 2.5.3.8.4 1.1.8 1.1 1.1 0 .2.1.5.2.6.1.2.2.4.1.5-.1.2-.4 1.1-.4 1.2 0 .1-.1.2-.3.4-.1.2-.2.3-.2.2zm21.4-1.1c-.2-.1-.8-.1-1.4-.1-.7 0-1.3 0-1.7-.1-.3-.1-.9-.2-1.3-.2-.5 0-.7-.1-.6-.2.2-.5 6.7-.4 7 0 .2.3-.1.6-.7.6-.3 0-.7 0-.8.1s-.3 0-.5-.1zm-13-.2s-.2-.1-.4-.1c-.7-.1-1.5-.6-1.4-.8.1-.2 1.1-.2 2.5 0 1.5.3 1.4.3 2.2 0 1-.3 1.6-.9 1.9-1.8.2-.8.2-.8-.6-1.8-.2-.3-.1-.4.3-.3.2 0 .4.3.5.6.2.6.1 2-.2 2.6-.3.5-.1.7.8.8 1.3.1 2.1.6 1 .6s-2.5 0-3.7-.1c-1.1-.1-1.9 0-2.5.3-.2.1-.3.1-.4 0zm-5.2-.9v-.9c0-.3-.1-.8-.2-1.2-.3-.9-.3-1 0-1 .4 0 1 1.2 1 1.9-.1 1-.8 2.1-.8 1.2zm1.8-.9c-.2-1.4-.1-1.9.3-2.4.2-.2.5-.8.7-1.1.3-.6.3-.7.1-.8-.3-.2-.6-.2-.7.1-.1.1-.3.4-.6.5-.3.1-.5.3-.5.4s-.1.3-.3.5c-.3.3-.3.3-.3-.2 0-.3.2-.6.7-1.1.4-.4.8-.8.9-1 .3-.5.2-1.4-.1-1.7-.3-.3-.2-1.1 0-1.2.3-.1.5.4.6 1.3.1 1.5.4 2.2.9 2.4.7.3 1.1.3 1.7 0 .6-.3.7-.6.7-2.3 0-1.2 0-1.3.2-1.1.1.2.2.5.2.7 0 .2.1.7.3.9.3.6.2.9-1.1 2-.8.7-.9.7-1.5.6-.6-.1-.7-.1-1.2.5-.6.6-.6.6-.6 1.8 0 1.2-.1 1.7-.3 1.7.1.3 0-.1-.1-.5zm9.8-1.8c-.2-.2-.3-.4-.3-.4.2-.2.9.2.9.5s-.1.3-.6-.1zm5.2-1.7c-.5-.3-1-.8-1-1 0-.2.2-.1.8.2.6.3.9.4 1.5.3.4-.1.8-.2.9-.3.4-.3.7-.3.6 0-.1.4-1.3 1-1.9 1-.4-.1-.8-.1-.9-.2zm-25-.8c-.1-.4.1-1 .4-1 .4-.1.4-.3.1-1.1-.3-.7-.8-.9-2.3-.8-.7.1-1.3 0-1.3 0-.1-.2.4-2.1.8-3.1.2-.4.5-1.3.7-2 .6-1.9.7-2.4.9-2.4.3 0 .2.7-.3 2.2-.3.9-.6 1.7-.7 1.9-.1.2-.2.6-.3 1-.1.4-.2.8-.3 1.1-.3.7 0 .9 1.4.9.7 0 1.3.2 1.4.3.3.3.9 2 .9 2.5-.1.5-1.2 1-1.4.5zm6.6-.6c-1.1-.2-1.6-.4-1.6-.7-.1-.4-.2-.4.7 0 .4.2.9.3 1.1.2.7-.1 2.1-.8 2.4-1.2.3-.3.9-.5.9-.2 0 .1-.2.2-.4.3s-.7.5-1 .8c-.7.9-1.1 1-2.1.8zm21-.9c0-.2.1-.4.2-.3.2.1.2.7 0 .7-.1 0-.2-.2-.2-.4zm-8 0c-.5-.3-.4-.6.2-.4.7.2 2.1-.4 2.9-1.2.8-.8.8-.8.9.6v.9l-.6-.1c-.3 0-.8.1-1.2.2-.8.3-1.6.3-2.2 0zm-15.1-.6c-.3-.7-.2-.9.1-.3l.2.6c-.1 0-.2-.1-.3-.3zm23.1-.2v-.6c0-.2.1-.3.1-.3.2 0 .3.8.1 1-.2.1-.2.1-.2-.1zm1.5 0c-.3-.1-.5-.3-.5-.4s.6-.1 1.3-.1c.9 0 1.4 0 1.4-.1.1-.1.2-.2.4-.2s.6-.3 1-.6l.7-.6-.2-.6c-.1-.3-.2-.7-.2-.7.1-.2-.7-.8-1.5-1.1-.8-.3-3.2-.4-4.1-.1l-.4.1.2-.9c.1-.5.3-1.1.4-1.3.1-.2.1-.4 0-.6-.2-.3-.2-.4-.2-.8 0-.3-1.1-.8-2-.9-.3-.1-.7-.1-.8-.2-.1-.1-.1 0-.1 0s0 .5-.2.9c-.2.6-.3 1-.3 1.9 0 .8 0 1.1-.1 1.1h-.4c-.1 0-.2.2-.2.3 0 .5-.3.2-.4-.3-.1-.6-.9-1.9-1.1-1.9-.1 0-.3-.1-.5-.3s-.6-.4-1-.4c-.4-.1-.7-.2-.6-.2.1-.2 1-.3 1.3-.2.2.1.5.2.8.3.3.1.6.4.8.6.1.3.4.5.5.5.3 0 .6-.8.5-1.3-.1-.3.1-.5.6-1 .6-.5.8-.6 1.5-.5.7 0 .9.1 1.3.4.3.2.6.4.7.4.1 0 .1.1.1.2 0 .3.1.3.8-.2.8-.5 1.2-1.1 1-1.4-.2-.2-.2-.7 0-.7.3 0 .2-1.5-.1-2.2-.1-.4-.2-.7-.2-.7.2-.2.4.1.6 1 .1.5.3 1 .3 1.2.1.2.2.2.4 0 .4-.4.4-1.6-.1-2.1l-.4-.4.4.1c.3.1 1.1 1.3 1.1 1.6-.1.5.1 1 .3 1 .3 0 1.2-.4 1.6-.8.2-.2.7-.6 1.1-.9s1.1-.9 1.5-1.3c.7-.7 1.2-.7 1.2-.1 0 .2-.2.5-.6.7-.3.2-.7.5-.9.7-.2.2-.4.3-.5.3-.2 0-2.2 1.9-2.2 2.1 0 .1.7.1 1.6.2 1.5.1 1.6.1 2.3.6.9.6 1.1 1 1 1.9-.1.5-.2.7-.6.8-.3.1-.6.1-.7.1-.3-.1-.3-.5 0-.6.3-.2.4-1.1.1-1.5-.2-.2-.5-.5-.9-.6-.7-.2-2.2 0-2.2.3 0 .1.4.6.8 1.1s.8.9.8 1h-.4c-.5-.1-1.1-.7-1.8-1.9-.3-.5-.6-.8-.8-.8-.1 0-.5.2-.8.6-.3.3-.7.6-.9.6s-.4.1-.5.2c-.1.1-.3.2-.4.2-.3 0-1.5.8-1.5 1v1.1c0 1 .4 1.4 1.1 1.4.8 0 2.3.2 2.7.4 1 .5 2 2.4 1.9 3.3-.1.4-.5.8-1.4 1.3-1 .2-2.6.3-3.4 0zm-12.4-.4c-1-.1-1.5-.4-1.2-.6.1-.1.9-.1 1.7 0l1.6.1.6-.6c1.6-1.5-.2-3-3.3-2.8-.7.1-1.4.1-1.6.2-.1.1-.4 0-.5-.1-.3-.2-.3-1-.1-1.2.1-.1.2.1.2.4 0 .6.1.6.9.2.4-.2.9-.3 1.9-.3 1.3 0 1.3 0 2.1.6.7.6 1.1.8 1.1.5 0 0-.2-.4-.5-.7-.3-.5-.5-.8-.5-1.3 0-.7.3-.8.5 0 .1.5.5 1.2 1.3 2.1l.5.6h-.4c-.4.1-.8.6-.8 1.3 0 .5-.4.9-1.4 1.4-.6.4-.7.4-2.1.2zm-10.3-3c-.5-.3-1.1-.7-1.4-.9-.5-.5-1.1-1.6-1.1-2.2 0-.6.5-.2.8.6.4 1.1 1.5 1.9 2.7 2.1.8.1 1.2.4 1.1.7-.3.3-1.2.1-2.1-.3zm3.2-2.5c-.3-.3-1.2-.9-2-1.3-1.4-.8-1.4-.8-2.1-.7-.4.1-.8.2-.9.3s-.3.1-.4.1c-.2-.1.6-1 .9-1 .1 0 .5-.1.7-.1.7-.1 1.7.2 2.4.8.3.3.9.6 1.2.8l.5.3-.1-.8c-.1-.4-.1-.8-.1-.9 0-.8-.1-2.9-.1-3.2 0-.2-.3-.3-2-.8-.4-.1-1-.4-1.4-.6-.6-.4-.8-.6-.9-1.2-.1-.6-.1-.8.1-1.4.2-.5.4-.7.9-.7.4-.1.8 0 1.2.1.6.2.7.4 1.2 1.3.3.6.7 1.1.7 1.2.1 0 .1-.2.1-.8 0-.5-.1-2-.2-3.4-.1-2.1-.1-2.6.1-2.9.2-.3.2-.3.5.2s.3 1.1.3 5.6c0 2.8.1 5.3.1 5.5.1.3.2.3.4.2.1-.1.7-.1 1.2-.1.9 0 1 .1 1.5.5.4.4.7.9.7 1.4 0 .1.1.4.2.6.1.3.1.5-.1.8-.4.4-.6.2-.5-.4.2-1.4-1.4-3-2.5-2.5-.6.3-.9 1.6-.8 2.8.1.8.1.9-.2.9.1-.1-.3-.3-.6-.6zm-.6-7l.4-.3c.1 0-.2-.5-.9-1.6-.6-.9-1.6-1.3-2.4-.9-.8.4.3 2.2 1.6 2.7.9.4.8.4 1.3.1zm-9.6-12.6c-.3-.2-.5-.4-.6-.9-.1-.3-.2-.7-.3-.7-.1 0-.2-.3-.2-.6-.1-.6-.3-.6-.8-.1-.4.4-.7.5-.7.2s1.4-1.9 1.6-1.9c.1 0 .2.4.2 1 .1 1.3.4 2 1.3 2.4.5.3.8.3 1.3.2.6-.1.7-.2.9-.7.2-.4.2-.8.2-1.4-.1-1 0-1.1.6-.7.4.2.4.3.2.4-.2.1-.2.3-.2.8.1.8-.2 1.7-.6 1.9-.2.1-.6.2-1 .2s-.7.1-.8.1c-.2.1-.6.1-1.1-.2zm-4.7-2c-.6-.9-.6-1-.4-1.5.1-.3.5-.8.9-1.2s.7-.8.7-.9c0-.1-.3-.5-.7-.8-.6-.5-.7-.7-.9-1.7-.2-1-.2-1.1.1-1.5.5-.5 2.1-.8 2.4-.5.1.1.5.4.8.5.6.3.8.6.4.6-.1 0-.3-.1-.3-.2-.1-.1-.2-.2-.3-.2s-.3-.1-.5-.2c-.4-.4-.8-.3-1.3.4-.4.5-.5.7-.4 1.2.1.8.6 1.3 1.2 1.5.3.1.6.2.7.4.2.2.1.3-.3.7-.3.2-.8.6-1 .9s-.6.5-.7.5c-.3.2-.3 1.4 0 1.7.2.1.3.2.4.1.1 0 .2.1.4.2.3.3.3.3 0 .4l-.4.2c-.1.4-.5-.1-.8-.6zm-11.7.5c-.6-.3-1.2-.9-1.6-1.6-.7-1.3-1.9-2.8-2.9-3.8-.7-.6-1.3-1.2-1.4-1.2s-.5-.2-.9-.5c-.7-.4-1.2-1.2-1.2-1.7 0-.3.5-.3.8 0 .3.3.3.1.2-.6-.1-.8-.3-1-1-.5-.5.4-1.8.5-2.2.3-.5-.3-1.3-.7-1.8-.8-.5-.1-1.7-1.2-1.6-1.4.1-.2 1.8.2 2.6.6.8.4 1.9.6 1.9.4 0-.1.2-.2.4-.2.9 0 1.7-.7 1.9-1.6.1-.5-.2-1.1-.6-1.1-.1 0-.5-.3-.8-.6-.7-.6-1.1-.7-1.3-.3-.2.4-1.5 1.1-2.4 1.2-.8.1-.9.1-1.4-.4-.6-.5-.6-.9 0-.4.2.1.6.3 1 .3.5 0 .7-.1 1.3-.7.4-.4.7-.8.6-.9-.1-.1 0-.2.1-.3.1-.1.3-.6.3-1.1.1-1.1.5-1.1.7 0 .3 1.5 1.5 2.6 2.6 2.6.2 0 .6-.2.9-.4.5-.4.5-.5.5-1.1 0-.4-.1-.9-.3-1.1-.1-.2-.2-.5-.1-.6.1-.1.4-.1.9-.1 1.4 0 2.6-.8 2.2-1.5-.1-.2-.2-.5-.2-.6-.2-.5-2.8-.8-3.4-.3-.1.1-.5.2-.8.2-.8.1-.8.1-1.2-1.6-.1-.5-.2-1.1-.3-1.2-.1-.3-.2-.4-.2-.6 0-.2-.8-.9-1.3-1.2-.2-.1-.8-.3-1.4-.3-.9-.1-1-.1-1.3.3-.4.5-.4.9-.1 1.6.1.3.2.5.2.6s.3.4.6.7c.6.6.7.8.3 1.1-.2.2-.4.1-1.1-.2-3.1-1.5-3-1.4-4.2-1.3-.6.1-1.2.1-1.2 0s.3-.3.6-.5c.5-.3.7-.4 1.5-.3.5 0 1.2.2 1.6.3l.8.2s0-.4-.2-.8c-.2-.6-.2-.7 0-1.2.3-.6 1.3-1.6 1.7-1.6l.7-.1c1.6-.2 3.4 1.4 3.4 3.1 0 .2.1.4.1.4.1 0 .2.4.3.9.1.9.2.9 1.8.5l1-.3-.8-.8c-.6-.6-.8-.9-.8-1.3 0-.6.3-1.5.6-1.5.2 0 1.1-.8 1-.9 0 0-.3-.1-.7-.2-1.8-.3-2.7-.7-3.2-1.5-.3-.4-.3-.7-.3-1 .2-.6 1.3-1.7 2-1.8.9-.2 2.5-.1 3.1.2.6.3 1.9 1.4 1.6 1.6-.1 0-.5-.1-.9-.3s-1-.4-1.2-.5c-.7-.2-2.1-.3-2.2-.1-.1.1-.2.2-.4.2-.4 0-1.1.7-1.1 1.1 0 .5.7 1.1 1.4 1.3.4.1 1.5.2 2.5.2s2.1.1 2.3.1c.5.1.4.6-.1.7-.2 0-.6.2-.8.5-.2.2-.5.4-.6.3-.1-.1-.3 0-.5.2s-.5.3-.6.2c-.2-.1-.8 1.3-.8 1.8 0 .7.2.8 1.4.8 1.5 0 2-.3 2.5-1.2.4-.8 1-1.3 1.4-1.2.1 0 .4.4.5.7l.4.9c.1.2.1.4.1.5 0 .4.8 1 1.3 1 .4 0 1.3-.3 1.7-.5.1-.1.3-.1.3 0 .1.1-.4.7-.8.8l-.8.2c-1 .3-2.4-.6-2.7-1.6-.1-.5-.5-.5-1.1.1-.2.3-.7.6-.9.7-.5.2-.9.6-.8.8.1 0 .3.3.5.6.7.8.5 2.3-.3 2.5-.2.1-.4.2-.5.3-.1.1-.5.2-1 .2-.8 0-1.1.2-.8.5.1.1.2.3.2.5 0 .4.4.8.7.7.3-.1.9 1 .9 1.5 0 .2.1.3.1.3.1 0 .1.2.1.5 0 .5-.6 1.7-.9 1.7-.1 0-.3.2-.4.4-.1.2-.2.4-.3.4l-.4.1c-.2 0-.7.1-1.1.2-.7.1-.8.1-.8.6-.1.6.4 1 1.7 1.2.2.1.5.3.6.5.1.2.3.4.4.4s.4.2.6.5c.2.3.7.8 1 1.2s.8 1 .9 1.3c.2.3.5.7.7.9.2.1.5.5.7.9.3.8.5 2.5.3 2.9zm.5-1.2c.1-.3-.2-.9-.5-.9s-.9-.8-1.5-1.9c-.8-1.7-3.4-4-4.6-4.3-.7-.1-.6.1.1.6.3.2.7.5.7.7 0 .2.2.3.3.3.1 0 .3.1.3.3.1.2.4.5.7.7.3.2.7.5.7.7.2.6 1.5 2.4 2.3 3.2 1 .9 1.3 1 1.5.6zm-5-10.9c.2-.2.5-.7.7-1 .3-.6.3-.7.1-1.2-.1-.3-.2-.6-.2-.7 0-.3-.2-.4-.3-.3-.1.1 0 .2.1.2.2.1.1.2-.1.3-.2.1-.3.3-.3.5s-.2.3-.5.4c-.4.1-.5.2-.6.8-.1.4-.1.9-.2 1.1v.6c.2.2.9-.2 1.3-.7zm26.6 11.3c-.9-.1-1.3-.2-1.5-.4-.4-.4-.1-.5.5-.3.5.2 1.4.2 2.4-.1.8-.2 1.1-1.2.6-2.4-.2-.5-.3-.6-1.2-.9-1.1-.3-2.4-.3-3 .1-.4.3-1.1.3-1.2 0-.1-.2.3-.9.8-1.8s.5-1.1.4-1.7c-.2-.8-.6-1.1-1.7-1.1-1 0-1.4.2-1.5.8 0 .3-.4.7-.6.7-.3 0-.1-.9.4-1.5.6-.7 1.2-1 2-1.2.6-.1.7 0 1.2.4.3.3.5.7.5.9s.1.4.2.4c.5.2 0 2.3-.6 2.8-.5.4-.1.9.5.6.2-.1.5-.1.7-.1h1.2c.6-.1.9-.1 1.5.2.7.3 1.6 1.2 1.4 1.6 0 .1-.1.7-.1 1.2s-.1 1.1-.2 1.1c-.6.6-1.5.8-2.7.7zm3.8-4.5c-.3-.1-.6-.4-.6-.6-.1-.2-.2-.5-.4-.6-.5-.5 0-.5.6.1.4.3.8.6 1 .6.9 0 1 .1 1 .4 0 .3-.1.3-.6.3-.3 0-.8-.1-1-.2zm1.8-1.3c-.1-1-.3-1.2-1.2-1.6-.7-.4-1-.6-.7-.7.2-.1 1.6.5 1.9 1 .3.4.4 1.2.2 1.4-.1 0-.2-.1-.2-.1zm-6-1.2c-.3 0-.5-.1-.5-.2s.4-.4.9-.7c.5-.3 1.1-.7 1.4-1 .3-.2.6-.4.8-.4s.3-.1.4-.2c.1-.1.3-.2.4-.2s.5-.2.8-.4.6-.4.7-.4.5-.2.9-.5c.7-.5.8-.9.2-1-.2-.1-.5-.2-.7-.4-.3-.3-.3-.3.9-.2 1 .1 1.2.1 1.2-.1 0-.1 0-.4.1-.5.1-.5-1-1.7-1.8-2-1.1-.3-1.8 0-1.8 1 0 .2.1.5.2.6.2.2.1.4-.3.3-.3-.1-.5-.7-.4-1.3.1-.4 1-1.5 1.3-1.5.1 0 .3-.1.5-.3.2-.2.5-.3.9-.3.3 0 .7-.1.9-.1.4-.1 1 .1 1.5.7.2.2.5.9.7 1.5.2.6.4 1.2.5 1.2.2.1 3.8-1.4 4.6-1.9.3-.2.7-.4.7-.4.1 0 .2-.1.3-.2.3-.3.7-.3.9 0 .1.2-.2.5-1.2 1l-1.1.6c-.3.2-.7.5-.8.6s-.3.2-.4.2c-.2 0-.4.1-1.9.9l-1.2.6c-.2.1-.4.3-.4.4 0 .3-.5.7-1.2.9-.4.1-.7.3-.8.4-.1.1-.6.5-1.2.7-.6.3-1.1.7-1.2.9-.1.2-.4.4-.8.6-.4.1-.8.3-1 .5l-.6.6c-.6 0-1.5.1-2.4 0zm7.7-4.9c-.1-.4-.6-.5-.6-.1 0 .2.1.3.3.3s.4 0 .3-.2zm.7-2.3c0-.8-.3-1.6-.8-1.9-.4-.3-1.3-.4-1.5-.2-.4.3-.3.7.4.9.7.2 1.3 1 1.3 1.6 0 .3.1.4.3.4.3-.1.3-.2.3-.8zm-44.1-.7c-.2-.2-.1-.6.3-1.2l.4-.6-.5-.1c-.3 0-.9-.1-1.4-.1-1.1-.1-2.6-.8-3-1.5-.3-.6-.4-1.7-.1-1.9.3-.2.4-.2.4.2 0 .5.4 1.3.8 1.6.6.5 1.8 1 2.3 1 .4 0 2.1-.4 3.2-.7.6-.2.2.5-.9 1.6-.7.6-1.2 1.3-1.2 1.4.1.3-.2.5-.3.3zm18.7-7.4c0-.1-.1-.4-.1-.6l-.2-.8c-.1-.3 0-.4.2-.4.4 0 .9.9.6 1.5-.1.5-.4.6-.5.3zm1.7-1.7c.1-.1.3-.2.4-.2 1-.2 2.4-1.2 2.4-1.8 0-.6-.3-.9-1.4-1.3-1-.3-2.1-.3-2.6 0-.1.1-.7.2-1.3.2-1 0-1.1 0-1.1-.4 0-.2 0-.6.1-1 .4-1.3-.6-2.6-2.1-2.8-.4-.1-.7-.2-.8-.2 0-.1-.2-.1-.3 0-.2.1-.2 0-.1-.3.3-.8 2.2-.7 3.2.2.5.5 1 .5 1 0 0-.2.2-.7.5-1.2.7-1.4.5-2.2-.5-1.7-.2.1-.6.2-.9.2-.7.1-1.9-.4-1.9-.8 0-.2.1-.2.3-.2 1.3.4 2.1.4 2.1.1 0-.2-.9-.8-1.1-.8-.1 0-.3-.1-.4-.3-.1-.2-.3-.4-.5-.5-.3-.2-.3-.2-.6.1l-.3.4-.3-.4c-.2-.4-.2-.5 0-.9.9-1.8 1-2 2-2.2 1.3-.3 1.8-.2 2.5.4.8.6 1.3 1.6 1 2.1-.1.2-.1.3 0 .5.2.2.2.1.4-.1.1-.2.2-.4.2-.5 0-.2.5-1.3.8-1.8.3-.5.9-1.7 1.4-2.7.2-.4.4-.8.5-.8.1-.1.3-.4.5-.8.7-1.6 1.5-3.1 1.8-3.3.2-.1.3-.1.6.2.4.5.4.8-.1 1.3-.2.2-.4.5-.4.6s-.1.4-.2.5c-.1.1-.2.3-.2.4s-.1.3-.2.3c-.1.1-.2.3-.2.5s-.2.6-.3 1-.5.8-.6 1.1l-.4.7c-.1.1-.2.5-.3.8-.1.6-.1.6.3.6.2 0 .7-.1 1.1-.2 1.4-.5 3.1.3 2.9 1.4l-.1.6c0 .1-.2-.1-.4-.4-.2-.4-.6-.6-.8-.7-.2-.1-.5-.1-.6-.2-.4-.1-1.6.3-1.9.7-.3.4-.2.4.1.8.2.2.8.5 1.4.6 1 .2 1 .2 1.5-.2.6-.5.8-.5.8 0 0 .6-.7.9-1.5.8-1.2-.1-2.2-.5-2.7-.9-.9-.9-.9-.9-1.4-.5-.3.3-.4.5-.4.9s-.1.7-.5 1l-.7 1c-.5 1.2-.8 1.9-1.5 2.6-.6.7-.7.8-.6 1.3.1.7.1 1.2-.1 1.5-.2.2 0 1.2.2 1.2.1 0 .4-.1.6-.2.2-.1.8-.3 1.2-.4.9-.2 2 0 2.9.6.9.6 1.5 1.5 1.3 1.8-.1.1-.1.4-.1.5 0 .3-.3.7-1 1.2-.3.2-.8.3-1.5.3-.9-.2-1.2-.2-1.1-.3zm-1.6-12.2c.1-.2.1-.7.1-1.1-.1-1-.5-1.5-1.6-1.9l-.9-.3-.5.5c-.4.4-.4.6-.4 1 .3 1.3 1.1 2 2.4 2 .5 0 .8 0 .9-.2zm-6.3 7.8c-.1-.3-.3-.9-.4-1.4-.1-.7 0-.9.3-1.2.5-.5 1-.6.6-.1-.4.4-.3 2 .1 2.5.2.2 0 .7-.2.7-.1.1-.2-.2-.4-.5zM154.2 154.4c.3 1 1.3 2 2.2 2.2 6.1 1.9 15.9-.8 23 1.5 3.9 1.1 6.3 6.5 5.8 7.8 0 0 1.5 4.7 1.1-1 0-1.9-2.1-5.9-6.6-7.6-9.3-3.9-20.4 1.6-24.2-3.2.5-2.1 4.5-3.6 7.1-3.8 1.3-.7 3-.8 2.8-1-3.3-.2-9.7 0-11.2 5.1zm5.8-2.1c.1 4.1 7.1 4.2 10.3 4.1.1.1.5-.1.4-.3-.1-.2-.4-.1-.6-.2-2.4-.2-4.6-.3-6.7-1.1-1-.3-2-.9-2.4-1.9-.2-.4-.2-.8-.2-1.1-.3-.2-.8.3-.8.5zm-7.2.8c-1-.1-.1-.9-1.2.3-3.3 3.6 1.9 7.8 6.3 8.5 8.2.5 17.3-1.4 23.1 1.7 1.8.9 4 2.8 4.8 4.7.2.3.4 1 .2 1.7.3.6 1 1.6 1.1.3.1-1.6-1.1-3.9-1.2-3.9-4.7-7-15-5.9-22.6-5.5-3.1-.1-6.3-.5-9.1-2.1-2.8-2.1-2.1-3.2.1-5.3 0 0 1.3-1 1.5-1.6.2-.4-.6-.6-.8-.6-.2-.3-2.1 1.7-2.2 1.8zm-3.1-1c-5.4 3.9-4.3 10.2 1.5 12.7 9.6 4.1 21.8-1 30 2.3 7.1 4.5 3.6 5.6 5.4 8.4 2.5-3.1 0-.4.4-5-1.3-.9-2.2-4.5-10.1-5.5-9.2-1.1-19.7 2.2-27.1-3.2-3.7-3.4-.8-7.3 2-9.9 0-.1-2.1-.3-2.1.2zm-4.9 3.1c-7.4 6.2-7.9 14.7.6 18.8 7.7 3.6 16.9-.3 23.8-.6.9 0 2.1-.2 1.4.7.3.1 2.5-.8 2.2-.9 0-1.1-3.2-.9-4.6-.9-8.6.6-17.8 4.3-24.6-1.4-5-5.1-2.7-10.6 2.2-14.1-.1-1.7.6-2.2-1-1.6zm-7.2 11.6c-.9 1-1.8 2.8-2.5 4-5.2 9-6.8 20.5-7.4 30.8-.2 3.2-.3 4.1-.3 7.2-1 1.7-1.5.5.9 2 .2-1 .6-.9.6-1-.1-11 .8-22.3 5-32.6 1.3-3.3 3.1-6.5 5.1-9.4.2-2 .5-2.6-1.4-1zm1.7 58.4c2 1 0 1.2 5.4 4.6 1.7 1.5 2.9 2.2 5.6 2.7.9.7 1.3-.6.7-.9-2.9-1.2-5.7-2.6-8-4.7-1.2-1-2.9-2.3-3.7-2.8-.8-.5-.2 1 0 1.1zm2.6 47c4.7 3.1 10.1 5 15.8 4.9 3.9 0 9-.8 11.9-3 .6-.4 0-.7-.7-.3-4.5 1.9-9 2.6-13.7 2-2.6.3-12.8-4.4-13.4-5-.2.5-.4 1.3.1 1.4zm-12.8-60.9c8.2 5.2 9.8 11.3 9 20.6.1.2-.6 3.4 1.3.8.7-5.1.2-12-2.7-16.4-1.6-2.2-4.2-4.7-6.7-6-1.5-.6-1.3 1-.9 1zm-6.6-2.8c-5.3-.2-11.8 1.6-16 4.4-2 1.2-3.4 3.2-4.4 5.5-2.8 2.7-1.1.9-1.3 5.2-.1.6-.1 1.2-.1 1.8-.1 7.3 3.5 14.6 7.1 20.8 1.3 2 2.6 3.7 4.1 5.6 1.4.7.8-.1.4-.7-4.7-6.5-8.7-13.9-10-21.9-.7-4.8 0-10.2 3.7-13.6 2.7-2.6 6.4-3.8 10-4.8 3.9-1 8.2-1 12.1-.1.4-.4-1.1-1.6-1.3-1.7-1.3-.5-2.7-.5-4.3-.5zm-10.6 19.9c-.5.5-.7.9-1.1 1.5 1.6-.5 1.6.1 2.7-.3 5.7-4.4 6-2.9 9.9-4 4.3-.4 6.9 0 11 1.5.8-.1 3.6-.3 1.8-1.7-8.1-2.8-18.7-2.3-24.3 3zm6.4-.6c-3.1 6-5.5 11.7-5 18.1l.2 2.1c.2.2 1.3-3.6 1.2-3.8-.5-6.4 1.9-8.7 4.1-14.3 0-.4.3-2.1.2-2.5-.4-1.2-.4-.2-.7.4zm-17.9-10.1c-8 5.7-12.6 15.4-16.2 24.3-5.6 14.6-9.3 31.3-8.6 46.4.2 6 .7 12.3 4.1 17.4 2 3.2 7 4.2 9.3 1.4 7.7-9 6.1-8.6 8.7-11.2-.5-.5-2.1 1.7-2.5 1.8-4.7 6.1-5.5 8.6-8.5 9.1-3.4 1.8-6.5-1.7-7.5-4.8-2.9-8.2-2.7-16.9-2-25.5 1.6-15.3 5.3-30.7 12.6-44.4 2.9-5.3 6.8-10.3 11.7-13.9.1-.9.1-1-1.1-.6zm-1.8 6.2c-3.5 5.4-4.5 10.5-6.4 16.8-4.6 18.4-5.2 36.7-6.5 55.1-.5 2.5-1.2 6.5-3 8.4.8.1 2.4-1.4 2.4-1.7 2.3-5.6 2.1-12.2 2.4-17.8 1.6-17.3 2.8-34 8-50.7 2.5-2 1.9-5.5 4.1-9.3.6-2.9-.7-.5-1-.8zm-7.6 79.8l1.1.1 4.2.3c4.7-.9-4-.8-5.3-.4zm39.2-75.5c1.6 7.7 1.8 3.5 2.5 14.1.1 10.4.3 20.7 0 31.1-.6 17-.3 33.4-.7 50.6.5 11.9-4.9 13.7-13.9 8.3-3.4-2.8-7.5-4.9-11.2-7.2-16.6-6.7-9.5-14.9-5.8-26.6 5.8-20.7 10.8-38.4 16-59.2.8-.1.7-6.3-.6-2-6.6 24.3-13.8 48.1-20.3 72.3-1.2 4.2-1.2 9.7 2.8 12.5 12.7 6.5 16.6 10.5 22.6 13.3 3.4 1.6 9.3 2.5 10.5-2.3 1.9-7.7.9-15.6 1.2-23.5-.1-13.7.4-27.3 1-41-.3-12.1.3-24.3-.6-36.4-.6-3.7-2.5-4.1-2.9-6.6-1.2-1.5-2-1.8-.6 2.6zm4-1.4c-.5 1.1 1.1 2.4 1 2.6 4.2 5.7 4.8 14 5.5 21.4.5 6.7.4 13.5.4 20.2.6 11 1.2 21.6 2.3 32.2.1 6.8 2.8 12.6 1.9 19.5-.5 4.5-4.8 4.6-8.2 3.6-1.2-.1-2.9-.7-3.6-.5-.1.7 1.4.8 1.7 1.2 3.4.8 8 1.8 10.4-1.4 2.2-4.2.6-9.1.1-13.6-1.1-5.8-1.3-11.8-1.9-17.6-.6-8.1-1.1-16.2-2-24.2.2-11.4.5-22.9-2.4-34-2.2-8.8-3.9-6.2-4.9-9.6.1-.2-.2.1-.3.2zM139.3 225.8c.5.7 1 .5 1.6.4l.4.6h-1.9l-.1-1zM167.9 175.2c-.1.3 1.9.4 2 .2 3.6-2 7.1-2.5 11.5-1.6 5 1.3 8.1 4.6 10.2 9.1 1.4 2.9 1.9 4.2 2 7.3-1.5 1 .8 2.8.7 2.6.6-3.7-.6-8.4-2.3-11.6-2.4-4.3-6.4-8.1-11.4-9-4.2-.8-9.5 1.1-12.7 3zm-18.3 43.8c-.5 4.1-.1 8.6.9 12.2.6 1.4 1.8 2.8 2.9 3.9 1.1 1.7 2.2 3.2 4.2 3.5.8.1 1.6.2 2.4 0 1.1-.5.5-2 .2-1.8-2.9.4-4.3-.5-6.1-2.8-4.2-5-3.2-12.5-2.8-15.1-.6-.9-2.3-2-1.7.1zm40.3-31.1c-10.7 1.9-14.7 10.6-15.5 18.6-.8 1.8-1.9 3.7-3.7 4.8-4.7 3.2-11.4 6.3-11.6 12.1-.3 3-.4 6.3-2.1 8.9.1 1.9.4 4.1 1.7 5.6.5-.1 2.7-1 .7-1.1-1.1-2.1-1.3-4.4-.5-6.5l2.3-9.1c2.2-5.6 8.9-6.6 11.8-9.8 1.8-2 2.8-5.5 3.2-8.2 1.4-7.9 8.2-12.1 13.9-13.9 2.6-1.6 1.4-1.4-.2-1.4zm2.6 2.1c2.1 5.1 1.9 11.6 2 17 0 9.4 0 18.9 2.5 27.9 1.2.9 1.5.6.6-1.5-2.3-11-2.1-18.9-2.1-28.5-.1-5.3.7-7.8-1.2-12.2.6-2-1.7-3.4-1.8-2.7zm-31.8 38.3c-.5.4-.2 2.2-.5 2.7-.6 11.8-.8 24.2 4 35.1 3.5 7.6 10.1 13.7 18.5 15.1 10.8 2.1 23.4-3.2 27.7-13.6.9-2.2 1.6-4.7 1.5-7.1-.5-.2-1.1 1.9-1.2 2.1-1.2 7.9-5.9 13-13.4 16.1-7.8 2.9-18.7 2.1-25.6-3.9-6.3-6.6-9.6-17-10.7-27-.5-6.3-.3-11.8.4-18.1.1-.6-.7-1.4-.7-1.4zm28.3 3.8c1.5 2.9 4.2 2.8 7.8 3.4 2 1.2 3.1.9 5.7 1.7 4 .5 8.3 2.2 9.7 2 .3 0 .2-.4 0-.4-2.7-1.6-6.9-2.1-10.4-2.8-4.4-.8-8.5-2.3-10.6-3.3-2.1-.9-2.4-.6-2.2-.6zm-1.2-14.6c-6.5 3.5-12.8 7.7-17.4 13.5-2.3 3.8-4.8 8.3-5.2 13-.3 2.2.1 4.8-1.5 6.5.1.4-.2 2-.8 2.5 0 1.7 1.1 1.4 1-2.6 1.7-1.8 1.6-5.3 2-7.7.4-4.9 3.2-8 6.1-12 2.7-3.3 4.7-5.3 10.6-9.3 6.5-.8 8.8-4.6 5.2-3.9zm24.8 21.7c-2.6.3-3.7 3.1-5 5.1-2.4 2.7-3.5 6.2-4.3 9.5-1.4 4.5-4.7 14.2-2.4 13.8-.5 1.3-1.1 2.2-4 5.6-1.2 1-2 2.3-3.3 3.2-.1.3 1.5-.5 1.5-.7 2.6-1.6 5.1-3.6 5.6-5.7.9-3.3 1.1-6.8 1.9-10.1 1.1-4.6 2.4-9 4.2-13.4 1.2-2.5 2.6-5.1 5.2-6.3 1-.5 2.2-.3 3.1.2.1.3 2.3 1.3 2.3.8-.7-1.5-2.1-1.6-2.7-1.9-.5-.2-1.6-.2-2.1-.1zm3.3 1.6c-2.4-1.8-5.6 1.7-6.5 3.5-2.4 3.5-3.6 7.6-4.8 11.7-.3 1.2-2.3 9.5-2.2 9.6.4 0 .3-.6.5-.9l2.7-10.7c1.1-3.6 2.6-7.2 5-10.2 1.2-1.7 3.1-3.1 5.4-2.7.1 0 .1-.3-.1-.3zm1.6.2c-1.1 0-1.7-.7-2.2 1.1-.2.1 0 .4.2.3 1.4-.1 2.8-.2 4.1.3.6.3 1 .9 1.2 1.5.2.6.9.8 1.4 1.2 1 .5 2.1.5 3.1.8 2 .4 3.8 1.5 4.8 2.2 1.5.1-.4-1-.7-1-2.1-.9-1.3-1.2-5.5-2.5-.7-.1-1.1-.1-1.6-.5-.6-.2-.8-1.2-1.2-1.7-.5-1-2.4-1.7-3.6-1.7zm-2.9 1.4c-1.2.9-2.2 2.1-3.2 3.3-3.1 4.3-4.6 9.5-5.8 14.6l-.9 4c.1.2.3 0 .3-.1 1.2-5.4 2.3-10.9 5-15.8 1.2-2.2 2.8-4.2 4.7-5.8.1-.1 0-.2-.1-.2zm1.3 4.1c-1.3 2.3-1.5 4.2-2.5 6.7l-.2 1.4c-.6.4-3.3 4.7-5.5 5.9-.7.4-1.3.6-2.1.9-.1.2-.1.4.1.2 2.8-1 5.7-3 7.3-5.4.3-.5.2-1.1.4-1.6 1.2-1.2 2-4 3-6.3 1.4-1 1.7-3.5 2.6-3.8l1.6-.2c.1-.2-.2-.3-.4-.3-2 .7-2.6-.7-4.3 2.5zm-7.5 14.6c-.2 0-.2.2-.4.3-1 1.4-3.1 2.4-3.7 3.2-.9 1.2-2.8 1.2-1.9 1.1 1.5-.1 2.9-.9 3.7-1.9.8-.8 1.2-1.6 2.4-2.5.2-.1.1-.2-.1-.2zm.7 0c-3.2 6.5-7.8 6.3-6.6 6.2 2-.4 3.1-1.2 4.5-2.6 1.1-1.1 2.4-2.3 3-3.8-.2-.2-.7-.1-.9.2zm7.4-7.8c-.3.1-1.2 2.6-1.4 2.9-.7.6-1.5 1.2-3.1 3.3-3.1 1.9-1-.5-6.5 2.2-.1.1-.1.5 0 .4 2.6-1.4 3.4 0 6.4-2.2 2.3-1.1 3.4-2.2 3.5-3.7 1.5-.5 1.1-1.7 1.9-2.9 0-.2-.7-.1-.8 0zm4.6-.8c-4.5-.3-1.5.3-6.8.2-.2 0-.5.7-.3.7 2.9-.1 5.5-.2 8.5-.2 1.6-.4.5-.9-1.4-.7zm9.9-4c-.5 0 0 .7.4.7 2.2 1.7 3.6 2.8 5.6 4.4 1.7 1.6 3.2 2.9 4.2 5 .4.8.8 1.9.2 2.7-.5.4-1.1.7-1.6.9-.2.1-.2.7 0 .6.9.1 2.3-1 2.5-1.9.2-1.3-.4-2.6-1.1-3.7-1.7-2.6-5-5.6-6.3-6-.8-1.3-2.6-2.1-3.9-2.7zm-7.5 4.5c-.2.1.1 1.1.2 1.2 3.3 6.7 3.6 5.7 7.2 8.5.6.4 1.8.3 1.8.9 1.4.8 1.1-.4.1-.9-2.2-1.2-4-2.1-5.3-4-1.4-1-.8-1.7-3-4.5 0-.5-1-1.3-1-1.2zm10.9 10.6c-.5.1-.8 0-1.3 0s-1.6.2-2.1.4c-.4.2-.4.5-.5.8 0 .4.5.7.6.3l.2-.4c.2-.3.6-.4.9-.4l2.3-.1c.4-.1.1-.4-.1-.6zm-4.5 3.1c.4 1.3 1.7 1 2.8.9.4-.8.1-.9-.5-.6-1.4.2-2.2-.7-.6-1.2.9 0 1.8-.1 2.7 0l.7.1c.1 0 .4-.1 0-.4-.3 0-.7-.3-1.1-.3-1.3 0-3.8-.3-4 1.5zm3.2.2c-.1 1.3 2.7.3 1.7.3.5-.5-1.4-.4-1.7-.3zm1-4c-.2 0-.2.7-.1.8.7.8.8 1.5.7 2.6-.1 1.5-1.1 3.7-1.4 5-.1.6.5.9.8 1 .1.1.3 0 .3-.2-.3-1-.2-2.2.2-3.2.4-1.2 1-2.4.8-3.7-.1-.9-.6-1.8-1.2-2.4l-.1.1zm1.5-.7c.6 1.1 1.1 1.4.9 3.6-.7 2.4-1.5 4.6-1.5 7-.2.1-.4-.6-.6-.4-.5.6.8 1 1 .7 1.3-.5.4-2.9.8-4.1.9-1.2.8-2.4.9-3.8.1-2.4-.1-2.8-1-3.2-.4-.2-.5-.1-.5.2zm1.5-2.5c-.1 0-.2.4-.1.5.4 1.2.8 2.5.9 3.8 0 .6 0 1.3-.4 1.8l-.8.7c-.1.1-.3.9-.2.8.6.3 1.5-.7 1.7-1.1.4-.7.1-2.5 0-3.2.3-1.4-.3-1.5-.7-2.7 0-.1-.1-.6-.4-.6zm1.5-.9c.4.8.6 1.7.6 2.6 0 .8.1 1.6-.2 2.3-.1.3-.3.5-.6.6-.1.1-.2 1.1-.1 1.1.4-.1 1.1-.8 1.2-1.2.3-.8.3-2.1.3-3-.1-.9-.1-2-.6-2.8-.3-.6-.7 0-.6.4zm1.6.7l-.7.6c0 .7.7.1 1.1.2.1-.7.1-.8-.4-.8zm-45.4-61.1c-.2 0 0 .4.1.5.2.8.3 1.7.4 2.6 0 1.1-.1 2.5.1 3.6.1.5 1.3 1.5 1.5 1.1.2.1.2-.3.1-.4-.8-.3-.8-1-.9-1.7-.1-1.4.2-3.1-.1-4.5-.3-.8-.4-1-1.2-1.2zm.6.5c-.2 0 .2.5.3.5.6.3 1.1.9 1.2 1.6.2 1.1 0 2.2-.1 3.4-.1.6-.2 1.2-.1 1.8.1.2.1.4.3.5.5-.2-.1-.9.2-1.4.1-1.4.5-2.9.2-4.2-.1-.8-.6-1.8-1.2-2.2-.1-.1-.7 0-.8 0zm1.7.7c-.2 0-.2.3-.1.3.7.3 1.2.9 1.4 1.7.3 1.2 0 2.3-.2 3.6-.1.8-.3 1.9-.2 2.7 0 .4.5.8.9.7.2 0 .7 0 .8-.2.1-.2-.2-.7-.3-.6-.3.2-.9 0-.9-.5-.1-.7.1-1 .2-1.7.2-1.4.6-2.7.3-4.1-.3-.8-1.1-1.6-1.9-1.9zm1.7 1.9c.7 1.1 1 2.3 1 3.6l-.5 3.3c0 .5.4 1.3 1 1.5.4.2.5 0 .9-.1.2-.1 0-.9-.2-.8-.4.1-.4.3-.7-.1-.3-.4-.2-.9-.2-1.4.1-1.6.3-2.9 0-4.5-.3-.9-1.8-2.6-1.3-1.5zm1.3 2.1c.4.3.5.8.7 1.2.5.9.2 2.8.2 4.2 0 .2 0 .5.2.7.3 0 .4-.5.4-.8v-2.8c-.1-.7-.2-1.6-.5-2.3-.9-.7-1.5-1.1-1-.2zm-2.6 5.4c-.6 1.9-1.1 1.9-1.4 3.3-.3.5-.6.9-1.1.2-.1.1 0 1.7.1 1.6.8-.3 1.4-1 1.7-1.7.6-1.1.8-1.2 1.3-3.5 0-.1.2-.3 0-.4-.3 0-.6.3-.6.5zM188.3 183c-1.1-.2-3.2 1.2-.4.7.1-.2.3-.4.4-.7zm-3.7 1.3c-1.2-.4-3 1.9-.9 1.1 1.3-.4 1.3-.7.9-1.1zm-4.8 2.5c-1.3-.3-3.1 2.6-1 1.4.7-.4 1.7-1.1 1-1.4zm-3.8 3.2c-1.6-.1-2.2 2.8-.5 1.1.5-.4 1.5-.9.5-1.1zm-3.1 4.1c-.6-1.4-2.2 3.8-.6 1.7.3-.6.5-1.1.6-1.7zm-2.7 4.8c1.3.3-1.9 2.7-.6.7.1-.3.4-.5.6-.7zm-2.3 4c-1.3.3-1.5 3-.2 1.2.5-.8.8-1.4.2-1.2zm-2.3 3.6c-1.5.2-1.8 3-.2 1.2 1-.6.7-.9.2-1.2zm-3.3 3.5c1.6-.3-1.9 2.9-1 .8l1-.8zm-3.2 4.1c.2 1.1-2.7 3.5-1.3 1.4.3-.6 1.5-2.6 1.3-1.4zm-2.8 5.1c-.8.9-.9 3.7 0 1.3.2-.4.2-.9 0-1.3zm-1.5 6c-.6 1.1.1 2.3.2.4l-.1-.2-.1-.2zm-.2 5.5c-.2 1.5.7 1.9 0 0zM169.8 275.9c-.6 1.3-.3 3.2-.7 4.6-3.2 23.9-7.4 47.9-16.7 70.3-3.9 8.7-8.4 18-16.5 23.5-3.3 2.7-8.1 2.3-13-1.3-6.1-6.7-7.2-16.3-7.6-24.9-.2-4.9.3-10.5.7-15.4-.8-.1-.8 2.8-1.2 3.2-1.1 11.4-1.5 23.2 4 33.6 2.3 4.5 10.2 9.4 15.4 7.7 7.6-2.5 11-10.4 14.8-17 9.2-17.4 13.9-36.9 17.5-56.1 1.7-9.3 3.2-17.5 4.2-26.8-.1-.1-.9-1.4-.9-1.4zm-12.4 54.7c-.5.6-2.4 3.6-2.9 4.3-3.7 7.5-7 12.2-12.3 18.7-2.7 3.1-5.2 5.4-8.7 7.6-1.3.8-2.7 1-3.9 0-3.3-2.7-4.7-6.4-6.3-10.3-.8-4.6-2.6-9-3.7-14.1-.4-.3-.4.5-.3.7 0 7.2 2.6 14.1 6.3 20.3 1.4 2.1 2.6 4.6 5.1 5.4 2.3.4 4.3-1.2 5.9-2.7 5.5-5 9.9-11 14-17.2 2.6-4 5.1-8.1 6.8-12.5.1-.2 0-.2 0-.2zm14.8-52.8c-.6.9.3 2.6-.1 3.7-2.5 20.8-6.1 41.8-13.5 61.5-3.1 8.3-5.2 13.5-12.8 23.1.4.5 3.9-4.6 4.2-4.6 10.1-16 13.7-28.6 17.5-46.5 2.4-12 4.6-23.1 5.8-35.3-.1-.1-1-1.9-1.1-1.9zm2.1 39.3c-4.6 11.2-8.1 16.1-14.8 28-.8 2.9-1.6 2.3-2.2 3.4-1.6 3.6.7 2.2 1.2-.3 6.6-12 10.9-17.5 16.4-29.5l1.9-3c.9-9.5.4-4-2.5 1.4zm3.9 7.3l-11.2 10.1c-.8 1.4.7 1.2 3.1-.9 4.3-3.7 4.7-4.8 9.4-9.2 2.4-3.5 1-2-1.3 0zm-3.4-46.6c-.5.4.6 1.2.5 1.6 4.9 11.4 9.4 23.4 10.2 35.9.6 8-1.3 16.1-5.5 22.9-.9 2-2 4-3.5 3.9-.1 2.3 2.2.7 2.4.6 4.5-5.6 7.3-13 7.9-20.4 1-11.7-2.6-23.5-6.7-34.3-1.4-3.5-2.8-7.1-4.4-10.4 0 0-.8.2-.9.2zm5.4 4.4c2.8 6.9 4.8 14.2 5.1 21.7.1 1.3 0 2.6-.2 3.9-.1.8 1.4 1.1 1.6-.1.4-2.8-.3-6.3-.7-9.1-.9-6-2.8-12.9-4.2-15.7-1.9-3.2-1.7-.9-1.6-.7zm-18.7 66.1c-2 8.8-4.7 14.4-9.2 22.4-1.2 2.5-6.2 10.6-8.8 6.1-1-2-1.3-3.4-.9-.6 1 3.1 1.2 3.2 3.1 3.2 7-4.5 12.4-18.4 15.9-27.5 2-2.1 1 1 1.7-2.7 0-6.8 1-6.8-1.8-.9zm14.8-20.4c-.6.5.2 1.7-.1 2.3.8 19.9 0 39.8-1.3 59.7-.5 9.8-.9 19.6.2 29.3.8 0-.2-1.5.1-1.9-1.5-18.4 1.1-36.8 1.5-55.2.3-11.4.4-22.9-.2-34.3l-.2.1zm.4 26.9c-.5.3.3 2.6.4 2.2 2.6 17.6 6.7 35 11.5 52.2.9 2.4-3.4 1.9-4.9 2.6-3.7.7-7.2 4.4-8.4 7.9-.5.4.2 1.2 1.3.2 2-4.2 5.9-6.9 8.3-6.5 5.2-2 7.4 2.4 5.7-3.9-4.9-17.6-9.8-34.3-12.4-52.4-.1-.1-.1-1.9-1.5-2.3zm-43.5 25.9c-8.4 11.2-10.7 13.5-13 23.6-1.8 7.6-.4 17.8 4.8 23.7 2.9 3.2 6.9 6.1 11.2 7.1 7.3 2 14.9-1.7 20.9-5.5 4.3-2.5 7.6-5.5 12.6-6.7 3.3-.8 5.7 1.5 6.6 4.3l.6 3.1c.7-.2.4-1.5.5-2-.8-3-2.7-6.8-6.3-6.8-4.8.4-8.5 3.7-12.5 6-6 3.8-12.9 8-20.3 7.1-3.6-.4-6.7-2.4-9.2-4.9-5.8-5.1-9.4-12.7-8.7-20.5.4-11.9 8.8-22.1 13.7-27.6.4-.8.7-2.5.9-3.4-.5.9-2.1 3.4-1.8 2.5zm-2.4 17.5c-.4.3.2.9.1 1.3-.1 5.2 4.5 12.8 10.2 16.5 5.5 3.6 12.1 4.1 18.5 3.7 4.4-.2 8.9-1.6 13.2.2 2.1.6 2.8 2.3 3.1 4.5.4 1.1 1.5.3 1.1-.4.9-2.6-3.2-5.3-5.8-5.7-5.3-.8-10.3.7-15.6.7-5.8.1-11.1-1.4-15.6-5.4-5.3-3.6-7.9-9.2-9.1-15.3 0-.1-.1-.2-.1-.1zm-9.6-.6c-.9 1.2-2 3.6-2.5 5-3.4 8.5-4.9 17.7-1.6 26.5 3.7 7.9 11.8 13.5 20 14.6 4.2.4 9.1-.7 13.3-3.4 5.1-3.7 8.5-9.7 14.7-11.7 2.6-.8 5.4-.3 7.9.4 1.1-1.3-.5-2.4-.7-2.6-4.3-1.4-9.8 1.5-13.1 4.5-5 4.2-8.8 9.2-15.6 10.7-7.1 1.2-13.2-.2-18.7-4.8-6.1-5-9.4-12.6-8.7-20.2.5-6.6.5-7.5 3.2-13.5 2-3.4 5.8-4 1.8-5.5zm-5.2 31.5c-1.8 3-3.4 5.1-5 8.3-.6 1.3-1.2 1.7-1.6 3.1-.8 2.2 0 2.9.4 1.9 1-3.3 2.7-6.3 4.5-9.2.6-1.8 1.8-3.2 2.8-4.7-.4-.1-.9.4-1.1.6zm2.4 2.2c-.4.2-.5.7-.8.9-2.9 3.6-4.8 5-5.8 9.4-.1.2-.3 2.3.2 1.9 2.6-5.8 3.7-8.3 6.5-12 .1 0 0-.2-.1-.2zm7.3 7.4c-.1 0-.1.2-.2.3-.7 1.9-1 3.7-1.1 5.4 0 .2.2.2.3.1.1-.1.1-.3.1-.5.4-1.8.9-3.7 1.1-5.2 0-.1-.1-.2-.2-.1zm3 2.6c-.8 2.1-1.1 3.8-1.5 5.9-.2.5.8.4 1-.2.8-2.2.7-3.8 1.1-6.1-.3-.8-.4-.1-.6.4zm1.9.4c-.5 1.9-.8 4-1.1 6-.1.5.7-.4 1.1-1.7l.5-4.3c-.1-.3-.4-.1-.5 0zm9.3 2.1l-.1 2.8c.4.8.7.5.9-.2v-2.6c-.3-.6-.5-.6-.8 0zm-30.1-1.1c-.2 0-.4.5-.2.5.6.6.9 1.1 1.5 1.6 11.1 1.6 16.2 1.9 13.6 1.3l-13.1-1.7c-1.3-.6-.9-1-1.8-1.7zm17.7 5.3c.8.7 1.6 1 2.4 1.4 5.1-.3 12.6-1.4 11-1.6-3.6.7-7.6.8-11.3 1.1-1.4-.5-1.6-.9-2.2-1.4-.2 0-.1.4.1.5zm17.8-5.9c-.3.2-.3.5-.5.8-1.3 3.7-2.2 7.8-3 11.4 0 .9-.4 2.1-.2 3 .1.1 1.4.3 1.4.1-.5-3.3.3-6.6 1.2-9.7.5-1.8 1.2-3.5 1.8-5.2-.1-.1-.6-.4-.7-.4zm2.7-.6c-1.8 3-2.6 6.3-3.1 9.9-.1.6-.4 1.3-.4 2-.2.8.7.6.7.3.1-2.8.6-5.5 1.7-8.1.6-1.7 1-3.4 2.7-4.6-.7-.7-1.1-.1-1.6.5zm9.4 5.7l1 6c0 1.4 1.2.9 1.2.7-.3-1-.5-1.9-.8-3-.4-1.5-.8-3-1.1-4.4-.4-.4-.3.5-.3.7zm7.3-3.7c-.3.1-.2.6-.3.8-1.3 5-2 10.1-2.4 15.2 0 .4-.2.8 0 1.1.6.8 1.3-.1.9-.7.8-4.9 1.2-9.4 2-14.4.1-.6.3-1.3.5-1.9-.2-.1-.7-.2-.7-.1zm-.9 3.3c.2 0 .3-.7.1-.7-2.5.1-5-.1-7.4-.8-2.5-.5-2.6-.8-4.8-2.4 3.8 4.7 10 3.7 12.1 3.9zm3.1-2.7c-.3.1-.5 1.4-.6 1.6-.7 5-1.4 9-1.9 14 0 .3-.2 1 .3 1.1 1-.8-.1-1.1.8-4.3 1-1.3 0-1.4.7-5.6l.9-6.7c-.1-.1-.2-.1-.2-.1zm11.1 3c-.2 0-.1.2-.1.3l3.6 10.2c.4-.9.7-2.4.2-3.4-1.1-3.5-.8-3.6-2.6-7-.2-.3-1.6-.8-1.1-.1zm-18.1 7.1c-4.7 1.3-9.8 2.5-14.5 3.7-1.2-.1-2 .1-3.5-.5-.2 0-.2.3 0 .3 1.6.9 1.9.4 3.2.7 1.2-.4 18-3.6 14.8-4.2zm22.1 3.6c-4.8.9-9.5 2.6-14.3 3.3-.9.1-1.8.3-2.6.3-1-.1-2-.5-2.9-.9-.3 0-.2.4.1.4.9.5 1.9.8 3 .9 4.4-.6 8.8-1.4 13.1-2.4 1.3-.3 4.4-1.5 3.6-1.6zm1.9-19.9c-.4.5-4.3 4.2-4.7 4.8-2.3 2.6-7.2.7-10.2 1.1-8.1-1.7-10.7-2-18.9-3.2-.3.1.4.8.6.7l18.2 2.9c11 2.6 12.2-1.6 14.9-5-.1-.4.8-1.1.6-1.4-.1 0-.5.1-.5.1zm-.2.4l.9.2c-1.3 2.6-2.3 4.4-4.9 6.3-2.3 1.6-4.8 2.2-7.6 2.7-1.5-.9-2.3-1.9-4-2.5-.2 0-1.1-.2-1.2.2.1.3.6.1.8.2 1.7.6 2.8 2.2 4.3 3.1 3.9-.7 7.9-2.1 10.6-5.1 1.6-1.7 2.4-3.7 3.2-5.9-.2-.5-2.4.1-2.1.8zm-32.3 1.2c-.2 0 .3.4.4.4 3.1-.1 4.6.4 7 .2.2 0 0-.5-.2-.5-2.1.2-3.9.2-6-.1h-1.2zm9.9 1c3.5.6 6.2 1.1 9.1 1.9.2 0 1.3-.1 1.1-.1-3.2-.4-7.9-2-9.6-2.4-1.7-.3-.7.6-.6.6zm-7.6-3c-.2 0-.7.2-.5.3 1.3.5 3.2.5 4.5.5 0 .1 3 0 2-.3-1.6.2-2.8-.4-4.2-.6-.6-.1-1.2.3-1.8.1zm30 .5c-.5.4-.8.9-1.2 1.3-1.7 1.7-3.4 2.8-5.9 3.2-3.3-.5-2.2.7-6.5-1.9-2.1-1.1-3.7-1.5-6-1.7-.2.1 1.9 1.3 2.2 1.2 3 .6 2.5.9 4.9 2.2 1.8.9 4.8 1.5 6.8 1 2 .1 5.9-5.2 5.7-5.3zm-4-2c-.1 0-.2.6-.1.6l1.7 2.1c.7.4.1 1.4-.2 1.8.4.4 2.6-2.6 3.2-2.5.8-1-.5-.9-1-.7.2.8-.8 2.8-1.7.8l-1.5-1.9-.4-.2zm4.9-3.6c-1.4.4-3.3 1-4.6.2-.2-.1-.3.8-.2.9.7.6 1.6.8 2.6.7 1-.1 1.8-.6 2.8-.6.7-.2 1.4 0 1.1.8-1.4 2.8-2 2.4-5.9 1.4l-.8-.4c-.3-.3-.7.3-.4.9 2.4 1.6 1.1.6 5.3 1.5 2.8-.1 3.4-2.5 2.4-4.8.2-.8-.6-2-2.3-.6zm-8.3 1.5c-.7.1-1.4.5-2.1.5-4.7 1.2-8.3.8-12.9 2.3-1.6.8-1.1 1.2-.7 1l15.3-2.8c.4-.4 1.2-.3 1.4.3-.3.5-1.1.5-1.6.7-4 1.1-8.2 1.4-12.2 2.3-.8.3-1.8.4-2.4 1.1-.2.1-.1.5.1.4.2-.3.5-.6.9-.7 1.8-.7 3.8-1 5.7-1.3 2.8-.5 5.6-.8 8.4-1.6.5-.2 1.8-.4 1.8-1 0-.7-1.2-1.4-1.7-1.2zm.9-1.2c-.5-.2-1 .3-.8 1.1.1.3.6.5.8.4.1-.2-.1-.5.1-.6.8-.1 1.6.5 2 1.1 0 1.3.7.5.3-.1-.4-.8-1.6-1.9-2.4-1.9zm-2-3.2c1.4.5 1.9 1.1 2.9 2.3 1.7 2.5 0 1-1.1.1-1.1-.8-2.2-1.8-3.4-2.4-1.1-.6-.1.8 0 .9 1.3.7 2.4 1.9 3.6 2.7.8-.3 2.1 1.1 2.5 1.7.7-.9-.1-2.6-.6-3.4-1-1.3-2.7-2.4-4.3-2.6-.9-.2-.4.5.4.7zm-3.1-330.6c-1.1.2-3.2 0-3.9.6.9.2 2.9-.5 3.9-.4 7.4-.3 14.6 2.2 20.6 7 1.6 1.5 3.3 3 4.3 5 1.4 1.9.8-1.4-.8-2.2-2.1-3.3-4.5-4.5-8-6.3-4.9-2.9-7.2-4.7-16.1-3.7zm26.4 15.5c.8 3.6 1.8 7.2 4.2 9.9 1.4 1.7 3.2 2.9 4.5 4.7.7 1 1.3 2.1 1.3 3.3.1.2.7-.5.6-.7 0-1.7-.8-3-2-4.2l-4.9-5.1c-4-7-1.7-7.5-3-8.5-1.4-1-.7.1-.7.6zm4.8 17.3c.1.7-.1 1.6.1 2.3.1.3.5.6.8.7.3.3.8.4 1.2.4.5-.1.8-.5 1.1-.8 1-1.1 1.3-.4 1.8-1.3.4-.2.4-.6 0-.4-1.3 1.1-1.1.1-2 1.2-.3.3-.5.6-.9.8-.3.1-.5.1-.8-.1-.1-.2-.3-.5-.5-.6-.4-.3-.2-.6-.3-1.1v-.8c-.1-.4-.6-1-.5-.3zm2.9.7l-.8.7c0 .7 0 .7.4.2.4-.3.7-.8 1.1-.8.1 0 .2.1.3 0-.1-.6-.5-.8-1-.1zm-.2 2.6c-.1 0-.1.1 0 .2.4.9.5 2 .4 3 0 .4-.2 1.1-.2 1.3.4-1.1.5-2.2.3-3.3-.1-.5-.3-.9-.5-1.2zm-.9 10.5c0 1.8-.9 4.7-2.9 6.1-2 1.5-5.3 1.6-7.7 1.8-3.2.1-5.6 0-8.9 2-1.2.8-2.4 1.8-3.2 3.1-.1.4.2.5.4 0 4.3-3.8 4.9-3.2 7.1-3.9 3.4-.7 7.1-.3 10.4-1.1 1.8-.7 3.7-2.8 4.5-4.6.6-1.7.7-3.1.7-4.9-.3.7-.2 1.1-.4 1.5zm-38.7.3c.1 2.1-1.2 3.2-.9 4.1-.6 1.2-1 2.4-2.2 2.8-.1.1-.2.6-.8 1.5 1.3-.9 2.2-2.2 3-3.5 1-.9 1.3-2.7 1.6-4.8.8-1.6-1-1.1-.7-.1zm37.4-4.9c-.8.8-1.2.6-1.5.8.3.9 1.2.7 1.8.6.7 0 .9-.2 1.5-.2.3-.1.3-.2.5-.6 0-.1-.3-.2-.4-.1-.5.2-.8.1-1.1.4-.3.1-.5.4-.7.4-.9 0-1-.3-.4-.5.4-.1 1-.4 1.4-.8.5-.6.7-.1 1.4-.1.1 0 .2-.1.3-.2-1.2-1.9-1.4-.4-2.1-.4l-.7.7zm2.2 1.4c-.4.3-.3.5-1.1.6-.4.1-.7 0-1-.2-.3-.1-.6-.5-.8-.6-.4-.1-.5.1-.5.5.3.8 1.4 1.1 2.1 1 .8 0 1.5-.8 1.6-1.1.4-.5.1-.7-.3-.2zm-33.9-13.3c-2.3.7-4.2-.7-4.7 2.5-.5 3.6 2.7 7.4 5.5 8.4 1.7.6 3.8.3 5.3-.7 1.4 0 .8-1.8 0-.4-.4 0-.8-.2-.8 0-1.3.5-1.9.9-3.5.6-3-.5-6.1-4.2-5.6-7.7 0-2 .2-2.1 3-2.1.2-.1 1-.1 1.1-.4-.1-.2-.2-.2-.3-.2zm-.9 3.6c-1.3 1.1-.8 2.5.2 3.5.8.8 1.9 1.3 3 1.3.6 0 1.3-.2 1.8-.7-2.1-.2-3.2.3-4.6-1.6-.6-.8-.5-1.8.2-2.3.5-.2 2.9.3 1.3-.5-.7-.1-1.5-.1-1.9.3zm3 2.1c0 .1.6.6.6.6 2.5.4-.5-1.2-.6-.6zm18.5-18c-2.5-.3-5.6.6-7.3 2.5-1 1.3-1.5 1-1.3 1.4.2.2.6.3.7.2 2-1.5 4.4-2.7 6.8-2.9 1.3-.1 2.3.2 3.6.5.2 0 .6-.2.4-.2-.6-.6-1.8-1.3-2.9-1.5zm1.7 8.1c-1.6.5-9 5.3-4.4 3.4 3.1-1.2 3.8-1.4 7-2.5 3.1-1.2-.7-2-2.6-.9zm1.6-.1c.3 0 1.2.2 1.1.5-4.8 2.7-7 1.8-1.8-.6l.7.1zM194.3 125c-.1.5.2 1.1.6 1.3l1-.4c.1-.5.1-1.2-.2-1.4l-1.4.5zM147.1 126.1c-.3.2.1.9.1 1.2 1.2 5.1 4 10 8.4 13.1 4.3 2.8 8.6 4.2 13 4.2 1.8-.1 1.5-.9.2-.5-3.8.2-7-1.1-10.3-2.8-4.4-2.3-8.2-6-9.9-10.6-.5-1.3-.9-2.7-1.2-4.1-.1-.2-.3-.5-.3-.5zm1.5.4c-.2 0-.1.7.1.7 2.5 1.8 5.7 2.1 8.7 2 4.2-.2 8.5-.9 12.4.1.2.1.3-.3.1-.3-3.6-1.2-8.1-.6-12.7-.2-5.9 0-6-.7-8.6-2.3zm-.3-1.2c-.3.1.2.9.4.9 2.9 1.7 6 2.2 9.3 2.1 4.1-.1 8.7-.9 12.8.3.2 0 .2-.4 0-.3-4.4-1.2-10.1-.5-14.6-.5-4.3-.2-5.7-1-7.9-2.5zm.5-.6c-.2.1-.1.4.1.4 3.4 1.8 6.9 2.3 10.4 2.1 3.7-.2 8-.9 11.5.7 1.7 1.2 2.8 3 4.8 4.1 1.1 1.1 2.2 2.2 3.2 3.3.3 0 .2-.4 0-.4-2.2-2.3-4.3-4.9-6.9-6.8-3-2-7-1.7-10.4-1.4-3.8.3-7.5.2-11.1-1.4l-1.6-.6zm18.9-11c-3.2-.1-6.3.9-9.3 2-1.2.4-2.5 1-3.8.7-.2.1 0 .5.2.4 2.1.3 4-.9 6-1.5 3.3-1.2 8-1.5 11.4-.7 3.1.4 7.9 3.8 9.6 4.9-2.6-2-6.3-5.5-14.1-5.8zm2.6-8.7c-2.1 0-4.2.7-6.3 1l-1.2.1c-.1.1 0 .3.2.3 2 0 4-.8 6-1 2.4-.3 4.8.2 6.9 1.3.8.4 1.6.9 2.3 1.4.2.1.3-.3.1-.3-2.3-1.8-5.1-2.9-8-2.8zm-22.1 18l-11.7 12.9c1.6.8 3.4 1.2 5.1.5 3.9-2 4.8-6.7 5.6-10.2 0-.1 1.1-3.2 1-3.2zM168.6 99.5l-2.7 3.3-2.3 2.5c5.1-1.2 8.8-2.2 14.7 2.1 2.3-2 3.1-4.7 4.4-7.2-4.9-1.9-12.7-1.3-14.1-.7zm-6.3 7.5c5.9.2 6.7-3.3 15.5 1.3l1.9 1.8-2.5 5.4c-12.9-6.2-17.3.9-22.8 0l4.2-4.5c1 .6 2.1 2 2.9.6 1.6-1.2-1-1.4-1.5-2.1.6-.7 1.1-1.6 2.3-2.5zm-9.3 10.4c4.8 1.1 12.7-6.1 23.4-.5l-4.3 11.4c-8.2-3.9-18 2-24.4-4.5l5.3-6.4zm-3.6 6.9c-.2.1 0 .8-.1.9-1.1-.5-1.2-.1-.9.3 2.1 1.5.2.1.4 1.3 4.4 2.9 6.3 2 14.6 1.7-2.3 5.9-1.3 10.9-1.5 14.6-8.8-2.4-13.1-9.1-15-17.6.1-3.8 1.9-2 2.5-1.2zm13.1 18.4c1.9.8 4.2.9 6.5.9 1.2-.5.3-.6-.2-.6-2.4.1-4.7 0-6.5-1.2 2.5.7 5 .8 7.5.8 1 0 1-.6 0-.4-2.4-.2-4.8-.2-6.9-1.3 4.8 1.1 5.5.9 7.1.9.3-.2 1.1-.6-.2-.6-4.1-.1-5.2-.7-6.6-1.2 2.3.4 4.3 1.2 7 .7 1.1-.5.7-.5.1-.5-3.5.1-5.1-.3-6-.8 2 .6 5.8.5 6.1.2.4-.2.8-.4.1-.4-4.2.3-6.1-.4-7.9-1.2 2.3.6 4.6 1.1 7.1.8.8-.1.6-.7-.2-.6-6.5.1-6.3-.7-7.6-1.4l-1.4 1.3 1.4-.1-.2.7v.8l.2.7-.1.6-.2.3.1 1.5.8.1zm-.3-6.5c-.2-.5-.1-.4.3-.3 2.9 1 4.6 1.1 6.5 1 .5-.1.4-1.1-.4-.5-1.5.2-3 0-4.3-.8 1.3.2 2.6.4 4 .4.6-.4.8-1.1-.4-.4-1.3.1-3.2-.2-3.9-.9 1.2.3 2.5.5 3.7.5.8 0 1.3-.5-.2-.5-1.2 0-2.1.2-4.4-.9 1.4.4 2.7.6 4.2.5 1-.1 1.3-.6 0-.4-1 0-2 0-3-.6.9.2 1.8.1 2.9.2.7-.1 1.4-.7-.1-.5-1 .1-2-.1-3-.5l3 .1c.9 0 1.4-.4-.1-.5-1.2 0-2 .1-4.3-.7l4.3.2c.5 0 1.3-.2 0-.5-.9-.1-2.1 0-2.7-.4.9-.3 2.1-.1 3.1-.1.5-.1 1-.2 0-.4-1.3-.1-2.9.1-3.7-.4h3.9c.5 0 .1-.6-1.2-.6l-2.7-.1c-.7 0 .1-.3.8-.5-1 0-2 0-2.7.4.1 2-1.7 7.1-.6 8.5h.5c.1.1.2-.3.3-.7 4.1 1.5 6 1 7.1.9.8-.1.9-.6-.1-.4-2 .4-4.5 0-6.8-1.1zm14.4-3.7c.1-.3 0-.9.4-.5 2.5 2.4 1.7 1.5 0-.7 2.5 2.1 2.2 1.8.3-.6 3.8 2.6.3-.4-.8-1.7 2.2 1.7 2.3 2 .7-.4 2.1 1.5 2.6 2.3.6-.5 3.8 3-1.2-1.7-1.8-2.3 3.5 2.7 4.4 3.2.5-.3 3.2 2 3.3 2.2.6-.5 3 1.7 1.9 1 .1-.8 2.3 1.6 2 1.3.4-.7 4.8 3.3.3-.4-1.3-2 4.8 3.3 4.5 3.3.5-.3 4.8 3.1 3.4 2.2.1-.8 3.9 2.7 2.8 1.6-.2-.9 5 3.2 4.6 3.1.4-.5 3.3 2 4.3 2.5.5-.5 4.8 2.7 4.8 2.6.2-.7 5.1 2.9 2.6 1.3-.8-1-.3-.3-.6-.3-.8-.3l-1.8 2.6-2.5 5.6.4 3.2 4.3 4.6zm-.6-17.6c1.9.8 1.4 1.1 2.2 1.8 5.4 3.2 3.2 1.8-.2-.9 6.9 4 5.1 2.8 0-.9 6.1 3.6 5.9 3.6.6-.5 5.1 3.1 6.1 3.7.5-.5 4.1 2.3 5 2.9.7-.4 3.8 2.4 4.3 2.4.3-.5 5 2.9 3.4 1.9.2-1 2.3 1.5 4.1 2.7.7 0 3.1 1.9-.1-.7-1-1.5 2.7 1.6 3.1 2.1.8-.4 6 4.1.1-.3-2.1-2.2 5.6 3.7 6.5 4.1.3-.6 5.1 3.4 4.3 2.9.5-.3 4 2.6 3.8 2.5.3-.5 4 2.4 4.3 2.7.6-.6 5.5 3.1 4.3 2.5.2-.7 4.2 2.4 6 3.6.7-.4 4.9 3.1 5.3 3.4.3-.7 6.5 4.6 4.6 3.3.1-.8v-.3l.4.2c5.3 3.1 5.3 3.5.8-.3 5.6 3.4 4.8 2.9.6-.5 2.9 1.5 5.1 3.3 1.5 0 2.6 1.3 3.7 2 .9-.4l1.8.7-2.9-1.7-2.5-.7-3.6 2.2-.4 3.3-.6.9c.5.7.4.9-.2.8.5.6.3.8-.4.7l-1.1 6.7zM200.6 210.8c4.5 5.9 9.4 11.1 14.3 16.5 1.4 1.8 1.3.7 2.7.2.2-.2-.1-.4-.3-.2l-1.5.3c-1.1-1.1-2.1-2.4-3.1-3.6-4-4.6-7.9-9.3-10.1-11.5-3.1-5.4-3-2.7-2-1.7zm4.7.6l12.2 13.8c.2.1.3-.2.1-.3-4.2-4.5-8.7-10.2-10.5-12.2-2-2.6-1.9-1.4-1.8-1.3zm-69.2-75.4c-.5 0-.6.7-.2.9 4.8 5.2 9.6 10.4 14.5 15.6.4.3 1-.3.7-.7l-14.6-15.8h-.4zm-2 2.6c-.5 0-.6.7-.2.9l14.1 15.2c.4.3 1-.3.7-.7l-14.2-15.3c-.1 0-.2-.1-.4-.1zm60.3-118.7c-1.1 1.1 2.1 3.2 1.8 4.5 4.4 6.9.1 18.5-1.3 27.5-6.1 14-12.8 27.8-21.8 40.2-6.5 10.7-15.8 19-23.5 28.7-14.8 16.7-32.7 35.7-51.2 50.4-3.3 2.6-6.4 5.2-9.6 7.6-7.3 6-15.4 10.1-23.6 14.7-3.2 1.5-12 5.7-20.7 8.3-8.6 3.2-19.6 5.6-29.2.5-3.1-2.2-4.6-7-7-9.5-.7 1.5 2.5 4 2.8 5.5 5.2 8.2 14.8 8.4 23 7.3 10.8-2.3 21-7.1 31-11.7 9.1-4.9 14.8-7.2 24-14.9 3.1-2.3 6.2-4.8 9.4-7.1 19.3-14 36.5-33.7 51.4-50.7 5.9-7.3 12.5-13.9 18.3-21.2 9.2-12.6 17.9-25.7 24-40.1 3.4-6.3 6-15.6 5.6-20.4 1.2-8.8 1.3-14-3.4-19.6zm-6.7-1.8c-.8.9 1.5 2 1.7 2.9 5.3 10.6 1.8 22.7-1.5 33.3-3.5 8.6-7.1 17.2-12 25.1-7.5 13.6-17.5 25.8-27.4 37.7-12.5 14.8-26.1 28.5-40.1 41.9-9.4 8.1-19.2 17.3-28.6 22.5-8.9 5.3-17.3 10.3-26.9 13.6-8.9 3.7-18.5 7-28.2 6.8-7-.8-12.4-5.5-15.4-11.5-1.1 1 1.9 2.9 1.9 3.9 5 7.8 11.6 9.8 23.9 7.6 10.4-2.3 20-6.9 29.7-11 8.3-4.8 17.2-8.7 24.3-15.2 13.9-10.5 27-22.1 38.9-34.7 14.1-14.2 26.7-29.8 38.7-45.9 7.5-11.9 15.6-23.8 20.5-37.1 3.8-8.7 5.8-18.2 5.6-27.7-.5-4.3-1.4-9.5-5.1-12.2zm-3.1-.1c-.9.8 1.8 1.9 1.9 2.8 5.5 10.4 2.3 23.1-1.4 33.6-5.2 12.6-11.2 24.9-19.3 35.9-8.9 13.5-19.2 26-30.4 37.7-15.7 17.2-32.8 33.2-51.5 47.2-6.7 4.7-14 8.7-21.2 12.7-10.3 4.2-20.3 9.4-31.5 10.6-6.2 1-11.9.5-16.2-4-2.6-1.9-3.5-6-5.3-8.2-.8 1.4 1.9 3.9 2.2 5.2 4.4 7 11.5 9.9 20.7 7.3 11.3-1.3 22.1-6.2 31.3-10.9 9-5.4 18.6-10.1 26.5-17 20.4-15.6 38.3-34.1 55.2-53.2 10.2-11.5 18.8-24.3 27.1-37.1 5.2-8.8 9.5-18.1 13.5-27.5 3.2-10.3 6.8-22.4.5-32.5-.7-.8-1.3-2.1-2.1-2.6zm-3 .7c-.8.9 1.4 2.2 1.5 3.2 5.7 13.7-.2 28.1-6 40.7-4.9 11.8-12.5 22-19.8 32.4-11.5 15.2-23.5 30.2-37.9 42.8-13.4 12.1-26.3 24.7-41.3 35.3-11 7.4-22.3 13-34 18.2-8.2 3-18.5 6.2-25.9-.2-2.9-1.9-4.1-5.7-6-8.2-.8 1.7 1.9 4.2 2.4 5.7 5.1 7.3 15.7 8.5 23.5 5.2 9.6-2.5 17.6-7.5 26.3-12.1 8.3-4.8 17.2-9.7 24.5-16 14.3-11.5 27.7-24 40.9-36.7 11.3-11.8 21.5-24.7 31.1-37.8 6.9-10 13.5-20.3 18-31.7 5.4-11.7 9.9-25.5 5.2-38.1-.8-.6-1.6-2.3-2.5-2.7zm-63.7 36.3c-5.9.6-11.7 1.8-17.1 4.2-2.9 1.2-6 2.1-8.9 3.5-4.2 2.5-8.4 4.8-12.3 7.7-1.9 1.3-3.9 2.7-5.4 4.5-3.6 3.7-7.1 7.6-10.3 11.7-1.4 2.2-3 4.4-4.3 6.7.4.6.8-.7 1.1-.9 2.1-3.2 4.1-6.5 6.7-9.2 2.9-3.6 6.2-7 9.5-10.2 3.8-2.7 7.6-5.6 11.8-7.8 2.3-1.4 4.6-2.8 7.2-3.6 6-2.2 11.9-4.9 18.3-5.5 3.3-1 6.7 0 9 2.7 2.2 2.3 1.7 5.7 2.2 8.6 0 1.7-1.1 3.2-1.5 4.9-.8 2.5-1.7 4.9-3.1 7.1-2.5 4.5-5.4 8.8-8.6 12.7-2.4 2.8-4.6 5.8-7.5 8.1-3.6 3.1-7.2 6.2-11 9.1-3.7 2.1-7.5 4.2-11.5 5.8-3.2 1.3-6.2 3.1-9.7 3.6-2.2.4-4.3 1.3-6.5.7l-5.3-.7c-1.8-1.9-4.7-3.8-4.9-6.6 0-3.3-.9-6.7.4-9.8.8-2.9 2.4-5.6 3.6-8.4-.6-.6-.8 1.2-1.1 1.3-1.5 3.4-3.4 6.8-3.6 10.6.1 2.5.2 5.1.4 7.6 1.3 2.2 3 4.5 5 6.1 2.6.3 5.2.5 7.8.6 2.7-.7 5.6-1 8.2-2 5.4-2.4 10.8-3.8 15.9-7.6 3-1.5 5.2-4 7.9-6 2.6-2.2 5.2-4.3 7.6-6.7 4-4.6 8-9.2 11.1-14.5 1.4-2.4 2.9-4.8 4.1-7.3 1-2.7 2-5.5 2.9-8.2-.4-2.3-.4-4.8-1-7.1-1.2-3-4.1-4.8-7.1-5.7zm-5.6 5.4c-3.9.7-7.8 1.2-11.6 2-3.1 1.2-6.4 2.2-9.5 3.6-3 1.8-6.1 3.3-9 5.3-2.5 1.9-5.2 3.6-7.3 6-1.8 1.7-3.7 3.4-5.1 5.5-2.4 3-4.6 6.2-6.7 9.4.2.6.8-.3.9-.5 2.3-3.6 4.8-7 7.5-10.3 1.8-2.1 4-4 6-6 2.8-2.1 5.5-4.4 8.7-5.9 2.7-1.5 5.2-3.3 8.2-4.2 2.5-.8 4.8-1.9 7.3-2.6 3.5-.6 7-1.2 10.6-1.8 2.5.6 6.2 1.2 6.9 4.1.1 1.8.5 3.7.3 5.5-.9 2.5-1.5 5.1-2.5 7.5-1.5 2.5-3 5.1-4.9 7.3l-8.6 10.4c-2.5 2.3-4.8 4.9-7.7 6.7-2.7 1.9-5.4 3.7-8.3 5.2-2.5 1.4-5.3 2.3-8 3.4-2.1.7-4.1 1.8-6.4 1.8-2.9.3-6 1.1-8.6-.6-2.7-.9-4-3.8-3.8-6.5.1-1.8-.2-3.7 0-5.5l2.6-7.5c-.4-.5-.7.5-.7.8-.8 2.4-1.8 4.7-2.4 7.1 0 2.3 0 4.6.1 6.9.4 2.2 1.8 4.3 4 5.1 2.5 1.6 5.4 1.1 8.1.7 1.7-.2 3.4-.3 4.9-1 3.3-1.3 6.6-2.4 9.8-3.9 3-1.7 6-3.4 8.7-5.4 1.8-1.2 3.5-2.5 5-4 1.9-1.7 3.7-3.5 5.3-5.6 2.8-3.4 5.7-6.6 8.3-10.1 1.3-1.8 2.4-3.8 3.5-5.7.8-2.5 1.6-4.9 2.3-7.4l-.5-5.8c-1.4-2.8-4.8-3.5-7.4-4zm-4.5 3.5c-3.4.8-6.9 1.5-10.2 2.5-4.1 1.9-8.3 3.8-12.2 6.1-1.9.9-3.6 2.1-5.2 3.5-2 1.5-3.8 3.3-5.5 5.1-2.7 3.5-5.4 7.1-7.8 10.8.1.6.7-.1.8-.4 2.6-3.6 5.1-7.3 7.9-10.7 2.1-2.1 4.4-4.2 6.8-6 2.2-1.6 4.8-2.7 7.1-4 2.9-1.5 5.8-2.8 8.8-4.1l9.6-2.3c3-.1 6.6 1 7.6 4.1.2 1 1.4 1.9.6 2.9-1.2 2.5-2.2 5.1-3.6 7.5l-5.8 8c-2.2 2.3-4.5 4.6-7 6.7-1.9 1.8-3.6 4-6 5.3-4.2 2.9-8.6 5.5-13.2 7.7-3.6 1.2-7.3 3.4-11.2 2.3-2.4-.4-4.1-2.9-4.4-5.1-.2-2.3.2-4.7.4-7 .5-1.5 1.2-3 1.6-4.5-.5-.5-.6.6-.8.9-.6 1.8-1.6 3.5-1.5 5.4-.2 2.7-.9 5.6.7 8 1.2 2.1 3.7 3.3 6.1 3.1 3.4 0 6.5-1.7 9.6-2.8 4.8-2.4 9.5-5.1 13.9-8.3 2.4-1.6 4.1-4 6.3-5.8 2.2-1.9 4.3-4 6.2-6.2 1.9-2.7 4-5.4 5.8-8.2 1.2-2.6 2.5-5.2 3.5-7.8-.6-1.3-1.1-2.6-1.7-3.8-1.7-2.2-4.4-3-7.2-2.9zm-22.2 17.6c-2 .6-3.8 1.4-4.6 3.4-.3.1-.3 1-.1.8.7-1.9 2.5-3.2 4.4-3.7.2 0 .7-.3.3-.5zm.3-1.5c-3.7 1-6.2 1.5-6 3-.4.5-.6 1-.7 1.6-.2 1.3 1.2 1.6 2.4.9l2.4-1.4c1.6-.9 1.7-2.1 1.9-3.4-.1-.3-.4 0-.4.2-.4 1.6-1.4 3-2.9 3.6-.8.6-2.4 1.6-3 .2.1-1.1 1.2-2.2 2.1-2.9 1.2-1 2.9-1.2 4.4-1.6 0 0-.1-.2-.2-.2zm0 .3c-.3.1 0 .4.2.4 1 0 .7 1.2.2 1.7-1.2 1.8-3.2 3.9-5.4 4.5-.7.2-2-.3-1.8-1.2 0-.2.4-.7 0-.8-1.4-.8-.4.4-.3.8-.3.5.2 1.3.5 1.5 1.7.8 4-.3 5.3-1.4 1.2-1.1 2.6-2.8 3.1-4.4.3-1.5-1.2-.9-1.8-1.1zm2.6-1.5c-.6.1-1.4.6-1.8 1.1.1.4.5 0 .7-.1 1-.8 2.5.1 2.1 1.4-.4 2.4-2.6 4.3-4.5 5.7-1.6 1-3.2 1.9-5.1 1.8-.7-.2-1.7-.2-1.2-1.3 0-.3.6-2 .1-2.1-1.7.7-.4 1.4-1.1 2-.7 1.5 1.7 2.6 2.8 2.5 2.6-.3 5.3-2.5 7.1-4 1.3-1.3 3.2-3.1 2.6-5.2-.1-.8-.9-1.9-1.7-1.8zm-10.6 8.4c-1.9.5-4.1.8-5.9 2-.4 0-.9.1-1.3.2-.1.3.2 1 .3 1.3.1.4.3.7.7.9 1.1 1.1 1.9 2.9 3.6 2.8.3 0 1.7.2 1.9 0 .8-1.5.7-2.9 1.4-4.4-.1-.3-.4-.1-.4.1l-2.2 4.1c-.5 0-.8-.1-1.2-.5l-3.5-2.7c0-.3-.7-1-.1-.9.6.1 1.1 0 1.6-.3 1.6-.5 3.3-1 4.9-1.6.2-.1.3-1 .2-1zm1.7-3.7c-1.9.4-3.5.9-5 1.8-.3.1-.7.3-1 .5.1.7.3 2-.2 2.7.2.2 1.2-.5 1.5-.4.3-.1 0-.4-.2-.4-.5-.1-.4-.8-.6-1.1-.3-.6.6-.7 1.2-.7.8-1 2.2-.9 3.6-1.4.2-.1.9-1 .7-1zm1.1 5.6l-.3 1.3c-.3.4-.5 1-.9 1.4-4.6-1.7 1.9.9-2.7 1.6-.1.3 1 1 1.1.8.9-.5 1.1-1.7 1.9-2.2.5-.8 1-1.6 1.5-2.5 0-.1-.5-.4-.6-.4zm3.7 1.1c-.8.6-1.6 1.3-2.4 2-.6 0-1.8-.2-2.4-.1-2.4 1.9 0 .8.6.9.6 0 1.7.2 2.3.1.8-.7 2.1-2.3 2.4-1.9 0-.1-.4-1-.5-1zm-.2-1c-.1 2.9.5 1.6 1.2 3.8.3.1.5-.4.7-.5l3-2.9c0-.3-.8-.9-.9-.7l-2.3 2.6c-.1-2.3-1.1-2.3-1-4-1.3.6-.7 1-.7 1.7zm4.7-5.3c-.3.1-1.1 1-.9 1 .5-.3 2 0 2.4.5l.8 1.1-.7 2.3c-.7-.2-1.2-.1-1.8-.7-.1-1.7-1.1-.4-2.1-1.9-1.7 1 .2.9.5 1.8.9 1.1 1.4 1.8 2.3 1.5l1.8.4c-.2-.8-.1-1.2.5-1.4.2-.7.5-1.4.6-2.1-1.5-3.4-2-1-3.4-2.5zm5.6-2.5c.2 1.2-.1 1.2-.5 1.7-.2 1.1-.6 1.3-1.7 2 0 .3.5 1.2.5 1 1.2-.2 4.5-5.4 3.3-4.9 0-.2-1.5.1-1.6.2zm2.2-5.5c-2.5 1.3-4.4 2.1-6.9 3.5-.1.3.5.2.7 0 2.4-1.2 3.5-1 5.5-2.5.4 0 1.3-.6 1.4.3l1 2.3c-.4.2-.4 1.2-1.4 1.1-2.6 0-4.3 0-6.9.5-.2.2.5.4.7.2 2.5-.1 5 .1 7.5-.1 1.4 0 1.2-.7 1-1.4-.4-1.4-.7-2.7-1.2-4.1-.2-.5-1.2-.3-1.4.2zm-4.7-1.7c-1 .9-1.8 1.8-2.7 2.8-.2.7-.6 1.4-.8 2.2.1.3.9.6.8.4.2-.6.8-2.3 1.1-2.9l1.7-1.6c.6-.4.9-.2 1 .3.3.8.5 1.8 0 2.6.2.2 1.1-.1 1-.3 0-.8.4-5.7-2.1-3.5zm.1.2c-1.5-.2-1.5 1-3.7.5-.6 1.6-1.2 1.2-2 1.6-.4.3-1.2.3-1.7.3-.4.1-.9.1-1.3.3l-.7 1.2c.2.7.3.5.5 2.3 2.7 0 5-2.1.4-.9-.1-.6-.1-.7-.1-1.3.3-.3 0-.7.5-.7.6-.2 1.3.6 1.9.3l3-2.1c1-.4 1-.2 2.1-.4.1 0 1.3-1.1 1.1-1.1zm-9.1 2.9c-.6.2-1.3.7-1.9 1-.5.4-1.1.3-1.6.6 0 1.1-1.1 2.3-1.6 2.6-.2.5.1 1.2-.2 1.7-.8.5-2.1 1-2.8 1.5-.6.5-1.3.9-1 1.2.1.3.4.1.5-.1.4-.5 1.1-.3 1.7-.6l1.8-1.4c.3-.9.6-1.9 1.2-2.6.4-.6.9-1 1.4-1.5.7-.4 1.2-1.3 2.7-1.1v-1.1c0-.1-.1-.2-.2-.2zm-12.3 13.7l-14.3 2.7c-.3.2-1.2 1.4-.9 1.2 4.7-1.4 11.6-2.4 16.3-3.1.2-.1-.8-.8-1.1-.8zm-7.9-5.2c-.4 0-.9.8-.5.8h11.5c.3-.1.4-.8.1-.7l-11.1-.1zm5.4-6.4c-.3 0-.2.6.1.5l9.5 2.6c.3-.1.6-.5-.2-.8-5.3-2.2-3.5-.6-9.4-2.3zm7.5-7c.9 2.3 2.3 4.3 3.2 6.5.5.8 1.2.5.6-.5-.9-2.4-1.9-5.7-2.7-6.9s-1.1.7-1.1.9zm9.3-8.7c-.7.6-.8 1.9-1.2 2.7-.6 3.6-1 7.8-1.5 11.4.8.3.5-1.7.8-2.1.9-4.2 2.3-8.7 2-11.9.1-.1 0-.1-.1-.1zm9.7-7.5c-.8.7-1 2.6-1.5 3.5-1.6 5.2-3.5 9.9-5 15.1.5 3.1 1-.7 1.3-1.4 1.8-5.7 5.1-12 6.7-17.8 0 0-1.4.6-1.5.6zm24.1-14.2c-9.7 9.8-18.2 18-25.6 31.6.6.8 1.3-1 1.7-1.2 7.6-13 18.8-23.7 29-33.3-.1-.5-5 1.8-5.1 2.9zm71.8-22.1c-12 1.4-20.7 5.2-32 10.2-21.9 10.4-42.4 23.8-59 41.5-1.2 1.6-3.5 2.8-4.4 4.6.8.7 1.7-1.6 2.4-1.7 15.8-16.8 35.4-29.5 55.7-40 12.4-6 25.3-12.2 39.2-13.3 1.9.4 9.6-2.7-1.9-1.3zm4.8 14.7c-14 2.5-36.2 10.9-39.3 11.2-19.8 7.8-38.2 18.2-57.4 30 0 .9 1.3-.4 1.6-.5 30.9-18.3 61.5-32.2 97.5-40.1 6.1-.3 2.8-2.1-2.4-.6zm.4 16.9c-14.4 1.4-30.8 3-46.9 7.9-17.4 4.7-33.5 11.4-49.9 18.9.2 1 4.1-1.1 4.6-1 24.2-10.4 47-18.9 74.6-22.4 4.3-.5 10.7-1.7 15.2-2.1 3.4.5 6.9-1.5 2.4-1.3zm-8 16.7c-20.8.6-39.2 2.2-59.6 6-10 1.9-20.3 3.8-30.1 6.3 0 .9 3.5 0 3.9.2 26.9-6 51.8-9.8 79.1-10.9 8.7.1 13.7-1.6 6.7-1.6zm-34.4 12.7c-21 0-37.9.9-58.8 2.1-.2 1 2.1.2 2.4.5 28.6-1.4 57.7-1.2 86.5-.9.3-1-2.4-.9-2.8-1.2-7.6-.3-19.6-.5-27.3-.5zm-60 4.1c-.8.2.6 1.4.8.9 26.6 2.4 52.6 7 79.2 11 1-1.2-4-1.4-4.2-1.7-25.8-4.6-49.7-7.8-75.8-10.2zm-1.6 2.5c-.8.8 1.8.7 2 1 18.1 5 36.4 9.7 53.6 17.2 4.4 2 11.2 5.7 13.4 5.6.5-.9-1.9-1.4-2.2-2-9.4-4.5-18.7-8.6-28.7-11.4-12.3-4.3-25.3-7.2-38.1-10.4zm-1 1.6c-2.4.3 1.3 1 1.7 1.4 18 9.8 34.8 19.2 50.8 30.9 1.3.5 3 2.2 4.4 2.3.3-1.1-2.6-2.5-2.9-3.3-10.9-8-29-18.4-44.8-26.5-3-1.6-6.1-3.3-9.2-4.8zm-1.5 3c15.5 14.9 29.8 29.7 45.4 44.5 5 2.5 1.8-.3-.1-2.1-15.5-14.9-29.2-28-44.8-42.8-2.8-2.8-2.8-1.2-.5.4zm-2.7 3.8c9.8 20.3 23.3 35.6 36.9 53.4 3.2 3.9 3.3.6-.1-2.1-13.3-18.2-26.5-32.2-36.4-52.6-2.6-4.7-1.4-.3-.4 1.3zm-3.7.2c3.3 23.7 16.2 45.4 29.4 65.8 3.4 2.6 2.1-.8.3-2.3-13.4-21.2-25.2-40.3-29.1-65-1.3-5.1-.9-.1-.6 1.5zm-2.6 1.1c.6 23.2 6.1 53.1 17.6 77.3-.1 1.3 4.5 2.3-2.2-7.3-12.1-31.3-13-52.1-14.5-62.6.5-20.6-1.3-9.1-.9-7.4zm.1 77.1c1 3.8 1.8 8.7 3.8 11.1 1-.4-1.1-3.9-.9-4.7-6.1-24.3-7.1-48.1-7-73.1 2-9.3 2.2-25.9-.3-2.9-2.7 15-.2 48.1 4.4 69.6zm-7.8-73.2c-9.9 30.8-10.7 63.4-8.2 95.4 1 .1.4-2.6.7-3-2.3-33.5-1.3-66.2 10.2-98-.1-3.1-2.3 4.6-2.7 5.6zm1.4-7c-5.1 7.4-9.4 15.6-13 23.8-11.6 27.3-17.2 57.4-15.8 86.6 1 .3.6-3 .9-3.3.6-36.4 7-72.6 26.4-103.9.2-1.1 2.1-2 1.7-3.1l-.2-.1zm-.7-1.1c-21 20.6-36.5 47-41.5 76.2-2.8 13-4.2 25.2-5.1 39.6 1.1.9.7-2.3 1-2.6 1.7-14.9 2.4-29.5 6.4-44.1 6.5-26.1 20.7-49.7 39.4-68.8.1-.2 0-.4-.2-.3zm-1.1-.6c-13.4 8-24.1 19.8-33.3 32.2-12.6 17.7-23 37.4-29 58.4-1.2 4.8-2.4 9.7-2.3 14.6 2.4 1.6.3-.5.7-2.6 1.8-16.4 9.5-31.2 16.4-46 9.9-18.3 22.1-35.9 38.5-49.8 2.8-2.5 6.1-4.5 9.2-6.6.1-.1-.1-.2-.2-.2zm-17.6 3c-18.5 24.5-36.3 48.6-43.1 78.7 1.3.4.5-3 1.3-3.4 8.2-28.6 26.1-52.8 43.3-76.2 0-.3-1.2.2-1.5.9zm-44.3 79c-1.3 3-1.5 6.4-1.2 9.6 0 .2.4.3.5 0 .5-.5.3-1.3.3-2-.7-6 1.8-9.9.4-7.6zm172-156.4c-25.3 3.9-33.9 9.1-52.4 16.9-11.3 4.8-21.8 12.1-32.2 18.7-11.3 8-21.7 17.2-31.2 27.3-3.3 4.3-7.4 8.6-10.6 12.8.6 1.5 2-2.4 2.9-2.8 5.5-6.2 10.5-12.8 16.8-18.2 13.2-12.7 28.8-22.5 44.7-31.7 17-8.5 34.6-16.1 53.2-20.4 6.9-1.6 14.2-2.4 21-1.1-.6-.8-3.8-.6-4.7-1.3l-3.6-.2h-3.9zm53.9 278c-.5 0-.7.2-.6.5l-.1.6c-.9-.3-1.3-.2-2.3-.5-.4-.1-1 0-1.3.2-.1.3-.3 1-.3 1.2-.4 2-.3 3.8-.3 5.9 0 .2.5 0 .4-.2.2-2.5 1.5-2.2 2.2-2.9 0-.8-1.2.4-1.1-2.7-.2-.4.2-.7.6-.5l2.7.8c.2-.1.5-.4.5-.5l.1-.8c.3-.3.4-.2.7 0 .1.6-.1.9 0 1.4.2.2.6.5.9.6l.6-.5c.2-.2.2.1.5.2l.1 1.2c.2.2.8.2 1 .2.8.1 1.7.4 2.3.7-.2 1.2 0 1 .2 1.5-.3 2.4-.4 1.9-.6 4.3-.3 1.2.2 4.1.7 2.1.3-2.2 1-3.6 1.2-6 .3-.7 1-1.5-.6-2.5l-1.6-.6-1.8-.6-.1-1c-.3-1-1-.6-1.2-.6-.3.1-.2.4-.5.6-.1.2-.6-.1-.7-.3.3-.3.9-1.9-.2-1.4-.2-.2-.4-.3-.7-.3-.3 0-.5-.1-.7-.1zm-.1 4.6c-3.8 0-8.7.6-11.6 3.2-1 .5-1.9 1.8-2 2.9 0 .2 1.1.2 1.1 0-.9-2.2 5.2-4.5 8.5-5 4.8-.7 9.8-.1 14.3 1.6 2 .9 4.5 1.7 5.6 3.8.4.8.2 2.6-.3 2.9.1.3.4.1.4-.1.7-1.7 0-3.7-1.2-4.7-2.6-1.9-6.1-3.3-9.4-4-1.8-.4-3.7-.6-5.4-.6zm-12.9 9.4c3.4 2.8 8.4 4.6 13.1 4.7 4.4.2 8.9-.5 13-2.5.8-.3 1.7-1.1 2.1-1.3.1 1.9-.2 3.8-.7 5.6.8-1 1-5.7.9-6.1-.3-.2-.5.2-.8.3-2.2 1.7-4.8 3-7.4 3.2-5.1 1.1-10.6 1.2-15.4-.9-5.5-2.7-5.5-5.6-4.8-3zm-.2.3c-.5.8.4 5.5.7 6 .9 1.2 2.5 1.2 3.8 1.7 6.5 1.7 13.5 1.9 20 .1 1.1-.4 2.2-.8 3.1-1.4.1-.3-1.1-.2-1.2 0-3 1.5-5.7 1.8-9 2.2-4.7.3-8.5 0-13-1.3-4-.3-3.5-1.2-3.8-2.5-.4-.8-.4-4.4-.6-4.8zM242.7 312.4c-.2-.3 0-.6.4-.8.5-.3.8 0 1.2.1.1.5-.2.8-.6 1-.6.2-.8-.1-1-.3zM237.4 305.1c-.1 1.9-.4 3.3-.5 5.3 0 .2.7.2.7 0-.2-2.8.1-3.9.4-5.7-.4-1-.5-.3-.6.4zm-2.7-.9c-.2 0 0 .7.1.8.8.8 1.2 1.3 2 2.2.1.1.3-.1.2-.2-.6-1.3-1.4-2.3-2.3-2.8zm4.9.9l-1 .7-1.3 1.1c-.1.1.1.4.2.2l2.8-1.7c.3-.2-.4-.4-.7-.3zm-1.8 2.1c.3.1.7.8.5.8 1 .9 2.3 1.8 1.2 2.4.2.1 1.8-.3 1.6-.4 0-.7-1.2-1.8-2.9-2.8h-.4zm.8-.4c-.2 0 .4.2.6.1.8.7 2.1.4 3 1.1.2 0 .2-1.3 0-1.3-1.1 0-2.4.2-3.6.1zm-6.5-1.6c1.1.8 2.4 1.1 3.7 1.6.2 0 .2-.3.1-.3-1.3-1-4.3-2.1-3.8-1.3zm-.4 1.8c1.6.5 3 .1 4.7.1.2 0 .1-.4-.1-.3-1.8.2-3.3-.2-5.1-.2.1.3.5.4.5.4zm4.1-.1c-2.8 1.7-3.3 1.3-4.1 1.9-.2.1.2.8.4.6.7-.1.9-1 3.8-2.3.1 0 0-.2-.1-.2zm1 .2c-.2.1-.3.3-.5.5-.6.7-1.3 1.4-1.9 2.2-.1.2.2.3.3.2.8-.9 1.6-1.7 2.3-2.6 0-.2-.1-.3-.2-.3zm-4.7 2.3c3.6 2.6 9.1.9 9.6.8l1.7-.5c.1-.1-.4-.4-.6-.3-1.4 1-5.7 1.4-8.7.6-.7-.1-1.3-.4-2-.6zm-9.2 66.5c-.6.1-1.1 1.2-.7 1.9-.3.5-.6 1.6-.5 2.5.2 1.5.3 2.9.3 4.4 0 .2.6-.1.8-.6 0-1.4-.1-2.5-.2-3.8 0-.4.6-.1.6-.7-.1-.8-.7-.6-.7-1.4 0-.3.1-.7.3-1 .2-.4.6-.5 1-.6.2-.1.3-.8.1-.8-.1-2.6-.2-.2-1 .1zm26 1.1l1 .6c-.1 2.1.1 5.1-.4 6.3 0 .2.3.2.3 0 0-.7 0-1.5.1-2.2 0-1.4.1-2.9.2-4.3 0-.1-.4-.5-.5-.6-.1-.4-.3-.7-.5-.7-.4 0-.4.9-.2.9zm.7 6.9c-.6.3-1.1 1.3-5.4 2.7-4.5 2-5.6 2-10.5 1.8-3.3-.2-6.7-.7-9.6-2.4-.7-.4-1.2-.9-1.7-1.5-.2-.1-.3.2-.1.3 1.4 1.7 3.7 2.9 5.8 3.5 4.8 1.2 9.7.7 14.5-.6 3.1-.5 5.4-2.4 7.1-3.6.1-.1 0-.2-.1-.2zm-.4-5.8c-.7.7-1.4 1.5-2 2.2-.7.6-1.5 1-2.4 1.5-.9 0-1.5.3-1.9.8l-.4.1c-4.4 1.6-9.7 1.9-13.9.3-2.3-.6-4.7-1.6-5.9-4-.2-.1-.1-.7-.4-.6 0 .5.4.9.6 1.3 1.7 2.4 5.8 3.8 8.5 4.3 4.2.7 7.4 0 11.5-1.3l.6-.2c.6 0 1-.2 1.3-.5.9-.4 1.9-1 2.7-1.6 1.2-.4 1.7-.8 1.8-2.1 0-.1-.1-.2-.1-.2zm-25.6-1.3c-.2.1.1.4.1.5 1 3.1 4.2 4.1 6.9 4.6 4.2.7 9.5.6 12.8-1.4 1.9-.6 3.9-1.4 5.3-3 0-.2.4-.4.2-.6-.2 0-.2.5-.5.6-1.5 1.6-3.7 2.4-5.8 3.1-4 1.1-8.3 1.5-12.4.6-2.6-.6-5.3-1.9-6.6-4.4zm1.2-57.4c-1.1-.1.1.6.3.4 7.9 2.7 16.4 2.2 24.5.9 1.7-.8-.7-.2-.9-.2-8 1.2-16.3 1.6-23.9-1.1zm-.4 2.5c-.5.3.6.5.8.5 8 2.3 16.5 1.9 24.5.5 1.4-.9-.8-.1-1-.1-8.1 1.2-16.5 1.5-24.3-.9zm-.1 2.6c-.1.1.1.6.4.4 8.1 2.3 16.7 2 24.9.8.2-.5-.8-.2-1-.2-8.1 1.1-16.5 1.3-24.3-1zm0 2.3c-.5.3.6.6.7.6 7.8 2.6 16.3 2.4 24.2.8 1.5-.6-.8-.1-1-.1-7.8 1.3-16.2 1.4-23.9-1.3zm.1 2.9c-.5.3.6.6.7.6 7.8 2.5 16.2 2.1 24.2.9 1.4-.6-.8-.2-.9-.2-8 1.1-16.3 1.5-24-1.3zm.1 2.8c-.4.1.1.6.3.5 7.7 3 16.8 2.2 24.7.8.2-.5-1.4-.1-1.5-.1-7.8 1.2-16 1.8-23.5-1.2zm-.2 2.5c-.4.1.2.7.4.5 7.2 2.7 15.2 3.1 22.7 1.5.5-.3 1.8 0 2.1-.5-.3-.5-1.4.3-1.8.2-7.4 1.6-15.3 1.3-22.4-1.3-.3-.1-.6-.4-1-.4zm.2 3.3c-.5.3.5.6.7.6 7.6 3.1 16.6 2.8 24.3.4.1-.5-1.1.1-1.3 0-7.8 2.2-16.2 2.2-23.7-1zm-.4 2.9c-.5.3.5.6.7.6 7.7 2.7 16.5 2.5 24.4.8.1-.5-1.1 0-1.2 0-7.9 1.4-16.2 1.4-23.9-1.4zm.3 2.9c-1.5 0 .5.6.7.6 7.6 3 16.1 2.3 23.9.6.1-.5-.8-.1-1-.1-7.8 1.5-16.2 2.1-23.6-1.1zm-.2 3.1c-1.4.1.6.6.7.5 7.7 2.3 16.2 1.7 23.9.1.1-.5-1 0-1.2 0-7.6 1.5-15.8 1.9-23.4-.6zm-.2 2.6c-.8 0 0 .6.3.4 7.8 2.4 16.6 2.1 24.5.2.1-.5-1 0-1.2 0-7.8 1.6-16 1.9-23.6-.6zm0 2.7c-.4.1.2.7.4.4 7.8 2.4 16.4 2.7 24.3.4.1-.5-.7-.1-.9-.1-7.8 2.1-16.1 1.6-23.8-.7zm-.1 2.9c-.5.3.5.6.7.6 7.8 2.7 16.3 2.2 24.1.2.1-.5-.8-.1-1-.1-7.8 1.8-16.2 2.1-23.8-.7zm-.1 2.9c-.4 0 .1.6.3.5 7.9 3 16.8 2.3 24.8 0 .1-.5-.8 0-1 0-7.9 2-16.4 2.5-24.1-.5zm0 2.8c-.4.1.1.6.3.4 7.8 2.3 16.9 2.8 24.7-.1 0-.5-1.2.2-1.4.2-7.7 2.5-16 1.8-23.6-.5zm24.2 2.8c-7.8 2.6-16.3 2.4-24.2.2-1.4.1.6.5.8.5 7.7 2 16.5 2 24-.6.1-.2-.2-.3-.6-.1zm-24.4 2.3c-.4.1.1.6.3.4 7.8 3 17 2.7 24.8-.3 0-.5-1.3.2-1.5.2-7.6 2.6-16.1 2.7-23.6-.3zm24.4 2.6c-7.7 2.5-16.4 3.3-24.1.3-.6.1.1.6.3.4 7.7 2.8 16.7 1.9 24.4-.7.1 0-.1-.2-.6 0zm.6 2c-7.5 2.6-16.4 3.7-23.9.7-.1-.1-1.1-.6-1-.1 7.5 3.3 16.2 2.7 23.8.1-.1.1 1.9-.5 1.1-.7zm-.4 2.3c-7.6 3.2-16.4 3.3-24 .3-.4 0 0 .6.3.4 7.6 2.9 16.9 2.6 24.4-.6.2-.2-.3-.3-.7-.1zm.1 2.4c-7.7 2.9-16.7 3.5-24.4.3-.4.1.4.7.6.6 7.6 3.1 16.7 2.2 24.2-.7.2-.2.1-.3-.4-.2zm-.1 1.8c-6.4 3.2-14 4-20.9 1.9-.7.1-1.8-.9-2.4-.6-.1.6 1.3.4 1.5.7 7.2 2.4 15.4 1.7 22.1-1.8.8-.8.5-.8-.3-.2zm-23.9-60.6c-.4.2 0 .9-.1 1.2.1 2.3.1 4.7 0 7 .1 2-.5 3.9-.2 5.9.2 2.1-.2 4.1.1 6.2.3 1.7-.6 3.4-.4 5.2 0 2.5 0 5-.3 7.5.2 2 .2 4 .1 6-.2 1.8-.1 3.5.1 5.3-.2 1.5-.5 3.1-.3 4.7.1 2.6.1 5.3.4 7.9.1.7-.2 1.6 0 2.3.5.1.3-.7.3-1l-.3-5.9-.2-5.5c.2-1.4.5-2.8.2-4.2l.1-8.2c-.3-2.1.3-4.1.2-6.2 0-2.1-.1-4.1.3-6.2.3-1.6-.3-3.3-.1-5 .2-2.2-.3-4.4.1-6.5l.2-5.7c-.1-1.6 0-3.2-.2-4.8zm25.9 0c-.4.2 0 .9-.2 1.2-.1 2.4 0 4.8-.5 7.1l.1 4.3c.1 1.5-.2 2.9-.3 4.4.1 3 0 5.9-.3 8.9.1 2.7-.5 5.3-.4 7.9-.1 1.8-.2 3.5.1 5.3.2 1.7.2 3.5-.1 5.2 0 2.8-.1 5.6 0 8.5 0 2 .2 4 .1 5.9.2.4 0 1.1.4 1.4.5-.1-.1-.8 0-1.1l-.1-4.8c0-2.6-.2-5.1-.1-7.7-.1-1.6.2-3.2.3-4.8l-.3-5.4c.2-2.7.1-5.4.5-8.1 0-2.8.5-5.5.4-8.3 0-1.8-.1-3.6.2-5.4 0-2 0-3.9-.1-5.9.3-1.6.5-3.3.5-5 0-1.2.1-2.5.1-3.6h-.3zm-23.6 41.9c-2.7-.4-2.4 2.9-2 3.7.3.3 1.1 1.8 1.4 1.7.4-.1 2.2-2.3.9-2.1-.8-.2-1.3-1.3-.7-1.9.8-.2 1.4.6 1.8 1.1.5.7.5 1.8.7 2.6.3 5.7-.3 11.3-.8 16.9 0 .2 1.4.6 1.4.4.4-5.5 1.6-11 .9-17-.1-.9-.2-2.3-.4-3.1-.4-1.2-2.3-2.2-3.2-2.3zm-1.2 6.2c1.3 2.1.2 1.6.8 2.5 1.1.2 2.1 1.8 2.8-1.7.3-.2.1-.3-.1-.4-1.1-.2-2.2-.5-2.9-.6-.7-.1-.7.1-.6.2zm-.8 3.8c-.3 1.7.8 1.3 1.7 2.6 1 .2 3.1-1.1 2.7-1.8.3-.3 0-.3-.3-.3-.5.3-1.7.1-2.6-.1-.5-.1-.8-.4-1.1-.6-.3-.2-.5.1-.4.2zm10.7.4c-.3.1-3.4-2-2.6.8-1.5 1.2-1.1 2.9-1.3 4.7-.2 2.1-.4 3.3-.4 5.3.1.3 0 1.6-.4 1.6.1.1 2.7.5 2.6.4-.5-1.1-.9-2.5-.6-3.8.3-1.7 0-4.3.8-6.2.5-1 1-2.1 2.1-2.4 0-.2-.1-.4-.2-.4zm-1.4-19.1c-1.1.4-1.8 1-1.9 2-.1.4 2 4.1 2.3 2.7.1-.8-.1-3.1 1.2-2.6.9.6 2 1.8 2 2.8.3 5-1.3 10-2.1 14.8-.7 4-.7 8.1-.9 12.2.1.2 1.9.2 1.8 0-.9-6.7.3-13.8 1.6-20.1 1.8-.8 1.2-6.4 1.1-8.4-.4-.8-2.2-2.9-3.3-3.4-.5-.1-1.1-.1-1.8 0zm3.6 6.3c-.1 0-.2.2-.2.3-.3.4-.9.6-1.4.7-.7.2-1.2.1-1.9.1-.1 0-.3 0-.3.1s.2.5.3.5c.7.5.6 1.9 1.3 1.8.6-.1 2.2-2.3 2.2-3 .1-.1.2-.2.2-.4 0-.1-.1-.2-.2-.1zm-1.5 4.6c-.5.3-.7.7-1.3.6-.3 0-.7-.1-1-.2-.1 0-.2.1-.2.2-.7.4-.1 1.8.1 1.8.7.2 1.5.3 2.2 0 .3-.1.7-.3.9-.5.3-.7 2.9-4.1-.7-1.9zm6.9 1.4c-1.1.1-2.8 1.7-2.9 2.8-.2.7-.1 2.3-.2 2.9-.2 3.9-.9 7.3-.5 11.3.1.8-.1 2-.5 2.3.1.1 1.8 0 1.8-.1-.1-2.7 0-7.3.6-8.1.4-2.3.2-6.3.7-7.1.1-1 .5-2.1 1.4-2.5.8-.3 1.3.8 1 1.4-.1.5-.4.9-.7 1.3 0 .3 1.8.7 1.9.3 0-.8.1-2.2 0-3.1 0-.8-.7-1.2-1-1.2-.8-.5-1.1-.2-1.6-.2zm.5 6.4c-.9 0-1.2-.2-2.1.1-.1 0-.2.1-.2.2s-.1.9 0 .9c.9-.4.9 0 1.8-.1 1.5-.8 1.3-.6.5-1.1zm-6.4-99.6c.2.7.1 1.5.8 2.1-.6.6-.7 1.1-.8 1.6.3.8.3 1.7.8 2.5-.3.6-1 .8-.7 1.8.2.7.5 1.7.8 2-.8.4-.7 1.4-.7 2.3.3.7.1 1.1.5 1.7-.3.4-.6.9-.6 1.6.1 1.9.5 2.5 1 2.7-.2.6-.8.6-.8 1.7 0 1.2.4 1.5.8 2.1-.6.2-1 1-1.1 1.7.2.9 0 1.8 1.1 2.7.2.1.5-.2.4-.3-.3-.8-.6-1.1-.7-2.1.7-1.9.6-1.1.9.1l-.2 1.9c.1.2.3.2.3 0 .4-.1.9-1.4 1-1.9-.2-.8-.2-1.8-1.4-1.9 1-.2 1.1-1.2 1.4-1.9-.1-.6-.1-1.1-.4-1.6-.2-.3-.5-.4-.7-.8l.7-1.8c.1-.7-.2-1.5-.6-2.1.4-.6.7-.4.7-1.5.6-1.3-.4-1.9-.8-2.7.2-.7.5-1.1.8-1.7 0-1.3-.2-1.4-.6-1.9.4-.8.6-1.1.7-2.1-.1-1.3-.5-1.3-.9-1.7-.4-.3 0-.4 0-.8.3-.6.5-1.1.5-1.7 0-.5-.5-1.9-1.4-2.2-.9-.4-.6 1.5-.8 2.2zm1.6-.1c-.6 2-.7 1.8-1 0 .3-2.3.4-1.4 1 0zm.1 4.1c-.6 1.8-.9.8-1-.2.5-2 .6-.7 1 .2zm-.1 3.5c-.5 1.4-.6 1.1-.9-.1.6-1.2.5-.6.9.1zm.1 4.2c-.6 1.6-.8.9-.9.1.3-1.8.4-1 .9-.1zm0 4.2c-.7 1.9-.5.9-.8.1.3-1.5.4-1.1.8-.1zm.2 4.4c-.7 1.5-.9.8-1.1-.1.6-1.5.8-.6 1.1.1zm1.6-33.2c-.2 0-.2.3-.1.3.4.5 1 .7 1.6.8 1 .4 1 .7.9 1-1.1.2-1.2-.4-1.7-.8-.1-.1 0 .5.1.6.6.9 1.2 1.2 2 .9.1 1.2-.1 2.9 1.9 2.6.4-.3.1-2-.1-2.2-.5-.5-.9-.7-1.5-.7 0-1.2-.5-2.1-1.7-2.4l-1.4-.1zm3.2 3.1c1.2.2 1.3 1.1 1.2 1.7-.9-.3-1.1-1.3-1.2-1.7zm-5.8 36.5l-.5.4c-.1.2-.2.5.1.6.3 0 .4-.2.5-.3 0-.3.1-.4.4-.4.2 0 .3.3.4.5.2.2.1.4.1.6 0 .3-.2.6-.1.9.1.2.7.1.6-.1l.1-1.4c-.1-.5-.3-1-.5-1.3-.3-.7-.8.2-1.1.5zM235.8 307.1c-.3-.3 0-.6.7-.8.9-.2 1.4.1 2 .3.1.5-.5.8-1.1.9-1 .1-1.3-.2-1.6-.4z"/></svg>