<svg xmlns="http://www.w3.org/2000/svg" viewBox="0 0 473.4 541.8" enable-background="new 0 0 473.4 541.8"><path fill="#C12026" d="M254.9 51.3c-3 3.3-6.7.3-10.3-.6-1.7-8.4-7.3-12.8-12.5-17.7l-4 1.1c-2.1-10.6-2.1-20.5 6.8-24 6 .2 5.5 5.5 6.8 9.1 3.3-3.6 2.2-9.6 8-9.7 3.1 0 7.2 3.9 8 7.4 1.2 5.2-3.2 8.8-3.4 12.5 7.7-2.1 11.5 11.6 4.6 14.8-3.3 1-4.4-2.4-6.8-.6.5 3.3 3.9 3.3 2.8 7.7z"/><path fill="#fff" d="M164.3 46.8c-2.7 1.7-3.7 1.8-8.6 1.1.7-1.5 3 0 4 0-2.3-2.5 3.7-2 4.6-1.1z"/><path fill="#C12026" d="M103.2 102.1c2.7 1.7-5.5 4-6.8 3.4.7-2 3.5-1.8 5.1-2.9.7 0 1.6.2 1.7-.5zm86.2 8.5c3.2-1 1.7-6.7 6.3-6.3-1.4 2.8-3.3 5.1-5.1 7.4-.7 0-1-.5-1.2-1.1z"/><path fill="#fff" d="M144.3 111.2c3.7.9 6.1 3.1 7.4 6.3-2.3-2.3-5.3-3.9-7.4-6.3z"/><path fill="#C12026" d="M266.9 212.2c-18.1 17.6-37.8 33.7-57 50.2v3.4c-3.5-3.8 1.8-7.1 4-9.1 4.3-3.9 7.4-6.4 11.4-9.1 3.7-2.5 6.2-7.6 9.7-10.3.7-.5 2.2 0 2.9-.6 9.4-8.3 18.2-17.3 26.8-25.1h1.7c0 .3 0 .7.5.6z"/><path fill="#fff" d="M326.8 229.8c-1.4-2.5-.3-12.5-.6-16 3.2 4-.6 9.3.6 16z"/><path fill="#C12026" d="M208.7 232.1c1.8 2.9 1.5 12.6 0 18.2-1.5-3.2 1-11.7 0-18.2zm-1.7 31.4c2.4 14.8 4 27.4 6.3 42.8-5.5-.5-12.7 1.5-17.7 3.4 1.8 3.3 6.6 1.3 10.3 1.7 3.3.4 6.5 2.4 9.1 2.3.5 2.9 1.9 4.9 2.3 8-10.3-5.1-28.2-4.5-35.4 2.9 10.8-3.3 28.6-3.5 37.1 4 .8 6 4 9.7 5.7 14.8-11.3-5.5-26.7-11.7-41.6-5.7-7.7 10-16.2 19.1-30.2 22.8 1.6-7.9 1.5-14.2-1.1-22.2-1.3-4.1-6-9.8-5.7-13.1.4-4.1 10.7-10.4 14.3-14.3 5.7-6.2 12.8-12.9 21.1-21.1 6.3-6.2 15.9-12.9 18.3-17.7.8-1.5-.1-2.6.6-3.4 1.5-2 4.9-2.6 5.1-5.1.4-.1 1-.1 1.5-.1z"/><path fill="#ECAD87" d="M135.2 344.5c-1.7 1.8-10.6 3.9-11.4 1.1 4.9.8 6.7-1.6 11.4-1.1z"/><path fill="#171526" d="M204.8 349.6h-.6c.2-2.6-5.6.7-4.6-2.9 1.7.4 1.7 1.9 2.9 0 2.3.6 1.6 2.3 4.6 1.1.4 1.9-1.9.9-2.3 1.8z"/><path fill="#ECAD87" d="M344.5 350.2c1.6.1 2.7.7 2.3 2.9-1.8-.5-2.2.5-2.9 1.1l2.9 1.7c-1.2.9-1.3 2.9-1.1 5.1-1.1-.2-.4-2.2-2.3-1.7-.1-1.4.9-1.8 1.1-2.9-1.4-1.4-1.5 1.4-4 .6.5-3.1 2.8-4.4 4-6.8z"/><path fill="#171526" d="M208.2 355.3c1.1.2.4 2.2 2.3 1.7-2.1 2.6 2.6 5.3-.6 6.8-1.8-2.4-.4-5.1-1.7-8.5zm-39.4 5.7c.3-3.3 5.3-2.4 4.6-5.1 2.9 2.1-2.3 4.6-4.6 5.1zm0 9.1c-2.8 3.7-4-4.9-2.9-6.8 3.2.1-.9 7.5 2.9 6.8zm1.2-.5c2.8 2.3 9.7.5 11.4 4-.6 1.7-3.4 5.4-.6 6.8-2.9 1.1-2.1-3.2-1.7-5.7-2.8-1.9-8.6-.9-9.1-5.1z"/><path fill="#ECAD87" d="M335.4 388.4c1.1-4 .4-12 0-14.3 2.1 3.4 2.2 10.9 0 14.3z"/><path fill="#171526" d="M152.3 396.4c-2.2.8-1.1-1.6-2.9-1.1 2.5-3.2.3-11.5 5.1-10.3-3.6 1.8-1.6 6.1-2.2 11.4zm15.4-10.3c1.2.1 1.2 1.4 1.1 2.9.4 1.7 3.3.9 4 2.3 1.5.2-.5-3.2 1.7-2.3 0 .8-.1 1.6.6 1.7-1 2.4-5.1 0-6.3 1.1-1-1.3-.3-4.3-1.1-5.7zm66.7 10.3c2.1.4 1.9 3.1 2.9 4.6-.5.3-1 .5-1.1 1.1-.3 0-.7.1-.6.6h-1.1c-.8-1 .3-3.8-.1-6.3zm13.1 11.4c4.7 5.2.8 13.3-2.3 17.1l-1.1-3.4c3.5-2.5 3.7-9.1 3.4-13.7zm-223 17.1c-2.3-2.3.7-11.6 5.1-12.5-3.4 2.4-4.2 7.4-5.1 12.5zm28-9.1c3.1-3.7 5.8 2.4 9.1 2.3-3 3.3-4.1-4-9.1-2.3zm-5.7 8h-1.7c1.5-2.9 4.4-7.3 6.8-7.4-.7 2.6-3.5 3-4 5.7-.1.8-.9.9-1.1 1.7zm159.1-4c2.8 1.7 4.9.6 6.3 3.4-.5.4-.9 1-1.1 1.7-2.3-.9-3.1-3.4-5.7-4l.5-1.1zm-115.8 8.5c-3.2-1 2.2-2.1 1.1-4.6 1.2.1 1.2 1.4 1.1 2.9 2.6 0 5.1-.5 6.8 0 2.3-1.7 2.1-5.8 6.3-5.7-1.4 1.8-3.9 2.5-3.4 6.3-3 .6-7-.4-11.4 0v1.1h-.5zm29.7-5.7l3.4 4.6c-.7 2-1.4 2.2 0 4 1.8-.7 3.1-1.8 4.6 0-1.3 1.3-5.4 0-6.8 1.1-.6-2.6-.1-6.4-1.2-9.7zm65 0h2.3c-.1.7-1 .5-1.7.6.1 1 1 1.3 2.3 1.1-3.5 3.7-11 10.8-16 5.7 5.5-1.1 10.6-2.7 12.5-7.4h.6zm26.8 9.1c1.4-.1 1.8.9 2.3 1.7-4.7 1.9-7.4-4.2-5.1-8 1.3.8.2 4 .6 5.7.1.9 1.3.5 2.2.6zm54.2-6.2c2.7-.4-.3 4.8 2.3 4.6-.2 1.7-3 .8-3.4 2.3-.6-2.3 1.7-3.2 1.1-6.9zm-183.7 15.4c-.5-4.8 1.2-9.9 5.1-11.4-2.1 3.3-3.7 7.2-5.1 11.4zm-15.9-7.4c-.9 4.7 3.3 4.3 2.3 9.1-.3-3-7-6.8-2.3-9.1zm-47.4 2.8c.2 2.6 1 4.7 2.3 6.3 1.7.4 2.1-.6 3.4-.6.3.8.8 1.4 1.1 2.3-.7.2-1.2.7-1.1 1.7-2.9-3-8.5-3.3-8-9.7h2.3z"/><path fill="#ECAD87" d="M330.2 440.3c.5.3.9.6 1.7.6-.4 2.1.1 5.1-2.3 5.1-.7-2.2.3-3.1.6-5.7z"/><path fill="#171526" d="M87.8 447.7c-2.6.9-3.6 3.2-4 6.3-2.4-1.5.6-5.8 2.3-6.8-.2-2-5.6-2.7-2.3-4.6.2 2.3 3.7 1.2 5.1 2.3v1.7c-.4.2-.9.5-1.1 1.1zm-21.6-3.4c.9-.2 1 .5 1.7.6-.6 2.4-1.4 4.7-4.6 4.6 1.1-1.7 2.7-2.7 2.9-5.2zm70.1 0c5 7.8-9.2 13.9-14.8 9.7v-1.7c7.6 1.9 13.9-1.4 14.8-8zm71.3 4.6c-2.6 0-4-1.4-6.3-1.7-.2-1.5 3.2.5 2.3-1.7l2.3 2.3c.8-.2.5-1.4.6-2.3 1.4 0 1.1 1.8 1.1 3.4zm34.8 11.9c-1.7-.8-1.1-3.8-2.3-5.1 3.1-.3-.1-5 2.9-6.3 1 2.7-1.6 6.8-.6 11.4z"/><path fill="#ECAD87" d="M343.3 451.1c1.2-.2 1.5.4 2.3.6-1.3 2.2-1.5 2.4-1.7 5.1-2.2.1-1.5-2.7-3.4-2.9-.4-2.2 3.4-.3 2.8-2.8z"/><path fill="#171526" d="M171.7 458c-1.2.5-1.9 1.5-4 1.1 1.8-1.4 2.6-3.9 3.4-6.3 1.3.7.2 3.6.6 5.2zm118-4.6c.7.2.9 1 1.7 1.1.5 1.6-.8 1.5-.6 2.9v.6c-1.4 1.6-2.8 2.4-1.7 5.1-5.3 1.2-11.7 6.2-16 2.3 8.6-1 15.1-4 16.6-12zm-79.8 1.2l3.4 2.9c-1.5 3.2-.4 5.6-1.1 9.1-1.1 1.2-3.4 1.2-2.9 4-2.4-1.4-3.1 1.6-5.7 0 5.3-3.4 8.2-8 6.3-16zm-124.3 1.7c3.2 1 5.4 2.9 6.8 5.7 4.2-.8 6.7-3.2 11.4-3.4v1.7c-1.9-.7-2.4 2.9-1.1 3.4-2-.3-3.6 1.2-5.7 2.3-4.3-2.9-9.3-5.1-12-9.7h.6zm36.5.5c3.9 3.5-1.8 8.3 1.7 10.8-1.9.2-2.4-1-3.4-1.7-3.5 3.4-16.5 4.2-16-2.3 6.7 5.2 16.5.5 17.7-6.8zm128.3 5.7c-.2 2.8-7.5 3.1-5.7 0 2.5.4 3.4-.8 5.7-.6v.6zm22.2 4c.5.7.8 1.5.6 2.9-2.1-.4-1.9 1.5-2.9 2.3-4.7-.9-10 4.2-13.1 1.7-1.6.5 1.7 1.3 0 2.3-1-.1-1.2.7-2.3.6-.2-1.1.1-1.8 1.1-1.7-3.7-.3-6.3-1.7-9.7-2.3-.1-2.3 1.5-1.5 2.9-1.1 7.9 2.9 19.1.4 22.8-4.6.2-.1.4-.1.6-.1zm-180.2 5.7c-4.2 1.7-12.4-.6-16.5 1.1.5-1.5 4.8-1.7 8-1.7 2.7 0 5.8.8 8.5.6z"/><path fill="#ECAD87" d="M337.1 473.4c2.7-.3 1.5 3.5 4.6 2.9-1 .7-1.5 1.9-3.4 1.7-.2-1.8-2.1-3.5-1.2-4.6z"/><path fill="#171526" d="M209.3 478.5c6.2 9.1-16.5 12.2-18.3 5.7 6.1 3.4 18 1.9 18.3-5.7zm-21.1 4.6v2.3c-4.7.2-5.6 2.3-9.7 1.7 0-.8.1-1.6-.6-1.7v-.6c4.3.3 6.3-1.8 10.3-1.7zm-18.2 6.8h-2.3c-.1-.4 0-1.1-.6-1.1 0-.9 1.6-.3 1.7-1.1.7.1 1.3.2 1.1 1.1 5.7 0 6.8 1.7.1 1.1z"/><path fill="#ECAD87" d="M378.1 514.4c1.1 4 .8 11.5-.6 14.8-.3-3.2 1.2-9.5.6-14.8z"/><path fill="#F2DBC4" d="M1.7 419.2c3.7-3.9 7.8-10.4 12.5-11.4h-1.1c0 .6-.5.7-.6 1.1-1.1 2.5-1.2 6-3.4 7.4-1.1-1.1.3-1 0-2.9-2-.4-2.5.5-2.9 1.7.2.8 1.4.5 2.3.6-.8 2.4-1.9 0-3.4 0-.5.1-.6.6-1.1.6-.5 1.6.8 1.5.6 2.9-1.9-.6-1.2-1.4-2.9 0zm0 .6c-3.4 3.8 3.1 3.5 1.1 6.8.7-.6 1-1.6 2.8-1.1-.5-2.6.6-3.6 2.3-4-1.4 4.9-1.9 9.5 0 13.7-.2 1 .8 1.5 0 1.7-2.4-6.5-6.3-9.9-8-16 1 0 .5-1.4 1.8-1.1zm187.7 72.4c9.6-.8 23.5 2.2 33.7-.6-9 3.8-23.6 1-33.7.6z"/><path fill="#171526" d="M424.9 503c7.3 8.3 18.7 15.5 21.1 26.8-1.1-2.7-1.6-2.5-2.3-5.1-1.7.4.5 1.2 0 2.3l-2.3-1.7v-.6c-.4-1.9 1.2-.9 1.7-.6-.9-1.9-2-1.9-3.4-2.3 2.5-1.2-.5-3.1-1.7-4-.1 1.4.9 1.8 1.7 2.3-1.1 1.5-3.7-2.3-2.3-3.4-3.5-.1-5.5-5.2-9.1-6.8-2.3-3.2-6.4-6.4-8.6-8 .7.1 1-.1 1.1-.6 3.9 1.8 5.7 5.7 9.1 8-.7-3-3.7-3.8-5-6.3zm-57.6-63.8c11.4 8.8 21.5 21.9 28.5 33.1-3-4.8-6.8-6.4-10.3-11.4 1.3.4 1.5 1.9 2.9 2.3-.3-1.3-5.4-7.7-6.3-5.1-.1-5.7-5.9-9.4-9.1-13.7-.6.4-.6 1.3-1.7 1.1-2-2.4-3.8-5-6.3-6.8-.6 0-.4-.7-.6-1.1.5-.3 1-.5 1.1-1.1 1.4 0 0 2.9 1.8 2.7z"/><path fill="#F2DBC4" d="M337.6 179.7c-.4 5.7-3.9 13.2-2.9 22.2-1.2.6-1.2.6-.6-.6-.7-6.9 1.4-15.8 3.5-21.6zm12.6-40.5c4.1.2 4.9 8.7 2.9 13.7-6.6 3.7-7.9 12.7-13.1 17.7 2.2-10.5 15.9-15.6 12.5-27.9-.7-1.3-1.6-2.3-2.3-3.5zm54.7 5.1c1.9 1.9-4 .9-5.7 1.1-4.1-9.2-11.6-15.4-14.8-22.8.3.8.9 1.4 1.7 1.7 4.2 3.8 7.3 8.7 10.3 13.7 1 3.7 3.8 8.3 8.5 6.3zm28.6-24.5c0 .6.5.7.6 1.1.7.1 1.6-.1 1.7.6-11.9-2.9-13.7-15.9-23.4-21.1.8 0 1.3.3 1.7.6.8.3 1.4.8 2.3 1.1 3.5 3.2 6.3 7 9.1 10.8 2.6 3.1 2.9 5.7 8 6.9z"/><path fill="#ECAD87" d="M430 45.1c-2.3-2.4-5-4.5-7.4-6.8-.2-4 0-7.6 2.3-9.1v.6c-3.5 6.3 3.5 10.3 5.1 15.3z"/><path fill="#F2DBC4" d="M439.7 59.3c-3.4-3.6-6.5-7.6-8.6-12.5 2.6 3.5 7 5.2 7.4 10.8 1.8-.3 2.5-1.7 4-2.3.3.8 2.2.1 2.3 1.1-2.1 0-3.1 1.1-4 2.3-.4.2-.5.6-1.1.6zm-179.1 35.4c2.2-2.6 5.3-4.2 5.1-9.1 1.3-1.1 5.1.2 6.3-1.1 1.4 0 4.6-2.9 5.1 0-3.9.3-5.7 2.7-10.8 1.7.2 4.5-3.6 8-5.7 8.5zm20.6-19.4c5.9-2 6.7 13.1-1.7 10.8-1 .1-1.3-.6-1.1-1.7 5.2 1.2 5.4-2.6 6.8-5.1l-4-4z"/><path fill="#2B4877" d="M231.6 10.8c-2.7 2.5-6 7.1-6.3 12-.1 1.8 2.9 5.9-.6 4.6h1.1c-.3-5.9-1-14 5.8-16.6z"/><path fill="#171526" d="M165.4 0h13.1c7.2 3 11.7 2.4 18.2 5.1 12.6 5.3 21.7 12.2 27.9 22.2 3.5 1.3.5-2.8.6-4.6.2-4.9 3.5-9.4 6.3-12 3.1-4.4 9.2-2.2 12.5.6 1.3-3.3 4.8-4.3 9.1-4.6 8.5 6 6.5 11.3 5.7 20-.1.5.8.4 1.1.6.1.7.2 1.4 1.1 1.1 7.2 5.4 4.4 17.6-3.4 20 .2 5-2.9 6.6-6.3 8-1.6-.3-1.8-2-4-1.7.1-.5-.2-.5-.6-.6-.4 3.5-2.6 9.1-1.7 12 3.6 7.5-6.9 10.6-9.7 15.4 1.8 1.4 5.9.3 8 0 3.4-9.7 17.7-14.1 22.2-1.7 1.8-1.8 6.3-1 9.7-1.1.7-2.4 2.7-3.4 5.7-3.4l4 4c-1.5 2.5-1.7 6.3-6.8 5.1h-1.1c-.5-2.9-3.8 0-5.1 0h-5.7c-1.9 3.8-3.8 7.6-6.8 10.3-.4.1-.7.5-.6 1.1 1.8 7.1 15.1 2.8 17.1 9.7-2.5 1.9-6.5 3.6-9.7 1.7-1.2-.9-3-1.2-5.1-1.1-1.5.8-1.5 3-2.9 4-2.4-.1-4.2-1.2-5.7.6-5.8-.1-4.7-7.1-12-5.7.1-.5-.2-.5-.6-.6.1 6.2-2.2 9.9-2.9 15.4-2.4 7.5-10.2 10.3-17.1 10.3-1.4 12.2 10.1 19.9 20.5 24 12-.2 18.8 4.8 25.1 10.3 1.5 2.7 4.7 3.7 5.7 6.8-1.1 0-.7 1.6-2.3 1.1-2.9-1.5-5-6.1-9.1-4.6h-.6c.1-1-.7-1.2-.6-2.3h-6.2c-5.2-2.8-12.1 6.5-16 10.3-9.2 8.9-25.8 19.4-27.9 35.4-.4 2.9-.5 8.8 1.1 9.1h.6c-1.1.6-3.4 5-.6 5.7v1.1c1.5 3.2-1.2 2.2-1.1 5.1 1 6.5-1.6 14.9 0 18.2 21.4-18 44.8-38.3 66.7-56.5 3.4-2.8 7.3-6.5 9.7-10.3.5-1.8-1.9-.8-1.7-2.3 1-2.7 2.2 1.1 4 1.1 12.4-8.5 22.3-19.6 33.6-29.1-2.1-1.3-6.3-.6-6.8-3.4 3.3-3.9 10.8-3.7 16-5.7.7-1.4-1.7-2.4 0-2.9 2.2-.6 4.2-1.5 7.4-1.1 3.1-.5 4.5.8 4.6 3.4-3-.4-7.6-2.3-10.8-.6 2.9 1.1 7.3.7 6.8 5.1-2.8.4-3-1.9-6.3-1.1-.1 1.4.9 1.8 1.7 2.3.5.3 1 .5 1.1 1.1v1.1c-3.8.7-3.1-2.5-6.3-1.1-.4-1.6 1.1-1.1 1.1-2.3-4.9-.2-9.6-.1-12.5 1.7 1.5 1.3 5.5.2 8 .6-.2 2.1.5 3.3 2.3 3.4v.6c-2.2 6.7-6.9 11-8.6 18.2 2.9 10.4-1.8 23.2-4 33.1-2.8 12.4-5.1 23.3-9.7 34.2-2.6 6.1-5.9 15.4-7.4 24-1.3 7 .1 15 3.4 20.5 3.4 2.1 2.6 8.5 6.8 9.7 3.8-4 10-5.6 12.5-10.8 1.4-1.5 2.8-2.9 3.4-5.1-.2-1.2.4-1.5.6-2.3 1-3.2 2.6-5.7 2.9-9.7 1.3-22.1-.4-43.9 2.3-64.4-.1-5 2.9-9.4 1.7-13.7.4-4.2 2.2-6.9 2.9-10.8 1.5-3.9 2.6-8.1 4.6-11.4 2.5-6.7 7.1-11.1 10.3-17.1 1.3-.6 1.2-2.6 1.1-4.6-1.1-3.2-4-4.7-5.7-7.4-1.8.2-4.9-.8-5.1 1.1-3.1-1.1-4.4 2.4-6.3.6 1.6-3.5 7-3.3 12-3.4 5.7-6.9 12.9-12.2 20-17.7 4.2-4.5 9.8-7.7 13.7-12.5 14.7-13.5 30.6-25.7 46.8-37.6 5.6-1.8 10.6-4.2 14.3-8 .6 0 .7-.5 1.1-.6 9-4 16.7-9.2 25.7-13.1 2 3.1 4.9 5.4 6.3 9.1-.2 4.1-.8 8.9-4 11.4-5.1 4.3-12.4 5.6-20.5 8-6.6 2-15.7 4.4-23.4 8-4.9 1.3-8.9 3.7-14.3 4.6 4 6.2 15.8 15.1 22.2 21.7 1.5 1.5 8.7 10.2 4 10.3-1-.2-1.1.4-1.1 1.1-4.2-1.5-7.2-4.2-10.3-6.8-2.8-3.9-5.7-7.6-9.1-10.8-2.4-4.2-4.8-6.7-6.8-10.3.6-2.1-1.4-1.6-1.1-3.4-3.3 2-6.9 3.7-8.6 7.4-.6 0-.7.5-1.1.6-4.8 3.9-10.4 7.1-14.3 12-1.6-.4-1.1 1.1-2.3 1.1-5.2 4.5-10.4 9-15.4 13.7h-.6c-3.5 3-6.9 6.1-10.3 9.1-.9 3.3-5 3.3-5.7 6.8l2.3 3.4c0 3.1-.1 7.6-1.7 9.7-6.3 8.2-12.5 17-15.4 27.4-7 25.4-3.3 60.4-6.8 90.7.2.7.7 1.2 1.7 1.1.1.4 0 1.1.6 1.1 3.7 7.7 5.7 11.1 6.9 18.2-1 10.7 1.6 24.2-5.7 29.7.2-3.7 1.4-6 1.7-10.8.7-10.4.8-24.4-4.6-33.1-4.8 10-10.8 20-22.8 21.1-16.3-14.2-12-44.3-1.1-60.5-1.1-.8-2.5-1.3-4-1.7-5.1 4.2-10.6 8-12.5 15.4-5.7 5.9-6.7 16.5-11.4 23.4-1.5 8.4-6.5 16.2-4 26.8 5.7-3.6 9.2-9.5 14.8-13.1 3.7 3.3-2.3 11.1 0 17.7-2.6-1-.6 4.6.6 6.8-.5-.4-1.3-.6-2.3-.6.2 3.1.5 3.4 0 6.3l5.1-3.4c-1 2.8-4.3 3.3-5.7 5.7 1.5 14.7-1.3 33.9 7.4 43.3-2.1 1.9-3.1-2.2-4.6-2.9-8.3-17.2-4.7-46.7-3.4-66.7-6.1 1.3-6.5 8.3-12.5 9.7-2.2-.5-1.8-3.5-3.4-4.6.7-.7 1.1-4.5 0-5.1 2.4-17.2 9.2-30 15.4-43.3 1.1-2.6 4-3.3 4-6.8 4.2-5 8.2-10 13.7-13.7h4c4.7-16 12.6-34.4 10.3-53.6 2.1-4.9 1-9.6 4-13.7v-1.1c-9.9 9.5-21.1 17.7-29.7 28.5-7.8 4-14 9.6-18.8 16.5l-3.4.6c-1.1.8-.1 3.7-1.1 4.6h-.6c-.5.1-.5-.2-.6-.6h-1.7c-8.6 7.8-17.5 16.8-26.8 25.1l-2.9.6c-3.5 2.7-6 7.8-9.7 10.3-4 2.7-7.1 5.2-11.4 9.1-2.2 2-7.5 5.3-4 9.1.6 4.9.2 6.6 1.1 9.1v1.7c1.3 3.6.2 9.7 2.3 12.5v.6c1 6.8.6 17.4 4.6 22.8.5 5.8 1 11.5 3.4 15.4.2 5.3 2.3 8.7 4.6 12 9.1 20.5 21.3 38 36.5 52.5 1.8.4 1.1.4 2.9 0-1.3 4.4 10.4 9.3 14.3 12.5 11.7 9.9 23.5 22.9 29.7 36.5 3.9 9.5 2.2 24.5.6 32.5-2.5 3.4-4.8 7-6.3 11.4-1-.5-1.7-1.4-2.9-1.7-.8.3.2.7 0 1.7h-6.8c2.8-.4 5.6-3.1 7.4-1.7 6-7.5 7.3-14.6 9.7-22.2-.2-1.1-2.2-.4-1.7-2.3 2.8-.2-.9-3.4 1.7-4-2.8-8.4-6.3-16.7-10.8-24-1.3-2-3.1-5.1-5.7-4.6-.2-.9.5-1 .6-1.7-11.4-11.4-23.9-21.8-36.5-31.9-2-.5-2.2.8-4 .6.1-1 1-1.3 2.3-1.1-2.5-4.3-4.1-6.4-8.6-9.1-.4-1.6 1.1-1.1 1.1-2.3l-5.1-2.3c.5-2.2-1.6-2.6-2.9-4.6-.5-.7.9-1.2.6-1.7-.6-1-1.4 0-2.3-1.1-1.2-1.5-2.1-9.1-3.4-5.7-.5-2.1-1.1-5.6-5.1-5.7.1-13-15.6-17.8-26.8-19.4-11.1-5.2-21.4 1.7-25.7 9.7 4.8-1.3 8.7-3.1 10.3 1.7-15.7-5.5-21.2 12.7-37.1 12.5-4.2 7.6-13.9 9.7-17.1 18.2-2.7-.4-2.5 2-5.1 1.7-2.2 4.7-6.9 6.8-10.3 10.3-2.2.8-1.1-1.6-2.9-1.1-1.8.9 2.3.7 1.1 2.9-1.7 4.8-9.7 3.2-10.3 9.1-6.2.2-8.8 4.1-13.7 5.7-8.9 1.3-14-4-21.1-7.4-6.7-9.1-16.5-15-20-27.4v-.6c-2.9-2.8-3.2-8.2-3.4-13.7 2.8-3.9 3-7.7 5.1-10.8 3.1-4.6 8.2-7 12.5-10.8 3.1-2.7 5.4-6.1 7.4-7.4.7-.5 2.2 0 2.9-.6 3.3-2.8 5.3-6.8 9.7-8 .4-1.8-1.6-1.1-1.1-2.9.6 0 .4-.7.6-1.1 1.8-.6 1.4.9 2.3 1.1 2.5-5.6 4-12.6 8.6-17.1 3.2-3.2 10-7.1 14.8-6.3 8.4 1.4 12.2 13.1 24 10.8 8-2.9 14.6-8.2 21.1-13.7 16.9-14.2 33.2-29.4 49.6-43.3 2.7-15.5-3.1-31.3 1.1-46.8.8-3.1 7.5-12.4 9.1-14.3 2.2-2.4 5.2-4.6 8-7.4 7.8-8 17-16.8 27.4-22.8 1.2 2.6 5.4 2.2 8 3.4-2.2-6.5-13.2-8.2-22.8-8 .2-1-.4-1.1-1.1-1.1-6.9-3.9-13.7-8-17.1-15.4-1.6-2.5-2.4-6-2.9-9.7.3-.5.6-.9.6-1.7-2.2-.3-2.7 1.1-4 1.7-2.4-2.3-5.9-1.8-8.6-2.9.2-1.2-.4-1.5-.6-2.3 2.3-1.2 3.1-3.8 4-6.3-3.4-.1-2.5 4-4.6 5.1-.7.1-1-.1-1.1-.6.1-2.1 2.1-2.4 2.3-4.6-3.5.3-3.6 4-5.1 6.3-1.8-.9-2.8-2.6-2.9-5.1 1.4-3.4 3.9-5.6 5.7-8.6-2.4.1-5.4 4.4-6.3 8-.5-.1-.6-.6-1.1-.6.8-4.5 4.2-6.5 5.7-10.3-.1-1.4-1.9-.1-1.7.6-.5-.1-.6-.6-1.1-.6v-1.7c-3.2.8-3.6 4.4-5.7 6.3-1 .2-1.1-.4-1.1-1.1 1.9-2.3 3.7-4.6 5.1-7.4-4.6-.4-3 5.3-6.3 6.3.8-3.2-.5-5.4-.6-8.6.3-1.6-3.1.4-2.9-1.1v-1.7c.6-1.9 2.9-2 4-3.4-2-1.4-4.4 1.7-6.3 2.3-3-2.5-6.4-4.6-7.4-9.1-1.7-3.6-7.2-3.5-8.6-7.4-1.1-.3-2.5 1.8-2.3-.6-1.5-.4-1.1 1.2-1.7 1.7-.6-.4-.6-1.3-1.7-1.1-1.4-1.7 1.4-2.8 1.1-5.1-2.3 0-2.5 2.1-2.3 4.6-1.6.4-1.1-1.1-2.3-1.1.1 3.8-4.5 2.1-5.7 5.7-1.8.5-.8-1.9-2.3-1.7-1.6 1.6 1.8 3.9 0 5.7l-1.7-2.3c-1.3.2-.2 2.8-.6 4-1 .1-1.2-.7-2.3-.6-.8 2.2 1.6 1.1 1.1 2.9-1.9.2-2.8 1.4-2.3 4-.8-.2-.9-1-1.7-1.1-1.6-.1.7 3.7-1.7 2.9-.9-.4-3.3-.5-4.6 0-1.7.1 1.9 3.7-1.1 3.4-1.2-.2-1.5.4-2.3.6-.4 2.9-.4 5.7.6 8.6 6.1-3.2 14.8 2.2 15.4 6.3-1.2-.5-2.5-.9-3.4-1.7h-1.1c-1.2-3.2-6.9-.8-9.1-1.7 0 1.5-.3 3.4 1.1 3.4-.1 1.4.3 2.4 1.1 2.9l3.4 5.7c3.2-3 10.8-3.9 13.7 0v.6c-4.2.8-7.2 2.7-10.3 4.6.3.5.5 1 1.1 1.1 2.9 12.3 11.3 19.1 21.1 24.5.9 1.2 2.5 1.6 4 2.3 4.6 1 9.2 3.7 14.3 1.1 2.5-2.2 2.9-9.7 5.1-10.3 0 9.2-5 11.2-3.4 21.1-1.4.1-1.8-.9-2.9-1.1 0-1.9 1-2.8.6-5.1-19.6.4-26.7-11.7-37.1-20.5-1.1.6-.1 3.3-1.7 3.4-4.6 8.2-19.3 7.2-27.4 2.3-2.1-2.5-3.5-5.6-4-9.7-3.5-4.9-9.2 3.8-13.7 6.8-.7.5-1.8-.5-1.7-.6-3.4 1.1-4.3 5.6-6.8 5.1v1.7c.8 3.9 1.9 6.8-2.9 7.4-2.9-.9-1.3-6.3-1.7-9.7 1.5-.8 2.8-1.8 4-2.9 2.8-1.4 3.2-2.4 6.3-4 3.6-.4 8.2-4.7 11.4-7.4 0-.6-.7-.4-1.1-.6 1.4-.8 6.3-8.7 3.4-12v-.6c-4.1 1.4-10.4 6.1-13.1 2.3-4.7 2.7-13.2 4.6-13.7 9.7 0 .3-.1.7-.6.6 1.2 1.3 1.9 4.6-.6 5.1-12.4-7.5 3.4-17.5 11.4-20 2.4-6.7 7.7-8.1 14.8-9.1 1.6-.5 1.5.8 2.9.6-.3-1.9.4-2.7.6-4-2.6.5-4.9-1.6-8-2.3-5.2-1.4-10.1 2.5-13.7 4.6-1.7-.1-3.5-6.7.6-5.7 2.7-1.9 6-3.4 9.1-3.4-1.6 1-4.4.9-5.1 2.9 1.4.6 9.5-1.7 6.8-3.4v-1.1c5.2 0 4.5-5.8 9.1-6.3 2.4-.3 3.8-2.5 6.3-1.1 5.5-2.5 8.6-7.4 13.7-10.3-4.3-5.1 1.3-10.8 2.9-15.4-7.4-4.1-9.2-20.7-6.3-29.7 1.2-5.3 1.9-9.1 3.4-13.1 6.2-13.4 17.4-21.6 33.3-25.1zm86.7 43.9c2.4-1.8 3.5 1.5 6.8.6 6.9-3.2 3.1-17-4.6-14.8.2-3.7 4.6-7.4 3.4-12.5-.8-3.5-4.9-7.5-8-7.4-5.8.1-4.7 6.1-8 9.7-1.4-3.7-.8-8.9-6.8-9.1-8.9 3.4-8.9 13.3-6.8 24l4-1.1c5.2 4.9 10.9 9.3 12.5 17.7 3.6.9 7.2 3.8 10.3.6 1.1-4.7-2.3-4.7-2.8-7.7zm-49.1 71.3c-3.7-.1-4.2 3-5.1 5.7 2.8-.8 3.2-4 5.1-5.7zm16.6-87.8c-2.7 3.2-7.4 4.4-8 9.7-1.5-.1-2.2-2.4-3.4-1.1-2 3.8-8.4 8.4-8 13.1.3 4.2 4.4 3.4 6.3 7.4-5.1.6-6.3 5.1-6.3 10.8 2.6 2.5 3.9 6.3 9.7 5.7l-.6 3.4c5.8 3.1 17.8 6.3 20.5-1.1 2.2.1 2.2 2.4 4.6 2.3 2.6-2.6 5.7-4.6 8-7.4.5-2.9-.6-4.3-1.1-6.3 7.3-9.4-3.4-23-10.3-27.9-2 .3-1 3.6-2.9 4-3.1-4-2-12.1-8.5-12.6zm-77.6 31.9c-.2 1.3-1.2 2.9.6 1.7-2.9 4-12 12.5-9.7 18.3-.1-.3.2-.7.6-.6v.6c4.2-4.3 6.9-12.7 12.5-16.5 1.3.2.6-1.6 1.7-1.7 2 1.1 2.5-.3 4.6-.6 4.8-.7 8.1-2.9 14.3-2.3h4.6c4.4 6.3 12 2.9 20 3.4l-1.7-3.4c-2.1-3.6-4.3-7.1-8-9.1-2.8-2.5-6-4.7-11.4-4.6-14.7-3-25.6 6.8-30.8 17.1 2 .4 1.1-2.2 2.7-2.3zm115.8 16c-6.5-4-12.7 2.7-12 8-5.6-.4-8.5 1.8-14.3 1.1-3.7 3.4-12.5 1.6-15.4 5.7h1.7c1.4 1.6 8.2-.9 11.4-1.1 7.9.4 14.5-4.4 21.1-1.7.8-3.1-2.2-2.4-1.7-5.1.6-.9.5-2.3 1.7-1.1.7 1.8 2.1 2.8 2.9 4.6 1.7-1.3 2.9-1.3 4.6 0-.4 1.8 1.6 1.1 1.1 2.9-2.1 3.1-6.3.5-9.1 2.9-.7-.1-1.2-.9-1.1.6 6.6 5.1 16.3-1 13.7-10.8-.4-3.4-2.4-4.8-4.6-6zm17.1 6.8c-.9-4.5-7.1-.1-9.1 1.1 3.4.1 7.1.3 9.1-1.1zm-30.2 7.4c-2.2.1-4.1.5-5.7 1.1-2.5 6 6.3 9.8 9.1 4.6-1.9-1.1-3.2-2.8-3.4-5.7zm-123.8 8.6c-3.4-5.1-16.3.9-12 6.8 4.7 3 15.5.1 13.1-5.7v-.6c-.5.1-.6-.4-1.1-.5zm134.6 0c-.7-2-4.5-.8-6.3-1.7-.6 4.7-8.9 1.8-12 4-1.1 0-.7-1.6-2.3-1.1-3.3-.5-8.9-.8-11.4.6.9 1 3.3.5 5.1.6 1.5 1.7 5.5 1 8.6 1.1h2.9c2 .8 4.2 1.5 7.4 1.1 1.1 1.1 1.7 2.9 3.4 3.4v.6c.8 1.3 4 .2 5.7.6 3-2.1 3.2-8.5-1.1-9.2zm-157.4 26.2c1.4 1.7 7.8 1.8 8.6-.6 3.4-.7 7.2-3.6 5.7-7.4-5.6-3.2-18.8 1.2-14.3 8zm14.8 12c4.8 1.5 10.8-.6 10.3-6.3-.6-.1-.9-.6-1.1-1.1 0-2.1-2.2-1.9-4-2.3-2.7 2.6-6.5 4.2-6.3 9.7h1.1zm113.5 104.4c-5.9 1-10.4 6.1-14.8 9.7-22.4 18.4-43.8 38.5-65.6 56.5v2.2c-4.3 4.2-9.8 7.3-12.5 13.1 4.5-2.1 6.5-6.9 10.8-9.1v1.7c-4.1 3.9-8.4 7.6-12 12-5 2.8-9 6.6-12.5 10.8.5 2.8 3.3 9.6 0 10.8v-2.3c-1.4-4.9-2.4-10.2-4.6-14.3-.1-5.3 1.3-9 1.1-14.3.9-.1.4-1.5 1.7-1.1.3 3.2-1.5 10.1 0 14.3 4.5-1.8 6-6.5 10.3-8.6 2.1-.5 4.4-.9 4.6-3.4.6-1.9 3-2 3.4-4-4 2.6-13.2 4.7-17.7 1.7 1.4-2.6 9.9 2.6 12.5-1.1.7-1 3.4 0 3.4-1.7 1.3-1.3 3.8-1.5 4.6-3.4-2.6-.7-3.7 1.6-6.8 1.7-9.5.3-12.8-10-20.5-10.8-6.5-.7-14.5 5.1-17.1 9.1-3.8 5.7-2.3 13.6-4.6 21.7-.8 3.1-4.1 4.8-3.4 8.6-.5 3.1 2 3.3 1.1 6.8 3.6-.7 1.9-6.9 2.3-10.8 1.2.1 1.8-.5 1.7-1.7 1.2-.2 1.1-1.5 1.7-2.3-.4-1.5 1.2-1.1 1.7-1.7 2.7 4.5 1.8 12.6 8 13.7 1.5 2.5 3.7 4.2 6.3 5.7.1 2.2 3.1 1.5 3.4 3.4-5 1.9-6.4-4.5-10.3-5.7-2.6.9-2.8 4-5.7 4.6-.1-.7.1-1.6-.6-1.7.5-2 2.4-2.5 3.4-4-2.2-2.5-4.3-5.3-4-10.3h-.6c-.2-.8-.8-1.1-.6-2.3-1.8 1.7-4.5 5.6-2.3 8v1.1c-1.9 2.7-2.9 9.6-6.8 6.8 1.2-6.1-3.5-11.7.6-15.4 1.9-1.1 2-4.1 2.3-6.8 0-.3.1-.7.6-.6-.1-.7-.2-1.4-1.1-1.1-12.8 11-29.9 17.7-35.4 35.9-2.3 10.3 5.8 19.5 12.5 24.5 0 2.1 2.1 2 2.9 3.4 5 7.1 19.9 9 27.4 2.9 4.8-.7 8.6-8.2 14.8-7.4.7-1.8-1.8-.4-1.1-2.3 6.1-4.5 11.9-9.4 18.2-13.7 5.5-4.4 10.8-9 14.8-14.8.8-2.7 3.4-3.5 4-6.3 2.3-2.4 2.5-7.5 1.1-10.8-1.1-1.7-.4-5.3-2.3-6.3v-1.1c-.4-4-3.2-5.5-3.4-9.7l8.6-10.3c1.4-.6 2.3-3.8 5.1-4.6 4.3-3 8.2-6.3 11.4-10.3 7.5-6.6 15.2-13 22.8-19.4 3.1-1.1 3.9-4.5 6.8-5.7 11.2-8.7 20.9-19 31.4-28.5-.6.1-.4-.9-1-1zm-51.9 50.7c5-4.1 12.6-8.7 14.8-13.7-4.7 4.8-10.9 8.1-14.8 13.7zm30.8-27.9c-.2 2.5-3.6 3.2-5.1 5.1-.6.8.2 1.9-.6 3.4-2.3 4.8-12 11.5-18.3 17.7-8.3 8.2-15.4 14.9-21.1 21.1-3.5 3.8-13.8 10.1-14.3 14.3-.3 3.3 4.4 9 5.7 13.1 2.6 8.1 2.8 14.3 1.1 22.2 14-3.7 22.5-12.8 30.2-22.8 14.9-6 30.3.2 41.6 5.7-1.7-5.2-4.9-8.8-5.7-14.8-8.5-7.5-26.3-7.3-37.1-4 7.1-7.3 25.1-8 35.4-2.9-.4-3-1.7-5.1-2.3-8-2.6.1-5.8-1.9-9.1-2.3-3.7-.5-8.4 1.6-10.3-1.7 5-1.9 12.1-3.9 17.7-3.4-2.2-15.4-3.9-28-6.3-42.8-.3.1-.9.1-1.5.1zm-101.5 128.9c-.4 4.1 3.9 1.4 5.1.6-1.3-.4-2.4-.5-5.1-.6z"/><path fill="#C12026" d="M260.1 27.4c-.4-.1-1.2 0-1.1-.6.8-8.7 2.8-14-5.7-20 7.8 3.4 11.1 12.1 6.8 20.6zm-8.6 29.1c3.4-1.4 6.5-3 6.3-8 7.8-2.4 10.6-14.6 3.4-20 8.2 3.7 7.1 18.2-2.3 20 .4 5.5-2.7 7.5-7.4 8zm-6.3 9.7c-.9-2.9 1.3-8.5 1.7-12 .3 0 .7.1.6.6-.8 3.7-.6 8.4-2.3 11.4zm21.2 41c-1.9.3-2.7-.4-4-.6-2.1 2.5-4.2 4.9-9.7 4 1.5-1.7 3.3-.6 5.7-.6 1.3-1 1.4-3.2 2.9-4 2 0 3.9.3 5.1 1.2zm-29.1 12.6c.6-5.5 2.9-9.2 2.9-15.4.3 0 .7.1.6.6-.2 6.8-1.7 10.9-3.5 14.8zm28.5 44.5c3.6.7 4.3 4.4 6.8 6.3-1.3.4-1 2.4-1.7 3.4 1 .5 1.8 1.3 2.3 2.3-.5-.3-1-.5-1.1-1.1-1.2 1 2.1 2.4 2.3 4h-.6c-1.8-2-4-3.6-4.6-6.8 1.6.4 1.1-1.1 2.3-1.1-1-3.4-4.2-4.3-5.7-7zm-13.1 1.1c-.5.1-.5-.2-.6-.6-12.9 7.8-21.6 19.9-33.1 29.1.3 1.9-.4 2.7-.6 4-7.1 3.3-10 13.8-8.6 22.2-1.7-.3-1.5-6.2-1.1-9.1 2.1-16 18.8-26.5 27.9-35.4 4-3.7 10.9-13 16.1-10.2zm74.7-11.4c1.2.1 1.2 1.4 1.1 2.9l-2.3 4.6c-4.9 5.5-6.8 14.2-4.6 24v1.7c-1.4 2.5-1.8 6.2-2.3 9.7-.8 2.3-1.3 4.8-1.7 7.4-3.8 22.4-13.5 39-18.2 60.5-1.6 4.7 0 10.5.6 14.8.1 1.9 1.4 2.7 1.1 5.1-3.4-5.5-4.7-13.5-3.4-20.5 1.6-8.5 4.8-17.8 7.4-24 4.6-10.9 6.9-21.9 9.7-34.2 2.2-9.8 6.9-22.6 4-33.1 1.7-7.3 6.4-11.5 8.6-18.3v-.6z"/><path fill="#2B4877" d="M365 117.5c3.5-5.2 9.1-8.4 13.7-12.5-3.9 4.8-9.5 7.9-13.7 12.5z"/><path fill="#C12026" d="M472.8 54.8c1.8 4.6-.4 10.2-4 11.4 3.2-2.6 3.8-7.4 4-11.4zm-24.5 19.3c-6.9 3.5-14.9 6-23.4 8 7.6-3.6 16.7-6 23.4-8z"/><path fill="#F58D1F" d="M414.1 100.9c-3.4-3.1-4.4-4.9-4.6-9.1 2 3.5 4.4 6 6.8 10.3l-2.2-1.2z"/><path fill="#C12026" d="M399.8 95.8c1.6-3.7 5.3-5.4 8.6-7.4-.3 1.8 1.7 1.3 1.1 3.4-3.8-4.7-6 3.3-9.7 4zm-1.1.6c-3.6 5.1-9.4 8.1-14.3 12 3.8-5 9.4-8.1 14.3-12zm-16.6 13.1c-.1.4 0 1.1-.6 1.1-.4.9-1.8.8-1.7 2.3-4.6 3.1-8 7.6-13.1 10.3 5-4.7 10.3-9.2 15.4-13.7zm-26.2 22.8c3.4-3.1 6.8-6.1 10.3-9.1-3.1 3.4-5.6 7.4-10.3 9.1z"/><path fill="#2B4877" d="M288.6 361c1.5.6 2.5 4.7 4.6 2.9-8.8-9.4-5.9-28.6-7.4-43.3 1.4-2.4 4.7-2.9 5.7-5.7-2.9 0-2.2 3.5-5.1 3.4.5-2.9.2-3.2 0-6.3 1 0 1.8.1 2.3.6-1.1-2.2-3.2-7.9-.6-6.8-2.3-6.6 3.7-14.3 0-17.7-5.6 3.7-9.1 9.5-14.8 13.1-2.6-10.6 2.5-18.4 4-26.8 4.7-6.9 5.7-17.5 11.4-23.4 1.9-7.4 7.5-11.2 12.5-15.4 1.5.4 2.9.9 4 1.7-10.8 16.2-15.2 46.3 1.1 60.5 12-1.1 18-11.1 22.8-21.1 5.4 8.7 5.2 22.6 4.6 33.1-.3 4.9-1.5 7.1-1.7 10.8-.2.5-.5 1-1.1 1.1-1.3-5.7-.6-8.7-4.6-12-.4.6-1 6.3 1.7 5.7-1 6.9 2.3 9.9 1.7 17.7-.9 0-2.2-.3-2.3.6.9 1 2.5-.6 3.4 1.1-2 2.7 1.3 4-1.7 5.7 3.9 3.4.8 9.2.6 13.7-15-5.1-18.1-24.4-18.8-39.4-4-.2-2.8 4.8-3.4 8-1-.1-1.2.7-2.3.6-3.3 11.3-2.4 33.2-11.4 43.3 1 2.6 2.5-.4 4-.6-3.1 5.4-8-1.7-9.2-5.1z"/><path fill="#C12026" d="M267.5 212.2c1.1-.8.1-3.7 1.1-4.6l3.4-.6c4.8-7 11-12.6 18.8-16.5 8.5-10.9 19.8-19 29.7-28.5v1.1c-9.7 9.7-20.8 18-29.7 28.5-7.5 4.9-12.7 12-20 17.1-.8.3-1.4.9-1.7 1.7-.5.4-.9 1-1.1 1.7-.1.1-.3.1-.5.1zm-56.5 64.4c1.9 2.7 1.6 7.5 3.4 10.3v.6c-.9.2-1-.5-1.7-.6-.2 1.2.4 1.5.6 2.3-2.1-2.9-1-9-2.3-12.6zm2.3 13.1c2.4 6.7 1.5 16.7 4.6 22.8-4-5.4-3.6-16-4.6-22.8zm8 38.2c2 3.2 2.2 8 4.6 12-2.3-3.2-4.4-6.7-4.6-12zm87.8 113.5c3.5 2.9 2.6 10.3 4.6 14.8.1 2.8-1.6 5.8.6 7.4-1.6 8.6-8.9 16.5-6.8 28.5-.7-.2-.9-1-1.7-1.1 1 4.7 4.9 6.5 9.1 8 .3-2.8-3.8-1.2-4.6-2.9v-1.1c1 .5 1.4 1.6 3.4 1.1 2.3 1.7 5.6 2.4 7.4 4.6 1.3-.2 2.2.1 2.9.6-.1.8-1.7.2-1.7 1.1 1 1.1 3 1.2 5.1 1.1.5-1.2-2.9-1.1-1.1-1.7 1-.2 1.1.4 1.1 1.1 14.1 1.6 24.4 7.7 31.9 17.7 4.5 6 9.9 13.2 18.8 14.3 12 1.4 20.8-6.2 34.8-4.6h1.7c7.6 1.1 18.3 2.7 24.5 6.8-1.4.2-1.2-1-2.9-.6 2.5 2 5.4 3.8 9.7 4-3.1 3.5-8.4-2.1-14.3-4-4.2-1.3-9.3-2.5-12.5-2.9-3.1-.4-4.7 2.1-7.4-1.1 3.5 0 6 1.1 8.6-.6-7.4-1.5-10.7 2.6-16-1.1-2.8.6-1.5 2.6-5.1 2.8.1-.8.9-1 1.1-1.7-2 .7-5 .3-5.7 2.3 1 .3 2.4-1.7 2.8 0-1.8.7-4 .9-5.7 1.7-.2-1.5 2.2-.4 1.7-2.3-3.2 3.9-10.4 4-18.3 3.4-12.5-3.8-15.8-16.9-25.7-23.4-12.5-7-30.3-9.4-41.1-16.5-3.3-2.2-5.2-7.6-5.1-11.4v-.6c1.5-4.4 3.7-8.1 6.3-11.4 1.9-7.8 3.5-22.8-.4-32.3z"/><path fill="#2B4877" d="M52.5 376.4c3.4 12.3 13.3 18.3 20 27.4 7.1 3.4 12.2 8.7 21.1 7.4 4.9-1.6 7.5-5.5 13.7-5.7.6-5.9 8.6-4.3 10.3-9.1 1.1-2.1-2.9-1.9-1.1-2.9 1.8-.4.7 2 2.9 1.1 3.3-3.5 8.1-5.6 10.3-10.3 2.6.3 2.4-2.1 5.1-1.7 3.3-8.5 12.9-10.7 17.1-18.2 15.9.2 21.4-18.1 37.1-12.5-1.5-4.8-5.5-3-10.3-1.7 4.2-8 14.5-14.9 25.7-9.7 11.2 1.6 27 6.4 26.8 19.4 4 .1 4.6 3.6 5.1 5.7 1.3-3.4 2.2 4.2 3.4 5.7.9 1.1 1.7.1 2.3 1.1.3.5-1 1-.6 1.7 1.3 2 3.4 2.4 2.9 4.6l5.1 2.3c0 1.1-1.6.7-1.1 2.3 4.4 2.7 6 4.8 8.6 9.1-1.3-.2-2.1.1-2.3 1.1 1.8.3 2-1 4-.6 12.7 10.2 25.1 20.5 36.5 31.9 0 .7-.7.8-.6 1.7 2.6-.5 4.4 2.5 5.7 4.6 4.5 7.2 8 15.5 10.8 24-2.6.6 1.1 3.8-1.7 4-.5 1.8 1.5 1.2 1.7 2.3-2.4 7.7-3.7 14.8-9.7 22.2-1.8-1.4-4.7 1.3-7.4 1.7h6.8c.2-1-.8-1.5 0-1.7 1.2.3 1.8 1.2 2.9 1.7v.6h-.6c-3.1-.8-18.2 1.9-16-5.7-5.6-.7-14.7-2.5-20 0-2.3-.2-3.2 1-5.7.6 0-2.6 3.9-3.4 2.3-5.7-1.8 3.4-4.9 4.3-8 5.1-.2 2.3 1.2.3 2.3.6-.7 2.4-4.5 1.6-5.1 4-11.9 1.2-17.8 5.3-29.7 6.8-10.1 2.8-24-.2-33.6.6-6.5-.8-13.5-1-19.4-2.3 6.7.5 5.6-1.1 0-1.1.2-1-.4-1.1-1.1-1.1-.1.8-1.7.2-1.7 1.1.6 0 .4.7.6 1.1-8.5-.6-16.3-4.1-24-5.1-1.7-.2-4 .4-5.7 0-3.5-.8-11-4.9-13.7-6.3-2.5-1.3-7.8-3-10.8-4-4.9-1.6-18.5-.7-22.8-1.1-17.4-1.6-34.6 3.5-54.2 0-1.4-2.8-1.7-1-4-1.7-1.5-2.1-2.4-4.9-3.4-7.4-10.7-6.2-15.3-18.4-21.3-29.1-1.9-4.1-1.4-8.8 0-13.7-.5-2.6 1-3.2 1.1-5.1 2.2-1.4 2.3-4.9 3.4-7.4 4.3-3.7 8.6-7.4 10.8-13.1 2.3.2 2.3-1.9 5.1-1.1v.6c-1.2-.2-1.5.4-2.3.6 3.7 1.1 5.3 4.2 7.4 6.8 4.8.4 10.7-1.1 10.8-3.4.5-1 1.4-1.7 1.7-2.9l-1.7-3.4c.5-.2 1-.5 1.1-1.1 4.6.5 7.1-3.1 5.7-6.8-.7-1.9-1.1-4.2-2.3-5.7-.9-4.2 2.6-2.4 3.7-3.1zm92.4 107.2c-5.1.3-8-.9-12-2.9 1.6 3.1 7.7 4.6 12 2.9zm-137.5-51.9c2.5-.5 1.4-4.7 3.4-5.7-1.3.2-2.1-.1-2.3-1.1 2.7.2 1.1-6.9 1.1-6.3-.1.7-.2 1.4-1.1 1.1.1 6.4-1.5 7.5-1.1 12zm181.4-78.1c-2.9-4.8-15.9-2.1-13.1 4 0 .6-.5.7-.6 1.1-3.4 2.7-8.9 3.3-7.4 10.8h2.3c.6 4.2 6.3 3.2 9.1 5.1-.4 2.5-1.1 6.8 1.7 5.7-2.8-1.5 0-5.2.6-6.8h.6c-.6 2.1-2.2 3.1-1.7 6.3 1.8-.7.4 1.8 2.3 1.1 0 .7-1 .5-1.1 1.1 7.1 3.4 15.2 5.7 21.1-1.1.3.8.9 1.4 1.7 1.7 3.8-3.5 9.9-.2 13.7-5.1-.9-2 .7-3.6-2.3-4v-.6c-.8-4-2.8-6.7-6.3-8 0-.6.5-.7.6-1.1 3.2-1.5-1.5-4.2.6-6.8-1.8.5-1.2-1.5-2.3-1.7-.4-.1-.7-.5-.6-1.1.8-3.3-2.4-2.6-2.9-4.6.4-.9 2.8.1 2.3-1.7-2.9 1.2-2.3-.6-4.6-1.1-1.2 1.9-1.2.4-2.9 0-1 3.5 4.7.2 4.6 2.9-3.9-1.3-8.1 1.2-9.7 4-.3-2.2 1.7-2.1 2.3-3.4-2.9.4-3.7 2.8-6.8 2.9 2.4.1 2.6 3.6 4.6 1.1-.5.8-.9 1.8-2.3 1.7-2.1 0-2-2-3.5-2.4zm-15.4 2.3c.8 2.8-4.2 1.9-4.6 5.1 2.3-.5 7.5-3 4.6-5.1zm-7.4 7.4c-1.1 1.9.1 10.5 2.9 6.8-3.9.7.2-6.7-2.9-6.8zm52.4 8.6c-1-2-2.2-1.2-.6-3.4h-2.9c-.6-1.9.1-5.1-2.9-4.6 1.4 3.5 3.2 6.4 6.4 8zm-50.7 14.2c-.6-1.5-.9-3.2-2.9-3.4-12.2-2.4-11.1 8.7-13.1 14.8-.8-1.1-4.2-3.1-5.1-.6h-3.4c.5 4.1-3.2 4-3.4 7.4-1 2.8-3.8 3.8-4 7.4 1.1 0 .7 1.6 2.3 1.1 0 .6.5.7.6 1.1.9 1.1 1.6 2 0 2.9 1.2 1.2 1.6-.3 3.4 0-.1 2 .2 3.6 1.1 4.6.3-1 .3-2.4 1.1-2.9.7 2.7-4.1 5.1-.6 6.8.1.8.9 1 1.1 1.7v.6c1.2.1 1.2 1.4 1.1 2.9 5 2.3 8.2.9 13.1 2.3 2.6-.8 3.4-3.5 5.1-5.1 1.1.2 1.4 1.2 2.9 1.1.1-.9-.2-2.1.6-2.3 1.6.8 2.1 2.8 4 3.4 5 5.1 12.4-2 16-5.7-1.3.2-2.1-.1-2.3-1.1.7-.1 1.6.1 1.7-.6h-2.3c-.9-4.2-3.1-7.2-5.1-10.3.8 0 .5-1 1.1-1.1 1.7.4.9 3.3 2.9 3.4 1.4-1.5-1.2-2.1-1.1-4 4.7-1.5 3.8-7.9 5.1-11.4-1.8-.6-.1-4.8-3.4-5.1-.7-.5-1.5-.7-2.9-.6-3.7-3-8.6.6-12.5-1.1v-.6c1.2-1.1 5.2 1.3 6.3-1.1-.7-.1-.6-.9-.6-1.7-2.2-.9-.2 2.5-1.7 2.3-.7-1.4-3.6-.6-4-2.3.1-1.3.1-2.7-1.1-2.8zm-13.1-1.1c-4.8-1.3-2.6 7-5.1 10.3 1.8-.4.7 2 2.9 1.1.5-5.3-1.5-9.6 2.2-11.4zm-12.6 14.2c.3-.9-3.1-.9-2.9 0 1.2 2.9-2.8 5.5-4.6 7.4 1.3-.2.6 1.6 1.7 1.7 1.5-3.4 3.9-6 5.8-9.1zm91.3-4.5c.4-.1 1.1 0 1.1-.6-2.8-2.4-8.1-.6-11.4 0 0-.6.5-.7.6-1.1-1.3-1.6-3.2 1-4.6-.6v2.3c-1.1-.1-1.3.6-2.3.6 0-1-.4-1.5-1.1-1.7 0 .3-.1.7-.6.6 0 .6-.5.7-.6 1.1.5.6 2.1.2 1.7 1.7 2.1-.9 3-3.1 6.3-2.9-1.5.6-2.6 1.6-4.6 1.7-.5 3.6 1.4 9.8-1.7 10.8-2.8.1-4.3-1-7.4-.6-.6.8-.9 1.7-1.7 2.3 1.1-4.9 5.2-2.3 9.7-2.3 2.1-2.8-1.7-5.2.6-6.8-.5-.8-.4-2.2-2.3-1.7.9 2.6.1 3.5.6 6.3-1.2.8-1.7-.3-3.4.6-.1-1 .6-2.9-1.1-2.3-1.7 3-9 6-5.7 10.3 1-.7 0-3.4 1.7-3.4-.3 3-3.7 8.1-1.1 10.3v.6c0 .6-.5.7-.6 1.1 2.6.6 3.4 3.1 5.7 4 .3-.7.6-1.3 1.1-1.7-.1 2.1-5.2 6.6-.6 8v.6c-.9-.1-2.1.2-2.3-.6-.4-1.7.7-4.9-.6-5.7-2.3 3.8.4 9.9 5.1 8 3.8.5 4.8 4 7.4 5.7v.6c3.2 2 5.6-1.1 6.3-3.4 5.7.3 14.2 2.2 19.4-1.7.8-2.7-1.3-6.4-3.4-8-1-1.8-3.2-4.7.6-5.1l1.1 3.4c3-3.8 7-11.9 2.3-17.1v-1.1c-.1-3.3-3.6-3.3-4.6-5.7 1-.5 2.8-.2 3.4-1.1-1.1 0-.7-1.6-2.3-1.1-.1.7.1 1.6-.6 1.7-.6-1.4-2.9-1.3-4-2.3.4 1.9-2.3.7-1.7 2.9 1.3 1.7 2.7-3 4.6-.6v.6c-2.4-1.4-4.1 2-6.3 1.1.1-.6.6-.9 1.1-1.1-1-1.5-.8-4.1-2.9-4.6.1-1.1-.7-1.3-.9-2zm-193.4 21.1c-1.6-2.4-3.5-3.8-4.6-4-.7-.1-7.4.1-9.1 5.1-1.5 4.2 1.5 10.2.6 13.1-.2.6-3.2 1.8-2.3 2.3-3 .3-4.4 2.1-5.7 4h-2.3c-.5 6.4 5.1 6.7 8 9.7 0-1 .4-1.5 1.1-1.7-1.7 1.6-2.8 6.1.6 6.8v1.1c-.4.1-1.1 0-1.1.6 1.5.1-.8 1 0 2.3 8.1 3.8 17-3.2 21.7-3.4 2.3 5.6 11.3 6.6 13.1 0l3.4-2.3c3.2.2 4-2.1 4.6-4.6-.7 0-.8-.7-1.7-.6v-1.1c2.5-3.8-2.8-4.8-2.9-8 .3-2.5 1.8-3.9 1.7-6.8-1.9-5.9-6.1-9.5-11.4-12-2.2 1.6-3.6 4-5.7 5.7.5-2.8 3.3-3.1 4-5.7-2.4.1-5.4 4.5-6.8 7.4h1.7c-.1 1.4-1.9.2-2.3 0-1.7-2.5-2.5-5.8-4.6-7.9zm-10.2-3.4c-4.4 1-7.5 10.2-5.1 12.5.8-5.1 1.6-10.1 5.1-12.5zm38.7 30.2c1-4.8-3.2-4.5-2.3-9.1-4.6 2.3 2.1 6.1 2.3 9.1zm-6.8-24.5c-3.3.1-6.1-5.9-9.1-2.3 5-1.7 6.1 5.6 9.1 2.3zm55.3 1.7c-6.3-3.4-14.3 1.2-14.3 8-1.9 0-3.5.3-4.6 1.1h-1.7c.1-2.2-4.9-1.1-5.7-.6v-1.1c4.4-.4 8.4.6 11.4 0-.5-3.7 2-4.4 3.4-6.3-4.1-.1-4 4-6.3 5.7-1.8-.5-4.2 0-6.8 0 .1-1.4.1-2.8-1.1-2.9 1 2.5-4.4 3.5-1.1 4.6-4 2.3-6.8 8.8-6.3 13.7v.6c-3.3 1.9 2.1 2.6 2.3 4.6-1.7 1-4.7 5.4-2.3 6.8.4-3 1.4-5.4 4-6.3-1.5 1.3-5.3 5.9-2.3 8v.6h-.6c2.7 4.5 7.6 6.8 12 9.7 2.1-1.1 3.7-2.5 5.7-2.3-1.2-.5-.8-4.1 1.1-3.4.7.7.6 2 .6 3.4-.5 6.5 12.4 5.7 16 2.3 1 .7 1.5 1.9 3.4 1.7-3.6-2.6 2.2-7.4-1.7-10.8.2-1.4-1-1.2-.6-2.9 5.6 4.2 19.8-1.9 14.8-9.7 0-2.2-1-3.6-1.7-5.1.4-2.7-3.4-6.1-8-5.7-2.8-.5-2.7 1.9-5.7 1.1v-2.3c1.5-1.2 5.5.2 6.8-1.1-1.4-1.8-2.8-.7-4.6 0-1.4-1.8-.7-2 0-4-1.6-1-1.9-3.5-3.4-4.6-.7-1-2.2-1.4-2.7-2.8zm-29.6 9.7c-3.9 1.5-5.6 6.6-5.1 11.4 1.3-4.2 2.9-8.1 5.1-11.4zm177.3 2.8c.4-1.5 3.3-.5 3.4-2.3-2.5.3.4-4.9-2.3-4.6.7 3.8-1.6 4.7-1.1 6.9zm9.7 4h.6c.4-2.9-.6-4.3-1.7-5.7-7.2 1.2-13.4 3.3-17.7 7.4-.2 2 .2 3.2.6 4.6-2.7-2.1-.2-6 .6-8-1.5 1.3-2.6 3.1-4 4.6 3.8.3.5 6-1.7 5.7-.3-.7-.6-1.3-1.1-1.7-1.2 2.7-3.3.9-4.6 3.4 3.4-.6 6.3-1.7 10.8-1.1-2 1.8-9.8-.7-10.8 3.4-.2 1.1-1.6 1-1.1 2.9-1.5 2.7-.2 8.2-2.3 10.3 1.1-.1 1.3.6 2.3.6v-.6c.3 0 .7.1.6.6-1.8 3.1 5.5 2.8 5.7 0 .3 0 .7.1.6.6-1.8 1.9-4 3.2-4 6.8 1 0 1.8.1 2.3.6v.6c-1.4-.4-2.9-1.2-2.9 1.1 3.4.6 6 2 9.7 2.3-1-.1-1.3.6-1.1 1.7 1.1.1 1.3-.6 2.3-.6 1.7-1-1.6-1.8 0-2.3 3.1 2.4 8.4-2.6 13.1-1.7.9-.8.7-2.7 2.9-2.3.2-1.3-.1-2.2-.6-2.9.1-.4 0-1.1.6-1.1 4.2 3.9 10.7-1.1 16-2.3-1.1-2.8.3-3.5 1.7-5.1-.2 1.3.1 2.1 1.1 2.3 0-.3.1-.7.6-.6 1.6.2-1.4-2.1.6-2.3 1.2.2.1 2.5 1.7 2.3 2.8-2.2 5.1-3.4 6.8-2.3 1.1-1.1-.3-1 0-2.9-3.9 1.6-7.9 1.7-10.8 2.9-.2-1.4 1-1.2.6-2.9-.8-.1-1-.9-1.7-1.1-1.4-5.6-2.9-11.2-8-13.1.5-2.1-2.6-.5-2.3-2.3-1.6.1-2.4 2.1-4 .6-.5-1-1.1-1.5-1.4-2.4zm-31.3 13.1c-3 1.3.3 6-2.9 6.3 1.2 1.3.6 4.3 2.3 5.1-1-4.6 1.6-8.7.6-11.4zm-70.2-1.1c-.9 0-.4-1.5-1.7-1.1.9 2.8-1.7 3.9-.6 5.1 2.8-4.4 6.7-7.8 10.3-11.4-3-.1-6.7 3.9-8 7.4zm-1.7 4.5c-.8 2.4-1.6 4.9-3.4 6.3 2 .3 2.8-.7 4-1.1-.4-1.6.7-4.5-.6-5.2zm8.6-9.1c-4.7 2.7-8.8 6-7.4 14.8-3 .7-5.4 1.8-5.7 5.1-.1 2.4-.2 4.8 1.1 5.7v.6c-2.1 2.1-6.6 6.6-1.1 8.6 3.7 2.2 6.7 5.1 11.4 6.3v.6c.7.1.6.9.6 1.7 4.1.6 5-1.5 9.7-1.7v-2.3c1.1-1.2 2.4 0 2.9 1.1 1.8 6.5 24.4 3.4 18.3-5.7-.9-3.7-4.9-4.2-5.7-8 2.6 1.6 3.3-1.4 5.7 0-.5-2.8 1.8-2.8 2.9-4 .7-3.5-.4-5.9 1.1-9.1l-3.4-2.9c-.3 0-.7-.1-.6-.6h.6c.1-4.7-5.5-5.9-9.7-4.6-3.7.1-3.2 4.4-7.4 4 0-.8-.3-1.2-.6-1.7 1.2-5.3-8.3-13.6-12.7-7.9zm-16 24c2.2.1.6 3.9 2.9 4-.5-2.9-.7-6.1-.6-9.7-1 .2-1.5-.8-1.7 0 .8 1.7 1.3 3.5-.6 5.7zm42.8-22.3c-.1.9.2 2.1-.6 2.3l-2.3-2.3c.9 2.2-2.5.2-2.3 1.7 2.3.3 3.7 1.7 6.3 1.7 0-1.5.3-3.3-1.1-3.4zm90.6 17.7c-1.9 0-3.1.7-3.4 2.3h4c.1-1.1-.6-1.3-.6-2.3zm-213.3 8.6c-3.2 0-7.5.2-8 1.7 4.2-1.7 12.4.6 16.5-1.1-2.6.1-5.7-.7-8.5-.6z"/><path fill="#C12026" d="M143.7 116.3h-1.7c-1.8.5-5.9-1.3-5.1 1.7-1.5-.1-1.1-1.9-1.1-3.4 2.2.9 8-1.5 9.1 1.7h-1.2zm-25.1 34.3c8.1 4.9 22.8 5.9 27.4-2.3-3.8 9.8-20.9 9-27.4 2.3zm-4-9.7c-8.9.7-15.1 8.9-22.2 13.1v-1.7c2.5.4 3.4-4 6.8-5.1-.1 0 1 1.1 1.7.6 4.5-3.1 10.2-11.8 13.7-6.9zm-6.2-4c.4.1 1.1 0 1.1.6-3.2 2.7-7.8 7-11.4 7.4 2.6-3.6 7.6-4.6 10.3-8z"/><path fill="#2B4877" d="M91.8 148.9c6-8.6 19.8-9.5 20.5-23.4h-.6v-.6c2.8 3.3-2 11.2-3.4 12-2.7 3.4-7.7 4.5-10.3 8-3 1.5-3.3 2.5-6.2 4z"/><path fill="#C12026" d="M111.8 125.5c-8.3 5-21.5 2.3-26.8 10.8.5-5.1 8.9-7 13.7-9.7 2.8 3.8 9-.9 13.1-2.3v1.2z"/><path fill="#2B4877" d="M92.4 106.1c4.7-5 14.6-4.8 17.7-11.4h2.3c-4.6.5-4 6.3-9.1 6.3v1.1c-.1.7-1 .5-1.7.6-3.2 0-6.6 1.5-9.2 3.4zm26.2-12.6c4.5-3.5 7.8-8.2 13.7-10.3-5.1 3-8.2 7.8-13.7 10.3zm13.7-68.4c-1.5 4-2.2 7.8-3.4 13.1 0-5.7.5-9.3 3.4-13.1z"/><path fill="#171526" d="M424.9 29.7c10.8 3.6 14.1 14.8 17.7 25.7-1.5.6-2.2 2-4 2.3-.4-5.6-4.8-7.4-7.4-10.8 0-1-.4-1.5-1.1-1.7-1.7-5.1-8.7-9.1-5.2-15.5z"/><path fill="#2B4877" d="M146 62.7c-5.6 3.9-8.3 12.3-12.5 16.5v-.6c.7-1.9 1.1-4.2 2.3-5.7 3.4-3.2 5.9-7.6 10.2-10.2zm6.8-3.4c4.1-.5 9.2-3 13.7-1.1-6.2-.6-9.5 1.5-14.3 2.3.1-.6.5-.7.6-1.2z"/><path fill="#F58D1F" d="M407.2 62.2c-4.7-4.3-10.2-8.3-11.4-14.8 3.1 5.6 7.6 9.8 11.4 14.8z"/><path fill="#fff" d="M146 54.8c2.5-1.2 4.3-5.9 7.4-4.6 1-.2-.1-.7 0-1.7 2-.5 2.2.8 4 .6 0 .6-.5.7-.6 1.1-2.1 1.4-5.5 1.4-6.8 3.4-2.4.3-3.8 4.6-5.7 3.4.6-.7.5-2.1 1.7-2.2z"/><path fill="#F2DBC4" d="M156.8 50.2c.1-.5.6-.6.6-1.1-1.8.3-2-1-4-.6-.1 1 1 1.5 0 1.7-3.1-1.4-5 3.4-7.4 4.6 3.7-7.5 14.9-9.9 24-10.3 5.4-.1 8.6 2.1 11.4 4.6-1 2.1-1.6-1-2.9-.6-1.3.2-.8 3.3 1.1 2.3-.1.4-.5.7-1.1.6-4.6-2.6-15.8-3.5-21.7-1.2zm2.9-2.3c-1 0-3.3-1.5-4 0 4.9.6 5.8.5 8.6-1.1-.9-.9-6.9-1.4-4.6 1.1z"/><path fill="#fff" d="M181.4 49c3.7 2 5.8 5.6 8 9.1-.8-.3-1.4-.8-2.3-1.1-2.5-2.3-4.9-4.6-8.6-5.7.7.1 1-.1 1.1-.6-1.9 1.1-2.4-2-1.1-2.3 1.3-.4 1.8 2.7 2.9.6z"/><path fill="#171526" d="M156.8 50.2c5.8-2.3 17-1.4 21.7 1.1 3.6 1.1 6.1 3.4 8.6 5.7-3.9 5.6-8.2-5.6-16-3.4-3.7.3-6.4-.5-9.1-1.1-7-1.1-13.1 3.6-17.7 6.8 1.3-2.5 4.2-3.4 5.7-5.7 1.4-2.1 4.8-2 6.8-3.4z"/><path fill="#2B4877" d="M144.3 57c1.9 1.2 3.3-3.2 5.7-3.4-1.5 2.3-4.4 3.2-5.7 5.7-.6.6-1.2 1.1-1.7 1.7-1.8 1.2-.7-.4-.6-1.7.9-.6 1.4-1.6 2.3-2.3z"/><path fill="#fff" d="M155.7 54.8c.9-1.9 5.2-.5 6.3-2.3 2.8.6 5.4 1.4 9.1 1.1 0 .7.7.8.6 1.7-6.5-1.4-14.8-.6-19.4 1.7-.2-1.7 4.4-1.5 3.4-2.2z"/><path fill="#F2DBC4" d="M171.1 53.6c7.8-2.2 12.1 9.1 16 3.4.8.3 1.4.8 2.3 1.1l1.7 3.4c-8-.5-15.6 2.9-20-3.4h-4.6c-4.5-1.8-9.6.7-13.7 1.1-1.6 1.8-.9-3.8-3.4-1.1 1.9-1.4 2.8-3.7 6.3-3.4 1 .7-3.6.6-3.4 2.3 4.6-2.3 12.9-3.1 19.4-1.7.1-.9-.6-1-.6-1.7z"/><path fill="#fff" d="M135.7 73c2.3-7.2 7.7-11.3 13.7-14.8 2.5-2.7 1.8 2.9 3.4 1.1-.1.5-.6.6-.6 1.1-2 .3-2.6 1.7-4.6.6-1.1.1-.4 1.9-1.7 1.7-4.2 2.6-6.7 7-10.2 10.3z"/><path fill="#F58D1F" d="M417.5 71.3c-2.8-.6-9.3-5.5-9.7-8.6 3 3.1 7 5.2 9.7 8.6z"/><path fill="#698AA7" d="M222.4 89h6.8c-3.2.3-10 2.8-11.4 1.1-.3-2.2 3.2-.7 4.6-1.1z"/><path fill="#C12026" d="M217.9 90.1h-1.7c2.9-4.1 11.7-2.4 15.4-5.7 5.8.6 8.7-1.6 14.3-1.1-.7-5.2 5.5-12 12-8-5.3-1.6-9.9 1.2-10.3 6.3v2.3c-8.8 1.3-18.3 1.8-25.1 5.1-1.5.4-5-1.1-4.6 1.1z"/><path fill="#F2DBC4" d="M374.1 84.4c3.3 2.9-.6.4-1.7-1.1-2.4-3.4-8.8-7.3-8.6-10.3 3.9 2.4 6.1 6.4 9.7 9.1.1.7-.1 1-.6 1.1.4.6.6 1.1 1.2 1.2zm-126.6-2.8c.3-5.1 4.9-7.9 10.3-6.3 2.2 1.2 4.2 2.7 4.6 5.7l-3.4-3.4c.8 2.6 2.4 4.4 2.3 8h-1.7c.4.6 2.2 2.6.6 3.4 0-1.9-.7-3.1-2.3-3.4-1.7-1.3-2.9-1.3-4.6 0-.7-1.7-2.1-2.8-2.9-4.6-.4-2-2.2-.8-2.3.6h-.6z"/><path fill="#698AA7" d="M265.8 83.3c2.1-1.3 8.2-5.7 9.1-1.1-2 1.3-5.7 1.1-9.1 1.1z"/><path fill="#C12026" d="M257.8 85.6c1.6.3 2.2 1.6 2.3 3.4v.6c-3.4.1-8.1 4.1-10.3 1.7 2.8-2.4 7 .2 9.1-2.9.5-1.8-1.5-1.1-1.1-2.8z"/><path fill="#F2DBC4" d="M162 81.6c1.1-.2 1.1.8 1.7 1.1.6-.5.2-2.1 1.7-1.7-.2 2.3 1.2.3 2.3.6 1.4 4 6.9 3.8 8.6 7.4 1 4.5 4.4 6.6 7.4 9.1.1 1 1 1.3 2.3 1.1v1.7c-.3 1.6 3.1-.4 2.9 1.1.1 3.1 1.4 5.3.6 8.6.3.5.5 1 1.1 1.1.1.7.2 1.3 1.1 1.1-.3 1.2.8 1.1 1.7 1.1-.7.7-.6 2-.6 3.4-.3 1.2.8 1.1 1.7 1.1.6 0 .7.5 1.1.6-.1.5.2.5.6.6.1 2.6 1.1 4.2 2.9 5.1-.8 3.1 2.7-.5 2.9-1.7.1.4.5.7 1.1.6-.1.7.1 1 .6 1.1.2.8.8 1.1.6 2.3 2.6 1 6.1.5 8.6 2.9 1.3-.6 1.8-2 4-1.7 0 .8-.3 1.3-.6 1.7-1.2-.1-1.8.5-1.7 1.7-1.9.3-2.7-.4-4-.6.4 2.8 3.1.8 4.6 1.7-.1 3.9 1.7 5.9 2.9 8.6.8-.1.2-1.7 1.1-1.7 3.5 7.4 10.2 11.4 17.1 15.4l-3.4-.6c-1.1.8-.7 3.1-2.9 2.9.9 1.6 2.6-.8 4.6 0-1.8 1.6-5.3 1.6-6.8 3.4-4.6 2.1-9.1 4.8-12.5 9.1-10.8 13.6-22.8 32.6-33.1 45.6-.4.5-.1 1.3-.6 1.7v.6c-4.2 5.5-7.9 11.5-10.3 18.8-2.2 6.5-5.1 12.4-7.4 18.8-.4-2.8 1.9-3 1.1-6.3-1.1.2 0 2.6-2.3 1.7.2 1.4-.5 6.5.6 5.1h.6c-.4 1.7-.7 3.5-1.7 4.6-2.1-.4-.3-3.2 0-4.6-.2-9.3-4.4-18.2-3.4-27.4 1-9 5.5-16.3 8-23.4 5.4-5.9 11.4-11 13.7-20 4.3-5.2 9.1-9.9 8-20.5l1.1 10.3c.9-3.5-.8-9.4 1.1-14.3-.6-1.4-1 2-2.3 1.7 3.3-2.6 2.6-7.4 4-10.8-.2-.7-.7-1.2-1.7-1.1-2.2.6-2.6 8-5.1 10.3-5 2.6-9.7-.1-14.3-1.1v-.6c-1.6-1 1.5.5 2.9 0-.8-2.5-2.8-.5-4.6-2.3.2-1.1 2.2-.4 1.7-2.3-2.3-.2-2.3 1.9-5.1 1.1.2.7 1 .9 1.1 1.7-9.8-5.4-18.2-12.2-21.1-24.5v-.6c3.6-.8 5.6-3.2 9.7-3.4.1-.8.1-1.6-.6-1.7v-.6c-2.9-3.9-10.5-3-13.7 0-.9-2.2-2.6-3.5-3.4-5.7.4.1 2.2-1 .6-2.3.4-1.5 5.2-.4 3.4-2.3h1.7c0 2.2 3.5 3.7 5.7 4.6 1-1.4-3.1-2.6-3.4-4.6.9.8 2.2 1.2 3.4 1.7-.6-4.1-9.3-9.4-15.4-6.3-.9-2.8-1-5.7-.6-8.6.8-.2 1.1-.8 2.3-.6.2.7.7 1.2 1.7 1.1 1.7-.7-.6-2 0-3.4 1-1.4 3.5 1.3 4-1.1 2.4.9.1-3 1.7-2.9.8.1 1 .9 1.7 1.1-.5-2.6.4-3.8 2.3-4 .4-1.8-2-.7-1.1-2.9 1.1-.1 1.3.6 2.3.6.3-1.2-.7-3.7.6-4l1.7 2.3c-.1.7.1 1 .6 1.1 1.3-.4.2-3.2.6-4.6 3 1 6.1-3 10-3.9zm56.4 60.4c1.3 3.1 4.1 7.6 7.4 6.8-3.7-1-4.3-5.1-7.4-6.8zm-47.3 12c1.6 2.6 7.1.6 9.1 0 .1-1.4.1-2.8-1.1-2.9v-.6c-1.2-4.3 3.4-6.7.6-9.1 0-.8-.3-1.3-.6-1.7-3.3-.6-1.8 3.6-4 4-2.5.6-2.8-1-4.6-1.1-3.1-1.2-.7 3.1-2.3 3.4-1.8.4-1.1-1.6-2.9-1.1.4 1.8-1.6 1.1-1.1 2.9-.4 1.8 1.6 1.1 1.1 2.9-.9.1-2-.1-1.7 1.1h.6v1.1c2 2 3.8 2.7 6.9 1.1zm-5.7-12.6c-.1-2.4-4.4-.6-6.3-1.1-.8-1.3-.6-3.6-2.9-3.4.5 3.3.7 6.9 3.4 8 2 3.1 6.2-.9 6.8-2.9 0-.4-.3-.6-1-.6zm-14.3.6c1.5 3.8 4.9 8.8 8.6 8.6-3.9-1.8-5.3-6.1-8.6-8.6zm.6-24.5c-1.3-3.2-3.7-5.4-7.4-6.3 2.1 2.4 5.1 4 7.4 6.3zm14.3-26.2c-1.5-1.5-3 .3-5.1 0-.6 3.4-2.5 5.4-2.3 9.7-.8-.2-1.1-.8-2.3-.6 0 2.6-1.7 6.7.6 8.6.4-2.4-1.1-6.8 1.1-7.4 0 .3.1.7.6.6-.6 2.8-1.3 7.9 1.1 9.1.2 1.6 1.8 0 1.1-1.1.8.1 1 .9 1.7 1.1-1.1-2.6 1.5-8.9 0-9.7.4 2.5-.6 3.5-1.7 4.6.7-3.3 1.4-6.6 3.4-8.6-.3.3-1.3 2.7 0 2.9 1.4-2.2 2.9-4.3 4-6.8-1.8-.3-1.5 1.5-2.9 1.7.7-1.2 3.1-3.4.7-4.1zm9.7 14.8c-1-1.3-2.5-2-4.6-2.3-3.1 3-4.1 8.1-4.6 13.7v2.2c5.9-1.9 7.4-8.2 10.3-13.1-.6.1-.7-.4-1.1-.5z"/><path fill="#fff" d="M219 139.7c-.9 0-.3 1.6-1.1 1.7-1.1-2.7-3-4.6-2.9-8.6-1.5-.9-4.1 1.1-4.6-1.7 1.3.2 2.1.9 4 .6-.1-1.2.5-1.8 1.7-1.7.5 3.8 1.3 7.2 2.9 9.7zm6.9 9.2c-3.3.8-6.1-3.8-7.4-6.8 3 1.6 3.6 5.7 7.4 6.8zm-58.8 8.5c-.1-.8-.9-1-1.1-1.7 2.8.7 2.8-1.4 5.1-1.1.5 1.8-1.5 1.2-1.7 2.3 1.8 1.8 3.7-.2 4.6 2.3-1.4.5-4.5-1-2.9 0v.6c-1.5-.7-3.1-1.2-4-2.4zm-7.4-6.8c-3.7.2-7-4.8-8.6-8.6 3.3 2.5 4.7 6.8 8.6 8.6z"/><path fill="#F58D1F" d="M373.6 82.1c4.3 3.9 7.9 8.5 14.8 9.7-6.8 2.2-10.6-6.5-14.3-7.4-.6-.1-.9-.6-1.1-1.1.4-.2.7-.5.6-1.2z"/><path fill="#fff" d="M222.4 89c6.8-3.3 16.3-3.9 25.1-5.1v-2.3h.6c.1-1.4 1.9-2.5 2.3-.6-1.2-1.2-1.1.2-1.7 1.1-.5 2.7 2.5 2.1 1.7 5.1-6.6-2.7-13.2 2.1-21.1 1.7-2.3.1-4.6.1-6.9.1zm-61.6 17.1c1.1-1 2.1-2.1 1.7-4.6 1.5.8-1.1 7 0 9.7-.7-.2-.9-1-1.7-1.1v-4zm101.6-25.1c2.6 9.8-7 15.9-13.7 10.8 0-1.5.4-.7 1.1-.6 2.2 2.4 6.9-1.6 10.3-1.7v-.6c1.7-.8-.2-2.8-.6-3.4h1.7c.1-3.5-1.4-5.4-2.3-8l3.5 3.5z"/><path fill="#171526" d="M158.6 100.9c-.3-4.3 1.7-6.3 2.3-9.7 2.1.3 3.6-1.5 5.1 0-3.7 4.7-7.2 12.5-6.3 20-2.5-1.3-1.8-6.4-1.1-9.1v-1.2z"/><path fill="#fff" d="M248.1 95.2c-2.8 5.3-11.6 1.4-9.1-4.6 1.6-.6 3.5-1 5.7-1.1.2 2.9 1.5 4.6 3.4 5.7z"/><path fill="#C12026" d="M164.3 97.5c-2 2-2.8 5.2-3.4 8.6v4c.7 1.2-.9 2.7-1.1 1.1-.9-7.5 2.6-15.2 6.3-20 2.4.7 0 2.9-.6 4-.3.9-1.9.5-1.2 2.3z"/><path fill="#fff" d="M165.4 95.2c1.3-.2 1.1-2 2.9-1.7-1.1 2.5-2.6 4.6-4 6.8-1.3-.1-.3-2.5 0-2.9-.7-1.7.9-1.3 1.1-2.2z"/><path fill="#C12026" d="M183.6 98.1c1.9-.6 4.3-3.7 6.3-2.3-1 1.4-3.4 1.5-4 3.4-1.3.2-2.1-.1-2.3-1.1z"/><path fill="#2B4877" d="M122.1 99.2c2.4 5.8-8.5 8.7-13.1 5.7 5.4.7 12.9.7 13.1-5.7z"/><path fill="#C12026" d="M112.9 98.7c-1.5 1.5-3.7 2.4-4 5.1v1.1c-4.4-6 8.6-11.9 12-6.8-3-1.5-4.9-.5-8 .6z"/><path fill="#F2DBC4" d="M122.1 99.2c-.1 6.3-7.7 6.3-13.1 5.7v-1.1c.7.7 2 .6 3.4.6-.2-.9-1.8-.5-1.1-2.3 2.8 0 2.5-3.2 5.7-2.9-.2-1.3-2.8-.2-4-.6 3.1-1 5-2.1 8-.6.5.1.6.6 1.1.6v.6zm123.1 1.2c4.3-.5 5-4.2 10.3-2.3 4.3.7 4.1 7.1 1.1 9.1-1.7-.4-4.9.7-5.7-.6 5.6 2.2 8.4-4 5.1-6.8.1.6 1.4 5.4-1.1 6.3-2.5.4-3.2-1-4-2.3-1.4.1-.2 1.9 0 2.3-1.8-.5-2.3-2.3-3.4-3.4.8.2 1.1.8 2.3.6.5-3-3.3-1.7-4.6-2.9z"/><path fill="#fff" d="M108.9 103.8c.3-2.7 2.5-3.6 4-5.1 1.2.3 3.7-.7 4 .6-3.2-.4-2.9 2.8-5.7 2.9-.7 1.8.9 1.4 1.1 2.3-1.4-.1-2.7 0-3.4-.7z"/><path fill="#C12026" d="M141.4 99.2c-.5 2.5-3-.3-4 1.1-.6 1.5 1.7 2.7 0 3.4-1 0-1.5-.4-1.7-1.1 3 .3-.6-3.3 1.1-3.4 1.3-.4 3.7-.4 4.6 0zm87.3 1.2c-1.8-.1-4.2.4-5.1-.6 2.5-1.3 8.1-1.1 11.4-.6-2.2.3-4.5.5-6.3 1.2zm26.8-2.3c-5.3-1.9-6 1.8-10.3 2.3-1.8.2-4.9-.8-5.1 1.1h-2.9v-1.1c3.1-2.2 11.4.8 12-4 1.8.9 5.6-.3 6.3 1.7z"/><path fill="#fff" d="M250.9 106.1c-.2-.3-1.4-2.2 0-2.3.8 1.3 1.5 2.7 4 2.3 2.5-.9 1.2-5.7 1.1-6.3 3.3 2.8.5 9.1-5.1 6.8v-.5zm-5.7-5.7c1.3 1.2 5-.1 4.6 2.9-1.2.2-1.5-.4-2.3-.6-3.2.3-5.4-.3-7.4-1.1.2-2 3.3-1 5.1-1.2z"/><path fill="#171526" d="M166.5 117.5c.5-5.6 1.5-10.7 4.6-13.7 2 .3 3.5 1 4.6 2.3-3.9 2.9-3.6 10.1-9.2 11.4z"/><path fill="#C12026" d="M166.5 117.5c5.6-1.3 5.2-8.5 9.1-11.4.5.1.6.6 1.1.6-2.9 4.9-4.4 11.2-10.3 13.1v-1.1c.1-.5.1-.8.1-1.2z"/><path fill="#2B4877" d="M193.3 114.1c.8-2.5 2.4-4.1 4-5.7.6 0 .7.5 1.1.6-2.7 2.1-3.1 6.4-5.7 8.6 0-1.5 0-2.9.6-3.5z"/><path fill="#171526" d="M379.8 112.9c-.1-1.4 1.3-1.4 1.7-2.3 8.1 9.1 22.9 16.3 27.9 30.2-1.6.9-1.7 3.3-4.6 2.9-5 .3-5.9-3.6-8.6-5.7-3-5-6.1-9.9-10.3-13.7v-.6c-2.8-.6-.5-6.3-5.1-5.1 2.7-2-.7-3.3-1-5.7z"/><path fill="#2B4877" d="M95.2 122.1c1.1-7.5 8.4-9.8 14.8-9.1-7 1-12.4 2.4-14.8 9.1z"/><path fill="#F58D1F" d="M433.5 119.8c-5.1-1.1-5.3-3.8-8-6.8 3 2.7 6.1 5.3 10.3 6.8.1-.7.2-1.3 1.1-1.1-.3 1.3-2.2 2.3-3.4 1.1z"/><path fill="#fff" d="M136.9 118.1c-.8-3 3.3-1.2 5.1-1.7 1.8 1.9-3.1.7-3.4 2.3 1.7 1.3-.2 2.4-.6 2.3-.8-.6-1.2-1.5-1.1-2.9zm9.1-1.8c.3 2 4.5 3.1 3.4 4.6-2.2-.9-5.7-2.3-5.7-4.6h2.3zm-39.3 7.5h-1.7c1.8-1.4 3.6-2.8 5.7-4 .1-1.7-2.1-1.9-.6-3.4h2.3c1.5 3.7-2.4 6.6-5.7 7.4z"/><path fill="#F2DBC4" d="M110.1 116.3c-1.5 1.5.7 1.7.6 3.4-2.1 1.2-3.9 2.6-5.7 4h1.7c-.7 2.4-7.1 2.3-8.6.6-.3-7 6.8-6.5 12-8zm5.1 14.9c.8-2.3 4.6-3.1 6.8-2.3.3.5.5 1 1.1 1.1.5 5.7-5.5 7.8-10.3 6.3 0-.9-.3-2.2.6-2.3-.7 2.4.9 2.6 2.9 2.3-1.4-1.2-.9-4.1 1.1-5.1-.1-.7-1.7-.7-1.7 0h-.5z"/><path fill="#fff" d="M115.2 131.2h.6c0-.7 1.6-.7 1.7 0-2 1-2.5 3.9-1.1 5.1-2 .3-3.5.1-2.9-2.3 0-1.5 1.8-1.2 1.7-2.8z"/><path fill="#171526" d="M159.7 144.9c-2.7-1.1-2.9-4.7-3.4-8 2.2-.1 2.1 2.1 2.9 3.4 1.9.6 6.2-1.3 6.3 1.1-2 1.2-2.9 3.4-5.8 3.5z"/><path fill="#F58D1F" d="M404.9 144.3c-4.8 2-7.6-2.6-8.6-6.3 2.7 2.1 3.5 6 8.6 5.7v.6z"/><path fill="#F2DBC4" d="M337.6 140.3c3.4-1.3 4.6 1.3 6.8-1.7-.9-1-3.4-.5-5.1-.6.2-1.9 3.3-.9 5.1-1.1 1.7 2.7 4.6 4.2 5.7 7.4-3.2-.5-3-4.2-5.7-5.1 2.8 2.5 5.3 9.4 1.1 12.5.7 1 2.4-1.7 2.9-2.9h.6c-3.1 6-7.8 10.4-10.3 17.1-1.6-2 2.1-3.6 1.7-6.3-1.8 3.6-9.3 12.8-8 17.7.3 1.1 1.1.1 1.7 0-.6 3.9-2.5 6.6-2.9 10.8-1.3.2-.2 2.8-.6 4-1 1.5-.4-3.3-.6-4.6-1.9 5-2.1 9.6-1.7 16.5l1.1-2.3c-2.7 20.6-.9 42.3-2.3 64.4-1.4-.4.1-3.5-1.1-4-.7 3.9-3.8 10.7-1.7 13.7-.2.8-.8 1.1-.6 2.3-.8-.2-.5-1.4-.6-2.3-1.7 2.7-2.9 5.8-5.1 8 .6 1.8 1.5-.7 2.3-.6-2.5 5.3-8.7 6.8-12.5 10.8-4.3-1.2-3.4-7.6-6.8-9.7.3-2.4-1-3.2-1.1-5.1.5.1.6.6 1.1.6-.3-8-1.5-10.1 0-17.1-1.3-.2-.6 1.6-1.7 1.7 4.8-21.4 14.5-38 18.3-60.5v4.6c2.6-3.1 3-10.8 3.4-15.4-2-.3-.3 3.1-1.7 3.4.5-3.5.8-7.1 2.3-9.7-.6 1.5-.7 3.5-.6 5.7 1.6-3.1 2.2-7.3 2.9-11.4-.9 1-2.1 1.7-1.7 4h-.6c-2.2-9.7-.4-18.4 4.6-24-.7 1.2-.6 3.2-1.7 4 2.3-.9 4.6-6.8 7.4-9.1-1.6-2.3-3-2.6-3.4.6.1-1.4.1-2.8-1.1-2.9-1.8-.1-2.5-1.3-2.3-3.4-2.5-.4-6.4.7-8-.6 2.9-1.8 7.6-1.9 12.5-1.7 0 1.1-1.6.7-1.1 2.3 3.1-1.4 2.4 1.9 6.3 1.1v-1.1c1.7.6-.7 1.5-.6 2.3 2.5.7 1.8-1.6 2.9-2.3-1.1-1.3-1.7-3.2-4.6-2.9.2.7 1 .9 1.1 1.7-.8-.5-1.8-.9-1.7-2.3 3.3-.8 3.4 1.5 6.3 1.1.5-4.5-4-4-6.8-5.1 3.3-1.7 7.8.2 10.8.6 0-2.3-1.4-3.6-4.6-3.1zm-11.4 73.6c.3 3.4-.9 13.5.6 16-1.2-6.8 2.6-12.1-.6-16zm.6 37c-.2-4.1.1-20.5-.6-8.6-.3 6.3-.8 13.7 0 18.3 2.1-1 .8-5.6.6-9.7z"/><path fill="#fff" d="M349 148.9h-.6c-.4 1.1-2.2 3.9-2.9 2.9 4.2-3.1 1.7-10-1.1-12.5 2.7.9 2.5 4.7 5.7 5.1.1 1.8.3 3.9-1.1 4.5zm-14.8 28.5c-.6.1-1.4 1.1-1.7 0-1.3-4.9 6.2-14.1 8-17.7.4 2.7-3.3 4.2-1.7 6.3-2 3.3-3.1 7.5-4.6 11.4z"/><path fill="#2B4877" d="M170.5 142.6c-1.2.5-1.3 2.1-1.1 4-1.3.2-2.2-.1-2.9-.6-2.3.6-.5 3.4-.6 5.1-.8 0-1.3.3-1.7.6h-.6c-.3-1.2.8-1.1 1.7-1.1.4-1.8-1.6-1.1-1.1-2.9-.4-1.8 1.6-1.1 1.1-2.9 1.8-.4 1.1 1.6 2.9 1.1 1.6-.2-.8-4.5 2.3-3.3z"/><path fill="#C12026" d="M165.4 141.4c.7-.1 1 .1 1.1.6-.7 1.9-4.8 6-6.8 2.9 2.9-.1 3.8-2.3 5.7-3.5zm10.3 5.7c-4.5-1.1-4.4 2.4-7.4 2.9-1.7-2.1 3.4-2.3 2.9-5.1 1.3 2.1 4.4-.7 4.5 2.2z"/><path fill="#fff" d="M168.2 150c3-.4 2.9-4 7.4-2.9v4.6c-2.7-.3-6.1.1-7.4-1.7zm166.6.6c-.1-.6-.6-.9-1.1-1.1-.1-.8-.9-1-1.1-1.7 2.9-.4 3.4 1.5 4.6 2.9-1 .7-.4 3-2.9 2.3-.2-.9 2.2-1.9.5-2.4z"/><path fill="#C12026" d="M179.1 151.1c1.2.1 1.2 1.4 1.1 2.9-2 .6-7.5 2.6-9.1 0 4 .5 6.1-1.1 8-1.1v-1.8z"/><path fill="#fff" d="M234.4 157.4c-2-.8-3.7 1.6-4.6 0 2.2.3 1.8-2 2.9-2.9l3.4.6c.7.1 1.4.2 1.1 1.1-1.4 0-1.7 1-2.8 1.2zm94.1-.6c.4-3.2 1.8-2.9 3.4-.6-2.8 2.3-5.1 8.2-7.4 9.1 1.1-.8 1-2.8 1.7-4-.5-2.7 2.8-1.7 2.3-4.5z"/><path fill="#F58D1F" d="M171.1 236.7c2.4-7.3 6.1-13.3 10.3-18.8-3.8 5.9-7 12.3-10.3 18.8zm10.3-19.4c.5-.4.2-1.2.6-1.7 10.3-13 22.3-32.1 33.1-45.6 3.4-4.3 7.9-7.1 12.5-9.1-10.1 6.4-19.4 18.9-26.8 29.1-3.2 4.4-6.5 9.2-9.7 13.7-3.6 4.8-5.8 10.3-9.7 13.6z"/><path fill="#fff" d="M188.2 162.5c1.3.3 1.7-3.1 2.3-1.7-2 4.9-.2 10.8-1.1 14.3l-1.1-10.3c-.7-.8-.7-1.4-.1-2.3z"/><path fill="#F58D1F" d="M209.9 220.2c-1.4-8.4 1.5-18.9 8.6-22.2.2-1.3.9-2.1.6-4 11.5-9.2 20.1-21.3 33.1-29.1 0 .3.1.7.6.6h1.1c-.9 3.5 1.2 8.9.6 12.5 3-2.3 3.8-6.9 5.7-10.3 4.2-1.5 6.2 3 9.1 4.6.6 3.2 2.7 4.9 4.6 6.8-2.3 3.7-2.9 6.8-3.4 13.7 4.4-2 5.6-7.3 8-11.4 2.5 1.8 4.9.8 6.8 2.3-2.4 3.8-6.3 7.5-9.7 10.3-21.9 18.1-45.3 38.5-66.7 56.5 1.5-5.6 1.8-15.3 0-18.2 0-2.9 2.6-2 1.1-5.1 2.9 4.1 6.6 7.5 14.3 6.8-.3-6.1-9.6-7.8-13.7-12-1.3.2-.2 2.8-.6 4-2.8-.7-.5-5.1.6-5.7-.3-.1-.5-.1-.7-.1zm14.8-6.3c-.9-6.3-4-10.5-6.3-15.4-3.9 6.6.1 19 2.9 24.5 1.1 1.2 1.6 3 4 2.9.9-3.7 1.5-8.9-.6-12zm21.1-33.1c-3.1 1.7-2.3 6-2.9 9.1-1.4 8.8-2 16.7 0 24.5 7-7.4 5.5-23.2 2.9-33.6zm14.3 5.1c-3.2 8.2-9.8 16-9.7 25.7 6.5-4.3 13.1-17 9.7-25.7zm-28 19.4c-.7 0-.8-.7-1.7-.6-.5 2 .6 2.4 1.1 3.4 1.1 5.9 4.1 9.9 9.1 12 .5-8.2-4.5-11-8.5-14.8z"/><path fill="#ECAD87" d="M221.3 223c1.3.4 1.5 1.9 2.9 2.3 2.3-1.8.9-8.6.6-11.4 2.1 3.2 1.5 8.3.6 12-2.6.1-3-1.7-4.1-2.9z"/><path fill="#F2DBC4" d="M260.1 167.7c-1.9 3.4-2.7 8-5.7 10.3.6-3.6-1.4-9-.6-12.5h5.1c-.1 1.1.6 1.3.6 2.3.2-.1.4-.1.6-.1z"/><path fill="#171526" d="M274.3 179.1c-.2-1.6-3.5-2.9-2.3-4 .1.6.6.9 1.1 1.1 2.2-.5 4.7 3.1 7.4 4-1.5 1.9-4.4-2.8-5.7-1.1h-.5z"/><path fill="#C12026" d="M278.3 181.4c-1.5-.4-2.7-1.1-3.4-2.3 1.3-1.6 4.2 3 5.7 1.1 1.8-.5 1.8.9 2.8 1.1-.2 1.5 2.2.4 1.7 2.3-1.9-1.4-4.3-.5-6.8-2.2z"/><path fill="#F2DBC4" d="M274.9 179.1c.8 1.1 1.9 1.9 3.4 2.3-2.3 4.1-3.6 9.4-8 11.4.5-6.9 1.1-10 3.4-13.7h1.2zm-31.9 35.3c-2-7.9-1.4-15.7 0-24.5.5-3.1-.2-7.4 2.9-9.1 2.5 10.4 4 26.2-2.9 33.6z"/><path fill="#fff" d="M321.7 185.4h.6c-.3-2.2.8-3 1.7-4-.6 4.1-1.2 8.3-2.9 11.4-.1-2.2 0-4.2.6-5.7v-1.7z"/><path fill="#F2DBC4" d="M250.4 211.6c-.1-9.7 6.5-17.4 9.7-25.7 3.4 8.7-3.2 21.4-9.7 25.7z"/><path fill="#C12026" d="M292 192.2c.8.1 1 .9 1.7 1.1.2-1-.8-1.5 0-1.7 4.7 9.2 9.6 21.8 8.6 31.9 2.5.3.2 5.5 1.7 6.8h-1.7c-2-11.8-2.9-22.5-8-31.9.4-2-.6-2.4-1.1-3.4.4-1.7-2-.6-1.2-2.8z"/><path fill="#ECAD87" d="M304.6 346.2c3.6-1.4 6.2 4.1 8.6 7.4 2.6 3.6 5.3 7.9 6.8 11.4-.3 1 .7 3.4-.6 3.4-1.8-10.1-8.2-18.7-14.8-22.2z"/><path fill="#F58D1F" d="M290.9 191.6c.1.8-2.3 1.7-.6 2.3.6-.6 1.1-1.2 1.7-1.7-.8 2.2 1.6 1.1 1.1 2.9h-2.3c-.5 6-1.9 11-2.3 17.1 4.4-1.9 6-9.1 5.7-13.7 5.1 9.4 6 20.2 8 31.9-5.5 3.6-9.5 8.7-13.7 13.7-3.3-1.1-7.9-3.7-12-2.3 1.2 4.5 5.5 5.9 8 9.1-6.2 13.4-13 26.1-15.4 43.3-7.4-.7-11.2 2.1-14.8 5.1 2.9 3.2 11.7 2.4 14.8 0 1.6 1 1.3 4.1 3.4 4.6 6-1.4 6.5-8.4 12.5-9.7-1.3 20-4.9 49.6 3.4 66.7 1.2 3.4 6.1 10.4 9.1 5.1 4.5-3.7 4-12.4 6.3-18.3 3.4 8.6 7.4 16.6 15.4 20.5 1.3-.1.2-2.4.6-3.4-1.6-3.5-4.3-7.8-6.8-11.4-2.3-3.3-5-8.8-8.6-7.4.1.5-.2.5-.6.6 2.1-6.8 1.4-16.4 4-22.8 3 7.6 4.1 17.2 8.6 23.4 2.8 5 6.2 9.4 13.1 10.3 1.9-1 2.9-2.8 2.9-5.7.7-2.1 1.8-3.9 2.3-6.3 5-1.7 10.4-2.9 13.1-6.8-4-4.2-10.5 2.4-13.7 4.6v-5.7c6.2-1.8 16.2-8.6 10.8-14.8-5.4 3-8.2 8.5-11.4 13.7-1.5-4.4-1.8-9.9-2.9-14.8.6-.1.9-.6 1.1-1.1 7.3-5.5 4.7-18.9 5.7-29.7 1.5 2.1 3.4 5.6 2.3 8.6 3.1 1.7 2.9 6.6 4.6 9.7-.6.6-2.1 3.1-.6 4 .1-.7-.1-1.6.6-1.7 1.3 2.5 1.2 6.4 2.3 9.1v.6c7.7 35.1 11.8 77.6 17.7 113.5-4.2-1.4-8.5-5.4-14.3-3.4 1.8 5 10.3 8.4 14.3 4.6v1.7c.1.4 0 1.1.6 1.1 10.5 12.5 22 24 30.8 38.2.2 1.3 1.1 2.4 0 3.4 1 .5.9 2.1 2.3 2.3v.6c.8.1 1 .9 1.7 1.1.5 1.4 2 1.8 2.9 2.9v.6c1.9-.1 2.4 4.1 4 2.3 4.9 4.1 9.9 5.6 13.1 12 2.2 1.5 6.3 4.8 8.6 8 4.4 4.9 9.2 9.5 13.1 14.8v.6c2.5 3 3.9 7.2 5.1 11.4.4.5.6 1.3.6 2.3-3.1 1.9-5.7-1-8-1.7-6.2-4.2-17-5.8-24.5-6.8 8.7-.6 4.4-14.3 8-20-.9-.9-1-2.4-2.3-2.9-5.7 4.4-7.9 12.3-7.4 22.8-13.9-1.7-22.7 6-34.8 4.6-8.9-1.1-14.3-8.2-18.8-14.3-7.5-10-17.9-16.1-31.9-17.7-.1-.7-.2-1.3-1.1-1.1.1-.5.6-.6.6-1.1 3.1-1.4 4.1-5 4.6-9.1-3.1-.1-4.4 1.7-5.7 3.4-2 1.6-7.1 2.9-4.6 5.7-1.9-2.1-5.1-2.9-7.4-4.6 2.5-1.7 5.2-3.1 5.7-6.8-3.1-.4-8.2 2-10.3 4.6h-1.1c-.3-.5-.6-.9-.6-1.7-2.1-12 5.2-19.9 6.8-28.5h1.1c1.5.1 1.9 1.2 1.7-1.1 2.5-1.1 3.3-3.9 5.1-5.7 1.9.5.3 1.1.6 2.9 2.7-1.4 3.4-2.8 2.9-6.3 1.8.3 2-1 4-.6l-1.1-4c-.8.5-.8 1.8-1.1 2.9-1.8.4-1.1-1.6-2.9-1.1 0 1.7.6 3.5-1.7 5.1-.3-3.8 3.2-10.7-.6-14.8-2.1.1-2.2 2.3-2.9 4-2.6 4.3-3.7 10-4.6 16-.5-1.4 1.1-4.9-1.1-4.6-1.9-4.5-1-11.9-4.6-14.8-6.2-13.6-18-26.6-29.7-36.5-3.9-3.3-15.5-8.2-14.3-12.5-1.8.4-1.1.4-2.9 0-15.2-14.4-27.4-31.9-36.5-52.5-2.4-4-2.6-8.8-4.6-12-2.4-3.9-2.9-9.6-3.4-15.4-3-6.1-2.1-16.1-4.6-22.8v-.6c-.2-.8-.8-1.1-.6-2.3.7 0 .8.7 1.7.6v-.6c2.1 2.7 4.7 4.8 8 6.3-.5-7.1-6.4-13.8-11.4-18.3-1-2.5-.5-4.2-1.1-9.1v-3.4c19.2-16.5 38.9-32.6 57-50.2h1.2c.3-.7.6-1.3 1.1-1.7-3.2 4.4 1.2 12.3 2.3 17.7 3 .3 1.1-2.6 1.1-5.1 0-4.6 1.2-13.9-1.7-14.3 7.5-5.6 12.7-12.7 20.2-17.6zm69.6 313.7c-1.8 4.5-5 12.8.6 15.4.9-3.9 2.5-12.5-.6-15.4zm-81-282.3c2.2-4.1 4.3-8.3 4.6-14.3-4 2.3-6 6.6-6.8 12-1.1 3-3.3 6.9-2.3 10.3 2.4-1.7 3.3-4.9 4.5-8zm-2.3 12c9.3-1.4 15.2-6 18.2-13.7-9.1-.7-13.1 8.5-18.2 13.7zm-25.7 12c7.8-3.6 13.9-8.9 17.7-16.5-3.6-1.3-7.5.9-9.1 3.4-6.4 3.3-11.5 7.9-13.7 15.4 1.7 1.1 3.1-2 5.1-2.3zm14.3 5.1c3.7.1 6.1-1.1 7.4-3.4-4.7-3.1-13.9-2.4-20 0-1.7-.6-1 1.3-1.1 2.3 4.5-.7 7.3 2.1 13.7 1.1zm-29.1-2.9c.9 7.7 1 16.1 6.8 18.8.5-6.7-1.2-16.1-6.8-18.8zm-20.5 13.2c3.1 4 10.1 6.9 16.5 5.7-1.5-5-11.3-10.1-16.5-5.7zm55.8 0c-5.8 5.3-9.1 12.9-12 21.1-1.3.5-.7 2.7-2.3 2.9-.7-.3-1.3-.6-1.7-1.1-.3-.8.7-2.9-.6-2.9 0-5.9-.3-16.4-5.7-18.8-.3 9.6.1 18.5 4 24 3.2 1.7 7.5-.5 9.7-3.4.1-.6.6-.9 1.1-1.1 4.8-4.2 9.5-14 7.5-20.7zm-25.6 22.8c1 0 1.8-.1 2.3-.6-3.9-7.2-14.5-4.9-21.1-6.3 1.5 2 3.1 3.7 6.3 4 2.5 2.6 9.4.9 10.8 4.6-.4-1.6 1.2-1.1 1.7-1.7zm2.8 3.4c-7.5-.8-14.7 3.5-18.2 8.6 2.4 0 4-1 6.8-.6 6.4-1.2 12.3-2.9 15.4-7.4-.7-.8-2.4-.6-4-.6zm-15.9 21.7c-2.8-1.6-7.8-3.6-10.8-1.7-.4 1.6 1.1 1.1 1.1 2.3 3.3 6.4 9.5 9.9 16.5 12.6h.6c1 1.3 4.4.2 6.3.6-3.1-6.3-7.6-10.8-13.7-13.8zm37 23.3c-4.6-8.9-10-17-18.2-22.2.2 1.9.3 3.9 1.1 5.1v.6c3.3 10.8 9 19.1 17.1 25.1 1.5.2 1.7 1.7 3.4 1.7 1-5.4-2.6-6.4-3.4-10.3zm6.9 11.5v.6c3.7-3.1 2.7-11.5 2.3-17.1-.5-7.1-2.4-15-6.3-17.1-1.1 3.7-.9 11.2.6 14.3-.7 8.9 2.7 12.9 3.4 19.3zm-21.7-.6c-6.1.4-10.3 2.6-13.7 5.7 9.5 3.6 24.4 1.9 28.5-5.1-2.1-2.7-11.8-2.3-14.8-.6zm85 12.5c2.5.8 2.6-1.9 4-.6-.2 1.1-1.2 1.4-1.1 2.9 1.8-.5 1.2 1.5 2.3 1.7-.2-2.3 0-4.2 1.1-5.1l-2.9-1.7c.7-.6 1-1.6 2.9-1.1.4-2.1-.6-2.8-2.3-2.9-1.2 2.4-3.5 3.7-4 6.8zm-71.3-1.7h.6c.3-1.2 1.4-1.6 1.1-3.4-6.4 2.5-10 7.8-13.1 13.7-1.4 2.5-3.5 4.5-4 8 7-1.9 12.3-10.5 15.4-18.3zm1.7 26.8c5.7-5.8 7.4-19.4 4.6-29.1-1.3.7-1.1 3.1-1.7 4.6-3.6 5.9-2.6 16.4-6.3 22.2 2.5-.7.7 2.7 2.9 2.3h.5zm78.1-18.2c-2-1.4-5.7-1.1-7.4-2.9 0-.8.3-1.3.6-1.7-2.2-.6-5-1.8-3.4-4.6-1.3 0-1.7 1-3.4.6.4 3.2 4.6 2.6 5.1 5.7-.7.8-2.8.2-2.8 1.7 0 .3-.1.7-.6.6 4.1 3.2 9.3 7.1 16.5 6.3.5-3.9-1.4-5.5-4.6-5.7zm-13.6 10.2c-.2-4.9-.2-10.1-3.4-12-.2 8-4.1 22.5 2.3 28.5 1-.1 1.3-1 1.1-2.3 2.2-3.3 2.1-10.8 0-14.2zm17.1 6.3c-3.6-4.6-6.7-9.7-12.5-12-.8 1.7-.7 3.5 1.1 4 .8 2.5.3 3.6 0 6.3 1.8.4 1.1-1.6 2.9-1.1 2.2 3.7 5.5 9.3 10.8 8-.7-1.9-1.6-3.5-2.3-5.2zm-41.7-1.7v-.6c-4.5-3.8-11.4.3-15.4-1.7.9 1.8 1.9 3.4 3.4 4.6 6.2 3.1 11.8 8.7 20.5 7.4.8-4.3-4-7.2-6.8-9.7 1.9 0 3.8 0 3.4-2.3-2.5-.1-2.3 2.6-5.1 2.3zm-28.5 12.6c-1.5 3.9-3.1 7.3-2.3 12 6.7-.8 6.8-10.4 10.8-12-2.1-1.4-.8-6.1-1.1-9.1-4.6.7-5.5 5.1-7.4 8.6v.5zm23.4 13.1c.8-9.3-4-18-11.4-21.1.5 2.3.9 4.8 1.7 6.8 1.2 8.1 3.2 15.4 9.7 18.2 1.1-1 .3-2.6 0-3.9zm30.8 2.8c.9-3.5 3.5-11.9-1.1-12.5-.6 4-3 9.1-2.3 12.5-.9 2.7-2.5 10.3 0 12.5 2.3-3 2.9-7.7 3.4-12.5zm-9.1-.6c-1-3.8-1.2-8.3-4.6-9.7-1.4 4.2-2 14.1 0 16.5 1.5 4 2.6 8.4 6.8 9.7.8-4.8-.4-12.2-2.2-16.5zm26.2 1.8h.6c.2-.8.8-1.1.6-2.3-9.3 1-13.9 6.6-18.2 12.5v.6h-.6c-.1 1.9.7 2.7 2.3 2.9 6.6-2.9 11.4-7.6 15.4-13.1-.1-.3-.1-.4-.1-.6zm8 19.4c-2-3.1-2.5-7.8-7.4-8 2.5 2.6 3 7.2 7.4 8zm-42.2-5.7c-2.8-2.3-10.9-1.4-12.5 1.1.1 2.2 2.2 2.3 4.6 2.3 6.1.4 12.7 5.4 16.5 0-2.1-2-5.2-2.9-8.6-3.4zm14.2 7.9c-1.4.2-1.2-1-2.9-.6 3.1 6.6 4.7 13.7 11.4 17.7 4.9-1.1 4.9 2.7 8 3.4 2.4-1.6 3-4.9 5.1-6.8-5.2-.3-1.8 4.4-5.7 5.1-1.8-1.5-3.2-3.5-5.1-3.4-.3-4.1-4.9-6.2-3.4-10.3-3.6-.4-4.2-4-7.4-5.1zm-3.9 16c2.4-.1 1.9-3.1 2.3-5.1-.8 0-1.3-.3-1.7-.6-.4 2.6-1.4 3.5-.6 5.7zm10.8 8c1.9.2 1.2 2.9 3.4 2.9.2-2.7.4-2.9 1.7-5.1-.8-.2-1.1-.8-2.3-.6.6 2.4-3.2.5-2.8 2.8zm15.4 10.3c1.8-2.4 2.3-6.1 2.9-9.7-3.7-.2-4.1 2.8-5.1 5.1-1.7 4-7.2 11.4-3.4 15.4 2.8-2.6 4.3-6.7 5.6-10.8zm-19.4-8h-.6c-2.3-.2-3.2 1-5.7.6-3.9 3.6-10.7 4.2-12.5 9.7 2.5.4 4.8-.1 7.4-1.1h1.7c2.1 1.5 3.4-2.4 6.3-.6 2.5-3.8 6.2-2.9 8.6-6.8-.7-.1-.6-.9-.6-1.7-.6-.7-4.1-1.3-4.6-.1zm19.4 15.4c-1.2 1.1-2.8 1.8-2.9 4 8-1.7 19.5-4.9 21.1-14.8-2.8-.7-5.7 2.3-8.6 3.4-2.2.3-3.9 1-5.1 2.3.2-1.3-.1-2.1-1.1-2.3 0 .3-.1.7-.6.6 0 .6-.5.7-.6 1.1.7.3 1.3.6 1.7 1.1-1 1.8-3.2 2.4-3.9 4.6zm-20.5 9.1c-4.4-4.3-8.1-9.4-14.8-11.4.5 5.9 6.4 11 12 13.7 2 .5 2.6 2.3 5.1 2.3 1.3-1.8-2.2-2.5-2.3-4.6zm2.8-2.9c1.9.2 2.4-1 3.4-1.7-3.1.6-1.8-3.1-4.6-2.9-.8 1.2 1.1 2.9 1.2 4.6zm49.6 3.5c1.9-.4 4-.5 4.6-2.3-4.4-5.9-15.7-1.1-19.4 2.3h-.6c3 4 11.9 1.9 15.4 0zm-77.5 2.2c1.2 1.4 6.6-2.4 6.8-5.7h-2.9c.6 2.5-1.7 2-2.9 2.9-.1 1.1.9 3.4-1 2.8zm49-2.2c-1.8-.8-2.9-2.4-5.7-2.3 4.9 7.5 7.4 17.3 17.7 19.4.1-1.1-.6-1.3-.6-2.3-2.8-5.9-5.3-12.1-11.4-14.8zm32 1.7v.6c-5.6 2-12.9 8.4-10.3 14.8 4.3-2.6 9.6-9 12.5-14.8-.7 0-1.7-2.4-2.2-.6zm2.2 4c-2.8 6.8-5 15-3.4 23.4 2.8-.6 2.6-4.2 3.4-6.8 1.8-1.4 3.2-21.5 0-16.6zm-44.5 18.8c0-5.7.3-11.7-4-13.1-1.2 3.9-.9 11.2 1.7 13.1 1 1.8 1 3 2.3 3.4-.2-1.8 1.3-2.2 0-3.4zm62.8.6c2.4-4-11.2-2.2-12 1.1-2.4-.2-.4 1.9-.6 2.9 4.8-.8 8.6-2.5 12.6-4zm4 2.8c.6-1.3 2-1.8 1.7-4-2.6-.5-3.2 1-3.4 2.9-5.9 4.3-11 9.6-16 14.8.1 2.4-2.8 1.8-2.3 4.6 2.7 1.5 4.8-1.8 6.8-2.9 5.8-3.8 10.1-9 13.2-15.4zm-37.7 5.1c0-1-.1-1.8-.6-2.3-1.7.6-2.7 4.8-3.4 7.4-1.1 4.2-1.9 11.2 1.7 13.7 1.8-.1 1.9-1.9 1.7-4 1.5-3.3 1.8-10.7.6-14.8zm46.2-2.2c-2.7 6.7 3.9 13.9 8.6 17.1.4-1.7-.6-2.1-.6-3.4.9-5.9-4.1-10.7-8-13.7zm-36.5 2.2c-2.3 4.6-11.6 14.6-5.1 18.8 2.2-5 7.4-13 5.1-18.8z"/><path fill="#2B4877" d="M332.5 351.9c.1 2.9-1 4.7-2.9 5.7-6.9-.9-10.3-5.3-13.1-10.3 3.3 4.5 7.5 9.2 13.1 9.7 2.3-.4 1.7-3.7 2.9-5.1z"/><path fill="#C12026" d="M365 438.6c2.5 1.9 4.3 4.5 6.3 6.8 1.1.2 1.1-.8 1.7-1.1 3.2 4.3 9.1 8 9.1 13.7.9-2.6 6 3.8 6.3 5.1-1.3-.4-1.5-1.9-2.9-2.3 3.5 5 7.3 6.6 10.3 11.4 1.1 2.9 3.3 4.9 1.1 8 1.6.8 2.7-.2 1.1 2.3-1.3-.2-1.3-1.8-2.3-2.3 1.1-1.1.2-2.1 0-3.4-8.7-14.2-20.2-25.7-30.7-38.2zm37.7 48.5c-.9-1-2.4-1.4-2.9-2.9 2-1.1 2.1.2 4 .6-1.1 3.8 3.5.3 2.3 3.4-1.2 1.9-1.7-1.7-3.4-1.1zm4 2.8c.3-.7.6-1.3 1.1-1.7 2.9 4.3 10.4 6.7 11.4 12.5 2.1.3 4.1.3 5.7 2.3 1.3 2.5 4.3 3.3 5.1 6.3-3.5-2.2-5.2-6.2-9.1-8-.1.4-.5.7-1.1.6-3.2-6.4-8.2-7.9-13.1-12zm21.6 20c3.7 1.6 5.6 6.8 9.1 6.8-1.4 1.1 1.2 4.9 2.3 3.4-.8-.5-1.8-.9-1.7-2.3 1.3.9 4.2 2.8 1.7 4 1.4.3 2.5.3 3.4 2.3-.5-.3-2.1-1.3-1.7.6-3.9-5.3-8.6-9.9-13.1-14.8zm13.1 15.4l2.3 1.7c.5-1.1-1.7-1.9 0-2.3.7 2.7 1.2 2.5 2.3 5.1-.6.8 3.3 2 2.3 5.1-1.7-.2-1.1-2.7-2.3-3.4-2.2 1.5 2.9 3.5.6 5.1-1.3-4.1-2.7-8.3-5.2-11.3z"/><path fill="#ECAD87" d="M326.8 500.8c2.1-2.1 3.6-4.8 4-8.6-2.4.1-3.3 1.7-4.6 2.9h-.6c1.3-1.7 2.6-3.5 5.7-3.4-.4 4.1-1.3 7.6-4.5 9.1zm-9.7-38.3c3.6-5.3 6.4-11.4 5.7-21.1-2.4-.1-2 2.6-3.4 3.4.6-1.7.7-3.9 2.9-4 3.8 4.1.2 11 .6 14.8 2.3-1.6 1.7-3.5 1.7-5.1 1.8-.4 1.1 1.6 2.9 1.1.3-1 .3-2.4 1.1-2.9l1.1 4c-2-.5-2.2.9-4 .6.5 3.5-.2 4.9-2.9 6.3-.3-1.8 1.3-2.3-.6-2.9-1.8 1.9-2.6 4.8-5.1 5.8z"/><path fill="#F2DBC4" d="M294.3 198.5c.3 4.6-1.3 11.8-5.7 13.7.4-6.1 1.8-11.1 2.3-17.1h2.3c.5 1 1.5 1.4 1.1 3.4zm-73 24.5c-2.8-5.5-6.8-17.9-2.9-24.5 2.3 4.9 5.3 9.1 6.3 15.4.3 2.8 1.8 9.6-.6 11.4l-2.8-2.3z"/><path fill="#ECAD87" d="M231.6 208.2c1.8 4.7 4.2 8.8 8 11.4 1.7-6.7-4.5-10.3-7.4-14.3 4 3.8 9 6.6 8.6 14.8-5.1-2-8.1-6-9.2-11.9z"/><path fill="#F2DBC4" d="M231.6 208.2c-.5-1-1.6-1.4-1.1-3.4.9-.2 1 .5 1.7.6 2.9 4 9.2 7.6 7.4 14.3-3.9-2.8-6.3-6.8-8-11.5zm39.3.5c2.9.4 1.7 9.6 1.7 14.3 0 2.5 1.8 5.4-1.1 5.1-1.1-5.4-5.5-13.3-2.3-17.7.3-.8.9-1.3 1.7-1.7z"/><path fill="#ECAD87" d="M277.2 220.7c.9-5.4 2.9-9.7 6.8-12-.3 6-2.4 10.2-4.6 14.3 1.1-4.6 3.6-7.8 4-13.1-2.8.5-4.5 7.2-6.2 10.8z"/><path fill="#F2DBC4" d="M277.2 220.7c1.7-3.6 3.4-10.3 6.3-10.8-.4 5.3-2.9 8.5-4 13.1-1.1 3.1-2.1 6.3-4.6 8-1-3.3 1.2-7.3 2.3-10.3zm2.3-2.8c-1.1 3.2-3.9 7.9-3.4 10.8.8-3.3 5.3-8.5 3.4-10.8z"/><path fill="#fff" d="M276 228.7c-.5-3 2.3-7.6 3.4-10.8 2 2.3-2.5 7.5-3.4 10.8z"/><path fill="#F2DBC4" d="M295.4 221.3c-3 7.6-9 12.3-18.2 13.7 5.1-5.2 9.1-14.4 18.2-13.7zm-85.5 4.6c.3-1.2-.7-3.7.6-4 4.1 4.2 13.4 5.9 13.7 12-7.7.6-11.3-2.7-14.3-6.8v-1.2z"/><path fill="#ECAD87" d="M251.5 247c6.9-4.2 13.1-8.9 17.1-16-3.1-1.4-6.4 1.5-8.6 2.9 1.6-2.5 5.5-4.8 9.1-3.4-3.7 7.5-9.7 12.9-17.6 16.5z"/><path fill="#F2DBC4" d="M260.1 233.8c2.2-1.4 5.4-4.3 8.6-2.9-4 7-10.3 11.8-17.1 16-2 .3-3.5 3.4-5.1 2.3 2.1-7.5 7.2-12 13.6-15.4z"/><path fill="#C12026" d="M86.7 340.5c-.7-3.8 2.6-5.5 3.4-8.6 2.2-8.1.8-15.9 4.6-21.7 2.6-4 10.6-9.8 17.1-9.1 7.8.8 11.1 11.2 20.5 10.8 3.2-.1 4.2-2.4 6.8-1.7-.8 1.9-3.2 2.1-4.6 3.4h-4c-8.3-1.6-11.7-11.7-21.1-10.3-10.1 1.7-18.4 12.5-18.1 25.2l-1.1 6.8c-2 1-1.6 4.3-3.5 5.2zm26.2 13.1c0 .7.7.8.6 1.7-.7.8-2.5.6-4 .6-1.6-2.2-2.9-4.7-5.7-5.7v-.6c-3.2.8-3.9 4.1-6.8 5.1h-.6c.5-2-.8-2.2-.6-4h.6c.7.1.5 1 .6 1.7 2.9-.5 3.1-3.7 5.7-4.6 3.8 1.3 5.2 7.7 10.2 5.8z"/><path fill="#2B4877" d="M99.8 346.8c-1 1.5-2.9 2-3.4 4h-.6c-4.9 2.7-12.3 2.9-12.5 10.3-1.8-3.9 2.6-6.5 4.6-8.6 1.6.4 1.1-1.1 2.3-1.1 2.8 2.5 6.5-3.7 9.6-4.6zm9.1 36.5c-.7 1.8 1.8.4 1.1 2.3-6.2-.8-10 6.7-14.8 7.4 4.1-3.8 9-6.7 13.7-9.7zm18.3-13.7l14.8-14.8c-4 5.8-9.3 10.4-14.8 14.8z"/><path fill="#C12026" d="M189.4 277.8c-2.2 5-9.8 9.6-14.8 13.7 3.8-5.7 10-9 14.8-13.7zm-43.4 30.2v-1.1c21.8-18 43.2-38.1 65.6-56.5 4.4-3.6 9-8.7 14.8-9.7-9.9 8.7-20.6 16.6-30.2 25.7-3.8 2.3-7 5.2-9.7 8.6-10.1 7-18.5 15.8-27.4 24-5.3 1.9-7.7 7-13.1 9z"/><path fill="#F2DBC4" d="M284.6 250.9c-2.5-3.2-6.8-4.6-8-9.1 4.1-1.5 8.7 1.1 12 2.3 0 3.6-2.9 4.3-4 6.8z"/><path fill="#ECAD87" d="M253.2 248.7c0 .6-.5.7-.6 1.1 3 1 8.3 1.6 13.1 2.3-6.4 1.1-9.1-1.8-13.7-1.1.2-1.1-.5-2.9 1.2-2.3z"/><path fill="#F2DBC4" d="M253.2 248.7c6.1-2.4 15.3-3.1 20 0-1.3 2.3-3.7 3.5-7.4 3.4-4.8-.7-10.2-1.3-13.1-2.3.1-.5.5-.6.5-1.1zm-9.7 19.4c-5.8-2.7-6-11.1-6.8-18.8 5.6 2.6 7.3 12 6.8 18.8z"/><path fill="#fff" d="M226.4 240.7c.6.1.4 1.1 1.1 1.1-10.5 9.5-20.1 19.8-31.4 28.5-2.1-.9-.7-2.7 0-4 9.7-9 20.4-16.9 30.3-25.6z"/><path fill="#F2DBC4" d="M232.7 268.1c-6.4 1.2-13.5-1.7-16.5-5.7 5.2-4.4 15 .7 16.5 5.7z"/><path fill="#ECAD87" d="M260.1 283.5c.1 1.4-.9 1.8-1.1 2.9 2.5.2 3-1.5 4.6-2.3-2.2 3-6.5 5.1-9.7 3.4 1.7.5 1.8.5 3.4 0-.6-1.6-2.5-2.1-1.7-5.1 1.2-.1.3 2 .6 2.9.4.5 1 .9 1.7 1.1 1.4-.3.9-2.5 2.2-2.9zm11.9-21.1c1.9 6.8-2.8 16.5-7.4 20.5 4-5 8.1-12.8 7.4-20.5z"/><path fill="#F2DBC4" d="M260.1 283.5c2.8-8.2 6.2-15.9 12-21.1.6 7.7-3.4 15.6-7.4 20.5-.5.3-1 .5-1.1 1.1-1.5.7-2 2.5-4.6 2.3.2-1.1 1.2-1.4 1.1-2.8z"/><path fill="#fff" d="M324.5 276c-2.1-3 1-9.8 1.7-13.7 1.2.5-.2 3.6 1.1 4-.2 4-1.8 6.6-2.8 9.7zm-25.1-11.4c1.1-.1.4-1.9 1.7-1.7-1.5 7-.3 9.1 0 17.1-.6 0-.7-.5-1.1-.6-.6-4.3-2.1-10.1-.6-14.8z"/><path fill="#F2DBC4" d="M253.8 287.4c-3.9-5.5-4.3-14.4-4-24 5.4 2.5 5.7 12.9 5.7 18.8-.8 3.1 1.1 3.5 1.7 5.1-1.6.7-1.7.7-3.4.1zm-67.3-12.5c2.7-3.4 5.9-6.3 9.7-8.6-.7 1.3-2.1 3.1 0 4-3 1.2-3.8 4.6-6.8 5.7.3-.8.9-1.4 1.7-1.7-.1-.4-.5-.7-1.1-.6-.5-1.8 1.5-1.2 1.7-2.3-1.4-.7-3.5 2.7-5.2 3.5z"/><path fill="#fff" d="M159.1 298.9c8.9-8.2 17.3-16.9 27.4-24 1.7-.8 3.8-4.2 5.1-3.4-.2 1.1-2.2.4-1.7 2.3.7-.1 1 .1 1.1.6-.8.3-1.4.9-1.7 1.7-7.6 6.4-15.4 12.8-22.8 19.4-2.7.5-8.6 7.6-7.4 3.4z"/><path fill="#C12026" d="M330.8 272.6c7.3 5.6 7.9 18 12.5 26.2.2 1.1-.8 1.1-1.1 1.7 3.8 1 2.8 6.7 4.6 9.7-1.8.7-.4-1.8-2.3-1.1-1.7-3.1-1.5-8-4.6-9.7 1.1-2.9-.8-6.4-2.3-8.6-1.1-7.1-3.1-10.5-6.8-18.2z"/><path fill="#fff" d="M324 278.3c-.6 2.2-2.1 3.6-3.4 5.1-.8-.1-1.7 2.3-2.3.6 2.2-2.2 3.4-5.3 5.1-8 .1.9-.2 2.1.6 2.3z"/><path fill="#F2DBC4" d="M211 274.9c5 4.5 10.9 11.1 11.4 18.2-3.2-1.5-5.9-3.6-8-6.3-1.8-2.7-1.5-7.6-3.4-10.3v-1.6z"/><path fill="#ECAD87" d="M233.8 282.3c3.5 1.7 9.4.9 12.5 2.9-.5.6-2.1.2-1.7 1.7-1.3-3.7-8.3-2-10.8-4.6z"/><path fill="#F2DBC4" d="M233.8 282.3c-3.2-.2-4.8-2-6.3-4 6.6 1.4 17.2-1 21.1 6.3-.5.4-1.3.6-2.3.6-3.1-2-9-1.2-12.5-2.9zm4 14.3c-2.9-.4-4.4.5-6.8.6 3.5-5.1 10.8-9.3 18.2-8.6-.1 1.2 2 .3 2.9.6-2.2 5-9.4 5-14.3 7.4z"/><path fill="#ECAD87" d="M237.8 296.6c4.9-2.4 12-2.4 14.3-7.4-.8-.3-2.9.7-2.9-.6 1.5 0 3.3-.2 4 .6-3 4.5-9 6.2-15.4 7.4z"/><path fill="#F2DBC4" d="M269.2 299.4c-3.2 2.4-12 3.2-14.8 0 3.6-3.1 7.5-5.8 14.8-5.1 1.1.6.7 4.4 0 5.1zm-110.1-.5c-1.2 4.2 4.6-2.9 7.4-3.4-3.2 4-7.1 7.3-11.4 10.3-.1-1 .7-1.2.6-2.3-3.7 1.5-5.1 5.1-8.6 6.8-.3-.5-.5-1-1.1-1.1v-1.1c5.4-2.1 7.8-7.2 13.1-9.2z"/><path fill="#2B4877" d="M147.1 310.3c3.4-1.7 4.9-5.4 8.6-6.8.1 1.1-.6 1.3-.6 2.3-2.8.8-3.8 3.9-5.1 4.6-2.8.6-3.4 3.5-5.7 4.6v-1.7c.7-1.4 1.7-2.3 2.8-3z"/><path fill="#fff" d="M120.3 314.8c.1-1.2-2-.3-2.9-.6 3-.7 8.8-1 13.1-.6h4c0 1.7-2.7.7-3.4 1.7-2.7.9-8.7 1.3-10.8-.5zm-5.7 10.3c-1.2-3.8.3-6.3.6-10.3 1.6 2.9.1 7.8-.6 10.3zm-23.3 3.4c1.4-3.6 1.6-8.3 2.9-12 .9 2-2.7 14.8-1.1 16h.6c-.6.8-.5 2.1-1.7 2.3-.8-.3-1.4 2.2-1.7.6-.8-3.3 1.5-3.7 1-6.9z"/><path fill="#ECAD87" d="M223.6 310.8c4 5.7 10 9.4 16.5 12.6-7-2.7-13.2-6.1-16.5-12.6zm9.7-.5c6.1 3 10.7 7.6 13.7 13.7-1.9-.4-5.3.7-6.3-.6 3.3-.2 6.1.8 4.6-1.7-2.4-4.1-10.3-10.5-12-11.4z"/><path fill="#F2DBC4" d="M223.6 310.8c0-1.1-1.6-.7-1.1-2.3 3-1.9 8 .1 10.8 1.7 1.7.9 9.6 7.4 12 11.4 1.5 2.5-1.3 1.5-4.6 1.7h-.6c-6.5-3.1-12.5-6.8-16.5-12.5z"/><path fill="#C12026" d="M146 309.1c.6.1.9.6 1.1 1.1-1.2.7-2.1 1.7-2.9 2.9-4.4 2.3-6.3 7-10.8 9.1 2.8-5.8 8.3-8.8 12.6-13.1zm198.5 2.3c2.7-1 4 7.4 4 9.1-.6-1.7-.9-.7-1.7 0-1.1-2.7-1-6.6-2.3-9.1z"/><path fill="#ECAD87" d="M253.2 317.1c4 10.1 9.4 18.7 17.1 25.1-8.1-5.9-13.8-14.3-17.1-25.1zm0-.6c-.9-1.2-1-3.2-1.1-5.1 8.3 5.2 13.7 13.3 18.3 22.2-5-7.9-10.2-15.7-17.1-21.7-1.7 1 .7 2.6-.1 4.6zm24 28.6h.6c2.7-10.6.9-26.3-4-33.1-1.3 4.8-.2 8.8 0 13.7-1.5-3.1-1.6-10.5-.6-14.3 3.8 2.2 5.8 10 6.3 17.1.4 5.6 1.4 14-2.3 17.1v-.5z"/><path fill="#F2DBC4" d="M253.2 316.5c.8-2-1.6-3.6 0-4.6 6.9 6 12.1 13.8 17.1 21.7.7 3.8 4.3 4.8 3.4 10.3-1.7 0-1.9-1.5-3.4-1.7-7.7-6.4-13.1-15-17.1-25.1v-.6zm20.6 9.2c-.2-4.9-1.3-8.9 0-13.7 4.9 6.8 6.7 22.4 4 33.1h-.6c-.7-6.4-4.1-10.4-3.4-19.4z"/><path fill="#2B4877" d="M116.3 317.7v-2.3c1.4-.5 1.5-.4 4-.6 2 1.7 8 1.4 10.8.6-2.6 3.7-11.1-1.5-12.5 1.1h-.6c-1.2-.3-.8 1.1-1.7 1.2z"/><path fill="#F2DBC4" d="M128.3 322.2c-4.2 2-5.8 6.8-10.3 8.6 1.1-3.3.3-8.4.6-12.6 3.4 2.1 6.4 1.1 11.4 1.1-4.9.1-3.9 2.6-6.3 5.1 2.1.3 3-3.7 4.6-2.2z"/><path fill="#fff" d="M128.3 322.2c-1.6-1.6-2.5 2.4-4.6 2.3 2.4-2.5 1.3-5 6.3-5.1 1.6.5 1.5-.8 2.9-.6-.2 2.5-2.5 2.9-4.6 3.4zm12-.5c.5 2.9 2.9 4 2.9 7.4-2.3-.2-.4-4.5-2.9-4.6-2.5-.6-1.9 1.9-4 1.7.8-2 3.3-2.3 4-4.5z"/><path fill="#C12026" d="M346.8 321.1c5.7 0 1.1 12.1 3.4 7.4 1.5 3.2 1.4 8.1 3.4 10.8-.7 1.4-2.4-1.4-2.3 1.1 3.4 5.2 4.6 17.1 3.4 21.7 6 21 7.6 50.7 12.5 77-1.8.3-.4-2.6-1.7-2.9-.1.6-.6.9-1.1 1.1v-2.8c-5.8-35.8-10-78.3-17.6-113.4z"/><path fill="#F2DBC4" d="M119.8 337.6h2.3l19.4-17.1c.2 4.2 3.1 5.7 3.4 9.7-.5-.3-.9-.6-1.7-.6-.5 3.6 1.6 4.5 1.7 7.4 1.4-1 .3-4.5 0-5.7 1.9.9 1.1 4.6 2.3 6.3h-1.7c.5 4.2.7 7.3-.6 10.8.2.8.5-.1 1.1 0-.6 2.8-3.2 3.6-4 6.3l-14.8 14.8c-6.3 4.3-12.1 9.2-18.2 13.7-4.8 3-9.7 5.9-13.7 9.7-7.5 6.1-22.4 4.2-27.4-2.9.4-1.3 1.7 1.3 2.9 1.1-1.7-3.5-5.1-5.1-7.4-8-1.3.8 1.4 2.3 1.7 3.4-6.7-5-14.9-14.2-12.5-24.5 6.7-14 19.8-21.7 31.4-30.8-.4 1.3-1.9 1.5-2.3 2.9 1.7-.6 2.1-2.4 4.6-2.3.1 2-1.7 2.1-1.7 4 .8-.2.9-1 1.7-1.1-4.1 3.7.6 9.3-.6 15.4.2 1.3 1 2 2.3 2.3-2 2-6.3 4.7-4.6 8.6v1.1c-1.3-.2-1.3-1.8-2.3-2.3-.2 6.7 8.5 11.6 12.5 5.7-2.1.2-2.8 1.7-5.1 1.7 6.8-3.8 11-10.3 16.5-15.4 0-.6-.7-.4-1.1-.6v-1.1c2.8 1 4.1 3.5 5.7 5.7 1.5 0 3.3.2 4-.6.2-.9-.5-1-.6-1.7-.3-1.9-3.3-1.3-3.4-3.4.4-1.6-1.1-1.1-1.1-2.3h2.3l-3.4-5.7c2.8.2 5.5 11.8 6.3 3.4 1.1 1.9 1.9 4.2 3.4 5.7.9.2 1-.5 1.7-.6-5.2-5.5-4.1-17.2-10.3-21.7.4 2.6 1.8 4.3 2.3 6.8-1.8-.9-5.2-.1-6.3-1.7-.8.2-.5 1.4-.6 2.3-.8-.2-.5-1.4-.6-2.3-2.9 3 1.9 7.8 0 10.3-6.2-1.1-5.2-9.2-8-13.7-.5.6-2.1.2-1.7 1.7h-.6c-1.5-1.1 2-14 1.1-16-1.3 3.7-1.5 8.4-2.9 12-.3-12.7 8.1-23.6 18.3-25.1 9.4-1.4 12.8 8.6 21.1 10.3-4.4-.4-10.1-.1-13.1.6.8.3 2.9-.7 2.9.6-2.5.2-2.6.1-4 .6v2.3c.1 5.3-1.3 9-1.1 14.3-1.3-.8-.2-4-.6-5.7-1.3 3.4-1.5 10.8 0 15.4 1.3-.4.2-3.2.6-4.6 2.1 2.5 2.1 6 1.7 9.7 1.7 2.3 2 2.5 2.8-.6v2.3c3.2-1.2.5-8 0-10.8zm16.5-11.4c2.1.2 1.5-2.3 4-1.7 2.4.1.5 4.4 2.9 4.6 0-3.4-2.3-4.5-2.9-7.4-.7 2.2-3.2 2.5-4 4.5zm-12.5 19.4c.8 2.7 9.7.6 11.4-1.1-4.7-.5-6.5 1.9-11.4 1.1zm-51.9 23.4v1.1c3.4 2.3 5.2 6.2 9.1 8 1.2-.7 3.6-3.7 1.1-4.6-1.1-4.6-4.6-6.8-8.6-8.6-.9 1-2.1 1.7-1.6 4.1zm43.3-54.2c-.2 4-1.8 6.4-.6 10.3.7-2.5 2.2-7.4.6-10.3zm218.4 21.7c3.2-5.2 6-10.7 11.4-13.7 5.4 6.2-4.6 13-10.8 14.8-.5 0-.4-.7-.6-1.1z"/><path fill="#fff" d="M144.9 331.4c.3 1.2 1.4 4.7 0 5.7-.1-2.9-2.2-3.9-1.7-7.4.8 0 1.3.3 1.7.6v1.1zm-58.8 3.4c-.8.1-1 .9-1.7 1.1 0-1.9 1.9-1.9 1.7-4-2.4-.1-2.9 1.7-4.6 2.3.4-1.3 1.9-1.5 2.3-2.9 1.5-1.1 2.6-2.7 4.6-3.4-.3 2.8-.4 5.7-2.3 6.9z"/><path fill="#C12026" d="M88.4 327.9c-2 .7-3 2.3-4.6 3.4-11.6 9.1-24.7 16.8-31.4 30.8 5.5-18.3 22.6-24.9 35.4-35.9 1-.2 1.1.4 1.1 1.1-.4 0-.5.3-.5.6z"/><path fill="#fff" d="M119.8 346.2c-.8 3-1.1 2.9-2.8.6.4-3.7.3-7.2-1.7-9.7-.3 1.4.7 4.1-.6 4.6-1.5-4.6-1.3-12 0-15.4.4 1.7-.7 4.9.6 5.7 2.1 4 3.1 9.3 4.5 14.2z"/><path fill="#C12026" d="M104.9 338.2c1.2.3 1.1-.8 1.1-1.7 3.2.2 4.1 2.8 5.7 4.6-.7-.9-2.4-.7-2.3-2.3-2.5-.6-3.2.6-4.6 1.1.1-.6.1-1.1.1-1.7zm-9.7-1.7c-1.7 1.2-2.7 3-2.9 5.7-2.2-2.4.5-6.3 2.3-8-.2 1.2.5 1.5.6 2.3z"/><path fill="#fff" d="M104.9 338.2v1.7c1.4-.5 2.1-1.7 4.6-1.1-.1 1.6 1.6 1.4 2.3 2.3.7 1.4 1.4 2.8 1.7 4.6-.8 8.4-3.5-3.3-6.3-3.4-1.1 0-.7-1.6-2.3-1.1l3.4 6.8c0 1.1 1.6.7 1.1 2.3-2.5-1.5-4.7-3.2-6.3-5.7 1.9-2.5-2.9-7.2 0-10.3.1.9-.2 2.1.6 2.3.1.9.5 1.4 1.2 1.6z"/><path fill="#F2DBC4" d="M92.4 342.2c.1-2.7 1.2-4.5 2.9-5.7h.6c-.3 5 1.8 7.7 4 10.3-3.1 1-6.8 7.2-9.7 4.6.8-2.6 3.1-3.7 2.3-8-.1-.4-.1-.8-.1-1.2z"/><path fill="#fff" d="M146 348.5c-.6-.1-.9.8-1.1 0 1.3-3.5 1.1-6.6.6-10.8h1.7c1.3 3.3 1.1 8.3-1.2 10.8z"/><path fill="#F2DBC4" d="M334.2 343.3c3.2-2.2 9.7-8.8 13.7-4.6-2.7 4-8.2 5.1-13.1 6.8-.8-.1-.5-1.3-.6-2.2z"/><path fill="#A2A1A3" d="M86.7 340.5l3.4-5.1c.3 1.7.9-.9 1.7-.6.1 1.2-.5 1.8-1.7 1.7-.4 4 1.4 10.1-2.3 10.8.9-3.5-1.6-3.7-1.1-6.8z"/><path fill="#171526" d="M132.9 480.8c4 1.9 6.9 3.1 12 2.9-4.3 1.6-10.4.1-12-2.9zm-124.3-61c1 .2 1.1-.4 1.1-1.1-.1-.6 1.6 6.4-1.1 6.3.1 1 1 1.3 2.3 1.1-2 1-.9 5.2-3.4 5.7-.5-4.6 1.1-5.7 1.1-12zm35.9-20.6c-.2 2.3-6.1 3.8-10.8 3.4-2.1-2.7-3.7-5.8-7.4-6.8.8-.2 1.1-.8 2.3-.6 1.8 1.2 3.3 2.7 4 5.1 3.9-.3 8.3-.3 11.9-1.1zm171.1-25.6c3 .4 1.4 2 2.3 4-3.8 4.9-9.9 1.7-13.7 5.1-.8-.3-1.4-.9-1.7-1.7-5.9 6.8-14.1 4.6-21.1 1.1.1-.6 1.1-.4 1.1-1.1 5 2.1 14.8 4.9 17.1-1.1 4.2.1 6.3-.7 9.7.6 3.4-1.1 3.2-5.6 6.3-6.9zm-3.4-9.7c3-.5 2.3 2.7 2.9 4.6h2.9c-1.6 2.2-.4 1.4.6 3.4-3.4-1.6-5.2-4.5-6.4-8zm-17.7-9.7c-1.9 2.5-2.2-1-4.6-1.1 3.2-.1 4-2.5 6.8-2.9-.6 1.3-2.6 1.2-2.3 3.4.1.2.1.4.1.6zm-86.1-6.3l-3.4-6.8c1.6-.4 1.1 1.1 2.3 1.1.7 2.4 2.8 3.3 3.4 5.7h-2.3z"/><path fill="#C12026" d="M92.4 343.3c.8 4.2-1.4 5.4-2.3 8-1.1 0-.7 1.6-2.3 1.1-1.3-.2-2-1-2.3-2.3 3.9 2.8 5-4 6.9-6.8z"/><path fill="#ECAD87" d="M255.5 344.5c3-1.7 12.6-2.1 14.8.6-4-1.9-9.2-1.1-14.8-.6z"/><path fill="#F2DBC4" d="M270.3 345.1c-4.2 7-19 8.7-28.5 5.1 3.4-3.1 7.6-5.3 13.7-5.7 5.6-.5 10.8-1.3 14.8.6zm34.3 1.1c6.6 3.5 13 12.1 14.8 22.2-8-3.9-12-12-15.4-20.5v-1.1c.3-.1.7-.1.6-.6z"/><path fill="#2B4877" d="M103.8 350.2v1.1c-2.4 1.1-3 3.8-5.7 4.6-.5-.3-1-.5-1.1-1.1 2.9-1.1 3.6-4.4 6.8-5.1v.5z"/><path fill="#C12026" d="M88.4 367.3c-1.9-1.3-4.3-2.1-5.1-4.6 5.8 5.8 11.8-2.9 14.8-6.8 2.7-.8 3.3-3.5 5.7-4.6.4.1 1.1 0 1.1.6-5.5 5.1-9.7 11.6-16.5 15.4z"/><path fill="#fff" d="M207.6 354.2c-3.1.2-5.2-2.1-7.4-1.7-3.8.6-3.2 4.4-6.8 5.7-.3-.8-.8-1.4-1.1-2.3 1.4.1 1.8-.9 2.3-1.7v-.6c1.6-2.8 5.8-5.3 9.7-4h.6c.3 2 3.5 1.3 2.7 4.6z"/><path fill="#F2DBC4" d="M175.7 357.6c-2.8-6.1 10.2-8.8 13.1-4-5.1-2.2-10.6.4-13.1 4z"/><path fill="#ECAD87" d="M257.8 365.6c3.1-5.9 6.7-11.2 13.1-13.7.3 1.8-.8 2.2-1.1 3.4h-.6c.2-1.1 1.2-1.4 1.1-2.9-5.9 2.6-8.7 8.4-12.5 13.2z"/><path fill="#C12026" d="M175.7 357.6c2.5-3.6 8-6.2 13.1-4 1.5.4 1.4 2.4 3.4 2.3.3.8.8 1.4 1.1 2.3 3.7-1.3 3.1-5.1 6.8-5.7 2.2-.4 4.3 1.9 7.4 1.7-.1.7.1 1 .6 1.1 1.3 3.4 0 6 1.7 8.6-.1.5-.6.6-.6 1.1.2 2.3 4.8 5.1 6.3 8v.6c-3.1 1.3-2.9 5.8-6.3 6.8-3.4-1.3-5.5-.5-9.7-.6-2.3 6-12.1 3.3-17.1 1.1 0-2.9.9-4.8 2.3-6.3-.1-1.2-1.4-1.2-2.9-1.1h-.6c-1.7-3.5-8.6-1.7-11.4-4h-.6c-1.4-3.4 1.5-4.2 2.9-6.3h5.7c.1-2.6-2.1-2.9-2.9-4.6.3-.3.8-.4.8-1z"/><path fill="#F2DBC4" d="M257.8 365.6c3.8-4.8 6.6-10.5 12.5-13.1.1 1.4-.9 1.8-1.1 2.9-3.1 7.8-8.4 16.3-15.4 18.3.5-3.6 2.5-5.6 4-8.1z"/><path fill="#ECAD87" d="M270.9 382.1c4.9-7.3 5.7-16.8 5.1-28.5-1.6.3-1.1 2.7-1.7 4h-.6c.6-1.5.4-3.8 1.7-4.6 2.9 9.7 1.3 23.3-4.5 29.1z"/><path fill="#F2DBC4" d="M273.8 357.6h.6c.7-1.2.1-3.7 1.7-4 .6 11.7-.2 21.2-5.1 28.5h-.6c-2.1.4-.4-3-2.9-2.3 3.7-5.8 2.7-16.3 6.3-22.2z"/><path fill="#ECAD87" d="M349 363.9c-3.7-.2-7.9-2.1-11.4-1.1.1-1.5 2.1-.9 2.8-1.7-.5-3.1-4.7-2.5-5.1-5.7 1.7.4 2.1-.6 3.4-.6-1.6 2.8 1.2 3.9 3.4 4.6-.3.5-.6.9-.6 1.7 1.9 1.6 5.6 1.3 7.5 2.8z"/><path fill="#fff" d="M88.4 367.3c2.3 0 3-1.6 5.1-1.7-4 5.9-12.7 1-12.5-5.7 1 .5.9 2.1 2.3 2.3v.6c.8 2.4 3.2 3.2 5.1 4.5z"/><path fill="#F2DBC4" d="M169.4 369.6h-1.7c-1.5-7.6 4.1-8.1 7.4-10.8.8 1.7 3 1.9 2.9 4.6h-5.7c-1.5 2-4.3 2.8-2.9 6.2zm166 4.5c.4 2.2 1.1 10.2 0 14.3.2 1.3-.1 2.1-1.1 2.3-6.4-6.1-2.5-20.5-2.3-28.5 3.2 1.8 3.1 7 3.4 11.9zm2.2-11.4c3.5-1 7.7 1 11.4 1.1 3.2.2 5 1.8 4.6 5.7-7.3.8-12.5-3.1-16.5-6.3.5.2.5-.1.5-.5zm-128.3 2.3c3.5 1.2 5.5 4 6.3 8-1.5-2.9-6.1-5.7-6.3-8z"/><path fill="#171526" d="M71.9 369c-.5-2.4.7-3.1 1.7-4 3.9 1.8 7.5 3.9 8.6 8.6-.7.7-.6 2-.6 3.4-4.7-1.2-6.1-5.7-9.7-8z"/><path fill="#C12026" d="M82.1 373.6c2.5.9 0 3.9-1.1 4.6-3.9-1.8-5.7-5.7-9.1-8v-1.1c3.6 2.3 5 6.7 9.7 8-.1-1.5-.1-2.9.5-3.5z"/><path fill="#ECAD87" d="M341.1 372.4c-1.8-.5-1.9-2.3-1.1-4 5.9 2.3 9 7.4 12.5 12-4.7-3.1-5.8-9.8-12.5-10.8-.6 1.8.8 1.7 1.1 2.8z"/><path fill="#F2DBC4" d="M341.1 372.4c-.2-1.1-1.6-1-1.1-2.9 6.8 1 7.8 7.8 12.5 10.8.7 1.7 1.7 3.3 2.3 5.1-5.4 1.3-8.6-4.2-10.8-8-1.8-.4-1.1 1.6-2.9 1.1.2-2.5.7-3.6 0-6.1zm-159.2 1.2c1.4-.1 2.8-.1 2.9 1.1-1.4 1.5-2.3 3.4-2.3 6.3-1.8.7-.4-1.8-2.3-1.1-.5-3.3 1.2-4.2 1.7-6.3z"/><path fill="#ECAD87" d="M310.8 378.7c-3.6-2.4-9.3-1.7-13.1-.6-.5 1.8.9 1.8 1.1 2.9-1.5-1.1-2.5-2.8-3.4-4.6 4 2.1 10.9-2.1 15.4 1.7v.6z"/><path fill="#F2DBC4" d="M298.9 381c-.2-1.1-1.6-1-1.1-2.9 3.9-1.1 9.5-1.8 13.1.6 2.8.3 2.5-2.4 5.1-2.3.4 2.3-1.5 2.3-3.4 2.3 2.8 2.5 7.7 5.4 6.8 9.7-8.8 1.3-14.4-4.3-20.5-7.4z"/><path fill="#C12026" d="M28.5 394.7c6.5-5.5 12.8-11.1 20.5-15.4 1.2 1.5 1.5 3.8 2.3 5.7-1.1 3.1-3.3 5.1-5.7 6.8-.1.6-.6.9-1.1 1.1l1.7 3.4c-.3 1.2-1.2 1.8-1.7 2.9-3.6.8-8 .8-12 1.1-.6-2.4-2.1-3.9-4-5.1v-.5z"/><path fill="#171526" d="M138.6 414.1c1.4.9 2.4 2.1 5.1 1.7 0 .8.3 1.3.6 1.7v1.1c-.8.5-.8 1.8-1.1 2.9-1-.9-1.2-2.6-1.1-4.6-1.8-.3-2.2 1.2-3.4 0 1.5-.8.8-1.7-.1-2.8zm45.6-20c3.3.4 1.6 4.6 3.4 5.1-1.3 3.5-.4 9.9-5.1 11.4-.1 1.9 2.5 2.5 1.1 4-1.9-.1-1.2-3-2.9-3.4 2.8-5.7 6.3-9.6 3.5-17.1z"/><path fill="#ECAD87" d="M282.3 391.3c-.7 4.8-1.7 6.2-2.3 11.4 6.7-3 9.7-9.7 9.1-20-3.9 1.1-4 5.8-6.8 8 1.9-3.4 2.8-7.9 7.4-8.6.4 3.1-.9 7.8 1.1 9.1-4 1.6-4.2 11.2-10.8 12-.8-4.6.8-8.1 2.3-11.9z"/><path fill="#F2DBC4" d="M164.8 382.7c-2.9 3.3-9.6 3-10.8 8 1.2 2.6 1.3 6.3 1.1 10.3-2.5-.9-5.7-4.7-8.6-1.7.7-.6 2.8-3.8.6-2.3h-.6c.9-2.5 4.3-.5 5.1.6 2.1-6.2 1.1-17.3 13.2-14.9zm117.5 8c2.8-2.1 3-6.9 6.8-8 .6 10.3-2.4 17-9.1 20 .6-5.2 1.6-6.6 2.3-11.4v-.6z"/><path fill="#ECAD87" d="M296 390.1c-.8-2.1-1.2-4.5-1.7-6.8 7.4 3.1 12.2 11.8 11.4 21.1-.4-9.9-4.6-15.9-10.3-20.5-1.2 1.2 1.5 3.4.6 6.2z"/><path fill="#F2DBC4" d="M296 390.1c.9-2.8-1.8-5-.6-6.3 5.7 4.6 9.9 10.6 10.3 20.5.3 1.3 1.1 2.9 0 4-6.5-2.8-8.5-10.1-9.7-18.2z"/><path fill="#fff" d="M65 386.7c-.3-1.1-3-2.6-1.7-3.4 2.3 2.8 5.7 4.5 7.4 8-1.1.1-2.4-2.4-2.9-1.1-.6-1.5-2.8-1.4-2.8-3.5z"/><path fill="#171526" d="M223 394.1h-.6c-3.3-.2-4.1 1.9-6.3 2.9.4-1.5-1.2-1.1-1.7-1.7.1-.5.6-.6.6-1.1.5.1.5-.2.6-.6.7.2 1.2.7 1.1 1.7 1 .1 1.2-.7 2.3-.6v-2.3c1.3 1.6 3.2-1 4.6.6-.1.4-.6.5-.6 1.1zm-16 14.8c-1.7 0-.7 2.7-1.7 3.4-3.3-4.3 4-7.2 5.7-10.3 1.7-.6 1 1.3 1.1 2.3 1.7-.9 2.2.2 3.4-.6-.5-2.8.3-3.7-.6-6.3 1.8-.5 1.8.9 2.3 1.7-2.3 1.7 1.6 4-.6 6.8-4.5 0-8.6-2.7-9.7 2.3.1.4.1.5.1.7zm36.5 17.7c2.1 1.6 4.2 5.2 3.4 8-5.2 3.9-13.7 2-19.4 1.7-.7 2.4-3.1 5.4-6.3 3.4v-.6c3.1-.9 4.2-3.8 5.7-6.3 5.9 2.3 11 2.9 17.1.6.9-2.4.6-4.7-.5-6.8zm-1.1-25.7v-.6c-1.9-2.4-3.3 2.3-4.6.6-.6-2.1 2.1-.9 1.7-2.9 1.1 1 3.3.8 4 2.3.7-.1.5-1 .6-1.7 1.6-.4 1.1 1.1 2.3 1.1-.6.9-2.4.6-3.4 1.1-.2.1-.4.1-.6.1z"/><path fill="#2B4877" d="M108.9 393c-1.3.8-5.5 3.5-5.1-.6 2.7.1 3.8.2 5.1.6z"/><path fill="#F2DBC4" d="M168.8 392.4c4 1.7 8.9-1.9 12.5 1.1-3.7-.6-9.2 1.8-12 4 0-1.5.5-3.6-1.7-2.9-.3-1.5 1.2-1.1 1.2-2.2z"/><path fill="#ECAD87" d="M333.1 407.2c-.7-3.4 1.7-8.6 2.3-12.5 4.6.7 2 9.1 1.1 12.5-.2-3.6 2.1-9.6-.6-12-1.1 3.9-2 7.9-2.8 12z"/><path fill="#F2DBC4" d="M333.1 407.2c.8-4.1 1.7-8.1 2.9-12 2.7 2.3.3 8.4.6 12-.5 4.8-1.1 9.5-3.4 12.5-2.7-2.2-1-9.8-.1-12.5z"/><path fill="#fff" d="M146.6 397h.6c2.2-1.5.2 1.7-.6 2.3-3.3.4-3.3 3.9-5.1 5.7-1.3 1.1-.6-.1-1.7-.6.2-3.4 4-3.3 3.4-7.4h3.4z"/><path fill="#ECAD87" d="M322.8 413.5c-2-2.4-1.4-12.3 0-16.5 3.3 1.4 3.6 5.9 4.6 9.7-1.8-2.5-1.8-7-4-9.1-1.7 4.1-1.3 11-.6 15.9z"/><path fill="#F2DBC4" d="M322.8 413.5c-.7-4.9-1.1-11.8.6-16 2.2 2.2 2.2 6.6 4 9.1 1.8 4.2 3 11.6 2.3 16.5-4.3-1.2-5.4-5.6-6.9-9.6z"/><path fill="#fff" d="M219 399.2c1.9 2.5.7 8.1 2.3 10.8-1.6.5-1.5-.8-2.9-.6-.9-2.3-3.3 1.5-3.4 0-.8-2.7 2.4-1.4 4-1.7-.9-2.1-.5-5.6-.6-8.6.2.1.4.1.6.1zm28.5 7.4c-1.9-.9-2.5-3.2-4.6-4-3 1-4.8 3.2-6.8 5.1-2.1-.8-.4-4-.6-5.1-.1-.5.2-.5.6-.6 2.1.9 3.9-2.6 6.3-1.1h.6c1 2.5 4.4 2.4 4.5 5.7z"/><path fill="#F2DBC4" d="M141.4 404.9c-.7 3.1-4.6 3-3.4 8-1.6.4-1.1-1.1-2.3-1.1.2-3.6 3-4.6 4-7.4 1.1.4.4 1.7 1.7.5z"/><path fill="#ECAD87" d="M353.6 408.4c-.1-.5.2-.5.6-.6-7-2-13.3 6.4-17.7 10.8 4.4-5.9 9-11.6 18.3-12.5.2 1.2-.4 1.5-.6 2.3h-.6zm-17.1 10.8c2.4 7.3 15-9 17.1-10.3-4 5.5-8.8 10.2-15.4 13.1-1.6-.1-2.4-1-2.3-2.9.2.1.4.1.6.1z"/><path fill="#F2DBC4" d="M207 408.4c.8-.6 1.1-1.5 1.7-2.3 3.1-.4 4.6.7 7.4.6 3.1-1.1 1.2-7.2 1.7-10.8 2-.1 3-1.1 4.6-1.7h.6c3.3-.6 8.6-2.3 11.4 0 0 .6-.7.4-1.1.6-6.1.2-11.2 1.4-14.3 4.6h-.6c.1 2.9-.4 6.4.6 8.6-1.6.3-4.8-1-4 1.7.1 1.5 2.5-2.3 3.4 0-2.4-.7-2.2 1.2-4 1.1v-2.3c-2.2-.1-4.2 0-5.7.6.7 5-2.5 6.3-2.9 10.3-2.5-2.2.8-7.3 1.1-10.3.1-.4.1-.5.1-.7zm129.5 10.2c4.4-4.4 10.7-12.8 17.7-10.8-.3 0-.7.1-.6.6v.6c-2.2 1.3-14.7 17.6-17.1 10.3v-.7zm-296.6-2.8c-2.1 0-2.5-1.7-3.4-2.9-7.5 3.3-11.6 11.5-7.4 20.5-2.6.7-2.2-1.6-4.6-1.1-.9-.5 2.1-1.7 2.3-2.3 1-2.9-2-8.9-.6-13.1 1.8-5 8.4-5.3 9.1-5.1 1.2.2 3 1.6 4.6 4z"/><path fill="#ECAD87" d="M1.7 419.2c1.6-1.4 1-.6 2.9 0 .2-1.4-1-1.2-.6-2.9.6 0 .7-.5 1.1-.6 1.5 0 2.7 2.4 3.4 0-.9-.1-2.1.2-2.3-.6.3-1.2.9-2.2 2.9-1.7.3 1.8-1.1 1.8 0 2.9-.2 1.9-1.7 2.5-1.1 5.1-1.6.4-2.8 1.4-2.3 4-1.8-.5-2.2.5-2.8 1.1 1.9-3.3-4.6-3.1-1.1-6.8-.1-.1-.1-.3-.1-.5z"/><path fill="#F2DBC4" d="M47.9 422.1c2.1-1.7 3.5-4.1 5.7-5.7 5.3 2.5 9.5 6.1 11.4 12-3.7-3.1-6.1-7.6-10.3-10.3-4.8 1.8-5.8 7.5-8.6 11.4-2.2-.3-1.6-3.4-1.7-5.7.3.2 2.2 1.4 2.3 0 .3-.8 1.1-.9 1.2-1.7zm96.4-4.6h4.6c-.4 4-4.8 3.9-5.1 8-3.5-1.8 1.3-4.2.6-6.8-.1-.5-.1-.8-.1-1.2zm-46.2 11.4c1.1-.8 2.7-1.1 4.6-1.1-.1-6.8 8-11.3 14.3-8-8 .6-12.9 4.2-14.3 11.4-1.4-.9-3.8-.8-4.6-2.3z"/><path fill="#ECAD87" d="M319.4 422.1c-3.8-1-9-.4-12 1.1 0 2.1 3 1.2 4 2.3-2.3.1-4.5-.1-4.6-2.3 1.7-2.5 9.8-3.4 12.6-1.1z"/><path fill="#F2DBC4" d="M319.4 422.1c3.4.6 6.5 1.5 8.6 3.4-3.9 5.4-10.5.4-16.5 0-1-1.1-4-.2-4-2.3 2.8-1.5 8.1-2.2 11.9-1.1zm34.8-2.3c4.9.2 5.4 4.9 7.4 8-4.4-.8-4.9-5.4-7.4-8zm-142 3.4h4.6c-.8 3.6-5.4 3.3-5.1 8-4.7-1.4.4-5.9.5-8z"/><path fill="#171526" d="M144.9 427.2c5.9 6.4 13.7 1.3 19.4-1.7.5 1.6 1.8-.8 3.4 0v1.1c-.8.2-.5 1.4-.6 2.3-1.4.1-1.8-.9-2.9-1.1-1.8 1.6-2.5 4.3-5.1 5.1-4.9-1.3-8.2.1-13.1-2.3.1-1.4.1-2.8-1.1-2.9v-.5zm111.2 18.2c-4.5-.5-7.5.5-10.8 1.1 1.2-2.5 3.4-.7 4.6-3.4.5.4.9 1 1.1 1.7 2.2.3 5.5-5.4 1.7-5.7 1.3-1.5 2.5-3.2 4-4.6-.8 2-3.2 5.9-.6 8 1 1.2 0 1.5 0 2.9z"/><path fill="#698AA7" d="M290.9 457.4c2.9-1.2 7-1.2 10.8-2.9-.3 1.8 1.1 1.8 0 2.9-1.7-1.1-4.1.1-6.8 2.3-1.6.2-.5-2.1-1.7-2.3-2 .2 1 2.5-.6 2.3-.5-.1-.5.2-.6.6-1-.1-1.3-1-1.1-2.3v-.6z"/><path fill="#F2DBC4" d="M96.4 428.9c-7.8.8-10.7 6.4-12.5 13.1-.5-4.9 2.3-11.4 6.3-13.7h.6c.7-.5 5.7-1.6 5.6.6z"/><path fill="#ECAD87" d="M333.6 430c3.1 1 3.7 4.7 7.4 5.1-1.5 4.1 3.1 6.1 3.4 10.3 2-.1 3.3 1.9 5.1 3.4 3.9-.7.5-5.4 5.7-5.1-2.1 1.9-2.7 5.3-5.1 6.8-3.1-.7-3-4.6-8-3.4.1-.8 1.4-.5 2.3-.6-2.9-6.1-5.5-12.4-10.8-16v-.5z"/><path fill="#F2DBC4" d="M342.2 447.1c-6.7-4-8.3-11.1-11.4-17.7 1.6-.5 1.5.8 2.9.6v.6c5.4 3.6 8 9.9 10.8 16-.9 0-2.2-.3-2.3.5zm22.2-11.4c-3.9 3.8-12.5.4-14.3-4.6 5.7-2 10.1 2 14.3 3.4v1.2zm-237.8-2.2c4.6-.4 8.4 3 8 5.7-2.3-2.1-4.6-4.1-8-5.1v-.6zm147.7 2.8c.1-3.2-3.1-2.9-5.7-3.4-2.9 3-8.2 3.6-10.8 6.8.4 3.3 1.4 5.8 1.1 9.7-1.9-1.4-5.2-1.2-8.6-1.1 0-.6.7-.4 1.1-.6-1.3-1-5.4-.1-6.3 1.1 1.1-4.2 8.9-1.7 10.8-3.4.1-1.4 1.1-1.8 0-2.9-.3-1.4-.8-2.6-.6-4.6 4.2-4.1 10.5-6.3 17.7-7.4 1.1 1.4 2.1 2.8 1.7 5.7 0 .1-.2.1-.4.1zm-208.1 6.9c.7-4-7.1-5.9-2.9-8 .1 3.2 5.3 4.1 2.9 8zm209.3-4.6c1.6 1.6 2.4-.5 4-.6-.3 1.8 2.8.2 2.3 2.3-1.4 1.2-3.9 1.4-4.6 3.4-1.4-1-.8-2.7-1.7-5.1z"/><path fill="#171526" d="M180.8 440.9c-3.6 3.6-7.4 7-10.3 11.4-1.1-1.3 1.5-2.3.6-5.1 1.3-.3.8 1.1 1.7 1.1 1.3-3.5 5-7.5 8-7.4zm-16.5 21.1c.2-.8.7.2 1.7 0-.2 3.6.1 6.8.6 9.7-2.2-.1-.6-3.9-2.9-4 1.9-2.2 1.4-4 .6-5.7z"/><path fill="#F2DBC4" d="M319.4 444.9c1.4-.9 1-3.5 3.4-3.4.7 9.7-2.1 15.8-5.7 21.1.2 2.3-.2 1.3-1.7 1.1-.5-.7-.8-1.5-.6-2.9.9-5.9 2-11.7 4.6-15.9z"/><path fill="#171526" d="M310.3 495.1v1.1c.8 1.7 4.9.1 4.6 2.9-4.2-1.5-8.1-3.3-9.1-8 .8.1 1 .9 1.7 1.1 0 .8.3 1.2.6 1.7h1.1c-.3 1 .4 1.1 1.1 1.2z"/><path fill="#F58D1F" d="M308.6 497.3c-4.7-2.4-6.3-5.4-5.7-11.4h.6c-.2 3.8 1.8 9.3 5.1 11.4z"/><path fill="#F2DBC4" d="M25.7 444.3c.7.5 1.5.8 2.9.6-.4 2.4-3.2 2.5-2.3 6.3-3.4-.8-2.3-5.3-.6-6.9zm154-.6c-1.4 1.5-2.6 2-1.7 4.6-1.8 1.3-3.3 2.8-4.6 4.6.4 3.2 1.3 5.9 2.3 8.6-1.2.3-5.7-1.8-6.8 1.1-.8.3-1.4.8-2.3 1.1.3-3.3 2.7-4.5 5.7-5.1-1.4-8.9 2.7-12.1 7.4-14.9z"/><path fill="#fff" d="M89 446.6c1.3 0 1.7 1 3.4.6-1.4 3.4-7.5 5-6.8 8.6-3.1-2.1.7-6.7 2.3-8 .1-.7.6-1 1.1-1.2zm156.2 2.3c.9-1.2 5-2.2 6.3-1.1-.4.1-1.1 0-1.1.6-1.5.8-2.6 1.9-4 2.9-.7.2-.9 1-1.7 1.1v3.4c-1 1.6-.5-2.9-.6-4-.5-1.9.9-1.9 1.1-2.9zm-53 2.8c-2.4-1.9-2.6-6.2-5.7-7.4-3.7.5-6.4 2-8.6 4-.9-2.6.3-3 1.7-4.6 4.5-5.7 14 2.6 12.6 8z"/><path fill="#171526" d="M26.2 452.3c8 5.4 16.1-1.5 21.7-4-.6 2.7.9 3.2 1.7 4.6 3.6-.2 8.3.7 10.3-1.1-1.8 6.6-10.8 5.6-13.1 0-4.7.3-13.6 7.2-21.7 3.4-.8-1.3 1.5-2.1 0-2.3 0-.6.7-.5 1.1-.6z"/><path fill="#F2DBC4" d="M200.2 449.4c-.4 1.9-2.7 1.9-3.4 3.4.6 2.2 2.2-2.2 2.9 0-2.3 1.1-3.1 3.8-5.7 4.6.7-2.4-1.2-2.2-1.1-4 4.1.4 3.6-3.9 7.3-4z"/><path fill="#ECAD87" d="M355.9 464.3c.4-3 2-4.8 1.7-8.6-2.2.3-2.7 2.2-3.4 4h-.6c1-2.4 1.5-5.4 5.1-5.1-.5 3.6-1 7.3-2.8 9.7z"/><path fill="#F2DBC4" d="M355.9 464.3c-1.3 4.2-2.8 8.2-5.7 10.8-3.8-4 1.7-11.4 3.4-15.4h.6c.7-1.8 1.3-3.7 3.4-4 .3 3.7-1.3 5.5-1.7 8.6z"/><path fill="#ECAD87" d="M335.9 456.3c-7.1 1.8-12.5 5.4-17.7 9.1 1.7 1.6 4.1-.8 6.8 0-2.6 1-4.9 1.6-7.4 1.1 1.9-5.5 8.7-6.1 12.5-9.7 2.7.5 3.5-.7 5.8-.5zm.6 0c.5-1.2 4-.6 4.6 0 0 .8-.1 1.6.6 1.7-2.3 4-6.1 3-8.6 6.8-2.9-1.9-4.2 2.1-6.3.6 5.1-2.2 10.7-3.7 13.7-8-.1-1.6-2.4-1-4-1.1z"/><path fill="#171526" d="M313.7 456.3c2.2-.3.7 3.1 1.1 4.6-.2 1.3.1 2.2.6 2.9h-1.1c-2.2-1.7-.5-4.7-.6-7.5z"/><path fill="#F2DBC4" d="M335.9 456.3h.6c1.6.1 3.9-.5 4 1.1-3 4.3-8.6 5.8-13.7 8h-1.7c-2.7-.8-5.2 1.6-6.8 0 5.1-3.8 10.5-7.3 17.6-9.1zm-91.8 5.7v.6c-1 .1-1.2-.7-2.3-.6 2.1-2.1.8-7.6 2.3-10.3.1 1.1-.4 5.6.6 4v-3.4c.8-.1 1-.9 1.7-1.1-1.3 3-.7 8-2.3 10.8z"/><path fill="#ECAD87" d="M365.6 464.3c-3.8 1.9-6.9 4.5-9.7 7.4.7-2.1 2.9-2.8 4-4.6-.4-.5-1-.9-1.7-1.1.1-.5.6-.6.6-1.1.5.1.5-.2.6-.6 1 .1 1.3 1 1.1 2.3 1.2-1.3 2.9-2 5.1-2.3z"/><path fill="#F2DBC4" d="M365.6 464.3c2.8-1.1 5.7-4.1 8.6-3.4-1.7 10-13.1 13.1-21.1 14.8.1-2.2 1.7-2.9 2.9-4 2.7-2.9 5.8-5.6 9.6-7.4z"/><path fill="#fff" d="M250.9 463.1c1.3-1.1 3.6-1.3 6.3-1.1-2.7 2.8-5.9 5.2-8 8.6-.5-.4-1.3-.6-2.3-.6 0-3.7 2.3-5 4-6.9z"/><path fill="#ECAD87" d="M168.8 462.5c-.2 2.5.6 6-1.1 6.8-1.3-.9-1.2-3.3-1.1-5.7.8-.2 1.4-.8 2.2-1.1z"/><path fill="#698AA7" d="M297.7 465.4h-4c.4-1.6 1.6-2.2 3.4-2.3 0 1 .7 1.2.6 2.3z"/><path fill="#ECAD87" d="M335.4 480.8c-4.9-3.5-8.1-8.6-14.3-10.8.6 5.3 6.7 10 11.4 13.1-5.5-2.7-11.5-7.8-12-13.7 6.8 2 10.5 7 14.9 11.4z"/><path fill="#F2DBC4" d="M332.5 483.1c-4.7-3.1-10.8-7.8-11.4-13.1 6.2 2.2 9.4 7.4 14.3 10.8.1 2.1 3.6 2.8 2.3 4.6-2.5 0-3.2-1.9-5.2-2.3z"/><path fill="#fff" d="M166.5 478.5c-5.5-1.9-1-6.4 1.1-8.6 1.1 1.4 3.2 1.7 4 3.4-2.9-.6-3.1 1.4-5.1 1.7v3.5z"/><path fill="#698AA7" d="M266.9 480.2c-1.5 1.8-5.6 1.1-8 .6-1.2 2.2-3.8 3-6.3 4 .6-2.4 4.4-1.6 5.1-4-1.1-.3-2.5 1.8-2.3-.6 3-.9 6.2-1.8 8-5.1 1.6 2.3-2.3 3.1-2.3 5.7 2.7.4 3.5-.8 5.8-.6z"/><path fill="#ECAD87" d="M373 481.4c4.2 3.3 10 .6 14.8 0-3.5 1.9-12.4 4.1-15.4 0h.6z"/><path fill="#F2DBC4" d="M373 481.4c3.7-3.4 15-8.2 19.4-2.3-.5 1.8-2.7 1.9-4.6 2.3-4.8.5-10.6 3.3-14.8 0z"/><path fill="#ECAD87" d="M311.4 480.8c1.1-.8 3.5-.3 2.9-2.9h2.9c-.3 3.3-5.6 7.1-6.8 5.7 1.8.6.8-1.7 1-2.8zm47.9.6c6.1 2.7 8.6 8.9 11.4 14.8-3.6-5-5.5-11.6-11.4-14.3v-.5z"/><path fill="#F2DBC4" d="M370.7 496.2c-.1 1 .7 1.2.6 2.3-10.3-2.1-12.8-11.9-17.7-19.4 2.8-.1 3.9 1.5 5.7 2.3v.6c5.9 2.6 7.8 9.2 11.4 14.2z"/><path fill="#ECAD87" d="M391.3 483.6c-4.8 3.4-10 6.4-10.8 13.7 3.6-.3 14.7-13 10.8-14.3.6-1.8 1.5.7 2.3.6-2.9 5.8-8.3 12.2-12.5 14.8-2.7-6.4 4.6-12.7 10.2-14.8z"/><path fill="#F2DBC4" d="M391.3 483.6v-.6c3.8 1.3-7.2 13.9-10.8 14.3.8-7.3 5.9-10.3 10.8-13.7z"/><path fill="#ECAD87" d="M393.5 503.6c.9-5 1.4-10.4 1.1-16.5-.1-.7-.6-.3-1.1 0 3.2-4.9 1.8 15.2 0 16.5z"/><path fill="#F2DBC4" d="M393.5 487.1c.5-.3 1-.7 1.1 0 .3 6.2-.2 11.6-1.1 16.5-.8 2.6-.6 6.2-3.4 6.8-1.6-8.4.6-16.5 3.4-23.3zm-84.4 6.8c2.1-2.5 7.2-5 10.3-4.6-.5 3.7-3.2 5.1-5.7 6.8-2 .5-2.4-.6-3.4-1.1-.7 0-1.4-.1-1.2-1.1zm16.6 1.2h.6c1.3-1.2 2.2-2.8 4.6-2.9-.4 3.8-1.9 6.4-4 8.6 0 .6-.5.7-.6 1.1-1.8.6 1.6.5 1.1 1.7-2.2.1-4.2 0-5.1-1.1 0-.9 1.6-.3 1.7-1.1-.7-.5-1.5-.8-2.9-.6-2.5-2.8 2.5-4.1 4.6-5.7z"/><path fill="#ECAD87" d="M346.8 505.9c-2.6-1.9-2.9-9.2-1.7-13.1 4.3 1.4 4 7.4 4 13.1-1.2-4.2-.1-10.6-3.4-12.5-1.6 3.8-.3 9.6 1.1 12.5z"/><path fill="#F2DBC4" d="M346.8 505.9c-1.3-2.9-2.7-8.7-1.1-12.5 3.3 2 2.3 8.4 3.4 12.5 1.2 1.2-.3 1.6 0 3.4-1.3-.4-1.3-1.6-2.3-3.4z"/><path fill="#F58D1F" d="M375.3 537.3c-13.4-3-16.6-16.1-25.7-23.4 9.9 6.4 13.1 19.5 25.7 23.4z"/><path fill="#ECAD87" d="M411.8 506.5c-.1-3.5-9.7-.4-12 1.1.7-3.3 14.4-5.2 12-1.1z"/><path fill="#F2DBC4" d="M411.8 506.5c-3.9 1.6-7.7 3.3-12.5 4 .2-1-1.8-3.1.6-2.9 2.2-1.5 11.8-4.6 11.9-1.1z"/><path fill="#ECAD87" d="M398.1 523c5-5.3 10-10.5 16-14.8-5.4 4.8-10.4 10.1-16 14.8zm4.6 1.7c5.3-4.2 9.1-9.9 13.1-15.4-3.1 6.4-7.4 11.6-13.1 15.4z"/><path fill="#F2DBC4" d="M414.1 508.2c.3-1.8.9-3.3 3.4-2.9.3 2.1-1.1 2.7-1.7 4-4 5.5-7.8 11.2-13.1 15.4-2 1-4.2 4.3-6.8 2.9-.5-2.8 2.4-2.2 2.3-4.6 5.5-4.7 10.5-10 15.9-14.8zm-53.1 12.5c-5.5-2.6-2.4-10.9-.6-15.4 3.2 2.9 1.6 11.5.6 15.4zm51.9 9.7c-.5-10.5 1.7-18.5 7.4-22.8 1.3.4 1.4 2 2.3 2.9-3.6 5.7.7 19.4-8 20-.5-.1-1.1-.1-1.7-.1z"/><path fill="#ECAD87" d="M424.3 512.2c3.9 3 8.9 7.9 8 13.7-.1-5.3-4.6-9.9-8-13.7z"/><path fill="#F2DBC4" d="M432.3 525.9c0 1.3 1 1.7.6 3.4-4.6-3.2-11.3-10.4-8.6-17.1 3.4 3.8 7.9 8.4 8 13.7zm-49.6 7.4c-6.5-4.2 2.8-14.2 5.1-18.8 2.3 5.7-2.9 13.7-5.1 18.8z"/><path fill="#171526" d="M446 540.7c-4.3-.2-7.2-2-9.7-4 1.6-.5 1.5.8 2.9.6 2.3.7 4.9 3.6 8 1.7 0-1-.1-1.8-.6-2.3 2.3-1.6-2.8-3.6-.6-5.1 1.2.7.6 3.2 2.3 3.4-1 1.9.4 2.9 0 5.7h-2.3z"/><path fill="#C12026" d="M170 44.5c-9 .4-20.2 2.8-24 10.3-1.2.2-1.1 1.5-1.7 2.3-.9.6-1.4 1.6-2.3 2.3-1.6.1-.7 2.7-2.9 2.3 5.2-10.4 16.1-20.2 30.9-17.2zm-8 8c-1.1 1.8-5.4.3-6.3 2.3-3.5-.3-4.4 2-6.3 3.4-6 3.5-11.4 7.6-13.7 14.8-1.2 1.5-1.5 3.8-2.3 5.7-.4-.2-.7.3-.6.6-2.3-5.8 6.8-14.2 9.7-18.3.6-.6 1.1-1.2 1.7-1.7 4.7-3.2 10.8-7.9 17.8-6.8z"/><path fill="#171526" d="M363.9 73c.2-2.7-2-3-1.1-6.3 1.4-1.3 3.2-2.1 6.3-1.7 5.3 9.7 16.2 16.9 19.4 26.8-7-1.2-10.5-5.8-14.8-9.7-3.7-2.7-5.9-6.7-9.8-9.1z"/><path fill="#C12026" d="M162 81.6c-3.8.9-7 4.9-10.3 4.6-.3 1.4.7 4.1-.6 4.6-.4-.1-.7-.5-.6-1.1 1.8-1.8-1.6-4.1 0-5.7 1.5-.2.4 2.2 2.3 1.7 1.2-3.6 5.8-1.9 5.7-5.7 1.1 0 .7 1.6 2.3 1.1-.2-2.5 0-4.6 2.3-4.6.3 2.3-2.5 3.4-1.1 5.1zm97.5 13.1c3.1-2.6 4.9-6.5 6.8-10.3h5.7c-1.2 1.3-4.9 0-6.3 1.1.2 4.9-3 6.5-5.1 9.1-.3.1-.7.1-1.1.1z"/><path fill="#F2DBC4" d="M237.3 100.4v1.1c-3.1-.2-7.1.6-8.6-1.1 1.8-.7 4.1-.9 6.3-1.1 1.5-.5 1.1 1.1 2.3 1.1z"/><path fill="#fff" d="M158.6 102.1c-.5.1-.5-.2-.6-.6-2.2.7-.7 5-1.1 7.4-2.3-1.8-.6-6-.6-8.6 1.2-.2 1.5.4 2.3.6v1.2z"/><path fill="#C12026" d="M105.5 107.2c-4.6 1.5-9.6 2.5-12.5 5.7-.6-.1-.9-.6-1.1-1.1 3.5-2.1 8.4-5.9 13.6-4.6zm87.8 6.9c-.9-.1-2 .1-1.7-1.1 2.2-1.8 2.5-5.5 5.7-6.3v1.7c-1.6 1.6-3.2 3.2-4 5.7zm-83.2 2.2c-5.2 1.5-12.3 1-12 8-4.5-6.8 8.7-11.3 14.3-8h-2.3zm84.4 2.3c-.9-.1-2 .1-1.7-1.1 2.6-2.1 3-6.5 5.7-8.6-.2-.7 1.6-2 1.7-.6-1.5 3.9-4.9 5.8-5.7 10.3zm3.4 2.3c.9-2.7 1.4-5.8 5.1-5.7-1.9 1.7-2.3 4.9-5.1 5.7zm-1.7-1.1c-.3 0-.7-.1-.6-.6.8-3.6 3.9-7.9 6.3-8-1.8 3-4.3 5.2-5.7 8.6zm6.8 4c2.1-1.2 1.2-5.3 4.6-5.1-.9 2.5-1.7 5.1-4 6.3-.4-.2-.7-.6-.6-1.2zm-1.1-.6c-.2 1.2-3.6 4.8-2.9 1.7 1.5-2.3 1.6-6 5.1-6.3l-2.2 4.6zm-46.8 4c.7.1.6.9.6 1.7-4.1.2-6.1 2.6-9.7 3.4v.6c-.6-.1-.9-.6-1.1-1.1 3-2 6-3.9 10.2-4.6zm-33 1.7c-2.3-.8-6 0-6.8 2.3.1 1.6-1.7 1.3-1.7 2.9-.8.1-.5 1.4-.6 2.3h-1.1c-.2-5.5 3.5-7.1 6.3-9.7 1.6.2 3.9.1 3.9 2.2z"/><path fill="#171526" d="M170.5 142.6c1.7.2 2 1.8 4.6 1.1 2.2-.4.7-4.6 4-4 .3.5.6.9.6 1.7-.4 2.5-3.5 7-.6 9.1v2.3c-1.8.1-4 1.7-8 1.1-3.1 1.6-4.9.9-6.8-1.1v-1.1c.5-.3.9-.6 1.7-.6 0-1.7-1.7-4.6.6-5.1.7.5 1.5.8 2.9.6-.3-1.9-.2-3.5 1-4zm5.2 4.5c0-2.9-3.2-.1-4.6-2.3.5 2.8-4.5 3-2.9 5.1 1.2 1.8 4.7 1.4 7.4 1.7.1-1.4.1-2.9.1-4.5z"/><path fill="#C12026" d="M179.7 141.4c2.9 2.5-1.8 4.8-.6 9.1-2.9-2.1.2-6.6.6-9.1zm172.8 1.2c3.4 12.3-10.3 17.4-12.5 27.9l-2.3 9.1c-2.2 5.8-4.2 14.7-3.4 21.7-2.2 5.6-2.1 13.9-2.3 20 .3 13.7-.5 25.8 0 37.1-2.6 2.3 0 9.9-1.7 13.1-1 0-1.5-.4-1.7-1.1 3.5-30.3-.2-65.3 6.8-90.7 2.9-10.4 9.1-19.2 15.4-27.4 1.6-2.1 1.6-6.6 1.7-9.7z"/><path fill="#fff" d="M331.4 188.2c1.2 4.3-1.8 8.6-1.7 13.7l-1.1 2.3c-.4-6.9-.2-11.5 1.7-16.5.1 1.2-.4 6.1.6 4.6.2-1.3-.8-3.8.5-4.1zm-12 8.6c1.4-.3-.3-3.7 1.7-3.4-.4 4.6-.8 12.3-3.4 15.4v-4.6c.4-2.6.9-5.2 1.7-7.4zm-155.7 59.3h-.6c-1.1 1.4-.4-3.8-.6-5.1 2.2.9 1.2-1.5 2.3-1.7.8 3.3-1.5 3.4-1.1 6.3v.5zm162.5 4.5c-.8-4.6-.3-12 0-18.3.7-12 .4 4.4.6 8.6.2 4.1 1.5 8.7-.6 9.7z"/><path fill="#F2DBC4" d="M331.9 258.4c-.5-11.2.3-23.4 0-37.1 1 11 1 26 0 37.1z"/><path fill="#C12026" d="M85.6 321.7c-3-8.4 5.9-20 2.3-29.1 6.5-3.3 8.9-14 14.8-17.7 4.8-3 10.4-2.5 16.5-5.1 4.2-10 9.8-17.8 10.8-29.7.4-4.7-.9-10.2 0-15.4.9-5.5 6.1-10.9 8.6-14.3 3.8-5 4.3-11.8 6.8-14.8 6.5-7.8 19.4-7.3 27.4-14.8h3.4c.1-4.9 2.9-8.9 8-10.3 1.1.2 1.4 1.2 2.9 1.1-1.6-9.9 3.4-11.9 3.4-21.1 1 0 1.5.4 1.7 1.1-1.4 3.4-.7 8.2-4 10.8-.7.8-.7 1.4 0 2.3 1.1 10.6-3.7 15.4-8 20.5-2.3 8.9-8.3 14.1-13.7 20-2.5 7.1-7 14.4-8 23.4-1 9.2 3.2 18.1 3.4 27.4-.3 1.4-2.1 4.1 0 4.6 1.1-1 1.3-2.9 1.7-4.6v-.6c2.4-6.4 5.2-12.3 7.4-18.8 3.3-6.4 6.5-12.9 10.3-18.8v-.6c3.9-3.3 6.2-8.8 9.7-13.7 3.2-4.5 6.5-9.3 9.7-13.7 7.4-10.2 16.7-22.7 26.8-29.1 1.6-1.9 5-1.8 6.8-3.4 1.1-.2 1.4-1.2 2.9-1.1 9.6-.3 20.6 1.4 22.8 8-2.6-1.2-6.8-.9-8-3.4-10.3 6-19.6 14.8-27.4 22.8-2.7 2.8-5.8 5-8 7.4-1.7 1.8-8.3 11.2-9.1 14.3-4.2 15.5 1.6 31.2-1.1 46.8-16.4 13.9-32.7 29.1-49.6 43.3-6.5 5.5-13.1 10.8-21.1 13.7-11.8 2.3-15.5-9.4-24-10.8-4.9-.8-11.6 3-14.8 6.3-4.6 4.6-6.1 11.5-8.6 17.1-.9-.2-.5-1.8-2.3-1.1 0 .4.1 1.1-.4 1.1zm47.3-2.9c-1.4-.2-1.2 1-2.9.6-5-.1-8 .9-11.4-1.1-.2 4.1.5 9.3-.6 12.5-1.5-4.2.3-11.1 0-14.3h.6c4.5 3 13.7.9 17.7-1.7-.4 2-2.8 2.1-3.4 4z"/><path fill="#171526" d="M330.8 321.7c1 4.9 1.3 10.4 2.9 14.8.1.4 0 1.1.6 1.1v5.7c.1.9-.2 2.1.6 2.3-.5 2.4-1.6 4.1-2.3 6.3-1.2 1.4-.6 4.7-2.9 5.1-5.6-.5-9.8-5.2-13.1-9.7-4.5-6.2-5.5-15.8-8.6-23.4-2.6 6.4-1.9 16-4 22.8v1.1c-2.3 5.9-1.8 14.5-6.3 18.3-1.5.2-3 3.2-4 .6 9-10.1 8.1-32.1 11.4-43.3 1.1.1 1.3-.6 2.3-.6.6-3.2-.6-8.2 3.4-8 .7 14.9 3.8 34.2 18.8 39.4.3-4.5 3.3-10.3-.6-13.7 3-1.7-.3-3 1.7-5.7-1-1.7-2.6-.1-3.4-1.1.1-.8 1.4-.5 2.3-.6.6-7.8-2.7-10.8-1.7-17.7-2.7.6-2.1-5.1-1.7-5.7 4 3.3 3.3 6.2 4.6 12z"/><path fill="#C12026" d="M141.4 320.5l-19.4 17.1h-2.3c3.6-4.2 7.5-8.1 12.5-10.8 3.6-4.4 7.9-8.1 12-12 2.3-1.1 2.9-3.9 5.7-4.6-1.8 4.5-6.6 5.9-8.5 10.3z"/><path fill="#171526" d="M103.8 336.5c.1-.9-.2-2.1.6-2.3 1 1.6 4.5.8 6.3 1.7-.5-2.5-1.9-4.2-2.3-6.8 6.2 4.5 5.1 16.2 10.3 21.7-.7 0-.8.7-1.7.6-1.6-1.5-2.3-3.8-3.4-5.7-.3-1.8-1-3.2-1.7-4.6-1.7-1.8-2.5-4.4-5.7-4.6-.1.9.1 2-1.1 1.7-.9-.2-1.3-.7-1.3-1.7zm-8 14.3c-.3 1.8 1 2 .6 4h.6c.1.6.6.9 1.1 1.1-3 4-9 12.7-14.8 6.8v-1.7c.2-7.3 7.6-7.6 12.5-10.2z"/><path fill="#C12026" d="M164.8 382.7c1.9.2 2.3 1.9 2.9 3.4.9 1.4.1 4.4 1.1 5.7v.6c0 1.1-1.6.7-1.1 2.3 2.2-.7 1.7 1.3 1.7 2.9 2.8-2.2 8.3-4.6 12-4 1.3-.2 2.2.1 2.9.6 2.8 7.5-.7 11.4-3.4 17.1-.6.1-.4 1.1-1.1 1.1 2 3.1 4.2 6.1 5.1 10.3h-.6c-2 4.7-7 6.3-12.5 7.4-1.9-.6-2.4-2.6-4-3.4v-1.1c.7-2.4-1.2-2.2-1.1-4-1.7.4-2.4 1.8-2.3 4-5.7 3-13.5 8.1-19.4 1.7-.2-.8-1-.9-1.1-1.7.3-4.1 4.8-4 5.1-8h-4.6c-.3-.5-.6-.9-.6-1.7-2.7.4-3.8-.8-5.1-1.7-.1-.5-.6-.6-.6-1.1-1.1-4.9 2.7-4.9 3.4-8 1.8-1.8 1.9-5.3 5.1-5.7 2.8-2.9 6 .9 8.6 1.7.2-4 .1-7.7-1.1-10.3 1.1-5.1 7.8-4.8 10.7-8.1z"/><path fill="#171526" d="M45.6 391.8c2.4-1.7 4.6-3.8 5.7-6.8 1.5 3.7-1.1 7.3-5.7 6.8z"/><path fill="#fff" d="M164.3 425.5c-.1-2.2.6-3.6 2.3-4-.1 1.8 1.8 1.6 1.1 4-1.7-.8-2.9 1.5-3.4 0z"/><path fill="#F2DBC4" d="M377.6 529.3c.2 2.1.1 3.9-1.7 4-3.6-2.5-2.8-9.5-1.7-13.7.7-2.6 1.7-6.8 3.4-7.4.4.5.6 1.3.6 2.3.5 5.2-1 11.5-.6 14.8z"/><path fill="#fff" d="M199.6 452.8c-.6-2.2-2.2 2.2-2.9 0 .7-1.5 3.1-1.5 3.4-3.4 4.1-1.4 9.8-.1 9.7 4.6h-.6c-1.8-2.6-6.8-3.8-9.6-1.2z"/><path fill="#171526" d="M395.8 47.3c0-1.3-1-1.7-.6-3.4 3.9-4.2 8.1 1.1 12 5.7 4.4 5.2 11.4 14 11.4 21.1-.5.1-.6.6-1.1.6-2.7-3.4-6.7-5.5-9.7-8.6.1-.5-.2-.5-.6-.6-3.8-4.9-8.3-9.1-11.4-14.8zm-259.5 361.1c-1.1-.1-.4-1.9-1.7-1.7 1.7-1.9 5.8-4.5 4.6-7.4-.3-.9 3.1-.9 2.9 0-2 3-4.4 5.6-5.8 9.1z"/><path fill="#C12026" d="M228.1 39.9c1.8-.4.9-3.7 2.9-4 6.9 5 17.5 18.6 10.3 27.9.5 1.9 1.6 3.3 1.1 6.3-2.3 2.8-5.4 4.9-8 7.4-2.4.1-2.4-2.2-4.6-2.3-2.8 7.5-14.7 4.3-20.5 1.1l.6-3.4c-5.8.6-7.1-3.2-9.7-5.7-.1-5.8 1.2-10.2 6.3-10.8-1.8-4-5.9-3.2-6.3-7.4-.4-4.7 5.9-9.4 8-13.1 1.3-1.3 1.9 1 3.4 1.1.6-5.3 5.3-6.5 8-9.7 6.5.6 5.4 8.7 8.5 12.6zm-9.1 359.3c3.1-3.2 8.2-4.4 14.3-4.6.2.7 1 .9 1.1 1.7.4 2.5-.7 5.3 0 6.3h1.1c.2 1.1-1.5 4.3.6 5.1 2-2 3.8-4.2 6.8-5.1 2.1.8 2.7 3 4.6 4v1.1c.2 4.6 0 11.2-3.4 13.7-3.8.4-1.5 3.3-.6 5.1 1 2.1 1.3 4.4.6 6.8-6.1 2.3-11.2 1.7-17.1-.6-1.5 2.5-2.6 5.4-5.7 6.3-2.6-1.7-3.6-5.2-7.4-5.7-.5-.8-.9-1.8-2.3-1.7v-.6c-.3-4.6 4.4-4.4 5.1-8h-4.6c-1.4-2.8-3.5-1.7-6.3-3.4v-.6c.4-4 3.5-5.2 2.9-10.3 1.5-.6 3.5-.7 5.7-.6v2.3c1.8.1 1.6-1.8 4-1.1 1.4-.2 1.2 1 2.9.6-1.6-2.6-.4-8.2-2.3-10.7zm-194.5 33.1c2.3-.4 2 1.8 4.6 1.1-4.2-9-.1-17.2 7.4-20.5.9 1.2 1.3 2.9 3.4 2.9 2 2.1 2.9 5.4 4.6 8 .1 2.3-.5 5.4 1.7 5.7 2.8-3.9 3.7-9.6 8.6-11.4 4.1 2.7 6.6 7.1 10.3 10.3.1 3-1.4 4.3-1.7 6.8-4.3 2.1 3.6 4 2.9 8v1.1c-.1 2.5-1.8 3.5-2.9 5.1l-3.4 2.3c-2 1.8-6.7.9-10.3 1.1-.8-1.3-2.3-1.9-1.7-4.6-5.6 2.4-13.7 9.4-21.7 4v-1.1c-.9-3.8 1.9-3.8 2.3-6.3-1.3.2-2.2-.1-2.9-.6-.3-.8-.8-1.4-1.1-2.3-1.3 0-1.7 1-3.4.6-1.3-1.5-2-3.7-2.3-6.3 1.2-1.8 2.7-3.6 5.6-3.9zm73.6-3.4c.8 1.5 3.2 1.4 4.6 2.3 1.3-7.2 6.3-10.8 14.3-11.4.5 1.4 2 1.8 2.8 2.9 1.2 3.3.6 7.1 1.1 9.7v2.3c3 .7 2.9-1.7 5.7-1.1v.6c3.4 1 5.7 3 8 5.1.7 1.6 1.7 2.9 1.7 5.1-.9 6.7-7.2 9.9-14.8 8v1.7c-.5 1.6.8 1.5.6 2.9-1.1 7.3-11 12-17.7 6.8.1-1.4.1-2.7-.6-3.4v-1.7c-4.8.2-7.2 2.7-11.4 3.4-1.4-2.8-3.6-4.7-6.8-5.7v-.6c-.6-3.6 5.4-5.1 6.8-8.6-1.7.4-2.1-.6-3.4-.6v-1.7c-1.4-1.1-5 0-5.1-2.3v-.6c1.8-6.7 4.8-12.3 12.5-13.1h1.7zm152.3 19.4c3.3-.1 6.7-.2 8.6 1.1.3-3.9-.8-6.4-1.1-9.7 2.7-3.2 8-3.8 10.8-6.8 2.6.5 5.8.2 5.7 3.4.3.8.8 1.4 1.1 2.3.9 2.5.3 4.1 1.7 5.1.7-2 3.1-2.2 4.6-3.4 5.1 1.9 6.6 7.5 8 13.1-1.6 7.9-8 11-16.5 12-.6 0-.4.7-.6 1.1h-.6c-3.7 5-14.9 7.5-22.8 4.6v-.6c2.1-3.4 5.3-5.7 8-8.6-2.6-.2-4.9 0-6.3 1.1.1-.5-.2-.5-.6-.6v-.6c-2.3-.2-3.2 1-5.7.6.1-.5-.2-.5-.6-.6 1.6-2.8 1-7.7 2.3-10.8 1.3-.8 2.5-1.9 4-2.7zm-72.5 0c2.2-2 4.9-3.5 8.6-4 3.1 1.2 3.3 5.5 5.7 7.4.3.5.6.9.6 1.7-.1 1.8 1.8 1.6 1.1 4 2.7-.8 3.4-3.5 5.7-4.6 2.7-2.6 7.8-1.5 9.7 1.1-.1.5.2.5.6.6 1.9 8-1 12.7-6.3 16 .8 3.8 4.8 4.3 5.7 8-.3 7.6-12.2 9.1-18.3 5.7-.4-1.2-1.7-2.3-2.9-1.1-4.1-.1-6 2-10.3 1.7-4.8-1.1-7.7-4.1-11.4-6.3v-3.4c2-.3 2.3-2.3 5.1-1.7-.8-1.7-2.9-2-4-3.4v-.6c1.8-.9 1-4.4 1.1-6.8 1.2-2.9 5.6-.9 6.8-1.1-1-2.6-1.8-5.4-2.3-8.6 1.6-1.8 3.1-3.3 4.8-4.6z"/></svg>