<svg xmlns="http://www.w3.org/2000/svg" xmlns:xlink="http://www.w3.org/1999/xlink" width="440.01" height="356.034"><defs><linearGradient id="a"><stop offset="0" stop-color="#c3c3c3"/><stop offset="1" stop-color="#454545"/></linearGradient><linearGradient xlink:href="#a" id="b" gradientUnits="userSpaceOnUse" gradientTransform="matrix(.534 0 0 .534 254.57 538.282)" x1="318.16" y1="784.207" x2="345.919" y2="832.586"/></defs><path d="M343.873 310.203c-9.176 7.559-18.547 14.685-29.062 20.693-7.047 4.027-14.097 8.254-21.419 11.853-.736.362-17.334 7.363-16.725 7.964 4.618 4.561 44.512-11.243 48.697-13.409 3.972-2.055 26.888-17.087 27.108-21.762.112-2.373-3.109-5.577-1.079-7.058 1.755-1.281 2.105 3.693 3.666 5.17.687.65 3.719-2.808 3.912-3.584.572-2.312-4.987-1.566-15.097.132zM139.429 336.07c7.014-1.079 13.775-3.203 20.622-4.988 8.868-2.312 17.986-3.62 26.858-5.985 12.962-3.456 26.104-7.863 39.402-9.754 8.222-1.169 27.866-3.288 32.032 6.484 2.695 6.322-6.598 11.855-11.622 12.248-3.191.249-7.056.126-6.874.055 4.959-1.939 22.583 20.123 31.039 21.225 4.449.58 11.12-3.475 15.732-3.99 3.443-.385-5.471-8.337-5.811-9.754-.884-3.688 2.651-4.606 5.173-6.041 15.031-8.549 30.853-16.993 47.693-21.281 41.648-1.877 42.818-20.928 11.055 1.33 29.02 12.738 25.732-18.157 25.512-30.757 1.703-4.996 9.903-8.354 13.252-12.469 8.456-10.391 2.796-27.627-10.346-30.924-13.769-3.454-39.006 6.175-51.307 11.86-6.34 2.93-12.319 7.498-19.417 8.424-6.395.834-12.181-2.343-18.567-2.494-15.592-.369-26.052.593-41.244 3.935-4.66 1.025-12.44 1.138-16.441 4.267-.718.562 5.629 7.364 5.173 10.751-.36 2.676-10.013 15.32-12.543 18.288-6.37 7.472-19.031 7.819-27.496 11.028-8.732 3.311-16.663 9.875-25.795 11.915-3.109.695-5.579-.023-8.646.277-2.655.259-6.366 2.126-8.22 2.217" fill="#717171"/><path d="M287.554 250.37c1.033-.173 2.065-.383 3.111-.455.742-.086 1.454.02 2.136.313.67.31 1.106.887 1.474 1.504.366.661.673 1.349.902 2.068.281.792.376 1.598.325 2.432-.117.866-.483 1.584-1.11 2.183-.552.588-1.27.924-2.006 1.214-.661.181-1.345.276-2.026.181-.458-.076-.89-.262-1.281-.508-.466-.319-.664-.796-.831-1.311-.213-.673-.396-1.355-.586-2.035-.17-.625-.31-1.257-.442-1.892-.047-.338-.281-.63-.34-.959-.484-1.013 2.743-.614 2.909-.629.078-.007.036.152.057.228l.106.359c.309 1.196.498 2.419.663 3.642.052.549.132 1.1.133 1.653-3.27.032-2.98.682-2.655-1.392.084-.931.329-1.835.564-2.737.235-.546.438-1.925 1.215-2.031.573-.078 1.148.144 1.722.215.848 1.105.854 2.483.955 3.818.191 2.212.614 1.521-2.299.843l-.037.062c.149-.726.31-1.442.436-2.175.142-.713.178-1.456.431-2.141.687-1.082.335-.795 2.871.276.094.04.113 1.545.117 1.714-.019.885-.038 1.773-.202 2.645-.196.939-.736 1.67-1.518 2.201-.592.337-1.234.573-1.907.677-.206.031-.843.068-.279-.06l-.059.009c.607-.276.192-2.434.606-1.451.151.444.102.914-.049 1.35-.004.136-.094.233-.124.357-1.293-2.366-1.776-1.996-.425-2.705.498-.262.993-.528 1.483-.806.336-.194.65-.429.934-.694l.209-.326c.093-.151.106-.274.082-.449.019-.205-.045-.375-.118-.558-.139-.256-.329-.477-.476-.728-.087-.211-.215-.445-.155-.67.151-.526.717-.6 1.178-.731-.011-.058.07-.074.082-.016.394-.073.975-.085 1.266-.407.157-.066.179-.041.312.137.232.346.4.731.61 1.091.305.612.509 1.269.515 1.958-.044.704-.141 1.409-.548 2.009-.237.416-.484.827-.853 1.142-.459.37-.911.751-1.438 1.025-.552.321-1.115.623-1.705.868-2.023.912-1.497.868-3.215-1.673l-.017.155c-.021.27-.077.521.016.789.107.299-.26-1.698.402-1.93l.4-.249c.297-.09.592-.189.897-.228.23-.048.45-.1.62-.28.103-.101.246-.146.283-.292.082-.74.072-1.486.098-2.229.018-.24-.035-.687.062-.92l.038.055c2.638.457 2.127 1.134 2.721.11-.173.323-.393.991-.459 1.46-.211 1.121-.375 2.276-.867 3.316-.866-.098-1.75-.092-2.598-.294-.104-.025-.265-1.792-.263-1.984-.053-.557-.097-1.115-.156-1.671-.046-.428-.093-.575-.05-.549.145.087.231.247.347.371.512.02 1.032.153 1.536.061.4-.073.495-.706.289-.274-.11.231-.129.336-.201.587-.243.758-.379 1.543-.507 2.327-.206 1.92.326 1.311-2.974 1.474l-.019-.09c-.143-.509-.209-1.038-.309-1.557-.185-1.12-.362-2.243-.641-3.345l-.083-.403c-.025-.117-.188-.3-.08-.351 1.076-.504 2.718-1.925 2.913-.778.146.369.108.801.232 1.179.15.634.244 1.28.344 1.923.096.612.198 1.226.387 1.818.096.287.132.288-.118.131-.197-.067-.033-.022.09-.036.301 0 .605.037.892-.092.258-.079.533-.215.661-.466.027-.283.157-.539.256-.801.099-.39-.101-.806-.171-1.186-.169-.503-.352-1-.597-1.472l-.208-.384c-.046-.15-.351-.102-.54-.111-.93.092-1.863.183-2.775.403-1.996.405-2.568-2.418-.572-2.822z"/><path d="M186.096 86.475c7.607-9.808 22.314 5.276 4.62 4.018-2.099-.149-3.95-1.129-4.62-4.018z" fill="#fff"/><path d="M43.863 166.809c-.424.388-.561 1.162-1.218 1.235-6.782 2.719-13.937 4.293-20.968 6.211-4.12 1.11-8.211 2.47-11.943 4.571-2.464 1.36-4.773 2.985-6.981 4.725-.976 1.01-.728 3.036.674 3.528 1.517.667 3.171.06 4.677-.327 1.816-.485 3.618-1.016 5.415-1.565.603-.018.917.808.338 1.119-.32.368-.74.73-.772 1.251 1.253 1.772 3.419 2.759 4.366 4.771.739 1.572 1.674 3.229 3.295 4.025 1.245.478 2.548-.175 3.639-.751 1.381-.791 3.039-.53 4.553-.454 1.281.199 2.54-.227 3.692-.748.41-.226.936-.234 1.252.15.506.642.678 1.518 1.352 2.036 1.332 1.145 3.151 1.344 4.83 1.512.969.045 2.125.007 2.815-.778 1.185-1.386.968-3.406 2.052-4.849 1.317-1.946 3.517-3.082 4.795-5.061.674-.926.937-2.049 1.21-3.141.452-1.809 1.026-3.596 1.311-5.441.091-2.076-.879-4.006-1.901-5.749-1.187-2.083-2.413-4.251-4.345-5.738-.613-.389-1.329-.584-2.053-.584l-.084.05z" fill="#f39c0c"/><path d="M41.091 169.58c-5.666 3.139-11.669 5.603-17.355 8.707-3.195 1.744-6.31 3.94-9.828 4.946-2.882.825-7.371 1.415-9.514 3.761-.137.15-.957.68-1.15.572-.688-.384 1.579-2.49 1.777-2.678 3.239-3.076 8.258-5.32 12.206-7.379 3.375-1.76 6.954-2.782 10.403-4.313 3.22-1.429 9.995-5.017 13.304-5.233" fill="#ebc83f"/><path d="M43.278 168.147c-2.079 1.22-4.325 2.125-6.526 3.1-4.083 1.847-8.262 3.468-12.43 5.11-3.921 1.458-7.856 2.881-11.787 4.312-2.241.824-4.443 1.747-6.484 2.992-1.154.74-2.142 1.682-2.94 2.793-.371.702-.092.703-.209-.082.836.172 1.683.19 2.534.148 2.088-.174 4.135-.649 6.189-1.045 2.684-.591 5.384-1.1 8.067-1.697 1.795-.328 3.558-.8 5.335-1.2.572-.179 1.179-.245 1.74-.459.409-.143.805-.316 1.221-.436.73-.219 1.468-.414 2.209-.594.925-.241 1.868-.399 2.811-.548.82-.146 1.653-.177 2.478-.279l.92-.039c.31-.004.629.105.917.232.215.029.411.095.535.307.195.205.209.309.085.533-.661.602-.816 1.782-1.636 1.384-.132-.064-.241-.029-.364.023-.195.151-.239.363-.293.592l-.029.079c1.07-2.2 1.081-3.622 2.048-1.56.354 1.118.035 2.276-.234 3.378-.413 1.499-.941 2.963-1.528 4.401-.502 1.195-.984 2.399-1.388 3.631-.131.632-.414 1.3-.293 1.954.303.243.677.497 1.013.727.976.549 1.998.991 3.09 1.244.727.141 1.474.278 2.207.128.306-.068.459-.278.62-.526.456-.704.878-1.427 1.359-2.115.663-.863 1.273-1.766 1.912-2.647.646-1 1.439-1.884 2.222-2.775.958-1.091 1.929-2.17 2.975-3.177.98-.918 2.014-1.79 3.102-2.578.36-.143.686-.309 1.087-.319.249-.006.494.102.742.081.141-.012.258-.119.387-.178.035-.047.102.003.067.05-.138.899.476 1.496-.099 2.433-.783 1.14-1.781 2.084-2.812 3-.954.982-1.89 1.979-2.788 3.012-.688.793-1.351 1.607-1.933 2.482-.586.896-1.238 1.748-1.787 2.667-.503.797-.994 1.603-1.514 2.39-.81.958-1.771 1.68-3.048 1.869-1.239.136-2.468-.001-3.661-.371-1.43-.455-2.873-.942-4.11-1.819-1.183-.83-2.217-1.794-2.414-3.303-.06-1.108.129-2.185.479-3.239.404-1.318.932-2.586 1.456-3.86.501-1.307 1.037-2.605 1.392-3.962.011-.045.287-1.837.39-1.354.912 1.444 1.3-3.529 1.308-2.426.003.233.013.446.177.627.096.061.177.118.294.063l.153-.102c-.898 1.375-.53 1.138-1.105 1.486-.162.094-.243.103-.066.283.154.116.232.247.418.205.215.051.582.151.672.155-.241.002-.486-.019-.727.016-.737-.004-1.471.144-2.2.24-.856.134-1.71.275-2.552.479-.684.173-1.364.358-2.042.552-.396.133-.798.249-1.181.423-.647.188-1.306.329-1.961.488-1.797.477-3.62.85-5.434 1.255-2.703.52-5.385 1.146-8.089 1.66-2.211.469-4.433.946-6.692 1.112-1.495.028-3.02.005-4.35-.77-1.567-1.346-1.432-2.377-.452-4.037 1.027-1.43 2.3-2.644 3.792-3.589 2.2-1.341 4.574-2.335 6.984-3.24 3.896-1.491 7.859-2.804 11.744-4.326 4.159-1.581 8.255-3.317 12.398-4.938 2.155-.876 4.284-1.802 6.377-2.815 1.633-.884 2.884 1.426 1.251 2.31z" fill="#a46835"/><path d="M21.906 186.711c-.103 1.062.137 2.171.366 3.209.282 1.281.295 2.622 1.438 3.516 1.359 1.063 7.548 1.467 8.834-.143.954-1.194 1.006-4.166 1.202-5.6.088-.641 2.179-5.871 1.621-5.968-2.094-.364-9.317 3.025-13.461 4.987z" fill="#c6732d"/><path d="M30.428 183.975c.49.912.966 1.83 1.571 2.672.326.375.804.391 1.261.492.863.147 1.648.538 2.525.558.058-.013.076.069.018.082-.92.45-1.631 1.239-2.739 1.234-1.043-.032-1.992-.337-2.644-1.202-.661-.881-1.126-1.882-1.695-2.822-.717-1.204.986-2.219 1.703-1.015zM23.066 187.055c.122 1.334.226 2.669.434 3.993.145.692.331 1.406.771 1.973.34.41.822.599 1.315.755.955.221 1.93.29 2.907.269.932.054 1.821-.118 2.734-.267.624-.001.313-.016.934.045.051-.03.093.042.043.072-.265.595-.107.307-.478.86-.869.791-1.938 1.379-3.108 1.562-1.26.101-2.539.071-3.758-.298-1.034-.34-1.96-.836-2.557-1.785-.482-.892-.786-1.84-.928-2.847-.219-1.359-.304-2.729-.427-4.099-.164-1.499 1.956-1.732 2.121-.232zM16.719 186.117c.67 1.491 1.385 2.961 2.059 4.45.454.837.688 1.79 1.176 2.607.059.166.152.155.28.214.422.146.844.289 1.276.401.496.171 1.021.161 1.537.203.568.168 1.364.041 1.875.387.152.103.256.261.384.392l.34.203c.059-.004.065.079.006.083l-.308.247c-.112.148-.196.321-.336.443-.485.421-1.335.381-1.912.57-.761.072-1.512.007-2.25-.201-.556-.17-1.12-.319-1.655-.549-.592-.285-1.059-.716-1.39-1.288-.416-.9-.798-1.815-1.203-2.72-.689-1.503-1.409-2.991-2.077-4.503-.664-1.554 1.533-2.494 2.198-.94z" fill="#a46835"/><path d="M137.961 72.022c.375 4.981-.239 10.145.333 15.06.243 2.093 1.543 3.862 2.07 5.839.838 3.145.315 5.856 2.957 8.267 6.338 5.782 24.828 6.091 32.86 6.735 13.656 1.095 31.207 1.378 41.769-9.134.687-.683.604-1.56.887-2.428.35-1.072 1.268-2.334 1.183-3.498-.427-5.844-8.962-14.506-13.381-17.517-5.916-4.032-13.223-7.209-20.182-8.672-4.077-.857-8.101-2.118-12.309-2.081-2.938.026-5.82.636-8.76.636-3.941 0-8.709-.494-12.568.26-5.148 1.006-9.98 3.758-14.859 6.533z" fill="#f39c0c" stroke="#a46835" stroke-width="2.137" stroke-linecap="round" stroke-linejoin="round"/><path d="M138.477 72.839c-.168.658-.208 1.346-.183 2.024.05 1.355.329 2.675.47 4.006.264 2.476-.584 5.449.131 7.869.659 2.235 1.899 4.197 2.64 6.418 1.523 4.567-3.076 5.221 3.79 6.602.596.12 2.155.753 2.771.491 1.513-.645-1.717-8.543-1.594-10.24.209-2.894 3.146-15.166 1.15-17.619-2.392-2.94-6.194 1.152-7.527.225-.57-.396-1.08-.872-1.647.225zM154.499 89.088c.2 3.881-.863 8.074-2.98 11.385-.663 1.037-1.721 1.856-2.3 2.943-.707 1.327 5.686 2.889 7.345.123 3.401-5.674 2.121-11.556-2.065-14.451z" fill="#ebc83f"/><path d="M203.663 85.396c3.37 3.131 3.007 8.393.993 12.203-.858 1.623-2.203 2.48-3.842 3.189-.075.032-1.877.66-1.83.797.386 1.107 3.409 1.464 4.313 1.615 5.865.978 16.127.232 16.127-7.91 0-3.54-2.106-5.672-4.077-8.278-.856-1.131-1.499-2.481-2.614-3.393-1.042-.852-2.356-1.27-3.555-1.84-1.86-.883-3.699-2.175-5.646-2.841-.945-.323-1.943-.099-2.901-.327-.043-.01-.873-.305-.863-.204.159 1.49 2.642 3.211 3.372 4.476.635 1.101.822 3.283.863 3.986" fill="#ae6139"/><path d="M195.304 3.117c-14.331 1.211-28.258 6.793-39.475 15.79-8.298 6.985-14.287 16.67-16.764 27.235-.862 3.478-1.201 7.059-1.212 10.637-.014 2.794-.148 5.589-.591 8.35-.195 1.661-.443 3.414.04 5.038.979 1.984 3.437 2.617 5.487 2.403 7.926.039 15.852.262 23.771.588 10.949.555 21.977 1.676 32.492 4.927 5.858 1.879 11.666 4.601 15.961 9.118 1.983 2.209 3.608 5.188 3 8.244-.704 3.213-3.914 5.558-7.166 5.476-6.502.84-13.075.678-19.607 1.107-12.338.467-24.746.687-37.021-.871-3.383-.364-6.688-1.185-9.97-2.057-1.388-.289-2.769-.722-4.178-.846-1.987.358-2.815 2.78-2.305 4.547 1.335 6.672 4.434 12.995 4.609 19.884.037 2.985-2.074 5.829-4.956 6.635-3.949 1.431-7.995 2.572-11.961 3.952-20.296 6.668-40.668 13.108-60.826 20.188-6.294 2.23-12.628 4.383-18.749 7.064-1.453.675-2.932 1.373-4.247 2.273-1.318 1.729-.603 4.222.799 5.673 3.225 4.15 4.994 9.197 6.286 14.234.904 2.553 3.038 5.021 5.888 5.238 4.14.238 7.831-1.982 11.745-2.938 11.823-3.464 23.957-5.697 36.081-7.811 12.128-2.174 24.388-3.782 36.719-4.077 1.979.519 2.726 2.9 2.32 4.724-1.454 16.29-1.966 32.676-1.195 49.017.47 9.932 1.644 19.811 2.894 29.67 1.672 13.547 3.433 27.121 3.646 40.788.029 2.98.078 5.973-.198 8.942-.612 4.839-3.68 9.004-7.376 12.024-4.994 4.364-10.746 7.744-15.823 12.004-2.329 1.927-4.648 4.025-6.149 6.671-.462 2.128 1.869 4.14 3.922 3.626 4.156-.076 8.201-1.169 12.315-1.635 10.233-1.705 20.507-4.064 29.832-8.746 3.531-2.002 5.371-6.295 4.873-10.258-.261-6.259-2-12.512-.938-18.782.876-5.375 4.04-10.474 8.844-13.167 4.553-2.753 10.009-3.535 15.251-3.315 9.026-.065 18.234.545 26.778 3.684 6.602 2.424 12.077 7.915 14.158 14.673 2.684 7.662 1.621 16.046 4.15 23.746 1.45 4.669 4.623 8.547 8.076 11.905 3.296 3.304 6.782 6.413 10.04 9.756 3.424 3.266 7.52 6.25 12.34 6.848 5.004.722 10.32-.443 14.402-3.475 1.723-2.05 1.185-5.212-.434-7.161-6.474-9.192-14.329-17.422-19.824-27.288-2.086-4.101-2.393-8.802-2.333-13.324-.036-6.206-.233-12.408-.432-18.61-.152-7.518-.044-15.042.44-22.547.062-5.267-.239-10.72 1.692-15.729.74-2.273.729-4.877-.482-6.985-.145-.745.959-1.035 1.398-.533 2.782 1.311 5.756 2.412 8.875 2.375 3.633.166 7.302.004 10.882-.646 2.339-.543 4.498-2.202 5.183-4.57 1.423-3.82.913-7.959 1.057-11.944-.17-12.778.795-25.539.643-38.316-.06-7.068-.644-14.13-1.818-21.101-1.952-11.888-5.717-23.611-12.111-33.881-3.328-5.464-7.144-10.671-9.769-16.531-1.82-4.527-1.843-9.592-.78-14.304 1.211-7.524 2.973-15.085 2.366-22.757-.364-10.014-1.828-19.956-3.73-29.783-1.749-8.308-4.279-16.642-9.082-23.734-7.019-10.276-18.458-17.253-30.692-19.275-8.816-1.583-17.795-2.026-26.738-2.077l-.323.021z" stroke="#000" stroke-width="1.068" stroke-linecap="round" stroke-linejoin="round"/><path d="M281.16 240.406c-2.582.154-5.079 1.291-7.695.918-1.617-.141-3.247-.103-4.857.1-1.878-.12-3.775-.686-5.651-.27-1.544.504-2.653 1.858-3.22 3.338-.398.982-.943 2.078-2.034 2.415-1.907.921-3.995 1.691-5.436 3.313-.77 1.062-.668 2.466-.387 3.677.199 1.129.348 2.268.353 3.416.336.906 1.471.983 2.287.818.964-.204 1.963-.645 2.954-.351 1.001.756 1.114 2.101 1.363 3.235.379 3.038-.247 6.19.723 9.15.448 1.047 1.562 1.804 2.718 1.666 2.406-.001 4.541-1.467 6.943-1.468 1.278.206 1.977 1.437 2.96 2.145.748.596 1.838.784 2.685.279 1.351-.706 2.38-2.044 3.959-2.277 1.495-.316 3.062.512 4.509-.133 1.134-.525 1.633-1.803 1.948-2.933.878-3.396 1.038-6.927.927-10.419-.156-4.369-.482-8.791-1.816-12.982-.409-1.281-.869-2.753-2.133-3.437-.344-.154-.723-.256-1.102-.2z" fill="#ff8b00"/><path d="M264.118 246.413c-4.078 4.892.319 5.014 1.751 9.791.831 2.773.903 5.611-.549 8.196-.181.323-3.567 4.204-3.842 2.698-.104-.567 1.69-2.425 1.934-2.902.689-1.347.839-3.047.627-4.538-.71-4.999-5.169-5.186-5.855-7.011-.136-.363-.071-.91.105-1.247.596-1.144 5.616-9.973 6.064-10.24" fill="#f4a315"/><path d="M259.002 254.453c.236 1.506.632 2.98 1.034 4.448.549 1.862.825 3.771.794 5.71-.038 1.368-.312 2.711-.593 4.045-.117.597-.329 1.208-.222 1.821.083.324.185.685.419.923-.001-.189.506-.049.664-.048.596.015 1.164-.146 1.718-.348.333-.086.495-.247.696-.492.458-.573.941-1.13 1.515-1.588.659-.555 1.454-.75 2.292-.806 1.113-.033 1.995.512 2.813 1.202.645.588 1.365 1.089 2.054 1.625.602.375 1.138.905 1.824 1.129l.055.008c-.148-.236-.759.047-.926.12.286-.461.546-.938.818-1.407.434-.684.934-1.296 1.582-1.781 1.194-.726 2.363-.288 3.559.128.658.223 1.334.479 2.037.382.521-.135.856-.598 1.181-.995.553-.853 1.065-1.734 1.45-2.677.38-.925.606-1.9.809-2.876.287-1.312.447-2.634.417-3.976-.058-1.714-.388-3.405-.704-5.086-.315-1.553-.721-3.086-1.12-4.619-.281-1.105-.6-2.198-.902-3.298-.191-.789-.462-1.556-.665-2.342-.18-.524-.281-1.069-.438-1.6l.114.264c-.129-.128-.245-.147-.423-.18-.589-.18-1.211-.189-1.82-.239-1.273-.062-2.547-.03-3.819.047-1.516.094-3.026.203-4.545.172-1.259-.043-2.51-.198-3.764-.308-.862-.051-1.726-.099-2.59-.062-.52.005-1.04.038-1.56.038-.102-.016-.917.071-.465 0 .24-.046.402-.148.575-.315.167-.225-.167.668-.188.744-.152.573-.333 1.135-.545 1.689-.217.648-.589 1.222-.935 1.805-.27.484-.555.957-.886 1.402-.601.848-1.471 1.42-2.315 1.996-.797.46-1.611.898-2.456 1.263-.523.253-1.079.417-1.619.623l-.056.06c-.106.07-.238.154-.306.272-.315.366-.601.753-.88 1.146.024.081.035.326.05.523-.043.436.067.853.162 1.271.161.424.27.86.373 1.3.063.367.096.733.085 1.105l.013.696c-.006.197-.022.397.001.594l-.024.105c-.007-.559-.494-1.015-.873-1.288.459.135.936.118 1.409.128.868.004 1.722-.135 2.575-.278 1.047-.059.489.268.413.732-.046.283.019.573.028.86.719.079.481.182.535-.191-.047-.062.041-.128.088-.066.356.111.327.435.865.386.024 1.318.183.617-.331 1.561-.193.355-.375.504-.798.602-1.12.26-2.273.366-3.422.38-.929-.006-1.866-.072-2.753-.374-.807-.372-1.567-.911-1.656-1.887l-.041-.672c.023-.201.008-.404.003-.606l.01-.547-.083-.427c-.046-.343-.194-.661-.285-.994-.236-.752-.312-1.537-.373-2.321.016-1.011.081-2.036.693-2.889.358-.529.768-1.021 1.173-1.515.293-.313.589-.619.935-.873.33-.239.673-.458 1.062-.59.456-.167.916-.317 1.36-.517.664-.317 1.333-.623 1.958-1.015.452-.247.854-.564 1.198-.948.262-.376.473-.779.713-1.169.229-.344.425-.709.595-1.085.171-.456.308-.926.453-1.389.206-.682.388-1.378.796-1.975.474-.596 1.028-1.057 1.778-1.256.424-.084.851-.128 1.283-.101l1.592-.084c1.007.003 2.016-.006 3.018.121 1.166.102 2.332.211 3.5.277 1.422.034 2.839-.04 4.257-.156 1.419-.055 2.84-.116 4.259-.028.946.041 1.891.151 2.806.401.742.273 1.469.583 2.035 1.156.472.482.863 1.011 1.003 1.686.082.46.205.912.335 1.361.277.793.458 1.615.704 2.418.33 1.131.643 2.264.943 3.403.4 1.617.813 3.231 1.145 4.864.368 1.922.678 3.863.77 5.82-.016 1.626-.128 3.25-.482 4.841-.271 1.241-.597 2.471-1.072 3.652-.582 1.26-1.2 2.52-2.093 3.594-1.065 1.27-2.309 2.226-4.009 2.421-1.278.043-2.493-.177-3.668-.698-.006-.003-.776-.333-.77-.338.125-.12.711.004.764-.291.219-.233-.512.483-.493.637-.409.592-.66 1.286-1.129 1.839-.94 1.091-2.177 1.505-3.557.98-.935-.432-1.809-.966-2.605-1.625-.795-.573-1.562-1.183-2.251-1.881-.149-.145-.246-.218-.178-.301-.21-.025.055-.084-.095-.052-.403.366-.781.75-1.093 1.202-.626.687-1.344 1.239-2.24 1.528-1.027.356-2.092.602-3.188.551-1.205-.112-2.394-.334-3.231-1.297-.677-.854-1.069-1.829-1.233-2.91-.079-1.003.047-1.967.297-2.941.24-1.096.481-2.197.529-3.321.004-1.622-.187-3.215-.676-4.771-.4-1.651-.87-3.302-.985-5.004-.245-2.434 3.197-2.78 3.442-.346z" fill="#612f05"/><path d="M194.437 84.783c-1.036-.458-9.638 3.085-9.566 3.536.318 1.99 9.528 2.977 11.396 2.003 2.43-1.267 3.8-5.049-1.83-5.539z" fill="#fff"/><path d="M182.325 87.358c1.39-.862 2.783-1.715 4.229-2.481 1.74-.978 3.591-1.662 5.559-1.978 1.689-.159 3.34.193 4.852.937.911.639 1.409 1.073 1.273 2.226.05.032.005.102-.045.07-.692.49-1.42.598-2.258.415-1.111-.278-2.207-.722-3.374-.618-1.619.21-3.123.842-4.568 1.587-1.385.78-2.749 1.594-4.097 2.437-1.835 1.112-3.408-1.484-1.572-2.596zM185.572 88.138c1.629.744 3.353 1.21 5.113 1.51 1.482.307 2.962.145 4.45.07.586-.066 1.16.043 1.743.056.043-.04.1.021.057.061-.141.812-.444 1.381-1.163 1.842-1.694.926-3.656 1.027-5.55.843-2.075-.317-4.124-.818-5.983-1.828-1.806-.941-.474-3.495 1.331-2.554z" fill="#5f0000"/><path d="M142.424 85.171c1.515-1.073 11.299.758 9.592 3.761-1.451 2.553-6.613 1.483-8.521.204-.916-.614-1.991-2.038-1.072-3.965z" fill="#fff"/><path d="M139.581 84.522c1.971-.475 3.964-.516 5.972-.339 2.66.38 4.447 1.199 6.046 3.382l.324.927c.043.04-.013.101-.057.061l-.892-.197c-1.855-.694-3.691-1.507-5.655-1.839-1.796-.204-3.599-.162-5.388.117-1.494.248-1.845-1.864-.351-2.112zM141.905 86.067c1.218 1.344 2.592 2.523 4.216 3.339 1.603.683 3.338.31 5.019.272.051-.029.092.043.041.073-.192.279-.349.585-.575.837-1.441 1.601-3.646 1.895-5.639 1.39-2.24-.925-3.849-2.149-5.383-4.026-1.333-1.641.987-3.526 2.32-1.885z" fill="#5f0000"/><path d="M250.514 28.958c1.233-1.388 2.619-2.618 4.097-3.737 1.769-1.426 3.875-2.197 6.033-2.8 1.416-.268 3.075-.505 4.305.472.252.2.428.48.642.72.759 1.332.74 2.882.827 4.369.024 1.191.131 2.372.5 3.508.124.334.301.634.619.787-.069-.171-.164-.106.088-.277.622-.43 1.105-1.007 1.551-1.609.709-1.232 1.528-2.393 2.337-3.56 1.112-1.434 2.336-2.775 3.638-4.037 1.383-1.364 2.901-2.574 4.473-3.709 1.711-1.189 3.59-2.082 5.497-2.904 2.406-.998 4.911-1.697 7.437-2.306 3.702-.967 7.479-1.453 11.289-1.698 6.37-.167 12.729.397 19.087.708 5.902.307 11.789-.031 17.603-1.059 3.109-.601 6.198-1.451 9.055-2.843 1.136-.553 2.06-1.158 3.127-1.817 1.713-1.149 3.199-2.521 4.015-4.436.247-.715.513-1.458.557-2.221.033-.013.044-.426.023-.239-.108 1.435-.017-.363 3.845.494.157.035-.049.318-.089.473-.176.691-.466 1.322-.777 1.96-1.103 2.188-2.317 4.316-3.514 6.453-1.13 2.039-2.379 4.008-3.545 6.026-.484.877-.964 1.763-1.398 2.668-.364.874-1.156 1.317-1.986 1.661-1.545.434-3.065.947-4.599 1.415-2.338.811-4.712 1.486-7.129 2.012-2.117.479-4.248.537-6.394.299-1.815-.282-3.601-.711-5.395-1.097-1.882-.364-3.787-.584-5.698-.72-2.407-.246-4.82-.365-7.238-.406-2.96-.005-5.919.093-8.871.312-3.116.186-6.182.777-9.238 1.381-2.413.508-4.814 1.073-7.184 1.751-1.543.447-2.944 1.192-4.229 2.143-1.633 1.269-2.953 2.883-4.275 4.461-1.407 1.809-2.758 3.66-4.069 5.54-1.04 1.414-2.139 2.796-3.458 3.959-.865.782-1.916 1.273-2.967 1.745-.925.334-1.833.71-2.752 1.059l-1.749.749c-1.876.676-2.835-.6-3.178-2.215-.452-1.566-1.138-3.047-1.997-4.427-1.395-2.38-3.86-3.542-6.238-4.719-1.853-.795-3.456-2.151-5.408-2.733-.585-.175-1.207-.192-1.81-.288-.075-.007-.066-.112.009-.106 2.771.048 5.567-.309 8.304.279 3.738 1.102 6.311 2.235 8.589 5.534.989 1.752 1.958 3.545 2.412 5.523.239.866.011.005-.424-.251-1.1-.647-.981-.462-1.802-.281l.075-.038c.593-.206 1.154-.506 1.746-.717.882-.368 1.791-.666 2.664-1.053.672-.263 1.332-.566 1.884-1.043 1.092-.977 1.995-2.131 2.841-3.325 1.417-1.906 2.73-3.893 4.266-5.708 1.511-1.874 3.092-3.705 5.005-5.185 1.677-1.183 3.454-2.175 5.447-2.725 2.471-.735 4.986-1.298 7.505-1.839 3.224-.672 6.477-1.206 9.764-1.452 3.062-.187 6.128-.328 9.197-.317 2.514.029 5.023.18 7.527.401 2.061.21 4.138.345 6.163.813 1.683.339 3.352.752 5.048 1.02 1.702.212 3.406.162 5.082-.236 2.29-.494 4.539-1.145 6.757-1.899 1.476-.498 2.976-.915 4.463-1.377l.118-.016c.023.041-.77.766-.325.275.521-.927.95-1.907 1.507-2.816 1.161-2.007 2.4-3.968 3.552-5.98 1.169-2.044 2.324-4.096 3.408-6.186.997-2.193.233-1.384 4.451-1.334l-.009.146-.063.671c-.191 1.137-.43 2.266-.879 3.335-.355.746-.579 1.29-1.058 1.981-1.16 1.674-2.75 2.995-4.42 4.131-.559.355-1.102.738-1.678 1.065-3.688 2.093-7.779 3.326-11.916 4.154-2.138.342-3.559.6-5.72.823-4.219.434-8.476.442-12.709.261-6.228-.275-12.454-.834-18.692-.722-3.581.168-7.162.486-10.66 1.309-2.33.574-4.652 1.211-6.87 2.138-1.676.712-3.339 1.476-4.832 2.532-1.435 1.001-2.791 2.107-4.039 3.334-1.148 1.152-2.299 2.308-3.258 3.63-.879 1.103-1.571 2.328-2.359 3.493-.731 1.026-1.58 1.945-2.659 2.616-1.142.619-2.33.905-3.545.277-1.102-.641-1.852-1.566-2.287-2.774-.466-1.431-.641-2.912-.685-4.415-.029-.619-.057-1.243-.111-1.86-.017-.193-.116-.388-.071-.576l.065.004c.06.031.508.093.255.022-.49-.137-1.018.018-1.499.099-1.732.374-3.329 1.125-4.784 2.136-1.305 1.004-2.56 2.075-3.661 3.305-1.656 1.804-4.207-.538-2.551-2.342zM261.893 46.31c.947.494 1.901.973 2.918 1.307 1.21.401 2.454.683 3.679 1.033 1.289.344 2.497.908 3.702 1.466.651.292 1.338.511 2.042.627-.831-.278-1.476.628-.978-.145.511-.89.978-1.804 1.496-2.69.978-1.594 2.407-2.798 3.879-3.916 1.502-1.136 3.181-1.996 4.849-2.855 1.233-.602 2.466-1.209 3.584-2.01.407-.291.519-.705.653-1.161.208-.777.231-1.581.249-2.379-.062-1.489.29-2.85 1.023-4.136 1.181-1.692 3.07-2.277 4.983-2.728 2.718-.587 5.355-.116 7.931.797 1.712.777 3.606 1.738 4.526 3.483.153.291.238.612.357.918.349 1.696-.379 3.069-1.426 4.332-.759.815-1.476 1.656-2.036 2.62-.415.749-.642 1.57-.634 2.426.09.717.65 1.024 1.228 1.349 2.431 1.127 5.097 1.575 7.723 1.989 4.122.604 8.29.595 12.44.405 3.926-.24 7.805-.881 11.624-1.806 3.098-.752 6.056-1.921 8.897-3.352 2.264-1.144 4.256-2.697 6.067-4.457 1.197-1.241 2.28-2.591 3.207-4.044 1.176-1.872-.055-1.375 3.788.225-.489 2.09-1.292 4.078-2.189 6.021-1.65 3.267-4.047 6.036-6.545 8.675-1.842 1.985-3.866 3.753-6.254 5.038-2.068.996-4.326 1.184-6.584 1.229-2.854.032-5.698-.232-8.545-.374-3.406-.198-6.816-.034-10.22.112-3.649.169-7.3.232-10.952.13-2.153-.029-4.295-.174-6.344-.862-1.164-.449-2.094-1.28-3.087-2.004-.755-.458-1.462-.942-2.073-1.582-.814-.986-.988-2.214-1.075-3.446-.119-1.351.218-2.646.682-3.9.395-.912.909-1.764 1.47-2.583.523-.806.352-.895.259.23.18.316.306.67.54.949.124.147.334.191.5.288l.048.032c-.261.096-.644.116-.916.174-.864.22-1.604.643-2.245 1.253-.757.815-1.266 1.815-1.82 2.769-.641 1.118-1.36 2.186-2.21 3.154-.812.861-1.834 1.458-2.847 2.047-.996.552-1.907 1.233-2.792 1.946-.879.742-1.637 1.611-2.425 2.446-.896.98-1.93 1.797-3.066 2.477-1.691.944-3.581 1.397-5.465 1.765-2.494.456-4.981.105-7.415-.483-2.533-.673-4.502-1.916-6.21-3.881-1.181-1.677-1.82-3.111-.823-5.029l-.018-.402c-.022-.055.056-.086.078-.031l.271.328c1.316.676 2.126 1.65 3.036 2.795 1.29 1.294 2.744 2.293 4.546 2.743 1.927.515 3.89.858 5.884.512 1.488-.27 2.975-.622 4.334-1.306.863-.512 1.631-1.145 2.319-1.878.89-.942 1.743-1.924 2.749-2.748 1.018-.846 2.094-1.614 3.245-2.27.7-.406 1.427-.791 2.005-1.368.721-.766 1.268-1.669 1.804-2.57.742-1.26 1.45-2.565 2.512-3.592 1.11-.962 2.344-1.715 3.8-2.024.932-.215 2.414-.605 3.231.144.323.296.485.73.727 1.095-.023 1.098-.152 1.505-.76 2.364-.403.616-.838 1.219-1.106 1.911-.319.768-.517 1.559-.472 2.399.032.456.053.923.184 1.363.359.527 1.092.705 1.541 1.136.722.529 1.396 1.143 2.202 1.542 1.681.642 3.519.567 5.288.68 3.575.082 7.151.062 10.723-.128 3.514-.142 7.034-.297 10.55-.126 2.746.165 5.493.395 8.245.387 1.719-.081 3.469-.17 5.055-.913 2.065-1.069 3.741-2.674 5.346-4.336 2.226-2.382 4.445-4.825 5.921-7.763.825-1.73 1.506-3.507 2.007-5.359 3.749 1.01 3.824.164 2.445 2.497-1.106 1.632-2.3 3.208-3.697 4.605-2.064 2.004-4.335 3.764-6.913 5.069-3.079 1.542-6.286 2.805-9.64 3.619-4.036.954-8.128 1.672-12.282 1.815-4.372.164-8.753.09-13.09-.552-3.052-.493-6.183-1.006-8.927-2.512-1.533-1.046-2.497-2.153-2.596-4.08.045-1.394.364-2.727 1.063-3.948.659-1.091 1.436-2.088 2.319-3.008.358-.432.741-.863.893-1.417-.127-1.345-2.021-1.971-2.998-2.509-2.024-.736-4.099-1.137-6.248-.707-1.088.235-2.287.479-3.076 1.328-.51.777-.631 1.663-.577 2.583.037 1.104.04 2.214-.283 3.283-.333 1.118-.844 2.104-1.811 2.809-1.246.904-2.625 1.583-4 2.268-1.509.749-3 1.546-4.367 2.538-1.145.886-2.301 1.804-3.083 3.045-.559.921-1.02 1.898-1.606 2.803-.633.936-1.471 1.77-2.709 1.324-.668-.404-1.361-.767-2.07-1.091-1.067-.504-2.131-1.029-3.274-1.343-1.291-.346-2.598-.632-3.877-1.019-1.12-.418-2.22-.885-3.259-1.482-1.691-.881-.444-3.272 1.246-2.391zM259.688 29.434c-.894.53-1.809 1.025-2.722 1.52-1.109.599-.673.1-1.685-2.36l1.018-.764c.691-.562 1.427-1.086 2.05-1.726-.815.462-.237.114 1.171 2.398l.227-.03-.853.727-.322.314c-.858.882.206.197-.17-.48-.27-.488-.837-.738-1.255-1.107-.072.003-.252.071-.215.01.057-.095 2.2-1.231 2.46-1.382.56-.183.995-.791 1.575-.928.244-.058.497-.075.745-.112.463.439 1.051.775 1.388 1.317.303.488-.445 1.808-.636 2.292-.177.084-.169 1.267-.149.993-.524-1.188-1.783-.998-2.48-.104-.173.672.974 1.117 1.4 1.113.363-.004.661-.3.992-.45-.033.95.173-.45.264-.34.112.135.262.781.347.979.556 1.508.416 2.248-1.539 2.873-.338.108-1.055-.381-1.361-.567-.092-.236-2.152-1.144-1.174-.765.459-.196 1.042-.219 1.378-.588.286-.315.185-.83.285-1.244l.03-.053c.384.349.72.832 1.077 1.211l.478.488c1.214 1.158-.205-.208.83.823l.407.388c-.151-.078-.284-.187-.427-.281-.671.799-1.254 1.681-2.013 2.398-.087.083-.157-.182-.237-.272l-.385-.433-1.436-1.665-.432-.463-.57-.579c-.057-.061-.214-.123-.163-.189 2.09-2.709 1.242-2.945 2.592-2.362.015.176 1.313.287.832.156.228-.585.341-1.203.444-1.822.125-1.708-.543-1.227 3.468-.69.149.02.082.29.123.435l.174.61c.597 1.971 1.419 3.862 2.266 5.736l.325.738.249.54c.056.12.285.31.163.361-3.278 1.372-2.795 2.381-3.306 1.091-.866-1.813-1.792-3.597-2.7-5.389-.575-1.27-1.326-2.464-1.86-3.752-.021-.052-.117-.14-.063-.157 3.785-1.201 3.214-1.64 3.582.77.331 2.478.601 1.154-3.209 1.244.08-.946.24-1.883.512-2.792.554-1.571.402-.876 2.888 1.487.076.073-.154.144-.231.216l-.295.281c-1.022.966-2.066 1.91-3.133 2.826l-.478.406-.395.311c-.671.561.451-.138.24-.866-.194-.671-.83-1.123-1.245-1.684-.067-.014-.25.007-.202-.043.137-.144 1.935-.103 2.129-.078.28.037.555.109.832.164 1.992.582 3.039 2.23 3.948 3.962.499.792.71 1.797 1.324 2.52-.914-1.049-.168-.368-3.088.976l-.027.076c-.26-.358-.425-.945-.606-1.342-.424-1.025-.914-2.041-1.137-3.133-.144-.883.177-1.737.241-2.611.095-.851-.066-1.687-.251-2.513-.245-.786-.382-1.549-.281-2.37.21-1.836 2.727-2.938 3.736-.504.545 1.626.832 3.317 1.112 5.004.297 2.08.598 4.162 1.171 6.187l.298.945.092.278.011.074c-.104-.136-.112-.437-.283-.43-.974.036-1.916.365-2.873.548-.299.955.435 1.468 1.276 1.656.567-.045 1.233-.333 1.264-.975.03-.473-.387-.571-.632-.843 1.068-.548 2.028-1.259 2.968-1.998 1.289-1.111 2.579-2.232 3.759-3.459.371-.526-.456.626-.3.835 1.864 2.502 3.262 1.016 1.967 2.154l-.536.488c-1.388 1.264-2.785 2.521-4.26 3.684-1.447 1.105-2.106 1.453-3.736-.817-.207-.288.423-1.294.598-1.603.813-1.218 1.605-2.444 2.31-3.729.822-1.573-.429-.226 1.17 1.235.705.644 1.623-.296 1.099.204-.773.663-1.523 1.351-2.208 2.106-.28.36.292-.367.238-.43-2.492-2.921-3.459-1.263-1.49-3.122 1.712-1.63 3.491-3.187 5.23-4.787 1.33-1.162 2.606-2.388 3.965-3.516.491-.439.452-.014 2.061 2.84.053.093-.184.111-.275.166-.444.268-.222.126-.661.421-1.489 1.041-1.184.979-3.059-2.221-.039-.066.873-.855.906-.885 1.346-1.194 2.709-2.369 4.069-3.547.498-.432 1.009-.847 1.515-1.269 1.122-.937-.137-.741 2.222 2.674-1.116.992-2.098 2.127-3.093 3.237l-.553.634-.452.496-.355.41c-2.505-2.793-3.181-1.934-2.005-3.07 1.372-1.52 2.839-2.921 4.453-4.18 2.613-1.851 5.663-2.797 8.743-3.525 2.544-.594 5.147-.795 7.744-.992l.661-.025c.215-.008.454-.116.646-.019.049.025-.163-.024-.163.032.048 3.722 1.429 3.546-.072 3.635-1.805.107-3.578.494-5.345.855-1.084.233-2.167.473-3.243.743-.34.085-.943.177-1.271.371-.085-1.119-.243-2.236-.256-3.358 0-.029.423-.1.854-.192.998-.213 1.993-.434 2.993-.641 2.633-.563 5.31-.886 7.99-1.123 2.6-.222 5.209-.305 7.818-.273 1.592.035 3.184.082 4.777.112.777.002 1.553.022 2.329.063.876.038 1.753.039 2.63.037 1.046.003 2.092.037 3.137.076 1.041-.007 2.082.023 3.122-.017 2.078-.05.824-.401.924 3.848-1.2.088-2.402.043-3.602-.022-2.286-.19-4.56-.494-6.84-.746-1.885-.197-3.773-.356-5.663-.49-1.527-.081-3.049-.226-4.571-.372-1.113-.069-2.231-.133-3.345-.062-1.567.585-1.772-3.429-.391-3.409 1.471-.008 2.94-.069 4.411-.092 2.499-.068 4.997.039 7.487.245 2.11.178 4.217.362 6.331.481 1.956.109 3.913.19 5.87.285 1.954.048 3.9.184 5.829.503 1.083.26 2.183.412 3.28.596.713.063 1.237.277 1.869.614-.47 1.153-.835 2.354-1.41 3.458-.059.113-.255-.011-.383-.016-.736-.031-1.469-.061-2.206-.071-1.071-.004-2.143-.017-3.212.045l-.08.018c.122-4.417-.793-3.762 1.822-3.873 1.835-.15 3.66-.411 5.477-.705 1.945-.324 3.874-.731 5.814-1.081.994-.183 1.995-.341 2.955-.664l.357-.138c.436-.146-.212.058-.184.175.284 1.195.826 2.314 1.239 3.47-1.153.256-2.321.392-3.492.524-2.228.239-4.467.309-6.705.324-.971-.155-2.327.211-3.263-.173-.301-.123-.579-.296-.868-.444.198-1.069.237-2.181.594-3.208.103-.297 2.641-.379 3.001-.387 1.713-.06 3.422-.186 5.129-.338 1.682-.188 3.362-.418 5.023-.743.487-.127 1.007-.217 1.45-.472.285-.14.559-.301.826-.474.17-.087 1.26-.681.501-.247.644 1.185 1.379 2.325 1.933 3.555.042.093-.174.107-.263.157-.768.433-1.561.825-2.35 1.217-.882.329-1.702 1.011-2.643 1.19-.269.051-.545.057-.818.085-.42-1.188-1.025-2.326-1.261-3.564-.042-.219.324-.308.496-.451.648-.538 1.4-.945 2.125-1.366.881-.474 1.735-.995 2.588-1.517l.229-.155c.441-.304-.179-.008-.142.207.18 1.038.609 2.017.914 3.025.191.038.387.055.573.114l-.098.036-.459.104c-.808.183-1.616.365-2.425.54-2.622.576-5.269 1.016-7.928 1.38-2.072.28-4.155.38-6.243.329-.818.006-1.605-.215-2.406-.329-.105-.024-.214-.04-.322-.032-.286.045-.573.048-.862.043-.355.015-.678.043-.89-.276-.121-.56-.105-1.144-.126-1.715-.078-.004-.073-.114.005-.11.022-.57.039-1.156.171-1.711.216-.304.524-.278.871-.25.161-.002.321-.011.481-.033.491-.051.985.004 1.47.084.576.143 1.167.224 1.759.253 1.852.098 3.708-.068 5.546-.283 2.554-.341 5.095-.776 7.613-1.321 1.508-.326 3.041-.866 4.59-.669 1.108 3.04 1.848 2.956-.147 4.191-.89.585-1.82 1.101-2.745 1.626-2.258 1.266-1.451 1.706-3.183-2.22-.939.145-.659.143-.253-.044l1.693-.809c.795-.401 2.483-1.294 2.486-1.29.86 1.048 1.536 2.234 2.304 3.352-.241.14-.485.242-.731.36-.392.217-.775.45-1.172.657-.769.328-1.558.596-2.383.748-1.801.359-3.624.556-5.454.697-1.795.159-3.59.257-5.392.209-2.349.048-1.519.604-1.275-3.007-1.043-.474-.928-.33-.459-.296.72.053 1.443.017 2.165.035 2.08-.014 4.168-.038 6.234-.307 1.199-.189 2.377-.477 3.574-.681 1.584 3.352 2.594 3.297.24 4.129-1.129.366-2.294.587-3.462.79-1.965.384-3.932.76-5.904 1.105-1.98.327-3.968.668-5.98.697-2.969.084-2.465.663-2.338-3.88.002-.08.16-.009.24-.014 1.165-.065 2.332-.074 3.498-.067.628.013 1.255.03 1.883.061l.389.025c.081.004.261-.074.244.005-.25 1.172-.654 2.305-.981 3.457 1.342.696.385.203-.076.206-1.116-.162-2.222-.374-3.326-.608-1.775-.308-3.565-.409-5.363-.489-1.984-.096-3.968-.205-5.95-.343-2.123-.178-4.245-.371-6.365-.581-2.381-.189-4.765-.357-7.156-.314-1.54.001-3.079-.015-4.618-.08-1.54-.095-.67.098-.652-3.477 0-.019 1.005-.142 1.078-.139 1.239-.026 2.477-.013 3.714.059 1.516.05 3.03.165 4.546.231 1.957.075 3.916.147 5.865.351 2.219.221 4.429.515 6.651.707 1.099.062 2.196.072 3.295.017.544 4.173 1.595 3.838-.754 3.932-1.095.003-2.19.052-3.285.001-1.026-.008-2.051-.071-3.077-.075-.935-.013-1.87-.022-2.804-.067-.739-.038-1.477-.1-2.218-.103-1.579-.042-3.157-.11-4.737-.148-2.483-.032-4.966.007-7.441.23-2.553.225-5.103.484-7.625.957-1.292.234-2.586.542-3.891.697-.277.033-.71.317-.835.068-.521-1.04-.553-2.259-.829-3.388 1.652-.576 3.407-.801 5.1-1.223 1.885-.384 3.777-.731 5.673-1.057 1.57-.203.575-.207.922 3.546.004.038-.461.047-.8.066l-.617.035c-2.387.1-4.764.409-7.106.877-2.576.622-5.166 1.349-7.376 2.871-1.539 1.121-2.848 2.477-4.153 3.858-1.301 1.253-.491.763-3.304-1.867-.064-.06.106-.139.164-.204l.746-.803.577-.619c1.234-1.353 2.429-2.773 3.898-3.881.824.864 1.732 1.655 2.472 2.593.042.053-1.924 1.704-2.02 1.784-1.347 1.135-2.674 2.295-3.992 3.463l-.328.308c-.891.768-1.716-1.611-2.536-2.454l.069-.039.243-.161.35-.227c.088-.054 1.039-.717 1.083-.68 2.829 2.377 3.302 1.874 2.067 3.017-1.3 1.143-2.617 2.268-3.878 3.455-1.753 1.563-3.475 3.16-5.222 4.729-.08.073-1.449 1.311-1.473 1.299-2.608-1.27-3.565-1.312-2.257-2.81.859-.86 1.759-1.686 2.728-2.422.609-.417 1.435-1.12 2.293-.574 1.777 1.131 1.033 2.316.436 3.515-.714 1.315-1.492 2.592-2.296 3.853-.051.082-.121.337-.153.246-.061-.169.181-.416.049-.536-4.731-4.292-1.143-1.511-2.57-1.297-.252.038 1.348-.69.601-.473 1.394-1.177 2.807-2.332 4.128-3.593.132-.116 1.601-1.437 1.727-1.392 2.373.856 3.544 1.27 2.072 2.996-1.284 1.366-2.685 2.621-4.12 3.826-1.409 1.108-2.877 2.249-4.654 2.674-1.63.139-2.79-.329-3.289-1.99-.206-1.526.408-2.826 2.038-3.131.278.037.571.016.835.112 1.141.412 1.575 1.639 1.302 2.733-.986.271-1.938.733-2.957.814-.326.026-.993-2.097-1.045-2.32-.578-2.153-.954-4.346-1.256-6.555-.243-1.501-.486-3.005-.916-4.466.667.861 2.593.888 3.08-.096.009-.018-.065.273-.047.034-.038-.347.165 1.047.254 1.067.262 1.2.426 2.421.303 3.65-.065.471-.104 1.164-.3 1.54.159.83.615 1.587.906 2.371.121.265 1.103 2.364.946 2.506-2.501 2.269-2.138 2.369-3.233 1.27-.634-.921-1.06-1.961-1.556-2.959-.41-.795-.815-1.715-1.62-2.181-.911-.252-1.815.042-2.743-.022-.508-.581-1.261-1.017-1.523-1.743-.356-.99 1.296-1.971 1.852-2.474 1.022-.875 2.026-1.771 3.005-2.693l.527-.499c3.629 1.892 3.318 1.009 2.81 2.043-.212.66-.332 1.348-.378 2.039-4.023.847-3.305 1.497-3.634-1.024-.151-1.209-1.341-4.639 3.043-2.452.557 1.205 1.184 2.374 1.782 3.558.931 1.837 1.874 3.669 2.769 5.524.722 1.514.506.635-2.9 2.043-.072.03-.084-.132-.121-.2-.131-.243-.359-.728-.46-.941l-.359-.765c-.889-2.056-1.805-4.111-2.415-6.271l-.188-.752c-.037-.168-.252-.458-.088-.507 3.838-1.152 3.465-1.299 3.185.506-.221 1.477-.621 2.939-1.757 3.986-.259.162-.497.361-.776.486-1.091.491-2.275.232-3.329-.201-1.361-.571-.463-.052 1.366-2.888.069-.107.161.199.244.296l.359.419.432.525c.576.693 1.148 1.389 1.744 2.065.094.106.348.188.286.315-.474.961-1.178 1.79-1.767 2.685-.908-.577-1.593-1.407-2.346-2.167-.866-.925-2.686-2.505-1.663-3.995.317-.462.999-.506 1.499-.759.974.218 1.797.696 2.604 1.281.063.041.258.093.188.122-1.335.557 1.295-3.143-1.819 1.086-.156.212.016.526.02.789l-.01-.051-.153-.321c-.512-1.278-.875-2.594-.131-3.866.396-.232.731-.644 1.187-.696 1.53-.176 2.074 1.292 2.014 2.462-.421 2.075-2.294 2.762-3.484.761-.331-1.074-.251-2.133.157-3.184.266-.724.06-.205.348-.845.053-.118.146-.48.168-.352.028.167-.08.376.028.506.382.459.908.777 1.362 1.165 1.595-.326-.503.191-.733.482-1.18.635-2.31 1.428-3.615 1.772-.519-.369-1.206-.576-1.556-1.108-.576-.872.891-2.1 1.362-2.596.22-.202 1.877-1.688 2.146-1.448.693.615 1.111 1.497 1.524 2.326.052.106-.155.177-.233.266-.733.692-1.566 1.271-2.348 1.906l-1.067.8c-1.628-1.951-2.259-1.979-1.416-2.467.902-.527 1.822-1.026 2.748-1.511 1.773-.984 3.164 1.523 1.391 2.507zM262.825 46.665c1.551.99 3.103 1.978 4.672 2.939 2.587 1.627 2.591.484-.16 3.65-.795-.74-1.629-1.433-2.484-2.103l-.432-.308c-.985-.664-.22.233.38-.144.5-.314.802-.868 1.203-1.301-.082-.938-.214-.986.297-.519.484.443.979.874 1.476 1.302.416.38 2.376 1.807 1.821 2.594-.544.772-1.582 1.033-2.373 1.55-1.078-.462-2.039-1.156-3.04-1.761.969.129-.548-.215-.403-.186.266.053.605.356.798.165.673-.665 1.022-1.595 1.486-2.42.078-.138-.437-.508.238.097.803.737 1.676 1.387 2.438 2.168.863 1.267.906.989-1.582 3.078-.129.108-2.315-1.154-2.559-1.288-.857-.399-1.743-.938-2.66-1.097 2.386-.28 1.127.307 1.783-3.051.008-.042.214.093.598.284l1.587.758c1.612.692 3.192 1.476 4.842 2.073.777.211-.857-.299-1.264.49-.395.766-.124 1.72-.139 2.582-.002.135.465.306-.198-.016-1.067-.48-2.174-.868-3.247-1.335-1.419-.76-1.041-.396 1.064-3.687.131-.205.483.059.723.095.763.114 1.52.264 2.283.383.9.198 1.837.184 2.737.376-1.428-.075.241-.047-.786 3.628-.035.127-.258-.057-.387-.085-.525-.113-1.052-.214-1.576-.332-.413-.076-.81-.221-1.222-.303l-.127-.011c.114.01.281.127.342.03.574-.896.971-1.893 1.456-2.84-.034-.056-.134-.111-.101-.167l.47.194c.42.174.847.307 1.28.447.568.117 1.217.354 1.791.147.412-.275.751-.64 1.097-.991.718-.778 1.519-1.47 2.305-2.177 1.421-1.201.492-.509 2.621 2.527-.817.677-1.566 1.433-2.272 2.224-1.035 1.227-.366.898-2.81-2.184-.082-.103.186-.185.276-.28l.434-.468c1.69-1.995 3.526-3.85 5.426-5.644 1.307-1.081 2.471-2.376 3.889-3.319.661 1.05 1.471 2.02 1.982 3.151.073.162-.266.237-.4.354-.941.819-1.863 1.654-2.773 2.507-1.442 1.423-2.839 2.89-4.229 4.364-.619.638-1.23 1.279-1.942 1.814-.929.655-2.027.924-3.126 1.13-1.467.232-2.952.32-4.435.36-1.362.08-2.714-.11-4.068-.207l-.134.009c.202-.026.553.127.608-.069.308-1.105-.806-3.536.335-3.424.288.028.566.121.849.181 1.105.251 2.22.444 3.355.466.558-.006 1.106-.108 1.636-.276.639-.165 1.261-.385 1.884-.601 1.089-.371 2.118-.878 3.125-1.429 1.954-1.146 3.904-2.3 5.868-3.431 1.025-.587 2.047-1.177 3.073-1.761.353-.201.892-.442 1.188-.755-1.061 1.473-.906.741.772 3.204l.311.05c.046.062-.147.046-.22.073-.328.122-.396.162-.727.315-.919.488-1.777 1.079-2.667 1.617-1.93 1.179-1.771.417-2.649-2.854-.006-.022.543-.518.769-.725 1.041-.892 2.122-1.737 3.219-2.558.036-.017.836-.743.543-.412.399-.816 1.16-1.223 1.948-1.584.987-.453 1.964-.928 2.926-1.432 2.169-1.153.885-1.199 2.76 2.712-.963.496-1.928.987-2.925 1.414-.778.304-2.009.674-2.633-.317-1.026-1.631-.337-2.391.641-3.19.233-.277.711-.533.8-.921l-.051.021-.135.501c.19.421.252.929.57 1.264.25.262.675.263 1.011.398l.097.049c-.276.302-1.176.727-1.52.942-1.085.754-2.222 1.466-3.204 2.357 1.098-1.186.199-.024-1.914-3.144-.039-.057.122-.065.181-.099l.468-.276c.403-.248.867-.557 1.261-.815.292-.002 1.525-1.23 1.757-1.27.084-.015-.229.096-.19.172.524 1.037 1.193 1.993 1.79 2.99-1.172.724-2.373 1.482-3.519 2.276l-.561.408c-.132.099-.314.47-.381.319-1.313-2.974-2.361-2.682-.893-3.605 1.549-.982 2.754-2.345 3.856-3.788.858-1.219 1.596-2.523 2.003-3.962.14-.452.144-.91.123-1.374 3.5 5.433 3.426-3.699 3.867.028.032.831-.085 1.66-.3 2.461-.037.092-.016.307-.111.277-4.092-1.275-3.936-.818-2.588-3.214.509-.685.986-1.774 1.842-2.117.353-.142.735-.193 1.103-.29.586.373 1.304.592 1.758 1.118.668.772-.15 2.894-.438 3.74l-.328.991-.091.319-.026.078c-.011-.212.136-.476-.002-.637-.484-.564-1.16-.929-1.741-1.393-.204.043-.403.13-.611.129-.069 0 .106-.088.158-.132l.335-.281c.44-.387.866-.79 1.286-1.198.111-.111 1.077-1.136 1.091-1.121 2.714 2.896 3.174 1.999 2.029 3.437-.898 1.08-1.653 2.266-2.489 3.391-1.197 1.457-2.162 1.562-3.701.161-.192-.175-.327-.97-.386-1.259-.222-1.11-.463-2.216-.715-3.32-.319-1.239-.213-2.496.809-3.402.228-.202.519-.32.779-.48 1.549-.627 3.235-.628 4.873-.486 1.958.276 3.221 1.04 4.201 2.754.487 1.269.33 2.588.009 3.873-.189.63-.429 1.64-1.095 1.97-.435.215-.929.282-1.393.424-.115 1.697-1.771-1.642-1.72-1.103-.522-.039-1.025.027-1.525.173l-.125.07c-.1.116.31-.121.382-.256.184-.345.416-.71.402-1.1-.033-.918-.334-1.055-.846-1.451.654-.043 1.376-.057 2.053-.093.505-.019 1.087-.01 1.552-.112-.928.268-1.148 1.032-1.177 1.895l.077.283-.261-.344c-.674-.896-1.146-1.894-1.446-2.97-.293-2.497 1.306-3.376 3.547-3.082 1.929.529 2.929 1.718 3.566 3.553.322 1.338.187 2.622-.562 3.775-1.188 1.248-2.687 1.277-3.628-.418-.294-.53-.037-1.157.1-1.663.397-.849 1.055-1.497 1.78-2.07.413-.305.826-.611 1.253-.896-1.564.528.953 3.321 1.007 3.409.068.111.259-.038.39-.033.077.003-.117.101-.179.145-.631.476-1.261.946-1.96 1.318-1.484.658-2.671-.104-3.706-1.123-.472-.512-.985-.937-1.688-1.029-.484-.045-.957.057-1.428.143-1.938.658-1.987-1.132-2.304-2.976-.025-.144.673-.744.759-.822 1.177-.949 2.589-1.238 4.064-1.237 2.152.226 3.207 1.122 4.005 3.09.411 1.457.302 2.955.08 4.431-.199 1.233-.552 2.433-.826 3.65l-.203.89c-1.05-1.769-.282-1.159-3.505-.508l-.07.145.004-.089.036-.513c.128-2.248.433-2.198 3.886-1.242.228.063.101.462.152.693.14 1.234.204 2.476.318 3.713l.053.452c.122.891.061-.524-.332-.482-3.643.384-3.023 2.362-3.393 1.128-.143-.506-.226-1.081-.416-1.542.894 1.279.501 1.137 3.114.565.504-.11.308-1.135.382.08.062.655.347 1.246.652 1.818.504.701.614.908.905 1.841-1.103.545-2.156 1.205-3.308 1.635-.135.05-.226-.18-.331-.278-.607-.568-1.008-1.257-1.384-1.989-.8-1.802-.962-3.778-1.07-5.722-.081-2.055.086-4.108.23-6.156.022-1.001.16-2.011.046-3.01l-.038-.072c-.057-.052.002.154 0 .232-.402-.143-.805-.281-1.212-.41-.257-.08-.467-.027-.696.094-.396.252-.755.556-1.098.875-.474.505-.056-.005.033-.298l.014-.076c.149.382.006 1.363-.009 1.785-.03 1.452.182.287-.567-.349-.221-.188-.527-.241-.79-.361-.111-.006-.227.017-.332-.017-.138-.045.248-.151.375-.22.61-.331 1.204-.691 1.809-1.03 1.662-.952 3.428-1.677 5.287-2.129 1.461-.257 2.999-.01 3.825 1.373.156.261.22.566.33.85.303 1.566-.222 3.068-.716 4.534-.499 1.41-.828 2.87-1.148 4.328-.189.963-.443 1.941-.408 2.93.05.36.173.708.348 1.026.125.186.372.266.561.379.458.281.936.508 1.444.681 1.869.619 1.074-.289-.852 3.542-.497-.357-1-.705-1.516-1.035-.34-.185-.674-.368-.991-.59-1.121-1.28-.996-.768.713-3.452.205-.322 1.491-.03 1.82.033.819.152 1.651.223 2.478.324 1.454.166 2.902.366 4.342.628 1.122.238 2.257.384 3.398.494.766.057 1.537.057 2.293.194 1.786.658 1.143.186-.199 4.107-.029.085-1.964 0-2.175-.011-1.268-.075-2.537-.147-3.804-.239-.115-.012-1.649-.108-1.632-.29.371-4.106-.41-3.92 1.362-3.988 1.357.016 2.713.024 4.069.003 2.05-.069 4.1-.123 6.151-.06 1.517.061 3.023.267 4.534.404.997.072 1.996.116 2.991.208.951.101 1.904.164 2.858.223.925.055 1.851.07 2.776.117 1.668.091.681-.247-.311 4.123-.021.094-.192-.016-.288-.022-.424-.026-.504-.023-.954-.035-1.283-.012-2.565-.021-3.848.02-1.181.041-2.361.1-3.541.152-.873.061-1.748.076-2.623.073-1.078-.015-2.156-.071-3.232-.143-1.034-.074-2.067-.165-3.103-.215-1.057-.05-2.116-.077-3.173-.074-1.041.011-2.081-.025-3.12-.075-.832-.068-1.665-.12-2.499-.141-.611-.009-1.223.002-1.833-.036-2.093.053-.934-.562-.751-3.996 1.293-.135 2.598-.173 3.897-.206 2.55-.048 5.1.007 7.649.046 2.758.03 5.515.009 8.272-.016 2.342-.011 4.682-.095 7.024-.143 1.613-.045 3.226-.112 4.84-.122 1.27-.032 2.54-.029 3.81-.039.784.01 1.569-.026 2.35-.094.391-.038.782-.075 1.174-.099l.148-.006c.334 4.754 1.188 4.002-1.53 4.337-1.118.179-2.24.348-3.341.614l-.186.057c-.206.083.568-.107.579-.329.055-1.109-.186-2.215-.376-3.309-.026-.152-.399-.085-.111-.121.949-.067 1.862-.338 2.762-.629 1-.282 1.878-.797 2.683-1.44.534-.499 1.026-1.041 1.543-1.558.536-.566 1.202-.975 1.918-1.271.285-.146.624-.244.848-.485l-.046.226c2.349 3.179 3.017 2.36.638 3.292-1.618.623-3.239 1.24-4.874 1.816-1.411.479-2.843.893-4.269 1.321-.429.123-.857.256-1.298.329-.955-.492-.532-2.937-.56-3.215l.195.579c.239.492.189.409.597.468.066-.021.096.072.03.093-.081.073-.192.123-.244.218-.635 1.158-.592 4.114-1.123-2.036.385-.172.795-.276 1.194-.408 1.367-.422 2.748-.8 4.1-1.27 1.599-.562 3.18-1.169 4.766-1.767.227-.085 2.378-.919 2.492-.815.867.794 1.514 1.799 2.27 2.698-.314.615-.66 1.148-1.199 1.594-.555.454-1.154.842-1.823 1.108-.25.131-.515.212-.711.428-.619.617-1.195 1.28-1.872 1.837-1.195.971-2.521 1.722-3.988 2.208-1.357.431-2.748.819-4.183.828-.192-.013-1.354-.048-1.437-.247-1.219-2.905-1.428-3.62.779-4.224 1.232-.26 2.463-.529 3.715-.681.046-.006 1.631-.208 1.632-.199.667 4.112-.911 4.211.535 4.098-.357.022-.714.049-1.07.083-.899.077-1.8.118-2.703.113-1.251-.009-2.502-.002-3.753-.002-1.597.037-3.195.063-4.791.121-2.362.077-4.726.114-7.089.144-2.791.033-5.582.053-8.372.003-2.501-.031-5.003-.1-7.505-.079-1.101.019-2.203.019-3.303.059-.155-3.379-1.374-3.987.073-3.855.637-.037 1.275-.021 1.913-.008.877.014 1.754.029 2.63.077.974.057 1.947.067 2.922.049 1.119.012 2.236.025 3.354.086 1.061.051 2.121.105 3.18.191.991.067 1.982.13 2.975.138.804.004 1.606-.015 2.409-.06 1.203-.063 2.406-.118 3.61-.147 1.362-.043 2.723-.148 4.087-.118.091.003 1.703.015 1.712.096.477 4.213 1.279 4.269-.485 4.176-.939-.049-1.879-.062-2.818-.12-.998-.061-1.996-.128-2.99-.233-.992-.093-1.988-.13-2.982-.207-1.429-.131-2.852-.322-4.286-.389-1.986-.064-3.97 0-5.956.061-1.362.021-2.724.03-4.085-.027-1.54-.08.176.077.219-3.944.001-.112-.743-.132-.089-.055l.359.035c1.25.071 2.498.158 3.747.236.502.026.494.03.957.039.112.002.347-.098.336.013-.39 4.014-1.66 3.405.077 3.983-.565-.094-1.247-.056-1.846-.139-1.269-.096-2.53-.276-3.776-.536-1.376-.242-2.756-.452-4.147-.594-.922-.126-1.823-.311-2.717-.57-.642-.138.017-.038.08-.179 1.225-2.767 1.578-2.096.487-3.256-.441-.274.686.416.692.44.539.347 1.058.722 1.588 1.082-1.489 3.702-.413 3.828-2.536 3.119-.707-.267-1.402-.563-2.042-.969-.789-.443-1.506-.977-1.994-1.758-.499-.876-.834-1.818-.866-2.837-.01-1.299.203-2.573.494-3.837.363-1.568.725-3.137 1.178-4.682.225-.732.464-1.541.652-2.248.553.742 1.405.483.496.529-1.498.303-2.878.986-4.209 1.719-1.311.759-2.593 1.687-4.152 1.777-.404-.133-.86-.161-1.212-.399-1.032-.696-1.103-1.877-1.02-2.97l.035-2.143c.174-.816.534-1.483 1.185-2.019.712-.656 1.458-1.277 2.36-1.658 1.062-.381 2.143-.552 3.243-.197.674.193 1.344.409 1.978.712 1.123.657 1.904 1.593 2.082 2.921.115 1.219.055 2.444-.034 3.664-.114 1.891-.29 3.783-.228 5.679.078 1.409.189 2.834.7 4.164.82 1.786 1.334.422-2.547 2.648.672 2.032.028.245-.382-.216-.6-1.11-1.055-2.288-1.128-3.562-.009-.564-.012-2.577.635-2.824 2.597-.992 2.391-.778 3.406.526.322.815.492 1.681.623 2.546.176 1.553.302 1.353-3.309 1.92-.437.069-.609-1.869-.63-2.137-.105-1.148-.186-2.297-.28-3.446l.04.005 3.447-.057c.133-.015.096-.649.058-.148l-.013.307c-.012.283-.065 1.809-.279 1.903-3.188 1.399-2.641 1.529-3.756-.231-.133-.898-.064-1.768.161-2.651.263-1.118.559-2.228.779-3.356.129-.847.235-1.707.099-2.561-.012-.361.145-.361-.381-.501-.507-.027-1.037.004-1.477.287-.135.065.043-.008.008-.098-.345-.91-.549-1.91-1.127-2.693-.189-.255-1.263.021-.951-.041l.221-.051c1.024-.26 2.092-.321 3.136-.148 1.393.356 2.6.978 3.573 2.062.755.773-.128-.046-.747.402.571-.322 1.079-.765 1.637-1.118.207-.126 1.469-.914 1.69-.655 1.659 1.947 2.574 2.66 1.016 3.593-.321.118-.571.381-.866.548-.174.138-.557.497-.634.521.221-1.781-1.855-2.795-3.016-1.407-.236.429.115-.249-.012-.464-.054-.389-.188-.68-.547-.878-.082-.079.532-.439.547-.457.243-.298.478-.785.282-1.17.058.605.495 1.142.796 1.646 1.098 1.539 1.474 3.041-.665 4.029-.797.206-1.604.221-2.424.243-1.153.022-2.327.163-3.457-.145-.29-.154-.655-.214-.871-.463-1.562-1.802-.449-3.348 1.385-3.954 1.408-.345 2.853-.426 4.212.173.705.424 2.676 2.124.184.655-.419.144-.862.23-1.256.431-.374.191-.505.853-.234-.011.093-.41.146-.878.269-1.256.361-.211-1.06-.675-1.083-.609-.94-.104-1.875-.073-2.813.007.426-.634.202-1.405.341-.291.237 1.121.492 2.239.687 3.368.15.703-.078-.532-1.55-.685-.81-.084-1.497.969-1.067.328.828-1.235 1.705-2.44 2.637-3.6 1.158-1.393.192-.525 3.254 1.915.06.048-.138.071-.197.121l-.318.286-.416.374c-1.064.993-2.039 2.117-3.49 2.514-.667-.461-1.457-.781-2.001-1.382-.412-.455.3-2.272.458-2.791l.174-.545.153-.477.109-.346.033-.051c.585 1.297-.33.354 1.852 1.503.116-.04.962-.248.914-.383 0-.001-.092.021-.271.239-.145.176-.292.421-.412.61-1.168 2.086.023 1.263-4.171.056l-.031.066c.106-.361.136-.748.17-1.121.968-.355 3.639-2.643 3.716-.73.1.949-.067 1.908-.293 2.828-.584 1.852-1.46 3.584-2.627 5.142-1.386 1.833-2.976 3.504-4.923 4.753-.098.057-1.589.966-1.727.835-3.01-2.866-2.385-2.942-.467-4.3 1.501-.989 2.997-2.019 4.64-2.759.692.971 1.523 1.856 2.075 2.913.08.154-.229.26-.356.379-.617.577-1.383.986-2.057 1.486-.626.419-1.248.85-1.887 1.251-.174.109-.369.441-.529.314-3.012-2.395-3.221-1.847-2.121-3.16 1.166-1.004 2.44-1.879 3.738-2.701 1.164-.707 3.147-2.144 4.542-1.055.433.338.535.96.803 1.441-.04.291-.046.588-.119.872-.227.884-.996 1.548-1.561 2.214-.552.707.548-.591-.468-1.953-.67-.898-2.199-.294-1.517-.493.962-.437 1.888-.946 2.842-1.399 2.509 3.613 2.99 2.691.542 3.999-1.013.522-2.031 1.037-3.076 1.493-.6.286-.399.22-.151-.182l-.043.1c-.39.709-.955 1.251-1.62 1.707-1.003.751-2.02 1.489-2.927 2.359-1.475 1.324.013.293-2.385-2.431-.122-.139-1.059.494-.272.007 1.014-.653 2.033-1.306 3.104-1.861.391-.175 2.437-1.043 2.785-.722 2.307 2.127 2.022 1.88 1.014 3.477-1.471 1.113-3.191 1.85-4.757 2.815-1.989 1.153-3.961 2.337-5.956 3.48-1.18.635-2.376 1.244-3.648 1.675-.709.26-1.423.51-2.154.699-.887.214-1.78.41-2.701.396-1.378-.024-2.73-.245-4.073-.553-.176-.038-1.724-.281-1.749-.477-.368-2.878-.775-3.75 1.268-3.593 1.18.165 2.369.238 3.561.225 1.295-.047 2.592-.117 3.876-.308.546-.101 1.105-.199 1.595-.475.55-.397.984-.928 1.467-1.399 1.449-1.503 2.856-3.048 4.367-4.491.936-.896 1.896-1.76 2.871-2.613.115-.101.235-.406.346-.3.886.843 1.549 1.893 2.323 2.839l.202-.146c-.738.699-1.595 1.302-2.356 1.979l-1.004.91c-1.841 1.746-3.619 3.551-5.265 5.483-.355.378-1.023 1.105-1.073 1.083-3.663-1.592-3.679-1.524-2.235-3.164.889-.941 1.774-1.895 2.804-2.685 1.377-.968.486-.543 2.724 2.542.012.017-.665.602-.756.676-.734.607-1.406 1.28-2.05 1.981-.856.89-1.769 1.718-2.994 2.049-1.234.221-2.449.16-3.649-.229-1.258-.367-2.54-.78-3.488-1.73.396-1.06.634-2.193 1.188-3.179.085-.151 1.876.301 2.095.352.504.11 1.008.222 1.515.319.14.027.406-.063.421.08.408 3.867 1.206 3.783-.308 3.758-1.015-.009-2.015-.253-3.02-.366-.164-.027-2.617-.402-2.614-.44.118-1.193.504-2.345.727-3.523l-.058-.008c1.102.503 2.254.886 3.346 1.412.186.09 1.148.518 1.191.71.206.913.46 1.947.091 2.807-.405.943-1.919.528-2.599.331-1.753-.643-3.452-1.414-5.152-2.185-.299-.137-3.042-1.409-3.073-1.642-.474-3.551-.612-3.042 1.592-3.38 1.218.407 2.368 1.012 3.502 1.606.251.142 1.426.693 1.598.926.042.057-.17-.072-.212-.015-1.885 2.562-2.313 1.804-1.468 2.913-.786-.719-1.646-1.361-2.424-2.091-.133-.131-1.013-.956-.969-1.129.753-2.982 1.279-3.243 3.178-2.104.713.453 1.569.964 2.184 1.417-.697.545-1.631.879-2.092 1.634-.357.585.891 1.556.177.9l-.348-.315-.462-.413c-.667-.587-2.286-1.785-2.611-2.567-.167-.403-.207-.847-.311-1.271.412-.526.689-1.194 1.237-1.577.848-.593 2.499.664 3.126 1.144.98.79 1.922 1.625 2.843 2.483-.637.897-1.218 1.837-1.911 2.691-.003.003-.276-.119-.488-.242l-1.643-1.014c-1.637-1.023-3.305-2.006-4.858-3.154-1.867-1.381.086-4.021 1.953-2.64zM259.897 237.522c.915.862 2.046 1.341 3.232 1.701 2.266.652 4.634.741 6.973.868 2.048.077 4.097.109 6.146.129 1.147.062 2.282-.067 3.41-.262.74-.111 1.458-.331 2.193-.471l.845-.223c.291-.143-.32.249-.39.331-.125.194.271-.36.332-.454l.229-.432c.108-.438.257-.864.442-1.276.163-.244.241-.998.058-.05.508 1.436.123 1.226 1.622 1.833l.396.025c.051.021-.098.052-.149.075-.287.128-.577.236-.87.35-2.272.947-4.683 1.402-7.104 1.763-3.018.412-6.065.553-9.107.451-.202.004-2.482-.152-2.494-.41-.161-3.578-.573-3.238 1.18-3.626 1.893-.199 3.799-.257 5.701-.313.896-.052 1.797-.063 2.689-.161.083-.009.248-.108.249-.025.016 1.239-.135 2.475-.202 3.713-1.907.057-3.81.106-5.717.021-1.944-.044-3.875-.276-5.787-.621-1.886-.387-1.397-.61-.269-3.998.053-.16 1.898.057 2.05.069 1.452.091 2.901.208 4.349.348 1.922.345 1.393.49.166 3.935-.019.053-1.98.182-2.137.193-1.498.016-2.999.139-4.494.013-.656-.027-1.26-.264-1.879-.442-.091.007-.266-.029-.4-.072-.726-.18-1.375-.57-2.039-.902-.787-.412-1.604-.764-2.361-1.23-.826-.463-1.321-1.188-1.659-2.05-.27-.927-.258-1.898-.253-2.854-.007-1.592.057-3.183.005-4.775-.04-2.286-.496-4.531-.9-6.773-.414-1.954-.899-3.89-1.228-5.86-.236-1.364.033-1.414 1.257-1.921l.468.034c.052.028.012.102-.04.073l.216-.104c1.324-.358 1.544-.218 1.911 1.08.534 1.944.959 3.915 1.407 5.88.565 2.468.997 4.975 1.08 7.511.012 1.631.034 3.263-.029 4.894-.007.486-.011 1-.004 1.473-.049-.062-.332-.347-.116-.115.696.404 1.425.748 2.136 1.126.384.211.767.42 1.179.569.317.058.622.179.918.307.181.121.434.141.656.174 1.333.104 2.67.056 4.005.002.636-.005 1.592-.039 1.593-.033.08 1.216-1.035 3.69.182 3.651l-.186-.047c-1.296-.275-2.637-.302-3.956-.36h-.638l-.568.019c-.005-3.238-.566-3.868.213-3.658 1.759.261 3.527.458 5.302.559 1.802.058 3.603.172 5.406.139.108 1.23.266 2.457.323 3.691l-.154-.029-.394-.037c-.737-.024-1.479.018-2.216.02-1.727.087-3.458.15-5.174.38-1.322.109.085.068-.405-3.223-.016-.108-.229-.025-.315-.094-.052-.042.133-.001.2.002l.466.024.74-.008c2.84-.05 5.681-.17 8.505-.479 2.125-.305 4.25-.681 6.242-1.516 1.161-.463 2.525-1.087 3.627.033.328.332.341.869.511 1.304-.076.521-.222.986-.48 1.449-.105.274-.213.546-.271.834-.12.546-.284 1.074-.596 1.545l-.504.806c-.396.473-.879.827-1.484.983-.268.054-.522.157-.786.228-.836.324-1.713.511-2.588.694-1.381.253-2.77.423-4.177.377-2.09-.042-4.18-.071-6.269-.12-2.743-.1-5.512-.29-8.144-1.134-1.838-.721-3.68-1.538-4.909-3.158-1.669-2.144 1.363-4.504 3.032-2.36z"/><path d="M251.052 257.709l-202.116 42.036c8.565 14.462 36.259 8.448 49.677 5.283 4.613-1.64 154.708-37.103 154.708-37.103l-2.269-10.216z" fill="url(#b)"/><path d="M249.488 255.23c1.45.572 2.621 1.536 3.585 2.741.725.979 1.185 2.111 1.634 3.234.309.835.545 1.694.669 2.577.151.697.146 1.411.141 2.119-.072.554-.179 1.127-.436 1.628-.092.191-.13.384-.192.586-.09.214-.099.466-.248.653-.069-.273-.425-.19-.645-.189.022 1.275-1.78 1.306-1.803.032-.387-.115-.63-.215-.613-.667.003-.206.065-.399.095-.6.07-.373.174-.74.336-1.084.046-.183.157-.348.148-.548.071-.453-.01-.916-.045-1.369-.139-.652-.246-1.315-.496-1.937-.314-.832-.67-1.655-1.146-2.409-.565-.76-1.278-1.356-2.162-1.719-2.155-.832-.979-3.88 1.176-3.048zM249.607 255.113c1.376-.23 2.769-.326 4.157-.449.878-.055 1.754-.134 2.631-.214.392-.043.787-.046 1.178-.081.108.008.223-.01.322-.029 1.249.501 1.379.671 1.799 1.581.31.605.613 1.212.952 1.801.41.755.772 1.53 1.001 2.359.203.737.307 1.481.304 2.244-.004.884-.23 1.705-.61 2.495-.429.735-1.01 1.36-1.624 1.944-.542.596-1.261.958-1.929 1.383-.478.215-.964.45-1.481.55-.333.146-.49.093-.688-.186-.246-.216-.454-.464-.722-.654-.043.04-.1-.021-.057-.061-.155-.301-.439-.558-.415-.918.096-.427.34-.73.747-.907l1.028-.575c.468-.233.844-.601 1.247-.929.346-.359.705-.711.992-1.119.195-.311.242-.69.269-1.049.008-.439-.05-.875-.195-1.292-.194-.601-.407-1.187-.756-1.722-.335-.657-.696-1.3-1.017-1.965-.407-.843-.254-.523 1.107.199-.051-.017-.115-.051-.16-.021-.342-.011-.688.041-1.029.059-.889.07-1.78.113-2.67.177-1.331.076-2.659.184-3.986.304-2.067.279-2.462-2.643-.395-2.922zM255.922 258.748c.654 1.243 1.202 2.532 1.392 3.929.298 1.203-.781 3.218-2.019 1.398l-1.141-2.686c-.292-.577-.622-1.135-1.1-1.568-.725-1.284.32-1.477 1.715-1.823.306-.076 1.048.716 1.235.884 1.047 1.002 1.841 2.185 2.302 3.556.109.537.333 1.876-.075 2.361-.056.067-.54.344-.704.44-.017.056-.097.032-.08-.025-.583-.504.735.606-.606-.294-.371-.249-.635-1.085-.941-1.409-.56-.909-1.071-1.861-1.856-2.604-.122-.133-.279-.24-.372-.396-.213-.357 2.476-.755 1.423-1.752.11.673.341 1.315.582 1.958.337.825.693 1.643 1.101 2.436l-.032-.013-1.158.114c-.194.095-.169.399-.278.586-.095.164-.275-.738-.311-.552-.477-1.094-.843-2.235-1.407-3.291-.883-1.647 1.446-2.896 2.329-1.249zM258.049 257.369c1.331 1.572 2.008 3.453 2.309 5.462.129 1.598-.072 3.181-.577 4.697-.194.691-.555 1.233-1.041 1.745-.476.392-1.071.552-1.679.491-.183.011-.358.025-.538.012-.288-.023-.329.04-.499-.273l-.085-.18c-1.018.258-1.382-1.182-.364-1.439l-.008-.2c.011-.417.175-.392.525-.515.308-.09.618-.127.941-.129.585-.05-.076.095-.22.296-.295.344.183-.631.214-.714.348-1.077.544-2.186.379-3.321-.248-1.451-.707-2.829-1.64-3.995-1.369-1.615.915-3.551 2.284-1.936zM251.922 257.513c1.221.977 2.479 2.15 3.073 3.637.117.294.169.609.253.914.294.744-.12 1.284-.239 1.988.019.056-.06.083-.079.026-.477-.415-1.103-.406-1.504-.945-1.17-1.041-2.04-2.357-3.231-3.382-1.583-1.221.143-3.459 1.726-2.238zM252.213 257.581l3.357-.531.892-.144c.283-.122.577-.044.868-.057.708.084 1.235.46 1.647 1.025.443.698.726 1.484.99 2.263.403 1.151.287 2.257-.037 3.403-.341.714-.084.398-.834.89-.006.059-.089.05-.083-.009-.636-.47-.402-.201-.755-.758-.443-.821-.877-1.636-1.127-2.542-.185-.518-.383-1.03-.619-1.527.221.13.416.237.687.242l-.011.008c-.387.112-.793.128-1.189.198-1.12.144-2.241.284-3.361.433-2.046.3-2.47-2.594-.424-2.894zM255.908 267.437c.983-.423 1.975-.84 2.892-1.396.377-.21.621-.537.843-.895.169-.249.26-.428.274-.735.014-.582-.007-1.165-.014-1.747l-.088-1.841c.199-.576.084-.28.35-.888-.026-.053.049-.09.075-.037.668.205.357.076.938.378.531.623.963 1.332 1.14 2.141.122.724.114 1.45.052 2.18-.061.653-.089 1.338-.428 1.918-.439.752-1.022 1.379-1.769 1.841-1.037.605-2.13 1.096-3.24 1.552-1.747.725-2.773-1.746-1.026-2.471zM259.913 256.024c1.566 1.387 2.298 2.399 2.322 4.542.036.882-.53 1.337-1.039 1.958-.018.056-.097.032-.08-.025-.118-.794-.366-.82-.611-1.538-.678-1.034-1.447-2.018-2.35-2.867-1.464-1.243.294-3.314 1.758-2.071zM259.34 256.697c1.124 1.125 2.03 2.614 2.019 4.266-.003.369-.125.727-.187 1.091l-.28.946c.003.059-.081.063-.083.004l-.357-.809c-.92-1.244-1.735-2.571-2.83-3.681-1.284-1.215.434-3.031 1.718-1.816zM253.813 257.47c1.693 1.542 2.755 3.514 3.66 5.582.603 1.497.379.736.683 2.277.02.055-.058.084-.078.029-.746-1.332-.384-.649-1.084-2.051-1.147-1.801-2.465-3.499-3.928-5.056-.552-.528.195-1.309.747-.781z"/><path d="M254.541 257.404c1.122 1.232 1.76 2.754 2.13 4.357.253 1.091.314 2.181.149 3.285l-.052.001c-.182-1.04-.29-2.1-.68-3.092-.615-1.368-1.324-2.677-2.386-3.758-.561-.593.278-1.387.839-.794zM258.614 256.536c1.473 1.139 2.256 2.745 2.724 4.503.239.91-.073 1.739-.262 2.619l-.052-.004c-.067-.832-.332-1.546-.551-2.35-.53-1.502-1.339-2.799-2.607-3.796-.687-.529.061-1.501.748-.972zM290.003 253.48c.403 1.086.406 2.257.417 3.401l-.052.008c-.309-1.057-.771-2.027-1.254-3.015-.278-.628.61-1.021.888-.394zM292.235 251.745c.669.796 1.258 1.759 1.397 2.814.009.068-.003 1.475-.004 1.599l-.051.01c-.532-1.285-1.373-2.462-2.251-3.537-.627-.643.282-1.529.909-.886zM248.59 258.792c1.384.812 2.269 2.092 2.879 3.542.363 1.066.254 2.096-.053 3.149l-.052.002c-.354-.853-.782-1.676-1.26-2.466-.631-1.027-1.405-1.935-2.453-2.561-1.178-.664-.239-2.329.939-1.666z" fill="#626262"/><path d="M179.46 84.367c2.105.599 4.313-.729 6.194-1.594 2.012-.926 4.939-2.566 7.057-1.185.11.071-.503-.781-.653-.94-.838-.887-1.741-1-2.927-.899-2.275.192-4.093 1.593-6.299 1.962-1.357.227-4.369-.373-5.332.654M143.809 81.117c3.151-.831 5.205 3.474 8.338 2.821.257-.054 1.887-1.341 1.699-1.39-.098-.025-.409.455-.444.491-.703.706-1.906.984-2.875.879-3.564-.387-6.322-2.815-9.88-2.473M156.355 86.86c2.019 4.278 1.079 7.719-2.457 10.853-.511.453-1.299.438-1.673 1.022-.295.462 1.536.92 2.091.92 2.727 0 4.393-2.307 5.306-4.599 2.461-6.179-2.678-10.24-8.285-11.364-.849-.17-2.392-.868-3.163-.429" fill="#ebc83f"/><path d="M153.166 86.983c3.255 2.229-.203 6.146.418 7.604.388.91 3.184 1.189 3.947.593.88-.688.559-1.334.758-2.269.891-4.183-2.433-7.343-5.123-5.928zM154.343 86.635c.427.942.736 1.933 1.098 2.902 2.137 5.73 3.428-1.433-1.098-2.902zM39.13 181.884c1.365 1.731 1.056 4.104.706 6.132-.19 1.101-3.672 7.528-4.051 5.253-.672-4.031 2.703-8.257 3.346-11.385z" fill="#ebc83f"/><path d="M140.96 89.403c1.65 2.591 3.953 4.205 7.031 3.536 1.478-.321 1.537-1.396 2.222-2.555.067-.113.151-.474.183-.347.115.45-.362 1.189-.523 1.574-3.102 7.438-10.466 3.983-8.913-2.207zM185.315 91.957c1.775 4.257 9.048 5.6 12.075 1.84.257-.319 1.221-3.297.523-3.434-1.529-.299-3.716 1.117-5.358 1.145-2.721.046-5.258-.787-7.24.45z" fill="#ae6139"/><path d="M23.108 187.263c.374.999.54 2.058.732 3.107.354 1.937.555 4.079 3.058 3.884.128-.01.629.071.653-.123.195-1.524-1.754-5.811-2.405-7.338-.117-.275-.116-1.307-.392-1.431-.921-.411-.808-.171-1.647 1.901z" fill="#f1862b"/><path d="M379.169 248.841c5.283-3.746 14.082-2.733 20.339-2.605 9.142.188 17.778-7.923 25.016-12.857 1.392-.949 16.931-8.556 15.378-9.366-1.463-.763-9.594 5.069-10.984 5.764-14.803 7.396-30.869 7.484-45.992 13.245-5.213 1.986-10.119 6.034-13.748 10.197-.175.201-1.095 1.35-1.559 1.108-.515-.269.047-.664.071-.998M372.791 239.919c11.326-12.446 29.319-7.663 44.079-11.693 3.565-.974 12.044-7.537 14.528-7.537.069 0-1.799 2.231-5.457 4.932-5.666 4.185-11.767 7.264-18.709 8.645-24.866 4.95-32.03-.024-55.701 15.296" fill="#717171"/></svg>