<svg width="170" height="30" xmlns="http://www.w3.org/2000/svg" viewBox="0 0 170 30"><g fill="currentColor"><path d="M18.662109375 15.78076171875 Q18.662109375 20.23681640625 16.40869140625 22.78857421875 14.1552734375 25.34033203125 10.1435546875 25.34033203125 6.04296875 25.34033203125 3.81494140625 22.8330078125 1.5869140625 20.32568359375 1.5869140625 15.75537109375 1.5869140625 11.22314453125 3.8212890625 8.728515625 6.0556640625 6.23388671875 10.1689453125 6.23388671875 14.16796875 6.23388671875 16.4150390625 8.77294921875 18.662109375 11.31201171875 18.662109375 15.78076171875 zM3.8720703125 15.78076171875 Q3.8720703125 19.55126953125 5.47802734375 21.5 7.083984375 23.44873046875 10.1435546875 23.44873046875 13.228515625 23.44873046875 14.802734375 21.50634765625 16.376953125 19.56396484375 16.376953125 15.78076171875 16.376953125 12.03564453125 14.80908203125 10.099609375 13.2412109375 8.16357421875 10.1689453125 8.16357421875 7.083984375 8.16357421875 5.47802734375 10.1123046875 3.8720703125 12.06103515625 3.8720703125 15.78076171875 z" /><path d="M28.9580078125 25.34033203125 Q27.599609375 25.34033203125 26.47607421875 24.8388671875 25.3525390625 24.33740234375 24.5908203125 23.29638671875 L24.4384765625 23.29638671875 Q24.5908203125 24.51513671875 24.5908203125 25.60693359375 L24.5908203125 31.33251953125 22.4833984375 31.33251953125 22.4833984375 11.17236328125 24.197265625 11.17236328125 24.4892578125 13.07666015625 24.5908203125 13.07666015625 Q25.4033203125 11.93408203125 26.482421875 11.42626953125 27.5615234375 10.91845703125 28.9580078125 10.91845703125 31.7255859375 10.91845703125 33.22998046875 12.81005859375 34.734375 14.70166015625 34.734375 18.11669921875 34.734375 21.54443359375 33.20458984375 23.4423828125 31.6748046875 25.34033203125 28.9580078125 25.34033203125 zM28.6533203125 12.70849609375 Q26.5205078125 12.70849609375 25.568359375 13.88916015625 24.6162109375 15.06982421875 24.5908203125 17.64697265625 L24.5908203125 18.11669921875 Q24.5908203125 21.04931640625 25.568359375 22.3125 26.5458984375 23.57568359375 28.7041015625 23.57568359375 30.5068359375 23.57568359375 31.52880859375 22.11572265625 32.55078125 20.65576171875 32.55078125 18.09130859375 32.55078125 15.48876953125 31.52880859375 14.0986328125 30.5068359375 12.70849609375 28.6533203125 12.70849609375 z" /><path d="M44.2939453125 25.34033203125 Q41.208984375 25.34033203125 39.42529296875 23.46142578125 37.6416015625 21.58251953125 37.6416015625 18.24365234375 37.6416015625 14.87939453125 39.29833984375 12.89892578125 40.955078125 10.91845703125 43.748046875 10.91845703125 46.36328125 10.91845703125 47.88671875 12.638671875 49.41015625 14.35888671875 49.41015625 17.17724609375 L49.41015625 18.51025390625 39.8251953125 18.51025390625 Q39.888671875 20.96044921875 41.06298828125 22.22998046875 42.2373046875 23.49951171875 44.3701171875 23.49951171875 46.6171875 23.49951171875 48.8134765625 22.56005859375 L48.8134765625 24.43896484375 Q47.6962890625 24.92138671875 46.69970703125 25.130859375 45.703125 25.34033203125 44.2939453125 25.34033203125 zM43.72265625 12.68310546875 Q42.046875 12.68310546875 41.05029296875 13.77490234375 40.0537109375 14.86669921875 39.8759765625 16.79638671875 L47.150390625 16.79638671875 Q47.150390625 14.80322265625 46.26171875 13.7431640625 45.373046875 12.68310546875 43.72265625 12.68310546875 z" /><path d="M62.5244140625 25.08642578125 L62.5244140625 16.08544921875 Q62.5244140625 14.38427734375 61.75 13.54638671875 60.9755859375 12.70849609375 59.3251953125 12.70849609375 57.1416015625 12.70849609375 56.1259765625 13.88916015625 55.1103515625 15.06982421875 55.1103515625 17.78662109375 L55.1103515625 25.08642578125 53.0029296875 25.08642578125 53.0029296875 11.17236328125 54.716796875 11.17236328125 55.0595703125 13.07666015625 55.1611328125 13.07666015625 Q55.80859375 12.04833984375 56.9765625 11.4833984375 58.14453125 10.91845703125 59.5791015625 10.91845703125 62.0927734375 10.91845703125 63.3623046875 12.130859375 64.6318359375 13.34326171875 64.6318359375 16.00927734375 L64.6318359375 25.08642578125 62.5244140625 25.08642578125 z" /><path d="M86.505859375 20.14794921875 Q86.505859375 22.59814453125 84.728515625 23.96923828125 82.951171875 25.34033203125 79.904296875 25.34033203125 76.603515625 25.34033203125 74.826171875 24.48974609375 L74.826171875 22.40771484375 Q75.96875 22.89013671875 77.314453125 23.16943359375 78.66015625 23.44873046875 79.98046875 23.44873046875 82.138671875 23.44873046875 83.23046875 22.6298828125 84.322265625 21.81103515625 84.322265625 20.35107421875 84.322265625 19.38623046875 83.93505859375 18.7705078125 83.5478515625 18.15478515625 82.64013671875 17.63427734375 81.732421875 17.11376953125 79.87890625 16.45361328125 77.2890625 15.52685546875 76.17822265625 14.25732421875 75.0673828125 12.98779296875 75.0673828125 10.94384765625 75.0673828125 8.79833984375 76.6796875 7.52880859375 78.2919921875 6.25927734375 80.9453125 6.25927734375 83.712890625 6.25927734375 86.0361328125 7.27490234375 L85.36328125 9.15380859375 Q83.0654296875 8.18896484375 80.89453125 8.18896484375 79.1806640625 8.18896484375 78.2158203125 8.92529296875 77.2509765625 9.66162109375 77.2509765625 10.96923828125 77.2509765625 11.93408203125 77.6064453125 12.5498046875 77.9619140625 13.16552734375 78.80615234375 13.6796875 79.650390625 14.19384765625 81.3896484375 14.81591796875 84.3095703125 15.85693359375 85.40771484375 17.05029296875 86.505859375 18.24365234375 86.505859375 20.14794921875 z" /><path d="M98.541015625 25.08642578125 L98.1220703125 23.10595703125 98.0205078125 23.10595703125 Q96.9794921875 24.41357421875 95.94482421875 24.876953125 94.91015625 25.34033203125 93.361328125 25.34033203125 91.2919921875 25.34033203125 90.11767578125 24.27392578125 88.943359375 23.20751953125 88.943359375 21.23974609375 88.943359375 17.02490234375 95.6845703125 16.82177734375 L98.0458984375 16.74560546875 98.0458984375 15.88232421875 Q98.0458984375 14.24462890625 97.34130859375 13.4638671875 96.63671875 12.68310546875 95.087890625 12.68310546875 93.3486328125 12.68310546875 91.15234375 13.74951171875 L90.5048828125 12.13720703125 Q91.533203125 11.57861328125 92.75830078125 11.26123046875 93.9833984375 10.94384765625 95.21484375 10.94384765625 97.703125 10.94384765625 98.90283203125 12.04833984375 100.1025390625 13.15283203125 100.1025390625 15.59033203125 L100.1025390625 25.08642578125 98.541015625 25.08642578125 zM93.7802734375 23.60107421875 Q95.748046875 23.60107421875 96.87158203125 22.52197265625 97.9951171875 21.44287109375 97.9951171875 19.50048828125 L97.9951171875 18.24365234375 95.8876953125 18.33251953125 Q93.3740234375 18.42138671875 92.26318359375 19.11328125 91.15234375 19.80517578125 91.15234375 21.26513671875 91.15234375 22.40771484375 91.84423828125 23.00439453125 92.5361328125 23.60107421875 93.7802734375 23.60107421875 z" /><path d="M113.9658203125 25.08642578125 L113.9658203125 16.08544921875 Q113.9658203125 14.38427734375 113.19140625 13.54638671875 112.4169921875 12.70849609375 110.7666015625 12.70849609375 108.5830078125 12.70849609375 107.5673828125 13.88916015625 106.5517578125 15.06982421875 106.5517578125 17.78662109375 L106.5517578125 25.08642578125 104.4443359375 25.08642578125 104.4443359375 11.17236328125 106.158203125 11.17236328125 106.5009765625 13.07666015625 106.6025390625 13.07666015625 Q107.25 12.04833984375 108.41796875 11.4833984375 109.5859375 10.91845703125 111.0205078125 10.91845703125 113.5341796875 10.91845703125 114.8037109375 12.130859375 116.0732421875 13.34326171875 116.0732421875 16.00927734375 L116.0732421875 25.08642578125 113.9658203125 25.08642578125 z" /><path d="M129.3779296875 21.29052734375 Q129.3779296875 23.23291015625 127.9306640625 24.28662109375 126.4833984375 25.34033203125 123.8681640625 25.34033203125 121.1005859375 25.34033203125 119.5517578125 24.46435546875 L119.5517578125 22.50927734375 Q120.5546875 23.01708984375 121.70361328125 23.30908203125 122.8525390625 23.60107421875 123.9189453125 23.60107421875 125.5693359375 23.60107421875 126.4580078125 23.07421875 127.3466796875 22.54736328125 127.3466796875 21.46826171875 127.3466796875 20.65576171875 126.64208984375 20.078125 125.9375 19.50048828125 123.8935546875 18.71337890625 121.951171875 17.98974609375 121.13232421875 17.4501953125 120.3134765625 16.91064453125 119.91357421875 16.22509765625 119.513671875 15.53955078125 119.513671875 14.58740234375 119.513671875 12.88623046875 120.8974609375 11.90234375 122.28125 10.91845703125 124.693359375 10.91845703125 126.9404296875 10.91845703125 129.0859375 11.83251953125 L128.3369140625 13.54638671875 Q126.2421875 12.68310546875 124.541015625 12.68310546875 123.04296875 12.68310546875 122.28125 13.15283203125 121.51953125 13.62255859375 121.51953125 14.44775390625 121.51953125 15.00634765625 121.80517578125 15.39990234375 122.0908203125 15.79345703125 122.7255859375 16.14892578125 123.3603515625 16.50439453125 125.1630859375 17.17724609375 127.638671875 18.07861328125 128.50830078125 18.99267578125 129.3779296875 19.90673828125 129.3779296875 21.29052734375 z" /></g></svg>