<svg width="170" height="30" xmlns="http://www.w3.org/2000/svg" viewBox="0 0 170 30"><g fill="currentColor"><path d="M5.798 20.265 Q7.54 20.265 9.1 19.251 10.66 18.237000000000002 10.66 16.859 10.66 15.871000000000002 9.879999999999999 15.221000000000002 8.528 14.129000000000001 6.109999999999999 14.129000000000001 5.512 14.129000000000001 5.473 14.155000000000001 5.434 14.181000000000001 5.434 16.573 5.434 18.965 5.668 20.239 5.72 20.265 5.798 20.265 zM8.501999999999999 10.697000000000001 Q8.501999999999999 10.697000000000001 8.982999999999999 10.138000000000002 9.464 9.579000000000002 9.464 8.968000000000002 9.464 8.357000000000001 9.1 7.993000000000002 8.735999999999999 7.629000000000001 8.19 7.447000000000003 7.643999999999999 7.265000000000002 7.137 7.187000000000001 6.63 7.109000000000002 6.162 7.109000000000002 5.694 7.109000000000002 5.654999999999999 7.1480000000000015 5.616 7.187000000000001 5.551 9.280000000000001 5.486 11.373000000000001 5.486 11.503000000000002 5.512 11.529000000000002 5.7589999999999995 11.529000000000002 6.005999999999999 11.529000000000002 6.577999999999999 11.386000000000001 7.1499999999999995 11.243000000000002 7.826 10.970000000000002 zM2.1839999999999997 18.393 L2.314 8.461000000000002 Q2.314 7.421000000000001 2.262 7.3690000000000015 1.976 7.083000000000002 1.508 6.108000000000002 1.04 5.133000000000003 1.04 4.847000000000001 L1.066 4.769000000000002 Q1.222 4.639000000000003 2.717 4.535000000000004 4.212 4.431000000000001 5.681 4.431000000000001 7.1499999999999995 4.431000000000001 8.372 4.613000000000003 9.594 4.795000000000002 10.751 5.185000000000002 11.908 5.575000000000003 12.61 6.342000000000002 13.312 7.109000000000002 13.312 8.058000000000002 13.312 9.007000000000001 12.908999999999999 9.774000000000003 12.506 10.541000000000002 11.908 11.061000000000002 10.998 11.841000000000001 10.139999999999999 12.257000000000001 10.088 12.309000000000001 10.088 12.335 10.113999999999999 12.361000000000002 10.465 12.465000000000002 10.815999999999999 12.569 11.141 12.712000000000002 11.466 12.855000000000002 11.934 13.089000000000002 12.402 13.323000000000002 12.792 13.648000000000001 13.181999999999999 13.973 13.52 14.389000000000003 14.274 15.273000000000001 14.274 16.794 14.274 18.315 13.338 19.641000000000002 12.402 20.967000000000002 10.841999999999999 21.721 7.7219999999999995 23.229000000000003 3.7439999999999998 23.229000000000003 L2.4179999999999997 23.151 Q2.34 23.047 2.262 21.266000000000002 2.1839999999999997 19.485 2.1839999999999997 18.393 z" /><path d="M22.75 21.045 L22.723999999999997 20.499000000000002 22.697999999999997 20.447000000000003 Q22.073999999999998 21.409000000000002 21.125 21.981 20.176 22.553 19.266 22.553 16.535999999999998 22.553 16.145999999999997 18.315 16.093999999999998 17.639000000000003 16.093999999999998 14.831000000000001 16.093999999999998 12.023000000000001 16.328 11.503000000000002 17.003999999999998 10.957000000000003 18.511999999999997 10.957000000000003 19.11 10.957000000000003 19.24 11.087000000000002 19.24 11.113000000000001 19.214 11.789000000000001 19.084 13.765000000000002 19.084 14.831000000000001 19.084 15.897000000000002 19.11 16.404000000000003 19.136 16.911 19.148999999999997 17.054000000000002 19.162 17.197000000000003 19.226999999999997 17.561 19.291999999999998 17.925 19.421999999999997 18.185000000000002 19.811999999999998 18.939 20.631 18.939 21.45 18.939 22.086999999999996 18.12 22.723999999999997 17.301000000000002 22.697999999999997 16.963 L22.697999999999997 16.079 Q22.697999999999997 11.321000000000002 22.854 10.957000000000003 22.983999999999998 10.723000000000003 23.673 10.463000000000001 24.362 10.203000000000001 25.037999999999997 10.203000000000001 25.714 10.203000000000001 25.817999999999998 10.307000000000002 L25.766 11.529000000000002 Q25.61 15.247000000000002 25.61 17.275000000000002 25.61 19.303 25.714 19.849 25.895999999999997 21.149 26.415999999999997 21.929000000000002 26.415999999999997 22.189 25.349999999999998 22.761000000000003 24.284 23.333000000000002 23.529999999999998 23.333000000000002 23.321999999999996 23.333000000000002 23.061999999999998 22.553 22.802 21.773 22.75 21.045 z" /><path d="M28.418 18.289 L28.366 8.695000000000002 Q28.366 5.445 28.496 5.315000000000001 28.808 5.003000000000004 29.523 4.717000000000002 30.238 4.431000000000001 30.887999999999998 4.431000000000001 31.538 4.431000000000001 31.538 4.535000000000004 31.486 4.795000000000002 31.395 7.486000000000002 31.304 10.177000000000001 31.33 10.827000000000002 L31.746 10.827000000000002 Q34.632 10.827000000000002 36.452 12.153000000000002 37.18 12.699000000000002 37.726 13.778000000000002 38.272 14.857000000000003 38.272 16.287000000000003 38.272 18.757 36.269999999999996 20.408 34.268 22.059 31.356 22.527 31.356 23.125 31.33 23.177 30.992 23.515 30.147 23.697000000000003 29.302 23.879 28.769 23.879 28.236 23.879 28.236 23.801000000000002 28.418 23.073 28.418 18.289 zM31.408 19.667 Q32.084 19.667 32.812 19.446 33.54 19.225 33.995 18.887 34.45 18.549 34.827 17.821 35.204 17.093000000000004 35.204 15.923000000000002 35.204 14.753000000000002 34.385 14.129000000000001 33.566 13.505 32.5 13.505 L31.304 13.583000000000002 31.304 15.455000000000002 Q31.304 18.965 31.408 19.667 z" /><path d="M40.534 18.289 L40.482 8.695000000000002 Q40.482 5.445 40.612 5.315000000000001 40.924 5.003000000000004 41.638999999999996 4.717000000000002 42.354 4.431000000000001 43.004 4.431000000000001 43.653999999999996 4.431000000000001 43.653999999999996 4.535000000000004 43.602 4.795000000000002 43.510999999999996 7.486000000000002 43.42 10.177000000000001 43.446 10.827000000000002 L43.862 10.827000000000002 Q46.748 10.827000000000002 48.568 12.153000000000002 49.296 12.699000000000002 49.842 13.778000000000002 50.388 14.857000000000003 50.388 16.287000000000003 50.388 18.757 48.385999999999996 20.408 46.384 22.059 43.472 22.527 43.472 23.125 43.446 23.177 43.108 23.515 42.263 23.697000000000003 41.418 23.879 40.885 23.879 40.352 23.879 40.352 23.801000000000002 40.534 23.073 40.534 18.289 zM43.524 19.667 Q44.2 19.667 44.928 19.446 45.656 19.225 46.111 18.887 46.566 18.549 46.943 17.821 47.32 17.093000000000004 47.32 15.923000000000002 47.32 14.753000000000002 46.501 14.129000000000001 45.682 13.505 44.616 13.505 L43.42 13.583000000000002 43.42 15.455000000000002 Q43.42 18.965 43.524 19.667 z" /><path d="M52.467999999999996 18.341 L52.572 8.929000000000002 Q52.572 6.875000000000002 52.519999999999996 6.147000000000002 52.467999999999996 5.4190000000000005 52.467999999999996 5.367000000000001 52.467999999999996 5.107000000000003 53.339 4.769000000000002 54.21 4.431000000000001 54.885999999999996 4.431000000000001 55.562 4.431000000000001 55.562 4.535000000000004 55.432 5.497000000000003 55.432 11.295000000000002 L55.379999999999995 17.665000000000003 Q55.379999999999995 19.459000000000003 55.432 19.875 55.562 21.019000000000002 56.186 21.955000000000002 56.186 22.215 55.12 22.787000000000003 54.054 23.359 53.3 23.359 53.092 23.359 52.832 22.579 52.572 21.799 52.519999999999996 21.227 52.467999999999996 20.655 52.467999999999996 18.341 z" /><path d="M64.272 13.765000000000002 Q64.272 13.011000000000001 63.466 13.011000000000001 62.4 13.011000000000001 61.594 14.103000000000002 60.788000000000004 15.195 60.788000000000004 16.729000000000003 60.788000000000004 17.093000000000004 60.892 17.093000000000004 61.828 17.067 63.05 16.014000000000003 64.272 14.961000000000002 64.272 13.765000000000002 zM66.534 22.033 Q65.65 22.631 63.076 22.631 60.502 22.631 59.124 21.097 57.746 19.563000000000002 57.746 17.002000000000002 57.746 14.441000000000003 59.397 12.556000000000001 61.048 10.671000000000001 64.038 10.671000000000001 65.26 10.671000000000001 66.287 11.321000000000002 67.314 11.971000000000002 67.314 13.596000000000002 67.314 15.221000000000002 65.897 16.807000000000002 64.48 18.393 62.036 19.225 62.036 19.537000000000003 62.673 19.732000000000003 63.31 19.927 63.934 19.927 65.91 19.927 67.054 19.225 67.08 19.199 67.132 19.199 67.184 19.199 67.184 19.693 67.184 21.201 66.534 22.033 z" /><path d="M78.78 15.585 L78.832 21.747 Q78.832 23.775000000000002 78.286 25.348000000000003 77.74 26.921 76.96 27.792 76.17999999999999 28.663 75.166 29.209 73.52799999999999 30.119 71.864 30.119 71.786 30.119 71.55199999999999 29.729 71.318 29.339000000000002 71.11 28.663 70.902 27.987000000000002 70.902 27.415 L71.396 27.415 Q71.916 27.415 72.39699999999999 27.324 72.878 27.233 73.58 26.817 74.282 26.401 74.776 25.725 75.27 25.049 75.634 23.723000000000003 75.99799999999999 22.397000000000002 75.99799999999999 20.629 75.99799999999999 20.525000000000002 75.972 20.525000000000002 L75.894 20.603 Q74.80199999999999 22.293000000000003 72.488 22.293000000000003 70.746 22.293000000000003 69.706 20.915000000000003 68.666 19.537000000000003 68.666 17.821 68.666 14.701 70.66799999999999 12.673000000000002 72.67 10.645000000000001 76.414 10.645000000000001 77.324 10.645000000000001 77.324 10.775000000000002 77.402 11.217000000000002 77.402 11.737000000000002 L77.376 12.127000000000002 77.662 12.127000000000002 Q78.494 12.127000000000002 78.78 12.283000000000001 L78.78 15.585 zM75.946 13.401000000000002 L75.4 13.323000000000002 Q73.736 13.323000000000002 72.761 14.402000000000001 71.786 15.481000000000002 71.786 17.093000000000004 71.786 17.899 72.267 18.497 72.748 19.095000000000002 73.67099999999999 19.095000000000002 74.594 19.095000000000002 75.218 18.367 75.842 17.639000000000003 75.842 17.197000000000003 75.842 14.233 75.946 13.401000000000002 z" /><path d="M87.568 21.045 L87.542 20.499000000000002 87.516 20.447000000000003 Q86.892 21.409000000000002 85.943 21.981 84.994 22.553 84.084 22.553 81.354 22.553 80.964 18.315 80.912 17.639000000000003 80.912 14.831000000000001 80.912 12.023000000000001 81.146 11.503000000000002 81.822 10.957000000000003 83.33 10.957000000000003 83.928 10.957000000000003 84.05799999999999 11.087000000000002 84.05799999999999 11.113000000000001 84.032 11.789000000000001 83.902 13.765000000000002 83.902 14.831000000000001 83.902 15.897000000000002 83.928 16.404000000000003 83.954 16.911 83.967 17.054000000000002 83.98 17.197000000000003 84.045 17.561 84.11 17.925 84.24 18.185000000000002 84.63 18.939 85.449 18.939 86.268 18.939 86.905 18.12 87.542 17.301000000000002 87.516 16.963 L87.516 16.079 Q87.516 11.321000000000002 87.672 10.957000000000003 87.80199999999999 10.723000000000003 88.491 10.463000000000001 89.18 10.203000000000001 89.856 10.203000000000001 90.532 10.203000000000001 90.636 10.307000000000002 L90.584 11.529000000000002 Q90.428 15.247000000000002 90.428 17.275000000000002 90.428 19.303 90.532 19.849 90.714 21.149 91.234 21.929000000000002 91.234 22.189 90.168 22.761000000000003 89.102 23.333000000000002 88.348 23.333000000000002 88.14 23.333000000000002 87.88 22.553 87.62 21.773 87.568 21.045 z" /><path d="M93.236 18.809 L93.158 12.699000000000002 Q93.158 11.035000000000002 93.28800000000001 10.905000000000001 93.60000000000001 10.619000000000002 94.25 10.372000000000002 94.9 10.125000000000002 95.498 10.125000000000002 96.096 10.125000000000002 96.096 10.229000000000001 95.992 11.373000000000001 95.992 11.971000000000002 95.992 12.569 96.04400000000001 12.569 96.096 12.569 96.2 12.452000000000002 96.304 12.335 96.577 12.088000000000001 96.85000000000001 11.841000000000001 97.59100000000001 11.412000000000003 98.33200000000001 10.983000000000002 98.956 10.983000000000002 100.646 10.983000000000002 101.504 12.491000000000001 102.986 10.411000000000001 104.78 10.411000000000001 106.39200000000001 10.411000000000001 107.09400000000001 11.789000000000001 107.822 13.323000000000002 107.952 14.857000000000003 108.108 17.093000000000004 108.108 19.485 L108.004 22.527 Q108.004 22.709 107.146 22.878 106.28800000000001 23.047 105.768 23.047 L104.936 22.917 Q105.22200000000001 20.343 105.22200000000001 18.757 105.22200000000001 17.171 105.183 16.482 105.144 15.793000000000003 104.988 15.104000000000003 104.83200000000001 14.415000000000003 104.507 14.116000000000001 104.182 13.817000000000002 103.688 13.817000000000002 103.194 13.817000000000002 102.804 14.090000000000002 102.414 14.363000000000001 102.245 14.623000000000001 102.07600000000001 14.883000000000003 102.07600000000001 14.961000000000002 102.15400000000001 15.793000000000003 102.15400000000001 18.809 L102.05000000000001 20.863 Q102.05000000000001 21.071 101.218 21.227 100.38600000000001 21.383000000000003 99.866 21.383000000000003 L99.034 21.253 Q99.268 19.147000000000002 99.268 17.314 99.268 15.481000000000002 99.07300000000001 14.740000000000002 98.878 13.999000000000002 98.046 13.999000000000002 97.214 13.999000000000002 96.64200000000001 14.831000000000001 96.07000000000001 15.663 96.07000000000001 16.105 L96.07000000000001 16.651000000000003 96.096 19.407 Q96.096 21.955000000000002 95.992 22.085 95.342 22.709 93.262 22.709 93.054 22.709 93.054 22.631 93.236 21.513 93.236 18.809 z" /><path d="M125.086 7.187000000000001 Q124.67 7.135000000000002 124.137 7.135000000000002 123.604 7.135000000000002 122.837 7.2390000000000025 122.07 7.343000000000002 121.251 7.564000000000002 120.432 7.785000000000002 119.912 8.253000000000002 119.392 8.721000000000002 119.392 9.384000000000002 119.392 10.047000000000002 120.185 10.554000000000002 120.978 11.061000000000002 122.096 11.490000000000002 123.214 11.919000000000002 124.345 12.465000000000002 125.476 13.011000000000001 126.269 14.064000000000002 127.062 15.117 127.062 16.599 127.062 19.225 124.553 21.058 122.044 22.891000000000002 118.222 22.891000000000002 116.298 22.891000000000002 115.362 22.683 115.128 22.449 115.128 19.888 115.128 17.327 115.232 16.807000000000002 115.31 16.573 116.142 16.235 116.974 15.897000000000002 117.754 15.897000000000002 117.754 18.965 118.404 19.615000000000002 118.664 19.875 119.392 19.875 121.056 19.875 122.291 18.939 123.526 18.003 123.526 16.729000000000003 123.526 15.871000000000002 122.72 15.221000000000002 121.914 14.571000000000002 120.757 14.090000000000002 119.6 13.609000000000002 118.456 13.076000000000002 117.312 12.543000000000001 116.506 11.607000000000001 115.7 10.671000000000001 115.7 9.397000000000002 115.7 7.499000000000002 117.975 5.926000000000002 120.25 4.3530000000000015 124.566 4.3530000000000015 125.58 4.3530000000000015 125.71 4.4830000000000005 125.736 4.5610000000000035 125.736 4.860000000000003 125.736 5.1590000000000025 125.554 6.017000000000003 125.372 6.875000000000002 125.086 7.187000000000001 z" /><path d="M138.424 16.235 Q138.424 19.485 138.502 20.031000000000002 138.71 21.461000000000002 139.386 22.085 139.386 22.371000000000002 138.359 22.943 137.332 23.515 136.5 23.515 136.266 23.515 136.006 22.826 135.746 22.137 135.707 21.799 135.668 21.461000000000002 135.642 21.461000000000002 L135.564 21.513 Q134.186 22.605 132.34 22.605 130.494 22.605 129.493 21.708000000000002 128.492 20.811 128.492 19.355 128.492 17.899 129.129 16.898000000000003 129.766 15.897000000000002 130.624 15.377000000000002 131.482 14.857000000000003 132.522 14.545000000000002 134.108 14.025000000000002 135.018 14.025000000000002 L135.07 13.999000000000002 Q135.07 12.725000000000001 131.846 12.725000000000001 130.572 12.725000000000001 129.948 12.829000000000002 L129.922 12.829000000000002 Q129.922 12.309000000000001 130.24699999999999 11.529000000000002 130.572 10.749000000000002 130.793 10.515000000000002 131.014 10.281000000000002 132.652 10.281000000000002 135.61599999999999 10.281000000000002 137.02 11.412000000000003 138.424 12.543000000000001 138.424 14.909000000000002 L138.424 16.235 zM135.538 17.899 L135.538 16.911 Q135.538 16.339000000000002 135.512 16.339000000000002 133.77 16.339000000000002 132.496 17.249000000000002 131.69 17.821 131.69 18.679000000000002 131.69 19.225 132.07999999999998 19.589000000000002 132.47 19.953000000000003 133.263 19.953000000000003 134.056 19.953000000000003 134.797 19.485 135.538 19.017000000000003 135.538 17.899 z" /><path d="M144.222 16.183 L144.24800000000002 17.145000000000003 144.24800000000002 19.121000000000002 Q144.24800000000002 21.903000000000002 144.144 22.007 143.806 22.345000000000002 142.97400000000002 22.527 142.14200000000002 22.709 141.609 22.709 141.07600000000002 22.709 141.07600000000002 22.631 141.258 21.461000000000002 141.258 18.783 L141.18 12.933000000000002 Q141.18 11.321000000000002 141.31 11.191000000000003 141.596 10.905000000000001 142.298 10.684000000000001 143 10.463000000000001 143.61100000000002 10.463000000000001 144.222 10.463000000000001 144.222 10.593000000000002 144.144 11.217000000000002 144.144 11.841000000000001 144.144 12.465000000000002 144.222 12.465000000000002 L144.3 12.413000000000002 Q144.43 12.231000000000002 144.69 11.958000000000002 144.95000000000002 11.685000000000002 145.79500000000002 11.230000000000002 146.64000000000001 10.775000000000002 147.407 10.775000000000002 148.174 10.775000000000002 148.70700000000002 11.048000000000002 149.24 11.321000000000002 149.578 11.711000000000002 149.916 12.101 150.163 12.829000000000002 150.41000000000003 13.557000000000002 150.54000000000002 14.181000000000001 150.67000000000002 14.805000000000001 150.74800000000002 15.845000000000002 150.82600000000002 17.275000000000002 150.82600000000002 19.485 L150.74800000000002 22.527 Q150.74800000000002 22.709 149.89000000000001 22.878 149.032 23.047 148.512 23.047 L147.654 22.917 Q147.91400000000002 20.577 147.91400000000002 18.380000000000003 147.91400000000002 16.183 147.62800000000001 15.078000000000001 147.342 13.973 146.484 13.973 145.626 13.973 145.09300000000002 14.441000000000003 144.56 14.909000000000002 144.404 15.377000000000002 L144.222 15.819000000000003 144.222 16.183 z" /><path d="M160.472 19.043000000000003 Q160.472 20.447000000000003 159.15900000000002 21.552 157.846 22.657 156.32500000000002 23.138 154.804 23.619 153.66000000000003 23.619 153.53 23.619 153.29600000000002 23.307000000000002 152.64600000000002 22.449 152.64600000000002 21.305 L152.64600000000002 21.123 Q154.674 21.123 155.74 20.421000000000003 156.806 19.719 156.806 18.965 156.806 18.471 156.156 17.925 155.506 17.379 154.72600000000003 16.963 153.94600000000003 16.547 153.29600000000002 15.858 152.64600000000002 15.169 152.64600000000002 14.415000000000003 152.64600000000002 12.829000000000002 154.622 11.503000000000002 156.598 10.177000000000001 158.834 10.177000000000001 159.09400000000002 10.177000000000001 159.51000000000002 10.892000000000001 159.92600000000002 11.607000000000001 159.95200000000003 12.361000000000002 159.43200000000002 12.361000000000002 158.39200000000002 12.673000000000002 156.33800000000002 13.323000000000002 156.33800000000002 14.285000000000002 156.33800000000002 14.961000000000002 158.366 16.131 159.14600000000002 16.573 159.79600000000002 17.353 160.44600000000003 18.133000000000003 160.472 19.043000000000003 z" /></g></svg>