<svg width="170" height="30" xmlns="http://www.w3.org/2000/svg" viewBox="0 0 170 30"><g fill="currentColor"><path d="M5.85 7.941000000000001 Q6.968 10.489 8.033999999999999 13.063 9.022 15.429000000000002 10.036 17.977 10.946 15.663 11.777999999999999 13.427000000000001 12.713999999999999 10.931000000000001 13.597999999999999 8.279000000000002 14.091999999999999 6.849000000000002 13.883999999999999 6.043000000000001 13.676 5.237000000000002 12.453999999999999 5.107000000000003 12.376 4.8210000000000015 12.35 4.509 12.324 4.197000000000003 12.324 3.9890000000000008 12.895999999999999 4.041 13.415999999999999 4.054000000000002 13.936 4.067 14.533999999999999 4.067 15.132 4.067 15.873 4.054000000000002 16.614 4.041 17.186 3.9890000000000008 17.186 4.275000000000002 17.16 4.548000000000002 17.134 4.8210000000000015 17.056 5.107000000000003 16.25 5.315000000000001 15.795 6.095000000000001 15.34 6.875000000000002 14.872 8.175 13.649999999999999 11.555000000000001 12.415 14.922 11.18 18.289 9.854 21.695 9.411999999999999 21.799 8.84 21.799 8.086 19.901 7.319 18.029 6.552 16.157 5.811 14.402000000000001 5.069999999999999 12.647 4.381 11.048000000000002 3.6919999999999997 9.449000000000002 3.068 8.097000000000001 2.626 7.135000000000002 2.3529999999999998 6.563000000000001 2.08 5.991000000000001 1.8459999999999999 5.679000000000002 1.6119999999999999 5.367000000000001 1.378 5.263000000000002 1.144 5.1590000000000025 0.7799999999999999 5.107000000000003 0.702 4.795000000000002 0.6759999999999999 4.496000000000002 0.65 4.197000000000003 0.65 3.9890000000000008 1.17 4.041 2.0669999999999997 4.054000000000002 2.964 4.067 3.796 4.067 5.46 4.067 6.941999999999999 3.9890000000000008 6.941999999999999 4.509 6.811999999999999 5.107000000000003 6.188 5.1590000000000025 5.811 5.276 5.434 5.393000000000001 5.317 5.692000000000002 5.2 5.991000000000001 5.33 6.524000000000001 5.46 7.057000000000002 5.85 7.941000000000001 z" /><path d="M21.502 15.143 Q21.502 17.795 22.438 19.212 23.374 20.629 24.959999999999997 20.629 26.519999999999996 20.629 27.273999999999997 19.342000000000002 28.028 18.055 28.028 16.001 28.028 14.805 27.741999999999997 13.830000000000002 27.455999999999996 12.855 26.974999999999998 12.166 26.494 11.477 25.857 11.113000000000001 25.22 10.749 24.491999999999997 10.749 22.983999999999998 10.749 22.243 11.971000000000002 21.502 13.193000000000001 21.502 15.143 zM18.875999999999998 15.689 Q18.875999999999998 14.363000000000001 19.305 13.232000000000001 19.733999999999998 12.101 20.514 11.269000000000002 21.293999999999997 10.437000000000001 22.372999999999998 9.969000000000001 23.451999999999998 9.501000000000001 24.752 9.501000000000001 26.13 9.501000000000001 27.221999999999998 9.943000000000001 28.314 10.385000000000002 29.067999999999998 11.204 29.821999999999996 12.023000000000001 30.224999999999998 13.167000000000002 30.628 14.311 30.628 15.689 30.628 17.015 30.198999999999998 18.159 29.769999999999996 19.303 29.003 20.122 28.235999999999997 20.941000000000003 27.156999999999996 21.409 26.077999999999996 21.877000000000002 24.752 21.877000000000002 23.426 21.877000000000002 22.334 21.435000000000002 21.241999999999997 20.993000000000002 20.474999999999998 20.187 19.708 19.381 19.291999999999998 18.237000000000002 18.875999999999998 17.093 18.875999999999998 15.689 z" /><path d="M34.528 6.693000000000001 Q34.528 6.225000000000001 34.476 5.887000000000002 34.424 5.549000000000003 34.216 5.315000000000001 34.007999999999996 5.081000000000003 33.618 4.964000000000002 33.228 4.847000000000001 32.577999999999996 4.847000000000001 32.577999999999996 4.561 32.63 4.327000000000002 32.682 4.093 32.812 3.8850000000000016 33.098 3.8850000000000016 33.592 3.807000000000002 34.086 3.7290000000000028 34.606 3.612000000000002 35.126 3.495000000000001 35.594 3.3260000000000005 36.062 3.157 36.296 3.0010000000000012 36.53 3.0790000000000006 36.699 3.3130000000000024 36.868 3.5470000000000006 36.868 4.041 L36.868 18.341 Q36.868 19.641000000000002 37.219 20.122 37.57 20.603 38.402 20.603 38.48 20.889 38.506 21.214000000000002 38.532 21.539 38.532 21.721 37.856 21.669 37.102 21.656000000000002 36.348 21.643 35.594 21.643 34.839999999999996 21.643 34.047 21.656000000000002 33.254 21.669 32.604 21.721 32.604 21.461000000000002 32.63 21.162 32.656 20.863 32.734 20.603 33.774 20.603 34.150999999999996 20.122 34.528 19.641000000000002 34.528 18.341 L34.528 6.693000000000001 z" /><path d="M42.327999999999996 6.693000000000001 Q42.327999999999996 6.225000000000001 42.275999999999996 5.887000000000002 42.224 5.549000000000003 42.016 5.315000000000001 41.80799999999999 5.081000000000003 41.418 4.964000000000002 41.028 4.847000000000001 40.37799999999999 4.847000000000001 40.37799999999999 4.561 40.43 4.327000000000002 40.482 4.093 40.611999999999995 3.8850000000000016 40.897999999999996 3.8850000000000016 41.391999999999996 3.807000000000002 41.885999999999996 3.7290000000000028 42.406 3.612000000000002 42.925999999999995 3.495000000000001 43.394 3.3260000000000005 43.861999999999995 3.157 44.096 3.0010000000000012 44.33 3.0790000000000006 44.498999999999995 3.3130000000000024 44.668 3.5470000000000006 44.668 4.041 L44.668 18.341 Q44.668 19.641000000000002 45.019 20.122 45.37 20.603 46.202 20.603 46.279999999999994 20.889 46.306 21.214000000000002 46.331999999999994 21.539 46.331999999999994 21.721 45.656 21.669 44.901999999999994 21.656000000000002 44.147999999999996 21.643 43.394 21.643 42.63999999999999 21.643 41.846999999999994 21.656000000000002 41.053999999999995 21.669 40.403999999999996 21.721 40.403999999999996 21.461000000000002 40.43 21.162 40.455999999999996 20.863 40.534 20.603 41.574 20.603 41.95099999999999 20.122 42.327999999999996 19.641000000000002 42.327999999999996 18.341 L42.327999999999996 6.693000000000001 z" /><path d="M50.12799999999999 6.693000000000001 Q50.12799999999999 6.225000000000001 50.07599999999999 5.887000000000002 50.023999999999994 5.549000000000003 49.815999999999995 5.315000000000001 49.60799999999999 5.081000000000003 49.217999999999996 4.964000000000002 48.827999999999996 4.847000000000001 48.17799999999999 4.847000000000001 48.17799999999999 4.561 48.23 4.327000000000002 48.282 4.093 48.41199999999999 3.8850000000000016 48.69799999999999 3.8850000000000016 49.19199999999999 3.807000000000002 49.68599999999999 3.7290000000000028 50.205999999999996 3.612000000000002 50.72599999999999 3.495000000000001 51.193999999999996 3.3260000000000005 51.66199999999999 3.157 51.895999999999994 3.0010000000000012 52.129999999999995 3.0790000000000006 52.29899999999999 3.3130000000000024 52.467999999999996 3.5470000000000006 52.467999999999996 4.041 L52.467999999999996 14.857000000000001 54.209999999999994 13.245000000000001 Q55.093999999999994 12.439000000000002 55.483999999999995 11.945 55.873999999999995 11.451 55.873999999999995 11.165000000000001 55.873999999999995 10.749 55.11999999999999 10.749 54.96399999999999 10.255 54.96399999999999 9.683000000000002 55.79599999999999 9.735000000000001 56.471999999999994 9.735000000000001 L58.75999999999999 9.735000000000001 Q59.41 9.735000000000001 60.111999999999995 9.683000000000002 60.111999999999995 9.943000000000001 60.07299999999999 10.242 60.03399999999999 10.541 59.92999999999999 10.775 59.175999999999995 10.801000000000002 58.44799999999999 11.139000000000001 57.71999999999999 11.477 56.757999999999996 12.361 L54.495999999999995 14.415000000000001 Q54.70399999999999 14.675 54.937999999999995 14.935000000000002 55.40599999999999 15.429000000000002 55.89999999999999 16.027 56.39399999999999 16.625 56.965999999999994 17.327 57.538 18.029 58.21399999999999 18.887 58.65599999999999 19.433 58.96799999999999 19.758 59.279999999999994 20.083000000000002 59.565999999999995 20.239 59.85199999999999 20.395 60.163999999999994 20.447 60.47599999999999 20.499000000000002 60.91799999999999 20.525000000000002 60.91799999999999 21.279 60.788 21.643 59.85199999999999 21.643 59.084999999999994 21.695 58.31799999999999 21.747 57.459999999999994 21.877000000000002 57.12199999999999 21.331 56.48499999999999 20.473 55.84799999999999 19.615000000000002 55.080999999999996 18.653000000000002 54.31399999999999 17.691000000000003 53.507999999999996 16.781 52.961999999999996 16.131 52.467999999999996 15.611 L52.467999999999996 18.341 Q52.467999999999996 19.641000000000002 52.818999999999996 20.122 53.169999999999995 20.603 54.001999999999995 20.603 54.07999999999999 20.889 54.105999999999995 21.214000000000002 54.13199999999999 21.539 54.13199999999999 21.721 53.455999999999996 21.669 52.70199999999999 21.656000000000002 51.94799999999999 21.643 51.193999999999996 21.643 50.43999999999999 21.643 49.64699999999999 21.656000000000002 48.85399999999999 21.669 48.20399999999999 21.721 48.20399999999999 21.461000000000002 48.23 21.162 48.25599999999999 20.863 48.333999999999996 20.603 49.373999999999995 20.603 49.75099999999999 20.122 50.12799999999999 19.641000000000002 50.12799999999999 18.341 L50.12799999999999 6.693000000000001 z" /><path d="M65.104 15.143 Q65.104 17.795 66.03999999999999 19.212 66.976 20.629 68.562 20.629 70.122 20.629 70.87599999999999 19.342000000000002 71.63 18.055 71.63 16.001 71.63 14.805 71.344 13.830000000000002 71.05799999999999 12.855 70.577 12.166 70.09599999999999 11.477 69.45899999999999 11.113000000000001 68.82199999999999 10.749 68.094 10.749 66.586 10.749 65.845 11.971000000000002 65.104 13.193000000000001 65.104 15.143 zM62.477999999999994 15.689 Q62.477999999999994 14.363000000000001 62.907 13.232000000000001 63.336 12.101 64.116 11.269000000000002 64.896 10.437000000000001 65.975 9.969000000000001 67.054 9.501000000000001 68.354 9.501000000000001 69.732 9.501000000000001 70.824 9.943000000000001 71.916 10.385000000000002 72.66999999999999 11.204 73.42399999999999 12.023000000000001 73.827 13.167000000000002 74.22999999999999 14.311 74.22999999999999 15.689 74.22999999999999 17.015 73.80099999999999 18.159 73.372 19.303 72.60499999999999 20.122 71.838 20.941000000000003 70.759 21.409 69.67999999999999 21.877000000000002 68.354 21.877000000000002 67.02799999999999 21.877000000000002 65.93599999999999 21.435000000000002 64.844 20.993000000000002 64.077 20.187 63.309999999999995 19.381 62.894 18.237000000000002 62.477999999999994 17.093 62.477999999999994 15.689 z" /><path d="M80.704 13.895000000000001 Q80.52199999999999 14.467000000000002 80.496 15.065000000000001 L80.496 17.821 Q80.496 18.679000000000002 80.62599999999999 19.199 80.756 19.719 81.042 20.031000000000002 81.328 20.343 81.75699999999999 20.46 82.18599999999999 20.577 82.81 20.603 82.94 20.967000000000002 82.94 21.721 82.342 21.669 81.458 21.656000000000002 80.574 21.643 79.664 21.643 L78.702 21.643 Q78.208 21.643 77.74 21.656000000000002 77.27199999999999 21.669 76.88199999999999 21.682000000000002 76.49199999999999 21.695 76.232 21.721 76.232 20.967000000000002 76.362 20.603 77.402 20.551000000000002 77.779 20.096 78.15599999999999 19.641000000000002 78.15599999999999 18.341 L78.15599999999999 13.193000000000001 Q78.15599999999999 12.725000000000001 78.091 12.387 78.026 12.049000000000001 77.818 11.828000000000001 77.61 11.607000000000001 77.23299999999999 11.490000000000002 76.856 11.373000000000001 76.20599999999999 11.347000000000001 76.20599999999999 11.061000000000002 76.258 10.827000000000002 76.31 10.593000000000002 76.44 10.385000000000002 76.83 10.359000000000002 77.31099999999999 10.268 77.792 10.177000000000001 78.273 10.06 78.75399999999999 9.943000000000001 79.18299999999999 9.8 79.612 9.657000000000002 79.92399999999999 9.501000000000001 80.158 9.579 80.327 9.826 80.496 10.073 80.496 10.645000000000001 80.496 11.555000000000001 80.33999999999999 12.257000000000001 L80.106 13.323 Q80.262 12.933000000000002 80.33999999999999 12.621 80.496 12.153 80.704 11.841000000000001 81.276 10.931000000000001 82.056 10.333000000000002 82.836 9.735000000000001 83.85 9.735000000000001 84.36999999999999 9.735000000000001 84.79899999999999 9.891000000000002 85.228 10.047 85.64399999999999 10.359000000000002 85.53999999999999 11.009 85.50099999999999 11.88 85.46199999999999 12.751000000000001 85.46199999999999 13.427000000000001 85.228 13.505 84.82499999999999 13.583 84.422 13.661000000000001 83.97999999999999 13.661000000000001 83.928 12.413 83.577 12.023000000000001 83.226 11.633000000000001 82.70599999999999 11.633000000000001 82.368 11.633000000000001 81.978 11.919 81.588 12.205000000000002 81.26299999999999 12.712000000000002 80.938 13.219000000000001 80.704 13.895000000000001 z" /><path d="M99.086 18.341 Q99.086 19.693 99.463 20.148 99.84 20.603 100.62 20.603 100.69800000000001 20.837 100.724 21.097 100.75 21.357 100.75 21.721 100.178 21.669 99.45 21.656000000000002 98.72200000000001 21.643 97.916 21.643 97.11 21.643 96.265 21.669 95.42 21.695 94.822 21.721 94.822 20.967000000000002 94.952 20.603 95.888 20.603 96.31700000000001 20.122 96.746 19.641000000000002 96.746 18.341 L96.746 14.389000000000001 Q96.746 13.479000000000001 96.56400000000001 12.868 96.382 12.257000000000001 96.057 11.893 95.732 11.529000000000002 95.29 11.373000000000001 94.848 11.217 94.328 11.217 93.808 11.217 93.288 11.451 92.768 11.685 92.352 12.205000000000002 91.936 12.725000000000001 91.663 13.544 91.39 14.363000000000001 91.39 15.559000000000001 L91.39 18.341 Q91.39 19.641000000000002 91.78 20.122 92.17 20.603 93.184 20.603 93.262 20.837 93.288 21.097 93.31400000000001 21.357 93.31400000000001 21.721 92.768 21.695 91.897 21.669 91.026 21.643 90.22 21.643 89.414 21.643 88.556 21.656000000000002 87.69800000000001 21.669 87.126 21.721 87.126 20.967000000000002 87.256 20.603 88.27 20.603 88.66 20.122 89.05 19.641000000000002 89.05 18.341 L89.05 13.193000000000001 Q89.05 12.725000000000001 88.985 12.387 88.92 12.049000000000001 88.712 11.828000000000001 88.504 11.607000000000001 88.127 11.490000000000002 87.75 11.373000000000001 87.1 11.347000000000001 87.1 11.061000000000002 87.152 10.827000000000002 87.20400000000001 10.593000000000002 87.334 10.385000000000002 87.724 10.359000000000002 88.205 10.268 88.686 10.177000000000001 89.167 10.06 89.648 9.943000000000001 90.077 9.8 90.506 9.657000000000002 90.818 9.501000000000001 91.052 9.579 91.221 9.826 91.39 10.073 91.39 10.645000000000001 91.39 10.957 91.364 11.347000000000001 91.338 11.737000000000002 91.208 12.179 91.286 12.049000000000001 91.364 11.88 91.44200000000001 11.711 91.598 11.503000000000002 91.806 11.191 92.17 10.866000000000001 92.534 10.541 93.015 10.268 93.496 9.995000000000001 94.081 9.813 94.666 9.631000000000002 95.368 9.631000000000002 96.096 9.631000000000002 96.772 9.852000000000002 97.44800000000001 10.073 97.968 10.567000000000002 98.488 11.061000000000002 98.787 11.867 99.086 12.673000000000002 99.086 13.869 L99.086 18.341 z" /></g></svg>