<svg width="170" height="30" xmlns="http://www.w3.org/2000/svg" viewBox="0 0 170 30"><g fill="currentColor"><path d="M19.779296875 24.15966796875 L16.478515625 24.15966796875 16.478515625 19.69091796875 4.875 19.69091796875 4.875 24.15966796875 1.57421875 24.15966796875 1.57421875 15.05712890625 Q1.57421875 13.06396484375 2.259765625 11.38818359375 2.9453125 9.71240234375 4.1640625 8.50634765625 5.3828125 7.30029296875 7.0458984375 6.62744140625 8.708984375 5.95458984375 10.6767578125 5.95458984375 L18.1162109375 5.95458984375 Q18.458984375 5.95458984375 18.763671875 6.08154296875 19.068359375 6.20849609375 19.296875 6.43701171875 19.525390625 6.66552734375 19.65234375 6.97021484375 19.779296875 7.27490234375 19.779296875 7.61767578125 L19.779296875 24.15966796875 zM4.875 16.39013671875 L16.478515625 16.39013671875 16.478515625 9.25537109375 10.6767578125 9.25537109375 Q10.5244140625 9.25537109375 10.03564453125 9.2998046875 9.546875 9.34423828125 8.90576171875 9.52197265625 8.2646484375 9.69970703125 7.5537109375 10.06787109375 6.8427734375 10.43603515625 6.24609375 11.08349609375 5.6494140625 11.73095703125 5.26220703125 12.7021484375 4.875 13.67333984375 4.875 15.05712890625 L4.875 16.39013671875 z" /><path d="M38.2509765625 22.49658203125 Q38.2509765625 22.85205078125 38.1240234375 23.15673828125 37.9970703125 23.46142578125 37.77490234375 23.68359375 37.552734375 23.90576171875 37.25439453125 24.03271484375 36.9560546875 24.15966796875 36.61328125 24.15966796875 L29.1484375 24.15966796875 Q28.5390625 24.15966796875 27.84716796875 24.02001953125 27.1552734375 23.88037109375 26.482421875 23.5693359375 25.8095703125 23.25830078125 25.18115234375 22.7822265625 24.552734375 22.30615234375 24.0830078125 21.626953125 23.61328125 20.94775390625 23.32763671875 20.05908203125 23.0419921875 19.17041015625 23.0419921875 18.05322265625 L23.0419921875 10.43603515625 26.3427734375 10.43603515625 26.3427734375 18.05322265625 Q26.3427734375 18.70068359375 26.56494140625 19.21484375 26.787109375 19.72900390625 27.16796875 20.09716796875 27.548828125 20.46533203125 28.06298828125 20.662109375 28.5771484375 20.85888671875 29.173828125 20.85888671875 L34.9501953125 20.85888671875 34.9501953125 10.43603515625 38.2509765625 10.43603515625 38.2509765625 22.49658203125 z" /><path d="M56.4052734375 19.52587890625 Q56.4052734375 20.37646484375 56.189453125 21.0556640625 55.9736328125 21.73486328125 55.6181640625 22.2490234375 55.2626953125 22.76318359375 54.79296875 23.125 54.3232421875 23.48681640625 53.80908203125 23.71533203125 53.294921875 23.94384765625 52.76806640625 24.0517578125 52.2412109375 24.15966796875 51.771484375 24.15966796875 L45.8173828125 24.15966796875 Q44.966796875 24.15966796875 44.2939453125 23.94384765625 43.62109375 23.72802734375 43.10693359375 23.3662109375 42.5927734375 23.00439453125 42.23095703125 22.53466796875 41.869140625 22.06494140625 41.640625 21.55078125 41.412109375 21.03662109375 41.30419921875 20.509765625 41.1962890625 19.98291015625 41.1962890625 19.52587890625 L41.1962890625 15.05712890625 Q41.1962890625 13.78759765625 41.65966796875 12.9052734375 42.123046875 12.02294921875 42.81494140625 11.470703125 43.5068359375 10.91845703125 44.3193359375 10.67724609375 45.1318359375 10.43603515625 45.8173828125 10.43603515625 L51.771484375 10.43603515625 51.771484375 13.73681640625 45.8427734375 13.73681640625 Q45.1826171875 13.73681640625 44.83984375 14.0732421875 44.4970703125 14.40966796875 44.4970703125 15.05712890625 L44.4970703125 19.50048828125 Q44.4970703125 20.17333984375 44.83349609375 20.51611328125 45.169921875 20.85888671875 45.8173828125 20.85888671875 L51.771484375 20.85888671875 Q52.4443359375 20.85888671875 52.7744140625 20.51611328125 53.1044921875 20.17333984375 53.1044921875 19.52587890625 L53.1044921875 4.63427734375 56.4052734375 4.63427734375 56.4052734375 19.52587890625 z" /><path d="M62.9052734375 7.61767578125 L59.6044921875 7.61767578125 59.6044921875 4.63427734375 62.9052734375 4.63427734375 62.9052734375 7.61767578125 zM62.9052734375 24.15966796875 L59.6044921875 24.15966796875 59.6044921875 10.43603515625 62.9052734375 10.43603515625 62.9052734375 24.15966796875 z" /><path d="M80.99609375 19.52587890625 Q80.99609375 20.37646484375 80.7802734375 21.0556640625 80.564453125 21.73486328125 80.208984375 22.2490234375 79.853515625 22.76318359375 79.3837890625 23.125 78.9140625 23.48681640625 78.39990234375 23.71533203125 77.8857421875 23.94384765625 77.35888671875 24.0517578125 76.83203125 24.15966796875 76.3623046875 24.15966796875 L70.408203125 24.15966796875 Q69.72265625 24.15966796875 68.91015625 23.91845703125 68.09765625 23.67724609375 67.40576171875 23.125 66.7138671875 22.57275390625 66.25048828125 21.6904296875 65.787109375 20.80810546875 65.787109375 19.52587890625 L65.787109375 15.05712890625 Q65.787109375 13.78759765625 66.25048828125 12.9052734375 66.7138671875 12.02294921875 67.40576171875 11.470703125 68.09765625 10.91845703125 68.91015625 10.67724609375 69.72265625 10.43603515625 70.408203125 10.43603515625 L76.3623046875 10.43603515625 Q77.6318359375 10.43603515625 78.5205078125 10.89306640625 79.4091796875 11.35009765625 79.955078125 12.0419921875 80.5009765625 12.73388671875 80.74853515625 13.54638671875 80.99609375 14.35888671875 80.99609375 15.05712890625 L80.99609375 19.52587890625 zM77.6953125 15.08251953125 Q77.6953125 14.39697265625 77.3525390625 14.06689453125 77.009765625 13.73681640625 76.3623046875 13.73681640625 L70.43359375 13.73681640625 Q69.7734375 13.73681640625 69.4306640625 14.0732421875 69.087890625 14.40966796875 69.087890625 15.05712890625 L69.087890625 19.52587890625 Q69.087890625 20.17333984375 69.4306640625 20.51611328125 69.7734375 20.85888671875 70.43359375 20.85888671875 L76.3623046875 20.85888671875 Q77.03515625 20.85888671875 77.365234375 20.51611328125 77.6953125 20.17333984375 77.6953125 19.52587890625 L77.6953125 15.08251953125 z" /><path d="M106.3994140625 10.43603515625 Q105.6123046875 12.20068359375 104.6982421875 13.908203125 103.7841796875 15.61572265625 102.78759765625 17.13916015625 101.791015625 18.66259765625 100.75 19.951171875 99.708984375 21.23974609375 98.68701171875 22.1728515625 97.6650390625 23.10595703125 96.69384765625 23.6328125 95.72265625 24.15966796875 94.859375 24.15966796875 94.50390625 24.15966796875 94.19921875 24.03271484375 93.89453125 23.90576171875 93.666015625 23.68359375 93.4375 23.46142578125 93.310546875 23.15673828125 93.18359375 22.85205078125 93.18359375 22.49658203125 L93.18359375 16.33935546875 86.6328125 23.66455078125 Q86.37890625 23.91845703125 86.08056640625 24.0390625 85.7822265625 24.15966796875 85.46484375 24.15966796875 85.1220703125 24.15966796875 84.82373046875 24.03271484375 84.525390625 23.90576171875 84.296875 23.68359375 84.068359375 23.46142578125 83.93505859375 23.15673828125 83.8017578125 22.85205078125 83.8017578125 22.49658203125 L83.8017578125 10.43603515625 87.1025390625 10.43603515625 87.1025390625 18.25634765625 93.6787109375 10.90576171875 Q94.0341796875 10.55029296875 94.52294921875 10.455078125 95.01171875 10.35986328125 95.4814453125 10.56298828125 95.951171875 10.75341796875 96.22412109375 11.166015625 96.4970703125 11.57861328125 96.4970703125 12.07373046875 L96.4970703125 19.91943359375 Q97.5634765625 18.89111328125 98.4267578125 17.74853515625 99.2900390625 16.60595703125 100.03271484375 15.3935546875 100.775390625 14.18115234375 101.42919921875 12.9306640625 102.0830078125 11.68017578125 102.705078125 10.43603515625 L106.3994140625 10.43603515625 z" /><path d="M110.8935546875 7.61767578125 L107.5927734375 7.61767578125 107.5927734375 4.63427734375 110.8935546875 4.63427734375 110.8935546875 7.61767578125 zM110.8935546875 24.15966796875 L107.5927734375 24.15966796875 107.5927734375 10.43603515625 110.8935546875 10.43603515625 110.8935546875 24.15966796875 z" /><path d="M129.111328125 19.52587890625 Q129.111328125 20.37646484375 128.8955078125 21.0556640625 128.6796875 21.73486328125 128.32421875 22.2490234375 127.96875 22.76318359375 127.4990234375 23.125 127.029296875 23.48681640625 126.51513671875 23.71533203125 126.0009765625 23.94384765625 125.47412109375 24.0517578125 124.947265625 24.15966796875 124.4775390625 24.15966796875 L118.5234375 24.15966796875 Q117.6728515625 24.15966796875 117 23.94384765625 116.3271484375 23.72802734375 115.81298828125 23.3662109375 115.298828125 23.00439453125 114.93701171875 22.53466796875 114.5751953125 22.06494140625 114.3466796875 21.55078125 114.1181640625 21.03662109375 114.01025390625 20.509765625 113.90234375 19.98291015625 113.90234375 19.52587890625 L113.90234375 15.05712890625 Q113.90234375 13.78759765625 114.36572265625 12.9052734375 114.8291015625 12.02294921875 115.52099609375 11.470703125 116.212890625 10.91845703125 117.025390625 10.67724609375 117.837890625 10.43603515625 118.5234375 10.43603515625 L124.4775390625 10.43603515625 124.4775390625 13.73681640625 118.548828125 13.73681640625 Q117.888671875 13.73681640625 117.5458984375 14.0732421875 117.203125 14.40966796875 117.203125 15.05712890625 L117.203125 19.50048828125 Q117.203125 20.17333984375 117.53955078125 20.51611328125 117.8759765625 20.85888671875 118.5234375 20.85888671875 L124.4775390625 20.85888671875 Q125.150390625 20.85888671875 125.48046875 20.51611328125 125.810546875 20.17333984375 125.810546875 19.52587890625 L125.810546875 4.63427734375 129.111328125 4.63427734375 129.111328125 19.52587890625 z" /><path d="M147.0244140625 14.98095703125 Q147.0244140625 15.66650390625 146.783203125 16.4599609375 146.5419921875 17.25341796875 146.00244140625 17.9326171875 145.462890625 18.61181640625 144.59326171875 19.06884765625 143.7236328125 19.52587890625 142.4794921875 19.52587890625 L136.525390625 19.52587890625 136.525390625 16.39013671875 142.4794921875 16.39013671875 Q143.15234375 16.39013671875 143.5205078125 15.9775390625 143.888671875 15.56494140625 143.888671875 14.95556640625 143.888671875 14.30810546875 143.47607421875 13.93994140625 143.0634765625 13.57177734375 142.4794921875 13.57177734375 L136.525390625 13.57177734375 Q135.8525390625 13.57177734375 135.484375 13.984375 135.1162109375 14.39697265625 135.1162109375 15.00634765625 L135.1162109375 19.61474609375 Q135.1162109375 20.27490234375 135.52880859375 20.64306640625 135.94140625 21.01123046875 136.55078125 21.01123046875 L142.4794921875 21.01123046875 142.4794921875 24.15966796875 136.525390625 24.15966796875 Q135.83984375 24.15966796875 135.04638671875 23.91845703125 134.2529296875 23.67724609375 133.57373046875 23.1376953125 132.89453125 22.59814453125 132.4375 21.728515625 131.98046875 20.85888671875 131.98046875 19.61474609375 L131.98046875 14.98095703125 Q131.98046875 14.29541015625 132.2216796875 13.501953125 132.462890625 12.70849609375 133.00244140625 12.029296875 133.5419921875 11.35009765625 134.41162109375 10.89306640625 135.28125 10.43603515625 136.525390625 10.43603515625 L142.4794921875 10.43603515625 Q143.1650390625 10.43603515625 143.95849609375 10.67724609375 144.751953125 10.91845703125 145.43115234375 11.4580078125 146.1103515625 11.99755859375 146.5673828125 12.8671875 147.0244140625 13.73681640625 147.0244140625 14.98095703125 z" /></g></svg>