<svg width="170" height="30" xmlns="http://www.w3.org/2000/svg" viewBox="0 0 170 30"><g fill="currentColor"><path d="M7.54 7.693999999999999 Q5.486 10.267999999999999 4.576 12.841999999999999 L4.601999999999999 12.841999999999999 Q8.216 12.841999999999999 8.748999999999999 12.854999999999999 9.282 12.867999999999999 9.334 12.815999999999999 9.386 12.764 9.411999999999999 12.686 8.969999999999999 9.488 8.709999999999999 8.331 8.45 7.1739999999999995 8.19 7.1739999999999995 7.93 7.1739999999999995 7.54 7.693999999999999 zM5.226 19.939999999999998 L5.798 19.836 Q6.058 19.836 6.058 20.122 6.058 21.032 5.694 21.656 5.33 22.279999999999998 4.784 22.54 3.9 22.982 3.276 22.982 2.08 22.982 1.482 22.084999999999997 0.884 21.188 0.884 19.381 0.884 17.573999999999998 1.8719999999999999 14.687999999999999 L0.364 14.687999999999999 Q0.078 14.687999999999999 0.078 14.402 0.078 14.116 0.52 13.479 0.962 12.841999999999999 1.456 12.841999999999999 L2.626 12.841999999999999 Q4.4719999999999995 8.734 6.968 5.744 7.617999999999999 4.963999999999999 8.567 4.288 9.516 3.6119999999999983 10.036 3.6119999999999983 10.556 3.6119999999999983 10.815999999999999 4.079999999999998 11.491999999999999 5.172000000000001 12.402 12.062 12.713999999999999 15.026 13.481 18.185 14.248 21.343999999999998 14.898 21.863999999999997 15.053999999999998 21.968 15.053999999999998 22.124 15.053999999999998 22.514 13.949 22.852 12.844 23.189999999999998 12.258999999999999 23.189999999999998 11.674 23.189999999999998 11.362 23.046999999999997 11.049999999999999 22.904 10.972 22.747999999999998 10.504 21.733999999999998 10.036 17.912 L9.879999999999999 16.689999999999998 Q9.776 15.468 9.671999999999999 14.844 L9.49 14.713999999999999 4.056 14.687999999999999 Q3.7439999999999998 16.014 3.7439999999999998 17.002 3.7439999999999998 17.99 3.8089999999999997 18.445 3.8739999999999997 18.9 4.2379999999999995 19.419999999999998 4.601999999999999 19.939999999999998 5.226 19.939999999999998 z" /><path d="M19.188 7.719999999999999 L19.032 17.262 Q19.032 21.733999999999998 19.317999999999998 22.618 19.396 22.773999999999997 19.396 22.93 19.396 23.241999999999997 18.642 23.241999999999997 17.887999999999998 23.241999999999997 16.965 22.865 16.041999999999998 22.488 16.041999999999998 21.89 16.562 18.25 16.562 12.165999999999999 L16.458 8.187999999999999 Q16.406 7.459999999999999 16.159 6.9399999999999995 15.911999999999999 6.419999999999998 15.677999999999999 6.263999999999999 L15.469999999999999 6.134 Q15.288 6.030000000000001 15.288 5.899999999999999 15.288 5.535999999999998 16.419 5.003 17.55 4.469999999999999 18.616 4.469999999999999 19.032 4.469999999999999 19.084 4.756 19.188 5.431999999999999 19.188 7.719999999999999 z" /><path d="M29.64 14.791999999999998 L29.587999999999997 18.119999999999997 Q29.587999999999997 21.578 30.342 22.279999999999998 30.445999999999998 22.384 30.445999999999998 22.514 30.445999999999998 22.904 28.769 22.904 27.092 22.904 26.988 21.916 26.961999999999996 21.682 26.961999999999996 20.954 L27.066 16.793999999999997 Q27.066 16.612 26.857999999999997 16.612 25.61 16.612 24.517999999999997 17.314 23.426 18.016 23.426 19.107999999999997 23.426 19.68 23.738 20.07 24.049999999999997 20.459999999999997 24.505 20.459999999999997 24.959999999999997 20.459999999999997 25.259 20.278 25.558 20.096 25.61 20.07 26.052 20.122 26.052 20.993 26.052 21.863999999999997 25.246 22.397 24.439999999999998 22.93 23.555999999999997 22.93 22.671999999999997 22.93 22.034999999999997 22.618 21.398 22.305999999999997 21.112 21.916 20.825999999999997 21.526 20.644 21.032 20.462 20.433999999999997 20.462 19.991999999999997 20.462 18.171999999999997 21.605999999999998 17.08 22.75 15.988 24.543999999999997 15.52 26.909999999999997 15.052 27.014 14.661999999999999 27.092 14.376 27.092 13.7 27.092 12.322 25.688 12.322 25.089999999999996 12.322 24.622 12.699 24.153999999999996 13.075999999999999 24.153999999999996 13.648 L24.31 14.271999999999998 Q24.258 14.713999999999999 23.374 14.791999999999998 L23.087999999999997 14.817999999999998 Q22.308 14.817999999999998 21.852999999999998 14.427999999999999 21.398 14.037999999999998 21.398 13.388 21.398 12.972 21.671 12.465 21.944 11.957999999999998 22.36 11.645999999999999 22.776 11.334 23.647 11.087 24.517999999999997 10.84 25.323999999999998 10.84 26.13 10.84 26.572 10.892 27.014 10.943999999999999 27.781 11.139 28.548 11.334 29.055 11.879999999999999 29.561999999999998 12.425999999999998 29.601 13.036999999999999 29.64 13.648 29.64 14.791999999999998 z" /><path d="M36.425999999999995 10.918 Q36.894 10.918 37.271 11.035 37.647999999999996 11.152 37.674 11.152 L37.83 11.021999999999998 37.726 8.187999999999999 Q37.674 7.459999999999999 37.414 6.9399999999999995 37.153999999999996 6.419999999999998 36.946 6.263999999999999 L36.711999999999996 6.134 Q36.556 6.030000000000001 36.556 5.899999999999999 36.556 5.509999999999998 37.765 4.989999999999998 38.974 4.469999999999999 39.65 4.469999999999999 40.32599999999999 4.469999999999999 40.378 4.756 40.507999999999996 5.640000000000001 40.507999999999996 8.123 40.507999999999996 10.606 40.391 12.998 40.274 15.389999999999999 40.274 18.418999999999997 40.274 21.448 40.664 22.227999999999998 40.768 22.41 40.768 22.566 40.768 22.956 39.65 22.956 37.518 22.956 37.518 21.942 37.465999999999994 21.526 37.465999999999994 20.654999999999998 37.465999999999994 19.784 37.635 17.405 37.803999999999995 15.026 37.803999999999995 13.738999999999999 37.803999999999995 12.452 36.516999999999996 12.452 35.23 12.452 34.553999999999995 13.959999999999999 33.878 15.468 33.878 16.976 33.878 20.174 35.489999999999995 20.174 35.724 20.174 35.945 20.083 36.166 19.991999999999997 36.217999999999996 19.991999999999997 36.425999999999995 19.991999999999997 36.543 20.252 36.66 20.512 36.66 20.772 36.66 21.656 35.958 22.267 35.256 22.878 34.242 22.878 32.681999999999995 22.878 31.889 21.512999999999998 31.095999999999997 20.148 31.095999999999997 18.119999999999997 31.095999999999997 15.546 32.318 13.335999999999999 32.942 12.244 34.007999999999996 11.581 35.074 10.918 36.425999999999995 10.918 z" /><path d="M44.616 8.681999999999999 L43.992000000000004 8.655999999999999 Q43.29 8.655999999999999 43.082 8.994 43.03 9.072 42.952 9.072 42.614000000000004 9.072 42.614000000000004 7.914999999999999 42.614000000000004 6.757999999999999 42.965 6.445999999999998 43.316 6.134 44.187 6.134 45.058 6.134 45.370000000000005 6.433 45.682 6.731999999999999 45.682 7.433999999999999 45.682 8.136 45.448 8.408999999999999 45.214 8.681999999999999 44.616 8.681999999999999 zM42.536 21.811999999999998 L42.822 15.753999999999998 Q42.822 13.595999999999998 42.328 12.815999999999999 42.172000000000004 12.556 41.964 12.425999999999998 41.808 12.373999999999999 41.808 12.218 41.808 11.75 43.134 11.308 44.46 10.866 45.071 10.866 45.682 10.866 45.708 11.177999999999999 45.708 11.697999999999999 45.565 14.129 45.422000000000004 16.56 45.422000000000004 19.238 45.422000000000004 21.916 45.734 22.566 45.812 22.695999999999998 45.812 22.826 45.812 23.163999999999998 44.824 23.163999999999998 43.836 23.163999999999998 42.796 22.644 42.536 22.514 42.536 21.811999999999998 z" /><path d="M47.398 22.773999999999997 Q47.866 19.965999999999998 47.866 16.04 47.866 12.113999999999999 47.632000000000005 10.943999999999999 47.632000000000005 10.606 48.412 10.606 49.608000000000004 10.606 49.998000000000005 11.516 50.024 11.594 50.128 11.594 50.232 11.594 50.284 11.542 51.09 10.709999999999999 52.78 10.709999999999999 54.47 10.709999999999999 55.458 11.568 56.446 12.425999999999998 56.446 14.063999999999998 56.446 15.052 56.277 16.872 56.108000000000004 18.692 56.108000000000004 19.576 56.108000000000004 21.682 56.81 22.618 56.914 22.747999999999998 56.914 22.878 56.914 23.215999999999998 56.186 23.215999999999998 52.962 23.215999999999998 52.962 20.355999999999998 52.962 19.264 53.456 17.314 53.95 15.363999999999999 53.95 14.35 53.95 12.27 52.234 12.27 51.402 12.27 50.973 12.764 50.544000000000004 13.258 50.492000000000004 13.895 50.440000000000005 14.531999999999998 50.440000000000005 16.299999999999997 50.440000000000005 19.003999999999998 50.622 21.006 L50.674 21.578 Q50.674 22.305999999999997 49.725 22.709 48.776 23.112 48.087 23.112 47.398 23.112 47.398 22.773999999999997 z" /></g></svg>