<svg width="170" height="30" xmlns="http://www.w3.org/2000/svg" viewBox="0 0 170 30"><g fill="currentColor"><path d="M1.4091796875 13.857421875 Q1.4091796875 9.388671875 3.783203125 6.72265625 6.2080078125 3.98046875 10.4609375 3.98046875 12.796875 3.98046875 14.599609375 5.021484375 16.681640625 6.21484375 16.681640625 8.44921875 16.681640625 10.0234375 15.28515625 10.0234375 L14.4091796875 10.0234375 Q14.0029296875 10.0234375 13.78076171875 9.72509765625 13.55859375 9.4267578125 13.52685546875 8.89990234375 13.4951171875 8.373046875 13.203125 7.93505859375 12.9111328125 7.4970703125 12.4541015625 7.23046875 11.603515625 6.7353515625 10.1943359375 6.7353515625 8.78515625 6.7353515625 7.744140625 7.32568359375 6.703125 7.916015625 6.068359375 8.90625 4.849609375 10.759765625 4.849609375 13.857421875 4.849609375 19.4306640625 8.48046875 20.865234375 9.59765625 21.296875 10.6640625 21.296875 12.59375 21.296875 14.06640625 20.5986328125 L14.77734375 20.2685546875 Q15.1201171875 20.1162109375 15.38671875 20.1162109375 15.6533203125 20.1162109375 15.818359375 20.2431640625 15.9833984375 20.3701171875 16.23095703125 20.84619140625 16.478515625 21.322265625 16.478515625 21.67138671875 16.478515625 22.0205078125 16.2373046875 22.35693359375 15.99609375 22.693359375 15.640625 22.947265625 15.0185546875 23.353515625 14.142578125 23.6201171875 12.54296875 24.1025390625 10.40380859375 24.1025390625 8.2646484375 24.1025390625 6.58251953125 23.328125 4.900390625 22.5537109375 3.7578125 21.1826171875 1.4091796875 18.3896484375 1.4091796875 13.857421875 z" /><path d="M18.53515625 19.4560546875 Q18.53515625 17.107421875 20.26171875 15.86328125 21.68359375 14.8603515625 23.91796875 14.8603515625 26.15234375 14.8603515625 27.701171875 16.16796875 27.7392578125 15.736328125 27.7392578125 15.0888671875 27.7392578125 14.44140625 27.4853515625 13.7939453125 27.2314453125 13.146484375 26.76171875 12.71484375 25.796875 11.8642578125 24.0703125 11.8642578125 22.521484375 11.8642578125 20.921875 12.71484375 20.6171875 12.8798828125 20.388671875 12.8798828125 20.0458984375 12.8798828125 19.728515625 12.20703125 19.3857421875 11.521484375 19.3857421875 11.216796875 19.3857421875 10.658203125 20.2236328125 10.1376953125 21.8232421875 9.1474609375 24.501953125 9.1474609375 26.939453125 9.1474609375 28.5390625 10.48046875 30.4306640625 12.080078125 30.4306640625 15 30.4306640625 16.294921875 30.01171875 18.2626953125 31.0908203125 21.3349609375 31.1416015625 23.1123046875 31.1416015625 23.78515625 30.4814453125 23.78515625 L29.25 23.78515625 Q28.7548828125 23.78515625 28.6533203125 23.58837890625 28.5517578125 23.3916015625 28.5390625 23.23291015625 28.5263671875 23.07421875 28.48828125 22.845703125 28.412109375 22.2236328125 28.2724609375 21.5 27.2822265625 23.3154296875 25.162109375 23.8994140625 24.4130859375 24.1025390625 23.51171875 24.1025390625 22.6103515625 24.1025390625 21.708984375 23.80419921875 20.8076171875 23.505859375 20.109375 22.921875 18.53515625 21.6015625 18.53515625 19.4560546875 zM21.6708984375 18.8720703125 Q21.6708984375 18.8720703125 21.6708984375 19.38623046875 21.6708984375 19.900390625 21.85498046875 20.30029296875 22.0390625 20.7001953125 22.369140625 20.966796875 23.0673828125 21.5126953125 23.93701171875 21.5126953125 24.806640625 21.5126953125 25.365234375 21.3095703125 25.923828125 21.1064453125 26.330078125 20.7890625 27.2060546875 20.103515625 27.2060546875 19.341796875 27.1298828125 18.3896484375 26.15234375 17.84375 25.2763671875 17.3359375 24.0830078125 17.3359375 23.15625 17.3359375 22.6357421875 17.72314453125 22.115234375 18.1103515625 21.89306640625 18.4912109375 z" /><path d="M34.556640625 10.53125 Q34.556640625 10.53125 34.556640625 10.2392578125 34.556640625 9.947265625 34.79150390625 9.7060546875 35.0263671875 9.46484375 35.39453125 9.46484375 L36.1689453125 9.46484375 Q36.8671875 9.46484375 37.1591796875 10.07421875 37.501953125 10.78515625 37.6796875 11.9150390625 38.568359375 10.3662109375 40.1044921875 9.6552734375 41.1962890625 9.1474609375 42.58642578125 9.1474609375 43.9765625 9.1474609375 45.068359375 9.68701171875 46.16015625 10.2265625 46.8837890625 11.166015625 48.318359375 13.0322265625 48.318359375 16.16796875 48.318359375 19.443359375 46.7060546875 21.703125 45.0048828125 24.1025390625 42.25 24.1025390625 39.380859375 24.1025390625 37.9716796875 21.5888671875 38.0986328125 22.8583984375 38.0986328125 24.7626953125 L38.0986328125 30.005859375 Q38.0986328125 30.9453125 37.349609375 30.9453125 L35.775390625 30.9453125 Q34.9755859375 30.9453125 34.9755859375 29.955078125 L34.9755859375 15.9013671875 Q34.9755859375 12.333984375 34.5947265625 10.6962890625 34.556640625 10.53125 34.556640625 10.2392578125 zM37.806640625 17.08203125 Q37.806640625 18.91015625 39.025390625 20.23046875 40.1806640625 21.474609375 41.640625 21.474609375 43.4814453125 21.474609375 44.3701171875 19.6845703125 45.0810546875 18.2626953125 45.0810546875 16.091796875 45.0810546875 14.33984375 44.2431640625 13.12109375 43.341796875 11.80078125 41.84375 11.80078125 40.1552734375 11.80078125 38.9619140625 13.197265625 37.806640625 14.568359375 37.806640625 16.3837890625 L37.806640625 17.08203125 z" /><path d="M51.8095703125 10.37890625 Q51.8095703125 9.46484375 52.609375 9.46484375 L53.294921875 9.46484375 Q53.9931640625 9.46484375 54.28515625 10.07421875 54.7041015625 10.962890625 54.89453125 12.5244140625 54.89453125 12.5498046875 54.91357421875 12.5498046875 54.9326171875 12.5498046875 54.99609375 12.1181640625 55.0595703125 11.6865234375 55.3642578125 11.05810546875 55.6689453125 10.4296875 56.11328125 9.998046875 57.0146484375 9.1474609375 58.322265625 9.1474609375 59.7822265625 9.1474609375 60.353515625 9.6298828125 60.58203125 9.8076171875 60.58203125 10.1123046875 60.58203125 10.1630859375 60.5693359375 10.2265625 L60.3662109375 11.826171875 Q60.2900390625 12.4736328125 59.7060546875 12.4736328125 59.4267578125 12.4736328125 59.0205078125 12.359375 58.2333984375 12.15625 57.7763671875 12.15625 57.3193359375 12.15625 56.8115234375 12.55615234375 56.3037109375 12.9560546875 55.935546875 13.552734375 55.1865234375 14.796875 55.1865234375 16.2060546875 L55.1865234375 22.947265625 Q55.1865234375 23.302734375 54.9833984375 23.5439453125 54.7802734375 23.78515625 54.3994140625 23.78515625 L52.9267578125 23.78515625 Q52.5205078125 23.78515625 52.31103515625 23.5439453125 52.1015625 23.302734375 52.1015625 22.947265625 L52.1015625 14.2001953125 Q52.1015625 11.9658203125 51.95556640625 11.24853515625 51.8095703125 10.53125 51.8095703125 10.37890625 z" /><path d="M62.4228515625 4.9453125 Q62.4228515625 4.08203125 63.0322265625 3.47265625 63.6162109375 2.888671875 64.5048828125 2.888671875 65.86328125 2.888671875 66.4091796875 4.1328125 66.57421875 4.5009765625 66.57421875 4.9453125 66.57421875 5.833984375 65.96484375 6.41796875 65.35546875 7.0146484375 64.5048828125 7.0146484375 63.6416015625 7.0146484375 63.0322265625 6.41796875 62.4228515625 5.833984375 62.4228515625 4.9453125 zM62.9306640625 20.205078125 L62.9306640625 10.302734375 Q62.9306640625 9.947265625 63.1337890625 9.7060546875 63.3369140625 9.46484375 63.6162109375 9.46484375 L65.3173828125 9.46484375 Q65.609375 9.46484375 65.7998046875 9.7060546875 65.990234375 9.947265625 65.990234375 10.302734375 L65.990234375 20.2939453125 Q65.990234375 21.1953125 66.5869140625 21.1953125 66.7900390625 21.1953125 67.0439453125 21.0810546875 67.5390625 20.865234375 67.716796875 20.865234375 67.9833984375 20.865234375 68.1484375 21.2333984375 L68.5419921875 22.1220703125 Q68.6435546875 22.337890625 68.6435546875 22.5283203125 68.6435546875 23.07421875 67.7041015625 23.5439453125 66.8154296875 24.0009765625 65.94580078125 24.0009765625 65.076171875 24.0009765625 64.5556640625 23.810546875 64.03515625 23.6201171875 63.6669921875 23.17578125 62.9306640625 22.26171875 62.9306640625 20.205078125 z" /><path d="M70.814453125 16.57421875 Q70.814453125 14.923828125 71.36669921875 13.54638671875 71.9189453125 12.1689453125 72.8837890625 11.19140625 74.90234375 9.1474609375 77.974609375 9.1474609375 81.4150390625 9.1474609375 83.306640625 11.19140625 85.134765625 13.1591796875 85.134765625 16.599609375 85.134765625 19.92578125 83.0654296875 22.033203125 81.046875 24.1025390625 77.974609375 24.1025390625 74.7373046875 24.1025390625 72.76953125 21.982421875 70.814453125 19.9130859375 70.814453125 16.57421875 zM73.98828125 15.837890625 Q73.98828125 15.837890625 73.98828125 16.75830078125 73.98828125 17.6787109375 74.23583984375 18.52294921875 74.4833984375 19.3671875 74.978515625 20.02734375 76.0703125 21.474609375 78.025390625 21.474609375 80.0185546875 21.474609375 81.046875 20.052734375 81.9609375 18.80859375 81.9609375 16.6630859375 81.9609375 13.451171875 79.853515625 12.232421875 79.0791015625 11.7880859375 77.98095703125 11.7880859375 76.8828125 11.7880859375 76.12744140625 12.21337890625 75.3720703125 12.638671875 74.89599609375 13.34326171875 74.419921875 14.0478515625 74.2041015625 14.94287109375 z" /><path d="M89.0068359375 20.205078125 L89.0068359375 2.1015625 Q89.0068359375 1.7587890625 89.2099609375 1.517578125 89.4130859375 1.2763671875 89.6923828125 1.2763671875 L91.3935546875 1.2763671875 Q91.685546875 1.2763671875 91.8759765625 1.517578125 92.06640625 1.7587890625 92.06640625 2.1015625 L92.06640625 20.2939453125 Q92.06640625 21.1953125 92.701171875 21.1953125 92.904296875 21.1953125 93.2216796875 21.0810546875 93.8056640625 20.865234375 93.9326171875 20.865234375 94.224609375 20.865234375 94.3896484375 21.2333984375 L94.783203125 22.134765625 Q94.859375 22.3251953125 94.859375 22.490234375 94.859375 22.7822265625 94.376953125 23.201171875 93.412109375 24.0009765625 91.8505859375 24.0009765625 89.0068359375 24.0009765625 89.0068359375 20.205078125 z" /><path d="M96.5478515625 19.4560546875 Q96.5478515625 17.107421875 98.2744140625 15.86328125 99.6962890625 14.8603515625 101.9306640625 14.8603515625 104.1650390625 14.8603515625 105.7138671875 16.16796875 105.751953125 15.736328125 105.751953125 15.0888671875 105.751953125 14.44140625 105.498046875 13.7939453125 105.244140625 13.146484375 104.7744140625 12.71484375 103.8095703125 11.8642578125 102.0830078125 11.8642578125 100.5341796875 11.8642578125 98.9345703125 12.71484375 98.6298828125 12.8798828125 98.4013671875 12.8798828125 98.05859375 12.8798828125 97.7412109375 12.20703125 97.3984375 11.521484375 97.3984375 11.216796875 97.3984375 10.658203125 98.236328125 10.1376953125 99.8359375 9.1474609375 102.5146484375 9.1474609375 104.9521484375 9.1474609375 106.5517578125 10.48046875 108.443359375 12.080078125 108.443359375 15 108.443359375 16.294921875 108.0244140625 18.2626953125 109.103515625 21.3349609375 109.154296875 23.1123046875 109.154296875 23.78515625 108.494140625 23.78515625 L107.2626953125 23.78515625 Q106.767578125 23.78515625 106.666015625 23.58837890625 106.564453125 23.3916015625 106.5517578125 23.23291015625 106.5390625 23.07421875 106.5009765625 22.845703125 106.4248046875 22.2236328125 106.28515625 21.5 105.294921875 23.3154296875 103.1748046875 23.8994140625 102.42578125 24.1025390625 101.5244140625 24.1025390625 100.623046875 24.1025390625 99.7216796875 23.80419921875 98.8203125 23.505859375 98.1220703125 22.921875 96.5478515625 21.6015625 96.5478515625 19.4560546875 zM99.68359375 18.8720703125 Q99.68359375 18.8720703125 99.68359375 19.38623046875 99.68359375 19.900390625 99.86767578125 20.30029296875 100.0517578125 20.7001953125 100.3818359375 20.966796875 101.080078125 21.5126953125 101.94970703125 21.5126953125 102.8193359375 21.5126953125 103.3779296875 21.3095703125 103.9365234375 21.1064453125 104.3427734375 20.7890625 105.21875 20.103515625 105.21875 19.341796875 105.142578125 18.3896484375 104.1650390625 17.84375 103.2890625 17.3359375 102.095703125 17.3359375 101.1689453125 17.3359375 100.6484375 17.72314453125 100.1279296875 18.1103515625 99.90576171875 18.4912109375 z" /></g></svg>