<svg width="170" height="30" xmlns="http://www.w3.org/2000/svg" viewBox="0 0 170 30"><g fill="currentColor"><path d="M9.1142578125 13.87939453125 L9.5791015625 13.87939453125 Q9.861328125 13.87939453125 10.11865234375 13.92919921875 10.3759765625 13.97900390625 10.3759765625 14.29443359375 10.4921875 14.95849609375 9.595703125 14.94189453125 9.3466796875 14.92529296875 9.13916015625 14.90869140625 8.931640625 14.89208984375 8.798828125 14.900390625 8.666015625 14.90869140625 8.6826171875 14.99169921875 8.8486328125 15.47314453125 9.03955078125 16.07080078125 9.23046875 16.66845703125 9.462890625 17.26611328125 10.060546875 18.74365234375 10.591796875 19.39111328125 10.3095703125 19.73974609375 9.93603515625 19.97216796875 9.5625 20.20458984375 9.53759765625 20.20458984375 9.5126953125 20.20458984375 9.49609375 20.18798828125 L7.1552734375 15.25732421875 2.623046875 16.36962890625 2.45703125 17.06689453125 Q1.9755859375 18.97607421875 1.3779296875 19.72314453125 1.2783203125 19.88916015625 0.962890625 19.75634765625 0.431640625 19.55712890625 0.431640625 19.42431640625 0.431640625 19.39111328125 0.7802734375 18.46142578125 1.12890625 17.53173828125 1.48583984375 16.5771484375 1.8427734375 15.62255859375 2.23291015625 14.57666015625 2.623046875 13.53076171875 2.9716796875 12.58447265625 3.3203125 11.63818359375 3.6025390625 10.8828125 3.884765625 10.12744140625 4.0009765625 9.787109375 4.1171875 9.44677734375 4.15869140625 9.189453125 4.2001953125 8.93212890625 4.283203125 8.74951171875 4.44921875 8.36767578125 5.11328125 8.36767578125 5.8271484375 8.76611328125 6.21728515625 9.4052734375 6.607421875 10.04443359375 6.88134765625 10.77490234375 7.1552734375 11.50537109375 7.4208984375 12.25244140625 7.6865234375 12.99951171875 8.134765625 13.61376953125 8.2841796875 13.84619140625 8.5830078125 13.86279296875 8.8818359375 13.87939453125 9.1142578125 13.87939453125 zM4.9638671875 10.29345703125 Q4.8310546875 11.30615234375 4.3662109375 12.36865234375 3.9013671875 13.43115234375 3.619140625 14.0205078125 3.3369140625 14.60986328125 3.1376953125 15.10791015625 4.2666015625 15.10791015625 5.91015625 14.44384765625 6.3251953125 14.26123046875 6.70703125 14.11181640625 5.9267578125 10.77490234375 4.9638671875 10.29345703125 z" /><path d="M19.490234375 13.89599609375 Q18.79296875 13.39794921875 17.697265625 13.39794921875 16.66796875 13.39794921875 15.7880859375 13.77978515625 14.1279296875 14.47705078125 13.513671875 15.57275390625 13.248046875 16.07080078125 13.248046875 16.63525390625 13.248046875 16.73486328125 13.248046875 17.19140625 13.248046875 17.64794921875 13.4140625 18.419921875 13.580078125 19.19189453125 13.580078125 19.98876953125 13.2314453125 20.00537109375 13.015625 20.07177734375 12.7998046875 20.13818359375 12.650390625 20.13818359375 12.5009765625 20.13818359375 12.39306640625 20.00537109375 12.28515625 19.87255859375 12.15234375 19.49072265625 12.1357421875 19.39111328125 12.0859375 18.92626953125 12.0361328125 18.46142578125 11.96142578125 17.79736328125 11.88671875 17.13330078125 11.79541015625 16.3447265625 11.7041015625 15.55615234375 11.62109375 14.79248046875 11.4384765625 13.13232421875 11.3388671875 12.35205078125 11.3388671875 11.95361328125 11.919921875 11.95361328125 12.2685546875 11.95361328125 12.4677734375 12.244140625 12.6669921875 12.53466796875 12.783203125 12.908203125 12.8994140625 13.28173828125 12.94091796875 13.64697265625 12.982421875 14.01220703125 13.015625 14.16162109375 15.20703125 12.20263671875 18.4609375 12.20263671875 18.826171875 12.20263671875 19.224609375 12.21923828125 19.32421875 12.20263671875 19.4736328125 12.20263671875 19.623046875 12.20263671875 19.7724609375 12.40185546875 19.955078125 12.63427734375 19.955078125 12.96630859375 19.955078125 13.79638671875 19.490234375 13.89599609375 z" /><path d="M28.1064453125 17.93017578125 Q28.1064453125 17.93017578125 28.75390625 17.69775390625 29.4013671875 17.46533203125 29.99072265625 17.46533203125 30.580078125 17.46533203125 30.580078125 17.83056640625 30.580078125 17.91357421875 30.53857421875 18.087890625 30.4970703125 18.26220703125 30.09033203125 18.5029296875 29.68359375 18.74365234375 29.09423828125 18.95947265625 28.5048828125 19.17529296875 27.8076171875 19.35791015625 27.1103515625 19.54052734375 26.4462890625 19.67333984375 25.068359375 19.95556640625 24.4873046875 19.95556640625 23.90625 19.95556640625 23.23388671875 19.82275390625 22.5615234375 19.68994140625 21.98046875 19.39111328125 20.6357421875 18.69384765625 20.6357421875 17.33251953125 20.6357421875 17.23291015625 20.6357421875 16.93408203125 20.6357421875 16.63525390625 20.884765625 16.0791015625 21.1337890625 15.52294921875 21.6318359375 14.966796875 22.1298828125 14.41064453125 22.7939453125 13.94580078125 24.1884765625 12.94970703125 25.7158203125 12.65087890625 26.2470703125 12.53466796875 26.60400390625 12.53466796875 26.9609375 12.53466796875 27.193359375 12.54296875 27.42578125 12.55126953125 27.6748046875 12.576171875 27.923828125 12.60107421875 28.1064453125 12.70068359375 28.5380859375 12.91650390625 28.5380859375 13.54736328125 28.5380859375 13.94580078125 27.9736328125 14.32763671875 27.82421875 14.42724609375 27.7080078125 14.51025390625 27.625 14.12841796875 27.4921875 13.86279296875 27.359375 13.59716796875 26.9111328125 13.59716796875 24.9521484375 14.01220703125 23.541015625 14.84228515625 21.947265625 15.78857421875 21.947265625 16.83447265625 21.947265625 16.95068359375 21.9638671875 17.08349609375 21.9638671875 18.14599609375 22.77734375 18.59423828125 23.3916015625 18.92626953125 24.36279296875 18.92626953125 25.333984375 18.92626953125 26.0478515625 18.7021484375 26.76171875 18.47802734375 27.43408203125 18.2041015625 z" /><path d="M39.279296875 19.72314453125 Q39.1298828125 20.00537109375 38.50732421875 20.00537109375 37.884765625 20.00537109375 37.884765625 19.55712890625 37.884765625 17.59814453125 37.8017578125 16.86767578125 37.65234375 15.25732421875 37.1708984375 15.14111328125 35.9755859375 14.90869140625 35.22021484375 14.90869140625 34.46484375 14.90869140625 33.97509765625 15.365234375 33.4853515625 15.82177734375 33.22802734375 16.8759765625 32.970703125 17.93017578125 32.8544921875 19.83935546875 L31.576171875 19.83935546875 Q31.609375 18.89306640625 31.609375 18.07958984375 31.609375 17.26611328125 31.576171875 16.1455078125 31.54296875 15.02490234375 31.4931640625 13.69677734375 31.41015625 12.16943359375 31.41015625 11.115234375 31.41015625 10.06103515625 31.54296875 9.18115234375 31.708984375 8.86572265625 32.0244140625 8.86572265625 32.40625 8.86572265625 32.6220703125 9.1396484375 32.837890625 9.41357421875 32.8544921875 9.62939453125 L32.771484375 12.36865234375 Q32.771484375 13.91259765625 32.9208984375 14.67626953125 34.4150390625 13.68017578125 36.0087890625 13.68017578125 36.5234375 13.68017578125 37.1044921875 13.76318359375 38.349609375 14.41064453125 38.7314453125 15.14111328125 38.9140625 15.52294921875 38.9638671875 15.95458984375 39.013671875 16.38623046875 39.0302734375 16.93408203125 39.1298828125 18.82666015625 39.279296875 19.72314453125 z" /><path d="M41.3876953125 12.15283203125 Q41.603515625 15.25732421875 41.7529296875 19.34130859375 41.6533203125 19.85595703125 40.9560546875 19.85595703125 40.7734375 19.85595703125 40.58251953125 19.78125 40.3916015625 19.70654296875 40.341796875 19.57373046875 L40.341796875 12.15283203125 41.3876953125 12.15283203125 zM39.84375 9.89501953125 Q39.84375 9.31396484375 40.5244140625 9.31396484375 40.97265625 9.31396484375 41.2548828125 9.51318359375 41.3046875 9.69580078125 41.3046875 9.8701171875 41.3046875 10.04443359375 41.171875 10.21044921875 41.0390625 10.37646484375 40.7734375 10.37646484375 40.5078125 10.37646484375 40.2421875 10.251953125 39.9765625 10.12744140625 39.84375 9.89501953125 z" /><path d="M44.9736328125 18.36181640625 L45.0068359375 15.70556640625 Q45.0068359375 15.07470703125 44.890625 14.62646484375 L42.3173828125 14.62646484375 42.2841796875 13.48095703125 44.7744140625 13.48095703125 44.7744140625 9.19775390625 Q44.82421875 9.04833984375 44.9736328125 8.89892578125 45.2060546875 8.66650390625 45.36376953125 8.66650390625 45.521484375 8.66650390625 45.6376953125 8.69970703125 45.75390625 8.73291015625 45.88671875 8.93212890625 46.15234375 10.02783203125 46.15234375 12.23583984375 46.15234375 12.78369140625 46.2021484375 13.31494140625 46.7333984375 13.24853515625 47.2646484375 13.24853515625 47.2646484375 13.24853515625 48.1279296875 13.24853515625 48.443359375 13.24853515625 48.708984375 13.21533203125 L48.6591796875 14.41064453125 46.2353515625 14.34423828125 46.318359375 20.07177734375 Q46.01953125 20.20458984375 45.8037109375 20.20458984375 44.9736328125 20.20458984375 44.9736328125 18.36181640625 z" /><path d="M52.7265625 18.79345703125 Q54.1875 18.79345703125 57.1259765625 17.46533203125 57.30859375 17.46533203125 57.4248046875 17.58984375 57.541015625 17.71435546875 57.541015625 17.88037109375 56.876953125 19.00927734375 55.0009765625 19.64013671875 53.125 20.27099609375 51.498046875 19.85595703125 49.6552734375 19.37451171875 49.2568359375 17.78076171875 49.2236328125 17.46533203125 49.2236328125 16.93408203125 49.2236328125 16.40283203125 49.49755859375 15.53125 49.771484375 14.65966796875 50.435546875 13.87939453125 51.099609375 13.09912109375 51.99609375 12.65087890625 52.892578125 12.20263671875 53.9052734375 12.20263671875 54.8681640625 12.20263671875 56.0634765625 12.86669921875 56.6279296875 13.18212890625 56.9599609375 13.58056640625 57.2919921875 13.97900390625 57.2919921875 14.39404296875 57.2919921875 14.51025390625 57.275390625 14.62646484375 57.2421875 15.63916015625 56.2958984375 15.90478515625 55.880859375 16.02099609375 55.3330078125 16.02099609375 L52.9423828125 15.92138671875 Q51.7470703125 15.92138671875 51.1162109375 16.43603515625 50.7509765625 16.71826171875 50.6015625 17.28271484375 51.0166015625 18.79345703125 52.7265625 18.79345703125 zM55.31640625 13.39794921875 Q55.31640625 13.39794921875 54.91796875 13.28173828125 54.51953125 13.16552734375 54.25390625 13.16552734375 53.98828125 13.16552734375 53.390625 13.33984375 52.79296875 13.51416015625 52.328125 13.72998046875 51.1826171875 14.26123046875 51.1826171875 14.84228515625 52.5107421875 14.95849609375 53.1748046875 14.95849609375 55.017578125 14.95849609375 55.6650390625 14.64306640625 56.0634765625 14.47705078125 56.0634765625 14.22802734375 56.0634765625 13.92919921875 55.68994140625 13.66357421875 z" /><path d="M65.9248046875 17.93017578125 Q65.9248046875 17.93017578125 66.572265625 17.69775390625 67.2197265625 17.46533203125 67.80908203125 17.46533203125 68.3984375 17.46533203125 68.3984375 17.83056640625 68.3984375 17.91357421875 68.35693359375 18.087890625 68.3154296875 18.26220703125 67.90869140625 18.5029296875 67.501953125 18.74365234375 66.91259765625 18.95947265625 66.3232421875 19.17529296875 65.6259765625 19.35791015625 64.9287109375 19.54052734375 64.2646484375 19.67333984375 62.88671875 19.95556640625 62.3056640625 19.95556640625 61.724609375 19.95556640625 61.05224609375 19.82275390625 60.3798828125 19.68994140625 59.798828125 19.39111328125 58.4541015625 18.69384765625 58.4541015625 17.33251953125 58.4541015625 17.23291015625 58.4541015625 16.93408203125 58.4541015625 16.63525390625 58.703125 16.0791015625 58.9521484375 15.52294921875 59.4501953125 14.966796875 59.9482421875 14.41064453125 60.6123046875 13.94580078125 62.0068359375 12.94970703125 63.5341796875 12.65087890625 64.0654296875 12.53466796875 64.42236328125 12.53466796875 64.779296875 12.53466796875 65.01171875 12.54296875 65.244140625 12.55126953125 65.4931640625 12.576171875 65.7421875 12.60107421875 65.9248046875 12.70068359375 66.3564453125 12.91650390625 66.3564453125 13.54736328125 66.3564453125 13.94580078125 65.7919921875 14.32763671875 65.642578125 14.42724609375 65.5263671875 14.51025390625 65.443359375 14.12841796875 65.310546875 13.86279296875 65.177734375 13.59716796875 64.7294921875 13.59716796875 62.7705078125 14.01220703125 61.359375 14.84228515625 59.765625 15.78857421875 59.765625 16.83447265625 59.765625 16.95068359375 59.7822265625 17.08349609375 59.7822265625 18.14599609375 60.595703125 18.59423828125 61.2099609375 18.92626953125 62.18115234375 18.92626953125 63.15234375 18.92626953125 63.8662109375 18.7021484375 64.580078125 18.47802734375 65.25244140625 18.2041015625 z" /><path d="M71.8017578125 18.36181640625 L71.8349609375 15.70556640625 Q71.8349609375 15.07470703125 71.71875 14.62646484375 L69.1455078125 14.62646484375 69.1123046875 13.48095703125 71.6025390625 13.48095703125 71.6025390625 9.19775390625 Q71.65234375 9.04833984375 71.8017578125 8.89892578125 72.0341796875 8.66650390625 72.19189453125 8.66650390625 72.349609375 8.66650390625 72.4658203125 8.69970703125 72.58203125 8.73291015625 72.71484375 8.93212890625 72.98046875 10.02783203125 72.98046875 12.23583984375 72.98046875 12.78369140625 73.0302734375 13.31494140625 73.5615234375 13.24853515625 74.0927734375 13.24853515625 74.0927734375 13.24853515625 74.9560546875 13.24853515625 75.271484375 13.24853515625 75.537109375 13.21533203125 L75.4873046875 14.41064453125 73.0634765625 14.34423828125 73.146484375 20.07177734375 Q72.84765625 20.20458984375 72.6318359375 20.20458984375 71.8017578125 20.20458984375 71.8017578125 18.36181640625 z" /><path d="M81.845703125 15.67236328125 Q83.671875 15.67236328125 83.671875 16.60205078125 83.671875 17.29931640625 82.6591796875 18.22900390625 81.1484375 19.60693359375 78.591796875 20.43701171875 78.4755859375 20.43701171875 78.33447265625 20.20458984375 78.193359375 19.97216796875 78.11865234375 19.84765625 78.0439453125 19.72314453125 78.0107421875 19.68994140625 79.919921875 19.05908203125 81.1484375 18.16259765625 81.978515625 17.56494140625 81.978515625 17.18310546875 81.978515625 16.80126953125 80.9990234375 16.80126953125 80.01953125 16.80126953125 78.126953125 17.26611328125 77.263671875 17.23291015625 76.6328125 16.65185546875 76.0849609375 16.13720703125 76.0849609375 15.6142578125 76.0849609375 15.09130859375 76.3837890625 14.6513671875 76.6826171875 14.21142578125 77.1806640625 13.82958984375 77.6787109375 13.44775390625 78.3427734375 13.13232421875 79.9697265625 12.35205078125 81.712890625 12.35205078125 82.2275390625 12.35205078125 82.708984375 12.45166015625 83.107421875 12.45166015625 83.173828125 12.80029296875 83.240234375 13.14892578125 83.240234375 13.94580078125 82.2607421875 13.49755859375 81.0322265625 13.49755859375 79.5048828125 13.49755859375 78.5087890625 14.11181640625 77.4794921875 14.70947265625 77.4462890625 15.67236328125 77.4462890625 16.13720703125 78.126953125 16.13720703125 L79.3388671875 16.00439453125 Q80.8994140625 15.67236328125 81.845703125 15.67236328125 z" /><path d="M92.802734375 9.76220703125 Q94.03125 9.33056640625 96.056640625 9.33056640625 99.7587890625 9.33056640625 101.1201171875 11.15673828125 101.6513671875 11.85400390625 101.6513671875 12.93310546875 101.66796875 13.08251953125 101.66796875 13.23193359375 101.66796875 14.89208984375 99.7255859375 16.60205078125 97.94921875 18.21240234375 95.3427734375 19.19189453125 93.6162109375 19.85595703125 92.4873046875 19.85595703125 92.0224609375 19.85595703125 91.6904296875 19.72314453125 L91.6904296875 9.36376953125 91.9228515625 9.36376953125 Q92.3046875 9.36376953125 92.537109375 9.48828125 92.76953125 9.61279296875 92.802734375 9.76220703125 zM100.5390625 13.06591796875 Q100.3896484375 11.58837890625 98.8955078125 10.87451171875 97.783203125 10.34326171875 96.1064453125 10.34326171875 L95.8076171875 10.35986328125 Q94.23046875 10.39306640625 93.0849609375 10.85791015625 L93.0849609375 18.77685546875 Q94.2470703125 18.77685546875 95.990234375 17.93017578125 99.01171875 16.43603515625 100.140625 14.46044921875 100.5390625 13.76318359375 100.5390625 13.06591796875 z" /><path d="M109.0556640625 17.19970703125 Q107.810546875 19.15869140625 105.7353515625 19.62353515625 105.25390625 19.72314453125 104.86376953125 19.72314453125 104.4736328125 19.72314453125 104.21630859375 19.71484375 103.958984375 19.70654296875 103.6435546875 19.64013671875 103.328125 19.57373046875 103.0625 19.42431640625 102.4482421875 19.07568359375 102.4482421875 18.44482421875 102.3818359375 18.14599609375 102.3818359375 17.7724609375 102.3818359375 17.39892578125 102.5478515625 16.78466796875 102.7138671875 16.17041015625 103.15380859375 15.45654296875 103.59375 14.74267578125 104.224609375 14.14501953125 105.5361328125 12.88330078125 107.0634765625 12.51806640625 107.51171875 12.41845703125 107.88525390625 12.41845703125 108.2587890625 12.41845703125 108.5576171875 12.46826171875 109.5205078125 12.46826171875 109.8525390625 13.77978515625 110.068359375 14.60986328125 110.10986328125 16.095703125 110.1513671875 17.58154296875 110.19287109375 18.38671875 110.234375 19.19189453125 110.400390625 19.85595703125 L109.4208984375 19.85595703125 Q109.3544921875 19.40771484375 109.3212890625 19.05908203125 109.2880859375 18.71044921875 109.2548828125 18.41162109375 109.171875 17.71435546875 109.0556640625 17.19970703125 zM108.9892578125 14.62646484375 Q108.9892578125 13.66357421875 108.04296875 13.66357421875 107.9267578125 13.64697265625 107.810546875 13.64697265625 106.5986328125 13.64697265625 105.25390625 14.80908203125 104.623046875 15.34033203125 104.1748046875 16.00439453125 103.5107421875 16.95068359375 103.5107421875 17.69775390625 103.5107421875 18.67724609375 104.6396484375 18.85986328125 106.1337890625 18.82666015625 107.4951171875 17.49853515625 108.076171875 16.91748046875 108.4580078125 16.23681640625 108.9892578125 15.32373046875 108.9892578125 14.62646484375 z" /><path d="M111.09765625 17.74755859375 Q111.09765625 17.48193359375 111.05615234375 17.0087890625 111.0146484375 16.53564453125 110.9814453125 15.97119140625 110.9482421875 15.40673828125 110.9482421875 14.82568359375 110.9482421875 14.24462890625 111.0478515625 13.76318359375 111.263671875 12.68408203125 111.9443359375 12.68408203125 112.4091796875 12.81689453125 112.56689453125 13.01611328125 112.724609375 13.21533203125 112.724609375 13.505859375 112.724609375 13.79638671875 112.5751953125 14.22802734375 112.02734375 15.67236328125 112.02734375 16.83447265625 112.02734375 17.21630859375 112.0771484375 17.64794921875 112.3427734375 18.76025390625 113.9033203125 18.76025390625 114.716796875 18.76025390625 115.447265625 18.47802734375 116.841796875 17.96337890625 117.33984375 17.26611328125 117.4892578125 16.50244140625 117.4892578125 15.9296875 117.4892578125 15.35693359375 117.44775390625 14.90869140625 117.40625 14.46044921875 117.34814453125 13.9208984375 117.2900390625 13.38134765625 117.2734375 12.73388671875 117.4892578125 12.63427734375 117.69677734375 12.63427734375 117.904296875 12.63427734375 118.12841796875 12.85009765625 118.3525390625 13.06591796875 118.51025390625 13.66357421875 118.66796875 14.26123046875 118.7177734375 15.06640625 118.767578125 15.87158203125 118.77587890625 16.73486328125 118.7841796875 17.59814453125 118.7841796875 18.4033203125 118.7841796875 19.20849609375 118.8505859375 19.78955078125 118.6513671875 19.97216796875 118.46875 19.97216796875 117.8046875 19.97216796875 117.4892578125 18.64404296875 117.2734375 18.82666015625 116.7587890625 19.09228515625 115.6630859375 19.68994140625 114.1689453125 19.88916015625 113.88671875 19.92236328125 113.5380859375 19.92236328125 113.189453125 19.92236328125 112.66650390625 19.78955078125 112.1435546875 19.65673828125 111.6787109375 19.17529296875 111.2138671875 18.69384765625 111.09765625 17.74755859375 z" /><path d="M124.611328125 27.06103515625 L124.37890625 27.04443359375 Q123.880859375 27.04443359375 123.31640625 27.11083984375 L122.685546875 27.11083984375 Q121.689453125 27.11083984375 121.125 26.72900390625 120.826171875 26.52978515625 120.826171875 26.13134765625 L124.64453125 25.94873046875 Q126.404296875 25.89892578125 126.404296875 24.05615234375 126.404296875 23.98974609375 126.404296875 23.83203125 126.404296875 23.67431640625 126.404296875 23.14306640625 L126.4873046875 17.79736328125 Q126.4873046875 17.51513671875 126.470703125 17.33251953125 123.78125 19.83935546875 121.291015625 19.83935546875 121.0751953125 19.83935546875 120.859375 19.82275390625 119.7470703125 19.82275390625 119.7470703125 18.84326171875 119.7802734375 18.07958984375 120.1953125 17.158203125 120.6103515625 16.23681640625 121.26611328125 15.3818359375 121.921875 14.52685546875 122.751953125 13.84619140625 124.0302734375 12.80029296875 125.2255859375 12.80029296875 126.6201171875 12.80029296875 127.5166015625 14.27783203125 127.7822265625 18.22900390625 127.7822265625 19.88916015625 127.7822265625 21.54931640625 127.732421875 22.61181640625 127.6826171875 23.67431640625 127.50830078125 24.55419921875 127.333984375 25.43408203125 127.0517578125 25.94873046875 126.76953125 26.46337890625 126.3876953125 26.69580078125 125.7568359375 27.06103515625 124.611328125 27.06103515625 zM125.607421875 14.01220703125 Q125.408203125 13.94580078125 125.05126953125 13.94580078125 124.6943359375 13.94580078125 124.1298828125 14.24462890625 123.5654296875 14.54345703125 123.05078125 15.0166015625 122.5361328125 15.48974609375 122.087890625 16.07080078125 120.9921875 17.49853515625 120.9921875 18.34521484375 120.9921875 18.61083984375 121.1416015625 18.74365234375 121.2578125 18.81005859375 121.43212890625 18.81005859375 121.6064453125 18.81005859375 121.9384765625 18.751953125 122.2705078125 18.69384765625 122.84326171875 18.453125 123.416015625 18.21240234375 124.0302734375 17.83056640625 124.64453125 17.44873046875 125.142578125 16.98388671875 126.3046875 15.92138671875 126.3046875 14.90869140625 126.3046875 14.29443359375 125.607421875 14.01220703125 z" /><path d="M136.3818359375 19.72314453125 Q136.232421875 20.00537109375 135.60986328125 20.00537109375 134.9873046875 20.00537109375 134.9873046875 19.55712890625 134.9873046875 17.59814453125 134.904296875 16.86767578125 134.7548828125 15.25732421875 134.2734375 15.14111328125 133.078125 14.90869140625 132.32275390625 14.90869140625 131.5673828125 14.90869140625 131.07763671875 15.365234375 130.587890625 15.82177734375 130.33056640625 16.8759765625 130.0732421875 17.93017578125 129.95703125 19.83935546875 L128.6787109375 19.83935546875 Q128.7119140625 18.89306640625 128.7119140625 18.07958984375 128.7119140625 17.26611328125 128.6787109375 16.1455078125 128.6455078125 15.02490234375 128.595703125 13.69677734375 128.5126953125 12.16943359375 128.5126953125 11.115234375 128.5126953125 10.06103515625 128.6455078125 9.18115234375 128.8115234375 8.86572265625 129.126953125 8.86572265625 129.5087890625 8.86572265625 129.724609375 9.1396484375 129.9404296875 9.41357421875 129.95703125 9.62939453125 L129.8740234375 12.36865234375 Q129.8740234375 13.91259765625 130.0234375 14.67626953125 131.517578125 13.68017578125 133.111328125 13.68017578125 133.6259765625 13.68017578125 134.20703125 13.76318359375 135.4521484375 14.41064453125 135.833984375 15.14111328125 136.0166015625 15.52294921875 136.06640625 15.95458984375 136.1162109375 16.38623046875 136.1328125 16.93408203125 136.232421875 18.82666015625 136.3818359375 19.72314453125 z" /><path d="M139.5029296875 18.36181640625 L139.5361328125 15.70556640625 Q139.5361328125 15.07470703125 139.419921875 14.62646484375 L136.8466796875 14.62646484375 136.8134765625 13.48095703125 139.3037109375 13.48095703125 139.3037109375 9.19775390625 Q139.353515625 9.04833984375 139.5029296875 8.89892578125 139.7353515625 8.66650390625 139.89306640625 8.66650390625 140.05078125 8.66650390625 140.1669921875 8.69970703125 140.283203125 8.73291015625 140.416015625 8.93212890625 140.681640625 10.02783203125 140.681640625 12.23583984375 140.681640625 12.78369140625 140.7314453125 13.31494140625 141.2626953125 13.24853515625 141.7939453125 13.24853515625 141.7939453125 13.24853515625 142.6572265625 13.24853515625 142.97265625 13.24853515625 143.23828125 13.21533203125 L143.1884765625 14.41064453125 140.7646484375 14.34423828125 140.84765625 20.07177734375 Q140.548828125 20.20458984375 140.3330078125 20.20458984375 139.5029296875 20.20458984375 139.5029296875 18.36181640625 z" /><path d="M147.255859375 18.79345703125 Q148.716796875 18.79345703125 151.6552734375 17.46533203125 151.837890625 17.46533203125 151.9541015625 17.58984375 152.0703125 17.71435546875 152.0703125 17.88037109375 151.40625 19.00927734375 149.5302734375 19.64013671875 147.654296875 20.27099609375 146.02734375 19.85595703125 144.1845703125 19.37451171875 143.7861328125 17.78076171875 143.7529296875 17.46533203125 143.7529296875 16.93408203125 143.7529296875 16.40283203125 144.02685546875 15.53125 144.30078125 14.65966796875 144.96484375 13.87939453125 145.62890625 13.09912109375 146.525390625 12.65087890625 147.421875 12.20263671875 148.4345703125 12.20263671875 149.3974609375 12.20263671875 150.5927734375 12.86669921875 151.1572265625 13.18212890625 151.4892578125 13.58056640625 151.8212890625 13.97900390625 151.8212890625 14.39404296875 151.8212890625 14.51025390625 151.8046875 14.62646484375 151.771484375 15.63916015625 150.8251953125 15.90478515625 150.41015625 16.02099609375 149.8623046875 16.02099609375 L147.4716796875 15.92138671875 Q146.2763671875 15.92138671875 145.6455078125 16.43603515625 145.2802734375 16.71826171875 145.130859375 17.28271484375 145.5458984375 18.79345703125 147.255859375 18.79345703125 zM149.845703125 13.39794921875 Q149.845703125 13.39794921875 149.447265625 13.28173828125 149.048828125 13.16552734375 148.783203125 13.16552734375 148.517578125 13.16552734375 147.919921875 13.33984375 147.322265625 13.51416015625 146.857421875 13.72998046875 145.7119140625 14.26123046875 145.7119140625 14.84228515625 147.0400390625 14.95849609375 147.7041015625 14.95849609375 149.546875 14.95849609375 150.1943359375 14.64306640625 150.5927734375 14.47705078125 150.5927734375 14.22802734375 150.5927734375 13.92919921875 150.21923828125 13.66357421875 z" /><path d="M161.2177734375 13.89599609375 Q160.5205078125 13.39794921875 159.4248046875 13.39794921875 158.3955078125 13.39794921875 157.515625 13.77978515625 155.85546875 14.47705078125 155.2412109375 15.57275390625 154.9755859375 16.07080078125 154.9755859375 16.63525390625 154.9755859375 16.73486328125 154.9755859375 17.19140625 154.9755859375 17.64794921875 155.1416015625 18.419921875 155.3076171875 19.19189453125 155.3076171875 19.98876953125 154.958984375 20.00537109375 154.7431640625 20.07177734375 154.52734375 20.13818359375 154.3779296875 20.13818359375 154.228515625 20.13818359375 154.12060546875 20.00537109375 154.0126953125 19.87255859375 153.8798828125 19.49072265625 153.86328125 19.39111328125 153.8134765625 18.92626953125 153.763671875 18.46142578125 153.68896484375 17.79736328125 153.6142578125 17.13330078125 153.52294921875 16.3447265625 153.431640625 15.55615234375 153.3486328125 14.79248046875 153.166015625 13.13232421875 153.06640625 12.35205078125 153.06640625 11.95361328125 153.6474609375 11.95361328125 153.99609375 11.95361328125 154.1953125 12.244140625 154.39453125 12.53466796875 154.5107421875 12.908203125 154.626953125 13.28173828125 154.66845703125 13.64697265625 154.7099609375 14.01220703125 154.7431640625 14.16162109375 156.9345703125 12.20263671875 160.1884765625 12.20263671875 160.5537109375 12.20263671875 160.9521484375 12.21923828125 161.0517578125 12.20263671875 161.201171875 12.20263671875 161.3505859375 12.20263671875 161.5 12.40185546875 161.6826171875 12.63427734375 161.6826171875 12.96630859375 161.6826171875 13.79638671875 161.2177734375 13.89599609375 z" /></g></svg>