<svg width="170" height="30" xmlns="http://www.w3.org/2000/svg" viewBox="0 0 170 30"><g fill="currentColor"><path d="M14.573 14.715 Q14.573 16.691 13.6705 18.325 12.767999999999999 19.959 10.9725 21.023 9.177 22.087 6.7165 22.087 4.256 22.087 2.6029999999999998 20.662 0.95 19.237 0.95 17.128 0.95 15.588999999999999 1.9284999999999999 14.496500000000001 2.907 13.404 4.332 13.138 4.332 11.523 4.256 9.3 3.344 9.3 3.344 8.654 3.344 8.008 4.617 7.6850000000000005 5.89 7.362 7.4479999999999995 7.362 9.006 7.362 10.431 7.989000000000001 11.856 8.616 12.73 9.68 14.573 11.865 14.573 14.715 zM4.2749999999999995 17.717 L4.351 15.379999999999999 4.351 14.468 Q3.477 14.715 2.9545 15.4465 2.432 16.178 2.432 17.128 2.432 18.61 3.629 19.692999999999998 4.864 20.756999999999998 6.7829999999999995 20.756999999999998 9.424 20.756999999999998 11.2195 19.0185 13.014999999999999 17.28 13.014999999999999 14.905 13.014999999999999 12.53 11.609 10.668 10.906 9.756 9.766 9.224 8.626 8.692 7.239 8.692 6.574 8.692 5.814 8.863 L5.718999999999999 13.043 Q6.992 13.119 8.018 13.8315 9.044 14.544 9.044 15.323 9.044 15.779 8.664 15.911999999999999 8.568999999999999 15.969 8.379 15.969 8.189 15.969 8.018 15.8265 7.8469999999999995 15.684000000000001 7.524 15.323 7.201 14.962 7.03 14.809999999999999 6.3839999999999995 14.315999999999999 5.7 14.315999999999999 L5.718999999999999 15.684000000000001 5.776 16.823999999999998 Q5.814 17.317999999999998 5.814 17.5175 5.814 17.717 5.8045 17.926 5.795 18.134999999999998 5.586 18.3915 5.377 18.648 5.1585 18.648 4.9399999999999995 18.648 4.769 18.572 4.2749999999999995 18.325 4.2749999999999995 17.717 z" /><path d="M21.66 13.252 Q20.406 13.252 19.5605 14.192499999999999 18.715 15.133 18.449 16.387 19.475 16.691 20.7575 16.691 22.04 16.691 22.819 16.253999999999998 23.598 15.817 23.598 15.056999999999999 23.598 14.297 23.075499999999998 13.7745 22.553 13.252 21.66 13.252 zM20.843 17.887999999999998 Q19.855 17.887999999999998 18.43 17.603 18.544 18.951999999999998 19.427500000000002 19.902 20.311 20.852 21.489 20.852 22.667 20.852 23.427 20.2725 24.186999999999998 19.692999999999998 24.424500000000002 19.692999999999998 24.662 19.692999999999998 24.8045 19.8355 24.947000000000003 19.978 24.947000000000003 20.187 24.947000000000003 20.719 23.8545 21.403 22.762 22.087 21.489 22.087 19.513 22.087 18.3445 20.6905 17.176000000000002 19.294 17.1 17.356 16.093 17.033 16.093 16.368 16.093 15.931000000000001 16.416 15.798 16.53 15.76 16.7105 15.76 16.891000000000002 15.76 17.214 15.931000000000001 17.651 14.202 18.8005 13.1095 19.95 12.017 21.4985 12.017 23.047 12.017 23.997 12.872 24.947000000000003 13.727 24.947000000000003 15.1045 24.947000000000003 16.482 23.769 17.185 22.591 17.887999999999998 20.843 17.887999999999998 z" /><path d="M28.728 8.312 L28.633 14.677 28.728 21.041999999999998 Q28.728 21.992 28.006 21.992 27.284 21.992 27.284 21.041999999999998 L27.379 14.677 27.284 8.312 Q27.284 7.362 28.006 7.362 28.728 7.362 28.728 8.312 z" /><path d="M32.357 8.027 Q33.136 8.027 33.136 8.939 33.136 9.357 32.8605 9.7275 32.585 10.098 32.205 10.098 31.407 10.098 31.407 9.129 31.407 8.673 31.6825 8.35 31.958 8.027 32.357 8.027 zM32.984 13.062 L32.889 17.052 32.984 21.041999999999998 Q32.984 21.992 32.262 21.992 31.54 21.992 31.54 21.041999999999998 L31.635 17.052 31.54 13.062 Q31.54 12.112 32.262 12.112 32.984 12.112 32.984 13.062 z" /><path d="M37.259 13.67 L37.107 17.85 Q37.107 19.161 37.667500000000004 19.959 38.228 20.756999999999998 39.197 20.756999999999998 40.166 20.756999999999998 41.078 19.674 41.971000000000004 18.572 42.351 17.204 L42.294 13.081 Q42.294 12.112 43.016 12.112 43.89 12.112 43.89 13.413499999999999 43.89 14.715 43.51 17.204 43.51 18.591 43.7095 19.5125 43.909 20.434 44.213 20.548 44.327 20.605 44.4885 20.624 44.65 20.643 44.716499999999996 20.681 44.783 20.719 44.783 20.833 44.783 21.346 44.4695 21.669 44.156 21.992 43.681 21.992 42.484 21.992 42.484 19.56 41.078 21.992 38.95 21.992 37.43 21.992 36.594 20.871 35.758 19.712 35.758 18.097 L35.872 15.228 Q35.872 14.639 35.72 13.8125 35.568 12.986 35.568 12.777 35.568 12.568 35.8055 12.34 36.043 12.112 36.385 12.112 37.259 12.112 37.259 13.67 z" /><path d="M53.39 19.066 Q53.39 20.339 52.3355 21.165499999999998 51.281000000000006 21.992 49.818000000000005 21.992 48.355000000000004 21.992 47.25300000000001 21.326999999999998 46.17 20.643 46.17 19.978 46.17 19.541 46.531000000000006 19.389 46.892 19.237 47.082 19.427 47.120000000000005 19.445999999999998 47.842000000000006 20.168 48.051 20.358 48.621 20.5575 49.191 20.756999999999998 49.628 20.756999999999998 50.69200000000001 20.756999999999998 51.357000000000006 20.32 52.022000000000006 19.883 52.022000000000006 19.085 52.022000000000006 18.078 50.12200000000001 17.432 48.013000000000005 16.71 47.42400000000001 16.197 47.139 15.95 46.901500000000006 15.5415 46.664 15.133 46.664 14.677 46.664 13.651 47.6045 12.881499999999999 48.545 12.112 49.856 12.112 51.167 12.112 51.984 12.5585 52.801 13.004999999999999 52.801 13.556 52.801 14.183 52.136 14.183 51.870000000000005 14.183 51.566 13.974 50.654 13.347 49.8085 13.347 48.963 13.347 48.526 13.727 48.013000000000005 14.088000000000001 48.013000000000005 14.5725 48.013000000000005 15.056999999999999 48.507000000000005 15.361 49.001000000000005 15.665 50.12200000000001 16.1115 51.243 16.558 51.49 16.672 52.32600000000001 17.033 52.858000000000004 17.66 53.39 18.287 53.39 19.066 z" /><path d="M63.061 19.123 Q63.061 19.123 62.870999999999995 19.028 62.681 18.933 62.681 18.781 62.681 18.628999999999998 62.775999999999996 18.4295 62.870999999999995 18.23 62.946999999999996 18.04 63.137 17.584 62.795 17.337 62.396 17.070999999999998 61.997 17.070999999999998 61.598 17.070999999999998 61.2465 17.4035 60.894999999999996 17.736 60.894999999999996 18.325 60.894999999999996 19.18 61.731 19.9685 62.567 20.756999999999998 64.011 20.756999999999998 65.455 20.756999999999998 66.4145 19.902 67.374 19.047 67.374 17.812 67.374 16.14 64.866 14.867 64.733 14.791 64.277 14.5725 63.821 14.354 63.65 14.259 63.479 14.164 63.0895 13.955 62.699999999999996 13.746 62.4815 13.594 62.263 13.442 61.958999999999996 13.233 61.503 12.929 60.989999999999995 12.359 60.268 11.485 60.268 10.2975 60.268 9.11 61.427 8.1885 62.586 7.2669999999999995 64.1535 7.2669999999999995 65.721 7.2669999999999995 66.823 7.856 67.925 8.445 67.925 9.186 67.925 9.642 67.545 9.794 67.412 9.832 67.203 9.832 66.994 9.832 66.7945 9.699 66.595 9.566 66.3385 9.338 66.082 9.11 65.873 8.977 65.303 8.597 64.315 8.597 63.327 8.597 62.5575 9.11 61.788 9.623 61.788 10.3735 61.788 11.124 62.51 11.77 63.156 12.34 64.54299999999999 13.0905 65.92999999999999 13.841000000000001 66.386 14.126 67.507 14.791 68.2005 15.750499999999999 68.894 16.71 68.894 17.812 68.894 19.56 67.5355 20.8235 66.17699999999999 22.087 64.068 22.087 61.958999999999996 22.087 60.742999999999995 20.985 59.527 19.883 59.527 18.553 59.527 17.223 60.23 16.4915 60.933 15.76 61.997 15.76 63.061 15.76 63.631 16.292 64.201 16.823999999999998 64.201 17.508 64.201 18.192 63.839999999999996 18.628999999999998 63.631 18.914 63.346 19.0185 z" /><path d="M74.04299999999999 20.282 Q74.23299999999999 20.282 75.27799999999999 16.700499999999998 76.323 13.119 76.45599999999999 12.796 76.722 12.112 77.30149999999999 12.112 77.881 12.112 78.109 12.777 L79.211 16.71 Q80.27499999999999 20.282 80.42699999999999 20.282 80.636 20.282 81.681 16.729 81.928 15.911999999999999 82.30799999999999 14.506 L82.764 12.853 Q82.99199999999999 12.112 83.467 12.112 83.752 12.112 83.9515 12.283 84.151 12.454 84.151 12.738999999999999 84.151 13.024 83.809 14.088000000000001 83.467 15.152000000000001 83.3245 15.551 83.18199999999999 15.95 82.45049999999999 18.23 81.719 20.509999999999998 81.4245 21.251 81.13 21.992 80.36999999999999 21.992 79.60999999999999 21.992 79.268 21.004 78.58399999999999 19.028 77.957 16.8335 77.33 14.639 77.1875 14.639 77.04499999999999 14.639 76.817 15.399000000000001 L76.323 17.147 Q75.335 20.624 74.955 21.326999999999998 74.63199999999999 21.992 73.91 21.992 73.18799999999999 21.992 72.827 20.947 72.78899999999999 20.833 72.713 20.624 72.63699999999999 20.415 72.5135 20.035 72.38999999999999 19.655 72.2665 19.275 72.14299999999999 18.895 71.61099999999999 17.299 L71.098 15.798 Q70.92699999999999 15.285 70.71799999999999 14.696 70.16699999999999 13.195 70.16699999999999 12.8435 70.16699999999999 12.491999999999999 70.36649999999999 12.302 70.56599999999999 12.112 70.851 12.112 71.40199999999999 12.112 71.61099999999999 12.777 71.63 12.796 72.10499999999999 14.449 L72.713 16.463 Q72.78899999999999 16.672 72.922 17.070999999999998 73.37799999999999 18.572 73.663 19.427 73.948 20.282 74.04299999999999 20.282 z" /><path d="M93.499 17.204 Q93.499 18.591 93.6985 19.5125 93.898 20.434 94.202 20.548 94.31599999999999 20.605 94.47749999999999 20.624 94.639 20.643 94.70549999999999 20.681 94.77199999999999 20.719 94.77199999999999 20.833 94.77199999999999 21.365 94.487 21.6785 94.202 21.992 93.66049999999998 21.992 93.11899999999999 21.992 92.815 21.2985 92.511 20.605 92.511 19.483999999999998 91.99799999999999 20.586 91.08599999999998 21.288999999999998 90.17399999999999 21.992 89.02449999999999 21.992 87.87499999999999 21.992 87.05799999999999 21.232 85.538 19.826 85.538 17.261 85.538 15.19 86.73499999999999 13.651 87.93199999999999 12.112 89.81299999999999 12.112 91.23799999999999 12.112 92.28299999999999 13.081 92.28299999999999 12.112 93.005 12.112 93.87899999999999 12.112 93.87899999999999 13.413499999999999 93.87899999999999 14.715 93.499 17.204 zM92.39699999999999 17.375 L92.30199999999999 14.449 Q91.18099999999998 13.347 89.92699999999999 13.347 88.67299999999999 13.347 87.77999999999999 14.468 86.88699999999999 15.588999999999999 86.88699999999999 17.1755 86.88699999999999 18.762 87.47599999999998 19.7595 88.065 20.756999999999998 89.10999999999999 20.756999999999998 90.15499999999999 20.756999999999998 91.03849999999998 19.826 91.922 18.895 92.39699999999999 17.375 z" /><path d="M103.37899999999999 19.066 Q103.37899999999999 20.339 102.3245 21.165499999999998 101.27 21.992 99.80699999999999 21.992 98.344 21.992 97.24199999999999 21.326999999999998 96.15899999999999 20.643 96.15899999999999 19.978 96.15899999999999 19.541 96.52 19.389 96.881 19.237 97.071 19.427 97.109 19.445999999999998 97.83099999999999 20.168 98.03999999999999 20.358 98.61 20.5575 99.17999999999999 20.756999999999998 99.61699999999999 20.756999999999998 100.681 20.756999999999998 101.34599999999999 20.32 102.011 19.883 102.011 19.085 102.011 18.078 100.11099999999999 17.432 98.002 16.71 97.413 16.197 97.128 15.95 96.89049999999999 15.5415 96.65299999999999 15.133 96.65299999999999 14.677 96.65299999999999 13.651 97.59349999999999 12.881499999999999 98.53399999999999 12.112 99.845 12.112 101.15599999999999 12.112 101.973 12.5585 102.78999999999999 13.004999999999999 102.78999999999999 13.556 102.78999999999999 14.183 102.125 14.183 101.859 14.183 101.55499999999999 13.974 100.643 13.347 99.7975 13.347 98.952 13.347 98.515 13.727 98.002 14.088000000000001 98.002 14.5725 98.002 15.056999999999999 98.496 15.361 98.99 15.665 100.11099999999999 16.1115 101.232 16.558 101.479 16.672 102.315 17.033 102.847 17.66 103.37899999999999 18.287 103.37899999999999 19.066 z" /><path d="M113.50599999999999 15.817 L113.41099999999999 18.8 113.41099999999999 19.617 Q113.44899999999998 20.396 113.791 20.548 113.92399999999999 20.586 114.09499999999998 20.6145 114.26599999999999 20.643 114.3325 20.681 114.39899999999999 20.719 114.39899999999999 20.833 114.39899999999999 21.326999999999998 114.0855 21.6595 113.77199999999999 21.992 113.35399999999998 21.992 112.651 21.992 112.36599999999999 21.441 112.08099999999999 20.89 112.08099999999999 19.75 L112.15699999999998 16.253999999999998 Q112.15699999999998 14.943 111.59649999999999 14.154499999999999 111.03599999999999 13.366 110.067 13.366 109.09799999999998 13.366 108.1955 14.439499999999999 107.29299999999999 15.513 106.913 16.9 L106.96999999999998 21.023 Q106.96999999999998 21.992 106.24799999999999 21.992 105.374 21.992 105.374 20.6905 105.374 19.389 105.75399999999999 16.9 105.75399999999999 15.608 105.58299999999998 12.0265 105.41199999999999 8.445 105.41199999999999 8.16 105.41199999999999 7.875 105.61149999999999 7.609 105.81099999999999 7.343 106.02949999999998 7.343 106.24799999999999 7.343 106.43799999999999 7.438000000000001 106.89399999999999 7.647 106.89399999999999 8.179 106.89399999999999 8.255 106.89399999999999 8.312 L106.89399999999999 14.524999999999999 Q108.28099999999999 12.112 110.314 12.112 111.853 12.112 112.67949999999999 13.2045 113.50599999999999 14.297 113.50599999999999 15.817 z" /><path d="M126.88199999999999 7.2669999999999995 Q128.99099999999999 7.2669999999999995 130.33999999999997 8.445 131.689 9.623 131.689 11.2 131.689 12.435 130.91 13.2425 130.131 14.05 129.06699999999998 14.05 128.003 14.05 127.28099999999999 13.366 126.55899999999998 12.644 126.55899999999998 11.817499999999999 126.55899999999998 10.991 126.91999999999999 10.44 127.28099999999999 9.889 127.79399999999998 9.889 128.07899999999998 9.889 128.26899999999998 10.0505 128.459 10.212 128.459 10.4495 128.459 10.687 128.19299999999998 11.0575 127.92699999999999 11.427999999999999 127.92699999999999 11.8365 127.92699999999999 12.245 128.25 12.5205 128.57299999999998 12.796 129.0955 12.796 129.618 12.796 129.96949999999998 12.3875 130.321 11.979 130.321 11.295 130.321 10.288 129.409 9.452 128.535 8.597 126.88199999999999 8.597 124.84899999999999 8.597 123.53799999999998 10.3925 122.22699999999999 12.188 122.22699999999999 14.620000000000001 122.22699999999999 17.052 123.59499999999998 18.9045 124.963 20.756999999999998 127.05299999999998 20.756999999999998 127.984 20.756999999999998 128.79149999999998 20.509999999999998 129.599 20.262999999999998 130.017 19.921 131.024 19.085 131.24249999999998 19.085 131.46099999999998 19.085 131.613 19.2275 131.765 19.37 131.765 19.579 131.765 20.32 130.34949999999998 21.2035 128.934 22.087 127.03399999999999 22.087 124.29799999999999 22.087 122.493 19.94 120.68799999999999 17.755 120.68799999999999 14.648499999999999 120.68799999999999 11.542 122.45499999999998 9.4045 124.222 7.2669999999999995 126.88199999999999 7.2669999999999995 z" /><path d="M141.70199999999997 17.204 Q141.70199999999997 18.591 141.90149999999997 19.5125 142.10099999999997 20.434 142.40499999999997 20.548 142.51899999999998 20.605 142.68049999999997 20.624 142.84199999999998 20.643 142.90849999999998 20.681 142.97499999999997 20.719 142.97499999999997 20.833 142.97499999999997 21.365 142.68999999999997 21.6785 142.40499999999997 21.992 141.8635 21.992 141.32199999999997 21.992 141.01799999999997 21.2985 140.71399999999997 20.605 140.71399999999997 19.483999999999998 140.20099999999996 20.586 139.289 21.288999999999998 138.37699999999998 21.992 137.2275 21.992 136.07799999999997 21.992 135.26099999999997 21.232 133.74099999999999 19.826 133.74099999999999 17.261 133.74099999999999 15.19 134.938 13.651 136.135 12.112 138.016 12.112 139.44099999999997 12.112 140.486 13.081 140.486 12.112 141.20799999999997 12.112 142.082 12.112 142.082 13.413499999999999 142.082 14.715 141.70199999999997 17.204 zM140.59999999999997 17.375 L140.50499999999997 14.449 Q139.384 13.347 138.12999999999997 13.347 136.87599999999998 13.347 135.98299999999998 14.468 135.08999999999997 15.588999999999999 135.08999999999997 17.1755 135.08999999999997 18.762 135.67899999999997 19.7595 136.26799999999997 20.756999999999998 137.313 20.756999999999998 138.35799999999998 20.756999999999998 139.24149999999997 19.826 140.12499999999997 18.895 140.59999999999997 17.375 z" /><path d="M149.73899999999998 13.347 Q147.74399999999997 13.347 146.45199999999997 16.634 L146.45199999999997 19.655 Q147.57299999999998 20.756999999999998 149.14999999999998 20.756999999999998 150.36599999999996 20.756999999999998 151.28749999999997 19.6455 152.20899999999997 18.534 152.20899999999997 17.014 152.20899999999997 15.494 151.55349999999996 14.4205 150.89799999999997 13.347 149.73899999999998 13.347 zM146.45199999999997 21.061 Q146.41399999999996 22.505 146.41399999999996 23.4645 146.41399999999996 24.424 146.39499999999998 24.88 146.35699999999997 25.659 146.22399999999996 25.868 146.05299999999997 26.172 145.64449999999997 26.172 145.23599999999996 26.172 144.98899999999998 25.849 144.74199999999996 25.526 144.74199999999996 24.785 144.74199999999996 24.044 144.79899999999998 23.378999999999998 L145.02699999999996 21.118 Q145.23599999999996 18.933 145.27399999999997 18.553 L145.27399999999997 18.192 145.29299999999998 17.47 145.29299999999998 17.166 Q145.29299999999998 16.368 145.12199999999996 14.829 144.95099999999996 13.29 144.95099999999996 12.948 144.95099999999996 12.606 145.15999999999997 12.359 145.36899999999997 12.112 145.69199999999998 12.112 146.01499999999996 12.112 146.22399999999996 12.359 146.43299999999996 12.606 146.43299999999996 12.891 146.43299999999996 13.176 146.42349999999996 13.765 146.41399999999996 14.354 146.41399999999996 14.562999999999999 147.07899999999998 13.328 147.86749999999998 12.72 148.65599999999998 12.112 149.87199999999996 12.112 151.08799999999997 12.112 151.96199999999996 12.91 153.61499999999998 14.373000000000001 153.61499999999998 16.843 153.61499999999998 18.914 152.36099999999996 20.453 151.10699999999997 21.992 149.14999999999998 21.992 147.72499999999997 21.992 146.45199999999997 21.061 z" /><path d="M162.41199999999998 19.066 Q162.41199999999998 20.339 161.3575 21.165499999999998 160.30299999999997 21.992 158.83999999999997 21.992 157.37699999999998 21.992 156.27499999999998 21.326999999999998 155.19199999999998 20.643 155.19199999999998 19.978 155.19199999999998 19.541 155.55299999999997 19.389 155.914 19.237 156.10399999999998 19.427 156.14199999999997 19.445999999999998 156.86399999999998 20.168 157.07299999999998 20.358 157.64299999999997 20.5575 158.213 20.756999999999998 158.64999999999998 20.756999999999998 159.71399999999997 20.756999999999998 160.379 20.32 161.04399999999998 19.883 161.04399999999998 19.085 161.04399999999998 18.078 159.14399999999998 17.432 157.03499999999997 16.71 156.44599999999997 16.197 156.16099999999997 15.95 155.9235 15.5415 155.68599999999998 15.133 155.68599999999998 14.677 155.68599999999998 13.651 156.6265 12.881499999999999 157.56699999999998 12.112 158.878 12.112 160.189 12.112 161.00599999999997 12.5585 161.82299999999998 13.004999999999999 161.82299999999998 13.556 161.82299999999998 14.183 161.158 14.183 160.89199999999997 14.183 160.588 13.974 159.676 13.347 158.83049999999997 13.347 157.98499999999999 13.347 157.54799999999997 13.727 157.03499999999997 14.088000000000001 157.03499999999997 14.5725 157.03499999999997 15.056999999999999 157.52899999999997 15.361 158.02299999999997 15.665 159.14399999999998 16.1115 160.265 16.558 160.51199999999997 16.672 161.34799999999998 17.033 161.88 17.66 162.41199999999998 18.287 162.41199999999998 19.066 z" /></g></svg>