<svg width="170" height="30" xmlns="http://www.w3.org/2000/svg" viewBox="0 0 170 30"><g fill="currentColor"><path d="M6.111328125 11.7802734375 Q6.111328125 11.7802734375 6.24462890625 11.580322265625 6.3779296875 11.38037109375 6.3779296875 11.108642578125 6.3779296875 10.8369140625 6.280517578125 10.616455078125 6.18310546875 10.39599609375 6.0087890625 10.23193359375 5.60888671875 9.873046875 5.15771484375 9.873046875 4.70654296875 9.873046875 4.434814453125 10.00634765625 4.1630859375 10.1396484375 3.9580078125 10.3857421875 3.52734375 10.8984375 3.52734375 11.7802734375 3.52734375 12.9287109375 4.21435546875 13.82080078125 4.41943359375 14.08740234375 4.6552734375 14.27197265625 L6.98291015625 16.13818359375 Q8.408203125 17.32763671875 8.408203125 18.96826171875 8.408203125 20.32177734375 7.41357421875 21.26513671875 6.44970703125 22.16748046875 5.16796875 22.16748046875 L3.72216796875 22.16748046875 Q3.3427734375 22.16748046875 3.06591796875 21.90087890625 2.7890625 21.63427734375 2.7890625 21.34716796875 2.7890625 21.06005859375 2.865966796875 20.890869140625 2.94287109375 20.7216796875 3.076171875 20.58837890625 3.35302734375 20.3115234375 3.72216796875 20.3115234375 L4.58349609375 20.3115234375 Q5.208984375 20.3115234375 5.58837890625 19.988525390625 5.9677734375 19.66552734375 5.9677734375 19.224609375 5.9677734375 18.49658203125 5.32177734375 17.912109375 L3.568359375 16.4765625 Q2.3173828125 15.46142578125 1.8046875 14.5693359375 1.23046875 13.55419921875 1.23046875 11.96484375 1.23046875 10.10888671875 2.24560546875 9.06298828125 3.240234375 8.02734375 5.0244140625 8.02734375 6.69580078125 8.02734375 7.6494140625 8.863037109375 8.60302734375 9.69873046875 8.60302734375 11.15478515625 8.60302734375 12.38525390625 8.09033203125 13.18505859375 7.5673828125 14.00537109375 6.7265625 14.00537109375 6.22412109375 14.00537109375 5.95751953125 13.75927734375 5.5166015625 13.32861328125 5.5166015625 12.923583984375 5.5166015625 12.5185546875 5.64990234375 12.32373046875 5.783203125 12.12890625 5.947265625 11.95458984375 z" /><path d="M17.50341796875 11.2265625 Q17.50341796875 11.2265625 17.723876953125 11.129150390625 17.9443359375 11.03173828125 18.195556640625 11.03173828125 18.44677734375 11.03173828125 18.667236328125 11.1240234375 18.8876953125 11.21630859375 19.0517578125 11.38037109375 19.41064453125 11.7392578125 19.41064453125 12.2314453125 L19.41064453125 21.14208984375 Q19.41064453125 21.64453125 19.154296875 21.92138671875 18.71337890625 22.37255859375 18.318603515625 22.37255859375 17.923828125 22.37255859375 17.72900390625 22.285400390625 17.5341796875 22.1982421875 17.4111328125 22.08544921875 17.21630859375 21.92138671875 17.139404296875 21.752197265625 17.0625 21.5830078125 17.0009765625 21.5009765625 16.939453125 21.4189453125 16.811279296875 21.4189453125 16.68310546875 21.4189453125 16.60107421875 21.506103515625 16.51904296875 21.59326171875 16.33447265625 21.77783203125 15.71923828125 22.37255859375 14.986083984375 22.37255859375 14.2529296875 22.37255859375 13.7607421875 22.131591796875 13.2685546875 21.890625 12.8994140625 21.47021484375 12.1201171875 20.578125 12.1201171875 19.33740234375 L12.1201171875 12.2314453125 Q12.1201171875 11.4521484375 12.8583984375 11.13427734375 13.07373046875 11.03173828125 13.324951171875 11.03173828125 13.576171875 11.03173828125 13.8017578125 11.1240234375 14.02734375 11.21630859375 14.19140625 11.38037109375 14.55029296875 11.7392578125 14.55029296875 12.2314453125 L14.55029296875 19.306640625 Q14.55029296875 19.8193359375 14.806640625 20.07568359375 15.2578125 20.52685546875 15.75 20.52685546875 16.56005859375 20.52685546875 16.8779296875 19.89111328125 16.98046875 19.68603515625 16.98046875 19.4296875 L16.98046875 12.2314453125 Q16.98046875 11.72900390625 17.241943359375 11.477783203125 z" /><path d="M22.60986328125 12.26220703125 Q22.60986328125 11.74951171875 22.8662109375 11.48291015625 23.296875 11.03173828125 23.69677734375 11.03173828125 24.0966796875 11.03173828125 24.29150390625 11.118896484375 24.486328125 11.2060546875 24.61962890625 11.31884765625 24.78369140625 11.4521484375 24.86572265625 11.63671875 24.94775390625 11.8212890625 25.014404296875 11.9033203125 25.0810546875 11.9853515625 25.2041015625 11.9853515625 25.3271484375 11.9853515625 25.4091796875 11.898193359375 25.4912109375 11.81103515625 25.67578125 11.62646484375 26.291015625 11.03173828125 27.024169921875 11.03173828125 27.75732421875 11.03173828125 28.244384765625 11.272705078125 28.7314453125 11.513671875 29.1005859375 11.93408203125 29.900390625 12.826171875 29.900390625 14.06689453125 L29.900390625 19.13232421875 Q29.900390625 20.3935546875 29.00830078125 21.275390625 28.095703125 22.16748046875 26.85498046875 22.16748046875 L25.0400390625 22.16748046875 25.0400390625 25.81787109375 Q25.0400390625 26.33056640625 24.78369140625 26.5869140625 24.3427734375 27.02783203125 23.81982421875 27.02783203125 23.30712890625 27.02783203125 23.05078125 26.771484375 22.60986328125 26.33056640625 22.60986328125 25.81787109375 L22.60986328125 12.26220703125 zM27.4599609375 13.974609375 Q27.4599609375 13.47216796875 27.116455078125 13.1748046875 26.77294921875 12.87744140625 26.388427734375 12.87744140625 26.00390625 12.87744140625 25.783447265625 12.954345703125 25.56298828125 13.03125 25.39892578125 13.16455078125 25.0400390625 13.47216796875 25.0400390625 13.92333984375 L25.0400390625 20.3115234375 26.25 20.3115234375 Q26.75244140625 20.3115234375 27.01904296875 20.05517578125 27.4599609375 19.634765625 27.4599609375 19.11181640625 L27.4599609375 13.974609375 z" /><path d="M38.9443359375 20.3115234375 Q38.9443359375 20.3115234375 39.2109375 20.58837890625 39.4775390625 20.865234375 39.4775390625 21.249755859375 39.4775390625 21.63427734375 39.2109375 21.90087890625 38.9443359375 22.16748046875 38.5546875 22.16748046875 L36.134765625 22.16748046875 Q34.8837890625 22.16748046875 33.99169921875 21.275390625 33.099609375 20.38330078125 33.099609375 19.13232421875 L33.099609375 14.09765625 Q33.099609375 12.703125 34.04296875 11.87255859375 35.02734375 11.03173828125 36.75 11.03173828125 38.4521484375 11.03173828125 39.4365234375 11.87255859375 40.39013671875 12.71337890625 40.39013671875 14.1181640625 L40.39013671875 16.9892578125 Q40.39013671875 17.501953125 40.1337890625 17.75830078125 39.69287109375 18.19921875 39.169921875 18.19921875 L35.52978515625 18.19921875 35.52978515625 19.11181640625 Q35.52978515625 19.634765625 35.7861328125 19.880859375 36.2373046875 20.3115234375 36.73974609375 20.3115234375 L38.5546875 20.3115234375 Q38.9443359375 20.3115234375 39.2109375 20.58837890625 zM37.9599609375 14.09765625 Q37.9599609375 13.5849609375 37.70361328125 13.32861328125 37.25244140625 12.87744140625 36.75 12.87744140625 36.2373046875 12.87744140625 35.970703125 13.14404296875 35.52978515625 13.5849609375 35.52978515625 14.09765625 L35.52978515625 16.40478515625 37.9599609375 16.40478515625 37.9599609375 14.09765625 z" /><path d="M48.34716796875 11.03173828125 Q48.603515625 11.03173828125 48.849609375 11.103515625 49.095703125 11.17529296875 49.31103515625 11.3291015625 49.80322265625 11.68798828125 49.80322265625 12.32373046875 49.80322265625 12.83642578125 49.53662109375 13.0927734375 49.0751953125 13.53369140625 48.67529296875 13.53369140625 48.16259765625 13.53369140625 47.7421875 13.20556640625 47.4140625 12.990234375 47.00390625 12.990234375 46.59375 12.990234375 46.35791015625 13.251708984375 46.1220703125 13.51318359375 46.1220703125 13.9130859375 L46.1220703125 21.16259765625 Q46.1220703125 21.65478515625 45.86572265625 21.92138671875 45.404296875 22.37255859375 45.030029296875 22.37255859375 44.65576171875 22.37255859375 44.435302734375 22.275146484375 44.21484375 22.177734375 44.05078125 22.013671875 43.69189453125 21.65478515625 43.69189453125 21.16259765625 L43.69189453125 12.26220703125 Q43.69189453125 11.759765625 43.95849609375 11.48291015625 44.38916015625 11.03173828125 44.783935546875 11.03173828125 45.1787109375 11.03173828125 45.37353515625 11.118896484375 45.568359375 11.2060546875 45.70166015625 11.31884765625 45.88623046875 11.48291015625 45.96826171875 11.652099609375 46.05029296875 11.8212890625 46.106689453125 11.9033203125 46.1630859375 11.9853515625 46.291259765625 11.9853515625 46.41943359375 11.9853515625 46.50146484375 11.9033203125 L46.68603515625 11.72900390625 Q47.48583984375 11.03173828125 48.34716796875 11.03173828125 z" /><path d="M54.427734375 22.177734375 Q54.427734375 22.177734375 54.207275390625 22.275146484375 53.98681640625 22.37255859375 53.735595703125 22.37255859375 53.484375 22.37255859375 53.263916015625 22.2802734375 53.04345703125 22.18798828125 52.87939453125 22.02392578125 52.5205078125 21.6650390625 52.5205078125 21.1728515625 L52.5205078125 12.26220703125 Q52.5205078125 11.759765625 52.77685546875 11.48291015625 53.2177734375 11.03173828125 53.612548828125 11.03173828125 54.00732421875 11.03173828125 54.2021484375 11.11376953125 54.39697265625 11.19580078125 54.5302734375 11.31884765625 54.70458984375 11.47265625 54.791748046875 11.64697265625 54.87890625 11.8212890625 54.935302734375 11.9033203125 54.99169921875 11.9853515625 55.119873046875 11.9853515625 55.248046875 11.9853515625 55.34033203125 11.9033203125 L55.5146484375 11.72900390625 Q56.26318359375 11.03173828125 57.01171875 11.03173828125 58.33447265625 11.03173828125 59.19580078125 12.11865234375 59.27783203125 12.2314453125 59.40087890625 12.2314453125 59.6162109375 12.2314453125 59.836669921875 11.898193359375 60.05712890625 11.56494140625 60.54931640625 11.29833984375 61.04150390625 11.03173828125 61.69775390625 11.03173828125 62.35400390625 11.03173828125 62.892333984375 11.272705078125 63.4306640625 11.513671875 63.83056640625 11.93408203125 64.67138671875 12.81591796875 64.67138671875 14.06689453125 L64.67138671875 21.1728515625 Q64.67138671875 21.9521484375 63.93310546875 22.27001953125 63.70751953125 22.37255859375 63.456298828125 22.37255859375 63.205078125 22.37255859375 62.984619140625 22.2802734375 62.76416015625 22.18798828125 62.60009765625 22.02392578125 62.25146484375 21.65478515625 62.25146484375 21.1728515625 L62.25146484375 14.09765625 Q62.25146484375 13.5849609375 61.9951171875 13.32861328125 61.5439453125 12.87744140625 61.16455078125 12.87744140625 60.78515625 12.87744140625 60.56982421875 12.974853515625 60.3544921875 13.072265625 60.18017578125 13.24658203125 59.8212890625 13.60546875 59.8212890625 14.0771484375 L59.8212890625 21.1728515625 Q59.8212890625 21.9521484375 59.09326171875 22.27001953125 58.86767578125 22.37255859375 58.616455078125 22.37255859375 58.365234375 22.37255859375 58.1396484375 22.2802734375 57.9140625 22.18798828125 57.75 22.02392578125 57.39111328125 21.6650390625 57.39111328125 21.1728515625 L57.39111328125 14.09765625 Q57.39111328125 13.5849609375 57.134765625 13.32861328125 56.68359375 12.87744140625 56.19140625 12.87744140625 55.37109375 12.87744140625 55.05322265625 13.51318359375 54.95068359375 13.71826171875 54.95068359375 13.974609375 L54.95068359375 21.1728515625 Q54.95068359375 21.67529296875 54.689208984375 21.926513671875 z" /><path d="M73.91015625 20.3115234375 Q73.91015625 20.3115234375 74.1767578125 20.58837890625 74.443359375 20.865234375 74.443359375 21.249755859375 74.443359375 21.63427734375 74.1767578125 21.90087890625 73.91015625 22.16748046875 73.5205078125 22.16748046875 L71.1005859375 22.16748046875 Q69.849609375 22.16748046875 68.95751953125 21.275390625 68.0654296875 20.38330078125 68.0654296875 19.13232421875 L68.0654296875 14.09765625 Q68.0654296875 12.703125 69.0087890625 11.87255859375 69.9931640625 11.03173828125 71.7158203125 11.03173828125 73.41796875 11.03173828125 74.40234375 11.87255859375 75.35595703125 12.71337890625 75.35595703125 14.1181640625 L75.35595703125 16.9892578125 Q75.35595703125 17.501953125 75.099609375 17.75830078125 74.65869140625 18.19921875 74.1357421875 18.19921875 L70.49560546875 18.19921875 70.49560546875 19.11181640625 Q70.49560546875 19.634765625 70.751953125 19.880859375 71.203125 20.3115234375 71.70556640625 20.3115234375 L73.5205078125 20.3115234375 Q73.91015625 20.3115234375 74.1767578125 20.58837890625 zM72.92578125 14.09765625 Q72.92578125 13.5849609375 72.66943359375 13.32861328125 72.21826171875 12.87744140625 71.7158203125 12.87744140625 71.203125 12.87744140625 70.9365234375 13.14404296875 70.49560546875 13.5849609375 70.49560546875 14.09765625 L70.49560546875 16.40478515625 72.92578125 16.40478515625 72.92578125 14.09765625 z" /><path d="M83.31298828125 11.03173828125 Q83.5693359375 11.03173828125 83.8154296875 11.103515625 84.0615234375 11.17529296875 84.27685546875 11.3291015625 84.76904296875 11.68798828125 84.76904296875 12.32373046875 84.76904296875 12.83642578125 84.50244140625 13.0927734375 84.041015625 13.53369140625 83.64111328125 13.53369140625 83.12841796875 13.53369140625 82.7080078125 13.20556640625 82.3798828125 12.990234375 81.9697265625 12.990234375 81.5595703125 12.990234375 81.32373046875 13.251708984375 81.087890625 13.51318359375 81.087890625 13.9130859375 L81.087890625 21.16259765625 Q81.087890625 21.65478515625 80.83154296875 21.92138671875 80.3701171875 22.37255859375 79.995849609375 22.37255859375 79.62158203125 22.37255859375 79.401123046875 22.275146484375 79.1806640625 22.177734375 79.0166015625 22.013671875 78.65771484375 21.65478515625 78.65771484375 21.16259765625 L78.65771484375 12.26220703125 Q78.65771484375 11.759765625 78.92431640625 11.48291015625 79.35498046875 11.03173828125 79.749755859375 11.03173828125 80.14453125 11.03173828125 80.33935546875 11.118896484375 80.5341796875 11.2060546875 80.66748046875 11.31884765625 80.85205078125 11.48291015625 80.93408203125 11.652099609375 81.01611328125 11.8212890625 81.072509765625 11.9033203125 81.12890625 11.9853515625 81.257080078125 11.9853515625 81.38525390625 11.9853515625 81.46728515625 11.9033203125 L81.65185546875 11.72900390625 Q82.45166015625 11.03173828125 83.31298828125 11.03173828125 z" /><path d="M92.0595703125 13.4208984375 Q91.61865234375 12.87744140625 90.98291015625 12.87744140625 90.42919921875 12.87744140625 90.16259765625 13.14404296875 89.7216796875 13.5849609375 89.7216796875 14.09765625 L89.7216796875 19.11181640625 Q89.7216796875 19.634765625 89.97802734375 19.880859375 90.42919921875 20.3115234375 90.931640625 20.3115234375 L93.4541015625 20.3115234375 Q94.05908203125 20.3115234375 94.30517578125 20.89599609375 94.376953125 21.06005859375 94.376953125 21.249755859375 94.376953125 21.439453125 94.30517578125 21.608642578125 94.2333984375 21.77783203125 94.1103515625 21.90087890625 93.84375 22.16748046875 93.4541015625 22.16748046875 L90.32666015625 22.16748046875 Q89.07568359375 22.16748046875 88.18359375 21.275390625 87.29150390625 20.38330078125 87.29150390625 19.13232421875 L87.29150390625 14.04638671875 Q87.29150390625 12.7236328125 88.18359375 11.91357421875 89.15771484375 11.03173828125 90.931640625 11.03173828125 93.32080078125 11.03173828125 94.12060546875 12.13916015625 94.376953125 12.4775390625 94.376953125 12.821044921875 94.376953125 13.16455078125 94.28466796875 13.385009765625 94.1923828125 13.60546875 94.0283203125 13.76953125 93.6796875 14.1181640625 93.23876953125 14.1181640625 92.52099609375 14.1181640625 92.0595703125 13.4208984375 z" /><path d="M98.68359375 12.169921875 Q98.68359375 11.5546875 99.2578125 11.30859375 99.421875 11.23681640625 99.61669921875 11.23681640625 L102.03662109375 11.23681640625 Q103.28759765625 11.23681640625 104.1796875 12.12890625 105.07177734375 13.02099609375 105.07177734375 14.27197265625 L105.07177734375 21.1728515625 Q105.07177734375 21.9521484375 104.33349609375 22.27001953125 104.10791015625 22.37255859375 103.84130859375 22.37255859375 103.57470703125 22.37255859375 103.385009765625 22.285400390625 103.1953125 22.1982421875 103.06201171875 22.08544921875 102.94921875 21.98291015625 102.83642578125 21.793212890625 102.7236328125 21.603515625 102.662109375 21.51123046875 102.6005859375 21.4189453125 102.46728515625 21.4189453125 102.333984375 21.4189453125 102.251953125 21.51123046875 L102.087890625 21.685546875 Q101.40087890625 22.37255859375 100.47802734375 22.37255859375 99.380859375 22.37255859375 98.5810546875 21.47021484375 97.78125 20.578125 97.78125 19.33740234375 L97.78125 17.92236328125 Q97.78125 16.67138671875 98.67333984375 15.779296875 99.55517578125 14.8974609375 100.81640625 14.8974609375 L102.6416015625 14.8974609375 102.6416015625 14.302734375 Q102.6416015625 13.7900390625 102.38525390625 13.53369140625 101.93408203125 13.08251953125 101.431640625 13.08251953125 L99.61669921875 13.08251953125 Q99.2373046875 13.08251953125 99.0322265625 12.8876953125 98.68359375 12.5595703125 98.68359375 12.169921875 zM100.21142578125 19.31689453125 Q100.21142578125 19.83984375 100.4677734375 20.0859375 100.9189453125 20.5166015625 101.29833984375 20.5166015625 101.677734375 20.5166015625 101.898193359375 20.44482421875 102.11865234375 20.373046875 102.28271484375 20.23974609375 102.6416015625 19.95263671875 102.6416015625 19.48095703125 L102.6416015625 16.73291015625 101.431640625 16.73291015625 Q100.90869140625 16.73291015625 100.65234375 16.9892578125 100.21142578125 17.43017578125 100.21142578125 17.94287109375 L100.21142578125 19.31689453125 z" /><path d="M115.5615234375 21.1728515625 Q115.5615234375 21.9521484375 114.8232421875 22.27001953125 114.59765625 22.37255859375 114.3310546875 22.37255859375 114.064453125 22.37255859375 113.86962890625 22.29052734375 113.6748046875 22.20849609375 113.54150390625 22.10595703125 113.35693359375 21.94189453125 113.280029296875 21.7880859375 113.203125 21.63427734375 113.1416015625 21.526611328125 113.080078125 21.4189453125 112.95703125 21.4189453125 112.833984375 21.4189453125 112.74169921875 21.51123046875 L112.55712890625 21.685546875 Q111.890625 22.37255859375 110.9677734375 22.37255859375 109.8603515625 22.37255859375 109.060546875 21.47021484375 108.27099609375 20.58837890625 108.27099609375 19.33740234375 L108.27099609375 14.27197265625 Q108.27099609375 13.02099609375 109.1630859375 12.12890625 110.05517578125 11.23681640625 111.30615234375 11.23681640625 L113.13134765625 11.23681640625 113.13134765625 7.60693359375 Q113.13134765625 7.09423828125 113.3876953125 6.837890625 113.82861328125 6.39697265625 114.34130859375 6.39697265625 114.8642578125 6.39697265625 115.12060546875 6.6533203125 115.5615234375 7.09423828125 115.5615234375 7.60693359375 L115.5615234375 21.1728515625 zM110.701171875 19.4296875 Q110.701171875 19.95263671875 111.044677734375 20.234619140625 111.38818359375 20.5166015625 111.772705078125 20.5166015625 112.1572265625 20.5166015625 112.377685546875 20.44482421875 112.59814453125 20.373046875 112.76220703125 20.23974609375 113.13134765625 19.95263671875 113.13134765625 19.48095703125 L113.13134765625 13.08251953125 111.9111328125 13.08251953125 Q111.40869140625 13.08251953125 111.14208984375 13.34912109375 110.701171875 13.7900390625 110.701171875 14.302734375 L110.701171875 19.4296875 z" /><path d="M118.7607421875 14.04638671875 Q118.7607421875 12.662109375 119.7041015625 11.85205078125 120.6884765625 11.03173828125 122.4111328125 11.03173828125 124.11328125 11.03173828125 125.09765625 11.85205078125 126.05126953125 12.67236328125 126.05126953125 14.06689453125 L126.05126953125 19.3681640625 Q126.05126953125 21.51123046875 123.95947265625 22.16748046875 123.28271484375 22.37255859375 122.416259765625 22.37255859375 121.5498046875 22.37255859375 120.873046875 22.162353515625 120.1962890625 21.9521484375 119.724609375 21.55224609375 118.7607421875 20.75244140625 118.7607421875 19.33740234375 L118.7607421875 14.04638671875 zM123.62109375 14.09765625 Q123.62109375 13.5849609375 123.36474609375 13.32861328125 122.91357421875 12.87744140625 122.4111328125 12.87744140625 121.8984375 12.87744140625 121.6318359375 13.14404296875 121.19091796875 13.5849609375 121.19091796875 14.09765625 L121.19091796875 19.4296875 Q121.19091796875 19.95263671875 121.53955078125 20.234619140625 121.88818359375 20.5166015625 122.406005859375 20.5166015625 122.923828125 20.5166015625 123.2724609375 20.234619140625 123.62109375 19.95263671875 123.62109375 19.4296875 L123.62109375 14.09765625 z" /><path d="M136.83837890625 10.39599609375 Q136.83837890625 10.39599609375 136.73583984375 10.616455078125 136.63330078125 10.8369140625 136.63330078125 11.1240234375 136.63330078125 11.4111328125 136.7666015625 11.631591796875 136.89990234375 11.85205078125 137.06396484375 12.05712890625 137.49462890625 12.580078125 137.49462890625 12.923583984375 137.49462890625 13.26708984375 137.40234375 13.487548828125 137.31005859375 13.7080078125 137.14599609375 13.86181640625 136.787109375 14.21044921875 136.320556640625 14.21044921875 135.85400390625 14.21044921875 135.510498046875 13.974609375 135.1669921875 13.73876953125 134.9208984375 13.32861328125 134.408203125 12.45703125 134.408203125 11.05224609375 134.408203125 9.66796875 135.392578125 8.85791015625 136.38720703125 8.02734375 138.15087890625 8.02734375 139.86328125 8.02734375 140.84765625 8.85791015625 141.791015625 9.65771484375 141.791015625 11.0419921875 L141.791015625 19.3271484375 Q141.791015625 20.73193359375 140.8271484375 21.55224609375 139.87353515625 22.3623046875 138.15087890625 22.3623046875 136.42822265625 22.3623046875 135.4541015625 21.55224609375 134.5107421875 20.7626953125 134.5107421875 19.35791015625 L134.5107421875 16.01513671875 Q134.5107421875 15.5126953125 134.77734375 15.25634765625 135.21826171875 14.80517578125 135.602783203125 14.80517578125 135.9873046875 14.80517578125 136.207763671875 14.8974609375 136.42822265625 14.98974609375 136.59228515625 15.15380859375 136.94091796875 15.50244140625 136.94091796875 16.01513671875 L136.94091796875 19.41943359375 Q136.94091796875 19.9423828125 137.28955078125 20.224365234375 137.63818359375 20.50634765625 138.156005859375 20.50634765625 138.673828125 20.50634765625 139.017333984375 20.224365234375 139.36083984375 19.9423828125 139.36083984375 19.41943359375 L139.36083984375 11.09326171875 Q139.36083984375 10.58056640625 139.007080078125 10.226806640625 138.6533203125 9.873046875 138.197021484375 9.873046875 137.74072265625 9.873046875 137.47412109375 9.970458984375 137.20751953125 10.06787109375 137.02294921875 10.23193359375 z" /><path d="M146.8974609375 22.177734375 Q146.8974609375 22.177734375 146.677001953125 22.275146484375 146.45654296875 22.37255859375 146.205322265625 22.37255859375 145.9541015625 22.37255859375 145.733642578125 22.2802734375 145.51318359375 22.18798828125 145.34912109375 22.02392578125 144.990234375 21.6650390625 144.990234375 21.1728515625 L144.990234375 12.26220703125 Q144.990234375 11.759765625 145.2568359375 11.48291015625 145.6875 11.03173828125 146.082275390625 11.03173828125 146.47705078125 11.03173828125 146.666748046875 11.118896484375 146.8564453125 11.2060546875 146.98974609375 11.31884765625 147.1845703125 11.48291015625 147.261474609375 11.652099609375 147.33837890625 11.8212890625 147.39990234375 11.9033203125 147.46142578125 11.9853515625 147.589599609375 11.9853515625 147.7177734375 11.9853515625 147.7998046875 11.898193359375 147.8818359375 11.81103515625 148.06640625 11.62646484375 148.681640625 11.03173828125 149.414794921875 11.03173828125 150.14794921875 11.03173828125 150.64013671875 11.272705078125 151.13232421875 11.513671875 151.4912109375 11.93408203125 152.28076171875 12.826171875 152.28076171875 14.06689453125 L152.28076171875 21.1728515625 Q152.28076171875 21.9521484375 151.552734375 22.27001953125 151.3271484375 22.37255859375 151.075927734375 22.37255859375 150.82470703125 22.37255859375 150.59912109375 22.2802734375 150.37353515625 22.18798828125 150.20947265625 22.02392578125 149.8505859375 21.6650390625 149.8505859375 21.1728515625 L149.8505859375 14.09765625 Q149.8505859375 13.59521484375 149.6044921875 13.32861328125 149.16357421875 12.87744140625 148.6611328125 12.87744140625 147.8408203125 12.87744140625 147.52294921875 13.51318359375 147.42041015625 13.71826171875 147.42041015625 13.974609375 L147.42041015625 21.1728515625 Q147.42041015625 21.67529296875 147.158935546875 21.926513671875 z" /><path d="M161.32470703125 20.3115234375 Q161.32470703125 20.3115234375 161.59130859375 20.58837890625 161.85791015625 20.865234375 161.85791015625 21.249755859375 161.85791015625 21.63427734375 161.59130859375 21.90087890625 161.32470703125 22.16748046875 160.93505859375 22.16748046875 L158.51513671875 22.16748046875 Q157.26416015625 22.16748046875 156.3720703125 21.275390625 155.47998046875 20.38330078125 155.47998046875 19.13232421875 L155.47998046875 14.09765625 Q155.47998046875 12.703125 156.42333984375 11.87255859375 157.40771484375 11.03173828125 159.13037109375 11.03173828125 160.83251953125 11.03173828125 161.81689453125 11.87255859375 162.7705078125 12.71337890625 162.7705078125 14.1181640625 L162.7705078125 16.9892578125 Q162.7705078125 17.501953125 162.51416015625 17.75830078125 162.0732421875 18.19921875 161.55029296875 18.19921875 L157.91015625 18.19921875 157.91015625 19.11181640625 Q157.91015625 19.634765625 158.16650390625 19.880859375 158.61767578125 20.3115234375 159.1201171875 20.3115234375 L160.93505859375 20.3115234375 Q161.32470703125 20.3115234375 161.59130859375 20.58837890625 zM160.34033203125 14.09765625 Q160.34033203125 13.5849609375 160.083984375 13.32861328125 159.6328125 12.87744140625 159.13037109375 12.87744140625 158.61767578125 12.87744140625 158.35107421875 13.14404296875 157.91015625 13.5849609375 157.91015625 14.09765625 L157.91015625 16.40478515625 160.34033203125 16.40478515625 160.34033203125 14.09765625 z" /></g></svg>