<svg width="170" height="30" xmlns="http://www.w3.org/2000/svg" viewBox="0 0 170 30"><g fill="currentColor"><path d="M8.912109375 19.6591796875 L3.1484375 19.6591796875 1.955078125 23.8994140625 0.25390625 23.8994140625 5.5859375 5.6943359375 6.44921875 5.6943359375 11.806640625 23.8994140625 10.1181640625 23.8994140625 8.912109375 19.6591796875 zM3.5927734375 18.09765625 L8.48046875 18.09765625 6.0810546875 9.7060546875 6.0302734375 9.033203125 5.9794921875 9.7060546875 3.5927734375 18.09765625 z" /><path d="M22.3056640625 20.33203125 Q22.3056640625 21.119140625 22.00732421875 21.8173828125 21.708984375 22.515625 21.1884765625 23.0361328125 20.66796875 23.556640625 19.9697265625 23.85498046875 19.271484375 24.1533203125 18.484375 24.1533203125 L17.443359375 24.1533203125 Q16.65625 24.1533203125 15.9580078125 23.85498046875 15.259765625 23.556640625 14.7392578125 23.0361328125 14.21875 22.515625 13.92041015625 21.8173828125 13.6220703125 21.119140625 13.6220703125 20.33203125 L13.6220703125 5.6943359375 15.18359375 5.6943359375 15.18359375 11.9912109375 Q15.716796875 11.3564453125 16.4658203125 11.0009765625 17.21484375 10.6455078125 18.0908203125 10.6455078125 L18.484375 10.6455078125 Q19.271484375 10.6455078125 19.9697265625 10.94384765625 20.66796875 11.2421875 21.1884765625 11.7626953125 21.708984375 12.283203125 22.00732421875 12.9814453125 22.3056640625 13.6796875 22.3056640625 14.466796875 L22.3056640625 20.33203125 22.3056640625 20.33203125 zM20.744140625 14.3779296875 Q20.744140625 13.908203125 20.56640625 13.49560546875 20.388671875 13.0830078125 20.083984375 12.7783203125 19.779296875 12.4736328125 19.36669921875 12.2958984375 18.9541015625 12.1181640625 18.484375 12.1181640625 L17.443359375 12.1181640625 Q16.9736328125 12.1181640625 16.56103515625 12.2958984375 16.1484375 12.4736328125 15.84375 12.7783203125 15.5390625 13.0830078125 15.361328125 13.49560546875 15.18359375 13.908203125 15.18359375 14.3779296875 L15.18359375 20.4208984375 Q15.18359375 20.890625 15.361328125 21.30322265625 15.5390625 21.7158203125 15.84375 22.0205078125 16.1484375 22.3251953125 16.56103515625 22.5029296875 16.9736328125 22.6806640625 17.443359375 22.6806640625 L18.484375 22.6806640625 Q18.9541015625 22.6806640625 19.36669921875 22.5029296875 19.779296875 22.3251953125 20.083984375 22.0205078125 20.388671875 21.7158203125 20.56640625 21.30322265625 20.744140625 20.890625 20.744140625 20.4208984375 L20.744140625 14.3779296875 z" /><path d="M34.1123046875 20.33203125 Q34.1123046875 21.119140625 33.81396484375 21.8173828125 33.515625 22.515625 32.9951171875 23.0361328125 32.474609375 23.556640625 31.7763671875 23.85498046875 31.078125 24.1533203125 30.291015625 24.1533203125 L29.25 24.1533203125 Q28.462890625 24.1533203125 27.7646484375 23.85498046875 27.06640625 23.556640625 26.5458984375 23.0361328125 26.025390625 22.515625 25.72705078125 21.8173828125 25.4287109375 21.119140625 25.4287109375 20.33203125 L25.4287109375 14.466796875 Q25.4287109375 13.6796875 25.72705078125 12.9814453125 26.025390625 12.283203125 26.5458984375 11.7626953125 27.06640625 11.2421875 27.7646484375 10.94384765625 28.462890625 10.6455078125 29.25 10.6455078125 L30.291015625 10.6455078125 Q31.078125 10.6455078125 31.7763671875 10.94384765625 32.474609375 11.2421875 32.9951171875 11.7626953125 33.515625 12.283203125 33.81396484375 12.9814453125 34.1123046875 13.6796875 34.1123046875 14.466796875 L34.1123046875 17.5263671875 26.990234375 17.5263671875 26.990234375 20.4208984375 Q26.990234375 20.890625 27.16796875 21.30322265625 27.345703125 21.7158203125 27.650390625 22.0205078125 27.955078125 22.3251953125 28.36767578125 22.5029296875 28.7802734375 22.6806640625 29.25 22.6806640625 L30.291015625 22.6806640625 Q30.7607421875 22.6806640625 31.17333984375 22.5029296875 31.5859375 22.3251953125 31.890625 22.0205078125 32.1953125 21.7158203125 32.373046875 21.30322265625 32.55078125 20.890625 32.55078125 20.4208984375 L32.55078125 19.5576171875 34.1123046875 19.8115234375 34.1123046875 20.33203125 34.1123046875 20.33203125 zM32.55078125 14.3779296875 Q32.55078125 13.908203125 32.373046875 13.49560546875 32.1953125 13.0830078125 31.890625 12.7783203125 31.5859375 12.4736328125 31.17333984375 12.2958984375 30.7607421875 12.1181640625 30.291015625 12.1181640625 L29.25 12.1181640625 Q28.7802734375 12.1181640625 28.36767578125 12.2958984375 27.955078125 12.4736328125 27.650390625 12.7783203125 27.345703125 13.0830078125 27.16796875 13.49560546875 26.990234375 13.908203125 26.990234375 14.3779296875 L26.990234375 16.3076171875 32.55078125 16.3076171875 32.55078125 14.3779296875 z" /><path d="M37.755859375 23.8994140625 L37.755859375 5.6943359375 39.3173828125 5.6943359375 39.3173828125 23.8994140625 37.755859375 23.8994140625 z" /></g></svg>