<svg width="170" height="30" xmlns="http://www.w3.org/2000/svg" viewBox="0 0 170 30"><g fill="currentColor"><path d="M9.048 24.737000000000002 L1.95 24.737000000000002 1.95 6.017000000000003 8.788 6.017000000000003 8.788 7.395000000000003 3.562 7.395000000000003 3.666 8.045000000000002 3.666 13.219000000000003 3.562 13.869000000000002 8.424 13.869000000000002 8.424 15.351000000000003 3.562 15.351000000000003 3.666 16.001000000000005 3.666 22.605 3.562 23.255000000000003 9.048 23.255000000000003 9.048 24.737000000000002 z" /><path d="M11.31 17.769000000000002 L11.31 16.105000000000004 Q11.31 14.207000000000003 11.401 13.713000000000003 11.491999999999999 13.219000000000003 11.609 12.647000000000002 11.725999999999999 12.075000000000003 11.895 11.854000000000003 12.064 11.633000000000003 12.311 11.321000000000003 12.558 11.009000000000002 12.922 10.905000000000003 13.806 10.593000000000002 14.716 10.593000000000002 L16.874 10.931000000000003 Q16.874 12.075000000000003 15.937999999999999 12.075000000000003 15.756 12.075000000000003 15.574 12.049000000000003 L14.716 11.971000000000002 Q13.39 11.971000000000002 13.104 13.076000000000002 12.818 14.181000000000003 12.818 16.885 12.818 19.589000000000002 12.844 20.395000000000003 12.87 21.201 13.052 22.098000000000003 13.234 22.995 13.623999999999999 23.268 14.014 23.541 14.716 23.541 L16.978 23.281000000000002 16.978 24.477 14.716 24.919 Q13.312 24.919 12.844 24.581000000000003 12.376 24.243000000000002 12.142 24.022000000000002 11.908 23.801000000000002 11.738999999999999 23.229000000000003 11.57 22.657000000000004 11.491999999999999 22.267000000000003 11.414 21.877000000000002 11.362 20.993000000000002 11.31 19.485000000000003 11.31 17.769000000000002 z" /><path d="M24.518 24.737000000000002 Q24.518 24.737000000000002 24.063 24.828000000000003 23.608 24.919 22.971 24.919 22.334 24.919 21.826999999999998 24.841 21.32 24.763 20.942999999999998 24.503 20.566 24.243000000000002 20.319 24.022000000000002 20.072 23.801000000000002 19.903 23.229000000000003 19.733999999999998 22.657000000000004 19.643 22.267000000000003 19.552 21.877000000000002 19.512999999999998 20.980000000000004 19.474 20.083000000000002 19.461 19.511000000000003 19.448 18.939 19.448 17.691000000000003 19.448 16.443 19.461 15.884000000000002 19.474 15.325000000000003 19.512999999999998 14.428000000000003 19.552 13.531000000000002 19.643 13.154000000000002 19.733999999999998 12.777000000000003 19.903 12.218000000000002 20.072 11.659000000000002 20.319 11.451000000000002 20.566 11.243000000000002 20.956 11.009000000000002 21.554 10.593000000000002 22.581 10.593000000000002 23.608 10.593000000000002 24.063 10.684000000000003 24.518 10.775000000000002 24.881999999999998 10.879000000000003 25.246 10.983000000000002 25.506 11.308000000000002 25.766 11.633000000000003 25.948 11.854000000000003 26.13 12.075000000000003 26.234 12.634000000000002 26.338 13.193000000000003 26.403 13.544000000000002 26.468 13.895000000000003 26.506999999999998 14.727000000000002 26.546 15.559000000000003 26.546 16.079 L26.546 17.691000000000003 Q26.546 17.691000000000003 26.546 17.795 26.546 17.795 26.546 19.381 26.546 21.149 26.442 21.708000000000002 26.338 22.267000000000003 26.234 22.839000000000002 26.13 23.411 25.948 23.632 25.766 23.853 25.506 24.178 25.246 24.503 24.881999999999998 24.62 zM25.012 18.289 L25.012 17.405 Q25.012 13.999000000000002 24.726 13.115000000000002 24.31 11.997000000000002 23.009999999999998 11.971000000000002 21.944 11.971000000000002 21.58 12.517000000000003 21.372 12.881000000000002 21.242 13.193000000000003 21.112 13.505000000000003 21.06 14.285000000000002 20.982 15.429000000000002 20.982 16.495000000000005 20.982 17.561000000000003 20.982 18.64 20.982 19.719 21.008 20.499000000000002 21.034 21.279000000000003 21.229 22.150000000000002 21.424 23.021 21.84 23.281000000000002 22.256 23.541 22.88 23.541 23.503999999999998 23.541 23.842 23.424000000000003 24.18 23.307000000000002 24.401 22.982000000000003 24.622 22.657000000000004 24.738999999999997 22.332 24.855999999999998 22.007 24.908 21.305000000000003 25.012 20.291000000000004 25.012 18.289 z" /><path d="M35.048 23.541 L35.048 17.795 Q35.048 13.817000000000002 34.814 12.894000000000002 34.58 11.971000000000002 33.41 11.971000000000002 L30.862 12.881000000000002 30.966 13.531000000000002 30.966 24.737000000000002 Q29.822 24.737000000000002 29.627 24.581000000000003 29.432 24.425 29.432 23.541 L29.432 10.775000000000002 Q30.576 10.775000000000002 30.771 10.866000000000003 30.966 10.957000000000003 30.966 11.555000000000003 L33.306 10.593000000000002 Q35.646 10.593000000000002 36.114 11.789000000000003 36.582 12.985000000000003 36.582 17.821 L36.582 24.737000000000002 Q35.438 24.737000000000002 35.243 24.581000000000003 35.048 24.425 35.048 23.541 z" /><path d="M44.382 24.737000000000002 Q44.382 24.737000000000002 43.927 24.828000000000003 43.472 24.919 42.835 24.919 42.198 24.919 41.691 24.841 41.184 24.763 40.807 24.503 40.43 24.243000000000002 40.183 24.022000000000002 39.936 23.801000000000002 39.767 23.229000000000003 39.598 22.657000000000004 39.507 22.267000000000003 39.416 21.877000000000002 39.377 20.980000000000004 39.338 20.083000000000002 39.325 19.511000000000003 39.312 18.939 39.312 17.691000000000003 39.312 16.443 39.325 15.884000000000002 39.338 15.325000000000003 39.377 14.428000000000003 39.416 13.531000000000002 39.507 13.154000000000002 39.598 12.777000000000003 39.767 12.218000000000002 39.936 11.659000000000002 40.183 11.451000000000002 40.43 11.243000000000002 40.82 11.009000000000002 41.418 10.593000000000002 42.445 10.593000000000002 43.472 10.593000000000002 43.927 10.684000000000003 44.382 10.775000000000002 44.746 10.879000000000003 45.11 10.983000000000002 45.37 11.308000000000002 45.63 11.633000000000003 45.812 11.854000000000003 45.994 12.075000000000003 46.098 12.634000000000002 46.202 13.193000000000003 46.266999999999996 13.544000000000002 46.332 13.895000000000003 46.371 14.727000000000002 46.41 15.559000000000003 46.41 16.079 L46.41 17.691000000000003 Q46.41 17.691000000000003 46.41 17.795 46.41 17.795 46.41 19.381 46.41 21.149 46.306 21.708000000000002 46.202 22.267000000000003 46.098 22.839000000000002 45.994 23.411 45.812 23.632 45.63 23.853 45.37 24.178 45.11 24.503 44.746 24.62 zM44.876 18.289 L44.876 17.405 Q44.876 13.999000000000002 44.59 13.115000000000002 44.174 11.997000000000002 42.874 11.971000000000002 41.808 11.971000000000002 41.444 12.517000000000003 41.236 12.881000000000002 41.106 13.193000000000003 40.976 13.505000000000003 40.924 14.285000000000002 40.846000000000004 15.429000000000002 40.846000000000004 16.495000000000005 40.846000000000004 17.561000000000003 40.846000000000004 18.64 40.846000000000004 19.719 40.872 20.499000000000002 40.898 21.279000000000003 41.093 22.150000000000002 41.288 23.021 41.704 23.281000000000002 42.12 23.541 42.744 23.541 43.368 23.541 43.706 23.424000000000003 44.044 23.307000000000002 44.265 22.982000000000003 44.486 22.657000000000004 44.603 22.332 44.72 22.007 44.772 21.305000000000003 44.876 20.291000000000004 44.876 18.289 z" /><path d="M60.42400000000001 23.541 L60.42400000000001 17.795 Q60.42400000000001 17.795 60.42400000000001 17.587000000000003 60.42400000000001 13.739000000000003 60.190000000000005 12.855000000000002 59.956 11.971000000000002 58.708000000000006 11.971000000000002 L56.290000000000006 12.777000000000003 56.394000000000005 13.427000000000003 56.394000000000005 24.737000000000002 Q55.276 24.737000000000002 55.081 24.581000000000003 54.886 24.425 54.886 23.541 L54.86000000000001 17.795 Q54.86000000000001 17.691000000000003 54.86000000000001 17.080000000000002 54.86000000000001 16.469 54.86000000000001 16.027 54.86000000000001 15.585000000000003 54.847 15.182000000000002 54.834 14.779000000000002 54.795 14.103000000000002 54.756 13.427000000000003 54.652 13.141000000000002 54.548 12.855000000000002 54.36600000000001 12.517000000000003 54.054 11.971000000000002 53.17 11.971000000000002 L50.726000000000006 12.881000000000002 50.830000000000005 13.531000000000002 50.830000000000005 24.737000000000002 Q49.68600000000001 24.737000000000002 49.49100000000001 24.581000000000003 49.29600000000001 24.425 49.29600000000001 23.541 L49.29600000000001 10.775000000000002 Q50.440000000000005 10.775000000000002 50.635000000000005 10.866000000000003 50.830000000000005 10.957000000000003 50.830000000000005 11.555000000000003 L53.17 10.593000000000002 Q55.042 10.593000000000002 55.926 11.685000000000002 L58.708000000000006 10.593000000000002 Q61.074000000000005 10.593000000000002 61.529 11.698000000000002 61.984 12.803000000000003 61.984 17.821 L61.984 24.737000000000002 Q60.81400000000001 24.737000000000002 60.619 24.581000000000003 60.42400000000001 24.425 60.42400000000001 23.541 z" /><path d="M66.56 8.383000000000003 Q66.56 8.383000000000003 66.066 8.383000000000003 65.572 8.383000000000003 65.221 8.032000000000004 64.87 7.681000000000001 64.87 7.174000000000003 64.87 6.667000000000002 65.221 6.342000000000002 65.572 6.017000000000003 66.066 6.017000000000003 66.56 6.017000000000003 66.911 6.355000000000004 67.262 6.693000000000001 67.262 7.187000000000001 67.262 7.681000000000001 66.911 8.032000000000004 zM65.312 23.645000000000003 L65.312 10.775000000000002 Q66.456 10.775000000000002 66.651 10.918000000000003 66.846 11.061000000000002 66.846 11.971000000000002 L66.846 24.841 Q65.702 24.841 65.507 24.685000000000002 65.312 24.529000000000003 65.312 23.645000000000003 z" /><path d="M69.992 17.769000000000002 L69.992 16.105000000000004 Q69.992 14.207000000000003 70.08300000000001 13.713000000000003 70.174 13.219000000000003 70.29100000000001 12.647000000000002 70.408 12.075000000000003 70.57700000000001 11.854000000000003 70.74600000000001 11.633000000000003 70.99300000000001 11.321000000000003 71.24000000000001 11.009000000000002 71.60400000000001 10.905000000000003 72.48800000000001 10.593000000000002 73.39800000000001 10.593000000000002 L75.55600000000001 10.931000000000003 Q75.55600000000001 12.075000000000003 74.62 12.075000000000003 74.438 12.075000000000003 74.256 12.049000000000003 L73.39800000000001 11.971000000000002 Q72.072 11.971000000000002 71.786 13.076000000000002 71.5 14.181000000000003 71.5 16.885 71.5 19.589000000000002 71.52600000000001 20.395000000000003 71.552 21.201 71.73400000000001 22.098000000000003 71.91600000000001 22.995 72.30600000000001 23.268 72.69600000000001 23.541 73.39800000000001 23.541 L75.66000000000001 23.281000000000002 75.66000000000001 24.477 73.39800000000001 24.919 Q71.99400000000001 24.919 71.52600000000001 24.581000000000003 71.058 24.243000000000002 70.82400000000001 24.022000000000002 70.59 23.801000000000002 70.421 23.229000000000003 70.25200000000001 22.657000000000004 70.174 22.267000000000003 70.096 21.877000000000002 70.04400000000001 20.993000000000002 69.992 19.485000000000003 69.992 17.769000000000002 z" /><path d="M82.81000000000002 14.935000000000002 L82.81000000000002 13.479000000000003 Q82.81000000000002 12.439000000000002 82.56300000000002 12.166000000000002 82.31600000000002 11.893000000000002 81.38000000000001 11.893000000000002 L80.08000000000001 12.153000000000002 Q79.82000000000001 12.205000000000002 79.69000000000001 12.205000000000002 78.78000000000002 12.205000000000002 78.78000000000002 11.035000000000002 L81.38000000000001 10.593000000000002 Q83.33000000000001 10.593000000000002 83.74600000000001 11.113000000000003 83.95400000000001 11.373000000000003 84.07100000000001 11.555000000000003 84.18800000000002 11.737000000000002 84.21400000000001 12.205000000000002 84.29200000000002 12.959000000000003 84.29200000000002 13.947000000000003 L84.29200000000002 24.737000000000002 Q83.12200000000001 24.737000000000002 82.91400000000002 24.568 82.70600000000002 24.399 82.70600000000002 23.437 82.44600000000001 23.593000000000004 81.97800000000001 24.009 80.99000000000001 24.919 80.31400000000001 24.919 78.72800000000001 24.919 78.42900000000002 23.918000000000003 78.13000000000001 22.917 78.13000000000001 18.367 78.13000000000001 16.625 79.638 16.053000000000004 80.88600000000001 15.585000000000003 82.81000000000002 15.585000000000003 L82.91400000000002 15.585000000000003 82.81000000000002 14.935000000000002 zM82.70600000000002 17.041000000000004 Q81.19800000000001 17.041000000000004 80.43100000000001 17.262 79.66400000000002 17.483000000000004 79.66400000000002 18.159000000000002 79.66400000000002 22.917 79.87200000000001 23.359 79.97600000000001 23.541 80.34000000000002 23.541 80.70400000000001 23.541 81.13300000000001 23.333000000000002 81.56200000000001 23.125000000000004 82.043 22.774 82.52400000000002 22.423000000000002 82.81000000000002 22.293000000000003 L82.70600000000002 21.643 82.70600000000002 17.691000000000003 82.81000000000002 17.041000000000004 82.70600000000002 17.041000000000004 z" /></g></svg>