<svg width="170" height="30" xmlns="http://www.w3.org/2000/svg" viewBox="0 0 170 30"><g fill="currentColor"><path d="M4.056 7.498999999999999 Q2.21 7.498999999999999 2.21 10.931 L2.21 11.113 Q2.21 11.450999999999999 2.054 11.450999999999999 1.664 11.450999999999999 1.4689999999999999 10.514999999999999 1.274 9.578999999999999 1.274 8.929 1.274 7.8629999999999995 1.755 7.030999999999999 2.2359999999999998 6.199 3.25 6.199 5.252 6.199 7.098 8.539 8.658 6.718999999999999 10.439 4.859999999999999 12.219999999999999 3.0010000000000012 13.208 2.0650000000000013 L14.196 1.1030000000000015 Q15.808 -1.3150000000000013 16.848 -1.3150000000000013 17.108 -1.3150000000000013 17.108 -1.0809999999999995 17.108 -0.9250000000000007 17.003999999999998 -0.7169999999999987 14.716 3.780999999999999 12.818 9.423 10.426 16.599 10.426 20.421 10.426 21.616999999999997 10.712 22.163 10.815999999999999 22.293 10.815999999999999 22.423 10.815999999999999 22.605 10.504 22.605 9.802 22.605 9.334 22.253999999999998 8.866 21.903 8.671 21.331 8.475999999999999 20.759 8.398 20.304 8.32 19.849 8.32 19.381 8.32 18.601 8.606 17.067 8.892 15.533 8.892 14.831 8.892 13.791 8.437 12.373999999999999 7.981999999999999 10.956999999999999 7.228 9.786999999999999 6.396 10.931 5.707 12.075 5.018 13.219 4.732 13.765 L4.4719999999999995 14.337 Q3.536 16.261 2.626 17.846999999999998 1.716 19.433 1.274 20.057 L0.832 20.654999999999998 Q0.5459999999999999 20.993 0.312 20.993 0.026 20.993 0.026 20.395 0.104 16.729 6.6819999999999995 9.033 5.4079999999999995 7.498999999999999 4.056 7.498999999999999 zM12.974 3.416999999999998 Q10.113999999999999 5.913 7.617999999999999 9.267 8.709999999999999 10.931 9.308 13.062999999999999 9.386 13.297 9.437999999999999 13.297 L9.568 13.062999999999999 Q10.218 10.853 11.141 8.474 12.064 6.094999999999999 12.661999999999999 4.821 L13.26 3.5730000000000004 Q13.338 3.416999999999998 13.338 3.3649999999999984 13.338 3.312999999999999 13.26 3.312999999999999 L12.974 3.416999999999998 z" /><path d="M17.862 15.663 Q17.965999999999998 15.454999999999998 17.965999999999998 15.376999999999999 L17.706 15.559 Q16.9 16.494999999999997 15.846999999999998 17.483 14.793999999999999 18.471 14.143999999999998 19.017 L13.494 19.537 Q12.427999999999999 20.317 11.882 20.317 11.361999999999998 20.317 11.361999999999998 19.563 11.361999999999998 17.691 12.739999999999998 15.142999999999999 14.117999999999999 12.594999999999999 16.314999999999998 10.671 18.512 8.747 20.488 8.747 20.878 8.747 21.150999999999996 8.838 21.424 8.929 21.540999999999997 9.007 21.657999999999998 9.084999999999999 21.683999999999997 9.084999999999999 21.735999999999997 9.084999999999999 21.814 9.007 21.97 8.799 22.217 8.487 22.464 8.174999999999999 23.061999999999998 7.6419999999999995 23.659999999999997 7.109 24.024 7.109 24.205999999999996 7.109 24.205999999999996 7.369 24.205999999999996 7.732999999999999 23.842 8.461 21.06 13.582999999999998 20.461999999999996 14.649 20.253999999999998 15.038999999999998 19.512999999999998 16.326 18.772 17.613 18.459999999999997 18.159 20.098 16.833 21.163999999999998 15.870999999999999 22.308 14.674999999999999 23.842 12.933 23.919999999999998 12.855 23.971999999999998 12.855 24.024 12.855 24.024 12.959 24.024 13.453 23.634 13.921 22.49 15.169 21.657999999999998 16.052999999999997 20.566 17.197 17.758 19.381 L17.082 20.628999999999998 Q12.063999999999998 29.858999999999998 10.165999999999999 32.641 9.983999999999998 32.927 9.697999999999999 33.33 9.411999999999999 33.733 8.761999999999999 34.422 8.111999999999998 35.111 7.721999999999999 35.111 7.097999999999999 35.111 7.097999999999999 33.317 7.097999999999999 30.665 8.995999999999999 27.544999999999998 10.998 24.243 15.235999999999999 20.759 L17.862 15.663 zM21.32 9.604999999999999 Q21.345999999999997 9.578999999999999 21.345999999999997 9.501 21.345999999999997 9.318999999999999 20.93 9.318999999999999 19.89 9.318999999999999 18.252 10.931 16.613999999999997 12.543 15.418 14.466999999999999 14.221999999999998 16.391 14.221999999999998 17.301 14.221999999999998 17.665 14.533999999999999 17.665 14.819999999999999 17.665 15.261999999999999 17.301 15.652 16.963 16.314999999999998 16.352 16.977999999999998 15.741 18.59 13.738999999999999 20.201999999999998 11.737 21.32 9.604999999999999 zM9.645999999999999 27.493 Q9.437999999999999 27.805 9.152 28.311999999999998 8.866 28.819 8.372 30.054 7.877999999999999 31.288999999999998 7.877999999999999 32.120999999999995 7.877999999999999 32.563 8.033999999999999 32.563 8.164 32.563 8.424 32.316 8.684 32.069 8.866 31.808999999999997 L9.047999999999998 31.549 Q11.232 28.168999999999997 14.559999999999999 22.006999999999998 11.283999999999999 24.840999999999998 9.645999999999999 27.493 z" /><path d="M27.247999999999998 15.663 L28.054 14.285 Q28.054 14.206999999999999 28.002 14.206999999999999 27.95 14.206999999999999 27.872 14.285 26.91 15.402999999999999 25.87 16.456 24.83 17.509 24.284 18.003 L23.712 18.497 Q21.684 20.421 20.904 20.421 20.54 20.421 20.54 19.953 20.54 19.433 20.969 18.366999999999997 21.398 17.301 21.84 16.468999999999998 L22.256 15.663 Q24.44 11.581 25.48 10.203 26 9.527 26.753999999999998 9.072 27.508 8.616999999999999 27.924 8.616999999999999 28.183999999999997 8.616999999999999 28.183999999999997 8.799 28.183999999999997 8.902999999999999 28.08 9.084999999999999 28.028 9.189 27.014 10.814 26 12.439 25.375999999999998 13.608999999999998 23.66 16.755 23.66 17.223 23.66 17.404999999999998 23.816 17.404999999999998 24.05 17.404999999999998 24.622 16.936999999999998 26.311999999999998 15.480999999999998 28.34 13.011 29.458 11.815 30.68 9.891 31.512 8.616999999999999 32.89 8.616999999999999 33.123999999999995 8.616999999999999 33.123999999999995 8.825 L32.916 9.318999999999999 Q32.552 9.969 31.290999999999997 12.166 30.03 14.363 29.848 14.674999999999999 28.782 16.547 28.782 17.145 28.782 17.378999999999998 28.938 17.378999999999998 29.198 17.378999999999998 30.602 16.079 31.694 14.986999999999998 33.488 12.933 33.566 12.855 33.617999999999995 12.855 33.67 12.855 33.67 12.959 33.67 13.453 33.28 13.921 31.356 16.052999999999997 29.874 17.483 28.86 18.445 27.599 19.407 26.338 20.369 25.766 20.369 25.375999999999998 20.369 25.375999999999998 19.823 25.375999999999998 19.511 25.844 18.471 26.311999999999998 17.430999999999997 26.78 16.547 L27.247999999999998 15.663 z" /><path d="M38.584 18.366999999999997 Q36.426 20.343 35.62 20.343 35.256 20.343 35.256 19.927 35.256 19.407 35.711 18.340999999999998 36.166 17.275 36.634 16.468999999999998 L37.102000000000004 15.663 Q37.206 15.480999999999998 37.206 15.428999999999998 37.206 15.376999999999999 37.154 15.376999999999999 37.05 15.376999999999999 36.764 15.663 35.984 16.521 34.983000000000004 17.496 33.982 18.471 33.358000000000004 19.017 L32.76 19.537 Q31.746000000000002 20.317 31.2 20.317 30.628 20.317 30.628 19.433 30.628 18.991 30.875 18.081 31.122 17.171 31.252000000000002 16.858999999999998 31.85 15.402999999999999 32.747 14.024999999999999 33.644 12.646999999999998 34.866 11.386 36.088 10.125 37.713 9.344999999999999 39.338 8.565 41.08 8.565 42.536 8.565 42.536 9.007 42.536 9.267 41.886 9.267 39.494 9.267 37.401 11.308 35.308 13.349 34.008 16.000999999999998 33.644 16.729 33.644 17.223 33.644 17.509 33.826 17.509 34.138 17.509 34.632 17.067 34.944 16.781 35.477000000000004 16.313 36.01 15.844999999999999 37.206 14.518999999999998 38.402 13.193 39.104 12.049 39.208 11.841 39.429 11.555 39.65 11.269 40.274 10.788 40.897999999999996 10.306999999999999 41.522 10.306999999999999 41.86 10.306999999999999 41.86 10.488999999999999 41.86 10.540999999999999 41.782 10.671 41.678 10.879 41.197 11.710999999999999 40.716 12.543 40.3 13.283999999999999 39.884 14.024999999999999 39.416 14.895999999999999 38.948 15.767 38.675 16.391 38.402 17.015 38.402 17.223 38.402 17.378999999999998 38.532 17.378999999999998 38.922 17.378999999999998 40.43 15.870999999999999 41.574 14.674999999999999 43.108000000000004 12.933 43.186 12.855 43.238 12.855 43.29 12.855 43.29 12.959 43.29 13.453 42.9 13.921 40.352000000000004 16.755 38.584 18.366999999999997 z" /><path d="M44.382 9.344999999999999 Q44.226 9.267 44.226 9.163 44.226 9.007 44.512 9.007 L45.292 9.007 Q47.995999999999995 4.638999999999999 49.711999999999996 2.6110000000000007 51.506 0.5309999999999988 53.274 -0.49599999999999866 55.042 -1.5229999999999997 56.004 -1.5229999999999997 56.628 -1.5229999999999997 56.628 -0.9770000000000003 56.628 0.2190000000000012 55.393 1.4540000000000006 54.158 2.689 53.3 3.053000000000001 53.144 3.1050000000000004 53.092 3.1050000000000004 52.988 3.1050000000000004 52.988 2.9750000000000014 52.988 2.8969999999999985 53.065999999999995 2.7669999999999995 54.574 0.5569999999999986 54.574 -0.17099999999999937 54.574 -0.35300000000000153 54.418 -0.35300000000000153 54.105999999999995 -0.35300000000000153 53.378 0.2190000000000012 51.61 1.5449999999999982 47.19 9.007 L49.192 9.007 Q49.556 9.007 49.556 9.110999999999999 49.556 9.241 49.361 9.397 49.166 9.552999999999999 49.062 9.552999999999999 L47.215999999999994 9.552999999999999 Q46.852 9.552999999999999 46.852 9.735 46.852 9.812999999999999 46.891 10.177 46.93 10.540999999999999 46.93 10.748999999999999 46.93 13.166999999999998 45.461 16.56 43.992 19.953 41.652 23.073 40.3 24.866999999999997 39.156 26.037 38.012 27.207 37.427 27.584 36.842 27.961 36.556 27.961 36.192 27.961 36.192 27.467 36.192 25.075 41.158 16.313 41.158 16.287 41.652 15.376999999999999 42.146 14.466999999999999 43.095 12.764 44.044 11.061 45.006 9.501 L44.382 9.344999999999999 zM46.227999999999994 11.476999999999999 Q46.227999999999994 11.113 46.15 10.801 42.042 17.872999999999998 40.43 21.279 38.948 24.346999999999998 38.948 24.866999999999997 38.948 24.971 39.025999999999996 24.971 39.39 24.971 40.82 23.281 42.327999999999996 21.512999999999998 44.278 17.691 46.227999999999994 13.869 46.227999999999994 11.476999999999999 z" /><path d="M50.336 17.483 Q47.294 20.343 46.436 20.343 45.994 20.343 45.994 19.744999999999997 45.994 19.147 46.461999999999996 18.003 46.93 16.858999999999998 47.397999999999996 16.000999999999998 L47.866 15.169 Q49.842 11.710999999999999 50.855999999999995 10.203 51.297999999999995 9.552999999999999 51.986999999999995 9.097999999999999 52.675999999999995 8.642999999999999 53.274 8.642999999999999 53.482 8.642999999999999 53.482 8.825 53.482 8.955 53.3 9.318999999999999 52.988 9.891 51.766 12.049 50.544 14.206999999999999 50.309999999999995 14.649 49.244 16.521 49.244 17.145 49.244 17.378999999999998 49.4 17.378999999999998 49.66 17.378999999999998 51.064 16.079 52.156 14.986999999999998 53.949999999999996 12.933 54.028 12.855 54.08 12.855 54.132 12.855 54.132 12.959 54.132 13.453 53.742 13.921 51.818 16.052999999999997 50.336 17.483 zM53.794 7.161 Q53.144 7.161 53.144 6.381 53.144 5.6530000000000005 53.69 4.911999999999999 54.236 4.170999999999999 54.885999999999996 4.170999999999999 55.666 4.170999999999999 55.666 5.055 55.666 5.7829999999999995 55.068 6.4719999999999995 54.47 7.161 53.794 7.161 z" /><path d="M60.19 17.483 Q57.147999999999996 20.343 56.18599999999999 20.343 55.744 20.343 55.744 19.875 55.744 19.589 55.873999999999995 19.16 56.004 18.730999999999998 56.199 18.302 56.394 17.872999999999998 56.57599999999999 17.509 56.757999999999996 17.145 56.94 16.833 57.122 16.521 57.122 16.494999999999997 57.512 15.793 58.291999999999994 14.532 59.071999999999996 13.270999999999999 59.54 12.451999999999998 60.007999999999996 11.633 60.007999999999996 11.450999999999999 60.007999999999996 11.321 59.878 11.321 L59.513999999999996 11.450999999999999 Q58.318 12.309 56.653999999999996 14.116 54.989999999999995 15.922999999999998 53.924 17.301 L52.858 18.653 Q52.519999999999996 19.147 52.26 19.459 52 19.771 51.519 20.07 51.038 20.369 50.544 20.369 50.18 20.369 50.18 20.160999999999998 50.18 19.953 50.674 18.951999999999998 51.168 17.951 51.662 17.041 L52.156 16.157 54.70399999999999 11.684999999999999 Q55.093999999999994 11.035 55.340999999999994 10.684 55.587999999999994 10.333 56.029999999999994 9.799999999999999 56.471999999999994 9.267 56.979 9.007 57.486 8.747 58.05799999999999 8.695 58.266 8.695 58.266 8.876999999999999 58.266 9.033 58.187999999999995 9.136999999999999 57.589999999999996 10.072999999999999 56.355 12.230999999999998 55.12 14.389 54.782 15.038999999999998 54.70399999999999 15.195 54.70399999999999 15.273 54.70399999999999 15.325 54.756 15.325 54.808 15.325 55.016 15.169 55.51 14.597 56.303 13.738999999999999 57.096 12.881 58.994 11.152 60.891999999999996 9.423 62.114 8.825 62.4 8.695 62.66 8.695 63.023999999999994 8.695 63.023999999999994 9.110999999999999 62.815999999999995 10.333 61.022 13.297 59.046 16.547 59.046 17.145 59.046 17.352999999999998 59.227999999999994 17.352999999999998 59.358 17.352999999999998 59.526999999999994 17.262 59.696 17.171 59.903999999999996 17.002 60.111999999999995 16.833 60.254999999999995 16.703 60.397999999999996 16.573 60.632 16.352 60.866 16.131 60.91799999999999 16.079 62.01 14.986999999999998 63.803999999999995 12.933 63.882 12.855 63.934 12.855 63.986 12.855 63.986 12.959 63.986 13.453 63.596 13.921 61.672 16.052999999999997 60.19 17.483 z" /><path d="M68.89999999999999 18.366999999999997 Q66.74199999999999 20.343 65.93599999999999 20.343 65.572 20.343 65.572 19.927 65.572 19.407 66.027 18.340999999999998 66.482 17.275 66.94999999999999 16.468999999999998 L67.41799999999999 15.663 Q67.52199999999999 15.480999999999998 67.52199999999999 15.428999999999998 67.52199999999999 15.376999999999999 67.47 15.376999999999999 67.366 15.376999999999999 67.08 15.663 66.3 16.521 65.29899999999999 17.496 64.298 18.471 63.67399999999999 19.017 L63.07599999999999 19.537 Q62.062 20.317 61.516 20.317 60.943999999999996 20.317 60.943999999999996 19.433 60.943999999999996 18.991 61.190999999999995 18.081 61.437999999999995 17.171 61.568 16.858999999999998 62.166 15.402999999999999 63.062999999999995 14.024999999999999 63.959999999999994 12.646999999999998 65.182 11.386 66.404 10.125 68.029 9.344999999999999 69.654 8.565 71.396 8.565 72.85199999999999 8.565 72.85199999999999 9.007 72.85199999999999 9.267 72.202 9.267 69.81 9.267 67.717 11.308 65.624 13.349 64.324 16.000999999999998 63.959999999999994 16.729 63.959999999999994 17.223 63.959999999999994 17.509 64.142 17.509 64.454 17.509 64.948 17.067 65.25999999999999 16.781 65.79299999999999 16.313 66.326 15.844999999999999 67.52199999999999 14.518999999999998 68.71799999999999 13.193 69.42 12.049 69.524 11.841 69.74499999999999 11.555 69.966 11.269 70.59 10.788 71.214 10.306999999999999 71.838 10.306999999999999 72.17599999999999 10.306999999999999 72.17599999999999 10.488999999999999 72.17599999999999 10.540999999999999 72.098 10.671 71.994 10.879 71.51299999999999 11.710999999999999 71.032 12.543 70.616 13.283999999999999 70.19999999999999 14.024999999999999 69.732 14.895999999999999 69.264 15.767 68.991 16.391 68.71799999999999 17.015 68.71799999999999 17.223 68.71799999999999 17.378999999999998 68.848 17.378999999999998 69.238 17.378999999999998 70.746 15.870999999999999 71.89 14.674999999999999 73.42399999999999 12.933 73.502 12.855 73.554 12.855 73.606 12.855 73.606 12.959 73.606 13.453 73.216 13.921 70.66799999999999 16.755 68.89999999999999 18.366999999999997 z" /><path d="M74.74999999999999 18.211 Q75.16599999999998 17.171 75.93299999999999 15.793 76.69999999999999 14.415 77.27199999999999 13.556999999999999 L77.84399999999998 12.725 Q78.20799999999998 12.204999999999998 78.57199999999999 12.204999999999998 78.85799999999999 12.204999999999998 78.85799999999999 12.491 L78.77999999999999 12.751 Q77.84399999999998 15.116999999999999 77.84399999999998 16.833 77.84399999999998 18.211 78.45499999999998 19.082 79.06599999999999 19.953 80.36599999999999 19.953 82.31599999999999 19.953 83.51199999999999 18.25 84.70799999999998 16.547 84.70799999999998 14.570999999999998 84.70799999999998 12.881 83.55099999999999 9.748 82.39399999999999 6.615 82.39399999999999 5.497 82.39399999999999 3.0790000000000006 84.46099999999998 1.6099999999999994 86.52799999999999 0.14099999999999824 88.99799999999999 0.14099999999999824 89.43999999999998 0.14099999999999824 89.86899999999999 0.1930000000000014 90.29799999999999 0.245000000000001 90.81799999999998 0.3619999999999983 91.33799999999998 0.4789999999999992 91.64999999999998 0.7390000000000008 91.96199999999999 0.9989999999999988 91.96199999999999 1.3889999999999993 91.96199999999999 1.908999999999999 91.23399999999998 3.157 90.50599999999999 4.404999999999999 90.01199999999999 5.055 89.82999999999998 5.1850000000000005 89.69999999999999 5.1850000000000005 89.51799999999999 5.1850000000000005 89.51799999999999 4.872999999999999 89.51799999999999 4.145 89.67399999999998 2.8969999999999985 89.67399999999998 0.8689999999999998 88.11399999999999 0.8689999999999998 86.78799999999998 0.8689999999999998 85.86499999999998 1.779 84.94199999999998 2.689 84.94199999999998 3.9890000000000008 84.94199999999998 5.705 86.15099999999998 8.773 87.35999999999999 11.841 87.35999999999999 13.504999999999999 87.35999999999999 16.625 84.90299999999999 18.64 82.44599999999998 20.654999999999998 79.37799999999999 20.654999999999998 78.85799999999999 20.654999999999998 78.12999999999998 20.551 77.40199999999999 20.447 76.59599999999999 20.226 75.78999999999999 20.005 75.23099999999998 19.576 74.67199999999998 19.147 74.67199999999998 18.601 74.67199999999998 18.393 74.74999999999999 18.211 z" /><path d="M93.59999999999998 17.483 Q92.42999999999998 18.601 90.96099999999998 19.576 89.49199999999999 20.551 88.47799999999998 20.551 87.28199999999998 20.551 87.28199999999998 18.705 87.28199999999998 16.755 88.65999999999998 14.376 90.03799999999998 11.997 92.15699999999998 10.306999999999999 94.27599999999998 8.616999999999999 96.17399999999998 8.616999999999999 97.18799999999999 8.616999999999999 97.18799999999999 9.370999999999999 97.18799999999999 10.671 95.49799999999999 12.309 95.34199999999998 12.465 94.82199999999999 12.855 94.30199999999999 13.245 94.09399999999998 13.245 93.96399999999998 13.245 93.96399999999998 13.114999999999998 L94.04199999999999 12.881 Q95.08199999999998 11.035 95.08199999999998 10.072999999999999 95.08199999999998 9.552999999999999 94.74399999999999 9.552999999999999 93.93799999999999 9.552999999999999 92.70299999999999 11.126 91.46799999999999 12.698999999999998 90.55799999999999 14.713999999999999 89.64799999999998 16.729 89.64799999999998 17.899 89.64799999999998 18.835 90.32399999999998 18.835 91.49399999999999 18.835 93.26199999999999 17.145 94.63999999999999 15.870999999999999 97.21399999999998 12.933 97.29199999999999 12.855 97.34399999999998 12.855 97.39599999999999 12.855 97.39599999999999 12.959 97.39599999999999 13.453 97.00599999999999 13.921 95.08199999999998 16.052999999999997 93.59999999999998 17.483 z" /><path d="M101.26999999999998 14.623 Q101.06199999999998 14.623 101.06199999999998 14.466999999999999 101.06199999999998 14.389 101.13999999999999 14.259 102.67399999999998 11.866999999999999 102.67399999999998 10.982999999999999 102.67399999999998 10.748999999999999 102.49199999999999 10.748999999999999 101.71199999999999 10.748999999999999 98.82599999999998 14.285 97.96799999999999 15.376999999999999 97.22699999999999 16.547 96.48599999999999 17.717 96.19999999999999 18.340999999999998 L95.88799999999999 18.939 Q95.57599999999998 19.563 94.92599999999999 20.096 94.27599999999998 20.628999999999998 93.57399999999998 20.628999999999998 93.20999999999998 20.628999999999998 93.20999999999998 20.447 93.20999999999998 20.291 93.43099999999998 19.797 93.65199999999999 19.302999999999997 93.96399999999998 18.705 94.27599999999998 18.107 94.58799999999998 17.535 94.89999999999999 16.963 95.10799999999999 16.573 L95.34199999999998 16.183 98.07199999999999 11.424999999999999 Q99.65799999999999 8.434999999999999 101.39999999999999 8.434999999999999 101.63399999999999 8.434999999999999 101.63399999999999 8.616999999999999 101.63399999999999 8.850999999999999 100.50299999999999 10.554 99.37199999999999 12.257 99.18999999999998 12.725 99.13799999999999 12.881 99.13799999999999 12.907 99.13799999999999 12.959 99.18999999999998 12.959 99.24199999999999 12.959 99.37199999999999 12.829 101.32199999999999 10.619 103.50599999999999 8.902999999999999 103.63599999999998 8.773 104.07799999999999 8.526 104.51999999999998 8.279 104.85799999999999 8.279 105.35199999999999 8.279 105.35199999999999 9.136999999999999 105.35199999999999 10.072999999999999 104.72799999999998 11.373 104.10399999999998 12.672999999999998 103.03799999999998 13.661 L102.93399999999998 13.765 Q102.82999999999998 13.843 102.71299999999998 13.934 102.59599999999999 14.024999999999999 102.41399999999999 14.155 102.23199999999999 14.285 102.04999999999998 14.376 101.86799999999998 14.466999999999999 101.65999999999998 14.544999999999998 101.45199999999998 14.623 101.26999999999998 14.623 z" /><path d="M105.92399999999998 17.483 Q102.88199999999999 20.343 102.02399999999999 20.343 101.58199999999998 20.343 101.58199999999998 19.744999999999997 101.58199999999998 19.147 102.04999999999998 18.003 102.51799999999999 16.858999999999998 102.98599999999999 16.000999999999998 L103.45399999999998 15.169 Q105.42999999999998 11.710999999999999 106.44399999999999 10.203 106.88599999999998 9.552999999999999 107.57499999999999 9.097999999999999 108.26399999999998 8.642999999999999 108.86199999999998 8.642999999999999 109.06999999999998 8.642999999999999 109.06999999999998 8.825 109.06999999999998 8.955 108.88799999999998 9.318999999999999 108.57599999999998 9.891 107.35399999999998 12.049 106.13199999999999 14.206999999999999 105.89799999999998 14.649 104.83199999999998 16.521 104.83199999999998 17.145 104.83199999999998 17.378999999999998 104.98799999999999 17.378999999999998 105.24799999999999 17.378999999999998 106.65199999999999 16.079 107.74399999999999 14.986999999999998 109.53799999999998 12.933 109.61599999999999 12.855 109.66799999999998 12.855 109.71999999999998 12.855 109.71999999999998 12.959 109.71999999999998 13.453 109.32999999999998 13.921 107.40599999999998 16.052999999999997 105.92399999999998 17.483 zM109.38199999999998 7.161 Q108.73199999999999 7.161 108.73199999999999 6.381 108.73199999999999 5.6530000000000005 109.27799999999998 4.911999999999999 109.82399999999998 4.170999999999999 110.47399999999999 4.170999999999999 111.25399999999999 4.170999999999999 111.25399999999999 5.055 111.25399999999999 5.7829999999999995 110.65599999999998 6.4719999999999995 110.05799999999998 7.161 109.38199999999998 7.161 z" /><path d="M108.02999999999999 19.069 Q107.89999999999998 19.302999999999997 107.89999999999998 19.537 107.89999999999998 20.005 108.62799999999999 20.005 109.38199999999998 20.005 110.21399999999998 19.316 111.04599999999998 18.627 111.70899999999999 17.652 112.37199999999999 16.677 112.93099999999998 15.701999999999998 113.48999999999998 14.727 113.77599999999998 14.024999999999999 L114.08799999999998 13.349 Q114.76399999999998 11.658999999999999 114.76399999999998 10.879 114.76399999999998 10.333 114.37399999999998 10.333 114.13999999999999 10.333 113.90599999999998 10.488999999999999 113.07399999999998 11.008999999999999 111.60499999999999 13.154 110.13599999999998 15.299 109.09599999999999 17.197 L108.02999999999999 19.069 zM113.56799999999998 7.057 Q113.74999999999999 7.057 113.74999999999999 7.264999999999999 113.74999999999999 7.629 113.32099999999998 8.668999999999999 112.89199999999998 9.709 112.47599999999998 10.540999999999999 L112.03399999999998 11.399 Q112.00799999999998 11.450999999999999 112.00799999999998 11.503 112.00799999999998 11.581 112.05999999999999 11.581 112.11199999999998 11.581 112.21599999999998 11.476999999999999 112.29399999999998 11.347 112.44999999999999 11.165 112.60599999999998 10.982999999999999 113.07399999999998 10.475999999999999 113.54199999999999 9.969 113.97099999999999 9.591999999999999 114.39999999999998 9.215 114.95899999999999 8.902999999999999 115.51799999999999 8.591 115.95999999999998 8.591 116.97399999999999 8.591 116.97399999999999 10.254999999999999 116.97399999999999 11.607 116.16799999999998 13.582999999999998 116.16799999999998 13.634999999999998 115.86899999999999 14.311 115.56999999999998 14.986999999999998 114.91999999999999 16.052999999999997 114.26999999999998 17.119 113.43799999999999 18.119999999999997 112.60599999999998 19.121 111.37099999999998 19.849 110.13599999999998 20.576999999999998 108.83599999999998 20.576999999999998 108.47199999999998 20.576999999999998 108.15999999999998 20.486 107.84799999999998 20.395 107.69199999999998 20.304 107.53599999999999 20.212999999999997 107.48399999999998 20.212999999999997 L107.30199999999998 20.317 Q106.59999999999998 21.357 105.06599999999999 24.165 103.53199999999998 26.973 102.62199999999999 28.871 102.49199999999999 29.104999999999997 102.28399999999998 29.494999999999997 102.07599999999998 29.884999999999998 101.47799999999998 30.899 100.87999999999998 31.912999999999997 100.34699999999998 32.68 99.81399999999998 33.447 99.17699999999998 34.083999999999996 98.53999999999998 34.721 98.09799999999998 34.721 97.83799999999998 34.721 97.83799999999998 34.486999999999995 97.83799999999998 33.785 99.35899999999998 30.886 100.87999999999998 27.987 102.41399999999999 25.412999999999997 L103.94799999999998 22.865 Q107.71799999999999 16.287 109.82399999999998 12.413 109.87599999999998 12.309 109.97999999999999 12.113999999999999 110.08399999999999 11.918999999999999 110.39599999999999 11.36 110.70799999999998 10.801 110.99399999999999 10.293999999999999 111.27999999999999 9.786999999999999 111.66999999999999 9.176 112.05999999999999 8.565 112.39799999999998 8.11 112.73599999999999 7.654999999999999 113.04799999999999 7.356 113.35999999999999 7.057 113.56799999999998 7.057 z" /><path d="M120.56199999999998 16.079 Q121.65399999999998 14.986999999999998 123.44799999999998 12.933 123.52599999999998 12.855 123.57799999999999 12.855 123.62999999999998 12.855 123.62999999999998 12.959 123.62999999999998 13.453 123.23999999999998 13.921 121.31599999999999 16.052999999999997 119.83399999999999 17.483 116.71399999999998 20.499 115.69999999999999 20.499 115.33599999999998 20.499 115.33599999999998 20.031 115.33599999999998 19.485 115.75199999999998 18.393 116.16799999999998 17.301 116.58399999999999 16.468999999999998 L116.99999999999999 15.663 Q117.59799999999998 14.597 118.97599999999998 12.023 120.35399999999998 9.449 121.64099999999998 7.161 122.92799999999998 4.872999999999999 124.07199999999997 3.027000000000001 L122.01799999999999 3.027000000000001 Q121.75799999999998 3.027000000000001 121.75799999999998 2.8969999999999985 121.75799999999998 2.7669999999999995 121.96599999999998 2.6370000000000005 122.17399999999998 2.5070000000000014 122.40799999999999 2.5070000000000014 122.97999999999998 2.5070000000000014 124.40999999999998 2.480999999999998 125.68399999999998 0.4789999999999992 126.59399999999998 -0.690999999999999 127.39999999999998 -1.7049999999999983 127.71199999999999 -1.7049999999999983 127.89399999999998 -1.7049999999999983 127.89399999999998 -1.471 127.89399999999998 -0.9250000000000007 126.90599999999998 0.8689999999999998 L126.02199999999998 2.480999999999998 128.7 2.480999999999998 Q128.93399999999997 2.480999999999998 128.93399999999997 2.6110000000000007 128.93399999999997 3.027000000000001 128.17999999999998 3.027000000000001 L125.73599999999999 3.027000000000001 Q119.72999999999998 14.415 119.41799999999998 14.960999999999999 118.32599999999998 16.963 118.32599999999998 17.561 118.32599999999998 17.743 118.45599999999999 17.743 118.81999999999998 17.743 120.56199999999998 16.079 z" /></g></svg>