<svg width="170" height="30" xmlns="http://www.w3.org/2000/svg" viewBox="0 0 170 30"><g fill="currentColor"><path d="M12.584 23.605999999999998 L11.309999999999999 18.536 5.096 18.536 3.718 23.476 0.38999999999999996 23.215999999999998 2.678 16.898 6.162 5.718 10.815999999999999 5.379999999999999 14.17 16.508 16.328 23.034 12.584 23.605999999999998 zM8.475999999999999 8.76 L8.138 8.76 5.902 15.78 10.53 15.78 8.475999999999999 8.76 z" /><path d="M21.554 13.466 Q21.554 13.466 20.93 14.285 20.306 15.104 20.306 16.794 20.306 18.483999999999998 20.942999999999998 19.511 21.58 20.538 22.802 20.538 23.426 20.538 24.024 20.148 24.622 19.758 24.933999999999997 19.368 L25.22 18.951999999999998 26.52 20.304 Q26.442 20.433999999999997 26.325 20.668 26.208 20.902 25.753 21.5 25.298000000000002 22.098 24.791 22.553 24.284 23.008 23.478 23.384999999999998 22.672 23.762 21.788 23.762 19.838 23.762 18.616 22.176 17.394 20.59 17.394 18.041999999999998 17.394 14.87 19.24 12.478 21.086 10.086 23.556 10.086 24.31 10.086 25.064 10.307 25.817999999999998 10.528 26.598 10.996 L24.778 14.193999999999999 Q23.842 13.466 22.698 13.466 z" /><path d="M35.776 15.104 Q35.776 15.104 35.464 14.506 35.152 13.908 34.008 13.908 32.864000000000004 13.908 31.408 14.818 L31.408 16.716 31.694000000000003 22.826 28.21 23.476 28.522000000000002 17.158 Q28.418000000000003 13.674 27.950000000000003 10.918 L31.096 10.241999999999999 Q31.278000000000002 11.75 31.356 13.18 31.746000000000002 12.66 32.24 12.153 32.734 11.645999999999999 33.800000000000004 11.009 34.866 10.372 35.958 10.372 37.05 10.372 37.804 11.074 38.558 11.776 38.766000000000005 12.998 40.924 10.372 43.134 10.372 44.512 10.372 45.318 11.295 46.124 12.218 46.124 13.804 L45.968 16.716 46.254000000000005 22.956 42.744 23.605999999999998 43.056 16.898 Q43.056 15.104 42.744 14.506 42.432 13.908 41.314 13.908 40.196 13.908 38.792 14.766 L38.688 16.716 38.974000000000004 22.956 35.464 23.605999999999998 35.776 16.898 Q35.776 15.104 35.464 14.506 z" /><path d="M53.794000000000004 20.823999999999998 Q54.548 20.823999999999998 55.38 20.433999999999997 56.212 20.044 56.68 19.654 L57.148 19.264 58.344 20.72 Q58.084 21.162 57.538000000000004 21.733999999999998 56.992000000000004 22.305999999999997 56.433 22.709 55.874 23.112 54.951 23.436999999999998 54.028 23.762 53.04 23.762 50.934000000000005 23.762 49.608000000000004 22.163 48.282000000000004 20.564 48.282000000000004 18.041999999999998 48.282000000000004 14.87 50.128 12.478 51.974000000000004 10.086 54.444 10.086 56.342 10.086 57.395 11.152 58.448 12.218 58.448 14.142 58.448 15.286 58.058 16.741999999999997 L57.538000000000004 17.288 51.038000000000004 17.886 Q51.480000000000004 20.823999999999998 53.794000000000004 20.823999999999998 zM53.794000000000004 12.764 Q52.65 12.764 51.870000000000005 13.687 51.09 14.61 50.96 16.04 L55.38 15.494 Q55.458 14.895999999999999 55.458 14.506 55.458 12.764 53.794000000000004 12.764 z" /></g></svg>