<svg width="170" height="30" xmlns="http://www.w3.org/2000/svg" viewBox="0 0 170 30"><g fill="currentColor"><path d="M1.037109375 14.64404296875 Q1.037109375 13.19384765625 1.48974609375 11.94140625 1.9423828125 10.68896484375 2.85205078125 9.76611328125 3.76171875 8.84326171875 5.12841796875 8.31591796875 6.4951171875 7.78857421875 8.33203125 7.78857421875 9.6416015625 7.78857421875 10.86767578125 8.18408203125 12.09375 8.57958984375 13.1572265625 9.53759765625 L14.23828125 7.92041015625 14.8447265625 7.92041015625 14.8447265625 13.62451171875 14.1591796875 13.62451171875 Q13.8427734375 12.22705078125 13.30224609375 11.30419921875 12.76171875 10.38134765625 12.11572265625 9.83203125 11.4697265625 9.28271484375 10.77099609375 9.05859375 10.072265625 8.83447265625 9.4482421875 8.83447265625 9.1494140625 8.83447265625 8.85498046875 8.8828125 8.560546875 8.93115234375 8.2880859375 9.1025390625 8.015625 9.27392578125 7.7783203125 9.59912109375 7.541015625 9.92431640625 7.36962890625 10.482421875 7.1982421875 11.04052734375 7.09716796875 11.85791015625 6.99609375 12.67529296875 6.99609375 13.82666015625 6.99609375 15.56689453125 7.07080078125 16.77099609375 7.1455078125 17.97509765625 7.32568359375 18.7177734375 7.505859375 19.46044921875 7.80029296875 19.79443359375 8.0947265625 20.12841796875 8.5341796875 20.12841796875 8.8857421875 20.12841796875 9.087890625 19.98779296875 9.2900390625 19.84716796875 9.38671875 19.53515625 9.4833984375 19.22314453125 9.50537109375 18.7265625 9.52734375 18.22998046875 9.52734375 17.50927734375 L9.52734375 15.01318359375 7.892578125 15.01318359375 7.892578125 14.31884765625 16.259765625 14.31884765625 16.259765625 15.01318359375 14.8447265625 15.01318359375 14.8447265625 20.91064453125 14.2998046875 20.91064453125 Q13.8779296875 20.47998046875 13.4384765625 20.31298828125 12.9990234375 20.14599609375 12.5068359375 20.14599609375 12.0322265625 20.14599609375 11.548828125 20.25146484375 11.0654296875 20.35693359375 10.51171875 20.49755859375 9.8876953125 20.64697265625 9.18017578125 20.783203125 8.47265625 20.91943359375 7.6201171875 20.91943359375 6.1171875 20.91943359375 4.904296875 20.42724609375 3.69140625 19.93505859375 2.830078125 19.08251953125 1.96875 18.22998046875 1.5029296875 17.08740234375 1.037109375 15.94482421875 1.037109375 14.64404296875 z" /><path d="M17.5869140625 19.94384765625 L19.125 19.94384765625 19.125 11.42724609375 17.5869140625 11.42724609375 17.5869140625 10.79443359375 24.3544921875 10.79443359375 24.3544921875 11.91943359375 Q24.6357421875 11.57666015625 25.0224609375 11.30859375 25.4091796875 11.04052734375 25.87939453125 10.8515625 26.349609375 10.66259765625 26.89013671875 10.5615234375 27.4306640625 10.46044921875 28.0107421875 10.46044921875 28.6171875 10.46044921875 29.1005859375 10.60986328125 29.583984375 10.75927734375 29.9267578125 11.0185546875 30.26953125 11.27783203125 30.44970703125 11.6337890625 30.6298828125 11.98974609375 30.6298828125 12.40283203125 30.6298828125 12.79833984375 30.43212890625 13.14990234375 30.234375 13.50146484375 29.88720703125 13.76513671875 29.5400390625 14.02880859375 29.07421875 14.1826171875 28.6083984375 14.33642578125 28.0810546875 14.33642578125 27.5537109375 14.33642578125 27.087890625 14.1826171875 26.6220703125 14.02880859375 26.27490234375 13.76513671875 25.927734375 13.50146484375 25.7255859375 13.14990234375 25.5234375 12.79833984375 25.5234375 12.40283203125 25.5234375 12.20068359375 25.58056640625 12.0029296875 25.6376953125 11.80517578125 25.734375 11.62939453125 25.5498046875 11.71728515625 25.30810546875 11.8974609375 25.06640625 12.07763671875 24.85546875 12.34130859375 24.64453125 12.60498046875 24.49951171875 12.9521484375 24.3544921875 13.29931640625 24.3544921875 13.70361328125 L24.3544921875 19.94384765625 26.0595703125 19.94384765625 26.0595703125 20.57666015625 17.5869140625 20.57666015625 17.5869140625 19.94384765625 z" /><path d="M31.95703125 18.27392578125 Q31.95703125 17.59716796875 32.2119140625 17.109375 32.466796875 16.62158203125 32.9326171875 16.283203125 33.3984375 15.94482421875 34.048828125 15.73828125 34.69921875 15.53173828125 35.49462890625 15.41748046875 36.2900390625 15.30322265625 37.2041015625 15.263671875 38.1181640625 15.22412109375 39.1025390625 15.22412109375 L39.1025390625 14.73193359375 Q39.1025390625 13.60693359375 38.94873046875 12.93017578125 38.794921875 12.25341796875 38.48291015625 11.89306640625 38.1708984375 11.53271484375 37.7138671875 11.4228515625 37.2568359375 11.31298828125 36.650390625 11.31298828125 36.3251953125 11.31298828125 35.96044921875 11.36572265625 35.595703125 11.41845703125 35.314453125 11.48876953125 35.71875 11.53271484375 36.0615234375 11.69091796875 36.404296875 11.84912109375 36.650390625 12.08642578125 36.896484375 12.32373046875 37.03271484375 12.61376953125 37.1689453125 12.90380859375 37.1689453125 13.20263671875 37.1689453125 13.57177734375 36.984375 13.89697265625 36.7998046875 14.22216796875 36.474609375 14.4638671875 36.1494140625 14.70556640625 35.71875 14.84619140625 35.2880859375 14.98681640625 34.7958984375 14.98681640625 34.3037109375 14.98681640625 33.87744140625 14.84619140625 33.451171875 14.70556640625 33.13037109375 14.4638671875 32.8095703125 14.22216796875 32.625 13.89697265625 32.4404296875 13.57177734375 32.4404296875 13.20263671875 32.4404296875 12.71044921875 32.70849609375 12.31494140625 32.9765625 11.91943359375 33.43798828125 11.6162109375 33.8994140625 11.31298828125 34.52783203125 11.09326171875 35.15625 10.87353515625 35.876953125 10.73291015625 36.59765625 10.59228515625 37.37548828125 10.5263671875 38.1533203125 10.46044921875 38.9267578125 10.46044921875 40.2978515625 10.46044921875 41.31298828125 10.6494140625 42.328125 10.83837890625 43.00048828125 11.3173828125 43.6728515625 11.79638671875 44.0068359375 12.626953125 44.3408203125 13.45751953125 44.3408203125 14.73193359375 L44.3408203125 18.41455078125 Q44.3408203125 19.07373046875 44.47705078125 19.4296875 44.61328125 19.78564453125 44.982421875 19.78564453125 45.1669921875 19.78564453125 45.28564453125 19.6669921875 45.404296875 19.54833984375 45.47021484375 19.35498046875 45.5361328125 19.16162109375 45.5625 18.90673828125 45.5888671875 18.65185546875 45.5888671875 18.38818359375 L45.5888671875 17.51806640625 46.37109375 17.51806640625 46.37109375 18.38818359375 Q46.37109375 19.09130859375 46.19091796875 19.57470703125 46.0107421875 20.05810546875 45.56689453125 20.35693359375 45.123046875 20.65576171875 44.38037109375 20.783203125 43.6376953125 20.91064453125 42.5126953125 20.91064453125 41.94140625 20.91064453125 41.44482421875 20.84912109375 40.9482421875 20.78759765625 40.53955078125 20.63818359375 40.130859375 20.48876953125 39.83203125 20.24267578125 39.533203125 19.99658203125 39.357421875 19.62744140625 39.09375 20.03173828125 38.654296875 20.2822265625 38.21484375 20.53271484375 37.705078125 20.67333984375 37.1953125 20.81396484375 36.6767578125 20.8623046875 36.158203125 20.91064453125 35.7275390625 20.91064453125 34.69921875 20.91064453125 33.978515625 20.6953125 33.2578125 20.47998046875 32.8095703125 20.11962890625 32.361328125 19.75927734375 32.1591796875 19.2802734375 31.95703125 18.80126953125 31.95703125 18.27392578125 zM37.0283203125 18.17724609375 Q37.0283203125 18.82763671875 37.265625 19.2275390625 37.5029296875 19.62744140625 38.0478515625 19.62744140625 38.5048828125 19.62744140625 38.8037109375 19.2978515625 39.1025390625 18.96826171875 39.1025390625 18.41455078125 L39.1025390625 16.03271484375 Q38.4697265625 16.03271484375 38.0654296875 16.14697265625 37.6611328125 16.26123046875 37.42822265625 16.51171875 37.1953125 16.76220703125 37.11181640625 17.17529296875 37.0283203125 17.58837890625 37.0283203125 18.17724609375 z" /><path d="M48.4453125 11.42724609375 L46.916015625 11.42724609375 46.916015625 10.79443359375 55.107421875 10.79443359375 55.107421875 11.42724609375 53.9296875 11.42724609375 56.3291015625 17.37744140625 Q56.513671875 16.89404296875 56.7333984375 16.318359375 56.953125 15.74267578125 57.17724609375 15.15380859375 57.4013671875 14.56494140625 57.6123046875 14.01123046875 57.8232421875 13.45751953125 57.990234375 13.01806640625 58.1572265625 12.57861328125 58.2626953125 12.28857421875 58.3681640625 11.99853515625 58.3857421875 11.94580078125 58.412109375 11.88427734375 58.412109375 11.84033203125 58.412109375 11.72607421875 58.29345703125 11.64697265625 58.1748046875 11.56787109375 57.95947265625 11.51953125 57.744140625 11.47119140625 57.44970703125 11.44921875 57.1552734375 11.42724609375 56.8037109375 11.42724609375 L56.8037109375 10.79443359375 60.8994140625 10.79443359375 60.8994140625 11.42724609375 Q60.5126953125 11.42724609375 60.23583984375 11.4580078125 59.958984375 11.48876953125 59.77001953125 11.5546875 59.5810546875 11.62060546875 59.46240234375 11.72607421875 59.34375 11.83154296875 59.2822265625 11.98095703125 59.2119140625 12.13037109375 59.0625 12.521484375 58.9130859375 12.91259765625 58.7021484375 13.45751953125 58.4912109375 14.00244140625 58.24072265625 14.666015625 57.990234375 15.32958984375 57.7265625 16.03271484375 57.462890625 16.73583984375 57.20361328125 17.43017578125 56.9443359375 18.12451171875 56.72021484375 18.73095703125 56.49609375 19.33740234375 56.3203125 19.82080078125 56.14453125 20.30419921875 56.0478515625 20.57666015625 L52.27734375 20.57666015625 48.4453125 11.42724609375 z" /><path d="M65.5400390625 9.90673828125 Q65.0302734375 9.90673828125 64.5556640625 9.8056640625 64.0810546875 9.70458984375 63.720703125 9.48046875 63.3603515625 9.25634765625 63.140625 8.90478515625 62.9208984375 8.55322265625 62.9208984375 8.04345703125 62.9208984375 7.53369140625 63.140625 7.177734375 63.3603515625 6.82177734375 63.720703125 6.59765625 64.0810546875 6.37353515625 64.5556640625 6.2724609375 65.0302734375 6.17138671875 65.5400390625 6.17138671875 66.041015625 6.17138671875 66.515625 6.2724609375 66.990234375 6.37353515625 67.3505859375 6.59765625 67.7109375 6.82177734375 67.9306640625 7.17333984375 68.150390625 7.52490234375 68.150390625 8.03466796875 68.150390625 8.54443359375 67.9306640625 8.900390625 67.7109375 9.25634765625 67.3505859375 9.48046875 66.990234375 9.70458984375 66.515625 9.8056640625 66.041015625 9.90673828125 65.5400390625 9.90673828125 zM61.4794921875 19.94384765625 L63.017578125 19.94384765625 63.017578125 11.42724609375 61.4794921875 11.42724609375 61.4794921875 10.79443359375 68.2470703125 10.79443359375 68.2470703125 19.94384765625 69.78515625 19.94384765625 69.78515625 20.57666015625 61.4794921875 20.57666015625 61.4794921875 19.94384765625 z" /><path d="M71.982421875 11.42724609375 L70.4443359375 11.42724609375 70.4443359375 10.79443359375 71.982421875 10.79443359375 Q72.8701171875 10.79443359375 73.57763671875 10.4912109375 74.28515625 10.18798828125 74.78173828125 9.7001953125 75.2783203125 9.21240234375 75.5419921875 8.60595703125 75.8056640625 7.99951171875 75.8056640625 7.39306640625 L77.2119140625 7.39306640625 77.2119140625 10.79443359375 80.0419921875 10.79443359375 80.0419921875 11.42724609375 77.2119140625 11.42724609375 77.2119140625 16.84130859375 Q77.2119140625 17.78173828125 77.31298828125 18.375 77.4140625 18.96826171875 77.60302734375 19.30224609375 77.7919921875 19.63623046875 78.05126953125 19.7548828125 78.310546875 19.87353515625 78.626953125 19.87353515625 78.9345703125 19.87353515625 79.224609375 19.7373046875 79.5146484375 19.60107421875 79.734375 19.2978515625 79.9541015625 18.99462890625 80.0859375 18.5068359375 80.2177734375 18.01904296875 80.2177734375 17.30712890625 80.2177734375 17.14013671875 80.208984375 16.9599609375 80.2001953125 16.77978515625 80.1826171875 16.58642578125 L80.9208984375 16.58642578125 Q80.947265625 17.02587890625 80.947265625 17.38623046875 80.947265625 18.48486328125 80.64404296875 19.1748046875 80.3408203125 19.86474609375 79.7783203125 20.25146484375 79.2158203125 20.63818359375 78.41162109375 20.77880859375 77.607421875 20.91943359375 76.60546875 20.91943359375 75.48046875 20.91943359375 74.619140625 20.69970703125 73.7578125 20.47998046875 73.1689453125 20.0009765625 72.580078125 19.52197265625 72.28125 18.76611328125 71.982421875 18.01025390625 71.982421875 16.92919921875 L71.982421875 11.42724609375 z" /><path d="M82.265625 18.27392578125 Q82.265625 17.59716796875 82.5205078125 17.109375 82.775390625 16.62158203125 83.2412109375 16.283203125 83.70703125 15.94482421875 84.357421875 15.73828125 85.0078125 15.53173828125 85.80322265625 15.41748046875 86.5986328125 15.30322265625 87.5126953125 15.263671875 88.4267578125 15.22412109375 89.4111328125 15.22412109375 L89.4111328125 14.73193359375 Q89.4111328125 13.60693359375 89.25732421875 12.93017578125 89.103515625 12.25341796875 88.79150390625 11.89306640625 88.4794921875 11.53271484375 88.0224609375 11.4228515625 87.5654296875 11.31298828125 86.958984375 11.31298828125 86.6337890625 11.31298828125 86.26904296875 11.36572265625 85.904296875 11.41845703125 85.623046875 11.48876953125 86.02734375 11.53271484375 86.3701171875 11.69091796875 86.712890625 11.84912109375 86.958984375 12.08642578125 87.205078125 12.32373046875 87.34130859375 12.61376953125 87.4775390625 12.90380859375 87.4775390625 13.20263671875 87.4775390625 13.57177734375 87.29296875 13.89697265625 87.1083984375 14.22216796875 86.783203125 14.4638671875 86.4580078125 14.70556640625 86.02734375 14.84619140625 85.5966796875 14.98681640625 85.1044921875 14.98681640625 84.6123046875 14.98681640625 84.18603515625 14.84619140625 83.759765625 14.70556640625 83.43896484375 14.4638671875 83.1181640625 14.22216796875 82.93359375 13.89697265625 82.7490234375 13.57177734375 82.7490234375 13.20263671875 82.7490234375 12.71044921875 83.01708984375 12.31494140625 83.28515625 11.91943359375 83.74658203125 11.6162109375 84.2080078125 11.31298828125 84.83642578125 11.09326171875 85.46484375 10.87353515625 86.185546875 10.73291015625 86.90625 10.59228515625 87.68408203125 10.5263671875 88.4619140625 10.46044921875 89.2353515625 10.46044921875 90.6064453125 10.46044921875 91.62158203125 10.6494140625 92.63671875 10.83837890625 93.30908203125 11.3173828125 93.9814453125 11.79638671875 94.3154296875 12.626953125 94.6494140625 13.45751953125 94.6494140625 14.73193359375 L94.6494140625 18.41455078125 Q94.6494140625 19.07373046875 94.78564453125 19.4296875 94.921875 19.78564453125 95.291015625 19.78564453125 95.4755859375 19.78564453125 95.59423828125 19.6669921875 95.712890625 19.54833984375 95.77880859375 19.35498046875 95.8447265625 19.16162109375 95.87109375 18.90673828125 95.8974609375 18.65185546875 95.8974609375 18.38818359375 L95.8974609375 17.51806640625 96.6796875 17.51806640625 96.6796875 18.38818359375 Q96.6796875 19.09130859375 96.49951171875 19.57470703125 96.3193359375 20.05810546875 95.87548828125 20.35693359375 95.431640625 20.65576171875 94.68896484375 20.783203125 93.9462890625 20.91064453125 92.8212890625 20.91064453125 92.25 20.91064453125 91.75341796875 20.84912109375 91.2568359375 20.78759765625 90.84814453125 20.63818359375 90.439453125 20.48876953125 90.140625 20.24267578125 89.841796875 19.99658203125 89.666015625 19.62744140625 89.40234375 20.03173828125 88.962890625 20.2822265625 88.5234375 20.53271484375 88.013671875 20.67333984375 87.50390625 20.81396484375 86.9853515625 20.8623046875 86.466796875 20.91064453125 86.0361328125 20.91064453125 85.0078125 20.91064453125 84.287109375 20.6953125 83.56640625 20.47998046875 83.1181640625 20.11962890625 82.669921875 19.75927734375 82.4677734375 19.2802734375 82.265625 18.80126953125 82.265625 18.27392578125 zM87.3369140625 18.17724609375 Q87.3369140625 18.82763671875 87.57421875 19.2275390625 87.8115234375 19.62744140625 88.3564453125 19.62744140625 88.8134765625 19.62744140625 89.1123046875 19.2978515625 89.4111328125 18.96826171875 89.4111328125 18.41455078125 L89.4111328125 16.03271484375 Q88.7783203125 16.03271484375 88.3740234375 16.14697265625 87.9697265625 16.26123046875 87.73681640625 16.51171875 87.50390625 16.76220703125 87.42041015625 17.17529296875 87.3369140625 17.58837890625 87.3369140625 18.17724609375 z" /><path d="M98.384765625 16.74462890625 L99.03515625 16.74462890625 Q99.4130859375 17.41259765625 100.0810546875 18.0234375 100.7490234375 18.63427734375 101.58837890625 19.1044921875 102.427734375 19.57470703125 103.3681640625 19.85595703125 104.30859375 20.13720703125 105.240234375 20.13720703125 105.626953125 20.13720703125 105.9873046875 20.09765625 106.34765625 20.05810546875 106.6201171875 19.9482421875 106.892578125 19.83837890625 107.05517578125 19.65380859375 107.2177734375 19.46923828125 107.2177734375 19.17919921875 107.2177734375 18.88037109375 106.94970703125 18.6826171875 106.681640625 18.48486328125 106.224609375 18.35302734375 105.767578125 18.22119140625 105.17431640625 18.13330078125 104.5810546875 18.04541015625 103.939453125 17.95751953125 102.779296875 17.80810546875 101.7685546875 17.56201171875 100.7578125 17.31591796875 100.0107421875 16.88525390625 99.263671875 16.45458984375 98.83740234375 15.79541015625 98.4111328125 15.13623046875 98.4111328125 14.16064453125 98.4111328125 13.26416015625 98.81103515625 12.57421875 99.2109375 11.88427734375 99.9228515625 11.4140625 100.634765625 10.94384765625 101.6103515625 10.7021484375 102.5859375 10.46044921875 103.7373046875 10.46044921875 104.2822265625 10.46044921875 104.84033203125 10.56591796875 105.3984375 10.67138671875 105.92138671875 10.8427734375 106.4443359375 11.01416015625 106.91455078125 11.23828125 107.384765625 11.46240234375 107.7626953125 11.69091796875 L108.9404296875 10.56591796875 109.669921875 10.56591796875 109.669921875 14.02880859375 109.0458984375 14.02880859375 Q108.685546875 13.42236328125 108.13623046875 12.90380859375 107.5869140625 12.38525390625 106.892578125 12.00732421875 106.1982421875 11.62939453125 105.3896484375 11.4140625 104.5810546875 11.19873046875 103.7021484375 11.19873046875 103.271484375 11.19873046875 102.9111328125 11.24267578125 102.55078125 11.28662109375 102.287109375 11.38330078125 102.0234375 11.47998046875 101.87841796875 11.63818359375 101.7333984375 11.79638671875 101.7333984375 12.01611328125 101.7333984375 12.31494140625 101.953125 12.50830078125 102.1728515625 12.70166015625 102.60791015625 12.8466796875 103.04296875 12.99169921875 103.6845703125 13.10595703125 104.326171875 13.22021484375 105.1787109375 13.35205078125 106.259765625 13.52783203125 107.19140625 13.78271484375 108.123046875 14.03759765625 108.80419921875 14.47705078125 109.4853515625 14.91650390625 109.87646484375 15.59326171875 110.267578125 16.27001953125 110.267578125 17.29833984375 110.267578125 18.13330078125 109.94677734375 18.8056640625 109.6259765625 19.47802734375 108.99755859375 19.94384765625 108.369140625 20.40966796875 107.4462890625 20.66015625 106.5234375 20.91064453125 105.328125 20.91064453125 104.765625 20.91064453125 104.115234375 20.80078125 103.46484375 20.69091796875 102.82763671875 20.484375 102.1904296875 20.27783203125 101.619140625 19.9833984375 101.0478515625 19.68896484375 100.65234375 19.31982421875 L99.1142578125 20.77880859375 98.384765625 20.77880859375 98.384765625 16.74462890625 z" /><path d="M118.6962890625 14.34521484375 Q118.6962890625 13.47509765625 118.87646484375 12.64892578125 119.056640625 11.82275390625 119.43896484375 11.09326171875 119.8212890625 10.36376953125 120.4189453125 9.75732421875 121.0166015625 9.15087890625 121.8515625 8.71142578125 122.6865234375 8.27197265625 123.7763671875 8.0302734375 124.8662109375 7.78857421875 126.228515625 7.78857421875 127.5908203125 7.78857421875 128.6806640625 8.0302734375 129.7705078125 8.27197265625 130.60986328125 8.71142578125 131.44921875 9.15087890625 132.046875 9.75732421875 132.64453125 10.36376953125 133.0224609375 11.09326171875 133.400390625 11.82275390625 133.58056640625 12.64892578125 133.7607421875 13.47509765625 133.7607421875 14.34521484375 133.7607421875 15.21533203125 133.58056640625 16.0458984375 133.400390625 16.87646484375 133.0224609375 17.60595703125 132.64453125 18.33544921875 132.046875 18.94189453125 131.44921875 19.54833984375 130.60986328125 19.98779296875 129.7705078125 20.42724609375 128.6806640625 20.6689453125 127.5908203125 20.91064453125 126.228515625 20.91064453125 124.8662109375 20.91064453125 123.7763671875 20.6689453125 122.6865234375 20.42724609375 121.8515625 19.98779296875 121.0166015625 19.54833984375 120.4189453125 18.94189453125 119.8212890625 18.33544921875 119.43896484375 17.60595703125 119.056640625 16.87646484375 118.87646484375 16.05029296875 118.6962890625 15.22412109375 118.6962890625 14.34521484375 zM126.228515625 20.30419921875 Q126.685546875 20.30419921875 126.98876953125 20.03173828125 127.2919921875 19.75927734375 127.4765625 19.078125 127.6611328125 18.39697265625 127.73583984375 17.25 127.810546875 16.10302734375 127.810546875 14.34521484375 127.810546875 12.59619140625 127.73583984375 11.44921875 127.6611328125 10.30224609375 127.4765625 9.62109375 127.2919921875 8.93994140625 126.98876953125 8.66748046875 126.685546875 8.39501953125 126.228515625 8.39501953125 125.771484375 8.39501953125 125.46826171875 8.66748046875 125.1650390625 8.93994140625 124.98486328125 9.62109375 124.8046875 10.30224609375 124.72998046875 11.44921875 124.6552734375 12.59619140625 124.6552734375 14.34521484375 124.6552734375 16.10302734375 124.72998046875 17.25 124.8046875 18.39697265625 124.98486328125 19.078125 125.1650390625 19.75927734375 125.46826171875 20.03173828125 125.771484375 20.30419921875 126.228515625 20.30419921875 z" /><path d="M135.5009765625 19.94384765625 L137.0390625 19.94384765625 137.0390625 11.42724609375 135.5009765625 11.42724609375 135.5009765625 10.79443359375 142.2685546875 10.79443359375 142.2685546875 11.91943359375 Q142.5498046875 11.57666015625 142.94970703125 11.30419921875 143.349609375 11.03173828125 143.8330078125 10.8427734375 144.31640625 10.65380859375 144.86572265625 10.55712890625 145.4150390625 10.46044921875 145.9951171875 10.46044921875 147.1904296875 10.46044921875 147.96826171875 10.7724609375 148.74609375 11.08447265625 149.1943359375 11.66015625 149.642578125 12.23583984375 149.818359375 13.0576171875 149.994140625 13.87939453125 149.994140625 14.89013671875 L149.994140625 19.94384765625 151.5322265625 19.94384765625 151.5322265625 20.57666015625 143.8857421875 20.57666015625 143.8857421875 19.94384765625 144.7646484375 19.94384765625 144.7646484375 14.89013671875 Q144.7646484375 13.98486328125 144.7119140625 13.4091796875 144.6591796875 12.83349609375 144.52734375 12.50390625 144.3955078125 12.17431640625 144.17578125 12.046875 143.9560546875 11.91943359375 143.6220703125 11.91943359375 143.2880859375 11.91943359375 143.033203125 12.06005859375 142.7783203125 12.20068359375 142.60693359375 12.45556640625 142.435546875 12.71044921875 142.35205078125 13.06201171875 142.2685546875 13.41357421875 142.2685546875 13.82666015625 L142.2685546875 19.94384765625 143.138671875 19.94384765625 143.138671875 20.57666015625 135.5009765625 20.57666015625 135.5009765625 19.94384765625 z" /><path d="M152.6044921875 15.59326171875 Q152.6044921875 14.41552734375 153.087890625 13.46630859375 153.5712890625 12.51708984375 154.42822265625 11.84912109375 155.28515625 11.18115234375 156.45849609375 10.82080078125 157.6318359375 10.46044921875 159.0029296875 10.46044921875 160.0576171875 10.46044921875 160.91455078125 10.67138671875 161.771484375 10.88232421875 162.43505859375 11.2470703125 163.0986328125 11.61181640625 163.57763671875 12.11279296875 164.056640625 12.61376953125 164.36865234375 13.19384765625 164.6806640625 13.77392578125 164.830078125 14.4111328125 164.9794921875 15.04833984375 164.9794921875 15.68994140625 L157.9306640625 15.68994140625 Q157.9306640625 17.03466796875 158.04931640625 17.87841796875 158.16796875 18.72216796875 158.42724609375 19.201171875 158.6865234375 19.68017578125 159.09521484375 19.85595703125 159.50390625 20.03173828125 160.083984375 20.03173828125 160.822265625 20.03173828125 161.47265625 19.84716796875 162.123046875 19.66259765625 162.63720703125 19.32421875 163.1513671875 18.98583984375 163.494140625 18.5068359375 163.8369140625 18.02783203125 163.9599609375 17.43017578125 L164.7861328125 17.43017578125 Q164.6982421875 18.24755859375 164.28515625 18.8935546875 163.8720703125 19.53955078125 163.19091796875 19.98779296875 162.509765625 20.43603515625 161.59130859375 20.67333984375 160.6728515625 20.91064453125 159.5830078125 20.91064453125 157.869140625 20.91064453125 156.56396484375 20.5546875 155.2587890625 20.19873046875 154.3798828125 19.517578125 153.5009765625 18.83642578125 153.052734375 17.84765625 152.6044921875 16.85888671875 152.6044921875 15.59326171875 zM160.400390625 14.80224609375 Q160.3740234375 13.70361328125 160.294921875 12.97412109375 160.2158203125 12.24462890625 160.06640625 11.80517578125 159.9169921875 11.36572265625 159.697265625 11.185546875 159.4775390625 11.00537109375 159.169921875 11.00537109375 158.8623046875 11.00537109375 158.63818359375 11.185546875 158.4140625 11.36572265625 158.2646484375 11.80517578125 158.115234375 12.24462890625 158.0361328125 12.97412109375 157.95703125 13.70361328125 157.939453125 14.80224609375 L160.400390625 14.80224609375 z" /></g></svg>