<svg width="170" height="30" xmlns="http://www.w3.org/2000/svg" viewBox="0 0 170 30"><g fill="currentColor"><path d="M0.90234375 21.50390625 L2.91796875 21.1640625 4.08984375 5.77734375 1.8046875 5.578125 1.8046875 4.30078125 7.20703125 4.30078125 11.42578125 17.07421875 11.96484375 18.796875 12.50390625 17.02734375 16.53515625 4.30078125 21.515625 4.30078125 21.515625 5.578125 19.32421875 5.77734375 20.6484375 21.15234375 22.6640625 21.50390625 22.6640625 22.5 16.5703125 22.5 16.5703125 21.50390625 18.4921875 21.1640625 17.53125 10.1953125 17.4140625 6.140625 16.93359375 8.05078125 12 22.67578125 11.21484375 22.67578125 6.71484375 9.85546875 Q6.375 8.90625 6.05859375 7.9453125 5.7421875 6.984375 5.4140625 6.0234375 L5.3203125 10.03125 4.74609375 21.15234375 6.97265625 21.50390625 6.97265625 22.5 0.90234375 22.5 0.90234375 21.50390625 z" /><path d="M24.33984375 15.984375 Q24.33984375 14.484375 24.814453125 13.21875 25.2890625 11.953125 26.138671875 11.02734375 26.98828125 10.1015625 28.18359375 9.568359375 29.37890625 9.03515625 30.8203125 9 31.8515625 8.9765625 32.68359375 9.298828125 33.515625 9.62109375 34.1015625 10.25390625 34.6875 10.88671875 35.021484375 11.80078125 35.35546875 12.71484375 35.40234375 13.875 35.42578125 14.61328125 35.373046875 15.15234375 35.3203125 15.69140625 35.26171875 16.11328125 L26.578125 16.11328125 Q26.578125 16.18359375 26.578125 16.248046875 26.578125 16.3125 26.58984375 16.3828125 26.63671875 17.80078125 27.0703125 18.7265625 27.50390625 19.65234375 28.154296875 20.197265625 28.8046875 20.7421875 29.58984375 20.958984375 30.375 21.17578125 31.125 21.17578125 31.58203125 21.17578125 32.0859375 21.123046875 32.58984375 21.0703125 33.064453125 20.970703125 33.5390625 20.87109375 33.943359375 20.7421875 34.34765625 20.61328125 34.59375 20.47265625 L35.02734375 21.46875 Q34.6875 21.7734375 34.142578125 22.01953125 33.59765625 22.265625 32.953125 22.435546875 32.30859375 22.60546875 31.60546875 22.693359375 30.90234375 22.78125 30.234375 22.78125 28.81640625 22.78125 27.720703125 22.294921875 26.625 21.80859375 25.875 20.923828125 25.125 20.0390625 24.732421875 18.78515625 24.33984375 17.53125 24.33984375 15.984375 zM33.01171875 14.73046875 Q33.046875 14.1328125 33.029296875 13.529296875 33.01171875 12.92578125 32.8828125 12.380859375 32.75390625 11.8359375 32.490234375 11.384765625 32.2265625 10.93359375 31.78125 10.65234375 31.4765625 10.453125 31.08984375 10.353515625 30.703125 10.25390625 30.2109375 10.25390625 29.5546875 10.25390625 28.939453125 10.5 28.32421875 10.74609375 27.837890625 11.28515625 27.3515625 11.82421875 27.0234375 12.673828125 26.6953125 13.5234375 26.6015625 14.73046875 L33.01171875 14.73046875 z" /><path d="M37.8984375 21.50390625 L39.796875 21.2578125 39.796875 11.71875 38.1328125 10.8046875 38.1328125 10.078125 41.2265625 9.15234375 41.77734375 9.38671875 41.77734375 11.19140625 Q42 10.86328125 42.451171875 10.5 42.90234375 10.13671875 43.46484375 9.837890625 44.02734375 9.5390625 44.63671875 9.345703125 45.24609375 9.15234375 45.78515625 9.15234375 46.171875 9.15234375 46.482421875 9.169921875 46.79296875 9.1875 46.921875 9.234375 L46.921875 11.63671875 Q46.734375 11.56640625 46.53515625 11.490234375 46.3359375 11.4140625 46.095703125 11.361328125 45.85546875 11.30859375 45.55078125 11.2734375 45.24609375 11.23828125 44.84765625 11.23828125 43.8984375 11.23828125 43.25390625 11.478515625 42.609375 11.71875 42.0703125 12.05859375 L42.0703125 21.22265625 45.41015625 21.50390625 45.41015625 22.5 37.8984375 22.5 37.8984375 21.50390625 z" /><path d="M48.71484375 21.50390625 L50.61328125 21.2578125 50.61328125 11.71875 48.94921875 10.8046875 48.94921875 10.078125 52.04296875 9.15234375 52.59375 9.38671875 52.59375 11.19140625 Q52.81640625 10.86328125 53.267578125 10.5 53.71875 10.13671875 54.28125 9.837890625 54.84375 9.5390625 55.453125 9.345703125 56.0625 9.15234375 56.6015625 9.15234375 56.98828125 9.15234375 57.298828125 9.169921875 57.609375 9.1875 57.73828125 9.234375 L57.73828125 11.63671875 Q57.55078125 11.56640625 57.3515625 11.490234375 57.15234375 11.4140625 56.912109375 11.361328125 56.671875 11.30859375 56.3671875 11.2734375 56.0625 11.23828125 55.6640625 11.23828125 54.71484375 11.23828125 54.0703125 11.478515625 53.42578125 11.71875 52.88671875 12.05859375 L52.88671875 21.22265625 56.2265625 21.50390625 56.2265625 22.5 48.71484375 22.5 48.71484375 21.50390625 z" /><path d="M62.12109375 6.38671875 Q61.83984375 6.38671875 61.5703125 6.287109375 61.30078125 6.1875 61.095703125 6.005859375 60.890625 5.82421875 60.767578125 5.5546875 60.64453125 5.28515625 60.64453125 4.9453125 60.64453125 4.58203125 60.802734375 4.265625 60.9609375 3.94921875 61.20703125 3.720703125 61.453125 3.4921875 61.763671875 3.36328125 62.07421875 3.234375 62.390625 3.234375 63.1640625 3.234375 63.521484375 3.662109375 63.87890625 4.08984375 63.87890625 4.6875 63.87890625 5.07421875 63.7265625 5.390625 63.57421875 5.70703125 63.328125 5.923828125 63.08203125 6.140625 62.765625 6.263671875 62.44921875 6.38671875 62.12109375 6.38671875 zM59.53125 21.50390625 L61.5234375 21.2578125 61.5234375 11.66015625 59.90625 10.8046875 59.90625 10.078125 63.15234375 9.15234375 63.6796875 9.38671875 63.6796875 21.2578125 65.578125 21.50390625 65.578125 22.5 59.53125 22.5 59.53125 21.50390625 z" /><path d="M67.44140625 10.83984375 L66.24609375 10.62890625 66.24609375 9.38671875 71.35546875 9.38671875 71.35546875 10.62890625 69.73828125 10.875 71.94140625 18.0234375 72.57421875 20.56640625 73.1015625 18.03515625 75.328125 9.38671875 77.34375 9.38671875 79.60546875 18.0234375 80.2734375 20.56640625 80.91796875 18.1171875 82.74609375 10.8515625 81.29296875 10.62890625 81.29296875 9.38671875 86.02734375 9.38671875 86.02734375 10.6171875 84.5625 10.88671875 81.0703125 22.79296875 79.0078125 22.79296875 76.4765625 13.86328125 76.171875 12.1171875 75.7265625 13.86328125 73.37109375 22.79296875 71.42578125 22.79296875 67.44140625 10.83984375 z" /><path d="M87.22265625 15.984375 Q87.22265625 14.484375 87.697265625 13.21875 88.171875 11.953125 89.021484375 11.02734375 89.87109375 10.1015625 91.06640625 9.568359375 92.26171875 9.03515625 93.703125 9 94.734375 8.9765625 95.56640625 9.298828125 96.3984375 9.62109375 96.984375 10.25390625 97.5703125 10.88671875 97.904296875 11.80078125 98.23828125 12.71484375 98.28515625 13.875 98.30859375 14.61328125 98.255859375 15.15234375 98.203125 15.69140625 98.14453125 16.11328125 L89.4609375 16.11328125 Q89.4609375 16.18359375 89.4609375 16.248046875 89.4609375 16.3125 89.47265625 16.3828125 89.51953125 17.80078125 89.953125 18.7265625 90.38671875 19.65234375 91.037109375 20.197265625 91.6875 20.7421875 92.47265625 20.958984375 93.2578125 21.17578125 94.0078125 21.17578125 94.46484375 21.17578125 94.96875 21.123046875 95.47265625 21.0703125 95.947265625 20.970703125 96.421875 20.87109375 96.826171875 20.7421875 97.23046875 20.61328125 97.4765625 20.47265625 L97.91015625 21.46875 Q97.5703125 21.7734375 97.025390625 22.01953125 96.48046875 22.265625 95.8359375 22.435546875 95.19140625 22.60546875 94.48828125 22.693359375 93.78515625 22.78125 93.1171875 22.78125 91.69921875 22.78125 90.603515625 22.294921875 89.5078125 21.80859375 88.7578125 20.923828125 88.0078125 20.0390625 87.615234375 18.78515625 87.22265625 17.53125 87.22265625 15.984375 zM95.89453125 14.73046875 Q95.9296875 14.1328125 95.912109375 13.529296875 95.89453125 12.92578125 95.765625 12.380859375 95.63671875 11.8359375 95.373046875 11.384765625 95.109375 10.93359375 94.6640625 10.65234375 94.359375 10.453125 93.97265625 10.353515625 93.5859375 10.25390625 93.09375 10.25390625 92.4375 10.25390625 91.822265625 10.5 91.20703125 10.74609375 90.720703125 11.28515625 90.234375 11.82421875 89.90625 12.673828125 89.578125 13.5234375 89.484375 14.73046875 L95.89453125 14.73046875 z" /><path d="M100.7578125 18.7265625 Q100.83984375 17.90625 101.28515625 17.291015625 101.73046875 16.67578125 102.38671875 16.23046875 103.04296875 15.78515625 103.845703125 15.4921875 104.6484375 15.19921875 105.45703125 15.0234375 106.265625 14.84765625 107.015625 14.77734375 107.765625 14.70703125 108.31640625 14.70703125 L108.31640625 13.6875 Q108.31640625 12.76171875 108.0703125 12.181640625 107.82421875 11.6015625 107.390625 11.2734375 106.95703125 10.9453125 106.37109375 10.828125 105.78515625 10.7109375 105.10546875 10.7109375 104.765625 10.7109375 104.34375 10.775390625 103.921875 10.83984375 103.470703125 10.95703125 103.01953125 11.07421875 102.5625 11.23828125 102.10546875 11.40234375 101.6953125 11.6015625 L101.26171875 10.546875 Q101.6953125 10.1953125 102.322265625 9.931640625 102.94921875 9.66796875 103.611328125 9.4921875 104.2734375 9.31640625 104.900390625 9.234375 105.52734375 9.15234375 105.97265625 9.15234375 106.8984375 9.15234375 107.736328125 9.345703125 108.57421875 9.5390625 109.20703125 10.025390625 109.83984375 10.51171875 110.208984375 11.337890625 110.578125 12.1640625 110.578125 13.44140625 L110.5546875 21.50390625 112.0546875 21.50390625 112.0546875 22.27734375 Q111.64453125 22.5 111.041015625 22.640625 110.4375 22.78125 109.828125 22.78125 109.6171875 22.78125 109.37109375 22.751953125 109.125 22.72265625 108.919921875 22.60546875 108.71484375 22.48828125 108.580078125 22.2421875 108.4453125 21.99609375 108.4453125 21.5625 L108.4453125 21.234375 Q108.17578125 21.5625 107.806640625 21.84375 107.4375 22.125 106.962890625 22.3359375 106.48828125 22.546875 105.884765625 22.6640625 105.28125 22.78125 104.54296875 22.78125 103.62890625 22.78125 102.884765625 22.453125 102.140625 22.125 101.642578125 21.568359375 101.14453125 21.01171875 100.904296875 20.279296875 100.6640625 19.546875 100.7578125 18.7265625 zM103.03125 18.7734375 Q103.03125 19.46484375 103.21875 19.9453125 103.40625 20.42578125 103.763671875 20.724609375 104.12109375 21.0234375 104.63671875 21.158203125 105.15234375 21.29296875 105.796875 21.29296875 106.1484375 21.29296875 106.51171875 21.19921875 106.875 21.10546875 107.208984375 20.96484375 107.54296875 20.82421875 107.830078125 20.642578125 108.1171875 20.4609375 108.29296875 20.28515625 108.29296875 19.18359375 108.298828125 18.099609375 108.3046875 17.015625 108.31640625 15.9140625 107.82421875 15.9140625 107.23828125 15.966796875 106.65234375 16.01953125 106.06640625 16.1484375 105.48046875 16.27734375 104.9296875 16.48828125 104.37890625 16.69921875 103.95703125 17.021484375 103.53515625 17.34375 103.283203125 17.77734375 103.03125 18.2109375 103.03125 18.7734375 z" /><path d="M115.98046875 19.4296875 Q115.98046875 17.2734375 115.986328125 15.146484375 115.9921875 13.01953125 115.9921875 10.86328125 L114.19921875 10.86328125 114.19921875 9.984375 Q114.71484375 9.85546875 115.060546875 9.779296875 115.40625 9.703125 115.634765625 9.603515625 115.86328125 9.50390625 116.015625 9.3515625 116.16796875 9.19921875 116.296875 8.90625 116.37890625 8.70703125 116.501953125 8.3203125 116.625 7.93359375 116.736328125 7.529296875 116.84765625 7.125 116.9296875 6.767578125 117.01171875 6.41015625 117.03515625 6.2578125 L118.1953125 6.2578125 118.1953125 9.38671875 122.1328125 9.38671875 122.1328125 10.86328125 118.1953125 10.86328125 118.1953125 16.76953125 Q118.1953125 18.12890625 118.23046875 18.978515625 118.265625 19.828125 118.40625 20.30859375 118.546875 20.7890625 118.81640625 20.958984375 119.0859375 21.12890625 119.56640625 21.12890625 119.859375 21.12890625 120.216796875 21.0703125 120.57421875 21.01171875 120.908203125 20.9296875 121.2421875 20.84765625 121.5234375 20.748046875 121.8046875 20.6484375 121.9453125 20.5546875 L122.30859375 21.5859375 Q122.0390625 21.87890625 121.59375 22.1015625 121.1484375 22.32421875 120.626953125 22.4765625 120.10546875 22.62890625 119.583984375 22.705078125 119.0625 22.78125 118.6640625 22.78125 117.38671875 22.78125 116.68359375 21.99609375 115.98046875 21.2109375 115.98046875 19.4296875 z" /><path d="M124.44140625 21.50390625 L126.19921875 21.2578125 126.19921875 5.390625 124.1953125 4.96875 124.1953125 3.94921875 127.8984375 3.45703125 128.44921875 3.7265625 128.42578125 8.90625 128.390625 10.93359375 Q128.90625 10.51171875 129.509765625 10.18359375 130.11328125 9.85546875 130.72265625 9.626953125 131.33203125 9.3984375 131.912109375 9.275390625 132.4921875 9.15234375 132.9609375 9.15234375 134.15625 9.15234375 134.91796875 9.515625 135.6796875 9.87890625 136.119140625 10.634765625 136.55859375 11.390625 136.72265625 12.57421875 136.88671875 13.7578125 136.875 15.38671875 L136.875 21.2578125 138.6328125 21.50390625 138.6328125 22.5 132.65625 22.5 132.65625 21.50390625 134.625 21.2578125 134.625 16.3828125 Q134.625 15.0234375 134.560546875 13.9921875 134.49609375 12.9609375 134.220703125 12.263671875 133.9453125 11.56640625 133.39453125 11.21484375 132.84375 10.86328125 131.87109375 10.86328125 131.484375 10.86328125 131.05078125 10.91015625 130.6171875 10.95703125 130.177734375 11.068359375 129.73828125 11.1796875 129.298828125 11.3671875 128.859375 11.5546875 128.44921875 11.84765625 L128.44921875 21.2578125 130.171875 21.50390625 130.171875 22.5 124.44140625 22.5 124.44140625 21.50390625 z" /><path d="M140.61328125 15.984375 Q140.61328125 14.484375 141.087890625 13.21875 141.5625 11.953125 142.412109375 11.02734375 143.26171875 10.1015625 144.45703125 9.568359375 145.65234375 9.03515625 147.09375 9 148.125 8.9765625 148.95703125 9.298828125 149.7890625 9.62109375 150.375 10.25390625 150.9609375 10.88671875 151.294921875 11.80078125 151.62890625 12.71484375 151.67578125 13.875 151.69921875 14.61328125 151.646484375 15.15234375 151.59375 15.69140625 151.53515625 16.11328125 L142.8515625 16.11328125 Q142.8515625 16.18359375 142.8515625 16.248046875 142.8515625 16.3125 142.86328125 16.3828125 142.91015625 17.80078125 143.34375 18.7265625 143.77734375 19.65234375 144.427734375 20.197265625 145.078125 20.7421875 145.86328125 20.958984375 146.6484375 21.17578125 147.3984375 21.17578125 147.85546875 21.17578125 148.359375 21.123046875 148.86328125 21.0703125 149.337890625 20.970703125 149.8125 20.87109375 150.216796875 20.7421875 150.62109375 20.61328125 150.8671875 20.47265625 L151.30078125 21.46875 Q150.9609375 21.7734375 150.416015625 22.01953125 149.87109375 22.265625 149.2265625 22.435546875 148.58203125 22.60546875 147.87890625 22.693359375 147.17578125 22.78125 146.5078125 22.78125 145.08984375 22.78125 143.994140625 22.294921875 142.8984375 21.80859375 142.1484375 20.923828125 141.3984375 20.0390625 141.005859375 18.78515625 140.61328125 17.53125 140.61328125 15.984375 zM149.28515625 14.73046875 Q149.3203125 14.1328125 149.302734375 13.529296875 149.28515625 12.92578125 149.15625 12.380859375 149.02734375 11.8359375 148.763671875 11.384765625 148.5 10.93359375 148.0546875 10.65234375 147.75 10.453125 147.36328125 10.353515625 146.9765625 10.25390625 146.484375 10.25390625 145.828125 10.25390625 145.212890625 10.5 144.59765625 10.74609375 144.111328125 11.28515625 143.625 11.82421875 143.296875 12.673828125 142.96875 13.5234375 142.875 14.73046875 L149.28515625 14.73046875 z" /><path d="M154.171875 21.50390625 L156.0703125 21.2578125 156.0703125 11.71875 154.40625 10.8046875 154.40625 10.078125 157.5 9.15234375 158.05078125 9.38671875 158.05078125 11.19140625 Q158.2734375 10.86328125 158.724609375 10.5 159.17578125 10.13671875 159.73828125 9.837890625 160.30078125 9.5390625 160.91015625 9.345703125 161.51953125 9.15234375 162.05859375 9.15234375 162.4453125 9.15234375 162.755859375 9.169921875 163.06640625 9.1875 163.1953125 9.234375 L163.1953125 11.63671875 Q163.0078125 11.56640625 162.80859375 11.490234375 162.609375 11.4140625 162.369140625 11.361328125 162.12890625 11.30859375 161.82421875 11.2734375 161.51953125 11.23828125 161.12109375 11.23828125 160.171875 11.23828125 159.52734375 11.478515625 158.8828125 11.71875 158.34375 12.05859375 L158.34375 21.22265625 161.68359375 21.50390625 161.68359375 22.5 154.171875 22.5 154.171875 21.50390625 z" /></g></svg>