<svg width="170" height="30" xmlns="http://www.w3.org/2000/svg" viewBox="0 0 170 30"><g fill="currentColor"><path d="M4.784 22.942999999999998 L12.844 22.942999999999998 12.844 25.061999999999998 2.262 25.061999999999998 2.262 6.433 4.784 6.433 4.784 22.942999999999998 z" /><path d="M24.933999999999997 25.061999999999998 L23.906999999999996 25.061999999999998 Q23.569 25.061999999999998 23.360999999999997 24.958 23.153 24.854 23.088 24.516 L22.828 23.293999999999997 Q22.308 23.761999999999997 21.814 24.132499999999997 21.32 24.502999999999997 20.773999999999997 24.7565 20.227999999999998 25.009999999999998 19.6105 25.139999999999997 18.993 25.269999999999996 18.238999999999997 25.269999999999996 17.471999999999998 25.269999999999996 16.8025 25.0555 16.133 24.840999999999998 15.639 24.412 15.145 23.982999999999997 14.8525 23.3265 14.559999999999999 22.669999999999998 14.559999999999999 21.772999999999996 14.559999999999999 20.993 14.988999999999999 20.271499999999996 15.418 19.549999999999997 16.3735 18.991 17.329 18.432 18.875999999999998 18.074499999999997 20.423 17.717 22.659 17.665 L22.659 16.637999999999998 Q22.659 15.103999999999997 22.002499999999998 14.317499999999997 21.345999999999997 13.530999999999999 20.058999999999997 13.530999999999999 19.214 13.530999999999999 18.6355 13.745499999999998 18.057 13.959999999999997 17.6345 14.226499999999998 17.212 14.492999999999999 16.906499999999998 14.707499999999998 16.601 14.921999999999999 16.302 14.921999999999999 16.067999999999998 14.921999999999999 15.892499999999998 14.798499999999999 15.716999999999999 14.674999999999999 15.613 14.492999999999999 L15.197 13.751999999999999 Q16.288999999999998 12.698999999999998 17.549999999999997 12.178999999999998 18.811 11.658999999999999 20.345 11.658999999999999 21.45 11.658999999999999 22.308 12.022999999999998 23.165999999999997 12.386999999999999 23.750999999999998 13.036999999999999 24.336 13.686999999999998 24.634999999999998 14.609999999999998 24.933999999999997 15.532999999999998 24.933999999999997 16.637999999999998 L24.933999999999997 25.061999999999998 zM18.927999999999997 23.644999999999996 Q19.538999999999998 23.644999999999996 20.046 23.521499999999996 20.552999999999997 23.397999999999996 21.0015 23.170499999999997 21.45 22.942999999999998 21.859499999999997 22.618 22.269 22.293 22.659 21.877 L22.659 19.133999999999997 Q21.06 19.186 19.942 19.387499999999996 18.823999999999998 19.589 18.122 19.913999999999998 17.419999999999998 20.238999999999997 17.101499999999998 20.680999999999997 16.782999999999998 21.122999999999998 16.782999999999998 21.668999999999997 16.782999999999998 22.188999999999997 16.951999999999998 22.566 17.121 22.942999999999998 17.407 23.1835 17.692999999999998 23.424 18.083 23.534499999999998 18.473 23.644999999999996 18.927999999999997 23.644999999999996 z" /><path d="M32.435 25.269999999999996 Q30.875 25.269999999999996 30.0365 24.398999999999997 29.198 23.528 29.198 21.889999999999997 L29.198 13.829999999999998 27.612 13.829999999999998 Q27.404 13.829999999999998 27.261 13.706499999999998 27.118 13.582999999999998 27.118 13.322999999999999 L27.118 12.399999999999999 29.276 12.126999999999999 29.808999999999997 8.058 Q29.835 7.8629999999999995 29.977999999999998 7.7395 30.121 7.616 30.342 7.616 L31.512 7.616 31.512 12.152999999999999 35.282 12.152999999999999 35.282 13.829999999999998 31.512 13.829999999999998 31.512 21.733999999999998 Q31.512 22.566 31.915 22.968999999999998 32.318 23.371999999999996 32.955 23.371999999999996 33.319 23.371999999999996 33.585499999999996 23.274499999999996 33.852 23.176999999999996 34.047 23.06 34.242 22.942999999999998 34.3785 22.845499999999998 34.515 22.747999999999998 34.619 22.747999999999998 34.801 22.747999999999998 34.944 22.968999999999998 L35.62 24.073999999999998 Q35.022 24.633 34.177 24.9515 33.332 25.269999999999996 32.435 25.269999999999996 z" /><path d="M43.472 11.684999999999999 Q44.915 11.684999999999999 46.0785 12.165999999999999 47.242 12.646999999999998 48.0545 13.530999999999999 48.867 14.414999999999997 49.302499999999995 15.669499999999998 49.738 16.924 49.738 18.470999999999997 49.738 20.031 49.302499999999995 21.278999999999996 48.867 22.526999999999997 48.0545 23.410999999999998 47.242 24.294999999999998 46.0785 24.769499999999997 44.915 25.243999999999996 43.472 25.243999999999996 42.028999999999996 25.243999999999996 40.8655 24.769499999999997 39.702 24.294999999999998 38.883 23.410999999999998 38.064 22.526999999999997 37.622 21.278999999999996 37.18 20.031 37.18 18.470999999999997 37.18 16.924 37.622 15.669499999999998 38.064 14.414999999999997 38.883 13.530999999999999 39.702 12.646999999999998 40.8655 12.165999999999999 42.028999999999996 11.684999999999999 43.472 11.684999999999999 zM43.472 23.436999999999998 Q45.422 23.436999999999998 46.384 22.130499999999998 47.346000000000004 20.823999999999998 47.346000000000004 18.483999999999998 47.346000000000004 16.131 46.384 14.817999999999998 45.422 13.504999999999999 43.472 13.504999999999999 42.484 13.504999999999999 41.756 13.842999999999998 41.028 14.180999999999997 40.5405 14.817999999999998 40.053 15.454999999999998 39.8125 16.384499999999996 39.572 17.314 39.572 18.483999999999998 39.572 19.653999999999996 39.8125 20.576999999999998 40.053 21.499999999999996 40.5405 22.130499999999998 41.028 22.761 41.756 23.098999999999997 42.484 23.436999999999998 43.472 23.436999999999998 z" /></g></svg>