<svg width="170" height="30" xmlns="http://www.w3.org/2000/svg" viewBox="0 0 170 30"><g fill="currentColor"><path d="M2.08 17.503999999999998 Q2.64 17.951999999999998 3.2880000000000003 18.232 3.936 18.512 4.5120000000000005 18.512 5.136 18.512 5.416 18.32 5.696 18.128 5.696 17.776 5.696 17.584 5.6000000000000005 17.456 5.5040000000000004 17.328 5.32 17.215999999999998 5.136 17.104 4.88 17 4.624 16.895999999999997 4.288 16.768 L2.992 16.223999999999997 Q2.576 16.064 2.192 15.799999999999999 1.808 15.535999999999998 1.52 15.175999999999998 1.232 14.815999999999999 1.064 14.351999999999999 0.896 13.887999999999998 0.896 13.328 0.896 12.655999999999999 1.184 12.072 1.472 11.487999999999998 1.984 11.047999999999998 2.496 10.607999999999999 3.208 10.351999999999999 3.92 10.095999999999998 4.768 10.095999999999998 5.664 10.095999999999998 6.5840000000000005 10.431999999999999 7.5040000000000004 10.767999999999999 8.224 11.487999999999998 L6.848 13.215999999999998 Q6.32 12.847999999999999 5.832 12.655999999999999 5.344 12.463999999999999 4.768 12.463999999999999 4.256 12.463999999999999 3.968 12.639999999999999 3.68 12.815999999999999 3.68 13.168 3.68 13.535999999999998 4.088 13.735999999999999 4.496 13.936 5.216 14.207999999999998 L6.48 14.703999999999999 Q7.456 15.087999999999997 7.984 15.776 8.512 16.464 8.512 17.552 8.512 18.208 8.24 18.816 7.968 19.424 7.448 19.88 6.928 20.336 6.176 20.608 5.424 20.88 4.448 20.88 3.456 20.88 2.408 20.52 1.36 20.16 0.512 19.392 L2.08 17.503999999999998 z" /><path d="M9.536000000000001 16.688 Q9.536000000000001 15.695999999999998 9.864 14.911999999999999 10.192 14.127999999999998 10.744000000000002 13.591999999999999 11.296000000000001 13.055999999999997 12.016000000000002 12.776 12.736 12.495999999999999 13.504000000000001 12.495999999999999 14.272000000000002 12.495999999999999 14.984000000000002 12.776 15.696000000000002 13.055999999999997 16.248 13.591999999999999 16.8 14.127999999999998 17.136000000000003 14.911999999999999 17.472 15.695999999999998 17.472 16.688 17.472 17.68 17.136000000000003 18.464 16.8 19.247999999999998 16.248 19.784 15.696000000000002 20.32 14.984000000000002 20.599999999999998 14.272000000000002 20.88 13.504000000000001 20.88 12.736 20.88 12.016000000000002 20.599999999999998 11.296000000000001 20.32 10.744000000000002 19.784 10.192 19.247999999999998 9.864 18.464 9.536000000000001 17.68 9.536000000000001 16.688 zM12.352 16.688 Q12.352 17.599999999999998 12.616000000000001 18.136 12.88 18.671999999999997 13.504000000000001 18.671999999999997 14.128 18.671999999999997 14.392000000000001 18.136 14.656 17.599999999999998 14.656 16.688 14.656 15.776 14.392000000000001 15.239999999999998 14.128 14.703999999999999 13.504000000000001 14.703999999999999 12.88 14.703999999999999 12.616000000000001 15.239999999999998 12.352 15.776 12.352 16.688 z" /><path d="M18.848000000000003 12.687999999999999 L21.6 12.687999999999999 21.6 17.264 Q21.6 18.032 21.792 18.288 21.984 18.543999999999997 22.400000000000002 18.543999999999997 22.784000000000002 18.543999999999997 23.032000000000004 18.384 23.28 18.224 23.552000000000003 17.84 L23.552000000000003 12.687999999999999 26.304000000000002 12.687999999999999 26.304000000000002 20.688 24.064 20.688 23.872 19.631999999999998 23.808 19.631999999999998 Q23.328000000000003 20.208 22.744 20.544 22.160000000000004 20.88 21.344 20.88 20.688000000000002 20.88 20.216 20.648 19.744000000000003 20.416 19.44 19.991999999999997 19.136000000000003 19.567999999999998 18.992 18.968 18.848000000000003 18.368 18.848000000000003 17.616 L18.848000000000003 12.687999999999999 z" /><path d="M28.16 12.687999999999999 L30.4 12.687999999999999 30.592 14.063999999999998 30.656 14.063999999999998 Q31.104 13.247999999999998 31.72 12.872 32.336 12.495999999999999 32.928 12.495999999999999 33.296 12.495999999999999 33.519999999999996 12.535999999999998 33.744 12.575999999999999 33.92 12.655999999999999 L33.472 15.024 Q33.248 14.975999999999999 33.048 14.936 32.848 14.895999999999999 32.576 14.895999999999999 32.144 14.895999999999999 31.672 15.191999999999998 31.2 15.488 30.912 16.24 L30.912 20.688 28.16 20.688 28.16 12.687999999999999 z" /><path d="M34.432 16.688 Q34.432 15.695999999999998 34.784 14.911999999999999 35.136 14.127999999999998 35.728 13.591999999999999 36.32 13.055999999999997 37.096000000000004 12.776 37.872 12.495999999999999 38.72 12.495999999999999 39.440000000000005 12.495999999999999 40.04 12.735999999999999 40.64 12.975999999999999 41.056000000000004 13.392 L39.808 15.087999999999997 Q39.536 14.863999999999999 39.32 14.783999999999999 39.104 14.703999999999999 38.88 14.703999999999999 38.112 14.703999999999999 37.68 15.239999999999998 37.248000000000005 15.776 37.248000000000005 16.688 37.248000000000005 17.599999999999998 37.688 18.136 38.128 18.671999999999997 38.784 18.671999999999997 39.168 18.671999999999997 39.480000000000004 18.512 39.792 18.352 40.064 18.16 L41.152 19.887999999999998 Q40.544000000000004 20.416 39.816 20.648 39.088 20.88 38.464 20.88 37.616 20.88 36.88 20.599999999999998 36.144000000000005 20.32 35.6 19.784 35.056000000000004 19.247999999999998 34.744 18.464 34.432 17.68 34.432 16.688 z" /><path d="M41.984 16.688 Q41.984 15.712 42.312000000000005 14.936 42.64 14.159999999999998 43.176 13.616 43.712 13.072 44.4 12.783999999999999 45.088 12.495999999999999 45.824 12.495999999999999 46.704 12.495999999999999 47.36 12.799999999999999 48.016000000000005 13.104 48.448 13.631999999999998 48.88 14.159999999999998 49.096000000000004 14.863999999999999 49.312 15.567999999999998 49.312 16.368 49.312 16.735999999999997 49.272 17.023999999999997 49.232 17.311999999999998 49.2 17.456 L44.64 17.456 Q44.832 18.224 45.328 18.512 45.824 18.799999999999997 46.496 18.799999999999997 46.912 18.799999999999997 47.304 18.68 47.696 18.56 48.128 18.32 L49.024 19.951999999999998 Q48.368 20.416 47.576 20.648 46.784 20.88 46.112 20.88 45.232 20.88 44.480000000000004 20.599999999999998 43.728 20.32 43.176 19.784 42.624 19.247999999999998 42.304 18.464 41.984 17.68 41.984 16.688 zM46.976 15.791999999999998 Q46.976 15.279999999999998 46.744 14.927999999999999 46.512 14.575999999999999 45.888000000000005 14.575999999999999 45.424 14.575999999999999 45.08 14.847999999999999 44.736000000000004 15.119999999999997 44.608000000000004 15.791999999999998 L46.976 15.791999999999998 z" /><path d="M55.328 17.503999999999998 Q55.888000000000005 17.951999999999998 56.536 18.232 57.184000000000005 18.512 57.760000000000005 18.512 58.38400000000001 18.512 58.664 18.32 58.944 18.128 58.944 17.776 58.944 17.584 58.848000000000006 17.456 58.752 17.328 58.568000000000005 17.215999999999998 58.38400000000001 17.104 58.12800000000001 17 57.87200000000001 16.895999999999997 57.536 16.768 L56.24 16.223999999999997 Q55.824000000000005 16.064 55.440000000000005 15.799999999999999 55.056000000000004 15.535999999999998 54.76800000000001 15.175999999999998 54.480000000000004 14.815999999999999 54.312000000000005 14.351999999999999 54.144000000000005 13.887999999999998 54.144000000000005 13.328 54.144000000000005 12.655999999999999 54.432 12.072 54.720000000000006 11.487999999999998 55.232000000000006 11.047999999999998 55.74400000000001 10.607999999999999 56.456 10.351999999999999 57.168000000000006 10.095999999999998 58.016000000000005 10.095999999999998 58.912000000000006 10.095999999999998 59.83200000000001 10.431999999999999 60.752 10.767999999999999 61.47200000000001 11.487999999999998 L60.096000000000004 13.215999999999998 Q59.568000000000005 12.847999999999999 59.080000000000005 12.655999999999999 58.592000000000006 12.463999999999999 58.016000000000005 12.463999999999999 57.504000000000005 12.463999999999999 57.21600000000001 12.639999999999999 56.928000000000004 12.815999999999999 56.928000000000004 13.168 56.928000000000004 13.535999999999998 57.336000000000006 13.735999999999999 57.74400000000001 13.936 58.464000000000006 14.207999999999998 L59.72800000000001 14.703999999999999 Q60.70400000000001 15.087999999999997 61.232000000000006 15.776 61.760000000000005 16.464 61.760000000000005 17.552 61.760000000000005 18.208 61.48800000000001 18.816 61.21600000000001 19.424 60.696000000000005 19.88 60.176 20.336 59.42400000000001 20.608 58.672000000000004 20.88 57.696000000000005 20.88 56.70400000000001 20.88 55.656000000000006 20.52 54.608000000000004 20.16 53.760000000000005 19.392 L55.328 17.503999999999998 z" /><path d="M62.944 18.415999999999997 Q62.944 17.168 63.968 16.456 64.992 15.744 67.296 15.503999999999998 67.2 14.671999999999999 66.176 14.671999999999999 65.744 14.671999999999999 65.26400000000001 14.84 64.784 15.008 64.16000000000001 15.343999999999998 L63.2 13.552 Q64.048 13.04 64.912 12.767999999999999 65.77600000000001 12.495999999999999 66.72 12.495999999999999 68.272 12.495999999999999 69.16000000000001 13.383999999999999 70.048 14.271999999999998 70.048 16.24 L70.048 20.688 67.808 20.688 67.616 19.919999999999998 67.552 19.919999999999998 Q67.072 20.352 66.536 20.616 66 20.88 65.34400000000001 20.88 64.784 20.88 64.33600000000001 20.68 63.888000000000005 20.48 63.57600000000001 20.144 63.264 19.808 63.104000000000006 19.36 62.944 18.912 62.944 18.415999999999997 zM65.56800000000001 18.192 Q65.56800000000001 18.768 66.304 18.768 66.64 18.768 66.85600000000001 18.616 67.072 18.464 67.296 18.224 L67.296 17.136 Q66.304 17.279999999999998 65.936 17.567999999999998 65.56800000000001 17.855999999999998 65.56800000000001 18.192 z" /><path d="M71.872 12.687999999999999 L74.11200000000001 12.687999999999999 74.304 13.648 74.36800000000001 13.648 Q74.848 13.183999999999997 75.464 12.84 76.08 12.495999999999999 76.896 12.495999999999999 78.208 12.495999999999999 78.8 13.383999999999999 79.392 14.271999999999998 79.392 15.759999999999998 L79.392 20.688 76.64 20.688 76.64 16.112 Q76.64 15.343999999999998 76.44800000000001 15.087999999999997 76.256 14.831999999999999 75.84 14.831999999999999 75.456 14.831999999999999 75.2 14.991999999999999 74.944 15.151999999999997 74.62400000000001 15.439999999999998 L74.62400000000001 20.688 71.872 20.688 71.872 12.687999999999999 z" /><path d="M81.76 18.064 Q82.848 18.863999999999997 83.712 18.863999999999997 84.144 18.863999999999997 84.328 18.744 84.512 18.624 84.512 18.384 84.512 18.224 84.384 18.104 84.256 17.983999999999998 84.04 17.88 83.824 17.776 83.552 17.68 83.28 17.584 82.976 17.456 82.624 17.311999999999998 82.264 17.112 81.904 16.912 81.616 16.624 81.328 16.336 81.144 15.959999999999999 80.96 15.584 80.96 15.087999999999997 80.96 14.495999999999999 81.19200000000001 14.015999999999998 81.424 13.535999999999998 81.84 13.2 82.256 12.863999999999999 82.84 12.679999999999998 83.424 12.495999999999999 84.128 12.495999999999999 85.12 12.495999999999999 85.832 12.823999999999998 86.544 13.151999999999997 87.072 13.552 L85.856 15.183999999999997 Q85.424 14.863999999999999 85.008 14.687999999999999 84.592 14.511999999999999 84.224 14.511999999999999 83.52 14.511999999999999 83.52 14.959999999999999 83.52 15.119999999999997 83.64 15.232 83.76 15.343999999999998 83.968 15.439999999999998 84.176 15.535999999999998 84.44800000000001 15.623999999999999 84.72 15.712 85.024 15.823999999999998 85.376 15.951999999999998 85.744 16.144 86.112 16.336 86.408 16.616 86.70400000000001 16.895999999999997 86.888 17.288 87.072 17.68 87.072 18.224 87.072 18.784 86.848 19.272 86.624 19.759999999999998 86.19200000000001 20.119999999999997 85.76 20.48 85.12 20.68 84.48 20.88 83.648 20.88 82.88 20.88 82.024 20.576 81.168 20.272 80.544 19.759999999999998 L81.76 18.064 z" /><path d="M92 10.287999999999998 L96.032 10.287999999999998 Q96.864 10.287999999999998 97.624 10.455999999999998 98.384 10.623999999999999 98.952 11.031999999999998 99.52 11.44 99.856 12.104 100.192 12.767999999999999 100.192 13.744 100.192 14.703999999999999 99.848 15.392 99.504 16.08 98.928 16.52 98.352 16.959999999999997 97.6 17.176 96.848 17.392 96.032 17.392 L94.752 17.392 94.752 20.688 92 20.688 92 10.287999999999998 zM95.904 15.215999999999998 Q96.72 15.215999999999998 97.112 14.831999999999999 97.504 14.447999999999999 97.504 13.744 97.504 13.04 97.088 12.751999999999999 96.672 12.463999999999999 95.904 12.463999999999999 L94.752 12.463999999999999 94.752 15.215999999999998 95.904 15.215999999999998 z" /><path d="M101.664 12.687999999999999 L103.90400000000001 12.687999999999999 104.096 14.063999999999998 104.16000000000001 14.063999999999998 Q104.608 13.247999999999998 105.224 12.872 105.84 12.495999999999999 106.432 12.495999999999999 106.80000000000001 12.495999999999999 107.024 12.535999999999998 107.248 12.575999999999999 107.424 12.655999999999999 L106.976 15.024 Q106.75200000000001 14.975999999999999 106.552 14.936 106.352 14.895999999999999 106.08 14.895999999999999 105.64800000000001 14.895999999999999 105.176 15.191999999999998 104.70400000000001 15.488 104.41600000000001 16.24 L104.41600000000001 20.688 101.664 20.688 101.664 12.687999999999999 z" /><path d="M107.936 16.688 Q107.936 15.695999999999998 108.26400000000001 14.911999999999999 108.59200000000001 14.127999999999998 109.144 13.591999999999999 109.69600000000001 13.055999999999997 110.41600000000001 12.776 111.13600000000001 12.495999999999999 111.90400000000001 12.495999999999999 112.67200000000001 12.495999999999999 113.384 12.776 114.096 13.055999999999997 114.64800000000001 13.591999999999999 115.2 14.127999999999998 115.536 14.911999999999999 115.87200000000001 15.695999999999998 115.87200000000001 16.688 115.87200000000001 17.68 115.536 18.464 115.2 19.247999999999998 114.64800000000001 19.784 114.096 20.32 113.384 20.599999999999998 112.67200000000001 20.88 111.90400000000001 20.88 111.13600000000001 20.88 110.41600000000001 20.599999999999998 109.69600000000001 20.32 109.144 19.784 108.59200000000001 19.247999999999998 108.26400000000001 18.464 107.936 17.68 107.936 16.688 zM110.75200000000001 16.688 Q110.75200000000001 17.599999999999998 111.016 18.136 111.28 18.671999999999997 111.90400000000001 18.671999999999997 112.528 18.671999999999997 112.792 18.136 113.05600000000001 17.599999999999998 113.05600000000001 16.688 113.05600000000001 15.776 112.792 15.239999999999998 112.528 14.703999999999999 111.90400000000001 14.703999999999999 111.28 14.703999999999999 111.016 15.239999999999998 110.75200000000001 15.776 110.75200000000001 16.688 z" /><path d="M120.89600000000002 10.287999999999998 L124.64000000000001 10.287999999999998 Q125.45600000000002 10.287999999999998 126.17600000000002 10.408 126.89600000000002 10.527999999999999 127.424 10.815999999999999 127.95200000000001 11.104 128.264 11.607999999999999 128.57600000000002 12.111999999999998 128.57600000000002 12.879999999999999 128.57600000000002 13.215999999999998 128.48000000000002 13.559999999999999 128.38400000000001 13.904 128.168 14.215999999999998 127.95200000000001 14.527999999999999 127.62400000000001 14.767999999999999 127.29600000000002 15.008 126.84800000000001 15.119999999999997 L126.84800000000001 15.183999999999997 Q127.95200000000001 15.407999999999998 128.50400000000002 15.991999999999999 129.056 16.576 129.056 17.616 129.056 18.415999999999997 128.728 19 128.4 19.584 127.84800000000001 19.959999999999997 127.29600000000002 20.336 126.54400000000001 20.512 125.79200000000002 20.688 124.96000000000001 20.688 L120.89600000000002 20.688 120.89600000000002 10.287999999999998 zM124.57600000000001 14.383999999999999 Q125.24800000000002 14.383999999999999 125.56800000000001 14.079999999999998 125.88800000000002 13.776 125.88800000000002 13.296 125.88800000000002 12.815999999999999 125.56800000000001 12.607999999999999 125.24800000000002 12.399999999999999 124.57600000000001 12.399999999999999 L123.64800000000001 12.399999999999999 123.64800000000001 14.383999999999999 124.57600000000001 14.383999999999999 zM124.76800000000001 18.576 Q126.36800000000001 18.576 126.36800000000001 17.392 126.36800000000001 16.816 125.97600000000001 16.56 125.58400000000002 16.304 124.76800000000001 16.304 L123.64800000000001 16.304 123.64800000000001 18.576 124.76800000000001 18.576 z" /><path d="M130.464 9.551999999999998 L133.216 9.551999999999998 133.216 17.968 Q133.216 18.384 133.368 18.528 133.52 18.671999999999997 133.664 18.671999999999997 133.744 18.671999999999997 133.8 18.671999999999997 133.856 18.671999999999997 133.952 18.64 L134.272 20.656 Q134.048 20.752 133.72 20.816 133.392 20.88 132.928 20.88 132.224 20.88 131.752 20.663999999999998 131.28 20.448 130.992 20.048 130.704 19.648 130.584 19.096 130.464 18.543999999999997 130.464 17.872 L130.464 9.551999999999998 z" /><path d="M134.976 18.415999999999997 Q134.976 17.168 136 16.456 137.024 15.744 139.328 15.503999999999998 139.232 14.671999999999999 138.208 14.671999999999999 137.776 14.671999999999999 137.296 14.84 136.816 15.008 136.192 15.343999999999998 L135.232 13.552 Q136.08 13.04 136.944 12.767999999999999 137.808 12.495999999999999 138.752 12.495999999999999 140.304 12.495999999999999 141.192 13.383999999999999 142.08 14.271999999999998 142.08 16.24 L142.08 20.688 139.84 20.688 139.648 19.919999999999998 139.584 19.919999999999998 Q139.104 20.352 138.568 20.616 138.032 20.88 137.376 20.88 136.816 20.88 136.368 20.68 135.92000000000002 20.48 135.608 20.144 135.296 19.808 135.136 19.36 134.976 18.912 134.976 18.415999999999997 zM137.6 18.192 Q137.6 18.768 138.336 18.768 138.672 18.768 138.888 18.616 139.104 18.464 139.328 18.224 L139.328 17.136 Q138.336 17.279999999999998 137.968 17.567999999999998 137.6 17.855999999999998 137.6 18.192 z" /><path d="M143.488 16.688 Q143.488 15.695999999999998 143.84 14.911999999999999 144.192 14.127999999999998 144.784 13.591999999999999 145.376 13.055999999999997 146.152 12.776 146.928 12.495999999999999 147.776 12.495999999999999 148.496 12.495999999999999 149.096 12.735999999999999 149.696 12.975999999999999 150.112 13.392 L148.864 15.087999999999997 Q148.592 14.863999999999999 148.376 14.783999999999999 148.16 14.703999999999999 147.936 14.703999999999999 147.168 14.703999999999999 146.736 15.239999999999998 146.304 15.776 146.304 16.688 146.304 17.599999999999998 146.744 18.136 147.184 18.671999999999997 147.84 18.671999999999997 148.224 18.671999999999997 148.536 18.512 148.848 18.352 149.12 18.16 L150.208 19.887999999999998 Q149.6 20.416 148.87199999999999 20.648 148.144 20.88 147.52 20.88 146.672 20.88 145.936 20.599999999999998 145.2 20.32 144.656 19.784 144.112 19.247999999999998 143.8 18.464 143.488 17.68 143.488 16.688 z" /><path d="M151.456 9.551999999999998 L154.144 9.551999999999998 154.144 15.471999999999998 154.208 15.471999999999998 156.416 12.687999999999999 159.392 12.687999999999999 156.54399999999998 16.016 159.552 20.688 156.576 20.688 154.976 17.84 154.144 18.768 154.144 20.688 151.456 20.688 151.456 9.551999999999998 z" /></g></svg>