<svg width="170" height="30" xmlns="http://www.w3.org/2000/svg" viewBox="0 0 170 30"><g fill="currentColor"><path d="M2.208 20.1 Q3.048 20.988 4.188 21.528 5.328 22.068 6.5520000000000005 22.068 8.112 22.068 8.976 21.36 9.84 20.652 9.84 19.5 9.84 18.9 9.636000000000001 18.48 9.432 18.06 9.084 17.759999999999998 8.736 17.46 8.256 17.22 7.776 16.98 7.224 16.716 L4.968 15.732 Q4.416 15.491999999999999 3.84 15.156 3.2640000000000002 14.82 2.8080000000000003 14.34 2.352 13.86 2.064 13.2 1.776 12.54 1.776 11.676 1.776 10.788 2.148 10.02 2.52 9.251999999999999 3.18 8.687999999999999 3.84 8.124 4.74 7.811999999999999 5.64 7.5 6.72 7.5 8.136000000000001 7.5 9.336 8.04 10.536 8.58 11.376 9.443999999999999 L10.296 10.74 Q9.576 10.044 8.700000000000001 9.648 7.824 9.251999999999999 6.72 9.251999999999999 5.4 9.251999999999999 4.596 9.863999999999999 3.7920000000000003 10.475999999999999 3.7920000000000003 11.556 3.7920000000000003 12.132 4.0200000000000005 12.528 4.248 12.924 4.632 13.224 5.016 13.524 5.472 13.752 5.928 13.98 6.408 14.172 L8.64 15.132 Q9.312 15.42 9.912 15.792 10.512 16.164 10.944 16.656 11.376 17.148 11.628 17.808 11.88 18.468 11.88 19.332 11.88 20.268 11.508000000000001 21.084 11.136000000000001 21.9 10.44 22.512 9.744 23.124 8.76 23.472 7.776 23.82 6.5280000000000005 23.82 4.872 23.82 3.456 23.196 2.04 22.572 1.008 21.492 L2.208 20.1 z" /><path d="M13.920000000000002 17.724 Q13.920000000000002 16.259999999999998 14.364 15.12 14.808 13.98 15.552000000000001 13.188 16.296 12.395999999999999 17.268 11.988 18.240000000000002 11.58 19.32 11.58 20.400000000000002 11.58 21.372 11.988 22.344 12.395999999999999 23.088 13.188 23.832 13.98 24.276000000000003 15.12 24.72 16.259999999999998 24.72 17.724 24.72 19.164 24.276000000000003 20.304 23.832 21.444 23.088 22.224 22.344 23.004 21.372 23.412 20.400000000000002 23.82 19.32 23.82 18.240000000000002 23.82 17.268 23.412 16.296 23.004 15.552000000000001 22.224 14.808 21.444 14.364 20.304 13.920000000000002 19.164 13.920000000000002 17.724 zM15.96 17.724 Q15.96 18.732 16.2 19.548000000000002 16.44 20.364 16.884 20.951999999999998 17.328000000000003 21.54 17.952 21.864 18.576 22.188 19.32 22.188 20.064 22.188 20.688000000000002 21.864 21.312 21.54 21.756 20.951999999999998 22.200000000000003 20.364 22.44 19.548000000000002 22.68 18.732 22.68 17.724 22.68 16.716 22.44 15.888 22.200000000000003 15.06 21.756 14.459999999999999 21.312 13.86 20.688000000000002 13.536 20.064 13.212 19.32 13.212 18.576 13.212 17.952 13.536 17.328000000000003 13.86 16.884 14.459999999999999 16.44 15.06 16.2 15.888 15.96 16.716 15.96 17.724 z" /><path d="M27.624000000000002 11.868 L29.616000000000003 11.868 29.616000000000003 18.996 Q29.616000000000003 20.652 30.132 21.384 30.648000000000003 22.116 31.8 22.116 32.712 22.116 33.408 21.648 34.104 21.18 34.944 20.148 L34.944 11.868 36.912000000000006 11.868 36.912000000000006 23.532 35.28 23.532 35.112 21.708 35.040000000000006 21.708 Q34.224000000000004 22.668 33.324 23.244 32.424 23.82 31.200000000000003 23.82 29.328000000000003 23.82 28.476000000000003 22.668 27.624000000000002 21.516 27.624000000000002 19.259999999999998 L27.624000000000002 11.868 z" /><path d="M40.848 11.868 L42.480000000000004 11.868 42.648 13.98 42.72 13.98 Q43.32 12.876 44.172000000000004 12.228 45.024 11.58 46.032000000000004 11.58 46.728 11.58 47.28 11.82 L46.896 13.548 Q46.608000000000004 13.452 46.368 13.404 46.128 13.356 45.768 13.356 45.024 13.356 44.22 13.956 43.416000000000004 14.556 42.816 16.044 L42.816 23.532 40.848 23.532 40.848 11.868 z" /><path d="M48.312 17.724 Q48.312 16.259999999999998 48.768 15.12 49.224 13.98 49.992 13.188 50.76 12.395999999999999 51.78 11.988 52.8 11.58 53.928 11.58 55.08 11.58 55.908 12 56.736 12.42 57.336 12.972 L56.352 14.244 Q55.824 13.788 55.26 13.5 54.696 13.212 54 13.212 53.208 13.212 52.536 13.536 51.864 13.86 51.384 14.459999999999999 50.903999999999996 15.06 50.628 15.888 50.352 16.716 50.352 17.724 50.352 18.732 50.616 19.548000000000002 50.879999999999995 20.364 51.348 20.951999999999998 51.816 21.54 52.488 21.864 53.16 22.188 53.952 22.188 54.792 22.188 55.476 21.84 56.16 21.492 56.688 21.012 L57.576 22.308 Q56.784 23.004 55.812 23.412 54.839999999999996 23.82 53.784 23.82 52.632 23.82 51.623999999999995 23.412 50.616 23.004 49.884 22.224 49.152 21.444 48.732 20.304 48.312 19.164 48.312 17.724 z" /><path d="M59.256 17.724 Q59.256 16.284 59.7 15.144 60.144 14.004 60.876000000000005 13.212 61.608000000000004 12.42 62.544000000000004 12 63.480000000000004 11.58 64.488 11.58 65.592 11.58 66.468 11.964 67.344 12.347999999999999 67.932 13.068 68.52 13.788 68.832 14.796 69.144 15.804 69.144 17.052 69.144 17.7 69.072 18.131999999999998 L61.2 18.131999999999998 Q61.32 20.028 62.364000000000004 21.132 63.408 22.236 65.088 22.236 65.928 22.236 66.636 21.984 67.344 21.732 67.992 21.323999999999998 L68.688 22.62 Q67.92 23.1 66.98400000000001 23.46 66.048 23.82 64.848 23.82 63.672000000000004 23.82 62.652 23.4 61.632 22.98 60.876000000000005 22.2 60.120000000000005 21.42 59.688 20.292 59.256 19.164 59.256 17.724 zM67.416 16.836 Q67.416 15.036 66.66 14.088 65.904 13.14 64.536 13.14 63.912 13.14 63.348 13.392 62.784 13.644 62.328 14.112 61.872 14.58 61.572 15.264 61.272 15.948 61.176 16.836 L67.416 16.836 z" /><path d="M77.112 20.1 Q77.952 20.988 79.092 21.528 80.232 22.068 81.456 22.068 83.01599999999999 22.068 83.88 21.36 84.744 20.652 84.744 19.5 84.744 18.9 84.53999999999999 18.48 84.336 18.06 83.988 17.759999999999998 83.64 17.46 83.16 17.22 82.67999999999999 16.98 82.128 16.716 L79.872 15.732 Q79.32 15.491999999999999 78.744 15.156 78.16799999999999 14.82 77.712 14.34 77.256 13.86 76.96799999999999 13.2 76.67999999999999 12.54 76.67999999999999 11.676 76.67999999999999 10.788 77.05199999999999 10.02 77.42399999999999 9.251999999999999 78.084 8.687999999999999 78.744 8.124 79.64399999999999 7.811999999999999 80.544 7.5 81.624 7.5 83.03999999999999 7.5 84.24 8.04 85.44 8.58 86.28 9.443999999999999 L85.19999999999999 10.74 Q84.47999999999999 10.044 83.604 9.648 82.728 9.251999999999999 81.624 9.251999999999999 80.304 9.251999999999999 79.5 9.863999999999999 78.696 10.475999999999999 78.696 11.556 78.696 12.132 78.92399999999999 12.528 79.152 12.924 79.536 13.224 79.92 13.524 80.37599999999999 13.752 80.832 13.98 81.312 14.172 L83.544 15.132 Q84.216 15.42 84.816 15.792 85.416 16.164 85.848 16.656 86.28 17.148 86.532 17.808 86.78399999999999 18.468 86.78399999999999 19.332 86.78399999999999 20.268 86.41199999999999 21.084 86.03999999999999 21.9 85.344 22.512 84.648 23.124 83.664 23.472 82.67999999999999 23.82 81.432 23.82 79.776 23.82 78.36 23.196 76.944 22.572 75.91199999999999 21.492 L77.112 20.1 z" /><path d="M89.112 20.508 Q89.112 18.588 90.828 17.567999999999998 92.544 16.548000000000002 96.288 16.14 96.288 15.588000000000001 96.18 15.06 96.072 14.532 95.79599999999999 14.124 95.52 13.716 95.064 13.464 94.608 13.212 93.888 13.212 92.856 13.212 91.98 13.596 91.104 13.98 90.408 14.459999999999999 L89.616 13.092 Q90.432 12.564 91.608 12.072 92.78399999999999 11.58 94.2 11.58 96.336 11.58 97.29599999999999 12.888 98.256 14.196 98.256 16.38 L98.256 23.532 96.624 23.532 96.456 22.14 96.408 22.14 Q95.568 22.836 94.596 23.328 93.624 23.82 92.544 23.82 91.056 23.82 90.084 22.956 89.112 22.092 89.112 20.508 zM91.056 20.364 Q91.056 21.372 91.644 21.804 92.232 22.236 93.096 22.236 93.93599999999999 22.236 94.692 21.84 95.448 21.444 96.288 20.676000000000002 L96.288 17.436 Q94.824 17.628 93.816 17.892 92.80799999999999 18.156 92.196 18.516 91.584 18.876 91.32 19.344 91.056 19.812 91.056 20.364 z" /><path d="M101.976 11.868 L103.60799999999999 11.868 103.776 13.548 103.848 13.548 Q104.68799999999999 12.708 105.612 12.144 106.536 11.58 107.75999999999999 11.58 109.60799999999999 11.58 110.46 12.732 111.312 13.884 111.312 16.14 L111.312 23.532 109.344 23.532 109.344 16.404 Q109.344 14.748 108.816 14.016 108.288 13.284 107.136 13.284 106.22399999999999 13.284 105.52799999999999 13.74 104.832 14.196 103.94399999999999 15.084 L103.94399999999999 23.532 101.976 23.532 101.976 11.868 z" /><path d="M114.792 20.892 Q115.56 21.516 116.36399999999999 21.9 117.16799999999999 22.284 118.22399999999999 22.284 119.37599999999999 22.284 119.952 21.756 120.52799999999999 21.228 120.52799999999999 20.46 120.52799999999999 20.004 120.288 19.668 120.048 19.332 119.676 19.08 119.304 18.828 118.824 18.636 118.344 18.444 117.86399999999999 18.252 117.24 18.036 116.616 17.759999999999998 115.99199999999999 17.484 115.5 17.088 115.008 16.692 114.696 16.164 114.384 15.636 114.384 14.892 114.384 14.196 114.66 13.584 114.93599999999999 12.972 115.452 12.528 115.96799999999999 12.084 116.71199999999999 11.831999999999999 117.45599999999999 11.58 118.392 11.58 119.496 11.58 120.42 11.964 121.344 12.347999999999999 122.01599999999999 12.9 L121.08 14.148 Q120.47999999999999 13.692 119.832 13.404 119.184 13.116 118.416 13.116 117.312 13.116 116.79599999999999 13.62 116.28 14.124 116.28 14.796 116.28 15.204 116.496 15.504 116.71199999999999 15.804 117.072 16.032 117.432 16.259999999999998 117.89999999999999 16.439999999999998 118.368 16.62 118.872 16.812 119.496 17.052 120.13199999999999 17.316 120.768 17.58 121.27199999999999 17.976 121.776 18.372 122.1 18.948 122.42399999999999 19.524 122.42399999999999 20.34 122.42399999999999 21.06 122.148 21.684 121.872 22.308 121.332 22.788 120.792 23.268 119.988 23.544 119.184 23.82 118.152 23.82 116.904 23.82 115.776 23.364 114.648 22.908 113.80799999999999 22.212 L114.792 20.892 z" /><path d="M130.2 7.788 L135.024 7.788 Q136.32 7.788 137.39999999999998 8.028 138.48 8.267999999999999 139.236 8.808 139.992 9.347999999999999 140.41199999999998 10.235999999999999 140.832 11.124 140.832 12.42 140.832 13.668 140.41199999999998 14.58 139.992 15.491999999999999 139.224 16.092 138.456 16.692 137.388 16.992 136.32 17.292 135.024 17.292 L132.19199999999998 17.292 132.19199999999998 23.532 130.2 23.532 130.2 7.788 zM134.784 15.66 Q136.84799999999998 15.66 137.844 14.879999999999999 138.84 14.1 138.84 12.42 138.84 10.716 137.832 10.056 136.82399999999998 9.395999999999999 134.784 9.395999999999999 L132.19199999999998 9.395999999999999 132.19199999999998 15.66 134.784 15.66 z" /><path d="M143.832 11.868 L145.464 11.868 145.632 13.98 145.704 13.98 Q146.304 12.876 147.156 12.228 148.008 11.58 149.016 11.58 149.71200000000002 11.58 150.264 11.82 L149.88 13.548 Q149.592 13.452 149.352 13.404 149.112 13.356 148.752 13.356 148.008 13.356 147.204 13.956 146.4 14.556 145.8 16.044 L145.8 23.532 143.832 23.532 143.832 11.868 z" /><path d="M151.29600000000002 17.724 Q151.29600000000002 16.259999999999998 151.74 15.12 152.184 13.98 152.928 13.188 153.672 12.395999999999999 154.644 11.988 155.616 11.58 156.696 11.58 157.776 11.58 158.74800000000002 11.988 159.72 12.395999999999999 160.464 13.188 161.208 13.98 161.65200000000002 15.12 162.096 16.259999999999998 162.096 17.724 162.096 19.164 161.65200000000002 20.304 161.208 21.444 160.464 22.224 159.72 23.004 158.74800000000002 23.412 157.776 23.82 156.696 23.82 155.616 23.82 154.644 23.412 153.672 23.004 152.928 22.224 152.184 21.444 151.74 20.304 151.29600000000002 19.164 151.29600000000002 17.724 zM153.336 17.724 Q153.336 18.732 153.576 19.548000000000002 153.816 20.364 154.26000000000002 20.951999999999998 154.704 21.54 155.328 21.864 155.952 22.188 156.696 22.188 157.44 22.188 158.06400000000002 21.864 158.68800000000002 21.54 159.132 20.951999999999998 159.57600000000002 20.364 159.816 19.548000000000002 160.056 18.732 160.056 17.724 160.056 16.716 159.816 15.888 159.57600000000002 15.06 159.132 14.459999999999999 158.68800000000002 13.86 158.06400000000002 13.536 157.44 13.212 156.696 13.212 155.952 13.212 155.328 13.536 154.704 13.86 154.26000000000002 14.459999999999999 153.816 15.06 153.576 15.888 153.336 16.716 153.336 17.724 z" /></g></svg>