<svg width="170" height="30" xmlns="http://www.w3.org/2000/svg" viewBox="0 0 170 30"><g fill="currentColor"><path d="M1.624 17.135 Q1.988 17.625 2.492 17.933 2.996 18.241 3.528 18.241 4.018 18.241 4.305 18.031 4.5920000000000005 17.821 4.5920000000000005 17.443 4.5920000000000005 17.135 4.312 16.946 4.032 16.757 3.556 16.463 L2.7720000000000002 15.972999999999999 Q2.142 15.567 1.7850000000000001 15.035 1.428 14.503 1.428 13.649000000000001 1.428 13.033000000000001 1.694 12.501000000000001 1.96 11.969 2.408 11.57 2.856 11.171 3.465 10.94 4.074 10.709 4.774 10.709 5.572 10.709 6.307 11.08 7.042 11.451 7.602 12.123000000000001 L6.202 13.439 Q5.852 13.089 5.495 12.865 5.138 12.641 4.69 12.641 4.2 12.641 3.962 12.872 3.724 13.103 3.724 13.425 3.724 13.705 4.011 13.894 4.298 14.083 4.844 14.433 L5.684 14.951 Q6.3420000000000005 15.357 6.6290000000000004 15.84 6.916 16.323 6.916 17.121000000000002 6.916 17.751 6.664 18.297 6.412 18.843 5.95 19.256 5.488 19.669 4.83 19.907 4.172 20.145 3.36 20.145 2.492 20.145 1.617 19.746 0.742 19.347 0.028 18.395 L1.624 17.135 z" /><path d="M10.696 20.145 Q10.066 20.145 9.548 19.935 9.03 19.725 8.666 19.34 8.302 18.955000000000002 8.099 18.423000000000002 7.896 17.891000000000002 7.896 17.233 7.896 16.211 8.246 15.392 8.596 14.573 9.163 13.999 9.73 13.425 10.437000000000001 13.117 11.144 12.809000000000001 11.872 12.809000000000001 12.501999999999999 12.809000000000001 13.02 13.019 13.538 13.229 13.902000000000001 13.614 14.266 13.999 14.469000000000001 14.538 14.672 15.077 14.672 15.721 14.672 16.743000000000002 14.322 17.562 13.972000000000001 18.381 13.405000000000001 18.955000000000002 12.838000000000001 19.529 12.131 19.837 11.424 20.145 10.696 20.145 zM11.620000000000001 14.600999999999999 Q11.312000000000001 14.600999999999999 11.046 14.797 10.780000000000001 14.993 10.584 15.336 10.388 15.679 10.276 16.162 10.164 16.645 10.164 17.205 10.164 17.737000000000002 10.353 18.045 10.542 18.353 10.948 18.353 11.256 18.353 11.522 18.157 11.788 17.961 11.984 17.618000000000002 12.18 17.275 12.292 16.799 12.404 16.323 12.404 15.749 12.404 15.217 12.215 14.908999999999999 12.026 14.600999999999999 11.620000000000001 14.600999999999999 z" /><path d="M21.308 19.977 L19.488 19.977 19.488 19.081 19.432000000000002 19.081 Q18.984 19.501 18.403 19.823 17.822 20.145 17.192 20.145 16.324 20.145 15.932 19.69 15.540000000000001 19.235 15.540000000000001 18.325 15.540000000000001 17.849 15.652000000000001 17.317 L16.52 12.977 18.76 12.977 17.948 17.037 Q17.906 17.233 17.871000000000002 17.38 17.836000000000002 17.527 17.836000000000002 17.653 17.836000000000002 17.947 17.990000000000002 18.094 18.144000000000002 18.241 18.424 18.241 18.704 18.241 18.97 18.052 19.236 17.863 19.572000000000003 17.457 L20.44 12.977 22.68 12.977 21.308 19.977 z" /><path d="M24.304000000000002 12.977 L26.124000000000002 12.977 26.068 14.349 26.124000000000002 14.349 Q26.53 13.677 27.097 13.243 27.664 12.809000000000001 28.252000000000002 12.809000000000001 28.546 12.809000000000001 28.721 12.844000000000001 28.896 12.879000000000001 29.008 12.949 L28.28 14.881 Q28.126 14.797 27.923000000000002 14.783000000000001 27.72 14.769 27.552 14.769 27.104 14.769 26.719 15.063 26.334 15.357 25.928 16.057000000000002 L25.172 19.977 22.932 19.977 24.304000000000002 12.977 z" /><path d="M28.784000000000002 17.233 Q28.784000000000002 16.351 29.099 15.553 29.414 14.754999999999999 29.981 14.146 30.548000000000002 13.536999999999999 31.311 13.173 32.074 12.809000000000001 32.984 12.809000000000001 33.656 12.809000000000001 34.146 13.082 34.636 13.355 34.888000000000005 13.677 L33.656 14.993 Q33.46 14.797 33.278000000000006 14.699 33.096000000000004 14.600999999999999 32.844 14.600999999999999 32.466 14.600999999999999 32.144000000000005 14.804 31.822000000000003 15.007000000000001 31.584000000000003 15.364 31.346000000000004 15.721 31.213 16.197 31.080000000000002 16.673000000000002 31.080000000000002 17.205 31.080000000000002 17.737000000000002 31.332 18.045 31.584000000000003 18.353 32.088 18.353 32.410000000000004 18.353 32.627 18.234 32.844 18.115000000000002 33.04 17.961 L33.964 19.333000000000002 Q33.558 19.627 32.991 19.886 32.424 20.145 31.584000000000003 20.145 30.996000000000002 20.145 30.485000000000003 19.949 29.974 19.753 29.596 19.382 29.218000000000004 19.011 29.001 18.472 28.784000000000002 17.933 28.784000000000002 17.233 z" /><path d="M35.028 17.121000000000002 Q35.028 16.155 35.378 15.364 35.728 14.573 36.295 14.006 36.862 13.439 37.569 13.124 38.276 12.809000000000001 38.976 12.809000000000001 39.620000000000005 12.809000000000001 40.061 13.019 40.502 13.229 40.775 13.593 41.048 13.957 41.174 14.440000000000001 41.300000000000004 14.923 41.300000000000004 15.469000000000001 41.300000000000004 15.735 41.251000000000005 16.001 41.202 16.267 41.139 16.498 41.076 16.729 41.013000000000005 16.904 40.95 17.079 40.908 17.149 L37.128 17.149 Q37.156 17.849 37.562000000000005 18.157 37.968 18.465 38.584 18.465 38.878 18.465 39.2 18.325 39.522000000000006 18.185 39.760000000000005 18.017 L40.544000000000004 19.417 Q40.124 19.711 39.466 19.928 38.808 20.145 37.940000000000005 20.145 37.296 20.145 36.764 19.935 36.232 19.725 35.847 19.333000000000002 35.462 18.941 35.245000000000005 18.381 35.028 17.821 35.028 17.121000000000002 zM39.424 15.805 Q39.452 15.721 39.466 15.602 39.480000000000004 15.483 39.480000000000004 15.357 39.480000000000004 14.993 39.312 14.754999999999999 39.144000000000005 14.517 38.696 14.517 38.29 14.517 37.912 14.825 37.534 15.133 37.296 15.805 L39.424 15.805 z" /><path d="M46.116 17.135 Q46.48 17.625 46.983999999999995 17.933 47.488 18.241 48.019999999999996 18.241 48.51 18.241 48.797 18.031 49.083999999999996 17.821 49.083999999999996 17.443 49.083999999999996 17.135 48.803999999999995 16.946 48.524 16.757 48.047999999999995 16.463 L47.263999999999996 15.972999999999999 Q46.634 15.567 46.277 15.035 45.919999999999995 14.503 45.919999999999995 13.649000000000001 45.919999999999995 13.033000000000001 46.186 12.501000000000001 46.452 11.969 46.9 11.57 47.348 11.171 47.956999999999994 10.94 48.565999999999995 10.709 49.266 10.709 50.064 10.709 50.799 11.08 51.534 11.451 52.093999999999994 12.123000000000001 L50.693999999999996 13.439 Q50.343999999999994 13.089 49.986999999999995 12.865 49.629999999999995 12.641 49.181999999999995 12.641 48.692 12.641 48.454 12.872 48.215999999999994 13.103 48.215999999999994 13.425 48.215999999999994 13.705 48.503 13.894 48.79 14.083 49.336 14.433 L50.175999999999995 14.951 Q50.833999999999996 15.357 51.120999999999995 15.84 51.408 16.323 51.408 17.121000000000002 51.408 17.751 51.156 18.297 50.903999999999996 18.843 50.442 19.256 49.98 19.669 49.321999999999996 19.907 48.663999999999994 20.145 47.852 20.145 46.983999999999995 20.145 46.108999999999995 19.746 45.233999999999995 19.347 44.519999999999996 18.395 L46.116 17.135 z" /><path d="M52.416000000000004 17.569 Q52.416000000000004 16.575 52.724000000000004 15.707 53.032000000000004 14.839 53.550000000000004 14.195 54.068 13.551 54.74 13.18 55.412 12.809000000000001 56.14 12.809000000000001 56.588 12.809000000000001 56.994 13.04 57.4 13.271 57.596000000000004 13.677 L57.624 13.677 57.932 12.977 59.724000000000004 12.977 58.324 19.977 56.504000000000005 19.977 56.504000000000005 19.109 56.476 19.109 Q56.014 19.599 55.447 19.872 54.88 20.145 54.376 20.145 53.452 20.145 52.934 19.48 52.416000000000004 18.815 52.416000000000004 17.569 zM55.384 18.325 Q55.664 18.325 56 18.15 56.336 17.975 56.616 17.401 L57.064 15.161000000000001 Q56.938 14.881 56.721000000000004 14.754999999999999 56.504000000000005 14.629000000000001 56.308 14.629000000000001 56 14.629000000000001 55.72 14.825 55.44 15.021 55.223 15.371 55.006 15.721 54.873000000000005 16.211 54.74 16.701 54.74 17.289 54.74 17.835 54.915 18.080000000000002 55.09 18.325 55.384 18.325 z" /><path d="M61.32 12.977 L63.14 12.977 63.14 13.873000000000001 63.196 13.873000000000001 Q63.686 13.453 64.267 13.131 64.848 12.809000000000001 65.52 12.809000000000001 66.388 12.809000000000001 66.78 13.264 67.172 13.719000000000001 67.172 14.629000000000001 67.172 15.105 67.06 15.637 L66.192 19.977 63.952 19.977 64.764 15.917 Q64.806 15.721 64.841 15.574 64.876 15.427 64.876 15.301 64.876 15.007000000000001 64.722 14.86 64.568 14.713000000000001 64.288 14.713000000000001 63.994 14.713000000000001 63.714 14.902000000000001 63.434 15.091000000000001 63.056 15.497 L62.187999999999995 19.977 59.948 19.977 61.32 12.977 z" /><path d="M68.85199999999999 17.709 Q69.22999999999999 18.157 69.58 18.339 69.92999999999999 18.521 70.252 18.521 70.574 18.521 70.80499999999999 18.388 71.03599999999999 18.255 71.03599999999999 18.045 71.03599999999999 17.905 70.952 17.807000000000002 70.868 17.709 70.72099999999999 17.604 70.574 17.499 70.35 17.387 70.12599999999999 17.275 69.86 17.121000000000002 69.60799999999999 16.981 69.363 16.785 69.118 16.589 68.92899999999999 16.344 68.74 16.099 68.628 15.805 68.51599999999999 15.511 68.51599999999999 15.161000000000001 68.51599999999999 14.657 68.74 14.23 68.964 13.803 69.342 13.488 69.72 13.173 70.238 12.991 70.756 12.809000000000001 71.344 12.809000000000001 72.1 12.809000000000001 72.68799999999999 13.138 73.276 13.467 73.72399999999999 13.929 L72.52 15.077 Q72.268 14.825 71.97399999999999 14.643 71.67999999999999 14.461 71.344 14.461 71.008 14.461 70.812 14.608 70.616 14.754999999999999 70.616 14.965 70.616 15.119 70.714 15.224 70.812 15.329 70.973 15.427 71.134 15.525 71.33699999999999 15.623000000000001 71.53999999999999 15.721 71.73599999999999 15.833 71.988 15.972999999999999 72.24 16.148 72.49199999999999 16.323 72.68799999999999 16.561 72.88399999999999 16.799 73.00999999999999 17.1 73.136 17.401 73.136 17.793 73.136 18.325 72.91199999999999 18.752 72.68799999999999 19.179000000000002 72.28899999999999 19.494 71.88999999999999 19.809 71.33 19.977 70.77 20.145 70.112 20.145 69.80399999999999 20.145 69.454 20.061 69.104 19.977 68.761 19.809 68.41799999999999 19.641000000000002 68.103 19.382 67.788 19.123 67.564 18.773 L68.85199999999999 17.709 z" /><path d="M78.73599999999999 10.877 L81.732 10.877 Q82.404 10.877 82.99199999999999 11.01 83.58 11.143 84.014 11.437 84.448 11.731 84.69999999999999 12.207 84.952 12.683 84.952 13.369 84.952 14.363 84.60199999999999 15.056000000000001 84.252 15.749 83.66399999999999 16.183 83.076 16.617 82.29899999999999 16.813 81.52199999999999 17.009 80.66799999999999 17.009 L79.744 17.009 79.15599999999999 19.977 76.916 19.977 78.73599999999999 10.877 zM80.934 15.245000000000001 Q81.80199999999999 15.245000000000001 82.27099999999999 14.853000000000002 82.74 14.461 82.74 13.705 82.74 13.158999999999999 82.39699999999999 12.9 82.05399999999999 12.641 81.42399999999999 12.641 L80.612 12.641 80.10799999999999 15.245000000000001 80.934 15.245000000000001 z" /><path d="M86.37999999999998 12.977 L88.19999999999999 12.977 88.14399999999999 14.349 88.19999999999999 14.349 Q88.60599999999998 13.677 89.17299999999999 13.243 89.73999999999998 12.809000000000001 90.32799999999999 12.809000000000001 90.62199999999999 12.809000000000001 90.79699999999998 12.844000000000001 90.97199999999998 12.879000000000001 91.08399999999999 12.949 L90.35599999999998 14.881 Q90.20199999999998 14.797 89.99899999999998 14.783000000000001 89.79599999999999 14.769 89.62799999999999 14.769 89.17999999999999 14.769 88.79499999999999 15.063 88.40999999999998 15.357 88.00399999999999 16.057000000000002 L87.24799999999999 19.977 85.00799999999998 19.977 86.37999999999998 12.977 z" /><path d="M93.65999999999998 20.145 Q93.02999999999999 20.145 92.51199999999999 19.935 91.99399999999999 19.725 91.62999999999998 19.34 91.26599999999998 18.955000000000002 91.06299999999997 18.423000000000002 90.85999999999999 17.891000000000002 90.85999999999999 17.233 90.85999999999999 16.211 91.20999999999998 15.392 91.55999999999997 14.573 92.12699999999998 13.999 92.69399999999997 13.425 93.40099999999998 13.117 94.10799999999998 12.809000000000001 94.83599999999998 12.809000000000001 95.46599999999998 12.809000000000001 95.98399999999998 13.019 96.50199999999998 13.229 96.86599999999999 13.614 97.22999999999998 13.999 97.43299999999998 14.538 97.63599999999998 15.077 97.63599999999998 15.721 97.63599999999998 16.743000000000002 97.28599999999999 17.562 96.93599999999998 18.381 96.36899999999999 18.955000000000002 95.80199999999998 19.529 95.09499999999998 19.837 94.38799999999998 20.145 93.65999999999998 20.145 zM94.58399999999997 14.600999999999999 Q94.27599999999998 14.600999999999999 94.00999999999998 14.797 93.74399999999999 14.993 93.54799999999999 15.336 93.35199999999998 15.679 93.23999999999998 16.162 93.12799999999999 16.645 93.12799999999999 17.205 93.12799999999999 17.737000000000002 93.31699999999998 18.045 93.50599999999999 18.353 93.91199999999998 18.353 94.21999999999998 18.353 94.48599999999998 18.157 94.75199999999998 17.961 94.94799999999998 17.618000000000002 95.14399999999998 17.275 95.25599999999999 16.799 95.36799999999998 16.323 95.36799999999998 15.749 95.36799999999998 15.217 95.17899999999997 14.908999999999999 94.98999999999998 14.600999999999999 94.58399999999997 14.600999999999999 z" /><path d="M103.03999999999998 10.877 L105.95199999999998 10.877 Q106.63799999999998 10.877 107.21899999999998 10.996 107.79999999999998 11.115 108.21999999999998 11.367 108.63999999999999 11.619 108.87799999999999 12.018 109.11599999999999 12.417 109.11599999999999 12.977 109.11599999999999 13.719000000000001 108.61199999999998 14.335 108.10799999999998 14.951 107.15599999999998 15.245000000000001 L107.12799999999999 15.301 Q108.66799999999998 15.679 108.66799999999998 16.953 108.66799999999998 17.779 108.33899999999998 18.353 108.00999999999998 18.927 107.46399999999998 19.284 106.91799999999998 19.641000000000002 106.18999999999998 19.809 105.46199999999997 19.977 104.66399999999999 19.977 L101.21999999999998 19.977 103.03999999999998 10.877 zM105.30799999999998 14.517 Q106.13399999999999 14.517 106.47699999999998 14.209 106.81999999999998 13.901 106.81999999999998 13.369 106.81999999999998 12.585 105.58799999999998 12.585 L104.94399999999997 12.585 104.55199999999998 14.517 105.30799999999998 14.517 zM104.83199999999998 18.269000000000002 Q105.67199999999998 18.269000000000002 106.09199999999998 17.94 106.51199999999999 17.611 106.51199999999999 17.037 106.51199999999999 16.029 105.27999999999999 16.029 L104.24399999999999 16.029 103.79599999999998 18.269000000000002 104.83199999999998 18.269000000000002 z" /><path d="M111.49599999999998 10.233 L113.73599999999998 10.233 112.22399999999998 17.737000000000002 Q112.19599999999998 17.849 112.19599999999998 17.898 112.19599999999998 17.947 112.19599999999998 18.003 112.19599999999998 18.199 112.27999999999997 18.276 112.36399999999998 18.353 112.47599999999998 18.353 112.54599999999998 18.353 112.59499999999998 18.353 112.64399999999998 18.353 112.72799999999998 18.325 L112.64399999999998 19.977 Q112.44799999999998 20.047 112.16099999999997 20.096 111.87399999999998 20.145 111.49599999999998 20.145 110.62799999999997 20.145 110.26399999999998 19.732 109.89999999999998 19.319 109.89999999999998 18.605 109.89999999999998 18.395 109.92099999999998 18.171 109.94199999999998 17.947 110.01199999999997 17.653 L111.49599999999998 10.233 z" /><path d="M113.81999999999998 17.569 Q113.81999999999998 16.575 114.12799999999999 15.707 114.43599999999998 14.839 114.95399999999998 14.195 115.47199999999998 13.551 116.14399999999998 13.18 116.81599999999999 12.809000000000001 117.54399999999998 12.809000000000001 117.99199999999999 12.809000000000001 118.39799999999998 13.04 118.80399999999999 13.271 118.99999999999999 13.677 L119.02799999999998 13.677 119.33599999999998 12.977 121.12799999999999 12.977 119.72799999999998 19.977 117.90799999999999 19.977 117.90799999999999 19.109 117.87999999999998 19.109 Q117.41799999999998 19.599 116.85099999999998 19.872 116.28399999999998 20.145 115.77999999999999 20.145 114.85599999999998 20.145 114.33799999999998 19.48 113.81999999999998 18.815 113.81999999999998 17.569 zM116.78799999999998 18.325 Q117.06799999999998 18.325 117.40399999999998 18.15 117.73999999999998 17.975 118.01999999999998 17.401 L118.46799999999999 15.161000000000001 Q118.34199999999998 14.881 118.12499999999999 14.754999999999999 117.90799999999999 14.629000000000001 117.71199999999999 14.629000000000001 117.40399999999998 14.629000000000001 117.12399999999998 14.825 116.84399999999998 15.021 116.62699999999998 15.371 116.40999999999998 15.721 116.27699999999999 16.211 116.14399999999998 16.701 116.14399999999998 17.289 116.14399999999998 17.835 116.31899999999999 18.080000000000002 116.49399999999999 18.325 116.78799999999998 18.325 z" /><path d="M121.60399999999998 17.233 Q121.60399999999998 16.351 121.91899999999998 15.553 122.23399999999998 14.754999999999999 122.80099999999999 14.146 123.36799999999998 13.536999999999999 124.13099999999999 13.173 124.89399999999998 12.809000000000001 125.80399999999997 12.809000000000001 126.47599999999998 12.809000000000001 126.96599999999998 13.082 127.45599999999997 13.355 127.70799999999998 13.677 L126.47599999999998 14.993 Q126.27999999999999 14.797 126.09799999999998 14.699 125.91599999999998 14.600999999999999 125.66399999999999 14.600999999999999 125.28599999999999 14.600999999999999 124.96399999999998 14.804 124.64199999999998 15.007000000000001 124.40399999999998 15.364 124.16599999999998 15.721 124.03299999999999 16.197 123.89999999999998 16.673000000000002 123.89999999999998 17.205 123.89999999999998 17.737000000000002 124.15199999999999 18.045 124.40399999999998 18.353 124.90799999999999 18.353 125.22999999999998 18.353 125.44699999999997 18.234 125.66399999999999 18.115000000000002 125.85999999999999 17.961 L126.78399999999998 19.333000000000002 Q126.37799999999999 19.627 125.81099999999998 19.886 125.24399999999999 20.145 124.40399999999998 20.145 123.81599999999997 20.145 123.30499999999998 19.949 122.79399999999998 19.753 122.41599999999998 19.382 122.03799999999998 19.011 121.82099999999998 18.472 121.60399999999998 17.933 121.60399999999998 17.233 z" /><path d="M129.55599999999998 10.233 L131.796 10.233 130.73199999999997 15.497 130.78799999999998 15.497 133.08399999999997 12.977 135.54799999999997 12.977 132.664 16.085 134.31599999999997 19.977 132.076 19.977 131.12399999999997 17.373 130.17199999999997 18.325 129.83599999999998 19.977 127.59599999999998 19.977 129.55599999999998 10.233 z" /><path d="M140.084 10.877 L142.324 10.877 140.50400000000002 19.977 138.264 19.977 140.084 10.877 z" /><path d="M143.72400000000002 14.713000000000001 L142.828 14.713000000000001 143.16400000000002 13.061 144.172 12.977 144.788 11.185 146.66400000000002 11.185 146.328 12.977 147.84 12.977 147.50400000000002 14.713000000000001 145.936 14.713000000000001 145.404 17.345 Q145.376 17.471 145.376 17.576 145.376 17.681 145.376 17.793 145.376 18.409 146.048 18.409 146.27200000000002 18.409 146.55200000000002 18.269000000000002 L146.94400000000002 19.837 Q146.65 19.949 146.209 20.047 145.768 20.145 145.18 20.145 144.62 20.145 144.221 19.998 143.822 19.851 143.57000000000002 19.592 143.318 19.333000000000002 143.199 18.976 143.08 18.619 143.08 18.185 143.08 17.947 143.115 17.723 143.15 17.499 143.192 17.261 L143.72400000000002 14.713000000000001 z" /><path d="M148.008 17.569 Q148.008 16.575 148.316 15.707 148.62400000000002 14.839 149.14200000000002 14.195 149.66000000000003 13.551 150.33200000000002 13.18 151.00400000000002 12.809000000000001 151.73200000000003 12.809000000000001 152.18 12.809000000000001 152.586 13.04 152.99200000000002 13.271 153.18800000000002 13.677 L153.216 13.677 153.524 12.977 155.316 12.977 153.91600000000003 19.977 152.096 19.977 152.096 19.109 152.068 19.109 Q151.60600000000002 19.599 151.03900000000002 19.872 150.472 20.145 149.96800000000002 20.145 149.044 20.145 148.526 19.48 148.008 18.815 148.008 17.569 zM150.97600000000003 18.325 Q151.256 18.325 151.592 18.15 151.92800000000003 17.975 152.20800000000003 17.401 L152.656 15.161000000000001 Q152.53 14.881 152.31300000000002 14.754999999999999 152.096 14.629000000000001 151.9 14.629000000000001 151.592 14.629000000000001 151.312 14.825 151.032 15.021 150.81500000000003 15.371 150.598 15.721 150.465 16.211 150.33200000000002 16.701 150.33200000000002 17.289 150.33200000000002 17.835 150.507 18.080000000000002 150.68200000000002 18.325 150.97600000000003 18.325 z" /><path d="M157.50000000000003 10.233 L159.74000000000004 10.233 158.22800000000004 17.737000000000002 Q158.20000000000002 17.849 158.20000000000002 17.898 158.20000000000002 17.947 158.20000000000002 18.003 158.20000000000002 18.199 158.28400000000002 18.276 158.36800000000002 18.353 158.48000000000002 18.353 158.55 18.353 158.59900000000002 18.353 158.64800000000002 18.353 158.73200000000003 18.325 L158.64800000000002 19.977 Q158.45200000000003 20.047 158.16500000000002 20.096 157.87800000000001 20.145 157.50000000000003 20.145 156.63200000000003 20.145 156.26800000000003 19.732 155.90400000000002 19.319 155.90400000000002 18.605 155.90400000000002 18.395 155.92500000000004 18.171 155.94600000000003 17.947 156.01600000000002 17.653 L157.50000000000003 10.233 z" /><path d="M160.94400000000002 12.977 L163.18400000000003 12.977 161.78400000000002 19.977 159.544 19.977 160.94400000000002 12.977 zM162.42800000000003 12.081 Q162.204 12.081 161.99400000000003 12.018 161.78400000000002 11.955 161.616 11.829 161.448 11.703 161.35000000000002 11.507 161.252 11.311 161.252 11.045 161.252 10.793 161.35700000000003 10.562 161.46200000000002 10.331 161.644 10.163 161.82600000000002 9.995 162.07100000000003 9.89 162.316 9.785 162.596 9.785 162.82000000000002 9.785 163.03000000000003 9.855 163.24 9.925 163.40800000000002 10.051 163.57600000000002 10.177 163.674 10.373 163.77200000000002 10.569 163.77200000000002 10.821 163.77200000000002 11.367 163.38700000000003 11.724 163.002 12.081 162.42800000000003 12.081 z" /><path d="M163.66000000000003 17.233 Q163.66000000000003 16.351 163.97500000000002 15.553 164.29000000000002 14.754999999999999 164.85700000000003 14.146 165.42400000000004 13.536999999999999 166.187 13.173 166.95000000000002 12.809000000000001 167.86 12.809000000000001 168.532 12.809000000000001 169.02200000000002 13.082 169.51200000000003 13.355 169.764 13.677 L168.532 14.993 Q168.336 14.797 168.15400000000002 14.699 167.972 14.600999999999999 167.72000000000003 14.600999999999999 167.342 14.600999999999999 167.02 14.804 166.698 15.007000000000001 166.46 15.364 166.222 15.721 166.08900000000003 16.197 165.95600000000002 16.673000000000002 165.95600000000002 17.205 165.95600000000002 17.737000000000002 166.20800000000003 18.045 166.46 18.353 166.96400000000003 18.353 167.28600000000003 18.353 167.50300000000001 18.234 167.72000000000003 18.115000000000002 167.91600000000003 17.961 L168.84000000000003 19.333000000000002 Q168.43400000000003 19.627 167.86700000000002 19.886 167.3 20.145 166.46 20.145 165.872 20.145 165.36100000000002 19.949 164.85000000000002 19.753 164.472 19.382 164.09400000000002 19.011 163.877 18.472 163.66000000000003 17.933 163.66000000000003 17.233 z" /></g></svg>