<svg width="170" height="30" xmlns="http://www.w3.org/2000/svg" viewBox="0 0 170 30"><g fill="currentColor"><path d="M1.8539999999999999 18.033 Q2.3219999999999996 18.717000000000002 3.0149999999999997 19.113 3.7079999999999997 19.509 4.4639999999999995 19.509 5.22 19.509 5.688 19.149 6.156 18.789 6.156 18.159000000000002 6.156 17.691000000000003 5.787 17.394000000000002 5.417999999999999 17.097 4.787999999999999 16.701 L3.6719999999999997 16.017000000000003 Q2.8619999999999997 15.513000000000002 2.3939999999999997 14.838000000000001 1.926 14.163 1.926 13.083000000000002 1.926 12.327000000000002 2.25 11.670000000000002 2.574 11.013000000000002 3.1229999999999998 10.518000000000002 3.6719999999999997 10.023000000000001 4.428 9.735000000000001 5.183999999999999 9.447000000000001 6.047999999999999 9.447000000000001 7.092 9.447000000000001 8.01 9.933000000000002 8.927999999999999 10.419000000000002 9.612 11.229000000000001 L8.046 12.687000000000001 Q7.595999999999999 12.219000000000001 7.092 11.904000000000002 6.587999999999999 11.589000000000002 5.9399999999999995 11.589000000000002 5.22 11.589000000000002 4.832999999999999 11.958000000000002 4.446 12.327000000000002 4.446 12.849000000000002 4.446 13.299000000000001 4.842 13.587000000000002 5.2379999999999995 13.875000000000002 5.922 14.307000000000002 L7.074 15.009 Q7.938 15.531000000000002 8.325 16.152 8.712 16.773000000000003 8.712 17.799 8.712 18.609 8.397 19.302 8.081999999999999 19.995 7.505999999999999 20.508000000000003 6.93 21.021 6.111 21.318 5.292 21.615000000000002 4.284 21.615000000000002 3.1319999999999997 21.615000000000002 2.0429999999999997 21.111 0.954 20.607 0.09 19.419 L1.8539999999999999 18.033 z" /><path d="M13.517999999999997 21.615000000000002 Q12.725999999999999 21.615000000000002 12.095999999999998 21.354 11.465999999999998 21.093 11.006999999999998 20.607 10.547999999999998 20.121000000000002 10.304999999999998 19.446 10.061999999999998 18.771 10.061999999999998 17.943 10.061999999999998 16.647000000000002 10.493999999999998 15.594000000000001 10.925999999999998 14.541 11.636999999999999 13.803 12.347999999999999 13.065000000000001 13.247999999999998 12.660000000000002 14.147999999999998 12.255 15.065999999999999 12.255 15.839999999999998 12.255 16.479 12.516000000000002 17.118 12.777000000000001 17.567999999999998 13.263000000000002 18.017999999999997 13.749000000000002 18.269999999999996 14.424000000000001 18.522 15.099 18.522 15.927000000000001 18.522 17.223000000000003 18.089999999999996 18.276 17.657999999999998 19.329 16.947 20.067 16.235999999999997 20.805 15.335999999999999 21.21 14.435999999999998 21.615000000000002 13.517999999999997 21.615000000000002 zM14.777999999999999 14.235000000000001 Q14.328 14.235000000000001 13.922999999999998 14.514000000000001 13.517999999999997 14.793000000000001 13.211999999999998 15.279000000000002 12.905999999999999 15.765 12.725999999999999 16.44 12.545999999999998 17.115000000000002 12.545999999999998 17.889000000000003 12.545999999999998 18.699 12.851999999999999 19.167 13.157999999999998 19.635 13.787999999999998 19.635 14.237999999999998 19.635 14.642999999999997 19.356 15.047999999999998 19.077 15.362999999999998 18.591 15.677999999999997 18.105 15.857999999999997 17.439 16.037999999999997 16.773000000000003 16.037999999999997 15.981000000000002 16.037999999999997 15.153000000000002 15.722999999999999 14.694000000000003 15.407999999999998 14.235000000000001 14.777999999999999 14.235000000000001 z" /><path d="M26.874 21.399 L24.875999999999998 21.399 24.912 20.193 24.84 20.193 Q24.227999999999998 20.769000000000002 23.480999999999998 21.192 22.733999999999998 21.615000000000002 21.924 21.615000000000002 20.808 21.615000000000002 20.313 21.03 19.817999999999998 20.445 19.817999999999998 19.311 19.817999999999998 19.005000000000003 19.854 18.699 19.89 18.393 19.962 18.051000000000002 L21.078 12.471000000000002 23.526 12.471000000000002 22.482 17.745 Q22.41 18.015 22.374 18.213 22.338 18.411 22.338 18.591 22.338 19.509 23.238 19.509 23.994 19.509 25.02 18.357 L26.171999999999997 12.471000000000002 28.637999999999998 12.471000000000002 26.874 21.399 z" /><path d="M30.942 12.471000000000002 L32.94 12.471000000000002 32.832 14.199000000000002 32.903999999999996 14.199000000000002 Q33.426 13.353000000000002 34.146 12.804000000000002 34.866 12.255 35.64 12.255 35.982 12.255 36.207 12.3 36.431999999999995 12.345000000000002 36.576 12.435000000000002 L35.766 14.559000000000001 Q35.586 14.469000000000001 35.342999999999996 14.442 35.099999999999994 14.415000000000003 34.884 14.415000000000003 34.29 14.415000000000003 33.732 14.847000000000001 33.174 15.279000000000002 32.652 16.233 L31.644 21.399 29.177999999999997 21.399 30.942 12.471000000000002 z" /><path d="M36.35999999999999 17.943 Q36.35999999999999 16.791 36.76499999999999 15.756 37.169999999999995 14.721 37.88099999999999 13.938000000000002 38.59199999999999 13.155000000000001 39.55499999999999 12.705000000000002 40.517999999999994 12.255 41.61599999999999 12.255 42.461999999999996 12.255 43.06499999999999 12.597000000000001 43.66799999999999 12.939000000000002 44.00999999999999 13.353000000000002 L42.641999999999996 14.811000000000002 Q42.37199999999999 14.523000000000001 42.10199999999999 14.379000000000001 41.831999999999994 14.235000000000001 41.45399999999999 14.235000000000001 40.913999999999994 14.235000000000001 40.44599999999999 14.523000000000001 39.977999999999994 14.811000000000002 39.626999999999995 15.315000000000001 39.275999999999996 15.819000000000003 39.077999999999996 16.476 38.879999999999995 17.133000000000003 38.879999999999995 17.889000000000003 38.879999999999995 18.699 39.257999999999996 19.167 39.635999999999996 19.635 40.391999999999996 19.635 40.85999999999999 19.635 41.19299999999999 19.455000000000002 41.525999999999996 19.275000000000002 41.81399999999999 19.059 L42.839999999999996 20.571 Q42.33599999999999 20.949 41.62499999999999 21.282 40.913999999999994 21.615000000000002 39.85199999999999 21.615000000000002 39.11399999999999 21.615000000000002 38.474999999999994 21.372 37.83599999999999 21.129 37.367999999999995 20.652 36.89999999999999 20.175 36.629999999999995 19.491 36.35999999999999 18.807000000000002 36.35999999999999 17.943 z" /><path d="M44.33399999999999 17.799 Q44.33399999999999 16.557000000000002 44.77499999999999 15.540000000000001 45.215999999999994 14.523000000000001 45.92699999999999 13.794 46.63799999999999 13.065000000000001 47.51999999999999 12.660000000000002 48.40199999999999 12.255 49.30199999999999 12.255 50.09399999999999 12.255 50.65199999999999 12.516000000000002 51.209999999999994 12.777000000000001 51.56099999999999 13.236 51.91199999999999 13.695 52.06499999999999 14.298000000000002 52.21799999999999 14.901000000000002 52.21799999999999 15.603000000000002 52.21799999999999 15.927000000000001 52.16399999999999 16.242 52.10999999999999 16.557000000000002 52.03799999999999 16.836000000000002 51.965999999999994 17.115000000000002 51.88499999999999 17.322000000000003 51.80399999999999 17.529 51.74999999999999 17.637 L46.67399999999999 17.637 Q46.61999999999999 18.753 47.20499999999999 19.257 47.78999999999999 19.761000000000003 48.67199999999999 19.761000000000003 49.08599999999999 19.761000000000003 49.53599999999999 19.563000000000002 49.98599999999999 19.365000000000002 50.32799999999999 19.131 L51.19199999999999 20.679000000000002 Q50.65199999999999 21.057000000000002 49.84199999999999 21.336000000000002 49.03199999999999 21.615000000000002 47.98799999999999 21.615000000000002 47.17799999999999 21.615000000000002 46.50299999999999 21.354 45.82799999999999 21.093 45.35099999999999 20.598000000000003 44.87399999999999 20.103 44.60399999999999 19.401 44.33399999999999 18.699 44.33399999999999 17.799 zM50.11199999999999 16.125 Q50.20199999999999 15.819000000000003 50.20199999999999 15.459000000000001 50.20199999999999 14.919 49.94099999999999 14.532000000000002 49.67999999999999 14.145000000000001 48.99599999999999 14.145000000000001 48.36599999999999 14.145000000000001 47.77199999999999 14.64 47.17799999999999 15.135000000000002 46.87199999999999 16.125 L50.11199999999999 16.125 z" /><path d="M58.15799999999999 18.033 Q58.62599999999999 18.717000000000002 59.31899999999999 19.113 60.011999999999986 19.509 60.76799999999999 19.509 61.52399999999999 19.509 61.99199999999999 19.149 62.45999999999999 18.789 62.45999999999999 18.159000000000002 62.45999999999999 17.691000000000003 62.09099999999999 17.394000000000002 61.72199999999999 17.097 61.091999999999985 16.701 L59.975999999999985 16.017000000000003 Q59.16599999999999 15.513000000000002 58.697999999999986 14.838000000000001 58.22999999999999 14.163 58.22999999999999 13.083000000000002 58.22999999999999 12.327000000000002 58.55399999999999 11.670000000000002 58.877999999999986 11.013000000000002 59.426999999999985 10.518000000000002 59.975999999999985 10.023000000000001 60.731999999999985 9.735000000000001 61.487999999999985 9.447000000000001 62.35199999999999 9.447000000000001 63.39599999999999 9.447000000000001 64.314 9.933000000000002 65.23199999999999 10.419000000000002 65.91599999999998 11.229000000000001 L64.35 12.687000000000001 Q63.899999999999984 12.219000000000001 63.39599999999999 11.904000000000002 62.89199999999999 11.589000000000002 62.243999999999986 11.589000000000002 61.52399999999999 11.589000000000002 61.136999999999986 11.958000000000002 60.749999999999986 12.327000000000002 60.749999999999986 12.849000000000002 60.749999999999986 13.299000000000001 61.14599999999999 13.587000000000002 61.54199999999999 13.875000000000002 62.225999999999985 14.307000000000002 L63.377999999999986 15.009 Q64.24199999999999 15.531000000000002 64.62899999999999 16.152 65.01599999999999 16.773000000000003 65.01599999999999 17.799 65.01599999999999 18.609 64.701 19.302 64.38599999999998 19.995 63.80999999999999 20.508000000000003 63.23399999999999 21.021 62.414999999999985 21.318 61.59599999999999 21.615000000000002 60.58799999999999 21.615000000000002 59.435999999999986 21.615000000000002 58.34699999999999 21.111 57.25799999999999 20.607 56.39399999999999 19.419 L58.15799999999999 18.033 z" /><path d="M66.384 18.339000000000002 Q66.384 17.061 66.77999999999999 15.954 67.17599999999999 14.847000000000001 67.842 14.019000000000002 68.508 13.191 69.372 12.723 70.23599999999999 12.255 71.154 12.255 71.76599999999999 12.255 72.306 12.570000000000002 72.84599999999999 12.885000000000002 73.098 13.425 L73.13399999999999 13.425 73.52999999999999 12.471000000000002 75.49199999999999 12.471000000000002 73.71 21.399 71.71199999999999 21.399 71.74799999999999 20.229 71.69399999999999 20.229 Q71.082 20.859 70.344 21.237000000000002 69.606 21.615000000000002 68.904 21.615000000000002 67.716 21.615000000000002 67.05 20.769000000000002 66.384 19.923000000000002 66.384 18.339000000000002 zM69.984 19.599 Q70.434 19.599 70.94699999999999 19.32 71.46 19.041 71.892 18.285 L72.52199999999999 15.117 Q72.306 14.667000000000002 71.973 14.469000000000001 71.63999999999999 14.271 71.33399999999999 14.271 70.866 14.271 70.434 14.559000000000001 70.002 14.847000000000001 69.669 15.351000000000003 69.336 15.855 69.13799999999999 16.539 68.94 17.223000000000003 68.94 18.033 68.94 18.843 69.219 19.221 69.49799999999999 19.599 69.984 19.599 z" /><path d="M77.778 12.471000000000002 L79.776 12.471000000000002 79.74 13.659000000000002 79.812 13.659000000000002 Q80.478 13.083000000000002 81.216 12.669000000000002 81.954 12.255 82.818 12.255 83.934 12.255 84.438 12.840000000000002 84.94200000000001 13.425 84.94200000000001 14.541 84.94200000000001 14.847000000000001 84.906 15.162000000000003 84.87 15.477 84.798 15.819000000000003 L83.682 21.399 81.216 21.399 82.278 16.125 Q82.332 15.855 82.377 15.657 82.422 15.459000000000001 82.422 15.279000000000002 82.422 14.361 81.504 14.361 81.09 14.361 80.649 14.64 80.208 14.919 79.632 15.513000000000002 L78.48 21.399 76.014 21.399 77.778 12.471000000000002 z" /><path d="M86.97600000000001 18.699 Q87.912 19.815 88.902 19.815 89.424 19.815 89.793 19.572000000000003 90.162 19.329 90.162 18.969 90.162 18.573 89.766 18.321 89.37 18.069000000000003 88.614 17.637 87.858 17.223000000000003 87.33600000000001 16.62 86.81400000000001 16.017000000000003 86.81400000000001 15.171000000000001 86.81400000000001 14.541 87.084 14.001000000000001 87.35400000000001 13.461000000000002 87.822 13.074000000000002 88.29 12.687000000000001 88.92 12.471000000000002 89.55000000000001 12.255 90.27000000000001 12.255 91.188 12.255 91.917 12.651000000000002 92.646 13.047000000000002 93.20400000000001 13.623000000000001 L91.85400000000001 14.901000000000002 Q91.53 14.559000000000001 91.13400000000001 14.325000000000001 90.73800000000001 14.091000000000001 90.27000000000001 14.091000000000001 89.748 14.091000000000001 89.433 14.334000000000001 89.11800000000001 14.577000000000002 89.11800000000001 14.937000000000001 89.11800000000001 15.153000000000002 89.24400000000001 15.315000000000001 89.37 15.477 89.58600000000001 15.612000000000002 89.802 15.747000000000002 90.063 15.882000000000001 90.32400000000001 16.017000000000003 90.59400000000001 16.179000000000002 91.40400000000001 16.611 91.935 17.187 92.46600000000001 17.763 92.46600000000001 18.681 92.46600000000001 19.329 92.18700000000001 19.869 91.908 20.409000000000002 91.42200000000001 20.796 90.936 21.183 90.25200000000001 21.399 89.56800000000001 21.615000000000002 88.75800000000001 21.615000000000002 88.34400000000001 21.615000000000002 87.894 21.498 87.444 21.381 87.021 21.165 86.59800000000001 20.949 86.21100000000001 20.625 85.82400000000001 20.301000000000002 85.554 19.887 L86.97600000000001 18.699 z" /><path d="M99.756 9.663000000000002 L103.464 9.663000000000002 Q104.328 9.663000000000002 105.057 9.834000000000001 105.786 10.005000000000003 106.32600000000001 10.374000000000002 106.866 10.743000000000002 107.172 11.337000000000002 107.47800000000001 11.931000000000001 107.47800000000001 12.777000000000001 107.47800000000001 14.001000000000001 107.046 14.865000000000002 106.614 15.729000000000001 105.876 16.278000000000002 105.138 16.827 104.15700000000001 17.079 103.176 17.331000000000003 102.06 17.331000000000003 L100.674 17.331000000000003 99.882 21.399 97.39800000000001 21.399 99.756 9.663000000000002 zM102.33000000000001 15.369000000000002 Q103.644 15.369000000000002 104.346 14.811000000000002 105.048 14.253000000000002 105.048 13.137000000000002 105.048 12.345000000000002 104.53500000000001 11.985000000000001 104.022 11.625000000000002 103.06800000000001 11.625000000000002 L101.808 11.625000000000002 101.08800000000001 15.369000000000002 102.33000000000001 15.369000000000002 z" /><path d="M109.40400000000001 12.471000000000002 L111.402 12.471000000000002 111.29400000000001 14.199000000000002 111.366 14.199000000000002 Q111.888 13.353000000000002 112.608 12.804000000000002 113.328 12.255 114.102 12.255 114.444 12.255 114.66900000000001 12.3 114.894 12.345000000000002 115.03800000000001 12.435000000000002 L114.22800000000001 14.559000000000001 Q114.048 14.469000000000001 113.805 14.442 113.56200000000001 14.415000000000003 113.346 14.415000000000003 112.75200000000001 14.415000000000003 112.194 14.847000000000001 111.63600000000001 15.279000000000002 111.114 16.233 L110.10600000000001 21.399 107.64 21.399 109.40400000000001 12.471000000000002 z" /><path d="M118.296 21.615000000000002 Q117.504 21.615000000000002 116.87400000000001 21.354 116.24400000000001 21.093 115.78500000000001 20.607 115.32600000000001 20.121000000000002 115.08300000000001 19.446 114.84000000000002 18.771 114.84000000000002 17.943 114.84000000000002 16.647000000000002 115.272 15.594000000000001 115.70400000000001 14.541 116.415 13.803 117.126 13.065000000000001 118.02600000000001 12.660000000000002 118.92600000000002 12.255 119.84400000000001 12.255 120.61800000000001 12.255 121.257 12.516000000000002 121.89600000000002 12.777000000000001 122.346 13.263000000000002 122.796 13.749000000000002 123.04800000000002 14.424000000000001 123.30000000000001 15.099 123.30000000000001 15.927000000000001 123.30000000000001 17.223000000000003 122.86800000000001 18.276 122.436 19.329 121.72500000000001 20.067 121.01400000000001 20.805 120.114 21.21 119.21400000000001 21.615000000000002 118.296 21.615000000000002 zM119.55600000000001 14.235000000000001 Q119.10600000000001 14.235000000000001 118.70100000000001 14.514000000000001 118.296 14.793000000000001 117.99000000000001 15.279000000000002 117.68400000000001 15.765 117.504 16.44 117.32400000000001 17.115000000000002 117.32400000000001 17.889000000000003 117.32400000000001 18.699 117.63000000000001 19.167 117.936 19.635 118.56600000000002 19.635 119.016 19.635 119.421 19.356 119.82600000000001 19.077 120.141 18.591 120.45600000000002 18.105 120.63600000000001 17.439 120.81600000000002 16.773000000000003 120.81600000000002 15.981000000000002 120.81600000000002 15.153000000000002 120.501 14.694000000000003 120.186 14.235000000000001 119.55600000000001 14.235000000000001 z" /><path d="M130.32 9.663000000000002 L132.786 9.663000000000002 130.446 21.399 127.962 21.399 130.32 9.663000000000002 z" /><path d="M134.784 14.397000000000002 L133.596 14.397000000000002 133.956 12.579000000000002 135.27 12.471000000000002 136.026 10.131000000000002 138.096 10.131000000000002 137.646 12.471000000000002 139.68 12.471000000000002 139.302 14.397000000000002 137.214 14.397000000000002 136.44 18.231 Q136.404 18.393 136.404 18.537000000000003 136.404 18.681 136.404 18.825000000000003 136.404 19.689 137.322 19.689 137.52 19.689 137.7 19.635 137.88 19.581 138.06 19.491 L138.492 21.219 Q138.132 21.363 137.61 21.489 137.088 21.615000000000002 136.404 21.615000000000002 135.054 21.615000000000002 134.46 20.949 133.866 20.283 133.866 19.257 133.866 18.969 133.911 18.69 133.956 18.411 134.01 18.123 L134.784 14.397000000000002 z" /><path d="M139.914 18.339000000000002 Q139.914 17.061 140.31 15.954 140.706 14.847000000000001 141.37199999999999 14.019000000000002 142.03799999999998 13.191 142.902 12.723 143.766 12.255 144.684 12.255 145.296 12.255 145.83599999999998 12.570000000000002 146.376 12.885000000000002 146.628 13.425 L146.664 13.425 147.06 12.471000000000002 149.022 12.471000000000002 147.23999999999998 21.399 145.242 21.399 145.278 20.229 145.224 20.229 Q144.612 20.859 143.874 21.237000000000002 143.136 21.615000000000002 142.434 21.615000000000002 141.24599999999998 21.615000000000002 140.57999999999998 20.769000000000002 139.914 19.923000000000002 139.914 18.339000000000002 zM143.51399999999998 19.599 Q143.964 19.599 144.477 19.32 144.98999999999998 19.041 145.422 18.285 L146.052 15.117 Q145.83599999999998 14.667000000000002 145.503 14.469000000000001 145.17 14.271 144.864 14.271 144.396 14.271 143.964 14.559000000000001 143.53199999999998 14.847000000000001 143.19899999999998 15.351000000000003 142.86599999999999 15.855 142.668 16.539 142.47 17.223000000000003 142.47 18.033 142.47 18.843 142.749 19.221 143.028 19.599 143.51399999999998 19.599 z" /><path d="M152.082 8.781000000000002 L154.548 8.781000000000002 152.514 18.879 Q152.478 19.023 152.478 19.086000000000002 152.478 19.149 152.478 19.221 152.478 19.455000000000002 152.577 19.545 152.676 19.635 152.82 19.635 152.91 19.635 152.964 19.635 153.018 19.635 153.144 19.599 L153.072 21.417 Q152.838 21.507 152.514 21.561 152.19 21.615000000000002 151.758 21.615000000000002 150.786 21.615000000000002 150.372 21.147000000000002 149.958 20.679000000000002 149.958 19.869 149.958 19.401 150.084 18.771 L152.082 8.781000000000002 z" /><path d="M156.29399999999998 12.471000000000002 L158.742 12.471000000000002 156.95999999999998 21.399 154.494 21.399 156.29399999999998 12.471000000000002 zM157.986 11.139000000000001 Q157.482 11.139000000000001 157.06799999999998 10.842000000000002 156.654 10.545000000000002 156.654 9.951000000000002 156.654 9.663000000000002 156.771 9.393000000000002 156.88799999999998 9.123000000000001 157.095 8.925000000000002 157.302 8.727000000000002 157.581 8.610000000000001 157.85999999999999 8.493000000000002 158.184 8.493000000000002 158.706 8.493000000000002 159.111 8.799000000000001 159.516 9.105000000000002 159.516 9.681000000000001 159.516 10.311000000000002 159.075 10.725000000000001 158.634 11.139000000000001 157.986 11.139000000000001 z" /><path d="M159.534 17.943 Q159.534 16.791 159.939 15.756 160.344 14.721 161.055 13.938000000000002 161.766 13.155000000000001 162.729 12.705000000000002 163.692 12.255 164.79 12.255 165.636 12.255 166.239 12.597000000000001 166.842 12.939000000000002 167.184 13.353000000000002 L165.816 14.811000000000002 Q165.546 14.523000000000001 165.276 14.379000000000001 165.006 14.235000000000001 164.628 14.235000000000001 164.088 14.235000000000001 163.62 14.523000000000001 163.152 14.811000000000002 162.801 15.315000000000001 162.45 15.819000000000003 162.252 16.476 162.054 17.133000000000003 162.054 17.889000000000003 162.054 18.699 162.432 19.167 162.81 19.635 163.566 19.635 164.034 19.635 164.367 19.455000000000002 164.7 19.275000000000002 164.988 19.059 L166.014 20.571 Q165.51 20.949 164.799 21.282 164.088 21.615000000000002 163.026 21.615000000000002 162.288 21.615000000000002 161.649 21.372 161.01 21.129 160.542 20.652 160.074 20.175 159.804 19.491 159.534 18.807000000000002 159.534 17.943 z" /></g></svg>