<svg width="170" height="30" xmlns="http://www.w3.org/2000/svg" viewBox="0 0 170 30"><g fill="currentColor"><path d="M1.9000000000000001 20.9125 Q2.8000000000000003 21.937500000000004 4.05 22.5375 5.300000000000001 23.137500000000003 6.7250000000000005 23.137500000000003 8.625 23.137500000000003 9.725000000000001 22.225 10.825000000000001 21.312500000000004 10.825000000000001 19.837500000000002 10.825000000000001 19.062500000000004 10.5875 18.5375 10.350000000000001 18.012500000000003 9.950000000000001 17.625000000000004 9.55 17.237500000000004 9.012500000000001 16.950000000000003 8.475 16.6625 7.875 16.387500000000003 L5.375 15.262500000000003 Q4.825 15.037500000000003 4.2375 14.712500000000002 3.6500000000000004 14.387500000000003 3.1625 13.900000000000002 2.6750000000000003 13.412500000000001 2.35 12.750000000000002 2.025 12.087500000000002 2.025 11.162500000000001 2.025 10.262500000000003 2.3875 9.525000000000002 2.75 8.787500000000001 3.3875 8.250000000000002 4.025 7.712500000000002 4.9125000000000005 7.412500000000001 5.800000000000001 7.112500000000001 6.825 7.112500000000001 8.325000000000001 7.112500000000001 9.4875 7.700000000000003 10.65 8.287500000000001 11.4 9.087500000000002 L10.75 9.862500000000002 Q10.025 9.087500000000002 9.05 8.625000000000002 8.075000000000001 8.162500000000001 6.825 8.162500000000001 5.175000000000001 8.162500000000001 4.175 8.962500000000002 3.1750000000000003 9.762500000000003 3.1750000000000003 11.112500000000002 3.1750000000000003 11.837500000000002 3.45 12.337500000000002 3.725 12.837500000000002 4.15 13.200000000000003 4.575 13.562500000000002 5.075 13.825000000000003 5.575 14.087500000000002 6.025 14.287500000000001 L8.525 15.387500000000003 Q9.225 15.687500000000002 9.850000000000001 16.062500000000004 10.475000000000001 16.437500000000004 10.950000000000001 16.937500000000004 11.425 17.437500000000004 11.7125 18.125000000000004 12 18.812500000000004 12 19.762500000000003 12 20.712500000000002 11.625 21.525000000000002 11.25 22.337500000000002 10.5625 22.925000000000004 9.875 23.512500000000003 8.9 23.85 7.925000000000001 24.187500000000004 6.7250000000000005 24.187500000000004 4.925000000000001 24.187500000000004 3.5250000000000004 23.500000000000004 2.125 22.812500000000004 1.1500000000000001 21.712500000000002 L1.9000000000000001 20.9125 z" /><path d="M14.325000000000001 17.9125 Q14.325000000000001 16.4125 14.762500000000001 15.225000000000003 15.200000000000001 14.037500000000001 15.9375 13.237500000000002 16.675 12.437500000000002 17.65 12.012500000000003 18.625 11.587500000000002 19.700000000000003 11.587500000000002 20.775 11.587500000000002 21.762500000000003 12.012500000000003 22.75 12.437500000000002 23.4875 13.237500000000002 24.225 14.037500000000001 24.6625 15.225000000000003 25.1 16.4125 25.1 17.9125 25.1 19.4125 24.6625 20.575000000000003 24.225 21.737500000000004 23.4875 22.5375 22.75 23.337500000000002 21.762500000000003 23.762500000000003 20.775 24.187500000000004 19.700000000000003 24.187500000000004 18.625 24.187500000000004 17.65 23.762500000000003 16.675 23.337500000000002 15.9375 22.5375 15.200000000000001 21.737500000000004 14.762500000000001 20.575000000000003 14.325000000000001 19.4125 14.325000000000001 17.9125 zM15.475000000000001 17.9125 Q15.475000000000001 19.087500000000002 15.8 20.062500000000004 16.125 21.0375 16.6875 21.737500000000004 17.25 22.437500000000004 18.025 22.825000000000003 18.8 23.212500000000002 19.700000000000003 23.212500000000002 20.6 23.212500000000002 21.387500000000003 22.825000000000003 22.175 22.437500000000004 22.7375 21.737500000000004 23.3 21.0375 23.625 20.062500000000004 23.950000000000003 19.087500000000002 23.950000000000003 17.9125 23.950000000000003 16.712500000000002 23.625 15.737500000000002 23.3 14.762500000000003 22.7375 14.050000000000002 22.175 13.337500000000002 21.387500000000003 12.950000000000003 20.6 12.562500000000002 19.700000000000003 12.562500000000002 18.8 12.562500000000002 18.025 12.950000000000003 17.25 13.337500000000002 16.6875 14.050000000000002 16.125 14.762500000000003 15.8 15.737500000000002 15.475000000000001 16.712500000000002 15.475000000000001 17.9125 z" /><path d="M28.525 11.887500000000003 L29.625 11.887500000000003 29.625 19.437500000000004 Q29.625 21.362500000000004 30.2625 22.275000000000002 30.9 23.187500000000004 32.35 23.187500000000004 33.425 23.187500000000004 34.3 22.6 35.175 22.012500000000003 36.225 20.737500000000004 L36.225 11.887500000000003 37.325 11.887500000000003 37.325 23.887500000000003 36.4 23.887500000000003 36.275 21.887500000000003 36.225 21.887500000000003 Q35.35 22.937500000000004 34.375 23.562500000000004 33.4 24.187500000000004 32.15 24.187500000000004 30.275 24.187500000000004 29.4 23.062500000000004 28.525 21.937500000000004 28.525 19.587500000000002 L28.525 11.887500000000003 z" /><path d="M41.925 11.887500000000003 L42.875 11.887500000000003 42.975 14.112500000000002 43.05 14.112500000000002 Q43.65 12.987500000000002 44.5125 12.287500000000001 45.375 11.587500000000002 46.45 11.587500000000002 46.8 11.587500000000002 47.075 11.637500000000003 47.35 11.687500000000002 47.65 11.837500000000002 L47.4 12.837500000000002 Q47.1 12.712500000000002 46.875 12.675000000000002 46.65 12.637500000000003 46.3 12.637500000000003 45.5 12.637500000000003 44.6125 13.325000000000003 43.725 14.012500000000003 43.025 15.712500000000002 L43.025 23.887500000000003 41.925 23.887500000000003 41.925 11.887500000000003 z" /><path d="M48.849999999999994 17.9125 Q48.849999999999994 16.4125 49.3 15.225000000000003 49.75 14.037500000000001 50.5 13.237500000000002 51.25 12.437500000000002 52.2375 12.012500000000003 53.224999999999994 11.587500000000002 54.324999999999996 11.587500000000002 55.574999999999996 11.587500000000002 56.412499999999994 12.037500000000001 57.25 12.487500000000002 57.849999999999994 13.062500000000002 L57.199999999999996 13.837500000000002 Q56.625 13.287500000000001 55.925 12.925000000000002 55.224999999999994 12.562500000000002 54.349999999999994 12.562500000000002 53.425 12.562500000000002 52.637499999999996 12.950000000000003 51.849999999999994 13.337500000000002 51.262499999999996 14.050000000000002 50.675 14.762500000000003 50.3375 15.737500000000002 50 16.712500000000002 50 17.9125 50 19.087500000000002 50.3125 20.062500000000004 50.625 21.0375 51.1875 21.737500000000004 51.75 22.437500000000004 52.5625 22.825000000000003 53.375 23.212500000000002 54.349999999999994 23.212500000000002 55.3 23.212500000000002 56.1125 22.812500000000004 56.925 22.4125 57.55 21.837500000000002 L58.125 22.587500000000002 Q57.349999999999994 23.2875 56.4 23.737500000000004 55.449999999999996 24.187500000000004 54.3 24.187500000000004 53.125 24.187500000000004 52.137499999999996 23.762500000000003 51.15 23.337500000000002 50.412499999999994 22.5375 49.675 21.737500000000004 49.262499999999996 20.575000000000003 48.849999999999994 19.4125 48.849999999999994 17.9125 z" /><path d="M60.074999999999996 17.9125 Q60.074999999999996 16.437500000000004 60.512499999999996 15.262500000000003 60.949999999999996 14.087500000000002 61.6875 13.275000000000002 62.425 12.462500000000002 63.3625 12.025000000000002 64.3 11.587500000000002 65.3 11.587500000000002 67.45 11.587500000000002 68.675 13.037500000000001 69.9 14.487500000000002 69.9 17.137500000000003 69.9 17.362500000000004 69.9 17.587500000000002 69.9 17.812500000000004 69.85 18.0375 L61.199999999999996 18.0375 Q61.225 19.1625 61.55 20.125000000000004 61.875 21.087500000000002 62.4625 21.775000000000002 63.05 22.462500000000002 63.875 22.85 64.7 23.237500000000004 65.725 23.237500000000004 66.7 23.237500000000004 67.4875 22.950000000000003 68.275 22.6625 68.95 22.1625 L69.4 23.012500000000003 Q68.675 23.437500000000004 67.8125 23.812500000000004 66.95 24.187500000000004 65.625 24.187500000000004 64.475 24.187500000000004 63.4625 23.762500000000003 62.449999999999996 23.337500000000002 61.699999999999996 22.525000000000002 60.949999999999996 21.712500000000002 60.512499999999996 20.550000000000004 60.074999999999996 19.387500000000003 60.074999999999996 17.9125 zM68.85 17.187500000000004 Q68.85 14.862500000000002 67.9 13.700000000000003 66.95 12.537500000000001 65.325 12.537500000000001 64.55 12.537500000000001 63.85 12.862500000000002 63.15 13.187500000000002 62.5875 13.787500000000001 62.025 14.387500000000003 61.6625 15.250000000000002 61.3 16.112500000000004 61.199999999999996 17.187500000000004 L68.85 17.187500000000004 z" /><path d="M77.725 20.9125 Q78.62499999999999 21.937500000000004 79.87499999999999 22.5375 81.12499999999999 23.137500000000003 82.54999999999998 23.137500000000003 84.44999999999999 23.137500000000003 85.54999999999998 22.225 86.64999999999999 21.312500000000004 86.64999999999999 19.837500000000002 86.64999999999999 19.062500000000004 86.4125 18.5375 86.17499999999998 18.012500000000003 85.77499999999999 17.625000000000004 85.37499999999999 17.237500000000004 84.83749999999999 16.950000000000003 84.29999999999998 16.6625 83.69999999999999 16.387500000000003 L81.19999999999999 15.262500000000003 Q80.64999999999999 15.037500000000003 80.06249999999999 14.712500000000002 79.475 14.387500000000003 78.98749999999998 13.900000000000002 78.49999999999999 13.412500000000001 78.17499999999998 12.750000000000002 77.85 12.087500000000002 77.85 11.162500000000001 77.85 10.262500000000003 78.21249999999999 9.525000000000002 78.57499999999999 8.787500000000001 79.21249999999999 8.250000000000002 79.85 7.712500000000002 80.73749999999998 7.412500000000001 81.62499999999999 7.112500000000001 82.64999999999999 7.112500000000001 84.14999999999999 7.112500000000001 85.31249999999999 7.700000000000003 86.475 8.287500000000001 87.225 9.087500000000002 L86.57499999999999 9.862500000000002 Q85.85 9.087500000000002 84.87499999999999 8.625000000000002 83.89999999999999 8.162500000000001 82.64999999999999 8.162500000000001 80.99999999999999 8.162500000000001 79.99999999999999 8.962500000000002 78.99999999999999 9.762500000000003 78.99999999999999 11.112500000000002 78.99999999999999 11.837500000000002 79.27499999999999 12.337500000000002 79.54999999999998 12.837500000000002 79.975 13.200000000000003 80.39999999999999 13.562500000000002 80.89999999999999 13.825000000000003 81.39999999999999 14.087500000000002 81.85 14.287500000000001 L84.35 15.387500000000003 Q85.04999999999998 15.687500000000002 85.67499999999998 16.062500000000004 86.29999999999998 16.437500000000004 86.77499999999999 16.937500000000004 87.24999999999999 17.437500000000004 87.5375 18.125000000000004 87.82499999999999 18.812500000000004 87.82499999999999 19.762500000000003 87.82499999999999 20.712500000000002 87.44999999999999 21.525000000000002 87.07499999999999 22.337500000000002 86.38749999999999 22.925000000000004 85.69999999999999 23.512500000000003 84.725 23.85 83.74999999999999 24.187500000000004 82.54999999999998 24.187500000000004 80.74999999999999 24.187500000000004 79.35 23.500000000000004 77.94999999999999 22.812500000000004 76.975 21.712500000000002 L77.725 20.9125 z" /><path d="M90.475 20.887500000000003 Q90.475 18.9125 92.35 17.862500000000004 94.225 16.812500000000004 98.225 16.362500000000004 98.25 15.687500000000002 98.13749999999999 15.000000000000002 98.02499999999999 14.312500000000002 97.71249999999999 13.775000000000002 97.39999999999999 13.237500000000002 96.83749999999999 12.900000000000002 96.27499999999999 12.562500000000002 95.39999999999999 12.562500000000002 94.175 12.562500000000002 93.175 13.037500000000001 92.175 13.512500000000003 91.57499999999999 13.962500000000002 L91.07499999999999 13.137500000000003 Q91.39999999999999 12.912500000000001 91.8625 12.637500000000003 92.32499999999999 12.362500000000002 92.88749999999999 12.137500000000003 93.44999999999999 11.912500000000001 94.125 11.750000000000002 94.8 11.587500000000002 95.52499999999999 11.587500000000002 96.6 11.587500000000002 97.32499999999999 11.950000000000003 98.05 12.312500000000002 98.5 12.937500000000002 98.94999999999999 13.562500000000002 99.13749999999999 14.400000000000002 99.32499999999999 15.237500000000002 99.32499999999999 16.212500000000002 L99.32499999999999 23.887500000000003 98.39999999999999 23.887500000000003 98.27499999999999 22.337500000000002 98.225 22.337500000000002 Q97.3 23.062500000000004 96.2375 23.625000000000004 95.175 24.187500000000004 93.975 24.187500000000004 93.25 24.187500000000004 92.625 23.987500000000004 92 23.7875 91.51249999999999 23.387500000000003 91.02499999999999 22.987500000000004 90.75 22.362500000000004 90.475 21.737500000000004 90.475 20.887500000000003 zM91.625 20.837500000000002 Q91.625 22.137500000000003 92.375 22.687500000000004 93.125 23.237500000000004 94.14999999999999 23.237500000000004 95.19999999999999 23.237500000000004 96.14999999999999 22.737500000000004 97.1 22.237500000000004 98.225 21.2875 L98.225 17.212500000000002 Q96.375 17.437500000000004 95.1125 17.762500000000003 93.85 18.087500000000002 93.07499999999999 18.5375 92.3 18.987500000000004 91.96249999999999 19.562500000000004 91.625 20.137500000000003 91.625 20.837500000000002 z" /><path d="M103.62499999999999 11.887500000000003 L104.57499999999999 11.887500000000003 104.67499999999998 13.737500000000002 104.74999999999999 13.737500000000002 Q105.67499999999998 12.812500000000002 106.64999999999999 12.200000000000003 107.62499999999999 11.587500000000002 108.87499999999999 11.587500000000002 110.74999999999999 11.587500000000002 111.62499999999999 12.712500000000002 112.49999999999999 13.837500000000002 112.49999999999999 16.187500000000004 L112.49999999999999 23.887500000000003 111.39999999999999 23.887500000000003 111.39999999999999 16.337500000000002 Q111.39999999999999 14.412500000000003 110.76249999999999 13.500000000000002 110.12499999999999 12.587500000000002 108.64999999999999 12.587500000000002 107.57499999999999 12.587500000000002 106.69999999999999 13.150000000000002 105.82499999999999 13.712500000000002 104.725 14.837500000000002 L104.725 23.887500000000003 103.62499999999999 23.887500000000003 103.62499999999999 11.887500000000003 z" /><path d="M116.07499999999999 21.712500000000002 Q116.84999999999998 22.362500000000004 117.72499999999998 22.800000000000004 118.59999999999998 23.237500000000004 119.89999999999999 23.237500000000004 121.32499999999999 23.237500000000004 122.03749999999998 22.525000000000002 122.74999999999999 21.812500000000004 122.74999999999999 20.862500000000004 122.74999999999999 20.312500000000004 122.48749999999998 19.887500000000003 122.22499999999998 19.462500000000002 121.79999999999998 19.1625 121.37499999999999 18.862500000000004 120.86249999999998 18.637500000000003 120.34999999999998 18.4125 119.82499999999999 18.212500000000002 119.14999999999999 17.962500000000002 118.46249999999999 17.687500000000004 117.77499999999999 17.4125 117.22499999999998 17.025000000000002 116.67499999999998 16.637500000000003 116.33749999999999 16.1 115.99999999999999 15.562500000000002 115.99999999999999 14.787500000000003 115.99999999999999 14.137500000000003 116.24999999999999 13.550000000000002 116.49999999999999 12.962500000000002 116.99999999999999 12.525000000000002 117.49999999999999 12.087500000000002 118.21249999999999 11.837500000000002 118.92499999999998 11.587500000000002 119.87499999999999 11.587500000000002 120.82499999999999 11.587500000000002 121.73749999999998 11.937500000000002 122.64999999999999 12.287500000000001 123.29999999999998 12.837500000000002 L122.69999999999999 13.612500000000002 Q122.09999999999998 13.162500000000001 121.42499999999998 12.850000000000001 120.74999999999999 12.537500000000001 119.82499999999999 12.537500000000001 119.12499999999999 12.537500000000001 118.62499999999999 12.725000000000001 118.12499999999999 12.912500000000001 117.78749999999998 13.212500000000002 117.44999999999999 13.512500000000003 117.28749999999998 13.912500000000001 117.12499999999999 14.312500000000002 117.12499999999999 14.712500000000002 117.12499999999999 15.237500000000002 117.36249999999998 15.600000000000003 117.59999999999998 15.962500000000002 117.99999999999999 16.237500000000004 118.39999999999999 16.512500000000003 118.91249999999998 16.725 119.42499999999998 16.937500000000004 119.94999999999999 17.137500000000003 120.64999999999999 17.4125 121.34999999999998 17.687500000000004 122.04999999999998 17.962500000000002 122.61249999999998 18.362500000000004 123.17499999999998 18.762500000000003 123.52499999999999 19.35 123.87499999999999 19.937500000000004 123.87499999999999 20.812500000000004 123.87499999999999 21.487500000000004 123.61249999999998 22.1 123.34999999999998 22.712500000000002 122.82499999999999 23.175000000000004 122.29999999999998 23.637500000000003 121.54999999999998 23.9125 120.79999999999998 24.187500000000004 119.82499999999999 24.187500000000004 118.47499999999998 24.187500000000004 117.34999999999998 23.700000000000003 116.22499999999998 23.212500000000002 115.42499999999998 22.5375 L116.07499999999999 21.712500000000002 z" /><path d="M132.15 7.412500000000001 L136.65 7.412500000000001 Q138.025 7.412500000000001 139.11249999999998 7.650000000000002 140.2 7.887500000000003 140.9625 8.437500000000002 141.725 8.987500000000002 142.125 9.862500000000002 142.525 10.737500000000002 142.525 12.012500000000003 142.525 14.437500000000002 140.975 15.625000000000002 139.42499999999998 16.812500000000004 136.65 16.812500000000004 L133.29999999999998 16.812500000000004 133.29999999999998 23.887500000000003 132.15 23.887500000000003 132.15 7.412500000000001 zM136.375 15.837500000000002 Q138.9 15.837500000000002 140.125 14.937500000000002 141.35 14.037500000000001 141.35 12.012500000000003 141.35 10.962500000000002 141.0375 10.275000000000002 140.725 9.587500000000002 140.11249999999998 9.162500000000001 139.5 8.737500000000002 138.5625 8.562500000000002 137.625 8.387500000000003 136.375 8.387500000000003 L133.29999999999998 8.387500000000003 133.29999999999998 15.837500000000002 136.375 15.837500000000002 z" /><path d="M146 11.887500000000003 L146.95 11.887500000000003 147.04999999999998 14.112500000000002 147.125 14.112500000000002 Q147.725 12.987500000000002 148.58749999999998 12.287500000000001 149.45 11.587500000000002 150.52499999999998 11.587500000000002 150.875 11.587500000000002 151.14999999999998 11.637500000000003 151.42499999999998 11.687500000000002 151.725 11.837500000000002 L151.475 12.837500000000002 Q151.17499999999998 12.712500000000002 150.95 12.675000000000002 150.725 12.637500000000003 150.375 12.637500000000003 149.575 12.637500000000003 148.6875 13.325000000000003 147.79999999999998 14.012500000000003 147.1 15.712500000000002 L147.1 23.887500000000003 146 23.887500000000003 146 11.887500000000003 z" /><path d="M152.925 17.9125 Q152.925 16.4125 153.3625 15.225000000000003 153.8 14.037500000000001 154.5375 13.237500000000002 155.275 12.437500000000002 156.25 12.012500000000003 157.225 11.587500000000002 158.3 11.587500000000002 159.375 11.587500000000002 160.3625 12.012500000000003 161.35 12.437500000000002 162.0875 13.237500000000002 162.825 14.037500000000001 163.2625 15.225000000000003 163.7 16.4125 163.7 17.9125 163.7 19.4125 163.2625 20.575000000000003 162.825 21.737500000000004 162.0875 22.5375 161.35 23.337500000000002 160.3625 23.762500000000003 159.375 24.187500000000004 158.3 24.187500000000004 157.225 24.187500000000004 156.25 23.762500000000003 155.275 23.337500000000002 154.5375 22.5375 153.8 21.737500000000004 153.3625 20.575000000000003 152.925 19.4125 152.925 17.9125 zM154.075 17.9125 Q154.075 19.087500000000002 154.4 20.062500000000004 154.725 21.0375 155.2875 21.737500000000004 155.85 22.437500000000004 156.625 22.825000000000003 157.4 23.212500000000002 158.3 23.212500000000002 159.2 23.212500000000002 159.9875 22.825000000000003 160.775 22.437500000000004 161.3375 21.737500000000004 161.9 21.0375 162.225 20.062500000000004 162.55 19.087500000000002 162.55 17.9125 162.55 16.712500000000002 162.225 15.737500000000002 161.9 14.762500000000003 161.3375 14.050000000000002 160.775 13.337500000000002 159.9875 12.950000000000003 159.2 12.562500000000002 158.3 12.562500000000002 157.4 12.562500000000002 156.625 12.950000000000003 155.85 13.337500000000002 155.2875 14.050000000000002 154.725 14.762500000000003 154.4 15.737500000000002 154.075 16.712500000000002 154.075 17.9125 z" /></g></svg>