<svg width="170" height="30" xmlns="http://www.w3.org/2000/svg" viewBox="0 0 170 30"><g fill="currentColor"><path d="M2.737 18.967499999999998 Q3.542 19.6575 4.5195 20.094499999999996 5.497 20.531499999999998 6.4399999999999995 20.531499999999998 7.498 20.531499999999998 8.0155 20.140499999999996 8.533 19.749499999999998 8.533 19.082499999999996 8.533 18.737499999999997 8.3835 18.484499999999997 8.234 18.231499999999997 7.9464999999999995 18.035999999999998 7.659 17.8405 7.2565 17.668 6.854 17.495499999999996 6.3709999999999996 17.2885 L4.416 16.460499999999996 Q3.8409999999999997 16.2305 3.3005 15.862499999999997 2.76 15.494499999999999 2.3345 14.999999999999998 1.909 14.505499999999998 1.656 13.849999999999998 1.403 13.194499999999998 1.403 12.366499999999997 1.403 11.446499999999997 1.794 10.629999999999997 2.185 9.813499999999998 2.898 9.203999999999997 3.6109999999999998 8.594499999999998 4.5885 8.249499999999998 5.566 7.904499999999997 6.739 7.904499999999997 8.05 7.904499999999997 9.3265 8.410499999999997 10.603 8.916499999999997 11.568999999999999 9.882499999999997 L9.844 12.021499999999998 Q9.108 11.446499999999997 8.372 11.135999999999997 7.636 10.825499999999998 6.739 10.825499999999998 5.865 10.825499999999998 5.3475 11.181999999999997 4.83 11.538499999999997 4.83 12.182499999999997 4.83 12.527499999999998 5.0024999999999995 12.768999999999997 5.175 13.010499999999997 5.4855 13.205999999999998 5.796 13.401499999999997 6.21 13.573999999999998 6.624 13.746499999999997 7.107 13.953499999999998 L9.039 14.735499999999996 Q10.419 15.287499999999998 11.2125 16.253499999999995 12.006 17.219499999999996 12.006 18.806499999999996 12.006 19.749499999999998 11.6265 20.589 11.247 21.428499999999996 10.522499999999999 22.060999999999996 9.798 22.693499999999997 8.74 23.072999999999997 7.6819999999999995 23.452499999999997 6.348 23.452499999999997 4.876 23.452499999999997 3.4154999999999998 22.911999999999995 1.955 22.371499999999997 0.8049999999999999 21.290499999999998 L2.737 18.967499999999998 z" /><path d="M13.616 17.472499999999997 Q13.616 16.046499999999998 14.076 14.930999999999997 14.536 13.815499999999997 15.3065 13.056499999999998 16.077 12.297499999999998 17.089 11.894999999999998 18.101 11.492499999999998 19.182000000000002 11.492499999999998 20.262999999999998 11.492499999999998 21.2635 11.894999999999998 22.264 12.297499999999998 23.0345 13.056499999999998 23.805 13.815499999999997 24.265 14.930999999999997 24.725 16.046499999999998 24.725 17.472499999999997 24.725 18.8985 24.265 20.013999999999996 23.805 21.129499999999997 23.0345 21.888499999999997 22.264 22.647499999999997 21.2635 23.049999999999997 20.262999999999998 23.452499999999997 19.182000000000002 23.452499999999997 18.101 23.452499999999997 17.089 23.049999999999997 16.077 22.647499999999997 15.3065 21.888499999999997 14.536 21.129499999999997 14.076 20.013999999999996 13.616 18.8985 13.616 17.472499999999997 zM17.089 17.472499999999997 Q17.089 18.967499999999998 17.6065 19.841499999999996 18.124000000000002 20.7155 19.182000000000002 20.7155 20.217 20.7155 20.746000000000002 19.841499999999996 21.275 18.967499999999998 21.275 17.472499999999997 21.275 15.977499999999997 20.746000000000002 15.103499999999997 20.217 14.229499999999998 19.182000000000002 14.229499999999998 18.124000000000002 14.229499999999998 17.6065 15.103499999999997 17.089 15.977499999999997 17.089 17.472499999999997 z" /><path d="M26.933 11.768499999999998 L30.314 11.768499999999998 30.314 18.415499999999998 Q30.314 19.6575 30.659 20.117499999999996 31.004 20.577499999999997 31.740000000000002 20.577499999999997 32.384 20.577499999999997 32.821 20.278499999999998 33.258 19.979499999999998 33.764 19.312499999999996 L33.764 11.768499999999998 37.145 11.768499999999998 37.145 23.176499999999997 34.385000000000005 23.176499999999997 34.132000000000005 21.589499999999997 34.063 21.589499999999997 Q33.327 22.463499999999996 32.4875 22.958 31.648 23.452499999999997 30.475 23.452499999999997 28.612000000000002 23.452499999999997 27.7725 22.233499999999996 26.933 21.014499999999998 26.933 18.8525 L26.933 11.768499999999998 z" /><path d="M40.112 11.768499999999998 L42.87200000000001 11.768499999999998 43.102000000000004 13.769499999999997 43.194 13.769499999999997 Q43.815000000000005 12.596499999999997 44.68900000000001 12.044499999999998 45.563 11.492499999999998 46.437000000000005 11.492499999999998 46.92 11.492499999999998 47.230500000000006 11.549999999999997 47.541000000000004 11.607499999999998 47.794000000000004 11.722499999999997 L47.242000000000004 14.643499999999998 Q46.92 14.551499999999997 46.644000000000005 14.505499999999998 46.368 14.459499999999997 46.00000000000001 14.459499999999997 45.356 14.459499999999997 44.654500000000006 14.919499999999998 43.953 15.379499999999997 43.493 16.5525 L43.493 23.176499999999997 40.112 23.176499999999997 40.112 11.768499999999998 z" /><path d="M48.599000000000004 17.472499999999997 Q48.599000000000004 16.046499999999998 49.082 14.930999999999997 49.565 13.815499999999997 50.3815 13.056499999999998 51.198 12.297499999999998 52.279 11.894999999999998 53.36 11.492499999999998 54.533 11.492499999999998 55.591 11.492499999999998 56.442 11.848999999999997 57.293 12.205499999999997 57.868 12.803499999999998 L56.327 14.896499999999998 Q55.522 14.229499999999998 54.74 14.229499999999998 53.498000000000005 14.229499999999998 52.785000000000004 15.103499999999997 52.072 15.977499999999997 52.072 17.472499999999997 52.072 18.967499999999998 52.7965 19.841499999999996 53.521 20.7155 54.625 20.7155 55.246 20.7155 55.752 20.4625 56.258 20.2095 56.672 19.887499999999996 L58.028999999999996 22.0265 Q57.201 22.762499999999996 56.189 23.107499999999998 55.177 23.452499999999997 54.234 23.452499999999997 53.038000000000004 23.452499999999997 52.0145 23.049999999999997 50.991 22.647499999999997 50.232 21.888499999999997 49.473 21.129499999999997 49.036 20.013999999999996 48.599000000000004 18.8985 48.599000000000004 17.472499999999997 z" /><path d="M59.34 17.472499999999997 Q59.34 16.092499999999998 59.8 14.976999999999997 60.26 13.861499999999998 61.0075 13.090999999999998 61.755 12.320499999999997 62.721000000000004 11.906499999999998 63.687 11.492499999999998 64.722 11.492499999999998 65.941 11.492499999999998 66.8495 11.906499999999998 67.758 12.320499999999997 68.3675 13.056499999999998 68.977 13.792499999999997 69.276 14.792999999999997 69.575 15.793499999999998 69.575 16.966499999999996 69.575 17.426499999999997 69.529 17.805999999999997 69.483 18.185499999999998 69.437 18.3925 L62.606 18.3925 Q62.836 19.7035 63.6295 20.29 64.423 20.876499999999997 65.57300000000001 20.876499999999997 66.792 20.876499999999997 68.034 20.117499999999996 L69.161 22.164499999999997 Q68.287 22.762499999999996 67.2175 23.107499999999998 66.148 23.452499999999997 65.113 23.452499999999997 63.894 23.452499999999997 62.836 23.049999999999997 61.778 22.647499999999997 60.996 21.877 60.214 21.106499999999997 59.777 20.002499999999998 59.34 18.8985 59.34 17.472499999999997 zM66.7 16.2995 Q66.7 15.310499999999998 66.263 14.689499999999997 65.826 14.068499999999997 64.791 14.068499999999997 63.986000000000004 14.068499999999997 63.3765 14.608999999999998 62.767 15.149499999999998 62.583 16.2995 L66.7 16.2995 z" /><path d="M77.947 18.967499999999998 Q78.75200000000001 19.6575 79.7295 20.094499999999996 80.70700000000001 20.531499999999998 81.65 20.531499999999998 82.70800000000001 20.531499999999998 83.22550000000001 20.140499999999996 83.74300000000001 19.749499999999998 83.74300000000001 19.082499999999996 83.74300000000001 18.737499999999997 83.5935 18.484499999999997 83.444 18.231499999999997 83.15650000000001 18.035999999999998 82.86900000000001 17.8405 82.46650000000001 17.668 82.06400000000001 17.495499999999996 81.581 17.2885 L79.626 16.460499999999996 Q79.051 16.2305 78.51050000000001 15.862499999999997 77.97000000000001 15.494499999999999 77.54450000000001 14.999999999999998 77.11900000000001 14.505499999999998 76.86600000000001 13.849999999999998 76.61300000000001 13.194499999999998 76.61300000000001 12.366499999999997 76.61300000000001 11.446499999999997 77.004 10.629999999999997 77.39500000000001 9.813499999999998 78.108 9.203999999999997 78.82100000000001 8.594499999999998 79.7985 8.249499999999998 80.77600000000001 7.904499999999997 81.94900000000001 7.904499999999997 83.26 7.904499999999997 84.5365 8.410499999999997 85.813 8.916499999999997 86.77900000000001 9.882499999999997 L85.054 12.021499999999998 Q84.31800000000001 11.446499999999997 83.58200000000001 11.135999999999997 82.846 10.825499999999998 81.94900000000001 10.825499999999998 81.075 10.825499999999998 80.5575 11.181999999999997 80.04 11.538499999999997 80.04 12.182499999999997 80.04 12.527499999999998 80.2125 12.768999999999997 80.385 13.010499999999997 80.69550000000001 13.205999999999998 81.00600000000001 13.401499999999997 81.42 13.573999999999998 81.834 13.746499999999997 82.31700000000001 13.953499999999998 L84.24900000000001 14.735499999999996 Q85.629 15.287499999999998 86.42250000000001 16.253499999999995 87.21600000000001 17.219499999999996 87.21600000000001 18.806499999999996 87.21600000000001 19.749499999999998 86.8365 20.589 86.45700000000001 21.428499999999996 85.7325 22.060999999999996 85.00800000000001 22.693499999999997 83.95 23.072999999999997 82.89200000000001 23.452499999999997 81.558 23.452499999999997 80.08600000000001 23.452499999999997 78.6255 22.911999999999995 77.165 22.371499999999997 76.01500000000001 21.290499999999998 L77.947 18.967499999999998 z" /><path d="M89.07900000000001 20.002499999999998 Q89.07900000000001 18.208499999999997 90.59700000000001 17.196499999999997 92.11500000000001 16.184499999999996 95.49600000000001 15.839499999999997 95.45 15.080499999999997 95.036 14.631999999999998 94.622 14.183499999999997 93.702 14.183499999999997 92.96600000000001 14.183499999999997 92.23 14.459499999999997 91.494 14.735499999999996 90.66600000000001 15.218499999999997 L89.47 12.987499999999997 Q90.574 12.320499999999997 91.78150000000001 11.906499999999998 92.989 11.492499999999998 94.346 11.492499999999998 96.554 11.492499999999998 97.7155 12.745999999999997 98.87700000000001 13.999499999999998 98.87700000000001 16.644499999999997 L98.87700000000001 23.176499999999997 96.117 23.176499999999997 95.864 22.003499999999995 95.795 22.003499999999995 Q95.059 22.647499999999997 94.2425 23.049999999999997 93.426 23.452499999999997 92.46000000000001 23.452499999999997 91.678 23.452499999999997 91.057 23.188 90.436 22.923499999999997 89.99900000000001 22.451999999999998 89.56200000000001 21.980499999999996 89.32050000000001 21.359499999999997 89.07900000000001 20.7385 89.07900000000001 20.002499999999998 zM92.299 19.749499999999998 Q92.299 20.301499999999997 92.6555 20.565999999999995 93.012 20.830499999999997 93.61 20.830499999999997 94.208 20.830499999999997 94.622 20.577499999999997 95.036 20.324499999999997 95.49600000000001 19.864499999999996 L95.49600000000001 17.8635 Q93.679 18.1165 92.989 18.5995 92.299 19.082499999999996 92.299 19.749499999999998 z" /><path d="M101.775 11.768499999999998 L104.535 11.768499999999998 104.765 13.217499999999998 104.857 13.217499999999998 Q105.593 12.527499999999998 106.467 12.009999999999998 107.34100000000001 11.492499999999998 108.514 11.492499999999998 110.377 11.492499999999998 111.2165 12.711499999999997 112.056 13.930499999999997 112.056 16.092499999999998 L112.056 23.176499999999997 108.675 23.176499999999997 108.675 16.5295 Q108.675 15.287499999999998 108.3415 14.827499999999997 108.008 14.367499999999998 107.272 14.367499999999998 106.628 14.367499999999998 106.168 14.654999999999998 105.708 14.942499999999997 105.156 15.471499999999997 L105.156 23.176499999999997 101.775 23.176499999999997 101.775 11.768499999999998 z" /><path d="M115.43700000000001 19.749499999999998 Q116.21900000000001 20.347499999999997 116.932 20.646499999999996 117.64500000000001 20.945499999999996 118.381 20.945499999999996 119.14 20.945499999999996 119.48500000000001 20.692499999999995 119.83000000000001 20.439499999999995 119.83000000000001 19.979499999999998 119.83000000000001 19.7035 119.6345 19.484999999999996 119.43900000000001 19.266499999999997 119.1055 19.082499999999996 118.772 18.8985 118.358 18.748999999999995 117.944 18.5995 117.507 18.415499999999998 116.97800000000001 18.208499999999997 116.44900000000001 17.932499999999997 115.92 17.656499999999998 115.483 17.253999999999998 115.046 16.851499999999998 114.77000000000001 16.310999999999996 114.49400000000001 15.770499999999998 114.49400000000001 15.057499999999997 114.49400000000001 14.275499999999997 114.8045 13.608499999999998 115.11500000000001 12.941499999999998 115.69000000000001 12.481499999999997 116.265 12.021499999999998 117.07000000000001 11.756999999999998 117.875 11.492499999999998 118.864 11.492499999999998 120.17500000000001 11.492499999999998 121.164 11.940999999999997 122.153 12.389499999999998 122.88900000000001 12.941499999999998 L121.37100000000001 14.965499999999997 Q120.75 14.505499999999998 120.152 14.252499999999998 119.554 13.999499999999998 118.956 13.999499999999998 117.668 13.999499999999998 117.668 14.896499999999998 117.668 15.172499999999998 117.852 15.367999999999999 118.036 15.563499999999998 118.3465 15.724499999999997 118.65700000000001 15.885499999999997 119.05950000000001 16.034999999999997 119.462 16.184499999999996 119.899 16.345499999999998 120.45100000000001 16.5525 120.9915 16.816999999999997 121.53200000000001 17.0815 121.9805 17.472499999999997 122.429 17.8635 122.70500000000001 18.426999999999996 122.98100000000001 18.990499999999997 122.98100000000001 19.772499999999997 122.98100000000001 20.554499999999997 122.682 21.2215 122.38300000000001 21.888499999999997 121.78500000000001 22.382999999999996 121.18700000000001 22.877499999999998 120.313 23.164999999999996 119.43900000000001 23.452499999999997 118.289 23.452499999999997 117.162 23.452499999999997 115.9775 23.015499999999996 114.793 22.5785 113.91900000000001 21.865499999999997 L115.43700000000001 19.749499999999998 z" /><path d="M130.17999999999998 8.180499999999997 L135.654 8.180499999999997 Q136.873 8.180499999999997 137.9425 8.421999999999997 139.012 8.663499999999997 139.8055 9.226999999999997 140.599 9.790499999999998 141.059 10.721999999999998 141.519 11.653499999999998 141.519 13.010499999999997 141.519 14.321499999999997 141.04749999999999 15.287499999999998 140.576 16.253499999999995 139.771 16.874499999999998 138.96599999999998 17.495499999999996 137.908 17.7945 136.85 18.0935 135.654 18.0935 L133.56099999999998 18.0935 133.56099999999998 23.176499999999997 130.17999999999998 23.176499999999997 130.17999999999998 8.180499999999997 zM135.447 15.402499999999996 Q138.207 15.402499999999996 138.207 13.010499999999997 138.207 11.837499999999997 137.50549999999998 11.354499999999998 136.804 10.871499999999997 135.447 10.871499999999997 L133.56099999999998 10.871499999999997 133.56099999999998 15.402499999999996 135.447 15.402499999999996 z" /><path d="M143.84199999999998 11.768499999999998 L146.60199999999998 11.768499999999998 146.832 13.769499999999997 146.92399999999998 13.769499999999997 Q147.545 12.596499999999997 148.41899999999998 12.044499999999998 149.29299999999998 11.492499999999998 150.16699999999997 11.492499999999998 150.64999999999998 11.492499999999998 150.96049999999997 11.549999999999997 151.271 11.607499999999998 151.52399999999997 11.722499999999997 L150.97199999999998 14.643499999999998 Q150.64999999999998 14.551499999999997 150.37399999999997 14.505499999999998 150.09799999999998 14.459499999999997 149.73 14.459499999999997 149.08599999999998 14.459499999999997 148.38449999999997 14.919499999999998 147.683 15.379499999999997 147.22299999999998 16.5525 L147.22299999999998 23.176499999999997 143.84199999999998 23.176499999999997 143.84199999999998 11.768499999999998 z" /><path d="M152.32899999999998 17.472499999999997 Q152.32899999999998 16.046499999999998 152.789 14.930999999999997 153.24899999999997 13.815499999999997 154.01949999999997 13.056499999999998 154.78999999999996 12.297499999999998 155.80199999999996 11.894999999999998 156.81399999999996 11.492499999999998 157.89499999999998 11.492499999999998 158.97599999999997 11.492499999999998 159.9765 11.894999999999998 160.97699999999998 12.297499999999998 161.74749999999997 13.056499999999998 162.51799999999997 13.815499999999997 162.97799999999998 14.930999999999997 163.438 16.046499999999998 163.438 17.472499999999997 163.438 18.8985 162.97799999999998 20.013999999999996 162.51799999999997 21.129499999999997 161.74749999999997 21.888499999999997 160.97699999999998 22.647499999999997 159.9765 23.049999999999997 158.97599999999997 23.452499999999997 157.89499999999998 23.452499999999997 156.81399999999996 23.452499999999997 155.80199999999996 23.049999999999997 154.78999999999996 22.647499999999997 154.01949999999997 21.888499999999997 153.24899999999997 21.129499999999997 152.789 20.013999999999996 152.32899999999998 18.8985 152.32899999999998 17.472499999999997 zM155.80199999999996 17.472499999999997 Q155.80199999999996 18.967499999999998 156.31949999999998 19.841499999999996 156.837 20.7155 157.89499999999998 20.7155 158.92999999999998 20.7155 159.45899999999997 19.841499999999996 159.98799999999997 18.967499999999998 159.98799999999997 17.472499999999997 159.98799999999997 15.977499999999997 159.45899999999997 15.103499999999997 158.92999999999998 14.229499999999998 157.89499999999998 14.229499999999998 156.837 14.229499999999998 156.31949999999998 15.103499999999997 155.80199999999996 15.977499999999997 155.80199999999996 17.472499999999997 z" /></g></svg>