<svg width="170" height="30" xmlns="http://www.w3.org/2000/svg" viewBox="0 0 170 30"><g fill="currentColor"><path d="M1.5899999999999999 17.8875 Q2.1149999999999998 18.3825 2.79 18.69 3.465 18.9975 4.14 18.9975 4.9799999999999995 18.9975 5.415 18.6525 5.85 18.3075 5.85 17.7375 5.85 17.4375 5.7375 17.2275 5.625 17.0175 5.422499999999999 16.86 5.22 16.7025 4.9425 16.5675 4.665 16.4325 4.335 16.2975 L2.985 15.712499999999999 Q2.625 15.5625 2.2725 15.337499999999999 1.92 15.1125 1.635 14.7975 1.3499999999999999 14.4825 1.1775 14.0625 1.005 13.6425 1.005 13.1025 1.005 12.5175 1.2525 12.015 1.5 11.5125 1.9349999999999998 11.1375 2.37 10.7625 2.9775 10.5525 3.585 10.3425 4.305 10.3425 5.16 10.3425 5.955 10.68 6.75 11.0175 7.319999999999999 11.5875 L6.435 12.6975 Q5.955 12.3075 5.444999999999999 12.0825 4.935 11.8575 4.305 11.8575 3.5999999999999996 11.8575 3.1799999999999997 12.165 2.76 12.4725 2.76 13.0125 2.76 13.2975 2.8874999999999997 13.5 3.0149999999999997 13.7025 3.2325 13.86 3.4499999999999997 14.0175 3.735 14.145 4.02 14.2725 4.32 14.3925 L5.654999999999999 14.9475 Q6.09 15.1275 6.45 15.3675 6.81 15.6075 7.0725 15.9225 7.335 16.2375 7.484999999999999 16.65 7.635 17.0625 7.635 17.6025 7.635 18.2025 7.395 18.7275 7.154999999999999 19.252499999999998 6.6975 19.65 6.24 20.0475 5.5874999999999995 20.28 4.935 20.5125 4.109999999999999 20.5125 3.12 20.5125 2.1975 20.1375 1.275 19.7625 0.57 19.072499999999998 L1.5899999999999999 17.8875 z" /><path d="M8.79 16.6575 Q8.79 15.7425 9.075 15.0225 9.36 14.3025 9.847499999999998 13.807500000000001 10.334999999999999 13.3125 10.965 13.05 11.594999999999999 12.7875 12.284999999999998 12.7875 12.974999999999998 12.7875 13.612499999999999 13.05 14.25 13.3125 14.729999999999999 13.807500000000001 15.209999999999999 14.3025 15.502499999999998 15.0225 15.794999999999998 15.7425 15.794999999999998 16.6575 15.794999999999998 17.572499999999998 15.502499999999998 18.2925 15.209999999999999 19.0125 14.729999999999999 19.5075 14.25 20.0025 13.612499999999999 20.2575 12.974999999999998 20.5125 12.284999999999998 20.5125 11.594999999999999 20.5125 10.965 20.2575 10.334999999999999 20.0025 9.847499999999998 19.5075 9.36 19.0125 9.075 18.2925 8.79 17.572499999999998 8.79 16.6575 zM10.559999999999999 16.6575 Q10.559999999999999 17.7675 11.017499999999998 18.435 11.474999999999998 19.1025 12.284999999999998 19.1025 13.094999999999999 19.1025 13.559999999999999 18.435 14.024999999999999 17.7675 14.024999999999999 16.6575 14.024999999999999 15.532499999999999 13.559999999999999 14.865 13.094999999999999 14.1975 12.284999999999998 14.1975 11.474999999999998 14.1975 11.017499999999998 14.865 10.559999999999999 15.532499999999999 10.559999999999999 16.6575 z" /><path d="M17.429999999999996 12.967500000000001 L19.154999999999998 12.967500000000001 19.154999999999998 17.3625 Q19.154999999999998 18.2775 19.424999999999997 18.6525 19.694999999999997 19.0275 20.294999999999995 19.0275 20.775 19.0275 21.1425 18.7875 21.509999999999998 18.5475 21.929999999999996 18.0075 L21.929999999999996 12.967500000000001 23.654999999999998 12.967500000000001 23.654999999999998 20.3325 22.244999999999997 20.3325 22.109999999999996 19.252499999999998 22.064999999999998 19.252499999999998 Q21.584999999999997 19.822499999999998 21.022499999999997 20.1675 20.459999999999997 20.5125 19.694999999999997 20.5125 18.509999999999998 20.5125 17.969999999999995 19.755 17.429999999999996 18.9975 17.429999999999996 17.5875 L17.429999999999996 12.967500000000001 z" /><path d="M25.844999999999995 12.967500000000001 L27.269999999999996 12.967500000000001 27.389999999999997 14.2725 27.449999999999996 14.2725 Q27.839999999999996 13.5525 28.394999999999996 13.17 28.949999999999996 12.7875 29.534999999999997 12.7875 30.059999999999995 12.7875 30.374999999999996 12.9375 L30.074999999999996 14.4375 Q29.879999999999995 14.3775 29.714999999999996 14.3475 29.549999999999997 14.317499999999999 29.309999999999995 14.317499999999999 28.874999999999996 14.317499999999999 28.394999999999996 14.655 27.914999999999996 14.9925 27.569999999999997 15.8325 L27.569999999999997 20.3325 25.844999999999995 20.3325 25.844999999999995 12.967500000000001 z" /><path d="M30.959999999999994 16.6575 Q30.959999999999994 15.7425 31.259999999999994 15.0225 31.559999999999995 14.3025 32.06999999999999 13.807500000000001 32.58 13.3125 33.247499999999995 13.05 33.91499999999999 12.7875 34.64999999999999 12.7875 35.37 12.7875 35.902499999999996 13.035 36.434999999999995 13.282499999999999 36.809999999999995 13.6425 L35.98499999999999 14.7375 Q35.684999999999995 14.4825 35.385 14.34 35.084999999999994 14.1975 34.739999999999995 14.1975 33.839999999999996 14.1975 33.285 14.865 32.73 15.532499999999999 32.73 16.6575 32.73 17.7675 33.277499999999996 18.435 33.824999999999996 19.1025 34.69499999999999 19.1025 35.144999999999996 19.1025 35.527499999999996 18.915 35.91 18.7275 36.209999999999994 18.4725 L36.92999999999999 19.5675 Q36.404999999999994 20.0325 35.77499999999999 20.2725 35.144999999999996 20.5125 34.51499999999999 20.5125 33.76499999999999 20.5125 33.1125 20.2575 32.459999999999994 20.0025 31.979999999999997 19.5075 31.499999999999996 19.0125 31.229999999999997 18.2925 30.959999999999994 17.572499999999998 30.959999999999994 16.6575 z" /><path d="M37.88999999999999 16.6575 Q37.88999999999999 15.7575 38.17499999999999 15.0375 38.459999999999994 14.317499999999999 38.93249999999999 13.8225 39.404999999999994 13.3275 40.01999999999999 13.057500000000001 40.63499999999999 12.7875 41.279999999999994 12.7875 42.029999999999994 12.7875 42.599999999999994 13.0425 43.16999999999999 13.2975 43.552499999999995 13.7625 43.93499999999999 14.2275 44.12999999999999 14.872499999999999 44.32499999999999 15.5175 44.32499999999999 16.2825 44.32499999999999 16.7925 44.24999999999999 17.0925 L39.56999999999999 17.0925 Q39.68999999999999 18.0975 40.26749999999999 18.6375 40.84499999999999 19.1775 41.74499999999999 19.1775 42.224999999999994 19.1775 42.63749999999999 19.035 43.04999999999999 18.8925 43.45499999999999 18.6375 L44.03999999999999 19.7175 Q43.51499999999999 20.0625 42.86999999999999 20.287499999999998 42.224999999999994 20.5125 41.51999999999999 20.5125 40.75499999999999 20.5125 40.09499999999999 20.25 39.43499999999999 19.9875 38.93999999999999 19.4925 38.44499999999999 18.9975 38.16749999999999 18.285 37.88999999999999 17.572499999999998 37.88999999999999 16.6575 zM42.82499999999999 15.997499999999999 Q42.82499999999999 15.1125 42.45749999999999 14.6175 42.08999999999999 14.122499999999999 41.32499999999999 14.122499999999999 40.66499999999999 14.122499999999999 40.169999999999995 14.594999999999999 39.67499999999999 15.067499999999999 39.55499999999999 15.997499999999999 L42.82499999999999 15.997499999999999 z" /><path d="M49.54499999999999 17.8875 Q50.06999999999999 18.3825 50.74499999999999 18.69 51.41999999999999 18.9975 52.09499999999999 18.9975 52.93499999999999 18.9975 53.36999999999999 18.6525 53.80499999999999 18.3075 53.80499999999999 17.7375 53.80499999999999 17.4375 53.69249999999999 17.2275 53.57999999999999 17.0175 53.37749999999999 16.86 53.17499999999999 16.7025 52.897499999999994 16.5675 52.61999999999999 16.4325 52.28999999999999 16.2975 L50.93999999999999 15.712499999999999 Q50.57999999999999 15.5625 50.22749999999999 15.337499999999999 49.87499999999999 15.1125 49.58999999999999 14.7975 49.30499999999999 14.4825 49.13249999999999 14.0625 48.959999999999994 13.6425 48.959999999999994 13.1025 48.959999999999994 12.5175 49.20749999999999 12.015 49.45499999999999 11.5125 49.88999999999999 11.1375 50.32499999999999 10.7625 50.93249999999999 10.5525 51.53999999999999 10.3425 52.25999999999999 10.3425 53.114999999999995 10.3425 53.90999999999999 10.68 54.70499999999999 11.0175 55.27499999999999 11.5875 L54.38999999999999 12.6975 Q53.90999999999999 12.3075 53.39999999999999 12.0825 52.88999999999999 11.8575 52.25999999999999 11.8575 51.55499999999999 11.8575 51.13499999999999 12.165 50.71499999999999 12.4725 50.71499999999999 13.0125 50.71499999999999 13.2975 50.842499999999994 13.5 50.96999999999999 13.7025 51.18749999999999 13.86 51.404999999999994 14.0175 51.68999999999999 14.145 51.974999999999994 14.2725 52.27499999999999 14.3925 L53.60999999999999 14.9475 Q54.04499999999999 15.1275 54.404999999999994 15.3675 54.76499999999999 15.6075 55.02749999999999 15.9225 55.28999999999999 16.2375 55.43999999999999 16.65 55.58999999999999 17.0625 55.58999999999999 17.6025 55.58999999999999 18.2025 55.349999999999994 18.7275 55.10999999999999 19.252499999999998 54.65249999999999 19.65 54.19499999999999 20.0475 53.54249999999999 20.28 52.88999999999999 20.5125 52.06499999999999 20.5125 51.07499999999999 20.5125 50.15249999999999 20.1375 49.22999999999999 19.7625 48.52499999999999 19.072499999999998 L49.54499999999999 17.8875 z" /><path d="M56.90999999999999 18.3525 Q56.90999999999999 17.1675 57.944999999999986 16.5225 58.97999999999999 15.8775 61.24499999999999 15.622499999999999 61.24499999999999 15.337499999999999 61.16999999999999 15.075 61.094999999999985 14.8125 60.937499999999986 14.61 60.77999999999999 14.407499999999999 60.532499999999985 14.295 60.28499999999999 14.182500000000001 59.90999999999999 14.182500000000001 59.35499999999999 14.182500000000001 58.83749999999999 14.3925 58.319999999999986 14.6025 57.83999999999999 14.9025 L57.20999999999999 13.747499999999999 Q57.82499999999999 13.3575 58.58249999999999 13.0725 59.33999999999999 12.7875 60.22499999999999 12.7875 61.61999999999999 12.7875 62.29499999999999 13.605 62.969999999999985 14.4225 62.969999999999985 15.9675 L62.969999999999985 20.3325 61.55999999999999 20.3325 61.42499999999999 19.5225 61.37999999999999 19.5225 Q60.88499999999999 19.9425 60.32249999999999 20.2275 59.75999999999999 20.5125 59.09999999999999 20.5125 58.124999999999986 20.5125 57.51749999999999 19.919999999999998 56.90999999999999 19.3275 56.90999999999999 18.3525 zM58.58999999999999 18.2175 Q58.58999999999999 18.7125 58.882499999999986 18.9375 59.17499999999999 19.1625 59.639999999999986 19.1625 60.08999999999999 19.1625 60.46499999999999 18.9525 60.83999999999999 18.7425 61.24499999999999 18.3525 L61.24499999999999 16.7025 Q60.49499999999999 16.7925 59.984999999999985 16.9425 59.47499999999999 17.0925 59.16749999999999 17.28 58.859999999999985 17.4675 58.72499999999999 17.7075 58.58999999999999 17.947499999999998 58.58999999999999 18.2175 z" /><path d="M65.07 12.967500000000001 L66.49499999999999 12.967500000000001 66.61499999999998 13.9575 66.67499999999998 13.9575 Q67.16999999999999 13.4775 67.74749999999999 13.1325 68.32499999999999 12.7875 69.08999999999999 12.7875 70.27499999999999 12.7875 70.81499999999998 13.545 71.35499999999999 14.3025 71.35499999999999 15.712499999999999 L71.35499999999999 20.3325 69.62999999999998 20.3325 69.62999999999998 15.9375 Q69.62999999999998 15.0225 69.35999999999999 14.6475 69.08999999999999 14.2725 68.475 14.2725 67.99499999999999 14.2725 67.62749999999998 14.504999999999999 67.25999999999999 14.7375 66.79499999999999 15.1875 L66.79499999999999 20.3325 65.07 20.3325 65.07 12.967500000000001 z" /><path d="M73.54499999999999 18.3825 Q74.03999999999999 18.7725 74.52749999999999 18.99 75.01499999999999 19.2075 75.58499999999998 19.2075 76.18499999999999 19.2075 76.46999999999998 18.96 76.75499999999998 18.7125 76.75499999999998 18.322499999999998 76.75499999999998 18.0975 76.61999999999999 17.925 76.48499999999999 17.752499999999998 76.25999999999999 17.6175 76.03499999999998 17.482499999999998 75.74999999999999 17.37 75.46499999999999 17.2575 75.17999999999998 17.1375 74.81999999999998 17.002499999999998 74.44499999999998 16.822499999999998 74.06999999999998 16.6425 73.77749999999999 16.3875 73.48499999999999 16.1325 73.29749999999999 15.795 73.10999999999999 15.4575 73.10999999999999 14.9925 73.10999999999999 14.0175 73.82999999999998 13.4025 74.54999999999998 12.7875 75.79499999999999 12.7875 76.55999999999999 12.7875 77.17499999999998 13.057500000000001 77.78999999999999 13.3275 78.23999999999998 13.6725 L77.44499999999998 14.7225 Q77.05499999999998 14.4375 76.65749999999998 14.265 76.25999999999999 14.0925 75.82499999999999 14.0925 75.26999999999998 14.0925 75.00749999999998 14.325 74.74499999999999 14.557500000000001 74.74499999999999 14.9025 74.74499999999999 15.1275 74.87249999999999 15.285 74.99999999999999 15.442499999999999 75.20999999999998 15.5625 75.41999999999999 15.682500000000001 75.69749999999999 15.7875 75.97499999999998 15.8925 76.27499999999999 15.997499999999999 76.64999999999999 16.1325 77.02499999999999 16.305 77.39999999999999 16.4775 77.70749999999998 16.7325 78.01499999999999 16.9875 78.20249999999999 17.355 78.38999999999999 17.7225 78.38999999999999 18.232499999999998 78.38999999999999 18.7125 78.20249999999999 19.125 78.01499999999999 19.5375 77.65499999999999 19.845 77.29499999999999 20.1525 76.75499999999998 20.3325 76.21499999999999 20.5125 75.52499999999999 20.5125 74.75999999999999 20.5125 74.01749999999998 20.22 73.27499999999999 19.9275 72.73499999999999 19.4925 L73.54499999999999 18.3825 z" /><path d="M83.16 10.522499999999999 L86.46 10.522499999999999 Q87.27 10.522499999999999 87.95249999999999 10.6725 88.63499999999999 10.8225 89.13 11.1825 89.62499999999999 11.5425 89.91 12.12 90.195 12.6975 90.195 13.5525 90.195 14.3625 89.91 14.962499999999999 89.62499999999999 15.5625 89.12249999999999 15.96 88.61999999999999 16.3575 87.93749999999999 16.545 87.255 16.7325 86.46 16.7325 L84.89999999999999 16.7325 84.89999999999999 20.3325 83.16 20.3325 83.16 10.522499999999999 zM86.32499999999999 15.337499999999999 Q88.48499999999999 15.337499999999999 88.48499999999999 13.5525 88.48499999999999 12.622499999999999 87.945 12.27 87.40499999999999 11.9175 86.32499999999999 11.9175 L84.89999999999999 11.9175 84.89999999999999 15.337499999999999 86.32499999999999 15.337499999999999 z" /><path d="M91.88999999999999 12.967500000000001 L93.31499999999998 12.967500000000001 93.43499999999999 14.2725 93.49499999999999 14.2725 Q93.88499999999999 13.5525 94.43999999999998 13.17 94.99499999999999 12.7875 95.57999999999998 12.7875 96.10499999999999 12.7875 96.41999999999999 12.9375 L96.11999999999999 14.4375 Q95.92499999999998 14.3775 95.75999999999999 14.3475 95.59499999999998 14.317499999999999 95.35499999999999 14.317499999999999 94.91999999999999 14.317499999999999 94.43999999999998 14.655 93.96 14.9925 93.61499999999998 15.8325 L93.61499999999998 20.3325 91.88999999999999 20.3325 91.88999999999999 12.967500000000001 z" /><path d="M97.00499999999998 16.6575 Q97.00499999999998 15.7425 97.28999999999999 15.0225 97.57499999999999 14.3025 98.06249999999999 13.807500000000001 98.54999999999998 13.3125 99.17999999999999 13.05 99.80999999999999 12.7875 100.49999999999999 12.7875 101.18999999999998 12.7875 101.82749999999999 13.05 102.46499999999999 13.3125 102.945 13.807500000000001 103.42499999999998 14.3025 103.71749999999999 15.0225 104.00999999999999 15.7425 104.00999999999999 16.6575 104.00999999999999 17.572499999999998 103.71749999999999 18.2925 103.42499999999998 19.0125 102.945 19.5075 102.46499999999999 20.0025 101.82749999999999 20.2575 101.18999999999998 20.5125 100.49999999999999 20.5125 99.80999999999999 20.5125 99.17999999999999 20.2575 98.54999999999998 20.0025 98.06249999999999 19.5075 97.57499999999999 19.0125 97.28999999999999 18.2925 97.00499999999998 17.572499999999998 97.00499999999998 16.6575 zM98.77499999999999 16.6575 Q98.77499999999999 17.7675 99.23249999999999 18.435 99.68999999999998 19.1025 100.49999999999999 19.1025 101.30999999999999 19.1025 101.77499999999999 18.435 102.23999999999998 17.7675 102.23999999999998 16.6575 102.23999999999998 15.532499999999999 101.77499999999999 14.865 101.30999999999999 14.1975 100.49999999999999 14.1975 99.68999999999998 14.1975 99.23249999999999 14.865 98.77499999999999 15.532499999999999 98.77499999999999 16.6575 z" /><path d="M109.28999999999999 17.8875 Q109.81499999999998 18.3825 110.49 18.69 111.16499999999999 18.9975 111.83999999999999 18.9975 112.67999999999999 18.9975 113.115 18.6525 113.54999999999998 18.3075 113.54999999999998 17.7375 113.54999999999998 17.4375 113.43749999999999 17.2275 113.32499999999999 17.0175 113.12249999999999 16.86 112.91999999999999 16.7025 112.64249999999998 16.5675 112.365 16.4325 112.03499999999998 16.2975 L110.68499999999999 15.712499999999999 Q110.32499999999999 15.5625 109.97249999999998 15.337499999999999 109.61999999999999 15.1125 109.335 14.7975 109.04999999999998 14.4825 108.87749999999998 14.0625 108.70499999999998 13.6425 108.70499999999998 13.1025 108.70499999999998 12.5175 108.95249999999999 12.015 109.19999999999999 11.5125 109.63499999999999 11.1375 110.07 10.7625 110.6775 10.5525 111.28499999999998 10.3425 112.005 10.3425 112.85999999999999 10.3425 113.65499999999999 10.68 114.44999999999999 11.0175 115.01999999999998 11.5875 L114.13499999999999 12.6975 Q113.65499999999999 12.3075 113.14499999999998 12.0825 112.63499999999999 11.8575 112.005 11.8575 111.29999999999998 11.8575 110.88 12.165 110.46 12.4725 110.46 13.0125 110.46 13.2975 110.58749999999999 13.5 110.71499999999999 13.7025 110.93249999999999 13.86 111.14999999999999 14.0175 111.43499999999999 14.145 111.71999999999998 14.2725 112.01999999999998 14.3925 L113.35499999999999 14.9475 Q113.78999999999999 15.1275 114.14999999999999 15.3675 114.50999999999999 15.6075 114.7725 15.9225 115.03499999999998 16.2375 115.18499999999999 16.65 115.335 17.0625 115.335 17.6025 115.335 18.2025 115.09499999999998 18.7275 114.85499999999999 19.252499999999998 114.3975 19.65 113.93999999999998 20.0475 113.2875 20.28 112.63499999999999 20.5125 111.80999999999999 20.5125 110.82 20.5125 109.8975 20.1375 108.975 19.7625 108.26999999999998 19.072499999999998 L109.28999999999999 17.8875 z" /><path d="M116.48999999999998 16.6575 Q116.48999999999998 15.7575 116.77499999999999 15.0375 117.05999999999999 14.317499999999999 117.53249999999998 13.8225 118.00499999999998 13.3275 118.61999999999999 13.057500000000001 119.23499999999999 12.7875 119.87999999999998 12.7875 120.62999999999998 12.7875 121.19999999999999 13.0425 121.76999999999998 13.2975 122.15249999999999 13.7625 122.53499999999998 14.2275 122.72999999999999 14.872499999999999 122.92499999999998 15.5175 122.92499999999998 16.2825 122.92499999999998 16.7925 122.84999999999998 17.0925 L118.16999999999999 17.0925 Q118.28999999999999 18.0975 118.86749999999998 18.6375 119.44499999999998 19.1775 120.34499999999998 19.1775 120.82499999999999 19.1775 121.23749999999998 19.035 121.64999999999999 18.8925 122.05499999999998 18.6375 L122.63999999999999 19.7175 Q122.11499999999998 20.0625 121.46999999999998 20.287499999999998 120.82499999999999 20.5125 120.11999999999999 20.5125 119.35499999999999 20.5125 118.69499999999998 20.25 118.03499999999998 19.9875 117.53999999999999 19.4925 117.04499999999999 18.9975 116.76749999999998 18.285 116.48999999999998 17.572499999999998 116.48999999999998 16.6575 zM121.42499999999998 15.997499999999999 Q121.42499999999998 15.1125 121.05749999999999 14.6175 120.68999999999998 14.122499999999999 119.92499999999998 14.122499999999999 119.26499999999999 14.122499999999999 118.76999999999998 14.594999999999999 118.27499999999999 15.067499999999999 118.15499999999999 15.997499999999999 L121.42499999999998 15.997499999999999 z" /><path d="M124.57499999999999 12.967500000000001 L125.99999999999999 12.967500000000001 126.11999999999999 13.9725 126.17999999999999 13.9725 Q126.645 13.4775 127.1925 13.1325 127.74 12.7875 128.42999999999998 12.7875 129.23999999999998 12.7875 129.7275 13.1325 130.21499999999997 13.4775 130.47 14.1075 130.99499999999998 13.5375 131.565 13.1625 132.135 12.7875 132.83999999999997 12.7875 134.01 12.7875 134.565 13.545 135.11999999999998 14.3025 135.11999999999998 15.712499999999999 L135.11999999999998 20.3325 133.38 20.3325 133.38 15.9375 Q133.38 15.0225 133.1025 14.6475 132.825 14.2725 132.255 14.2725 131.565 14.2725 130.70999999999998 15.1875 L130.70999999999998 20.3325 128.98499999999999 20.3325 128.98499999999999 15.9375 Q128.98499999999999 15.0225 128.70749999999998 14.6475 128.42999999999998 14.2725 127.84499999999998 14.2725 127.15499999999999 14.2725 126.29999999999998 15.1875 L126.29999999999998 20.3325 124.57499999999999 20.3325 124.57499999999999 12.967500000000001 z" /><path d="M138.09 11.6775 Q137.625 11.6775 137.325 11.4075 137.025 11.1375 137.025 10.7025 137.025 10.2675 137.325 9.99 137.625 9.7125 138.09 9.7125 138.555 9.7125 138.855 9.99 139.155 10.2675 139.155 10.7025 139.155 11.1375 138.855 11.4075 138.555 11.6775 138.09 11.6775 zM137.22 12.967500000000001 L138.945 12.967500000000001 138.945 20.3325 137.22 20.3325 137.22 12.967500000000001 z" /><path d="M141.15 9.7425 L142.875 9.7425 142.875 12.4725 142.83 13.7025 Q143.29500000000002 13.2975 143.8425 13.0425 144.39000000000001 12.7875 144.96 12.7875 145.65 12.7875 146.19 13.05 146.73000000000002 13.3125 147.10500000000002 13.8 147.48000000000002 14.2875 147.675 14.9775 147.87 15.6675 147.87 16.5225 147.87 17.4675 147.60750000000002 18.21 147.345 18.9525 146.91 19.4625 146.475 19.9725 145.905 20.2425 145.335 20.5125 144.72 20.5125 144.21 20.5125 143.6925 20.2725 143.175 20.0325 142.71 19.5825 L142.66500000000002 19.5825 142.51500000000001 20.3325 141.15 20.3325 141.15 9.7425 zM142.875 18.4725 Q143.26500000000001 18.8175 143.6475 18.9525 144.03 19.0875 144.36 19.0875 145.095 19.0875 145.59 18.45 146.085 17.8125 146.085 16.5525 146.085 15.442499999999999 145.71 14.8275 145.335 14.212499999999999 144.495 14.212499999999999 143.715 14.212499999999999 142.875 15.0375 L142.875 18.4725 z" /><path d="M149.13000000000002 16.6575 Q149.13000000000002 15.7425 149.41500000000002 15.0225 149.70000000000002 14.3025 150.18750000000003 13.807500000000001 150.675 13.3125 151.305 13.05 151.935 12.7875 152.625 12.7875 153.31500000000003 12.7875 153.95250000000001 13.05 154.59 13.3125 155.07000000000002 13.807500000000001 155.55 14.3025 155.8425 15.0225 156.13500000000002 15.7425 156.13500000000002 16.6575 156.13500000000002 17.572499999999998 155.8425 18.2925 155.55 19.0125 155.07000000000002 19.5075 154.59 20.0025 153.95250000000001 20.2575 153.31500000000003 20.5125 152.625 20.5125 151.935 20.5125 151.305 20.2575 150.675 20.0025 150.18750000000003 19.5075 149.70000000000002 19.0125 149.41500000000002 18.2925 149.13000000000002 17.572499999999998 149.13000000000002 16.6575 zM150.9 16.6575 Q150.9 17.7675 151.35750000000002 18.435 151.81500000000003 19.1025 152.625 19.1025 153.435 19.1025 153.9 18.435 154.365 17.7675 154.365 16.6575 154.365 15.532499999999999 153.9 14.865 153.435 14.1975 152.625 14.1975 151.81500000000003 14.1975 151.35750000000002 14.865 150.9 15.532499999999999 150.9 16.6575 z" /><path d="M157.845 9.7425 L159.57 9.7425 159.57 18.5325 Q159.57 18.8475 159.69 18.975 159.81 19.1025 159.945 19.1025 160.005 19.1025 160.0575 19.1025 160.11 19.1025 160.215 19.072499999999998 L160.44 20.3625 Q160.095 20.5125 159.525 20.5125 158.595 20.5125 158.22 19.9575 157.845 19.4025 157.845 18.4425 L157.845 9.7425 z" /><path d="M161.46 16.6575 Q161.46 15.7575 161.7225 15.0375 161.98499999999999 14.317499999999999 162.42 13.8225 162.855 13.3275 163.4175 13.057500000000001 163.98 12.7875 164.57999999999998 12.7875 165.21 12.7875 165.645 13.004999999999999 166.07999999999998 13.2225 166.515 13.5975 L166.45499999999998 12.4125 166.45499999999998 9.7425 168.18 9.7425 168.18 20.3325 166.755 20.3325 166.635 19.5375 166.575 19.5375 Q166.17 19.9425 165.63 20.2275 165.09 20.5125 164.49 20.5125 163.095 20.5125 162.2775 19.5 161.46 18.4875 161.46 16.6575 zM163.245 16.6425 Q163.245 17.8425 163.67249999999999 18.465 164.1 19.0875 164.91 19.0875 165.73499999999999 19.0875 166.45499999999998 18.2625 L166.45499999999998 14.8275 Q166.065 14.4825 165.6975 14.3475 165.32999999999998 14.212499999999999 164.95499999999998 14.212499999999999 164.23499999999999 14.212499999999999 163.74 14.8425 163.245 15.4725 163.245 16.6425 z" /></g></svg>