<svg width="170" height="30" xmlns="http://www.w3.org/2000/svg" viewBox="0 0 170 30"><g fill="currentColor"><path d="M1.05 18.6825 Q1.5899999999999999 19.3125 2.355 19.6875 3.12 20.0625 4.02 20.0625 4.62 20.0625 5.1 19.905 5.58 19.7475 5.9174999999999995 19.47 6.255 19.1925 6.4425 18.8025 6.63 18.4125 6.63 17.9325 6.63 17.4375 6.4799999999999995 17.1 6.33 16.7625 6.0825 16.515 5.835 16.2675 5.505 16.0875 5.175 15.907499999999999 4.8 15.7425 L3.27 15.0525 Q2.955 14.9175 2.6025 14.7225 2.25 14.5275 1.95 14.25 1.65 13.9725 1.4549999999999998 13.575 1.26 13.1775 1.26 12.622499999999999 1.26 12.0975 1.47 11.6625 1.68 11.2275 2.0549999999999997 10.9125 2.4299999999999997 10.5975 2.94 10.425 3.4499999999999997 10.2525 4.05 10.2525 4.95 10.2525 5.632499999999999 10.605 6.3149999999999995 10.9575 6.75 11.4225 L6.45 11.7525 Q6.015 11.272499999999999 5.415 10.9875 4.8149999999999995 10.7025 4.05 10.7025 3.0149999999999997 10.7025 2.3775 11.22 1.74 11.7375 1.74 12.592500000000001 1.74 13.057500000000001 1.9124999999999999 13.379999999999999 2.085 13.7025 2.3474999999999997 13.934999999999999 2.61 14.1675 2.9099999999999997 14.325 3.21 14.4825 3.48 14.6025 L5.01 15.2925 Q5.415 15.4725 5.797499999999999 15.69 6.18 15.907499999999999 6.4725 16.2075 6.765 16.5075 6.9375 16.919999999999998 7.109999999999999 17.3325 7.109999999999999 17.9025 7.109999999999999 18.4725 6.885 18.945 6.66 19.4175 6.255 19.77 5.85 20.1225 5.279999999999999 20.3175 4.71 20.5125 4.02 20.5125 2.9099999999999997 20.5125 2.1 20.0925 1.29 19.6725 0.72 19.0125 L1.05 18.6825 z" /><path d="M8.549999999999999 16.7625 Q8.549999999999999 15.8625 8.805 15.157499999999999 9.059999999999999 14.4525 9.495 13.9725 9.93 13.4925 10.5075 13.2375 11.084999999999999 12.9825 11.729999999999999 12.9825 12.375 12.9825 12.952499999999999 13.2375 13.53 13.4925 13.965 13.9725 14.399999999999999 14.4525 14.655 15.157499999999999 14.91 15.8625 14.91 16.7625 14.91 17.6475 14.655 18.345 14.399999999999999 19.0425 13.965 19.5225 13.53 20.0025 12.952499999999999 20.2575 12.375 20.5125 11.729999999999999 20.5125 11.084999999999999 20.5125 10.5075 20.2575 9.93 20.0025 9.495 19.5225 9.059999999999999 19.0425 8.805 18.345 8.549999999999999 17.6475 8.549999999999999 16.7625 zM9.03 16.7625 Q9.03 17.5125 9.239999999999998 18.12 9.45 18.7275 9.809999999999999 19.169999999999998 10.169999999999998 19.6125 10.665 19.8525 11.16 20.0925 11.729999999999999 20.0925 12.299999999999999 20.0925 12.794999999999998 19.8525 13.29 19.6125 13.649999999999999 19.169999999999998 14.009999999999998 18.7275 14.219999999999999 18.12 14.43 17.5125 14.43 16.7625 14.43 16.0275 14.219999999999999 15.405 14.009999999999998 14.782499999999999 13.649999999999999 14.34 13.29 13.8975 12.794999999999998 13.649999999999999 12.299999999999999 13.4025 11.729999999999999 13.4025 11.16 13.4025 10.665 13.649999999999999 10.169999999999998 13.8975 9.809999999999999 14.34 9.45 14.782499999999999 9.239999999999998 15.405 9.03 16.0275 9.03 16.7625 z" /><path d="M17.04 13.1625 L17.49 13.1625 17.49 17.7225 Q17.49 18.9225 17.895 19.5075 18.299999999999997 20.0925 19.229999999999997 20.0925 19.904999999999998 20.0925 20.46 19.7175 21.015 19.3425 21.689999999999998 18.5325 L21.689999999999998 13.1625 22.14 13.1625 22.14 20.3325 21.75 20.3325 21.689999999999998 19.1025 21.659999999999997 19.1025 Q21.119999999999997 19.732499999999998 20.534999999999997 20.1225 19.95 20.5125 19.2 20.5125 18.09 20.5125 17.564999999999998 19.8525 17.04 19.1925 17.04 17.7825 L17.04 13.1625 z" /><path d="M25.02 13.1625 L25.409999999999997 13.1625 25.47 14.5125 25.5 14.5125 Q25.86 13.8525 26.369999999999997 13.4175 26.88 12.9825 27.54 12.9825 27.72 12.9825 27.884999999999998 13.0125 28.049999999999997 13.0425 28.229999999999997 13.1325 L28.11 13.5525 Q27.93 13.4775 27.81 13.455 27.689999999999998 13.432500000000001 27.479999999999997 13.432500000000001 26.985 13.432500000000001 26.444999999999997 13.86 25.904999999999998 14.2875 25.47 15.3525 L25.47 20.3325 25.02 20.3325 25.02 13.1625 z" /><path d="M28.979999999999997 16.7625 Q28.979999999999997 15.8625 29.2425 15.157499999999999 29.505 14.4525 29.947499999999998 13.9725 30.389999999999997 13.4925 30.967499999999998 13.2375 31.544999999999998 12.9825 32.19 12.9825 32.94 12.9825 33.434999999999995 13.26 33.93 13.5375 34.29 13.8825 L33.989999999999995 14.212499999999999 Q33.629999999999995 13.8675 33.195 13.635 32.76 13.4025 32.19 13.4025 31.619999999999997 13.4025 31.1175 13.649999999999999 30.615 13.8975 30.2475 14.34 29.88 14.782499999999999 29.669999999999998 15.405 29.459999999999997 16.0275 29.459999999999997 16.7625 29.459999999999997 17.5125 29.654999999999998 18.12 29.849999999999998 18.7275 30.209999999999997 19.169999999999998 30.569999999999997 19.6125 31.072499999999998 19.8525 31.575 20.0925 32.19 20.0925 32.805 20.0925 33.3075 19.8375 33.809999999999995 19.5825 34.199999999999996 19.2225 L34.47 19.5525 Q34.019999999999996 19.9575 33.457499999999996 20.235 32.894999999999996 20.5125 32.19 20.5125 31.5 20.5125 30.915 20.2575 30.33 20.0025 29.902499999999996 19.5225 29.474999999999998 19.0425 29.2275 18.345 28.979999999999997 17.6475 28.979999999999997 16.7625 z" /><path d="M35.67 16.7625 Q35.67 15.8925 35.9325 15.1875 36.195 14.4825 36.6225 13.995000000000001 37.05 13.5075 37.605 13.245000000000001 38.16 12.9825 38.76 12.9825 40.004999999999995 12.9825 40.7325 13.83 41.46 14.6775 41.46 16.2825 41.46 16.4025 41.46 16.515 41.46 16.627499999999998 41.43 16.7625 L36.15 16.7625 Q36.15 17.482499999999998 36.3525 18.09 36.555 18.697499999999998 36.9225 19.1475 37.29 19.5975 37.8075 19.845 38.325 20.0925 38.97 20.0925 39.585 20.0925 40.065 19.912499999999998 40.545 19.732499999999998 40.95 19.4325 L41.16 19.822499999999998 Q40.754999999999995 20.0775 40.2525 20.294999999999998 39.75 20.5125 38.94 20.5125 38.265 20.5125 37.6725 20.2575 37.08 20.0025 36.63 19.515 36.18 19.0275 35.925 18.3375 35.67 17.6475 35.67 16.7625 zM41.01 16.3725 Q41.01 14.872499999999999 40.394999999999996 14.1375 39.78 13.4025 38.76 13.4025 38.28 13.4025 37.83 13.6125 37.38 13.8225 37.027499999999996 14.205 36.675 14.587499999999999 36.4425 15.135 36.21 15.682500000000001 36.15 16.3725 L41.01 16.3725 z" /><path d="M46.05 18.6825 Q46.59 19.3125 47.355 19.6875 48.12 20.0625 49.019999999999996 20.0625 49.62 20.0625 50.1 19.905 50.58 19.7475 50.9175 19.47 51.255 19.1925 51.4425 18.8025 51.63 18.4125 51.63 17.9325 51.63 17.4375 51.48 17.1 51.33 16.7625 51.082499999999996 16.515 50.835 16.2675 50.505 16.0875 50.175 15.907499999999999 49.8 15.7425 L48.27 15.0525 Q47.955 14.9175 47.6025 14.7225 47.25 14.5275 46.95 14.25 46.65 13.9725 46.455 13.575 46.26 13.1775 46.26 12.622499999999999 46.26 12.0975 46.47 11.6625 46.68 11.2275 47.055 10.9125 47.43 10.5975 47.94 10.425 48.45 10.2525 49.05 10.2525 49.95 10.2525 50.6325 10.605 51.315 10.9575 51.75 11.4225 L51.45 11.7525 Q51.015 11.272499999999999 50.415 10.9875 49.815 10.7025 49.05 10.7025 48.015 10.7025 47.3775 11.22 46.74 11.7375 46.74 12.592500000000001 46.74 13.057500000000001 46.9125 13.379999999999999 47.085 13.7025 47.3475 13.934999999999999 47.61 14.1675 47.91 14.325 48.21 14.4825 48.48 14.6025 L50.01 15.2925 Q50.415 15.4725 50.7975 15.69 51.18 15.907499999999999 51.4725 16.2075 51.765 16.5075 51.9375 16.919999999999998 52.11 17.3325 52.11 17.9025 52.11 18.4725 51.885 18.945 51.66 19.4175 51.255 19.77 50.85 20.1225 50.28 20.3175 49.71 20.5125 49.019999999999996 20.5125 47.91 20.5125 47.1 20.0925 46.29 19.6725 45.72 19.0125 L46.05 18.6825 z" /><path d="M53.760000000000005 18.5775 Q53.760000000000005 17.377499999999998 54.900000000000006 16.755 56.04 16.1325 58.47 15.8625 58.485 15.427499999999998 58.417500000000004 14.985 58.35 14.5425 58.155 14.19 57.96 13.837499999999999 57.6075 13.620000000000001 57.255 13.4025 56.7 13.4025 56.31 13.4025 55.965 13.485 55.620000000000005 13.567499999999999 55.32 13.7025 55.02 13.837499999999999 54.7725 13.9875 54.525 14.1375 54.36 14.2725 L54.120000000000005 13.9125 Q54.285000000000004 13.7925 54.5475 13.6275 54.81 13.462499999999999 55.1475 13.32 55.485 13.1775 55.89 13.08 56.295 12.9825 56.730000000000004 12.9825 57.36 12.9825 57.78 13.2 58.2 13.4175 58.455 13.7925 58.71 14.1675 58.815000000000005 14.655 58.92 15.1425 58.92 15.682500000000001 L58.92 20.3325 58.53 20.3325 58.47 19.3725 58.440000000000005 19.3725 Q57.870000000000005 19.822499999999998 57.21 20.1675 56.550000000000004 20.5125 55.83 20.5125 55.410000000000004 20.5125 55.035000000000004 20.4 54.660000000000004 20.287499999999998 54.375 20.055 54.09 19.822499999999998 53.925000000000004 19.455 53.760000000000005 19.0875 53.760000000000005 18.5775 zM54.24 18.5625 Q54.24 18.982499999999998 54.3675 19.275 54.495000000000005 19.5675 54.72 19.7475 54.945 19.9275 55.237500000000004 20.009999999999998 55.53 20.0925 55.86 20.0925 56.52 20.0925 57.135000000000005 19.785 57.75 19.4775 58.47 18.8625 L58.47 16.252499999999998 Q57.285000000000004 16.3875 56.475 16.59 55.665 16.7925 55.17 17.0775 54.675000000000004 17.3625 54.4575 17.73 54.24 18.0975 54.24 18.5625 z" /><path d="M61.59 13.1625 L61.980000000000004 13.1625 62.040000000000006 14.3025 62.07000000000001 14.3025 Q62.64000000000001 13.7325 63.22500000000001 13.3575 63.81 12.9825 64.56 12.9825 65.67 12.9825 66.19500000000001 13.6425 66.72 14.3025 66.72 15.712499999999999 L66.72 20.3325 66.27000000000001 20.3325 66.27000000000001 15.7725 Q66.27000000000001 14.5725 65.86500000000001 13.9875 65.46000000000001 13.4025 64.53 13.4025 63.855000000000004 13.4025 63.292500000000004 13.7625 62.730000000000004 14.122499999999999 62.040000000000006 14.8425 L62.040000000000006 20.3325 61.59 20.3325 61.59 13.1625 z" /><path d="M68.85000000000001 19.1625 Q69.30000000000001 19.5525 69.84 19.822499999999998 70.38000000000001 20.0925 71.19000000000001 20.0925 71.64 20.0925 71.985 19.965 72.33000000000001 19.8375 72.555 19.6275 72.78 19.4175 72.9 19.14 73.02000000000001 18.8625 73.02000000000001 18.5625 73.02000000000001 18.2025 72.855 17.939999999999998 72.69000000000001 17.6775 72.435 17.475 72.18 17.2725 71.8575 17.1375 71.53500000000001 17.002499999999998 71.22 16.8825 70.80000000000001 16.7325 70.3875 16.5675 69.97500000000001 16.4025 69.6375 16.1775 69.30000000000001 15.9525 69.09 15.629999999999999 68.88000000000001 15.307500000000001 68.88000000000001 14.8425 68.88000000000001 14.4675 69.02250000000001 14.129999999999999 69.165 13.7925 69.45 13.5375 69.735 13.282499999999999 70.155 13.1325 70.575 12.9825 71.13000000000001 12.9825 71.67 12.9825 72.19500000000001 13.184999999999999 72.72 13.3875 73.11 13.7025 L72.84 14.0625 Q72.48 13.7925 72.075 13.5975 71.67 13.4025 71.10000000000001 13.4025 70.65 13.4025 70.32000000000001 13.5225 69.99000000000001 13.6425 69.78 13.844999999999999 69.57000000000001 14.0475 69.465 14.295 69.36 14.5425 69.36 14.8125 69.36 15.1425 69.51 15.375 69.66000000000001 15.6075 69.90750000000001 15.78 70.155 15.9525 70.4625 16.0875 70.77000000000001 16.2225 71.10000000000001 16.3425 71.52000000000001 16.5075 71.95500000000001 16.6725 72.39 16.8375 72.7275 17.07 73.06500000000001 17.3025 73.2825 17.655 73.5 18.0075 73.5 18.5325 73.5 18.9225 73.3425 19.2825 73.185 19.6425 72.89250000000001 19.912499999999998 72.60000000000001 20.1825 72.1575 20.3475 71.715 20.5125 71.16000000000001 20.5125 70.35000000000001 20.5125 69.69000000000001 20.22 69.03 19.9275 68.55000000000001 19.5225 L68.85000000000001 19.1625 z" /><path d="M78.51 10.4325 L81.09 10.4325 Q82.75500000000001 10.4325 83.66250000000001 11.04 84.57000000000001 11.647499999999999 84.57000000000001 13.1325 84.57000000000001 14.557500000000001 83.67 15.254999999999999 82.77000000000001 15.9525 81.09 15.9525 L78.99000000000001 15.9525 78.99000000000001 20.3325 78.51 20.3325 78.51 10.4325 zM80.91000000000001 15.532499999999999 Q82.515 15.532499999999999 83.28750000000001 14.9775 84.06 14.4225 84.06 13.1325 84.06 11.8275 83.28 11.34 82.5 10.8525 80.91000000000001 10.8525 L78.99000000000001 10.8525 78.99000000000001 15.532499999999999 80.91000000000001 15.532499999999999 z" /><path d="M86.73 13.1625 L87.12 13.1625 87.18 14.5125 87.21000000000001 14.5125 Q87.57000000000001 13.8525 88.08000000000001 13.4175 88.59 12.9825 89.25 12.9825 89.43 12.9825 89.595 13.0125 89.76 13.0425 89.94000000000001 13.1325 L89.82000000000001 13.5525 Q89.64 13.4775 89.52000000000001 13.455 89.4 13.432500000000001 89.19000000000001 13.432500000000001 88.69500000000001 13.432500000000001 88.155 13.86 87.61500000000001 14.2875 87.18 15.3525 L87.18 20.3325 86.73 20.3325 86.73 13.1625 z" /><path d="M90.69000000000001 16.7625 Q90.69000000000001 15.8625 90.94500000000001 15.157499999999999 91.2 14.4525 91.635 13.9725 92.07000000000001 13.4925 92.64750000000001 13.2375 93.22500000000001 12.9825 93.87 12.9825 94.51500000000001 12.9825 95.09250000000002 13.2375 95.67000000000002 13.4925 96.105 13.9725 96.54 14.4525 96.79500000000002 15.157499999999999 97.05000000000001 15.8625 97.05000000000001 16.7625 97.05000000000001 17.6475 96.79500000000002 18.345 96.54 19.0425 96.105 19.5225 95.67000000000002 20.0025 95.09250000000002 20.2575 94.51500000000001 20.5125 93.87 20.5125 93.22500000000001 20.5125 92.64750000000001 20.2575 92.07000000000001 20.0025 91.635 19.5225 91.2 19.0425 90.94500000000001 18.345 90.69000000000001 17.6475 90.69000000000001 16.7625 zM91.17000000000002 16.7625 Q91.17000000000002 17.5125 91.38000000000001 18.12 91.59 18.7275 91.95 19.169999999999998 92.31 19.6125 92.805 19.8525 93.30000000000001 20.0925 93.87 20.0925 94.44000000000001 20.0925 94.935 19.8525 95.43 19.6125 95.79 19.169999999999998 96.15 18.7275 96.36000000000001 18.12 96.57000000000001 17.5125 96.57000000000001 16.7625 96.57000000000001 16.0275 96.36000000000001 15.405 96.15 14.782499999999999 95.79 14.34 95.43 13.8975 94.935 13.649999999999999 94.44000000000001 13.4025 93.87 13.4025 93.30000000000001 13.4025 92.805 13.649999999999999 92.31 13.8975 91.95 14.34 91.59 14.782499999999999 91.38000000000001 15.405 91.17000000000002 16.0275 91.17000000000002 16.7625 z" /><path d="M102.33000000000001 10.4325 L107.64000000000001 10.4325 107.64000000000001 10.8525 102.81000000000002 10.8525 102.81000000000002 14.8425 106.86000000000001 14.8425 106.86000000000001 15.2625 102.81000000000002 15.2625 102.81000000000002 19.912499999999998 107.79 19.912499999999998 107.79 20.3325 102.33000000000001 20.3325 102.33000000000001 10.4325 z" /><path d="M111.15000000000002 16.5825 L108.90000000000002 13.1625 109.41000000000003 13.1625 110.64000000000001 15.0825 Q110.82000000000002 15.3825 111.01500000000001 15.6675 111.21000000000002 15.9525 111.42000000000002 16.252499999999998 L111.48000000000002 16.252499999999998 Q111.69000000000001 15.9525 111.87000000000002 15.6675 112.05000000000001 15.3825 112.26000000000002 15.0825 L113.46000000000002 13.1625 113.94000000000001 13.1625 111.69000000000001 16.6125 114.15000000000002 20.3325 113.64000000000001 20.3325 112.29000000000002 18.2625 Q112.08000000000001 17.9175 111.86250000000001 17.5875 111.64500000000002 17.2575 111.42000000000002 16.9425 L111.36000000000001 16.9425 Q111.13500000000002 17.2575 110.92500000000001 17.5875 110.71500000000002 17.9175 110.49000000000002 18.2625 L109.17000000000002 20.3325 108.69000000000001 20.3325 111.15000000000002 16.5825 z" /><path d="M115.95000000000002 13.5825 L114.81000000000002 13.5825 114.81000000000002 13.2225 115.95000000000002 13.1625 116.01000000000002 11.0625 116.40000000000002 11.0625 116.40000000000002 13.1625 118.53000000000002 13.1625 118.53000000000002 13.5825 116.40000000000002 13.5825 116.40000000000002 18.5025 Q116.40000000000002 18.8475 116.45250000000001 19.14 116.50500000000001 19.4325 116.64000000000001 19.6425 116.77500000000002 19.8525 117.02250000000001 19.9725 117.27000000000001 20.0925 117.66000000000001 20.0925 117.87000000000002 20.0925 118.12500000000001 20.0175 118.38000000000001 19.9425 118.59000000000002 19.8525 L118.74000000000001 20.2425 Q118.42500000000001 20.3625 118.1175 20.4375 117.81000000000002 20.5125 117.63000000000001 20.5125 117.13500000000002 20.5125 116.81250000000001 20.3625 116.49000000000001 20.2125 116.29500000000002 19.9425 116.10000000000001 19.6725 116.02500000000002 19.29 115.95000000000002 18.9075 115.95000000000002 18.4425 L115.95000000000002 13.5825 z" /><path d="M120.33000000000001 13.1625 L120.72000000000001 13.1625 120.78000000000002 14.5125 120.81000000000002 14.5125 Q121.17000000000002 13.8525 121.68000000000002 13.4175 122.19000000000001 12.9825 122.85000000000001 12.9825 123.03000000000002 12.9825 123.19500000000002 13.0125 123.36000000000001 13.0425 123.54000000000002 13.1325 L123.42000000000002 13.5525 Q123.24000000000001 13.4775 123.12000000000002 13.455 123.00000000000001 13.432500000000001 122.79000000000002 13.432500000000001 122.29500000000002 13.432500000000001 121.75500000000001 13.86 121.21500000000002 14.2875 120.78000000000002 15.3525 L120.78000000000002 20.3325 120.33000000000001 20.3325 120.33000000000001 13.1625 z" /><path d="M124.50000000000001 18.5775 Q124.50000000000001 17.377499999999998 125.64000000000001 16.755 126.78000000000002 16.1325 129.21 15.8625 129.22500000000002 15.427499999999998 129.15750000000003 14.985 129.09000000000003 14.5425 128.895 14.19 128.70000000000002 13.837499999999999 128.34750000000003 13.620000000000001 127.99500000000002 13.4025 127.44000000000001 13.4025 127.05000000000001 13.4025 126.70500000000001 13.485 126.36000000000001 13.567499999999999 126.06000000000002 13.7025 125.76000000000002 13.837499999999999 125.51250000000002 13.9875 125.26500000000001 14.1375 125.10000000000002 14.2725 L124.86000000000001 13.9125 Q125.02500000000002 13.7925 125.28750000000002 13.6275 125.55000000000001 13.462499999999999 125.88750000000002 13.32 126.22500000000002 13.1775 126.63000000000002 13.08 127.03500000000003 12.9825 127.47000000000001 12.9825 128.10000000000002 12.9825 128.52 13.2 128.94000000000003 13.4175 129.19500000000002 13.7925 129.45000000000002 14.1675 129.555 14.655 129.66000000000003 15.1425 129.66000000000003 15.682500000000001 L129.66000000000003 20.3325 129.27 20.3325 129.21 19.3725 129.18 19.3725 Q128.61 19.822499999999998 127.95000000000002 20.1675 127.29000000000002 20.5125 126.57000000000002 20.5125 126.15000000000002 20.5125 125.77500000000002 20.4 125.40000000000002 20.287499999999998 125.11500000000002 20.055 124.83000000000001 19.822499999999998 124.66500000000002 19.455 124.50000000000001 19.0875 124.50000000000001 18.5775 zM124.98000000000002 18.5625 Q124.98000000000002 18.982499999999998 125.10750000000002 19.275 125.23500000000001 19.5675 125.46000000000002 19.7475 125.68500000000002 19.9275 125.97750000000002 20.009999999999998 126.27000000000002 20.0925 126.60000000000002 20.0925 127.26000000000002 20.0925 127.87500000000001 19.785 128.49 19.4775 129.21 18.8625 L129.21 16.252499999999998 Q128.025 16.3875 127.21500000000002 16.59 126.40500000000002 16.7925 125.91000000000003 17.0775 125.41500000000002 17.3625 125.19750000000002 17.73 124.98000000000002 18.0975 124.98000000000002 18.5625 z" /><path d="M135.36 10.4325 L135.84 10.4325 135.84 19.912499999999998 140.49 19.912499999999998 140.49 20.3325 135.36 20.3325 135.36 10.4325 z" /><path d="M142.44000000000003 11.3325 Q142.23000000000002 11.3325 142.08 11.19 141.93 11.0475 141.93 10.8225 141.93 10.5675 142.08 10.44 142.23000000000002 10.3125 142.44000000000003 10.3125 142.65 10.3125 142.8 10.44 142.95000000000002 10.5675 142.95000000000002 10.8225 142.95000000000002 11.0475 142.8 11.19 142.65 11.3325 142.44000000000003 11.3325 zM142.20000000000002 13.1625 L142.65 13.1625 142.65 20.3325 142.20000000000002 20.3325 142.20000000000002 13.1625 z" /><path d="M145.38000000000002 21.8025 Q145.38000000000002 22.5225 146.02500000000003 22.9725 146.67000000000004 23.4225 147.87000000000003 23.4225 148.51500000000004 23.4225 149.03250000000003 23.25 149.55000000000004 23.0775 149.91000000000003 22.8075 150.27000000000004 22.5375 150.46500000000003 22.185 150.66000000000003 21.8325 150.66000000000003 21.4725 150.66000000000003 20.8425 150.21750000000003 20.572499999999998 149.77500000000003 20.3025 148.92000000000004 20.3025 L147.27000000000004 20.3025 Q147.19500000000002 20.3025 146.94750000000002 20.28 146.70000000000005 20.2575 146.40000000000003 20.1825 145.86000000000004 20.5425 145.62000000000003 20.97 145.38000000000002 21.3975 145.38000000000002 21.8025 zM144.90000000000003 21.8325 Q144.90000000000003 21.3525 145.19250000000002 20.8875 145.48500000000004 20.4225 145.98000000000002 20.0625 L145.98000000000002 20.0025 Q145.71000000000004 19.8375 145.53000000000003 19.5525 145.35000000000002 19.2675 145.35000000000002 18.8625 145.35000000000002 18.3675 145.62750000000003 18.0375 145.90500000000003 17.7075 146.13000000000002 17.5425 L146.13000000000002 17.482499999999998 Q145.78500000000003 17.1825 145.50750000000002 16.6725 145.23000000000002 16.1625 145.23000000000002 15.5025 145.23000000000002 14.962499999999999 145.41750000000002 14.504999999999999 145.60500000000002 14.0475 145.94250000000002 13.71 146.28000000000003 13.372499999999999 146.72250000000003 13.1775 147.16500000000002 12.9825 147.69000000000003 12.9825 147.99000000000004 12.9825 148.22250000000003 13.035 148.45500000000004 13.087499999999999 148.62000000000003 13.1625 L151.02000000000004 13.1625 151.02000000000004 13.5825 149.28000000000003 13.5825 Q149.67000000000004 13.8975 149.91000000000003 14.3925 150.15000000000003 14.8875 150.15000000000003 15.5025 150.15000000000003 16.0425 149.96250000000003 16.5075 149.77500000000003 16.9725 149.43750000000003 17.3175 149.10000000000002 17.6625 148.65000000000003 17.857499999999998 148.20000000000005 18.0525 147.69000000000003 18.0525 147.37500000000003 18.0525 147.04500000000004 17.97 146.71500000000003 17.8875 146.46000000000004 17.7225 146.20500000000004 17.9325 146.01750000000004 18.1875 145.83000000000004 18.4425 145.83000000000004 18.8325 145.83000000000004 19.0425 145.89750000000004 19.2225 145.96500000000003 19.4025 146.12250000000003 19.5375 146.28000000000003 19.6725 146.55000000000004 19.7475 146.82000000000002 19.822499999999998 147.24000000000004 19.822499999999998 L148.83000000000004 19.822499999999998 Q150.03000000000003 19.822499999999998 150.58500000000004 20.2125 151.14000000000004 20.6025 151.14000000000004 21.4425 151.14000000000004 21.8925 150.90750000000003 22.3275 150.67500000000004 22.7625 150.24750000000003 23.1 149.82000000000002 23.4375 149.20500000000004 23.64 148.59000000000003 23.8425 147.84000000000003 23.8425 146.46000000000004 23.8425 145.68000000000004 23.2875 144.90000000000003 22.732499999999998 144.90000000000003 21.8325 zM147.69000000000003 17.6325 Q148.08000000000004 17.6325 148.44000000000003 17.475 148.80000000000004 17.3175 149.07000000000002 17.04 149.34000000000003 16.7625 149.50500000000002 16.3725 149.67000000000004 15.9825 149.67000000000004 15.5025 149.67000000000004 15.0225 149.51250000000005 14.6325 149.35500000000002 14.2425 149.08500000000004 13.9725 148.81500000000003 13.7025 148.45500000000004 13.5525 148.09500000000003 13.4025 147.69000000000003 13.4025 147.28500000000003 13.4025 146.92500000000004 13.5525 146.56500000000003 13.7025 146.29500000000004 13.9725 146.02500000000003 14.2425 145.86750000000004 14.6325 145.71000000000004 15.0225 145.71000000000004 15.5025 145.71000000000004 15.9825 145.87500000000003 16.3725 146.04000000000002 16.7625 146.31000000000003 17.04 146.58000000000004 17.3175 146.94000000000003 17.475 147.30000000000004 17.6325 147.69000000000003 17.6325 z" /><path d="M152.73000000000002 9.5025 L153.18 9.5025 153.18 12.712499999999999 153.18 14.3325 Q153.76500000000001 13.747499999999999 154.35750000000002 13.365 154.95000000000002 12.9825 155.70000000000002 12.9825 156.81000000000003 12.9825 157.335 13.6425 157.86 14.3025 157.86 15.712499999999999 L157.86 20.3325 157.41000000000003 20.3325 157.41000000000003 15.7725 Q157.41000000000003 14.5725 157.00500000000002 13.9875 156.60000000000002 13.4025 155.67000000000002 13.4025 154.99500000000003 13.4025 154.43250000000003 13.7625 153.87000000000003 14.122499999999999 153.18 14.8425 L153.18 20.3325 152.73000000000002 20.3325 152.73000000000002 9.5025 z" /><path d="M160.71000000000004 13.5825 L159.57000000000002 13.5825 159.57000000000002 13.2225 160.71000000000004 13.1625 160.77000000000004 11.0625 161.16000000000003 11.0625 161.16000000000003 13.1625 163.29000000000002 13.1625 163.29000000000002 13.5825 161.16000000000003 13.5825 161.16000000000003 18.5025 Q161.16000000000003 18.8475 161.21250000000003 19.14 161.26500000000004 19.4325 161.40000000000003 19.6425 161.53500000000003 19.8525 161.78250000000003 19.9725 162.03000000000003 20.0925 162.42000000000004 20.0925 162.63000000000002 20.0925 162.88500000000002 20.0175 163.14000000000004 19.9425 163.35000000000002 19.8525 L163.50000000000003 20.2425 Q163.18500000000003 20.3625 162.87750000000003 20.4375 162.57000000000002 20.5125 162.39000000000004 20.5125 161.89500000000004 20.5125 161.57250000000002 20.3625 161.25000000000003 20.2125 161.05500000000004 19.9425 160.86000000000004 19.6725 160.78500000000003 19.29 160.71000000000004 18.9075 160.71000000000004 18.4425 L160.71000000000004 13.5825 z" /></g></svg>