<svg width="170" height="30" xmlns="http://www.w3.org/2000/svg" viewBox="0 0 170 30"><g fill="currentColor"><path d="M0.5459999999999999 18.1395 Q0.962 18.7635 1.5534999999999999 19.1015 2.145 19.439500000000002 2.9899999999999998 19.439500000000002 3.4709999999999996 19.439500000000002 3.8935 19.290000000000003 4.316 19.1405 4.628 18.8675 4.9399999999999995 18.5945 5.122 18.2045 5.303999999999999 17.814500000000002 5.303999999999999 17.3335 5.303999999999999 16.7485 4.9985 16.3455 4.693 15.9425 4.186 15.643500000000001 L3.042 14.967500000000001 Q2.782 14.811500000000002 2.5349999999999997 14.616500000000002 2.288 14.421500000000002 2.0995 14.1875 1.9109999999999998 13.953500000000002 1.8005 13.6675 1.69 13.381500000000003 1.69 13.043500000000002 1.69 12.614500000000001 1.8655 12.224500000000003 2.041 11.834500000000002 2.3529999999999998 11.5355 2.665 11.236500000000001 3.1069999999999998 11.061000000000002 3.549 10.885500000000002 4.082 10.885500000000002 4.862 10.885500000000002 5.447 11.223500000000001 6.032 11.5615 6.37 12.029500000000002 L6.084 12.2635 Q5.7459999999999996 11.834500000000002 5.226 11.529000000000002 4.7059999999999995 11.223500000000001 4.004 11.223500000000001 3.562 11.223500000000001 3.211 11.379500000000002 2.86 11.5355 2.6065 11.789000000000001 2.3529999999999998 12.0425 2.2165 12.354500000000002 2.08 12.666500000000001 2.08 12.991500000000002 2.08 13.6155 2.4245 13.992500000000001 2.7689999999999997 14.369500000000002 3.2239999999999998 14.6295 L4.342 15.279500000000002 Q4.952999999999999 15.630500000000001 5.3235 16.105 5.694 16.579500000000003 5.694 17.2815 5.694 17.8535 5.4795 18.308500000000002 5.265 18.7635 4.8945 19.095000000000002 4.524 19.4265 4.023499999999999 19.602 3.5229999999999997 19.7775 2.9379999999999997 19.7775 2.015 19.7775 1.339 19.407 0.6629999999999999 19.0365 0.23399999999999999 18.3475 L0.5459999999999999 18.1395 z" /><path d="M8.995999999999999 19.7775 Q8.059999999999999 19.7775 7.5009999999999994 19.147000000000002 6.941999999999999 18.5165 6.941999999999999 17.3335 6.941999999999999 16.462500000000002 7.215 15.715000000000002 7.4879999999999995 14.967500000000001 7.9365 14.421500000000002 8.385 13.875500000000002 8.969999999999999 13.563500000000001 9.555 13.2515 10.192 13.2515 11.128 13.2515 11.687 13.882000000000001 12.245999999999999 14.512500000000001 12.245999999999999 15.695500000000001 12.245999999999999 16.5665 11.972999999999999 17.314 11.7 18.061500000000002 11.2515 18.6075 10.802999999999999 19.1535 10.218 19.465500000000002 9.633 19.7775 8.995999999999999 19.7775 zM10.165999999999999 13.589500000000001 Q9.633 13.589500000000001 9.126 13.882000000000001 8.619 14.174500000000002 8.209499999999998 14.681500000000002 7.799999999999999 15.188500000000001 7.552999999999999 15.851500000000001 7.305999999999999 16.5145 7.305999999999999 17.2555 7.305999999999999 18.334500000000002 7.754499999999999 18.887 8.203 19.439500000000002 9.021999999999998 19.439500000000002 9.542 19.439500000000002 10.055499999999999 19.147000000000002 10.568999999999999 18.8545 10.9785 18.3475 11.387999999999998 17.840500000000002 11.634999999999998 17.177500000000002 11.881999999999998 16.5145 11.881999999999998 15.773500000000002 11.881999999999998 14.694500000000001 11.433499999999999 14.142000000000001 10.985 13.589500000000001 10.165999999999999 13.589500000000001 z" /><path d="M17.68 19.6215 L17.368 19.6215 17.524 18.581500000000002 17.472 18.581500000000002 Q16.887 19.0885 16.3475 19.433 15.808 19.7775 15.235999999999999 19.7775 14.43 19.7775 14.091999999999999 19.355 13.754 18.9325 13.754 18.2695 13.754 18.035500000000003 13.773499999999999 17.873 13.793 17.7105 13.857999999999999 17.4375 L14.664 13.407500000000002 15.027999999999999 13.407500000000002 14.222 17.3855 Q14.157 17.6845 14.1375 17.8535 14.117999999999999 18.0225 14.117999999999999 18.2175 14.117999999999999 18.828500000000002 14.391 19.134 14.664 19.439500000000002 15.288 19.439500000000002 15.716999999999999 19.439500000000002 16.302 19.1145 16.887 18.7895 17.628 18.061500000000002 L18.564 13.407500000000002 18.927999999999997 13.407500000000002 17.68 19.6215 z" /><path d="M21.346 13.407500000000002 L21.658 13.407500000000002 21.45 14.5775 21.502 14.5775 Q21.892 14.031500000000001 22.3665 13.6415 22.841 13.2515 23.451999999999998 13.2515 23.569 13.2515 23.7055 13.271 23.842 13.290500000000002 23.997999999999998 13.355500000000001 L23.842 13.7195 Q23.764 13.680500000000002 23.66 13.648000000000001 23.556 13.6155 23.374 13.6155 22.867 13.6155 22.294999999999998 14.096500000000002 21.723 14.5775 21.294 15.435500000000001 L20.462 19.6215 20.098 19.6215 21.346 13.407500000000002 z" /><path d="M24.102 17.3335 Q24.102 16.4235 24.388 15.669500000000001 24.674 14.915500000000002 25.142 14.376000000000001 25.61 13.836500000000001 26.201500000000003 13.544 26.793 13.2515 27.404 13.2515 27.937 13.2515 28.2945 13.453000000000001 28.652 13.654500000000002 28.964000000000002 14.005500000000001 L28.704 14.265500000000001 Q28.405 13.9145 28.119 13.752000000000002 27.833000000000002 13.589500000000001 27.378 13.589500000000001 26.832 13.589500000000001 26.305500000000002 13.882000000000001 25.779 14.174500000000002 25.369500000000002 14.681500000000002 24.96 15.188500000000001 24.713 15.851500000000001 24.466 16.5145 24.466 17.2555 24.466 18.334500000000002 24.9145 18.887 25.363 19.439500000000002 26.286 19.439500000000002 26.78 19.439500000000002 27.2025 19.238 27.625 19.0365 27.976 18.7635 L28.184 19.049500000000002 Q27.846 19.3095 27.378 19.5435 26.91 19.7775 26.26 19.7775 25.259 19.7775 24.680500000000002 19.147000000000002 24.102 18.5165 24.102 17.3335 z" /><path d="M29.666 17.2295 Q29.666 16.3455 29.945500000000003 15.611 30.225 14.8765 30.6735 14.350000000000001 31.122 13.823500000000001 31.694000000000003 13.537500000000001 32.266 13.2515 32.864000000000004 13.2515 33.358000000000004 13.2515 33.709 13.414000000000001 34.06 13.576500000000001 34.281 13.869000000000002 34.502 14.1615 34.606 14.558000000000002 34.71 14.954500000000001 34.71 15.435500000000001 34.71 15.747500000000002 34.664500000000004 16.014000000000003 34.619 16.2805 34.554 16.4755 L30.108 16.4755 Q29.965 17.2555 30.069000000000003 17.814500000000002 30.173000000000002 18.3735 30.446 18.7375 30.719 19.1015 31.128500000000003 19.270500000000002 31.538 19.439500000000002 32.032000000000004 19.439500000000002 32.461 19.439500000000002 32.877 19.2575 33.293 19.0755 33.644 18.8155 L33.826 19.1015 Q33.449 19.3745 32.981 19.576 32.513 19.7775 32.006 19.7775 30.927 19.7775 30.2965 19.134 29.666 18.4905 29.666 17.2295 zM34.268 16.137500000000003 Q34.307 15.9425 34.3265 15.7605 34.346000000000004 15.578500000000002 34.346000000000004 15.357500000000002 34.346000000000004 15.032500000000002 34.268 14.714000000000002 34.19 14.395500000000002 34.0145 14.142000000000001 33.839 13.8885 33.5465 13.739 33.254000000000005 13.589500000000001 32.838 13.589500000000001 32.396 13.589500000000001 31.9735 13.778000000000002 31.551000000000002 13.966500000000002 31.200000000000003 14.3045 30.849 14.642500000000002 30.5825 15.110500000000002 30.316000000000003 15.578500000000002 30.186 16.137500000000003 L34.268 16.137500000000003 z" /><path d="M38.168 18.1395 Q38.584 18.7635 39.1755 19.1015 39.767 19.439500000000002 40.612 19.439500000000002 41.092999999999996 19.439500000000002 41.5155 19.290000000000003 41.938 19.1405 42.25 18.8675 42.562 18.5945 42.744 18.2045 42.926 17.814500000000002 42.926 17.3335 42.926 16.7485 42.6205 16.3455 42.315 15.9425 41.808 15.643500000000001 L40.664 14.967500000000001 Q40.403999999999996 14.811500000000002 40.157 14.616500000000002 39.91 14.421500000000002 39.7215 14.1875 39.533 13.953500000000002 39.4225 13.6675 39.312 13.381500000000003 39.312 13.043500000000002 39.312 12.614500000000001 39.4875 12.224500000000003 39.663 11.834500000000002 39.975 11.5355 40.287 11.236500000000001 40.729 11.061000000000002 41.171 10.885500000000002 41.704 10.885500000000002 42.484 10.885500000000002 43.069 11.223500000000001 43.653999999999996 11.5615 43.992 12.029500000000002 L43.706 12.2635 Q43.368 11.834500000000002 42.848 11.529000000000002 42.328 11.223500000000001 41.626 11.223500000000001 41.184 11.223500000000001 40.833 11.379500000000002 40.482 11.5355 40.2285 11.789000000000001 39.975 12.0425 39.838499999999996 12.354500000000002 39.702 12.666500000000001 39.702 12.991500000000002 39.702 13.6155 40.0465 13.992500000000001 40.391 14.369500000000002 40.846 14.6295 L41.964 15.279500000000002 Q42.575 15.630500000000001 42.9455 16.105 43.316 16.579500000000003 43.316 17.2815 43.316 17.8535 43.1015 18.308500000000002 42.887 18.7635 42.5165 19.095000000000002 42.146 19.4265 41.6455 19.602 41.144999999999996 19.7775 40.56 19.7775 39.637 19.7775 38.961 19.407 38.285 19.0365 37.856 18.3475 L38.168 18.1395 z" /><path d="M44.564 17.5415 Q44.564 16.6445 44.85 15.864500000000001 45.136 15.084500000000002 45.6105 14.499500000000001 46.085 13.9145 46.6895 13.583000000000002 47.294000000000004 13.2515 47.944 13.2515 48.516 13.2515 48.919 13.537500000000001 49.322 13.823500000000001 49.582 14.291500000000001 L49.634 14.291500000000001 49.868 13.407500000000002 50.18 13.407500000000002 48.932 19.6215 48.620000000000005 19.6215 48.776 18.6075 48.724000000000004 18.6075 Q48.230000000000004 19.1145 47.6385 19.446 47.047000000000004 19.7775 46.384 19.7775 45.565 19.7775 45.0645 19.212 44.564 18.6465 44.564 17.5415 zM46.410000000000004 19.439500000000002 Q47.06 19.439500000000002 47.6775 19.069000000000003 48.295 18.698500000000003 48.88 18.035500000000003 L49.556 14.785500000000003 Q49.179 14.1355 48.7825 13.8625 48.386 13.589500000000001 47.918 13.589500000000001 47.333 13.589500000000001 46.7935 13.927500000000002 46.254 14.265500000000001 45.838 14.811500000000002 45.422000000000004 15.357500000000002 45.175000000000004 16.053 44.928000000000004 16.7485 44.928000000000004 17.4635 44.928000000000004 18.4645 45.3245 18.952 45.721000000000004 19.439500000000002 46.410000000000004 19.439500000000002 z" /><path d="M52.598 13.407500000000002 L52.91 13.407500000000002 52.754 14.421500000000002 52.806 14.421500000000002 Q53.391 13.9145 53.930499999999995 13.583000000000002 54.47 13.2515 55.042 13.2515 55.848 13.2515 56.186 13.674000000000001 56.524 14.096500000000002 56.524 14.759500000000001 56.524 14.993500000000001 56.5045 15.156000000000002 56.485 15.3185 56.42 15.5915 L55.614 19.6215 55.25 19.6215 56.056 15.643500000000001 Q56.120999999999995 15.3445 56.140499999999996 15.175500000000001 56.16 15.0065 56.16 14.811500000000002 56.16 14.200500000000002 55.887 13.895000000000001 55.614 13.589500000000001 54.989999999999995 13.589500000000001 54.561 13.589500000000001 53.976 13.9145 53.391 14.239500000000001 52.65 14.967500000000001 L51.714 19.6215 51.35 19.6215 52.598 13.407500000000002 z" /><path d="M57.616 18.4255 Q57.876 18.8415 58.344 19.1405 58.812 19.439500000000002 59.436 19.439500000000002 59.774 19.439500000000002 60.079499999999996 19.329 60.385 19.218500000000002 60.619 19.023500000000002 60.852999999999994 18.828500000000002 60.9895 18.575000000000003 61.126 18.3215 61.126 18.035500000000003 61.126 17.840500000000002 61.0805 17.6715 61.035 17.5025 60.905 17.34 60.775 17.177500000000002 60.541 17.002000000000002 60.306999999999995 16.826500000000003 59.93 16.631500000000003 59.488 16.3975 59.189 16.196 58.89 15.994500000000002 58.708 15.799500000000002 58.525999999999996 15.604500000000002 58.448 15.403000000000002 58.37 15.201500000000001 58.37 14.967500000000001 58.37 14.5775 58.525999999999996 14.259 58.681999999999995 13.9405 58.942 13.7195 59.202 13.498500000000002 59.546499999999995 13.375000000000002 59.891 13.2515 60.268 13.2515 60.775 13.2515 61.1975 13.4465 61.62 13.6415 61.931999999999995 13.979500000000002 L61.672 14.239500000000001 Q61.412 13.966500000000002 61.074 13.778000000000002 60.736 13.589500000000001 60.242 13.589500000000001 59.93 13.589500000000001 59.657 13.6935 59.384 13.797500000000001 59.175999999999995 13.973000000000003 58.967999999999996 14.148500000000002 58.851 14.389000000000001 58.733999999999995 14.6295 58.733999999999995 14.889500000000002 58.733999999999995 15.357500000000002 59.085 15.650000000000002 59.436 15.9425 59.903999999999996 16.189500000000002 60.437 16.488500000000002 60.7555 16.7225 61.074 16.956500000000002 61.2365 17.171 61.399 17.3855 61.4445 17.574 61.489999999999995 17.762500000000003 61.489999999999995 17.9575 61.489999999999995 18.3735 61.3275 18.7115 61.165 19.049500000000002 60.8855 19.2835 60.605999999999995 19.517500000000002 60.216 19.6475 59.826 19.7775 59.384 19.7775 59.046 19.7775 58.7275 19.6735 58.409 19.5695 58.1425 19.407 57.876 19.244500000000002 57.668 19.043 57.46 18.8415 57.33 18.6335 L57.616 18.4255 z" /><path d="M67.002 11.041500000000001 L69.18599999999999 11.041500000000001 Q70.36899999999999 11.041500000000001 71.0255 11.509500000000001 71.68199999999999 11.977500000000003 71.68199999999999 12.991500000000002 71.68199999999999 13.6935 71.43499999999999 14.220000000000002 71.18799999999999 14.746500000000001 70.71999999999998 15.0975 70.252 15.448500000000001 69.58899999999998 15.624000000000002 68.92599999999999 15.799500000000002 68.094 15.799500000000002 L66.42999999999999 15.799500000000002 65.67599999999999 19.6215 65.28599999999999 19.6215 67.002 11.041500000000001 zM68.01599999999999 15.461500000000001 Q69.64099999999999 15.461500000000001 70.4665 14.8505 71.29199999999999 14.239500000000001 71.29199999999999 13.017500000000002 71.29199999999999 12.133500000000002 70.70049999999999 11.756500000000003 70.109 11.379500000000002 68.952 11.379500000000002 L67.314 11.379500000000002 66.508 15.461500000000001 68.01599999999999 15.461500000000001 z" /><path d="M73.39799999999998 13.407500000000002 L73.71 13.407500000000002 73.502 14.5775 73.55399999999999 14.5775 Q73.94399999999999 14.031500000000001 74.4185 13.6415 74.89299999999999 13.2515 75.50399999999999 13.2515 75.621 13.2515 75.7575 13.271 75.89399999999999 13.290500000000002 76.04999999999998 13.355500000000001 L75.89399999999999 13.7195 Q75.81599999999999 13.680500000000002 75.71199999999999 13.648000000000001 75.60799999999999 13.6155 75.42599999999999 13.6155 74.91899999999998 13.6155 74.347 14.096500000000002 73.77499999999999 14.5775 73.34599999999999 15.435500000000001 L72.51399999999998 19.6215 72.14999999999999 19.6215 73.39799999999998 13.407500000000002 z" /><path d="M78.234 19.7775 Q77.29799999999999 19.7775 76.73899999999999 19.147000000000002 76.17999999999999 18.5165 76.17999999999999 17.3335 76.17999999999999 16.462500000000002 76.45299999999999 15.715000000000002 76.726 14.967500000000001 77.1745 14.421500000000002 77.62299999999999 13.875500000000002 78.208 13.563500000000001 78.79299999999999 13.2515 79.42999999999999 13.2515 80.366 13.2515 80.925 13.882000000000001 81.484 14.512500000000001 81.484 15.695500000000001 81.484 16.5665 81.211 17.314 80.93799999999999 18.061500000000002 80.48949999999999 18.6075 80.041 19.1535 79.45599999999999 19.465500000000002 78.871 19.7775 78.234 19.7775 zM79.404 13.589500000000001 Q78.871 13.589500000000001 78.36399999999999 13.882000000000001 77.857 14.174500000000002 77.44749999999999 14.681500000000002 77.038 15.188500000000001 76.791 15.851500000000001 76.544 16.5145 76.544 17.2555 76.544 18.334500000000002 76.99249999999999 18.887 77.44099999999999 19.439500000000002 78.25999999999999 19.439500000000002 78.77999999999999 19.439500000000002 79.2935 19.147000000000002 79.80699999999999 18.8545 80.2165 18.3475 80.62599999999999 17.840500000000002 80.87299999999999 17.177500000000002 81.11999999999999 16.5145 81.11999999999999 15.773500000000002 81.11999999999999 14.694500000000001 80.6715 14.142000000000001 80.223 13.589500000000001 79.404 13.589500000000001 z" /><path d="M86.762 11.041500000000001 L91.208 11.041500000000001 91.13 11.379500000000002 87.074 11.379500000000002 86.372 14.889500000000002 89.804 14.889500000000002 89.726 15.227500000000001 86.32 15.227500000000001 85.488 19.2835 89.67399999999999 19.2835 89.59599999999999 19.6215 85.04599999999999 19.6215 86.762 11.041500000000001 z" /><path d="M93.132 16.3455 L91.884 13.407500000000002 92.274 13.407500000000002 92.95 15.0455 Q93.067 15.3445 93.158 15.578500000000002 93.249 15.812500000000002 93.366 16.0855 L93.41799999999999 16.0855 Q93.652 15.825500000000002 93.886 15.572000000000001 94.12 15.3185 94.354 15.0455 L95.81 13.407500000000002 96.226 13.407500000000002 93.574 16.4235 94.926 19.6215 94.536 19.6215 93.834 17.8535 Q93.717 17.5545 93.587 17.2555 93.457 16.956500000000002 93.314 16.657500000000002 L93.262 16.657500000000002 Q93.02799999999999 16.956500000000002 92.7745 17.236 92.521 17.515500000000003 92.222 17.8275 L90.636 19.6215 90.194 19.6215 93.132 16.3455 z" /><path d="M97.65599999999999 13.745500000000002 L96.66799999999999 13.745500000000002 96.72 13.459500000000002 97.734 13.407500000000002 98.14999999999999 11.613500000000002 98.46199999999999 11.613500000000002 98.098 13.407500000000002 99.814 13.407500000000002 99.73599999999999 13.745500000000002 98.02 13.745500000000002 97.136 18.035500000000003 Q97.11 18.1525 97.097 18.2695 97.08399999999999 18.3865 97.08399999999999 18.529500000000002 97.08399999999999 18.9845 97.2725 19.212 97.461 19.439500000000002 97.994 19.439500000000002 98.228 19.439500000000002 98.423 19.3615 98.618 19.2835 98.774 19.2055 L98.904 19.491500000000002 Q98.722 19.5955 98.4815 19.686500000000002 98.241 19.7775 97.96799999999999 19.7775 97.26599999999999 19.7775 96.993 19.4265 96.72 19.0755 96.72 18.6075 96.72 18.4255 96.73299999999999 18.2955 96.746 18.1655 96.77199999999999 18.009500000000003 L97.65599999999999 13.745500000000002 z" /><path d="M101.34799999999998 13.407500000000002 L101.66 13.407500000000002 101.452 14.5775 101.50399999999999 14.5775 Q101.89399999999999 14.031500000000001 102.3685 13.6415 102.84299999999999 13.2515 103.454 13.2515 103.571 13.2515 103.7075 13.271 103.844 13.290500000000002 103.99999999999999 13.355500000000001 L103.844 13.7195 Q103.76599999999999 13.680500000000002 103.66199999999999 13.648000000000001 103.55799999999999 13.6155 103.37599999999999 13.6155 102.86899999999999 13.6155 102.297 14.096500000000002 101.725 14.5775 101.29599999999999 15.435500000000001 L100.464 19.6215 100.1 19.6215 101.34799999999998 13.407500000000002 z" /><path d="M104.13 17.5415 Q104.13 16.6445 104.416 15.864500000000001 104.702 15.084500000000002 105.17649999999999 14.499500000000001 105.651 13.9145 106.2555 13.583000000000002 106.86 13.2515 107.50999999999999 13.2515 108.082 13.2515 108.485 13.537500000000001 108.88799999999999 13.823500000000001 109.148 14.291500000000001 L109.2 14.291500000000001 109.434 13.407500000000002 109.746 13.407500000000002 108.49799999999999 19.6215 108.18599999999999 19.6215 108.342 18.6075 108.28999999999999 18.6075 Q107.79599999999999 19.1145 107.2045 19.446 106.613 19.7775 105.95 19.7775 105.131 19.7775 104.6305 19.212 104.13 18.6465 104.13 17.5415 zM105.976 19.439500000000002 Q106.62599999999999 19.439500000000002 107.2435 19.069000000000003 107.86099999999999 18.698500000000003 108.446 18.035500000000003 L109.122 14.785500000000003 Q108.74499999999999 14.1355 108.3485 13.8625 107.952 13.589500000000001 107.484 13.589500000000001 106.899 13.589500000000001 106.3595 13.927500000000002 105.82 14.265500000000001 105.404 14.811500000000002 104.988 15.357500000000002 104.741 16.053 104.494 16.7485 104.494 17.4635 104.494 18.4645 104.8905 18.952 105.28699999999999 19.439500000000002 105.976 19.439500000000002 z" /><path d="M115.024 11.041500000000001 L115.414 11.041500000000001 113.776 19.2835 117.676 19.2835 117.598 19.6215 113.30799999999999 19.6215 115.024 11.041500000000001 z" /><path d="M120.22399999999999 13.407500000000002 L120.588 13.407500000000002 119.34 19.6215 118.976 19.6215 120.22399999999999 13.407500000000002 zM120.744 11.8215 Q120.588 11.8215 120.484 11.717500000000001 120.38 11.613500000000002 120.38 11.457500000000001 120.38 11.223500000000001 120.523 11.0805 120.666 10.937500000000002 120.848 10.937500000000002 121.00399999999999 10.937500000000002 121.10799999999999 11.041500000000001 121.21199999999999 11.145500000000002 121.21199999999999 11.3275 121.21199999999999 11.5485 121.069 11.685000000000002 120.926 11.8215 120.744 11.8215 z" /><path d="M127.32199999999999 13.407500000000002 L125.94399999999999 20.2455 Q125.71 21.363500000000002 125.05349999999999 22.0135 124.39699999999999 22.6635 123.344 22.6635 122.65499999999999 22.6635 122.1545 22.4035 121.654 22.1435 121.264 21.805500000000002 L121.49799999999999 21.5195 Q121.84899999999999 21.8575 122.317 22.0915 122.785 22.3255 123.36999999999999 22.3255 124.31899999999999 22.3255 124.865 21.6885 125.41099999999999 21.0515 125.63199999999999 20.0115 L125.94399999999999 18.555500000000002 125.892 18.555500000000002 Q125.398 19.023500000000002 124.81949999999999 19.3485 124.24099999999999 19.6735 123.57799999999999 19.6735 122.77199999999999 19.6735 122.27799999999999 19.108 121.78399999999999 18.5425 121.78399999999999 17.4635 121.78399999999999 16.5925 122.07 15.825500000000002 122.356 15.058500000000002 122.824 14.486500000000001 123.29199999999999 13.9145 123.8835 13.583000000000002 124.475 13.2515 125.086 13.2515 125.645 13.2515 126.05449999999999 13.537500000000001 126.464 13.823500000000001 126.72399999999999 14.291500000000001 L126.776 14.291500000000001 127.00999999999999 13.407500000000002 127.32199999999999 13.407500000000002 zM123.604 19.3355 Q124.14999999999999 19.3355 124.8 18.978 125.44999999999999 18.6205 126.02199999999999 18.009500000000003 L126.698 14.785500000000003 Q126.321 14.1355 125.9245 13.8625 125.52799999999999 13.589500000000001 125.05999999999999 13.589500000000001 124.50099999999999 13.589500000000001 123.981 13.921000000000001 123.461 14.252500000000001 123.05149999999999 14.792000000000002 122.642 15.331500000000002 122.395 16.014000000000003 122.148 16.6965 122.148 17.3855 122.148 18.360500000000002 122.5315 18.848000000000003 122.91499999999999 19.3355 123.604 19.3355 z" /><path d="M130.36399999999998 10.235500000000002 L130.72799999999998 10.235500000000002 130 13.849500000000003 129.844 14.447500000000002 129.896 14.447500000000002 Q130.51999999999998 13.9145 131.06599999999997 13.583000000000002 131.612 13.2515 132.184 13.2515 132.98999999999998 13.2515 133.32799999999997 13.674000000000001 133.666 14.096500000000002 133.666 14.759500000000001 133.666 14.993500000000001 133.64649999999997 15.156000000000002 133.62699999999998 15.3185 133.56199999999998 15.5915 L132.756 19.6215 132.392 19.6215 133.19799999999998 15.643500000000001 Q133.26299999999998 15.3445 133.2825 15.175500000000001 133.302 15.0065 133.302 14.811500000000002 133.302 14.200500000000002 133.029 13.895000000000001 132.756 13.589500000000001 132.13199999999998 13.589500000000001 131.70299999999997 13.589500000000001 131.118 13.9145 130.533 14.239500000000001 129.79199999999997 14.967500000000001 L128.856 19.6215 128.492 19.6215 130.36399999999998 10.235500000000002 z" /><path d="M136.29199999999997 13.745500000000002 L135.30399999999997 13.745500000000002 135.35599999999997 13.459500000000002 136.36999999999998 13.407500000000002 136.78599999999997 11.613500000000002 137.09799999999998 11.613500000000002 136.73399999999998 13.407500000000002 138.45 13.407500000000002 138.37199999999999 13.745500000000002 136.65599999999998 13.745500000000002 135.77199999999996 18.035500000000003 Q135.74599999999998 18.1525 135.73299999999998 18.2695 135.71999999999997 18.3865 135.71999999999997 18.529500000000002 135.71999999999997 18.9845 135.90849999999998 19.212 136.09699999999998 19.439500000000002 136.62999999999997 19.439500000000002 136.86399999999998 19.439500000000002 137.05899999999997 19.3615 137.254 19.2835 137.40999999999997 19.2055 L137.53999999999996 19.491500000000002 Q137.35799999999998 19.5955 137.11749999999998 19.686500000000002 136.87699999999998 19.7775 136.60399999999998 19.7775 135.902 19.7775 135.629 19.4265 135.35599999999997 19.0755 135.35599999999997 18.6075 135.35599999999997 18.4255 135.36899999999997 18.2955 135.38199999999998 18.1655 135.408 18.009500000000003 L136.29199999999997 13.745500000000002 z" /><path d="M142.84399999999997 11.041500000000001 L143.23399999999998 11.041500000000001 141.51799999999997 19.6215 141.128 19.6215 142.84399999999997 11.041500000000001 z" /><path d="M145.33999999999997 13.745500000000002 L144.35199999999998 13.745500000000002 144.40399999999997 13.459500000000002 145.41799999999998 13.407500000000002 145.83399999999997 11.613500000000002 146.146 11.613500000000002 145.78199999999998 13.407500000000002 147.498 13.407500000000002 147.42 13.745500000000002 145.70399999999998 13.745500000000002 144.81999999999996 18.035500000000003 Q144.79399999999998 18.1525 144.78099999999998 18.2695 144.76799999999997 18.3865 144.76799999999997 18.529500000000002 144.76799999999997 18.9845 144.95649999999998 19.212 145.14499999999998 19.439500000000002 145.67799999999997 19.439500000000002 145.91199999999998 19.439500000000002 146.10699999999997 19.3615 146.302 19.2835 146.45799999999997 19.2055 L146.58799999999997 19.491500000000002 Q146.40599999999998 19.5955 146.16549999999998 19.686500000000002 145.92499999999998 19.7775 145.652 19.7775 144.95 19.7775 144.677 19.4265 144.40399999999997 19.0755 144.40399999999997 18.6075 144.40399999999997 18.4255 144.41699999999997 18.2955 144.42999999999998 18.1655 144.456 18.009500000000003 L145.33999999999997 13.745500000000002 z" /><path d="M147.81 17.5415 Q147.81 16.6445 148.09599999999998 15.864500000000001 148.38199999999998 15.084500000000002 148.85649999999998 14.499500000000001 149.331 13.9145 149.9355 13.583000000000002 150.54 13.2515 151.19 13.2515 151.762 13.2515 152.165 13.537500000000001 152.56799999999998 13.823500000000001 152.82799999999997 14.291500000000001 L152.88 14.291500000000001 153.11399999999998 13.407500000000002 153.426 13.407500000000002 152.178 19.6215 151.86599999999999 19.6215 152.022 18.6075 151.97 18.6075 Q151.476 19.1145 150.8845 19.446 150.29299999999998 19.7775 149.63 19.7775 148.81099999999998 19.7775 148.3105 19.212 147.81 18.6465 147.81 17.5415 zM149.65599999999998 19.439500000000002 Q150.30599999999998 19.439500000000002 150.9235 19.069000000000003 151.541 18.698500000000003 152.12599999999998 18.035500000000003 L152.802 14.785500000000003 Q152.42499999999998 14.1355 152.02849999999998 13.8625 151.63199999999998 13.589500000000001 151.164 13.589500000000001 150.57899999999998 13.589500000000001 150.03949999999998 13.927500000000002 149.5 14.265500000000001 149.084 14.811500000000002 148.66799999999998 15.357500000000002 148.421 16.053 148.17399999999998 16.7485 148.17399999999998 17.4635 148.17399999999998 18.4645 148.57049999999998 18.952 148.96699999999998 19.439500000000002 149.65599999999998 19.439500000000002 z" /><path d="M156.468 10.235500000000002 L156.832 10.235500000000002 155.09 18.997500000000002 Q155.064 19.1015 155.064 19.16 155.064 19.218500000000002 155.064 19.2575 155.064 19.439500000000002 155.246 19.439500000000002 155.285 19.439500000000002 155.3175 19.433 155.35 19.4265 155.454 19.387500000000003 L155.506 19.6995 Q155.402 19.738500000000002 155.3305 19.758000000000003 155.25900000000001 19.7775 155.142 19.7775 154.947 19.7775 154.8105 19.660500000000003 154.674 19.5435 154.674 19.3095 154.674 19.244500000000002 154.687 19.16 154.7 19.0755 154.726 18.971500000000002 L156.468 10.235500000000002 z" /><path d="M158.78199999999998 13.407500000000002 L159.146 13.407500000000002 157.898 19.6215 157.534 19.6215 158.78199999999998 13.407500000000002 zM159.302 11.8215 Q159.146 11.8215 159.042 11.717500000000001 158.938 11.613500000000002 158.938 11.457500000000001 158.938 11.223500000000001 159.081 11.0805 159.224 10.937500000000002 159.40599999999998 10.937500000000002 159.56199999999998 10.937500000000002 159.666 11.041500000000001 159.76999999999998 11.145500000000002 159.76999999999998 11.3275 159.76999999999998 11.5485 159.62699999999998 11.685000000000002 159.48399999999998 11.8215 159.302 11.8215 z" /><path d="M160.316 17.3335 Q160.316 16.4235 160.602 15.669500000000001 160.888 14.915500000000002 161.356 14.376000000000001 161.824 13.836500000000001 162.4155 13.544 163.007 13.2515 163.618 13.2515 164.151 13.2515 164.5085 13.453000000000001 164.86599999999999 13.654500000000002 165.178 14.005500000000001 L164.918 14.265500000000001 Q164.619 13.9145 164.333 13.752000000000002 164.047 13.589500000000001 163.592 13.589500000000001 163.046 13.589500000000001 162.5195 13.882000000000001 161.993 14.174500000000002 161.5835 14.681500000000002 161.174 15.188500000000001 160.927 15.851500000000001 160.68 16.5145 160.68 17.2555 160.68 18.334500000000002 161.1285 18.887 161.577 19.439500000000002 162.5 19.439500000000002 162.994 19.439500000000002 163.4165 19.238 163.839 19.0365 164.19 18.7635 L164.398 19.049500000000002 Q164.06 19.3095 163.592 19.5435 163.124 19.7775 162.474 19.7775 161.473 19.7775 160.8945 19.147000000000002 160.316 18.5165 160.316 17.3335 z" /></g></svg>