<svg width="170" height="30" xmlns="http://www.w3.org/2000/svg" viewBox="0 0 170 30"><g fill="currentColor"><path d="M1.311 18.9615 Q1.8619999999999999 19.7975 2.6694999999999998 20.263 3.477 20.7285 4.522 20.7285 5.092 20.7285 5.586 20.5575 6.08 20.3865 6.4315 20.0825 6.7829999999999995 19.7785 6.992 19.3415 7.201 18.9045 7.201 18.3725 7.201 17.6885 6.773499999999999 17.223 6.346 16.7575 5.643 16.3205 L4.199 15.4465 Q3.401 14.9525 2.8405 14.2685 2.28 13.5845 2.28 12.5205 2.28 11.8175 2.5745 11.1905 2.8689999999999998 10.563500000000001 3.382 10.0885 3.895 9.6135 4.6075 9.338000000000001 5.32 9.0625 6.156 9.0625 7.277 9.0625 8.189 9.5565 9.100999999999999 10.050500000000001 9.69 10.810500000000001 L8.721 11.6845 Q8.227 11.1145 7.5714999999999995 10.725 6.9159999999999995 10.3355 6.042 10.3355 5.51 10.3355 5.092 10.5065 4.6739999999999995 10.6775 4.3795 10.9625 4.085 11.2475 3.933 11.608500000000001 3.7809999999999997 11.9695 3.7809999999999997 12.3495 3.7809999999999997 13.0715 4.2465 13.518 4.712 13.964500000000001 5.396 14.3825 L6.84 15.2375 Q7.752 15.7695 8.2365 16.444 8.721 17.1185 8.721 18.1635 8.721 18.9995 8.398 19.7025 8.075 20.4055 7.505 20.909 6.935 21.4125 6.137 21.6975 5.3389999999999995 21.9825 4.389 21.9825 3.097 21.9825 2.0425 21.441 0.988 20.8995 0.22799999999999998 19.7785 L1.311 18.9615 z" /><path d="M13.642 21.9825 Q12.140999999999998 21.9825 11.248 20.9945 10.354999999999999 20.0065 10.354999999999999 18.2775 10.354999999999999 16.9665 10.773 15.8645 11.190999999999999 14.7625 11.893999999999998 13.974 12.597 13.185500000000001 13.489999999999998 12.739 14.383 12.2925 15.332999999999998 12.2925 16.834 12.2925 17.7365 13.2805 18.639 14.2685 18.639 15.9975 18.639 17.308500000000002 18.2115 18.4105 17.784 19.5125 17.0905 20.301000000000002 16.397 21.0895 15.494499999999999 21.536 14.591999999999999 21.9825 13.642 21.9825 zM15.181 13.4895 Q14.553999999999998 13.4895 13.945999999999998 13.86 13.338 14.2305 12.863 14.867 12.387999999999998 15.5035 12.102999999999998 16.3585 11.817999999999998 17.2135 11.817999999999998 18.1825 11.817999999999998 19.4365 12.321499999999999 20.1015 12.825 20.7665 13.793999999999999 20.7665 14.439999999999998 20.7665 15.038499999999999 20.396 15.636999999999999 20.0255 16.112 19.3985 16.587 18.7715 16.872 17.9165 17.157 17.061500000000002 17.157 16.0925 17.157 14.8385 16.653499999999998 14.164000000000001 16.15 13.4895 15.181 13.4895 z" /><path d="M26.961 21.7545 L25.764000000000003 21.7545 25.916 20.3485 25.84 20.3485 Q25.080000000000002 21.0135 24.2915 21.498 23.503 21.9825 22.648 21.9825 21.47 21.9825 20.9665 21.365 20.463 20.7475 20.463 19.683500000000002 20.463 19.360500000000002 20.491500000000002 19.0755 20.52 18.7905 20.615000000000002 18.4105 L21.793 12.5205 23.256 12.5205 22.097 18.2205 Q22.021 18.6005 21.983 18.828500000000002 21.945 19.0565 21.945 19.3035 21.945 20.0065 22.268 20.3675 22.591 20.7285 23.313000000000002 20.7285 23.864 20.7285 24.529 20.3295 25.194000000000003 19.930500000000002 26.049 19.0565 L27.36 12.5205 28.804000000000002 12.5205 26.961 21.7545 z" /><path d="M31.844 12.5205 L33.041000000000004 12.5205 32.832 14.287500000000001 32.908 14.287500000000001 Q33.459 13.432500000000001 34.1905 12.8625 34.922 12.2925 35.777 12.2925 36.252 12.2925 36.651 12.4635 L36.138 13.755500000000001 Q35.834 13.6035 35.34 13.6035 34.656 13.6035 33.934 14.1925 33.212 14.781500000000001 32.623 15.9215 L31.464000000000002 21.7545 30.02 21.7545 31.844 12.5205 z" /><path d="M36.632000000000005 18.2775 Q36.632000000000005 16.985500000000002 37.0595 15.893 37.487 14.8005 38.1995 14.002500000000001 38.912 13.204500000000001 39.843 12.7485 40.774 12.2925 41.781 12.2925 42.617000000000004 12.2925 43.187000000000005 12.6155 43.757000000000005 12.938500000000001 44.175000000000004 13.4135 L43.32 14.325500000000002 Q42.959 13.8885 42.598 13.689 42.237 13.4895 41.686 13.4895 41.002 13.4895 40.356 13.8695 39.71 14.249500000000001 39.206500000000005 14.886 38.703 15.5225 38.408500000000004 16.3775 38.114000000000004 17.2325 38.114000000000004 18.1825 38.114000000000004 19.4365 38.6555 20.1015 39.197 20.7665 40.299 20.7665 40.907000000000004 20.7665 41.4105 20.5195 41.914 20.2725 42.351 19.9495 L42.997 20.8995 Q42.503 21.2795 41.781 21.631 41.059000000000005 21.9825 40.033 21.9825 38.513000000000005 21.9825 37.572500000000005 21.023 36.632000000000005 20.0635 36.632000000000005 18.2775 z" /><path d="M44.897000000000006 18.1255 Q44.897000000000006 16.814500000000002 45.334 15.741 45.771 14.6675 46.4645 13.898 47.158 13.1285 48.0415 12.7105 48.925000000000004 12.2925 49.837 12.2925 50.616 12.2925 51.1575 12.549000000000001 51.699000000000005 12.8055 52.041000000000004 13.252 52.383 13.698500000000001 52.535000000000004 14.316 52.687000000000005 14.9335 52.687000000000005 15.636500000000002 52.687000000000005 16.1875 52.573 16.6815 52.459 17.1755 52.364000000000004 17.4415 L46.36 17.4415 Q46.227000000000004 18.3345 46.379000000000005 18.971 46.531000000000006 19.6075 46.8825 20.0255 47.234 20.4435 47.747 20.6335 48.260000000000005 20.8235 48.868 20.8235 49.419000000000004 20.8235 49.9605 20.586 50.502 20.3485 50.939 20.0255 L51.509 20.9945 Q50.958000000000006 21.3935 50.198 21.688 49.438 21.9825 48.526 21.9825 46.873000000000005 21.9825 45.885000000000005 20.985 44.897000000000006 19.9875 44.897000000000006 18.1255 zM51.357 16.4535 Q51.395 16.2255 51.423500000000004 15.9975 51.452000000000005 15.7695 51.452000000000005 15.5035 51.452000000000005 15.104500000000002 51.357 14.734 51.262 14.3635 51.053000000000004 14.0785 50.844 13.793500000000002 50.502 13.6225 50.160000000000004 13.451500000000001 49.666000000000004 13.451500000000001 49.153000000000006 13.451500000000001 48.6685 13.6605 48.184000000000005 13.8695 47.766000000000005 14.2685 47.348 14.6675 47.0155 15.2185 46.683 15.7695 46.512 16.4535 L51.357 16.4535 z" /><path d="M58.291999999999994 18.9615 Q58.842999999999996 19.7975 59.650499999999994 20.263 60.45799999999999 20.7285 61.50299999999999 20.7285 62.07299999999999 20.7285 62.56699999999999 20.5575 63.06099999999999 20.3865 63.412499999999994 20.0825 63.763999999999996 19.7785 63.97299999999999 19.3415 64.18199999999999 18.9045 64.18199999999999 18.3725 64.18199999999999 17.6885 63.75449999999999 17.223 63.327 16.7575 62.623999999999995 16.3205 L61.17999999999999 15.4465 Q60.38199999999999 14.9525 59.82149999999999 14.2685 59.260999999999996 13.5845 59.260999999999996 12.5205 59.260999999999996 11.8175 59.555499999999995 11.1905 59.849999999999994 10.563500000000001 60.36299999999999 10.0885 60.876 9.6135 61.588499999999996 9.338000000000001 62.300999999999995 9.0625 63.13699999999999 9.0625 64.258 9.0625 65.16999999999999 9.5565 66.082 10.050500000000001 66.67099999999999 10.810500000000001 L65.702 11.6845 Q65.208 11.1145 64.5525 10.725 63.89699999999999 10.3355 63.022999999999996 10.3355 62.49099999999999 10.3355 62.07299999999999 10.5065 61.654999999999994 10.6775 61.360499999999995 10.9625 61.065999999999995 11.2475 60.913999999999994 11.608500000000001 60.76199999999999 11.9695 60.76199999999999 12.3495 60.76199999999999 13.0715 61.22749999999999 13.518 61.693 13.964500000000001 62.376999999999995 14.3825 L63.821 15.2375 Q64.73299999999999 15.7695 65.2175 16.444 65.702 17.1185 65.702 18.1635 65.702 18.9995 65.37899999999999 19.7025 65.056 20.4055 64.48599999999999 20.909 63.916 21.4125 63.117999999999995 21.6975 62.31999999999999 21.9825 61.37 21.9825 60.077999999999996 21.9825 59.02349999999999 21.441 57.968999999999994 20.8995 57.208999999999996 19.7785 L58.291999999999994 18.9615 z" /><path d="M67.336 18.6385 Q67.336 17.308500000000002 67.754 16.1495 68.172 14.9905 68.875 14.1355 69.578 13.2805 70.471 12.7865 71.364 12.2925 72.333 12.2925 73.074 12.2925 73.6535 12.672500000000001 74.233 13.0525 74.556 13.6795 L74.632 13.6795 74.993 12.5205 76.17099999999999 12.5205 74.328 21.7545 73.131 21.7545 73.283 20.3865 73.207 20.3865 Q72.542 21.1085 71.706 21.5455 70.87 21.9825 69.996 21.9825 68.78 21.9825 68.05799999999999 21.1275 67.336 20.2725 67.336 18.6385 zM70.52799999999999 20.7665 Q71.25 20.7665 72.0005 20.339 72.751 19.9115 73.435 18.9995 L74.271 14.8765 Q73.872 14.1545 73.39699999999999 13.8315 72.922 13.5085 72.39 13.5085 71.706 13.5085 71.06 13.917000000000002 70.414 14.325500000000002 69.92 15.0095 69.426 15.6935 69.1315 16.576999999999998 68.837 17.4605 68.837 18.4105 68.837 19.6075 69.29299999999999 20.187 69.749 20.7665 70.52799999999999 20.7665 z" /><path d="M79.211 12.5205 L80.408 12.5205 80.275 13.9075 80.351 13.9075 Q81.149 13.2235 81.928 12.758000000000001 82.70700000000001 12.2925 83.581 12.2925 84.759 12.2925 85.2625 12.900500000000001 85.766 13.5085 85.766 14.5915 85.766 14.9145 85.7375 15.1995 85.709 15.4845 85.614 15.8645 L84.436 21.7545 82.992 21.7545 84.132 16.0545 Q84.208 15.6745 84.246 15.4465 84.284 15.2185 84.284 14.9715 84.284 14.2685 83.961 13.9075 83.638 13.5465 82.916 13.5465 82.36500000000001 13.5465 81.6905 13.9455 81.016 14.3445 80.142 15.2185 L78.831 21.7545 77.387 21.7545 79.211 12.5205 z" /><path d="M87.609 19.5125 Q88.04599999999999 20.1205 88.654 20.491 89.262 20.8615 89.984 20.8615 90.383 20.8615 90.7345 20.738 91.086 20.6145 91.36149999999999 20.4055 91.637 20.1965 91.789 19.921 91.941 19.6455 91.941 19.3225 91.941 19.0755 91.85549999999999 18.866500000000002 91.77 18.6575 91.58 18.458 91.39 18.2585 91.05749999999999 18.049500000000002 90.725 17.8405 90.25 17.5745 89.167 16.985500000000002 88.654 16.4155 88.14099999999999 15.845500000000001 88.14099999999999 15.0475 88.14099999999999 14.4395 88.3975 13.9265 88.654 13.4135 89.08149999999999 13.0525 89.509 12.6915 90.0885 12.492 90.66799999999999 12.2925 91.314 12.2925 92.169 12.2925 92.84349999999999 12.634500000000001 93.518 12.9765 94.03099999999999 13.5275 L93.195 14.3445 Q92.815 13.964500000000001 92.359 13.698500000000001 91.90299999999999 13.432500000000001 91.276 13.432500000000001 90.535 13.432500000000001 90.0315 13.86 89.52799999999999 14.287500000000001 89.52799999999999 14.8765 89.52799999999999 15.1615 89.661 15.3895 89.794 15.6175 90.02199999999999 15.807500000000001 90.25 15.9975 90.5445 16.1685 90.839 16.3395 91.16199999999999 16.5105 91.789 16.8525 92.19749999999999 17.166 92.606 17.4795 92.8625 17.793 93.119 18.1065 93.2235 18.4295 93.328 18.7525 93.328 19.1325 93.328 19.7785 93.0715 20.3105 92.815 20.8425 92.34949999999999 21.213 91.884 21.5835 91.2475 21.783 90.61099999999999 21.9825 89.86999999999999 21.9825 89.414 21.9825 88.9485 21.8495 88.48299999999999 21.7165 88.0555 21.479 87.628 21.2415 87.2765 20.9185 86.925 20.5955 86.697 20.2345 L87.609 19.5125 z" /><path d="M101.213 9.2905 L104.728 9.2905 Q105.602 9.2905 106.324 9.461500000000001 107.04599999999999 9.6325 107.559 10.003 108.072 10.3735 108.357 10.9435 108.642 11.5135 108.642 12.3305 108.642 13.470500000000001 108.23349999999999 14.3065 107.825 15.1425 107.103 15.684000000000001 106.381 16.2255 105.3835 16.482 104.386 16.738500000000002 103.189 16.738500000000002 L101.194 16.738500000000002 100.206 21.7545 98.724 21.7545 101.213 9.2905 zM103.246 15.5415 Q105.184 15.5415 106.1815 14.781500000000001 107.179 14.0215 107.179 12.5205 107.179 11.4375 106.457 10.953000000000001 105.735 10.4685 104.36699999999999 10.4685 L102.448 10.4685 101.441 15.5415 103.246 15.5415 z" /><path d="M110.922 12.5205 L112.119 12.5205 111.91 14.287500000000001 111.986 14.287500000000001 Q112.537 13.432500000000001 113.2685 12.8625 114 12.2925 114.855 12.2925 115.33 12.2925 115.729 12.4635 L115.216 13.755500000000001 Q114.912 13.6035 114.418 13.6035 113.734 13.6035 113.012 14.1925 112.29 14.781500000000001 111.701 15.9215 L110.542 21.7545 109.098 21.7545 110.922 12.5205 z" /><path d="M119.03500000000001 21.9825 Q117.534 21.9825 116.641 20.9945 115.748 20.0065 115.748 18.2775 115.748 16.9665 116.16600000000001 15.8645 116.584 14.7625 117.287 13.974 117.99000000000001 13.185500000000001 118.88300000000001 12.739 119.77600000000001 12.2925 120.726 12.2925 122.227 12.2925 123.12950000000001 13.2805 124.03200000000001 14.2685 124.03200000000001 15.9975 124.03200000000001 17.308500000000002 123.6045 18.4105 123.177 19.5125 122.4835 20.301000000000002 121.79 21.0895 120.8875 21.536 119.985 21.9825 119.03500000000001 21.9825 zM120.57400000000001 13.4895 Q119.947 13.4895 119.339 13.86 118.73100000000001 14.2305 118.256 14.867 117.781 15.5035 117.49600000000001 16.3585 117.211 17.2135 117.211 18.1825 117.211 19.4365 117.7145 20.1015 118.218 20.7665 119.18700000000001 20.7665 119.833 20.7665 120.4315 20.396 121.03 20.0255 121.50500000000001 19.3985 121.98 18.7715 122.265 17.9165 122.55000000000001 17.061500000000002 122.55000000000001 16.0925 122.55000000000001 14.8385 122.04650000000001 14.164000000000001 121.543 13.4895 120.57400000000001 13.4895 z" /><path d="M131.594 9.2905 L133.076 9.2905 130.587 21.7545 129.105 21.7545 131.594 9.2905 z" /><path d="M135.717 13.698500000000001 L134.368 13.698500000000001 134.577 12.6155 136.02100000000002 12.5205 136.705 9.9745 137.94 9.9745 137.42700000000002 12.5205 139.764 12.5205 139.536 13.698500000000001 137.161 13.698500000000001 136.078 18.9805 Q136.02100000000002 19.3225 136.02100000000002 19.6645 136.02100000000002 20.2345 136.2775 20.5195 136.53400000000002 20.8045 137.199 20.8045 137.465 20.8045 137.71200000000002 20.7095 137.959 20.6145 138.168 20.5195 L138.491 21.5645 Q138.168 21.7165 137.731 21.8495 137.294 21.9825 136.743 21.9825 136.13500000000002 21.9825 135.717 21.821 135.299 21.6595 135.03300000000002 21.384 134.767 21.1085 134.65300000000002 20.738 134.53900000000002 20.3675 134.53900000000002 19.930500000000002 134.53900000000002 19.6455 134.5675 19.408 134.596 19.1705 134.63400000000001 18.9045 L135.717 13.698500000000001 z" /><path d="M140.14400000000003 18.6385 Q140.14400000000003 17.308500000000002 140.562 16.1495 140.98000000000002 14.9905 141.68300000000002 14.1355 142.38600000000002 13.2805 143.27900000000002 12.7865 144.17200000000003 12.2925 145.14100000000002 12.2925 145.88200000000003 12.2925 146.46150000000003 12.672500000000001 147.04100000000003 13.0525 147.36400000000003 13.6795 L147.44000000000003 13.6795 147.80100000000002 12.5205 148.979 12.5205 147.13600000000002 21.7545 145.93900000000002 21.7545 146.091 20.3865 146.01500000000001 20.3865 Q145.35000000000002 21.1085 144.514 21.5455 143.67800000000003 21.9825 142.80400000000003 21.9825 141.58800000000002 21.9825 140.866 21.1275 140.14400000000003 20.2725 140.14400000000003 18.6385 zM143.336 20.7665 Q144.05800000000002 20.7665 144.8085 20.339 145.55900000000003 19.9115 146.24300000000002 18.9995 L147.079 14.8765 Q146.68 14.1545 146.205 13.8315 145.73000000000002 13.5085 145.198 13.5085 144.514 13.5085 143.86800000000002 13.917000000000002 143.222 14.325500000000002 142.728 15.0095 142.234 15.6935 141.9395 16.576999999999998 141.645 17.4605 141.645 18.4105 141.645 19.6075 142.10100000000003 20.187 142.55700000000002 20.7665 143.336 20.7665 z" /><path d="M152.89300000000003 8.2265 L154.35600000000002 8.2265 151.98100000000002 20.0635 Q151.943 20.2155 151.943 20.2915 151.943 20.3675 151.943 20.424500000000002 151.943 20.7665 152.26600000000002 20.7665 152.32300000000004 20.7665 152.38000000000002 20.757 152.437 20.7475 152.57000000000002 20.7095 L152.58900000000003 21.8305 Q152.39900000000003 21.9065 152.19000000000003 21.9445 151.98100000000002 21.9825 151.67700000000002 21.9825 151.06900000000002 21.9825 150.7555 21.669 150.44200000000004 21.3555 150.44200000000004 20.7855 150.44200000000004 20.4815 150.556 19.9875 L152.89300000000003 8.2265 z" /><path d="M156.75 12.5205 L158.21300000000002 12.5205 156.351 21.7545 154.907 21.7545 156.75 12.5205 zM157.985 10.6015 Q157.60500000000002 10.6015 157.32950000000002 10.383000000000001 157.054 10.1645 157.054 9.746500000000001 157.054 9.2715 157.3865 8.958 157.71900000000002 8.6445 158.156 8.6445 158.536 8.6445 158.81150000000002 8.8725 159.08700000000002 9.1005 159.08700000000002 9.518500000000001 159.08700000000002 9.993500000000001 158.7545 10.297500000000001 158.42200000000003 10.6015 157.985 10.6015 z" /><path d="M159.52400000000003 18.2775 Q159.52400000000003 16.985500000000002 159.95150000000004 15.893 160.37900000000002 14.8005 161.09150000000002 14.002500000000001 161.80400000000003 13.204500000000001 162.735 12.7485 163.66600000000003 12.2925 164.67300000000003 12.2925 165.50900000000001 12.2925 166.07900000000004 12.6155 166.64900000000003 12.938500000000001 167.06700000000004 13.4135 L166.21200000000002 14.325500000000002 Q165.85100000000003 13.8885 165.49000000000004 13.689 165.12900000000002 13.4895 164.57800000000003 13.4895 163.89400000000003 13.4895 163.24800000000002 13.8695 162.60200000000003 14.249500000000001 162.09850000000003 14.886 161.59500000000003 15.5225 161.30050000000003 16.3775 161.00600000000003 17.2325 161.00600000000003 18.1825 161.00600000000003 19.4365 161.5475 20.1015 162.08900000000003 20.7665 163.19100000000003 20.7665 163.79900000000004 20.7665 164.30250000000004 20.5195 164.80600000000004 20.2725 165.24300000000002 19.9495 L165.88900000000004 20.8995 Q165.39500000000004 21.2795 164.67300000000003 21.631 163.95100000000002 21.9825 162.92500000000004 21.9825 161.40500000000003 21.9825 160.46450000000002 21.023 159.52400000000003 20.0635 159.52400000000003 18.2775 z" /></g></svg>