<svg width="170" height="30" xmlns="http://www.w3.org/2000/svg" viewBox="0 0 170 30"><g fill="currentColor"><path d="M1.1179999999999999 17.4505 Q1.4949999999999999 17.9705 2.015 18.276 2.5349999999999997 18.581500000000002 3.159 18.581500000000002 3.8219999999999996 18.581500000000002 4.2509999999999994 18.237000000000002 4.68 17.892500000000002 4.68 17.2945 4.68 16.8915 4.4005 16.625 4.1209999999999996 16.3585 3.653 16.0725 L2.756 15.526500000000002 Q2.197 15.188500000000001 1.833 14.701 1.4689999999999999 14.213500000000002 1.4689999999999999 13.459500000000002 1.4689999999999999 12.9525 1.6835 12.497500000000002 1.898 12.0425 2.2815 11.698 2.665 11.353500000000002 3.1784999999999997 11.158500000000002 3.6919999999999997 10.963500000000002 4.29 10.963500000000002 5.0569999999999995 10.963500000000002 5.694 11.308000000000002 6.3309999999999995 11.652500000000002 6.786 12.211500000000001 L5.888999999999999 13.030500000000002 Q5.564 12.666500000000001 5.1545 12.419500000000001 4.745 12.172500000000001 4.212 12.172500000000001 3.5879999999999996 12.172500000000001 3.25 12.523500000000002 2.912 12.874500000000001 2.912 13.316500000000001 2.912 13.732500000000002 3.2045 13.986 3.497 14.239500000000001 3.9909999999999997 14.5385 L4.901 15.084500000000002 Q5.5249999999999995 15.448500000000001 5.8305 15.903500000000001 6.136 16.3585 6.136 17.099500000000003 6.136 17.6715 5.915 18.159000000000002 5.694 18.6465 5.2844999999999995 19.0105 4.875 19.3745 4.303 19.576 3.731 19.7775 3.042 19.7775 2.1839999999999997 19.7775 1.4364999999999999 19.413500000000003 0.689 19.049500000000002 0.104 18.2305 L1.1179999999999999 17.4505 z" /><path d="M9.555 19.7775 Q9.022 19.7775 8.58 19.5955 8.138 19.413500000000003 7.826 19.0755 7.514 18.7375 7.345 18.256500000000003 7.176 17.7755 7.176 17.177500000000002 7.176 16.267500000000002 7.4815 15.507000000000001 7.787 14.746500000000001 8.281 14.213500000000002 8.775 13.680500000000002 9.4055 13.381500000000003 10.036 13.082500000000001 10.686 13.082500000000001 11.777999999999999 13.082500000000001 12.428 13.778000000000002 13.078 14.473500000000001 13.078 15.682500000000001 13.078 16.5925 12.7725 17.346500000000002 12.466999999999999 18.1005 11.972999999999999 18.64 11.479 19.1795 10.8485 19.4785 10.218 19.7775 9.555 19.7775 zM10.543 14.213500000000002 Q10.166 14.213500000000002 9.8085 14.441000000000003 9.451 14.668500000000002 9.178 15.058500000000002 8.905 15.448500000000001 8.7425 15.9815 8.58 16.5145 8.58 17.125500000000002 8.58 17.8535 8.866 18.25 9.152 18.6465 9.711 18.6465 10.088 18.6465 10.439 18.419 10.79 18.1915 11.062999999999999 17.795 11.335999999999999 17.398500000000002 11.4985 16.8655 11.661 16.332500000000003 11.661 15.7215 11.661 14.993500000000001 11.375 14.6035 11.088999999999999 14.213500000000002 10.543 14.213500000000002 z" /><path d="M18.941 19.6215 L17.81 19.6215 17.862 18.7115 17.81 18.7115 Q17.329 19.1405 16.796 19.459 16.262999999999998 19.7775 15.677999999999999 19.7775 14.872 19.7775 14.5145 19.355 14.157 18.9325 14.157 18.1655 14.157 17.9445 14.183 17.73 14.209 17.515500000000003 14.261 17.268500000000003 L15.067 13.238500000000002 16.458 13.238500000000002 15.690999999999999 17.0865 Q15.639 17.3075 15.613 17.4635 15.587 17.619500000000002 15.587 17.762500000000003 15.587 18.581500000000002 16.38 18.581500000000002 17.017 18.581500000000002 17.953 17.593500000000002 L18.811 13.238500000000002 20.201999999999998 13.238500000000002 18.941 19.6215 z" /><path d="M22.087 13.238500000000002 L23.218 13.238500000000002 23.101 14.473500000000001 23.153000000000002 14.473500000000001 Q23.53 13.875500000000002 24.037 13.479000000000001 24.544 13.082500000000001 25.129 13.082500000000001 25.506 13.082500000000001 25.766000000000002 13.1995 L25.298000000000002 14.421500000000002 Q25.181 14.3565 25.025000000000002 14.337000000000002 24.869 14.317500000000003 24.700000000000003 14.317500000000003 24.245 14.317500000000003 23.803 14.668500000000002 23.361 15.0195 22.971 15.7605 L22.217000000000002 19.6215 20.813000000000002 19.6215 22.087 13.238500000000002 z" /><path d="M25.675 17.177500000000002 Q25.675 16.3195 25.9675 15.572000000000001 26.26 14.8245 26.7605 14.272000000000002 27.261000000000003 13.7195 27.930500000000002 13.401000000000002 28.6 13.082500000000001 29.341 13.082500000000001 29.926000000000002 13.082500000000001 30.342000000000002 13.316500000000001 30.758000000000003 13.550500000000001 31.018 13.8625 L30.238000000000003 14.707500000000001 Q30.017000000000003 14.447500000000002 29.796000000000003 14.3305 29.575000000000003 14.213500000000002 29.25 14.213500000000002 28.821 14.213500000000002 28.431 14.447500000000002 28.041000000000004 14.681500000000002 27.748500000000003 15.078000000000001 27.456000000000003 15.4745 27.280500000000004 16.001 27.105000000000004 16.5275 27.105000000000004 17.125500000000002 27.105000000000004 17.8535 27.4235 18.25 27.742 18.6465 28.392000000000003 18.6465 28.769000000000002 18.6465 29.061500000000002 18.497 29.354000000000003 18.3475 29.601000000000003 18.1525 L30.199 19.0365 Q29.835 19.2965 29.334500000000002 19.537000000000003 28.834000000000003 19.7775 28.106 19.7775 27.573 19.7775 27.131000000000004 19.602 26.689000000000004 19.4265 26.364 19.095000000000002 26.039 18.7635 25.857000000000003 18.282500000000002 25.675 17.8015 25.675 17.177500000000002 z" /><path d="M31.382 17.073500000000003 Q31.382 16.1765 31.687500000000004 15.442 31.993000000000002 14.707500000000001 32.493500000000004 14.181000000000001 32.994 13.654500000000002 33.618 13.368500000000001 34.242000000000004 13.082500000000001 34.866 13.082500000000001 35.425000000000004 13.082500000000001 35.8085 13.264500000000002 36.192 13.4465 36.432500000000005 13.765 36.673 14.0835 36.783500000000004 14.512500000000001 36.894000000000005 14.941500000000001 36.894000000000005 15.435500000000001 36.894000000000005 15.851500000000001 36.790000000000006 16.241500000000002 36.686 16.631500000000003 36.621 16.7875 L32.734 16.7875 Q32.682 17.2945 32.786 17.6585 32.89 18.0225 33.1045 18.256500000000003 33.319 18.4905 33.631 18.601000000000003 33.943000000000005 18.7115 34.307 18.7115 34.645 18.7115 34.996 18.555500000000002 35.347 18.3995 35.607 18.2045 L36.127 19.1015 Q35.737 19.3745 35.1845 19.576 34.632000000000005 19.7775 33.943000000000005 19.7775 33.371 19.7775 32.903000000000006 19.5955 32.435 19.413500000000003 32.097 19.069000000000003 31.759000000000004 18.724500000000003 31.570500000000003 18.224 31.382 17.7235 31.382 17.073500000000003 zM35.672000000000004 15.903500000000001 Q35.698 15.773500000000002 35.7175 15.637 35.737 15.500500000000002 35.737 15.3445 35.737 14.8765 35.5095 14.519000000000002 35.282000000000004 14.1615 34.697 14.1615 34.112 14.1615 33.5985 14.623000000000001 33.085 15.084500000000002 32.851000000000006 15.903500000000001 L35.672000000000004 15.903500000000001 z" /><path d="M40.95 17.4505 Q41.327 17.9705 41.847 18.276 42.367 18.581500000000002 42.991 18.581500000000002 43.654 18.581500000000002 44.083 18.237000000000002 44.512 17.892500000000002 44.512 17.2945 44.512 16.8915 44.2325 16.625 43.953 16.3585 43.485 16.0725 L42.588 15.526500000000002 Q42.029 15.188500000000001 41.665 14.701 41.301 14.213500000000002 41.301 13.459500000000002 41.301 12.9525 41.5155 12.497500000000002 41.730000000000004 12.0425 42.1135 11.698 42.497 11.353500000000002 43.0105 11.158500000000002 43.524 10.963500000000002 44.122 10.963500000000002 44.889 10.963500000000002 45.526 11.308000000000002 46.163 11.652500000000002 46.618 12.211500000000001 L45.721000000000004 13.030500000000002 Q45.396 12.666500000000001 44.9865 12.419500000000001 44.577 12.172500000000001 44.044 12.172500000000001 43.42 12.172500000000001 43.082 12.523500000000002 42.744 12.874500000000001 42.744 13.316500000000001 42.744 13.732500000000002 43.036500000000004 13.986 43.329 14.239500000000001 43.823 14.5385 L44.733000000000004 15.084500000000002 Q45.357 15.448500000000001 45.6625 15.903500000000001 45.968 16.3585 45.968 17.099500000000003 45.968 17.6715 45.747 18.159000000000002 45.526 18.6465 45.1165 19.0105 44.707 19.3745 44.135 19.576 43.563 19.7775 42.874 19.7775 42.016 19.7775 41.2685 19.413500000000003 40.521 19.049500000000002 39.936 18.2305 L40.95 17.4505 z" /><path d="M47.021 17.4505 Q47.021 16.5405 47.307 15.741000000000001 47.593 14.941500000000001 48.074000000000005 14.350000000000001 48.555 13.758500000000002 49.1725 13.4205 49.79 13.082500000000001 50.453 13.082500000000001 50.921 13.082500000000001 51.311 13.323 51.701 13.563500000000001 51.922000000000004 13.979500000000002 L51.948 13.979500000000002 52.221000000000004 13.238500000000002 53.339 13.238500000000002 52.065000000000005 19.6215 50.921 19.6215 50.986000000000004 18.7375 50.947 18.7375 Q50.492000000000004 19.2055 49.9395 19.491500000000002 49.387 19.7775 48.841 19.7775 47.996 19.7775 47.508500000000005 19.1795 47.021 18.581500000000002 47.021 17.4505 zM49.413000000000004 18.6335 Q49.829 18.6335 50.264500000000005 18.3865 50.7 18.1395 51.09 17.5545 L51.61 15.0065 Q51.389 14.590500000000002 51.109500000000004 14.4085 50.830000000000005 14.226500000000001 50.531000000000006 14.226500000000001 50.128 14.226500000000001 49.751000000000005 14.467000000000002 49.374 14.707500000000001 49.088 15.1235 48.802 15.5395 48.633 16.092000000000002 48.464000000000006 16.6445 48.464000000000006 17.2555 48.464000000000006 17.9575 48.7175 18.2955 48.971000000000004 18.6335 49.413000000000004 18.6335 z" /><path d="M55.19800000000001 13.238500000000002 L56.32900000000001 13.238500000000002 56.264 14.1355 56.316 14.1355 Q56.82300000000001 13.706500000000002 57.362500000000004 13.3945 57.90200000000001 13.082500000000001 58.513000000000005 13.082500000000001 59.319 13.082500000000001 59.67 13.498500000000002 60.02100000000001 13.9145 60.02100000000001 14.694500000000001 60.02100000000001 14.915500000000002 60.00150000000001 15.1235 59.982000000000006 15.331500000000002 59.917 15.5915 L59.111000000000004 19.6215 57.720000000000006 19.6215 58.50000000000001 15.773500000000002 Q58.539 15.552500000000002 58.57150000000001 15.396500000000001 58.604000000000006 15.2405 58.604000000000006 15.0975 58.604000000000006 14.278500000000001 57.798 14.278500000000001 57.46000000000001 14.278500000000001 57.0765 14.512500000000001 56.693000000000005 14.746500000000001 56.18600000000001 15.2665 L55.328 19.6215 53.92400000000001 19.6215 55.19800000000001 13.238500000000002 z" /><path d="M61.399 17.8795 Q61.711000000000006 18.2955 62.094500000000004 18.5165 62.478 18.7375 62.907000000000004 18.7375 63.362 18.7375 63.6935 18.497 64.025 18.256500000000003 64.025 17.9055 64.025 17.6065 63.752 17.392000000000003 63.479000000000006 17.177500000000002 62.881 16.8395 62.244 16.488500000000002 61.88 16.0725 61.516000000000005 15.656500000000001 61.516000000000005 15.0715 61.516000000000005 14.642500000000002 61.698 14.272000000000002 61.88 13.901500000000002 62.1985 13.6415 62.517 13.381500000000003 62.9395 13.232000000000001 63.362 13.082500000000001 63.843 13.082500000000001 64.467 13.082500000000001 64.9675 13.342500000000001 65.468 13.602500000000001 65.845 13.992500000000001 L65.065 14.733500000000001 Q64.818 14.486500000000001 64.519 14.311000000000002 64.22 14.1355 63.843 14.1355 63.401 14.1355 63.115 14.369500000000002 62.829 14.6035 62.829 14.941500000000001 62.829 15.1235 62.92 15.253500000000003 63.011 15.383500000000002 63.167 15.500500000000002 63.323 15.617500000000001 63.518 15.7215 63.713 15.825500000000002 63.92100000000001 15.9425 64.636 16.3195 64.98700000000001 16.735500000000002 65.33800000000001 17.151500000000002 65.33800000000001 17.7365 65.33800000000001 18.2045 65.1495 18.581500000000002 64.961 18.9585 64.623 19.225 64.285 19.491500000000002 63.817 19.634500000000003 63.349000000000004 19.7775 62.803000000000004 19.7775 62.504000000000005 19.7775 62.185500000000005 19.686500000000002 61.867000000000004 19.5955 61.568000000000005 19.439500000000002 61.269000000000005 19.2835 61.009 19.056 60.749 18.828500000000002 60.567 18.555500000000002 L61.399 17.8795 z" /><path d="M70.655 11.119500000000002 L73.203 11.119500000000002 Q73.81400000000001 11.119500000000002 74.3275 11.236500000000001 74.84100000000001 11.353500000000002 75.2115 11.620000000000001 75.58200000000001 11.886500000000002 75.79 12.296000000000001 75.998 12.7055 75.998 13.290500000000002 75.998 14.122500000000002 75.7055 14.720500000000001 75.41300000000001 15.3185 74.8995 15.695500000000001 74.38600000000001 16.0725 73.68400000000001 16.2545 72.982 16.436500000000002 72.176 16.436500000000002 L70.99300000000001 16.436500000000002 70.369 19.6215 68.965 19.6215 70.655 11.119500000000002 zM72.293 15.3185 Q73.424 15.3185 74.0155 14.857000000000001 74.607 14.395500000000002 74.607 13.485500000000002 74.607 12.822500000000002 74.17800000000001 12.530000000000001 73.74900000000001 12.2375 72.94300000000001 12.2375 L71.825 12.2375 71.227 15.3185 72.293 15.3185 z" /><path d="M77.48 13.238500000000002 L78.611 13.238500000000002 78.494 14.473500000000001 78.546 14.473500000000001 Q78.923 13.875500000000002 79.43 13.479000000000001 79.937 13.082500000000001 80.522 13.082500000000001 80.899 13.082500000000001 81.159 13.1995 L80.691 14.421500000000002 Q80.574 14.3565 80.418 14.337000000000002 80.262 14.317500000000003 80.093 14.317500000000003 79.638 14.317500000000003 79.196 14.668500000000002 78.754 15.0195 78.364 15.7605 L77.61 19.6215 76.206 19.6215 77.48 13.238500000000002 z" /><path d="M83.46 19.7775 Q82.92699999999999 19.7775 82.485 19.5955 82.04299999999999 19.413500000000003 81.731 19.0755 81.419 18.7375 81.25 18.256500000000003 81.08099999999999 17.7755 81.08099999999999 17.177500000000002 81.08099999999999 16.267500000000002 81.3865 15.507000000000001 81.692 14.746500000000001 82.18599999999999 14.213500000000002 82.67999999999999 13.680500000000002 83.31049999999999 13.381500000000003 83.941 13.082500000000001 84.591 13.082500000000001 85.68299999999999 13.082500000000001 86.333 13.778000000000002 86.98299999999999 14.473500000000001 86.98299999999999 15.682500000000001 86.98299999999999 16.5925 86.6775 17.346500000000002 86.372 18.1005 85.878 18.64 85.384 19.1795 84.7535 19.4785 84.12299999999999 19.7775 83.46 19.7775 zM84.448 14.213500000000002 Q84.071 14.213500000000002 83.7135 14.441000000000003 83.356 14.668500000000002 83.083 15.058500000000002 82.81 15.448500000000001 82.6475 15.9815 82.485 16.5145 82.485 17.125500000000002 82.485 17.8535 82.771 18.25 83.057 18.6465 83.616 18.6465 83.993 18.6465 84.344 18.419 84.695 18.1915 84.96799999999999 17.795 85.241 17.398500000000002 85.4035 16.8655 85.566 16.332500000000003 85.566 15.7215 85.566 14.993500000000001 85.28 14.6035 84.994 14.213500000000002 84.448 14.213500000000002 z" /><path d="M91.10399999999998 17.4505 Q91.481 17.9705 92.00099999999999 18.276 92.52099999999999 18.581500000000002 93.145 18.581500000000002 93.80799999999999 18.581500000000002 94.237 18.237000000000002 94.666 17.892500000000002 94.666 17.2945 94.666 16.8915 94.38649999999998 16.625 94.10699999999999 16.3585 93.639 16.0725 L92.74199999999999 15.526500000000002 Q92.18299999999999 15.188500000000001 91.81899999999999 14.701 91.45499999999998 14.213500000000002 91.45499999999998 13.459500000000002 91.45499999999998 12.9525 91.66949999999999 12.497500000000002 91.88399999999999 12.0425 92.26749999999998 11.698 92.651 11.353500000000002 93.16449999999999 11.158500000000002 93.67799999999998 10.963500000000002 94.276 10.963500000000002 95.04299999999999 10.963500000000002 95.67999999999999 11.308000000000002 96.317 11.652500000000002 96.77199999999999 12.211500000000001 L95.87499999999999 13.030500000000002 Q95.54999999999998 12.666500000000001 95.14049999999999 12.419500000000001 94.731 12.172500000000001 94.198 12.172500000000001 93.57399999999998 12.172500000000001 93.23599999999999 12.523500000000002 92.898 12.874500000000001 92.898 13.316500000000001 92.898 13.732500000000002 93.19049999999999 13.986 93.48299999999999 14.239500000000001 93.97699999999999 14.5385 L94.88699999999999 15.084500000000002 Q95.511 15.448500000000001 95.81649999999999 15.903500000000001 96.12199999999999 16.3585 96.12199999999999 17.099500000000003 96.12199999999999 17.6715 95.901 18.159000000000002 95.67999999999999 18.6465 95.27049999999998 19.0105 94.86099999999999 19.3745 94.28899999999999 19.576 93.71699999999998 19.7775 93.02799999999999 19.7775 92.16999999999999 19.7775 91.42249999999999 19.413500000000003 90.67499999999998 19.049500000000002 90.08999999999999 18.2305 L91.10399999999998 17.4505 z" /><path d="M97.14899999999999 17.073500000000003 Q97.14899999999999 16.1765 97.45449999999998 15.442 97.75999999999999 14.707500000000001 98.26049999999998 14.181000000000001 98.76099999999998 13.654500000000002 99.38499999999999 13.368500000000001 100.00899999999999 13.082500000000001 100.63299999999998 13.082500000000001 101.19199999999998 13.082500000000001 101.57549999999999 13.264500000000002 101.95899999999999 13.4465 102.19949999999999 13.765 102.43999999999998 14.0835 102.55049999999999 14.512500000000001 102.66099999999999 14.941500000000001 102.66099999999999 15.435500000000001 102.66099999999999 15.851500000000001 102.55699999999999 16.241500000000002 102.45299999999999 16.631500000000003 102.38799999999999 16.7875 L98.50099999999999 16.7875 Q98.44899999999998 17.2945 98.55299999999998 17.6585 98.65699999999998 18.0225 98.87149999999998 18.256500000000003 99.08599999999998 18.4905 99.39799999999998 18.601000000000003 99.70999999999998 18.7115 100.07399999999998 18.7115 100.41199999999998 18.7115 100.76299999999999 18.555500000000002 101.11399999999999 18.3995 101.37399999999998 18.2045 L101.89399999999998 19.1015 Q101.50399999999999 19.3745 100.95149999999998 19.576 100.39899999999999 19.7775 99.70999999999998 19.7775 99.13799999999999 19.7775 98.66999999999999 19.5955 98.20199999999998 19.413500000000003 97.86399999999999 19.069000000000003 97.52599999999998 18.724500000000003 97.33749999999999 18.224 97.14899999999999 17.7235 97.14899999999999 17.073500000000003 zM101.43899999999998 15.903500000000001 Q101.46499999999999 15.773500000000002 101.48449999999998 15.637 101.50399999999999 15.500500000000002 101.50399999999999 15.3445 101.50399999999999 14.8765 101.27649999999998 14.519000000000002 101.04899999999998 14.1615 100.46399999999998 14.1615 99.87899999999999 14.1615 99.36549999999998 14.623000000000001 98.85199999999999 15.084500000000002 98.61799999999998 15.903500000000001 L101.43899999999998 15.903500000000001 z" /><path d="M104.62399999999998 13.238500000000002 L105.75499999999998 13.238500000000002 105.68999999999998 14.1355 105.74199999999998 14.1355 Q106.23599999999998 13.706500000000002 106.76899999999998 13.3945 107.30199999999998 13.082500000000001 107.82199999999997 13.082500000000001 108.18599999999998 13.082500000000001 108.44599999999998 13.1735 108.70599999999997 13.264500000000002 108.88149999999997 13.4205 109.05699999999997 13.576500000000001 109.15449999999998 13.791 109.25199999999998 14.005500000000001 109.30399999999997 14.265500000000001 109.87599999999998 13.7195 110.43499999999997 13.401000000000002 110.99399999999997 13.082500000000001 111.51399999999998 13.082500000000001 112.30699999999997 13.082500000000001 112.66449999999998 13.498500000000002 113.02199999999998 13.9145 113.02199999999998 14.694500000000001 113.02199999999998 14.915500000000002 112.99599999999998 15.1235 112.96999999999997 15.331500000000002 112.91799999999998 15.5915 L112.11199999999998 19.6215 110.70799999999998 19.6215 111.48799999999997 15.773500000000002 Q111.53999999999998 15.552500000000002 111.56599999999997 15.396500000000001 111.59199999999998 15.2405 111.59199999999998 15.0975 111.59199999999998 14.278500000000001 110.81199999999998 14.278500000000001 110.56499999999998 14.278500000000001 110.17499999999998 14.512500000000001 109.78499999999998 14.746500000000001 109.29099999999998 15.2665 L108.41999999999997 19.6215 107.02899999999998 19.6215 107.79599999999998 15.773500000000002 Q107.84799999999998 15.552500000000002 107.87399999999998 15.396500000000001 107.89999999999998 15.2405 107.89999999999998 15.0975 107.89999999999998 14.278500000000001 107.13299999999998 14.278500000000001 106.87299999999998 14.278500000000001 106.48299999999998 14.512500000000001 106.09299999999998 14.746500000000001 105.61199999999998 15.2665 L104.75399999999998 19.6215 103.34999999999998 19.6215 104.62399999999998 13.238500000000002 z" /><path d="M115.20599999999997 13.238500000000002 L116.59699999999998 13.238500000000002 115.32299999999998 19.6215 113.91899999999998 19.6215 115.20599999999997 13.238500000000002 zM116.23299999999998 12.107500000000002 Q115.93399999999998 12.107500000000002 115.68699999999998 11.919 115.43999999999998 11.730500000000001 115.43999999999998 11.379500000000002 115.43999999999998 11.002500000000001 115.71299999999998 10.736 115.98599999999998 10.469500000000002 116.37599999999998 10.469500000000002 116.67499999999998 10.469500000000002 116.92199999999998 10.658000000000001 117.16899999999998 10.8465 117.16899999999998 11.197500000000002 117.16899999999998 11.587500000000002 116.89599999999999 11.8475 116.62299999999998 12.107500000000002 116.23299999999998 12.107500000000002 z" /><path d="M117.18199999999999 19.6215 L119.02799999999999 10.443500000000002 120.41899999999998 10.443500000000002 119.96399999999998 12.7055 119.65199999999999 13.927500000000002 119.67799999999998 13.927500000000002 Q120.13299999999998 13.563500000000001 120.63999999999999 13.323 121.14699999999999 13.082500000000001 121.67999999999999 13.082500000000001 122.53799999999998 13.082500000000001 123.01899999999999 13.674000000000001 123.49999999999999 14.265500000000001 123.49999999999999 15.409500000000001 123.49999999999999 16.332500000000003 123.21399999999998 17.125500000000002 122.92799999999998 17.9185 122.44699999999999 18.51 121.96599999999998 19.1015 121.35499999999999 19.439500000000002 120.74399999999999 19.7775 120.08099999999999 19.7775 119.59999999999998 19.7775 119.22949999999999 19.537000000000003 118.85899999999998 19.2965 118.63799999999999 18.8805 L118.61199999999998 18.8805 118.33899999999998 19.6215 117.18199999999999 19.6215 zM121.10799999999999 14.226500000000001 Q120.73099999999998 14.226500000000001 120.28899999999999 14.454 119.84699999999998 14.681500000000002 119.48299999999999 15.149500000000002 L118.93699999999998 17.8535 Q119.14499999999998 18.2695 119.41799999999999 18.451500000000003 119.69099999999999 18.6335 119.98999999999998 18.6335 120.39299999999999 18.6335 120.76999999999998 18.393 121.14699999999999 18.1525 121.43299999999999 17.7365 121.71899999999998 17.320500000000003 121.8945 16.768 122.07 16.215500000000002 122.07 15.5915 122.07 14.889500000000002 121.80999999999999 14.558000000000002 121.54999999999998 14.226500000000001 121.10799999999999 14.226500000000001 z" /><path d="M126.80199999999998 19.7775 Q126.26899999999998 19.7775 125.82699999999998 19.5955 125.38499999999998 19.413500000000003 125.07299999999998 19.0755 124.76099999999998 18.7375 124.59199999999998 18.256500000000003 124.42299999999997 17.7755 124.42299999999997 17.177500000000002 124.42299999999997 16.267500000000002 124.72849999999998 15.507000000000001 125.03399999999998 14.746500000000001 125.52799999999998 14.213500000000002 126.02199999999998 13.680500000000002 126.65249999999997 13.381500000000003 127.28299999999999 13.082500000000001 127.93299999999998 13.082500000000001 129.02499999999998 13.082500000000001 129.67499999999998 13.778000000000002 130.325 14.473500000000001 130.325 15.682500000000001 130.325 16.5925 130.0195 17.346500000000002 129.71399999999997 18.1005 129.21999999999997 18.64 128.72599999999997 19.1795 128.0955 19.4785 127.46499999999997 19.7775 126.80199999999998 19.7775 zM127.78999999999998 14.213500000000002 Q127.41299999999998 14.213500000000002 127.05549999999998 14.441000000000003 126.69799999999998 14.668500000000002 126.42499999999998 15.058500000000002 126.15199999999999 15.448500000000001 125.98949999999998 15.9815 125.82699999999998 16.5145 125.82699999999998 17.125500000000002 125.82699999999998 17.8535 126.11299999999999 18.25 126.39899999999999 18.6465 126.95799999999998 18.6465 127.33499999999998 18.6465 127.68599999999998 18.419 128.03699999999998 18.1915 128.30999999999997 17.795 128.58299999999997 17.398500000000002 128.7455 16.8655 128.908 16.332500000000003 128.908 15.7215 128.908 14.993500000000001 128.62199999999999 14.6035 128.33599999999998 14.213500000000002 127.78999999999998 14.213500000000002 z" /><path d="M132.92499999999998 10.443500000000002 L134.31599999999997 10.443500000000002 132.78199999999998 18.1265 Q132.75599999999997 18.2305 132.75599999999997 18.282500000000002 132.75599999999997 18.334500000000002 132.75599999999997 18.3735 132.75599999999997 18.6465 132.97699999999998 18.6465 133.04199999999997 18.6465 133.081 18.64 133.11999999999998 18.6335 133.21099999999998 18.6075 L133.18499999999997 19.6475 Q133.04199999999997 19.712500000000002 132.84699999999998 19.745 132.652 19.7775 132.39199999999997 19.7775 131.83299999999997 19.7775 131.57299999999998 19.5045 131.313 19.2315 131.313 18.7375 131.313 18.4385 131.40399999999997 18.061500000000002 L132.92499999999998 10.443500000000002 z" /><path d="M139.71099999999998 12.7055 L140.153 10.443500000000002 141.54399999999998 10.443500000000002 139.69799999999998 19.6215 138.55399999999997 19.6215 138.61899999999997 18.7375 138.57999999999998 18.7375 Q138.12499999999997 19.2055 137.5725 19.491500000000002 137.01999999999998 19.7775 136.474 19.7775 135.629 19.7775 135.14149999999998 19.1795 134.654 18.581500000000002 134.654 17.4505 134.654 16.5405 134.94 15.741000000000001 135.22599999999997 14.941500000000001 135.707 14.350000000000001 136.188 13.758500000000002 136.8055 13.4205 137.42299999999997 13.082500000000001 138.08599999999998 13.082500000000001 138.55399999999997 13.082500000000001 138.91799999999998 13.316500000000001 139.28199999999998 13.550500000000001 139.48999999999998 13.927500000000002 L139.529 13.927500000000002 139.71099999999998 12.7055 zM137.046 18.6335 Q137.462 18.6335 137.891 18.3865 138.32 18.1395 138.72299999999998 17.5545 L139.243 15.0065 Q139.022 14.590500000000002 138.74249999999998 14.4085 138.463 14.226500000000001 138.164 14.226500000000001 137.761 14.226500000000001 137.384 14.467000000000002 137.00699999999998 14.707500000000001 136.72099999999998 15.1235 136.43499999999997 15.5395 136.266 16.092000000000002 136.09699999999998 16.6445 136.09699999999998 17.2555 136.09699999999998 17.9575 136.35049999999998 18.2955 136.60399999999998 18.6335 137.046 18.6335 z" /><path d="M145.85999999999999 11.119500000000002 L147.26399999999998 11.119500000000002 145.57399999999998 19.6215 144.17 19.6215 145.85999999999999 11.119500000000002 z" /><path d="M148.889 14.343500000000002 L147.992 14.343500000000002 148.2 13.303500000000001 149.175 13.238500000000002 149.682 11.5225 150.852 11.5225 150.514 13.238500000000002 152.048 13.238500000000002 151.827 14.343500000000002 150.267 14.343500000000002 149.617 17.515500000000003 Q149.578 17.7495 149.578 17.9705 149.578 18.3215 149.74699999999999 18.497 149.916 18.6725 150.319 18.6725 150.488 18.6725 150.631 18.6205 150.774 18.5685 150.917 18.503500000000003 L151.177 19.491500000000002 Q150.94299999999998 19.5955 150.605 19.686500000000002 150.267 19.7775 149.825 19.7775 148.928 19.7775 148.5445 19.329 148.161 18.8805 148.161 18.2175 148.161 18.0225 148.18699999999998 17.840500000000002 148.213 17.6585 148.239 17.4635 L148.889 14.343500000000002 z" /><path d="M152.256 17.4505 Q152.256 16.5405 152.542 15.741000000000001 152.82799999999997 14.941500000000001 153.309 14.350000000000001 153.79 13.758500000000002 154.4075 13.4205 155.02499999999998 13.082500000000001 155.688 13.082500000000001 156.15599999999998 13.082500000000001 156.546 13.323 156.93599999999998 13.563500000000001 157.15699999999998 13.979500000000002 L157.183 13.979500000000002 157.456 13.238500000000002 158.57399999999998 13.238500000000002 157.29999999999998 19.6215 156.15599999999998 19.6215 156.22099999999998 18.7375 156.182 18.7375 Q155.72699999999998 19.2055 155.1745 19.491500000000002 154.62199999999999 19.7775 154.076 19.7775 153.231 19.7775 152.74349999999998 19.1795 152.256 18.581500000000002 152.256 17.4505 zM154.648 18.6335 Q155.064 18.6335 155.49949999999998 18.3865 155.93499999999997 18.1395 156.325 17.5545 L156.845 15.0065 Q156.624 14.590500000000002 156.34449999999998 14.4085 156.065 14.226500000000001 155.766 14.226500000000001 155.363 14.226500000000001 154.986 14.467000000000002 154.60899999999998 14.707500000000001 154.32299999999998 15.1235 154.03699999999998 15.5395 153.868 16.092000000000002 153.69899999999998 16.6445 153.69899999999998 17.2555 153.69899999999998 17.9575 153.9525 18.2955 154.206 18.6335 154.648 18.6335 z" /><path d="M161.005 10.443500000000002 L162.396 10.443500000000002 160.862 18.1265 Q160.83599999999998 18.2305 160.83599999999998 18.282500000000002 160.83599999999998 18.334500000000002 160.83599999999998 18.3735 160.83599999999998 18.6465 161.057 18.6465 161.12199999999999 18.6465 161.161 18.64 161.2 18.6335 161.291 18.6075 L161.265 19.6475 Q161.12199999999999 19.712500000000002 160.927 19.745 160.732 19.7775 160.47199999999998 19.7775 159.91299999999998 19.7775 159.653 19.5045 159.393 19.2315 159.393 18.7375 159.393 18.4385 159.48399999999998 18.061500000000002 L161.005 10.443500000000002 z" /><path d="M163.852 13.238500000000002 L165.243 13.238500000000002 163.969 19.6215 162.565 19.6215 163.852 13.238500000000002 zM164.879 12.107500000000002 Q164.57999999999998 12.107500000000002 164.333 11.919 164.08599999999998 11.730500000000001 164.08599999999998 11.379500000000002 164.08599999999998 11.002500000000001 164.359 10.736 164.632 10.469500000000002 165.022 10.469500000000002 165.321 10.469500000000002 165.56799999999998 10.658000000000001 165.815 10.8465 165.815 11.197500000000002 165.815 11.587500000000002 165.542 11.8475 165.269 12.107500000000002 164.879 12.107500000000002 z" /><path d="M165.971 17.177500000000002 Q165.971 16.3195 166.2635 15.572000000000001 166.556 14.8245 167.0565 14.272000000000002 167.557 13.7195 168.2265 13.401000000000002 168.89600000000002 13.082500000000001 169.637 13.082500000000001 170.222 13.082500000000001 170.638 13.316500000000001 171.054 13.550500000000001 171.314 13.8625 L170.534 14.707500000000001 Q170.313 14.447500000000002 170.092 14.3305 169.871 14.213500000000002 169.546 14.213500000000002 169.117 14.213500000000002 168.727 14.447500000000002 168.337 14.681500000000002 168.0445 15.078000000000001 167.752 15.4745 167.5765 16.001 167.401 16.5275 167.401 17.125500000000002 167.401 17.8535 167.7195 18.25 168.038 18.6465 168.688 18.6465 169.065 18.6465 169.3575 18.497 169.65 18.3475 169.897 18.1525 L170.495 19.0365 Q170.131 19.2965 169.6305 19.537000000000003 169.13 19.7775 168.40200000000002 19.7775 167.869 19.7775 167.427 19.602 166.985 19.4265 166.66 19.095000000000002 166.335 18.7635 166.153 18.282500000000002 165.971 17.8015 165.971 17.177500000000002 z" /></g></svg>