<svg width="170" height="30" xmlns="http://www.w3.org/2000/svg" viewBox="0 0 170 30"><g fill="currentColor"><path d="M0.9309999999999999 19.4175 Q1.539 20.3105 2.3845 20.795 3.23 21.2795 4.4079999999999995 21.2795 5.092 21.2795 5.6715 21.0705 6.2509999999999994 20.8615 6.6785 20.491 7.106 20.1205 7.353 19.5885 7.6 19.0565 7.6 18.3915 7.6 17.5935 7.1535 17.033 6.707 16.4725 5.984999999999999 16.0545 L4.37 15.0855 Q3.9899999999999998 14.8575 3.629 14.572500000000002 3.268 14.287500000000001 3.002 13.9455 2.7359999999999998 13.6035 2.5745 13.176 2.413 12.7485 2.413 12.2355 2.413 11.589500000000001 2.679 11.01 2.945 10.4305 3.42 9.984 3.895 9.5375 4.56 9.2715 5.225 9.0055 6.023 9.0055 7.163 9.0055 8.0275 9.499500000000001 8.892 9.993500000000001 9.405 10.6965 L8.834999999999999 11.1905 Q8.36 10.5825 7.6285 10.1455 6.897 9.7085 5.909 9.7085 5.301 9.7085 4.8069999999999995 9.927 4.313 10.1455 3.971 10.4875 3.629 10.829500000000001 3.439 11.2665 3.249 11.7035 3.249 12.140500000000001 3.249 13.0145 3.743 13.537 4.237 14.0595 4.902 14.4395 L6.479 15.351500000000001 Q7.372 15.883500000000002 7.904 16.5675 8.436 17.2515 8.436 18.2965 8.436 19.1325 8.1225 19.807 7.809 20.4815 7.258 20.966 6.707 21.4505 5.947 21.7165 5.187 21.9825 4.313 21.9825 3.002 21.9825 1.9855 21.441 0.969 20.8995 0.304 19.8545 L0.9309999999999999 19.4175 z" /><path d="M13.280999999999999 21.9825 Q11.875 21.9825 11.039 21.042 10.203 20.1015 10.203 18.3725 10.203 17.0995 10.601999999999999 16.007 11.001 14.9145 11.6755 14.1165 12.35 13.3185 13.2145 12.8625 14.078999999999999 12.406500000000001 15.009999999999998 12.406500000000001 16.435 12.406500000000001 17.271 13.347 18.107 14.287500000000001 18.107 16.0165 18.107 17.2895 17.6985 18.382 17.29 19.4745 16.625 20.2725 15.959999999999999 21.0705 15.085999999999999 21.5265 14.212 21.9825 13.280999999999999 21.9825 zM14.953 13.0905 Q14.212 13.0905 13.4995 13.5085 12.786999999999999 13.9265 12.226499999999998 14.6295 11.665999999999999 15.3325 11.323999999999998 16.273 10.982 17.2135 10.982 18.2585 10.982 19.7405 11.599499999999999 20.5195 12.216999999999999 21.2985 13.357 21.2985 14.097999999999999 21.2985 14.800999999999998 20.8805 15.503999999999998 20.4625 16.0645 19.7595 16.625 19.0565 16.967 18.116 17.308999999999997 17.1755 17.308999999999997 16.1115 17.308999999999997 14.6295 16.701 13.86 16.093 13.0905 14.953 13.0905 z" /><path d="M26.144 21.7545 L25.497999999999998 21.7545 25.688 20.2725 25.612 20.2725 Q24.775999999999996 20.9945 23.997 21.488500000000002 23.217999999999996 21.9825 22.381999999999998 21.9825 21.203999999999997 21.9825 20.700499999999998 21.365 20.197 20.7475 20.197 19.7595 20.197 19.4175 20.225499999999997 19.161 20.253999999999998 18.9045 20.348999999999997 18.5245 L21.526999999999997 12.634500000000001 22.305999999999997 12.634500000000001 21.147 18.4105 Q21.052 18.828500000000002 21.0235 19.0755 20.994999999999997 19.3225 20.994999999999997 19.5885 20.994999999999997 20.4435 21.374999999999996 20.8615 21.755 21.2795 22.61 21.2795 23.217999999999996 21.2795 24.016 20.8235 24.813999999999997 20.3675 25.839999999999996 19.360500000000002 L27.189 12.634500000000001 27.967999999999996 12.634500000000001 26.144 21.7545 z" /><path d="M31.387999999999998 12.634500000000001 L32.034 12.634500000000001 31.748999999999995 14.3635 31.824999999999996 14.3635 Q32.394999999999996 13.5465 33.098 12.9765 33.800999999999995 12.406500000000001 34.693999999999996 12.406500000000001 34.884 12.406500000000001 35.083499999999994 12.435 35.282999999999994 12.4635 35.510999999999996 12.5585 L35.206999999999994 13.2995 Q35.074 13.2425 34.912499999999994 13.195 34.751 13.1475 34.485 13.1475 33.763 13.1475 32.955499999999994 13.8125 32.147999999999996 14.4775 31.539999999999996 15.7125 L30.342999999999996 21.7545 29.544999999999998 21.7545 31.387999999999998 12.634500000000001 z" /><path d="M35.605999999999995 18.3725 Q35.605999999999995 17.0425 36.03349999999999 15.95 36.46099999999999 14.8575 37.15449999999999 14.068999999999999 37.84799999999999 13.2805 38.73149999999999 12.8435 39.614999999999995 12.406500000000001 40.526999999999994 12.406500000000001 41.32499999999999 12.406500000000001 41.85699999999999 12.7105 42.388999999999996 13.0145 42.82599999999999 13.5085 L42.331999999999994 14.040500000000002 Q41.913999999999994 13.5465 41.50549999999999 13.3185 41.096999999999994 13.0905 40.46999999999999 13.0905 39.690999999999995 13.0905 38.95949999999999 13.5085 38.227999999999994 13.9265 37.657999999999994 14.6295 37.087999999999994 15.3325 36.745999999999995 16.273 36.40399999999999 17.2135 36.40399999999999 18.2585 36.40399999999999 19.7405 37.03099999999999 20.5195 37.657999999999994 21.2985 38.93099999999999 21.2985 39.614999999999995 21.2985 40.20399999999999 21.0135 40.79299999999999 20.7285 41.28699999999999 20.3485 L41.68599999999999 20.9185 Q41.19199999999999 21.2985 40.48899999999999 21.6405 39.785999999999994 21.9825 38.83599999999999 21.9825 37.35399999999999 21.9825 36.47999999999999 21.042 35.605999999999995 20.1015 35.605999999999995 18.3725 z" /><path d="M43.775999999999996 18.2205 Q43.775999999999996 16.9285 44.193999999999996 15.855 44.611999999999995 14.781500000000001 45.276999999999994 14.012 45.94199999999999 13.2425 46.797 12.8245 47.651999999999994 12.406500000000001 48.525999999999996 12.406500000000001 49.266999999999996 12.406500000000001 49.7895 12.644 50.312 12.8815 50.63499999999999 13.309000000000001 50.95799999999999 13.7365 51.10999999999999 14.335 51.26199999999999 14.9335 51.26199999999999 15.636500000000002 51.26199999999999 16.1305 51.18599999999999 16.5485 51.10999999999999 16.9665 51.01499999999999 17.2325 L44.64999999999999 17.2325 Q44.459999999999994 18.3155 44.611999999999995 19.085 44.763999999999996 19.8545 45.14399999999999 20.3485 45.523999999999994 20.8425 46.1035 21.080000000000002 46.68299999999999 21.3175 47.367 21.3175 47.974999999999994 21.3175 48.56399999999999 21.0515 49.15299999999999 20.7855 49.64699999999999 20.424500000000002 L50.007999999999996 20.9945 Q49.456999999999994 21.3935 48.75399999999999 21.688 48.050999999999995 21.9825 47.25299999999999 21.9825 45.657 21.9825 44.716499999999996 21.023 43.775999999999996 20.0635 43.775999999999996 18.2205 zM50.425999999999995 16.6055 Q50.53999999999999 16.0735 50.53999999999999 15.5225 50.53999999999999 15.066500000000001 50.43549999999999 14.620000000000001 50.330999999999996 14.1735 50.083999999999996 13.8315 49.836999999999996 13.4895 49.437999999999995 13.2805 49.038999999999994 13.0715 48.449999999999996 13.0715 47.84199999999999 13.0715 47.262499999999996 13.328000000000001 46.68299999999999 13.5845 46.18899999999999 14.0595 45.69499999999999 14.534500000000001 45.32449999999999 15.1805 44.95399999999999 15.8265 44.763999999999996 16.6055 L50.425999999999995 16.6055 z" /><path d="M56.44899999999999 19.4175 Q57.056999999999995 20.3105 57.902499999999996 20.795 58.74799999999999 21.2795 59.925999999999995 21.2795 60.60999999999999 21.2795 61.189499999999995 21.0705 61.76899999999999 20.8615 62.19649999999999 20.491 62.623999999999995 20.1205 62.870999999999995 19.5885 63.117999999999995 19.0565 63.117999999999995 18.3915 63.117999999999995 17.5935 62.671499999999995 17.033 62.224999999999994 16.4725 61.50299999999999 16.0545 L59.88799999999999 15.0855 Q59.507999999999996 14.8575 59.14699999999999 14.572500000000002 58.785999999999994 14.287500000000001 58.519999999999996 13.9455 58.25399999999999 13.6035 58.092499999999994 13.176 57.93099999999999 12.7485 57.93099999999999 12.2355 57.93099999999999 11.589500000000001 58.196999999999996 11.01 58.462999999999994 10.4305 58.937999999999995 9.984 59.413 9.5375 60.077999999999996 9.2715 60.742999999999995 9.0055 61.541 9.0055 62.681 9.0055 63.54549999999999 9.499500000000001 64.41 9.993500000000001 64.92299999999999 10.6965 L64.353 11.1905 Q63.87799999999999 10.5825 63.146499999999996 10.1455 62.41499999999999 9.7085 61.42699999999999 9.7085 60.818999999999996 9.7085 60.324999999999996 9.927 59.830999999999996 10.1455 59.48899999999999 10.4875 59.14699999999999 10.829500000000001 58.956999999999994 11.2665 58.766999999999996 11.7035 58.766999999999996 12.140500000000001 58.766999999999996 13.0145 59.260999999999996 13.537 59.754999999999995 14.0595 60.419999999999995 14.4395 L61.99699999999999 15.351500000000001 Q62.88999999999999 15.883500000000002 63.422 16.5675 63.95399999999999 17.2515 63.95399999999999 18.2965 63.95399999999999 19.1325 63.640499999999996 19.807 63.32699999999999 20.4815 62.775999999999996 20.966 62.224999999999994 21.4505 61.464999999999996 21.7165 60.70499999999999 21.9825 59.830999999999996 21.9825 58.519999999999996 21.9825 57.503499999999995 21.441 56.486999999999995 20.8995 55.821999999999996 19.8545 L56.44899999999999 19.4175 z" /><path d="M65.72099999999999 18.6955 Q65.72099999999999 17.3845 66.139 16.235 66.55699999999999 15.0855 67.25049999999999 14.2305 67.94399999999999 13.3755 68.83699999999999 12.891 69.72999999999999 12.406500000000001 70.67999999999999 12.406500000000001 71.478 12.406500000000001 72.067 12.815000000000001 72.65599999999999 13.2235 73.03599999999999 13.8885 L73.09299999999999 13.8885 73.454 12.634500000000001 74.1 12.634500000000001 72.276 21.7545 71.61099999999999 21.7545 71.82 20.3105 71.74399999999999 20.3105 Q71.041 21.0325 70.18599999999999 21.5075 69.33099999999999 21.9825 68.38099999999999 21.9825 67.184 21.9825 66.45249999999999 21.1465 65.72099999999999 20.3105 65.72099999999999 18.6955 zM68.55199999999999 21.2985 Q69.445 21.2985 70.3 20.7855 71.15499999999999 20.2725 71.972 19.3225 L72.922 14.743500000000001 Q72.428 13.8505 71.86749999999999 13.470500000000001 71.30699999999999 13.0905 70.66099999999999 13.0905 69.844 13.0905 69.09349999999999 13.556000000000001 68.34299999999999 14.0215 67.773 14.791 67.20299999999999 15.560500000000001 66.86099999999999 16.539 66.51899999999999 17.5175 66.51899999999999 18.5435 66.51899999999999 19.930500000000002 67.06049999999999 20.6145 67.60199999999999 21.2985 68.55199999999999 21.2985 z" /><path d="M77.50099999999999 12.634500000000001 L78.14699999999999 12.634500000000001 77.938 14.0785 78.014 14.0785 Q78.869 13.3565 79.648 12.8815 80.42699999999999 12.406500000000001 81.282 12.406500000000001 82.46 12.406500000000001 82.954 13.0145 83.448 13.6225 83.448 14.6295 83.448 14.9715 83.4195 15.2185 83.39099999999999 15.4655 83.29599999999999 15.8645 L82.118 21.7545 81.339 21.7545 82.517 15.9785 Q82.59299999999999 15.560500000000001 82.631 15.313500000000001 82.669 15.066500000000001 82.669 14.8005 82.669 13.9455 82.289 13.5275 81.90899999999999 13.1095 81.035 13.1095 80.42699999999999 13.1095 79.62899999999999 13.556000000000001 78.83099999999999 14.002500000000001 77.80499999999999 15.028500000000001 L76.456 21.7545 75.658 21.7545 77.50099999999999 12.634500000000001 z" /><path d="M85.11999999999999 19.8735 Q85.5 20.4815 86.16499999999999 20.8995 86.83 21.3175 87.704 21.3175 88.17899999999999 21.3175 88.597 21.1655 89.01499999999999 21.0135 89.338 20.7475 89.66099999999999 20.4815 89.851 20.1395 90.041 19.7975 90.041 19.3985 90.041 19.1325 89.96499999999999 18.895 89.889 18.6575 89.699 18.4295 89.509 18.2015 89.16699999999999 17.964 88.82499999999999 17.7265 88.29299999999999 17.4415 87.68499999999999 17.1185 87.2575 16.824 86.83 16.5295 86.564 16.235 86.29799999999999 15.9405 86.184 15.636500000000002 86.07 15.3325 86.07 14.9715 86.07 14.4015 86.29799999999999 13.9265 86.526 13.451500000000001 86.925 13.1095 87.324 12.7675 87.84649999999999 12.587 88.369 12.406500000000001 88.939 12.406500000000001 89.71799999999999 12.406500000000001 90.35449999999999 12.7105 90.991 13.0145 91.466 13.5085 L90.95299999999999 14.002500000000001 Q90.573 13.6225 90.0885 13.347 89.604 13.0715 88.91999999999999 13.0715 88.48299999999999 13.0715 88.103 13.214 87.723 13.3565 87.43799999999999 13.6035 87.15299999999999 13.8505 86.99149999999999 14.1735 86.83 14.496500000000001 86.83 14.8575 86.83 15.1805 86.9725 15.437000000000001 87.115 15.6935 87.34299999999999 15.911999999999999 87.571 16.1305 87.875 16.311 88.17899999999999 16.491500000000002 88.52099999999999 16.6815 89.262 17.0805 89.70849999999999 17.4225 90.155 17.7645 90.40199999999999 18.0685 90.649 18.3725 90.725 18.667 90.80099999999999 18.9615 90.80099999999999 19.2655 90.80099999999999 19.892500000000002 90.55399999999999 20.396 90.30699999999999 20.8995 89.8795 21.251 89.452 21.6025 88.87249999999999 21.7925 88.29299999999999 21.9825 87.609 21.9825 87.115 21.9825 86.65899999999999 21.84 86.20299999999999 21.6975 85.80399999999999 21.4505 85.40499999999999 21.203500000000002 85.082 20.909 84.759 20.6145 84.56899999999999 20.2915 L85.11999999999999 19.8735 z" /><path d="M98.8 9.233500000000001 L102.08699999999999 9.233500000000001 Q103.81599999999999 9.233500000000001 104.81349999999999 9.927 105.81099999999999 10.6205 105.81099999999999 12.140500000000001 105.81099999999999 13.204500000000001 105.431 13.9835 105.05099999999999 14.7625 104.35749999999999 15.285 103.66399999999999 15.807500000000001 102.68549999999999 16.064 101.707 16.3205 100.50999999999999 16.3205 L98.192 16.3205 97.128 21.7545 96.31099999999999 21.7545 98.8 9.233500000000001 zM100.434 15.636500000000002 Q102.695 15.636500000000002 103.8445 14.781500000000001 104.994 13.9265 104.994 12.2165 104.994 10.9815 104.17699999999999 10.4495 103.36 9.9175 101.74499999999999 9.9175 L99.46499999999999 9.9175 98.344 15.636500000000002 100.434 15.636500000000002 z" /><path d="M108.26199999999999 12.634500000000001 L108.90799999999999 12.634500000000001 108.62299999999999 14.3635 108.699 14.3635 Q109.26899999999999 13.5465 109.972 12.9765 110.675 12.406500000000001 111.568 12.406500000000001 111.758 12.406500000000001 111.9575 12.435 112.157 12.4635 112.38499999999999 12.5585 L112.08099999999999 13.2995 Q111.948 13.2425 111.78649999999999 13.195 111.62499999999999 13.1475 111.359 13.1475 110.63699999999999 13.1475 109.8295 13.8125 109.02199999999999 14.4775 108.41399999999999 15.7125 L107.217 21.7545 106.419 21.7545 108.26199999999999 12.634500000000001 z" /><path d="M115.59599999999999 21.9825 Q114.18999999999998 21.9825 113.35399999999998 21.042 112.51799999999999 20.1015 112.51799999999999 18.3725 112.51799999999999 17.0995 112.91699999999999 16.007 113.31599999999999 14.9145 113.99049999999998 14.1165 114.66499999999999 13.3185 115.52949999999998 12.8625 116.39399999999999 12.406500000000001 117.32499999999999 12.406500000000001 118.74999999999999 12.406500000000001 119.58599999999998 13.347 120.42199999999998 14.287500000000001 120.42199999999998 16.0165 120.42199999999998 17.2895 120.0135 18.382 119.60499999999999 19.4745 118.93999999999998 20.2725 118.27499999999999 21.0705 117.40099999999998 21.5265 116.52699999999999 21.9825 115.59599999999999 21.9825 zM117.26799999999999 13.0905 Q116.52699999999999 13.0905 115.81449999999998 13.5085 115.10199999999999 13.9265 114.54149999999998 14.6295 113.981 15.3325 113.63899999999998 16.273 113.29699999999998 17.2135 113.29699999999998 18.2585 113.29699999999998 19.7405 113.91449999999999 20.5195 114.53199999999998 21.2985 115.67199999999998 21.2985 116.41299999999998 21.2985 117.11599999999999 20.8805 117.81899999999999 20.4625 118.3795 19.7595 118.93999999999998 19.0565 119.28199999999998 18.116 119.624 17.1755 119.624 16.1115 119.624 14.6295 119.01599999999999 13.86 118.40799999999999 13.0905 117.26799999999999 13.0905 z" /><path d="M128.07899999999998 9.233500000000001 L128.896 9.233500000000001 126.40699999999998 21.7545 125.58999999999997 21.7545 128.07899999999998 9.233500000000001 z" /><path d="M131.85999999999999 13.3185 L130.43499999999997 13.3185 130.54899999999998 12.7105 132.03099999999998 12.634500000000001 132.658 10.031500000000001 133.32299999999998 10.031500000000001 132.79099999999997 12.634500000000001 135.26099999999997 12.634500000000001 135.10899999999998 13.3185 132.63899999999998 13.3185 131.40399999999997 19.3035 Q131.36599999999999 19.4745 131.34699999999998 19.6455 131.32799999999997 19.8165 131.32799999999997 20.0255 131.32799999999997 20.6525 131.60349999999997 20.9755 131.879 21.2985 132.61999999999998 21.2985 132.94299999999998 21.2985 133.21849999999998 21.194 133.49399999999997 21.0895 133.72199999999998 20.9755 L133.93099999999998 21.5645 Q133.66499999999996 21.7165 133.28499999999997 21.8495 132.90499999999997 21.9825 132.468 21.9825 131.93599999999998 21.9825 131.5655 21.84 131.19499999999996 21.6975 130.96699999999998 21.4505 130.73899999999998 21.203500000000002 130.64399999999998 20.871 130.54899999999998 20.5385 130.54899999999998 20.177500000000002 130.54899999999998 19.9115 130.56799999999998 19.712 130.587 19.5125 130.62499999999997 19.2655 L131.85999999999999 13.3185 z" /><path d="M135.679 18.6955 Q135.679 17.3845 136.09699999999998 16.235 136.515 15.0855 137.2085 14.2305 137.902 13.3755 138.795 12.891 139.688 12.406500000000001 140.63799999999998 12.406500000000001 141.43599999999998 12.406500000000001 142.02499999999998 12.815000000000001 142.61399999999998 13.2235 142.994 13.8885 L143.051 13.8885 143.41199999999998 12.634500000000001 144.058 12.634500000000001 142.23399999999998 21.7545 141.569 21.7545 141.778 20.3105 141.702 20.3105 Q140.999 21.0325 140.14399999999998 21.5075 139.289 21.9825 138.339 21.9825 137.142 21.9825 136.41049999999998 21.1465 135.679 20.3105 135.679 18.6955 zM138.51 21.2985 Q139.403 21.2985 140.25799999999998 20.7855 141.113 20.2725 141.92999999999998 19.3225 L142.88 14.743500000000001 Q142.386 13.8505 141.82549999999998 13.470500000000001 141.265 13.0905 140.619 13.0905 139.802 13.0905 139.05149999999998 13.556000000000001 138.301 14.0215 137.731 14.791 137.161 15.560500000000001 136.819 16.539 136.47699999999998 17.5175 136.47699999999998 18.5435 136.47699999999998 19.930500000000002 137.0185 20.6145 137.56 21.2985 138.51 21.2985 z" /><path d="M148.352 8.0935 L149.131 8.0935 146.642 20.6335 Q146.60399999999998 20.7855 146.60399999999998 20.871 146.60399999999998 20.956500000000002 146.60399999999998 21.0135 146.60399999999998 21.2985 146.87 21.2985 146.946 21.2985 146.99349999999998 21.289 147.041 21.2795 147.19299999999998 21.2225 L147.25 21.8495 Q147.09799999999998 21.9255 146.9555 21.954 146.813 21.9825 146.60399999999998 21.9825 146.224 21.9825 145.99599999999998 21.7735 145.768 21.5645 145.768 21.1655 145.768 20.956500000000002 145.863 20.5765 L148.352 8.0935 z" /><path d="M151.867 12.634500000000001 L152.646 12.634500000000001 150.82199999999997 21.7545 150.02399999999997 21.7545 151.867 12.634500000000001 zM152.74099999999999 10.4305 Q152.475 10.4305 152.29449999999997 10.25 152.11399999999998 10.0695 152.11399999999998 9.8035 152.11399999999998 9.4235 152.3515 9.186 152.58899999999997 8.948500000000001 152.91199999999998 8.948500000000001 153.17799999999997 8.948500000000001 153.3585 9.1195 153.539 9.2905 153.539 9.5945 153.539 9.9555 153.30149999999998 10.193 153.064 10.4305 152.74099999999999 10.4305 z" /><path d="M154.242 18.3725 Q154.242 17.0425 154.6695 15.95 155.09699999999998 14.8575 155.79049999999998 14.068999999999999 156.48399999999998 13.2805 157.36749999999998 12.8435 158.25099999999998 12.406500000000001 159.16299999999998 12.406500000000001 159.96099999999998 12.406500000000001 160.493 12.7105 161.02499999999998 13.0145 161.462 13.5085 L160.968 14.040500000000002 Q160.54999999999998 13.5465 160.14149999999998 13.3185 159.73299999999998 13.0905 159.106 13.0905 158.327 13.0905 157.5955 13.5085 156.86399999999998 13.9265 156.29399999999998 14.6295 155.724 15.3325 155.38199999999998 16.273 155.04 17.2135 155.04 18.2585 155.04 19.7405 155.667 20.5195 156.29399999999998 21.2985 157.56699999999998 21.2985 158.25099999999998 21.2985 158.83999999999997 21.0135 159.42899999999997 20.7285 159.923 20.3485 L160.322 20.9185 Q159.82799999999997 21.2985 159.125 21.6405 158.422 21.9825 157.47199999999998 21.9825 155.98999999999998 21.9825 155.11599999999999 21.042 154.242 20.1015 154.242 18.3725 z" /></g></svg>