<svg width="170" height="30" xmlns="http://www.w3.org/2000/svg" viewBox="0 0 170 30"><g fill="currentColor"><path d="M22.724609375 27.111328125 Q22.775390625 27.669921875 22.5595703125 28.3427734375 22.34375 29.015625 21.8486328125 29.6123046875 21.353515625 30.208984375 20.56640625 30.6025390625 19.779296875 30.99609375 18.6875 30.99609375 17.62109375 30.970703125 16.6181640625 30.3232421875 15.615234375 29.67578125 14.9423828125 28.533203125 14.26953125 27.390625 14.041015625 25.81640625 13.8125 24.2421875 14.244140625 22.36328125 14.5234375 21.119140625 14.9423828125 19.4306640625 15.361328125 17.7421875 15.7548828125 15.939453125 16.1484375 14.13671875 16.4150390625 12.384765625 16.681640625 10.6328125 16.65625 9.2236328125 16.630859375 7.814453125 16.2373046875 6.9130859375 15.84375 6.01171875 14.904296875 5.935546875 14.142578125 5.884765625 13.5205078125 6.3798828125 12.8984375 6.875 12.44140625 7.63671875 11.984375 8.3984375 11.6923828125 9.2744140625 11.400390625 10.150390625 11.298828125 10.8359375 11.0703125 12.232421875 10.943359375 14.1240234375 10.81640625 16.015625 10.841796875 17.869140625 10.841796875 18.478515625 11.044921875 18.8466796875 11.248046875 19.21484375 11.52734375 19.41796875 11.806640625 19.62109375 12.111328125 19.7099609375 12.416015625 19.798828125 12.64453125 19.82421875 L12.59375 20.23046875 Q11.0703125 20.43359375 10.0419921875 20.6494140625 9.013671875 20.865234375 8.353515625 21.068359375 7.591796875 21.296875 7.109375 21.5 L6.880859375 20.966796875 Q7.439453125 20.6875 7.8330078125 20.28125 8.2265625 19.875 8.455078125 19.2783203125 8.68359375 18.681640625 8.78515625 17.869140625 8.88671875 17.056640625 8.912109375 15.96484375 8.9375 15.228515625 8.962890625 14.2255859375 8.98828125 13.22265625 8.9755859375 12.15625 8.962890625 11.08984375 8.88671875 10.048828125 8.810546875 9.0078125 8.607421875 8.1953125 8.404296875 7.3828125 8.048828125 6.8876953125 7.693359375 6.392578125 7.134765625 6.392578125 6.55078125 6.41796875 6.1064453125 6.849609375 5.662109375 7.28125 5.306640625 7.966796875 4.951171875 8.65234375 4.697265625 9.4775390625 4.443359375 10.302734375 4.2783203125 11.08984375 4.11328125 11.876953125 4.0244140625 12.5244140625 3.935546875 13.171875 3.91015625 13.501953125 3.884765625 13.83203125 3.859375 14.5048828125 3.833984375 15.177734375 3.8466796875 16.0283203125 3.859375 16.87890625 3.9736328125 17.8310546875 4.087890625 18.783203125 4.3291015625 19.6591796875 4.5703125 20.53515625 5.001953125 21.2587890625 5.43359375 21.982421875 6.09375 22.36328125 L6.068359375 23.0234375 Q5.560546875 22.87109375 4.7099609375 22.8076171875 3.859375 22.744140625 2.9326171875 22.794921875 2.005859375 22.845703125 1.1298828125 23.0107421875 0.25390625 23.17578125 -0.3046875 23.48046875 L-0.609375 22.8203125 Q0 22.490234375 0.4189453125 22.2490234375 0.837890625 22.0078125 1.1298828125 21.55078125 1.421875 21.09375 1.57421875 20.2685546875 1.7265625 19.443359375 1.77734375 17.99609375 1.828125 16.5234375 1.87890625 15.482421875 1.9296875 14.44140625 1.9423828125 13.603515625 1.955078125 12.765625 1.9677734375 12.029296875 1.98046875 11.29296875 1.955078125 10.404296875 1.9296875 9.541015625 1.7900390625 8.6015625 1.650390625 7.662109375 1.294921875 6.8115234375 0.939453125 5.9609375 0.279296875 5.30078125 -0.380859375 4.640625 -1.447265625 4.28515625 L-1.548828125 3.77734375 Q-0.939453125 3.828125 -0.1142578125 3.87890625 0.7109375 3.9296875 1.5107421875 3.9296875 2.310546875 3.9296875 2.9326171875 3.8662109375 3.5546875 3.802734375 3.7578125 3.599609375 3.859375 3.77734375 3.9228515625 4.2724609375 3.986328125 4.767578125 4.01171875 5.4150390625 4.037109375 6.0625 4.037109375 6.798828125 4.037109375 7.53515625 4.037109375 8.220703125 4.392578125 7.1796875 4.8623046875 6.4306640625 5.33203125 5.681640625 5.83984375 5.2119140625 6.34765625 4.7421875 6.8427734375 4.513671875 7.337890625 4.28515625 7.76953125 4.28515625 8.78515625 4.28515625 9.59765625 5.1484375 10.41015625 6.01171875 10.740234375 7.611328125 11.552734375 5.529296875 12.9111328125 4.3740234375 14.26953125 3.21875 16.046875 3.47265625 18.12890625 3.77734375 18.8779296875 5.935546875 19.626953125 8.09375 18.916015625 12.181640625 18.560546875 14.212890625 17.9384765625 16.26953125 17.31640625 18.326171875 16.7451171875 20.2177734375 16.173828125 22.109375 15.8310546875 23.7724609375 15.48828125 25.435546875 15.69140625 26.654296875 15.869140625 27.771484375 16.326171875 28.482421875 16.783203125 29.193359375 17.31640625 29.5869140625 17.849609375 29.98046875 18.3955078125 30.1201171875 18.94140625 30.259765625 19.34765625 30.234375 19.90625 30.208984375 20.3759765625 29.904296875 20.845703125 29.599609375 21.201171875 29.142578125 21.556640625 28.685546875 21.7470703125 28.15234375 21.9375 27.619140625 21.9375 27.13671875 21.9375 26.806640625 21.7978515625 26.4765625 21.658203125 26.146484375 21.404296875 25.892578125 21.150390625 25.638671875 20.7822265625 25.486328125 20.4140625 25.333984375 19.982421875 25.359375 19.55078125 25.384765625 19.2333984375 25.5625 18.916015625 25.740234375 18.712890625 26.0068359375 18.509765625 26.2734375 18.4208984375 26.578125 18.33203125 26.8828125 18.357421875 27.111328125 18.408203125 27.619140625 18.712890625 27.94921875 19.017578125 28.279296875 19.44921875 28.228515625 19.65234375 28.203125 19.7919921875 28.1015625 19.931640625 28 20.05859375 27.873046875 19.8046875 27.771484375 19.6396484375 27.6064453125 19.474609375 27.44140625 19.525390625 27.060546875 19.55078125 26.83203125 19.7158203125 26.6923828125 19.880859375 26.552734375 20.0966796875 26.52734375 20.3125 26.501953125 20.490234375 26.603515625 20.66796875 26.705078125 20.71875 26.984375 20.744140625 27.263671875 20.693359375 27.6064453125 20.642578125 27.94921875 20.46484375 28.2412109375 20.287109375 28.533203125 19.95703125 28.7236328125 19.626953125 28.9140625 19.09375 28.9140625 18.560546875 28.9140625 18.2431640625 28.634765625 17.92578125 28.35546875 17.7734375 27.94921875 17.62109375 27.54296875 17.6083984375 27.0986328125 17.595703125 26.654296875 17.697265625 26.349609375 17.900390625 25.689453125 18.53515625 25.1181640625 19.169921875 24.546875 20.3125 24.59765625 20.845703125 24.6484375 21.27734375 24.876953125 21.708984375 25.10546875 22.013671875 25.4736328125 22.318359375 25.841796875 22.49609375 26.2734375 22.673828125 26.705078125 22.724609375 27.111328125 z" /><path d="M31.001953125 27.162109375 Q30.951171875 28.279296875 30.5830078125 29.142578125 30.21484375 30.005859375 29.60546875 30.5771484375 28.99609375 31.1484375 28.1962890625 31.453125 27.396484375 31.7578125 26.482421875 31.783203125 25.568359375 31.80859375 24.8447265625 31.478515625 24.12109375 31.1484375 23.61328125 30.615234375 23.10546875 30.08203125 22.8388671875 29.37109375 22.572265625 28.66015625 22.59765625 27.923828125 22.623046875 27.1875 22.9150390625 26.62890625 23.20703125 26.0703125 23.689453125 25.7021484375 24.171875 25.333984375 24.755859375 25.15625 25.33984375 24.978515625 25.923828125 24.978515625 26.939453125 25.00390625 27.3203125 25.61328125 27.701171875 26.22265625 27.701171875 27.009765625 27.701171875 27.44140625 27.5615234375 27.873046875 27.421875 28.3046875 27.1552734375 28.6474609375 26.888671875 28.990234375 26.5205078125 29.2060546875 26.15234375 29.421875 25.6953125 29.421875 25.4921875 29.421875 25.263671875 29.37109375 25.03515625 29.3203125 24.8447265625 29.1552734375 24.654296875 28.990234375 24.52734375 28.6982421875 24.400390625 28.40625 24.400390625 27.923828125 24.400390625 27.212890625 24.73046875 26.806640625 25.060546875 26.400390625 25.568359375 26.375 25.923828125 26.375 26.1396484375 26.578125 26.35546875 26.78125 26.3935546875 27.03515625 26.431640625 27.2890625 26.2919921875 27.4921875 26.15234375 27.6953125 25.796875 27.6953125 25.44140625 27.669921875 25.44140625 27.4033203125 25.44140625 27.13671875 25.568359375 26.93359375 25.365234375 27.03515625 25.2001953125 27.263671875 25.03515625 27.4921875 25.03515625 27.84765625 25.03515625 28.3046875 25.263671875 28.55859375 25.4921875 28.8125 25.84765625 28.8125 26.1015625 28.8125 26.3173828125 28.6474609375 26.533203125 28.482421875 26.685546875 28.2412109375 26.837890625 28 26.9267578125 27.7080078125 27.015625 27.416015625 27.015625 27.13671875 27.015625 26.32421875 26.4951171875 25.91796875 25.974609375 25.51171875 25.263671875 25.5625 24.984375 25.587890625 24.62890625 25.765625 24.2734375 25.943359375 23.96875 26.2607421875 23.6640625 26.578125 23.4609375 27.009765625 23.2578125 27.44140625 23.283203125 27.94921875 23.30859375 28.45703125 23.486328125 28.939453125 23.6640625 29.421875 24.044921875 29.7900390625 24.42578125 30.158203125 24.9970703125 30.3359375 25.568359375 30.513671875 26.35546875 30.4375 27.9296875 30.28515625 28.7548828125 28.583984375 29.580078125 26.8828125 29.529296875 24.064453125 29.50390625 23.125 29.478515625 22.4267578125 29.453125 21.728515625 29.427734375 21.1953125 29.40234375 20.662109375 29.3896484375 20.23046875 29.376953125 19.798828125 29.376953125 19.3671875 29.173828125 20.052734375 28.8564453125 20.7890625 28.5390625 21.525390625 28.0185546875 22.134765625 27.498046875 22.744140625 26.7490234375 23.125 26 23.505859375 24.958984375 23.48046875 24.171875 23.455078125 23.587890625 23.1630859375 23.00390625 22.87109375 22.5849609375 22.36328125 22.166015625 21.85546875 21.8994140625 21.169921875 21.6328125 20.484375 21.53125 19.671875 21.404296875 18.65625 21.5185546875 17.6279296875 21.6328125 16.599609375 21.78515625 15.609375 21.9375 14.314453125 22.0009765625 13.400390625 22.064453125 12.486328125 21.9501953125 11.8642578125 21.8359375 11.2421875 21.4931640625 10.8232421875 21.150390625 10.404296875 20.515625 10.048828125 L20.794921875 9.541015625 Q21.07421875 9.6171875 21.3662109375 9.7060546875 21.658203125 9.794921875 22.1025390625 9.8330078125 22.546875 9.87109375 23.232421875 9.845703125 23.91796875 9.8203125 24.984375 9.693359375 24.78125 10.07421875 24.578125 10.6962890625 24.375 11.318359375 24.197265625 12.0673828125 24.01953125 12.81640625 23.8798828125 13.654296875 23.740234375 14.4921875 23.6640625 15.279296875 23.587890625 16.06640625 23.6005859375 17.03125 23.61328125 17.99609375 23.791015625 18.8466796875 23.96875 19.697265625 24.3623046875 20.2939453125 24.755859375 20.890625 25.44140625 20.94140625 26.126953125 20.9921875 26.6728515625 20.662109375 27.21875 20.33203125 27.6123046875 19.875 28.005859375 19.41796875 28.2216796875 18.9609375 28.4375 18.50390625 28.48828125 18.30078125 28.5390625 18.09765625 28.615234375 17.5009765625 28.69140625 16.904296875 28.7421875 16.091796875 28.79296875 15.279296875 28.818359375 14.365234375 28.84375 13.451171875 28.79296875 12.638671875 28.7421875 11.90234375 28.6025390625 11.419921875 28.462890625 10.9375 28.259765625 10.6328125 28.056640625 10.328125 27.8154296875 10.150390625 27.57421875 9.97265625 27.3203125 9.87109375 L27.47265625 9.36328125 Q27.87890625 9.541015625 28.4248046875 9.642578125 28.970703125 9.744140625 29.5673828125 9.7822265625 30.1640625 9.8203125 30.7099609375 9.8076171875 31.255859375 9.794921875 31.662109375 9.71875 31.001953125 11.08984375 30.671875 13.2861328125 30.341796875 15.482421875 30.46875 18.60546875 30.51953125 20.02734375 30.62109375 21.119140625 30.72265625 22.2109375 30.82421875 23.17578125 30.92578125 24.140625 30.9765625 25.0927734375 31.02734375 26.044921875 31.001953125 27.162109375 z" /><path d="M41.919921875 21.220703125 Q41.767578125 21.75390625 41.4755859375 22.36328125 41.18359375 22.97265625 40.701171875 23.505859375 40.21875 24.0390625 39.5458984375 24.4072265625 38.873046875 24.775390625 38.009765625 24.826171875 37.400390625 24.876953125 36.8544921875 24.7373046875 36.30859375 24.59765625 35.8642578125 24.34375 35.419921875 24.08984375 35.08984375 23.759765625 34.759765625 23.4296875 34.58203125 23.099609375 34.27734375 22.439453125 34.251953125 21.7666015625 34.2265625 21.09375 34.505859375 20.5859375 34.912109375 19.92578125 35.3818359375 19.748046875 35.8515625 19.5703125 36.283203125 19.51953125 36.689453125 19.46875 37.12109375 19.5703125 37.552734375 19.671875 37.8828125 19.900390625 38.212890625 20.12890625 38.416015625 20.4716796875 38.619140625 20.814453125 38.59375 21.24609375 38.568359375 21.6015625 38.4033203125 21.8935546875 38.23828125 22.185546875 37.984375 22.4013671875 37.73046875 22.6171875 37.451171875 22.7314453125 37.171875 22.845703125 36.943359375 22.8203125 36.587890625 22.76953125 36.20703125 22.5791015625 35.826171875 22.388671875 35.775390625 22.0078125 35.724609375 21.626953125 35.8642578125 21.3095703125 36.00390625 20.9921875 36.30859375 20.865234375 36.765625 20.6875 37.0322265625 20.7255859375 37.298828125 20.763671875 37.4130859375 20.916015625 37.52734375 21.068359375 37.552734375 21.24609375 37.578125 21.423828125 37.552734375 21.525390625 37.4765625 21.779296875 37.298828125 21.880859375 37.146484375 21.982421875 36.892578125 21.9443359375 36.638671875 21.90625 36.2578125 21.6015625 36.181640625 21.880859375 36.283203125 22.05859375 36.384765625 22.236328125 36.537109375 22.3125 36.71484375 22.4140625 36.994140625 22.439453125 37.52734375 22.490234375 37.83203125 22.0966796875 38.13671875 21.703125 38.0986328125 21.220703125 38.060546875 20.73828125 37.62890625 20.357421875 37.197265625 19.9765625 36.283203125 20.02734375 35.724609375 20.078125 35.419921875 20.3828125 35.115234375 20.6875 35.013671875 21.1064453125 34.912109375 21.525390625 35.0263671875 21.982421875 35.140625 22.439453125 35.419921875 22.76953125 35.724609375 23.125 36.10546875 23.328125 36.486328125 23.53125 36.892578125 23.607421875 37.298828125 23.68359375 37.705078125 23.6455078125 38.111328125 23.607421875 38.466796875 23.455078125 38.873046875 23.27734375 39.279296875 22.8203125 39.685546875 22.36328125 39.888671875 21.7158203125 40.091796875 21.068359375 39.9775390625 20.2685546875 39.86328125 19.46875 39.228515625 18.630859375 38.8984375 18.173828125 38.03515625 17.5517578125 37.171875 16.9296875 36.181640625 16.2060546875 35.19140625 15.482421875 34.2900390625 14.6953125 33.388671875 13.908203125 32.982421875 13.0703125 32.6015625 12.2578125 32.576171875 11.19140625 32.55078125 10.125 33.05859375 9.134765625 33.56640625 8.14453125 34.7216796875 7.357421875 35.876953125 6.5703125 37.83203125 6.31640625 39.228515625 6.138671875 40.3837890625 6.51953125 41.5390625 6.900390625 42.30078125 7.63671875 43.0625 8.373046875 43.3291015625 9.4013671875 43.595703125 10.4296875 43.21484375 11.546875 43.11328125 11.90234375 42.8720703125 12.283203125 42.630859375 12.6640625 42.2626953125 12.994140625 41.89453125 13.32421875 41.38671875 13.5146484375 40.87890625 13.705078125 40.26953125 13.654296875 39.8125 13.62890625 39.3046875 13.4130859375 38.796875 13.197265625 38.365234375 12.8544921875 37.93359375 12.51171875 37.603515625 12.080078125 37.2734375 11.6484375 37.197265625 11.166015625 36.994140625 10.099609375 37.5400390625 9.439453125 38.0859375 8.779296875 39.228515625 8.677734375 39.736328125 8.65234375 40.16796875 8.8427734375 40.599609375 9.033203125 40.904296875 9.337890625 41.208984375 9.642578125 41.361328125 10.0361328125 41.513671875 10.4296875 41.462890625 10.759765625 41.310546875 11.90234375 40.193359375 12.0546875 39.787109375 12.10546875 39.3173828125 11.927734375 38.84765625 11.75 38.64453125 11.2421875 38.517578125 10.88671875 38.59375 10.4169921875 38.669921875 9.947265625 39.1015625 9.71875 39.3046875 9.6171875 39.5458984375 9.642578125 39.787109375 9.66796875 39.96484375 9.7822265625 40.142578125 9.896484375 40.21875 10.099609375 40.294921875 10.302734375 40.21875 10.58203125 40.142578125 10.759765625 39.990234375 10.861328125 39.86328125 10.9375 39.634765625 10.9501953125 39.40625 10.962890625 39.025390625 10.78515625 39.05078125 11.115234375 39.2158203125 11.267578125 39.380859375 11.419921875 39.583984375 11.470703125 39.8125 11.546875 40.06640625 11.546875 40.5234375 11.49609375 40.7646484375 11.2802734375 41.005859375 11.064453125 41.056640625 10.7724609375 41.107421875 10.48046875 40.955078125 10.150390625 40.802734375 9.8203125 40.447265625 9.515625 39.939453125 9.134765625 39.25390625 9.1474609375 38.568359375 9.16015625 38.060546875 9.71875 37.400390625 10.53125 37.7177734375 11.318359375 38.03515625 12.10546875 39 12.61328125 39.15234375 12.689453125 39.3681640625 12.791015625 39.583984375 12.892578125 39.8759765625 12.9052734375 40.16796875 12.91796875 40.5234375 12.81640625 40.87890625 12.71484375 41.3359375 12.41015625 42.021484375 11.953125 42.1484375 11.19140625 42.275390625 10.4296875 42.0341796875 9.66796875 41.79296875 8.90625 41.2216796875 8.296875 40.650390625 7.6875 39.9140625 7.53515625 39.1015625 7.3828125 38.4541015625 7.4462890625 37.806640625 7.509765625 37.298828125 7.7001953125 36.791015625 7.890625 36.384765625 8.1572265625 35.978515625 8.423828125 35.673828125 8.677734375 35.546875 8.8046875 35.29296875 9.134765625 35.0390625 9.46484375 34.861328125 9.9599609375 34.68359375 10.455078125 34.6962890625 11.1025390625 34.708984375 11.75 35.140625 12.486328125 35.546875 13.197265625 36.1943359375 13.7177734375 36.841796875 14.23828125 37.5654296875 14.6826171875 38.2890625 15.126953125 39 15.5458984375 39.7109375 15.96484375 40.26953125 16.447265625 40.87890625 16.955078125 41.2470703125 17.6025390625 41.615234375 18.25 41.8056640625 18.9228515625 41.99609375 19.595703125 42.0087890625 20.205078125 42.021484375 20.814453125 41.919921875 21.220703125 z" /><path d="M50.146484375 21.525390625 Q50.73046875 21.525390625 51.23828125 21.119140625 51.74609375 20.712890625 51.94921875 19.748046875 L52.482421875 19.951171875 Q52.40625 20.560546875 52 21.1826171875 51.59375 21.8046875 50.958984375 22.236328125 50.32421875 22.66796875 49.5244140625 22.794921875 48.724609375 22.921875 47.88671875 22.541015625 46.97265625 22.109375 46.56640625 21.423828125 46.16015625 20.73828125 46.05859375 19.8369140625 45.95703125 18.935546875 46.033203125 17.8818359375 46.109375 16.828125 46.109375 15.685546875 46.109375 15.025390625 46.0966796875 14.1240234375 46.083984375 13.22265625 46.0458984375 12.20703125 46.0078125 11.19140625 45.931640625 10.1123046875 45.85546875 9.033203125 45.779296875 7.9921875 44.916015625 8.09375 44.1416015625 8.2333984375 43.3671875 8.373046875 42.833984375 8.576171875 42.80859375 8.34765625 42.8212890625 8.220703125 42.833984375 8.09375 42.8466796875 7.9794921875 42.859375 7.865234375 42.859375 7.7255859375 42.859375 7.5859375 42.80859375 7.33203125 43.41796875 7.28125 44.1669921875 7.23046875 44.916015625 7.1796875 45.703125 7.12890625 45.677734375 6.7734375 45.65234375 6.4306640625 45.626953125 6.087890625 45.576171875 5.7578125 45.44921875 4.564453125 45.1064453125 3.853515625 44.763671875 3.142578125 44.357421875 2.76171875 43.951171875 2.380859375 43.595703125 2.2412109375 43.240234375 2.1015625 43.0625 2.05078125 L43.138671875 1.568359375 Q43.62109375 1.771484375 44.33203125 1.8349609375 45.04296875 1.8984375 45.8173828125 1.8349609375 46.591796875 1.771484375 47.3408203125 1.59375 48.08984375 1.416015625 48.6484375 1.13671875 48.39453125 1.84765625 48.2041015625 3.396484375 48.013671875 4.9453125 47.88671875 7.001953125 49.20703125 6.92578125 49.791015625 6.798828125 49.6640625 6.951171875 49.6640625 7.2939453125 49.6640625 7.63671875 49.740234375 7.916015625 49.30859375 7.865234375 48.826171875 7.8525390625 48.34375 7.83984375 47.8359375 7.83984375 47.759765625 9.3125 47.734375 10.912109375 47.708984375 12.51171875 47.7724609375 14.0732421875 47.8359375 15.634765625 47.9755859375 17.1201171875 48.115234375 18.60546875 48.34375 19.849609375 48.546875 20.73828125 49.0546875 21.119140625 49.5625 21.5 50.146484375 21.525390625 z" /><path d="M52.25390625 15.482421875 Q52.330078125 13.984375 52.9013671875 12.689453125 53.47265625 11.39453125 54.38671875 10.4677734375 55.30078125 9.541015625 56.4560546875 9.05859375 57.611328125 8.576171875 58.85546875 8.728515625 60.099609375 8.880859375 60.7724609375 9.490234375 61.4453125 10.099609375 61.724609375 10.8486328125 62.00390625 11.59765625 62.029296875 12.333984375 62.0546875 13.0703125 62.029296875 13.4765625 62.00390625 13.857421875 61.9404296875 14.314453125 61.876953125 14.771484375 61.8134765625 15.2158203125 61.75 15.66015625 61.75 16.0537109375 61.75 16.447265625 61.826171875 16.701171875 61.19140625 16.498046875 60.353515625 16.2568359375 59.515625 16.015625 58.5380859375 15.888671875 57.560546875 15.76171875 56.5068359375 15.7998046875 55.453125 15.837890625 54.412109375 16.16796875 54.38671875 17.1328125 54.5517578125 18.0849609375 54.716796875 19.037109375 55.09765625 19.900390625 55.427734375 20.63671875 55.859375 21.1953125 56.291015625 21.75390625 56.7861328125 22.0458984375 57.28125 22.337890625 57.8017578125 22.36328125 58.322265625 22.388671875 58.85546875 22.05859375 59.287109375 21.75390625 59.515625 21.322265625 59.71875 20.966796875 59.6806640625 20.458984375 59.642578125 19.951171875 59.134765625 19.291015625 L62.30859375 19.138671875 Q62.130859375 19.646484375 61.7880859375 20.408203125 61.4453125 21.169921875 60.861328125 21.880859375 60.27734375 22.591796875 59.4140625 23.07421875 58.55078125 23.556640625 57.33203125 23.505859375 56.11328125 23.4296875 55.1357421875 22.7314453125 54.158203125 22.033203125 53.498046875 20.916015625 52.837890625 19.798828125 52.5078125 18.3896484375 52.177734375 16.98046875 52.25390625 15.482421875 zM58.55078125 9.388671875 Q57.83984375 9.3125 57.1669921875 9.744140625 56.494140625 10.17578125 55.9482421875 10.9755859375 55.40234375 11.775390625 55.021484375 12.8671875 54.640625 13.958984375 54.48828125 15.15234375 55.935546875 14.974609375 57.1796875 14.9619140625 58.423828125 14.94921875 59.490234375 15.126953125 59.76953125 14.54296875 59.998046875 13.6162109375 60.2265625 12.689453125 60.201171875 11.7880859375 60.17578125 10.88671875 59.8076171875 10.201171875 59.439453125 9.515625 58.55078125 9.388671875 z" /><path d="M74.826171875 11.419921875 Q74.80078125 11.8515625 74.7373046875 12.15625 74.673828125 12.4609375 74.6484375 12.7021484375 74.623046875 12.943359375 74.673828125 13.146484375 74.724609375 13.349609375 74.953125 13.603515625 74.267578125 13.400390625 73.708984375 13.3115234375 73.150390625 13.22265625 72.71875 13.171875 72.236328125 13.146484375 71.85546875 13.171875 72.109375 12.81640625 72.1982421875 12.384765625 72.287109375 11.953125 72.337890625 11.318359375 72.36328125 10.861328125 72.287109375 10.37890625 72.2109375 9.896484375 71.779296875 9.76953125 71.6015625 9.744140625 71.3984375 9.744140625 71.1953125 9.744140625 70.94140625 9.8583984375 70.6875 9.97265625 70.357421875 10.2265625 70.02734375 10.48046875 69.62109375 10.962890625 69.037109375 11.6484375 68.580078125 12.4228515625 68.123046875 13.197265625 67.79296875 13.958984375 67.462890625 14.720703125 67.2724609375 15.3935546875 67.08203125 16.06640625 67.056640625 16.548828125 67.056640625 16.625 67.03125 16.650390625 67.08203125 17.640625 67.158203125 18.50390625 67.234375 19.3671875 67.310546875 19.9765625 67.38671875 20.560546875 67.5263671875 20.94140625 67.666015625 21.322265625 67.84375 21.5634765625 68.021484375 21.8046875 68.224609375 21.95703125 68.427734375 22.109375 68.60546875 22.236328125 L68.65625 22.76953125 Q68.30078125 22.6171875 67.640625 22.5537109375 66.98046875 22.490234375 66.2314453125 22.541015625 65.482421875 22.591796875 64.720703125 22.76953125 63.958984375 22.947265625 63.42578125 23.251953125 L63.349609375 22.66796875 Q64.060546875 22.388671875 64.6572265625 21.6142578125 65.25390625 20.83984375 65.40625 19.189453125 65.482421875 18.376953125 65.5712890625 17.513671875 65.66015625 16.650390625 65.685546875 15.76171875 65.7109375 14.873046875 65.66015625 13.93359375 65.609375 12.994140625 65.380859375 12.00390625 65.177734375 11.29296875 64.923828125 10.68359375 64.720703125 10.17578125 64.4033203125 9.7314453125 64.0859375 9.287109375 63.705078125 9.185546875 L63.654296875 8.6015625 Q63.958984375 8.65234375 64.4287109375 8.703125 64.8984375 8.75390625 65.431640625 8.7919921875 65.96484375 8.830078125 66.5234375 8.830078125 67.08203125 8.830078125 67.58984375 8.779296875 67.48828125 9.236328125 67.3232421875 10.48046875 67.158203125 11.724609375 67.056640625 13.2734375 67.38671875 12.51171875 67.919921875 11.572265625 68.453125 10.6328125 69.1640625 9.845703125 69.875 9.05859375 70.763671875 8.5634765625 71.65234375 8.068359375 72.71875 8.169921875 73.353515625 8.24609375 73.7724609375 8.6015625 74.19140625 8.95703125 74.4326171875 9.439453125 74.673828125 9.921875 74.7626953125 10.455078125 74.8515625 10.98828125 74.826171875 11.419921875 z" /><path d="M85.947265625 27.162109375 Q85.896484375 28.279296875 85.5283203125 29.142578125 85.16015625 30.005859375 84.55078125 30.5771484375 83.94140625 31.1484375 83.1416015625 31.453125 82.341796875 31.7578125 81.427734375 31.783203125 80.513671875 31.80859375 79.7900390625 31.478515625 79.06640625 31.1484375 78.55859375 30.615234375 78.05078125 30.08203125 77.7841796875 29.37109375 77.517578125 28.66015625 77.54296875 27.923828125 77.568359375 27.1875 77.8603515625 26.62890625 78.15234375 26.0703125 78.634765625 25.7021484375 79.1171875 25.333984375 79.701171875 25.15625 80.28515625 24.978515625 80.869140625 24.978515625 81.884765625 25.00390625 82.265625 25.61328125 82.646484375 26.22265625 82.646484375 27.009765625 82.646484375 27.44140625 82.5068359375 27.873046875 82.3671875 28.3046875 82.1005859375 28.6474609375 81.833984375 28.990234375 81.4658203125 29.2060546875 81.09765625 29.421875 80.640625 29.421875 80.4375 29.421875 80.208984375 29.37109375 79.98046875 29.3203125 79.7900390625 29.1552734375 79.599609375 28.990234375 79.47265625 28.6982421875 79.345703125 28.40625 79.345703125 27.923828125 79.345703125 27.212890625 79.67578125 26.806640625 80.005859375 26.400390625 80.513671875 26.375 80.869140625 26.375 81.0849609375 26.578125 81.30078125 26.78125 81.3388671875 27.03515625 81.376953125 27.2890625 81.2373046875 27.4921875 81.09765625 27.6953125 80.7421875 27.6953125 80.38671875 27.669921875 80.38671875 27.4033203125 80.38671875 27.13671875 80.513671875 26.93359375 80.310546875 27.03515625 80.1455078125 27.263671875 79.98046875 27.4921875 79.98046875 27.84765625 79.98046875 28.3046875 80.208984375 28.55859375 80.4375 28.8125 80.79296875 28.8125 81.046875 28.8125 81.2626953125 28.6474609375 81.478515625 28.482421875 81.630859375 28.2412109375 81.783203125 28 81.8720703125 27.7080078125 81.9609375 27.416015625 81.9609375 27.13671875 81.9609375 26.32421875 81.4404296875 25.91796875 80.919921875 25.51171875 80.208984375 25.5625 79.9296875 25.587890625 79.57421875 25.765625 79.21875 25.943359375 78.9140625 26.2607421875 78.609375 26.578125 78.40625 27.009765625 78.203125 27.44140625 78.228515625 27.94921875 78.25390625 28.45703125 78.431640625 28.939453125 78.609375 29.421875 78.990234375 29.7900390625 79.37109375 30.158203125 79.9423828125 30.3359375 80.513671875 30.513671875 81.30078125 30.4375 82.875 30.28515625 83.7001953125 28.583984375 84.525390625 26.8828125 84.474609375 24.064453125 84.44921875 23.125 84.423828125 22.4267578125 84.3984375 21.728515625 84.373046875 21.1953125 84.34765625 20.662109375 84.3349609375 20.23046875 84.322265625 19.798828125 84.322265625 19.3671875 84.119140625 20.052734375 83.8017578125 20.7890625 83.484375 21.525390625 82.9638671875 22.134765625 82.443359375 22.744140625 81.6943359375 23.125 80.9453125 23.505859375 79.904296875 23.48046875 79.1171875 23.455078125 78.533203125 23.1630859375 77.94921875 22.87109375 77.5302734375 22.36328125 77.111328125 21.85546875 76.8447265625 21.169921875 76.578125 20.484375 76.4765625 19.671875 76.349609375 18.65625 76.4638671875 17.6279296875 76.578125 16.599609375 76.73046875 15.609375 76.8828125 14.314453125 76.9462890625 13.400390625 77.009765625 12.486328125 76.8955078125 11.8642578125 76.78125 11.2421875 76.4384765625 10.8232421875 76.095703125 10.404296875 75.4609375 10.048828125 L75.740234375 9.541015625 Q76.01953125 9.6171875 76.3115234375 9.7060546875 76.603515625 9.794921875 77.0478515625 9.8330078125 77.4921875 9.87109375 78.177734375 9.845703125 78.86328125 9.8203125 79.9296875 9.693359375 79.7265625 10.07421875 79.5234375 10.6962890625 79.3203125 11.318359375 79.142578125 12.0673828125 78.96484375 12.81640625 78.8251953125 13.654296875 78.685546875 14.4921875 78.609375 15.279296875 78.533203125 16.06640625 78.5458984375 17.03125 78.55859375 17.99609375 78.736328125 18.8466796875 78.9140625 19.697265625 79.3076171875 20.2939453125 79.701171875 20.890625 80.38671875 20.94140625 81.072265625 20.9921875 81.6181640625 20.662109375 82.1640625 20.33203125 82.5576171875 19.875 82.951171875 19.41796875 83.1669921875 18.9609375 83.3828125 18.50390625 83.43359375 18.30078125 83.484375 18.09765625 83.560546875 17.5009765625 83.63671875 16.904296875 83.6875 16.091796875 83.73828125 15.279296875 83.763671875 14.365234375 83.7890625 13.451171875 83.73828125 12.638671875 83.6875 11.90234375 83.5478515625 11.419921875 83.408203125 10.9375 83.205078125 10.6328125 83.001953125 10.328125 82.7607421875 10.150390625 82.51953125 9.97265625 82.265625 9.87109375 L82.41796875 9.36328125 Q82.82421875 9.541015625 83.3701171875 9.642578125 83.916015625 9.744140625 84.5126953125 9.7822265625 85.109375 9.8203125 85.6552734375 9.8076171875 86.201171875 9.794921875 86.607421875 9.71875 85.947265625 11.08984375 85.6171875 13.2861328125 85.287109375 15.482421875 85.4140625 18.60546875 85.46484375 20.02734375 85.56640625 21.119140625 85.66796875 22.2109375 85.76953125 23.17578125 85.87109375 24.140625 85.921875 25.0927734375 85.97265625 26.044921875 85.947265625 27.162109375 z" /><path d="M102.52734375 22.109375 Q103.54296875 22.05859375 104.5078125 21.3984375 104.15234375 20.83984375 103.7841796875 20.408203125 103.416015625 19.9765625 102.984375 19.697265625 102.578125 19.41796875 102.0703125 19.2783203125 101.5625 19.138671875 101.130859375 19.189453125 100.673828125 19.240234375 100.39453125 19.51953125 100.115234375 19.798828125 100.19140625 20.33203125 100.216796875 20.611328125 100.4072265625 20.9287109375 100.59765625 21.24609375 100.90234375 21.5126953125 101.20703125 21.779296875 101.61328125 21.95703125 102.01953125 22.134765625 102.52734375 22.109375 zM102.22265625 23.37890625 Q100.826171875 23.353515625 99.4931640625 22.56640625 98.16015625 21.779296875 97.14453125 20.3955078125 96.12890625 19.01171875 95.5830078125 17.08203125 95.037109375 15.15234375 95.189453125 12.81640625 95.341796875 10.759765625 95.9765625 8.95703125 96.611328125 7.154296875 97.6904296875 5.8212890625 98.76953125 4.48828125 100.2802734375 3.7392578125 101.791015625 2.990234375 103.720703125 3.041015625 105.244140625 3.091796875 106.513671875 3.7900390625 107.783203125 4.48828125 108.7099609375 5.732421875 109.63671875 6.9765625 110.14453125 8.7158203125 110.65234375 10.455078125 110.65234375 12.587890625 110.626953125 14.03515625 110.3349609375 15.4443359375 110.04296875 16.853515625 109.509765625 18.0849609375 108.9765625 19.31640625 108.2021484375 20.3447265625 107.427734375 21.373046875 106.4375 22.083984375 106.767578125 23.150390625 107.1357421875 24.3310546875 107.50390625 25.51171875 107.986328125 26.5146484375 108.46875 27.517578125 109.12890625 28.228515625 109.7890625 28.939453125 110.703125 29.06640625 111.6171875 29.193359375 112.2138671875 28.888671875 112.810546875 28.583984375 113.166015625 28.0888671875 113.521484375 27.59375 113.6611328125 27.009765625 113.80078125 26.42578125 113.775390625 25.994140625 113.775390625 25.5625 113.572265625 25.1943359375 113.369140625 24.826171875 113.0517578125 24.572265625 112.734375 24.318359375 112.3408203125 24.2041015625 111.947265625 24.08984375 111.541015625 24.19140625 111.134765625 24.29296875 110.7919921875 24.5087890625 110.44921875 24.724609375 110.24609375 25.00390625 110.04296875 25.283203125 109.9794921875 25.6259765625 109.916015625 25.96875 110.068359375 26.298828125 110.220703125 26.62890625 110.474609375 26.806640625 110.728515625 26.984375 111.0078125 27.03515625 111.287109375 27.0859375 111.541015625 27.03515625 111.794921875 26.984375 111.947265625 26.8828125 112.17578125 26.6796875 112.27734375 26.248046875 112.37890625 25.81640625 111.947265625 25.51171875 111.97265625 25.71484375 111.87109375 25.91796875 111.76953125 26.12109375 111.490234375 26.22265625 111.2109375 26.298828125 110.982421875 26.1591796875 110.75390625 26.01953125 110.6904296875 25.791015625 110.626953125 25.5625 110.7666015625 25.30859375 110.90625 25.0546875 111.337890625 24.90234375 111.515625 24.8515625 111.7822265625 24.876953125 112.048828125 24.90234375 112.302734375 25.0419921875 112.556640625 25.181640625 112.734375 25.4228515625 112.912109375 25.6640625 112.912109375 26.044921875 112.912109375 26.42578125 112.7724609375 26.755859375 112.6328125 27.0859375 112.3916015625 27.314453125 112.150390625 27.54296875 111.845703125 27.669921875 111.541015625 27.796875 111.2109375 27.796875 110.880859375 27.796875 110.55078125 27.7080078125 110.220703125 27.619140625 109.9287109375 27.4287109375 109.63671875 27.23828125 109.458984375 26.908203125 109.28125 26.578125 109.255859375 26.044921875 109.23046875 25.51171875 109.43359375 25.0673828125 109.63671875 24.623046875 109.966796875 24.2802734375 110.296875 23.9375 110.728515625 23.7470703125 111.16015625 23.556640625 111.6171875 23.53125 112.27734375 23.48046875 112.810546875 23.68359375 113.34375 23.88671875 113.724609375 24.267578125 114.10546875 24.6484375 114.30859375 25.181640625 114.51171875 25.71484375 114.537109375 26.32421875 114.5625 26.984375 114.3212890625 27.6572265625 114.080078125 28.330078125 113.623046875 28.86328125 113.166015625 29.396484375 112.505859375 29.7138671875 111.845703125 30.03125 111.0078125 29.98046875 109.7890625 29.9296875 108.7607421875 29.3330078125 107.732421875 28.736328125 106.89453125 27.314453125 106.58984375 26.755859375 106.361328125 26.0830078125 106.1328125 25.41015625 105.87890625 24.6484375 105.7265625 24.140625 105.5615234375 23.6708984375 105.396484375 23.201171875 105.21875 22.76953125 103.84765625 23.404296875 102.22265625 23.37890625 zM103.33984375 3.9296875 Q102.2734375 3.98046875 101.15625 4.7548828125 100.0390625 5.529296875 99.1376953125 6.849609375 98.236328125 8.169921875 97.677734375 9.947265625 97.119140625 11.724609375 97.169921875 13.73046875 97.220703125 15.66015625 97.7666015625 17.03125 98.3125 18.40234375 98.87109375 19.189453125 98.947265625 18.7578125 99.2646484375 18.4150390625 99.58203125 18.072265625 100.216796875 17.84375 100.80078125 17.615234375 101.5498046875 17.6533203125 102.298828125 17.69140625 103.060546875 17.99609375 103.822265625 18.30078125 104.5205078125 18.8720703125 105.21875 19.443359375 105.7265625 20.306640625 106.79296875 19.087890625 107.529296875 16.955078125 108.265625 14.822265625 108.240234375 11.775390625 108.240234375 10.328125 107.8720703125 8.90625 107.50390625 7.484375 106.8564453125 6.3671875 106.208984375 5.25 105.3076171875 4.5771484375 104.40625 3.904296875 103.33984375 3.9296875 z" /><path d="M122.966796875 21.423828125 Q123.14453125 21.423828125 123.322265625 21.322265625 123.474609375 21.24609375 123.6142578125 21.09375 123.75390625 20.94140625 123.85546875 20.63671875 L124.236328125 20.63671875 Q124.2109375 20.890625 124.083984375 21.2080078125 123.95703125 21.525390625 123.703125 21.7919921875 123.44921875 22.05859375 123.068359375 22.236328125 122.6875 22.4140625 122.1796875 22.36328125 120.5546875 22.2109375 120.224609375 19.21484375 119.99609375 19.82421875 119.7041015625 20.458984375 119.412109375 21.09375 119.005859375 21.626953125 118.599609375 22.16015625 118.0537109375 22.5029296875 117.5078125 22.845703125 116.74609375 22.845703125 115.78125 22.845703125 115.0576171875 22.4521484375 114.333984375 22.05859375 113.8515625 21.3984375 113.369140625 20.73828125 113.166015625 19.8876953125 112.962890625 19.037109375 113.013671875 18.123046875 113.08984375 16.853515625 113.369140625 15.5458984375 113.6484375 14.23828125 113.7119140625 13.0830078125 113.775390625 11.927734375 113.4326171875 11.0517578125 113.08984375 10.17578125 111.921875 9.76953125 L112.0234375 9.388671875 Q112.404296875 9.46484375 112.861328125 9.591796875 113.318359375 9.71875 113.826171875 9.794921875 114.333984375 9.87109375 114.9052734375 9.87109375 115.4765625 9.87109375 116.060546875 9.71875 115.755859375 10.37890625 115.5146484375 10.962890625 115.2734375 11.546875 115.12109375 12.2578125 114.96875 12.96875 114.892578125 13.8828125 114.81640625 14.796875 114.81640625 16.142578125 114.81640625 17.48828125 115.0322265625 18.40234375 115.248046875 19.31640625 115.6416015625 19.849609375 116.03515625 20.3828125 116.568359375 20.5986328125 117.1015625 20.814453125 117.76171875 20.763671875 118.396484375 20.6875 118.8408203125 20.1669921875 119.28515625 19.646484375 119.5771484375 18.7958984375 119.869140625 17.9453125 120.0341796875 16.853515625 120.19921875 15.76171875 120.25 14.54296875 120.30078125 13.32421875 120.2626953125 12.4609375 120.224609375 11.59765625 120.072265625 11.013671875 119.919921875 10.4296875 119.615234375 10.0615234375 119.310546875 9.693359375 118.802734375 9.490234375 L118.853515625 9.083984375 Q119.310546875 9.083984375 119.9453125 9.083984375 120.580078125 9.083984375 121.21484375 9.0458984375 121.849609375 9.0078125 122.3955078125 8.931640625 122.94140625 8.85546875 123.220703125 8.728515625 122.7890625 9.56640625 122.4462890625 10.8486328125 122.103515625 12.130859375 121.875 13.5400390625 121.646484375 14.94921875 121.5703125 16.3583984375 121.494140625 17.767578125 121.62109375 18.8974609375 121.748046875 20.02734375 122.0654296875 20.7255859375 122.3828125 21.423828125 122.966796875 21.423828125 z" /><path d="M124.76953125 15.482421875 Q124.845703125 13.984375 125.4169921875 12.689453125 125.98828125 11.39453125 126.90234375 10.4677734375 127.81640625 9.541015625 128.9716796875 9.05859375 130.126953125 8.576171875 131.37109375 8.728515625 132.615234375 8.880859375 133.2880859375 9.490234375 133.9609375 10.099609375 134.240234375 10.8486328125 134.51953125 11.59765625 134.544921875 12.333984375 134.5703125 13.0703125 134.544921875 13.4765625 134.51953125 13.857421875 134.4560546875 14.314453125 134.392578125 14.771484375 134.3291015625 15.2158203125 134.265625 15.66015625 134.265625 16.0537109375 134.265625 16.447265625 134.341796875 16.701171875 133.70703125 16.498046875 132.869140625 16.2568359375 132.03125 16.015625 131.0537109375 15.888671875 130.076171875 15.76171875 129.0224609375 15.7998046875 127.96875 15.837890625 126.927734375 16.16796875 126.90234375 17.1328125 127.0673828125 18.0849609375 127.232421875 19.037109375 127.61328125 19.900390625 127.943359375 20.63671875 128.375 21.1953125 128.806640625 21.75390625 129.3017578125 22.0458984375 129.796875 22.337890625 130.3173828125 22.36328125 130.837890625 22.388671875 131.37109375 22.05859375 131.802734375 21.75390625 132.03125 21.322265625 132.234375 20.966796875 132.1962890625 20.458984375 132.158203125 19.951171875 131.650390625 19.291015625 L134.82421875 19.138671875 Q134.646484375 19.646484375 134.3037109375 20.408203125 133.9609375 21.169921875 133.376953125 21.880859375 132.79296875 22.591796875 131.9296875 23.07421875 131.06640625 23.556640625 129.84765625 23.505859375 128.62890625 23.4296875 127.6513671875 22.7314453125 126.673828125 22.033203125 126.013671875 20.916015625 125.353515625 19.798828125 125.0234375 18.3896484375 124.693359375 16.98046875 124.76953125 15.482421875 zM131.06640625 9.388671875 Q130.35546875 9.3125 129.6826171875 9.744140625 129.009765625 10.17578125 128.4638671875 10.9755859375 127.91796875 11.775390625 127.537109375 12.8671875 127.15625 13.958984375 127.00390625 15.15234375 128.451171875 14.974609375 129.6953125 14.9619140625 130.939453125 14.94921875 132.005859375 15.126953125 132.28515625 14.54296875 132.513671875 13.6162109375 132.7421875 12.689453125 132.716796875 11.7880859375 132.69140625 10.88671875 132.3232421875 10.201171875 131.955078125 9.515625 131.06640625 9.388671875 z" /><path d="M145.7421875 21.220703125 Q145.58984375 21.75390625 145.2978515625 22.36328125 145.005859375 22.97265625 144.5234375 23.505859375 144.041015625 24.0390625 143.3681640625 24.4072265625 142.6953125 24.775390625 141.83203125 24.826171875 141.22265625 24.876953125 140.6767578125 24.7373046875 140.130859375 24.59765625 139.6865234375 24.34375 139.2421875 24.08984375 138.912109375 23.759765625 138.58203125 23.4296875 138.404296875 23.099609375 138.099609375 22.439453125 138.07421875 21.7666015625 138.048828125 21.09375 138.328125 20.5859375 138.734375 19.92578125 139.2041015625 19.748046875 139.673828125 19.5703125 140.10546875 19.51953125 140.51171875 19.46875 140.943359375 19.5703125 141.375 19.671875 141.705078125 19.900390625 142.03515625 20.12890625 142.23828125 20.4716796875 142.44140625 20.814453125 142.416015625 21.24609375 142.390625 21.6015625 142.2255859375 21.8935546875 142.060546875 22.185546875 141.806640625 22.4013671875 141.552734375 22.6171875 141.2734375 22.7314453125 140.994140625 22.845703125 140.765625 22.8203125 140.41015625 22.76953125 140.029296875 22.5791015625 139.6484375 22.388671875 139.59765625 22.0078125 139.546875 21.626953125 139.6865234375 21.3095703125 139.826171875 20.9921875 140.130859375 20.865234375 140.587890625 20.6875 140.8544921875 20.7255859375 141.12109375 20.763671875 141.2353515625 20.916015625 141.349609375 21.068359375 141.375 21.24609375 141.400390625 21.423828125 141.375 21.525390625 141.298828125 21.779296875 141.12109375 21.880859375 140.96875 21.982421875 140.71484375 21.9443359375 140.4609375 21.90625 140.080078125 21.6015625 140.00390625 21.880859375 140.10546875 22.05859375 140.20703125 22.236328125 140.359375 22.3125 140.537109375 22.4140625 140.81640625 22.439453125 141.349609375 22.490234375 141.654296875 22.0966796875 141.958984375 21.703125 141.9208984375 21.220703125 141.8828125 20.73828125 141.451171875 20.357421875 141.01953125 19.9765625 140.10546875 20.02734375 139.546875 20.078125 139.2421875 20.3828125 138.9375 20.6875 138.8359375 21.1064453125 138.734375 21.525390625 138.8486328125 21.982421875 138.962890625 22.439453125 139.2421875 22.76953125 139.546875 23.125 139.927734375 23.328125 140.30859375 23.53125 140.71484375 23.607421875 141.12109375 23.68359375 141.52734375 23.6455078125 141.93359375 23.607421875 142.2890625 23.455078125 142.6953125 23.27734375 143.1015625 22.8203125 143.5078125 22.36328125 143.7109375 21.7158203125 143.9140625 21.068359375 143.7998046875 20.2685546875 143.685546875 19.46875 143.05078125 18.630859375 142.720703125 18.173828125 141.857421875 17.5517578125 140.994140625 16.9296875 140.00390625 16.2060546875 139.013671875 15.482421875 138.1123046875 14.6953125 137.2109375 13.908203125 136.8046875 13.0703125 136.423828125 12.2578125 136.3984375 11.19140625 136.373046875 10.125 136.880859375 9.134765625 137.388671875 8.14453125 138.5439453125 7.357421875 139.69921875 6.5703125 141.654296875 6.31640625 143.05078125 6.138671875 144.2060546875 6.51953125 145.361328125 6.900390625 146.123046875 7.63671875 146.884765625 8.373046875 147.1513671875 9.4013671875 147.41796875 10.4296875 147.037109375 11.546875 146.935546875 11.90234375 146.6943359375 12.283203125 146.453125 12.6640625 146.0849609375 12.994140625 145.716796875 13.32421875 145.208984375 13.5146484375 144.701171875 13.705078125 144.091796875 13.654296875 143.634765625 13.62890625 143.126953125 13.4130859375 142.619140625 13.197265625 142.1875 12.8544921875 141.755859375 12.51171875 141.42578125 12.080078125 141.095703125 11.6484375 141.01953125 11.166015625 140.81640625 10.099609375 141.3623046875 9.439453125 141.908203125 8.779296875 143.05078125 8.677734375 143.55859375 8.65234375 143.990234375 8.8427734375 144.421875 9.033203125 144.7265625 9.337890625 145.03125 9.642578125 145.18359375 10.0361328125 145.3359375 10.4296875 145.28515625 10.759765625 145.1328125 11.90234375 144.015625 12.0546875 143.609375 12.10546875 143.1396484375 11.927734375 142.669921875 11.75 142.466796875 11.2421875 142.33984375 10.88671875 142.416015625 10.4169921875 142.4921875 9.947265625 142.923828125 9.71875 143.126953125 9.6171875 143.3681640625 9.642578125 143.609375 9.66796875 143.787109375 9.7822265625 143.96484375 9.896484375 144.041015625 10.099609375 144.1171875 10.302734375 144.041015625 10.58203125 143.96484375 10.759765625 143.8125 10.861328125 143.685546875 10.9375 143.45703125 10.9501953125 143.228515625 10.962890625 142.84765625 10.78515625 142.873046875 11.115234375 143.0380859375 11.267578125 143.203125 11.419921875 143.40625 11.470703125 143.634765625 11.546875 143.888671875 11.546875 144.345703125 11.49609375 144.5869140625 11.2802734375 144.828125 11.064453125 144.87890625 10.7724609375 144.9296875 10.48046875 144.77734375 10.150390625 144.625 9.8203125 144.26953125 9.515625 143.76171875 9.134765625 143.076171875 9.1474609375 142.390625 9.16015625 141.8828125 9.71875 141.22265625 10.53125 141.5400390625 11.318359375 141.857421875 12.10546875 142.822265625 12.61328125 142.974609375 12.689453125 143.1904296875 12.791015625 143.40625 12.892578125 143.6982421875 12.9052734375 143.990234375 12.91796875 144.345703125 12.81640625 144.701171875 12.71484375 145.158203125 12.41015625 145.84375 11.953125 145.970703125 11.19140625 146.09765625 10.4296875 145.8564453125 9.66796875 145.615234375 8.90625 145.0439453125 8.296875 144.47265625 7.6875 143.736328125 7.53515625 142.923828125 7.3828125 142.2763671875 7.4462890625 141.62890625 7.509765625 141.12109375 7.7001953125 140.61328125 7.890625 140.20703125 8.1572265625 139.80078125 8.423828125 139.49609375 8.677734375 139.369140625 8.8046875 139.115234375 9.134765625 138.861328125 9.46484375 138.68359375 9.9599609375 138.505859375 10.455078125 138.5185546875 11.1025390625 138.53125 11.75 138.962890625 12.486328125 139.369140625 13.197265625 140.0166015625 13.7177734375 140.6640625 14.23828125 141.3876953125 14.6826171875 142.111328125 15.126953125 142.822265625 15.5458984375 143.533203125 15.96484375 144.091796875 16.447265625 144.701171875 16.955078125 145.0693359375 17.6025390625 145.4375 18.25 145.6279296875 18.9228515625 145.818359375 19.595703125 145.8310546875 20.205078125 145.84375 20.814453125 145.7421875 21.220703125 z" /><path d="M153.96875 21.525390625 Q154.552734375 21.525390625 155.060546875 21.119140625 155.568359375 20.712890625 155.771484375 19.748046875 L156.3046875 19.951171875 Q156.228515625 20.560546875 155.822265625 21.1826171875 155.416015625 21.8046875 154.78125 22.236328125 154.146484375 22.66796875 153.3466796875 22.794921875 152.546875 22.921875 151.708984375 22.541015625 150.794921875 22.109375 150.388671875 21.423828125 149.982421875 20.73828125 149.880859375 19.8369140625 149.779296875 18.935546875 149.85546875 17.8818359375 149.931640625 16.828125 149.931640625 15.685546875 149.931640625 15.025390625 149.9189453125 14.1240234375 149.90625 13.22265625 149.8681640625 12.20703125 149.830078125 11.19140625 149.75390625 10.1123046875 149.677734375 9.033203125 149.6015625 7.9921875 148.73828125 8.09375 147.9638671875 8.2333984375 147.189453125 8.373046875 146.65625 8.576171875 146.630859375 8.34765625 146.6435546875 8.220703125 146.65625 8.09375 146.6689453125 7.9794921875 146.681640625 7.865234375 146.681640625 7.7255859375 146.681640625 7.5859375 146.630859375 7.33203125 147.240234375 7.28125 147.9892578125 7.23046875 148.73828125 7.1796875 149.525390625 7.12890625 149.5 6.7734375 149.474609375 6.4306640625 149.44921875 6.087890625 149.3984375 5.7578125 149.271484375 4.564453125 148.9287109375 3.853515625 148.5859375 3.142578125 148.1796875 2.76171875 147.7734375 2.380859375 147.41796875 2.2412109375 147.0625 2.1015625 146.884765625 2.05078125 L146.9609375 1.568359375 Q147.443359375 1.771484375 148.154296875 1.8349609375 148.865234375 1.8984375 149.6396484375 1.8349609375 150.4140625 1.771484375 151.1630859375 1.59375 151.912109375 1.416015625 152.470703125 1.13671875 152.216796875 1.84765625 152.0263671875 3.396484375 151.8359375 4.9453125 151.708984375 7.001953125 153.029296875 6.92578125 153.61328125 6.798828125 153.486328125 6.951171875 153.486328125 7.2939453125 153.486328125 7.63671875 153.5625 7.916015625 153.130859375 7.865234375 152.6484375 7.8525390625 152.166015625 7.83984375 151.658203125 7.83984375 151.58203125 9.3125 151.556640625 10.912109375 151.53125 12.51171875 151.5947265625 14.0732421875 151.658203125 15.634765625 151.7978515625 17.1201171875 151.9375 18.60546875 152.166015625 19.849609375 152.369140625 20.73828125 152.876953125 21.119140625 153.384765625 21.5 153.96875 21.525390625 z" /></g></svg>