<svg width="170" height="30" xmlns="http://www.w3.org/2000/svg" viewBox="0 0 170 30"><g fill="currentColor"><path d="M7.1982421875 17.412109375 L7.490234375 24.19140625 7.490234375 24.470703125 Q7.490234375 24.775390625 7.4140625 24.8515625 7.2109375 25.029296875 6.9697265625 25.029296875 6.728515625 25.029296875 6.576171875 24.90234375 6.423828125 24.775390625 6.423828125 24.5849609375 6.5 24.4326171875 6.5 24.2802734375 L6.423828125 23.759765625 6.423828125 21.1826171875 Q6.423828125 20.83984375 5.052734375 20.59228515625 3.681640625 20.3447265625 3.021484375 20.3447265625 2.767578125 20.3447265625 2.564453125 21.29052734375 2.361328125 22.236328125 2.1708984375 23.3662109375 1.98046875 24.49609375 1.7900390625 24.775390625 1.1806640625 24.775390625 0.990234375 24.4580078125 1.396484375 23.8740234375 1.77099609375 21.6142578125 2.1455078125 19.3544921875 2.3740234375 18.33251953125 2.6025390625 17.310546875 3.19287109375 13.8955078125 3.783203125 10.48046875 3.99267578125 9.52197265625 4.2021484375 8.5634765625 4.31640625 8.1064453125 4.4306640625 7.6494140625 4.6083984375 7.02734375 5.02734375 5.529296875 5.357421875 5.529296875 5.763671875 5.529296875 5.89697265625 5.71337890625 6.0302734375 5.8974609375 6.12548828125 6.57666015625 6.220703125 7.255859375 6.31591796875 8.30322265625 6.4111328125 9.3505859375 6.4873046875 10.2265625 6.728515625 12.96875 6.78564453125 13.83203125 6.8427734375 14.6953125 7.0205078125 15.076171875 6.9697265625 15.86328125 6.9697265625 16.42822265625 6.9697265625 16.9931640625 7.1982421875 17.412109375 zM2.9326171875 19.62109375 Q4.0244140625 19.9892578125 5.560546875 19.9892578125 5.8779296875 19.9892578125 6.0302734375 19.9384765625 L6.1572265625 19.9892578125 Q6.3984375 19.9892578125 6.3984375 19.748046875 6.3984375 14.314453125 5.3828125 8.0302734375 5.3701171875 7.9541015625 5.32568359375 7.7509765625 5.28125 7.5478515625 5.28125 7.43359375 4.9638671875 8.3349609375 4.9384765625 8.576171875 L5.0146484375 8.728515625 Q4.92578125 8.8173828125 4.72265625 9.62353515625 4.51953125 10.4296875 4.15771484375 12.94970703125 3.7958984375 15.4697265625 3.63720703125 16.18701171875 3.478515625 16.904296875 3.30078125 17.48828125 2.9326171875 18.783203125 2.9326171875 19.46875 L2.9326171875 19.62109375 z" /><path d="M20.642578125 19.849609375 L20.591796875 22.5791015625 Q20.591796875 24.39453125 20.845703125 25.283203125 20.896484375 25.435546875 20.896484375 25.61328125 20.896484375 25.791015625 20.73779296875 26.0830078125 20.5791015625 26.375 20.3251953125 26.375 19.8046875 26.375 19.8046875 24.7119140625 19.8046875 19.291015625 19.72216796875 18.10400390625 19.6396484375 16.9169921875 19.54443359375 16.1806640625 19.44921875 15.4443359375 19.44921875 15.05078125 L19.55078125 11.826171875 Q19.55078125 10.912109375 19.44921875 10.5947265625 18.94140625 11.0009765625 16.326171875 21.55078125 16.30078125 21.6396484375 16.26904296875 21.931640625 16.2373046875 22.2236328125 16.19287109375 22.47119140625 16.1484375 22.71875 16.072265625 22.9853515625 15.9072265625 23.5693359375 15.5390625 23.5693359375 15.107421875 23.5693359375 14.93603515625 23.35986328125 14.7646484375 23.150390625 14.7646484375 22.71875 14.7646484375 21.65234375 13.4189453125 16.26953125 12.0732421875 10.88671875 11.6162109375 10.4423828125 11.552734375 11.8388671875 11.3876953125 14.720703125 11.044921875 20.7255859375 11.044921875 22.7822265625 11.044921875 24.8388671875 11.0703125 25.181640625 10.9560546875 25.5244140625 10.5244140625 25.5244140625 10.435546875 25.5244140625 10.2578125 25.384765625 10.080078125 25.2451171875 10.080078125 25.15625 10.080078125 22.4140625 10.486328125 16.955078125 10.892578125 11.49609375 10.892578125 8.75390625 L10.740234375 8.2587890625 Q10.740234375 7.865234375 11.4384765625 7.865234375 11.83203125 7.865234375 11.9462890625 8.271484375 12.03515625 8.5888671875 12.05419921875 8.92529296875 12.0732421875 9.26171875 12.1494140625 9.68701171875 12.2255859375 10.1123046875 12.81591796875 11.43896484375 13.40625 12.765625 13.533203125 13.2353515625 13.66015625 13.705078125 13.86328125 14.390625 14.2822265625 15.8759765625 14.421875 16.625 L14.7646484375 17.310546875 Q14.8408203125 17.7421875 15.056640625 18.580078125 15.48828125 20.3447265625 15.513671875 21.3857421875 15.818359375 20.9287109375 17.1513671875 16.00927734375 18.484375 11.08984375 18.60498046875 10.4423828125 18.7255859375 9.794921875 18.7763671875 9.45849609375 18.8271484375 9.1220703125 18.8779296875 8.92529296875 18.9287109375 8.728515625 19.017578125 8.44921875 19.2080078125 7.916015625 19.65234375 7.916015625 19.8173828125 7.916015625 20.05859375 8.068359375 20.2998046875 8.220703125 20.2998046875 8.3857421875 20.2998046875 19.2783203125 20.642578125 19.849609375 zM19.44921875 10.4423828125 L19.423828125 10.4423828125 19.3857421875 10.4677734375 19.44921875 10.4931640625 19.44921875 10.4423828125 z" /><path d="M26.8759765625 21.1572265625 L26.1904296875 21.1826171875 Q25.822265625 21.0302734375 25.3779296875 21.0302734375 24.93359375 21.0302734375 24.8955078125 21.0556640625 24.857421875 21.0810546875 24.8447265625 21.14453125 24.83203125 21.2080078125 24.8193359375 21.2333984375 L24.7685546875 21.75390625 Q24.7177734375 22.4140625 24.52734375 23.3408203125 24.171875 25.15625 23.7783203125 25.15625 23.61328125 25.15625 23.435546875 25.0166015625 23.2578125 24.876953125 23.2578125 24.7119140625 23.587890625 23.734375 23.943359375 21.75390625 24.298828125 19.7734375 24.3876953125 19.28466796875 24.4765625 18.7958984375 24.7177734375 17.310546875 24.958984375 15.8251953125 25.03515625 15.35546875 25.111328125 14.8857421875 25.44775390625 13.32421875 25.7841796875 11.7626953125 25.85400390625 11.2802734375 25.923828125 10.7978515625 26.0126953125 9.97265625 26.228515625 7.94140625 26.35546875 7.712890625 L26.7109375 7.73828125 Q27.0283203125 7.73828125 27.1806640625 7.5859375 27.345703125 7.5859375 27.498046875 7.69384765625 27.650390625 7.8017578125 27.650390625 7.9794921875 27.650390625 9.2236328125 27.9677734375 12.791015625 28.28515625 16.3583984375 28.46923828125 17.40576171875 28.6533203125 18.453125 28.89453125 19.46240234375 29.1357421875 20.4716796875 29.1357421875 21.0048828125 L29.0087890625 21.3603515625 Q29.0087890625 21.9443359375 29.224609375 23.08056640625 29.4404296875 24.216796875 29.4404296875 24.68017578125 29.4404296875 25.1435546875 29.2373046875 25.2578125 28.7041015625 25.2578125 28.58349609375 25.10546875 28.462890625 24.953125 28.462890625 24.61669921875 28.462890625 24.2802734375 28.41845703125 23.79150390625 28.3740234375 23.302734375 28.32958984375 23.0107421875 28.28515625 22.71875 28.17724609375 22.09033203125 28.0693359375 21.4619140625 28.0439453125 21.2841796875 27.548828125 21.1572265625 26.8759765625 21.1572265625 zM25.0478515625 19.875 Q25.0478515625 20.1416015625 25.669921875 20.3193359375 26.6220703125 20.5859375 27.77734375 20.5859375 L28.0439453125 20.5859375 Q27.87890625 20.078125 27.87890625 19.41796875 L27.87890625 18.8212890625 Q27.87890625 17.208984375 27.47900390625 14.1240234375 27.0791015625 11.0390625 27.0537109375 9.5283203125 25.6953125 16.244140625 25.37158203125 17.82470703125 25.0478515625 19.4052734375 25.0478515625 19.875 z" /><path d="M35.9912109375 8.728515625 L34.58203125 8.55078125 34.455078125 8.703125 34.505859375 8.8046875 Q34.455078125 8.90625 34.455078125 10.2900390625 34.455078125 11.673828125 34.88671875 16.75830078125 35.318359375 21.8427734375 35.318359375 24.3818359375 35.318359375 24.572265625 35.166015625 24.724609375 35.013671875 24.876953125 34.8232421875 24.876953125 L34.53125 24.6611328125 34.48046875 22.76953125 34.53125 21.85546875 Q34.53125 21.5 34.4296875 21.2333984375 34.4296875 19.0244140625 34.11865234375 14.796875 33.8076171875 10.5693359375 33.7822265625 8.55078125 31.73828125 8.55078125 31.5986328125 8.0556640625 31.712890625 7.763671875 32.09375 7.763671875 L35.623046875 8.0048828125 36.0927734375 7.9794921875 Q36.5625 7.9794921875 36.5625 8.3095703125 36.5625 8.4873046875 36.3720703125 8.60791015625 36.181640625 8.728515625 35.9912109375 8.728515625 z" /><path d="M42.9736328125 24.826171875 L42.1103515625 24.7373046875 Q41.9072265625 24.7373046875 41.6279296875 24.88330078125 41.3486328125 25.029296875 40.96142578125 25.029296875 40.57421875 25.029296875 40.47265625 24.775390625 L40.041015625 24.80078125 Q39.482421875 24.80078125 39.330078125 24.5341796875 39.330078125 24.369140625 39.47607421875 24.26123046875 39.6220703125 24.1533203125 39.6728515625 24.08984375 L40.421875 24.08984375 40.5234375 23.98828125 40.6123046875 23.4423828125 Q40.6123046875 23.4423828125 40.421875 17.7548828125 L40.548828125 11.6865234375 Q40.548828125 9.921875 40.421875 8.677734375 40.16796875 8.6015625 39.6474609375 8.6015625 L39.025390625 8.65234375 Q38.5302734375 8.65234375 38.5302734375 8.2080078125 38.5302734375 8.09375 38.76513671875 7.9921875 39 7.890625 39.15234375 7.890625 42.7705078125 7.890625 42.7705078125 8.677734375 42.7705078125 8.75390625 42.70703125 8.880859375 L42.1103515625 8.931640625 Q41.9072265625 8.779296875 41.361328125 8.779296875 L41.234375 8.85546875 Q41.310546875 9.083984375 41.310546875 10.2392578125 L41.234375 16.421875 41.412109375 22.1220703125 41.38671875 22.921875 Q41.38671875 23.53125 41.462890625 23.6455078125 L41.4375 23.708984375 Q41.4375 23.962890625 42.0087890625 23.962890625 L42.7705078125 23.9375 Q43.544921875 23.9375 43.544921875 24.3056640625 43.544921875 24.5341796875 43.3798828125 24.68017578125 43.21484375 24.826171875 42.9736328125 24.826171875 z" /><path d="M46.7822265625 14.5302734375 L46.6806640625 19.7734375 Q46.6806640625 21.9697265625 47.099609375 22.921875 47.58203125 24.0390625 48.3310546875 24.369140625 48.8134765625 24.5849609375 49.31494140625 24.5849609375 49.81640625 24.5849609375 50.0830078125 24.3564453125 50.4765625 24.3564453125 50.4765625 24.6357421875 50.4765625 24.8388671875 50.12744140625 25.08642578125 49.7783203125 25.333984375 49.486328125 25.4482421875 L48.623046875 25.4482421875 Q48.4580078125 25.359375 48.013671875 25.2197265625 47.5693359375 25.080078125 47.19482421875 24.80712890625 46.8203125 24.5341796875 46.490234375 23.90576171875 46.16015625 23.27734375 46.0205078125 22.439453125 45.7919921875 21.068359375 45.7919921875 19.3671875 L45.7919921875 16.396484375 Q45.7919921875 12.9306640625 46.0458984375 11.6484375 46.5537109375 9.0458984375 47.4296875 8.3603515625 47.658203125 8.1826171875 48.13427734375 7.99853515625 48.6103515625 7.814453125 48.7880859375 7.712890625 L49.8291015625 7.712890625 Q49.8544921875 7.712890625 49.89892578125 7.7255859375 49.943359375 7.73828125 49.96875 7.74462890625 49.994140625 7.7509765625 50.03857421875 7.763671875 50.0830078125 7.7763671875 50.10205078125 7.78271484375 50.12109375 7.7890625 50.1591796875 7.80810546875 50.197265625 7.8271484375 50.2099609375 7.83984375 50.32421875 7.9541015625 50.32421875 8.1064453125 L49.9814453125 8.4873046875 48.8896484375 8.4873046875 Q48.3564453125 8.4873046875 47.962890625 8.98876953125 47.5693359375 9.490234375 47.35986328125 10.17578125 47.150390625 10.861328125 47.0234375 11.7626953125 46.8330078125 13.12109375 46.8330078125 14.390625 L46.7822265625 14.5302734375 z" /><path d="M60.251953125 16.244140625 L60.2265625 16.345703125 Q60.2265625 16.3583984375 60.8232421875 18.3515625 61.216796875 19.900390625 61.216796875 20.73828125 61.216796875 21.576171875 61.02001953125 22.3759765625 60.8232421875 23.17578125 60.44873046875 23.912109375 60.07421875 24.6484375 59.42041015625 25.12451171875 58.7666015625 25.6005859375 58.16357421875 25.6005859375 57.560546875 25.6005859375 57.306640625 25.5751953125 56.5576171875 25.4990234375 56.2529296875 24.953125 56.2529296875 24.6357421875 56.52587890625 24.6357421875 56.798828125 24.6357421875 57.26220703125 24.83251953125 57.7255859375 25.029296875 58.14453125 25.029296875 58.5634765625 25.029296875 59.03955078125 24.546875 59.515625 24.064453125 59.76953125 23.353515625 60.27734375 21.90625 60.27734375 20.64306640625 60.27734375 19.3798828125 59.896484375 18.072265625 59.515625 16.7646484375 58.96337890625 15.685546875 58.4111328125 14.6064453125 57.865234375 13.52734375 56.5576171875 10.962890625 56.5576171875 8.677734375 56.5576171875 6.7861328125 57.7001953125 5.65625 58.322265625 5.0595703125 59.16015625 5.0595703125 59.4267578125 5.0595703125 59.845703125 5.26904296875 60.2646484375 5.478515625 60.353515625 5.70703125 L60.201171875 5.9990234375 Q59.6171875 5.9990234375 59.3505859375 5.732421875 58.728515625 5.732421875 58.2841796875 6.2021484375 57.4462890625 7.0654296875 57.4462890625 8.4619140625 57.4462890625 9.490234375 57.611328125 10.16943359375 57.7763671875 10.8486328125 57.865234375 11.2041015625 57.9541015625 11.5595703125 58.1826171875 12.10546875 58.4111328125 12.6513671875 58.51904296875 12.91796875 58.626953125 13.1845703125 58.93798828125 13.7939453125 59.2490234375 14.4033203125 59.34423828125 14.5810546875 59.439453125 14.7587890625 59.81396484375 15.43798828125 60.1884765625 16.1171875 60.251953125 16.244140625 z" /><path d="M64.619140625 12.232421875 L64.390625 14.111328125 Q64.390625 15.6474609375 64.7333984375 19.240234375 65.076171875 22.8330078125 65.431640625 23.37890625 66.1171875 24.4326171875 67.48193359375 24.4326171875 68.8466796875 24.4326171875 69.4814453125 23.68359375 69.72265625 23.68359375 70.078125 23.5947265625 L70.205078125 23.734375 Q70.205078125 24.978515625 68.224609375 25.359375 67.7548828125 25.4482421875 67.16455078125 25.4482421875 66.57421875 25.4482421875 65.7744140625 24.8642578125 64.974609375 24.2802734375 64.64453125 23.5693359375 64.314453125 22.8583984375 63.9970703125 19.1513671875 63.6796875 15.4443359375 63.6796875 12.6259765625 63.6796875 9.8076171875 63.8447265625 9.2998046875 63.755859375 8.85546875 63.755859375 8.4619140625 63.755859375 6.900390625 64.873046875 6.03076171875 65.990234375 5.1611328125 67.615234375 5.1611328125 68.0595703125 5.1611328125 68.58642578125 5.4404296875 69.11328125 5.7197265625 69.11328125 6.1259765625 69.11328125 6.41796875 68.70703125 6.41796875 68.5927734375 6.41796875 68.3896484375 6.25927734375 68.1865234375 6.1005859375 68.05322265625 6.1005859375 67.919921875 6.1005859375 67.767578125 6.1513671875 67.462890625 6.0498046875 67.1455078125 6.0498046875 66.828125 6.0498046875 66.37744140625 6.18310546875 65.9267578125 6.31640625 65.62841796875 6.52587890625 65.330078125 6.7353515625 65.12060546875 7.0908203125 64.9111328125 7.4462890625 64.796875 7.77001953125 64.6826171875 8.09375 64.619140625 8.6015625 64.54296875 9.3251953125 64.54296875 10.3916015625 L64.619140625 12.232421875 zM67.5771484375 6.3037109375 L67.5263671875 6.3037109375 67.5771484375 6.3037109375 z" /></g></svg>