<svg width="170" height="30" xmlns="http://www.w3.org/2000/svg" viewBox="0 0 170 30"><g fill="currentColor"><path d="M4.9638671875 22.1201171875 Q4.9638671875 22.98486328125 5.1435546875 23.3779296875 5.3232421875 23.77099609375 5.794921875 23.9169921875 6.2666015625 24.06298828125 7.28857421875 24.0966796875 L7.28857421875 24.55712890625 Q6.09814453125 24.48974609375 3.908203125 24.48974609375 1.931640625 24.48974609375 0.9658203125 24.55712890625 L0.9658203125 24.0966796875 Q1.796875 24.06298828125 2.173095703125 23.9169921875 2.54931640625 23.77099609375 2.689697265625 23.3779296875 2.830078125 22.98486328125 2.830078125 22.1201171875 L2.830078125 10.7099609375 Q2.830078125 9.84521484375 2.689697265625 9.4521484375 2.54931640625 9.05908203125 2.173095703125 8.9130859375 1.796875 8.76708984375 0.9658203125 8.7333984375 L0.9658203125 8.27294921875 Q1.92041015625 8.34033203125 3.7734375 8.34033203125 4.671875 8.34033203125 5.755615234375 8.31787109375 6.83935546875 8.29541015625 7.24365234375 8.29541015625 9.0517578125 8.29541015625 10.29833984375 8.862548828125 11.544921875 9.4296875 12.168212890625 10.45166015625 12.79150390625 11.4736328125 12.79150390625 12.83251953125 12.79150390625 14.09033203125 12.22998046875 15.25830078125 11.66845703125 16.42626953125 10.315185546875 17.201171875 8.9619140625 17.97607421875 6.73828125 17.97607421875 L4.9638671875 17.97607421875 4.9638671875 22.1201171875 zM8.759765625 17.515625 Q8.759765625 17.515625 9.62451171875 16.31396484375 10.4892578125 15.1123046875 10.4892578125 13.07958984375 10.4892578125 11.59716796875 10.107421875 10.642578125 9.7255859375 9.68798828125 8.888916015625 9.210693359375 8.05224609375 8.7333984375 6.6708984375 8.7333984375 5.9521484375 8.7333984375 5.5927734375 8.896240234375 5.2333984375 9.05908203125 5.0986328125 9.474609375 4.9638671875 9.89013671875 4.9638671875 10.7099609375 L4.9638671875 17.515625 6.513671875 17.515625 Q8.759765625 17.515625 9.62451171875 16.31396484375 z" /><path d="M17.77783203125 23.0634765625 Q17.77783203125 23.0634765625 17.951904296875 23.4228515625 18.1259765625 23.7822265625 18.502197265625 23.92822265625 18.87841796875 24.07421875 19.52978515625 24.07421875 L19.52978515625 24.55712890625 Q17.41845703125 24.46728515625 16.74462890625 24.46728515625 16.07080078125 24.46728515625 13.95947265625 24.55712890625 L13.95947265625 24.07421875 Q14.61083984375 24.07421875 14.987060546875 23.92822265625 15.36328125 23.7822265625 15.537353515625 23.4228515625 15.71142578125 23.0634765625 15.71142578125 22.42333984375 L15.71142578125 9.28369140625 Q15.71142578125 8.216796875 15.323974609375 7.739501953125 14.9365234375 7.26220703125 13.95947265625 7.26220703125 L13.95947265625 6.779296875 Q14.67822265625 6.8466796875 15.3857421875 6.8466796875 16.8681640625 6.8466796875 17.77783203125 6.52099609375 L17.77783203125 22.42333984375 Q17.77783203125 23.0634765625 17.951904296875 23.4228515625 z" /><path d="M27.39111328125 13.83203125 Q27.39111328125 13.83203125 26.835205078125 13.343505859375 26.279296875 12.85498046875 25.25732421875 12.85498046875 23.62890625 12.85498046875 22.9775390625 13.6748046875 23.43798828125 13.787109375 23.746826171875 14.163330078125 24.0556640625 14.53955078125 24.0556640625 15.07861328125 24.0556640625 15.66259765625 23.690673828125 15.993896484375 23.32568359375 16.3251953125 22.7080078125 16.3251953125 22.1240234375 16.3251953125 21.792724609375 15.93212890625 21.46142578125 15.5390625 21.46142578125 14.89892578125 21.46142578125 14.00048828125 22.53955078125 13.25927734375 23.10107421875 12.888671875 23.926513671875 12.6416015625 24.751953125 12.39453125 25.7626953125 12.39453125 26.7060546875 12.39453125 27.4248046875 12.624755859375 28.1435546875 12.85498046875 28.5478515625 13.25927734375 29.07568359375 13.79833984375 29.272216796875 14.511474609375 29.46875 15.224609375 29.46875 16.482421875 L29.46875 22.87255859375 Q29.46875 23.4453125 29.631591796875 23.70361328125 29.79443359375 23.9619140625 30.17626953125 23.9619140625 30.45703125 23.9619140625 30.69287109375 23.83837890625 30.9287109375 23.71484375 31.20947265625 23.47900390625 L31.4677734375 23.8720703125 Q31.0634765625 24.17529296875 30.7939453125 24.34375 30.5244140625 24.51220703125 30.17626953125 24.61328125 29.828125 24.71435546875 29.36767578125 24.71435546875 28.255859375 24.71435546875 27.823486328125 24.158447265625 27.39111328125 23.6025390625 27.39111328125 22.67041015625 26.71728515625 23.7822265625 25.77392578125 24.248291015625 24.83056640625 24.71435546875 23.853515625 24.71435546875 23.05615234375 24.71435546875 22.3935546875 24.439208984375 21.73095703125 24.1640625 21.332275390625 23.585693359375 20.93359375 23.00732421875 20.93359375 22.142578125 20.93359375 21.2666015625 21.3603515625 20.64892578125 21.787109375 20.03125 22.56201171875 19.565185546875 23.3369140625 19.09912109375 24.6396484375 18.548828125 24.8642578125 18.458984375 25.740234375 18.099609375 26.6162109375 17.740234375 27.003662109375 17.380859375 27.39111328125 17.021484375 27.39111328125 16.5947265625 L27.39111328125 15.16845703125 Q27.39111328125 13.83203125 26.835205078125 13.343505859375 zM27.22265625 17.79638671875 Q27.22265625 17.79638671875 26.82958984375 18.02099609375 26.4365234375 18.24560546875 25.18994140625 18.85205078125 24.52734375 19.16650390625 24.06689453125 19.497802734375 23.6064453125 19.8291015625 23.28076171875 20.390625 22.955078125 20.9521484375 22.955078125 21.77197265625 22.955078125 22.771484375 23.46044921875 23.282470703125 23.9658203125 23.79345703125 24.796875 23.79345703125 26.32421875 23.79345703125 27.39111328125 22.052734375 L27.39111328125 17.5380859375 Q27.22265625 17.79638671875 26.82958984375 18.02099609375 z" /><path d="M40.384765625 12.7763671875 Q40.384765625 12.7763671875 41.103515625 12.7763671875 42.12548828125 12.7763671875 42.85546875 12.708984375 L42.85546875 13.16943359375 Q42.39501953125 13.2255859375 42.03564453125 13.5849609375 41.67626953125 13.9443359375 41.36181640625 14.78662109375 L37.58837890625 24.66943359375 36.80224609375 26.66845703125 Q36.3642578125 27.802734375 35.81396484375 28.28564453125 35.16259765625 28.880859375 34.01708984375 28.880859375 33.33203125 28.880859375 32.89404296875 28.515869140625 32.4560546875 28.15087890625 32.4560546875 27.49951171875 32.4560546875 26.94921875 32.78173828125 26.617919921875 33.107421875 26.28662109375 33.68017578125 26.28662109375 34.185546875 26.28662109375 34.516845703125 26.5673828125 34.84814453125 26.84814453125 34.84814453125 27.36474609375 34.84814453125 28.0498046875 34.23046875 28.39794921875 34.275390625 28.42041015625 34.365234375 28.42041015625 35.63427734375 28.42041015625 36.3193359375 26.62353515625 L37.13916015625 24.5234375 32.96142578125 14.4833984375 Q32.568359375 13.68603515625 32.180908203125 13.43896484375 31.79345703125 13.19189453125 31.400390625 13.19189453125 L31.400390625 12.708984375 Q32.478515625 12.85498046875 33.65771484375 12.85498046875 34.64599609375 12.85498046875 36.64501953125 12.708984375 L36.64501953125 13.19189453125 Q36.08349609375 13.19189453125 35.76904296875 13.231201171875 35.45458984375 13.2705078125 35.246826171875 13.444580078125 35.0390625 13.61865234375 35.0390625 13.9892578125 35.0390625 14.40478515625 35.3310546875 15.12353515625 L38.10498046875 21.99658203125 40.64306640625 15.3369140625 Q40.89013671875 14.6630859375 40.89013671875 14.28125 40.89013671875 13.7421875 40.480224609375 13.48388671875 40.0703125 13.2255859375 39.171875 13.16943359375 L39.171875 12.708984375 Q40.384765625 12.7763671875 41.103515625 12.7763671875 z" /><path d="M45.51708984375 11.361328125 Q45.51708984375 11.361328125 45.62939453125 10.446044921875 45.74169921875 9.53076171875 45.994384765625 8.890625 46.2470703125 8.25048828125 46.6962890625 7.72265625 47.1455078125 7.18359375 47.8642578125 6.874755859375 48.5830078125 6.56591796875 49.42529296875 6.56591796875 50.6044921875 6.56591796875 51.42431640625 7.19482421875 52.14306640625 7.77880859375 52.14306640625 8.62109375 52.14306640625 9.14892578125 51.800537109375 9.491455078125 51.4580078125 9.833984375 50.9189453125 9.833984375 50.39111328125 9.833984375 50.026123046875 9.4970703125 49.6611328125 9.16015625 49.6611328125 8.5986328125 49.6611328125 8.126953125 49.925048828125 7.818115234375 50.18896484375 7.50927734375 50.626953125 7.41943359375 50.5595703125 7.2060546875 50.25634765625 7.06005859375 49.953125 6.9140625 49.49267578125 6.9140625 48.470703125 6.9140625 47.9990234375 7.767578125 47.74072265625 8.22802734375 47.662109375 9.143310546875 47.58349609375 10.05859375 47.58349609375 12.13623046875 L47.58349609375 12.7314453125 50.05419921875 12.7314453125 50.05419921875 13.19189453125 47.58349609375 13.19189453125 47.58349609375 22.1875 Q47.58349609375 23.25439453125 48.18994140625 23.664306640625 48.79638671875 24.07421875 50.0205078125 24.07421875 L50.0205078125 24.55712890625 Q47.1904296875 24.46728515625 46.48291015625 24.46728515625 45.92138671875 24.46728515625 43.76513671875 24.55712890625 L43.76513671875 24.07421875 Q44.41650390625 24.07421875 44.792724609375 23.92822265625 45.1689453125 23.7822265625 45.343017578125 23.4228515625 45.51708984375 23.0634765625 45.51708984375 22.42333984375 L45.51708984375 13.19189453125 43.67529296875 13.19189453125 43.67529296875 12.7314453125 45.51708984375 12.7314453125 Q45.51708984375 11.361328125 45.62939453125 10.446044921875 z" /><path d="M58.07275390625 13.83203125 Q58.07275390625 13.83203125 57.516845703125 13.343505859375 56.9609375 12.85498046875 55.93896484375 12.85498046875 54.310546875 12.85498046875 53.6591796875 13.6748046875 54.11962890625 13.787109375 54.428466796875 14.163330078125 54.7373046875 14.53955078125 54.7373046875 15.07861328125 54.7373046875 15.66259765625 54.372314453125 15.993896484375 54.00732421875 16.3251953125 53.3896484375 16.3251953125 52.8056640625 16.3251953125 52.474365234375 15.93212890625 52.14306640625 15.5390625 52.14306640625 14.89892578125 52.14306640625 14.00048828125 53.22119140625 13.25927734375 53.78271484375 12.888671875 54.608154296875 12.6416015625 55.43359375 12.39453125 56.4443359375 12.39453125 57.3876953125 12.39453125 58.1064453125 12.624755859375 58.8251953125 12.85498046875 59.2294921875 13.25927734375 59.75732421875 13.79833984375 59.953857421875 14.511474609375 60.150390625 15.224609375 60.150390625 16.482421875 L60.150390625 22.87255859375 Q60.150390625 23.4453125 60.313232421875 23.70361328125 60.47607421875 23.9619140625 60.85791015625 23.9619140625 61.138671875 23.9619140625 61.37451171875 23.83837890625 61.6103515625 23.71484375 61.89111328125 23.47900390625 L62.1494140625 23.8720703125 Q61.7451171875 24.17529296875 61.4755859375 24.34375 61.2060546875 24.51220703125 60.85791015625 24.61328125 60.509765625 24.71435546875 60.04931640625 24.71435546875 58.9375 24.71435546875 58.505126953125 24.158447265625 58.07275390625 23.6025390625 58.07275390625 22.67041015625 57.39892578125 23.7822265625 56.45556640625 24.248291015625 55.51220703125 24.71435546875 54.53515625 24.71435546875 53.73779296875 24.71435546875 53.0751953125 24.439208984375 52.41259765625 24.1640625 52.013916015625 23.585693359375 51.615234375 23.00732421875 51.615234375 22.142578125 51.615234375 21.2666015625 52.0419921875 20.64892578125 52.46875 20.03125 53.24365234375 19.565185546875 54.0185546875 19.09912109375 55.3212890625 18.548828125 55.5458984375 18.458984375 56.421875 18.099609375 57.2978515625 17.740234375 57.685302734375 17.380859375 58.07275390625 17.021484375 58.07275390625 16.5947265625 L58.07275390625 15.16845703125 Q58.07275390625 13.83203125 57.516845703125 13.343505859375 zM57.904296875 17.79638671875 Q57.904296875 17.79638671875 57.51123046875 18.02099609375 57.1181640625 18.24560546875 55.87158203125 18.85205078125 55.208984375 19.16650390625 54.74853515625 19.497802734375 54.2880859375 19.8291015625 53.96240234375 20.390625 53.63671875 20.9521484375 53.63671875 21.77197265625 53.63671875 22.771484375 54.14208984375 23.282470703125 54.6474609375 23.79345703125 55.478515625 23.79345703125 57.005859375 23.79345703125 58.07275390625 22.052734375 L58.07275390625 17.5380859375 Q57.904296875 17.79638671875 57.51123046875 18.02099609375 z" /><path d="M65.85546875 6.958984375 Q65.85546875 6.958984375 66.1923828125 7.1611328125 66.529296875 7.36328125 66.7314453125 7.7001953125 66.93359375 8.037109375 66.93359375 8.43017578125 66.93359375 8.8232421875 66.7314453125 9.165771484375 66.529296875 9.50830078125 66.1923828125 9.704833984375 65.85546875 9.9013671875 65.46240234375 9.9013671875 65.0693359375 9.9013671875 64.726806640625 9.704833984375 64.38427734375 9.50830078125 64.187744140625 9.165771484375 63.9912109375 8.8232421875 63.9912109375 8.43017578125 63.9912109375 8.037109375 64.187744140625 7.7001953125 64.38427734375 7.36328125 64.726806640625 7.1611328125 65.0693359375 6.958984375 65.46240234375 6.958984375 65.85546875 6.958984375 66.1923828125 7.1611328125 zM66.65283203125 23.0634765625 Q66.65283203125 23.0634765625 66.826904296875 23.4228515625 67.0009765625 23.7822265625 67.377197265625 23.92822265625 67.75341796875 24.07421875 68.40478515625 24.07421875 L68.40478515625 24.55712890625 Q66.29345703125 24.46728515625 65.61962890625 24.46728515625 64.94580078125 24.46728515625 62.83447265625 24.55712890625 L62.83447265625 24.07421875 Q63.48583984375 24.07421875 63.862060546875 23.92822265625 64.23828125 23.7822265625 64.412353515625 23.4228515625 64.58642578125 23.0634765625 64.58642578125 22.42333984375 L64.58642578125 15.224609375 Q64.58642578125 14.15771484375 64.198974609375 13.6748046875 63.8115234375 13.19189453125 62.83447265625 13.19189453125 L62.83447265625 12.708984375 Q63.55322265625 12.7763671875 64.2607421875 12.7763671875 65.720703125 12.7763671875 66.65283203125 12.4619140625 L66.65283203125 22.42333984375 Q66.65283203125 23.0634765625 66.826904296875 23.4228515625 z" /><path d="M73.6494140625 14.6181640625 Q73.6494140625 14.6181640625 74.137939453125 13.9443359375 74.62646484375 13.2705078125 75.30029296875 12.83251953125 75.97412109375 12.39453125 76.7265625 12.39453125 77.3330078125 12.39453125 77.810302734375 12.635986328125 78.28759765625 12.87744140625 78.55712890625 13.29296875 78.82666015625 13.70849609375 78.82666015625 14.20263671875 78.82666015625 14.80908203125 78.46728515625 15.230224609375 78.10791015625 15.6513671875 77.5126953125 15.6513671875 77.00732421875 15.6513671875 76.64794921875 15.331298828125 76.28857421875 15.01123046875 76.28857421875 14.4609375 76.28857421875 13.70849609375 77.07470703125 13.21435546875 76.91748046875 12.98974609375 76.591796875 12.98974609375 75.68212890625 12.98974609375 74.9521484375 13.68603515625 74.22216796875 14.38232421875 73.806640625 15.404296875 73.39111328125 16.42626953125 73.39111328125 17.3134765625 L73.39111328125 22.1875 Q73.39111328125 23.25439453125 73.99755859375 23.664306640625 74.60400390625 24.07421875 75.828125 24.07421875 L75.828125 24.55712890625 Q72.998046875 24.46728515625 72.29052734375 24.46728515625 71.68408203125 24.46728515625 69.57275390625 24.55712890625 L69.57275390625 24.07421875 Q70.22412109375 24.07421875 70.600341796875 23.92822265625 70.9765625 23.7822265625 71.150634765625 23.4228515625 71.32470703125 23.0634765625 71.32470703125 22.42333984375 L71.32470703125 15.224609375 Q71.32470703125 14.15771484375 70.937255859375 13.6748046875 70.5498046875 13.19189453125 69.57275390625 13.19189453125 L69.57275390625 12.708984375 Q70.29150390625 12.7763671875 70.9990234375 12.7763671875 72.458984375 12.7763671875 73.39111328125 12.4619140625 L73.39111328125 15.3369140625 Q73.6494140625 14.6181640625 74.137939453125 13.9443359375 z" /><path d="M87.06982421875 8.3515625 Q87.06982421875 8.3515625 88.08056640625 8.3515625 L88.64208984375 8.34033203125 Q91.80908203125 8.27294921875 92.1123046875 8.27294921875 96.177734375 8.27294921875 98.204833984375 10.3056640625 100.23193359375 12.33837890625 100.23193359375 16.2353515625 100.23193359375 18.73974609375 99.249267578125 20.620849609375 98.2666015625 22.501953125 96.39111328125 23.529541015625 94.515625 24.55712890625 91.91015625 24.55712890625 91.595703125 24.55712890625 90.410888671875 24.5234375 89.22607421875 24.48974609375 88.68701171875 24.48974609375 86.80029296875 24.48974609375 85.83447265625 24.55712890625 L85.83447265625 24.0966796875 Q86.66552734375 24.06298828125 87.041748046875 23.9169921875 87.41796875 23.77099609375 87.558349609375 23.3779296875 87.69873046875 22.98486328125 87.69873046875 22.1201171875 L87.69873046875 10.7099609375 Q87.69873046875 9.84521484375 87.558349609375 9.4521484375 87.41796875 9.05908203125 87.041748046875 8.9130859375 86.66552734375 8.76708984375 85.83447265625 8.7333984375 L85.83447265625 8.27294921875 Q87.06982421875 8.3515625 88.08056640625 8.3515625 zM89.83251953125 22.99609375 Q89.83251953125 22.99609375 89.96728515625 23.406005859375 90.10205078125 23.81591796875 90.467041015625 23.978759765625 90.83203125 24.1416015625 91.56201171875 24.1416015625 94.01025390625 24.1416015625 95.40283203125 23.25439453125 96.79541015625 22.3671875 97.362548828125 20.665771484375 97.9296875 18.96435546875 97.9296875 16.3251953125 97.9296875 13.6748046875 97.31201171875 12.007080078125 96.6943359375 10.33935546875 95.296142578125 9.513916015625 93.89794921875 8.6884765625 91.53955078125 8.6884765625 90.82080078125 8.6884765625 90.46142578125 8.851318359375 90.10205078125 9.01416015625 89.96728515625 9.4296875 89.83251953125 9.84521484375 89.83251953125 10.6650390625 L89.83251953125 22.1650390625 Q89.83251953125 22.99609375 89.96728515625 23.406005859375 z" /><path d="M105.1845703125 6.958984375 Q105.1845703125 6.958984375 105.521484375 7.1611328125 105.8583984375 7.36328125 106.060546875 7.7001953125 106.2626953125 8.037109375 106.2626953125 8.43017578125 106.2626953125 8.8232421875 106.060546875 9.165771484375 105.8583984375 9.50830078125 105.521484375 9.704833984375 105.1845703125 9.9013671875 104.79150390625 9.9013671875 104.3984375 9.9013671875 104.055908203125 9.704833984375 103.71337890625 9.50830078125 103.516845703125 9.165771484375 103.3203125 8.8232421875 103.3203125 8.43017578125 103.3203125 8.037109375 103.516845703125 7.7001953125 103.71337890625 7.36328125 104.055908203125 7.1611328125 104.3984375 6.958984375 104.79150390625 6.958984375 105.1845703125 6.958984375 105.521484375 7.1611328125 zM105.98193359375 23.0634765625 Q105.98193359375 23.0634765625 106.156005859375 23.4228515625 106.330078125 23.7822265625 106.706298828125 23.92822265625 107.08251953125 24.07421875 107.73388671875 24.07421875 L107.73388671875 24.55712890625 Q105.62255859375 24.46728515625 104.94873046875 24.46728515625 104.27490234375 24.46728515625 102.16357421875 24.55712890625 L102.16357421875 24.07421875 Q102.81494140625 24.07421875 103.191162109375 23.92822265625 103.5673828125 23.7822265625 103.741455078125 23.4228515625 103.91552734375 23.0634765625 103.91552734375 22.42333984375 L103.91552734375 15.224609375 Q103.91552734375 14.15771484375 103.528076171875 13.6748046875 103.140625 13.19189453125 102.16357421875 13.19189453125 L102.16357421875 12.708984375 Q102.88232421875 12.7763671875 103.58984375 12.7763671875 105.0498046875 12.7763671875 105.98193359375 12.4619140625 L105.98193359375 22.42333984375 Q105.98193359375 23.0634765625 106.156005859375 23.4228515625 z" /><path d="M110.29443359375 21.54736328125 Q110.29443359375 21.54736328125 110.60888671875 22.46826171875 110.92333984375 23.38916015625 111.57470703125 23.90576171875 112.22607421875 24.42236328125 113.32666015625 24.42236328125 113.83203125 24.42236328125 114.298095703125 24.203369140625 114.76416015625 23.984375 115.0673828125 23.495849609375 115.37060546875 23.00732421875 115.37060546875 22.232421875 115.37060546875 21.603515625 115.050537109375 21.103759765625 114.73046875 20.60400390625 114.2138671875 20.205322265625 113.697265625 19.806640625 112.76513671875 19.22265625 111.630859375 18.50390625 111.030029296875 18.04345703125 110.42919921875 17.5830078125 110.013671875 16.92041015625 109.59814453125 16.2578125 109.59814453125 15.359375 109.59814453125 14.38232421875 110.05859375 13.714111328125 110.51904296875 13.0458984375 111.288330078125 12.72021484375 112.0576171875 12.39453125 113.0009765625 12.39453125 113.8095703125 12.39453125 114.455322265625 12.65283203125 115.10107421875 12.9111328125 115.50537109375 13.23681640625 115.75244140625 13.427734375 115.90966796875 13.427734375 116.31396484375 13.427734375 116.42626953125 12.4169921875 L116.9541015625 12.4169921875 Q116.8642578125 13.5400390625 116.8642578125 16.3251953125 L116.33642578125 16.3251953125 Q116.08935546875 14.80908203125 115.359375 13.82080078125 114.62939453125 12.83251953125 113.203125 12.83251953125 112.3720703125 12.83251953125 111.84423828125 13.298583984375 111.31640625 13.7646484375 111.31640625 14.595703125 111.31640625 15.39306640625 111.861083984375 15.926513671875 112.40576171875 16.4599609375 113.175048828125 16.94287109375 113.9443359375 17.42578125 114.27001953125 17.63916015625 115.32568359375 18.32421875 115.971435546875 18.857666015625 116.6171875 19.39111328125 117.015869140625 20.081787109375 117.41455078125 20.7724609375 117.41455078125 21.65966796875 117.41455078125 22.681640625 116.881103515625 23.406005859375 116.34765625 24.13037109375 115.44921875 24.506591796875 114.55078125 24.8828125 113.48388671875 24.8828125 112.4619140625 24.8828125 111.66455078125 24.55712890625 111.21533203125 24.33251953125 110.72119140625 23.939453125 110.63134765625 23.849609375 110.5078125 23.849609375 110.1708984375 23.849609375 110.0361328125 24.71435546875 L109.50830078125 24.71435546875 Q109.59814453125 23.400390625 109.59814453125 20.12109375 L110.1259765625 20.12109375 Q110.29443359375 21.54736328125 110.60888671875 22.46826171875 z" /><path d="M123.3330078125 13.697265625 Q123.3330078125 13.697265625 124.298828125 13.0458984375 125.2646484375 12.39453125 126.5 12.39453125 127.72412109375 12.39453125 128.695556640625 13.05712890625 129.6669921875 13.7197265625 130.222900390625 15.01123046875 130.77880859375 16.302734375 130.77880859375 18.099609375 130.77880859375 19.86279296875 130.21728515625 21.406982421875 129.65576171875 22.951171875 128.470947265625 23.9169921875 127.2861328125 24.8828125 125.51171875 24.8828125 124.6357421875 24.8828125 123.922607421875 24.540283203125 123.20947265625 24.19775390625 122.81640625 23.63623046875 L122.81640625 26.57861328125 Q122.81640625 27.5107421875 123.36669921875 27.875732421875 123.9169921875 28.24072265625 125.02880859375 28.24072265625 L125.02880859375 28.7236328125 Q124.73681640625 28.71240234375 123.720458984375 28.66748046875 122.7041015625 28.62255859375 121.7158203125 28.62255859375 120.98583984375 28.62255859375 120.2109375 28.66748046875 119.43603515625 28.71240234375 119.23388671875 28.7236328125 L119.23388671875 28.24072265625 Q120.076171875 28.24072265625 120.4130859375 27.931884765625 120.75 27.623046875 120.75 26.814453125 L120.75 15.224609375 Q120.75 14.15771484375 120.362548828125 13.6748046875 119.97509765625 13.19189453125 118.998046875 13.19189453125 L118.998046875 12.708984375 Q119.716796875 12.7763671875 120.42431640625 12.7763671875 121.88427734375 12.7763671875 122.81640625 12.4619140625 L122.81640625 14.8876953125 Q123.3330078125 13.697265625 124.298828125 13.0458984375 zM123.1533203125 23.5576171875 Q123.1533203125 23.5576171875 123.77099609375 23.956298828125 124.388671875 24.35498046875 125.25341796875 24.35498046875 128.5439453125 24.35498046875 128.5439453125 18.4140625 128.5439453125 13.07958984375 125.87109375 13.07958984375 124.82666015625 13.07958984375 124.001220703125 13.826416015625 123.17578125 14.5732421875 122.81640625 15.98828125 L122.81640625 22.87255859375 Q123.1533203125 23.5576171875 123.77099609375 23.956298828125 z" /><path d="M136.1806640625 23.0634765625 Q136.1806640625 23.0634765625 136.354736328125 23.4228515625 136.52880859375 23.7822265625 136.905029296875 23.92822265625 137.28125 24.07421875 137.9326171875 24.07421875 L137.9326171875 24.55712890625 Q135.8212890625 24.46728515625 135.1474609375 24.46728515625 134.4736328125 24.46728515625 132.3623046875 24.55712890625 L132.3623046875 24.07421875 Q133.013671875 24.07421875 133.389892578125 23.92822265625 133.76611328125 23.7822265625 133.940185546875 23.4228515625 134.1142578125 23.0634765625 134.1142578125 22.42333984375 L134.1142578125 9.28369140625 Q134.1142578125 8.216796875 133.726806640625 7.739501953125 133.33935546875 7.26220703125 132.3623046875 7.26220703125 L132.3623046875 6.779296875 Q133.0810546875 6.8466796875 133.78857421875 6.8466796875 135.27099609375 6.8466796875 136.1806640625 6.52099609375 L136.1806640625 22.42333984375 Q136.1806640625 23.0634765625 136.354736328125 23.4228515625 z" /><path d="M145.7939453125 13.83203125 Q145.7939453125 13.83203125 145.238037109375 13.343505859375 144.68212890625 12.85498046875 143.66015625 12.85498046875 142.03173828125 12.85498046875 141.38037109375 13.6748046875 141.8408203125 13.787109375 142.149658203125 14.163330078125 142.45849609375 14.53955078125 142.45849609375 15.07861328125 142.45849609375 15.66259765625 142.093505859375 15.993896484375 141.728515625 16.3251953125 141.11083984375 16.3251953125 140.52685546875 16.3251953125 140.195556640625 15.93212890625 139.8642578125 15.5390625 139.8642578125 14.89892578125 139.8642578125 14.00048828125 140.9423828125 13.25927734375 141.50390625 12.888671875 142.329345703125 12.6416015625 143.15478515625 12.39453125 144.16552734375 12.39453125 145.10888671875 12.39453125 145.82763671875 12.624755859375 146.54638671875 12.85498046875 146.95068359375 13.25927734375 147.478515625 13.79833984375 147.675048828125 14.511474609375 147.87158203125 15.224609375 147.87158203125 16.482421875 L147.87158203125 22.87255859375 Q147.87158203125 23.4453125 148.034423828125 23.70361328125 148.197265625 23.9619140625 148.5791015625 23.9619140625 148.85986328125 23.9619140625 149.095703125 23.83837890625 149.33154296875 23.71484375 149.6123046875 23.47900390625 L149.87060546875 23.8720703125 Q149.46630859375 24.17529296875 149.19677734375 24.34375 148.92724609375 24.51220703125 148.5791015625 24.61328125 148.23095703125 24.71435546875 147.7705078125 24.71435546875 146.65869140625 24.71435546875 146.226318359375 24.158447265625 145.7939453125 23.6025390625 145.7939453125 22.67041015625 145.1201171875 23.7822265625 144.1767578125 24.248291015625 143.2333984375 24.71435546875 142.25634765625 24.71435546875 141.458984375 24.71435546875 140.79638671875 24.439208984375 140.1337890625 24.1640625 139.735107421875 23.585693359375 139.33642578125 23.00732421875 139.33642578125 22.142578125 139.33642578125 21.2666015625 139.76318359375 20.64892578125 140.18994140625 20.03125 140.96484375 19.565185546875 141.73974609375 19.09912109375 143.04248046875 18.548828125 143.26708984375 18.458984375 144.14306640625 18.099609375 145.01904296875 17.740234375 145.406494140625 17.380859375 145.7939453125 17.021484375 145.7939453125 16.5947265625 L145.7939453125 15.16845703125 Q145.7939453125 13.83203125 145.238037109375 13.343505859375 zM145.62548828125 17.79638671875 Q145.62548828125 17.79638671875 145.232421875 18.02099609375 144.83935546875 18.24560546875 143.5927734375 18.85205078125 142.93017578125 19.16650390625 142.4697265625 19.497802734375 142.00927734375 19.8291015625 141.68359375 20.390625 141.35791015625 20.9521484375 141.35791015625 21.77197265625 141.35791015625 22.771484375 141.86328125 23.282470703125 142.36865234375 23.79345703125 143.19970703125 23.79345703125 144.72705078125 23.79345703125 145.7939453125 22.052734375 L145.7939453125 17.5380859375 Q145.62548828125 17.79638671875 145.232421875 18.02099609375 z" /><path d="M158.78759765625 12.7763671875 Q158.78759765625 12.7763671875 159.50634765625 12.7763671875 160.5283203125 12.7763671875 161.25830078125 12.708984375 L161.25830078125 13.16943359375 Q160.7978515625 13.2255859375 160.4384765625 13.5849609375 160.0791015625 13.9443359375 159.7646484375 14.78662109375 L155.9912109375 24.66943359375 155.205078125 26.66845703125 Q154.76708984375 27.802734375 154.216796875 28.28564453125 153.5654296875 28.880859375 152.419921875 28.880859375 151.73486328125 28.880859375 151.296875 28.515869140625 150.85888671875 28.15087890625 150.85888671875 27.49951171875 150.85888671875 26.94921875 151.1845703125 26.617919921875 151.51025390625 26.28662109375 152.0830078125 26.28662109375 152.58837890625 26.28662109375 152.919677734375 26.5673828125 153.2509765625 26.84814453125 153.2509765625 27.36474609375 153.2509765625 28.0498046875 152.63330078125 28.39794921875 152.67822265625 28.42041015625 152.76806640625 28.42041015625 154.037109375 28.42041015625 154.72216796875 26.62353515625 L155.5419921875 24.5234375 151.3642578125 14.4833984375 Q150.97119140625 13.68603515625 150.583740234375 13.43896484375 150.1962890625 13.19189453125 149.80322265625 13.19189453125 L149.80322265625 12.708984375 Q150.88134765625 12.85498046875 152.060546875 12.85498046875 153.048828125 12.85498046875 155.0478515625 12.708984375 L155.0478515625 13.19189453125 Q154.486328125 13.19189453125 154.171875 13.231201171875 153.857421875 13.2705078125 153.649658203125 13.444580078125 153.44189453125 13.61865234375 153.44189453125 13.9892578125 153.44189453125 14.40478515625 153.73388671875 15.12353515625 L156.5078125 21.99658203125 159.0458984375 15.3369140625 Q159.29296875 14.6630859375 159.29296875 14.28125 159.29296875 13.7421875 158.883056640625 13.48388671875 158.47314453125 13.2255859375 157.57470703125 13.16943359375 L157.57470703125 12.708984375 Q158.78759765625 12.7763671875 159.50634765625 12.7763671875 z" /></g></svg>