<svg width="170" height="30" xmlns="http://www.w3.org/2000/svg" viewBox="0 0 170 30"><g fill="currentColor"><path d="M-0.0380859375 24.013671875 L7.109375 5.40234375 9.7626953125 5.40234375 17.3798828125 24.013671875 14.57421875 24.013671875 12.4033203125 18.376953125 4.62109375 18.376953125 2.5771484375 24.013671875 -0.0380859375 24.013671875 zM5.33203125 16.37109375 L11.6416015625 16.37109375 9.69921875 11.216796875 Q8.810546875 8.8681640625 8.37890625 7.357421875 8.0234375 9.1474609375 7.3759765625 10.912109375 L5.33203125 16.37109375 z" /><path d="M19.0302734375 24.013671875 L19.0302734375 10.53125 21.0869140625 10.53125 21.0869140625 12.5751953125 Q21.8740234375 11.140625 22.54052734375 10.68359375 23.20703125 10.2265625 24.0068359375 10.2265625 25.162109375 10.2265625 26.35546875 10.962890625 L25.568359375 13.0830078125 Q24.73046875 12.587890625 23.892578125 12.587890625 23.1435546875 12.587890625 22.546875 13.03857421875 21.9501953125 13.4892578125 21.6962890625 14.2890625 21.3154296875 15.5078125 21.3154296875 16.955078125 L21.3154296875 24.013671875 19.0302734375 24.013671875 z" /><path d="M27.7265625 8.0302734375 L27.7265625 5.40234375 30.01171875 5.40234375 30.01171875 8.0302734375 27.7265625 8.0302734375 zM27.7265625 24.013671875 L27.7265625 10.53125 30.01171875 10.53125 30.01171875 24.013671875 27.7265625 24.013671875 z" /><path d="M42.2880859375 22.3505859375 Q41.0185546875 23.4296875 39.84423828125 23.8740234375 38.669921875 24.318359375 37.32421875 24.318359375 35.1025390625 24.318359375 33.9091796875 23.23291015625 32.7158203125 22.1474609375 32.7158203125 20.458984375 32.7158203125 19.46875 33.16650390625 18.64990234375 33.6171875 17.8310546875 34.34716796875 17.3359375 35.0771484375 16.8408203125 35.9912109375 16.5869140625 36.6640625 16.4091796875 38.0224609375 16.244140625 40.7900390625 15.9140625 42.09765625 15.45703125 42.1103515625 14.9873046875 42.1103515625 14.8603515625 42.1103515625 13.4638671875 41.462890625 12.892578125 40.5869140625 12.1181640625 38.8603515625 12.1181640625 37.248046875 12.1181640625 36.47998046875 12.68310546875 35.7119140625 13.248046875 35.34375 14.6826171875 L33.109375 14.3779296875 Q33.4140625 12.943359375 34.1123046875 12.06103515625 34.810546875 11.1787109375 36.130859375 10.70263671875 37.451171875 10.2265625 39.1904296875 10.2265625 40.9169921875 10.2265625 41.99609375 10.6328125 43.0751953125 11.0390625 43.5830078125 11.65478515625 44.0908203125 12.2705078125 44.2939453125 13.2099609375 44.408203125 13.7939453125 44.408203125 15.3173828125 L44.408203125 18.3642578125 Q44.408203125 21.55078125 44.55419921875 22.39501953125 44.7001953125 23.2392578125 45.1318359375 24.013671875 L42.7451171875 24.013671875 Q42.3896484375 23.302734375 42.2880859375 22.3505859375 zM42.09765625 17.2470703125 Q40.853515625 17.7548828125 38.365234375 18.1103515625 36.9560546875 18.3134765625 36.3720703125 18.5673828125 35.7880859375 18.8212890625 35.470703125 19.31005859375 35.1533203125 19.798828125 35.1533203125 20.3955078125 35.1533203125 21.3095703125 35.84521484375 21.9189453125 36.537109375 22.5283203125 37.8701171875 22.5283203125 39.1904296875 22.5283203125 40.21875 21.95068359375 41.2470703125 21.373046875 41.7294921875 20.3701171875 42.09765625 19.595703125 42.09765625 18.0849609375 L42.09765625 17.2470703125 z" /><path d="M47.8994140625 24.013671875 L47.8994140625 5.40234375 50.1845703125 5.40234375 50.1845703125 24.013671875 47.8994140625 24.013671875 z" /></g></svg>