<svg width="170" height="30" xmlns="http://www.w3.org/2000/svg" viewBox="0 0 170 30"><g fill="currentColor"><path d="M12.324 15.624 Q12.116 15.702 12.051 15.702 11.985999999999999 15.702 11.934 15.754000000000001 11.7 15.754000000000001 11.7 15.507000000000001 11.7 15.260000000000002 11.908 15.234 12.453999999999999 15.026 12.87 15.286000000000001 13.286 15.546 13.415999999999999 15.689 13.546 15.832 13.831999999999999 16.222 14.872 17.678 14.872 18.64 14.872 20.018 14.274 21.214 13.676 22.41 12.571 22.41 11.466 22.41 10.4 21.487 9.334 20.564 8.982999999999999 19.355 8.632 18.146 8.19 15.156 7.592 15.338000000000001 7.241 15.338000000000001 6.89 15.338000000000001 6.435 14.805 5.9799999999999995 14.272 5.888999999999999 13.895 5.798 13.518 5.798 13.219000000000001 5.798 12.92 5.8759999999999994 12.543000000000001 5.954 12.166 6.383 11.646 6.811999999999999 11.126000000000001 7.279999999999999 11.126000000000001 7.306 11.126000000000001 7.332 11.126000000000001 7.904 11.126000000000001 8.241999999999999 11.854000000000001 8.294 12.036 8.424 12.296000000000001 8.528 12.504 8.788 13.778 9.828 13.024000000000001 10.764 11.75 11.491999999999999 10.814 12.09 7.928000000000001 12.168 7.460000000000001 12.142 7.2780000000000005 12.142 5.770000000000001 11.336 4.808 10.166 3.4559999999999995 7.981999999999999 3.4559999999999995 5.9799999999999995 3.4559999999999995 4.29 4.443999999999999 4.16 4.522000000000002 3.5879999999999996 4.808 2.496 5.353999999999999 2.106 5.8740000000000006 2.028 5.9780000000000015 1.6769999999999998 6.407 1.3259999999999998 6.836 1.222 6.992000000000001 1.1179999999999999 7.1480000000000015 0.858 7.525 0.598 7.902000000000001 0.52 8.162 0.23399999999999999 8.942 0.23399999999999999 9.787 0.23399999999999999 10.632 0.52 10.632 0.5459999999999999 10.632 0.5459999999999999 10.632 0.988 10.632 1.365 10.073 1.742 9.514000000000001 1.755 9.189 1.768 8.864 1.898 8.799000000000001 2.028 8.734 2.145 8.812000000000001 2.262 8.89 2.262 9.046000000000001 L2.2359999999999998 9.046000000000001 Q2.21 9.696 1.664 10.424000000000001 1.1179999999999999 11.204 0.494 11.204 -0.26 11.204 -0.26 9.774000000000001 L-0.26 9.540000000000001 Q-0.26 7.642000000000001 1.482 5.406000000000002 2.314 4.314 3.6919999999999997 3.507999999999999 3.8739999999999997 3.404 4.407 3.0660000000000025 4.9399999999999995 2.7280000000000015 5.148 2.6240000000000023 6.084 2.1300000000000026 7.54 2.1300000000000026 9.879999999999999 2.1300000000000026 11.648 3.3000000000000007 13.676 4.652000000000001 13.676 7.2780000000000005 13.676 7.902000000000001 13.363999999999999 9.046000000000001 12.974 10.762 11.725999999999999 12.374 10.66 13.934000000000001 8.996 14.844000000000001 9.386 16.742 10.113999999999999 19.056 10.373999999999999 19.914 11.102 20.603 11.83 21.292 12.687999999999999 21.292 13.883999999999999 21.292 13.883999999999999 18.666 13.883999999999999 16.82 12.895999999999999 15.858 12.636 15.624 12.324 15.624 zM3.8739999999999997 13.18 L3.77 10.164 Q3.77 8.786000000000001 4.42 7.59 4.732 7.0440000000000005 5.356 6.134 5.4079999999999995 6.030000000000001 5.486 6.030000000000001 5.564 6.030000000000001 5.6419999999999995 6.043000000000001 5.72 6.056000000000001 5.771999999999999 6.173 5.824 6.290000000000001 5.771999999999999 6.4460000000000015 5.148 7.356 5.148 8.474 5.148 9.592 5.33 10.502 5.382 11.282 5.382 12.712 L5.486 18.25 Q5.486 18.666 5.356 19.264 5.226 19.862000000000002 5.2 20.096 5.148 21.292 4.407 22.332 3.666 23.372 2.6 23.372 2.262 23.372 1.768 23.021 1.274 22.67 1.066 22.41 0.754 21.89 0.754 20.98 0.754 20.07 1.183 19.069 1.6119999999999999 18.068 2.4179999999999997 18.068 2.444 18.068 2.4699999999999998 18.068 3.042 18.068 3.25 19.29 3.328 19.732 3.328 20.265 3.328 20.798000000000002 3.068 21.058 2.808 21.318 2.457 21.214 2.106 21.11 2.132 20.85 2.1839999999999997 20.46 2.678 20.72 3.042 20.59 3.042 20.018 3.042 19.81 2.9899999999999998 19.55 2.808 18.562 2.4179999999999997 18.562 1.8459999999999999 18.588 1.547 19.472 1.248 20.356 1.248 21.006 1.248 21.656 1.508 22.124 1.6119999999999999 22.254 1.9889999999999999 22.449 2.366 22.644 2.6 22.67 3.38 22.67 3.9259999999999997 21.851 4.4719999999999995 21.032 4.537 19.966 4.601999999999999 18.9 4.601999999999999 18.224 4.601999999999999 17.548000000000002 4.3549999999999995 16.573 4.108 15.597999999999999 4.082 15 L3.8739999999999997 13.18 zM7.851999999999999 12.816 Q7.851999999999999 11.594000000000001 7.332 11.594000000000001 7.124 11.594000000000001 6.824999999999999 11.984 6.526 12.374 6.396 12.816 6.343999999999999 13.18 6.617 13.791 6.89 14.402000000000001 7.241 14.402000000000001 7.592 14.402000000000001 8.06 14.22 7.9559999999999995 13.284 7.851999999999999 12.816 z" /><path d="M17.03 15.260000000000002 L16.822 16.95 Q16.822 18.848 17.576 18.848 18.174 18.848 18.694 18.302 19.214 17.756 19.578 16.898 20.098 15.676 20.488 14.038 20.54 13.778 20.878 13.778 21.216 13.778 21.281 13.908000000000001 21.346 14.038 21.606 14.48 21.814 15.208 22.165 16.846 22.516 18.484 22.646 18.939 22.776 19.394 22.776 19.589 22.776 19.784 22.555 19.992 22.334 20.2 22.125999999999998 20.2 21.45 20.2 21.294 19.68 21.137999999999998 19.16 21.06 18.588 20.982 18.016 20.917 17.262 20.852 16.508 20.8 16.118000000000002 19.552 19.732 17.576 19.732 16.9 19.732 16.458 18.796 16.016 17.86 15.99 17.236 15.964 16.612000000000002 16.068 16.066 16.172 15.52 16.198 15.260000000000002 16.224 15 16.354 14.701 16.484 14.402000000000001 16.51 14.233 16.536 14.064 16.666 14.025 16.796 13.986 16.913 14.051 17.03 14.116 16.991 14.285 16.951999999999998 14.454 16.991 14.779 17.03 15.104 17.03 15.260000000000002 z" /><path d="M30.471999999999998 21.526 Q30.471999999999998 24.438 29.561999999999998 26.752 29.067999999999998 28.052 28.599999999999998 28.701999999999998 28.131999999999998 29.352 27.118 29.976 26.936 30.106 26.572 30.366 26 30.782 25.479999999999997 30.782 24.336 30.782 23.491 29.261 22.645999999999997 27.74 22.645999999999997 26.219 22.645999999999997 24.698 23.738 23.125 24.83 21.552 26.52 21.552 26.546 21.552 26.572 21.552 28.054 21.552 28.054 23.944 28.054 25.062 27.442999999999998 26.401 26.831999999999997 27.74 25.843999999999998 27.74 24.57 27.74 24.622 26.154 24.622 25.27 24.985999999999997 24.412 25.349999999999998 23.554 25.869999999999997 23.554 26.026 23.554 26.208 23.632 L26.442 24.126 Q26.442 24.282 26.311999999999998 24.36 26.182 24.438 26.038999999999998 24.386 25.895999999999997 24.334 25.895999999999997 24.178 26 24.1 26.026 24.1 25.688 23.996 25.454 24.594 25.246 25.088 25.194 25.374 L25.142 26.128 Q25.142 26.856 25.843999999999998 26.856 26.363999999999997 26.856 26.779999999999998 25.738 27.195999999999998 24.62 27.195999999999998 23.97 27.195999999999998 22.306 26.546 22.306 26.52 22.306 26.494 22.306 25.116 22.306 24.258 23.645 23.4 24.984 23.4 26.245 23.4 27.506 23.985 28.676 24.57 29.846 25.427999999999997 29.846 25.791999999999998 29.846 26.208 29.534 26.624 29.222 26.65 29.222 27.456 28.728 27.82 28.156 28.183999999999997 27.584 28.651999999999997 26.362000000000002 29.432 24.282 29.432 21.552 29.432 20.564 29.302 19.394 28.314 20.278 26.831999999999997 20.278 25.349999999999998 20.278 24.362 19.225 23.374 18.172 23.374 16.95 23.374 16.872 23.374 16.768 23.374 14.688 23.985 13.349 24.596 12.01 26.52 11.412 26.727999999999998 11.360000000000001 27.195999999999998 11.360000000000001 28.028 11.360000000000001 28.639 12.075000000000001 29.25 12.790000000000001 29.25 13.557 29.25 14.324000000000002 28.86 14.870000000000001 28.47 15.416 27.976 15.416 27.637999999999998 15.416 27.378 14.74 27.326 14.584 27.43 14.493 27.534 14.402000000000001 27.663999999999998 14.415 27.793999999999997 14.428 27.845999999999997 14.558 L27.845999999999997 14.61 Q27.845999999999997 14.636 27.898 14.74 27.95 14.844000000000001 28.002 14.844000000000001 28.314 14.844000000000001 28.534999999999997 14.493 28.756 14.142 28.743 13.661000000000001 28.729999999999997 13.18 28.249 12.829 27.768 12.478 27.378 12.478 26.988 12.478 26.468 12.712 25.246 13.18 24.947 14.129000000000001 24.648 15.078 24.648 16.95 24.648 17.808 25.206999999999997 18.484 25.766 19.16 26.572 19.16 28.47 19.16 29.25 18.484 29.198 17.6 29.198 16.989 29.198 16.378 29.509999999999998 14.935 29.822 13.492 30.198999999999998 13.492 30.576 13.492 30.796999999999997 14.129000000000001 31.018 14.766 30.991999999999997 15.234 L31.07 15.676 Q31.07 17.34 30.238 18.406 30.471999999999998 20.694 30.471999999999998 21.526 zM30.212 14.272 Q30.003999999999998 14.272 30.003999999999998 14.831 30.003999999999998 15.39 30.095 16.118000000000002 30.186 16.846 30.186 17.028 30.445999999999998 16.43 30.471999999999998 15.624 30.497999999999998 15.078 30.497999999999998 15.052 30.497999999999998 14.272 30.212 14.272 z" /><path d="M37.076 13.024000000000001 Q37.076 13.024000000000001 37.608999999999995 13.713000000000001 38.141999999999996 14.402000000000001 38.141999999999996 15.091000000000001 38.141999999999996 15.780000000000001 37.635 16.482 37.128 17.184 36.348 17.21 35.983999999999995 17.21 35.061 16.807000000000002 34.138 16.404 33.774 16.092 32.967999999999996 18.12 34.216 19.836 34.71 20.512 35.308 20.512 35.906 20.512 36.634 20.005 37.361999999999995 19.498 37.556999999999995 19.004 37.751999999999995 18.51 38.012 18.536 38.168 18.562 38.168 18.718 38.168 18.874 38.064 19.134 37.726 20.044 37.037 20.694 36.348 21.344 35.516 21.344 34.242 21.318 33.41 20.46 32.604 19.628 32.266 18.25 32.266 16.534 33.111 15.052 33.955999999999996 13.57 35.516 13.102 35.879999999999995 13.024000000000001 36.477999999999994 13.024000000000001 zM36.842 16.482 Q36.842 16.482 37.114999999999995 16.014 37.388 15.546 37.388 15.104 37.388 14.661999999999999 37.037 14.22 36.686 13.778 36.4 13.778 36.114 13.778 35.75 13.96 34.58 14.298 33.982 15.597999999999999 34.007999999999996 15.597999999999999 34.125 15.715 34.242 15.832 35.152 16.157 36.062 16.482 36.452 16.482 z" /><path d="M47.839999999999996 12.582 L46.93 12.738 Q45.864 12.738 45.292 12.088000000000001 44.72 11.438 44.72 10.229000000000001 44.72 9.020000000000001 46.085 7.707000000000001 47.449999999999996 6.394 48.724 5.991000000000001 49.998 5.588000000000001 50.908 5.406000000000002 51.558 1.870000000000001 53.56 1.870000000000001 54.105999999999995 1.870000000000001 54.483 2.2729999999999997 54.86 2.676000000000002 54.86 3.027000000000001 54.86 3.378 54.808 3.521000000000001 54.756 3.6640000000000015 54.704 3.7550000000000026 54.652 3.846 54.535 3.975999999999999 54.418 4.106000000000002 54.339999999999996 4.158000000000001 54.028 4.417999999999999 53.924 4.509 53.82 4.600000000000001 53.69 4.535 53.56 4.470000000000002 53.534 4.34 53.507999999999996 4.210000000000001 53.611999999999995 4.106000000000002 54.678 3.404 54.08 2.6240000000000023 53.872 2.3900000000000006 53.56 2.3900000000000006 51.948 2.4160000000000004 51.739999999999995 5.302 L52.702 5.224 Q55.769999999999996 5.224 58.266 6.472000000000001 60.839999999999996 7.850000000000001 60.839999999999996 9.67 60.839999999999996 11.49 59.071999999999996 13.44 60.346 14.48 60.346 16.092 60.346 17.184 59.748 18.822 59.15 20.46 58.096999999999994 21.734 57.044 23.008 55.796 23.008 55.12 23.008 54.509 22.201999999999998 53.897999999999996 21.396 53.897999999999996 20.694 53.897999999999996 20.33 54.015 20.07 54.132 19.81 54.158 19.719 54.184 19.628 54.339999999999996 19.433 54.495999999999995 19.238 54.522 19.134 54.574 18.978 54.717 18.965 54.86 18.951999999999998 54.964 19.056 55.068 19.16 55.028999999999996 19.264 54.989999999999995 19.368 54.989999999999995 19.615 54.989999999999995 19.862000000000002 54.951 19.966 54.912 20.07 54.951 20.278 54.989999999999995 20.486 54.989999999999995 20.681 54.989999999999995 20.876 55.263 21.175 55.536 21.474 55.796 21.474 56.498 21.474 57.096 20.876 57.693999999999996 20.278 58.058 19.394 58.733999999999995 17.73 58.851 16.846 58.967999999999996 15.962 58.942 15.832 58.942 14.948 58.187999999999995 14.246 57.459999999999994 14.766 56.68 15.078 55.717999999999996 15.468 54.808 15.936 53.897999999999996 16.404 53.768 16.404 52.988 16.404 52.702 15.988 52.312 22.098 48.879999999999995 24.022 48.542 24.204 47.567 24.204 46.592 24.204 45.89 23.086 44.693999999999996 21.188 45.5 18.796 45.525999999999996 18.64 45.669 18.614 45.812 18.588 45.903 18.666 45.994 18.744 45.942 18.951999999999998 45.89 19.16 45.89 20.746 45.89 21.162 46.254 21.994 46.644 23.034 47.684 23.034 47.762 23.034 47.918 22.878 48.074 22.722 48.152 22.696 49.738 21.786 50.492 19.589 51.245999999999995 17.392 51.245999999999995 14.675 51.245999999999995 11.958 50.973 10.268 50.699999999999996 8.578000000000001 50.699999999999996 7.954000000000001 50.699999999999996 7.33 50.751999999999995 6.732000000000001 49.972 6.8100000000000005 48.958 7.122 47.943999999999996 7.434000000000001 46.735 8.357000000000001 45.525999999999996 9.280000000000001 45.525999999999996 10.294 45.525999999999996 10.918000000000001 45.955 11.542 46.384 12.166 46.93 12.192 L47.839999999999996 12.114 Q47.995999999999995 12.114 48.048 12.231 48.1 12.348 48.048 12.465 47.995999999999995 12.582 47.839999999999996 12.582 zM57.434 7.564 Q57.434 7.564 56.355 7.200000000000001 55.275999999999996 6.836 54.47 6.719000000000001 53.664 6.602 52.845 6.602 52.025999999999996 6.602 51.662 6.628 51.739999999999995 8.110000000000001 51.857 8.825000000000001 51.974 9.540000000000001 52.208 10.736 52.754 13.284 52.754 14.636 L52.754 14.661999999999999 Q53.013999999999996 14.193999999999999 53.82 13.596 55.224 12.686 57.122 12.686 57.459999999999994 12.686 57.98 12.790000000000001 59.436 11.282 59.436 9.592 59.461999999999996 8.89 58.448 8.227 zM53.924 15.260000000000002 Q53.976 15.286000000000001 54.132 15.286000000000001 54.288 15.286000000000001 54.756 15.208 55.275999999999996 15.129999999999999 55.458 15.026 56.211999999999996 14.661999999999999 57.096 13.804 55.562 13.804 54.443999999999996 14.48 53.924 14.870000000000001 53.897999999999996 15.260000000000002 L53.924 15.260000000000002 z" /><path d="M66.94999999999999 14.428 Q67.6 14.428 68.029 15.442 68.458 16.456 68.458 17.496000000000002 68.458 18.536 67.782 19.849 67.106 21.162 66.14399999999999 21.656 65.312 21.994 65.026 21.994 63.959999999999994 21.942 62.867999999999995 21.11 62.166 20.564 61.69799999999999 19.537 61.23 18.51 61.23 17.782 61.23 17.054000000000002 61.477 15.767 61.724 14.48 62.842 13.206 63.907999999999994 12.062000000000001 65.078 12.062000000000001 65.78 12.062000000000001 66.261 12.439 66.74199999999999 12.816 66.74199999999999 13.388 66.74199999999999 13.96 66.49499999999999 14.454 66.24799999999999 14.948 65.85799999999999 14.948 65.832 14.948 65.806 14.948 65.15599999999999 14.948 64.58399999999999 13.986 64.506 13.882000000000001 64.571 13.778 64.636 13.674 64.753 13.661000000000001 64.86999999999999 13.648 64.948 13.752 65.05199999999999 13.908000000000001 65.351 14.168 65.64999999999999 14.428 65.832 14.428 66.14399999999999 14.428 66.24799999999999 13.518 66.24799999999999 12.946 65.078 12.946 64.844 12.946 64.701 12.998000000000001 64.55799999999999 13.05 64.47999999999999 13.076 64.402 13.102 64.31099999999999 13.18 64.22 13.258000000000001 64.16799999999999 13.297 64.116 13.336 64.02499999999999 13.427 63.934 13.518 63.907999999999994 13.57 63.778 13.725999999999999 63.504999999999995 14.038 63.232 14.350000000000001 63.089 14.766 62.946 15.182 62.907 15.871 62.867999999999995 16.560000000000002 62.803 16.976 62.73799999999999 17.392 62.73799999999999 17.548000000000002 L62.73799999999999 18.38 Q62.73799999999999 19.342 62.842 19.576 62.946 19.81 63.023999999999994 19.94 63.17999999999999 20.252 63.413999999999994 20.434 64.47999999999999 21.188 65.065 21.188 65.64999999999999 21.188 66.339 20.655 67.02799999999999 20.122 67.366 19.498 67.964 18.302 67.964 17.171 67.964 16.04 67.314 15.416 66.94999999999999 15.182 66.898 15.572 66.898 15.65 67.02799999999999 15.923 67.158 16.196 67.015 16.352 66.872 16.508 66.651 16.495 66.42999999999999 16.482 66.365 16.339 66.3 16.196 66.18299999999999 15.962 66.066 15.728000000000002 66.066 15.494 66.066 15.260000000000002 66.378 14.844000000000001 66.716 14.428 66.94999999999999 14.428 z" /><path d="M75.34799999999998 14.428 Q75.99799999999999 14.428 76.42699999999999 15.442 76.856 16.456 76.856 17.496000000000002 76.856 18.536 76.17999999999999 19.849 75.50399999999999 21.162 74.54199999999999 21.656 73.71 21.994 73.42399999999999 21.994 72.35799999999999 21.942 71.26599999999999 21.11 70.564 20.564 70.09599999999999 19.537 69.62799999999999 18.51 69.62799999999999 17.782 69.62799999999999 17.054000000000002 69.87499999999999 15.767 70.12199999999999 14.48 71.24 13.206 72.306 12.062000000000001 73.476 12.062000000000001 74.178 12.062000000000001 74.65899999999999 12.439 75.13999999999999 12.816 75.13999999999999 13.388 75.13999999999999 13.96 74.89299999999999 14.454 74.64599999999999 14.948 74.25599999999999 14.948 74.22999999999999 14.948 74.204 14.948 73.55399999999999 14.948 72.98199999999999 13.986 72.904 13.882000000000001 72.969 13.778 73.03399999999999 13.674 73.151 13.661000000000001 73.26799999999999 13.648 73.34599999999999 13.752 73.44999999999999 13.908000000000001 73.749 14.168 74.04799999999999 14.428 74.22999999999999 14.428 74.54199999999999 14.428 74.64599999999999 13.518 74.64599999999999 12.946 73.476 12.946 73.24199999999999 12.946 73.09899999999999 12.998000000000001 72.95599999999999 13.05 72.87799999999999 13.076 72.8 13.102 72.70899999999999 13.18 72.618 13.258000000000001 72.56599999999999 13.297 72.514 13.336 72.42299999999999 13.427 72.332 13.518 72.306 13.57 72.17599999999999 13.725999999999999 71.90299999999999 14.038 71.63 14.350000000000001 71.487 14.766 71.344 15.182 71.30499999999999 15.871 71.26599999999999 16.560000000000002 71.201 16.976 71.136 17.392 71.136 17.548000000000002 L71.136 18.38 Q71.136 19.342 71.24 19.576 71.344 19.81 71.422 19.94 71.57799999999999 20.252 71.812 20.434 72.87799999999999 21.188 73.463 21.188 74.04799999999999 21.188 74.737 20.655 75.42599999999999 20.122 75.764 19.498 76.362 18.302 76.362 17.171 76.362 16.04 75.71199999999999 15.416 75.34799999999998 15.182 75.29599999999999 15.572 75.29599999999999 15.65 75.42599999999999 15.923 75.556 16.196 75.413 16.352 75.27 16.508 75.04899999999999 16.495 74.82799999999999 16.482 74.76299999999999 16.339 74.698 16.196 74.58099999999999 15.962 74.464 15.728000000000002 74.464 15.494 74.464 15.260000000000002 74.776 14.844000000000001 75.11399999999999 14.428 75.34799999999998 14.428 z" /><path d="M85.25399999999999 21.526 Q85.25399999999999 24.438 84.344 26.752 83.85 28.052 83.38199999999999 28.701999999999998 82.91399999999999 29.352 81.89999999999999 29.976 81.71799999999999 30.106 81.35399999999998 30.366 80.78199999999998 30.782 80.26199999999999 30.782 79.118 30.782 78.27299999999998 29.261 77.42799999999998 27.74 77.42799999999998 26.219 77.42799999999998 24.698 78.51999999999998 23.125 79.612 21.552 81.30199999999999 21.552 81.32799999999999 21.552 81.35399999999998 21.552 82.83599999999998 21.552 82.83599999999998 23.944 82.83599999999998 25.062 82.225 26.401 81.61399999999999 27.74 80.62599999999999 27.74 79.35199999999999 27.74 79.40399999999998 26.154 79.40399999999998 25.27 79.76799999999999 24.412 80.13199999999999 23.554 80.65199999999999 23.554 80.80799999999999 23.554 80.99 23.632 L81.22399999999999 24.126 Q81.22399999999999 24.282 81.094 24.36 80.96399999999998 24.438 80.82099999999998 24.386 80.67799999999998 24.334 80.67799999999998 24.178 80.78199999999998 24.1 80.80799999999999 24.1 80.46999999999998 23.996 80.23599999999999 24.594 80.02799999999999 25.088 79.97599999999998 25.374 L79.92399999999999 26.128 Q79.92399999999999 26.856 80.62599999999999 26.856 81.14599999999999 26.856 81.56199999999998 25.738 81.978 24.62 81.978 23.97 81.978 22.306 81.32799999999999 22.306 81.30199999999999 22.306 81.27599999999998 22.306 79.89799999999998 22.306 79.03999999999999 23.645 78.18199999999999 24.984 78.18199999999999 26.245 78.18199999999999 27.506 78.76699999999998 28.676 79.35199999999999 29.846 80.21 29.846 80.57399999999998 29.846 80.99 29.534 81.40599999999999 29.222 81.43199999999999 29.222 82.23799999999999 28.728 82.60199999999999 28.156 82.966 27.584 83.43399999999998 26.362000000000002 84.21399999999998 24.282 84.21399999999998 21.552 84.21399999999998 20.564 84.08399999999999 19.394 83.09599999999999 20.278 81.61399999999999 20.278 80.13199999999999 20.278 79.14399999999999 19.225 78.15599999999999 18.172 78.15599999999999 16.95 78.15599999999999 16.872 78.15599999999999 16.768 78.15599999999999 14.688 78.76699999999998 13.349 79.37799999999999 12.01 81.30199999999999 11.412 81.50999999999999 11.360000000000001 81.978 11.360000000000001 82.80999999999999 11.360000000000001 83.42099999999999 12.075000000000001 84.03199999999998 12.790000000000001 84.03199999999998 13.557 84.03199999999998 14.324000000000002 83.64199999999998 14.870000000000001 83.25199999999998 15.416 82.75799999999998 15.416 82.41999999999999 15.416 82.15999999999998 14.74 82.10799999999999 14.584 82.21199999999999 14.493 82.31599999999999 14.402000000000001 82.44599999999998 14.415 82.576 14.428 82.62799999999999 14.558 L82.62799999999999 14.61 Q82.62799999999999 14.636 82.67999999999999 14.74 82.73199999999999 14.844000000000001 82.78399999999999 14.844000000000001 83.09599999999999 14.844000000000001 83.317 14.493 83.53799999999998 14.142 83.52499999999999 13.661000000000001 83.51199999999999 13.18 83.03099999999999 12.829 82.54999999999998 12.478 82.15999999999998 12.478 81.76999999999998 12.478 81.24999999999999 12.712 80.02799999999999 13.18 79.72899999999998 14.129000000000001 79.42999999999999 15.078 79.42999999999999 16.95 79.42999999999999 17.808 79.98899999999999 18.484 80.54799999999999 19.16 81.35399999999998 19.16 83.25199999999998 19.16 84.03199999999998 18.484 83.97999999999999 17.6 83.97999999999999 16.989 83.97999999999999 16.378 84.29199999999999 14.935 84.60399999999998 13.492 84.981 13.492 85.35799999999999 13.492 85.579 14.129000000000001 85.79999999999998 14.766 85.77399999999999 15.234 L85.85199999999999 15.676 Q85.85199999999999 17.34 85.01999999999998 18.406 85.25399999999999 20.694 85.25399999999999 21.526 zM84.99399999999999 14.272 Q84.78599999999999 14.272 84.78599999999999 14.831 84.78599999999999 15.39 84.87699999999998 16.118000000000002 84.96799999999999 16.846 84.96799999999999 17.028 85.228 16.43 85.25399999999999 15.624 85.27999999999999 15.078 85.27999999999999 15.052 85.27999999999999 14.272 84.99399999999999 14.272 z" /><path d="M89.82999999999998 9.904 Q89.82999999999998 10.424000000000001 89.56999999999998 10.775 89.30999999999999 11.126000000000001 88.86799999999998 11.126000000000001 88.19199999999998 11.126000000000001 88.19199999999998 9.826 88.19199999999998 9.358 88.36099999999999 9.202 88.52999999999999 9.046000000000001 88.99799999999999 9.046000000000001 89.82999999999998 9.046000000000001 89.82999999999998 9.904 zM91.28599999999999 21.968 Q91.28599999999999 22.332 90.77899999999998 22.787 90.27199999999998 23.242 89.73899999999999 23.242 89.20599999999999 23.242 88.50399999999999 22.462 87.80199999999998 21.682 87.80199999999998 20.746 87.80199999999998 19.81 87.93199999999999 19.069 88.06199999999998 18.328 88.12699999999998 17.678 88.19199999999998 17.028 88.24399999999999 16.716 88.29599999999998 16.404 88.25699999999999 16.001 88.21799999999999 15.597999999999999 88.21799999999999 15.468 88.21799999999999 15.338000000000001 88.21799999999999 15.013 88.21799999999999 14.688 88.06199999999998 14.324000000000002 87.80199999999998 14.064 87.95799999999998 13.661000000000001 88.11399999999999 13.258000000000001 88.52999999999999 13.258000000000001 88.55599999999998 13.258000000000001 88.55599999999998 13.232000000000001 L88.55599999999998 13.206 Q88.63399999999999 13.206 88.71199999999999 13.206 89.69999999999999 13.206 89.69999999999999 14.948 89.69999999999999 16.352 89.41399999999999 17.444 88.84199999999998 19.446 88.84199999999998 20.928 88.84199999999998 21.5 89.14099999999999 22.124 89.43999999999998 22.748 89.88199999999999 22.748 90.06399999999998 22.748 90.54499999999999 22.241 91.02599999999998 21.734 91.15599999999998 21.734 91.28599999999999 21.734 91.28599999999999 21.942 L91.28599999999999 21.968 z" /><path d="M96.46 13.024000000000001 Q96.46 13.024000000000001 96.993 13.713000000000001 97.52599999999998 14.402000000000001 97.52599999999998 15.091000000000001 97.52599999999998 15.780000000000001 97.01899999999999 16.482 96.51199999999999 17.184 95.73199999999999 17.21 95.368 17.21 94.445 16.807000000000002 93.52199999999999 16.404 93.15799999999999 16.092 92.35199999999999 18.12 93.6 19.836 94.094 20.512 94.692 20.512 95.28999999999999 20.512 96.01799999999999 20.005 96.74599999999998 19.498 96.94099999999999 19.004 97.13599999999998 18.51 97.39599999999999 18.536 97.55199999999999 18.562 97.55199999999999 18.718 97.55199999999999 18.874 97.448 19.134 97.10999999999999 20.044 96.42099999999999 20.694 95.73199999999999 21.344 94.89999999999999 21.344 93.62599999999999 21.318 92.79399999999998 20.46 91.98799999999999 19.628 91.64999999999999 18.25 91.64999999999999 16.534 92.49499999999999 15.052 93.33999999999999 13.57 94.89999999999999 13.102 95.26399999999998 13.024000000000001 95.862 13.024000000000001 zM96.22599999999998 16.482 Q96.22599999999998 16.482 96.499 16.014 96.77199999999999 15.546 96.77199999999999 15.104 96.77199999999999 14.661999999999999 96.42099999999999 14.22 96.07 13.778 95.78399999999999 13.778 95.49799999999999 13.778 95.13399999999999 13.96 93.96399999999998 14.298 93.36599999999999 15.597999999999999 93.39199999999998 15.597999999999999 93.50899999999999 15.715 93.62599999999999 15.832 94.53599999999999 16.157 95.44599999999998 16.482 95.83599999999998 16.482 z" /></g></svg>