<svg width="170" height="30" xmlns="http://www.w3.org/2000/svg" viewBox="0 0 170 30"><g fill="currentColor"><path d="M1.8199999999999998 5.874000000000002 L1.8199999999999998 5.614000000000001 6.4479999999999995 5.614000000000001 6.4479999999999995 5.874000000000002 5.1739999999999995 5.874000000000002 5.1739999999999995 23.554 6.4479999999999995 23.554 6.4479999999999995 23.814 1.8199999999999998 23.814 1.8199999999999998 23.554 3.016 23.554 3.016 5.874000000000002 1.8199999999999998 5.874000000000002 z" /><path d="M9.177999999999999 11.022 L9.177999999999999 10.814 9.723999999999998 10.814 9.723999999999998 8.214 11.543999999999999 8.214 11.543999999999999 10.814 15.521999999999998 10.814 15.521999999999998 11.022 11.543999999999999 11.022 11.543999999999999 20.486 Q11.543999999999999 22.176000000000002 11.921 22.93 12.297999999999998 23.684 13.506999999999998 23.684 14.715999999999998 23.684 15.963999999999999 23.19 L16.041999999999998 23.398 Q14.741999999999997 23.892 13.064999999999998 23.892 11.387999999999998 23.892 10.556 23.203 9.723999999999998 22.514 9.723999999999998 20.46 L9.723999999999998 11.022 9.177999999999999 11.022 z" /><path d="M28.729999999999997 23.814 Q26.961999999999996 23.814 26.311999999999998 23.138 25.714 22.566 25.714 22.15 L25.714 21.604 Q24.439999999999998 23.918 21.631999999999998 23.918 18.355999999999998 23.918 17.913999999999998 20.954 17.862 20.642 17.862 20.317 17.862 19.992 17.965999999999998 19.602 18.069999999999997 19.212 18.563999999999997 18.744 19.552 17.808 22.906 17.6 23.738 17.522 24.439999999999998 17.522 25.141999999999996 17.522 25.714 17.574 L25.714 13.258000000000001 Q25.662 13.232000000000001 25.714 13.011000000000001 25.766 12.790000000000001 25.622999999999998 12.439 25.479999999999997 12.088000000000001 25.246 11.75 25.012 11.412 24.413999999999998 11.165000000000001 23.816 10.918000000000001 22.854 10.918000000000001 21.891999999999996 10.918000000000001 20.604999999999997 11.269 19.317999999999998 11.620000000000001 18.72 11.958 L18.616 11.776 Q20.93 10.71 23.322 10.71 26 10.71 26.857999999999997 11.672 27.534 12.426 27.534 13.258000000000001 L27.534 21.968 Q27.534 22.722 27.833 23.125 28.131999999999998 23.528 28.443999999999996 23.554 L28.729999999999997 23.606 29.535999999999998 23.606 29.535999999999998 23.814 28.729999999999997 23.814 zM22.048 23.71 Q23.426 23.71 24.531 22.761 25.635999999999996 21.812 25.714 20.928 L25.714 17.782 Q25.012 17.73 24.296999999999997 17.73 23.581999999999997 17.73 22.88 17.808 20.903999999999996 18.042 20.305999999999997 18.692 19.708 19.342 19.708 20.486 19.708 20.694 19.733999999999998 20.954 19.967999999999996 23.71 22.048 23.71 z" /><path d="M34.788 23.814 Q32.5 23.814 31.901999999999997 22.618 31.772 22.358 31.772 22.15 L31.772 4.34 33.592 4.34 33.592 21.968 Q33.592 22.722 33.891 23.125 34.19 23.528 34.501999999999995 23.554 L34.788 23.606 35.593999999999994 23.606 35.593999999999994 23.814 34.788 23.814 z" /><path d="M40.196 23.814 Q39.129999999999995 23.814 38.571 23.346 38.012 22.878 37.986 22.41 L37.96 21.968 37.96 10.814 39.78 10.814 39.78 21.968 Q39.78 22.722 40.079 23.125 40.378 23.528 40.664 23.554 L40.976 23.606 41.782 23.606 41.782 23.814 40.196 23.814 zM37.803999999999995 7.59 Q37.803999999999995 7.59 37.803999999999995 7.122 37.803999999999995 6.654 38.116 6.329000000000001 38.428 6.004000000000001 38.896 6.004000000000001 39.364 6.004000000000001 39.689 6.329000000000001 40.013999999999996 6.654 40.013999999999996 7.122 40.013999999999996 7.59 39.689 7.902000000000001 39.364 8.214 38.896 8.214 38.428 8.214 38.116 7.902000000000001 z" /><path d="M54.599999999999994 23.814 Q52.831999999999994 23.814 52.181999999999995 23.138 51.583999999999996 22.566 51.583999999999996 22.15 L51.583999999999996 21.604 Q50.309999999999995 23.918 47.501999999999995 23.918 44.226 23.918 43.784 20.954 43.73199999999999 20.642 43.73199999999999 20.317 43.73199999999999 19.992 43.836 19.602 43.94 19.212 44.434 18.744 45.422 17.808 48.775999999999996 17.6 49.608 17.522 50.309999999999995 17.522 51.01199999999999 17.522 51.583999999999996 17.574 L51.583999999999996 13.258000000000001 Q51.532 13.232000000000001 51.583999999999996 13.011000000000001 51.635999999999996 12.790000000000001 51.492999999999995 12.439 51.349999999999994 12.088000000000001 51.116 11.75 50.882 11.412 50.28399999999999 11.165000000000001 49.68599999999999 10.918000000000001 48.724 10.918000000000001 47.76199999999999 10.918000000000001 46.474999999999994 11.269 45.187999999999995 11.620000000000001 44.589999999999996 11.958 L44.486 11.776 Q46.8 10.71 49.19199999999999 10.71 51.87 10.71 52.727999999999994 11.672 53.403999999999996 12.426 53.403999999999996 13.258000000000001 L53.403999999999996 21.968 Q53.403999999999996 22.722 53.702999999999996 23.125 54.001999999999995 23.528 54.31399999999999 23.554 L54.599999999999994 23.606 55.40599999999999 23.606 55.40599999999999 23.814 54.599999999999994 23.814 zM47.91799999999999 23.71 Q49.29599999999999 23.71 50.400999999999996 22.761 51.50599999999999 21.812 51.583999999999996 20.928 L51.583999999999996 17.782 Q50.882 17.73 50.166999999999994 17.73 49.452 17.73 48.74999999999999 17.808 46.773999999999994 18.042 46.175999999999995 18.692 45.577999999999996 19.342 45.577999999999996 20.486 45.577999999999996 20.694 45.604 20.954 45.837999999999994 23.71 47.91799999999999 23.71 z" /><path d="M68.146 23.814 Q67.08 23.814 66.521 23.346 65.96199999999999 22.878 65.93599999999999 22.41 L65.91 21.968 65.91 13.804 Q65.91 11.75 64.844 11.178 64.298 10.918000000000001 63.492 10.918000000000001 61.827999999999996 10.918000000000001 60.501999999999995 12.231 59.175999999999995 13.544 59.175999999999995 14.584 L59.175999999999995 23.814 57.355999999999995 23.814 57.355999999999995 10.814 59.175999999999995 10.814 59.175999999999995 13.778 Q59.617999999999995 12.66 60.81399999999999 11.685 62.01 10.71 63.44 10.71 64.86999999999999 10.71 65.767 10.983 66.66399999999999 11.256 67.08 11.75 67.72999999999999 12.556000000000001 67.72999999999999 13.83 L67.72999999999999 21.968 Q67.72999999999999 22.722 68.029 23.125 68.32799999999999 23.528 68.64 23.554 L68.92599999999999 23.606 69.732 23.606 69.732 23.814 68.146 23.814 z" /><path d="M81.76999999999998 23.814 Q80.002 23.814 79.35199999999999 23.138 78.75399999999999 22.566 78.75399999999999 22.15 L78.75399999999999 21.604 Q77.47999999999999 23.918 74.672 23.918 71.39599999999999 23.918 70.954 20.954 70.90199999999999 20.642 70.90199999999999 20.317 70.90199999999999 19.992 71.00599999999999 19.602 71.10999999999999 19.212 71.60399999999998 18.744 72.59199999999998 17.808 75.94599999999998 17.6 76.77799999999999 17.522 77.47999999999999 17.522 78.18199999999999 17.522 78.75399999999999 17.574 L78.75399999999999 13.258000000000001 Q78.70199999999998 13.232000000000001 78.75399999999999 13.011000000000001 78.80599999999998 12.790000000000001 78.66299999999998 12.439 78.52 12.088000000000001 78.28599999999999 11.75 78.05199999999999 11.412 77.454 11.165000000000001 76.856 10.918000000000001 75.89399999999999 10.918000000000001 74.93199999999999 10.918000000000001 73.645 11.269 72.35799999999999 11.620000000000001 71.75999999999999 11.958 L71.65599999999999 11.776 Q73.96999999999998 10.71 76.362 10.71 79.03999999999999 10.71 79.898 11.672 80.57399999999998 12.426 80.57399999999998 13.258000000000001 L80.57399999999998 21.968 Q80.57399999999998 22.722 80.87299999999999 23.125 81.172 23.528 81.484 23.554 L81.76999999999998 23.606 82.576 23.606 82.576 23.814 81.76999999999998 23.814 zM75.088 23.71 Q76.466 23.71 77.57099999999998 22.761 78.67599999999999 21.812 78.75399999999999 20.928 L78.75399999999999 17.782 Q78.05199999999999 17.73 77.33699999999999 17.73 76.62199999999999 17.73 75.91999999999999 17.808 73.94399999999999 18.042 73.34599999999999 18.692 72.74799999999999 19.342 72.74799999999999 20.486 72.74799999999999 20.694 72.77399999999999 20.954 73.008 23.71 75.088 23.71 z" /></g></svg>