<svg width="170" height="30" xmlns="http://www.w3.org/2000/svg" viewBox="0 0 170 30"><g fill="currentColor"><path d="M8.19 22.436 Q8.19 22.904 8.008 22.904 7.826 22.904 7.683 22.592000000000002 7.54 22.28 7.5009999999999994 21.994 7.462 21.708000000000002 7.462 21.526 6.838 21.240000000000002 6.136 20.772000000000002 5.434 20.304000000000002 5.434 19.888 5.434 19.732000000000003 5.564 19.732000000000003 5.6419999999999995 19.732000000000003 6.032 19.979000000000003 6.422 20.226000000000003 6.877 20.525000000000002 7.332 20.824 7.462 20.876 7.462 18.016000000000002 9.061 13.232000000000003 10.66 8.448000000000002 12.376 4.938000000000002 9.23 4.184000000000001 7.02 4.184000000000001 5.928 4.184000000000001 4.9399999999999995 4.379000000000001 3.952 4.574000000000002 3.042 5.003000000000002 2.132 5.432000000000002 1.5859999999999999 6.290000000000003 1.04 7.1480000000000015 1.04 8.318000000000001 1.04 10.970000000000002 3.562 13.310000000000002 3.666 12.790000000000001 3.8219999999999996 12.790000000000001 4.004 12.790000000000001 4.277 13.349000000000002 4.55 13.908000000000001 4.55 14.116000000000001 4.55 14.454 4.082 14.454 3.1199999999999997 14.454 2.145 13.349000000000002 1.17 12.244000000000002 0.611 10.866000000000001 0.052 9.488000000000001 0.052 8.526000000000002 0.052 7.096000000000002 0.689 6.069000000000003 1.3259999999999998 5.042000000000002 2.4179999999999997 4.522000000000002 3.51 4.0020000000000024 4.68 3.7680000000000007 5.85 3.5340000000000025 7.175999999999999 3.5340000000000025 9.568 3.5340000000000025 12.713999999999999 4.210000000000001 13.078 3.352000000000004 13.494 2.988000000000003 13.52 2.988000000000003 13.546 2.988000000000003 13.649999999999999 2.988000000000003 13.78 2.9620000000000033 13.91 2.9360000000000035 14.065999999999999 2.897000000000002 14.222 2.8580000000000005 14.325999999999999 2.8580000000000005 15.053999999999998 2.8580000000000005 15.053999999999998 3.1700000000000017 15.053999999999998 3.1960000000000015 15.040999999999999 3.2220000000000013 15.027999999999999 3.248000000000001 15.027999999999999 3.274000000000001 14.741999999999999 3.6640000000000015 14.274 4.548000000000002 15.235999999999999 4.808000000000003 16.224 5.185000000000002 17.212 5.562000000000003 18.33 6.160000000000002 19.448 6.758000000000003 20.137 7.616000000000001 20.826 8.474000000000002 20.826 9.462000000000002 20.826 10.372000000000002 20.241 11.139000000000001 19.656 11.906000000000002 18.680999999999997 12.439000000000002 17.706 12.972000000000001 16.861 13.310000000000002 16.016 13.648000000000001 15.106 13.882000000000001 16.041999999999998 13.934000000000001 17.134 14.168000000000003 18.226 14.402000000000001 19.396 14.844000000000001 20.566 15.286000000000001 21.333 16.092000000000002 22.099999999999998 16.898000000000003 22.099999999999998 17.912000000000003 22.099999999999998 18.900000000000002 21.189999999999998 19.862000000000002 18.564 22.618000000000002 13.728 22.618000000000002 10.53 22.618000000000002 8.164 21.76 8.164 21.864 8.177 22.085 8.19 22.306 8.19 22.436 zM19.604 9.514000000000001 Q19.604 8.708000000000002 18.98 7.967000000000002 18.355999999999998 7.226000000000003 17.355 6.706000000000001 16.354 6.186000000000002 15.521999999999998 5.8480000000000025 14.69 5.510000000000002 13.883999999999999 5.276000000000002 L13.857999999999999 5.276000000000002 Q11.751999999999999 8.942000000000002 10.113999999999999 13.96 10.53 13.830000000000002 11.270999999999999 13.765 12.011999999999999 13.700000000000003 12.245999999999999 13.648000000000001 13.181999999999999 13.492 14.209 13.219000000000001 15.235999999999999 12.946000000000002 16.575 12.452000000000002 17.913999999999998 11.958000000000002 18.759 11.191000000000003 19.604 10.424000000000001 19.604 9.514000000000001 zM20.878 19.186 Q20.878 19.186 20.878 18.146 20.878 17.106 20.032999999999998 16.339000000000002 19.188 15.572000000000003 17.901 15.208000000000002 16.614 14.844000000000001 15.469999999999999 14.675 14.325999999999999 14.506000000000002 13.389999999999999 14.506000000000002 13.104 14.506000000000002 12.298 14.597000000000001 11.491999999999999 14.688000000000002 10.751 14.766000000000002 10.01 14.844000000000001 9.854 14.844000000000001 9.828 14.844000000000001 9.828 14.844000000000001 8.501999999999999 18.952 8.216 21.136000000000003 10.452 22.020000000000003 13.754 22.020000000000003 18.07 22.020000000000003 19.785999999999998 20.278000000000002 20.878 19.186 20.878 18.146 z" /><path d="M28.99 6.5500000000000025 Q28.99 6.888000000000002 28.496 7.408000000000001 28.002 7.928000000000003 27.872 8.214000000000002 27.534 9.072000000000003 27.144 9.176000000000002 26.624 9.176000000000002 26.624 8.318000000000001 26.624 7.772000000000002 27.43 7.122000000000002 28.235999999999997 6.472000000000001 28.834 6.472000000000001 28.964 6.472000000000001 28.99 6.5500000000000025 zM27.508 10.996000000000002 Q27.456 11.074000000000002 27.157 11.646000000000003 26.858 12.218000000000002 26.65 12.634000000000002 26.442 13.05 26.078 13.856000000000002 25.714 14.662000000000003 25.428 15.39 25.142 16.118000000000002 24.83 17.132 24.518 18.146 24.284 19.16 24.258 19.238000000000003 24.258 19.368000000000002 24.258 19.68 24.518 19.68 24.674 19.68 25.363 19.290000000000003 26.052 18.900000000000002 26.259999999999998 18.900000000000002 26.442 18.900000000000002 26.468 19.004 26.468 19.316000000000003 25.142 20.161 23.816 21.006 23.322 21.006 22.828 21.006 22.828 20.538 22.828 20.304000000000002 22.932 19.992 23.218 19.186 23.517 18.328000000000003 23.816 17.470000000000002 23.971999999999998 17.002000000000002 24.128 16.534000000000002 24.297 16.040000000000003 24.466 15.546000000000003 24.544 15.299000000000001 24.622 15.052000000000001 24.686999999999998 14.805000000000001 24.752 14.558000000000002 24.778 14.428 24.804 14.298000000000002 24.804 14.168000000000003 24.804 14.064000000000002 24.765 13.973000000000003 24.726 13.882000000000001 24.726 13.830000000000002 24.726 13.726000000000003 24.804 13.492 25.375999999999998 11.854000000000001 25.817999999999998 11.308000000000002 26.259999999999998 10.762000000000002 27.118 10.762000000000002 27.456 10.762000000000002 27.508 10.996000000000002 z" /><path d="M33.721999999999994 4.652000000000001 Q32.292 7.616000000000001 30.81 11.815000000000001 29.328 16.014000000000003 28.625999999999998 19.16 28.599999999999998 19.238000000000003 28.599999999999998 19.368000000000002 28.599999999999998 19.68 28.86 19.68 29.016 19.68 29.705 19.290000000000003 30.394 18.900000000000002 30.575999999999997 18.900000000000002 30.732 18.900000000000002 30.81 19.004 30.81 19.316000000000003 29.509999999999998 20.161 28.209999999999997 21.006 27.663999999999998 21.006 27.169999999999998 21.006 27.169999999999998 20.538 27.169999999999998 20.278000000000002 27.273999999999997 19.992 27.95 18.146 28.534999999999997 16.326 29.119999999999997 14.506000000000002 29.874 11.997000000000002 30.627999999999997 9.488000000000001 30.991999999999997 8.292000000000002 31.069999999999997 8.058000000000002 31.069999999999997 7.824000000000002 31.069999999999997 7.720000000000002 31.031 7.629000000000001 30.991999999999997 7.538000000000002 30.991999999999997 7.460000000000003 30.991999999999997 7.3820000000000014 31.069999999999997 7.1480000000000015 31.589999999999996 5.510000000000002 32.032 4.964000000000002 32.474 4.418000000000003 33.332 4.418000000000003 33.696 4.418000000000003 33.721999999999994 4.652000000000001 z" /><path d="M32.396 20.564 Q32.266 20.876 32.135999999999996 20.876 31.901999999999997 20.876 31.616 20.564 31.33 20.252000000000002 31.33 19.836000000000002 31.33 19.446 31.953999999999997 17.860000000000003 32.032 17.652 32.201 17.548000000000002 32.37 17.444000000000003 32.396 17.366 35.204 10.060000000000002 36.842 4.444000000000003 L37.05 4.288000000000004 Q37.232 4.1320000000000014 37.504999999999995 3.9760000000000026 37.778 3.820000000000004 37.959999999999994 3.820000000000004 38.22 3.820000000000004 38.22 4.210000000000001 37.934 5.276000000000002 36.4 9.436000000000002 34.866 13.596000000000002 33.878 15.988000000000001 34.866 14.506000000000002 36.491 12.673000000000002 38.116 10.840000000000002 38.922 10.840000000000002 39.442 10.840000000000002 39.442 11.802000000000001 L39.442 11.984000000000002 Q39.416 12.504000000000001 38.948 14.324000000000002 39.519999999999996 14.038000000000002 39.727999999999994 14.038000000000002 39.806 14.038000000000002 39.806 14.090000000000002 39.806 14.220000000000002 39.480999999999995 14.48 39.156 14.740000000000002 38.818 14.870000000000001 37.803999999999995 18.224 36.842 19.290000000000003 36.477999999999994 19.68 35.36 20.369 34.242 21.058 33.982 21.058 32.916 21.058 32.396 20.564 zM37.518 15.494000000000002 Q34.449999999999996 17.106 33.565999999999995 18.068 33.41 18.380000000000003 33.189 18.874000000000002 32.967999999999996 19.368000000000002 32.89 19.524 33.513999999999996 20.226000000000003 34.164 20.226000000000003 35.23 20.226000000000003 36.153 18.64 37.076 17.054000000000002 37.518 15.494000000000002 zM37.726 14.922 Q38.141999999999996 13.830000000000002 38.193999999999996 12.660000000000002 38.193999999999996 12.114000000000003 37.934 12.114000000000003 37.076 12.114000000000003 33.748 17.418000000000003 35.308 16.144000000000002 37.726 14.922 z" /><path d="M46.852 13.180000000000001 Q46.852 13.180000000000001 46.852 13.388000000000002 46.852 13.596000000000002 46.461999999999996 13.791000000000002 46.071999999999996 13.986 45.76 13.986 45.76 17.028000000000002 44.174 19.186 42.587999999999994 21.344 41.028 21.344 39.519999999999996 21.344 39.519999999999996 19.16 39.519999999999996 18.562 39.623999999999995 17.964000000000002 39.754 17.288 40.092 16.222 40.43 15.156000000000002 40.976 13.908000000000001 41.522 12.660000000000002 42.315 11.789000000000001 43.108 10.918000000000001 43.913999999999994 10.918000000000001 L44.096 10.918000000000001 Q44.096 10.554000000000002 44.303999999999995 10.294000000000002 44.51199999999999 10.034000000000002 44.876 10.034000000000002 45.239999999999995 10.060000000000002 45.525999999999996 11.555000000000001 45.812 13.05 46.358 13.102000000000002 46.852 13.180000000000001 46.852 13.388000000000002 zM45.032 13.778000000000002 Q44.797999999999995 13.648000000000001 44.459999999999994 12.855000000000002 44.122 12.062000000000001 43.992 12.062000000000001 43.18599999999999 12.062000000000001 42.12 14.441000000000003 41.053999999999995 16.82 40.794 18.198 40.69 18.796000000000003 40.69 19.290000000000003 40.69 20.564 41.418 20.564 42.458 20.564 43.745 18.445 45.032 16.326 45.032 13.778000000000002 z" /><path d="M55.042 22.254 Q56.264 22.254 57.577 21.968 58.89 21.682000000000002 59.917 21.032 60.944 20.382 60.944 19.55 60.944 19.42 60.918 19.316000000000003 60.788 18.458000000000002 59.67 17.886000000000003 58.552 17.314 57.083 16.911 55.614000000000004 16.508000000000003 54.171 16.014000000000003 52.728 15.520000000000001 51.727000000000004 14.532000000000002 50.726 13.544 50.726 12.062000000000001 50.726 10.164000000000001 51.779 8.539000000000001 52.832 6.9140000000000015 54.509 5.835000000000003 56.186 4.756000000000004 58.071 4.054000000000002 59.956 3.352000000000004 61.854 3.118000000000002 62.972 2.9620000000000033 63.96 2.9620000000000033 68.406 2.9620000000000033 68.406 5.900000000000002 68.406 7.434000000000003 66.95 8.864000000000003 65.494 10.294000000000002 63.544 10.294000000000002 63.362 10.294000000000002 63.271 10.229000000000003 63.18 10.164000000000001 63.18 10.086000000000002 63.18 10.034000000000002 63.206 9.969000000000001 63.232 9.904000000000002 63.297 9.865000000000002 63.362 9.826000000000002 63.44 9.800000000000002 63.518 9.774000000000003 63.622 9.774000000000003 64.94800000000001 9.774000000000003 66.144 8.773000000000001 67.34 7.772000000000002 67.34 6.290000000000003 67.34 5.536000000000001 67.015 5.003000000000002 66.69 4.470000000000002 66.118 4.171000000000003 65.54599999999999 3.8720000000000034 64.883 3.742000000000001 64.22 3.612000000000002 63.44 3.612000000000002 63.05 3.612000000000002 62.673 3.6380000000000017 62.296 3.6640000000000015 61.932 3.716000000000001 59.462 4.028000000000002 57.291 4.977000000000002 55.120000000000005 5.926000000000002 53.638 7.629000000000001 52.156 9.332000000000003 52.156 11.412000000000003 52.156 12.660000000000002 52.858000000000004 13.557000000000002 53.56 14.454 54.613 14.870000000000001 55.666 15.286000000000001 56.914 15.676000000000002 58.162 16.066000000000003 59.267 16.326 60.372 16.586000000000002 61.178 17.132 61.984 17.678 62.114000000000004 18.458000000000002 L62.14 18.770000000000003 Q62.14 19.836000000000002 60.983000000000004 20.85 59.826 21.864 57.954 22.501 56.082 23.138 54.106 23.138 51.454 23.138 51.454 21.214000000000002 51.454 20.174000000000003 52.156 20.174000000000003 52.234 20.174000000000003 52.286 20.343 52.338 20.512 52.416000000000004 20.785 52.494 21.058 52.598 21.240000000000002 52.78 21.552 53.027 21.76 53.274 21.968 53.586 22.072000000000003 53.898 22.176000000000002 54.249 22.215 54.6 22.254 55.042 22.254 z" /><path d="M76.804 11.464000000000002 Q76.804 11.620000000000001 76.336 12.660000000000002 75.868 13.700000000000003 75.036 15.286000000000001 74.20400000000001 16.872 73.398 18.172 73.086 18.666 72.917 18.991 72.748 19.316000000000003 72.696 19.459000000000003 72.644 19.602 72.501 20.096 72.358 20.59 72.254 20.954 72.15 21.136000000000003 71.968 21.136000000000003 71.708 21.136000000000003 71.435 20.811 71.162 20.486 71.162 20.200000000000003 71.162 20.096 71.175 19.875 71.188 19.654 71.188 19.524 71.188 15.962000000000002 69.758 12.504000000000001 68.822 13.05 67.093 16.469 65.364 19.888 65.364 21.058 65.286 21.344 65.078 21.344 64.818 21.344 64.506 20.98 64.194 20.616 64.194 20.330000000000002 64.194 20.252000000000002 64.22 20.226000000000003 65.312 17.548000000000002 65.312 15.286000000000001 65.312 14.168000000000003 65.13 13.453000000000003 64.94800000000001 12.738000000000001 64.714 12.478000000000002 64.48 12.218000000000002 64.22 12.218000000000002 64.168 12.218000000000002 63.856 12.426000000000002 63.544000000000004 12.634000000000002 63.440000000000005 12.634000000000002 63.362 12.634000000000002 63.362 12.556000000000001 63.362 12.192000000000002 64.038 11.594000000000001 64.714 10.996000000000002 65.078 10.996000000000002 66.144 10.996000000000002 66.144 14.662000000000003 66.144 15.442000000000002 66.066 16.768 66.872 15.286000000000001 68.237 13.206000000000003 69.602 11.126000000000001 70.148 11.126000000000001 70.356 10.840000000000002 70.668 10.840000000000002 71.162 10.840000000000002 71.162 11.412000000000003 71.162 11.490000000000002 71.136 11.633000000000003 71.11 11.776000000000002 71.11 11.854000000000001 71.11 12.010000000000002 71.344 12.686000000000002 71.552 13.310000000000002 71.864 14.649000000000001 72.176 15.988000000000001 72.41 16.989 72.644 17.990000000000002 72.67 17.990000000000002 73.034 17.990000000000002 74.282 15.546000000000003 75.53 13.102000000000002 75.608 11.776000000000002 75.608 11.620000000000001 75.504 11.308000000000002 75.4 10.996000000000002 75.4 10.814000000000002 75.4 10.502000000000002 75.66 10.216000000000001 L75.686 10.216000000000001 Q75.97200000000001 9.982000000000001 76.128 9.982000000000001 76.46600000000001 9.982000000000001 76.635 10.489000000000003 76.804 10.996000000000002 76.804 11.464000000000002 z" /><path d="M84.37 18.770000000000003 Q84.344 18.796000000000003 84.136 18.991 83.928 19.186 83.798 19.290000000000003 83.668 19.394000000000002 83.42099999999999 19.615000000000002 83.174 19.836000000000002 82.992 19.966 82.81 20.096 82.55 20.278000000000002 82.28999999999999 20.46 82.095 20.551000000000002 81.9 20.642000000000003 81.692 20.720000000000002 81.484 20.798000000000002 81.30199999999999 20.798000000000002 80.756 20.798000000000002 80.652 20.148000000000003 80.652 19.056 81.51 16.118000000000002 78.026 20.928 76.518 20.928 75.894 20.928 75.894 19.992 75.894 18.796000000000003 76.609 16.755000000000003 77.324 14.714000000000002 78.364 13.063000000000002 79.404 11.412000000000003 80.184 11.412000000000003 L80.262 11.412000000000003 80.548 11.204000000000002 Q80.782 10.944000000000003 81.276 10.944000000000003 81.666 10.944000000000003 82.368 11.152000000000001 83.07 11.360000000000001 83.148 11.360000000000001 83.252 11.360000000000001 83.42099999999999 11.152000000000001 83.59 10.944000000000003 83.824 10.944000000000003 84.474 10.944000000000003 84.474 11.516000000000002 84.474 11.750000000000002 84.383 12.036000000000001 84.292 12.322000000000001 84.123 12.699000000000002 83.954 13.076 83.928 13.154000000000002 83.902 13.206000000000003 83.681 13.310000000000002 83.46 13.414000000000001 83.434 13.492 82.862 15.104000000000003 82.42 16.937 81.978 18.770000000000003 81.978 19.186 81.978 19.836000000000002 82.342 19.836000000000002 82.706 19.836000000000002 83.239 19.394000000000002 83.77199999999999 18.952 84.162 18.51 84.55199999999999 18.068 84.578 18.068 84.63 18.068 84.63 18.172 84.63 18.562 84.37 18.770000000000003 zM82.654 11.854000000000001 Q82.498 11.854000000000001 82.121 11.802000000000001 81.744 11.750000000000002 81.484 11.750000000000002 81.12 11.750000000000002 80.704 11.854000000000001 80.054 12.036000000000001 78.572 14.935000000000002 77.09 17.834000000000003 77.09 19.264000000000003 77.09 19.706000000000003 77.35 19.706000000000003 77.896 19.706000000000003 79.287 18.12 80.678 16.534000000000002 81.12 15.858 81.77 14.818000000000001 82.316 13.609000000000002 82.862 12.400000000000002 82.862 12.010000000000002 82.862 11.854000000000001 82.732 11.854000000000001 L82.654 11.854000000000001 z" /><path d="M91.754 11.932000000000002 Q91.702 12.452000000000002 91.078 13.414000000000001 90.45400000000001 14.376000000000001 90.116 14.376000000000001 90.012 14.376000000000001 90.012 14.220000000000002 90.012 13.986 90.298 13.271 90.584 12.556000000000001 90.584 12.348000000000003 90.584 11.958000000000002 90.116 11.958000000000002 90.038 11.958000000000002 89.258 12.088000000000001 88.608 12.244000000000002 87.555 12.920000000000002 86.502 13.596000000000002 86.502 14.402000000000001 86.502 14.688000000000002 86.632 14.922 86.97 15.598000000000003 87.815 16.066000000000003 88.66 16.534000000000002 89.271 16.950000000000003 89.882 17.366 89.882 18.042 89.882 19.186 88.127 20.239 86.372 21.292 85.124 21.292 84.916 21.292 84.786 21.123 84.656 20.954 84.656 20.772000000000002 84.656 20.46 84.94200000000001 20.46 85.8 20.46 87.34700000000001 19.927000000000003 88.894 19.394000000000002 88.894 18.770000000000003 88.894 18.406000000000002 88.309 17.912000000000003 87.724 17.418000000000003 87.035 17.002000000000002 86.346 16.586000000000002 85.761 16.001 85.176 15.416 85.176 14.870000000000001 85.176 14.428 85.488 14.038000000000002 85.72200000000001 13.752000000000002 85.982 13.479000000000003 86.242 13.206000000000003 86.476 12.998000000000001 86.71000000000001 12.790000000000001 87.009 12.582000000000003 87.308 12.374000000000002 87.542 12.218000000000002 87.776 12.062000000000001 88.08800000000001 11.906000000000002 88.4 11.750000000000002 88.58200000000001 11.659000000000002 88.764 11.568000000000001 89.063 11.438000000000002 89.362 11.308000000000002 89.479 11.269000000000002 89.596 11.230000000000002 89.856 11.126000000000001 90.116 11.022000000000002 90.142 11.022000000000002 90.584 10.892000000000001 90.818 10.892000000000001 91.754 10.892000000000001 91.754 11.932000000000002 z" /><path d="M99.58 11.646000000000003 Q98.176 13.908000000000001 96.967 16.677 95.758 19.446 95.758 20.98 95.758 21.344 95.966 21.344 96.044 21.344 96.421 21.110000000000003 96.798 20.876 96.876 20.876 97.006 20.876 97.006 21.032 97.006 21.344 96.512 21.695 96.018 22.046000000000003 95.55 22.046000000000003 94.9 22.046000000000003 94.9 21.084000000000003 94.9 19.966 95.628 17.925 96.356 15.884 97.084 14.207 97.812 12.530000000000001 97.812 12.322000000000001 97.812 12.270000000000001 97.786 12.270000000000001 97.682 12.270000000000001 97.318 12.660000000000002 95.68 14.506000000000002 94.562 16.261000000000003 93.444 18.016000000000002 93.06700000000001 18.952 92.69 19.888 92.287 20.447000000000003 91.884 21.006 91.338 21.006 91.104 21.006 91.104 20.746000000000002 91.104 20.512 91.234 20.226000000000003 91.936 18.406000000000002 92.586 16.456000000000003 93.236 14.506000000000002 93.977 12.101000000000003 94.718 9.696000000000002 95.186 8.292000000000002 95.264 8.058000000000002 95.264 7.824000000000002 95.264 7.720000000000002 95.238 7.629000000000001 95.212 7.538000000000002 95.212 7.486000000000002 95.212 7.3820000000000014 95.29 7.1480000000000015 95.888 5.484000000000002 96.304 4.951000000000002 96.72 4.418000000000003 97.578 4.418000000000003 97.916 4.418000000000003 97.968 4.652000000000001 95.134 10.372000000000002 93.366 16.82 97.24 10.762000000000002 99.21600000000001 10.762000000000002 99.762 10.762000000000002 99.762 11.126000000000001 99.762 11.360000000000001 99.58 11.646000000000003 z" /><path d="M123.396 17.236 Q123.5 17.236 123.5 17.470000000000002 123.5 17.704 123.38300000000001 18.042 123.266 18.380000000000003 123.11000000000001 18.64 122.95400000000001 18.900000000000002 122.82400000000001 19.03 121.212 20.668000000000003 118.482 21.734 115.75200000000001 22.8 113.256 22.8 109.14800000000001 22.8 106.99000000000001 20.824 104.83200000000001 18.848000000000003 104.83200000000001 15.39 104.83200000000001 15.104000000000003 104.858 14.792000000000002 105.01400000000001 11.880000000000003 107.02900000000001 9.189000000000002 109.04400000000001 6.498000000000003 111.982 4.9250000000000025 114.92 3.352000000000004 117.80600000000001 3.352000000000004 120.69200000000001 3.352000000000004 121.68 4.652000000000001 121.914 3.950000000000003 121.914 3.6380000000000017 121.914 3.586000000000002 121.86200000000001 3.4300000000000033 121.81 3.274000000000001 121.83600000000001 3.1830000000000034 121.86200000000001 3.0920000000000023 122.04400000000001 3.0920000000000023 122.25200000000001 3.0920000000000023 122.46000000000001 3.1960000000000015 122.668 3.3000000000000007 122.668 3.456000000000003 122.668 3.7680000000000007 122.577 4.0930000000000035 122.486 4.418000000000003 122.343 4.847000000000001 122.2 5.276000000000002 122.14800000000001 5.458000000000002 122.382 6.0820000000000025 122.382 6.888000000000002 122.382 8.656000000000002 121.602 8.656000000000002 121.16 8.656000000000002 120.97800000000001 8.474000000000002 120.796 8.292000000000002 120.796 7.902000000000003 120.796 7.668000000000003 120.822 7.447000000000003 120.84800000000001 7.226000000000003 120.91300000000001 6.992000000000003 120.97800000000001 6.758000000000003 121.03 6.589000000000002 121.08200000000001 6.420000000000002 121.173 6.147000000000002 121.26400000000001 5.874000000000002 121.316 5.7440000000000015 120.87400000000001 5.016000000000002 119.938 4.548000000000002 119.00200000000001 4.080000000000002 117.80600000000001 4.080000000000002 115.05000000000001 4.080000000000002 112.411 5.575000000000003 109.772 7.070000000000002 108.05600000000001 9.592000000000002 106.34 12.114000000000003 106.18400000000001 14.896 106.18400000000001 15.104000000000003 106.18400000000001 15.312000000000001 106.18400000000001 18.354000000000003 108.30300000000001 20.239 110.42200000000001 22.124000000000002 113.56800000000001 22.124000000000002 114.946 22.124000000000002 116.194 21.864 117.44200000000001 21.604000000000003 118.26100000000001 21.266000000000002 119.08000000000001 20.928 119.912 20.369 120.744 19.810000000000002 121.134 19.446 121.524 19.082 122.07000000000001 18.536 122.61600000000001 17.990000000000002 122.694 17.912000000000003 122.772 17.782 123.03200000000001 17.509 123.292 17.236 123.396 17.236 z" /><path d="M132.366 18.770000000000003 Q132.34 18.796000000000003 132.132 18.991 131.924 19.186 131.794 19.290000000000003 131.66400000000002 19.394000000000002 131.417 19.615000000000002 131.17000000000002 19.836000000000002 130.988 19.966 130.806 20.096 130.54600000000002 20.278000000000002 130.286 20.46 130.091 20.551000000000002 129.89600000000002 20.642000000000003 129.68800000000002 20.720000000000002 129.48000000000002 20.798000000000002 129.298 20.798000000000002 128.752 20.798000000000002 128.648 20.148000000000003 128.648 19.056 129.506 16.118000000000002 126.022 20.928 124.51400000000001 20.928 123.89000000000001 20.928 123.89000000000001 19.992 123.89000000000001 18.796000000000003 124.605 16.755000000000003 125.32000000000001 14.714000000000002 126.36000000000001 13.063000000000002 127.4 11.412000000000003 128.18 11.412000000000003 L128.258 11.412000000000003 128.544 11.204000000000002 Q128.77800000000002 10.944000000000003 129.27200000000002 10.944000000000003 129.662 10.944000000000003 130.364 11.152000000000001 131.066 11.360000000000001 131.144 11.360000000000001 131.24800000000002 11.360000000000001 131.417 11.152000000000001 131.586 10.944000000000003 131.82000000000002 10.944000000000003 132.47 10.944000000000003 132.47 11.516000000000002 132.47 11.750000000000002 132.37900000000002 12.036000000000001 132.288 12.322000000000001 132.119 12.699000000000002 131.95000000000002 13.076 131.924 13.154000000000002 131.898 13.206000000000003 131.67700000000002 13.310000000000002 131.45600000000002 13.414000000000001 131.43 13.492 130.858 15.104000000000003 130.416 16.937 129.97400000000002 18.770000000000003 129.97400000000002 19.186 129.97400000000002 19.836000000000002 130.33800000000002 19.836000000000002 130.702 19.836000000000002 131.235 19.394000000000002 131.768 18.952 132.15800000000002 18.51 132.548 18.068 132.574 18.068 132.626 18.068 132.626 18.172 132.626 18.562 132.366 18.770000000000003 zM130.65 11.854000000000001 Q130.494 11.854000000000001 130.11700000000002 11.802000000000001 129.74 11.750000000000002 129.48000000000002 11.750000000000002 129.116 11.750000000000002 128.70000000000002 11.854000000000001 128.05 12.036000000000001 126.56800000000001 14.935000000000002 125.08600000000001 17.834000000000003 125.08600000000001 19.264000000000003 125.08600000000001 19.706000000000003 125.346 19.706000000000003 125.89200000000001 19.706000000000003 127.28300000000002 18.12 128.674 16.534000000000002 129.116 15.858 129.76600000000002 14.818000000000001 130.312 13.609000000000002 130.858 12.400000000000002 130.858 12.010000000000002 130.858 11.854000000000001 130.728 11.854000000000001 L130.65 11.854000000000001 z" /><path d="M139.256 15.260000000000002 Q139.412 15.208000000000002 139.75 15.078000000000003 140.08800000000002 14.948 140.37400000000002 14.870000000000001 140.66000000000003 14.792000000000002 140.946 14.792000000000002 141.12800000000001 14.792000000000002 141.12800000000001 14.870000000000001 141.12800000000001 15.052000000000001 140.86800000000002 15.195000000000002 140.608 15.338000000000001 140.07500000000002 15.494000000000002 139.542 15.650000000000002 139.36 15.728000000000002 139.49 16.404000000000003 139.49 17.21 139.49 19.238000000000003 138.46300000000002 20.161 137.436 21.084000000000003 136.032 21.084000000000003 134.524 21.084000000000003 133.692 20.408 133.458 21.084000000000003 132.80800000000002 22.969 132.15800000000002 24.854 131.872 25.686 131.846 25.738 131.846 25.79 131.846 25.868000000000002 131.937 26.024 132.02800000000002 26.18 132.02800000000002 26.336000000000002 132.02800000000002 26.648000000000003 131.638 27.337000000000003 131.24800000000002 28.026 130.83200000000002 28.026 130.52 28.026 130.52 27.376 130.52 26.830000000000002 130.949 25.478 131.37800000000001 24.126 132.197 21.955000000000002 133.01600000000002 19.784000000000002 133.042 19.68 132.964 19.498 132.964 19.238000000000003 132.964 18.64 133.536 18.276000000000003 135.27800000000002 12.894000000000002 135.56400000000002 11.854000000000001 135.56400000000002 11.828000000000001 135.27800000000002 11.789000000000001 134.99200000000002 11.750000000000002 134.99200000000002 11.620000000000001 134.99200000000002 11.412000000000003 135.40800000000002 11.230000000000002 L135.798 11.074000000000002 Q135.69400000000002 10.970000000000002 135.69400000000002 10.866000000000001 135.69400000000002 10.502000000000002 136.18800000000002 10.073000000000002 136.68200000000002 9.644000000000002 137.02 9.644000000000002 137.228 9.644000000000002 137.228 9.904000000000002 137.228 10.138000000000002 137.098 10.398000000000001 L136.812 11.022000000000002 Q138.65800000000002 12.322000000000001 139.256 15.260000000000002 zM138.24200000000002 16.092000000000002 Q137.8 16.092000000000002 136.448 16.911 135.096 17.73 134.57600000000002 18.198 L134.00400000000002 19.836000000000002 Q134.91400000000002 20.434 135.77200000000002 20.434 137.098 20.434 137.735 19.563000000000002 138.372 18.692 138.372 17.444000000000003 138.372 16.872 138.24200000000002 16.092000000000002 zM138.11200000000002 15.676000000000002 Q137.93 14.740000000000002 137.61800000000002 13.934000000000001 137.306 13.128000000000002 137.03300000000002 12.712000000000002 136.76000000000002 12.296000000000001 136.578 12.296000000000001 136.5 12.296000000000001 136.24 13.037000000000003 135.98000000000002 13.778000000000002 135.538 15.182000000000002 135.096 16.586000000000002 134.86200000000002 17.288 136.11 16.43 138.11200000000002 15.676000000000002 z" /><path d="M147.498 11.932000000000002 Q147.446 12.452000000000002 146.822 13.414000000000001 146.198 14.376000000000001 145.86 14.376000000000001 145.756 14.376000000000001 145.756 14.220000000000002 145.756 13.986 146.042 13.271 146.328 12.556000000000001 146.328 12.348000000000003 146.328 11.958000000000002 145.86 11.958000000000002 145.782 11.958000000000002 145.002 12.088000000000001 144.352 12.244000000000002 143.299 12.920000000000002 142.246 13.596000000000002 142.246 14.402000000000001 142.246 14.688000000000002 142.376 14.922 142.714 15.598000000000003 143.559 16.066000000000003 144.404 16.534000000000002 145.01500000000001 16.950000000000003 145.626 17.366 145.626 18.042 145.626 19.186 143.871 20.239 142.116 21.292 140.868 21.292 140.66 21.292 140.53 21.123 140.4 20.954 140.4 20.772000000000002 140.4 20.46 140.686 20.46 141.544 20.46 143.091 19.927000000000003 144.638 19.394000000000002 144.638 18.770000000000003 144.638 18.406000000000002 144.053 17.912000000000003 143.468 17.418000000000003 142.779 17.002000000000002 142.09 16.586000000000002 141.505 16.001 140.92 15.416 140.92 14.870000000000001 140.92 14.428 141.232 14.038000000000002 141.466 13.752000000000002 141.726 13.479000000000003 141.986 13.206000000000003 142.22 12.998000000000001 142.454 12.790000000000001 142.75300000000001 12.582000000000003 143.052 12.374000000000002 143.286 12.218000000000002 143.52 12.062000000000001 143.832 11.906000000000002 144.144 11.750000000000002 144.326 11.659000000000002 144.508 11.568000000000001 144.807 11.438000000000002 145.106 11.308000000000002 145.223 11.269000000000002 145.34 11.230000000000002 145.6 11.126000000000001 145.86 11.022000000000002 145.886 11.022000000000002 146.328 10.892000000000001 146.562 10.892000000000001 147.498 10.892000000000001 147.498 11.932000000000002 z" /></g></svg>