<svg width="170" height="30" xmlns="http://www.w3.org/2000/svg" viewBox="0 0 170 30"><g fill="currentColor"><path d="M13.733999999999998 9.312000000000001 L13.517999999999999 9.330000000000002 Q13.716 14.91 13.931999999999999 17.34 13.985999999999999 17.934 14.435999999999998 18.51 14.886 19.086000000000002 14.886 19.491 14.886 19.896 14.642999999999999 20.184 14.399999999999999 20.472 13.995 20.472 13.59 20.472 13.310999999999998 19.977 13.031999999999998 19.482 12.978 18.906000000000002 12.546 12.912000000000003 11.898 9.816 10.26 10.644000000000002 8.693999999999999 12.678 10.116 14.928 10.116 16.503 10.116 18.078 9.053999999999998 19.221 7.991999999999999 20.364 7.074 20.364 6.156 20.364 5.661 19.77 5.1659999999999995 19.176000000000002 5.1659999999999995 18.303 5.1659999999999995 17.43 5.7509999999999994 16.089000000000002 6.335999999999999 14.748000000000001 7.289999999999999 13.290000000000001 6.462 12.048000000000002 5.382 11.094000000000001 4.302 10.140000000000002 3.276 9.780000000000001 3.276 9.834000000000001 3.1319999999999997 10.788000000000002 2.502 14.73 2.268 21.156000000000002 2.178 24.054000000000002 2.133 24.522 2.0879999999999996 24.990000000000002 1.8359999999999999 25.251 1.5839999999999999 25.512 1.251 25.512 0.9179999999999999 25.512 0.6389999999999999 25.251 0.36 24.990000000000002 0.36 24.405 0.36 23.82 0.846 20.94 1.8539999999999999 14.964000000000002 1.926 9.546000000000001 1.188 9.384000000000002 1.188 8.628000000000002 1.188 8.286000000000001 1.5119999999999998 8.061000000000002 1.8359999999999999 7.836000000000002 2.304 7.836000000000002 3.6899999999999995 7.836000000000002 5.300999999999999 9.015000000000002 6.911999999999999 10.194 8.208 11.976 9.575999999999999 10.158000000000001 11.033999999999999 8.997000000000002 12.491999999999999 7.836000000000002 13.733999999999998 7.836000000000002 14.579999999999998 7.836000000000002 14.579999999999998 8.520000000000001 14.579999999999998 8.844000000000001 14.300999999999998 9.078000000000001 14.021999999999998 9.312000000000001 13.733999999999998 9.312000000000001 zM8.693999999999999 17.142 Q8.693999999999999 15.774000000000001 7.739999999999999 14.046000000000001 6.281999999999999 16.386000000000003 6.281999999999999 17.574 6.281999999999999 18.222 6.614999999999999 18.708000000000002 6.9479999999999995 19.194000000000003 7.451999999999999 19.194000000000003 7.9559999999999995 19.194000000000003 8.325 18.555 8.693999999999999 17.916 8.693999999999999 17.142 z" /><path d="M23.328 18.276 Q23.328 18.276 23.733 18.825 24.137999999999998 19.374000000000002 24.137999999999998 19.716 24.137999999999998 20.058 23.958 20.265 23.778 20.472 23.472 20.472 22.734 20.472 22.158 18.942 L22.014 18.546 Q21.096 20.472 19.26 20.472 18.342 20.472 17.739 19.887 17.136 19.302 17.136 18.42 17.136 17.052 18.072 16.062 19.008 15.072000000000001 20.52 15 20.16 14.370000000000001 19.719 14.055000000000001 19.278 13.740000000000002 18.918 13.686 18.558 13.632000000000001 18.243000000000002 13.623000000000001 17.928 13.614 17.748 13.488000000000001 17.568 13.362000000000002 17.568 12.993000000000002 17.568 12.624000000000002 17.865000000000002 12.39 18.162 12.156 18.576 12.156 19.746000000000002 12.156 20.88 13.326 22.014 14.496000000000002 22.86 16.998 L23.201999999999998 17.952 Q23.328 18.276 23.733 18.825 zM19.422 15.954 Q19.422 15.954 18.909 16.386000000000003 18.396 16.818 18.396 17.502000000000002 18.396 18.186 18.855 18.645 19.314 19.104 19.962 19.104 20.61 19.104 21.078 18.645 21.546 18.186 21.546 17.556 21.546 17.106 21.384 16.719 21.222 16.332 21.186 16.242 20.718 15.954 20.07 15.954 z" /><path d="M28.908 13.560000000000002 Q27.72 13.560000000000002 26.973 14.379000000000001 26.226 15.198 26.226 16.332 26.226 17.466 27.009 18.258000000000003 27.792 19.05 28.926000000000002 19.05 29.934 19.05 30.744 18.312 31.032 18.060000000000002 31.176000000000002 18.060000000000002 31.32 18.060000000000002 31.428 18.168 31.536 18.276 31.536 18.402 31.536 18.924 30.519 19.698 29.502000000000002 20.472 28.215 20.472 26.928 20.472 25.983 19.428 25.038 18.384 25.038 16.836000000000002 25.038 14.856000000000002 26.532 13.506 28.026 12.156 29.826 12.156 30.582 12.156 31.059 12.417000000000002 31.536 12.678 31.536 13.083000000000002 31.536 13.488000000000001 31.293 13.740000000000002 31.05 13.992 30.816000000000003 13.992 30.582 13.992 30.015 13.776000000000002 29.448 13.560000000000002 28.908 13.560000000000002 z" /><path d="M33.354 15.162 Q33.354 15.162 33.354 16.314 33.354 17.466 34.155 18.267 34.956 19.068 36.099000000000004 19.068 37.242000000000004 19.068 38.016 18.267 38.79 17.466 38.79 16.314 38.79 15.162 38.016 14.370000000000001 37.242000000000004 13.578000000000001 36.099000000000004 13.578000000000001 34.956 13.578000000000001 34.155 14.370000000000001 zM33.714 20.472 Q33.714 20.472 32.94 19.572 32.166000000000004 18.672 32.166000000000004 17.313000000000002 32.166000000000004 15.954 33.012 14.685000000000002 33.858000000000004 13.416 34.992000000000004 12.786000000000001 36.126 12.156 37.278 12.156 38.43 12.156 39.204 13.056000000000001 39.978 13.956000000000001 39.978 15.315000000000001 39.978 16.674 39.132 17.943 38.286 19.212 37.152 19.842000000000002 36.018 20.472 34.866 20.472 z" /><path d="M43.001999999999995 15.216000000000001 L43.11 19.608 Q43.11 19.986 42.894 20.229 42.678 20.472 42.336 20.472 41.994 20.472 41.751 20.229 41.507999999999996 19.986 41.507999999999996 19.608 L41.634 16.044 Q41.634 16.044 41.507999999999996 13.038 41.507999999999996 12.66 41.751 12.408000000000001 41.994 12.156 42.336 12.156 42.678 12.156 42.894 12.399000000000001 43.11 12.642000000000001 43.11 13.002000000000002 43.11 13.362000000000002 43.092 13.542000000000002 44.099999999999994 12.156 45.413999999999994 12.156 47.303999999999995 12.156 47.843999999999994 14.694 L48.528 17.79 Q48.635999999999996 18.204 48.968999999999994 18.681 49.30199999999999 19.158 49.30199999999999 19.536 49.30199999999999 20.472 48.401999999999994 20.472 47.501999999999995 20.472 47.232 19.05 L46.547999999999995 15.288 Q46.205999999999996 13.488000000000001 44.693999999999996 13.488000000000001 43.919999999999995 13.488000000000001 43.488 14.010000000000002 43.056 14.532 43.001999999999995 15.216000000000001 z" /><path d="M51.92999999999999 20.472 Q51.92999999999999 20.472 51.15599999999999 19.572 50.382 18.672 50.382 17.493000000000002 50.382 16.314 50.849999999999994 15.288 51.318 14.262 52.038 13.596 52.757999999999996 12.930000000000001 53.59499999999999 12.543000000000001 54.431999999999995 12.156 55.32299999999999 12.156 56.21399999999999 12.156 56.96999999999999 12.822000000000001 56.952 11.472000000000001 56.843999999999994 9.861000000000002 56.736 8.250000000000002 56.736 7.836000000000002 56.736 7.422000000000002 56.952 7.1430000000000025 57.16799999999999 6.8640000000000025 57.50999999999999 6.8640000000000025 57.852 6.8640000000000025 58.095 7.161000000000001 58.337999999999994 7.458000000000002 58.337999999999994 7.953000000000001 58.337999999999994 8.448000000000002 58.184999999999995 10.257000000000001 58.032 12.066 58.032 13.650000000000002 58.032 15.234000000000002 58.157999999999994 16.395 58.28399999999999 17.556 58.428 17.970000000000002 58.842 19.068 58.842 19.446 58.842 20.472 58.05 20.472 57.096 20.472 56.934 18.438000000000002 56.21399999999999 19.392 55.205999999999996 19.932000000000002 54.19799999999999 20.472 53.06399999999999 20.472 zM51.56999999999999 15.162 Q51.56999999999999 15.162 51.56999999999999 16.314 51.56999999999999 17.466 52.370999999999995 18.267 53.172 19.068 54.315 19.068 55.458 19.068 56.23199999999999 18.267 57.00599999999999 17.466 57.00599999999999 16.242 57.00599999999999 15.018 56.303999999999995 14.298000000000002 55.602 13.578000000000001 54.38699999999999 13.578000000000001 53.172 13.578000000000001 52.370999999999995 14.370000000000001 z" /><path d="M61.37999999999999 15.162 Q61.37999999999999 15.162 61.37999999999999 16.314 61.37999999999999 17.466 62.18099999999999 18.267 62.98199999999999 19.068 64.12499999999999 19.068 65.26799999999999 19.068 66.04199999999999 18.267 66.81599999999999 17.466 66.81599999999999 16.314 66.81599999999999 15.162 66.04199999999999 14.370000000000001 65.26799999999999 13.578000000000001 64.12499999999999 13.578000000000001 62.98199999999999 13.578000000000001 62.18099999999999 14.370000000000001 zM61.73999999999999 20.472 Q61.73999999999999 20.472 60.96599999999999 19.572 60.19199999999999 18.672 60.19199999999999 17.313000000000002 60.19199999999999 15.954 61.03799999999999 14.685000000000002 61.88399999999999 13.416 63.01799999999999 12.786000000000001 64.15199999999999 12.156 65.30399999999999 12.156 66.45599999999999 12.156 67.22999999999999 13.056000000000001 68.00399999999999 13.956000000000001 68.00399999999999 15.315000000000001 68.00399999999999 16.674 67.15799999999999 17.943 66.31199999999998 19.212 65.178 19.842000000000002 64.04399999999998 20.472 62.89199999999999 20.472 z" /><path d="M80.964 10.158000000000001 Q79.938 8.916000000000002 78.858 8.916000000000002 78.012 8.916000000000002 77.43599999999999 9.492 76.86 10.068000000000001 76.86 10.860000000000001 76.86 11.652000000000001 77.319 12.174000000000001 77.77799999999999 12.696000000000002 78.462 13.038 79.146 13.380000000000003 79.938 13.839000000000002 80.73 14.298000000000002 81.414 14.793000000000001 82.098 15.288 82.557 16.143 83.01599999999999 16.998 83.01599999999999 18.240000000000002 83.01599999999999 19.482 82.53 20.706 82.044 21.93 81.252 22.812 80.46 23.694 79.434 24.324 77.382 25.584 75.16799999999999 25.584 73.67399999999999 25.584 72.567 24.846 71.46 24.108 71.46 23.172 71.46 22.236 72.342 22.236 72.684 22.236 73.728 23.19 74.124 23.55 74.817 23.847 75.51 24.144000000000002 76.365 24.144000000000002 77.22 24.144000000000002 78.156 23.82 79.092 23.496000000000002 79.911 22.893 80.73 22.29 81.234 21.291 81.738 20.292 81.738 19.059 81.738 17.826 81.09 16.962 80.442 16.098 79.524 15.612000000000002 78.606 15.126000000000001 77.688 14.667000000000002 76.77 14.208000000000002 76.122 13.488000000000001 75.474 12.768 75.474 11.733 75.474 10.698000000000002 75.93299999999999 9.888000000000002 76.392 9.078000000000001 77.094 8.664000000000001 78.426 7.836000000000002 79.74 7.836000000000002 81.054 7.836000000000002 81.882 8.448000000000002 82.71 9.060000000000002 82.71 9.852000000000002 82.71 10.320000000000002 82.476 10.563000000000002 82.242 10.806000000000001 81.93599999999999 10.806000000000001 81.63 10.806000000000001 81.423 10.635000000000002 81.216 10.464000000000002 80.964 10.158000000000001 z" /><path d="M86.85 20.472 Q86.526 20.472 86.283 20.193 86.04 19.914 85.914 19.518 84.798 15.882000000000001 83.952 14.082 83.61 13.308000000000002 83.61 12.948 83.61 12.588000000000001 83.808 12.372000000000002 84.006 12.156 84.312 12.156 84.78 12.156 85.077 12.858 85.374 13.560000000000002 86.175 15.729000000000001 86.976 17.898 87.138 18.411 87.3 18.924 87.354 19.068 L87.408 19.248 Q87.912 18.906000000000002 88.551 17.826 89.19 16.746000000000002 89.424 15.684000000000001 89.082 14.766000000000002 88.758 14.037 88.434 13.308000000000002 88.434 12.948 88.434 12.588000000000001 88.632 12.372000000000002 88.83 12.156 89.136 12.156 89.604 12.156 89.901 12.858 90.198 13.560000000000002 90.999 15.729000000000001 91.8 17.898 91.962 18.411 92.124 18.924 92.178 19.068 L92.232 19.248 Q92.88 18.816000000000003 93.627 17.367 94.374 15.918000000000001 94.374 14.748000000000001 94.374 14.352 94.158 13.803 93.942 13.254000000000001 93.942 12.948 93.942 12.642000000000001 94.185 12.399000000000001 94.428 12.156 94.842 12.156 95.256 12.156 95.517 12.552000000000001 95.77799999999999 12.948 95.77799999999999 13.884 95.77799999999999 14.82 95.157 16.422 94.536 18.024 93.54599999999999 19.248 92.556 20.472 91.674 20.472 91.062 20.472 90.738 19.518 90.666 19.32 90.414 18.528000000000002 L89.964 17.214000000000002 Q89.298 18.6 88.452 19.536 87.606 20.472 86.85 20.472 z" /><path d="M103.14 18.276 Q103.14 18.276 103.545 18.825 103.95 19.374000000000002 103.95 19.716 103.95 20.058 103.77000000000001 20.265 103.59 20.472 103.284 20.472 102.546 20.472 101.97 18.942 L101.82600000000001 18.546 Q100.908 20.472 99.072 20.472 98.15400000000001 20.472 97.551 19.887 96.94800000000001 19.302 96.94800000000001 18.42 96.94800000000001 17.052 97.884 16.062 98.82000000000001 15.072000000000001 100.33200000000001 15 99.97200000000001 14.370000000000001 99.531 14.055000000000001 99.09 13.740000000000002 98.73 13.686 98.37 13.632000000000001 98.055 13.623000000000001 97.74000000000001 13.614 97.56 13.488000000000001 97.38000000000001 13.362000000000002 97.38000000000001 12.993000000000002 97.38000000000001 12.624000000000002 97.677 12.39 97.974 12.156 98.388 12.156 99.558 12.156 100.69200000000001 13.326 101.82600000000001 14.496000000000002 102.67200000000001 16.998 L103.01400000000001 17.952 Q103.14 18.276 103.545 18.825 zM99.23400000000001 15.954 Q99.23400000000001 15.954 98.721 16.386000000000003 98.208 16.818 98.208 17.502000000000002 98.208 18.186 98.667 18.645 99.126 19.104 99.774 19.104 100.42200000000001 19.104 100.89 18.645 101.358 18.186 101.358 17.556 101.358 17.106 101.196 16.719 101.034 16.332 100.998 16.242 100.53 15.954 99.882 15.954 z" /><path d="M106.164 20.472 Q106.164 20.472 105.75 20.202 105.33600000000001 19.932000000000002 105.33600000000001 19.527 105.33600000000001 19.122 105.57900000000001 18.879 105.822 18.636000000000003 106.06500000000001 18.636000000000003 106.308 18.636000000000003 106.866 18.852 107.424 19.068 108.027 19.068 108.63000000000001 19.068 109.242 18.753 109.854 18.438000000000002 109.854 17.979 109.854 17.52 109.39500000000001 17.268 108.936 17.016000000000002 108.28800000000001 16.863 107.64 16.71 106.992 16.512 106.34400000000001 16.314 105.885 15.909 105.426 15.504000000000001 105.426 14.91 105.426 13.938000000000002 106.668 13.047 107.91000000000001 12.156 109.40400000000001 12.156 110.12400000000001 12.156 110.51100000000001 12.417000000000002 110.89800000000001 12.678 110.89800000000001 13.092000000000002 110.89800000000001 13.506 110.655 13.749000000000002 110.412 13.992 110.16900000000001 13.992 109.926 13.992 109.36800000000001 13.776000000000002 108.81 13.560000000000002 108.20700000000001 13.560000000000002 107.604 13.560000000000002 107.16300000000001 13.812000000000001 106.72200000000001 14.064 106.72200000000001 14.424000000000001 106.72200000000001 14.784000000000002 107.415 15.054000000000002 108.108 15.324000000000002 108.936 15.486 109.76400000000001 15.648000000000001 110.45700000000001 16.125 111.15 16.602 111.15 17.358 111.15 18.528000000000002 109.78200000000001 19.5 108.414 20.472 106.83000000000001 20.472 106.164 20.472 105.75 20.202 z" /><path d="M120.276 18.312 Q120.276 18.312 120.645 18.717000000000002 121.014 19.122 121.014 19.536 121.014 19.95 120.726 20.211000000000002 120.438 20.472 120.096 20.472 119.75399999999999 20.472 119.538 20.346 119.322 20.220000000000002 119.178 19.968 118.98 19.59 118.872 19.05 L118.08 15.288 Q117.89999999999999 14.46 117.513 13.974 117.126 13.488000000000001 116.325 13.488000000000001 115.524 13.488000000000001 115.083 14.037 114.642 14.586000000000002 114.624 15.234000000000002 114.768 19.5 114.768 19.743000000000002 114.768 19.986 114.55199999999999 20.229 114.336 20.472 113.994 20.472 113.652 20.472 113.40899999999999 20.229 113.166 19.986 113.166 19.428 113.166 18.87 113.256 16.773 113.346 14.676000000000002 113.346 13.524000000000001 113.346 12.372000000000002 113.256 10.428 113.166 8.484000000000002 113.166 7.926000000000002 113.166 7.368000000000002 113.40899999999999 7.116000000000001 113.652 6.8640000000000025 113.994 6.8640000000000025 114.336 6.8640000000000025 114.55199999999999 7.107000000000001 114.768 7.350000000000001 114.768 7.899000000000001 114.768 8.448000000000002 114.687 10.455000000000002 114.606 12.462000000000002 114.606 13.740000000000002 115.66799999999999 12.156 117.054 12.156 118.944 12.156 119.484 14.694 L120.16799999999999 17.79 Q120.276 18.312 120.645 18.717000000000002 z" /><path d="M135.81 12.48 L136.566 12.642000000000001 Q137.142 12.642000000000001 137.142 11.805000000000001 137.142 10.968000000000002 136.071 10.014000000000001 135 9.060000000000002 133.36200000000002 9.060000000000002 131.31 9.060000000000002 130.14000000000001 10.347000000000001 128.97 11.634000000000002 128.97 13.839000000000002 128.97 16.044 130.26600000000002 17.646 131.562 19.248 133.578 19.248 135.59400000000002 19.248 137.178 17.34 137.52 16.908 137.70000000000002 16.908 137.88 16.908 137.979 17.025000000000002 138.078 17.142 138.078 17.376 138.078 17.61 137.709 18.123 137.34 18.636000000000003 136.71900000000002 19.167 136.098 19.698 135.09900000000002 20.085 134.10000000000002 20.472 133.02 20.472 130.644 20.472 129.06900000000002 18.78 127.49400000000001 17.088 127.49400000000001 14.415000000000001 127.49400000000001 11.742 129.303 9.789000000000001 131.11200000000002 7.836000000000002 133.812 7.836000000000002 135.702 7.836000000000002 136.917 8.817000000000002 138.132 9.798000000000002 138.132 11.292000000000002 138.132 12.48 137.40300000000002 13.263000000000002 136.674 14.046000000000001 135.864 14.046000000000001 135.43200000000002 14.046000000000001 135.22500000000002 13.812000000000001 135.018 13.578000000000001 135.018 13.272000000000002 135.018 12.966000000000001 135.26100000000002 12.723000000000003 135.50400000000002 12.48 135.81 12.48 z" /><path d="M145.854 18.276 Q145.854 18.276 146.25900000000001 18.825 146.66400000000002 19.374000000000002 146.66400000000002 19.716 146.66400000000002 20.058 146.484 20.265 146.304 20.472 145.998 20.472 145.26 20.472 144.684 18.942 L144.54 18.546 Q143.622 20.472 141.786 20.472 140.868 20.472 140.26500000000001 19.887 139.662 19.302 139.662 18.42 139.662 17.052 140.598 16.062 141.534 15.072000000000001 143.046 15 142.686 14.370000000000001 142.245 14.055000000000001 141.804 13.740000000000002 141.44400000000002 13.686 141.084 13.632000000000001 140.769 13.623000000000001 140.454 13.614 140.274 13.488000000000001 140.094 13.362000000000002 140.094 12.993000000000002 140.094 12.624000000000002 140.391 12.39 140.68800000000002 12.156 141.102 12.156 142.272 12.156 143.406 13.326 144.54 14.496000000000002 145.386 16.998 L145.728 17.952 Q145.854 18.276 146.25900000000001 18.825 zM141.948 15.954 Q141.948 15.954 141.435 16.386000000000003 140.922 16.818 140.922 17.502000000000002 140.922 18.186 141.381 18.645 141.84 19.104 142.488 19.104 143.136 19.104 143.604 18.645 144.072 18.186 144.072 17.556 144.072 17.106 143.91 16.719 143.748 16.332 143.712 16.242 143.244 15.954 142.596 15.954 z" /><path d="M149.238 25.584 Q148.89600000000002 25.584 148.635 25.323 148.374 25.062 148.374 24.576 148.374 24.486 148.54500000000002 23.388 148.716 22.29 148.716 19.716 148.716 17.142 148.626 15 148.608 14.586000000000002 148.311 14.046000000000001 148.014 13.506 148.014 13.092000000000002 148.014 12.678 148.284 12.417000000000002 148.554 12.156 148.89600000000002 12.156 149.796 12.156 149.796 13.578000000000001 L149.796 14.424000000000001 Q150.552 13.380000000000003 151.623 12.768 152.69400000000002 12.156 153.612 12.156 154.818 12.156 155.556 13.047 156.294 13.938000000000002 156.294 15.126000000000001 156.294 16.314 155.826 17.34 155.358 18.366 154.638 19.032 153.918 19.698 153.108 20.085 152.298 20.472 151.56 20.472 150.696 20.472 150.696 19.626 150.696 19.248 150.966 19.068 151.236 18.888 151.506 18.888 151.776 18.888 152.073 18.978 152.37 19.068 152.622 19.068 153.702 19.068 154.44 18.267 155.178 17.466 155.178 16.314 155.178 15.162 154.44 14.370000000000001 153.702 13.578000000000001 152.622 13.578000000000001 151.21800000000002 13.578000000000001 150.561 14.712000000000002 149.904 15.846 149.904 17.808 149.904 18.852 150.048 21.102 150.192 23.352 150.192 24.162 150.192 25.584 149.238 25.584 z" /><path d="M158.508 20.472 Q158.508 20.472 158.094 20.202 157.68 19.932000000000002 157.68 19.527 157.68 19.122 157.923 18.879 158.166 18.636000000000003 158.409 18.636000000000003 158.652 18.636000000000003 159.21 18.852 159.768 19.068 160.371 19.068 160.974 19.068 161.586 18.753 162.198 18.438000000000002 162.198 17.979 162.198 17.52 161.739 17.268 161.28 17.016000000000002 160.632 16.863 159.984 16.71 159.336 16.512 158.688 16.314 158.229 15.909 157.77 15.504000000000001 157.77 14.91 157.77 13.938000000000002 159.012 13.047 160.254 12.156 161.748 12.156 162.468 12.156 162.855 12.417000000000002 163.242 12.678 163.242 13.092000000000002 163.242 13.506 162.999 13.749000000000002 162.756 13.992 162.513 13.992 162.27 13.992 161.712 13.776000000000002 161.154 13.560000000000002 160.551 13.560000000000002 159.948 13.560000000000002 159.507 13.812000000000001 159.066 14.064 159.066 14.424000000000001 159.066 14.784000000000002 159.759 15.054000000000002 160.452 15.324000000000002 161.28 15.486 162.108 15.648000000000001 162.801 16.125 163.494 16.602 163.494 17.358 163.494 18.528000000000002 162.126 19.5 160.758 20.472 159.174 20.472 158.508 20.472 158.094 20.202 z" /></g></svg>