<svg width="170" height="30" xmlns="http://www.w3.org/2000/svg" viewBox="0 0 170 30"><g fill="currentColor"><path d="M11.882 21.564999999999998 L11.959999999999999 23.333 Q11.959999999999999 23.671 11.869 23.904999999999998 11.777999999999999 24.139 11.687 24.165 11.596 24.191 11.414 24.191 11.414 24.191 11.206 24.191 11.075999999999999 24.191 10.815999999999999 24.191 L5.564 24.269 Q3.718 24.269 0.9359999999999999 24.217 L0.9359999999999999 23.749 Q1.144 15.767 1.144 14.753 L1.014 5.913 Q1.482 5.6789999999999985 2.964 5.6789999999999985 4.446 5.6789999999999985 5.1739999999999995 5.991 5.122 7.108999999999998 5.122 9.110999999999999 L5.2 18.653 Q5.2 19.485 5.2 20.057 L5.2 20.083 Q5.356 20.031 5.928 20.031 L11.596 20.238999999999997 Q11.856 20.238999999999997 11.934 20.238999999999997 L11.882 21.564999999999998 z" /><path d="M18.927999999999997 24.451 L16.171999999999997 24.372999999999998 Q14.845999999999998 24.139 13.935999999999998 23.229 13.286 22.657 12.973999999999998 21.682 12.661999999999999 20.707 12.649 19.719 12.636 18.730999999999998 12.636 17.639 12.636 16.547 12.623 15.610999999999999 12.61 14.674999999999999 12.674999999999999 14.181 12.739999999999998 13.687 12.818 13.401 12.895999999999999 13.115 13.012999999999998 12.79 13.129999999999999 12.465 13.155999999999999 12.334999999999999 13.494 11.581 14.598999999999998 11.203999999999999 15.703999999999999 10.827 16.497 10.84 17.29 10.853 17.654 10.853 L18.459999999999997 10.827 Q20.799999999999997 10.827 21.97 11.971 22.88 12.568999999999999 23.009999999999998 16.651 23.035999999999998 16.963 23.035999999999998 17.119 22.854 21.747 22.464 22.787 22.333999999999996 23.099 22.204 23.229 21.787999999999997 23.826999999999998 20.968999999999998 24.113 20.15 24.398999999999997 19.733999999999998 24.424999999999997 19.317999999999998 24.451 18.927999999999997 24.451 zM17.732 20.759 Q19.317999999999998 20.759 19.604 19.615 19.759999999999998 18.237 19.759999999999998 17.483 19.759999999999998 16.729 19.682 16.339 19.552 15.402999999999999 18.927999999999997 14.987 18.537999999999997 14.753 18.095999999999997 14.753 17.654 14.753 17.198999999999998 14.87 16.744 14.987 16.406 15.402999999999999 16.25 15.533 16.171999999999997 16.04 16.093999999999998 16.547 16.067999999999998 17.691 L16.016 19.355 Q16.016 20.057 16.549 20.407999999999998 17.082 20.759 17.732 20.759 z" /><path d="M26.416 11.243 L27.637999999999998 11.113 Q27.872 11.113 27.976 11.216999999999999 28.028 11.555 28.028 12.023 L28.028 12.594999999999999 Q28.548000000000002 12.309 28.678 12.205 29.9 11.295 31.381999999999998 11.295 32.864000000000004 11.295 33.903999999999996 12.126999999999999 34.397999999999996 12.568999999999999 34.476 14.674999999999999 34.502 15.636999999999999 34.502 16.833 L34.424 22.605 Q34.424 23.567 34.45 24.139 33.748 24.243 31.2 24.243 31.148 23.462999999999997 31.148 21.343999999999998 31.148 19.224999999999998 31.122 18.666 31.096 18.107 31.07 17.834 31.044 17.561 31.031 17.405 31.018 17.249 30.979 16.988999999999997 30.94 16.729 30.901 16.573 30.862000000000002 16.416999999999998 30.81 16.235 30.524 15.428999999999998 29.432000000000002 15.428999999999998 28.938 15.428999999999998 28.431 15.806 27.924 16.183 27.872 17.041 27.846 17.378999999999998 27.846 17.872999999999998 L27.95 22.189 Q27.95 23.436999999999998 27.846 24.009 L27.846 24.113 Q27.612000000000002 24.269 26.832 24.269 L25.402 24.243 Q24.934 24.243 24.622 24.269 L24.544 14.129 Q24.544 11.711 24.596 11.243 25.038 11.295 25.506 11.295 L26.416 11.243 z" /><path d="M42.926 8.408999999999999 L43.056000000000004 6.198999999999998 43.056000000000004 5.913 Q43.056000000000004 5.783000000000001 44.434000000000005 5.783000000000001 45.812000000000005 5.783000000000001 46.332 5.8870000000000005 L46.332 7.602999999999998 Q46.332 7.602999999999998 46.514 21.435 46.514 23.047 46.488 24.165 L44.46 24.217 Q43.602000000000004 24.217 42.978 24.139 42.952000000000005 24.113 42.952000000000005 23.957 L42.926 23.099 Q42.77 22.761 42.666000000000004 22.994999999999997 42.094 24.139 40.742000000000004 24.139 40.508 24.139 40.248000000000005 24.113 39.104000000000006 24.035 38.298 23.554 37.492000000000004 23.073 37.037000000000006 22.436 36.582 21.799 36.322 20.759 35.932 19.198999999999998 35.906000000000006 16.988999999999997 35.854000000000006 12.257 37.986000000000004 11.503 39.026 11.139 39.858000000000004 11.139 42.822 11.139 42.978 11.841 L42.926 9.163 Q42.926 8.695 42.926 8.408999999999999 zM39.026 16.000999999999998 Q38.844 16.494999999999997 38.844 17.691 38.844 18.887 39.494 19.901 40.144000000000005 20.915 41.275000000000006 20.915 42.406000000000006 20.915 42.744 20.018 43.082 19.121 43.082 17.119 43.082 15.116999999999999 42.835 14.636 42.588 14.155 41.496 14.155 39.312000000000005 14.155 39.026 16.000999999999998 z" /><path d="M50.153999999999996 11.243 L51.558 11.139 Q51.766 11.139 51.844 11.216999999999999 51.844 11.503 51.857 11.684999999999999 51.87 11.866999999999999 51.87 12.100999999999999 52.052 11.997 53.092 11.607 54.34 11.216999999999999 55.406 11.216999999999999 56.472 11.216999999999999 56.68 11.269 L56.68 15.844999999999999 Q55.354 15.402999999999999 54.912 15.402999999999999 54.34 15.325 53.677 15.325 53.013999999999996 15.325 52.494 15.559 51.74 15.844999999999999 51.74 17.041 51.74 17.119 51.792 18.756999999999998 51.844 20.395 51.844 24.009 L51.844 24.113 Q51.61 24.269 50.752 24.269 L49.14 24.243 Q48.672 24.243 48.36 24.269 L48.282 14.129 Q48.282 11.711 48.334 11.243 48.775999999999996 11.295 49.244 11.295 L50.153999999999996 11.243 z" /><path d="M57.954 11.035 L58.681999999999995 11.061 Q59.644 11.113 60.215999999999994 11.113 60.788 11.113 61.047999999999995 11.113 L61.489999999999995 11.113 61.489999999999995 11.190999999999999 61.36 19.771 Q61.36 21.096999999999998 61.464 24.035 61.437999999999995 24.217 60.268 24.217 L58.058 24.191 Q57.849999999999994 24.191 57.797999999999995 24.191 57.902 22.916999999999998 57.902 20.785 L57.824 14.753 Q57.824 12.309 57.954 11.061 L57.954 11.035 zM61.464 8.850999999999999 Q61.308 9.084999999999999 60.372 9.084999999999999 L58.318 9.033 Q58.11 9.033 57.954 9.033 L57.849999999999994 5.965 Q57.849999999999994 5.704999999999998 57.849999999999994 5.445 L61.385999999999996 5.523 61.464 8.850999999999999 z" /><path d="M65.104 11.243 L66.326 11.113 Q66.56 11.113 66.664 11.216999999999999 66.716 11.555 66.716 12.023 L66.716 12.594999999999999 Q67.23599999999999 12.309 67.366 12.205 68.588 11.295 70.07 11.295 71.55199999999999 11.295 72.592 12.126999999999999 73.086 12.568999999999999 73.16399999999999 14.674999999999999 73.19 15.636999999999999 73.19 16.833 L73.112 22.605 Q73.112 23.567 73.13799999999999 24.139 72.43599999999999 24.243 69.88799999999999 24.243 69.836 23.462999999999997 69.836 21.343999999999998 69.836 19.224999999999998 69.81 18.666 69.78399999999999 18.107 69.758 17.834 69.732 17.561 69.719 17.405 69.70599999999999 17.249 69.667 16.988999999999997 69.628 16.729 69.589 16.573 69.55 16.416999999999998 69.49799999999999 16.235 69.21199999999999 15.428999999999998 68.11999999999999 15.428999999999998 67.62599999999999 15.428999999999998 67.119 15.806 66.612 16.183 66.56 17.041 66.53399999999999 17.378999999999998 66.53399999999999 17.872999999999998 L66.63799999999999 22.189 Q66.63799999999999 23.436999999999998 66.53399999999999 24.009 L66.53399999999999 24.113 Q66.3 24.269 65.52 24.269 L64.08999999999999 24.243 Q63.62199999999999 24.243 63.309999999999995 24.269 L63.23199999999999 14.129 Q63.23199999999999 11.711 63.284 11.243 63.726 11.295 64.19399999999999 11.295 L65.104 11.243 z" /><path d="M83.09599999999999 24.139 L81.978 24.217 Q81.666 24.113 81.666 23.775 81.666 23.436999999999998 81.71799999999999 23.163999999999998 81.77 22.891 81.77 22.735 81.11999999999999 23.384999999999998 80.17099999999999 23.814 79.222 24.243 78.338 24.243 77.08999999999999 24.243 76.17999999999999 23.047 74.51599999999999 20.863 74.51599999999999 17.275 74.51599999999999 14.700999999999999 75.77699999999999 13.011 77.038 11.321 78.88399999999999 11.269 79.69 11.269 80.067 11.308 80.44399999999999 11.347 80.87299999999999 11.62 81.30199999999999 11.892999999999999 81.53599999999999 12.465 81.50999999999999 12.152999999999999 81.57499999999999 11.724 81.63999999999999 11.295 81.63999999999999 11.139 81.63999999999999 11.113 82.88799999999999 11.113 84.708 11.190999999999999 85.43599999999999 11.243 85.48799999999999 11.658999999999999 85.48799999999999 11.866999999999999 L85.48799999999999 12.126999999999999 Q85.46199999999999 12.802999999999999 85.46199999999999 13.972999999999999 L85.514 20.057 Q85.514 22.163 85.475 22.773999999999997 85.43599999999999 23.384999999999998 85.43599999999999 23.749 85.43599999999999 24.113 85.09799999999998 24.217 L84.78599999999999 24.217 83.09599999999999 24.139 zM79.27399999999999 14.753 Q79.27399999999999 14.753 78.64999999999999 15.234 78.026 15.715 77.86999999999999 16.326 77.71399999999998 16.936999999999998 77.71399999999998 17.964 77.71399999999998 18.991 78.338 19.796999999999997 78.96199999999999 20.602999999999998 80.02799999999999 20.602999999999998 80.85999999999999 20.602999999999998 81.30199999999999 20.134999999999998 81.588 19.823 81.61399999999999 19.147 81.63999999999999 18.471 81.63999999999999 18.003 L81.63999999999999 17.457 Q81.63999999999999 15.481 81.445 15.116999999999999 81.24999999999999 14.753 80.26199999999999 14.753 z" /><path d="M93.028 18.730999999999998 L95.888 18.808999999999997 Q95.966 19.953 97.11 20.343 97.5 20.499 97.994 20.499 98.488 20.499 98.956 20.096 99.42399999999999 19.692999999999998 99.42399999999999 19.017 99.42399999999999 18.159 99.008 17.743 98.488 17.223 98.04599999999999 17.054 97.604 16.884999999999998 97.24 16.794 96.876 16.703 96.746 16.677 95.78399999999999 16.494999999999997 95.67999999999999 16.469 94.77 16.287 93.912 15.584999999999999 92.17 13.921 92.17 11.581 92.17 9.683 93.522 8.018999999999998 94.406 6.952999999999999 95.628 6.433 96.746 6.0169999999999995 98.04599999999999 6.0169999999999995 99.866 6.0169999999999995 101.4 6.719000000000001 102.726 7.395 103.35 8.695 103.76599999999999 9.552999999999999 103.76599999999999 10.372 103.76599999999999 11.190999999999999 103.636 11.866999999999999 L103.61 11.866999999999999 Q102.466 12.049 101.478 12.049 100.49 12.049 99.71 11.841 99.762 11.658999999999999 99.762 11.477 99.762 10.853 99.17699999999999 10.437 98.592 10.020999999999999 98.176 10.020999999999999 96.27799999999999 10.020999999999999 96.46 11.892999999999999 96.77199999999999 12.802999999999999 98.15 13.011 99.52799999999999 13.167 100.698 13.895 101.868 14.623 102.648 15.741 103.636 17.015 103.636 18.601 103.636 20.186999999999998 103.064 21.331 102.466 22.865 101.14 23.593 99.814 24.320999999999998 98.254 24.320999999999998 96.616 24.320999999999998 95.134 23.683999999999997 93.652 23.047 92.781 21.863999999999997 91.91 20.680999999999997 91.91 19.302999999999997 91.91 19.147 91.91 18.991 L91.91 18.835 Q92.066 18.730999999999998 93.028 18.730999999999998 z" /><path d="M111.14999999999999 24.451 L108.394 24.372999999999998 Q107.068 24.139 106.158 23.229 105.508 22.657 105.196 21.682 104.884 20.707 104.871 19.719 104.858 18.730999999999998 104.858 17.639 104.858 16.547 104.845 15.610999999999999 104.832 14.674999999999999 104.89699999999999 14.181 104.962 13.687 105.03999999999999 13.401 105.118 13.115 105.235 12.79 105.352 12.465 105.378 12.334999999999999 105.716 11.581 106.821 11.203999999999999 107.926 10.827 108.719 10.84 109.512 10.853 109.876 10.853 L110.682 10.827 Q113.02199999999999 10.827 114.192 11.971 115.102 12.568999999999999 115.232 16.651 115.258 16.963 115.258 17.119 115.076 21.747 114.68599999999999 22.787 114.556 23.099 114.426 23.229 114.00999999999999 23.826999999999998 113.191 24.113 112.372 24.398999999999997 111.956 24.424999999999997 111.53999999999999 24.451 111.14999999999999 24.451 zM109.954 20.759 Q111.53999999999999 20.759 111.826 19.615 111.982 18.237 111.982 17.483 111.982 16.729 111.904 16.339 111.774 15.402999999999999 111.14999999999999 14.987 110.75999999999999 14.753 110.318 14.753 109.876 14.753 109.42099999999999 14.87 108.966 14.987 108.628 15.402999999999999 108.472 15.533 108.394 16.04 108.316 16.547 108.28999999999999 17.691 L108.238 19.355 Q108.238 20.057 108.771 20.407999999999998 109.304 20.759 109.954 20.759 z" /><path d="M120.40599999999999 5.367000000000001 L120.276 18.860999999999997 Q120.276 21.227 120.38 24.035 120.354 24.217 119.184 24.217 L116.97399999999999 24.191 Q116.76599999999999 24.191 116.714 24.191 116.844 22.605 116.844 20.057 L116.66199999999999 10.333 Q116.66199999999999 7.161000000000001 116.86999999999999 5.2890000000000015 L120.40599999999999 5.367000000000001 z" /><path d="M122.22599999999998 11.035 L122.954 11.061 Q123.91599999999998 11.113 124.48799999999999 11.113 125.05999999999999 11.113 125.32 11.113 L125.76199999999999 11.113 125.76199999999999 11.190999999999999 125.63199999999999 19.771 Q125.63199999999999 21.096999999999998 125.73599999999999 24.035 125.71 24.217 124.53999999999999 24.217 L122.32999999999998 24.191 Q122.12199999999999 24.191 122.07 24.191 122.17399999999999 22.916999999999998 122.17399999999999 20.785 L122.09599999999999 14.753 Q122.09599999999999 12.309 122.22599999999998 11.061 L122.22599999999998 11.035 zM125.73599999999999 8.850999999999999 Q125.57999999999998 9.084999999999999 124.64399999999999 9.084999999999999 L122.58999999999999 9.033 Q122.38199999999999 9.033 122.22599999999998 9.033 L122.12199999999999 5.965 Q122.12199999999999 5.704999999999998 122.12199999999999 5.445 L125.65799999999999 5.523 125.73599999999999 8.850999999999999 z" /><path d="M134.186 8.408999999999999 L134.316 6.198999999999998 134.316 5.913 Q134.316 5.783000000000001 135.694 5.783000000000001 137.072 5.783000000000001 137.59199999999998 5.8870000000000005 L137.59199999999998 7.602999999999998 Q137.59199999999998 7.602999999999998 137.774 21.435 137.774 23.047 137.748 24.165 L135.72 24.217 Q134.862 24.217 134.238 24.139 134.212 24.113 134.212 23.957 L134.186 23.099 Q134.03 22.761 133.926 22.994999999999997 133.35399999999998 24.139 132.00199999999998 24.139 131.768 24.139 131.50799999999998 24.113 130.364 24.035 129.558 23.554 128.75199999999998 23.073 128.297 22.436 127.842 21.799 127.582 20.759 127.192 19.198999999999998 127.166 16.988999999999997 127.11399999999999 12.257 129.24599999999998 11.503 130.286 11.139 131.118 11.139 134.082 11.139 134.238 11.841 L134.186 9.163 Q134.186 8.695 134.186 8.408999999999999 zM130.286 16.000999999999998 Q130.10399999999998 16.494999999999997 130.10399999999998 17.691 130.10399999999998 18.887 130.754 19.901 131.404 20.915 132.535 20.915 133.666 20.915 134.004 20.018 134.34199999999998 19.121 134.34199999999998 17.119 134.34199999999998 15.116999999999999 134.095 14.636 133.84799999999998 14.155 132.756 14.155 130.572 14.155 130.286 16.000999999999998 z" /></g></svg>