<svg width="170" height="30" xmlns="http://www.w3.org/2000/svg" viewBox="0 0 170 30"><g fill="currentColor"><path d="M17.16 23.462999999999997 L17.029999999999998 24.866999999999997 14.404 24.866999999999997 10.686 24.996999999999996 10.581999999999999 23.723 12.479999999999999 23.202999999999996 11.777999999999999 20.394999999999996 11.232 18.834999999999997 5.512 18.834999999999997 4.68 21.564999999999998 4.42 23.202999999999996 6.239999999999999 23.462999999999997 6.109999999999999 24.866999999999997 3.8739999999999997 24.866999999999997 0.364 24.996999999999996 0.26 23.723 1.898 23.281 3.016 20.706999999999997 7.67 6.536999999999999 9.177999999999999 6.2769999999999975 14.533999999999999 20.993 15.548 23.202999999999996 17.16 23.462999999999997 zM8.267999999999999 10.384999999999998 L5.9799999999999995 17.534999999999997 10.712 17.430999999999997 8.267999999999999 10.384999999999998 z" /><path d="M20.721999999999998 12.022999999999998 L21.658 12.022999999999998 22.152 12.490999999999998 22.308 14.154999999999998 Q22.828 13.166999999999998 23.854999999999997 12.477999999999998 24.881999999999998 11.788999999999998 26.259999999999998 11.788999999999998 28.781999999999996 11.788999999999998 29.717999999999996 13.257999999999997 30.653999999999996 14.726999999999999 30.653999999999996 17.691 L30.653999999999996 20.525 30.836 23.281 32.864 23.462999999999997 32.682 24.996999999999996 Q31.408 24.866999999999997 29.328 24.866999999999997 L26.676 24.996999999999996 26.546 23.696999999999996 28.287999999999997 23.281 Q28.548 22.136999999999997 28.548 21.304999999999996 L28.548 17.691 Q28.548 13.374999999999998 25.869999999999997 13.374999999999998 24.362 13.374999999999998 23.465 14.583999999999998 22.567999999999998 15.792999999999997 22.541999999999998 17.743 L22.541999999999998 20.525 22.724 23.281 24.752 23.462999999999997 24.57 24.996999999999996 Q23.296 24.866999999999997 21.216 24.866999999999997 L18.33 24.996999999999996 18.2 23.696999999999996 20.176 23.281 Q20.384 22.032999999999998 20.436 21.435 L20.436 15.688999999999998 20.176 13.712999999999997 18.2 13.296999999999997 18.33 11.918999999999999 Q20.201999999999998 12.022999999999998 20.721999999999998 12.022999999999998 z" /><path d="M39.416 25.127 Q36.971999999999994 25.127 35.580999999999996 23.345999999999997 34.19 21.564999999999998 34.19 18.458 34.19 15.350999999999997 35.65899999999999 13.569999999999999 37.12799999999999 11.788999999999998 39.64999999999999 11.788999999999998 41.157999999999994 11.788999999999998 42.89999999999999 12.412999999999998 L42.89999999999999 8.876999999999999 42.63999999999999 6.901 40.352 6.484999999999999 40.48199999999999 5.106999999999999 Q42.666 5.2109999999999985 43.18599999999999 5.2109999999999985 L44.693999999999996 5.2109999999999985 45.187999999999995 5.6789999999999985 Q45.00599999999999 8.357 45.00599999999999 9.656999999999998 L45.00599999999999 20.525 Q45.00599999999999 21.668999999999997 45.187999999999995 22.891 L45.26599999999999 23.281 47.059999999999995 23.462999999999997 46.87799999999999 24.996999999999996 Q45.60399999999999 24.866999999999997 43.523999999999994 24.866999999999997 L43.16 22.787 Q42.769999999999996 23.670999999999996 41.61299999999999 24.398999999999997 40.455999999999996 25.127 39.416 25.127 zM42.89999999999999 19.485 L42.89999999999999 14.310999999999998 Q41.47 13.374999999999998 39.89699999999999 13.374999999999998 38.324 13.374999999999998 37.452999999999996 14.713999999999999 36.581999999999994 16.052999999999997 36.581999999999994 18.418999999999997 36.581999999999994 20.784999999999997 37.388 22.124 38.193999999999996 23.462999999999997 39.675999999999995 23.462999999999997 41.157999999999994 23.462999999999997 42.028999999999996 22.409999999999997 42.89999999999999 21.357 42.89999999999999 19.485 z" /><path d="M56.34199999999999 23.801 Q56.34199999999999 23.801 55.15899999999999 24.464 53.97599999999999 25.127 52.46799999999999 25.127 50.959999999999994 25.127 49.94599999999999 24.229999999999997 48.931999999999995 23.333 48.931999999999995 21.798999999999996 48.931999999999995 18.912999999999997 52.416 18.340999999999998 L56.57599999999999 17.638999999999996 56.57599999999999 16.781 Q56.57599999999999 13.192999999999998 54.13199999999999 13.192999999999998 52.75399999999999 13.192999999999998 51.66199999999999 13.712999999999997 L51.47999999999999 14.804999999999998 51.47999999999999 15.870999999999997 49.971999999999994 15.948999999999998 49.68599999999999 12.412999999999998 Q52.025999999999996 11.788999999999998 54.36599999999999 11.788999999999998 56.70599999999999 11.788999999999998 57.693999999999996 13.049999999999997 58.681999999999995 14.310999999999998 58.681999999999995 17.301 L58.681999999999995 20.525 Q58.681999999999995 21.668999999999997 58.88999999999999 22.891 L58.94199999999999 23.281 60.73599999999999 23.462999999999997 60.553999999999995 24.996999999999996 Q59.279999999999994 24.866999999999997 57.19999999999999 24.866999999999997 L56.83599999999999 22.813 Q56.34199999999999 23.801 55.15899999999999 24.464 zM52.85799999999999 19.666999999999998 Q51.21999999999999 19.927 51.21999999999999 21.564999999999998 51.21999999999999 22.397 51.71399999999999 22.929999999999996 52.20799999999999 23.462999999999997 53.312999999999995 23.462999999999997 54.41799999999999 23.462999999999997 55.392999999999994 22.630999999999997 56.367999999999995 21.798999999999996 56.57599999999999 20.525 L56.57599999999999 18.964999999999996 52.85799999999999 19.666999999999998 z" /><path d="M67.46999999999998 25.127 Q65.026 25.127 63.63499999999999 23.345999999999997 62.24399999999999 21.564999999999998 62.24399999999999 18.458 62.24399999999999 15.350999999999997 63.71299999999999 13.569999999999999 65.18199999999999 11.788999999999998 67.704 11.788999999999998 69.21199999999999 11.788999999999998 70.954 12.412999999999998 L70.954 8.876999999999999 70.69399999999999 6.901 68.40599999999999 6.484999999999999 68.53599999999999 5.106999999999999 Q70.71999999999998 5.2109999999999985 71.24 5.2109999999999985 L72.74799999999999 5.2109999999999985 73.24199999999999 5.6789999999999985 Q73.05999999999999 8.357 73.05999999999999 9.656999999999998 L73.05999999999999 20.525 Q73.05999999999999 21.668999999999997 73.24199999999999 22.891 L73.32 23.281 75.11399999999999 23.462999999999997 74.93199999999999 24.996999999999996 Q73.65799999999999 24.866999999999997 71.57799999999999 24.866999999999997 L71.21399999999998 22.787 Q70.82399999999998 23.670999999999996 69.66699999999999 24.398999999999997 68.50999999999999 25.127 67.46999999999998 25.127 zM70.954 19.485 L70.954 14.310999999999998 Q69.52399999999999 13.374999999999998 67.951 13.374999999999998 66.37799999999999 13.374999999999998 65.50699999999999 14.713999999999999 64.636 16.052999999999997 64.636 18.418999999999997 64.636 20.784999999999997 65.442 22.124 66.24799999999999 23.462999999999997 67.72999999999999 23.462999999999997 69.21199999999999 23.462999999999997 70.08299999999998 22.409999999999997 70.954 21.357 70.954 19.485 z" /><path d="M84.39599999999999 23.801 Q84.39599999999999 23.801 83.213 24.464 82.02999999999999 25.127 80.52199999999999 25.127 79.01399999999998 25.127 77.99999999999999 24.229999999999997 76.98599999999999 23.333 76.98599999999999 21.798999999999996 76.98599999999999 18.912999999999997 80.46999999999998 18.340999999999998 L84.63 17.638999999999996 84.63 16.781 Q84.63 13.192999999999998 82.18599999999999 13.192999999999998 80.80799999999999 13.192999999999998 79.716 13.712999999999997 L79.53399999999999 14.804999999999998 79.53399999999999 15.870999999999997 78.02599999999998 15.948999999999998 77.74 12.412999999999998 Q80.07999999999998 11.788999999999998 82.41999999999999 11.788999999999998 84.75999999999999 11.788999999999998 85.74799999999999 13.049999999999997 86.73599999999999 14.310999999999998 86.73599999999999 17.301 L86.73599999999999 20.525 Q86.73599999999999 21.668999999999997 86.94399999999999 22.891 L86.99599999999998 23.281 88.78999999999999 23.462999999999997 88.60799999999999 24.996999999999996 Q87.33399999999999 24.866999999999997 85.25399999999999 24.866999999999997 L84.88999999999999 22.813 Q84.39599999999999 23.801 83.213 24.464 zM80.91199999999999 19.666999999999998 Q79.27399999999999 19.927 79.27399999999999 21.564999999999998 79.27399999999999 22.397 79.76799999999999 22.929999999999996 80.26199999999999 23.462999999999997 81.36699999999999 23.462999999999997 82.472 23.462999999999997 83.44699999999999 22.630999999999997 84.42199999999998 21.798999999999996 84.63 20.525 L84.63 18.964999999999996 80.91199999999999 19.666999999999998 z" /></g></svg>