<svg width="170" height="30" xmlns="http://www.w3.org/2000/svg" viewBox="0 0 170 30"><g fill="currentColor"><path d="M9.36 24.126 Q7.175999999999999 24.126 5.420999999999999 22.709 3.666 21.292 2.743 19.082 1.8199999999999998 16.872 1.8199999999999998 14.402000000000001 1.8199999999999998 11.932000000000002 2.743 9.722000000000001 3.666 7.5120000000000005 5.420999999999999 6.095000000000002 7.175999999999999 4.678000000000001 9.36 4.678000000000001 11.543999999999999 4.678000000000001 13.299 6.095000000000002 15.053999999999998 7.5120000000000005 15.976999999999999 9.722000000000001 16.9 11.932000000000002 16.9 14.402000000000001 16.9 16.872 15.976999999999999 19.082 15.053999999999998 21.292 13.299 22.709 11.543999999999999 24.126 9.36 24.126 zM9.36 23.294 Q14.144 23.294 14.144 14.402000000000001 14.144 5.510000000000002 9.36 5.510000000000002 4.576 5.510000000000002 4.576 14.402000000000001 4.576 23.294 9.36 23.294 z" /><path d="M18.928 23.658 L18.928 23.034000000000002 20.28 23.034000000000002 Q20.852 23.034000000000002 20.852 22.462 L20.852 6.342000000000002 Q20.852 5.770000000000003 20.28 5.770000000000003 L18.928 5.770000000000003 18.928 5.146000000000001 22.724 5.146000000000001 22.724 22.462 Q22.724 23.034000000000002 23.296 23.034000000000002 L24.648 23.034000000000002 24.648 23.658 18.928 23.658 z" /><path d="M30.991999999999997 23.346 Q32.422 23.346 33.293 22.098000000000003 34.164 20.85 34.164 19.264000000000003 L34.164 16.846000000000004 Q34.164 15.052000000000001 33.189 13.583000000000002 32.214 12.114000000000003 30.991999999999997 12.114000000000003 29.744 12.114000000000003 29.25 13.583000000000002 28.756 15.052000000000001 28.756 17.73 28.756 20.408 29.25 21.877000000000002 29.744 23.346 30.991999999999997 23.346 zM34.164 23.658 L34.164 22.566000000000003 34.034 22.488 Q32.76 23.970000000000002 31.043999999999997 23.970000000000002 28.99 23.970000000000002 27.729 22.176000000000002 26.468 20.382 26.468 17.73 26.468 15.078000000000001 27.677 13.284000000000002 28.886 11.490000000000002 30.939999999999998 11.490000000000002 31.798 11.490000000000002 32.643 12.075000000000001 33.488 12.660000000000002 34.007999999999996 13.518000000000002 L34.164 13.466000000000001 34.164 6.342000000000002 Q34.164 5.770000000000003 33.592 5.770000000000003 L31.72 5.770000000000003 31.72 5.146000000000001 36.036 5.146000000000001 36.036 22.462 Q36.036 23.034000000000002 36.608 23.034000000000002 L37.96 23.034000000000002 37.96 23.658 34.164 23.658 z" /><path d="M48.36 15.702000000000002 L48.984 15.702000000000002 Q49.244 18.64 51.116 20.967000000000002 52.988 23.294 55.198 23.294 57.33 23.294 58.305 22.254 59.28 21.214000000000002 59.28 19.758000000000003 59.28 18.484 58.539 17.756 57.798 17.028000000000002 56.368 16.456000000000003 L52.416000000000004 14.870000000000001 Q48.412000000000006 13.284000000000002 48.412000000000006 9.566000000000003 48.412000000000006 7.07 49.868 5.874000000000002 51.324000000000005 4.678000000000001 53.508 4.678000000000001 54.548 4.678000000000001 55.536 5.1590000000000025 56.524 5.640000000000001 57.304 6.238000000000003 57.928000000000004 6.706000000000003 58.292 6.706000000000003 58.734 6.706000000000003 58.812000000000005 6.082000000000001 L58.916000000000004 5.146000000000001 59.540000000000006 5.146000000000001 59.800000000000004 11.906000000000002 59.176 11.906000000000002 Q58.552 9.098000000000003 56.888000000000005 7.304000000000002 55.224000000000004 5.510000000000002 53.300000000000004 5.510000000000002 51.844 5.510000000000002 50.908 6.459000000000003 49.972 7.408000000000001 49.972 9.098000000000003 49.972 10.268000000000002 50.57 10.918000000000001 51.168000000000006 11.568000000000001 52.338 12.036000000000001 L57.356 14.038000000000002 Q59.098 14.740000000000002 59.969 16.040000000000003 60.84 17.340000000000003 60.84 18.770000000000003 60.84 20.928 59.410000000000004 22.527 57.980000000000004 24.126 55.198 24.126 54.236000000000004 24.126 53.183 23.684 52.13 23.242 51.844 23.034000000000002 51.558 22.826 50.908 22.371000000000002 50.258 21.916 50.128 21.838 49.998000000000005 21.76 49.894000000000005 21.76 49.686 21.76 49.491 22.033 49.296 22.306 49.244 22.878 L49.14 23.918000000000003 48.542 23.918000000000003 48.36 15.702000000000002 z" /><path d="M67.548 23.970000000000002 Q66.37800000000001 23.970000000000002 65.611 23.138 64.84400000000001 22.306 64.84400000000001 20.876 L64.84400000000001 12.530000000000001 62.92000000000001 12.530000000000001 62.92000000000001 11.802000000000001 63.492000000000004 11.802000000000001 Q64.662 11.802000000000001 65.325 10.541000000000002 65.98800000000001 9.280000000000001 65.98800000000001 7.746000000000002 L65.98800000000001 6.810000000000002 66.71600000000001 6.810000000000002 66.71600000000001 11.802000000000001 69.94000000000001 11.802000000000001 69.94000000000001 12.530000000000001 66.71600000000001 12.530000000000001 66.71600000000001 21.006 Q66.71600000000001 22.826 68.09400000000001 22.826 69.94000000000001 22.826 69.94000000000001 19.706000000000003 L70.408 19.706000000000003 Q70.408 20.304000000000002 70.382 20.694000000000003 70.35600000000001 21.084000000000003 70.21300000000001 21.773 70.07000000000001 22.462 69.784 22.878 69.498 23.294 68.926 23.632 68.35400000000001 23.970000000000002 67.548 23.970000000000002 z" /><path d="M74.672 20.98 Q74.672 23.034000000000002 76.284 23.034000000000002 76.908 23.034000000000002 77.415 22.735000000000003 77.922 22.436 78.299 21.851000000000003 78.676 21.266000000000002 78.871 20.837000000000003 79.066 20.408 79.3 19.758000000000003 L79.3 17.288 77.038 17.782000000000004 Q75.79 18.042 75.231 18.809 74.672 19.576 74.672 20.98 zM72.488 20.902 Q72.488 20.096 72.8 19.459000000000003 73.112 18.822000000000003 73.515 18.458000000000002 73.918 18.094 74.62 17.808 75.322 17.522000000000002 75.751 17.418000000000003 76.18 17.314 76.908 17.184 L79.3 16.742 79.3 14.532000000000002 Q79.3 12.114000000000003 76.882 12.114000000000003 75.998 12.114000000000003 75.27 12.569000000000003 74.542 13.024000000000001 74.542 13.596000000000002 74.542 13.856000000000002 74.62 13.986000000000002 74.724 14.194 75.01 14.246000000000002 75.97200000000001 14.506000000000002 75.97200000000001 15.260000000000002 75.97200000000001 16.274 74.828 16.274 74.256 16.274 73.788 15.832 73.32000000000001 15.390000000000002 73.32000000000001 14.558000000000002 73.32000000000001 13.128000000000002 74.438 12.309000000000001 75.556 11.490000000000002 76.96000000000001 11.490000000000002 78.676 11.490000000000002 79.924 12.387000000000002 81.172 13.284000000000002 81.172 15.182000000000002 L81.172 21.578000000000003 Q81.172 22.878 81.97800000000001 22.878 83.2 22.878 83.2 20.278000000000002 L83.668 20.278000000000002 Q83.668 23.970000000000002 81.588 23.970000000000002 79.378 23.970000000000002 79.3 21.474 L79.17 21.422 Q78.78 22.332 77.909 23.151 77.038 23.970000000000002 75.868 23.970000000000002 74.49 23.970000000000002 73.489 23.294 72.488 22.618000000000002 72.488 20.902 z" /><path d="M85.28 23.658 L85.28 23.034000000000002 86.372 23.034000000000002 Q86.944 23.034000000000002 86.944 22.462 L86.944 12.998000000000001 Q86.944 12.426000000000002 86.372 12.426000000000002 L85.28 12.426000000000002 85.28 11.802000000000001 88.816 11.802000000000001 88.816 14.194 88.92 14.220000000000002 Q89.596 12.920000000000002 90.545 12.205000000000002 91.494 11.490000000000002 92.534 11.490000000000002 93.834 11.490000000000002 94.64 12.166000000000002 95.836 13.128000000000002 95.836 15.364 L95.836 22.462 Q95.836 23.034000000000002 96.408 23.034000000000002 L97.5 23.034000000000002 97.5 23.658 92.3 23.658 92.3 23.034000000000002 93.392 23.034000000000002 Q93.964 23.034000000000002 93.964 22.462 L93.964 14.844000000000001 Q93.964 12.114000000000003 92.3 12.114000000000003 91.13 12.114000000000003 89.973 13.609000000000002 88.816 15.104000000000001 88.816 17.054000000000002 L88.816 22.462 Q88.816 23.034000000000002 89.388 23.034000000000002 L90.48 23.034000000000002 90.48 23.658 85.28 23.658 z" /><path d="M104.104 23.346 Q105.53399999999999 23.346 106.405 22.098000000000003 107.276 20.85 107.276 19.264000000000003 L107.276 16.846000000000004 Q107.276 15.052000000000001 106.30099999999999 13.583000000000002 105.326 12.114000000000003 104.104 12.114000000000003 102.856 12.114000000000003 102.362 13.583000000000002 101.868 15.052000000000001 101.868 17.73 101.868 20.408 102.362 21.877000000000002 102.856 23.346 104.104 23.346 zM107.276 23.658 L107.276 22.566000000000003 107.14599999999999 22.488 Q105.872 23.970000000000002 104.15599999999999 23.970000000000002 102.10199999999999 23.970000000000002 100.841 22.176000000000002 99.58 20.382 99.58 17.73 99.58 15.078000000000001 100.78899999999999 13.284000000000002 101.99799999999999 11.490000000000002 104.05199999999999 11.490000000000002 104.91 11.490000000000002 105.755 12.075000000000001 106.6 12.660000000000002 107.11999999999999 13.518000000000002 L107.276 13.466000000000001 107.276 6.342000000000002 Q107.276 5.770000000000003 106.704 5.770000000000003 L104.832 5.770000000000003 104.832 5.146000000000001 109.148 5.146000000000001 109.148 22.462 Q109.148 23.034000000000002 109.72 23.034000000000002 L111.07199999999999 23.034000000000002 111.07199999999999 23.658 107.276 23.658 z" /><path d="M115.28399999999999 20.98 Q115.28399999999999 23.034000000000002 116.896 23.034000000000002 117.52 23.034000000000002 118.027 22.735000000000003 118.53399999999999 22.436 118.911 21.851000000000003 119.288 21.266000000000002 119.48299999999999 20.837000000000003 119.678 20.408 119.91199999999999 19.758000000000003 L119.91199999999999 17.288 117.64999999999999 17.782000000000004 Q116.402 18.042 115.84299999999999 18.809 115.28399999999999 19.576 115.28399999999999 20.98 zM113.1 20.902 Q113.1 20.096 113.41199999999999 19.459000000000003 113.72399999999999 18.822000000000003 114.127 18.458000000000002 114.53 18.094 115.232 17.808 115.934 17.522000000000002 116.363 17.418000000000003 116.792 17.314 117.52 17.184 L119.91199999999999 16.742 119.91199999999999 14.532000000000002 Q119.91199999999999 12.114000000000003 117.494 12.114000000000003 116.61 12.114000000000003 115.88199999999999 12.569000000000003 115.154 13.024000000000001 115.154 13.596000000000002 115.154 13.856000000000002 115.232 13.986000000000002 115.336 14.194 115.622 14.246000000000002 116.584 14.506000000000002 116.584 15.260000000000002 116.584 16.274 115.44 16.274 114.868 16.274 114.39999999999999 15.832 113.932 15.390000000000002 113.932 14.558000000000002 113.932 13.128000000000002 115.05 12.309000000000001 116.16799999999999 11.490000000000002 117.572 11.490000000000002 119.288 11.490000000000002 120.536 12.387000000000002 121.78399999999999 13.284000000000002 121.78399999999999 15.182000000000002 L121.78399999999999 21.578000000000003 Q121.78399999999999 22.878 122.59 22.878 123.812 22.878 123.812 20.278000000000002 L124.28 20.278000000000002 Q124.28 23.970000000000002 122.19999999999999 23.970000000000002 119.99 23.970000000000002 119.91199999999999 21.474 L119.782 21.422 Q119.392 22.332 118.521 23.151 117.64999999999999 23.970000000000002 116.47999999999999 23.970000000000002 115.10199999999999 23.970000000000002 114.101 23.294 113.1 22.618000000000002 113.1 20.902 z" /><path d="M125.892 23.658 L125.892 23.034000000000002 126.984 23.034000000000002 Q127.556 23.034000000000002 127.556 22.462 L127.556 12.998000000000001 Q127.556 12.426000000000002 126.984 12.426000000000002 L125.892 12.426000000000002 125.892 11.802000000000001 129.428 11.802000000000001 129.428 15.078000000000001 129.53199999999998 15.104000000000001 Q129.974 13.856000000000002 130.611 12.985000000000001 131.248 12.114000000000003 131.768 11.854000000000001 132.418 11.490000000000002 133.06799999999998 11.490000000000002 134.05599999999998 11.490000000000002 134.54999999999998 12.127000000000002 135.04399999999998 12.764000000000001 135.04399999999998 13.622000000000002 135.04399999999998 14.246000000000002 134.68 14.818000000000001 134.316 15.390000000000002 133.588 15.390000000000002 133.094 15.390000000000002 132.756 15.143000000000002 132.418 14.896 132.418 14.402000000000001 132.418 13.648000000000001 133.12 13.258000000000001 133.692 12.946000000000002 133.692 12.556000000000001 133.692 12.114000000000003 132.964 12.114000000000003 132.522 12.114000000000003 132.067 12.348000000000003 131.612 12.582000000000003 131.079 13.349000000000002 130.546 14.116000000000001 130.10399999999998 15.390000000000002 129.428 17.314 129.428 19.03 L129.428 22.462 Q129.428 23.034000000000002 130 23.034000000000002 L131.09199999999998 23.034000000000002 131.09199999999998 23.658 125.892 23.658 z" /><path d="M141.33599999999998 23.346 Q142.766 23.346 143.637 22.098000000000003 144.50799999999998 20.85 144.50799999999998 19.264000000000003 L144.50799999999998 16.846000000000004 Q144.50799999999998 15.052000000000001 143.533 13.583000000000002 142.558 12.114000000000003 141.33599999999998 12.114000000000003 140.088 12.114000000000003 139.594 13.583000000000002 139.1 15.052000000000001 139.1 17.73 139.1 20.408 139.594 21.877000000000002 140.088 23.346 141.33599999999998 23.346 zM144.50799999999998 23.658 L144.50799999999998 22.566000000000003 144.378 22.488 Q143.10399999999998 23.970000000000002 141.388 23.970000000000002 139.334 23.970000000000002 138.07299999999998 22.176000000000002 136.81199999999998 20.382 136.81199999999998 17.73 136.81199999999998 15.078000000000001 138.021 13.284000000000002 139.23 11.490000000000002 141.284 11.490000000000002 142.142 11.490000000000002 142.987 12.075000000000001 143.832 12.660000000000002 144.352 13.518000000000002 L144.50799999999998 13.466000000000001 144.50799999999998 6.342000000000002 Q144.50799999999998 5.770000000000003 143.93599999999998 5.770000000000003 L142.064 5.770000000000003 142.064 5.146000000000001 146.38 5.146000000000001 146.38 22.462 Q146.38 23.034000000000002 146.952 23.034000000000002 L148.304 23.034000000000002 148.304 23.658 144.50799999999998 23.658 z" /></g></svg>