<svg width="170" height="30" xmlns="http://www.w3.org/2000/svg" viewBox="0 0 170 30"><g fill="currentColor"><path d="M17.3544921875 2.228515625 L17.2783203125 4.666015625 15.6279296875 4.58984375 15.3740234375 18.021484375 16.6689453125 18.021484375 16.7197265625 20.43359375 11.5400390625 20.43359375 11.5908203125 18.021484375 13.1396484375 18.021484375 13.1904296875 5.9609375 9.9912109375 19.0625 7.5029296875 19.138671875 5.0146484375 5.986328125 4.8369140625 17.818359375 6.3349609375 17.818359375 6.3857421875 20.1796875 0.4951171875 20.052734375 0.4951171875 17.767578125 2.5517578125 17.818359375 2.6787109375 4.970703125 0.4443359375 4.84375 0.4951171875 2.55859375 6.6904296875 2.55859375 8.7978515625 15.177734375 11.8447265625 2.3046875 17.3544921875 2.228515625 z" /><path d="M27.2060546875 18.123046875 L27.1552734375 20.154296875 24.5400390625 20.408203125 24.4130859375 18.935546875 Q24.146484375 19.2275390625 23.79736328125 19.48779296875 23.4482421875 19.748046875 23.04833984375 19.95751953125 22.6484375 20.1669921875 22.22314453125 20.28759765625 21.7978515625 20.408203125 21.3916015625 20.408203125 20.6044921875 20.408203125 20.06494140625 20.09716796875 19.525390625 19.7861328125 19.20166015625 19.27197265625 18.8779296875 18.7578125 18.73828125 18.09765625 18.5986328125 17.4375 18.5986328125 16.751953125 18.5986328125 15.888671875 18.88427734375 15.177734375 19.169921875 14.466796875 19.68408203125 13.96533203125 20.1982421875 13.4638671875 20.921875 13.19091796875 21.6455078125 12.91796875 22.5087890625 12.91796875 22.8515625 12.91796875 23.18798828125 12.96240234375 23.5244140625 13.0068359375 23.8544921875 13.12109375 23.8798828125 12.9052734375 23.8798828125 12.71484375 23.8798828125 12.5244140625 23.8798828125 12.30859375 23.8798828125 12.1943359375 23.8671875 11.93408203125 23.8544921875 11.673828125 23.82275390625 11.35009765625 23.791015625 11.0263671875 23.7275390625 10.67724609375 23.6640625 10.328125 23.55615234375 10.04248046875 23.4482421875 9.7568359375 23.30224609375 9.57275390625 23.15625 9.388671875 22.9404296875 9.388671875 22.69921875 9.388671875 22.470703125 9.5537109375 22.2421875 9.71875 22.0390625 9.97900390625 21.8359375 10.2392578125 21.66455078125 10.56298828125 21.4931640625 10.88671875 21.353515625 11.2041015625 21.2138671875 11.521484375 21.1123046875 11.79443359375 21.0107421875 12.0673828125 20.9599609375 12.232421875 L18.8017578125 12.130859375 18.7255859375 7.408203125 20.8330078125 7.357421875 20.8330078125 9.2109375 Q20.9599609375 8.880859375 21.17578125 8.525390625 21.3916015625 8.169921875 21.67724609375 7.88427734375 21.962890625 7.5986328125 22.31201171875 7.41455078125 22.6611328125 7.23046875 23.0673828125 7.23046875 24.0322265625 7.23046875 24.62255859375 7.5224609375 25.212890625 7.814453125 25.52392578125 8.34130859375 25.8349609375 8.8681640625 25.9365234375 9.61083984375 26.0380859375 10.353515625 26.0380859375 11.2421875 26.0380859375 12.96875 26.0126953125 14.6826171875 25.9873046875 16.396484375 25.8349609375 18.123046875 L27.2060546875 18.123046875 zM23.9306640625 17.259765625 L23.9306640625 15.40625 Q23.7529296875 15.15234375 23.40380859375 15.076171875 23.0546875 15 22.7626953125 15 21.8486328125 15 21.27734375 15.45068359375 20.7060546875 15.9013671875 20.7060546875 16.87890625 20.7060546875 17.4755859375 21.0234375 17.88818359375 21.3408203125 18.30078125 21.9755859375 18.30078125 22.1787109375 18.30078125 22.51513671875 18.24365234375 22.8515625 18.1865234375 23.16259765625 18.0595703125 23.4736328125 17.9326171875 23.7021484375 17.73583984375 23.9306640625 17.5390625 23.9306640625 17.259765625 z" /><path d="M31.966796875 4.310546875 Q31.966796875 4.640625 31.83984375 4.9326171875 31.712890625 5.224609375 31.4970703125 5.4404296875 31.28125 5.65625 30.9892578125 5.783203125 30.697265625 5.91015625 30.3671875 5.91015625 30.037109375 5.91015625 29.7451171875 5.783203125 29.453125 5.65625 29.2373046875 5.4404296875 29.021484375 5.224609375 28.89453125 4.9326171875 28.767578125 4.640625 28.767578125 4.310546875 28.767578125 3.98046875 28.89453125 3.6884765625 29.021484375 3.396484375 29.2373046875 3.1806640625 29.453125 2.96484375 29.7451171875 2.837890625 30.037109375 2.7109375 30.3671875 2.7109375 30.697265625 2.7109375 30.9892578125 2.837890625 31.28125 2.96484375 31.4970703125 3.1806640625 31.712890625 3.396484375 31.83984375 3.6884765625 31.966796875 3.98046875 31.966796875 4.310546875 zM33.033203125 18.50390625 L32.95703125 20.611328125 28.310546875 20.408203125 28.310546875 18.19921875 29.376953125 18.123046875 29.376953125 9.56640625 27.828125 9.56640625 27.87890625 7.357421875 31.966796875 7.357421875 31.662109375 18.376953125 33.033203125 18.50390625 z" /><path d="M43.7607421875 20.306640625 L40.3583984375 20.408203125 40.1806640625 18.935546875 Q39.76171875 19.62109375 39.0634765625 20.0146484375 38.365234375 20.408203125 37.5654296875 20.408203125 36.7783203125 20.408203125 36.21337890625 20.078125 35.6484375 19.748046875 35.24853515625 19.2021484375 34.8486328125 18.65625 34.60107421875 17.9580078125 34.353515625 17.259765625 34.22021484375 16.5234375 34.0869140625 15.787109375 34.0361328125 15.076171875 33.9853515625 14.365234375 33.9853515625 13.78125 33.9853515625 13.197265625 34.0615234375 12.46728515625 34.1376953125 11.7373046875 34.32177734375 10.98828125 34.505859375 10.2392578125 34.80419921875 9.5283203125 35.1025390625 8.8173828125 35.54052734375 8.2587890625 35.978515625 7.7001953125 36.5751953125 7.36376953125 37.171875 7.02734375 37.9462890625 7.02734375 38.54296875 7.02734375 39.08251953125 7.33837890625 39.6220703125 7.6494140625 39.9267578125 8.14453125 L39.9267578125 4.005859375 37.6416015625 4.005859375 37.6416015625 1.822265625 42.2880859375 1.8984375 42.0849609375 18.25 43.7607421875 18.19921875 43.7607421875 20.306640625 zM39.8505859375 10.9375 Q39.7744140625 10.708984375 39.634765625 10.4296875 39.4951171875 10.150390625 39.29833984375 9.90283203125 39.1015625 9.6552734375 38.85400390625 9.48388671875 38.6064453125 9.3125 38.3271484375 9.3125 37.908203125 9.3125 37.59716796875 9.5537109375 37.2861328125 9.794921875 37.0703125 10.17578125 36.8544921875 10.556640625 36.70849609375 11.03271484375 36.5625 11.5087890625 36.486328125 11.98486328125 36.41015625 12.4609375 36.37841796875 12.88623046875 36.3466796875 13.3115234375 36.3466796875 13.603515625 36.3466796875 13.8701171875 36.3466796875 14.3017578125 36.3466796875 14.7333984375 36.384765625 15.23486328125 36.4228515625 15.736328125 36.51806640625 16.25048828125 36.61328125 16.7646484375 36.791015625 17.18359375 36.96875 17.6025390625 37.248046875 17.86279296875 37.52734375 18.123046875 37.9462890625 18.123046875 38.263671875 18.123046875 38.5556640625 17.93896484375 38.84765625 17.7548828125 39.0888671875 17.48193359375 39.330078125 17.208984375 39.51416015625 16.904296875 39.6982421875 16.599609375 39.7998046875 16.345703125 L39.8505859375 10.9375 z" /><path d="M52.35546875 12.587890625 Q52.35546875 13.62890625 52.279296875 14.619140625 L46.8203125 14.720703125 Q46.8203125 14.9873046875 46.845703125 15.36181640625 46.87109375 15.736328125 46.92822265625 16.14892578125 46.9853515625 16.5615234375 47.09326171875 16.96142578125 47.201171875 17.361328125 47.37890625 17.68505859375 47.556640625 18.0087890625 47.81689453125 18.20556640625 48.0771484375 18.40234375 48.4453125 18.40234375 48.8388671875 18.40234375 49.12451171875 18.19287109375 49.41015625 17.9833984375 49.59423828125 17.67236328125 49.7783203125 17.361328125 49.8798828125 16.9931640625 49.9814453125 16.625 50.01953125 16.294921875 L52.228515625 16.294921875 Q52.1142578125 17.0185546875 51.84765625 17.7548828125 51.5810546875 18.4912109375 51.13671875 19.087890625 50.6923828125 19.6845703125 50.0576171875 20.05908203125 49.4228515625 20.43359375 48.572265625 20.43359375 47.68359375 20.43359375 47.04248046875 20.09716796875 46.4013671875 19.7607421875 45.95703125 19.2021484375 45.5126953125 18.6435546875 45.2333984375 17.91357421875 44.9541015625 17.18359375 44.80810546875 16.40283203125 44.662109375 15.6220703125 44.611328125 14.8349609375 44.560546875 14.0478515625 44.560546875 13.375 44.560546875 12.765625 44.63037109375 12.0546875 44.7001953125 11.34375 44.865234375 10.6455078125 45.0302734375 9.947265625 45.31591796875 9.2998046875 45.6015625 8.65234375 46.033203125 8.16357421875 46.46484375 7.6748046875 47.0615234375 7.37646484375 47.658203125 7.078125 48.4453125 7.078125 49.791015625 7.078125 50.5654296875 7.50341796875 51.33984375 7.9287109375 51.73974609375 8.67138671875 52.1396484375 9.4140625 52.24755859375 10.42333984375 52.35546875 11.4326171875 52.35546875 12.587890625 zM50.146484375 11.8515625 Q50.146484375 11.470703125 50.10205078125 10.98828125 50.0576171875 10.505859375 49.89892578125 10.07421875 49.740234375 9.642578125 49.435546875 9.3505859375 49.130859375 9.05859375 48.623046875 9.05859375 48.1787109375 9.05859375 47.8740234375 9.25537109375 47.5693359375 9.4521484375 47.3662109375 9.76953125 47.1630859375 10.0869140625 47.048828125 10.49951171875 46.9345703125 10.912109375 46.8837890625 11.33740234375 46.8330078125 11.7626953125 46.81396484375 12.1689453125 46.794921875 12.5751953125 46.794921875 12.892578125 L50.0703125 12.892578125 Q50.146484375 12.359375 50.146484375 11.8515625 z" /><path d="M63.93359375 18.478515625 L63.6796875 20.509765625 59.4140625 20.33203125 59.36328125 18.275390625 60.48046875 18.1484375 Q60.5185546875 16.421875 60.55029296875 14.7080078125 60.58203125 12.994140625 60.58203125 11.267578125 60.58203125 10.962890625 60.52490234375 10.6328125 60.4677734375 10.302734375 60.328125 10.0234375 60.1884765625 9.744140625 59.94091796875 9.56640625 59.693359375 9.388671875 59.3125 9.388671875 58.75390625 9.388671875 58.36669921875 9.69970703125 57.9794921875 10.0107421875 57.73828125 10.4677734375 57.4970703125 10.9248046875 57.3828125 11.4580078125 57.2685546875 11.9912109375 57.255859375 12.435546875 57.1923828125 13.8701171875 57.17333984375 15.2919921875 57.154296875 16.7138671875 57.12890625 18.1484375 L58.24609375 18.1484375 58.373046875 20.205078125 53.98046875 20.255859375 53.98046875 17.919921875 55.224609375 17.84375 55.1484375 9.591796875 53.294921875 9.46484375 53.345703125 7.306640625 57.001953125 7.1796875 57.078125 8.982421875 Q57.33203125 8.6015625 57.68115234375 8.25244140625 58.0302734375 7.9033203125 58.44921875 7.63671875 58.8681640625 7.3701171875 59.33154296875 7.21142578125 59.794921875 7.052734375 60.27734375 7.052734375 60.8486328125 7.052734375 61.2548828125 7.2431640625 61.6611328125 7.43359375 61.9404296875 7.763671875 62.2197265625 8.09375 62.37841796875 8.51904296875 62.537109375 8.9443359375 62.6259765625 9.42041015625 62.71484375 9.896484375 62.740234375 10.38525390625 62.765625 10.8740234375 62.765625 11.318359375 62.765625 13.0830078125 62.72119140625 14.8349609375 62.6767578125 16.5869140625 62.638671875 18.3515625 L63.93359375 18.478515625 z" /><path d="M80.7294921875 10.404296875 Q80.7294921875 11.4326171875 80.666015625 12.6005859375 80.6025390625 13.7685546875 80.39306640625 14.9111328125 80.18359375 16.0537109375 79.78369140625 17.11376953125 79.3837890625 18.173828125 78.71728515625 18.9736328125 78.05078125 19.7734375 77.0732421875 20.255859375 76.095703125 20.73828125 74.7373046875 20.73828125 73.6708984375 20.73828125 72.8837890625 20.35107421875 72.0966796875 19.9638671875 71.53173828125 19.31640625 70.966796875 18.6689453125 70.5986328125 17.818359375 70.23046875 16.9677734375 70.0146484375 16.04736328125 69.798828125 15.126953125 69.71630859375 14.1875 69.6337890625 13.248046875 69.6337890625 12.435546875 69.6337890625 11.4072265625 69.7099609375 10.2138671875 69.7861328125 9.0205078125 70.0146484375 7.83984375 70.2431640625 6.6591796875 70.65576171875 5.5673828125 71.068359375 4.4755859375 71.74755859375 3.6376953125 72.4267578125 2.7998046875 73.404296875 2.29833984375 74.3818359375 1.796875 75.7275390625 1.796875 76.7939453125 1.796875 77.58740234375 2.20947265625 78.380859375 2.6220703125 78.93310546875 3.31396484375 79.4853515625 4.005859375 79.83447265625 4.89453125 80.18359375 5.783203125 80.38671875 6.74169921875 80.58984375 7.7001953125 80.65966796875 8.64599609375 80.7294921875 9.591796875 80.7294921875 10.404296875 zM78.2412109375 10.556640625 Q78.2412109375 10.125 78.2158203125 9.48388671875 78.1904296875 8.8427734375 78.1015625 8.13818359375 78.0126953125 7.43359375 77.8349609375 6.72265625 77.6572265625 6.01171875 77.34619140625 5.44677734375 77.03515625 4.8818359375 76.57177734375 4.53271484375 76.1083984375 4.18359375 75.4482421875 4.18359375 74.6103515625 4.18359375 74.03271484375 4.63427734375 73.455078125 5.0849609375 73.07421875 5.8212890625 72.693359375 6.5576171875 72.4775390625 7.47802734375 72.26171875 8.3984375 72.16015625 9.337890625 72.05859375 10.27734375 72.03955078125 11.14697265625 72.0205078125 12.0166015625 72.0205078125 12.638671875 72.0205078125 13.1083984375 72.0458984375 13.71142578125 72.0712890625 14.314453125 72.16650390625 14.94287109375 72.26171875 15.5712890625 72.4521484375 16.17431640625 72.642578125 16.77734375 72.95361328125 17.2470703125 73.2646484375 17.716796875 73.734375 18.0087890625 74.2041015625 18.30078125 74.8642578125 18.30078125 75.689453125 18.30078125 76.2607421875 17.8818359375 76.83203125 17.462890625 77.20654296875 16.78369140625 77.5810546875 16.1044921875 77.79052734375 15.25390625 78 14.4033203125 78.1015625 13.54638671875 78.203125 12.689453125 78.22216796875 11.90234375 78.2412109375 11.115234375 78.2412109375 10.556640625 z" /><path d="M88.791015625 10.125 Q88.30859375 10.2265625 87.8515625 10.4677734375 87.39453125 10.708984375 87.0390625 11.05810546875 86.68359375 11.4072265625 86.4677734375 11.85791015625 86.251953125 12.30859375 86.251953125 12.841796875 86.251953125 14.111328125 86.2392578125 15.35546875 86.2265625 16.599609375 86.201171875 17.869140625 L88.0546875 17.9453125 88.0546875 20.23046875 81.859375 20.357421875 82.037109375 17.9453125 83.712890625 17.869140625 83.890625 9.693359375 82.544921875 9.744140625 82.46875 7.408203125 85.87109375 7.078125 85.87109375 8.830078125 Q86.1376953125 8.6142578125 86.4931640625 8.3603515625 86.8486328125 8.1064453125 87.2421875 7.8779296875 87.6357421875 7.6494140625 88.03564453125 7.46533203125 88.435546875 7.28125 88.791015625 7.205078125 L88.791015625 10.125 z" /><path d="M98.56640625 18.123046875 L98.515625 20.154296875 95.900390625 20.408203125 95.7734375 18.935546875 Q95.5068359375 19.2275390625 95.15771484375 19.48779296875 94.80859375 19.748046875 94.40869140625 19.95751953125 94.0087890625 20.1669921875 93.58349609375 20.28759765625 93.158203125 20.408203125 92.751953125 20.408203125 91.96484375 20.408203125 91.42529296875 20.09716796875 90.8857421875 19.7861328125 90.56201171875 19.27197265625 90.23828125 18.7578125 90.0986328125 18.09765625 89.958984375 17.4375 89.958984375 16.751953125 89.958984375 15.888671875 90.24462890625 15.177734375 90.5302734375 14.466796875 91.04443359375 13.96533203125 91.55859375 13.4638671875 92.2822265625 13.19091796875 93.005859375 12.91796875 93.869140625 12.91796875 94.2119140625 12.91796875 94.54833984375 12.96240234375 94.884765625 13.0068359375 95.21484375 13.12109375 95.240234375 12.9052734375 95.240234375 12.71484375 95.240234375 12.5244140625 95.240234375 12.30859375 95.240234375 12.1943359375 95.2275390625 11.93408203125 95.21484375 11.673828125 95.18310546875 11.35009765625 95.1513671875 11.0263671875 95.087890625 10.67724609375 95.0244140625 10.328125 94.91650390625 10.04248046875 94.80859375 9.7568359375 94.66259765625 9.57275390625 94.5166015625 9.388671875 94.30078125 9.388671875 94.0595703125 9.388671875 93.8310546875 9.5537109375 93.6025390625 9.71875 93.3994140625 9.97900390625 93.1962890625 10.2392578125 93.02490234375 10.56298828125 92.853515625 10.88671875 92.7138671875 11.2041015625 92.57421875 11.521484375 92.47265625 11.79443359375 92.37109375 12.0673828125 92.3203125 12.232421875 L90.162109375 12.130859375 90.0859375 7.408203125 92.193359375 7.357421875 92.193359375 9.2109375 Q92.3203125 8.880859375 92.5361328125 8.525390625 92.751953125 8.169921875 93.03759765625 7.88427734375 93.3232421875 7.5986328125 93.67236328125 7.41455078125 94.021484375 7.23046875 94.427734375 7.23046875 95.392578125 7.23046875 95.98291015625 7.5224609375 96.5732421875 7.814453125 96.88427734375 8.34130859375 97.1953125 8.8681640625 97.296875 9.61083984375 97.3984375 10.353515625 97.3984375 11.2421875 97.3984375 12.96875 97.373046875 14.6826171875 97.34765625 16.396484375 97.1953125 18.123046875 L98.56640625 18.123046875 zM95.291015625 17.259765625 L95.291015625 15.40625 Q95.11328125 15.15234375 94.76416015625 15.076171875 94.4150390625 15 94.123046875 15 93.208984375 15 92.6376953125 15.45068359375 92.06640625 15.9013671875 92.06640625 16.87890625 92.06640625 17.4755859375 92.3837890625 17.88818359375 92.701171875 18.30078125 93.3359375 18.30078125 93.5390625 18.30078125 93.87548828125 18.24365234375 94.2119140625 18.1865234375 94.52294921875 18.0595703125 94.833984375 17.9326171875 95.0625 17.73583984375 95.291015625 17.5390625 95.291015625 17.259765625 z" /><path d="M109.8271484375 18.478515625 L109.5732421875 20.509765625 105.3076171875 20.33203125 105.2568359375 18.275390625 106.3740234375 18.1484375 Q106.412109375 16.421875 106.44384765625 14.7080078125 106.4755859375 12.994140625 106.4755859375 11.267578125 106.4755859375 10.962890625 106.41845703125 10.6328125 106.361328125 10.302734375 106.2216796875 10.0234375 106.08203125 9.744140625 105.83447265625 9.56640625 105.5869140625 9.388671875 105.2060546875 9.388671875 104.6474609375 9.388671875 104.26025390625 9.69970703125 103.873046875 10.0107421875 103.6318359375 10.4677734375 103.390625 10.9248046875 103.2763671875 11.4580078125 103.162109375 11.9912109375 103.1494140625 12.435546875 103.0859375 13.8701171875 103.06689453125 15.2919921875 103.0478515625 16.7138671875 103.0224609375 18.1484375 L104.1396484375 18.1484375 104.2666015625 20.205078125 99.8740234375 20.255859375 99.8740234375 17.919921875 101.1181640625 17.84375 101.0419921875 9.591796875 99.1884765625 9.46484375 99.2392578125 7.306640625 102.8955078125 7.1796875 102.9716796875 8.982421875 Q103.2255859375 8.6015625 103.57470703125 8.25244140625 103.923828125 7.9033203125 104.3427734375 7.63671875 104.76171875 7.3701171875 105.22509765625 7.21142578125 105.6884765625 7.052734375 106.1708984375 7.052734375 106.7421875 7.052734375 107.1484375 7.2431640625 107.5546875 7.43359375 107.833984375 7.763671875 108.11328125 8.09375 108.27197265625 8.51904296875 108.4306640625 8.9443359375 108.51953125 9.42041015625 108.6083984375 9.896484375 108.6337890625 10.38525390625 108.6591796875 10.8740234375 108.6591796875 11.318359375 108.6591796875 13.0830078125 108.61474609375 14.8349609375 108.5703125 16.5869140625 108.5322265625 18.3515625 L109.8271484375 18.478515625 z" /><path d="M119.79296875 6.849609375 L117.8125 8.6015625 Q118.06640625 9.2744140625 118.1552734375 10.08056640625 118.244140625 10.88671875 118.244140625 11.59765625 118.244140625 12.537109375 118.02197265625 13.33056640625 117.7998046875 14.1240234375 117.33642578125 14.72705078125 116.873046875 15.330078125 116.15576171875 15.7109375 115.4384765625 16.091796875 114.4609375 16.193359375 114.359375 16.2568359375 114.23876953125 16.345703125 114.1181640625 16.4345703125 114.0166015625 16.54248046875 113.9150390625 16.650390625 113.84521484375 16.77734375 113.775390625 16.904296875 113.775390625 17.03125 113.775390625 17.1455078125 113.8515625 17.30419921875 113.927734375 17.462890625 114.029296875 17.615234375 114.130859375 17.767578125 114.23876953125 17.9072265625 114.3466796875 18.046875 114.41015625 18.123046875 115.2607421875 18.123046875 116.09228515625 18.2880859375 116.923828125 18.453125 117.57763671875 18.85302734375 118.2314453125 19.2529296875 118.63134765625 19.9130859375 119.03125 20.5732421875 119.03125 21.576171875 119.03125 22.4267578125 118.63134765625 23.13134765625 118.2314453125 23.8359375 117.59033203125 24.35009765625 116.94921875 24.8642578125 116.1494140625 25.14990234375 115.349609375 25.435546875 114.5625 25.435546875 113.7373046875 25.435546875 113.03271484375 25.18798828125 112.328125 24.9404296875 111.81396484375 24.47705078125 111.2998046875 24.013671875 111.01416015625 23.34716796875 110.728515625 22.6806640625 110.728515625 21.830078125 110.728515625 20.890625 111.11572265625 20.07177734375 111.5029296875 19.2529296875 112.302734375 18.732421875 112.07421875 18.3642578125 111.896484375 17.9580078125 111.71875 17.5517578125 111.71875 17.1328125 111.71875 16.6884765625 111.947265625 16.26953125 112.17578125 15.8505859375 112.556640625 15.634765625 112.125 15.3173828125 111.81396484375 14.822265625 111.5029296875 14.3271484375 111.29345703125 13.76220703125 111.083984375 13.197265625 110.982421875 12.60693359375 110.880859375 12.0166015625 110.880859375 11.49609375 110.880859375 10.48046875 111.109375 9.63623046875 111.337890625 8.7919921875 111.8203125 8.1826171875 112.302734375 7.5732421875 113.05810546875 7.23681640625 113.8134765625 6.900390625 114.8671875 6.900390625 115.146484375 6.900390625 115.36865234375 6.92578125 115.5908203125 6.951171875 115.7939453125 7.00830078125 115.9970703125 7.0654296875 116.2001953125 7.14794921875 116.4033203125 7.23046875 116.64453125 7.357421875 L118.244140625 5.326171875 119.79296875 6.849609375 zM116.13671875 11.4453125 Q116.13671875 11.08984375 116.05419921875 10.66455078125 115.9716796875 10.2392578125 115.78125 9.87744140625 115.5908203125 9.515625 115.2861328125 9.2744140625 114.9814453125 9.033203125 114.537109375 9.033203125 114.0166015625 9.033203125 113.7119140625 9.24267578125 113.4072265625 9.4521484375 113.24853515625 9.78857421875 113.08984375 10.125 113.0390625 10.5439453125 112.98828125 10.962890625 112.98828125 11.369140625 112.98828125 11.7119140625 113.05810546875 12.181640625 113.1279296875 12.6513671875 113.29931640625 13.0830078125 113.470703125 13.5146484375 113.76904296875 13.81298828125 114.0673828125 14.111328125 114.537109375 14.111328125 114.9814453125 14.111328125 115.2861328125 13.82568359375 115.5908203125 13.5400390625 115.78125 13.12744140625 115.9716796875 12.71484375 116.05419921875 12.2578125 116.13671875 11.80078125 116.13671875 11.4453125 zM117 21.525390625 Q117 21.0810546875 116.7587890625 20.7763671875 116.517578125 20.4716796875 116.15576171875 20.28125 115.7939453125 20.0908203125 115.36865234375 20.00830078125 114.943359375 19.92578125 114.587890625 19.92578125 113.75 19.92578125 113.3310546875 20.45263671875 112.912109375 20.9794921875 112.912109375 21.779296875 112.912109375 22.185546875 113.115234375 22.46484375 113.318359375 22.744140625 113.623046875 22.91552734375 113.927734375 23.0869140625 114.30224609375 23.16943359375 114.6767578125 23.251953125 115.01953125 23.251953125 115.375 23.251953125 115.73046875 23.13134765625 116.0859375 23.0107421875 116.37158203125 22.7822265625 116.6572265625 22.5537109375 116.82861328125 22.236328125 117 21.9189453125 117 21.525390625 z" /><path d="M127.765625 12.587890625 Q127.765625 13.62890625 127.689453125 14.619140625 L122.23046875 14.720703125 Q122.23046875 14.9873046875 122.255859375 15.36181640625 122.28125 15.736328125 122.33837890625 16.14892578125 122.3955078125 16.5615234375 122.50341796875 16.96142578125 122.611328125 17.361328125 122.7890625 17.68505859375 122.966796875 18.0087890625 123.22705078125 18.20556640625 123.4873046875 18.40234375 123.85546875 18.40234375 124.2490234375 18.40234375 124.53466796875 18.19287109375 124.8203125 17.9833984375 125.00439453125 17.67236328125 125.1884765625 17.361328125 125.2900390625 16.9931640625 125.3916015625 16.625 125.4296875 16.294921875 L127.638671875 16.294921875 Q127.5244140625 17.0185546875 127.2578125 17.7548828125 126.9912109375 18.4912109375 126.546875 19.087890625 126.1025390625 19.6845703125 125.4677734375 20.05908203125 124.8330078125 20.43359375 123.982421875 20.43359375 123.09375 20.43359375 122.45263671875 20.09716796875 121.8115234375 19.7607421875 121.3671875 19.2021484375 120.9228515625 18.6435546875 120.6435546875 17.91357421875 120.3642578125 17.18359375 120.21826171875 16.40283203125 120.072265625 15.6220703125 120.021484375 14.8349609375 119.970703125 14.0478515625 119.970703125 13.375 119.970703125 12.765625 120.04052734375 12.0546875 120.1103515625 11.34375 120.275390625 10.6455078125 120.4404296875 9.947265625 120.72607421875 9.2998046875 121.01171875 8.65234375 121.443359375 8.16357421875 121.875 7.6748046875 122.4716796875 7.37646484375 123.068359375 7.078125 123.85546875 7.078125 125.201171875 7.078125 125.9755859375 7.50341796875 126.75 7.9287109375 127.14990234375 8.67138671875 127.5498046875 9.4140625 127.65771484375 10.42333984375 127.765625 11.4326171875 127.765625 12.587890625 zM125.556640625 11.8515625 Q125.556640625 11.470703125 125.51220703125 10.98828125 125.4677734375 10.505859375 125.30908203125 10.07421875 125.150390625 9.642578125 124.845703125 9.3505859375 124.541015625 9.05859375 124.033203125 9.05859375 123.5888671875 9.05859375 123.2841796875 9.25537109375 122.9794921875 9.4521484375 122.7763671875 9.76953125 122.5732421875 10.0869140625 122.458984375 10.49951171875 122.3447265625 10.912109375 122.2939453125 11.33740234375 122.2431640625 11.7626953125 122.22412109375 12.1689453125 122.205078125 12.5751953125 122.205078125 12.892578125 L125.48046875 12.892578125 Q125.556640625 12.359375 125.556640625 11.8515625 z" /></g></svg>