<svg width="170" height="30" xmlns="http://www.w3.org/2000/svg" viewBox="0 0 170 30"><g fill="currentColor"><path d="M0.46799999999999997 25.218 L0.46799999999999997 24.178 Q1.404 24.126 2.1839999999999997 23.762 2.964 23.398 3.536 22.748 4.108 22.098 4.433 21.175 4.758 20.252 4.758 19.082 L4.758 3.3000000000000007 5.85 3.3000000000000007 5.85 19.16 Q5.85 20.616 5.434 21.721 5.018 22.826 4.29 23.593 3.562 24.36 2.574 24.776 1.5859999999999999 25.192 0.46799999999999997 25.218 z" /><path d="M9.048 16.612000000000002 Q9.048 15.572 9.451 14.636 9.854 13.7 10.543 13.011000000000001 11.232 12.322000000000001 12.155000000000001 11.919 13.078 11.516 14.144 11.516 15.21 11.516 16.146 11.919 17.082 12.322000000000001 17.784 13.011000000000001 18.485999999999997 13.7 18.889 14.636 19.292 15.572 19.292 16.612000000000002 19.292 17.678 18.889 18.601 18.485999999999997 19.524 17.784 20.2 17.082 20.876 16.146 21.279 15.21 21.682 14.144 21.682 13.078 21.682 12.155000000000001 21.279 11.232 20.876 10.543 20.2 9.854 19.524 9.451 18.601 9.048 17.678 9.048 16.612000000000002 zM10.14 16.612000000000002 Q10.14 17.444 10.452 18.172 10.764 18.9 11.31 19.446 11.856 19.992 12.584 20.304 13.312000000000001 20.616 14.144 20.616 14.975999999999999 20.616 15.704 20.304 16.432000000000002 19.992 16.978 19.446 17.524 18.9 17.849 18.172 18.174 17.444 18.174 16.612000000000002 18.174 15.780000000000001 17.849 15.052 17.524 14.324000000000002 16.978 13.778 16.432000000000002 13.232000000000001 15.704 12.907 14.975999999999999 12.582 14.144 12.582 13.312000000000001 12.582 12.584 12.907 11.856 13.232000000000001 11.31 13.778 10.764 14.324000000000002 10.452 15.052 10.14 15.780000000000001 10.14 16.612000000000002 z" /><path d="M27.663999999999998 12.712 Q27.507999999999996 12.92 27.339 13.102 27.169999999999995 13.284 27.039999999999996 13.492 26.727999999999998 13.128 26.156 12.894 25.583999999999996 12.66 25.011999999999997 12.66 24.699999999999996 12.66 24.387999999999998 12.751000000000001 24.075999999999997 12.842 23.815999999999995 13.037 23.555999999999997 13.232000000000001 23.412999999999997 13.531 23.269999999999996 13.83 23.269999999999996 14.272 23.295999999999996 14.844000000000001 23.659999999999997 15.169 24.023999999999997 15.494 24.543999999999997 15.715 25.063999999999997 15.936 25.687999999999995 16.131 26.311999999999998 16.326 26.831999999999997 16.637999999999998 27.351999999999997 16.95 27.702999999999996 17.444 28.053999999999995 17.938 28.053999999999995 18.77 28.053999999999995 19.212 27.884999999999998 19.719 27.715999999999998 20.226 27.351999999999997 20.668 26.987999999999996 21.11 26.389999999999997 21.409 25.791999999999998 21.708 24.907999999999998 21.708 24.101999999999997 21.708 23.230999999999998 21.422 22.359999999999996 21.136 21.839999999999996 20.486 22.022 20.278 22.177999999999997 20.096 22.333999999999996 19.914 22.541999999999998 19.706 22.958 20.148 23.633999999999997 20.395 24.309999999999995 20.642 24.985999999999997 20.642 25.22 20.642 25.557999999999996 20.551 25.895999999999997 20.46 26.208 20.239 26.519999999999996 20.018 26.740999999999996 19.68 26.961999999999996 19.342 26.961999999999996 18.848 26.961999999999996 18.172 26.623999999999995 17.808 26.285999999999998 17.444 25.752999999999997 17.223 25.22 17.002 24.595999999999997 16.833 23.971999999999998 16.664 23.438999999999997 16.378 22.906 16.092 22.541999999999998 15.624 22.177999999999997 15.156 22.177999999999997 14.298 22.177999999999997 13.622 22.437999999999995 13.115 22.697999999999997 12.608 23.113999999999997 12.27 23.529999999999998 11.932 24.023999999999997 11.763 24.517999999999997 11.594000000000001 24.985999999999997 11.594000000000001 25.531999999999996 11.594000000000001 26.324999999999996 11.841000000000001 27.117999999999995 12.088000000000001 27.663999999999998 12.712 z" /><path d="M35.542 12.582 Q34.762 12.582 34.059999999999995 12.855 33.358 13.128 32.838 13.622 32.318 14.116 31.993 14.766 31.668 15.416 31.589999999999996 16.17 31.563999999999997 16.482 31.576999999999998 16.781 31.589999999999996 17.08 31.642 17.366 33.384 16.664 35.126 15.975000000000001 36.867999999999995 15.286000000000001 38.635999999999996 14.584 38.193999999999996 13.7 37.361999999999995 13.141 36.53 12.582 35.542 12.582 zM40.013999999999996 15.182 Q37.986 15.988 35.983999999999995 16.781 33.982 17.574 31.953999999999997 18.38 32.396 19.368 33.358 19.992 34.32 20.616 35.542 20.616 36.348 20.616 37.05 20.33 37.751999999999995 20.044 38.272 19.524 38.45399999999999 19.732 38.61 19.927 38.766 20.122 38.94799999999999 20.33 38.272 20.954 37.414 21.318 36.556 21.682 35.542 21.682 34.476 21.682 33.553 21.279 32.629999999999995 20.876 31.941 20.2 31.252 19.524 30.848999999999997 18.601 30.445999999999998 17.678 30.445999999999998 16.612000000000002 30.445999999999998 15.572 30.848999999999997 14.636 31.252 13.7 31.941 13.024000000000001 32.629999999999995 12.348 33.553 11.945 34.476 11.542 35.542 11.542 36.321999999999996 11.542 37.024 11.815000000000001 37.726 12.088000000000001 38.311 12.569 38.896 13.05 39.337999999999994 13.713000000000001 39.78 14.376000000000001 40.013999999999996 15.182 z" /><path d="M41.808 12.764000000000001 L41.808 11.698 43.498 11.698 43.498 8.032 Q43.498 6.602 43.913999999999994 5.484000000000002 44.33 4.366 45.058 3.612000000000002 45.785999999999994 2.8580000000000005 46.773999999999994 2.455000000000002 47.762 2.0519999999999996 48.879999999999995 2 L48.879999999999995 3.039999999999999 Q47.995999999999995 3.0660000000000025 47.202999999999996 3.404 46.41 3.742000000000001 45.824999999999996 4.3919999999999995 45.239999999999995 5.042000000000002 44.901999999999994 5.952 44.564 6.862 44.564 8.006 L44.564 11.698 47.81399999999999 11.698 47.81399999999999 12.764000000000001 44.564 12.764000000000001 44.564 21.5 43.498 21.5 43.498 12.764000000000001 41.808 12.764000000000001 z" /><path d="M50.517999999999994 8.292 Q50.517999999999994 7.928000000000001 50.778 7.681000000000001 51.038 7.434000000000001 51.376 7.434000000000001 51.714 7.434000000000001 51.974 7.681000000000001 52.233999999999995 7.928000000000001 52.233999999999995 8.292 52.233999999999995 8.656 51.974 8.903 51.714 9.15 51.376 9.15 51.038 9.15 50.778 8.903 50.517999999999994 8.656 50.517999999999994 8.292 zM51.895999999999994 21.5 L50.83 21.5 50.83 11.75 51.895999999999994 11.75 51.895999999999994 21.5 z" /><path d="M56.419999999999995 11.75 L57.407999999999994 11.75 57.407999999999994 12.66 Q57.407999999999994 13.102 57.407999999999994 13.466000000000001 57.407999999999994 13.83 57.434 14.272 57.95399999999999 13.05 59.098 12.296000000000001 60.242 11.542 61.69799999999999 11.542 63.128 11.542 63.959999999999994 12.348 64.792 13.154 64.844 14.454 L64.844 21.5 63.751999999999995 21.5 63.751999999999995 14.74 Q63.699999999999996 13.908000000000001 63.141 13.284 62.581999999999994 12.66 61.489999999999995 12.608 60.709999999999994 12.608 59.982 12.881 59.254 13.154 58.708 13.622 58.162 14.09 57.836999999999996 14.74 57.512 15.39 57.512 16.17 L57.512 21.5 56.419999999999995 21.5 56.419999999999995 11.75 z" /><path d="M85.64399999999999 4.834 Q85.46199999999999 5.042000000000002 85.31899999999999 5.25 85.17599999999999 5.458000000000002 85.02 5.666 84.78599999999999 5.458000000000002 84.448 5.211000000000002 84.10999999999999 4.964000000000002 83.65499999999999 4.743000000000002 83.19999999999999 4.522000000000002 82.64099999999999 4.379000000000001 82.082 4.236000000000001 81.43199999999999 4.236000000000001 80.52199999999999 4.236000000000001 79.84599999999999 4.535 79.16999999999999 4.834 78.71499999999999 5.341000000000001 78.25999999999999 5.848000000000001 78.03899999999999 6.511000000000001 77.818 7.174000000000001 77.818 7.876000000000001 77.818 8.63 78.065 9.163 78.312 9.696 78.74099999999999 10.06 79.16999999999999 10.424000000000001 79.76799999999999 10.697000000000001 80.36599999999999 10.97 81.068 11.204 81.89999999999999 11.49 82.92699999999999 11.841000000000001 83.954 12.192 84.86399999999999 12.803 85.77399999999999 13.414 86.38499999999999 14.337 86.996 15.260000000000002 86.996 16.664 86.996 17.808 86.567 18.744 86.13799999999999 19.68 85.39699999999999 20.343 84.65599999999999 21.006 83.65499999999999 21.357 82.654 21.708 81.53599999999999 21.708 80.52199999999999 21.708 79.651 21.448 78.77999999999999 21.188 78.10399999999998 20.798000000000002 77.428 20.408 76.92099999999999 19.966 76.41399999999999 19.524 76.12799999999999 19.186 L76.856 18.458 Q77.22 18.822 77.68799999999999 19.212 78.15599999999999 19.602 78.71499999999999 19.927 79.27399999999999 20.252 79.94999999999999 20.46 80.62599999999999 20.668 81.40599999999999 20.668 82.28999999999999 20.668 83.09599999999999 20.395 83.90199999999999 20.122 84.526 19.615 85.14999999999999 19.108 85.52699999999999 18.38 85.904 17.652 85.904 16.716 85.904 15.546 85.38399999999999 14.792000000000002 84.86399999999999 14.038 84.097 13.544 83.32999999999998 13.05 82.41999999999999 12.738 81.50999999999999 12.426 80.72999999999999 12.166 80.23599999999999 12.01 79.573 11.75 78.91 11.49 78.29899999999999 11.022 77.68799999999999 10.554 77.23299999999999 9.839 76.77799999999999 9.124 76.752 8.058 76.69999999999999 7.200000000000001 76.94699999999999 6.329000000000001 77.19399999999999 5.458000000000002 77.76599999999999 4.769000000000002 78.338 4.080000000000002 79.24799999999999 3.6380000000000017 80.15799999999999 3.1960000000000015 81.458 3.1960000000000015 82.446 3.1960000000000015 83.47299999999998 3.5340000000000025 84.49999999999999 3.872 85.64399999999999 4.834 z" /><path d="M91.13 16.612000000000002 Q91.13 17.444 91.442 18.172 91.75399999999999 18.9 92.28699999999999 19.446 92.82 19.992 93.56099999999999 20.304 94.30199999999999 20.616 95.16 20.616 96.018 20.616 96.746 20.304 97.47399999999999 19.992 98.02 19.446 98.566 18.9 98.878 18.172 99.19 17.444 99.19 16.612000000000002 99.19 15.780000000000001 98.878 15.039000000000001 98.566 14.298 98.02 13.752 97.47399999999999 13.206 96.746 12.894 96.018 12.582 95.16 12.582 94.30199999999999 12.582 93.56099999999999 12.894 92.82 13.206 92.28699999999999 13.752 91.75399999999999 14.298 91.442 15.039000000000001 91.13 15.780000000000001 91.13 16.612000000000002 zM90.038 16.612000000000002 Q90.038 15.572 90.441 14.649000000000001 90.844 13.725999999999999 91.533 13.037 92.222 12.348 93.158 11.945 94.094 11.542 95.16 11.542 95.914 11.542 96.58999999999999 11.763 97.26599999999999 11.984 97.812 12.335 98.35799999999999 12.686 98.735 13.141 99.112 13.596 99.294 14.038 99.294 13.466000000000001 99.333 12.894 99.372 12.322000000000001 99.398 11.75 L100.282 11.75 100.282 21.5 99.294 21.5 99.294 20.33 Q99.294 20.044 99.30699999999999 19.784 99.32 19.524 99.32 19.238 99.164 19.68 98.78699999999999 20.122 98.41 20.564 97.877 20.915 97.344 21.266 96.655 21.474 95.966 21.682 95.16 21.682 94.094 21.682 93.158 21.279 92.222 20.876 91.533 20.2 90.844 19.524 90.441 18.601 90.038 17.678 90.038 16.612000000000002 z" /><path d="M104.52 11.75 L105.508 11.75 105.508 12.66 Q105.508 13.102 105.508 13.466000000000001 105.508 13.83 105.53399999999999 14.272 106.054 13.05 107.198 12.296000000000001 108.342 11.542 109.798 11.542 111.228 11.542 112.06 12.348 112.892 13.154 112.944 14.454 L112.944 21.5 111.852 21.5 111.852 14.74 Q111.8 13.908000000000001 111.241 13.284 110.682 12.66 109.59 12.608 108.81 12.608 108.082 12.881 107.354 13.154 106.80799999999999 13.622 106.262 14.09 105.937 14.74 105.612 15.39 105.612 16.17 L105.612 21.5 104.52 21.5 104.52 11.75 z" /><path d="M122.018 12.712 Q121.86200000000001 12.92 121.693 13.102 121.524 13.284 121.394 13.492 121.08200000000001 13.128 120.51 12.894 119.938 12.66 119.366 12.66 119.054 12.66 118.742 12.751000000000001 118.43 12.842 118.17 13.037 117.91 13.232000000000001 117.767 13.531 117.62400000000001 13.83 117.62400000000001 14.272 117.65 14.844000000000001 118.01400000000001 15.169 118.378 15.494 118.898 15.715 119.418 15.936 120.042 16.131 120.666 16.326 121.186 16.637999999999998 121.706 16.95 122.057 17.444 122.408 17.938 122.408 18.77 122.408 19.212 122.239 19.719 122.07000000000001 20.226 121.706 20.668 121.342 21.11 120.744 21.409 120.146 21.708 119.262 21.708 118.456 21.708 117.58500000000001 21.422 116.714 21.136 116.194 20.486 116.376 20.278 116.532 20.096 116.688 19.914 116.896 19.706 117.312 20.148 117.988 20.395 118.664 20.642 119.34 20.642 119.574 20.642 119.912 20.551 120.25 20.46 120.562 20.239 120.87400000000001 20.018 121.095 19.68 121.316 19.342 121.316 18.848 121.316 18.172 120.97800000000001 17.808 120.64 17.444 120.107 17.223 119.574 17.002 118.95 16.833 118.32600000000001 16.664 117.793 16.378 117.26 16.092 116.896 15.624 116.532 15.156 116.532 14.298 116.532 13.622 116.792 13.115 117.052 12.608 117.468 12.27 117.884 11.932 118.378 11.763 118.872 11.594000000000001 119.34 11.594000000000001 119.886 11.594000000000001 120.679 11.841000000000001 121.47200000000001 12.088000000000001 122.018 12.712 z" /></g></svg>