<svg xmlns="http://www.w3.org/2000/svg" version="1" width="224.656" height="254.265"><path d="M221.982 132.426c.018 60.519-49.037 109.589-109.556 109.589s-109.574-49.07-109.556-109.589c-.018-60.519 49.037-109.589 109.556-109.589s109.574 49.07 109.556 109.589z" fill="#fff" stroke="#000" stroke-width="4" stroke-linecap="round" stroke-linejoin="round"/><path d="M202.164 72.414c-5.401 6.554-6.242 17.009-4.56 21.045 1.241 2.978 9.474 4.442 17.348 5.177-3.084-9.37-7.405-18.181-12.787-26.222zm-193.415 29.396c-2.868 9.718-4.409 19.981-4.406 30.628-.002 5.562.423 11.026 1.233 16.362 8.182 4.751 18.801 20.388 27.855 21.569 11.339 1.479 8.874-21.693 1.972-23.172-6.902-1.479-9.86-12.325-10.353-24.158-.331-7.946-4.681-15.67-16.3-21.23zm211.533 27.732c-2.915 1.357-5.623 3.391-7.888 6.317-11.832 15.283-21.693 4.93-33.525 10.353-11.832 5.423-3.944 19.227.493 32.539 3.212 9.637-2.605 28.821 4.406 34.757 22.436-19.798 36.585-48.794 36.575-81.07 0-.974-.005-1.929-.031-2.896h-.031zm-146.917 9.275c4.93 15.283-5.916 9.86-7.888 20.213-1.972 10.353 33.032 13.311 38.948 34.511 5.916 21.2 32.539 9.86 32.046-1.972-.493-11.832-17.748-17.255-13.311-24.158 4.437-6.902 13.311-21.2 13.311-21.2l-63.105-7.395z" fill="#4d4d4d" fill-rule="evenodd"/><path d="M215.264 94.723c.077 1.682.125 3.393.125 5.094 0 60.464-49.067 109.531-109.531 109.531-47.262 0-87.591-29.999-102.938-71.969 2.654 58.112 50.674 104.469 109.438 104.469 60.464 0 109.531-49.067 109.531-109.531 0-13.202-2.338-25.87-6.625-37.594z" fill-opacity=".314"/><path d="M120.53 242.874c0 9.091 14.665 9.381 32.735 9.381s32.735.693 32.735-9.381c0-17.716-14.665-32.094-32.735-32.094s-32.735 14.378-32.735 32.094z" fill="#333" stroke="#000" stroke-width="4" stroke-linecap="round" stroke-linejoin="round"/><path d="M196.984 97.019c0 45.174-55.121 81.838-81.838 81.838-25.718 0-81.838-36.663-81.838-81.838 0-45.174 24.625-81.838 81.838-81.838 57.223 0 81.838 36.663 81.838 81.838z" fill-opacity=".314"/><path d="M165.855 251.654c0-16.368-9.443-26.44-9.443-26.44s3.777 13.849 3.148 26.44h6.295z" fill-opacity=".314" fill-rule="evenodd" stroke="#000" stroke-width="4" stroke-linejoin="round"/><path d="M109.688 2.008c-30.129.611-50.932 11.653-63.625 28.75-24.064-2.588-44.063 23.625-44.063 23.625s18.891 9.446 32.063 1.531c-2.399 8.712-3.563 18.106-3.563 27.906 0 45.174 56.126 81.844 81.844 81.844 26.717 0 81.844-36.669 81.844-81.844 0-9.8-1.164-19.195-3.563-27.906 13.171 7.915 32.031-1.531 32.031-1.531s-19.971-26.205-44.031-23.625c-13.062-17.595-34.708-28.75-66.281-28.75-.894 0-1.778-.018-2.656 0z" fill="#fff" stroke="#000" stroke-width="4" stroke-linecap="round" stroke-linejoin="round"/><path d="M126.563 3.977c25.721 17.926-3.05 17.142-8.75 23.281-6.5 7-9 17-1.5 23.5s46 17.5 51.5-.5c2.835-9.279-.566-20.802-2.344-30.969-10.018-7.861-22.904-13.242-38.906-15.313z" fill="#4d4d4d" fill-rule="evenodd"/><path d="M108.831 71.975c.004 12.531-10.154 22.692-22.685 22.692-12.531 0-22.689-10.161-22.685-22.692-.004-12.531 10.154-22.692 22.685-22.692 12.531 0 22.689 10.161 22.685 22.692zm52.732 0c.004 12.531-10.154 22.692-22.685 22.692-12.531 0-22.689-10.161-22.685-22.692-.004-12.531 10.154-22.692 22.685-22.692 12.531 0 22.689 10.161 22.685 22.692z" fill="#fff" stroke="#000" stroke-width="4.004" stroke-linecap="round" stroke-linejoin="round"/><path d="M141.345 75.881c.001 4.177-3.385 7.564-7.562 7.564-4.177 0-7.563-3.387-7.562-7.564-.001-4.177 3.385-7.564 7.562-7.564 4.177 0 7.563 3.387 7.562 7.564zm-42.031 0c.001 4.177-3.385 7.564-7.562 7.564-4.177 0-7.563-3.387-7.562-7.564-.001-4.177 3.385-7.564 7.562-7.564 4.177 0 7.563 3.387 7.562 7.564z"/><path d="M112.344 115.258c-19.862 0-35.969 13.216-35.969 29.5 0 3.02.564 5.944 1.594 8.688 12.712 7.743 25.394 12.219 34.375 12.219 9.198 0 21.757-4.331 34.281-11.875 1.113-2.843 1.719-5.887 1.719-9.031 0-16.284-16.138-29.5-36-29.5z" fill="#ffd5e5" stroke="#000" stroke-width="4" stroke-linecap="round" stroke-linejoin="round"/><path d="M190.907 57.008l-1.875 2.656c.249 3.075.344 6.203.344 9.375 0 45.174-55.127 81.844-81.844 81.844-20.706 0-61.097-23.756-76.063-56.594 7.616 40.246 57.172 71.375 80.875 71.375 26.717 0 81.844-36.669 81.844-81.844 0-9.392-1.075-18.41-3.281-26.813z" fill-opacity=".314"/><path d="M105.532 242.874c0 9.091-14.665 9.381-32.735 9.381s-32.735.693-32.735-9.381c0-17.716 14.665-32.094 32.735-32.094s32.735 14.378 32.735 32.094z" fill="#333" stroke="#000" stroke-width="4" stroke-linecap="round" stroke-linejoin="round"/><path d="M60.206 251.654c0-16.368 9.443-26.44 9.443-26.44s-3.777 13.849-3.148 26.44h-6.295z" fill-opacity=".314" fill-rule="evenodd" stroke="#000" stroke-width="4" stroke-linejoin="round"/><path d="M128.945 140.465c-2.293 3.973-6.5 5.839-9.397 4.166-2.897-1.672-3.385-6.249-1.09-10.221 2.293-3.973 6.5-5.839 9.397-4.166 2.897 1.672 3.385 6.249 1.09 10.221zm-32.737 0c2.293 3.973 6.5 5.839 9.397 4.166 2.897-1.672 3.385-6.249 1.09-10.221-2.293-3.973-6.5-5.839-9.397-4.166-2.897 1.672-3.385 6.249-1.09 10.221z"/><path d="M53.313 32.265c-7.333-1.328-15.5-21.5-12.5-25.5s26.374 4.466 27 13.5c.552 7.969-5.386 13.651-14.5 12zm116.898 0c7.333-1.328 15.5-21.5 12.5-25.5s-26.374 4.466-27 13.5c-.552 7.969 5.386 13.651 14.5 12z" fill="#333" fill-rule="evenodd" stroke="#000" stroke-width="4"/></svg>