<svg xmlns="http://www.w3.org/2000/svg" viewBox="0 0 256 429.02"><path d="M118.59 25.43c.034 1.865-1.501 3.592-2.967 4.747-4.914 3.869-11.561 6.376-17.799 5.933-2.206-.157-4.724-1.115-5.933-2.967-4.331-6.632-2.322-15.894-1.187-23.732 1.028-7.094 4.195-14.82 14.239-4.153 5.566 5.91 13.499 12.056 13.646 20.173z" fill="#892ca0"/><path fill="#800000" d="M242.261 293.05l-.114-.041-.114-.043-.113-.044-.113-.046-.112-.047-.112-.048-.111-.05-.111-.051-.11-.053-.11-.054-.109-.055-.108-.057-.108-.058-.107-.059-.106-.061-.106-.062-.105-.063-.104-.064-.104-.066-.103-.067-.102-.068-.101-.07-.101-.071-.1-.072-.099-.073-.098-.075-.098-.076-.097-.077-.096-.078-.095-.079-.094-.081-.093-.082-.092-.083-.091-.084-.09-.085-.09-.086-.089-.087-.088-.089-.087-.09-.086-.091-.085-.092-.084-.093-.083-.094-.082-.095-.081-.096-.079-.097-.078-.098-.077-.099-.076-.1-.075-.101-.074-.102-.073-.102-.072-.103-.071-.104-.07-.105-.068-.106-.067-.107-.066-.108-.065-.108-.064-.109-.062-.11-.061-.111-.06-.112-.059-.112-.058-.113-.056-.114-.055-.114-.054-.115-.053-.116-.051-.116-.05-.117-.049-.118-.047-.118-.046-.119-.045-.119-.044-.12-.042-.121-.041-.121-.04-.121-.038-.122-.037-.122-.036-.123-.034-.123-.033-.124-.032-.124-.03-.125-.029-.125-.027-.125-.026-.126-.025-.126-.023-.126-.022-.126-.021-.127-.019-.127-.018-.127-.016-.127-.015-.128-.014-.128-.012-.128-.01-.128-.009-.128-.008-.128-.007-.128-.005-.128-.003-.129-.002-.129-.001-.129v-.129l.002-.129.003-.129.005-.128.006-.128.008-.128.009-.128.01-.128.012-.128.013-.128.015-.128.016-.127.017-.127.019-.127.02-.127.022-.127.023-.126.024-.126.026-.126.027-.125.028-.125.03-.125.031-.124.032-.124.034-.123.035-.123.036-.123.038-.122.039-.122.04-.121.042-.121.043-.12.044-.12.046-.119.047-.118.048-.118.05-.117.051-.117.052-.116.053-.115.055-.115.056-.114.057-.113.058-.113.06-.112.061-.111.062-.11.063-.11.065-.109.066-.108.067-.107.068-.106.069-.105.07-.105.072-.104.073-.103.074-.102.075-.101.076-.1.077-.099.078-.098.079-.097.08-.096.081-.095.082-.094.083-.093.084-.092.085-.091.086-.09.087-.089.088-.088.089-.087.09-.085.091-.084.092-.083.093-.082.094-.081.095-.08.096-.079.096-.077.097-.076.098-.075.099-.074.1-.073.101-.071.101-.07.102-.069.103-.068.103-.066.104-.065.105-.064.106-.062.106-.061.107-.06.108-.058.108-.057.109-.056.109-.054.11-.053.111-.052.111-.05.112-.049.112-.047.113-.046.113-.045.114-.043.114-.042.115-.04.115-.039.115-.037.116-.036.116-.035.117-.033.117-.032.117-.03.118-.029.118-.027.118-.026.118-.024.119-.023.119-.021.119-.02.119-.019.12-.017.12-.016.12-.014.12-.013.12-.011.12-.01.12-.009.121-.006.121-.005.121-.004.121-.002.121-.001.121.001.121.002.121.004.121.005.121.007.12.009.12.01.12.011.12.013.12.014.12.016.12.017.119.019.119.02.119.022.119.023.118.025.118.026.118.028.118.029.117.031.117.032.117.033.116.035.116.036.115.038.115.039.114.041.114.042.114.043.113.045.113.046.112.048.112.049.111.05.11.052.11.053.109.055.109.056.108.057.107.059.107.06.106.061.105.063.105.064.104.065.103.066.103.068.102.069.101.07.1.072.099.073.099.074.098.075.097.076.096.078.095.079.095.08.094.081.093.082.092.084.091.085.09.086.089.087.088.088.087.089.086.09.085.091.084.092.083.093.082.094.081.095.08.096.079.097.078.098.077.099.076.1.075.101.073.102.072.103.071.104.07.105.069.106.068.106.067.107.065.108.064.109.063.11.062.11.061.111.059.112.058.113.057.113.056.114.054.115.053.115.052.116.051.117.049.117.048.118.047.119.045.119.044.12.043.12.042.121.04.121.039.122.038.122.036.123.035.123.034.124.032.124.031.124.029.125.028.125.027.125.025.126.024.126.023.126.021.127.02.127.018.127.017.127.016.128.014.128.013.128.011.128.01.128.009.128.007.128.006.128.005.129.003.129.001.129v.129l-.001.129-.002.129-.005.129-.006.128-.007.128-.008.128-.009.128-.011.128-.012.128-.014.128-.015.128-.017.127-.018.127-.019.127-.021.127-.022.126-.024.126-.025.126-.026.126-.028.125-.029.125-.03.124-.032.124-.033.124-.034.123-.036.123-.037.122-.039.122-.04.121-.041.121-.043.12-.044.12-.045.119-.046.119-.048.118-.049.118-.05.117-.052.116-.053.116-.054.115-.055.114-.057.114-.058.113-.059.112-.06.111-.062.111-.063.11-.064.109-.065.108-.066.107-.067.107-.069.106-.07.105-.071.104-.072.103-.073.102-.074.101-.075.1-.076.1-.078.099-.079.098-.08.097-.081.096-.082.095-.083.094-.084.093-.085.091-.086.09-.087.089-.088.088-.089.087-.09.086-.091.085-.092.084-.092.083-.093.082-.094.08-.095.079-.096.078-.097.077-.098.076-.098.074-.099.073-.1.072-.101.071-.102.069-.102.068-.103.067-.104.066-.105.064-.105.063-.106.062-.107.06-.107.059-.108.058-.109.056-.109.055-.11.054-.11.052-.111.051-.111.049-.112.048-.112.047-.113.045-.113.044-.114.042-.114.041-.115.04-.115.038-.116.037-.116.035-.116.034-.117.032-.117.031-.117.03-.118.028-.118.027-.118.025-.119.024-.119.022-.119.021-.119.019-.12.018-.12.016-.12.015-.12.013-.12.012-.12.01-.12.009-.121.007-.121.006-.121.005-.121.002-.121.001h-.121l-.121-.001-.121-.004-.121-.005-.121-.006-.12-.007-.12-.009-.12-.011-.12-.012-.12-.014-.12-.015-.12-.017-.12-.018-.119-.02-.119-.021-.119-.022-.119-.024-.118-.026-.118-.027-.118-.028-.117-.03-.117-.031-.117-.033-.116-.034-.116-.036-.116-.037-.115-.038-.115-.04z"/><path fill="#f00" d="M242.003 331.618l-.232.132-.233.129-.235.126-.236.122-.237.119-.238.116-.239.112-.24.109-.241.105-.242.102-.243.099-.244.095-.245.092-.246.088-.247.085-.248.081-.248.078-.249.074-.25.071-.25.067-.251.064-.252.06-.252.056-.253.053-.253.049-.254.046-.254.042-.254.038-.255.035-.255.031-.255.028-.256.024-.256.02-.256.017-.256.013-.256.01-.256.006-.256.002-.256-.001-.256-.005-.256-.009-.256-.012-.256-.016-.256-.019-.256-.023-.255-.027-.255-.03-.255-.034-.255-.038-.254-.041-.254-.045-.253-.048-.253-.052-.252-.056-.252-.059-.251-.063-.251-.066-.25-.07-.249-.073-.248-.077-.248-.08-.247-.084-.246-.087-.245-.091-.244-.094-.243-.098-.243-.101-.242-.105-.241-.108-.239-.111-.238-.115-.237-.118-.236-.121-.235-.125-.234-.128-.232-.131-.231-.135-.23-.138-.229-.141-.227-.144-.226-.148-.224-.151-.223-.154-.221-.157-.22-.16-.218-.163-.217-.166-.215-.17-.213-.173-.212-.176-.21-.179-.208-.182-.207-.184-.205-.187-.203-.19-.201-.193-.199-.196-.197-.199-.195-.202-.194-.204-.192-.207-.19-.21-.188-.212-.185-.215-.183-.218-.181-.22-.179-.223-.177-.225-.175-.228-.173-.23-.17-.233-.168-.235-.166-.237-.164-.24-.161-.242-.159-.244-.157-.247-.154-.249-.152-.251-.149-.253-.147-.255-.145-.257-.142-.259-.14-.261-.137-.263-.135-.265-.132-.267-.129-.269-.127-.271-.124-.272-.122-.274-.119-.276-.116-.278-.114-.279-.111-.281-.108-.282-.105-.284-.103-.285-.1-.287-.097-.288-.094-.29-.092-.291-.089-.292-.086-.293-.083-.295-.08-.296-.078-.297-.075-.298-.072-.299-.069-.3-.066-.301-.063-.302-.06-.303-.057-.304-.055-.304-.052-.305-.049-.306-.046-.306-.043-.307-.04-.308-.037-.308-.034-.309-.031-.309-.028-.31-.025-.31-.022-.31-.019-.311-.016-.311-.013-.311-.01-.311-.007-.311-.004-.311v-.311l.003-.311.005-.311.008-.311.011-.311.014-.311.017-.311.02-.31.023-.31.026-.31.029-.309.032-.309.035-.309.038-.308.041-.308.043-.307.046-.306.049-.306.052-.305.055-.304.058-.303.061-.302.064-.302.067-.301.07-.3.073-.299.075-.298.078-.297.081-.295.084-.294.087-.293.09-.292.092-.29.095-.289.098-.288.101-.286.103-.285.106-.283.109-.282.112-.28.114-.279.117-.277.12-.275.122-.274.125-.272.127-.27.13-.268.133-.267.135-.265.138-.263.14-.261.143-.259.145-.257.148-.255.15-.253.152-.25.155-.248.157-.246.16-.244.162-.241.164-.239.167-.237.169-.234.171-.232.173-.23.175-.227.178-.225.18-.222.182-.22.184-.217.186-.214.188-.212.19-.209.192-.206.194-.204.196-.201.198-.198.2-.195.202-.192.203-.19.205-.187.207-.184.209-.181.211-.178.212-.175.214-.172.216-.169.217-.166.219-.163.22-.159.222-.156.223-.153.225-.15.226-.147.228-.144.229-.14.23-.137.232-.134.233-.131.234-.127.235-.124.236-.121.238-.117.239-.114.24-.111.241-.107.242-.104.243-.1.244-.097.245-.093.245-.09.246-.086.247-.083.248-.079.249-.076.249-.072.25-.069.251-.065.251-.062.252-.058.252-.055.253-.051.253-.047.254-.044.254-.04.255-.037.255-.033.255-.029.256-.026.256-.022.256-.019.256-.015.256-.011.256-.008.256-.004h.256l.256.003.256.007.256.01.256.014.256.018.256.021.256.025.255.029.255.032.255.036.254.039.254.043.254.047.253.05.253.054.252.057.251.061.251.064.25.068.25.072.249.075.248.079.247.082.247.086.246.089.245.093.244.096.243.099.242.103.241.106.24.11.239.113.238.116.237.12.236.123.234.126.233.13.232.133.231.136.229.14.228.143.226.146.225.149.224.152.222.156.221.159.219.162.218.165.216.168.214.171.213.174.211.177.209.18.207.183.206.186.204.189.202.192.2.195.198.197.196.2.195.203.193.206.191.208.189.211.187.214.184.216.182.219.18.221.178.224.176.227.174.229.172.231.169.234.167.236.165.239.162.241.16.243.158.245.155.248.153.25.151.252.148.254.146.256.143.258.141.26.138.262.136.264.133.266.131.268.128.27.126.272.123.273.12.275.118.277.115.278.112.28.11.282.107.283.104.285.101.286.099.287.096.289.093.29.09.291.088.293.085.294.082.295.079.296.076.297.073.298.07.299.068.3.065.301.062.302.059.303.056.304.053.305.05.305.047.306.044.307.041.307.038.308.035.308.032.309.029.309.026.31.024.31.021.31.018.311.015.311.012.311.009.311.006.311.003.311v.311l-.003.311-.006.311-.009.311-.012.311-.015.311-.018.311-.021.31-.024.31-.027.31-.03.309-.033.309-.036.308-.039.308-.042.307-.045.307-.048.306-.051.305-.054.304-.057.304-.06.303-.063.302-.065.301-.068.3-.071.299-.074.298-.077.297-.08.296-.083.295-.085.294-.088.292-.091.291-.094.29-.097.288-.099.287-.102.286-.105.284-.108.283-.11.281-.113.28-.116.278-.118.276-.121.275-.124.273-.126.271-.129.269-.131.267-.134.266-.136.264-.139.262-.141.26-.144.258-.146.256-.149.254-.151.251-.154.249-.156.247-.158.245-.161.243-.163.24-.165.238-.168.236-.17.233-.172.231-.174.228-.176.226-.179.223-.181.221-.183.218-.185.216-.187.213-.189.21-.191.208-.193.205-.195.202-.197.199-.199.197-.201.194-.203.191-.204.188-.206.185-.208.182-.21.179-.211.176-.213.173-.215.17-.216.167-.218.164-.219.161-.221.158-.222.155-.224.152-.225.148-.227.145-.228.142-.23.139-.231.136z"/><path fill="#d45500" d="M245.527 340.858l-.161.278-.164.276-.167.274-.17.272-.173.27-.176.268-.179.265-.182.263-.184.261-.187.258-.19.256-.193.254-.196.251-.198.249-.201.246-.204.244-.206.241-.209.239-.211.236-.214.233-.217.231-.219.228-.221.225-.224.222-.226.22-.229.217-.231.214-.233.211-.236.208-.238.205-.24.202-.242.199-.244.196-.247.193-.249.19-.251.187-.253.184-.255.18-.257.177-.258.174-.26.171-.262.167-.264.164-.266.161-.267.158-.269.154-.271.151-.272.147-.274.144-.276.141-.277.137-.279.134-.28.13-.281.127-.283.123-.284.12-.285.116-.287.112-.288.109-.289.105-.29.102-.291.098-.292.094-.293.091-.294.087-.295.083-.296.08-.297.076-.298.072-.298.068-.299.065-.3.061-.3.057-.301.053-.302.05-.302.046-.303.042-.303.038-.303.035-.304.031-.304.027-.304.023-.305.019-.305.016-.305.012-.305.008-.305.004h-.305l-.305-.003-.305-.007-.305-.011-.305-.015-.305-.019-.304-.023-.304-.026-.304-.03-.304-.034-.303-.038-.303-.042-.302-.045-.302-.049-.301-.053-.301-.057-.3-.06-.299-.064-.299-.068-.298-.072-.297-.075-.296-.079-.295-.083-.294-.086-.293-.09-.292-.094-.291-.097-.29-.101-.289-.105-.288-.108-.287-.112-.286-.115-.284-.119-.283-.123-.282-.126-.28-.13-.279-.133-.277-.137-.276-.14-.274-.143-.273-.147-.271-.15-.269-.154-.268-.157-.266-.16-.264-.164-.262-.167-.261-.17-.259-.173-.257-.177-.255-.18-.253-.183-.251-.186-.249-.189-.247-.192-.245-.196-.243-.199-.24-.202-.238-.205-.236-.208-.234-.21-.231-.213-.229-.216-.227-.219-.224-.222-.222-.225-.219-.228-.217-.23-.214-.233-.212-.236-.209-.238-.207-.241-.204-.243-.201-.246-.199-.248-.196-.251-.193-.253-.19-.256-.188-.258-.185-.26-.182-.263-.179-.265-.176-.267-.173-.269-.17-.272-.167-.274-.164-.276-.161-.278-.158-.28-.155-.282-.152-.284-.149-.286-.146-.287-.143-.289-.14-.291-.137-.293-.133-.294-.13-.296-.127-.298-.124-.299-.121-.301-.117-.302-.114-.304-.111-.305-.107-.306-.104-.308-.101-.309-.097-.31-.094-.311-.09-.313-.087-.314-.084-.315-.08-.316-.077-.317-.073-.318-.07-.319-.066-.319-.063-.32-.059-.321-.056-.322-.052-.322-.049-.323-.045-.324-.042-.324-.038-.325-.035-.325-.031-.326-.028-.326-.024-.326-.021-.327-.017-.327-.014-.327-.01-.327-.007-.327-.003-.327.001-.327.004-.327.008-.327.011-.327.015-.327.018-.327.022-.326.025-.326.029-.326.033-.325.036-.325.04-.325.043-.324.047-.323.05-.323.054-.322.057-.322.061-.321.064-.32.068-.319.071-.318.075-.317.078-.316.081-.315.085-.314.088-.313.092-.312.095-.311.098-.31.102-.309.105-.307.108-.306.112-.305.115-.303.118-.302.122-.3.125-.299.128-.297.131-.295.135-.294.138-.292.141-.29.144-.289.147-.287.15-.285.153-.283.156-.281.159-.279.162-.277.165-.275.168-.273.171-.271.174-.269.177-.266.18-.264.183-.262.186-.26.189-.257.191-.255.194-.253.197-.25.2-.248.202-.245.205-.243.208-.24.21-.237.213-.235.215-.232.218-.229.22-.227.223-.224.225-.221.227-.218.23-.215.232-.212.234-.21.237-.207.239-.204.241-.201.243-.198.245-.194.248-.191.25-.188.252-.185.254-.182.256-.179.258-.176.259-.172.261-.169.263-.166.265-.163.267-.159.268-.156.27-.153.272-.149.273-.146.275-.142.276-.139.278-.135.279-.132.281-.128.282-.125.283-.121.285-.118.286-.114.287-.111.288-.107.29-.103.291-.1.292-.096.293-.093.294-.089.295-.085.296-.081.296-.078.297-.074.298-.07.299-.067.299-.063.3-.059.301-.055.301-.052.302-.048.302-.044.303-.04.303-.036.304-.033.304-.029.304-.025.305-.021.305-.017.305-.014.305-.01.305-.006.305-.002.305.002.305.005.305.009.305.013.305.017.305.021.304.024.304.028.304.032.303.036.303.04.302.043.302.047.301.051.301.055.3.059.3.062.299.066.298.07.297.073.297.077.296.081.295.085.294.088.293.092.292.096.291.099.29.103.289.106.287.11.286.114.285.117.284.121.282.124.281.128.28.131.278.135.277.138.275.142.273.145.272.149.27.152.269.155.267.159.265.162.263.165.262.169.26.172.258.175.256.178.254.182.252.185.25.188.248.191.246.194.244.197.241.2.239.203.237.206.235.209.233.212.23.215.228.218.225.221.223.223.221.226.218.229.216.232.213.234.211.237.208.24.205.242.203.245.2.247.197.25.195.252.192.255.189.257.186.259.183.262.181.264.178.266.175.268.172.27.169.273.166.275.163.277.16.279.157.281.154.283.151.285.148.286.145.288.141.29.138.292.135.294.132.295.129.297.125.298.122.3.119.301.116.303.112.304.109.306.106.307.102.308.099.31.096.311.092.312.089.313.085.314.082.315.079.316.075.317.072.318.068.319.065.32.061.321.058.321.054.322.051.323.047.323.044.324.04.324.037.325.033.325.03.326.026.326.023.326.019.327.015.327.012.327.008.327.005.327.001.327-.002.327-.006.327-.009.327-.013.327-.017.327-.02.327-.024.326-.027.326-.031.326-.034.325-.038.325-.041.324-.045.324-.048.323-.052.323-.055.322-.059.321-.062.32-.066.32-.069.319-.073.318-.076.317-.08.316-.083.315-.087.314-.09.313-.093.312-.097.31-.1.309-.103.308-.107.307-.11.305-.113.304-.117.302-.12.301-.123.299-.127.298-.13.296-.133.295-.136.293-.139.291-.142.289-.146.288-.149.286-.152.284-.155.282-.158.28z"/><path fill="#ff7f2a" d="M231.794 364.398l-.175.298-.178.296-.182.294-.185.292-.189.29-.192.288-.195.285-.199.283-.202.281-.205.278-.209.276-.212.273-.215.271-.218.268-.221.266-.224.263-.227.261-.23.258-.233.255-.236.253-.239.25-.242.247-.245.244-.248.241-.251.238-.253.235-.256.232-.259.229-.261.226-.264.223-.267.22-.269.217-.272.214-.274.211-.277.208-.279.204-.281.201-.284.198-.286.194-.288.191-.29.188-.293.184-.295.181-.297.177-.299.174-.301.171-.303.167-.305.163-.307.16-.309.156-.31.153-.312.149-.314.145-.315.142-.317.138-.319.134-.32.131-.322.127-.323.123-.325.119-.326.116-.327.112-.329.108-.33.104-.331.1-.332.096-.333.093-.334.089-.335.085-.336.081-.337.077-.338.073-.339.069-.34.065-.34.061-.341.057-.342.053-.342.049-.343.045-.343.041-.344.037-.344.033-.345.029-.345.025-.345.021-.345.017-.346.013-.346.009-.346.005-.346.001-.346-.003-.346-.007-.346-.011-.346-.015-.345-.019-.345-.023-.345-.027-.344-.031-.344-.035-.344-.039-.343-.043-.343-.047-.342-.051-.341-.055-.341-.059-.34-.063-.339-.067-.338-.071-.338-.075-.337-.079-.336-.083-.335-.087-.334-.091-.333-.095-.332-.098-.33-.102-.329-.106-.328-.11-.327-.114-.325-.118-.324-.121-.322-.125-.321-.129-.319-.133-.318-.136-.316-.14-.315-.144-.313-.147-.311-.151-.309-.155-.308-.158-.306-.162-.304-.165-.302-.169-.3-.172-.298-.176-.296-.179-.294-.183-.291-.186-.289-.19-.287-.193-.285-.196-.282-.2-.28-.203-.278-.206-.275-.209-.273-.213-.27-.216-.268-.219-.265-.222-.263-.225-.26-.228-.257-.231-.255-.234-.252-.237-.249-.24-.246-.243-.243-.246-.241-.249-.238-.251-.235-.254-.232-.257-.229-.259-.226-.262-.223-.265-.219-.267-.216-.27-.213-.272-.21-.275-.207-.277-.204-.28-.2-.282-.197-.284-.194-.287-.19-.289-.187-.291-.184-.293-.18-.295-.177-.297-.173-.299-.17-.301-.166-.303-.163-.305-.159-.307-.155-.309-.152-.311-.148-.313-.145-.314-.141-.316-.137-.318-.133-.319-.13-.321-.126-.322-.122-.324-.118-.325-.115-.326-.111-.328-.107-.329-.103-.33-.099-.331-.095-.332-.092-.334-.088-.335-.084-.336-.08-.337-.076-.337-.072-.338-.068-.339-.064-.34-.06-.341-.056-.341-.052-.342-.048-.342-.044-.343-.04-.344-.036-.344-.032-.344-.028-.345-.024-.345-.02-.345-.016-.345-.012-.346-.008-.346-.004-.346v-.346l.004-.346.008-.346.012-.346.016-.345.02-.345.024-.345.028-.345.032-.344.036-.344.04-.344.044-.343.048-.342.052-.342.056-.341.06-.341.064-.34.068-.339.072-.338.076-.337.08-.336.084-.336.088-.335.092-.333.096-.332.099-.331.103-.33.107-.329.111-.328.115-.326.119-.325.122-.323.126-.322.13-.321.134-.319.137-.317.141-.316.145-.314.148-.312.152-.311.156-.309.159-.307.163-.305.166-.303.17-.301.173-.299.177-.297.18-.295.184-.293.187-.291.19-.289.194-.286.197-.284.2-.282.204-.28.207-.277.21-.275.213-.272.216-.27.22-.267.223-.265.226-.262.229-.259.232-.257.235-.254.238-.251.241-.248.244-.246.246-.243.249-.24.252-.237.255-.234.257-.231.26-.228.263-.225.265-.222.268-.219.27-.216.273-.212.275-.209.278-.206.28-.203.283-.199.285-.196.287-.193.289-.189.292-.186.294-.183.296-.179.298-.176.3-.172.302-.169.304-.165.306-.162.308-.158.309-.155.311-.151.313-.147.315-.144.316-.14.318-.136.319-.133.321-.129.322-.125.324-.121.325-.117.327-.114.328-.11.329-.106.33-.102.332-.098.333-.094.334-.091.335-.087.336-.083.337-.079.338-.075.339-.071.339-.067.34-.063.341-.059.341-.055.342-.051.343-.047.343-.043.344-.039.344-.035.344-.031.345-.027.345-.023.345-.019.346-.015.346-.011.346-.007.346-.003.346.001.346.005.346.009.346.013.345.017.345.021.345.025.345.029.344.033.344.037.343.041.343.045.342.049.342.053.341.057.34.061.34.065.339.069.338.073.337.077.336.081.335.085.334.089.333.093.332.097.331.1.33.104.329.108.327.112.326.116.325.12.323.123.322.127.32.131.319.135.317.138.315.142.314.146.312.149.31.153.308.156.307.16.305.164.303.167.301.171.299.174.297.178.295.181.293.185.29.188.288.191.286.195.284.198.281.201.279.204.277.208.274.211.272.214.269.217.267.22.264.223.261.227.259.23.256.233.253.236.25.238.248.241.245.244.242.247.239.25.236.253.233.255.23.258.227.261.224.263.221.266.218.269.215.271.212.274.208.276.205.278.202.281.199.283.195.285.192.288.189.29.185.292.182.294.178.296.175.298.171.3.168.302.164.304.161.306.157.308.154.31.15.312.146.313.143.315.139.317.135.318.132.32.128.321.124.323.12.324.117.326.113.327.109.328.105.33.101.331.097.332.093.333.09.334.086.335.082.336.078.337.074.338.07.339.066.34.062.34.058.341.054.342.05.342.046.343.042.343.038.344.034.344.03.345.026.345.022.345.018.345.014.346.01.346.006.346.002.346-.002.346-.006.346-.01.346-.014.346-.018.345-.022.345-.026.345-.03.345-.034.344-.038.344-.042.343-.046.343-.05.342-.054.342-.058.341-.062.34-.066.339-.07.339-.074.338-.078.337-.082.336-.086.335-.09.334-.094.333-.098.332-.101.331-.105.329-.109.328-.113.327-.117.326-.12.324-.124.323-.128.321-.132.32-.135.318-.139.317-.143.315-.146.313-.15.312-.154.31-.157.308-.161.306-.164.304-.168.302-.172.3z"/><path fill="#fc0" d="M193.568 402.156l-.364.114-.365.11-.366.105-.367.1-.368.096-.369.091-.37.086-.371.081-.372.077-.372.072-.373.067-.374.062-.374.057-.375.053-.376.048-.376.043-.376.038-.377.033-.377.028-.377.024-.378.019-.378.014-.378.009-.378.004-.378-.001-.378-.006-.378-.01-.378-.015-.378-.02-.377-.025-.377-.03-.377-.035-.376-.04-.376-.044-.375-.049-.375-.054-.374-.059-.374-.064-.373-.069-.372-.073-.371-.078-.37-.083-.37-.088-.369-.092-.368-.097-.367-.102-.365-.107-.364-.111-.363-.116-.362-.121-.361-.125-.359-.13-.358-.134-.356-.139-.355-.144-.353-.148-.352-.153-.35-.157-.348-.162-.347-.166-.345-.171-.343-.175-.341-.179-.339-.184-.337-.188-.335-.193-.333-.197-.331-.201-.329-.205-.327-.21-.325-.214-.322-.218-.32-.222-.318-.226-.315-.23-.313-.234-.31-.238-.308-.242-.305-.246-.303-.25-.3-.254-.297-.258-.294-.262-.292-.265-.289-.269-.286-.273-.283-.276-.28-.28-.277-.284-.274-.287-.271-.291-.268-.294-.265-.298-.262-.301-.258-.304-.255-.308-.252-.311-.249-.314-.245-.317-.242-.32-.239-.324-.235-.327-.232-.33-.228-.333-.225-.335-.221-.338-.218-.341-.214-.344-.21-.347-.207-.349-.203-.352-.199-.355-.195-.357-.192-.36-.188-.362-.184-.364-.18-.367-.176-.369-.172-.371-.168-.374-.164-.376-.16-.378-.156-.38-.152-.382-.148-.384-.144-.386-.14-.387-.136-.389-.132-.391-.128-.393-.124-.394-.12-.396-.115-.397-.111-.399-.107-.4-.103-.401-.098-.403-.094-.404-.09-.405-.086-.406-.081-.407-.077-.408-.073-.409-.068-.41-.064-.411-.06-.412-.055-.413-.051-.413-.047-.414-.042-.415-.038-.415-.033-.416-.029-.416-.025-.416-.02-.417-.016-.417-.011-.417-.007-.417-.003-.417.002-.417.006-.417.011-.417.015-.417.019-.417.024-.416.028-.416.033-.416.037-.415.041-.415.046-.414.05-.413.054-.413.059-.412.063-.411.068-.41.072-.41.076-.409.08-.408.085-.407.089-.405.093-.404.098-.403.102-.402.106-.4.11-.399.115-.398.119-.396.123-.394.127-.393.131-.391.135-.39.139-.388.144-.386.148-.384.152-.382.156-.38.16-.378.164-.376.168-.374.172-.372.175-.37.179-.367.183-.365.187-.363.191-.36.195-.358.198-.355.202-.352.206-.35.21-.347.213-.344.217-.342.22-.339.224-.336.228-.333.231-.33.235-.327.238-.324.241-.321.245-.318.248-.315.251-.312.255-.308.258-.305.261-.302.264-.298.267-.295.27-.291.274-.288.277-.284.28-.281.283-.277.285-.274.288-.27.291-.266.294-.262.297-.259.299-.255.302-.251.305-.247.307-.243.31-.239.312-.235.315-.231.317-.227.32-.223.322-.219.324-.215.326-.21.329-.206.331-.202.333-.198.335-.193.337-.189.339-.185.341-.18.343-.176.345-.172.346-.167.348-.163.35-.158.351-.154.353-.149.355-.145.356-.14.358-.135.359-.131.36-.126.362-.121.363-.117.364-.112.365-.107.366-.103.367-.098.368-.093.369-.089.37-.084.371-.079.372-.074.373-.069.373-.065.374-.06.375-.055.375-.05.376-.045.376-.041.377-.036.377-.031.377-.026.378-.021.378-.016.378-.011.378-.007.378-.002.378.003.378.008.378.013.378.018.377.023.377.027.377.032.377.037.376.042.376.047.375.052.375.057.374.061.373.066.373.071.372.076.371.08.37.085.369.09.368.095.367.099.366.104.365.109.364.114.363.118.361.123.36.128.359.132.357.137.356.141.354.146.353.15.351.155.349.159.348.164.346.168.344.173.342.177.34.182.338.186.336.19.334.195.332.199.33.203.328.207.326.212.323.216.321.22.319.224.316.228.314.232.312.236.309.24.306.244.304.248.301.252.299.256.296.26.293.264.29.267.287.271.285.275.282.278.279.282.276.285.273.289.27.292.266.296.263.299.26.303.257.306.254.309.25.313.247.316.244.319.24.322.237.325.233.328.23.331.226.334.223.337.219.34.216.343.212.345.208.348.205.351.201.353.197.356.193.358.19.361.186.363.182.366.178.368.174.37.17.372.166.375.162.377.158.379.154.381.15.383.146.385.142.386.138.388.134.39.13.392.126.393.122.395.117.397.113.398.109.399.105.401.101.402.096.403.092.405.088.406.083.407.079.408.075.409.071.41.066.411.062.412.057.412.053.413.049.414.044.414.04.415.036.415.031.416.027.416.022.416.018.417.014.417.009.417.005.417v.417l-.004.417-.008.417-.013.417-.017.417-.022.416-.026.416-.03.416-.035.415-.039.415-.044.414-.048.414-.052.413-.057.412-.061.412-.065.411-.07.41-.074.409-.078.408-.083.407-.087.406-.091.405-.095.404-.1.402-.104.401-.108.4-.112.398-.117.397-.121.395-.125.394-.129.392-.133.39-.137.389-.141.387-.146.385-.15.383-.154.381-.158.379-.162.377-.166.375-.17.373-.173.371-.177.368-.181.366-.185.364-.189.361-.193.359-.197.356-.2.354-.204.351-.208.349-.211.346-.215.343-.219.34-.222.337-.226.335-.229.332-.233.329-.236.326-.24.323-.243.32-.246.316-.25.313-.253.31-.256.307-.259.303-.263.3-.266.297-.269.293-.272.29-.275.286-.278.283-.281.279-.284.275-.287.272-.29.268-.293.264-.295.26-.298.257-.301.253-.303.249-.306.245-.309.241-.311.237-.314.233-.316.229-.318.225-.321.221-.323.217-.325.212-.328.208-.33.204-.332.2-.334.196-.336.191-.338.187-.34.183-.342.178-.344.174-.345.169-.347.165-.349.16-.351.156-.352.151-.354.147-.355.142-.357.138-.358.133-.36.128-.361.124-.362.119z"/><path fill="#abc837" d="M161.573 414.951l-.472.157-.474.152-.476.146-.477.14-.479.135-.48.129-.482.123-.483.118-.484.112-.486.106-.487.1-.488.094-.489.089-.49.083-.491.077-.492.071-.493.065-.493.059-.494.054-.494.048-.495.042-.495.036-.496.03-.496.024-.496.018-.497.012-.497.006h-.497l-.497-.005-.497-.011-.496-.017-.496-.023-.496-.029-.496-.035-.495-.041-.495-.046-.494-.052-.493-.058-.493-.064-.492-.07-.491-.076-.49-.082-.489-.087-.488-.093-.487-.099-.486-.105-.485-.111-.483-.116-.482-.122-.481-.128-.479-.134-.478-.139-.476-.145-.474-.15-.472-.156-.471-.162-.469-.167-.467-.173-.465-.178-.463-.184-.461-.189-.458-.195-.456-.2-.454-.206-.451-.211-.449-.216-.447-.222-.444-.227-.441-.232-.439-.238-.436-.243-.433-.248-.43-.253-.427-.258-.424-.263-.421-.268-.418-.273-.415-.278-.412-.283-.409-.288-.405-.293-.402-.298-.398-.302-.395-.307-.391-.312-.388-.316-.384-.321-.38-.325-.377-.33-.373-.334-.369-.339-.365-.343-.361-.347-.357-.352-.353-.356-.349-.36-.345-.364-.341-.368-.337-.372-.332-.376-.328-.38-.324-.384-.319-.388-.315-.392-.31-.395-.306-.399-.301-.403-.296-.406-.292-.41-.287-.413-.282-.417-.277-.42-.273-.423-.268-.426-.263-.429-.258-.433-.253-.436-.248-.439-.243-.442-.238-.444-.233-.447-.228-.45-.223-.453-.217-.455-.212-.458-.207-.46-.202-.463-.196-.465-.191-.467-.186-.469-.18-.472-.175-.474-.169-.476-.164-.478-.158-.48-.153-.482-.147-.483-.142-.485-.136-.487-.131-.488-.125-.49-.12-.491-.114-.493-.108-.494-.103-.495-.097-.496-.091-.498-.086-.499-.08-.5-.074-.5-.068-.501-.063-.502-.057-.503-.051-.504-.045-.504-.04-.505-.034-.505-.028-.505-.022-.506-.017-.506-.011-.506-.005-.506.001-.506.007-.506.012-.506.018-.506.024-.506.03-.505.036-.505.041-.504.047-.504.053-.503.059-.503.064-.502.07-.501.076-.5.082-.499.087-.498.093-.497.099-.496.104-.495.11-.494.116-.492.121-.491.127-.489.132-.488.138-.486.144-.485.149-.483.155-.481.16-.479.166-.477.171-.475.176-.473.182-.471.187-.469.193-.467.198-.464.203-.462.208-.459.214-.457.219-.454.224-.452.229-.449.234-.446.239-.443.244-.441.25-.438.255-.435.259-.432.264-.429.269-.425.274-.422.279-.419.284-.415.288-.412.293-.409.298-.405.302-.402.307-.398.311-.394.316-.391.32-.387.325-.383.329-.379.333-.375.338-.371.342-.367.346-.363.35-.359.354-.355.358-.35.362-.346.366-.342.37-.337.374-.333.378-.329.382-.324.385-.32.389-.315.392-.31.396-.306.399-.301.403-.296.406-.291.41-.286.413-.282.416-.277.419-.272.422-.267.425-.262.428-.257.431-.251.434-.246.437-.241.439-.236.442-.231.445-.225.447-.22.45-.215.452-.209.455-.204.457-.199.459-.193.461-.188.463-.182.465-.177.467-.171.469-.166.471-.16.473-.154.475-.149.476-.143.478-.138.48-.132.481-.126.482-.12.484-.115.485-.109.486-.103.487-.097.489-.092.49-.086.49-.08.491-.074.492-.068.493-.062.494-.057.494-.051.495-.045.495-.039.496-.033.496-.027.496-.021.496-.015.497-.009.497-.004.497.002.497.008.497.014.496.02.496.026.496.032.495.038.495.044.494.05.494.055.493.061.492.067.492.073.491.079.49.085.489.09.488.096.487.102.485.108.484.113.483.119.481.125.48.131.478.136.477.142.475.148.473.153.472.159.47.165.468.17.466.176.464.181.462.187.46.192.457.198.455.203.453.208.45.214.448.219.445.224.443.23.44.235.437.24.434.245.432.25.429.256.426.261.423.266.42.271.417.276.413.281.41.285.407.29.404.295.4.3.397.305.393.309.39.314.386.319.382.323.379.328.375.332.371.337.367.341.363.345.359.35.355.354.351.358.347.362.343.366.339.37.334.374.33.378.326.382.321.386.317.39.312.394.308.397.303.401.299.404.294.408.289.411.285.415.28.418.275.421.27.425.265.428.26.431.256.434.251.437.246.44.24.443.235.446.23.449.225.451.22.454.215.456.209.459.204.461.199.464.194.466.188.468.183.471.178.473.172.475.167.477.161.479.156.481.15.482.145.484.139.486.134.488.128.489.122.491.117.492.111.493.105.495.1.496.094.497.088.498.083.499.077.5.071.501.066.502.06.503.054.503.048.504.043.504.037.505.031.505.025.506.019.506.014.506.008.506.002.506-.004.506-.01.506-.015.506-.021.506-.027.505-.033.505-.038.505-.044.504-.05.504-.056.503-.061.502-.067.501-.073.501-.079.5-.084.499-.09.498-.096.497-.101.495-.107.494-.113.493-.118.492-.124.49-.13.489-.135.487-.141.485-.146.484-.152.482-.157.48-.163.478-.168.476-.174.474-.179.472-.185.47-.19.468-.195.465-.201.463-.206.461-.211.458-.216.456-.221.453-.227.45-.232.448-.237.445-.242.442-.247.439-.252.436-.257.433-.262.43-.267.427-.272.424-.277.42-.281.417-.286.414-.291.41-.295.407-.3.403-.305.4-.309.396-.314.392-.318.389-.323.385-.327.381-.331.377-.336.373-.34.369-.344.365-.348.361-.352.357-.356.353-.36.348-.364.344-.368.34-.372.335-.376.331-.38.326-.383.322-.387.317-.391.313-.394.308-.398.303-.401.298-.405.294-.408.289-.411.284-.414.279-.418.274-.421.269-.424.264-.427.259-.43.254-.432.249-.435.244-.438.239-.441.233-.443.228-.446.223-.449.217-.451.212-.453.207-.456.201-.458.196-.46.19-.462.185-.464.18-.466.174-.468.168-.47.163z"/><path fill="#250" d="M143.939 390.4l-.266.502-.271.499-.277.495-.283.492-.289.489-.294.485-.3.482-.306.478-.311.475-.317.471-.322.467-.327.464-.333.46-.338.456-.344.452-.349.448-.354.444-.359.44-.364.435-.369.431-.374.427-.379.422-.384.418-.389.413-.394.409-.398.404-.403.4-.408.395-.412.39-.417.385-.421.38-.426.375-.43.37-.434.365-.439.36-.443.355-.447.35-.451.345-.455.34-.459.334-.463.329-.467.323-.47.318-.474.312-.478.307-.481.301-.485.296-.488.29-.491.284-.495.279-.498.273-.501.267-.504.261-.507.255-.51.249-.513.243-.516.237-.518.231-.521.225-.524.219-.526.213-.529.207-.531.201-.533.194-.536.188-.538.182-.54.176-.542.169-.544.163-.546.157-.547.15-.549.144-.551.138-.552.131-.554.125-.555.118-.557.112-.558.105-.559.099-.56.092-.561.086-.562.079-.563.073-.564.066-.565.059-.565.053-.566.046-.566.04-.567.033-.567.026-.567.02-.568.013-.568.007h-.568l-.568-.007-.568-.013-.567-.02-.567-.026-.567-.033-.566-.04-.566-.046-.565-.053-.565-.059-.564-.066-.563-.073-.562-.079-.561-.086-.56-.092-.559-.099-.558-.105-.557-.112-.555-.118-.554-.125-.552-.131-.551-.138-.549-.144-.547-.15-.546-.157-.544-.163-.542-.169-.54-.176-.538-.182-.536-.188-.533-.195-.531-.201-.529-.207-.526-.213-.524-.219-.521-.225-.518-.231-.516-.237-.513-.243-.51-.249-.507-.255-.504-.261-.501-.267-.498-.273-.495-.279-.491-.284-.488-.29-.485-.296-.481-.301-.478-.307-.474-.312-.47-.318-.467-.323-.463-.329-.459-.334-.455-.34-.451-.345-.447-.35-.443-.355-.439-.36-.434-.365-.43-.371-.426-.375-.421-.38-.417-.385-.412-.39-.408-.395-.403-.4-.398-.404-.394-.409-.389-.414-.384-.418-.379-.422-.374-.427-.369-.431-.364-.435-.359-.44-.354-.444-.349-.448-.343-.452-.338-.456-.333-.46-.327-.464-.322-.467-.317-.471-.311-.475-.305-.478-.3-.482-.294-.485-.289-.489-.283-.492-.277-.495-.271-.499-.265-.502-.26-.505-.254-.508-.248-.511-.242-.514-.236-.516-.23-.519-.224-.522-.218-.524-.211-.527-.205-.529-.199-.532-.193-.534-.187-.536-.18-.538-.174-.54-.168-.542-.162-.544-.155-.546-.149-.548-.142-.55-.136-.551-.13-.553-.123-.554-.117-.556-.11-.557-.104-.558-.097-.559-.091-.56-.084-.561-.077-.562-.071-.563-.064-.564-.058-.565-.051-.565-.045-.566-.038-.566-.031-.567-.025-.567-.018-.567-.012-.568-.005-.568.002-.568.008-.568.015-.567.022-.567.028-.567.035-.567.041-.566.048-.566.055-.565.061-.564.068-.564.074-.563.081-.562.087-.561.094-.56.1-.559.107-.558.113-.556.12-.555.126-.553.133-.552.139-.55.146-.549.152-.547.158-.545.165-.543.171-.541.177-.539.184-.537.19-.535.196-.533.202-.53.208-.528.215-.526.221-.523.227-.52.233-.518.239-.515.245-.512.251-.509.257-.506.263-.503.268-.5.274-.497.28-.494.286-.49.291-.487.297-.484.303-.48.308-.477.314-.473.319-.469.325-.466.33-.462.336-.458.341-.454.346-.45.351-.446.357-.442.362-.438.367-.433.372-.429.377-.425.382-.42.387-.416.391-.411.396-.407.401-.402.405-.397.41-.393.415-.388.419-.383.424-.378.428-.373.432-.368.437-.363.441-.358.445-.353.449-.347.453-.342.457-.337.461-.332.465-.326.468-.321.472-.315.476-.31.479-.304.483-.298.486-.293.49-.287.493-.281.496-.276.499-.27.503-.264.506-.258.509-.252.511-.246.514-.24.517-.234.52-.228.522-.222.525-.216.527-.21.53-.204.532-.198.534-.191.537-.185.539-.179.541-.173.543-.166.545-.16.546-.154.548-.147.55-.141.552-.134.553-.128.555-.121.556-.115.557-.108.558-.102.56-.095.561-.089.562-.082.563-.076.563-.069.564-.063.565-.056.565-.05.566-.043.566-.036.567-.03.567-.023.567-.017.568-.01.568-.003.568.003.568.01.567.017.567.023.567.03.566.036.566.043.565.05.565.056.564.063.563.069.563.076.562.082.561.089.56.096.558.102.557.109.556.115.555.121.553.128.552.134.55.141.548.147.546.154.545.16.543.166.541.173.539.179.537.185.534.191.532.198.53.204.527.21.525.216.522.222.52.228.517.234.514.24.511.246.509.252.506.258.503.264.499.27.496.276.493.281.49.287.486.293.483.299.479.304.476.31.472.315.468.321.465.326.461.332.457.337.453.342.449.347.445.353.441.358.436.363.432.368.428.373.424.378.419.383.415.388.41.393.405.397.401.402.396.407.391.411.387.416.382.42.377.425.372.429.367.433.362.438.357.442.351.446.346.45.341.454.336.458.33.462.325.466.319.469.314.473.308.477.303.48.297.484.291.487.286.491.28.494.274.497.268.5.263.503.257.506.251.509.245.512.239.515.233.518.227.52.221.523.215.526.208.528.202.53.196.533.19.535.184.537.177.539.171.541.165.543.158.545.152.547.146.549.139.55.133.552.126.553.12.555.113.556.107.558.1.559.094.56.087.561.081.562.074.563.068.564.061.564.054.565.048.566.041.566.035.567.028.567.021.567.015.567.008.568.001.568-.005.568-.012.568-.018.567-.025.567-.031.567-.038.566-.045.566-.051.565-.058.565-.064.564-.071.563-.078.562-.084.561-.091.56-.097.559-.104.558-.11.557-.117.556-.123.554-.13.553-.136.551-.142.55-.149.548-.155.546-.162.544-.168.542-.174.54-.18.538-.187.536-.193.534-.199.532-.205.529-.212.527-.218.524-.224.522-.23.519-.236.516-.242.514-.248.511-.254.508-.26.505z"/><path fill="#06f" d="M128.347 331.491l-.192.59-.198.588-.204.585-.211.583-.217.58-.223.577-.229.574-.236.571-.242.568-.248.565-.254.562-.26.559-.266.556-.272.552-.278.549-.284.545-.29.542-.296.538-.302.534-.307.53-.313.527-.319.523-.324.519-.33.514-.335.51-.341.506-.346.502-.352.497-.357.493-.362.488-.368.484-.373.479-.378.474-.383.47-.388.465-.393.46-.398.455-.403.45-.408.445-.413.44-.417.434-.422.429-.427.424-.431.418-.436.413-.44.408-.445.402-.449.396-.453.391-.457.385-.462.379-.466.373-.47.367-.474.362-.477.356-.481.35-.485.343-.489.337-.492.331-.496.325-.499.319-.503.313-.506.306-.509.3-.513.293-.516.287-.519.28-.522.274-.525.267-.528.261-.53.254-.533.247-.536.241-.538.234-.541.227-.543.22-.546.214-.548.207-.55.2-.552.193-.554.186-.556.179-.558.172-.56.165-.562.158-.563.151-.565.144-.567.137-.568.13-.569.122-.571.115-.572.108-.573.101-.574.094-.575.086-.576.079-.577.072-.577.065-.578.058-.579.05-.579.043-.58.036-.58.028-.58.021-.58.014-.581.007-.581-.001-.581-.008-.58-.015-.58-.023-.58-.03-.58-.037-.579-.044-.579-.052-.578-.059-.577-.066-.577-.073-.576-.081-.575-.088-.574-.095-.573-.102-.572-.109-.57-.117-.569-.124-.568-.131-.566-.138-.565-.145-.563-.152-.561-.159-.56-.166-.558-.173-.556-.18-.554-.187-.552-.194-.55-.201-.547-.208-.545-.215-.543-.222-.54-.228-.538-.235-.535-.242-.533-.249-.53-.255-.527-.262-.524-.269-.521-.275-.518-.282-.515-.288-.512-.295-.509-.301-.506-.307-.502-.314-.499-.32-.495-.326-.492-.332-.488-.339-.484-.345-.481-.351-.477-.357-.473-.363-.469-.369-.465-.374-.461-.38-.457-.386-.452-.392-.448-.397-.444-.403-.439-.409-.435-.414-.43-.419-.426-.425-.421-.43-.417-.435-.412-.441-.407-.446-.402-.451-.397-.456-.392-.461-.387-.466-.382-.471-.377-.475-.372-.48-.367-.485-.361-.489-.356-.494-.351-.498-.345-.503-.34-.507-.334-.511-.329-.515-.323-.519-.318-.523-.312-.527-.306-.531-.3-.535-.295-.539-.289-.542-.283-.546-.277-.549-.271-.553-.265-.556-.259-.56-.253-.563-.247-.566-.241-.569-.234-.572-.228-.575-.222-.578-.216-.58-.209-.583-.203-.586-.197-.588-.19-.591-.184-.593-.177-.595-.171-.597-.165-.6-.158-.602-.152-.604-.145-.605-.138-.607-.132-.609-.125-.611-.119-.612-.112-.613-.105-.615-.099-.616-.092-.617-.085-.618-.079-.619-.072-.62-.065-.621-.058-.622-.052-.623-.045-.623-.038-.624-.032-.624-.025-.625-.018-.625-.011-.625-.005-.625.002-.625.009-.625.016-.625.023-.625.029-.624.036-.624.043-.624.05-.623.056-.622.063-.621.07-.621.077-.62.083-.619.09-.618.097-.616.103-.615.11-.614.117-.612.123-.611.13-.609.136-.608.143-.606.15-.604.156-.602.163-.6.169-.598.176-.596.182-.594.188-.591.195-.589.201-.586.207-.584.214-.581.22-.579.226-.576.232-.573.239-.57.245-.567.251-.564.257-.561.263-.557.269-.554.275-.551.281-.547.287-.544.293-.54.299-.536.304-.532.31-.529.316-.525.321-.521.327-.517.333-.512.338-.508.344-.504.349-.5.354-.495.36-.491.365-.486.37-.481.376-.477.381-.472.386-.467.391-.462.396-.457.401-.452.406-.447.41-.442.415-.437.42-.432.424-.427.429-.421.434-.416.438-.41.442-.405.447-.399.451-.394.455-.388.46-.382.464-.376.468-.37.472-.365.476-.359.479-.353.483-.347.487-.34.491-.334.494-.328.498-.322.501-.316.504-.309.508-.303.511-.297.514-.29.517-.284.52-.277.523-.271.526-.264.529-.257.532-.251.534-.244.537-.237.54-.231.542-.224.544-.217.547-.21.549-.203.551-.196.553-.189.555-.182.557-.175.559-.168.561-.161.563-.154.564-.147.566-.14.567-.133.569-.126.57-.119.571-.112.572-.104.573-.097.574-.09.575-.083.576-.076.577-.068.578-.061.578-.054.579-.047.579-.039.58-.032.58-.025.58-.018.58-.01.581-.003.581.004.58.012.58.019.58.026.58.033.579.041.579.048.578.055.578.063.577.07.576.077.575.084.574.091.573.099.572.106.571.113.57.12.568.127.567.134.565.142.564.149.562.156.561.163.559.17.557.177.555.184.553.191.551.198.549.205.546.211.544.218.542.225.539.232.537.239.534.245.531.252.529.259.526.265.523.272.52.278.517.285.514.291.51.298.507.304.504.311.5.317.497.323.493.329.49.336.486.342.482.348.479.354.475.36.471.366.467.372.463.377.459.383.455.389.45.395.446.4.442.406.437.411.433.417.428.422.424.428.419.433.414.438.409.443.405.448.4.453.395.458.39.463.385.468.38.473.375.478.369.482.364.487.359.491.353.496.348.5.343.505.337.509.332.513.326.517.32.521.315.525.309.529.303.533.298.537.292.541.286.544.28.548.274.551.268.555.262.558.256.561.25.564.244.567.237.571.231.573.225.576.219.579.213.582.206.584.2.587.194.589.187.592.181.594.174.596.168.599.161.601.155.603.148.604.142.606.135.608.129.61.122.611.115.613.109.614.102.616.095.617.089.618.082.619.075.62.069.621.062.622.055.622.048.623.042.624.035.624.028.624.021.625.015.625.008.625.001.625-.005.625-.013.625-.019.625-.026.625-.033.624-.04.624-.046.623-.053.623-.06.622-.067.621-.073.62-.08.619-.087.618-.093.617-.1.616-.107.615-.113.613-.12.612-.127.61-.133.609-.14.607-.146.605-.153.603-.159.601-.166.599-.172.597-.179.595-.185.593z"/><path fill="#3737c8" d="M123.831 286.58l-.38.415-.384.411-.389.407-.394.402-.399.397-.403.393-.408.388-.412.383-.417.378-.421.374-.425.369-.43.364-.434.359-.438.354-.442.348-.446.343-.45.338-.454.333-.458.328-.462.322-.466.317-.469.311-.473.306-.476.3-.48.295-.483.289-.487.284-.49.278-.493.272-.496.266-.499.261-.502.255-.505.249-.508.243-.511.237-.514.231-.516.225-.519.219-.522.213-.524.207-.526.201-.529.195-.531.189-.533.183-.535.176-.537.17-.539.164-.541.158-.543.151-.545.145-.546.139-.548.132-.549.126-.551.12-.552.113-.553.107-.555.1-.556.094-.557.087-.558.081-.559.074-.56.068-.56.061-.561.055-.562.048-.562.042-.563.035-.563.029-.563.022-.563.016-.564.009-.564.003-.564-.004-.564-.011-.563-.017-.563-.024-.563-.03-.562-.037-.562-.043-.561-.05-.561-.056-.56-.063-.559-.069-.559-.076-.558-.082-.557-.089-.556-.095-.554-.102-.553-.108-.552-.115-.55-.121-.549-.127-.547-.134-.546-.14-.544-.146-.542-.153-.541-.159-.539-.165-.537-.172-.535-.178-.533-.184-.53-.19-.528-.196-.526-.202-.523-.209-.521-.215-.518-.221-.516-.227-.513-.233-.51-.239-.508-.244-.505-.25-.502-.256-.499-.262-.496-.268-.492-.274-.489-.279-.486-.285-.482-.291-.479-.296-.476-.302-.472-.307-.468-.313-.465-.318-.461-.323-.457-.329-.453-.334-.449-.339-.445-.344-.441-.35-.437-.355-.433-.36-.429-.365-.424-.37-.42-.375-.416-.38-.411-.384-.407-.389-.402-.394-.397-.398-.393-.403-.388-.408-.383-.412-.378-.416-.374-.421-.369-.425-.364-.429-.359-.434-.353-.438-.348-.442-.343-.446-.338-.45-.333-.454-.327-.458-.322-.461-.316-.465-.311-.469-.305-.472-.3-.476-.294-.479-.289-.483-.283-.486-.277-.489-.272-.492-.266-.495-.26-.499-.254-.502-.248-.504-.242-.507-.236-.51-.23-.513-.224-.515-.218-.518-.212-.52-.206-.523-.2-.525-.194-.528-.188-.53-.182-.532-.175-.534-.169-.536-.163-.538-.157-.54-.15-.542-.144-.543-.137-.545-.131-.546-.125-.548-.118-.549-.112-.551-.105-.552-.099-.553-.092-.554-.086-.555-.079-.556-.073-.557-.066-.558-.06-.559-.053-.559-.047-.56-.04-.56-.034-.561-.027-.561-.021-.562-.014-.562-.007-.562-.001-.562.006-.562.012-.562.019-.562.025-.561.032-.561.038-.561.045-.56.052-.56.058-.559.065-.558.071-.557.078-.557.084-.556.091-.555.097-.553.104-.552.11-.551.117-.55.123-.548.129-.547.136-.545.142-.544.148-.542.155-.54.161-.538.167-.537.174-.535.18-.533.186-.53.192-.528.198-.526.205-.524.211-.521.217-.519.223-.516.229-.514.235-.511.241-.508.247-.505.253-.502.258-.499.264-.496.27-.493.276-.49.282-.487.287-.483.293-.48.298-.477.304-.473.31-.47.315-.466.32-.462.326-.459.331-.455.336-.451.342-.447.347-.443.352-.439.357-.435.362-.431.367-.426.372-.422.377-.418.382-.413.387-.409.392-.404.396-.4.401-.395.405-.39.41-.386.414-.381.419-.376.423-.371.428-.366.432-.361.436-.356.44-.351.444-.346.448-.341.452-.335.456-.33.46-.325.464-.32.467-.314.471-.309.475-.303.478-.298.482-.292.485-.286.488-.281.492-.275.495-.269.498-.264.501-.258.504-.252.507-.246.51-.24.512-.234.515-.228.518-.222.52-.216.523-.21.525-.204.528-.198.53-.192.532-.186.534-.179.536-.173.538-.167.54-.161.542-.154.544-.148.545-.142.547-.135.549-.129.55-.123.551-.116.553-.11.554-.103.555-.097.556-.091.557-.084.558-.078.559-.071.56-.065.561-.058.561-.052.562-.045.562-.038.563-.032.563-.025.563-.019.564-.012.564-.006.564.001.564.007.564.014.563.02.563.027.563.033.562.04.562.047.561.053.561.06.56.066.559.073.558.079.557.086.556.092.555.098.554.105.553.111.551.118.55.124.548.131.547.137.545.143.543.15.542.156.54.162.538.168.536.175.534.181.532.187.529.193.527.199.525.205.522.212.52.218.517.224.514.23.512.236.509.242.506.247.503.253.5.259.497.265.494.271.491.276.488.282.484.288.481.293.477.299.474.304.47.31.467.315.463.321.459.326.455.331.451.337.447.342.443.347.439.352.435.357.431.362.427.367.422.372.418.377.413.382.409.387.404.391.4.396.395.401.39.405.386.41.381.414.376.419.371.423.366.427.361.432.356.436.351.44.346.444.34.448.335.452.33.456.325.459.319.463.314.467.308.47.303.474.297.477.292.481.286.484.28.488.275.491.269.494.263.497.257.5.251.503.245.506.239.509.233.511.227.514.221.517.215.519.209.522.203.524.197.526.191.529.185.531.178.533.172.535.166.537.16.539.153.541.147.542.141.544.134.546.128.547.121.549.115.55.109.551.102.553.096.554.089.555.083.556.076.557.07.558.063.558.057.559.05.56.044.56.037.561.03.561.024.561.017.562.011.562.004.562-.003.562-.009.562-.016.562-.022.561-.029.561-.035.561-.042.56-.048.56-.055.559-.061.559-.068.558-.074.557-.081.556-.087.555-.094.554-.1.553-.107.552-.113.55-.12.549-.126.548-.133.546-.139.545-.145.543-.152.541-.158.539-.164.538-.171.536-.177.534-.183.531-.189.529-.195.527-.202.525-.208.522-.214.52-.22.517-.226.515-.232.512-.238.509-.244.507-.25.504-.256.501-.261.498-.267.495-.273.492-.279.488-.284.485-.29.482-.296.478-.301.475-.307.471-.312.468-.318.464-.323.46-.328.457-.334.453-.339.449-.344.445-.349.441-.355.437-.36.433-.365.428-.37.424-.375.42z"/><path fill="#2c2ca0" d="M147.557 234.86l-.415.399-.419.394-.424.389-.428.383-.433.378-.437.373-.441.368-.445.363-.45.357-.454.352-.458.347-.461.341-.465.336-.469.33-.473.324-.477.319-.48.313-.484.307-.487.302-.491.296-.494.29-.497.284-.5.278-.504.272-.507.266-.51.26-.513.254-.515.248-.518.242-.521.236-.524.229-.526.223-.529.217-.531.211-.534.204-.536.198-.538.191-.54.185-.542.179-.544.172-.546.166-.548.159-.55.153-.552.146-.553.139-.555.133-.556.126-.558.12-.559.113-.56.106-.561.1-.563.093-.564.086-.564.08-.565.073-.566.066-.567.059-.568.053-.568.046-.569.039-.569.032-.569.026-.57.019-.57.012-.57.005-.57-.001-.57-.008-.57-.015-.569-.022-.569-.029-.569-.035-.568-.042-.568-.049-.567-.056-.567-.062-.566-.069-.565-.076-.564-.083-.563-.089-.562-.096-.561-.103-.56-.109-.558-.116-.557-.123-.556-.129-.554-.136-.553-.142-.551-.149-.549-.155-.547-.162-.545-.168-.543-.175-.541-.181-.539-.188-.537-.194-.535-.201-.533-.207-.53-.213-.528-.22-.525-.226-.523-.232-.52-.238-.517-.244-.514-.251-.511-.257-.508-.263-.505-.269-.502-.275-.499-.281-.496-.287-.493-.292-.489-.298-.486-.304-.482-.31-.479-.316-.475-.321-.471-.327-.468-.332-.464-.338-.46-.344-.456-.349-.452-.354-.448-.36-.444-.365-.439-.37-.435-.375-.431-.381-.426-.386-.422-.391-.418-.396-.413-.401-.408-.406-.404-.41-.399-.415-.394-.42-.389-.425-.385-.429-.38-.434-.375-.438-.37-.443-.364-.447-.359-.451-.354-.456-.349-.46-.344-.464-.338-.468-.333-.472-.328-.476-.322-.48-.317-.483-.311-.487-.305-.491-.3-.494-.294-.498-.288-.501-.283-.505-.277-.508-.271-.511-.265-.515-.259-.518-.253-.521-.247-.524-.241-.527-.235-.53-.229-.532-.223-.535-.217-.538-.211-.54-.205-.543-.199-.545-.192-.547-.186-.55-.18-.552-.173-.554-.167-.556-.161-.558-.154-.56-.148-.562-.142-.563-.135-.565-.129-.566-.122-.568-.116-.569-.109-.571-.103-.572-.096-.573-.09-.574-.083-.575-.076-.576-.07-.577-.063-.578-.057-.579-.05-.579-.043-.58-.037-.58-.03-.581-.023-.581-.017-.581-.01-.581-.004-.581.003-.581.01-.581.016-.581.023-.581.03-.581.036-.58.043-.58.05-.579.056-.579.063-.578.069-.577.076-.576.083-.575.089-.574.096-.573.102-.572.109-.571.115-.569.122-.568.128-.567.135-.565.141-.563.148-.562.154-.56.16-.558.167-.556.173-.554.179-.552.186-.55.192-.547.198-.545.204-.543.211-.54.217-.538.223-.535.229-.532.235-.53.241-.527.247-.524.253-.521.259-.518.265-.515.271-.512.277-.508.282-.505.288-.502.294-.498.299-.495.305-.491.311-.487.316-.484.322-.48.327-.476.333-.472.338-.468.343-.464.349-.46.354-.456.359-.452.364-.447.369-.443.374-.438.379-.434.384-.429.389-.425.394-.42.399-.415.403-.411.408-.406.413-.401.417-.396.422-.391.426-.386.431-.381.435-.376.439-.371.443-.365.447-.36.452-.355.456-.349.46-.344.463-.338.467-.333.471-.327.475-.322.478-.316.482-.31.485-.305.489-.299.492-.293.496-.287.499-.281.502-.275.505-.269.508-.263.511-.257.514-.251.517-.245.52-.239.522-.232.525-.226.528-.22.53-.214.532-.207.535-.201.537-.195.539-.188.541-.182.543-.175.545-.169.547-.162.549-.156.551-.149.552-.143.554-.136.556-.13.557-.123.558-.116.56-.11.561-.103.562-.096.563-.09.564-.083.565-.076.566-.07.567-.063.567-.056.568-.049.568-.043.569-.036.569-.029.569-.022.57-.015.57-.009.57-.002.57.005.57.012.57.018.569.025.569.032.569.039.568.046.568.052.567.059.566.066.565.072.565.079.564.086.563.093.562.099.56.106.559.113.558.119.556.126.555.132.553.139.552.146.55.152.548.159.546.165.544.172.542.178.54.185.538.191.536.197.534.204.531.21.529.216.526.223.524.229.521.235.518.241.516.247.513.254.51.26.507.266.504.272.501.278.497.284.494.29.491.295.487.301.484.307.48.313.477.318.473.324.469.33.466.335.462.341.458.346.454.352.45.357.446.362.442.368.437.373.433.378.429.383.424.388.42.393.415.398.411.403.406.408.401.413.397.418.392.422.387.427.382.431.377.436.372.44.367.445.362.449.357.453.352.458.346.462.341.466.336.47.33.474.325.478.319.482.314.485.308.489.303.493.297.496.291.5.286.503.28.507.274.51.268.513.262.516.256.519.25.522.244.525.238.528.232.531.226.534.22.536.214.539.208.541.202.544.195.546.189.548.183.551.177.553.17.555.164.557.158.559.151.561.145.562.138.564.132.566.125.567.119.569.112.57.106.571.099.573.093.574.086.575.08.576.073.577.066.577.06.578.053.579.047.579.04.58.033.58.027.581.02.581.014.581.007.581v.581l-.006.581-.013.581-.02.581-.026.581-.033.58-.04.58-.046.58-.053.579-.059.578-.066.578-.073.577-.079.576-.086.575-.092.574-.099.573-.105.571-.112.57-.118.569-.125.567-.131.566-.138.564-.144.562-.151.561-.157.559-.164.557-.17.555-.176.553-.183.551-.189.549-.195.546-.201.544-.207.542-.214.539-.22.536-.226.534-.232.531-.238.528-.244.525-.25.522-.256.519-.262.516-.268.513-.274.51-.279.507-.285.503-.291.5-.297.496-.302.493-.308.489-.313.486-.319.482-.324.478-.33.474-.335.47-.341.466-.346.462-.351.458-.356.454-.362.449-.367.445-.372.441-.377.436-.382.432-.387.427-.391.423-.396.418-.401.413-.406.408-.41.403z"/><path fill="#40a" d="M146.95 187.496l-.603.037-.603.03-.603.023-.604.016-.604.009-.604.001-.604-.005-.604-.013-.604-.02-.603-.027-.603-.034-.602-.041-.602-.048-.601-.055-.601-.062-.6-.069-.599-.076-.598-.083-.597-.09-.596-.097-.595-.104-.594-.111-.592-.117-.591-.124-.589-.131-.588-.138-.586-.145-.584-.152-.583-.159-.581-.165-.579-.172-.577-.179-.575-.186-.572-.192-.57-.199-.568-.205-.565-.212-.563-.219-.56-.225-.558-.232-.555-.238-.552-.245-.549-.251-.546-.257-.543-.264-.54-.27-.537-.276-.534-.283-.53-.289-.527-.295-.523-.301-.52-.307-.516-.313-.513-.319-.509-.325-.505-.331-.501-.337-.497-.343-.493-.349-.489-.354-.485-.36-.481-.366-.476-.371-.472-.377-.468-.382-.463-.388-.458-.393-.454-.398-.449-.404-.444-.409-.44-.414-.435-.419-.43-.424-.425-.429-.42-.434-.415-.439-.41-.444-.404-.448-.399-.453-.394-.458-.389-.462-.383-.467-.378-.471-.372-.476-.367-.48-.361-.484-.355-.488-.35-.492-.344-.496-.338-.5-.332-.504-.326-.508-.32-.512-.314-.516-.308-.519-.302-.523-.296-.526-.29-.53-.284-.533-.277-.536-.271-.54-.265-.543-.259-.546-.252-.549-.246-.552-.239-.554-.233-.557-.226-.56-.22-.562-.213-.565-.207-.567-.2-.57-.193-.572-.187-.574-.18-.576-.173-.578-.166-.58-.16-.582-.153-.584-.146-.586-.139-.588-.132-.589-.126-.591-.119-.592-.112-.593-.105-.595-.098-.596-.091-.597-.084-.598-.077-.599-.07-.6-.063-.601-.056-.601-.049-.602-.042-.602-.035-.603-.028-.603-.021-.603-.014-.604-.007-.604v-.604l.007-.604.014-.604.021-.603.028-.603.035-.603.042-.602.05-.602.057-.601.064-.6.071-.6.077-.599.084-.598.091-.597.098-.596.105-.595.112-.593.119-.592.126-.591.133-.589.14-.587.147-.586.153-.584.16-.582.167-.58.174-.578.18-.576.187-.574.194-.572.201-.57.207-.567.214-.565.22-.562.227-.56.233-.557.24-.554.246-.551.253-.548.259-.545.265-.542.272-.539.278-.536.284-.533.29-.529.297-.526.303-.523.309-.519.315-.515.321-.512.327-.508.333-.504.338-.5.344-.496.35-.492.356-.488.361-.484.367-.48.373-.475.378-.471.384-.466.389-.462.394-.457.4-.453.405-.448.41-.443.415-.438.42-.434.425-.429.43-.424.435-.419.44-.414.445-.408.45-.403.454-.398.459-.393.463-.387.468-.382.472-.376.477-.371.481-.365.485-.36.489-.354.493-.348.497-.342.501-.337.505-.331.509-.325.513-.319.517-.313.52-.307.524-.301.527-.295.531-.288.534-.282.537-.276.54-.27.543-.263.546-.257.549-.251.552-.244.555-.238.558-.231.56-.225.563-.218.566-.212.568-.205.57-.198.573-.192.575-.185.577-.178.579-.172.581-.165.583-.158.585-.151.586-.144.588-.138.59-.131.591-.124.592-.117.594-.11.595-.103.596-.096.597-.089.598-.082.599-.075.6-.068.601-.061.601-.054.602-.047.603-.04.603-.033.603-.026.604-.019.604-.012.604-.005.604.002.604.009.604.016.603.023.603.03.603.037.602.044.602.051.601.058.6.065.599.072.599.079.598.086.597.093.595.1.594.107.593.114.592.121.59.128.589.135.587.141.585.148.584.155.582.162.58.169.578.175.576.182.574.189.571.196.569.202.567.209.564.215.562.222.559.228.556.235.553.241.551.248.548.254.545.261.542.267.538.273.535.28.532.286.529.292.525.298.522.304.518.31.514.316.511.322.507.328.503.334.499.34.495.346.491.351.487.357.483.363.478.368.474.374.47.379.465.385.461.39.456.396.452.401.447.406.442.411.437.416.432.422.427.427.422.432.417.436.412.441.407.446.402.451.397.455.391.46.386.465.38.469.375.473.369.478.364.482.358.486.352.49.347.494.341.498.335.502.329.506.323.51.317.514.311.517.305.521.299.525.293.528.287.531.281.535.274.538.268.541.262.544.255.547.249.55.243.553.236.556.23.558.223.561.217.564.21.566.203.569.197.571.19.573.183.575.177.577.17.579.163.581.156.583.149.585.143.587.136.588.129.59.122.591.115.593.108.594.101.595.094.596.087.597.08.598.073.599.066.6.059.601.052.602.045.602.038.603.031.603.024.603.017.604.01.604.003.604-.004.604-.011.604-.018.604-.025.603-.032.603-.039.603-.046.602-.053.602-.06.601-.067.6-.074.599-.081.598-.088.597-.095.596-.102.595-.109.594-.116.593-.123.591-.129.59-.136.588-.143.587-.15.585-.157.583-.164.581-.17.579-.177.577-.184.575-.191.573-.197.571-.204.568-.21.566-.217.563-.224.561-.23.558-.237.556-.243.553-.249.55-.256.547-.262.544-.269.541-.275.538-.281.534-.287.531-.293.528-.3.524-.306.521-.312.517-.318.513-.324.51-.33.506-.336.502-.341.498-.347.494-.353.49-.359.486-.364.482-.37.477-.375.473-.381.469-.386.464-.392.46-.397.455-.402.45-.407.446-.413.441-.418.436-.423.431-.428.426-.433.421-.438.416-.442.411-.447.406-.452.401-.457.395-.461.39-.466.384-.47.379-.474.374-.479.368-.483.362-.487.357-.491.351-.495.345-.499.339-.503.334-.507.328-.511.322-.515.316-.518.31-.522.304-.525.298-.529.291-.532.285-.535.279-.539.273-.542.266-.545.26-.548.254-.551.247-.554.241-.556.234-.559.228-.562.221-.564.215-.567.208-.569.202-.571.195-.574.188-.576.182-.578.175-.58.168-.582.161-.584.155-.585.148-.587.141-.589.134-.59.127-.592.12-.593.113-.594.107-.596.1-.597.093-.598.086-.599.079-.6.072-.6.065-.601.058-.602.051-.602.044z"/><path fill="#892ca0" d="M165.53 113.999l-.561.384-.565.377-.569.37-.573.363-.577.356-.581.349-.585.341-.588.334-.592.327-.595.319-.599.312-.602.305-.606.297-.609.29-.612.282-.615.274-.618.267-.621.259-.624.252-.626.244-.629.236-.632.228-.634.22-.637.213-.639.205-.641.197-.643.189-.645.181-.647.173-.649.165-.651.157-.652.149-.654.141-.656.133-.657.125-.658.116-.659.108-.661.1-.662.092-.663.084-.664.076-.664.068-.665.059-.666.051-.666.042-.667.034-.667.026-.667.018-.667.01h-.667l-.667-.007-.667-.015-.667-.023-.667-.031-.666-.04-.666-.048-.665-.056-.665-.064-.664-.073-.663-.081-.662-.089-.661-.097-.66-.105-.659-.114-.657-.122-.656-.13-.655-.138-.653-.146-.651-.154-.65-.162-.648-.17-.646-.178-.644-.186-.642-.194-.64-.202-.637-.21-.635-.218-.633-.226-.63-.233-.627-.241-.625-.249-.622-.257-.619-.264-.616-.272-.613-.279-.61-.287-.607-.295-.604-.302-.6-.309-.597-.317-.593-.324-.59-.332-.586-.339-.582-.346-.578-.353-.574-.36-.57-.367-.566-.374-.562-.381-.558-.388-.554-.395-.549-.402-.545-.409-.54-.415-.536-.422-.531-.429-.526-.435-.521-.442-.516-.448-.512-.454-.506-.461-.501-.467-.496-.473-.491-.479-.486-.485-.48-.491-.475-.497-.469-.503-.464-.509-.458-.514-.453-.52-.447-.526-.441-.531-.435-.537-.429-.542-.423-.547-.417-.552-.411-.558-.405-.563-.399-.568-.392-.572-.386-.577-.38-.582-.373-.587-.367-.591-.36-.596-.354-.6-.347-.604-.34-.609-.334-.613-.327-.617-.32-.621-.313-.625-.306-.629-.299-.632-.293-.636-.286-.64-.278-.643-.271-.647-.264-.65-.257-.653-.25-.656-.243-.659-.235-.662-.228-.665-.221-.668-.213-.671-.206-.673-.199-.676-.191-.678-.184-.68-.176-.683-.169-.685-.161-.687-.154-.689-.146-.691-.138-.692-.131-.694-.123-.695-.116-.697-.108-.698-.1-.7-.092-.701-.085-.702-.077-.703-.069-.704-.062-.705-.054-.705-.046-.706-.038-.707-.031-.707-.023-.707-.015-.708-.007-.708.001-.708.008-.708.016-.707.024-.707.032-.707.039-.706.047-.706.055-.705.063-.705.07-.704.078-.703.086-.702.094-.701.101-.699.109-.698.117-.697.124-.695.132-.694.14-.692.147-.69.155-.688.162-.686.17-.684.177-.682.185-.68.192-.678.2-.675.207-.673.215-.67.222-.667.229-.665.236-.662.244-.659.251-.656.258-.653.265-.649.272-.646.28-.643.287-.639.294-.636.301-.632.307-.628.314-.624.321-.62.328-.616.335-.612.341-.608.348-.604.355-.599.361-.595.368-.591.374-.586.381-.581.387-.577.393-.572.4-.567.406-.562.412-.557.418-.552.424-.546.43-.541.436-.536.442-.53.448-.525.453-.519.459-.514.465-.508.47-.502.476-.496.481-.49.486-.484.492-.478.497-.472.502-.466.507-.46.512-.454.517-.447.522-.441.527-.434.532-.428.536-.421.541-.414.545-.408.55-.401.554-.394.559-.387.563-.38.567-.373.571-.366.575-.359.579-.352.583-.345.586-.338.59-.33.594-.323.597-.316.601-.308.604-.301.607-.293.61-.286.614-.278.617-.271.62-.263.622-.255.625-.248.628-.24.63-.232.633-.224.635-.217.638-.209.64-.201.642-.193.644-.185.646-.177.648-.169.65-.161.652-.153.653-.145.655-.137.656-.129.658-.12.659-.112.66-.104.661-.096.662-.088.663-.08.664-.071.665-.063.665-.055.666-.047.666-.039.667-.03.667-.022.667-.014.667-.005.667.003.667.011.667.019.667.027.666.036.666.044.666.052.665.06.664.069.663.077.662.085.662.093.66.101.659.109.658.118.657.126.655.134.654.142.652.15.65.158.649.166.647.174.645.182.643.19.641.198.638.206.636.214.634.222.631.229.629.237.626.245.623.253.621.26.618.268.615.276.612.283.608.291.605.298.602.306.598.313.595.321.591.328.588.335.584.342.58.35.576.357.572.364.568.371.564.378.56.385.556.392.551.399.547.405.543.412.538.419.533.425.529.432.524.438.519.445.514.451.509.458.504.464.499.47.494.476.488.482.483.488.478.494.472.5.467.506.461.512.455.517.45.523.444.528.438.534.432.539.426.545.42.55.414.555.408.56.402.565.396.57.389.575.383.58.377.584.37.589.364.593.357.598.35.602.344.607.337.611.33.615.324.619.317.623.31.627.303.631.296.634.289.638.282.641.275.645.268.648.261.651.253.655.246.658.239.661.232.664.224.666.217.669.21.672.202.674.195.677.187.679.18.681.172.684.165.686.157.688.15.69.142.691.135.693.127.695.119.696.112.698.104.699.096.7.089.701.081.702.073.703.065.704.058.705.05.706.042.706.034.707.027.707.019.707.011.708.003.708-.005.708-.012.708-.02.707-.028.707-.036.707-.043.706-.051.706-.059.705-.067.704-.074.703-.082.702-.09.701-.097.7-.105.699-.113.697-.12.696-.128.695-.136.693-.143.691-.151.689-.159.687-.166.685-.174.683-.181.681-.189.679-.196.676-.203.674-.211.671-.218.669-.226.666-.233.663-.24.66-.247.657-.255.654-.262.651-.269.648-.276.644-.283.641-.29.637-.297.634-.304.63-.311.626-.318.622-.325.618-.331.614-.338.61-.345.606-.351.602-.358.597-.365.593-.371.588-.377.584-.384.579-.39.574-.396.569-.403.564-.409.559-.415.554-.421.549-.427.544-.433.538-.439.533-.445.528-.451.522-.456.516-.462.511-.467.505-.473.499-.478.493-.484.487-.489.481-.494.475-.5.469-.505.463-.51.457-.515.45-.52.444-.525.438-.529.431-.534.424-.539.418-.543.411-.548.404-.552.398-.556.391z"/><path d="M85.58 83.19c7.302 15.522 15.338 18.674 25.536 18.804 10.198.129 22.444-8.883 26.066-15.504 4.563-8.341 2.57-7.806-3.451-5.296-14.945 6.23-33.636 13.152-46.267.866-6.375-6.2-2.85-.924-1.884 1.13z" fill="#dbe2e3"/><path d="M101.4 137.48c-.57 3.816-2.317 7.926-5.357 10.18-11.178 8.287-32.375-3.973-40.689 7.341-10.509 14.301-8.794-.09-5.127-9.803 5.697-15.087 23.756-24.51 39.307-26.785 3.049-.446 6.766.468 8.819 2.834 3.565 4.107 3.862 10.785 3.048 16.232z" fill="#f00"/><path d="M175.8 35.91c-1.402 2.164-3.967 3.838-6.526 4.153-8.69 1.07-20.403-.805-24.919-8.306-1.241-2.061.086-4.98 1.187-7.12 3.839-7.461 11.08-12.774 17.799-17.799 6.984-5.223 17.114-9.889 16.019 4.747-.611 8.172.895 17.447-3.56 24.326z" fill="#892ca0"/><path d="M95.807 51.307c0 5.626-2.086 10.188-4.66 10.188-2.574 0-4.66-4.561-4.66-10.188 0-5.626 2.086-10.188 4.66-10.188 1.562 0 3.02 1.711 3.883 4.556l-3.883 5.631zM126.982 53.767c0 6.711-3.036 12.152-6.78 12.152-3.745 0-6.78-5.441-6.78-12.152s3.036-12.152 6.78-12.152c2.273 0 4.394 2.041 5.65 5.435l-5.65 6.717z" color="#000"/><path d="M179.98 140.01c-4.192-.301-11.402 6.484-14.207 9.613-2.593 2.891-2.892 8.18-2.071 11.976 3.013 13.931 24.121 12.375 32.554 23.865 6.012 8.191 14.899 14.352 14.737-2.382-.14-14.424-13.308-25.954-22.934-36.697-2.289-2.554-4.656-6.129-8.078-6.375z" fill="#f00"/><path d="M43.19 261.66c2.097.287 4.61 1.816 6.324.575 4.142-2.999 7.929-17.222 5.75-21.848-.73-1.551-2.941-1.869-4.6-2.3-12.44-3.232-30.297-2.204-40.822 5.175-10.984 7.701-14.655 15.892-1.15 12.074 11.25-3.18 22.914 4.74 34.497 6.324zM104.29 270.2c-.394 1.086-.551 2.442 0 3.46 5.76 10.635 23.246 10.476 30.509 20.181 10.417 13.921 12.126-1.618 9.387-13.839-2.32-10.353-12.916-18.431-22.882-22.488-1.988-.809-4.51-.905-6.454 0-5.024 2.34-8.692 7.54-10.561 12.685z" fill="#d45500"/><path d="M59.34 388.76c1.886-.512 4.096.108 5.75 1.15 5.675 3.576 10.409 9.601 12.074 16.099.336 1.313.336 3.022-.575 4.025-8.751 9.634-27.918.904-37.947 9.199-6.994 5.785-12.82 6.289-10.924-2.3 3.043-13.785 17.999-24.473 31.623-28.173zM122.4 385.07c1.703-.273 3.467.824 4.812 1.904 10.319 8.29 17.824 20.424 22.223 32.908 5.769 16.367-6.34 7.176-15.481.058-8.652-6.738-24.599-4.88-29.416-14.731-.941-1.925.162-4.462 1.258-6.304 3.682-6.192 9.491-12.695 16.604-13.835z" fill="#008000"/><path d="M191.14 394.63c-.474 1.455-.963 3.242-.229 4.584 4.942 9.039 21.852 6.333 26.819 15.358 3.348 6.084 5.278-1.177 5.043-7.564-.406-11.016-8.525-23.693-19.025-27.048-1.312-.419-2.813.525-3.897 1.375-4.169 3.269-7.069 8.257-8.71 13.295z" fill="#008080"/></svg>