<svg xmlns="http://www.w3.org/2000/svg" height="171.088" viewBox="0 0 276.157 171.088" width="276.157" overflow="visible"><path d="M154.134 153.786c4.486.893 9.246.46 13.803.46-2.221-4.135-10.078-7.143-11.042-10.123-.646-1.994.809-6.995.92-9.201.199-3.945.514-7.619 1.381-11.503 3.752 2.25 7.881 4.257 12.227 4.925 2.863.44 9.938 1.067 12.158 2.896 3.018 2.486 3.069 8.4 4.773 12.235 1.572 3.539-.186 9.651 3.508 11.689-9.136 8.197 8.96 11.479 13.804 11.043 1.435-.129 8.881-.631 9.661-2.3.728-1.554-6.302-6.098-7.36-6.902-.588-.445-2.045-.563-2.761-.919-2.188-1.094.499-1.19 0-2.762-.383-1.205-.819-4.332-.921-5.521-.181-2.135 0-4.381 0-6.526 0-3.878-2.525-3.253.921-5.897 3.265-2.506 8.508-.482 12.164-.848 3.073-.308 3.776-1.614 6.103.712 1.9 1.899 3.228 4.542 4.721 6.782 1.072 1.609 2.404 3.276 3.017 5.112.673 2.02 3.902 3.164 3.902 4.602 0 5.938 2.088 6.297 7.565 5.384 3.212-.535 7.417.551 10.379-1.038 3.534-1.899 3.823-5.373-1.15-7.362-4.601-1.841-5.436-2.115-6.91-7.277-1.158-4.049-6.037-10.633-6.203-14.349-.122-2.728 4.571-10.442 7.361-11.042 2.082-.446 3.709 1.507 5.521 1.842 2.422.446 4.903-.19 7.361.459 2.552.674 13.985 9.978 13.344 3.682 6.91 5.665 2.426-5.992 1.107-8.299-3.824-6.69-7.012-11.955-12.313-17.611-1.517-1.617-5.23-1.976-5.588-3.767-.364-1.821-2.519-5.764-4.831-3.45-2.492 2.492-1.913 6.161-5.291 2.3-1.661-1.897-3.806-3.604-4.371 0-1.015-4.261-4.508-4.261-5.521 0-.646-2.037-1.894-3.275-3.681-2.761.221-1.504-.17-3.089 0-4.601-2.403.31-4.586 1.896-6.901 2.761.102-2.407.183-5.982-2.761-5.062.243-3.411 2.819-14.2.46-17.023-2.619-3.136-8.033 2.371-11.503 4.601-1.605-4.418-4.016-8.766-5.299-13.258-1.775-6.212-3.523-3.685-7.123-.085 0-1.862 1.336-10.589 0-11.962-2.22-2.28-6.912 1.645-8.742 2.761-2.396-6.505-3.919-16.574-8.052-22.085-4.324-5.764-11.124 8.201-13.113 11.043-.247-2.477.013-15.064-3.22-16.104-1.669-.536-11.503 6.31-11.503 7.291v36.363c-.001 30.231-.001 60.462-.001 90.695m0 0v-126.761c0-4.771-7.454-11.407-10.122-15.411-2.201-3.301-10.194-14.215-14.954-11.042-2.663 1.775-2.791 6.824-3.348 9.611-.689 3.447-2.858 6.942-4.244 10.173-2.971-4.065-6.294-7.844-9.681-11.568-4.671-5.139-7.685-7.19-10.319.713-1.653 4.957-3.98 10.083-4.457 15.327-.467 5.139-.71 4.245-5.748 3.858-2.65-.205-5.328.028-7.983-.048-6.401-.185-11.511-1.801-17.613-3.465-3.652-.996-11.833-5.216-11.833 1.829 0 4.804 3.717 9.954 6.944 13.182 4.101 4.101 7.63 9.632 10.539 14.68-3.068-.767-9.737-4.423-12.653-3.451-3.73 1.244.956 9.777 1.784 11.571 1.872 4.055 1.84 7.887 3.048 12.125 1.406 4.936 4.464 9.205 7.361 13.343-2.289.582-12.617 2.903-12.193 4.601.926 3.702 7.917 6.918 10.352 10.122-7.636-3.054-7.117.191-5.981 7.362-3.88-1.553-8.94-5.946-10.582-.46-.688 2.295 1.831 10.617 2.76 12.883-9.912-2.451-16.943-9.852-22.545-17.943.058 4.611 2.653 7.757 5.062 11.501-9.328-2.841-10.775-14.536-17.944-19.323-.048 6.344 6.958 15.261 10.583 20.244-9.805-5.883-16.661-14.9-22.085-24.846-2.083 7.011 9.415 20.323 13.803 25.307-3.792-3.793-8.496-7.683-11.473-12.15-3.239-4.861-6.483-12.013-10.612-15.918.638 9.439 5.738 17.252 11.502 24.384-2.292-.953-4.492-2.589-6.901-1.839 10.998 15.032 32.006 21.661 49.562 24.169 18.639 2.663 35.168-7.037 48.833-18.218 3.625-2.965 4.842-6.368 9.269-7.332 4.707-1.024 8.168-1.378 10.122 2.76 2.927 6.199.31 18.257-.46 25.307-.467 4.271-1.688 8.058-2.617 12.235-.506 2.275 3.367 5.299 2.378 8.265-2.254 6.761 11.094 14.23 13.121 9.407 2.372 1.408 9.699 4.599 6.901-1.382 2.827 1.837 5.426 2.019 5.061-1.38-.429-4.002-6.787-4.814-7.821-7.821-.849-2.468 1.624-6.089 1.309-8.929-.523-4.708-.653-8.445.071-13.156-.032 3.39 2.5 10.219 3.682 12.883 2.225 5.018 4.969 3.449 10.122 4.601" fill-rule="evenodd" clip-rule="evenodd"/><path d="M129.288 1.032c12.659 4.349 29.606 25.935 25.765 40.029 2.92-8.861-2.635-16.86-7.725-23.557-4.018-5.288-11.262-18.361-18.04-16.472" fill-rule="evenodd" clip-rule="evenodd" fill="#755959"/><path d="M128.368 1.952c-2.41 3.424-2.644 9.566-4.362 13.689-1.848 4.435-3.762 10.279-3.23 15.068.677 6.091 2.167 9.268 8.325 8.583 5.633-.626 10.717-.603 16.291.388 5.974 1.062 9.661 3.689 9.661-3.422 0-6.016-4.206-11.859-7.39-16.636-2.914-4.37-12.34-20.42-19.295-17.67" fill-rule="evenodd" clip-rule="evenodd" fill="#C2B2A1"/><path d="M103.522 6.093c-1.896 3.313-3.033 8.73-4.141 12.422-1.401 4.667-2.858 8.843.46 11.963 3.125 2.938 7.664 3.009 10.583 6.901 2.199 2.932 4.172 7.085 8.657 5.163 5.944-2.548 1.509-3.89.886-8.878-.488-3.907 1.709-9.425 1.04-12.389-.791-3.501-6.33-8.075-8.568-10.685-2.208-2.575-5.884-8.565-8.917-4.497" fill-rule="evenodd" clip-rule="evenodd" fill="#997883"/><path d="M136.65 9.314c4.121 6.475 7.533 13.044 8.742 20.704-.249-9.652-6.597-17.917-11.502-25.766-.018 1.57 1.557 3.344 2.76 5.062m-6.901 3.681c.499 2.825 1.542 5.472 2.3 8.281.208-3.646-1.953-6.203-2.3-9.662v1.381" fill-rule="evenodd" clip-rule="evenodd"/><path d="M161.495 22.197c-2.322 1.548-4.605 2.921-6.442 5.061 2.014 4.994-.12 18.751 9.203 18.864-1.002-5.611 4.586-8.832 3.562-14.979-.667-3.994-.358-15.308-6.323-8.946" fill-rule="evenodd" clip-rule="evenodd" fill="#997883"/><path d="M126.528 30.938c.323 2.062.917 4.33 2.3 5.521-2.498-3.805-2.03-9.371-2.3-13.343v7.822" fill-rule="evenodd" clip-rule="evenodd"/><path d="M177.139 24.957c-4.689 5.02-11.502 13.959-11.502 20.935 0 5.46 13.283 14.234 17.943 16.563 1.583.792 4.666-4.913 5.062-6.671.74-3.291-.321-8.833-1.381-11.962-1.296-3.827-5.76-23.738-10.122-18.865" fill-rule="evenodd" clip-rule="evenodd" fill="#C2B2A1"/><path d="M58.433 24.037c10.224 3.68 18.677 5.325 29.465 6.043 10.721.715 17.795 3.652 23.906 12.82-3.483-11.324-14.153-12.757-24.385-13.343-5.832-.334-11.394-.69-17.023-2.3-3.819-1.093-9.589-4.335-13.343-3.221l1.38.001" fill-rule="evenodd" clip-rule="evenodd" fill="#755959"/><path d="M54.752 24.957c-3.667 8.839 14.162 22.342 17.714 29.446 2.933 5.866 4.397 13.42 10.897 16.206 6.633 2.843 9.325-8.358 12.681-12.385 2.404-2.886 4.748-5.692 7.401-8.345 1.773-1.773 7.066-3.961 7.438-6.519.848-5.823-11.113-11.116-15.183-11.963-7.022-1.462-14.344-.65-21.463-1.745-6.036-.927-13.509-6.542-19.485-4.695" fill-rule="evenodd" clip-rule="evenodd" fill="#C2B2A1"/><path d="M187.721 44.741c3.009 7.014 1.027 12.239-2.301 17.944 11.527-5.294-.74-28.031-3.22-35.888 1.724 6.037 3.375 12.044 5.521 17.944" fill-rule="evenodd" clip-rule="evenodd" fill="#755959"/><path d="M138.95 32.779c.085 1.129.072 2.117.46 3.221.203-2.545-.018-6.139-1.38-7.822.405 1.512.506 3.104.92 4.601m-76.377-3.221c6.276 3.766 14.268 7.802 21.165 10.122-3.7-2.235-19.302-11.121-21.165-10.122m-3.68.921c2.457 2.304 5.364 3.886 8.281 5.521-2.746-1.998-6.009-5.351-9.202-6.441l.921.92m121.926 9.201c-.327 4.645.646 9.075 0 13.803.489-5.9 2.186-15.16-1.38-20.244.863 1.926 1.041 4.239 1.38 6.441m-7.821.461c.546-.328 2.227-3.582 1.38-5.521-.341 1.869-.8 3.71-1.38 5.521m-90.18-3.682c5.939 1.604 11.364 5.875 16.103 9.662-4.844-5.524-11.243-7.991-17.944-11.042l1.841 1.38" fill-rule="evenodd" clip-rule="evenodd"/><path d="M216.708 122.498c1.183-7.814-8.763-9.655-14.349-8.061-3.283.938-6.482 2.684-9.117 4.84-1.183.969-6.814 4.803-7.132 5.752-1.328 3.986.879 10.644 1.85 14.526.835 3.344 1.542 6.796 2.521 10.089 1.214 4.085.846 3.137 3.681 5.981-5.136.66-2.981 8.981-1.38 6.441.197.201 1.456 1.151 1.84 1.38-.163-1.378.362-1.305.461-1.84.253.986.484 1.39.919 2.301.312-.735.661-1.033.921-1.381.145 1.472.078.385.92 1.841-.518-1.181-.194-.831 0-1.841l.46 1.381.921-1.381c-.315 1.121-.074 1.137 0 2.301.881-.431 2.403-1.369 3.22-1.842-.536-.735-.55-.913-1.38-1.379 1.146.515 2.944 1.466 4.602.92-.391.607-.879 1.312-1.381 1.841l.921.46c.461-.723.725-.892 1.38-1.381-.762 1.302-.292.856-.46 1.84 1.313-1.805.913-1.378 2.76-2.301-2.033-1.106-3.4-2.401-5.06-4.14 1.629-.083 4.321 1.807 5.521 3.681l.46-.92c-.058.774.466.742 0 1.84.392-.145 2.452-1.175 2.761-1.38-1.701-3.982-7.704-3.761-9.202-6.441-.947-1.695 1.532-1.386 1.261-3.017-.452-2.715-.936-5.321-1.261-8.026-.389-3.223-.008-9.435-3.681-11.271-2.22-1.111-10.217-2.093-5.981-5.291-.627 2.722 2.52 3.354 5.062 3.68-.813-.685-1.796-1.894-2.301-2.301 1.131.529 1.566.55 2.761 1.381-.64-.77-1.071-1.563-1.84-2.3 3.049-.088 3.806 4.178 5.06 6.9.907-1.13 2.006-1.438 2.762-2.76 2.811 4.356 8.683-3.063 10.582-5.062-.152 2.022-1.184 3.786-2.761 5.062 4.148-.992 6.449-6.711 3.679-10.122m26.685-18.404c.445 7.149 2.493 12.291 9.893 13.112 5.462.607 10.282 4.712 15.413 4.832v.92h-.92c1.094.72 1.777.982 3.681.92-3.729-3.817-12.369-11.087-17.944-10.123 4.078-2.523 11.417 3.569 15.529 5.283.689.286 5.897 4.013 6.096 3.92 2.625-1.228-.576-5.823-1.279-7.09-6.467-11.637-11.155-21.896-25.866-21.896.641.744.6 1.168 1.38 1.839-2.577.868-6.461 1.335-8.742 1.381 1.476 2.059 1.775 4.591 2.759 6.902" fill-rule="evenodd" clip-rule="evenodd" fill="#C2B2A1"/><path d="M135.269 40.6c-1.383.138-2.756.364-4.141.46 5.515 0 10.722-.016 16.103 1.38-3.344-2.886-7.881-2.18-11.962-1.84m12.423 1.841c2.173 1.171 4.404 2.039 6.901 1.84l-3.221-.92c1.642.071 3.216-.244 4.602-.46-3.384.215-5.31-.164-8.282-.46m23.465 5.061v1.38c.3-1.895.699-3.753 1.38-5.521-.917.905-1.215 2.561-1.38 4.141" fill-rule="evenodd" clip-rule="evenodd"/><path d="M192.322 46.122c-4.305.805-1.069 8.377-2.301 11.963-1.323 3.853-6.451 6.747-.461 9.662 3.089-4.639 8.184-8.604 8.463-14.204.33-6.571 1.812-12.47-5.701-7.421" fill-rule="evenodd" clip-rule="evenodd" fill="#997883"/><path d="M113.645 45.202c-3.392.908-12.889 9.078-12.883 11.962 3.712-5.39 10.786-7.626 14.723-11.962-.611 0-1.229.022-1.84 0m42.79 1.38c3.89 2.879 8.86 5.039 12.883 8.282-2.505-3.584-9.297-8.423-13.343-9.662l.46 1.38m2.3-.92l2.76 1.84c-.601-1.24-1.653-1.233-2.76-1.84m3.22 1.84c5.563 3.378 15.688 18.551 22.085 17.944-3.593-2.946-18.311-18.876-22.085-17.944" fill-rule="evenodd" clip-rule="evenodd"/><path d="M57.973 53.483c-.338 4.523 3.168 7.957 4.601 11.963 1.508 4.215.809 8.726 2.991 12.653 1.742 3.135 2.839 7.337 5.981 9.432 2.396 1.597 7.556.161 10.813 2.301 2.395-2.697 5.192-8.867 5.521-12.423.594-6.412-4.24-3.779-8.052-7.592-3.551-3.55-4.394-10.044-8.051-13.113-2.263-1.897-12.412-6.433-13.804-3.221" fill-rule="evenodd" clip-rule="evenodd" fill="#997883"/><path d="M79.137 53.023c1.853.679 3.699 2.095 5.061 3.221-1.939-1.509-3.822-3.172-5.981-4.141l.92.92m-5.521-.46c4.929 2.436 8.791 6.161 13.343 8.742-.153-.46 0-.613.46-.46-4.191-2.284-9.904-8.263-13.803-8.282" fill-rule="evenodd" clip-rule="evenodd"/><path d="M198.303 57.624c-2.802 3.425-9.072 8.542-6.799 13.087 1.837 3.673 10.834 9.008 14.621 10.838.312-3.418 1.159-6.634.92-10.123.868 3 .791 7.407-.46 10.123.588.471 1.976 1.208 2.761 1.38 2.696-6.363.582-12.721-1.841-18.864-.596-1.512-2.606-8.785-3.68-9.662-2.45-1.997-3.251.666-5.522 3.221" fill-rule="evenodd" clip-rule="evenodd" fill="#C2B2A1"/><path d="M207.505 62.686c3.079 6.163 4.429 13.424 3.221 20.244 3.951-8.361-2.623-20.514-5.981-28.066.874 2.626 1.701 5.261 2.76 7.822" fill-rule="evenodd" clip-rule="evenodd" fill="#755959"/><path d="M172.537 58.544c1.49 1.159 3.008 2.445 4.602 3.221l-5.061-4.601c-.009.605.277.832.459 1.38m-39.108 1.381c5.467 7.324 4.629 15.358 7.362 23.465.416-9.054-.904-20.912-10.123-25.305.92.612 1.825 1.253 2.761 1.84m-39.108 2.761c-1.771 4.326-4.865 8.125-5.521 12.883 1.146-1.404 1.797-4.148 2.76-5.981.495.071 4.955-9.635 5.521-11.042l-2.76 4.14m107.663.46c.305 3.766-.124 8.367-2.301 11.502 3.459-4.739 1.602-10.499 3.221-15.643-.712 1.259-.668 2.634-.92 4.141" fill-rule="evenodd" clip-rule="evenodd"/><path d="M115.025 67.286c4.608-6.911 14.915-8.722 18.404.92-1.615-1.99-3.327-4.906-6.441-5.521 2.484 2.032 5.079 4.767 6.901 7.821-1.241-.996-2.421-1.314-3.681-1.84 6.936 6.234 7.768 13.652 9.304 22.357 1.328 7.526 4.06 15.851 2.845 23.545-1.276 8.083-1.199 16.581-3.169 24.459-.974 3.897.222 7.99.222 11.911 0 4.657-3.25 3.114-6.441 5.147 2.468 1.159 15.607 7.187 10.123 10.582-.08-.591.127-1.26 0-1.841-.104.222-.719 1.123-.921 1.841v-2.301c-.255.502-.609 1.353-.92 1.84-.052-.766-.216-1.215 0-2.3-.254 0-1.193.772-.921.92-.205-.357-.252-1.628-.459-1.842-.908.214-.555.434-1.841.461.713.834 1.352 2.305 2.3 3.222-.964.021-1.928.432-2.76.459-.108-.415.045-.722.46-.92-.606.257-.841.37-1.38.92-.01-.574-.058-1.427 0-2.3-.426.629-.998 1.154-1.381 1.841-.014-.593.094-1.257 0-1.841-.599-.071-1.114.911-.92.92-.308-.359-.357-1.237-.92-1.38l-.92.46c.527.669.67 1.57.92 2.3-.685.528-2.399 1.765-3.221 2.301-1.286-1.32-1.575-2.894-.92-4.601-.379.936-.655 1.286-.92 2.76-.126-1.075-.502-2.32-.46-3.68-.214.952-.592 1.555-.46 3.22-.477-.858-1.025-1.742-1.38-3.22-.007.345-.208 1.654 0 2.761-.491-.772-1.541-1.82-1.84-2.301l.46 1.38-.92-.92-.46.92c-2.621-2.455-1.32-5.221-.46-8.282 2.018.445 4.234.669 5.981-.46-1.841-1.74-5.625-4.482-8.051-5.291-.995-.33 1.327-9.614 1.449-11.306.423-5.93-.173-20.291 3.382-23.893-2.996-3.406-3.308-6.327-4.371-10.582-1.195-4.78-4.616-9.354-6.672-13.802-4.723-10.213-1.67-14.613.459-24.844" fill-rule="evenodd" clip-rule="evenodd" fill="#C2B2A1"/><path d="M65.794 121.578c-2.905 1.665-6.173 2.663-9.202 2.76 2.932 1.031 7.103-.488 9.202-2.76m57.513-79.597c.661.639 3.723.357 5.981-.46-1.837-.747-3.889-.034-5.981.46m64.414 26.226c-3.894.524 5.309 8.139 7.362 9.202-2.82-2.862-6.324-5.157-8.282-8.742.934.679 1.74 1.098 2.76 2.301.158-1.154-.82-1.635-1.84-2.761" fill-rule="evenodd" clip-rule="evenodd"/><path d="M224.989 130.32c3.552-1.922 7.62-1.868 11.043-3.682-.871.021-2.44-.191-3.682 0 1.765-.068 3.682-.778 4.601-1.84-2.43 1.027-4.894-.158-6.901.461-2.89.89-6.359 4.1-9.201 5.521h1.38c-1.149.582-1.472 1.02-2.301 1.841 1.919-.274 3.616-1.042 5.061-2.301m-114.565-39.109c1.052-3.004-.278-5.896-1.142-8.486-1.331-3.994-.204-7.247-.699-10.838-2.375 6.551-1.058 13.237 1.841 19.324m30.827 3.681c-2.957-8.557-8.044-48.548-25.51-31.082-4.95 4.949-5.398 15.377-4.857 21.881.46 5.525.565 5.897-2.511 11.365-2.124 3.774-5.271 6.592-8.148 9.828-6.304 7.091-9.782 13.385-18.592 18.127-8.064 4.344-16.756 4.343-25.702 5.236-7.643.765-17.44-1.143-24.627-3.644-7.182-2.498-20.654-5.694-23.942-13.308 8.145 2.962 15.548 9.06 24.846 8.742-3.19-1.103-6.077-2.955-8.282-5.522 3.485-1.958 9.932 4.581 13.343 6.442.494-3.218-4.08-3.728-4.141-6.902 3.772.64 3.917 3.871 6.578 5.999 2.951 2.361 7.587 3.061 11.365 2.743-3.464-1.562-6.512-3.882-9.662-5.981 4.02-2.202 9.063 3.763 13.343 4.602 5.355 1.051 11.427-2.545 15.388-5.846 4.035-3.361 7.616-6.842 9.918-11.639 2.515-5.242 1.818-10.677 3.221-15.644 1.172-4.153 4.361-8.003 5.291-12.652.332-1.659-.965-3.085-.46-4.601.763-2.289 2.254-4.741 3.348-6.927 4.374-8.747 12.022-16.046 19.771-21.858 3.307-2.479 7.449.047 10.928-2.271 4.307-2.871 10.708-2.301 15.711-2.301 4.839 0 8.947.346 13.634 1.625 1.059.289 5.166.224 5.162.215 1.161 2.321 3.267 3.586 5.291 5.062 4.895 3.565 15.577 16.563 21.625 16.563 3.09 0 5.703 6.089 7.821 8.281 4.041 4.183 9.08 7.341 13.785 10.702 1.742 1.245 4.317 1.073 5.999 2.181 1.886 1.243 3.153 3.613 4.737 5.198 3.735 3.735 6.426 3.385 10.677 4.234 4.098.82 5.516 4.72 10.352 2.301 5.319-2.659 1.942-.308 3.681 2.3 2.342 3.513 3.543 10.12 4.372 14.264.77 3.848-4.067 8.362-6.16 12.55-2.596 5.192-8.163 1.313-11.691 4.84-3.874 3.876-9.888 4.014-15.046 3.545 10.025-1.734 6.715-17.734-1.296-20.022-10.537-3.011-16.476 5.727-24.555 10.344-5.664 3.235-22.187-2.178-27.494-5.299-4.491-2.642-8.418-5.35-12.564-8.459-4.746-3.558-3.914-9.527-4.947-15.212" fill-rule="evenodd" clip-rule="evenodd" fill="#C2B2A1"/><path d="M142.631 97.193c4.814-.25.856-12.824.461-16.104-.387 5.168 1.852 9.557 0 14.723 0-3.224.328-6.762-.921-9.662 1.038 3.384.46 7.524.46 11.043m9.662-35.428c.404 2.578 2.482 3.911 4.602 2.761-1.171-1.65-2.84-3.145-4.602-2.761" fill-rule="evenodd" clip-rule="evenodd"/><path d="M152.754 61.765c.317 1.923 1.666 2.927 3.681 2.761-.813-1.402-2.971-2.749-3.681-2.761" fill-rule="evenodd" clip-rule="evenodd" fill="#C2B2A1"/><path d="M142.171 64.065c1.483 5.691 1.351 9.429.46 15.184 1.649-5.386 3.175-12.748-1.38-17.024l.92 1.84" fill-rule="evenodd" clip-rule="evenodd"/><path d="M219.008 64.986c-1.553.952-5.418 2.588-6.441 4.141-1.727 2.616-.443 5.217-.072 8.555.616 5.542-1.512 7.369 4.214 10.769 1.173-3.539 4.143-5.395 5.061-9.202 1.229-5.095.328-10.963 0-16.104-.957.468-2.033 1.063-2.762 1.841" fill-rule="evenodd" clip-rule="evenodd" fill="#997883"/><path d="M194.622 68.207c.648-1.076 1.376-1.483 1.38-2.761-.459.919-.899 1.851-1.38 2.761m-34.047-1.381c-1.811 8.428 10.827-.795 0 0" fill-rule="evenodd" clip-rule="evenodd"/><path d="M161.036 68.667c2.971 3.272 5.315-1.136 0-1.84v1.84" fill-rule="evenodd" clip-rule="evenodd" fill="#C2B2A1"/><path d="M145.392 71.887c.085 1.64.725 4.349.461 6.441.903-2.251.451-5.789-.461-6.441m-74.077 3.221c.656 1.129 1.54 2.157 2.301 3.221-.109-.632.045-.632.46 0l-.46-.92.92.459c-1.99-1.375-3.234-3.252-4.141-5.521-.021 1.118.497 1.739.92 2.761m98.002.46c-.06 1.771 4.113 8.36 5.98 5.521 1.522-2.312-4.679-6.138-5.98-5.521" fill-rule="evenodd" clip-rule="evenodd"/><path d="M169.777 76.488c.954 2.21 2.607 4.362 5.061 4.601-.578-1.903-4.227-6.678-5.061-4.601" fill-rule="evenodd" clip-rule="evenodd" fill="#C2B2A1"/><path d="M194.622 77.868c3.754 2.814 7.24 6.308 11.963 7.362-3.978-1.694-8.571-6.809-11.963-7.362" fill-rule="evenodd" clip-rule="evenodd"/><path d="M223.608 82.47c.549 2.572 1.654 5.958.921 8.281.866-2.734-.742-6.274-.921-9.201-.943-.025-.113.389 0 .92" fill-rule="evenodd" clip-rule="evenodd" fill="#755959"/><path d="M220.388 84.77c-5.326 3.466-2.154 7.331 2.762 8.742 1.273-3.021.473-16.223-2.762-8.742" fill-rule="evenodd" clip-rule="evenodd" fill="#997883"/><path d="M201.984 82.01c2.418 1.911 5.666 3.571 8.741 3.681-2.893-1.241-5.844-2.62-8.741-3.681" fill-rule="evenodd" clip-rule="evenodd"/><path d="M225.449 87.071c-.112 10.798 7.813 4.746 5.521-2.761-1.756 1.086-3.573 2.091-5.521 2.761" fill-rule="evenodd" clip-rule="evenodd" fill="#997883"/><path d="M147.231 92.132c.07 1.671.121 3.229.921 4.141-1.061-3.627.316-8.605-1.381-11.503.424 2.42.581 4.908.46 7.362m31.289-5.982c2.745 4.843 3.203-1.165 0 0" fill-rule="evenodd" clip-rule="evenodd"/><path d="M178.979 87.071c.844.388.734 1.083 1.841.919-.792-2.384-1.396-.956-1.841-.919" fill-rule="evenodd" clip-rule="evenodd" fill="#C2B2A1"/><path d="M236.491 90.291c-1.139 3.418 1.461 4.48 4.602 3.683-.897-2.677-2.217-9.139-4.602-3.683" fill-rule="evenodd" clip-rule="evenodd" fill="#997883"/><path d="M145.853 92.591c.206.416.309.927.46 1.382.574-1.925.415-4.062 0-5.983-.413 1.541-.489 3.018-.46 4.601" fill-rule="evenodd" clip-rule="evenodd"/><path d="M69.936 89.832c5.08-1.109 9.332.385 13.343 2.301-2.203-4.749-9.153-4.535-13.343-2.301" fill-rule="evenodd" clip-rule="evenodd" fill="#755959"/><path d="M250.295 90.291c-.481.776-.63 1.89-.921 2.761h5.521c-.322-2.84-2.539-5.629-4.6-2.761m-18.864.92c-.419 1.334-.617 2.775-.921 4.141.926-1.006 1.656-3.221 2.761-4.141-1.05 1.216-1.918 3.695-2.3 4.601 2.195 1.006 3.775.953 3.681-1.38.331.725.567.918.46 1.841l1.84-.461c-.878-2.553-2.185-5.025-4.141-6.9l-1.38 2.299" fill-rule="evenodd" clip-rule="evenodd" fill="#997883"/><path d="M86.039 90.75c-.3-.563-1.233-1.434-1.38-1.839-.015 5.431-1.713 10.805-2.761 16.104 1.809-3.295 5.475-12.837 4.142-16.104l-.001 1.839" fill-rule="evenodd" clip-rule="evenodd"/><path d="M242.013 90.291c-.253 3.128-.509 8.116 4.141 5.982-1.22-1.483-2.051-2.879-2.761-4.601 1.217.953 2.229 2.651 3.222 4.14l.92-.46c-.865-2.105-3.668-7.03-5.522-5.061" fill-rule="evenodd" clip-rule="evenodd" fill="#997883"/><path d="M184.501 90.75c1.297 1.087 2.437 1.899 4.141 1.841-.82-1.816-2.395-3.196-4.141-1.841" fill-rule="evenodd" clip-rule="evenodd"/><path d="M63.494 91.672c-1.501-.06-3.094.358-4.601.46 2.49 3.318 6.421 5.961 9.525 9.065 3.219 3.218 8.15 11.598 11.068 4.013 1.617-4.204 6.129-11.272.384-13.826-5.737-2.549-10.313-.988-16.376.288m121.926-.922c.809.607 1.792 1.381 2.301 1.841.142-1.828-1.363-1.761-2.301-1.841" fill-rule="evenodd" clip-rule="evenodd" fill="#C2B2A1"/><path d="M113.185 92.591c-.08.805 1.037.631 0 1.382l-1.84-1.841c-1.622 7.474-8.763 10.844-11.962 17.023 6.821-5.458 9.645-8.742 18.404-8.742l-5.061-10.123c-.162.973.201 1.457.459 2.301" fill-rule="evenodd" clip-rule="evenodd" fill="#997883"/><path d="M216.708 91.672c.592.5 1.151.994 1.84 1.379-.796-.438-2.003-.93-2.761-1.379 1.338 2.429 5.48 2.394 7.362 3.68-1.662-1.163-4.352-2.655-6.441-3.68" fill-rule="evenodd" clip-rule="evenodd"/><path d="M3.681 101.333c2.593 4.968 9.968 17.505 16.103 15.644-7.361-7.771-13.907-15.733-18.864-25.305.533 3.408 1.586 6.432 2.761 9.661" fill-rule="evenodd" clip-rule="evenodd" fill="#997883"/><path d="M223.608 93.512c.403-.546 1.12-.652.921-1.84-.117.783-.486 1.252-.921 1.84" fill-rule="evenodd" clip-rule="evenodd" fill="#755959"/><path d="M233.271 93.051c-.293.755-.863 1.336-.92 2.301.448-.699 2.673-3.766.92-2.301m-167.937-.46c2.752.2 5.186 1.307 7.822 1.841-2.403-1.017-5.239-1.767-7.822-1.841m127.908 1.382c.208 2.042 4.37 6.9 6.441 4.14 1.665-2.219-5.455-4.295-6.441-4.14m50.612.919c.244.545-.466.992.46.92-.289-.682-1.32-2.836-.46-.92" fill-rule="evenodd" clip-rule="evenodd"/><path d="M13.803 105.474c2.454 3.19 4.876 6.284 7.583 9.262 3.558 3.912 2.827.034.24-2.82-5.183-5.718-9.362-11.309-13.343-17.942 1.904 3.808 3.83 7.589 5.52 11.5" fill-rule="evenodd" clip-rule="evenodd" fill="#997883"/><path d="M194.162 95.812c.128.194 5.144 4.051 5.521 1.841.175-1.028-5.012-3.028-5.981-3.68l.46 1.839" fill-rule="evenodd" clip-rule="evenodd" fill="#C2B2A1"/><path d="M249.374 95.812c.454.385.616.781.46 1.381 1.673-1.767.144-1.002-.46-1.381m-173.918 0c1.465 1.425 3.362 2.401 5.062 3.221-1.25-.636-7.058-3.655-5.062-3.221m-11.042 0c4.503 3.002 8.939 6.057 13.343 9.203-3.43-3.65-8.53-7.887-13.343-9.203m56.592 4.142c1.984 5.456 2.45 12.585 7.821 15.644-1.199-5.748-6.685-12.407-7.821-19.324-.604 1.295-.226 2.246 0 3.68m123.307-2.301c-.512.345-.998-.547-.921.46 1.555.565 3.101.633 4.142 0-.474.02-1.503-.038-2.301 0 .943-.405 1.827-.952 2.761-1.38-1.269.187-2.467.53-3.681.92m-15.183-.92c1.653 2.414 5.544 1.69 8.282 1.38-2.623-.894-5.518.188-8.282-1.38m-80.058 2.3c2.361 3.782 4.973 10.172 8.742 12.423-.952-1.271-1.569-2.868-2.301-4.141 1.786 1.852 2.602 4.271 4.601 5.981-.702-1.028-1.278-2.21-1.84-3.221 1.091 1.896 2.489 3.628 4.141 5.062.153-.452-.339-.96-.46-1.382.737.595 1.59.982 2.301 1.382l-1.381-1.382c4.696 3.348 10.352 3.866 15.645 5.982-5.333-2.229-10.573-3.849-15.508-6.932-5.666-3.54-9.199-9.159-13.94-13.772" fill-rule="evenodd" clip-rule="evenodd"/><path d="M22.084 102.254c3.265 4.407 5.783 9.355 9.203 13.802-.842-1.916-2.633-3.783-3.681-5.521 2.14 1.688 3.036 5.666 5.981 5.062-5.189-4.708-9.025-10.778-12.883-16.564.597 1.044.897 2.144 1.38 3.221" fill-rule="evenodd" clip-rule="evenodd" fill="#997883"/><path d="M111.804 101.333c-8.793.78-14.501 12.994-20.646 18.021-7.551 6.178-15.59 10.009-25.433 10.624-19.395 1.212-35.561-1.893-52.843-10.702 15.778 12.571 37.675 18.617 57.513 15.184 9.858-1.706 18.372-5.296 26-11.835 3.784-3.244 7.18-9.115 11.268-11.63 2.413-1.484 4.573-.454 5.521-1.84.617.533 1.01.636 1.84.92l-.92-1.841c.282.381 1.367 1.222 1.84 1.841-.493-1.051-.348-1.653-.46-2.301l1.38 1.84c-.291-.943-.413-1.507-.92-2.3.465.602 1.323 1.364 1.84 2.3-.424-1.156-.585-2.52-.92-3.681.634 1.089 1.336 2.168 1.84 3.222-.225-.577-.724-2.496-1.38-3.682.507.666 1.633 1.787 2.3 2.761-.394-1.252-.388-4.312-.46-3.22.245-5.654-3.386-3.634-7.36-3.681" fill-rule="evenodd" clip-rule="evenodd" fill="#755959"/><path d="M252.595 101.333c4.646 2.472 6.883 6.498 11.502 9.662-4.443-3.963-4.495-8.561-11.502-9.662m5.981.921c2.383 1.454 3.745 4.327 5.981 6.44-.943-1.339-5.795-9.38-5.981-6.44" fill-rule="evenodd" clip-rule="evenodd"/><path d="M63.494 103.634c-.279 1.826-1.177 6.313.719 7.26 2.7 1.352 5.57 2.355 6.183 5.622 2.88-1.067 5.036-4.73 5.981-6.901-4.546-2.607-7.71-5.927-12.883-7.36v1.379" fill-rule="evenodd" clip-rule="evenodd" fill="#997883"/><path d="M253.515 103.173c2.352.381 4.115 1.831 5.982 3.221-1.711-1.769-4.425-3.585-5.982-3.221m-9.202.461c0 2.063-.128 4.186.46 5.98.183-1.239.301-7.425-.46-5.98m10.123 2.76c1.245 1.865 3.002 3.221 4.141 3.221-1.831 0-3.105-.938-3.681-2.3.766 3.473 4.417 2.92 6.441 2.761-2.437-1.79-3.421-4.523-6.901-3.682m-174.838 2.762c-.594.715-1.182.96-1.38 1.84 2.512-.002 3.4-2.587 2.76-4.602-.693.84-.958 1.744-1.38 2.762m161.034 1.84c.753 1.508 1.077 2.585 2.761 2.76-1.872-1.825-2.525-4.299-2.3-6.9-.527.798-.567 2.623-.461 4.14" fill-rule="evenodd" clip-rule="evenodd"/><path d="M125.607 111.916c.567.798 1.229 1.536 1.84 2.3-1.098-2.441-2.179-4.894-3.221-7.36-.099 1.842.36 3.586 1.381 5.06" fill-rule="evenodd" clip-rule="evenodd" fill="#997883"/><path d="M253.976 108.695c1.072 1.841 2.892 2.409 5.061 1.841-2.694.07-4.741-1.719-5.061-3.681v1.84" fill-rule="evenodd" clip-rule="evenodd"/><path d="M256.275 107.775c.95.494 1.026 1.184 2.301.92-.454-2.487-.985-1.167-2.301-.92" fill-rule="evenodd" clip-rule="evenodd" fill="#fff"/><path d="M224.529 107.775c2.126 4.948 2.447 8.339 2.3 13.803 1.058-2.064 1.053-6.104.58-8.946-.35-2.099-4.09-5.693-2.88-4.857m32.667.46c.083.017.156.685.92.46-.512-1.338-.797-.436-.92-.46" fill-rule="evenodd" clip-rule="evenodd"/><path d="M57.512 109.615c4.142 2.608 9.395 3.307 11.502 8.283 1.208-5.423-10.675-9.04-14.723-10.123 1.068.609 2.113 1.31 3.221 1.84" fill-rule="evenodd" clip-rule="evenodd" fill="#755959"/><path d="M205.205 108.235c.927.256 1.918.441 2.761.921-1.747-.646-3.54-.508-4.602.459 9.011-2.942 12.874 7.736 16.563 11.963-1.881-5.417-8.057-14.339-14.722-13.343" fill-rule="evenodd" clip-rule="evenodd"/><path d="M37.268 115.137c1.061 2.438 3.172 4.094 5.521 2.3-3.648-1.194-5.998-6.049-8.742-8.742l3.221 6.442m16.104-5.522c.487 2.925.401 8.164 1.611 10.583 2.517 5.035 5.696 1.459 9.892.46-1.548-2.004-3.9-4.49-5.521-5.521 2.283.665 3.768 3.64 5.982 4.14 3.813.862 2.3-.857 2.3-2.3-.001-3.274-13.685-8.564-14.264-7.362" fill-rule="evenodd" clip-rule="evenodd" fill="#997883"/><path d="M12.883 112.376c.892 1.305 1.889 2.44 3.221 3.221-1.493-2.6-3.945-4.696-5.981-6.902.919 1.226 1.821 2.469 2.76 3.681m205.665-3.22c3.645 3.721 3.481 8.496 5.521 11.962-.579-4.356-1.095-9.901-5.521-11.962" fill-rule="evenodd" clip-rule="evenodd"/><path d="M143.092 112.836c6.889 2.366 13.087 7.033 19.154 10.959 5.953 3.853 14.521 4.738 21.334 6.524-.325.21.568-1.675.46-1.381.362.944 1.083 1.795 1.38 2.761.471-4.78.223-6.901-4.396-6.901-4.248 0-8.632-.896-12.711-2.062-8.946-2.557-14.729-7.487-22.46-12.201.695 1.015 1.145 2.22 1.84 3.22-1.533-1.379-3.068-2.76-4.601-4.141 0 1.041-.186 2.204 0 3.222" fill-rule="evenodd" clip-rule="evenodd" fill="#755959"/><path d="M194.622 113.296c-1.127 1.574-2.146 3.232-2.761 5.061 1.862-2.439 4.193-5.016 6.441-6.901-1.583.228-2.51.975-3.68 1.84m-137.569.919c-.315-.694.016-1.25-.921-1.379l.921 1.379m166.096-.919c2.997 4.122.543 9.638 0 13.802 2.528-2.5 3.414-11.468 0-13.802m-92.481 3.681c.549 1.651 1.37 2.063.92 3.681.742-.415 2.098-1.358 2.76-1.841-1.787-.919-2.972-2.605-3.221-4.602-.15.911-.403 1.841-.459 2.762m89.26-1.38c2.877 4.066 2.761 9.319.921 13.802 1.81-1.763 2.416-5.283 1.959-8.025-.295-1.771-1.511-8.12-2.88-5.777" fill-rule="evenodd" clip-rule="evenodd"/><path d="M132.048 118.357c.127.407-.621-2.208-.92-2.76.151.964.535 1.842.92 2.76" fill-rule="evenodd" clip-rule="evenodd" fill="#997883"/><path d="M58.433 117.437c.442 1.681 1.024 3.141 1.841 4.602-.56-1.845-1.156-3.805-1.841-5.522-1.016-.027-.019.378 0 .92" fill-rule="evenodd" clip-rule="evenodd"/><path d="M32.207 116.977c-2.808 2.275 2.798 4.612 5.061 5.062-1.616-1.135-4.708-4.699-5.061-5.062" fill-rule="evenodd" clip-rule="evenodd" fill="#C2B2A1"/><path d="M270.538 116.977c.687 1.094 1.19 1.972 2.762 2.761-.361-1.873-1.458-2.105-2.762-2.761" fill-rule="evenodd" clip-rule="evenodd"/><path d="M23.005 118.357c1.25 1.419 3.168 2.097 5.062 2.301-1.739-1.159-3.612-1.903-4.601-3.681-.67.486-.384.7-.461 1.38" fill-rule="evenodd" clip-rule="evenodd" fill="#C2B2A1"/><path d="M143.092 117.898c-1.637 5.591-1.796 10.886-1.841 16.563 4.14-4.656 10.639-8.271 15.644-2.761.851-5.956 2.375-9.406-3.682-12.423-2.586-1.286-7.878-3.453-10.121-1.379" fill-rule="evenodd" clip-rule="evenodd" fill="#755959"/><path d="M266.397 119.277c1.788 1.301 3.619 2.783 5.521 3.682-1.362-3.153-4.644-4.697-7.822-5.521.903.51 1.495 1.248 2.301 1.839" fill-rule="evenodd" clip-rule="evenodd" fill="#fff"/><path d="M22.545 119.738c-.096-.987-2.493-2.178-4.601-1.84 1.534.612 3.067 1.226 4.601 1.84m17.484 0c-1.458 3.688 6.432 3.931 9.202 4.6-2.339-1.49-7.275-6.107-9.202-4.6" fill-rule="evenodd" clip-rule="evenodd" fill="#997883"/><path d="M128.828 124.337v16.565c.347-.68.768-2.359.921-3.683-1.596-1.961.421-12.536-.921-16.103 0 1.074.026 2.15 0 3.221" fill-rule="evenodd" clip-rule="evenodd"/><path d="M231.891 128.939c-2.9-.375-6.374 1.542-6.901 4.602-.596 3.454 3.015 5.048 4.141 8.281.801-11.046 7.609-4.684 13.803-2.76-.185-1.935-1.031-4.985-2.199-7.088-3.11-5.596-3.305-2.24-8.844-3.035" fill-rule="evenodd" clip-rule="evenodd" fill="#755959"/><path d="M126.067 129.399c-1.355 5.126-2.33 11.987-2.76 17.484.46.153.613 0 .46-.46l.46.92.46-.92c.255 1.253.158.333.92 1.84.478-1.148.753-2.465.92-3.681.222.47-1.936-2.917-1.38-2.301-.105-4.249.702-10.214 1.84-14.262-.83.125-.585.64-.92 1.38" fill-rule="evenodd" clip-rule="evenodd"/><path d="M145.853 130.32c-6.541 6.54-2.964 8.272-.922 15.644.897 3.232-.722 4.537 2.301 5.981 1.732.826 7.329.282 8.743-.46-.478.718-.178.783-.922 1.38 4.067-.4 12.989 2.582 7.362-3.681-1.568-1.746-5.144-1.482-6.44-2.761-1.351-1.331.327-2.46-.922-4.142 1.94-1.353 3.153-7.264 1.842-9.661-2.564-4.685-7.234-1.994-11.042-2.3" fill-rule="evenodd" clip-rule="evenodd" fill="#755959"/><path d="M191.861 133.081c1.973.38 4.576.884 5.981.92-1.828-1.101-4.676-1.221-5.981-.92m2.301 4.139c.402 3.009 2.229 5.46 3.222 8.283.204-1.823.103-8.204-1.841-6.441-.089-1.19-.639-2.342-.46-3.682-.303.607-.673 1.213-.921 1.84" fill-rule="evenodd" clip-rule="evenodd"/><path d="M232.351 135.841c-4.11 4.009-.46 6.848-.46 11.042 0 4.46 7.353 2.044 9.662.921-.645.472-2.098 1.922-2.761 2.299 1.379-.763 2.673-.88 4.141-1.379-1.238 1.613-3.676 3.236-5.981 3.68-2.38-2.822-1.586 2.889-.46 3.451 2.633 1.316 4.564 1.106 7.362.231-.461.153-.614 0-.461-.461 3.481-.716 5.285-.946 8.742-2.301-.693-1.762-2.606-2.687-3.681-4.141 2.681.583 4.26 4.53 6.441 3.22-2.461-3.603-7.891-2.377-9.202-5.98-.458.434-.979.894-1.38 1.381.516-5.942-3.743-14.13-11.962-11.963" fill-rule="evenodd" clip-rule="evenodd" fill="#755959"/><path d="M145.853 143.663c-.504-.025-.814-1.168-.922 0 2.101 2.535 6.953.556 9.203-.92-2.779.463-5.455 1.039-8.281.92m55.671 3.68c-1.158 2.478-3.661 4.575-6.441 4.602 9.648 2.188 5.675-1.363 7.36-8.282-.699 1.115-.696 2.315-.919 3.68m-51.532-1.38c-1.021.382-1.934.697-2.761 1.38 2.6.17 4.971-1.816 6.442-2.761-1.249.406-2.461.889-3.681 1.381m-23.925 1.841c.256.767-.098 1.053.92 1.38.153-1.061.332-2.22.46-3.221-.46.153-.614 0-.46-.46-.66.735-.595 1.382-.92 2.301m108.123-.921c1.275.337 2.433.803 3.682-.92-1.143.716-2.341.549-3.682.92m-83.737.46c.34 1.059 1.691.751 3.221-.46-1.063.226-2.168.27-3.221.46" fill-rule="evenodd" clip-rule="evenodd"/><path d="M197.384 151.945c3.424.826 5.645.379 4.601-3.682-1.297 1.486-2.887 2.711-4.601 3.682m38.648-1.381c.782.495 1.635-.607 1.38.921 1.195-.396 2.13-.73 2.761-1.382-1.896.436-3.549.338-5.521 0l1.38.461" fill-rule="evenodd" clip-rule="evenodd" fill="#997883"/><path d="M165.637 153.325c-.65-.377.412.569 1.84.461-.584-.741-1.245-1.341-2.301-1.841l.461 1.38" fill-rule="evenodd" clip-rule="evenodd" fill="#fff"/><path d="M121.006 153.786c.844 2.992 3.398 4.384 5.981 2.76-2.022-1.287-4.587-3.921-5.981-2.76" fill-rule="evenodd" clip-rule="evenodd" fill="#997883"/><path d="M253.976 154.246c.284-.065 1.149.354 1.84 0-1.22-1.594-1.134-.163-1.84 0m-3.681 0c.918 2.82 5.211-.539 0 0" fill-rule="evenodd" clip-rule="evenodd" fill="#fff"/><path d="M198.764 154.246c-1.249.51-3.322 1.574-4.142 1.841 2.749-.347 5.511-.564 8.282-.461l.46-1.38c-1.178-.195-3.099-.235-4.6 0" fill-rule="evenodd" clip-rule="evenodd"/><path d="M133.889 156.086c1.163.729 2.727 1.28 4.141 1.839.216-.549.489-2.175.46-2.761-1.523 0-3.241.227-4.601.922" fill-rule="evenodd" clip-rule="evenodd" fill="#997883"/><path d="M210.726 163.447c.042 1.046 2.022 1.402 4.142.461-1.239-1.659-2.716-1.888-4.142-.461m-3.681.921c.676.694.697 1.526 2.761.919-.446-2.547-1.202-1.486-2.761-.919m-6.901 0c.885.479 2.329.705 3.682 0-1.227-.673-2.22-.287-3.682 0m-56.132 2.759c.569.397 1.114 1.085 2.301.92-.24-.854-.835-1.64-1.382-2.3l-.919 1.38m-6.902.92c.892 1.657 2.583 2.595 4.601 2.761-.072-2.805-2.109-3.976-4.601-2.761m-5.521.461c.653 1.129 3.253 2.442 2.3-.921-.792.216-1.587.511-2.3.921" fill-rule="evenodd" clip-rule="evenodd" fill="#fff"/></svg>