<svg xmlns="http://www.w3.org/2000/svg" height="169.906" viewBox="0 0 276.622 169.906" width="276.622" overflow="visible"><path d="M40.45 161.101v-22.974c11.857 9.202 24.264 12.039 38.596 15.622 10.072 2.518 32.033 8.659 38.136 16.081-12.938.655-26.224-3.139-39.055-4.135-12.805-.993-24.927-2.026-37.677-4.594m-.919-45.948c-9.376 2.35-3.889 13.712-1.378 19.987 3.193 7.981 2.298 16.752 2.298 25.961-21.084-5.923-44.058-22.741-39.975-48.704 1.883-11.978 12.688-20.041 20.677-28.029 3.944-3.944 7.478-8.222 10.568-12.866 3.555-5.342 4.029-11.661 7.811-17-.001 20.217-.001 40.434-.001 60.651m75.814 29.866c-4.009-1.246-7.005.114-10.798-1.148-4.718-1.571-2.208-13.207-2.527-16.771-.302-3.365-1.53-16.037-3.505-16.319-7.803-1.115-14.447-5.475-22.226-6.653-.662 7.131-9.121 21.66-3.446 27.338 8.854 8.857 4.737 13.874-6.203 13.096-7.032-.5-21.147-2.057-22.974-9.189-1.12-4.374 11.968-33.194-4.135-20.218v-42.968c0-11.671-1.712-16.596 6.433-24.575 11.469-11.234 25.896-20.678 41.54-25.374 4.983-1.496 23.575-5.3 27.841-.357 3.41 3.95 0 25.92 0 30.935v92.203m64.787-51.92c-1.82 6.603 2.48 13.455 4.594 19.757 3.265 9.734 1.068 15.08 6.434 22.055 6.145 7.988 3.644 9.961-7.353 9.189-7.307-.513-14.555-.45-16.541-6.893-1.982-6.431-1.694-13.825-3.906-20.446-.771-2.308-3.574-7.25-5.282-8.96-4.604-4.608 1.19-2.539-5.515-.919-10.621 2.565-34.731 2.212-29.865 20.217 1.261 4.666 10.935 8.059 2.755 10.568 7.932 7.936-5.544 5.892-10.107 7.352v-123.14c5.086.893 18.21 11.087 22.514 9.649 2.139-.714 6.749-11.449 8.5-13.785 7.86-10.483 21.482-14.672 33.772-17v92.356m0 0v-83.58c0-3.36 2.056-14.958 4.594-6.479 1.312 4.38-2.863 12.313-3.216 17.001-.568 7.558.903 13.753 4.365 20.676 5.628 11.253 12.761 7.189 24.122 6.893 19.148-.5 38.313 1.634 57.435-.459-5.399 4.066-15.176 5.389-22.055 6.433 9.992 0 21.746-1.446 31.245.459-11.502 6.359-26.695 4.208-39.226 5.173-13.607 1.048-26.394 1.497-39.806 4.476 1.816 4.119 5.628 11.787 10.109 13.784 6.232 2.778 13.889-2.401 19.758 0-10.12 5.963-9.832 6.086-12.406 15.623-1.689 6.258-4.992 10.414-10.568 14.244 1.428-2.496 1.268-4.604 1.378-7.352-3.039 1.496-8.843 6.771-12.865 2.757-3.087-3.081-9.71-9.936-12.864-9.649" fill-rule="evenodd" clip-rule="evenodd"/><path d="M190.699 60.016c-8.381-1.851-32.786 4.234-29.866 17.46 1.655 7.499 18.406 12.739 24.353 17.69 5.45 4.537 12.364 13.026 18.838 4.365-11.367-8.362-20.689-15.482-32.622-21.595.379-.3 2.237-.034 2.757 0-.161-.564-.468-1.024-.92-1.378 2.334 2.773 5.752 2.935 7.353 0 1.075 12.244 31.122 16.801 24.813 29.406 3.799-2.645 16.118-18.75 5.514-17.919.968.013 2.294-.266 3.676 0-.015-.973-.343-1.385-1.379-.92.253-.379 1.393.119 1.379-.918-3.473-.428-5.189-3.418-5.974-6.892 2 9.015 9.935 6.447 1.378-.919-5.436-4.679-16.017-11.774-13.784-20.676-1.835.088-3.616.804-5.054 1.838 2.056 2.501 2.525 4.054 2.297 4.594.221-2.785-1.535-2.478-2.759-4.136m8.271-3.217c21.774-2.178 48.915.594 68.462-9.649-18.331 6.33-46.401 1.378-65.892 1.378-11.699 0-30.372 8.007-41.166 2.297.884.256 1.815.709 2.756.919l-.919-.919c8.454.939 18.39-.975 27.569-1.838-8.003-13.736-10.493-24.669-6.663-39.975 3.876-15.486-18.519-4.923-25.73.23-14.937 10.67-28.294 32.689-16.312 50.772 3.655 5.515 6.457 6.397 12.405 6.433 4.124.025 9.307-5.152 8.73 3.675 5.02-9.269 26.943-13.804 36.76-13.323" fill-rule="evenodd" clip-rule="evenodd" fill="#B2B2B2"/><path d="M184.726 63.692c1.853-2.982 7.126-.035 7.352 2.757h1.839c-.083-.114-1.689 1.291-1.839 1.378 1.153-.188 1.81-.438 2.758-.918-2.001 2.138-4.009 2.146-6.893 1.838.887-.316 2.828-1.829 4.135-2.297-3.002.574-5.452-.341-7.352-2.758m-37.218 0c-20.359-18.777-2.512-47.663 17.46-56.976-22.024 9.174-33.484 37.591-17.46 56.976" fill-rule="evenodd" clip-rule="evenodd"/><path d="M142.913 104.584c-4.308.987-15.692 6.243-18.379 10.109-3.2 4.604-1.096 10.734-4.595 14.703.944-.427 1.142-.94 1.838-1.838.174 2.833-2.793 4.305-5.513 4.595 1.318-.634 3.979-.939 5.513-1.378 1.75 3.623-.017 5.78-3.215 5.973 3.282-1.021 6.279-.527 7.351 3.217-7.009 6.818-4.937-.76-10.567-1.838 2.286 1.866 1.763 2.162 2.756 4.135-2.853-1.852-5.082-1.324-5.973 1.838-.714-1.719-2.169-5.601-2.757-7.352.474-.265-1.893 1.432-1.837 1.379 2.247 2.02 1.928 2.367 2.756 4.594-3.767-1.929-5.368.188-7.352-2.756-1.99-2.953.079-14.293.459-17.92.481-4.58 1.609-8.036.69-12.636-1.46-7.301 6.077-6.852 9.453-11.07 7.017-8.768 9.877-12.608 19.724-7.079 4.244 2.384 20.056 8.348 9.648 13.324m-21.596-16.08c5.53-3.974 16.713-8.313 21.138-.919-4.27-4.684-11.444-3.717-16.542-.919 5.438 1.15 26.745 11.308 18.839 17.919 6.479 2.293 12.348-1.667 18.378-3.675 7.793-2.596 14.813-3.51 7.812-12.406-4.879-6.199-9.578-5.735-12.176-13.555-2.514-7.563-5.798-2.966-3.446 2.527-2.284-1.495-2.146-4.947-3.676-6.433-1.817-1.764-5.667-2.912-8.271-5.055-3.573-2.939-5.706-7.476-7.121-11.716-1.483-4.443 2.051-21.699 0-22.285-7.236-2.066-13.071-7.604-20.447-9.649-8.843-2.452-19.206-1.82-28.027.459-13.453 3.475-25.652 10.92-34.461 21.596 9.202 1.063 17.461 2.3 21.596 11.487 3.35 7.444 6.672 19.048 7.811 27.109 1.148 8.131.271 16.027 10.108 19.758 15.042 5.705 18.638-8.861 28.485-14.243" fill-rule="evenodd" clip-rule="evenodd" fill="#B2B2B2"/><path d="M120.399 89.422c2.198-4.103 6.594-9.11 11.487-8.271-5.342.986-7.42 5.376-11.487 8.271" fill-rule="evenodd" clip-rule="evenodd"/><path d="M81.343 78.854c-3.779-8.222-5.395-16.707-8.73-25.041-3.32-8.296-18.923-11.463-25.501-6.203-19.268 15.411-10.325 36.271-.229 54.219-.803-1.186-2.266-3.036-3.217-4.595 2.068 5.015 4.624 12.599 5.054 17.919.514 6.351-4.635 12.237-4.135 17.92.681 7.737 15.304 12.403 21.136 7.811-.443-.884-1.156-1.444-1.837-2.298 1.763 1.201 4.8 5.459 6.432 5.056 3.8-.938 2.062-6.215.46-8.271 1.726 2.486 3.646 4.497 6.432 3.676-1.609-2.929-6.892-7.938-6.892-11.028 0-5.818 3.466-8.675 4.595-13.324 2.771-11.411 5.344-24.074 1.378-35.38 1.33 1.925 2.434 5.707 3.216 8.271 2.424-2.302 2.829-5.603 1.838-8.732" fill-rule="evenodd" clip-rule="evenodd" fill="#B2B2B2"/><path d="M121.777 32.907c1.129.675 2.225 1.446 3.217 2.297-13.951-7.813-34.157-6.61-48.246.459 12.811-9.155 30.671-6.512 45.029-2.756" fill-rule="evenodd" clip-rule="evenodd"/><path d="M52.856 44.394l-3.217.919c2.318-2.991 5.52-6.096 9.19-7.352-2.142 1.998-4.15 4.142-5.973 6.433m102.922 21.595c7.527-6.169 5.006 7.12 3.676 9.649.52-6.001-5.254-8.455-5.512-1.378-1.351-6.228-9.399-5.826-13.327-11.717-4.046-6.07-5.499-16.429-4.134-20.446-.259 9.732 5.898 30.834 19.297 23.892" fill-rule="evenodd" clip-rule="evenodd" fill="#8C8C8C"/><path d="M257.323 48.988c-3.814 1.379-7.906.955-11.946 1.838 3.817-1.441 7.94-1.223 11.946-1.838m-39.514 2.758h17.001c-11.266.489-21.896.104-32.623 2.297.153-.459 0-.612-.46-.459 4.856-.563 12.104-2.399 16.082-1.838m-152.088 10.108c1.985 1.126 3.737 1.993 5.055 3.676-1.985-1.556-8.939-3.331-5.055-6.433-2.535 1.97-.465 1.666 0 2.757" fill-rule="evenodd" clip-rule="evenodd"/><path d="M251.351 54.042h24.812c-19.432 9.198-45.685 3.806-66.624 6.892-2.527.373-12.51 3.268-13.096.919-1.303-5.219 4.119-4.48 8.041-5.055 13.936-2.04 32.86-5.094 46.867-2.756" fill-rule="evenodd" clip-rule="evenodd" fill="#B2B2B2"/><path d="M79.046 63.692c10.106 12.219 19.857 4.831 31.244.919-14.999 7.826-23.675 8.611-34.92-4.595 1.225 1.225 2.47 2.433 3.676 3.676" fill-rule="evenodd" clip-rule="evenodd"/><path d="M193.916 57.719c-2.414 1.344-4.981 1.793-7.813 1.378 2.538-.746 5.171-1.177 7.813-1.378" fill-rule="evenodd" clip-rule="evenodd" fill="#8C8C8C"/><path d="M41.369 72.422c2.541 1.591 4.358 3.997 5.055 6.892-2.531-6.508-8.778-8.023-7.812-16.082-.234 3.292.762 6.583 2.757 9.19m149.33-10.568c.835.951 1.543 1.679 2.297 2.757-2.31-2.082-5.595-3.643-8.729-2.757 2.053-1.473 4.152-.872 6.432 0" fill-rule="evenodd" clip-rule="evenodd"/><path d="M187.483 63.232c-.899.235-.481 2.434-2.298-.459.619.298 1.612.639 2.298.459" fill-rule="evenodd" clip-rule="evenodd" fill="#fff"/><path d="M167.266 61.395c-.381 1.896.125 2.977-1.378 4.594.267-1.667 2.001-5.661 1.378-4.594m5.972 2.756c-.817.385-1.316.973-1.837 1.379.661-1.196 2.565-1.721 1.837-1.379m11.948 1.838c1.285 3.052-.588-.263-2.298-.919-3.176-1.218-4.869-2.827-8.729-2.756 3.871-.862 8.633.946 11.027 3.675m-20.218-1.378c-.658 1.543-1.512 3.671-2.297 4.595 1.156-2.773 1.614-4.672 1.378-7.352 1.02.616.774 1.494.919 2.757" fill-rule="evenodd" clip-rule="evenodd"/><path d="M34.936 74.719c-2.88.552-4.771.309-6.893 2.757 2.011-3.135 4.23-6.133 6.893-8.73 0 1.92.299 4.094 0 5.973" fill-rule="evenodd" clip-rule="evenodd" fill="#8C8C8C"/><path d="M110.75 69.665c-6.236 3.389-14.078 10.576-21.136 5.974 9.51 3.076 13.484-4.005 21.136-5.974m-71.219 3.216c-.127 4.756 2.346 8.879 3.676 12.865-2.635-3.187-4.939-12.106-3.676-12.865m105.221-1.838c1.416.1 3.342-.154 5.054 1.838-.217-.613-.063-1.073.46-1.379.056 3.959 2.16 7.633 4.135 7.352.986 3.414 3.81 6.424 6.433 8.271-6.447-3.447-11.64-12.711-17.92-17.46l1.838 1.378" fill-rule="evenodd" clip-rule="evenodd"/><path d="M42.288 95.396c6.438 12.249-7.542 14.1-9.649 23.893-1.346 6.254 3.868 12.827 1.838 19.758 4.514-1.18 7.271 1.536 11.027 3.675 8.457 4.815 16.372 5.724 25.042 9.19 14.511 5.802 33.195 7.784 45.718 17.46-12.205.359-24.216-3.361-36.299-4.136-9.771-.626-19.033-1.018-28.777-2.519-23.136-3.563-40.497-11.935-48.415-35.158-6.377-18.702 6.547-30.687 18.838-42.732 2.714-2.66 11.324-14.271 13.555-7.581 2.143 6.429 3.828 11.984 7.122 18.15" fill-rule="evenodd" clip-rule="evenodd" fill="#B2B2B2"/><path d="M128.669 77.476c-4.352 1.076-4.854 5.898-9.188 7.811 3.478-3.156 3.744-9.316 9.188-7.811m-42.73 2.757c.229.962 0 2.208 0 3.216.428-.897.682-1.835.918-2.757-.172 3.147-1.697 6.603-4.135 8.73 2.084-3.081 2.243-8.702 3.217-9.189m17.459.919c-2.503 1.05-3.543 2.175-5.973 0 1.998.105 4.989-.108 5.973 0" fill-rule="evenodd" clip-rule="evenodd"/><path d="M225.619 77.476c-2.18.998-11.68 6.575-12.635 2.757-.885-3.536 11.213-3.038 12.635-2.757" fill-rule="evenodd" clip-rule="evenodd" fill="#fff"/><path d="M181.05 80.692c-1.503-.479-2.724-.598-4.135-1.378 2.875-.999 2.558.558 4.135 1.378m34.921 3.217c-.805-.602-1.446.332-1.839-1.379 4.138-1.817 8.528-4.006 12.866-5.054-3.473 2.491-7.273 4.408-11.027 6.433" fill-rule="evenodd" clip-rule="evenodd" fill="#B2B2B2"/><path d="M207.7 81.152c.822 1.792 1.032 3.587 2.297 5.054-1.94-2.422-3.389-4.611-2.297-5.054m5.974 3.216c-1.079-1.256-2.052-1.445-2.299-3.216.628 1.475 1.233 1.96 2.299 3.216" fill-rule="evenodd" clip-rule="evenodd"/><path d="M80.424 91.26c-1.242-.773-.408-3.563 1.378-6.433.12 2.473-.586 4.359-1.378 6.433" fill-rule="evenodd" clip-rule="evenodd" fill="#8C8C8C"/><path d="M48.72 96.314c3.563 5.973 4.585 11.157 3.676 17.92-2.232-9.03-2.826-15.305-7.352-24.352 1.388 1.588 2.623 4.2 3.676 6.432" fill-rule="evenodd" clip-rule="evenodd"/><path d="M178.752 93.099c-.863 1.086-2.528 2.008-3.675 2.757-.504-3.605-2.98-7.148-5.054-9.649 3.567 1.279 9.457 4.064 8.729 6.892m-95.111.459c2.724 9.249 12.473 12.754 21.136 9.649-1.374 2.395-1.824 5.03-1.379 7.812-6.797-1.126-13.565-2.471-19.757-5.514-8.142-4.002-7.321-5.695-2.298-14.244 1.152.579 1.532 1.349 2.298 2.297" fill-rule="evenodd" clip-rule="evenodd" fill="#8C8C8C"/><path d="M209.078 89.422c.464.572-.093 1.987.46 2.756.25-.001 1.381-1.84 1.379-1.837-.021.032-1.758 4.533-2.298 1.379-.692-4.041 1.012-2.257.459-2.298m-118.086 8.271c.704-.365 2.063 1.393.919-.918 1.707.889 4.381 2.339 5.974 3.216-5.624-1.122-9.062-1.308-11.487-7.812 1.582 1.363 3.299 3.549 4.594 5.514m80.409-4.594c-4.401 2.577-13.025 5.689-17.459 2.297.222.07 1.705.903 1.836.918-.374-.407-.527-.866-.459-1.377 1.536.582 1.001.51 2.298.918 2-.575 10.323-1.515 13.784-2.756m-99.706 5.513c-1.198-.649-2.991-1.248-3.676-2.298 1.173.865 2.448 1.538 3.676 2.298" fill-rule="evenodd" clip-rule="evenodd"/><path d="M163.13 114.234c-.597.37-6.99-7.845-4.136-11.486 1.487-1.898 6.576-.962 8.731-1.838 4.248-1.726 7.623-4.9 11.486-7.352 1.668 10.303-14.857 10.981-16.081 20.676" fill-rule="evenodd" clip-rule="evenodd" fill="#8C8C8C"/><path d="M67.1 103.207c1.833.648 4.252 2.005 5.514 2.757-4.324.279-6.962-2.975-9.649-5.973 1.354.206 2.661 1.749 4.135 3.216m78.571-2.297c-.678.604-1.041 1.665-1.839 2.297.736-1.632 3.372-3.665 1.839-2.297" fill-rule="evenodd" clip-rule="evenodd"/><path d="M187.023 123.883c-1.141 1.001-.757 2.876-3.676 2.757 9.263 1.423-5.957 6.314-8.73 6.892 9.338-.438 12.331-4.533 19.758 5.054-3.299 2.637-7.033.187-9.649-1.378 2.073.795 3.284 2.627 4.595 3.676-3.063 4.261-9.924 2.786-15.162.92-7.984-2.845-6.893-6.784-6.893-16.082 0-7.231-5.895-10.074-.92-17 3.271-4.553 9.666-5.63 12.866-10.567 1.415 8.872 7.038 16.751 7.811 25.728" fill-rule="evenodd" clip-rule="evenodd" fill="#B2B2B2"/><path d="M45.504 107.342c.312 4.077-3.983 5.894-7.811 7.352 2.408-3.361 5.004-7.214 6.893-11.028l.918 3.676m107.518-1.838c-3.507 4.583-11.998 4.135-18.38 4.135 2.507-1.366 6.973-4.651 9.648-5.055 2.817-.423 5.391 2.021 8.732.92" fill-rule="evenodd" clip-rule="evenodd" fill="#8C8C8C"/><path d="M68.938 109.179c.482.368 1.702.42 2.297.46-2.702-.3-4.036-1.788-2.297-.46m53.759 5.515c-2.594 1.762-5.895 2.25-8.271 1.379 4.254-.276 4.936-.639 8.271-1.379" fill-rule="evenodd" clip-rule="evenodd"/><path d="M103.858 115.613c-1.455 3.354-1.166 7.093-1.379 10.567-1.094-4.935-1.556-9.636-1.837-14.703 3.712-.299 3.411 1.306 3.216 4.136" fill-rule="evenodd" clip-rule="evenodd" fill="#8C8C8C"/><path d="M122.237 118.37c-3.679 3.5-8.335 2.779-12.406.919 4.444 1.218 8.963.592 12.406-.919m-113.951 5.053c.584 2.57 1.793 5.489 2.757 5.974 1.749 5.663 6.035 11.857 10.568 15.622-3.463-2.158-7.98-8.002-9.649-12.176-.982-2.458-6.694-11.599-3.676-9.42m60.192 1.838c-3.434 2.055-7.739 1.676-11.487.46 3.447.659 10.295-.494 11.487-.46m-9.189 3.217c2.554-.239 4.988.089 7.352.459-3.354 1.967-9.134.375-12.866-1.378 1.896.042 3.66.483 5.514.919m122.68-1.379c-1.442.561-2.61 1.253-4.136 1.379 1.041-.495 5.202-1.707 4.136-1.379" fill-rule="evenodd" clip-rule="evenodd"/><path d="M39.531 138.585c-1.239.147-3.086-.702-4.595-.458.097-.929.58-3.75.919-4.596 1.309 1.555 2.728 3.25 3.676 5.054" fill-rule="evenodd" clip-rule="evenodd" fill="#8C8C8C"/><path d="M62.964 133.532c.836-.043-2.675.573-3.676.46.94.444 2.313 1.04 3.216 1.379-2.417-.569-3.287-1.525-4.595-2.298 1.811-.18 3.324.232 5.055.459" fill-rule="evenodd" clip-rule="evenodd"/><path d="M128.21 135.83c-3.598 1.712-5.488-.267-5.513-4.136 3.013.646 5.29 2.291 5.513 4.136" fill-rule="evenodd" clip-rule="evenodd" fill="#8C8C8C"/><path d="M78.127 140.883c-.726.097-1.277 1.281-2.298 1.379-.869-3.472.845-1.185 2.298-1.379m-3.216 1.379c-.917 1.09-.704 2.526-4.135 1.838 1.476-2.697 2.734-1.842 4.135-1.838m-7.811 0c-1.05.927-1.781 2.48-4.595.918 1.723-1.732 2.884-.885 4.595-.918m60.191-.459c-.864.807-1.702 2.251-4.594 1.838 1.379-3.548 2.495-2.421 4.594-1.838m-17 1.838c-7.146 1.913-5.058-4.415 0 0m7.351-1.379c-.425 2.617-1.56 2.943-5.054 1.379 1.591-2.516 2.824-1.507 5.054-1.379m78.112-.919c-6.547 3.017-4.8-4.135 0 0m-5.055 1.378c-.953.29-1.96 1.272-3.676.92 1.442-3.36 2.19-1.508 3.676-.92" fill-rule="evenodd" clip-rule="evenodd" fill="#fff"/><path d="M66.181 161.101c4.104.211 9.677 2.156 14.703 2.757-6.96-.256-16.256-.206-22.974-2.757 3.613.044 6.147-.072 8.271 0" fill-rule="evenodd" clip-rule="evenodd"/></svg>