<svg xmlns="http://www.w3.org/2000/svg" xmlns:xlink="http://www.w3.org/1999/xlink" width="288.428" height="252.007" version="1"><defs><linearGradient y2="193.527" y1="193.527" x2="-170.502" x1="-185.582" gradientUnits="userSpaceOnUse" gradientTransform="matrix(4.263 1.112 -.535 5.519 133.988 -1401.422)"><stop offset=".034" stop-color="#4F4F4F"/><stop offset=".222" stop-color="#494949"/><stop offset=".483" stop-color="#373737"/><stop offset=".786" stop-color="#191919"/><stop offset="1"/></linearGradient><linearGradient y2="193.527" y1="193.527" x2="-188.565" x1="-203.645" gradientUnits="userSpaceOnUse" gradientTransform="matrix(4.263 1.112 -.535 5.519 133.988 -1401.422)"><stop offset=".034" stop-color="#4F4F4F"/><stop offset=".222" stop-color="#494949"/><stop offset=".483" stop-color="#373737"/><stop offset=".786" stop-color="#191919"/><stop offset="1"/></linearGradient><linearGradient y2="111.55" y1="205.265" x2="-122.774" x1="-122.774" gradientUnits="userSpaceOnUse" gradientTransform="matrix(4.263 1.112 -.535 5.519 133.986 -1401.423)"><stop offset=".034" stop-color="#4F4F4F"/><stop offset=".222" stop-color="#494949"/><stop offset=".483" stop-color="#373737"/><stop offset=".786" stop-color="#191919"/><stop offset="1"/></linearGradient><linearGradient y2="111.55" y1="205.265" x2="-251.372" x1="-251.372" gradientUnits="userSpaceOnUse" gradientTransform="matrix(4.263 1.112 -.535 5.519 133.986 -1401.423)"><stop offset=".034" stop-color="#4F4F4F"/><stop offset=".222" stop-color="#494949"/><stop offset=".483" stop-color="#373737"/><stop offset=".786" stop-color="#191919"/><stop offset="1"/></linearGradient><radialGradient xlink:href="#a" gradientUnits="userSpaceOnUse" gradientTransform="matrix(-.839 0 0 1.407 394.222 -221.763)" cx="266.423" cy="545.225" fx="266.423" fy="545.225" r="6.645"/><linearGradient id="a"><stop offset="0" stop-color="#00e300"/><stop offset="1" stop-color="#002a00"/></linearGradient><radialGradient xlink:href="#a" gradientUnits="userSpaceOnUse" gradientTransform="matrix(-.839 0 0 1.407 308.112 -221.753)" cx="163.579" cy="545.912" fx="163.579" fy="545.912" r="6.645"/><radialGradient xlink:href="#a" gradientUnits="userSpaceOnUse" gradientTransform="matrix(-1.006 0 0 1.407 434.976 -219.192)" cx="242.694" cy="545.022" fx="242.694" fy="545.022" r="6.645"/></defs><g><g fill-rule="evenodd" stroke="#000"><path d="M113.483 152.314c-11.537 7.918-24.232 17.735-27.714 32.029-1.502 21.232 7.671 40.086 26.922 49.254 21.432 8.645 41.217 12.958 64.373 16.808 9.184 3.16 15.172-1.165 23.104-4.3 33.202-22.645 5.892-61.856-12.825-85.073-12.094-8.617-35.348-10.705-50.673-13.513-8.078-.068-15.295 3.164-23.186 4.796z"/><path d="M201.628 182.979c9.651-3.875 21.486 7.605 24.071 16.841.871 6.264-6.616 25.285 2.514 24.209 9.471-7.507 19.401-12.195 29.637-4.426 3.191 4.619 13.45 15.427 4.135 17.347-3.332.717-8.461.478-11.883-.047-5.634.78-11.246 2.421-16.869 3.631-6.073 3.957-12.512 7.371-19.131 9.328-3.966.562-22.74-8.904-24.785-13.958"/><path d="M214.101 249.863c-6.618 1.958 2.053-19.25 14.11-25.833 9.471-7.507 19.401-12.195 29.637-4.426 3.191 4.619 13.45 15.427 4.135 17.347-3.332.717-8.461.478-11.883-.047-5.634.78-11.246 2.421-16.869 3.631-6.073 3.957-12.512 7.371-19.131 9.328z" fill="#fff"/></g><path d="M86.746 196.782c-30.154-14.183-79.931-5.505-86.221 23.171-.541 9.446 7.662 15.889 16.65 20.274 15.052 6.458 31.595 2.037 46.668 6.349 9.701 2.775 26.956.977 36.993.977h15.366c10.705 0 21.56-2.93 32.44-2.93l19.919 4.395c11.772-.923 17.435-8.372 9.106-16.605-5.513-4.731-20.113-6.578-27.318-7.814-6.825-1.171-14.001-.977-21.058-.977-5.593 0-60.727 1.465-66.587 1.465-26.067-3.399-16.449-1.752-31.638-4.316-1.909-2.184 11.204-7.906 12.229-8.786 23.823-7.62 39.855 2.142 44.289 1.073 6.421-2.838.598-9.904-.839-16.276z" fill-rule="evenodd" stroke="#fff"/><path d="M106.011 179.767c-12.589-3.875-28.029 7.605-31.401 16.841-1.137 6.264 8.631 25.285-3.279 24.209-12.355-7.507-25.309-12.195-38.663-4.426-4.163 4.619-17.546 15.427-5.394 17.347 4.346.717 11.037.478 15.501-.047 7.35.78 14.671 2.421 22.006 3.631 7.922 3.957 16.323 7.371 24.956 9.328 5.173.562 29.665-8.904 32.332-13.958" fill-rule="evenodd" stroke="#000"/><g><path d="M209.504.362c8.492 16.564 6.339 33.753 6.914 53.982-11.268-7.985-26.244-31.438-44.865-33.873 18.644-13.955 29.035-18.558 37.951-20.11z" fill-rule="evenodd" stroke="#000" stroke-width="0.711027"/><path d="M67.264 1.183c-9.587 18.359-9.85 44.235-5.287 60.261 10.466-8.173 20.594-32.148 37.89-34.64-13.494-23.646-24.158-20.062-32.603-25.62z" fill-rule="evenodd" stroke="#000" stroke-width="0.693117"/><path d="M137.696 16.311c53.101-5.396 76.514 15.045 88.254 61.537 9.332 42.642-34.778 69.196-65.123 78.244-33.995 5.194-57.221-10.286-89.599-25.529-13.402-16.775-12.603-59.93-5.939-78.227 17.265-28.053 42.101-32.657 72.407-36.025z" fill-rule="evenodd" stroke="#000" stroke-width="0.849531"/><g><path d="M81.687 99.03c4.675 28.373 55.306 31.496 55.241 3.057-1.949-26.876-37.477-44.579-55.241-3.057z" fill="#bfec57" fill-rule="evenodd" stroke="#000" stroke-width="1.044153"/><path d="M195.071 545.225a4.557 2.878 0 1 1-9.113 0 4.557 2.878 0 1 1 9.113 0z" transform="matrix(-1.679 0 0 8.113 435.227 -4324.752)" opacity=".861" stroke="#000" stroke-width=".284" stroke-linecap="square" stroke-miterlimit="0"/><path transform="matrix(-.528 0 0 1.266 220.188 -583.176)" d="M195.071 545.225a4.557 2.878 0 1 1-9.113 0 4.557 2.878 0 1 1 9.113 0z" fill="#fff"/></g><g stroke="#000" stroke-width="1.535" fill="none"><path d="M84.154 112.752c-21.181.206-40.633-3.48-62.169-3.48"/><path d="M86.226 126.673c-22.505.051-43.813 5.806-64.932 11.6"/><path d="M88.989 135.373c-15.123 9.364-43.419 12.844-56.643 23.201"/><path d="M210.565 97.092c21.612-7.964 43.664-16.418 67.696-13.92"/><path d="M215.4 107.532c23.585-1.639 49.806-8.806 72.531-.58"/><path d="M205.729 122.032c27.581.774 46.976-3.019 72.531 6.96"/></g><g><path d="M288.403 372.701c7.831 47.526 92.639 52.757 92.532 5.12-3.264-45.018-62.775-74.672-92.532-5.12z" fill="#bfec57" fill-rule="evenodd" stroke="#000" stroke-width="1.7" transform="matrix(-.632 0 0 .597 399.164 -128.534)"/><path transform="matrix(1.777 0 0 8.113 -141.818 -4330.537)" d="M195.071 545.225a4.557 2.878 0 1 1-9.113 0 4.557 2.878 0 1 1 9.113 0z" opacity=".861" stroke="#000" stroke-width=".276" stroke-linecap="square" stroke-miterlimit="0"/><path d="M195.071 545.225a4.557 2.878 0 1 1-9.113 0 4.557 2.878 0 1 1 9.113 0z" transform="matrix(.559 0 0 1.266 95.595 -587.514)" fill="#fff"/></g></g><g fill-rule="evenodd"><path d="M99.103 150.843c0 1.19-3.782 15.253-5.372 20.024-2.42 7.261 2.842 17.116 5.372 23.442 2.9 7.251 9.569 15.43 14.652 20.512 2.734 2.734 5.194 6.659 8.303 9.768.737.737 1.628 1.302 2.442 1.954 1.708 1.367 3.761 1.636 5.372 2.442 1.711.855 4.791.39 6.349 0 1.686-.421 2.344-3.223 2.93-4.395 1.031-2.063.567-6.522 0-8.791-.736-2.945-3.992-7.497-5.372-10.256-1.647-3.294-3.841-7.563-5.861-10.256-1.628-2.171-1.741-5.923-2.93-8.303-.957-1.913-.977-6.094-.977-8.303 0-2.644-.938-6.154-1.465-8.791-.582-2.908-.718-5.8-1.465-8.791-.741-2.964-2.318-5.125-3.419-7.326-1.112-2.224-2.036-2.971-3.907-3.907-2.01-1.005-3.241-1.954-5.861-1.954-2.663 0-3.729 1.132-5.372 1.954-1.06.53-2.318.537-3.419.977z" stroke="#fff"/><path d="M133.127 210.126c4.304 2.173 4.833.481 6.596 4.041 1.273 2.571 10.516 10.165-1.165 15.153-1.702.727-6.134-.898-7.532-.545-5.249 1.325-7.814-3.683-10.152-4.674-2.268-11.724 2.942-6.504 12.253-13.974z" fill="#fff" stroke="#000" stroke-width="1.063"/></g><g fill-rule="evenodd"><path d="M191.776 152.371c-11.607-1.897-23.54.012-34.187-5.568-2.021-1.011-6.614-1.898-8.791-2.442-10.578-.527-21.296.086-31.745 1.954-.226.045-.326.326-.488.488-14.942 1.796-28.513 7.83-43.588 9.475-4.176 0-4.353 2.042-6.715 3.223-3.698 1.849-3.858.878-5.372 3.907-1.094 2.187-9.035 8.649 1.001 12.893 1.462.618 5.269-.764 6.471-.464 4.509 1.127 5.864-3.638 10.598-3.638 4.158 0 8.024.488 12.21.488 13.212 0 25.416-7.863 38.729-7.863l17.606 4.835c7.426 0 14.36 5.47 21.806 5.47 14.876 1.679 18.354-3.484 32.844.684 1.87-.935 4.371-7.6 4.371-10.036 0-3.192-5.231-8.899-6.129-10.696-.754-1.508-6.824-2.262-8.62-2.711z" stroke="#fff"/><path d="M68.568 158.333c-4.369 2.173-4.906.481-6.695 4.041-1.292 2.571-10.674 10.165 1.183 15.153 1.727.727 6.226-.898 7.645-.545 5.328 1.325 7.931-3.683 10.304-4.674 2.302-11.724-2.986-6.504-12.437-13.974z" fill="#fff" stroke="#000" stroke-width="1.063"/></g><path d="M63.844 246.575c9.701 2.775 26.956.977 36.993.977h15.366c10.705 0 21.56-2.93 32.44-2.93l19.919 4.395c11.772-.923 17.435-8.372 9.106-16.605-5.513-4.731-20.113-6.578-27.318-7.814-6.825-1.171-14.001-.977-21.058-.977-5.593 0-51.71-2.778-57.57-2.778" fill-rule="evenodd" stroke="#fff"/></g></svg>