<svg xmlns="http://www.w3.org/2000/svg" viewBox="0 0 478.1 466.9" enable-background="new 0 0 478.1 466.9"><path fill="#DA251D" d="M445.4 182.6c3.6.4 5.9 8 5.1 17-.7 9-4.2 16-7.7 15.7-3.6-.4-5.9-8-5.1-17 .7-9 4.1-16 7.7-15.7z"/><path fill="#B12C2B" d="M443.1 215.3h-.3c-1.7-.2-3.2-2-4.2-5.3-1-3.2-1.3-7.4-1-11.7.3-4.2 1.3-8.2 2.7-11.1 1.4-2.9 3.1-4.5 4.8-4.5h.3c1.7.2 3.2 2 4.2 5.3 1 3.2 1.3 7.4 1 11.7-.3 4.2-1.3 8.2-2.7 11.1-1.5 2.9-3.2 4.5-4.8 4.5zm2-32.7c-1.7 0-3.4 1.6-4.8 4.5s-2.4 6.9-2.7 11.1c-.7 9 1.6 16.6 5.1 17h.3c1.7 0 3.4-1.6 4.8-4.5s2.4-6.9 2.7-11.1c.7-9-1.6-16.6-5.1-17-.1.1-.2 0-.3 0z"/><linearGradient id="a" gradientUnits="userSpaceOnUse" x1="202.914" y1="264.68" x2="203.146" y2="265.277" gradientTransform="matrix(143.552 0 0 -143.552 -28977.43 38378.973)"><stop offset="0" stop-color="#DA251D"/><stop offset="1" stop-color="#B12C2B"/></linearGradient><path fill="url(#a)" d="M155 287.7l6.7-32.3 39.5 5.1 81.4 95.1c-4.9 10.1-15.7 15.6-30.1 13.9-43.1-4-63.5 3-102.7 16.3-47.6 23.8-79.7 28.5-126.8 18.9 83.3 7.6 125-34.2 132-117z"/><path fill="#B12C2B" d="M64.4 409.3c-6.4 0-13-.4-20-1.2-6.8-.8-13.8-1.9-21.5-3.5 6.5.6 12.8.9 18.8.9 8.8 0 17.2-.7 25-1.9 7.7-1.3 15-3.2 21.7-5.7 6.7-2.5 12.9-5.7 18.6-9.5 5.6-3.7 10.8-8.2 15.5-13.1 4.6-4.9 8.8-10.6 12.5-16.7 3.6-6.1 6.8-12.9 9.5-20.2 2.7-7.3 4.9-15.2 6.6-23.6 1.7-8.4 3-17.5 3.8-27l6.7-32.3 39.5 5.1 81.4 95.1c-1.1 2.2-2.4 4.2-4.1 6s-3.5 3.3-5.6 4.5c-2.1 1.2-4.5 2.2-7 2.8-2.6.6-5.4 1-8.3 1-1.6 0-3.3-.1-5.1-.3-8.1-.8-15.4-1.1-22.3-1.1-13.6 0-25.6 1.4-38.9 4.6-12.4 3-24.9 7.2-40.7 12.5l-.8.3c-8.3 4.2-15.9 7.6-23.1 10.5-7.5 3-14.4 5.4-21.3 7.3-7 1.9-13.6 3.4-20.4 4.3-6.8.8-13.5 1.2-20.5 1.2zm-41.3-4.6c7.6 1.6 14.6 2.7 21.3 3.5 7 .8 13.5 1.2 20 1.2 7 0 13.7-.5 20.4-1.4 6.8-.9 13.5-2.4 20.4-4.3 6.9-1.9 13.8-4.3 21.3-7.3 7.2-2.9 14.8-6.4 23.1-10.5l.8-.3c15.8-5.3 28.3-9.6 40.7-12.5 13.3-3.2 25.3-4.6 38.9-4.6 6.9 0 14.2.4 22.3 1.1 1.7.2 3.4.3 5 .3 2.9 0 5.7-.3 8.3-1 2.5-.6 4.9-1.6 7-2.8 2.1-1.2 4-2.7 5.6-4.5 1.6-1.7 3-3.8 4.1-6l-81.3-95.1-39.5-5.1-6.7 32.3c-.8 9.5-2.1 18.6-3.8 27-1.7 8.4-4 16.4-6.6 23.6-2.7 7.3-5.9 14.1-9.5 20.2-3.7 6.2-7.9 11.8-12.5 16.7-4.7 5-9.9 9.4-15.5 13.1-5.7 3.8-11.9 7-18.6 9.5-6.7 2.5-14 4.5-21.7 5.7-7.8 1.3-16.2 1.9-25 1.9-5.8.1-12.1-.1-18.5-.7z"/><g fill="#B12C2B"><path d="M129.983 391.981c50.395-26.043 53.439-81.85 58.513-125.481l8.117 2.029c-10.147 49.043-13.529 96.056-66.63 123.452z"/><path d="M100.22 401.79c70.012-29.764 70.689-89.968 75.424-133.599l8.117 2.029c-10.147 49.043-11.5 105.188-83.541 131.569z"/><path d="M68.765 405.51c88.953-15.558 89.291-92.673 94.026-135.966l8.117 2.029c-10.147 49.381-12.853 120.746-102.144 133.937z"/><path d="M191.202 368.982c13.867-18.264 14.205-26.72 25.029-60.204l3.382 6.088c-13.529 39.572-19.279 47.013-28.411 54.116z"/><path d="M157.38 378.114c20.97-13.867 43.293-62.572 40.925-100.114l7.441-.338c-4.735 43.969-21.985 85.571-48.366 100.453z"/><path d="M203.04 368.982c13.867-18.264 14.205-26.72 25.029-60.204l3.382 6.088c-13.529 39.572-19.279 47.013-28.411 54.116z"/><path d="M215.892 366.276c13.867-18.264 14.205-26.72 25.029-60.204l3.382 6.088c-13.867 39.91-19.279 47.351-28.411 54.116z"/><path d="M229.083 364.585c13.867-18.264 14.205-26.72 25.029-60.204l3.382 6.088c-13.529 39.572-19.279 47.013-28.411 54.116z"/><path d="M241.259 364.585c13.867-18.264 14.205-26.72 25.029-60.204l3.382 6.088c-13.867 39.572-19.617 47.013-28.411 54.116z"/><path d="M250.73 365.6c13.867-18.264 14.205-26.72 25.029-60.204l3.382 6.088c-13.529 39.91-19.279 47.351-28.411 54.116z"/><path d="M263.582 363.909c13.867-18.264 14.205-26.72 25.029-60.204l3.382 6.088c-13.867 39.91-19.279 47.351-28.411 54.116z"/><path d="M174.629 373.041c19.279-16.911 25.705-41.263 33.822-74.409l4.735 6.764c-13.867 39.572-17.926 51.748-38.558 67.645z"/></g><radialGradient id="b" cx="204.51" cy="264.84" r=".592" gradientTransform="matrix(143.552 0 0 -143.552 -28977.43 38378.973)" gradientUnits="userSpaceOnUse"><stop offset="0" stop-color="#B12C2B"/><stop offset="1" stop-color="#DA251D"/></radialGradient><path fill="url(#b)" d="M346.6 437.1c22.8-2 40.8-17.9 42.1-83-6.5-2.8-11.5-2.4-14.9 1.2 3.7 39.4-3.7 68.3-27.2 81.8z"/><path fill="#B12C2B" d="M346.6 437.1c5.8-3.3 10.7-7.7 14.7-13 3.9-5.1 6.9-11.3 9.1-18.3 2.1-6.8 3.5-14.5 4-23.1.5-8.3.3-17.5-.6-27.5 1.9-2 4.3-3.1 7.2-3.1 2.2 0 4.8.6 7.7 1.9-.2 8-.6 15.4-1.2 22.2-.6 6.5-1.5 12.6-2.7 18-1.1 5.2-2.4 10-4 14.2-1.5 4-3.2 7.7-5.1 10.8-1.8 3-3.9 5.6-6.1 7.9-2.1 2.1-4.5 3.9-7 5.3-4.5 2.6-9.7 4.2-16 4.7zm27.3-81.8c.9 10 1.1 19.2.6 27.5-.5 8.6-1.9 16.3-4 23.1-2.2 7-5.2 13.1-9.1 18.3-4 5.3-8.9 9.6-14.6 12.9 6.2-.6 11.4-2.1 15.9-4.7 2.5-1.4 4.9-3.2 7-5.3 2.2-2.2 4.3-4.9 6.1-7.9 1.9-3.1 3.6-6.8 5.1-10.8 1.5-4.2 2.9-9 4-14.2 1.1-5.4 2-11.5 2.7-18 .7-6.7 1.1-14.2 1.2-22.2-2.8-1.2-5.4-1.9-7.7-1.9-2.9.1-5.4 1.2-7.2 3.2z"/><linearGradient id="c" gradientUnits="userSpaceOnUse" x1="203.127" y1="266.926" x2="203.393" y2="266.39" gradientTransform="matrix(143.552 0 0 -143.552 -28977.43 38378.973)"><stop offset="0" stop-color="#DA251D"/><stop offset="1" stop-color="#B12C2B"/></linearGradient><path fill="url(#c)" d="M333 45.6l-119.1 108.8-16.6 39.9-45.2-6c2-78.7-24.6-121.3-129.3-127.5 66.3-18.6 127.2-7.6 184.4-8 27-.2 50.2-15.2 78.2-14.3 19.2-8.5 36.5-10.6 47.6 7.1z"/><path fill="#B12C2B" d="M197.3 194.3l-45.2-6c.5-20.8-1-37.9-4.6-52.3-1.9-7.7-4.6-14.7-7.8-21-3.3-6.5-7.4-12.4-12.2-17.6-4.9-5.3-10.7-10.1-17.2-14.2-6.6-4.2-14.3-7.8-22.8-10.8-8.6-3-18.3-5.6-28.9-7.5-10.7-1.9-22.7-3.3-35.7-4.1 14.4-4.2 29.1-7 45-8.8 13.4-1.5 27.6-2.2 43.5-2.2 16.4 0 32.6.8 48.2 1.5 15.5.7 30.2 1.4 44.9 1.4h2.8c5.8 0 12-.8 18.9-2.3 6.2-1.3 12.3-3.1 18.3-4.8 6.1-1.8 12.5-3.6 18.9-5 7.2-1.5 13.7-2.3 19.8-2.3h2.3c4.6-2 8.8-3.5 12.6-4.6 4.3-1.2 8.1-1.7 11.7-1.7 2.3 0 4.5.2 6.6.7 2.2.5 4.2 1.3 6.1 2.4 2 1.1 3.8 2.5 5.6 4.2 1.8 1.7 3.4 3.8 4.9 6.2l-119.1 108.9-16.6 39.9zm-45.2-6.1l45.2 6 16.6-39.9 119.1-108.7c-1.5-2.4-3.1-4.5-4.9-6.2-1.7-1.7-3.6-3.1-5.5-4.2s-4-1.8-6.1-2.4c-2.1-.5-4.3-.7-6.6-.7-3.6 0-7.4.6-11.7 1.7-3.8 1-8 2.5-12.6 4.6h-2.3c-6.1 0-12.6.7-19.8 2.3-6.4 1.4-12.8 3.2-18.9 5-6 1.7-12.1 3.5-18.3 4.9-6.9 1.5-13.1 2.2-18.9 2.3h-2.8c-14.7 0-29.4-.7-44.9-1.4-15.7-.7-31.8-1.5-48.2-1.5-15.9 0-30.1.7-43.5 2.2-15.8 1.8-30.6 4.6-45 8.6 12.9.8 24.9 2.1 35.6 4.1 10.6 1.9 20.4 4.4 29 7.5 8.5 3 16.1 6.7 22.8 10.8 6.5 4.1 12.3 8.9 17.2 14.2 4.8 5.2 8.9 11.1 12.2 17.6 3.2 6.3 5.8 13.4 7.8 21 3.5 14.3 5 31.4 4.5 52.2z"/><g fill="#B12C2B"><path d="M69.103 56.125c110.599 10.485 104.85 84.556 102.82 125.143l9.132.338c.338-56.483-13.529-123.79-111.952-125.481z"/><path d="M236.524 49.36c63.924 18.602 61.219 67.983 59.189 102.144l7.779.338c.338-48.028-1.691-85.233-66.968-102.482z"/><path d="M260.876 44.287c63.924 18.602 61.219 67.983 59.189 102.144l7.779.338c.338-48.366-1.691-85.233-66.968-102.482z"/><path d="M273.729 42.934c63.924 18.602 61.219 67.983 59.189 102.144l7.779.338c.338-48.366-1.691-85.233-66.968-102.482z"/><path d="M247.686 46.654c63.924 18.602 61.219 67.983 59.189 102.144l7.779.338c.338-48.028-1.691-85.233-66.968-102.482z"/><path d="M286.243 41.243c63.924 18.602 61.219 67.983 59.189 102.144l7.779.338c.676-48.366-1.691-85.233-66.968-102.482z"/><path d="M306.537 34.478c63.924 18.602 61.219 67.983 59.189 102.144l7.779.338c.338-48.028-1.691-84.894-66.968-102.482z"/><path d="M295.713 37.522c63.924 18.602 61.219 67.983 59.189 102.144l7.779.338c.338-48.366-1.691-85.233-66.968-102.482z"/><path d="M53.883 58.83c110.599 10.485 104.85 84.556 102.82 125.143l9.132.338c.338-56.483-13.529-123.79-111.952-125.481z"/><path d="M96.161 54.433c94.703 18.941 90.982 86.247 88.615 126.834l9.47.338c.338-57.16-6.088-112.629-98.085-127.172z"/><path d="M111.381 52.404c95.041 19.279 91.321 86.247 88.953 126.834l9.47.338c.338-56.822-6.088-112.629-98.423-127.172z"/><path d="M127.954 52.066c95.041 18.941 90.982 86.247 88.953 126.834l9.47.338c0-56.822-6.426-112.29-98.423-127.172z"/><path d="M160.762 55.11c75.762 21.985 72.38 80.497 70.012 120.746l9.47.338c.338-56.483-2.029-100.453-79.483-121.084z"/><path d="M179.026 56.125c75.762 21.985 72.38 80.159 70.012 120.746l9.47.338c.338-56.822-2.029-100.791-79.483-121.084z"/><path d="M194.923 55.448c75.762 22.323 72.38 80.497 70.012 121.084l9.47.338c.338-56.822-2.029-100.791-79.483-121.423z"/><path d="M211.834 54.095c63.924 18.602 61.219 67.983 59.189 102.144l7.779.338c.338-48.028-1.691-85.233-66.968-102.482z"/><path d="M225.701 52.742c63.924 18.602 61.219 67.983 59.189 102.144l7.779.338c.338-48.028-1.691-85.233-66.968-102.482z"/></g><path fill="#B12C2B" d="M365.2 426.6c15.1-24.3 19.5-55.5 13.7-96.3 4.3-2.2 5.4-2.8 7.6-1.5-2.2 50-2.8 77.7-21.3 97.8z"/><radialGradient id="d" cx="203.665" cy="265.379" r="1.791" gradientTransform="matrix(143.552 0 0 -143.552 -28977.43 38378.973)" gradientUnits="userSpaceOnUse"><stop offset="0" stop-color="#F1EEAF"/><stop offset=".188" stop-color="#E26A47"/><stop offset=".361" stop-color="#D44E34"/><stop offset=".671" stop-color="#DA251D"/><stop offset="1" stop-color="#DA251D"/></radialGradient><path fill="url(#d)" d="M14.9 148.9c27.2-.6 82.3.4 122.6 31.8 1.1.9 37.5 7.5 42.2-4.4 24.5-61.6 68.7-92.6 132.3-121.3 53.3-81.4 205.1-.5 132.6 112.3 1.2 20.3 1.6 37.3-4.5 43.5 21.1 37.1 6.7 72.4-23.8 106.9-27.5 53.9-63.9 63.5-104.3 52.8-59-23.7-103.2-56.7-121-106.3-9.6 4.3-20.9 0-30 7.4-35.8 28.8-75.6 89.7-104.2 87.5-21.7-39.3-12.9-88.4-30.2-125.6-13.4-29-15.3-62-11.7-84.6z"/><path fill="#B12C2B" d="M339.3 374.3c-4.3 0-8.9-.3-13.5-1-4.4-.6-9.1-1.6-13.9-2.8-15.1-6.1-29-12.7-41.3-19.7-6.4-3.6-12.5-7.4-18.2-11.3-5.8-4-11.4-8.2-16.4-12.5-5.2-4.4-10.1-9-14.5-13.7-4.5-4.8-8.7-9.8-12.4-15-3.8-5.2-7.2-10.7-10.2-16.4-3-5.7-5.7-11.7-7.9-17.8-4.1 1.8-8.5 2.1-12.8 2.4-2.9.2-5.9.4-8.8 1-3.2.8-6 2-8.3 3.9-12.6 10.1-25.8 24.4-38.6 38.2-11.3 12.2-23 24.8-33.8 34-5.8 5-11 8.6-15.7 11.1-2.6 1.4-5.1 2.4-7.4 3.1-2.5.7-4.8 1.1-7.1 1.1-.5 0-1 0-1.6-.1-2.8-5-5.1-10.4-7.2-16.2-1.8-5.2-3.4-10.8-4.7-17-2.5-11.5-4-23.4-5.4-35-1.2-9.9-2.4-20.2-4.4-29.9-1-5.2-2.2-9.8-3.5-14.2-1.5-4.9-3.1-9.3-5.1-13.4-3.2-6.9-5.9-14.4-8-22.2-1.9-7.2-3.4-14.8-4.2-22.4-.8-7.1-1.2-14.2-1-21.2.1-6.5.6-12.8 1.6-18.7 3-.1 5.8-.1 8.5-.1 20.1 0 37.9 1.7 54.3 5.3 11 2.4 21.3 5.6 30.7 9.6 10.8 4.6 20.6 10.3 29.1 17 .3.2 3 .9 7.3 1.5 5 .7 10.3 1.1 14.8 1.1 5.1 0 9.4-.5 12.7-1.5 4-1.2 6.5-3 7.5-5.6 3-7.6 6.4-14.9 10.1-21.7 3.6-6.7 7.6-13.1 11.9-19.2 4.2-5.9 8.9-11.6 13.8-17 4.8-5.2 10.1-10.3 15.6-15.1 10.6-9.1 22.6-17.6 36.8-25.9 12.3-7 26.8-14.3 43.9-22 7.2-11 16.5-19.5 27.6-25.2 5.2-2.6 10.7-4.6 16.5-6 5.6-1.3 11.5-1.9 17.4-1.9 7.8 0 15.8 1.1 23.7 3.3 7.8 2.2 15.3 5.3 22.4 9.4 7.2 4.2 13.7 9.2 19.4 14.9 5.9 5.9 10.9 12.6 14.8 19.7 3.6 6.6 6.3 13.6 7.9 20.8 1.7 7.6 2.3 15.6 1.8 23.6-1.1 17.6-7.5 35.6-19.1 53.6.6 11 1 19.8.5 27-.3 4-.8 7.3-1.5 9.9-.8 2.9-2 5-3.4 6.5 2.6 4.6 4.7 9.2 6.3 13.8 1.5 4.5 2.6 9.1 3.2 13.7.6 4.5.7 9 .3 13.5-.3 4.4-1.1 8.9-2.3 13.4-1.2 4.4-2.8 8.8-4.8 13.3-1.9 4.3-4.3 8.7-6.9 13.2-2.6 4.3-5.6 8.7-8.9 13.1-3.2 4.2-6.8 8.6-10.7 13-5.2 10.1-10.8 19-16.8 26.3-5.8 7.1-12 13-18.6 17.5-6.3 4.4-13 7.7-20.1 9.8-6.6 2.1-13.8 3.1-21.4 3.1zm-148.3-110.1c2.2 6.1 4.8 12.1 7.9 17.8 3 5.6 6.4 11.1 10.2 16.3 3.7 5.1 7.9 10.2 12.4 15 4.4 4.7 9.3 9.3 14.5 13.7 5.1 4.3 10.6 8.5 16.4 12.5 5.7 3.9 11.8 7.7 18.2 11.3 12.3 7 26.2 13.6 41.3 19.6 4.8 1.2 9.4 2.2 13.8 2.8 4.6.7 9.2 1 13.5 1 7.5 0 14.7-1 21.5-3 7.1-2.1 13.8-5.4 20.1-9.8 6.6-4.6 12.8-10.5 18.6-17.5 6-7.4 11.6-16.2 16.8-26.3 3.9-4.4 7.5-8.8 10.7-13 3.3-4.4 6.3-8.8 8.9-13.1 2.7-4.4 5-8.9 6.9-13.2 2-4.5 3.6-8.9 4.8-13.3 1.2-4.5 2-9 2.3-13.4.4-4.5.2-9.1-.3-13.5-.6-4.6-1.6-9.2-3.2-13.7-1.6-4.6-3.7-9.3-6.3-13.8 1.5-1.5 2.6-3.6 3.4-6.5.8-2.7 1.3-5.9 1.5-9.9.5-7.2.2-16-.5-27 11.6-18 18-36 19.1-53.5.5-8-.1-16-1.8-23.6-1.6-7.2-4.3-14.3-7.9-20.8-3.9-7.1-8.9-13.8-14.8-19.7-5.7-5.7-12.3-10.8-19.4-14.9-7.1-4.1-14.6-7.3-22.4-9.4-7.9-2.2-15.8-3.3-23.7-3.3-6 0-11.8.6-17.4 1.9-5.8 1.3-11.4 3.3-16.5 6-11.1 5.6-20.3 14.1-27.6 25.1-17.2 7.7-31.6 15.1-44.1 22.4-14.1 8.3-26.2 16.8-36.8 25.9-5.6 4.8-10.8 9.9-15.6 15.1-4.9 5.4-9.6 11.1-13.8 17-4.3 6-8.3 12.5-11.9 19.2-3.7 6.8-7.1 14.1-10.1 21.7-1 2.5-3.5 4.4-7.5 5.6-3.3 1-7.6 1.5-12.7 1.5-4.5 0-9.7-.4-14.8-1.1-3.9-.6-7-1.2-7.3-1.5-8.5-6.7-18.3-12.4-29.1-17-9.4-4-19.7-7.2-30.7-9.6-16.4-3.6-34.1-5.3-54.3-5.3-2.7 0-5.5 0-8.5.1-.9 5.9-1.4 12.1-1.6 18.7-.1 7 .2 14.1 1 21.2.9 7.7 2.3 15.2 4.2 22.4 2.1 7.8 4.8 15.3 8 22.2 1.9 4.2 3.6 8.6 5.1 13.4 1.3 4.4 2.5 9 3.5 14.2 1.9 9.7 3.2 19.9 4.4 29.9 1.4 11.5 2.8 23.4 5.4 34.9 1.4 6.2 2.9 11.8 4.7 17 2.1 5.9 4.4 11.2 7.2 16.2l1.5.1c2.2 0 4.6-.4 7.1-1.1 2.3-.7 4.8-1.7 7.4-3.1 4.8-2.5 9.9-6.2 15.7-11.1 10.8-9.2 22.5-21.8 33.8-34 12.8-13.8 26-28.1 38.6-38.2 2.4-1.9 5.1-3.2 8.3-3.9 2.9-.7 5.9-.9 8.8-1 4.6-.5 9.1-.8 13.1-2.6z"/><radialGradient id="e" cx="204.179" cy="264.817" r=".592" gradientTransform="matrix(143.552 0 0 -143.552 -28977.43 38378.973)" gradientUnits="userSpaceOnUse"><stop offset="0" stop-color="#B12C2B"/><stop offset="1" stop-color="#DA251D"/></radialGradient><path fill="url(#e)" d="M265.1 461.2c28.9-2.5 56.1-22.3 77-103.4-7.3-3.5-13.6-3-18.9 1.5-7.1 49.1-24.8 85.1-58.1 101.9z"/><path fill="#B12C2B" d="M265.1 461.2c4.1-2.1 8.1-4.5 11.7-7.2 3.6-2.7 7.1-5.7 10.4-8.9 6.3-6.4 12-14 16.7-22.7 4.6-8.4 8.6-18.1 11.8-28.8 3.1-10.3 5.6-21.8 7.4-34.2 3-2.5 6.3-3.8 9.9-3.8 2.8 0 5.8.8 9 2.3-2.6 9.9-5.3 19.2-8.1 27.6-2.7 8.1-5.6 15.7-8.7 22.4-2.9 6.5-6 12.4-9.1 17.7-3 5-6.3 9.6-9.6 13.5-3.2 3.7-6.5 7-9.9 9.8-3.3 2.6-6.7 4.8-10.3 6.6-6.3 3.1-13.3 5.1-21.2 5.7zm58.2-101.8c-1.8 12.4-4.3 23.9-7.4 34.2-3.2 10.7-7.2 20.3-11.8 28.8-4.8 8.7-10.4 16.4-16.8 22.7-3.2 3.3-6.7 6.3-10.4 8.9-3.7 2.7-7.6 5.1-11.7 7.2 7.9-.7 14.8-2.6 21.2-5.8 3.6-1.8 7-4 10.3-6.6 3.4-2.8 6.8-6.1 9.9-9.8 3.3-3.9 6.5-8.4 9.6-13.5 3.2-5.2 6.2-11.2 9.1-17.7 3-6.7 5.9-14.3 8.7-22.4 2.8-8.4 5.6-17.7 8.1-27.6-3.2-1.5-6.2-2.3-9-2.3-3.6 0-6.9 1.3-9.8 3.9z"/><path fill="#B12C2B" d="M291 447.4c18.9-21 32.6-50 37.8-90.5 4.8-1.3 6-1.6 7.9 0-15.6 47.9-21.9 70.4-45.7 90.5z"/><path fill="#B12C2B" d="M263.3 345c-.1-3.9 2.1-7.8 7-12.2-5.8 2.9-8.8 6.7-9 11.1l1.2.7.2.1.6.3z"/><path fill="#75C5F0" d="M263.8 344.6c0-3 1.1-6.1 3.8-9.1-3 2.6-4.5 5.5-4.5 8.7l.7.4z"/><path fill="#B12C2B" d="M281.5 347.9c-11.6-10.7-13.8-18.1-3-27.8-12.5 6.3-12.3 17.2 3 27.8z"/><path fill="#75C5F0" d="M277.6 344c-5.7-6.3-8.2-13.8-1.8-21.1-6.8 5.7-5.6 13.4 1.8 21.1z"/><path fill="#B12C2B" d="M293.9 363c-11.6-10.7-13.8-18.1-3-27.8-12.5 6.2-12.3 17.1 3 27.8z"/><path fill="#75C5F0" d="M290 359c-5.7-6.3-8.2-13.8-1.8-21.1-6.8 5.8-5.6 13.4 1.8 21.1z"/><path fill="#B12C2B" d="M277.3 353.6c1.1-1.8 2.8-3.6 4.9-5.5-2.8 1.4-4.9 3-6.4 4.7l.3.1c.4.3.8.5 1.2.7z"/><path fill="#75C5F0" d="M277.6 353.4c.5-.8 1.1-1.7 1.9-2.5-.9.8-1.7 1.6-2.3 2.4.1 0 .3 0 .4.1z"/><path fill="#B12C2B" d="M296 361.6c.2-3.7 2.4-7.4 7-11.6-5.7 2.8-8.8 6.6-9 10.9l.9.3.6.2c.2.1.4.1.5.2z"/><path fill="#75C5F0" d="M296.5 361.6c0-3 1.2-6 3.8-9-3 2.6-4.4 5.5-4.5 8.6.1 0 .2.1.3.2.2.1.3.2.4.2z"/><path fill="#B12C2B" d="M234.5 324.8c1.1-2.4 3.1-4.9 6-7.5-3.6 1.8-6.2 4-7.6 6.5.5.3 1 .6 1.6 1z"/><path fill="#75C5F0" d="M234.5 325.4c.6-1.8 1.6-3.6 3.2-5.4-1.8 1.5-3.1 3.2-3.8 5 .3.1.5.2.6.4z"/><path fill="#B12C2B" d="M247.1 334.9c1.1-1.4 2.5-2.9 4.2-4.4-2.3 1.1-4.1 2.4-5.6 3.8.5.2 1 .4 1.4.6z"/><path fill="#75C5F0" d="M247.2 334.9c.4-.6.9-1.2 1.4-1.8-.6.5-1.2 1.1-1.6 1.6 0 .1.1.1.2.2z"/><path fill="#B12C2B" d="M222.6 311.5c.9-2.8 3-5.7 6.5-8.7-4.2 2.1-7 4.7-8.2 7.7.6.3 1.2.6 1.7 1z"/><path fill="#75C5F0" d="M222.7 313.5c.2-2.7 1.4-5.4 3.8-8.1-2.7 2.3-4.1 4.9-4.4 7.7.1.1.3.3.6.4z"/><path fill="#B12C2B" d="M165.5 220.7c-8.1-7.3-10-13.5-3.6-24.6-7.7 8.4-6.9 18.2 3.6 24.6z"/><path fill="#75C5F0" d="M162.8 217.9c-4.1-4.5-6.1-10.9-2.4-18.8-4.1 6.7-2.9 13.4 2.4 18.8z"/><path fill="#B12C2B" d="M165.4 220.6c-8.1-7.2-10-13.5-3.6-24.6-7.7 8.4-6.9 18.3 3.6 24.6z"/><path fill="#75C5F0" d="M162.7 217.9c-4.1-4.6-6.1-10.9-2.5-18.8-3.9 6.7-2.7 13.4 2.5 18.8z"/><path fill="#B12C2B" d="M176 192.8c-3.9-3.5-6.4-6.8-7.2-10.6l-1.2.1c.8 4 3.6 7.6 8.4 10.5z"/><path fill="#75C5F0" d="M173.2 190.1c-2.1-2.3-3.6-5.1-4.2-8.4-.1 0-.3 0-.4.1.6 2.9 2.2 5.7 4.6 8.3z"/><path fill="#B12C2B" d="M175.9 192.8c-4-3.6-6.5-7-7.2-10.8-.4.1-.8.2-1.2.2.8 3.9 3.5 7.6 8.4 10.6z"/><path fill="#75C5F0" d="M173.2 190.1c-2-2.2-3.5-4.9-4.1-7.9-.1 0-.3 0-.4.1.6 2.7 2.1 5.4 4.5 7.8z"/><path fill="#B12C2B" d="M161.6 196.2c-5.2-4.7-7.9-9-7.4-14.4-.4-.1-.8-.1-1.3-.2-.5 5.4 2.3 10.7 8.7 14.6z"/><path fill="#75C5F0" d="M158.9 193.5c-2.7-3-4.6-6.9-4.3-11.5l-.4-.1c-.4 4.1 1.3 8.1 4.7 11.6z"/><path fill="#B12C2B" d="M161.6 196.1c-5-4.5-7.7-8.6-7.4-13.7l-1.3-.2c-.4 5.2 2.5 10.2 8.7 13.9z"/><path fill="#75C5F0" d="M158.8 193.4c-2.6-2.9-4.4-6.6-4.4-10.9-.2 0-.3 0-.5-.1.1 4 1.8 7.8 4.9 11z"/><path fill="#B12C2B" d="M156.8 209.6c-8.1-7.3-10-13.5-3.6-24.6-7.7 8.4-6.9 18.2 3.6 24.6z"/><path fill="#75C5F0" d="M154.1 206.8c-4.1-4.5-6.1-10.9-2.4-18.8-4.1 6.7-2.9 13.4 2.4 18.8z"/><path fill="#B12C2B" d="M156.8 209.5c-8.1-7.2-10-13.5-3.6-24.6-7.7 8.4-6.9 18.3 3.6 24.6z"/><path fill="#75C5F0" d="M154 206.8c-4.1-4.6-6.1-10.9-2.5-18.8-3.9 6.6-2.7 13.4 2.5 18.8z"/><path fill="#B12C2B" d="M148.3 194.8c-4.5-4.1-7.1-7.8-7.4-12.2l-1.3-.6c.2 4.8 3 9.3 8.7 12.8z"/><path fill="#75C5F0" d="M145.6 192.1c-2.8-3.2-4.7-7.2-4.3-12.1l-.4-.2c-.5 4.4 1.2 8.6 4.7 12.3z"/><path fill="#B12C2B" d="M148.3 194.8c-5-4.5-7.7-8.6-7.4-13.7-.4-.1-.8-.3-1.3-.5-.4 5.3 2.4 10.3 8.7 14.2z"/><path fill="#75C5F0" d="M145.5 192.1c-2.8-3.1-4.6-7.1-4.3-11.8l-.4-.1c-.4 4.2 1.3 8.3 4.7 11.9z"/><path fill="#B12C2B" d="M161.7 271.7c-2.5-4.8-1.9-10.1 2.3-17.5-5.4 5.9-6.6 12.5-3.2 18.1l.9-.6z"/><path fill="#75C5F0" d="M161.8 271.1c-1.6-3.9-1.8-8.5.7-13.9-2.9 4.8-3.1 9.7-1 14l.3-.1z"/><path fill="#B12C2B" d="M161.6 271.5c-2.4-4.8-1.8-10 2.4-17.3-5.3 5.8-6.5 12.3-3.4 17.8.4-.2.7-.3 1-.5z"/><path fill="#75C5F0" d="M161.7 271c-1.6-3.8-1.7-8.4.8-13.8-2.8 4.8-3 9.6-1 13.9 0 0 .1-.1.2-.1z"/><path fill="#B12C2B" d="M159.7 265.2c-7.7-7.3-9.3-13.5-2.4-24.6-8.1 8.4-7.8 18.3 2.4 24.6z"/><path fill="#B12C2B" d="M159.6 265.2c-7.7-7.2-9.3-13.5-2.4-24.6-8.1 8.4-7.8 18.2 2.4 24.6z"/><path fill="#B12C2B" d="M389.8 122.5c-18.2-9.3-21.4-19.3-2.4-41.8-21.4 18.2-22 35 2.4 41.8z"/><path fill="#75C5F0" d="M383.6 118.8c-9-6.2-12.4-16.4-1.1-32-11.7 13.5-10.5 24.8 1.1 32z"/><path fill="#B12C2B" d="M391.6 162.7c-17.9-10.1-21.1-19.9-2.3-40.5-21.1 16.3-21.8 32.4 2.3 40.5z"/><path fill="#75C5F0" d="M385.5 158.8c-8.8-6.6-12.2-16.5-1-31-11.6 12.3-10.4 23.3 1 31z"/><path fill="#B12C2B" d="M373.8 146.9c-17.3-9.5-20.3-19.3-2.6-39.9-20 16.5-20.4 32.5 2.6 39.9z"/><path fill="#75C5F0" d="M367.9 143.2c-8.5-6.3-11.8-16.1-1.2-30.6-11 12.5-9.8 23.3 1.2 30.6z"/><path fill="#B12C2B" d="M331.8 170.1c1.1-4.6 4.3-9.8 9.9-16.2-6.7 5.2-10.9 10.5-12.3 15.6.7.1 1.6.3 2.4.6z"/><path fill="#75C5F0" d="M332.4 169.8c.7-3.3 2.4-7 5.3-11.1-3.3 3.7-5.4 7.3-6.2 10.7.3.1.6.2.9.4z"/><path fill="#B12C2B" d="M378.3 181c1.1-5.2 5-11.1 12.3-18.4-8.7 6-13.9 12.2-15.3 18.1l3 .3z"/><path fill="#75C5F0" d="M378.8 182.7c.3-4.4 2.4-9.4 7-14.9-5.2 5.1-7.8 10.1-8.1 14.8.4 0 .8 0 1.1.1z"/><path fill="#B12C2B" d="M346.7 225.9c-15.3-10.4-18.1-19.3-2.7-35.5-17.5 12.2-17.7 26.3 2.7 35.5z"/><path fill="#75C5F0" d="M341.6 221.9c-7.6-6.5-10.6-15.5-1.4-27.1-9.6 9.7-8.4 19.4 1.4 27.1z"/><path fill="#B12C2B" d="M371.2 107.2c-17.4-8.8-20.5-18.6-2.6-41.1-20.2 18.4-20.6 35 2.6 41.1z"/><path fill="#75C5F0" d="M365.3 103.8c-8.5-6-11.9-15.9-1.3-31.6-11 13.6-9.7 24.7 1.3 31.6z"/><path fill="#B12C2B" d="M353.9 92.6c-16.7-8.3-19.7-18-2.8-40.6-19.1 18.6-19.4 35 2.8 40.6z"/><path fill="#75C5F0" d="M348.2 89.3c-8.1-5.7-11.5-15.4-1.4-31.1-10.5 13.7-9.2 24.6 1.4 31.1z"/><path fill="#B12C2B" d="M339.5 117.3c-15.8-8.6-18.7-17.9-2.9-38.8-17.9 16.9-18.2 32.6 2.9 38.8z"/><path fill="#75C5F0" d="M334.2 113.9c-7.7-5.7-11-15.1-1.6-29.7-9.8 12.6-8.5 23 1.6 29.7z"/><path fill="#B12C2B" d="M356.2 131.8c-16.5-9-19.5-18.6-2.7-39.3-19 16.7-19.3 32.5 2.7 39.3z"/><path fill="#75C5F0" d="M350.7 128.3c-8.1-6-11.4-15.6-1.4-30.1-10.4 12.5-9.1 23.1 1.4 30.1z"/><path fill="#B12C2B" d="M358.5 169.7c-16.3-9.7-19.2-19-2.6-38.1-18.8 15-19.2 30.2 2.6 38.1z"/><path fill="#75C5F0" d="M353 165.9c-8-6.2-11.2-15.7-1.4-29.2-10.3 11.5-9 21.9 1.4 29.2z"/><path fill="#B12C2B" d="M342.2 154.6c-15.6-9.2-18.5-18.4-2.8-37.6-17.8 15.2-18 30.4 2.8 37.6z"/><path fill="#75C5F0" d="M336.9 151c-7.7-6-10.8-15.3-1.5-28.8-9.7 11.6-8.5 21.8 1.5 28.8z"/><path fill="#B12C2B" d="M375.3 185c-17-10.3-19.9-19.9-2.4-38.7-19.9 14.8-20.3 30.2 2.4 38.7z"/><path fill="#75C5F0" d="M369.5 181.1c-8.3-6.5-11.6-16.2-1.1-29.6-10.9 11.4-9.7 21.9 1.1 29.6z"/><path fill="#B12C2B" d="M353.1 174.8c1.4-1.8 3-3.7 4.9-5.7-2.5 1.8-4.6 3.6-6.4 5.4.5 0 1 .1 1.5.3z"/><path fill="#75C5F0" d="M352 176.3c.5-.8 1.1-1.6 1.8-2.5-.8.8-1.5 1.6-2.1 2.4.1.1.2.1.3.1z"/><path fill="#B12C2B" d="M322.8 102.7c-15.2-8.1-18-17.3-3.1-38.2-17 17.1-17.1 32.5 3.1 38.2z"/><path fill="#75C5F0" d="M317.7 99.4c-7.5-5.5-10.6-14.7-1.7-29.3-9.3 12.7-8 23 1.7 29.3z"/><path fill="#B12C2B" d="M306.2 245.5c-13.3-10-15.9-18.2-3-32.4-14.8 10.5-14.7 23.4 3 32.4z"/><path fill="#75C5F0" d="M301.7 241.8c-6.6-6.2-9.4-14.6-1.7-24.8-8.1 8.5-6.9 17.4 1.7 24.8z"/><path fill="#B12C2B" d="M292.8 231.5c-12.9-9.5-15.4-17.7-3.1-32-14.1 10.7-13.9 23.5 3.1 32z"/><path fill="#75C5F0" d="M288.5 227.9c-6.3-6-9.1-14.2-1.9-24.5-7.6 8.7-6.4 17.4 1.9 24.5z"/><path fill="#B12C2B" d="M325.4 139.5c-14.9-8.8-17.8-17.8-3-37.1-16.9 15.5-17 30.4 3 37.1z"/><path fill="#75C5F0" d="M320.4 136.1c-7.5-5.7-10.5-14.8-1.7-28.5-9.2 11.7-8 21.8 1.7 28.5z"/><path fill="#B12C2B" d="M287.4 166.7c-13.1-8.6-15.7-16.9-3.2-33.8-14.3 13.3-14.1 26.9 3.2 33.8z"/><path fill="#75C5F0" d="M283 163.5c-6.4-5.6-9.3-14-1.9-25.9-7.8 10.1-6.5 19.3 1.9 25.9z"/><path fill="#B12C2B" d="M327.5 175.6c-14.8-9.3-17.6-18.2-2.9-36-16.7 14-16.8 28.3 2.9 36z"/><path fill="#75C5F0" d="M322.5 171.9c-7.3-6-10.3-15-1.6-27.5-9.1 10.7-7.8 20.5 1.6 27.5z"/><path fill="#B12C2B" d="M290.3 199.6c-13-9.1-15.5-17.3-3.1-33-14.3 12.1-14.1 25.2 3.1 33z"/><path fill="#75C5F0" d="M285.9 196c-6.4-5.7-9.2-14.1-1.9-25.2-7.6 9.5-6.4 18.5 1.9 25.2z"/><path fill="#B12C2B" d="M303.8 213.8c-13.5-9.5-16-17.9-3-33.3-15 11.8-14.8 25.1 3 33.3z"/><path fill="#75C5F0" d="M299.2 210.2c-6.6-6-9.5-14.5-1.7-25.5-8.1 9.3-6.9 18.4 1.7 25.5z"/><path fill="#B12C2B" d="M281.4 99.2c-10.8-6.2-14.6-12.9-9-25.5-.8.5-1.6.9-2.4 1.2-5.4 11-2.1 20.3 11.4 24.3z"/><path fill="#75C5F0" d="M276.9 96.2c-5.7-4.5-8.7-11.8-4.2-22.7-.2 0-.4.1-.5.1-4.7 9.6-2.6 17.5 4.7 22.6z"/><path fill="#B12C2B" d="M312.7 160.6c-14.2-8.9-16.9-17.6-3.1-35.6-15.8 14.2-15.8 28.5 3.1 35.6z"/><path fill="#75C5F0" d="M307.9 157.1c-7-5.8-10-14.6-1.8-27.3-8.6 11-7.3 20.6 1.8 27.3z"/><path fill="#B12C2B" d="M315.4 195c-14.2-9.4-16.8-18-3-34.6-15.8 12.8-15.8 26.6 3 34.6z"/><path fill="#75C5F0" d="M310.6 191.3c-6.9-6-9.8-14.7-1.8-26.5-8.5 10.1-7.3 19.5 1.8 26.5z"/><path fill="#B12C2B" d="M301.2 180.7c-13.6-9-16.2-17.5-3.2-34.2-14.9 13-14.8 26.7 3.2 34.2z"/><path fill="#75C5F0" d="M296.6 177.2c-6.7-5.8-9.5-14.4-1.9-26.2-8.1 10.1-6.8 19.4 1.9 26.2z"/><path fill="#B12C2B" d="M268.7 85.6c-2.6-1.4-4.7-2.9-6.5-4.5-.5.3-1.1.5-1.6.7 2.2 1.7 4.8 2.9 8.1 3.8z"/><path fill="#75C5F0" d="M264.3 82.8c-1.2-.9-2.3-2.1-3.2-3.3l-.3.2c1 1.1 2.2 2.2 3.5 3.1z"/><path fill="#B12C2B" d="M280.2 217.6c-12.5-9.2-14.9-17.2-3.2-31.8-13.6 11.1-13.3 23.8 3.2 31.8z"/><path fill="#75C5F0" d="M275.9 214.1c-6.1-5.8-8.8-13.8-1.9-24.2-7.3 8.7-6 17.4 1.9 24.2z"/><path fill="#B12C2B" d="M271.9 119.8c-12.8-7.7-15.4-16-3.5-34.4-13.8 14.9-13.4 28.8 3.5 34.4z"/><path fill="#75C5F0" d="M267.5 116.8c-6.3-5.2-9-13.5-2.1-26.4-7.4 11.1-6 20.4 2.1 26.4z"/><path fill="#B12C2B" d="M259 107.3c-7.9-4.7-11.7-9.7-10.7-17.4l-2.1.3c-1.2 7.6 2.8 13.9 12.8 17.1z"/><path fill="#75C5F0" d="M254.7 104.4c-4.4-3.6-7.1-9-5.7-16.5l-.8.5c-1.2 6.5 1.1 12.1 6.5 16z"/><path fill="#B12C2B" d="M267.4 202.7c-12-8.7-14.5-16.6-3.3-31.4-13 11.4-12.6 23.9 3.3 31.4z"/><path fill="#75C5F0" d="M263.3 199.4c-6-5.5-8.6-13.5-2.1-24-6.9 8.9-5.6 17.4 2.1 24z"/><path fill="#B12C2B" d="M277 185.8c-12.5-8.7-15.1-16.8-3.3-32.5-13.5 12.2-13.3 25.3 3.3 32.5z"/><path fill="#75C5F0" d="M272.7 182.5c-6.2-5.5-8.9-13.7-2-24.9-7.3 9.5-6 18.3 2 24.9z"/><path fill="#B12C2B" d="M240.6 146.4c-11.3-7.5-13.7-15.3-3.6-31.5-11.8 12.9-11.3 25.6 3.6 31.5z"/><path fill="#75C5F0" d="M236.7 143.5c-5.6-5-8.2-12.8-2.2-24.2-6.3 9.8-5 18.4 2.2 24.2z"/><path fill="#B12C2B" d="M274.5 153.3c-12.6-8.2-15.2-16.4-3.3-33.4-13.7 13.5-13.4 26.9 3.3 33.4z"/><path fill="#75C5F0" d="M270.2 150.2c-6.2-5.4-9-13.6-2-25.6-7.3 10.2-6.1 19.3 2 25.6z"/><path fill="#B12C2B" d="M243.8 177.1c-11.2-8.1-13.6-15.7-3.5-30.8-11.8 11.8-11.3 24.2 3.5 30.8z"/><path fill="#75C5F0" d="M239.9 174c-5.5-5.2-8.1-12.9-2.2-23.5-6.2 9-4.9 17.4 2.2 23.5z"/><path fill="#B12C2B" d="M255.6 190c-11.7-8.4-14.1-16.2-3.5-31.1-12.3 11.6-11.8 24 3.5 31.1z"/><path fill="#75C5F0" d="M251.6 186.8c-5.7-5.4-8.3-13.2-2.2-23.8-6.5 8.9-5.2 17.4 2.2 23.8z"/><path fill="#B12C2B" d="M222.1 153c-10.6-7.4-12.8-14.8-3.7-30.1-10.8 12.2-10.2 24.3 3.7 30.1z"/><path fill="#75C5F0" d="M218.5 150.2c-5.3-4.8-7.7-12.3-2.4-23.1-5.7 9.3-4.4 17.4 2.4 23.1z"/><path fill="#B12C2B" d="M218.2 122.7c-1.3-.8-2.5-1.7-3.5-2.6-.2.2-.4.4-.5.7 1.2.7 2.5 1.4 4 1.9z"/><path fill="#B12C2B" d="M246.2 95.2c-.9-.5-1.8-1.1-2.6-1.6l-.6.5c.9.3 2 .7 3.2 1.1z"/><path d="M242.1 92.4l-.8-.6" fill="none"/><path fill="#B12C2B" d="M249.4 127.7c-11.8-7.5-14.2-15.4-3.5-32.7-12.5 13.9-12.1 27.1 3.5 32.7z"/><path fill="#75C5F0" d="M245.4 124.7c-5.8-5-8.4-12.9-2.3-25.1-6.6 10.4-5.3 19.3 2.3 25.1z"/><path fill="#B12C2B" d="M237.4 115.5c-4.4-2.7-7.4-5.6-9-9l-1.5 1.2c1.8 3.3 5.3 6 10.5 7.8z"/><path fill="#75C5F0" d="M233.5 112.7c-1.1-.9-2-1.9-2.8-3-.1 0-.2.1-.2.1.8 1.1 1.9 2 3 2.9z"/><path fill="#B12C2B" d="M261.8 139.9c-12.3-7.8-14.8-15.9-3.5-33.1-13.1 13.7-12.7 27.1 3.5 33.1z"/><path fill="#75C5F0" d="M257.6 136.8c-6-5.2-8.7-13.3-2.1-25.4-7 10.4-5.7 19.4 2.1 25.4z"/><path fill="#B12C2B" d="M264.9 171.9c-12.1-8.3-14.7-16.2-3.4-32.2-13.1 12.5-12.7 25.4 3.4 32.2z"/><path fill="#75C5F0" d="M260.7 168.7c-6-5.4-8.7-13.4-2.1-24.7-6.9 9.6-5.7 18.4 2.1 24.7z"/><path fill="#B12C2B" d="M252.5 159c-11.7-7.9-14.1-15.7-3.5-31.8-12.3 12.7-11.9 25.5 3.5 31.8z"/><path fill="#75C5F0" d="M248.5 155.9c-5.8-5.2-8.4-13.1-2.2-24.4-6.5 9.7-5.2 18.4 2.2 24.4z"/><path fill="#B12C2B" d="M246.3 305.1c-10.4-9.6-12.7-16.7-3.2-27-11 7.1-10.6 17.8 3.2 27z"/><path fill="#75C5F0" d="M242.8 301.5c-5.2-5.7-7.6-13-2.1-20.6-5.8 6.3-4.6 13.7 2.1 20.6z"/><path fill="#B12C2B" d="M282.6 248.5c-12.3-9.6-14.7-17.5-3.1-30.9-13.4 10-13.2 22.2 3.1 30.9z"/><path fill="#75C5F0" d="M278.5 244.9c-6.1-5.9-8.8-13.9-1.9-23.6-7.3 8.1-6 16.5 1.9 23.6z"/><path fill="#B12C2B" d="M324.7 323.9c-13.6-11.3-16.1-19.5-2.7-31-15.3 7.8-15.3 20 2.7 31z"/><path fill="#75C5F0" d="M320.1 319.7c-6.7-6.8-9.4-15-1.5-23.6-8.3 6.9-7.1 15.5 1.5 23.6z"/><path fill="#B12C2B" d="M327.3 353.9c-13.5-11.8-16-19.8-2.6-30.3-15.3 6.8-15.3 18.6 2.6 30.3z"/><path fill="#75C5F0" d="M322.7 349.6c-6.6-6.9-9.4-15.1-1.5-23-8.2 6.2-7.1 14.5 1.5 23z"/><path fill="#B12C2B" d="M346.6 225.8c-15.3-10.4-18.1-19.4-2.7-35.5-17.5 12.2-17.7 26.3 2.7 35.5z"/><path fill="#75C5F0" d="M341.5 221.8c-7.5-6.5-10.6-15.5-1.4-27.1-9.6 9.8-8.5 19.4 1.4 27.1z"/><path fill="#B12C2B" d="M311.9 307.9c-13.1-10.9-15.6-19-2.8-30.8-14.7 8.2-14.6 20.3 2.8 30.8z"/><path fill="#75C5F0" d="M307.5 303.9c-6.5-6.6-9.2-14.7-1.6-23.5-8 7.1-6.8 15.5 1.6 23.5z"/><path fill="#B12C2B" d="M314.3 337.6c-12.9-11.3-15.4-19.2-2.7-30-14.5 7.1-14.5 18.8 2.7 30z"/><path fill="#75C5F0" d="M310 333.4c-6.4-6.7-9.1-14.8-1.6-22.8-7.9 6.4-6.7 14.7 1.6 22.8z"/><path fill="#B12C2B" d="M301.3 322.1c-12.6-10.8-15.1-18.6-2.9-29.7-13.8 7.5-13.7 19.2 2.9 29.7z"/><path fill="#75C5F0" d="M297.1 318.1c-6.2-6.5-8.9-14.4-1.7-22.6-7.5 6.6-6.4 14.8 1.7 22.6z"/><path fill="#B12C2B" d="M232.3 165c-10.9-7.7-13.2-15.2-3.5-30.4-11.4 12-10.8 24.2 3.5 30.4z"/><path fill="#75C5F0" d="M228.6 162.1c-5.3-5-7.9-12.6-2.3-23.3-6 9.1-4.7 17.4 2.3 23.3z"/><path fill="#B12C2B" d="M257 341c-6.7-8-6.7-14.4 2.2-22.4-10.3 5.1-12 13.3-3.8 22 .5.1 1.1.2 1.6.4z"/><path fill="#75C5F0" d="M258.3 342.4c-5.7-6.3-8.2-13.8-1.8-21.1-6.8 5.7-5.6 13.4 1.8 21.1z"/><path fill="#B12C2B" d="M316.4 366.6c-12.8-11.6-15.3-19.5-2.7-29.2-14.4 6-14.4 17.4 2.7 29.2z"/><path fill="#75C5F0" d="M312 362.3c-6.3-6.8-9-14.8-1.5-22.2-7.8 5.8-6.7 13.9 1.5 22.2z"/><path fill="#B12C2B" d="M228.8 211.1c-10.4-8.2-12.7-15.5-3.5-28.8-10.7 10.1-10.2 21.7 3.5 28.8z"/><path fill="#75C5F0" d="M225.2 208c-5.1-5.2-7.6-12.5-2.2-22-5.7 8-4.5 15.8 2.2 22z"/><path fill="#B12C2B" d="M295.7 262.4c-12.8-10-15.2-18.1-3-31.3-14 9.7-13.9 22.1 3 31.3z"/><path fill="#75C5F0" d="M291.5 258.7c-6.3-6.1-9-14.3-1.8-23.9-7.7 7.9-6.5 16.5 1.8 23.9z"/><path fill="#B12C2B" d="M298.5 292.6c-12.7-10.4-15.2-18.3-3-30.5-14 8.6-13.9 20.6 3 30.5z"/><path fill="#75C5F0" d="M294.1 288.7c-6.3-6.3-9-14.4-1.8-23.2-7.5 7.2-6.3 15.6 1.8 23.2z"/><path fill="#B12C2B" d="M285.7 277.9c-12.2-10-14.7-17.8-3.1-30.2-13.3 8.9-13.1 20.8 3.1 30.2z"/><path fill="#75C5F0" d="M281.5 274.2c-6-6.1-8.7-14-1.9-23-7.1 7.4-5.9 15.7 1.9 23z"/><path fill="#B12C2B" d="M306.2 245.7c-13.3-10-15.9-18.2-3.1-32.4-14.7 10.5-14.6 23.4 3.1 32.4z"/><path fill="#75C5F0" d="M301.7 242c-6.6-6.2-9.4-14.6-1.8-24.8-8 8.5-6.8 17.4 1.8 24.8z"/><path fill="#B12C2B" d="M308.8 277.1c-13.2-10.5-15.7-18.6-2.9-31.6-14.7 9.3-14.7 21.7 2.9 31.6z"/><path fill="#75C5F0" d="M304.3 273.1c-6.6-6.4-9.3-14.6-1.7-24.1-7.9 7.8-6.7 16.5 1.7 24.1z"/><path fill="#B12C2B" d="M276 292.6c-11.7-10-14.1-17.6-3.1-29.1-12.7 8.1-12.5 19.6 3.1 29.1z"/><path fill="#75C5F0" d="M272 288.9c-5.8-6-8.4-13.7-1.9-22.2-6.8 6.9-5.6 14.9 1.9 22.2z"/><path fill="#B12C2B" d="M288.4 307.1c-12.1-10.4-14.5-18.1-3-29.4-13.2 7.9-13.1 19.4 3 29.4z"/><path fill="#75C5F0" d="M284.3 303.3c-6-6.3-8.6-14.1-1.8-22.4-7.1 6.7-6 14.8 1.8 22.4z"/><path fill="#B12C2B" d="M291 335.5c-12-10.8-14.3-18.4-2.9-28.7-13.1 6.9-13 18.1 2.9 28.7z"/><path fill="#75C5F0" d="M287 331.6c-5.9-6.4-8.5-14.1-1.8-21.8-7.1 6.1-5.9 14 1.8 21.8z"/><path fill="#B12C2B" d="M278.9 320.8c-11.6-10.4-14-17.8-3-28.5-12.6 7.2-12.4 18.4 3 28.5z"/><path fill="#75C5F0" d="M275 317c-5.8-6.2-8.3-13.8-1.8-21.7-6.9 6.3-5.7 14.2 1.8 21.7z"/><path fill="#B12C2B" d="M303.5 350.5c-12.5-11.2-14.9-18.9-2.9-29-13.7 6.5-13.6 17.8 2.9 29z"/><path fill="#75C5F0" d="M299.3 346.3c-6.1-6.6-8.7-14.4-1.7-22-7.5 6-6.3 14 1.7 22z"/><path fill="#B12C2B" d="M263.4 277.9c-11.4-9.6-13.6-17-3.3-28.8-12 8.4-11.6 19.9 3.3 28.8z"/><path fill="#75C5F0" d="M259.6 274.3c-5.6-5.9-8.2-13.4-2-22-6.5 7.1-5.3 15.1 2 22z"/><path fill="#B12C2B" d="M235.9 194.9c-10.8-8.2-13.1-15.6-3.5-29.7-11.3 10.9-10.8 22.8 3.5 29.7z"/><path fill="#75C5F0" d="M232.2 191.8c-5.3-5.2-7.8-12.7-2.2-22.7-6 8.4-4.7 16.5 2.2 22.7z"/><path fill="#B12C2B" d="M252.4 263.5c-11-9.2-13.3-16.6-3.3-28.6-11.6 8.7-11.2 20.1 3.3 28.6z"/><path fill="#75C5F0" d="M248.6 260.1c-5.4-5.7-7.9-13.1-2.1-21.9-6.1 7.2-4.9 15.1 2.1 21.9z"/><path fill="#B12C2B" d="M266.3 305.8c-11.2-9.9-13.5-17.3-3.1-28.1-12.1 7.5-11.8 18.6 3.1 28.1z"/><path fill="#75C5F0" d="M262.5 302.1c-5.6-6-8-13.4-1.9-21.4-6.5 6.4-5.4 14.2 1.9 21.4z"/><path fill="#B12C2B" d="M254.9 291.9c-10.8-9.5-13.1-16.8-3.2-27.9-11.6 7.8-11.2 18.9 3.2 27.9z"/><path fill="#75C5F0" d="M251.2 288.4c-5.4-5.8-7.9-13.1-2-21.3-6.2 6.7-5 14.3 2 21.3z"/><path fill="#B12C2B" d="M261.1 249.3c-11.4-9.2-13.8-16.8-3.2-29.5-12.2 9.4-11.9 21.1 3.2 29.5z"/><path fill="#75C5F0" d="M257.2 245.9c-5.7-5.7-8.2-13.3-2-22.6-6.5 7.7-5.3 15.7 2 22.6z"/><path fill="#B12C2B" d="M237.3 291.5c-10.2-9.2-12.4-16.2-3.3-26.9-10.7 7.5-10.2 18.1 3.3 26.9z"/><path fill="#75C5F0" d="M233.7 288.1c-5-5.6-7.4-12.7-2.2-20.5-5.5 6.4-4.3 13.8 2.2 20.5z"/><path fill="#B12C2B" d="M269.6 333.2c-11.2-10.3-13.5-17.6-3-27.5-12 6.6-11.7 17.4 3 27.5z"/><path fill="#75C5F0" d="M265.9 329.4c-5.6-6.1-8-13.6-1.9-21-6.5 6-5.3 13.6 1.9 21z"/><path fill="#B12C2B" d="M239 317.9c-10.1-9.5-12.3-16.4-3.2-26.2-10.5 6.7-10.1 17 3.2 26.2z"/><path fill="#75C5F0" d="M235.5 314.4c-5-5.7-7.3-12.7-2.1-19.9-5.5 5.8-4.3 13.1 2.1 19.9z"/><path fill="#B12C2B" d="M247.2 206.6c-11.2-8.5-13.5-16-3.4-30-11.8 10.7-11.4 22.7 3.4 30z"/><path fill="#75C5F0" d="M243.4 203.4c-5.5-5.4-8-13-2.2-23-6.2 8.4-5 16.6 2.2 23z"/><path fill="#B12C2B" d="M249.5 235.4c-11-8.8-13.4-16.2-3.3-29.3-11.7 9.7-11.3 21.4 3.3 29.3z"/><path fill="#75C5F0" d="M245.8 232c-5.5-5.5-8-13-2.1-22.4-6.2 7.9-5 15.9 2.1 22.4z"/><path fill="#B12C2B" d="M239 222.7c-10.6-8.5-12.7-15.9-2.9-29-11.4 9.9-11.2 21.5 2.9 29z"/><path fill="#75C5F0" d="M235.3 219.5c-5.3-5.2-7.7-12.3-2.2-21.4-5.9 7.6-4.7 15.3 2.2 21.4z"/><path fill="#B12C2B" d="M270.5 233.3c-11.9-9.2-14.3-16.9-3.2-30.6-12.9 10.2-12.6 22.3 3.2 30.6z"/><path fill="#75C5F0" d="M266.5 229.7c-5.9-5.7-8.6-13.5-2-23.4-6.9 8.3-5.7 16.7 2 23.4z"/><path fill="#B12C2B" d="M273.1 263.1c-11.9-9.6-14.3-17.2-3.2-29.9-12.8 9.2-12.5 21.1 3.2 29.9z"/><path fill="#75C5F0" d="M269 259.5c-5.8-5.9-8.4-13.7-1.9-22.8-6.8 7.6-5.7 15.8 1.9 22.8z"/><path fill="#B12C2B" d="M231.1 238c-9.9-8.6-11.8-15.7-1.9-28.1-11.2 9.3-11.3 20.4 1.9 28.1z"/><path fill="#75C5F0" d="M228.4 235.5c-5.1-5.2-7.5-12.3-2.2-21.1-5.7 7.4-4.4 14.9 2.2 21.1z"/><path fill="#B12C2B" d="M242.1 250.9c-10.6-8.9-13-16.2-3.4-28.4-11.1 9-10.7 20.3 3.4 28.4z"/><path fill="#75C5F0" d="M238.4 247.6c-5.3-5.5-7.7-12.8-2.1-21.7-5.9 7.3-4.7 15.1 2.1 21.7z"/><path fill="#B12C2B" d="M243.9 278.8c-10.6-9.3-12.8-16.4-3.2-27.6-11.2 8-10.8 19 3.2 27.6z"/><path fill="#75C5F0" d="M240.2 275.4c-5.2-5.7-7.6-12.9-2-21.1-5.9 6.8-4.7 14.3 2 21.1z"/><path fill="#B12C2B" d="M234.4 265.3c-10.3-8.9-12.5-16-3.4-27.5-10.7 8.3-10.2 19.2 3.4 27.5z"/><path fill="#75C5F0" d="M230.8 261.9c-5.1-5.4-7.4-12.6-2.2-20.9-5.6 6.8-4.4 14.4 2.2 20.9z"/><path fill="#B12C2B" d="M257.4 318.7c-10.8-9.9-13-17.1-3.1-27.3-11.5 6.9-11.1 17.6 3.1 27.3z"/><path fill="#75C5F0" d="M253.8 315c-5.3-5.9-7.8-13.2-2-20.7-6.1 6-4.9 13.5 2 20.7z"/><path fill="#B12C2B" d="M250.2 331.2c-10.4-9.9-12.6-16.9-3.1-26.4-11.1 6.3-10.6 16.7 3.1 26.4z"/><path fill="#75C5F0" d="M246.7 327.5c-5.2-5.8-7.5-13-2-20.1-5.9 5.8-4.7 13.1 2 20.1z"/><path fill="#B12C2B" d="M257.9 219.2c-11.5-8.8-13.9-16.5-3.3-30.3-12.3 10.5-11.9 22.6 3.3 30.3z"/><path fill="#75C5F0" d="M253.9 215.9c-5.7-5.6-8.2-13.3-2.1-23.2-6.5 8.3-5.2 16.6 2.1 23.2z"/><path fill="#B12C2B" d="M214.3 303.4c-.6-3.9.9-8 5.1-12.8-4.7 3.1-7 7-6.8 11.2.5.4 1.1.9 1.6 1.4l.1.2z"/><path fill="#75C5F0" d="M215.9 307.1c-1.9-4.3-1.9-9 1.4-13.9-3.7 4.1-4.1 8.9-1.9 13.6.2 0 .3.1.5.3-.1-.1 0-.1 0 0z"/><path fill="#B12C2B" d="M229.7 304.4c-9.8-9.2-11.9-16-3.3-26-10.2 6.9-9.7 17.2 3.3 26z"/><path fill="#75C5F0" d="M226.3 301c-4.9-5.5-7.2-12.5-2.1-19.8-5.3 5.9-4.2 13.1 2.1 19.8z"/><path fill="#B12C2B" d="M227.1 278.6c-9.9-8.9-12-15.8-3.3-26.6-10.3 7.7-9.8 18.2 3.3 26.6z"/><path fill="#75C5F0" d="M223.7 275.2c-4.9-5.4-7.2-12.4-2.2-20.3-5.4 6.5-4.1 13.8 2.2 20.3z"/><path fill="#B12C2B" d="M229.5 133.9c-8.2-5.4-11.6-11-8.8-20.3l-.5.2c-.4.2-.9.3-1.3.4-2.9 8.5.5 15.9 10.6 19.7z"/><path fill="#75C5F0" d="M225.6 131.1c-4.3-3.9-6.8-9.5-4.8-17.5l-.6.2c-2 7 .1 13 5.4 17.3z"/><path fill="#B12C2B" d="M220.1 291.2c-9.6-8.8-11.7-15.6-3.4-25.8-9.8 7.1-9.2 17.3 3.4 25.8z"/><path fill="#B12C2B" d="M215.1 169.2c-10.2-7.5-12.4-14.7-3.6-29.2-10.4 11.3-9.8 23.1 3.6 29.2z"/><path fill="#75C5F0" d="M211.6 166.3c-5.1-4.8-7.5-12.1-2.4-22.4-5.4 8.8-4.2 16.7 2.4 22.4z"/><path fill="#B12C2B" d="M210.5 278.6c-9.3-8.6-11.4-15.2-3.4-25.7-9.4 7.5-8.8 17.6 3.4 25.7z"/><path fill="#75C5F0" d="M207.3 275.4c-4.6-5.3-6.9-12-2.3-19.6-4.9 6.3-3.7 13.3 2.3 19.6z"/><path fill="#B12C2B" d="M201 266.8c-9-8.3-11.1-14.9-3.4-25.4-9.1 7.6-8.4 17.8 3.4 25.4z"/><path fill="#75C5F0" d="M197.9 263.7c-4.5-5.1-6.7-11.7-2.3-19.4-4.7 6.4-3.5 13.4 2.3 19.4z"/><path fill="#B12C2B" d="M218.4 197.5c-10.1-7.9-12.4-15.1-3.6-28.6-10.3 10.4-9.7 21.9 3.6 28.6z"/><path fill="#75C5F0" d="M215 194.5c-5-5-7.5-12.2-2.4-21.8-5.5 8.1-4.2 15.9 2.4 21.8z"/><path fill="#B12C2B" d="M208 185.6c-9.8-7.6-12-14.6-3.6-28.3-9.9 10.6-9.2 22 3.6 28.3z"/><path fill="#75C5F0" d="M204.7 182.7c-4.9-4.9-7.3-12-2.4-21.6-5.2 8.2-4 15.9 2.4 21.6z"/><path fill="#B12C2B" d="M217.1 265.5c-9.6-8.6-11.8-15.5-3.4-26.4-9.8 7.9-9.3 18.4 3.4 26.4z"/><path fill="#75C5F0" d="M213.8 262.3c-4.8-5.3-7.1-12.2-2.2-20.2-5.2 6.6-4 13.8 2.2 20.2z"/><path fill="#B12C2B" d="M224.1 252.4c-9.8-8.6-11.8-15.5-2.9-27.2-10.4 8.6-10.1 19.4 2.9 27.2z"/><path fill="#75C5F0" d="M221.1 249.3c-4.9-5.3-7.3-12.4-2.2-20.8-5.4 7-4.2 14.4 2.2 20.8z"/><path fill="#B12C2B" d="M194.7 215.7c-9.1-7.7-11.2-14.4-3.6-26.5-9.1 9.2-8.4 19.8 3.6 26.5z"/><path fill="#75C5F0" d="M191.5 212.8c-4.6-4.8-6.8-11.6-2.4-20.3-4.7 7.3-3.4 14.5 2.4 20.3z"/><path fill="#B12C2B" d="M221.4 225.4c-10.1-8.2-12.3-15.3-3.5-27.9-10.3 9.4-9.7 20.6 3.5 27.9z"/><path fill="#75C5F0" d="M217.9 222.3c-5-5.2-7.4-12.3-2.3-21.4-5.4 7.6-4.1 15.2 2.3 21.4z"/><path fill="#B12C2B" d="M197.9 241.5c-9.1-8-11.2-14.6-3.5-26-9 8.5-8.3 18.8 3.5 26z"/><path fill="#75C5F0" d="M194.8 238.5c-4.5-4.9-6.7-11.7-2.3-19.8-4.7 6.8-3.5 13.9 2.3 19.8z"/><path fill="#B12C2B" d="M207.5 253.6c-9.4-8.3-11.4-15-3.5-26.2-9.4 8.1-8.7 18.6 3.5 26.2z"/><path fill="#75C5F0" d="M204.3 250.4c-4.7-5.1-6.9-11.9-2.3-20-4.9 6.7-3.7 14 2.3 20z"/><path fill="#B12C2B" d="M204.4 157.5c-5.8-4.2-8.9-8.4-8.9-14-.5.5-1 1-1.6 1.4.5 5.2 3.9 9.7 10.5 12.6z"/><path fill="#75C5F0" d="M201.1 154.7c-2.9-2.7-4.9-6.3-5.1-10.8l-.5.4c.3 4 2.2 7.6 5.6 10.4z"/><path fill="#B12C2B" d="M225.6 183.7c-10.5-7.9-12.8-15.2-3.5-29.4-10.9 11.1-10.3 22.9 3.5 29.4z"/><path fill="#75C5F0" d="M221.9 180.7c-5.2-5-7.6-12.4-2.3-22.5-5.6 8.6-4.4 16.6 2.3 22.5z"/><path fill="#B12C2B" d="M211.2 140c-3.3-2.3-5.7-4.6-7.3-7.1-.3.4-.6.9-1 1.3 1.9 2.3 4.6 4.3 8.3 5.8z"/><path fill="#75C5F0" d="M207.7 137.2c-1.7-1.6-3.1-3.5-4.1-5.7-.1.1-.2.2-.3.4 1.1 2 2.5 3.7 4.4 5.3z"/><path fill="#B12C2B" d="M187.8 162.8l-.8-.6-.1.2.9.4z"/><path fill="#B12C2B" d="M197.7 174c-9.5-7.3-11.6-14.2-3.6-28-9.5 10.8-8.8 22.1 3.6 28z"/><path fill="#75C5F0" d="M194.5 171.2c-4.7-4.7-7.1-11.7-2.4-21.4-5 8.3-3.7 16 2.4 21.4z"/><path fill="#B12C2B" d="M201.1 201.2c-9.5-7.7-11.6-14.5-3.6-27.4-9.4 9.8-8.7 20.9 3.6 27.4z"/><path fill="#75C5F0" d="M197.9 198.3c-4.7-4.9-7-11.8-2.4-21-5 7.8-3.7 15.3 2.4 21z"/><path fill="#B12C2B" d="M191.4 189.7c-9.2-7.3-11.3-14.2-3.7-27.1-9 10-8.3 20.9 3.7 27.1z"/><path fill="#75C5F0" d="M188.3 186.9c-4.6-4.7-6.8-11.5-2.4-20.7-4.8 7.7-3.5 15.1 2.4 20.7z"/><path fill="#B12C2B" d="M211 212.8c-9.7-7.9-11.9-14.9-3.5-27.6-9.8 9.6-9.2 20.7 3.5 27.6z"/><path fill="#75C5F0" d="M207.8 209.7c-4.9-5-7.2-12-2.3-21.1-5.3 7.7-4 15.2 2.3 21.1z"/><path fill="#B12C2B" d="M214.3 239.6c-9.7-8.3-11.8-15.2-3.5-27-9.8 8.8-9.2 19.5 3.5 27z"/><path fill="#75C5F0" d="M211 236.5c-4.9-5.1-7.1-12.1-2.3-20.7-5.2 7.2-3.9 14.6 2.3 20.7z"/><path fill="#B12C2B" d="M204.4 227.5c-9.4-8-11.5-14.8-3.5-26.8-9.5 9-8.9 19.8 3.5 26.8z"/><path fill="#75C5F0" d="M201.2 224.5c-4.7-5-6.9-11.9-2.4-20.5-4.9 7.2-3.7 14.6 2.4 20.5z"/><path fill="#B12C2B" d="M191.9 255.2c-8.8-8.1-10.8-14.5-3.5-25.2-8.7 7.7-8 17.8 3.5 25.2z"/><path fill="#75C5F0" d="M188.9 252.2c-4.4-4.9-6.5-11.5-2.3-19.3-4.6 6.4-3.4 13.3 2.3 19.3z"/><path fill="#B12C2B" d="M182.3 178c-.7-.6-1.4-1.1-2-1.7-.1.1-.2.2-.4.3l2.4 1.4z"/><path fill="#B12C2B" d="M182.6 242.6c-8.5-7.7-10.5-14.1-3.5-25-8.3 8.1-7.6 18 3.5 25z"/><path fill="#75C5F0" d="M179.7 239.7c-4.3-4.8-6.4-11.3-2.4-19.1-4.3 6.5-3.1 13.4 2.4 19.1z"/><path fill="#B12C2B" d="M188.5 229.9c-8.8-7.7-10.9-14.3-3.5-25.7-8.8 8.5-8.1 18.9 3.5 25.7z"/><path fill="#75C5F0" d="M185.4 227c-4.4-4.8-6.5-11.4-2.4-19.7-4.5 6.9-3.3 14 2.4 19.7z"/><path fill="#B12C2B" d="M185.4 204.2c-8.9-7.4-10.9-14-3.6-26.3-8.7 9.4-7.9 20 3.6 26.3z"/><path fill="#75C5F0" d="M182.4 201.4c-4.4-4.6-6.6-11.4-2.4-20.1-4.6 7.4-3.3 14.6 2.4 20.1z"/><path fill="#B12C2B" d="M170.5 207c-8.1-7.3-10-13.5-3.6-24.6-7.7 8.4-6.9 18.2 3.6 24.6z"/><path fill="#75C5F0" d="M167.7 204.2c-4.1-4.5-6.1-10.9-2.4-18.8-4 6.7-2.8 13.4 2.4 18.8z"/><path fill="#B12C2B" d="M174.1 231.7c-8.3-7.5-10.2-13.8-3.5-24.8-8.1 8.2-7.3 18.1 3.5 24.8z"/><path fill="#75C5F0" d="M171.3 228.9c-4.2-4.7-6.2-11.1-2.4-19-4.3 6.6-3 13.4 2.4 19z"/><path fill="#B12C2B" d="M179.7 218.1c-8.6-7.4-10.6-13.9-3.6-25.5-8.4 8.7-7.6 18.9 3.6 25.5z"/><path fill="#75C5F0" d="M176.7 215.2c-4.3-4.7-6.4-11.2-2.4-19.5-4.4 7-3.1 14 2.4 19.5z"/><path fill="#B12C2B" d="M165 257c-7.8-7.5-9.7-13.5-3.5-23.4-7.4 7.2-6.6 16.5 3.5 23.4z"/><path fill="#75C5F0" d="M162.3 254.2c-3.9-4.6-5.9-10.7-2.4-17.9-3.9 6-2.7 12.4 2.4 17.9z"/><path fill="#B12C2B" d="M160.4 233.7c-7.9-7.2-9.8-13.4-3.6-24-7.4 7.9-6.6 17.5 3.6 24z"/><path fill="#B12C2B" d="M168.7 244.6c-8-7.5-10-13.6-3.5-24.1-7.7 7.7-6.9 17.3 3.5 24.1z"/><path fill="#75C5F0" d="M166 241.8c-4-4.6-6.1-10.9-2.4-18.4-4 6.2-2.8 12.9 2.4 18.4z"/><path fill="#B12C2B" d="M170.1 266.8c-6.8-7.2-8-13.2-1.8-22.5-7.4 6.7-7.3 15.5 1.5 22.5.1.1.2 0 .3 0z"/><path fill="#75C5F0" d="M168.6 265.1c-3.9-4.7-5.8-10.9-1.9-18.1-4.2 5.9-3.1 12.4 1.9 18.1z"/><path fill="#B12C2B" d="M176.3 255.5c-7.9-7.7-9.5-14-2.4-24.2-8.3 7.5-8 17.1 2.4 24.2z"/><path fill="#75C5F0" d="M173.6 252.6c-3.9-4.7-5.7-11-1.5-18.6-4.4 6.3-3.5 12.9 1.5 18.6z"/><path fill="#B12C2B" d="M172 266.2c-.1-3.2 1.2-6.7 4.1-10.9-3.9 3.3-5.6 7.1-5.4 11.1.5-.1.9-.2 1.3-.2z"/><path fill="#75C5F0" d="M172.4 266.6c-.2-2.7.3-5.6 2-8.7-2 2.8-2.8 5.8-2.5 8.7.2.1.4 0 .5 0z"/><path fill="#B12C2B" d="M170.4 206.9c-8.1-7.2-10-13.5-3.6-24.6-7.7 8.4-6.9 18.3 3.6 24.6z"/><path fill="#75C5F0" d="M167.7 204.2c-4.1-4.6-6.1-10.9-2.5-18.8-4 6.7-2.7 13.4 2.5 18.8z"/><path fill="#B12C2B" d="M182.6 264.6c-6.3-6.9-7.3-12.9-1-22-7.4 6.5-7.6 15.1.4 22.1.1 0 .4-.1.6-.1z"/><path fill="#75C5F0" d="M182.1 264.1c-4.2-4.9-6.3-11.3-2.3-18.7-4.4 6.1-3.1 12.8 2.3 18.7z"/><path fill="#B12C2B" d="M204.9 290.6c-.5-3.8 1-7.7 4.8-12.4-4.4 3.2-6.6 7-6.4 11.1.6.5 1.1.9 1.6 1.3z"/><path fill="#75C5F0" d="M205.3 290.1c-.2-2.9.5-6 2.5-9.1-2.3 2.7-3.3 5.7-3 8.7.1.1.3.2.5.4z"/><path fill="#75C5F0" d="M216.6 288c-4.8-5.3-7-12.1-2.2-19.7-5.1 6.2-4 13.3 2.2 19.7z"/><path fill="#B12C2B" d="M186.8 264.9c.4-2.8 1.8-5.9 4.4-9.4-3.4 2.8-5.4 6-5.8 9.3h.5c.2.1.5.1.9.1z"/><path fill="#75C5F0" d="M187 265.5c.1-2.3.8-4.7 2.3-7.2-1.8 2.3-2.7 4.8-2.8 7.2h.5z"/><path fill="#B12C2B" d="M196.8 274.1c.7-2.2 2-4.6 4.1-7.2-2.5 1.9-4.3 4.1-5.3 6.4l1.2.8z"/><path fill="#75C5F0" d="M196.6 276c.2-2.1 1-4.2 2.3-6.4-1.6 2-2.5 4.1-2.8 6.3l.5.1z"/><path fill="#B12C2B" d="M310.4 125.5c-14.4-8.3-17.2-17.2-3.2-36.7-16 15.8-16 30.6 3.2 36.7z"/><path fill="#75C5F0" d="M305.5 122.3c-7.1-5.5-10.1-14.5-1.9-28.1-8.6 11.7-7.3 21.6 1.9 28.1z"/><path fill="#B12C2B" d="M307.2 89.1c-12.3-6.5-16.2-13.9-8.6-28.7-.7.3-1.5.5-2.1.7-7.9 13-5 23.9 10.7 28z"/><path fill="#75C5F0" d="M302.3 86c-6.6-4.9-9.7-12.9-3.7-25.6-.1.1-.3.1-.4.1-6.2 11.2-4.4 20.1 4.1 25.5z"/><path fill="#B12C2B" d="M292.6 76.1c-4.7-2.4-8.1-5.1-10.1-8.2-.6.4-1.4.8-2 1.1 2.4 3.2 6.3 5.6 12.1 7.1z"/><path fill="#75C5F0" d="M287.9 73.1c-1.9-1.3-3.4-3-4.6-4.9-.1.1-.3.2-.4.2 1.3 1.8 2.9 3.4 5 4.7z"/><path fill="#B12C2B" d="M319.4 64.5c-4.7-2.4-8.3-4.8-10.5-7.8-.8.3-1.7.6-2.5.8 2.5 3.2 6.9 5.6 13 7z"/><path fill="#75C5F0" d="M314.2 61.5c-2.3-1.6-4.3-3.6-5.5-6l-.6.2c1.4 2.1 3.4 4.1 6.1 5.8z"/><path fill="#B12C2B" d="M295.6 112.1c-13.8-7.9-16.5-16.6-3.3-36.2-15.2 15.9-15.1 30.6 3.3 36.2z"/><path fill="#75C5F0" d="M290.9 109c-6.8-5.3-9.7-14.1-2-27.8-8.2 11.8-6.8 21.6 2 27.8z"/><path fill="#B12C2B" d="M298.5 147.1c-13.7-8.5-16.4-17.1-3.2-35.2-15.2 14.4-15 28.6 3.2 35.2z"/><path fill="#75C5F0" d="M293.9 143.7c-6.8-5.5-9.7-14.2-1.9-26.9-8.3 10.9-6.9 20.5 1.9 26.9z"/><path fill="#B12C2B" d="M284.6 133.6c-13.2-8.1-15.8-16.5-3.3-34.8-14.4 14.7-14.2 28.7 3.3 34.8z"/><path fill="#75C5F0" d="M280.2 130.4c-6.5-5.3-9.4-13.9-2-26.6-7.8 11-6.5 20.4 2 26.6z"/><g transform="matrix(3.382 0 0 3.382 -9.027 -13.55)"><ellipse fill="#DA251D" cx="102.6" cy="65" rx="4.6" ry="5.3"/><path fill="#fff" d="M102.6 70.3c-1.2 0-2.4-.6-3.3-1.6-.9-1-1.3-2.3-1.3-3.8s.5-2.8 1.3-3.8c.9-1 2-1.6 3.3-1.6.6 0 1.2.1 1.8.4.5.3 1 .7 1.5 1.1.9 1 1.3 2.3 1.3 3.8s-.5 2.8-1.3 3.8c-.4.5-.9.9-1.5 1.1-.6.5-1.2.6-1.8.6zm0-10.6c-1.2 0-2.4.6-3.3 1.6-.9 1-1.3 2.3-1.3 3.8s.5 2.8 1.3 3.8c.9 1 2 1.6 3.3 1.6 1.2 0 2.4-.6 3.3-1.6.9-1 1.3-2.3 1.3-3.8s-.5-2.8-1.3-3.8c-.9-1.1-2.1-1.6-3.3-1.6z"/><ellipse fill="#0A0B0C" cx="103.1" cy="64.8" rx="2.3" ry="2.6"/><path fill="#B42A28" d="M100.5 68.5c-2.5-2.4-1.7-7.8 1.6-7.1-3.9.5-2.5 6.1-1.6 7.1z"/><path fill="#fff" d="M102.7 63c-.6-.1-1 .3-1.2.8.4-.2 1 .5 1.4.8-.9-.8-1-1.4-.2-1.6z"/></g><path fill="#B12C2B" fill-opacity=".749" d="M206.6 186.1c-4.9 4.3-28.9 17.5-56 12-.5-.1 16.3 10.1 47.6.2 26.3-8.4 17-58 94.2-95.9-54.6 19-57.9 38.2-85.8 83.7z"/><path fill="#B12C2B" d="M312.3 163.1c72.3 25.5 123 20.8 132.2 3.4l1.3 8.8c-36.1 25.6-84.1 7.5-133.5-12.2z"/><path fill="#B12C2B" fill-opacity=".749" d="M381.9 43.4c-37.7-1.8-74.6 21.4-64.2 66.3.5 2.1 1.1 4.3 1.8 6.5-10.8-19.9-1.5-2.9-1.7-3.5l-1-2.5c-13.3-40.5 23.6-75.8 65.1-66.8z"/><g fill="#AD2927"><path d="M432.694 222.193c-.338-.676-.676-3.044-.338-2.368 0 .338.676.676 1.015.676.676-.338 1.353.338 1.691 1.015.338 1.015 0 1.691-.676 2.029-.676.338-1.353-.338-1.691-1.353z"/><path d="M418.151 222.869c.338-.676.676-3.044.338-2.368 0 .338-.676.676-1.015.676-.676-.338-1.353.338-1.691 1.015-.338 1.015 0 1.691.676 2.029 1.015 0 1.691-.676 1.691-1.353z"/></g><path fill="#B12C2B" d="M287.5 233.9c11.7 71.4 56.6 124.1 113.1 73.9 2.7-2.4 5.4-5 8.1-7.8-22.7 33.7-3.4 4.8-4.1 5.6-1 1.2-2 2.4-3.1 3.5-49.5 52.5-110.6 8.1-114-75.2z"/><path fill="#B12C2B" d="M421.9 117.5c-18.2-9.3-21.4-19.3-2.4-41.8-21.4 18.2-22.1 35.1 2.4 41.8z"/><path fill="#75C5F0" d="M415.7 113.9c-9-6.2-12.4-16.4-1.1-32-11.7 13.5-10.5 24.8 1.1 32z"/><path fill="#B12C2B" d="M423.6 157.7c-17.9-10.1-21.1-19.9-2.3-40.5-21.1 16.3-21.7 32.5 2.3 40.5z"/><path fill="#75C5F0" d="M417.5 153.9c-8.8-6.6-12.2-16.5-1-31-11.6 12.3-10.4 23.3 1 31z"/><path fill="#B12C2B" d="M405.9 142c-17.3-9.5-20.3-19.3-2.6-39.9-20 16.5-20.5 32.5 2.6 39.9z"/><path fill="#75C5F0" d="M400 138.3c-8.5-6.3-11.8-16.1-1.2-30.6-11 12.5-9.8 23.3 1.2 30.6z"/><path fill="#B12C2B" d="M403.3 102.3c-17.4-8.8-20.5-18.6-2.6-41.1-20.2 18.3-20.7 34.9 2.6 41.1z"/><path fill="#75C5F0" d="M397.4 98.9c-8.5-6-11.9-15.9-1.3-31.6-11 13.5-9.8 24.7 1.3 31.6z"/><path fill="#B12C2B" d="M454.9 110.1c-18.2-9.3-21.4-19.3-2.4-41.8-21.4 18.2-22 35.1 2.4 41.8z"/><path fill="#75C5F0" d="M448.7 106.5c-9-6.2-12.4-16.4-1.1-32-11.7 13.5-10.5 24.8 1.1 32z"/><path fill="#B12C2B" d="M453.8 148.6c-15.3-9.5-17.1-19.4.7-38.8-20.1 15.5-21.7 30.9-1 39.3 0-.1.1-.3.3-.5z"/><path fill="#75C5F0" d="M450.6 146.5c-8.8-6.6-12.2-16.5-1-31-11.6 12.3-10.4 23.3 1 31z"/><path fill="#B12C2B" d="M438.9 134.6c-17.3-9.5-20.3-19.3-2.6-39.9-20 16.5-20.4 32.5 2.6 39.9z"/><path fill="#75C5F0" d="M433.1 130.9c-8.5-6.3-11.8-16.1-1.2-30.6-11.1 12.5-9.8 23.3 1.2 30.6z"/><path fill="#B12C2B" d="M436.4 94.9c-17.4-8.8-20.5-18.6-2.6-41.1-20.3 18.3-20.7 34.9 2.6 41.1z"/><path fill="#75C5F0" d="M430.5 91.5c-8.5-6-11.9-15.9-1.3-31.6-11.1 13.5-9.8 24.7 1.3 31.6z"/><path fill="#B12C2B" d="M412.8 181.3c-1.4-6.7 2.4-15.1 12.6-27.1-11.6 9.8-17.1 19.2-15.8 26.9h.5c.9 0 1.8.1 2.7.2z"/><path fill="#75C5F0" d="M413.5 180.4c-.8-5.4 1.1-12 7-20.1-6.6 7.6-9.1 14.5-8 20.3.4 0 .7-.1 1-.2z"/><path fill="#B12C2B" d="M440.9 173.5c-17.9-10.1-21.1-19.9-2.3-40.5-21.1 16.3-21.7 32.5 2.3 40.5z"/><path fill="#75C5F0" d="M434.8 169.6c-8.8-6.6-12.2-16.5-1-31-11.6 12.4-10.4 23.4 1 31z"/><path fill="#B12C2B" d="M417.7 78.8c-17.3-9.5-20.3-19.3-2.6-39.9-20 16.5-20.4 32.5 2.6 39.9z"/><path fill="#75C5F0" d="M411.9 75.1c-8.5-6.3-11.8-16.1-1.2-30.6-11.1 12.5-9.9 23.3 1.2 30.6z"/><path fill="#B12C2B" d="M409.2 180.7c-17.4-8.8-20.5-18.6-2.6-41.1-20.2 18.4-20.6 35 2.6 41.1z"/><path fill="#75C5F0" d="M403.3 177.3c-8.5-6-11.9-15.9-1.3-31.6-11 13.6-9.7 24.7 1.3 31.6z"/><path fill="#B12C2B" d="M386.3 42c-10.7-5.4-16.2-11.1-15.1-19.4h-1.7c-.5 0-.9 0-1.4-.1-1.3 8.7 4.5 15.7 18.2 19.5z"/><path fill="#75C5F0" d="M380.2 38.4c-5.3-3.6-8.6-8.6-8.2-15.3l-1.1-.1c-.4 6.2 2.8 11.4 9.3 15.4z"/><path fill="#B12C2B" d="M388.1 82.3c-17.9-10.1-21.1-19.9-2.3-40.5-21.1 16.3-21.7 32.4 2.3 40.5z"/><path fill="#75C5F0" d="M382 78.4c-8.8-6.6-12.2-16.5-1-31-11.6 12.3-10.4 23.3 1 31z"/><path fill="#B12C2B" d="M370.4 66.5c-17.3-9.5-20.3-19.3-2.6-39.9-20.1 16.5-20.5 32.5 2.6 39.9z"/><path fill="#75C5F0" d="M364.5 62.8c-8.5-6.3-11.8-16.1-1.2-30.6-11.1 12.5-9.8 23.3 1.2 30.6z"/><path fill="#B12C2B" d="M367.8 26.8c-2.4-1.2-4.5-2.4-6.3-3.7-.7.2-1.5.3-2.3.4 2.4 1.3 5.2 2.4 8.6 3.3z"/><path fill="none" d="M361.9 23.4l-.3-.2"/><path fill="#B12C2B" d="M402.6 62.3c-16.9-8.6-20.8-17.8-6.3-36.9l-.9-.4c-16.5 16.4-15.2 31.1 7.2 37.3z"/><path fill="#75C5F0" d="M396.4 58.6c-9-6.2-12.4-16.4-1.1-32-11.7 13.5-10.5 24.8 1.1 32z"/><path fill="#B12C2B" d="M433.5 56.1c-11.2-6.3-16.6-12.4-14.6-21.2-.9-.6-1.7-1.3-2.4-2.1-3.6 9.7 1.7 18.2 17 23.3z"/><path fill="#75C5F0" d="M427.4 52.2c-5.6-4.2-9-9.8-7.8-17-.3-.2-.6-.4-1-.6-1.4 6.8 1.7 12.8 8.8 17.6z"/><path fill="#B12C2B" d="M415.7 40.3c-7.3-4-12-8.1-13.7-13-1.2-.3-2.3-.8-3.4-1.4 1.3 6.1 6.9 11.1 17.1 14.4z"/><path fill="#75C5F0" d="M409.9 36.7c-3.3-2.5-5.9-5.5-7.1-9.2l-1-.3c1.3 3.5 4 6.7 8.1 9.5z"/><path fill="#B12C2B" d="M451.2 69.7c-11.2-5.6-16.5-11.7-14-21.3-.8-.6-1.5-1.4-2.1-2.1-4.3 10.7.7 19.4 16.1 23.4z"/><path fill="#75C5F0" d="M445.3 66.3c-5.7-4-9.1-9.7-7.6-17.8-.3-.2-.6-.5-.9-.8-1.8 7.7 1.2 14.1 8.5 18.6z"/><path fill="#B12C2B" d="M458.7 78.4c-2.3-2.4-3.7-5.1-4.1-8.1-1.2-1.4-2.2-3-2.9-4.8-1.4 6.4 1.1 11.9 7.6 16-.3-.9-.5-2-.6-3.1z"/><path fill="#75C5F0" d="M459.7 79c-1.8-2-3.2-4.3-3.8-6.8-.5-.5-.9-1-1.3-1.6.6 3.3 2.4 6.3 5.2 8.8-.2-.1-.1-.3-.1-.4z"/><path fill="#B12C2B" d="M462.4 119.4c-6.2-6.3-6.7-13.3.1-23.5-.1-.8-.2-1.6-.3-2.5-9.9 10.7-10.5 20.8-.4 28 .1-.7.3-1.3.6-2z"/><path fill="#75C5F0" d="M462.1 118.8c-4.4-5.3-5.5-12.2-.6-21.1-.1-.3-.2-.5-.2-.8-5.7 8.5-5.2 16.1.7 22.2l.1-.3z"/><path fill="#B12C2B" d="M336.3 80.3c-17.3-9.5-20.3-19.3-2.6-39.9-20 16.5-20.4 32.5 2.6 39.9z"/><path fill="#75C5F0" d="M330.5 76.6c-8.5-6.3-11.8-16.1-1.2-30.6-11.1 12.5-9.9 23.3 1.2 30.6z"/><path fill="#B12C2B" d="M333.7 40.6c-2-1-3.9-2.1-5.5-3.1-.4.3-.8.5-1.3.8 2 .8 4.3 1.6 6.8 2.3z"/><path d="M327.8 37.2l-.7-.5" fill="none"/><path fill="#B12C2B" d="M352.1 52.7c-10.9-6.1-16.3-12.2-14.7-20.6-1 .3-2.1.6-3.2.8-1.3 8.1 4.4 15.2 17.9 19.8z"/><path fill="#75C5F0" d="M346 48.8c-6-4.4-9.4-10.5-7.6-18.4l-1.1.3c-1.7 7 1.5 13.2 8.7 18.1z"/><path fill="#B12C2B" d="M50 171.9c18.4 12.9 64.6 21.8 95 28l4.2-4.1-4.4-4.1c-31-3.5-73.7-11.2-94.8-19.8z"/><path fill="#B12C2B" d="M153.1 218.3c-8.1-7.3-10-13.5-3.6-24.6-7.7 8.4-6.9 18.2 3.6 24.6z"/><path fill="#75C5F0" d="M150.4 215.5c-4.1-4.5-6.1-10.9-2.4-18.8-4.1 6.7-2.9 13.4 2.4 18.8z"/><path fill="#B12C2B" d="M153.1 218.2c-8.1-7.2-10-13.5-3.6-24.6-7.7 8.4-6.9 18.3 3.6 24.6z"/><path fill="#75C5F0" d="M150.3 215.5c-4.1-4.6-6.1-10.9-2.5-18.8-3.9 6.7-2.7 13.4 2.5 18.8z"/><path fill="#B12C2B" d="M157.5 242.1c-8.1-7.3-10-13.5-3.6-24.6-7.7 8.3-6.9 18.2 3.6 24.6z"/><path fill="#75C5F0" d="M154.8 239.3c-4.1-4.5-6.1-10.9-2.4-18.8-4.1 6.7-2.9 13.4 2.4 18.8z"/><path fill="#B12C2B" d="M157.5 242c-8.1-7.2-10-13.5-3.6-24.6-7.7 8.4-6.9 18.3 3.6 24.6z"/><path fill="#75C5F0" d="M154.7 239.3c-4.1-4.6-6.1-10.9-2.5-18.8-3.9 6.6-2.7 13.4 2.5 18.8z"/><path fill="#75C5F0" d="M157.1 262.5c-3.8-4.5-5.6-10.9-1.5-18.8-4.4 6.7-3.5 13.4 1.5 18.8z"/><path fill="#75C5F0" d="M157 262.5c-3.8-4.6-5.6-10.9-1.5-18.8-4.3 6.6-3.4 13.4 1.5 18.8z"/><path fill="#B12C2B" d="M155.3 276.3c-.2-3.5 1-7.4 3.8-12.3-3.9 4.3-5.6 8.9-5 13.2l1.2-.9z"/><path fill="#75C5F0" d="M155.6 276c-.2-2.7.4-5.7 1.9-9-1.9 3.1-2.6 6.2-2.3 9.2l.4-.2z"/><path fill="#B12C2B" d="M155.2 275.9c-.1-3.4 1.1-7.3 3.8-12-3.8 4.1-5.5 8.6-5 12.9l1.2-.9z"/><path fill="#75C5F0" d="M155.6 275.9c-.1-2.7.4-5.6 1.9-8.9-1.8 3.1-2.6 6.2-2.3 9.2l.1-.1c.1-.1.2-.2.3-.2z"/><path fill="#75C5F0" d="M157.7 231c-4-4.5-6-10.7-2.4-18.3-3.9 6.3-2.7 12.9 2.4 18.3z"/><path fill="#B12C2B" d="M68.4 301.2c23.8-17 56.8-29.3 85.5-41l4.9 4.1-1.8 3.7c-29.8 9-61.4 18.7-88.6 33.2z"/><path fill="#B12C2B" d="M58.9 228.9c31-1.4 59.3-4.5 90.3-2.7l3.1-7.6c-31.3 1.4-62.6 6.3-93.4 10.3z"/><path fill="#B12C2B" d="M64 267.4c26.9-6.5 57.1-10.6 88-13.3l.6-6.4c-31.1 5.4-59.6 10.1-88.6 19.7z"/><path fill="#B12C2B" d="M53.3 209.8c31 2.1 62.1 4.5 93.1 1.5l-1.7-7.5c-30.5 6.7-60.9 6-91.4 6z"/><path fill="#B12C2B" d="M48.2 248.5c31.2-1.4 76.2-11 106.9-8.1l-5.7-6.8c-34.6 1.8-67.1 8.9-101.2 14.9z"/><path fill="#0A0B0C" d="M165 211.4c-1.5-.4-3.3 2.7-2.1 4.2 2.2 2.9 2 5.1 2.5 6.2 1.5 3.8 1.5 2.6 3.8 3.3 2.6.9 1.2-1.4.6-5.3-.3-2.1-.8-5.8-2-7.4-1.1-1.4-1.8-.8-2.8-1z"/><path fill="#75C5F0" d="M170 225.3c-.2 0-.5-.1-.9-.2-.6-.2-1-.3-1.4-.3-1-.1-1.3-.2-2.4-3-.1-.3-.2-.7-.3-1.1-.2-1.2-.6-2.9-2.2-5.1-.6-.8-.4-1.9 0-2.7.5-.9 1.2-1.5 1.9-1.5h.3c.2.1.4.1.6.1h.4c.5 0 1 .1 1.7.9 1.1 1.4 1.6 4.7 1.9 6.9l.1.5c.2 1 .4 1.9.5 2.7.3 1.3.5 2.2.2 2.6.1.1-.1.2-.4.2zm-5.2-13.9c-.7 0-1.4.6-1.9 1.5-.4.8-.6 1.9 0 2.6 1.6 2.1 2 3.9 2.2 5.1.1.4.2.8.3 1.1 1.1 2.9 1.4 2.9 2.4 3 .4.1.8.1 1.4.3.8.2 1.2.2 1.4 0 .3-.4.1-1.3-.2-2.6-.2-.8-.4-1.7-.5-2.7 0-.2 0-.3-.1-.5-.3-2.2-.8-5.4-1.9-6.9-.7-.9-1.2-.9-1.7-.9h-.4c-.2 0-.4 0-.6-.1-.3.1-.3.1-.4.1z"/><path fill="#0A0B0C" d="M174.5 209.2c-2.7.6-6.3 3.5-4.2 4.6 4 2.1 1.7 1.5 2.6 3.2 3.2 6 1.6 3.7 5.7 3.1 4.7-.6 2.3-.1.6-7-.9-3.8.8-3.7-1.6-5.7-2.1-1.7-1.3 1.4-3.1 1.8z"/><path fill="#75C5F0" d="M175.5 221c-.5 0-.8-.6-2-2.8l-.6-1.2c-.3-.6-.2-.9-.2-1.2.1-.5.2-.7-2.4-2.1-.5-.2-.7-.6-.6-1 .1-.6.7-1.4 1.7-2.1 1-.7 2.1-1.3 3.1-1.5.7-.2 1-.8 1.3-1.4.2-.5.4-.9.8-.9.3 0 .6.2 1 .5 1.4 1.2 1.4 1.6 1.3 2.6 0 .7-.1 1.6.3 3.1.6 2.4 1.2 3.9 1.7 4.9.3.8.5 1.2.4 1.5-.2.3-.8.4-2.3.6-.1 0-.3 0-.4.1-1.2.2-1.9.5-2.4.7-.3.1-.5.2-.7.2zm1.1-14.1c-.4 0-.6.4-.8.9-.3.6-.5 1.2-1.3 1.4-2 .4-4.6 2.2-4.8 3.6-.1.4.1.8.6 1 2.6 1.3 2.5 1.6 2.4 2.1-.1.3-.1.6.2 1.1.2.5.5.9.6 1.2 1.2 2.2 1.5 2.8 2 2.8.2 0 .4-.1.7-.2.5-.2 1.2-.5 2.4-.7.1 0 .3 0 .4-.1 1.4-.2 2.1-.3 2.3-.6.1-.3 0-.7-.4-1.5-.4-1-1.1-2.5-1.7-4.9-.4-1.5-.3-2.5-.3-3.1.1-1 .1-1.4-1.3-2.6-.4-.2-.7-.4-1-.4z"/><path fill="#0A0B0C" d="M213.4 191.7c-5.3-4.8-4.5-4.4-4.9 1.8-.5 8.6-6.1-.5-5.7 2.5.7 5.4 1.3 8.3 2.5 10.7 1.3 2.5 3.3 4.5 7.1 8.3 8.5 8.5 2.3 2.1 4.6-6.1 1.3-4.7 6.3-9 3.6-15.2-2.4-5.4-3.8 1.1-7.2-2z"/><path fill="#75C5F0" d="M216.9 219.1c-.4 0-1.7-1.2-4.5-4-3.9-3.9-5.8-5.9-7.1-8.3-1.3-2.5-1.8-5.4-2.5-10.7 0-.3 0-.5.1-.6l.1-.1c.2 0 .7.3 1.1.7.7.5 1.7 1.2 2.5 1.2 1.1 0 1.7-1.2 1.8-3.8 0-.7.1-1.4.1-2 .1-2.1.1-3.1.7-3.1.5 0 1.5.9 3.4 2.6.2.2.5.4.7.7.6.6 1.3.9 1.9.9.7 0 1.2-.3 1.8-.6.5-.3.9-.5 1.4-.5.8 0 1.4.7 2.1 2.3 1.9 4.3.1 7.6-1.7 10.8-.8 1.5-1.5 2.9-1.9 4.3-.9 3.4-.4 6.5-.1 8.4.2.9.3 1.5.1 1.7.1.1.1.1 0 .1zm-13.8-23.7c-.1 0-.1 0-.1.1-.1.1-.1.3-.1.6.7 5.3 1.2 8.2 2.5 10.7 1.2 2.4 3.2 4.4 7 8.3 2.8 2.8 4.1 4 4.5 4 0 0 .1 0 .1-.1.1-.2 0-.8-.1-1.7-.3-1.9-.9-5 .1-8.4.4-1.5 1.1-2.9 1.9-4.3 1.7-3.2 3.5-6.6 1.7-10.8-.7-1.6-1.4-2.3-2.1-2.3-.4 0-.9.2-1.4.5-.6.3-1.1.6-1.8.6-.6 0-1.2-.3-1.9-.9-.3-.2-.5-.5-.7-.7-1.9-1.7-2.9-2.6-3.4-2.6s-.6 1-.7 3.1c0 .6-.1 1.2-.1 2-.2 2.6-.8 3.8-1.9 3.8-.8 0-1.7-.7-2.5-1.2-.4-.4-.8-.7-1-.7z"/><path fill="#0A0B0C" d="M298.9 204c4.1-6.6 5.3-15.5.4-13.1-9.2 4.5-6.8-3.1-9.3-3.4-8.5-.8-13.1-3-17.8 6.1-4.8 9.3 0 8.1 6 13.4 3.3 3 9.1 8.6 13.5 7 4.1-1.4 4.7-6.1 7.2-10z"/><path fill="#75C5F0" d="M290 214.4c-3.7 0-8.2-4-11.1-6.6-.3-.2-.5-.5-.7-.7-1.6-1.4-3-2.3-4.3-3.1-1.8-1.2-3.1-2-3.5-3.4-.4-1.5.1-3.5 1.8-6.9 1.4-2.7 2.8-4.5 4.5-5.6 1.4-.9 3-1.4 5.1-1.4 1.5 0 3.1.2 4.9.4 1.1.1 2.2.3 3.4.4.8.1 1.1.9 1.4 1.9.5 1.4 1 2.9 3.2 2.9 1.2 0 2.7-.5 4.6-1.4.5-.3 1-.4 1.4-.4.6 0 1.1.3 1.4.8 1.2 2.2-.3 8.1-3.2 12.7-.7 1.2-1.3 2.4-1.9 3.6-1.3 2.8-2.5 5.4-5.4 6.4-.5.3-1 .4-1.6.4zm-8.3-27.7c-2.1 0-3.7.4-5.1 1.4-1.6 1.1-3 2.9-4.4 5.6-1.7 3.3-2.3 5.4-1.8 6.9.4 1.4 1.7 2.3 3.5 3.4 1.3.8 2.7 1.7 4.3 3.1.2.2.5.4.7.7 2.9 2.6 7.3 6.6 11.1 6.6.6 0 1.1-.1 1.6-.3 2.9-1.1 4.1-3.7 5.3-6.4.6-1.2 1.1-2.5 1.9-3.6 2.9-4.6 4.4-10.5 3.2-12.7-.3-.5-.8-.8-1.4-.8-.4 0-.9.1-1.4.4-1.9.9-3.5 1.4-4.7 1.4-2.2 0-2.7-1.6-3.2-2.9-.3-1-.6-1.8-1.4-1.8-1.2-.1-2.3-.3-3.4-.4-1.7-.4-3.3-.6-4.8-.6z"/><path fill="#0A0B0C" d="M185.3 220.2c2.4 3.3 5.3 5.1 4.2 1.7-2.3-6.7.4-4.2.3-5.9-.5-6.1-.2-9.4-3.9-14.2-4-5.1-2.9-.9-4 3.4-.6 2.2-1.7 5.9-.6 9.1 1 3 2.5 3.9 4 5.9z"/><path fill="#75C5F0" d="M189.3 223.8c-.8 0-2.5-1.5-4-3.5-.4-.6-.9-1.1-1.3-1.6-1-1.2-2-2.2-2.6-4.3-1-3-.1-6.4.5-8.7l.1-.5c.3-1.1.4-2.2.5-3.1.2-1.5.3-2.6.9-2.6.5 0 1.3.7 2.5 2.3 3.2 4.2 3.4 7.2 3.7 11.8l.2 2.4c0 .6-.2.7-.5.8-.6.3-1.3.6.2 5.1.3.9.3 1.4.2 1.7-.2.1-.3.2-.4.2zm-6-24.3c-.6 0-.7 1.1-.9 2.6-.1.9-.2 2-.5 3.1 0 .1-.1.3-.1.5-.6 2.2-1.5 5.6-.5 8.7.7 2 1.6 3.1 2.6 4.3.4.5.9 1 1.3 1.6 1.5 2 3.2 3.5 4 3.5.1 0 .3-.1.3-.2.2-.3.1-.8-.2-1.7-1.5-4.5-.8-4.8-.2-5.1.3-.1.5-.2.5-.8-.1-.9-.1-1.7-.2-2.4-.3-4.6-.5-7.6-3.7-11.8-1.1-1.6-1.9-2.3-2.4-2.3z"/><path fill="#0A0B0C" d="M200.4 200.5c-1.9-6.3-4.3 2.5-6.6-1-1.2-1.9-1.2-3-1.5-2.3-2 5.5-2.7 4.2-.1 13 2.8 9.5 2.2 5.7 5.7 4.3 2-.8 5.6.7 5.7-3.7.2-4-2-6.4-3.2-10.3z"/><path fill="#75C5F0" d="M194.9 216.4c-.7 0-1.2-1.2-2.7-6.2-2.2-7.3-2-7.6-.8-10.7.3-.6.6-1.3.9-2.3l.1-.2c.1 0 .1.2.3.5.2.4.5 1.1 1.1 2 .4.5.7.8 1.2.8.6 0 1.3-.6 1.9-1.1.6-.6 1.2-1.1 1.8-1.1.7 0 1.2.8 1.7 2.4.4 1.4 1 2.6 1.5 3.8.9 2.1 1.8 4 1.7 6.6-.1 3.1-2 3.3-3.8 3.4-.7 0-1.4.1-1.9.3-.9.4-1.6.9-2.1 1.3-.3.3-.6.5-.9.5zm-2.4-19.4s-.1.1-.1.2c-.3.9-.6 1.6-.9 2.3-1.3 3.1-1.4 3.4.8 10.7 1.5 5 2 6.2 2.6 6.2.3 0 .6-.3 1-.6.5-.4 1.1-1 2.1-1.3.6-.2 1.2-.3 1.9-.3 1.8-.1 3.7-.2 3.7-3.4.1-2.6-.8-4.5-1.7-6.6-.5-1.2-1.1-2.4-1.5-3.8-.5-1.6-1-2.4-1.7-2.4-.6 0-1.2.5-1.8 1.1-.6.6-1.3 1.1-1.9 1.1-.4 0-.8-.3-1.2-.8-.6-.9-.9-1.6-1.1-2 0-.2-.1-.4-.2-.4z"/><path fill="#0A0B0C" d="M232.8 213.5c-3.5-1.4-8.6-8.8-6.5-9.8 4.3-2.1 3.2-6.2 3.8-7.5 2.5-4.9 2.8-2.7 8.3-1 6.3 2 3.5 4.2 3.3 10.3-.1 3.3-.2 9-2.6 10-2.1.9-4-1.2-6.3-2z"/><path fill="#75C5F0" d="M238.1 215.7c-1.1 0-2.2-.6-3.3-1.3-.6-.4-1.3-.7-1.9-1-1.3-.5-3-2-4.6-3.9-1.5-1.9-2.4-3.7-2.4-4.8 0-.5.2-.9.5-1.1 1.4-.7 2.3-1.6 2.9-2.9.5-1.1.6-2.2.7-3.1.1-.7.1-1.2.3-1.6 1.1-2.2 1.8-3 2.7-3 .6 0 1.3.3 2.2.7.9.4 1.9.8 3.4 1.3 4.7 1.4 4.4 3 3.8 6.2-.2 1.2-.5 2.5-.5 4.1v.7c-.1 3.3-.3 8.4-2.6 9.3-.5.3-.9.4-1.2.4zm-5.2-22.5c-.9 0-1.6.7-2.7 3-.2.4-.2.9-.3 1.6-.1.9-.2 2-.7 3.1-.6 1.2-1.5 2.2-2.9 2.9-.4.2-.5.5-.5 1 0 1.1 1 3 2.4 4.8 1.5 1.9 3.2 3.4 4.5 3.9.7.3 1.3.6 1.9 1 1.1.6 2.2 1.3 3.3 1.3.4 0 .8-.1 1.1-.2 2.2-.9 2.5-6 2.6-9.3v-.7c.1-1.6.3-2.9.5-4.1.6-3.2.9-4.8-3.8-6.2-1.4-.4-2.5-.9-3.4-1.3-.7-.5-1.4-.8-2-.8z"/><path fill="#0A0B0C" d="M277.4 115.3c-8.6 2.6-15.9 10.3-10.7 13.4 10.8 6.5 2.7 10.9 4.4 14.2 3.1 5.9 5.1 11 7.9 14.4 2.9 3.5 6.7 5.3 13.6 4.7 16.4-1.4 8.9-8.1 8.4-23.3-.3-8.5-.4-23.6-7-27.1-5.8-2.9-11 2.1-16.6 3.7z"/><path fill="#75C5F0" d="M290.2 162.3c-5 0-8.5-1.5-11.2-4.8-2-2.4-3.6-5.7-5.4-9.4-.8-1.6-1.6-3.3-2.5-5-.6-1.1-.1-2.2.4-3.6 1.1-2.8 2.5-6.2-4.8-10.6-1.3-.8-1.9-1.9-1.7-3.3.2-1.7 1.7-3.8 4-5.7 2.4-2 5.4-3.5 8.4-4.4 1.7-.5 3.3-1.3 4.9-2 2.7-1.3 5.2-2.5 7.8-2.5 1.4 0 2.6.3 3.9 1 1.5.8 2.7 2.2 3.7 4.1.8 1.7 1.5 3.9 2 6.6.9 4.9 1.1 10.4 1.3 14.8 0 .6 0 1.1.1 1.6.2 4.1.8 7.7 1.4 10.5.8 4.3 1.4 7.4-.2 9.5-1.4 1.8-4.3 2.8-9.5 3.2-1-.1-1.8 0-2.6 0zm-.1-51.5c-2.6 0-5.1 1.2-7.8 2.5-1.6.8-3.2 1.6-4.9 2-3 .9-6 2.5-8.4 4.4-2.3 1.9-3.8 4-4 5.7-.2 1.4.4 2.5 1.7 3.3 7.3 4.4 5.9 7.9 4.8 10.7-.5 1.3-1 2.5-.4 3.6.9 1.7 1.7 3.4 2.5 5 1.8 3.8 3.4 7 5.4 9.4 2.8 3.3 6.2 4.8 11.2 4.8.8 0 1.6 0 2.4-.1 5.2-.4 8.2-1.4 9.5-3.2 1.6-2.1 1-5.2.2-9.5-.5-2.9-1.2-6.4-1.4-10.5 0-.5 0-1.1-.1-1.6-.2-4.4-.3-9.9-1.3-14.7-.5-2.6-1.2-4.9-2-6.6-1-2-2.2-3.4-3.7-4.1-1.1-.8-2.4-1.1-3.7-1.1z"/><path fill="#B12C2B" d="M339.4 373.7c-4.3 0-8.9-.3-13.5-1-4.4-.6-9.1-1.6-13.8-2.8-15.1-6.1-29-12.7-41.3-19.7-6.4-3.6-12.5-7.4-18.2-11.3-5.8-4-11.4-8.2-16.4-12.5-5.2-4.4-10.1-9-14.5-13.7-4.5-4.8-8.7-9.8-12.4-15-3.8-5.2-7.2-10.7-10.2-16.4-3-5.7-5.7-11.7-7.9-17.8-4.1 1.8-8.5 2.1-12.8 2.4-2.9.2-5.9.4-8.8 1-3.2.8-6 2-8.3 3.9-12.6 10.1-25.8 24.4-38.6 38.2-11.3 12.2-23 24.8-33.8 34-5.8 5-11 8.6-15.7 11.1-2.6 1.4-5.1 2.4-7.4 3.1-2.5.7-4.8 1.1-7.1 1.1-.5 0-1 0-1.6-.1-2.8-5-5.1-10.4-7.2-16.2-1.8-5.2-3.4-10.8-4.7-17-2.5-11.5-4-23.4-5.4-35-1.2-9.9-2.4-20.2-4.4-29.9-1-5.2-2.2-9.8-3.5-14.2-1.5-4.9-3.1-9.3-5.1-13.4-3.2-6.9-5.9-14.4-8-22.2-1.9-7.2-3.4-14.8-4.2-22.4-.8-7.1-1.2-14.2-1-21.2.1-6.6.6-12.8 1.6-18.7 3-.1 5.8-.1 8.5-.1 20.1 0 37.9 1.7 54.3 5.3 11 2.4 21.3 5.6 30.7 9.6 10.8 4.6 20.6 10.3 29.1 17 .3.2 3 .9 7.3 1.5 5 .7 10.3 1.1 14.8 1.1 5.1 0 9.4-.5 12.7-1.5 4-1.2 6.5-3 7.5-5.6 3-7.6 6.4-14.9 10.1-21.7 3.6-6.7 7.6-13.1 11.9-19.2 4.2-5.9 8.9-11.6 13.8-17 4.8-5.2 10.1-10.3 15.6-15.1 10.6-9.1 22.6-17.6 36.8-25.9 12.5-7.3 26.9-14.7 44.1-22.4 7.2-11 16.5-19.5 27.6-25.2 5.2-2.6 10.7-4.6 16.5-6 5.6-1.3 11.5-1.9 17.4-1.9 7.8 0 15.8 1.1 23.7 3.3 7.8 2.2 15.3 5.3 22.4 9.4 7.2 4.2 13.7 9.2 19.4 14.9 5.9 5.9 10.9 12.6 14.8 19.7 3.6 6.6 6.3 13.6 7.9 20.8 1.7 7.6 2.4 15.6 1.8 23.6-1.1 17.6-7.5 35.6-19.1 53.6.6 11 1 19.8.5 27-.3 4-.8 7.3-1.5 9.9-.8 2.9-2 5-3.4 6.5 2.6 4.6 4.7 9.2 6.3 13.8 1.5 4.5 2.6 9.1 3.2 13.7.6 4.5.7 9 .3 13.5-.3 4.4-1.1 8.9-2.3 13.4-1.2 4.4-2.8 8.8-4.8 13.3-1.9 4.3-4.3 8.7-6.9 13.2-2.6 4.3-5.6 8.7-8.9 13.1-3.2 4.2-6.8 8.6-10.7 13-5.2 10.1-10.8 19-16.8 26.3-5.8 7.1-12 13-18.6 17.5-6.3 4.4-13 7.7-20.1 9.8-7 2.5-14.2 3.5-21.7 3.5zm-148.3-110.1c2.2 6.1 4.8 12.1 7.9 17.8 3 5.6 6.4 11.1 10.2 16.3 3.7 5.1 7.9 10.2 12.4 15 4.4 4.7 9.3 9.3 14.5 13.7 5.1 4.3 10.6 8.5 16.4 12.5 5.7 3.9 11.8 7.7 18.2 11.3 12.3 7 26.2 13.6 41.3 19.6 4.8 1.2 9.4 2.2 13.8 2.8 4.6.7 9.2 1 13.5 1 7.5 0 14.7-1 21.5-3 7.1-2.1 13.8-5.4 20.1-9.8 6.6-4.6 12.8-10.5 18.6-17.5 6-7.4 11.6-16.2 16.8-26.3 3.9-4.4 7.5-8.8 10.7-13 3.3-4.4 6.3-8.8 8.9-13.1 2.7-4.4 5-8.9 6.9-13.2 2-4.5 3.6-8.9 4.8-13.3 1.2-4.5 2-9 2.3-13.4.4-4.5.2-9.1-.3-13.5-.6-4.6-1.6-9.2-3.2-13.7-1.6-4.6-3.7-9.3-6.3-13.8 1.5-1.5 2.6-3.6 3.4-6.5.8-2.7 1.3-5.9 1.5-9.9.5-7.2.2-16-.5-27 11.6-18 18-36 19.1-53.5.5-8-.1-16-1.8-23.6-1.6-7.2-4.3-14.3-7.9-20.8-3.9-7.1-8.9-13.8-14.8-19.7-5.7-5.7-12.3-10.8-19.4-14.9-7.1-4.1-14.6-7.3-22.4-9.4-7.9-2.2-15.8-3.3-23.7-3.3-6 0-11.8.6-17.4 1.9-5.8 1.3-11.4 3.3-16.5 6-11.1 5.7-20.4 14.1-27.6 25.2-17.2 7.7-31.6 15.1-44.1 22.4-14.1 8.3-26.2 16.8-36.8 25.9-5.6 4.8-10.8 9.9-15.6 15.1-4.9 5.4-9.6 11.1-13.8 17-4.3 6-8.3 12.5-11.9 19.2-3.7 6.8-7.1 14.1-10.1 21.7-1 2.5-3.5 4.4-7.5 5.6-3.3 1-7.6 1.5-12.7 1.5-4.5 0-9.7-.4-14.8-1.1-4-.6-7-1.2-7.3-1.5-8.5-6.7-18.3-12.4-29.1-17-9.4-4-19.7-7.2-30.7-9.6-16.4-3.6-34.1-5.3-54.3-5.3-2.7 0-5.5 0-8.5.1-.9 5.9-1.4 12.1-1.6 18.7-.1 7 .2 14.1 1 21.2.9 7.7 2.3 15.2 4.2 22.4 2.1 7.8 4.8 15.3 8 22.2 1.9 4.2 3.6 8.6 5.1 13.4 1.3 4.4 2.5 9 3.5 14.2 1.9 9.7 3.2 19.9 4.4 29.9 1.4 11.5 2.8 23.4 5.4 34.9 1.4 6.2 2.9 11.8 4.7 17 2.1 5.9 4.4 11.2 7.2 16.2l1.5.1c2.2 0 4.6-.4 7.1-1.1 2.3-.7 4.8-1.7 7.4-3.1 4.8-2.5 9.9-6.2 15.7-11.1 10.8-9.2 22.5-21.8 33.8-34 12.8-13.8 26-28.1 38.6-38.2 2.4-1.9 5.1-3.2 8.3-3.9 2.9-.7 5.9-.9 8.8-1 4.5-.6 9-.9 13.1-2.7z"/><g><g transform="matrix(3.382 0 0 3.382 -9.027 -13.55)"><radialGradient id="f" cx="62.942" cy="82.487" r=".419" gradientTransform="matrix(143.552 0 0 -143.552 -8947.97 11926.289)" gradientUnits="userSpaceOnUse"><stop offset="0" stop-color="#B12C2B"/><stop offset="1" stop-color="#DA251D"/></radialGradient><path fill="url(#f)" d="M61 75.1c8 6 16.3 10.1 25.4 4.9l2.6 9.9c-5.1 2.6-8.2 9.2-16.4 13.3-1.3.6-1 .4-2.1-.1-8.2-3.8-9.3-16.3-9.5-28z"/><path fill="#B12C2B" d="M71.4 103.6c-.2 0-.3-.1-.6-.2-.1-.1-.3-.2-.5-.3-1-.5-1.9-1.1-2.7-1.8-.8-.7-1.5-1.6-2.1-2.5-.6-.9-1.1-2-1.6-3.1-.4-1.1-.8-2.3-1.2-3.6-.6-2.3-1-5-1.3-8.2-.2-2.5-.4-5.3-.4-8.8 3.2 2.4 5.8 4 8.3 5.2 3 1.4 5.8 2.1 8.6 2.1 1.4 0 2.8-.2 4.2-.6 1.4-.4 2.9-1 4.3-1.8l2.6 9.9c-1 .5-2 1.2-3.1 2.2-1 .9-2 1.9-3 2.9-2.7 2.7-5.7 5.9-10.4 8.2-.6.2-.8.4-1.1.4zm-10.4-28.5c.1 3.5.2 6.3.4 8.8.3 3.2.7 5.9 1.3 8.2.3 1.3.7 2.5 1.2 3.6s1 2.2 1.6 3.1c.6 1 1.3 1.8 2.1 2.5s1.7 1.3 2.7 1.8c.2.1.4.2.5.3.2.1.4.2.6.2.2 0 .5-.1 1-.4 4.7-2.3 7.7-5.4 10.4-8.2 1-1.1 2-2 3-2.9 1.1-1 2.1-1.7 3.1-2.2l-2.6-9.9c-1.4.8-2.9 1.4-4.3 1.8-1.4.4-2.8.6-4.2.6-2.7 0-5.5-.7-8.6-2.1-2.4-1.2-5.1-2.8-8.2-5.2z"/></g><path fill="#B12C2B" d="M234.477 316.871c20.292-7.779 34.835-17.925 55.465-34.835l1.353 6.764c-24.689 15.895-41.599 26.041-56.818 28.071z"/><path fill="#B12C2B" d="M208.436 275.273c25.027 2.029 50.054-2.029 74.742-16.91l2.367 7.102c-22.321 10.484-55.803 16.234-77.11 9.808z"/><path fill="#B12C2B" d="M213.17 289.477c26.718 1.353 51.068-12.513 72.713-22.659l1.015 6.764c-18.939 8.455-45.995 19.954-73.728 15.895z"/><path fill="#B12C2B" d="M220.273 300.976c21.983-3.382 50.73-12.513 67.302-26.38l2.029 6.426c-20.63 12.513-47.01 18.601-69.331 19.954z"/></g><path fill="#B12C2B" d="M452.1 252.5c-17.3 4.1-35.5 3.9-54.1 2 4.1-4.9 12.3-8.4 26.5-10.1 11.5.2 21.4.8 25.6 2.6 2.7 2.1 4 4 2 5.5z"/><path fill="#1F1A17" d="M421.2 255.8c-7.1 0-14.7-.4-23.2-1.3 2.1-2.5 5.3-4.6 9.5-6.3 4.4-1.8 10.2-3.1 17.1-3.9 6.6.1 11.6.4 15.5.7 4.8.4 8.1 1.1 10 1.9 2 1.5 3 2.8 3 3.9 0 .6-.3 1.1-1 1.6-9.4 2.3-19.5 3.4-30.9 3.4zm3.3-11.4c-6.9.8-12.6 2.1-17.1 3.9-4.2 1.6-7.4 3.7-9.5 6.2 8.5.9 16.1 1.3 23.2 1.3 11.4 0 21.5-1.1 30.9-3.3.6-.5 1-1 1-1.6 0-1.1-1-2.3-3-3.9-2-.8-5.2-1.5-10-1.9-3.9-.3-8.9-.6-15.5-.7z"/><path fill="#DA251D" d="M453.9 236.7c1.3 1.9 2.1 8.6-2.6 8.4-11.1.8-36.8-2.4-54.6 10.3-1.2.9 12.7-1 41.4-2.6 2-.1 12.6.6 14.5-.9 3.5-2.8-7.9-6.4-6.6-6.4 16-.2 19.5 14.8 6.2 18.8-10.8.5-56.6 7.9-67.6-6.1-.9-1.1-.7-2.7-.3-4.4 2.2-8.2 24.6-18.4 65.8-18.4 2.1-.1 3.3.6 3.8 1.3z"/><path fill="#B12C2B" d="M416.6 266.7c-7.6 0-14.1-.6-19.2-1.7-2.9-.7-5.5-1.6-7.6-2.6-2.3-1.2-4.1-2.6-5.3-4.2-.7-1-.8-2.4-.3-4.4.6-2.1 2.4-4.3 5.4-6.3 3.2-2.2 7.5-4.2 12.9-6 8.6-2.8 23.9-6.1 47.5-6.2 1.8 0 3.2.5 3.8 1.4.9 1.3 1.5 4.8.4 6.8-.6 1.1-1.5 1.6-2.9 1.6h-.2c-2.2.2-5.1.2-8.4.2-12.8 0-32 0-46.3 10.1-.1 0-.1.1-.1.1s.2.1.8.1c1.3 0 4.3-.2 8.7-.6 7-.6 17.6-1.4 31.9-2.2h6.4c4.6 0 7.2-.3 8.1-1 .5-.4.7-.8.7-1.3-.2-1.7-4-3.4-6-4.4-.9-.4-1.3-.6-1.3-.7h.4c3.9 0 7.4.9 9.9 2.7 2.3 1.6 3.7 3.8 4.1 6.1.3 2-.2 4-1.6 5.8-1.4 1.9-3.7 3.3-6.6 4.2-1.8.1-4.4.3-7.7.7-7.2.8-17.4 1.8-27.5 1.8zm33.4-31.4c-23.7 0-38.9 3.4-47.5 6.2-5.3 1.7-9.7 3.7-12.9 5.9-3 2.1-4.9 4.2-5.4 6.3-.6 2.1-.5 3.5.3 4.4 1.3 1.6 3 3 5.3 4.2 2.1 1.1 4.6 1.9 7.6 2.6 5.1 1.2 11.5 1.7 19.1 1.7 10.2 0 20.3-1 27.8-1.7 3.3-.3 6-.6 7.7-.7 2.9-.8 5.2-2.3 6.6-4.1 1.3-1.7 1.8-3.7 1.6-5.7-.3-2.4-1.8-4.5-4.1-6.1-2.5-1.8-6-2.7-9.9-2.7h-.4c0 .1.6.4 1.3.7 2 1 5.8 2.7 6 4.4.1.5-.2.9-.7 1.3-.8.6-3.5 1-8.1 1h-6.3999999999999995c-14.3.8-24.9 1.6-31.9 2.2-4.5.4-7.4.6-8.7.6-.7 0-.8-.1-.8-.1s0-.1.1-.1c14.2-10.1 33.5-10.1 46.3-10.1 3.3 0 6.1 0 8.4-.2h.2c1.3 0 2.3-.5 2.8-1.6 1.1-2 .5-5.5-.4-6.8-.7-1.1-2-1.6-3.9-1.6z"/></svg>