<svg xmlns="http://www.w3.org/2000/svg" viewBox="0 0 308.63 346.86" version="1"><g><path d="M286.83 138.14c-16.37 1.58-31.06 11.17-41.43 23.59-18.68 17-34.92 36.5-49.61 57l-6.05 7.38c.07 4.54 4.99 7.63 9.22 7.09 9.88 2.05 18.48 7.66 28.03 10.69-2.7-4.48-6.95-7.92-8.95-12.84-1.47-2.85-3.14-6.24-2.14-9.46 14.6-17.03 29.23-34.05 44.19-50.77 5.16-5.76 10.28-11.58 15.58-17.2 5.94-3.95 14.18-1.48 18.64 3.59 2.53 2.58 7.34 2.34 9.18-.95 2.75-4.57.12-10.4-3.54-13.63-3.55-3.18-8.38-4.71-13.12-4.49z" fill-rule="evenodd" stroke="#000" stroke-width="4" fill="#d35f5f"/><path stroke-linejoin="round" d="M147.69 114.32c-57.43.45-103.36 86.52-102.53 192.13l208.09.15c0-.62.01-1.15 0-1.78-.82-105.61-48.13-190.95-105.56-190.5z" stroke="#000" stroke-linecap="round" stroke-width="4" fill="#d35f5f"/><path stroke-linejoin="round" d="M52.385 302.016c-15.031 3.07-31.736.08-41.223-7.38-9.486-7.46-9.548-17.66-.152-25.16s26.063-10.56 41.135-7.55" stroke="#000" stroke-linecap="round" stroke-width="4" fill="#d35f5f"/><path stroke-linejoin="round" d="M244.47 303.03c15.031 3.07 31.736.08 41.223-7.38 9.486-7.46 9.548-17.66.152-25.16s-26.063-10.56-41.135-7.55" stroke="#000" stroke-linecap="round" stroke-width="4" fill="#d35f5f"/><g><g><path stroke-linejoin="round" d="M-36.346 509.93l7.438 44.47h-.094l14.719 87.84c-45.899 3.11-103.01 8.23-103.88 29.84l-.03.5v1.03l.03.63v.19c.5 12.55 12.53 23.82 31.439 31.68 17.158 7.35 40.2 11.88 65.532 11.88 47.322 0 86.673-15.73 94.531-36.38h.437v-1.18c.662-2.09-.031-4.21-.031-6.38 0-2.16.693-4.29.031-6.37l1.063-5.66-.813-.12 8.188-43.88h-.281l11.875-63.62h-.094l8.313-44.47h-138.38z" stroke="#000" stroke-linecap="round" stroke-width="17.077" fill="#0ff" transform="matrix(.352 .037 -.064 .616 122.62 -101.85)"/><g><path d="M77.19 210.91l-.678 82.639c-16.489.216-37.163 1.25-38.574 14.833-1.553 14.944 12.324 28.658 30.97 30.618 16.657 1.751 31.516-6.483 35.603-18.906l.154.016.076-.733c.366-1.257.266-2.594.404-3.93.138-1.331.511-2.618.412-3.924l20.347-95.492-48.713-5.12z" fill="#0ff"/><path d="M77.167 217.203l-.626 76.025c-16.489.216-37.16 1.256-38.571 14.839-1.553 14.944 12.321 28.658 30.967 30.618 16.657 1.751 31.516-6.483 35.603-18.906l.154.016.076-.733c.366-1.257.269-2.593.408-3.93.138-1.331.507-2.618.408-3.924l18.968-89.024-47.386-4.981z" fill="#f00"/><path d="M76.935 238.563l-.452 55.294c-16.49.222-37.16 1.256-38.572 14.845-1.552 14.938 12.322 28.652 30.969 30.612 16.658 1.751 31.516-6.483 35.603-18.906l.154.016.076-.733c.366-1.257.259-2.595.397-3.925.139-1.337.519-2.623.419-3.929l14.636-68.73-43.229-4.544z" fill="#00f"/><path d="M76.818 260.564l-.263 32.821c-16.49.222-37.16 1.256-38.572 14.845-1.552 14.938 12.322 28.658 30.969 30.618 16.657 1.751 31.516-6.483 35.603-18.912l.154.016.076-.733c.366-1.257.259-2.595.397-3.925.139-1.337.518-2.617.419-3.929l9.948-46.73-38.731-4.071z" fill="#ff0"/><path d="M76.789 278.178l-.122 15.306c-16.489.216-37.163 1.25-38.574 14.839-1.553 14.944 12.324 28.658 30.97 30.618 16.658 1.751 31.516-6.483 35.604-18.912l.154.016.076-.727c.367-1.263.259-2.595.397-3.931.138-1.331.518-2.617.419-3.923l6.299-29.584-35.221-3.702z" fill="#008000"/><path d="M68.005 294.405c-14.256.7-28.593 3.359-29.761 14.601-1.552 14.938 12.322 28.652 30.969 30.612 16.657 1.751 31.516-6.483 35.603-18.906l.154.016.076-.733c.366-1.257.259-2.595.397-3.925.139-1.337.519-2.623.419-3.929l.736-3.447-38.591-14.288z" fill="#faa"/><path d="M67.997 294.336c-14.257.706-28.593 3.359-29.761 14.601-1.553 14.944 12.321 28.658 30.968 30.618 5.364.564 10.537.092 15.228-1.22l3.792-36.498-20.227-7.5z" fill="#a088a4"/><path d="M68.059 293.707c-14.256.7-28.595 3.377-29.763 14.619-1.523 14.655 11.803 28.13 29.914 30.482l4.508-43.385-4.659-1.716z" fill="#ffe6d5"/><path d="M55.148 295.046c-9.148 1.747-16.387 5.408-17.202 13.256-.997 9.597 4.375 18.687 13.282 24.474l3.92-37.73z" fill="#6c3"/></g></g><path d="M83.22 210.42c1.19-6.89-2.92-16.48-3.64-25.25-.38-4.74.71-7.22 1.33-9.1" stroke="#000" stroke-width="4" fill="none"/><path d="M123.21 212.48c-.83-3.3 10.39-10.68 12.12-14.14 2.09-4.19 1.01-10.47 1.01-15.15" stroke="#000" stroke-width="4" fill="none"/></g><g><g><path stroke-linejoin="round" d="M-36.346 509.93l7.438 44.47h-.094l14.719 87.84c-45.899 3.11-103.01 8.23-103.88 29.84l-.03.5v1.03l.03.63v.19c.5 12.55 12.53 23.82 31.439 31.68 17.158 7.35 40.2 11.88 65.532 11.88 47.322 0 86.673-15.73 94.531-36.38h.437v-1.18c.662-2.09-.031-4.21-.031-6.38 0-2.16.693-4.29.031-6.37l1.063-5.66-.813-.12 8.188-43.88h-.281l11.875-63.62h-.094l8.313-44.47h-138.38z" stroke="#000" stroke-linecap="round" stroke-width="17.077" fill="#0ff" transform="matrix(-.352 .037 .064 .616 176.67 -100.87)"/><g><path d="M222.1 211.89l.678 82.639c16.489.216 37.163 1.25 38.574 14.833 1.553 14.944-12.324 28.658-30.97 30.618-16.657 1.751-31.516-6.483-35.603-18.906l-.154.016-.076-.733c-.366-1.257-.266-2.594-.404-3.93-.138-1.331-.511-2.618-.412-3.924l-20.347-95.492 48.713-5.12z" fill="#0ff"/><path d="M222.123 218.183l.626 76.025c16.489.216 37.16 1.256 38.571 14.839 1.553 14.944-12.321 28.658-30.967 30.618-16.657 1.751-31.516-6.483-35.603-18.906l-.154.016-.076-.733c-.366-1.257-.269-2.593-.408-3.93-.138-1.331-.507-2.618-.408-3.924l-18.968-89.024 47.386-4.981z" fill="#f00"/><path d="M222.355 239.543l.452 55.294c16.49.222 37.16 1.256 38.572 14.845 1.552 14.938-12.322 28.652-30.969 30.612-16.658 1.751-31.516-6.483-35.603-18.906l-.154.016-.076-.733c-.366-1.257-.259-2.595-.397-3.925-.139-1.337-.519-2.623-.419-3.929l-14.636-68.73 43.229-4.544z" fill="#00f"/><path d="M222.472 261.544l.263 32.821c16.49.222 37.16 1.256 38.572 14.845 1.552 14.938-12.322 28.658-30.969 30.618-16.657 1.751-31.516-6.483-35.603-18.912l-.154.016-.076-.733c-.366-1.257-.259-2.595-.397-3.925-.139-1.337-.518-2.617-.419-3.929l-9.948-46.73 38.731-4.071z" fill="#ff0"/><path d="M222.501 279.158l.122 15.306c16.489.216 37.163 1.25 38.574 14.839 1.553 14.944-12.324 28.658-30.97 30.618-16.658 1.751-31.516-6.483-35.604-18.912l-.154.016-.076-.727c-.367-1.263-.259-2.595-.397-3.931-.138-1.331-.518-2.617-.419-3.923l-6.299-29.584 35.221-3.702z" fill="#008000"/><path d="M231.285 295.385c14.256.7 28.593 3.359 29.761 14.601 1.552 14.938-12.322 28.652-30.969 30.612-16.657 1.751-31.516-6.483-35.603-18.906l-.154.016-.076-.733c-.366-1.257-.259-2.595-.397-3.925-.139-1.337-.519-2.623-.419-3.929l-.736-3.447 38.591-14.288z" fill="#faa"/><path d="M231.293 295.316c14.257.706 28.593 3.359 29.761 14.601 1.553 14.944-12.321 28.658-30.968 30.618-5.364.564-10.537.092-15.228-1.22l-3.792-36.498 20.227-7.5z" fill="#a088a4"/><path d="M231.231 294.687c14.256.7 28.595 3.377 29.763 14.619 1.523 14.655-11.803 28.13-29.914 30.482l-4.508-43.385 4.659-1.716z" fill="#ffe6d5"/><path d="M244.142 296.026c9.148 1.747 16.387 5.408 17.202 13.256.997 9.597-4.375 18.687-13.282 24.474l-3.92-37.73z" fill="#6c3"/></g></g><path d="M216.07 211.4c-1.19-6.89 2.92-16.48 3.64-25.25.38-4.74-.71-7.22-1.33-9.1" stroke="#000" stroke-width="4" fill="none"/><path d="M176.08 213.46c.83-3.3-10.39-10.68-12.12-14.14-2.09-4.19-1.01-10.47-1.01-15.15" stroke="#000" stroke-width="4" fill="none"/></g><path stroke-linejoin="round" d="M248.89 4l-59.08 14.07c-12.46-6.2-26.98-9.77-42.48-9.77-15.8 0-30.57 3.71-43.19 10.14l-58.89-14.03 19.15 64.22c-.61 3.45-.94 6.98-.94 10.57 0 39.13 37.58 70.89 83.87 70.89 46.3 0 83.88-31.76 83.87-70.89 0-4.09-.39-8.08-1.17-11.98l18.86-63.22z" stroke="#000" stroke-linecap="round" stroke-width="4" fill="#d35f5f"/><path d="M148.7 82.1c-12.3 0-22.26 4.99-22.26 11.15 0 1.05.36 2.06.9 3.02 2.02-1.09 4.84-1.76 7.99-1.76 6.15 0 11.16 2.58 11.16 5.78 0 1.46-1.1 2.79-2.82 3.81 1.62.19 3.29.31 5.03.31 1.73 0 3.4-.1 5.03-.29-1.75-1.02-2.83-2.36-2.83-3.83 0-3.2 5.02-5.78 11.16-5.78 3.17 0 6.03.68 8.06 1.79.55-.97.83-1.99.83-3.05 0-6.16-9.96-11.15-22.25-11.15z"/><path stroke-linejoin="round" d="M145.33 137.12c-8.12-1.53-16.36-2.94-24.11-8.47-1.18-.78-2.6-3.9-1.37-6.22 2.03-4.04 5.1-4.31 7.76-4.46 6.71.86 12.86 7.98 19.61 8.47 6.38 1.18 12.28-4.87 18.35-7.77 3.8-1.74 8.28-1.25 11.22 4.64.51 3.95-1.84 5.47-3.24 6.38-6.48 4.31-13.32 5.38-20.04 7.1-2.72.41-5.45.43-8.18.33z" stroke="#000" stroke-linecap="round" stroke-width=".2"/><path d="M136.98 102.25c-25.41 8.32-52.96-12.96-72.19-5.32-2.81 1.12-5.6 3.88-8.02 5.32" stroke="#000" stroke-width="2.2" fill="none"/><path d="M165.47 100.25c-13.39 5.26 31.13 3.21 44.73-2.13 19.09-7.49 24.3 6.02 23.04 14.89" stroke="#000" stroke-width="2.2" fill="none"/><path d="M139.83 109.57v-1.06c0-.99-58.06 1.48-65.36 3.19-5.94 1.39-9.61 2.9-12.7 5.31" stroke="#000" stroke-width="2.2" fill="none"/><path d="M163.06 106.63c-7.19 1.61 24.73.8 49.46 4.26 9.94 1.39 9.57 3.21 17.12 6.38" stroke="#000" stroke-width="2.2" fill="none"/><path stroke-linejoin="round" d="M-45.457 775.58c.003 13.39-10.626 24.25-23.738 24.25-13.113 0-23.742-10.86-23.739-24.25-.003-13.39 10.626-24.25 23.739-24.25 13.112 0 23.741 10.86 23.738 24.25z" transform="matrix(1.191 0 0 1.053 197.44 -757.26)" stroke="#000" stroke-linecap="round" stroke-miterlimit="3.8" stroke-width="2.679" fill="#deffff"/><path stroke-linejoin="round" d="M-87.883 784.67c.003 7.81-5.651 14.15-12.627 14.15-6.98 0-12.63-6.34-12.63-14.15s5.65-14.15 12.63-14.15c6.976 0 12.63 6.34 12.627 14.15z" transform="matrix(1.191 0 0 1.053 233.54 -758.32)" stroke="#000" stroke-linecap="round" stroke-miterlimit="3.8" stroke-width="2.679" fill="#1a1a1a"/><path stroke-linejoin="round" d="M-106.07 689.21c.01 2.51-2.03 4.55-4.54 4.55s-4.55-2.04-4.55-4.55 2.04-4.55 4.55-4.55 4.55 2.04 4.54 4.55z" transform="matrix(1.191 0 0 1.053 239.56 -662.61)" stroke="#000" stroke-linecap="round" stroke-miterlimit="3.8" stroke-width="2.679" fill="#fff"/><path stroke-linejoin="round" d="M-45.457 775.58c.003 13.39-10.626 24.25-23.738 24.25-13.113 0-23.742-10.86-23.739-24.25-.003-13.39 10.626-24.25 23.739-24.25 13.112 0 23.741 10.86 23.738 24.25z" transform="matrix(-1.191 0 0 1.053 100.56 -757.26)" stroke="#000" stroke-linecap="round" stroke-miterlimit="3.8" stroke-width="2.679" fill="#deffff"/><path stroke-linejoin="round" d="M-87.883 784.67c.003 7.81-5.651 14.15-12.627 14.15-6.98 0-12.63-6.34-12.63-14.15s5.65-14.15 12.63-14.15c6.976 0 12.63 6.34 12.627 14.15z" transform="matrix(-1.191 0 0 1.053 64.46 -758.32)" stroke="#000" stroke-linecap="round" stroke-miterlimit="3.8" stroke-width="2.679" fill="#1a1a1a"/><path stroke-linejoin="round" d="M-106.07 689.21c.01 2.51-2.03 4.55-4.54 4.55s-4.55-2.04-4.55-4.55 2.04-4.55 4.55-4.55 4.55 2.04 4.54 4.55z" transform="matrix(-1.191 0 0 1.053 58.44 -662.61)" stroke="#000" stroke-linecap="round" stroke-miterlimit="3.8" stroke-width="2.679" fill="#fff"/><path stroke-linejoin="round" d="M-97.985 574.56c0 9.11-6.395 17.09-15.625 19.49-9.22 2.4-18.99-1.37-23.85-9.22" transform="matrix(-1.131 .023 -.026 -1 -11.35 619.85)" stroke="#000" stroke-linecap="round" stroke-miterlimit="3.8" stroke-width="2.82" fill="none"/><path stroke-linejoin="round" d="M-97.985 574.56c0 9.11-6.395 17.09-15.625 19.49-9.22 2.4-18.99-1.37-23.85-9.22" transform="matrix(1.131 .023 .026 -1 306.99 619.65)" stroke="#000" stroke-linecap="round" stroke-miterlimit="3.8" stroke-width="2.82" fill="none"/></g></svg>