<svg xmlns="http://www.w3.org/2000/svg" version="1" width="542.934" height="289.328" viewBox="0 0 542.934 289.328"><g fill-rule="evenodd"><path d="M519.938 227.499c-10.473 2.792-17.317-3.888-21.404-11.762-.365-1.857-.921-3.855-1.699-4.656.141-.193.376-.436.611-.678-2.414-4.648 6.036-17.59 8.934-21.745-.739-1.423-3.684-.375-3.97-.224-15.675 31.024-39.559 28.865-67.741 23.998-6.944-3.861-30.729-8.843-33.392-13.963-14.557-10.864-23.145-19.047-33.748-30.88-.43.102-.809.3-1.095.449-.917 2.403-1.496 8.243-2.713 9.84-4.42 13.978-31.979 9.149-41.303 18.328-7.811 4.901-14.188 6.531-21.134 2.671-3.167 2.249-6.099 7.266-8.213 9.688-10.667 14.938-23.593 28.998-37.324 40.35-28.598 20.762-72.548 49.983-108.737 37.354-7.024.155-29.259-9.489-35.805-12.349-14.066-3.892-26.493-15.984-39.489-15.731-24.359 7.357-39.59 30.942-61.621 5.758-9.31-10.642-12.603-25.065-8.101-42.943 4.497-17.879 24.965-31.333 33.592-5.465.341 3.676-.624 12.244-5.657 11.368-4.482-8.63-2.34-18.415-14.727-9.57-6.07 9.176-6.252 19.025-1.941 28.949l.436.137c-.367 1.152 3.68 6.155 5.044 7.857 10.885 8.435 20.127 6.283 29.263-5.572 19.931-28.938 51.243-11.471 58.033-8.836 21.718 7.262 44.853 7.044 68.394 2.52 10.111-4.65 20.087-10.56 29.432-18.302 7.677-6.701 20.499-24.984 28.641-36.202-3.111 1.715-5.743 2.554-7.617 3.958-3.97 2.515-32.781 13.737-43.951 15.554-2.662.515-30.911 2.593-35.703 1.82-23.32-5.707-36.702-15.084-49.578-34.531-11.949 6.212-18.809-7.688-26.829-6.894-4.645 2.413-.989 22.434 5.36 24.916 1.15-2.888.517-6.652.284-9.42 9.316-15.683 25.6 26.321-3.661 25.868-24.499-7.743-22.634-29.188-24.142-49.239 6.909-23.102 16.167-24.058 38.685-17.572 5.388 2.258 5.388 2.258 5.674 2.109-1.28-20.771 17.304-30.667 34.762-36.006.346.664 12.791 1.664 14.419 2.022 11.574-2.762 32.335 19.811 30.91 32.594l.443.855c-4.145 13.113-4.815 16.231-15.433 25-2.939 1.53-9.069 3.869-11.618 5.915.821.659 12.668 3.294 14.506 1.496 11.961 3.781 53.972-30.331 61.152-42.012-7.411-3.135-16.004-5.536-22.033-9.026-17.89 8.452-28.602 1.978-37.965-13.032-2.627.043-5.887-.434-7.075-.176-.445-.853-10.538-4.282-12.275-5.305-14.845-10.958-22.93-26.748-1.781-37.734 11.706-3.435 24.252 7.27 5.371 10.336-13.372 6.946-.39 21.038 11.655 14.778.41-1.296.042-6.405-.209-7.357l.568-.295c3.916-18.656 14.12-23.355 33.231-20.879 8.432 4.409 16.864 8.818 25.349 13.324 7.883 12.163 32.371 18.951 47.261 20.726 4.546-2.843 7.84-9.252 12.73-11.432.453-1.441 6.45-6.123 8.287-7.92 9.995-12.059 20.051-26.314 28.971-39.742-2.535-15.542-3.937-26.018 15.6-29.905 3.11.19 9.724.229 13.548 1.633 4.979-5.717 12.977-7.948 20.201-10.499 5.044-.131 9.227 1.429 12.691 4.729-.227.719 1.032 1.751 1.814 2.792 30.972-12.689 64.691-17.866 86.6 20.636 18.297 4.946 9.439 27.479-5.596 47.468-10.659 19.302-47.352 16.739-47.254 15.163-.045.143 27.313 56.504 29.438 63.832 1.674 3.225 2.803 5.167 6.526 7.929-1.077-2.739-5.388-10.744-6.121-12.473-7.368-17.354-11.207-52.871 22.846-52.459 5.905 1.659 13.269 1.493 17.781 6.175 15.938 10.506 25.885 32.195 27.526 51.816.146.287.296.571.586.9 10.716-2.559 34.267 8.691 34.494 23.267-2.56 10.604-8.983 18.637-19.214 21.666-3.413 1.773-7.404 3.364-9.185 5.736 1.232 2.368 8.667 3.927 12.494 10.369-1.903 3.516-3.675 6.362-7.089 8.137" fill="#231f20"/><path d="M516.435 223.54c-14.894-.56-15.728-14.468-15.061-16.665 2.413-7.637 3.366-13.03 11.805-17.414 2.493.391 5.182 1.161 8.71.533-.053-.335-.106-.67-.065-1.051-2.127-1.544-6.875-2.569-7.057-1.993-3.835-.658-7.719-1.41-10.446-1.558-.021-1.434 1.297-2.839 1.224-4.368 5.697-11.753-5.47-22.811 14.996-16.342 10.59 4.853 21.652 10.184 14.316 24.115-1.553 4.046-9.707 9.587-22.442 15.877-7.289 7.762 3.619 10.061 8.794 13.995.088 2.484-3.256 4.078-4.774 4.871" fill="#fff"/><path d="M530.271 184.799c-.195-.146-.343-.188-.389-.284.191-9.132-14.21-12.971-10.253-16.953 2.501 4.122 17.196 11.539 10.642 17.237" fill="#231f20"/><path d="M482.565 206.331c-2.245.083-3.213-.619-4.225-1.176-.854.443-10.906 8.678-11.062 1.891l-.475.249c-2.363-1.54-1.8-2.077-4.046-1.992-6.24 10.469-13.333.064-17.162-.114-10.293 8.236-15.366-4.542-18.992-4.103-10.988 7.055-10.023-7.684-15.75-7.595-1.729 5.475-11.579-.967-11.677-7.18-2.422-4.658-11.338 2.531-11.528-9.666l-11.108-7.476c1.729-5.478-5.981-3.397-7.968-8.147.424-.341.946-.729 1.514-1.025 1.087-9.959-3.703-19.876-4.713-29.469.146.045.384.043.67.134-1.822-3.509 2.568-13.14-.495-13.473-5.566 10.843-2.902 25.475-.14 37.048.62 6.062-3.345 6.312-3.956 10.004-6.011 3.125-15.636 3.607-16.934 11.449-5.103.841-15.583-6.115-15.35 5.687-4.269 2.216-2.065 2.518-4.645 5.665-.051-.094-5.298.464-5.78.233-3.295 3.397-10.164 13.353-15.223 4.78.29-2.922-3.15-2.821-.05-6.356-.104-6.478-9.831.133-4.326-10.642 5.099-4.093-5.174-6.946 1.34-15.27-.556-1.998-1.575-3.034-1.925-3.938 1.92-2.563 3.571-7.032 6.056-10.132 5.398 8.999-4.656 13.983 3.19 20.745-2.901 3.917-4.277 7.524.179 11.469-11.486 14.278 19.536 17.43 9.286-2.295-.335.051-.668.105-.905.111-1.278 4.033 3.012 9.271-4.256 12.207-4.438-2.513-6.572-7.787-.819-9.69-.198-.378-.395-.759-.449-1.094-8.503-2.686 1.189-9.528.198-11.904-7.026-3.092-1.402-10.113-1.536-15.702-3.801-10.792-1.014-3.57-.391-9.795 17.555-32.968-21.459-39.671-19.741-12.261-.094.048-.189.099-.234.241-3.267-2.372-.807-6.418-1.854-8.432.423-12.624 8.328-17.815 20.201-16.52l.146.284c11.207-1.847 11.889 20.562 7.735 26.934-.386 2.971 1.018 10.071-1.293 12.353.096-.048.241-.001.48-.005-.329.292-1.508 1.265-.358 1.631l5.885 21.751c.069 1.291.136 2.581.35 3.916.043-.143.09-.288.184-.337 1.794 1.596 3.455.854 6.239 4.587.378-.197.853-.444 1.376-.595-.113-4.157-4.285-5.002-5.699-6.796 4.317-5.944 3.137-5.71 9.05-5.061 2.57-3.866-4.833-3.511 2.911-9.703-.247-.475-.494-.949-.597-1.378-4.526.789-5.784 3.008-5.528 7.209-1.991 1.033-3.797 1.732-5.116 2.901-6.358-12.234-8.265-8.717-4.521-23.305-2.909-11.857 8.938-30.779-9.363-36.567-.245-.234-.438-.375-.535-.561-12.999.249-16.503-.702-22.939 12.64-3.099 9.798 1.316 29.184 15.732 24.944 10.811-5.616 3.298-12.191 1.87-17.954-6.504-.231-7.679 3.993-10.241 8.334-10.828-7.862 18.043-29.247 17.905-1.235-1.941 7.391-2.31 8.305-2.88 8.361-.351 2.11-10.85 15.514-10.985 9.92-.337-.184-.676-.371-.917-.606-7.585 3.943-7.246-1.894-13.624-.025-.886-1.708-1.39-3.375-1.693-4.42-8.502-2.687-4.44-2.75-6.044-7.698-10.575-1.908-1.647-27.638 2.521-31.915 3.464-4.05 14.212-13.712 18.847-9.24 2.866-3.374 6.338-2.87 11.441-.46-.074.945.149 3.992.653 4.96.043-.146.09-.288.229-.482 2.846 1.533 3.048 2.15 7.483 1.65 2.364 4.553 5.634 2.735 7.058 8.017.639 1.233 1.942 2.121 3.448 3.628-4.876 15.418 18.452 9.322 7.727-1.125-4.037-1.274-7.703-.453-9.281-3.49.321-1.007 5.374-7.318 6.613-7.721 3.662 2.251 5.789 7.713 9.737 10.91.19-.1.428-.102.763-.158.243.234.533.566.922.848-.568.783 1.596 5.735 2.105 6.374 1.878.832 4.464 1.172 5.666 4.643-.237.001-.333.054-.43.101.099.191.247.475.489.71-1.021 3.223-1.05 3.164.76 5.868-.216 1.438-.494 2.062-.286 3.16-.142-.047-.286-.092-.383-.043.888 1.708-1.915 2.803-2.609 4.247 3.548 6.828-2.62 9.793-.353 14.154-.926.956-1.023 2.918-.036 3.872-1.044.544-1.835 5.047-2.152 6.057-1.049.066-2.006.078-2.913.189.887 1.7.692 2.168 2.395 3.213l8.463-42.82c-9.25-19.883-29.187-35.539-51.103-33.905-.241-.234-.34-.425-.439-.615-.139.192-.233.482-.228.722-23.512.414-41.284 25.545-34.256 47.187-3.803 1.251-9.695 6.604-5.778 9.503 2.675-1.388.626-7.295 6.538-6.648 5.717 11.001 11.858 15.398 24.755 17.97.593 1.137.477 2.088.914 3.38-5.88 3.055-18.897 14.394-24.236 9.219-4.134 1.546-1.562 7.195-10.951 5.811-.653-1.255-.237-2.035-1.198-3.231-5.311 2.76-6.803 8.232-14.704 4.389-3.412 1.773-3.945 4.458-7.79 6.093-3.901-2.148-4.305 10.407-13.87 5.762-2.263 1.179-3.739 14.32-10.636 7.576-6.638 3.448-5.807 7.593-14.665 3.524l-11.859 2.91c-.432-.138-.815-.179-1.198-.222-7.718 14.008-15.257-1.031-17.558 2.139l-13.162 2.023c-4.073 5.607-8.851-.58-11.014-1.265-5.084 2.037-5.443.422-7.685-2.507.956-3.03-10.174.586-9.421-6.31l-2.164-.921c-5.437.898-6.589-2.48-8.454-5.605-4.748-1.025-4.213-.46-6.415-3.77.09-.29.326-.531.561-.774-1.625-3.129-5.094-4.703-6.974-8.783l-5.453-15.594c2.051-6.485 5.313-2.758.351-11.382l5.038-7.917c-3.53-2.621-1.027-7.539 2.681-8.981.576.182 1.429-.261 2.521-.708.037-.621.217-1.437-.168-1.717-.128-8.124 5.575-4.103 11.11-7.818 1.138-3.607 3.766-3.646 7.426-1.937 3.7-1.923 6.057-4.108 9.896.041 4.979.541 7.444-2.183 11.124 3.974 6.448-3.351 6.57 5.738 12.653 6.554 2.313 1.206 8.162 11.534 8.5 14.971-4.501 5.472 2.39 8.997-5.967 12.616l-.125 1.148-.381.198c-4.202-5.698 1.71-5.366 2.208-9.938-4.077 2.119-3.908-8.448-3.822-9.215-.529-.325-1.061-.653-1.498-1.027.296.568.024 1.433-.353 1.868-3.884-1.228-3.188-10.475-6.905-7.491-5.849 1.955-3.552-4.056-6.117-5.976-.936.59-3.133 1.441-3.113 2.58-5.425 1.615-10.006-18.284-17.369-3.016-2.636-.439-5.898-1.152-5.857 1.476-3.795 1.97-2.254 2.615-2.194 6.44-3.225 1.673-5.779.473-6.959 4.217.143.045.335.187.527.327-2.097 3.378-.934 4.46 1.278 8.248-2.088 1.086-4.052.78-5.44.661-2.447 2.473.58 9.693 2.492 12.675.096-.05.527.088.535.565l-2.09.844 9.062 13.963c.375-.439.56-.774 1.942-.894.247.477.543 1.043.935 1.564l.663-.345c.371 1.555 1.99 2.836.739 4.432-.239.007-.478.009-.622-.034l-.833 1.874.247.474c3.304.331 7.481-4.609 11.52 3.168-1.412 7.478 7.338-4.654 11.569 6.034.142.043.286.091.48.228 6.062-3.629 4.853-1.555 10.314 2.472 5.451-3.193 6.856-4.887 12.906.037 2.587.104 3.198-6.598 11.844-3.863.681.61 1.865 3.125 4.046 1.992 1.698-7.629 6.023-9.271 13.034-4.125 3.738-1.941 2.917-12.348 10.939-6.525 3.606-1.876.834-10.912 9.705-9.138.394.757 1.399.839 2.874.432-.056-.572-.017-1.195.024-1.816-10.512-2.607-8.824 1.573-13.705 7.24-8.894-.195-5.889 2.579-10.545 7.286-10.051-6.821-8.588 1.09-14.184 3.996l-14.073 1.896c-5.883-3.446-7.304-2.708-12.529-.477-1.775-3.413-8.437-4.646-10.04-3.093-1.598-1.455-6.089-4.302-6.315-3.58l-3.643-.52-.419.581c-3.75-4.435-4.964-5.609-9.26-5.305-2.021-3.889-2.28-5.08-4.761-7.764.578-4.353.224-5.202-2.232-8.476.045-.143.09-.288.184-.337-.333.053-.523.151-.713.249-.533-.565-.973-1.179-1.365-1.698.146.045.289.093.529.086-.006-.236-.008-.476.037-.621 4.08-2.118 3.571-7.034 2.167-11.122 4.933-2.564 4.772-3.803 4.875-9.396-1.562-5.092 5.517-1.904 5.93-9.221 1.609-.841 4.441-.025 7.287-1.502 2.739.866 3.801 3.563 8.734 1 2.505 4.358 1.851 5.182 8.052 4.368.869 3.523 1.349 6.768 5.859 7.795-.583 2.591-.455 4.694 1.97 6.807-1.733 5.476-3.129 6.082 1.22 12.131-2.761 3.723-4.009 3.408-7.866 4.329-3.193 6.837-5.807 4.823-10.584 4.897-3.46 10.953-13.387-6.293-14.172-7.811 3.876-2.737 11.377-2.901 17.421-7.727l-15.262-13.142c-7.966 4.138-5.21 15.471-7.455 18.563 8.296 23.152 23.111 26.173 48.574 22.093 25.875-11.395 46.297-35.134 67.947-53.731 5.103-3.857 49.915-39.304 49.805-43.221 7.857-5.047 10.459-15.794 17.015-21.49 2.188-6.918 9.071-13.141 11.967-20.55-8.755-16.844 2.447-25.917 20.94-24.365 2.02 3.888-1.374 14.5-4.085 16.933 2.532 4.88 9.082-8.118 8.571-11.439-.525-7.644 23.294-26.434 33.597-3.125-.113 1.865.971 6.963-.87 8.522.063.81-.188.471.879 1.363 1.013-1.25 2.854-5.815 3.361-6.078 1.865 1.102 6.008 2.182 6.884 3.872-.226.719-2.173 1.611-2.269 1.66-7.493-2.368-8.208 9.931-14.284 9.593-1-.698-1.512-2.541-.724-3.478-3.154-6.071-4.172 11.932 6.312 3.596 2.282-2.303 4.458-8.83 8.924-7.419 11.171-3.997-2.522-8.567-5.617-10.812-.512-2.142-.927-4.333-1.345-6.527.799-1.018 12.653-3.925 15.652-4.882 25.927-4.8 45.685 2.398 62.272 23.887 4.458 3.947 10.432 6.864 12.682 13.521-7.673 10.493-17.144 43.718-35.596 40.658-7.872 4.091-37.641-10.554-39.381-8.803 5.124 9.864 12.547 19.978 17.985 31.604-.188.098 10.394 22.782 12.153 25.24-.095.05-.142.194-.187.339l-.434-.137c.155.524 2.854 5.262 3.486 5.775-.333.056-.574.059-.763.159 3.948 5.051 5.972 12.191 10.075 17.765-.097.051-.192.102-.235.243-4.954-1.88-11.683-10.428-14.594-13.251-5.329 1.868 2.296 7.629 3.839 10.169-.14.193-.187.339-.185.576 1.004-.157 12.568 11.9 18.619 13.81 8.896 6.458 25.315 14.186 34.583 1.423.549-1.49 4.202-21.814 1.88-23.499-.237-2.415-5.03-11.923-4.788-12.69-5.042-1.592-9.371-9.459-15.201-.049-5.816 13.139 6.555 21.648 14.609 29.503-1.608 4.09-5.781 6.258-9.215 6.838-3.792-7.305-11.733-13.776-10.28-21.637-.804-2.473-1.678-3.464-2.609-5.028.784-1.732 1.082-4.174.964-5.56.095-.049.239-.004.478-.008l-2.563-4.931c.938-1.209 1.318-4.417.915-5.895 3.603-1.87 4.266-2.215 5.204-6.438 1.287-.306 4.055-.539 6.862-1.396 1.382 2.658 3.394 3.055 7.073 2.948 1.345 3.518 1.852 5.419 7.314 6.195 3.035 4.686 7.335 10.642 12.044 15.302l-.857 3.454c-4.246 3.414-1.512 7.29.28 11.66-1.616 3.611-1.437 6.044-.035 10.134-4.289 3.795-4.948 7.628-3.906 12.871-3.222 2.155-6.596 6.317-4.675 10.014.525-.151 1.046-.302 1.62-.359.576-5.842 5.204-6.438 6.164-9.464-4.389-8.44 3.349-8.848 3.852-13.443-5.042-1.596-.043-8.892.307-11.001-8.524-4.117.999-9.43-1.885-13.592.33-.292.661-.584 1.131-.831-.002-.237-.003-.479.087-.765-6.774-2.141-3.886-7.014-5.197-8.379-8.352-2.166-4.039-4.527-5.862-8.035-9.545.868-5.643-3.21-8.229-6.564-3.86.683-4.902 1.223-6.844-.657-3.72-8.547-3.027 2.052-10.307-1.992l-.95.492c-.638 2.017-.556 4.264-1.095 6.469-1.849.961-3.102.598-4.559 1.891.258 1.19.548 4.531-.236 6.264l-.628-.277c-.178.815-.305 1.726-.437 2.635 2.596.821 2.034 10.867 4.253 15.133-.221 1.2-.058 2.441-.898 3.839.026 1.674 7.472 6.96 4.419 10.591 0 0 7.917 4.799 5.799 6.987-.625-.278-.625-.278-2.154-.206-6.052-1.916-3.886-7.017-8.142-10.105-2.938 1.528-3.195-8.938-3.294-9.128-8.775-4.833-2.341-9.14-4.588-12.069-4.224-4.187-3.257-3.485-1.815-9.053l1.899-.985c.714-6.273-5.836-6.363 3.267-11.092-.705-8.549 1.183-3.986 6.397-6.697-.027-1.91-.171-1.717.952-3.264-.383-.042-.671-.133-.959-.224.805-3.552 4.389-6.855 6.821-1.015 4.633-.118 3.229-7.46 8.97 1.962 2.514 1.829 2.938-7.548 7.475 1.178 2.706 1.964 5.872-3.537 7.637 5.424.48.23 1.107.507 1.734.784.469-.483.989-.878 1.508-1.266 1.128 1.703 4.81 5.087 2.183 8.142.008.474.062 1.046.216 1.572.434.138.915.368 1.396.6l4.133 7.487c-.424.581-.747 1.112-1.025 1.737 2.628 2.971 8.146 4.319 5.296 11.581-2.447 2.718 3.163 3.774 2.914 9.325-.472.245-1.736 4.997-3.347 6.073 5.043 1.594 5.717 11.001.311 13.812 2.247 3.515.905 11.87-5.129 14.464 1.796 10.871-7.105 7.185-9.234 11.665.084 2.246-1.378 3.37-2.369 4.243" fill="#fff"/><path d="M478.917 193.053c-5.678-2.348-11.498-4.745-13.869 2.749-.521.15-1.044.304-1.422.5-2.585-3.114-12.554-7.931-12.414-2.1-.715.251-1.379.595-1.947.89l-.395-.759c3.062-5.927 9.832-7.036 15.035-1.431 5.335-7.345 18.541-3.489 15.012.151m-32.202 1.076c-.477.007-.861-.037-1.196.017-4.038-7.776-9.852-9.693-16.476-5.288-3.689-3.623-1.929-10.438-11.387-6.848-.047.143-.092.288-.09.525-.708.488-.708.488-1.52.551-4.267-6.817-3.261-9.989-11.395-7.328-1.298-.41-2.907-8.607-5.807-10.713l-.665.344c-2.037-2.071-4.156.114-5.341.851-2.16-.685-2.639-3.69-3.082-4.542-5.534-5.554-5.472-1.493-8.698-3.07-.1-6.45-4.189-8.06-8.24-7.279-.292-.33-.488-.709-.637-.994 4.352-5.996 8.928 2.348 10.898 6.14 4.528-.786 7.249 1.892 9.996 6.489 6.758-1.828 11.023 1.978 12.722 9.647 4.709-1.362 9.193 1.004 11.193 6.71 4.801-1.652 10.757.071 13.14 5.815 7.016-.871 15.462-1.767 16.585 8.973" fill="#231f20"/><path d="M474.931 158.268c-6.915-2.186-14.054-15.458-9.491-20.118.412-1.296 1.828-2.516 3.925-2.883 6.264 3.251 8.001 16.559 5.906 23.189-.146-.047-.287-.092-.34-.188m-255.788 109.908c-3.329 1.008-6.113.284-7.589.69-2.915 9.224-10.969 4.617-15.155 5.828-4.037 4.986-6.912 4.316-11.647 4.245-6.674 10.334-11.034.554-15.43.668-5.99 8.174-10.608-.022-13.494-.934-5.406 2.807-5.541.229-8.56-.248-7.268 2.931-5.911-2.109-9.657-3.294-4.91.986-6.127-.432-8.083-3.266-5.127-.832-11.205-4.415-13.387-3.283-4.78.075-4.966-2.838-7.334-4.379-6.893 2.497-13.557-4.997-17.607-7.23-12.153-.911-1.443-6.717 2.376-.992 5.894.912 4.498-2.701 8.998 3.875 2.964-.096 4.609-1.793 8.477 1.016 2.069 3.982 2.022.875 6.987.464-.047.143-.092.29-.043.384 3.93.608 3.159 3.296 6.197 4.969 4.739-2.463 7.007-1.111 9.9 3.528 3.458 1.092 7.398-3.845 12.804 2.619 2.484-.084 9.262-6.74 13.255.941 1.597-8.056 8.786-.71 12.614-.293 2.192-3.665 2.873-5.827 7.478-7.858 3.749 1.184 4.153 5.672 7.111-.687 4.743-5.472 8.107-1.319 11.934-4.153.53-8.943 8.729-4.293 12.087-6.64-.602-1.854-.602-1.854-.675-3.382 1.509-1.269 2.11-2.662 5.16-3.283 1.146.833 3.986.703 5.412.682 1.255-5.471.194-6.123 5.446-9.455 1.152.362 7.934-.028 4.598-2.51.279-6.647 2.404-5.342 7.618-8.054.792-7.517-1.586-12.785 9.044-14.813 1.3-2.364 1.6-19.864 11.473-12.227 3.601 1.14.923-23.483 11.613-12.417 1.8-.936 3.351-21.13 12.779-11.099.333-.051.668-.104 1.094-.206 4.213 6.484 1.835 19.521-7.532 16.561-4.191-3.776-1.751 8.164-3.656 7.563-2.461 7.779-9.207 4.299-11.755 6.346.715 6.25-.215 7.701-4.989 11.264-1.82-.257-2.545-.726-3.397-.284-.299 5.456 10.482.937 11.1-8.534 6.654-2.494 12.522-3.256 12.601-13.533.853-.445 9.891-.202 9.836-3.786 5.12-2.66 1.23-19.187-3.514-19.974-.187.337-.278.626-.317 1.01-9.309-5.162-11.344 5.292-13.03 10.62-8.38-4.074-11.499 7.544-11.755 12.614-8.654-.2-13.424 6.614-12.88 13.918-7.881 3.373-9.789 6.651-8.801 14.811-10.055 5.224-4.083 4.894-8.295 10.693-5.603-.58-8.789 3.483-9.194 8.269-2.653 1.379-12.089.142-11.083 6.483-4.755 1.51-10.624 2.268-11.452 7.635-5.879-.196-10.069.776-11.757 6.113-5.495.084-4.063-3.189-9.982.488-.139.191-3.321 4.736-3.797 4.744-7.191-4.574-6.58-2.002-12.338-.335-2.774-3.255-7.918-2.029-10.399-1.702.245.475-.982 1.354-1.268 1.502-3.549-2.578-8.132-4.003-12.177-2.346-2.217-4.268-7.715-4.179-10.432-3.852-2.119-4.078-8.435-4.409-11.237-3.315-3.484-2.767-6.317-3.582-9.468-3.148-4.95-4.896-15.409-7.409-20.42-3.845-1.873-.59-1.79-1.357-2.372-2.018-8.459.181-7.711-.69-13.587 2.364-2.186-2.117-17.375 10.832-17.375 10.832-18.252 9.487-31.413 9.701-44.202-11.355-9.017-17.354-.432-59.869 22.704-46.242 4.403 2.596 7.334 13.652 2.29 18.082-2.589-9.617-3.409-19.427-16.378-11.003-13.563 13.068-7.244 38.089 8.809 46.968 14.771 2.928 22.718.844 30.873-12.906 16.992-13.652 23.622 3.741 39.67-.141-.148-.284-.247-.473-.249-.711-8.869-1.535-23.381-9.532-31.221-6.543-.147-.284-.245-.474-.249-.713 10.41-6.853 19.738-3.031 32.074.074l.247.474c8.679 1.875 21.115 8.42 31.39 8.261 15.497 3.867 35.527.929 52.161-2.297l27.684-17.875c14.127-10.594 24.222-28.483 35.572-42.571 6.768-10.381 6.053-7.359 20.104-10.445 7.32.412 15.589-5.694 23.463-6.533 1.296-1.979 5.088-5.266 7.116-6.468-.232 9.516-1.474 15.702 2.391 24.534-1.692 1.841.002 6.26.191 9.173-2.401 11.604-7.314 9.102-14.925 11.608-.728 2.307.81 18.249-8.847 15.195-1.708-2.364-1.652-1.792-3.22-1.337.752 6.221 1.512 14.406-7.111 16.219-11.524-.393-6.188 10.804-17.735 12.227-.191-.14-.339-.185-.386-.28-6.07 3.152-5.124 8.683-13.257 11.341-2.973-2.432-7.672 5.674-10.031 6.9m134.264-86.506c-18.051.95 2.337-21.691 6.552-8.946-.882 4.795-2.665 6.925-6.552 8.946m-12.86 3.069c-20.088 5.379-2.797-19.984 3.39-3.449-.797 1.018-1.5 1.984-2.201 2.952-.429.101-.808.299-1.189.497m-212.97 90.788c-.194-.141-.387-.279-.529-.325l-.011-.719.54 1.044" fill="#fff"/><path d="M340.495 150.563c-10.681 1.696-9.274-9.273-.899-11.699-.099-.189-.051-.333-.006-.476-9.658-3.053-5.79-12.53-3.516-4.68 4.032 4.288 5.633-.517 5.141-4.477-.334.054-.523.149-.714.25-.488-.708-.928-1.324-1.366-1.939-5.364-.584-5.688.185-7.436-4.805.513-.632-.11-.908 1.8-.94.736 1.187 1.47 2.368 2.303 3.502 3.686.372 5.5-2.857 2.726-6.112l-1.722.168c-.15-.522-.208-1.094-.263-1.667 3.698-1.923 6.189 1.481 5.684 5.838-2.214 5.246 6.273 6.978-2.068 14.565l.394.758c5.747.63 5.253 8.955-.058 11.714" fill="#231f20"/><path d="M339.836 148.134c-8.232 2.471-2.288-5.795-2.548-6.985 3.495.231 8.806 3.735 2.548 6.985m11.828-20.116c.089-.528.177-1.055.312-1.487.442.855.355 1.38-.312 1.487m-50.224 6.949c-6.518 2.058-8.129-.114-11.164-4.559.142-.196.426-.343.712-.49 3.825 3.192 6.266-5.787 10.246-8.095 5.369 1.063 4.378 10.976.206 13.144m32.219-19.932c-2.115 1.572-3.772 1.899-5.83-2.196-1.346-2.67 1.115-4.649 3.604-4.772 2.02-.098 5.723 4.378 2.226 6.968" fill="#fff"/><path d="M240.295 159.148c-1.442-.457-1.971-.782-2.973-.623-1.823-3.507-8.134-.028-9.363.612-1.594 5.505-3.21 5.47-7.062 6.718-.733-2.335 2.774-1.545 3.727-3.261 3.216-5.164 2.685-8.742 11.204-7.869.245.472.54.803 1.837 1.213 3.825-5.27-.294-13.376 12.205-11.279.568-.294 5.117-11.936 9.548-6.889-.821 2.593-9.23 2.868-6.47 8.177.097-.049.239-.002.385.043-.753.872-.935 1.448-2.272 1.421-12.853-5.724-10.378 12.02-10.766 11.737" fill="#231f20"/><path d="M323.238 98.346c-.907.11-1.811.218-2.625.281-2.09-2.406-3.406-4.011.292-5.933l2.891 1.39c-.1-.19-.102-.429-.108-.668.146.045.338.186.628.275l-.443-.852c-.57.296-.533-.325-.586-.657.862.031 1.823.495 2.028 1.352-.284.146-.519.39-.754.633.629.516 1.353.982 2.078 1.451-.551 1.729-2.548 2.284-3.401 2.728" fill="#fff"/><path d="M392.809 56.775c-1.856-3.499 1.979-8.013-5.503-9.665 3.012-2.094 4.824-1.682 6.6.184 5.23-7.205-4.992-15.984-11.775-1.107-2.189 2.461-2.01 9.189-1.452 11.112-7.727-1.691.799-14.889 3.048-19.167 15.577-12.432 18.655 10.176 9.082 18.643m-57.758 29.535c-4.249-2.613-3.594-9.697-3.986-13.467-2.75 1.431-4.923 6.29-6.705 8.42-.48-.229-.963-.462-1.304-.649 2.123-4.956 8.704-18.25 13.379-18.992.294.567-.893 22.623-1.049 24.873-.143-.047-.286-.092-.335-.185" fill="#231f20"/><path d="M314.917 94.844c-11.017 1.749-2.395-12.489 2.779-2.529-.99.873-1.886 1.701-2.779 2.529m-90.457 35.68c-2.451-.774-1.933-1.405-2.72-2.684-4.217-.698-5.934 2.723-9.081.144-3.302-6.354-6.215-.144-10.369-6.052 5.503-5.632 7.138-17.321 13.802-6.812.726.466 2.151-.034 2.09-.846.759-.394.945-.731 3.055-.382-.047.143-.092.286-.043.382 1.803-.937 3.725 2.763 4.762 4.755 1.151.365 9.018-6.976 11.917 1.153-4.915 3.516-9.2 7.79-13.413 10.342m-145.602 73.727c-18.056 3.722-34.629-29.097-21.018-39.061.043-.382.043-.382-2.067-3.745.135-.67.318-1.246.502-1.82.092-.052.235-.007.381.039-.02-1.197.367-.914 1.691-1.844 1.68.454 1.448.935 3.921.13 1.382-3.367 3.519-7.367 7.664-2.173.569-.298 1.186-.498 1.899-.747 2.003-6.34 10.697 5.519 12.322 5.401 1.059-2.599 3.293-3.396 6.792-2.689-.46 4.215 1.226 8.157 3.061 12.382-6.544 3.399-17.633-2.641-22.181-6.299-.857-2.808-.857-2.808-1.545-3.896-2.346-.347-4.184 4.462-4.838 5.286-2.196.18-2.627.279-3.331 1.007 1.094 2.804 3.043 8.173.46 11.322.731 3.957 1.56 7.862 2.433 11.864 3 2.295 6.001 4.593 9.048 6.981 5.879-3.054 1.772-9.108 3.55-11.479-.643-1.233.624-2.972 2.149-3.045 6.21 5.689 6.479 16.869-.893 22.386m161.565-86.117c-.006-.479.033-.859.076-1.246-.34-.188-.675-.372-.965-.46.3.806.3.806.114 1.145-1.44-.457-1.639-1.074-2.368-1.779.141-.194.281-.389.513-.632-.492-.947-.737-1.422-1.557-1.839-.234.245-.47.486-.612.679-.239.005-.382-.042-.527-.088-.23.242-.374.435-.515.631-4.501-.551-4.87.363-7.623 1.553-3.076-4.064-6.103-5.021-10.146-3.762-.925-1.088-1.706-2.123-2.486-3.165-1.912.03-3.07-.575-4.548-.408-.242-.233-.436-.375-.533-.562.526-12.199-3.932-19.156-13.55-25.842-1.684-.69-6.352-2.722-6.771-2.142-13.118-1.374-18.64 6.313-28.255 11.911-1.135-2.18-.211-4.344-.1-6.211.146.045.292.09.53.088-4.535-8.727 14.799-16.483 21.73-16.591 6.948 1.09 15.776 3.242 21.805 9.75.758-.396 5.316 3.738 6.724 5.054 15.572 11.662 22.801 18.621 43.824 21.066.741 1.425-11.786 10.463-13.161 11.297-.045.143-.092.288-.086.528-.568.294-1.088.682-1.513 1.025m-126.743 50.681c-.618.2-1.141.353-1.614.598-.148-.284-.249-.476-.25-.713.045-.146.187-.337.325-.529-.192-.142-.243-.235-.292-.331-.142.194-.28.388-.372.676-1.702-1.886-3.445-3.388-4.235-4.905.096-.051-.574-3.195.083-4.017 4.035 1.274 7.166-.352 7.677 8.054-.521.389-.946.73-1.322 1.167m75.622-42.908c-.427.104-.763.155-1.098.21-1.013-.797-1.737-1.027-1.654-2.028-.524.148-1.246-.079-1.68-.455-1.517.79-1.567.693-2.411 1.615-5.408-.202-4.211-3.233-6.229-3.869-4.848 1.796-5.505-.631-5.367-4.078-4.45-3.226-3.829-.178-5.303-6.036 3.221-1.674 6.192-4.302 10.087-5.844 13.733 19.242 28.539-9.047 4.085-7.902-6.356 3.3-18.384 13.526-24.942 9.948-20.402.365-34.738-23.743-14.798-35.668 1.572-.215 9.208-1.05 10.685 1.792-.957 3.027-19.237-1.325-14.45 17.386 12.713 24.467 31.877-3.315 45.762-8.121 10.022-1.111 14.895 1.777 21.392 10.805.492.949 3.548 6.827 2.041 8.334.163 1.239.47 2.525.778 3.811-.892 1.062-1.365 1.551-1.727 2.701 4.189 8.064-8.468 8.738-7.498 12.69-2.374 4.245-4.937-.69-6.348 3.78-.476.247-.899.59-1.325.929" fill="#fff"/><path d="M345.488 44.511c-1.645 1.573 9.954-19.216 4.426-22.772-.546 1.729-1.1 2.981-.54 5.216-.286.149-.568.299-.709.49-2.168-4.174-3.306-6.591 1.442-8.818 8.631 4.858-.886 23.945-4.619 25.884" fill="#231f20"/><path d="M134.355 152.049c-2.898 1.145-5.378 1.47-7.528 1.504-4.682-9.006 17.013-24.738 15.094-6.877-2.692 2.24-4.961 3.901-7.566 5.373" fill="#fff"/><path d="M365.753 29.043c-9.415.195-6.634-23.891 4.475-13.645 1.033 5.002.457 11.082-4.475 13.645" fill="#231f20"/><path d="M111.658 155.657c-15.347-3.35 5.717-19.834 2.745-1.912-.994.639-1.892 1.228-2.745 1.912m75.809-46.259c-12.228-2.438-7.787-11.971.396-5.265 1.332 2.56 1.918 3.46-.396 5.265m-71.222 33.757c-7.302.784-5.547-6.27-7.158-8.444.475-.247 8.493-4.053 7.49-.882 4.05 2.231 1.98 7.52-.332 9.326m-25.298 11.578c-4.058.302-5.062.221-7.623 1.555-1.267-1.511-2.483-2.927-3.701-4.344-.191.102-.285.15-.33.296-4.462-.935-6.231-.858-9.03.235-8.719-4.263-6.437 1.295-10.515 3.413-8.355-2.641-4.544 8.865-6.454 8.895-.047.145.003.241.102.429-.99.877-.99.877-1.375.834-6.358-12.232 8.222-21.495 18.939-20.802 5.942 1.008 12.953 2.91 19.865 4.854.255.953.92 3.619.122 4.635m30.751-23.565c-3.837-.898-5.045-1.596-4.428-5.047.096-.047.24-.002.478-.01.469-.722 1.029-1.495 1.592-2.268 1.343.264 2.683.531 4.076.891.398.997.793 1.996 1.194 2.994-.466.723-.888 1.304-.829 2.116-.759.394-1.469.885-2.083 1.324m9.692-6.843c-9.151 1.624-5.746-9.902 1.39-2.891.067 1.292-.103 2.584-1.39 2.891" fill="#fff"/></g></svg>