<svg xmlns="http://www.w3.org/2000/svg" viewBox="0 0 437.4 496.8" enable-background="new 0 0 437.4 496.8"><path stroke="#000" stroke-width=".036" stroke-miterlimit="10" d="M437.3 263.6c-1.3-13.9-12-26.8-21.4-37.7-9.5-10.8-21.5-22.7-35.2-26.7-13.5-3.7-35.2-3.4-45.9 3.6-10.6 7.2-12.9 26.9-17.1 38.6-4.1 11.6-3.5 21.7-7.5 30.4-4.1 8.6-10.6 15.7-16.9 21.4-6.4 5.5-16.2 11.2-24 13.5 4.5 4.3 7.7 10.2 9.2 17.8 1.4 7.5 1.2 16.2-.8 26.8 19-7.9 33.5-17.8 44.2-30.3 10.4-13.2 12.9-30.9 18.8-44.4 5.7-13.4 8.5-28 16-33.8 7.4-5.8 20-4.9 28-.3 7.1 4.5 12.1 20.4 18 27.2 6.2 6.7 12.3 9.9 18.7 11.6.1.2 17.3-3.8 15.9-17.7z"/><path fill="#A16121" stroke="#000" stroke-width=".036" stroke-miterlimit="10" d="M283.2 346.2c0-7.3-1-13.9-2.1-20.2-1.5-6.6-3.1-12-5.7-17.7l7.9-3.5c5.2 2.2 9.7 5.5 14.1 9.5 4.1 4.3 7.7 8.5 10.8 14.7-3.4 2.7-6.8 5.5-11 8.5-4.3 2.7-8.8 6-14 8.7z"/><path fill="#FFC080" stroke="#000" stroke-width=".036" stroke-miterlimit="10" d="M311 325.5c-1.4-3.1-4.1-6.7-8.1-10.3-4.3-3.9-9.3-7.7-16.1-12.1 1.9-1 3.2-2.7 4.9-3.6 1.2-1.5 2.7-2.3 3.6-3.7 3.4-1 7-.9 10.8-1 3.5-.1 8.1-.3 12 1.2 4 1 7.3 3 11.1 5.8-2.3 5.4-4.9 9.9-7.7 14.1-3.3 3.8-6.8 6.9-10.5 9.6z"/><path fill="#A16121" stroke="#000" stroke-width=".036" stroke-miterlimit="10" d="M330.6 296.6c.9-2.6 1.7-4.8 2.8-8 1-3.4 2.4-6.3 3.7-10.3-3.1-.4-6.8-1-11.2-.5-4.6.4-9.8.5-16 1.8-1.8 2.7-3.7 5.2-5.3 7.4-1.8 1.9-3.5 3.6-5 5 5.7-1.4 10.7-1.9 16.1-1 5.3.6 10.1 2.6 14.9 5.6z"/><path fill="#FFC080" stroke="#000" stroke-width=".036" stroke-miterlimit="10" d="M312.2 275.6c3-1 6.4-1.6 11-1.6 4.1-.1 9.3.3 15 1.2l2.8-8c-2.6-4.4-5.7-8-9.3-11.3-3.9-3.5-7.7-6.2-12.6-8.6-1.2 6.8-2.1 12.4-3.2 17.2-1.3 4.5-2.4 8.2-3.7 11.1z"/><path fill="#A16121" stroke="#000" stroke-width=".036" stroke-miterlimit="10" d="M342.4 262.6c-1.5-3.4-4-6.4-7.3-9.8-3.6-3.5-8.1-6.7-13.5-10.2.8-6.3 2.3-11.2 3.2-15.2 1.3-4.1 1.9-6.8 3.4-8.6 4.6 2.6 8.8 6.4 12.4 11.6 3.6 5.2 6.3 10.8 8.6 18.4-.9 1.7-2.1 4.1-3 6.3-1.2 2-2.6 4.9-3.8 7.5z"/><path fill="#FFC080" stroke="#000" stroke-width=".036" stroke-miterlimit="10" d="M352.4 242.8c-.9-5.2-3-10.1-6.7-14.7-4.1-4.8-8.6-9.3-15.5-13.5.4-3.7 2.1-6.6 5.5-8.5 3.4-2.3 8-3.6 14.4-4.4 5 3.2 8.8 7.5 10.7 13.3 1.9 5.7 2.2 12.8.8 21.3-2.5.6-4.4 1.5-5.8 2.7-1.6 1-2.8 2.3-3.4 3.8z"/><path fill="#A16121" stroke="#000" stroke-width=".036" stroke-miterlimit="10" d="M364.7 235c0-.5 1.2-.9 3-.6 1.7 0 4.5.1 8 .9 1.9-5.5 4-10.4 7.2-14.7 3-4.4 6.6-8.1 10.8-11.2-5-3-8.9-4.9-13.5-6.3-4.5-1.7-9.3-1.7-12.9-2.1-3.7-.5-7.2-.5-9.9 0 3.2 3.5 6.1 7.9 7.1 13.7 1.4 5.7 1 12 .2 20.3z"/><path fill="#FFC080" stroke="#000" stroke-width=".036" stroke-miterlimit="10" d="M379.7 236.6c-.3-3.1 1.3-6.7 4.1-10.8 3-4.3 6.7-9 12.8-14.3 4.6 3.6 7.9 6.7 10.7 9.3 2.7 2.6 4 4.1 4.9 5.7-.1 3.5-.9 6.8-2.3 10.6-1.9 3.9-5 8.1-7.2 11.3-2.1 2.7-4.4 4.1-5.9 4.8-2.6-5.4-5.3-9.3-8.1-12.1-3-2.9-5.9-4.2-9-4.5z"/><path fill="#A16121" stroke="#000" stroke-width=".036" stroke-miterlimit="10" d="M414.9 228.5c1 4.8.3 8.9-2.3 13.8-2.8 4.6-7.5 9-13.9 13.7 1.9 5.4 4.9 9.8 8.9 13.7 4.4 3.7 10.1 7.7 15 8 4-.9 9.2-4.9 10.6-9.5 1.4-4.9-.6-9.8-3.2-16.6-3.5-6.8-8-14.3-15.1-23.1z"/><path stroke="#000" stroke-width=".036" stroke-miterlimit="10" d="M410.5 211.5c-1.7.8-2.6 1.3-4.1 3-1.8 1.3-4.4 4-5.7 5.2-1.5.6-3.6.9-2.7-.3.3-1.7 3.6-5.5 6.1-7.6 2.5-1.9 6.7-5.3 8.8-5.2 1.3-.4 2.2 1.9 1.7 3-.4.7-3.2.7-4.1 1.9zm5.7 5c-1.2.4-2.6 1.4-3.7 2.6-1.9 1.3-3.6 3.5-5 4.5-1.3.4-3.2.8-2.3-.3.1-1.3 3.1-5.2 5.4-6.7 2.1-2.3 5.9-4 7.6-4.5 1.2-.1 1.7 1.4 1.6 2.6-.8.4-2.6 1.2-3.6 1.8zm-85.9 100.7c-1-1.5-2.2-2.3-3.5-3.7-1.9-1.8-4.6-3.9-5.7-5.2-1-1.4-1.7-3.5 0-2.7 1.3.4 5.7 2.8 8.3 5.3 2.3 2.2 5.2 6.1 6.1 8.1.4 1.5-2.2 2.2-2.8 1.9-1-.4-1.8-2.5-2.4-3.7zm-4.4 6.2c-.9-1.4-2.1-2.1-3-3.4-1.8-1.5-4-3.2-5-4.5-.9-1.3-1.4-3.1 0-2.5.8.3 5.2 2.5 7.2 4.6 1.7 1.9 4.8 5.3 5.3 7.1.1 1.3-1.7 2.1-2.5 1.8-.8-.2-1.3-2.3-2-3.1zm-178.4-78.2c-13.3-.3-24.4 3.2-33.8 9.9-9.7 6.7-18.3 20.4-23 30-4.9 9.4-7.2 17.4-6.4 25.4-11.3.8-20.8 3.7-29.3 8.9-8.9 5.3-17 12.3-21.4 21.9-4.1 9.4-4.1 25-3 34.8 1.2 9.4 5.8 14.6 8.9 21.4 2.7 6.6 4.4 11.7 6.4 16.9-9 2.5-15 5.3-19.3 10.4-4 4.8-6.2 12.2-6.1 17.9-.5 5.2.1 10.4 3.5 13.4 3.2 2.8 7.7 3.5 15 3 1.2 5.8 4 10.4 8.5 12.5 4.5 2.4 12.1 2.3 18.3 1 5.8-1.7 11.5-5.2 17-10.4 1.5 4.6 3.4 8.9 5.9 11.3 2.2 2.8 5 3.9 8.5 4.5 3.5.5 7.6-.8 12.4-2.4-1 4.8.6 8 4.5 9.2 3.7 1.2 10.2.6 18.8-1.5 1.8 8 6.4 12 13.9 12.5 7.6.1 22.6-2.8 30.4-9.9 7.5-7.2 12.6-17.7 15-31.9 3.5 13.3 7.7 22 14.3 27.3 6.2 4.8 17.1 4.8 23 3 5.4-1.8 8.9-7 9.9-14.4 5.8 5.7 11.6 8 16.9 7.5 5.2-.8 10.3-4.9 15-11.9 5 2.8 9 3.5 12.5 2.5 3.1-1.3 5.5-4.8 7.3-9.9 8.6 9.9 16.1 14.6 21.9 15.3 5.7.4 10.2-3.7 13-12.4 11.3.4 17.7-1.9 20.9-7.5 2.7-5.8.9-18.6-4-25.4-5-7.1-13.7-12.4-25.9-16.4 19.6-20 30-36.1 32.4-49.8 1.8-13.7-9.2-24.6-19.5-31.3-10.4-7.1-24.4-10.6-42.3-10.4 2.7-21 .3-37.4-7.3-50.2-8-12.6-26.6-20.6-38.3-25.4-11.7-5-22.1-6.8-31.5-4.9l-63 5.5z"/><path fill="#A16121" stroke="#000" stroke-width=".036" stroke-miterlimit="10" d="M121.2 256.6c-5.3 2.3-10.1 5.8-13.8 9.4-3.9 3.5-7.1 7.5-9.7 13-3.1 5.4-7 12.9-8.6 20-1.9 6.8-2.6 13.8-1.9 21.9.3 8 2.1 16.8 4.4 25.3 1.9 8.1 5.4 16.1 9 24 11.9-12.5 18.4-20.4 21.1-25.5 2.3-4.9-3.4-3.7-6.6-4-3.5-.6-8.3-.6-14.3 0 4.3-4.1 7.9-7.1 11.3-9.9 3-3 8.6-4.8 8.5-6.4-.5-1.8-5.7-2.4-9.9-3.5-4.4-1.5-10.1-3.2-16.5-5 6.1-3.5 12.4-5.8 19-8.4 6.6-2.8 18.8-3.9 19.9-6.1.4-2.1-10.7-3.9-15.9-5.9-5.4-2.3-10.6-4.6-16-7.5 11.1-2.6 19.1-4.8 23.5-8 4-3.2 3.5-6.7 3-10.4-1-4.1-2.7-8.2-6.5-13zm125.4-5.5c8.6 3.2 15.1 6.7 20.8 11 5.4 4.3 9 8.3 11.3 13.4-13.7 5.8-23.7 9.2-30.2 10.6-6.7 1.2-9 2.4-9-3.1-.6-6.1 2.2-16.6 7.1-31.9zm32.5 26c2.4 2.8 4.4 7 5.3 13.8.8 6.6.9 15.5.4 25.7-.9 9.7-2.3 20.6-4.8 32.9-13.7-6.2-21.5-10.4-25-13.3-3.1-2.7 1.5-2.8 5.4-3.9 3.4-1.5 8-3.2 14.4-5-8.1-4.5-15.1-7.9-21.9-11.5-7.4-3.6-18.4-5.4-18.3-8.9.4-3.7 12.5-7.1 20.4-12 7.3-5 15.2-10.9 24.1-17.8zm40 53.3c7.2 2.8 13 6.8 17.4 10.6 4.3 4.1 7.1 8 8.5 13 1.5 4.6 1.4 8.4-.4 14.7-2.5 6.3-6.4 13.2-13 21.9-14.2-5.9-22.3-10.3-24.4-14.6-2.1-4.5 7.1-6.3 12-9.9 4.8-3.7 14.7-8.9 15.9-11 .3-1.8-8.5-1.7-12.4-1-4.5 0-9.7 2.8-11 1.5-.9-1.8 2.7-7 4.4-11 1.2-4.2 2.3-8.9 3-14.2zm-259.3-8.5c-7.6 3.6-13.3 7.4-17.5 12.6-4.3 4.8-6.2 10.6-7.2 17.4-1.3 7-1.3 16 0 23.6 1 7.4 3.6 13.3 7.2 19.2 5.2-4.9 8.9-8.6 11.7-12.2 2.8-3.6 5-6.6 4.5-8.9-.9-2.3-7.2-2.8-10.1-5-3.4-2.8-9.8-7-9.4-9.4.5-2.5 6.2-5.4 11.5-5.9 4.8-.9 15.7 2.1 17.9 0 1.9-3.1-4.4-9.4-5.5-15-1.6-5.3-2.6-10.6-3.1-16.4z"/><path fill="#FFC080" stroke="#000" stroke-width=".036" stroke-miterlimit="10" d="M122.4 253c3.4 4.5 5.8 9 7.3 13 1.4 3.9 4.1 7.1 1.2 11.1-3.4 3.9-10.7 7.6-21.5 11.7 8.9 1.7 15.9 3.9 20.4 6.6 4.8 2.7 8.3 6.2 7 8.9-2.1 1.9-11.1 1.7-17.2 3.7-5.9 1.9-12.9 4-19.5 7.2 9.2 1.5 15.3 3.5 19.1 5.3 3.6 1.4 4.3 3.5 2.5 6.2-2.3 3-6.6 6.6-14.3 11.3 7.1-1.2 12-1 14.7.4 2.4 1.3 4.5 1.5 1.2 7.7-3.4 5.9-10.7 14.7-21.5 27.3 3.5 7 6.7 14.2 10.2 21.1l9.8 20.4c-8.8 1.9-16.1 5.7-22.1 11.7-6.2 6.1-12.1 16.2-13.8 23.6-1.7 7 .4 13.2 3.2 17.5 2.8 4 8.4 6.4 12.6 6.8 3.5.1 6.7-1.9 10.2-5.7 3.4-4.3 7.1-10.2 10.7-18.3-2.5 5.7-4.3 10.8-5.9 15-1.9 4-3.2 7.5-4.4 9.9 1.5 3.7 4.1 6.2 7.7 6.8 3.9.3 9-1.8 13.4-3.2 3.5-1.5 6.3-1.9 9-5.7 2.3-4.3 4.5-10.7 6.1-19.3 1.5 8 .9 13.8-.5 18.8-2.1 4.9-4.9 7.6-9.9 9.5.4 5.3 2.5 8.4 7.6 9.3 4.8.6 15.1-1.8 21.5-4.9 6.6-3.6 11.9-6.2 16.4-14.2 3.7-8.4 6.4-19.7 8.1-32.6.9-13 1.2-30.7.8-43.6-.3-12.9-1.5-24-2.8-33.3-4.3-.5-7.9-1-11.3-2.1-3.6-.9-6.6-1.9-9.4-3.6-3.2-2.3-11.3-8.5-9.4-8.6 1.8 0 13.8 6.1 20 7.7 5.7 1 9.5 1.7 15.1 0 5.4-2.2 13.9-9.7 16.6-10.6 1.9-.8-.6 3.7-3.2 6.6-3.1 2.7-7 5.7-13.2 9.4 1.3 17.9 1.9 33.7 2.4 47.7.3 13.8-2.4 25.3-.6 36 1.3 10.2 4.3 21.3 8.9 27.3 4.5 6.3 11.2 9.4 17.1 9.3 5.5-.5 10.1-5 15-13-3.2-3.1-5.5-6.2-7-9.8-1.5-3.9-2.6-7.3-2.6-11.9 3.2 5.7 6.7 10.3 10.4 14.4 4 3.9 7.9 7.7 12.1 9.7 4 1.4 7.3 1.4 10.6 0 2.4-1.4 4.4-4.5 5.3-8.8-6.8-3.6-11.5-7.7-14.4-11.9-3.2-4.1-3.7-8.8-3-13.4 3.5 7.6 7.5 12.9 12.5 17.8 4.8 4.3 11.9 8.3 16.4 9 4.1.6 5.8-.6 8.5-4.9 2.5-5 7.2-15.5 6.3-22.4-1.3-6.8-4.3-12.5-12.9-18.4-9-6.6-22.3-12.4-40.4-19 11.6-9.7 20.9-18.2 27.3-26 6.4-7.7 10.6-14.8 11.9-20.8-12.8-6.2-21.3-11.1-26-14.7-4.6-3.6-5.2-6.2-2.1-7.7 2.6-2.2 8.4-3.4 17.9-4-11.1-4.1-19.6-8-26-11.1-6.6-3.5-12.1-5.8-12.6-8.5-.6-3.2 4.1-5.7 9.4-8.9 5.3-3.7 12.2-7.1 21.9-11.5-11.7 3.5-19.7 4.9-24 3.7-4.4-1-3.7-3.9-2.1-10.6 1.3-7.1 4.4-17.5 9.8-31.3-8-1.7-16.8-2.5-27.7-2.3-11.2 0-25 .6-36.9 1.9-12.2 1-24.5 2.2-34.3 3.5-9.6 1-17.5 1.9-23.6 1.8zm-40.2 61.9c.3 8.8 1.9 18.6 5 29.4 3.1 10.7 7.6 23.5 13 35.3 5 11.5 10.2 22.3 16.5 33-8.5 4-15.3 8.4-20 12.1-5 3.6-6.8 7.6-8.9 11-2.3 3.2-4.1 5.7-4.9 9.4-1.2 3.7-1.4 7.6-.8 12.6-5.3 5.9-10.4 9.7-15.5 11.7-5.8 1.4-11.6 1.2-15.9-.8-4.3-1.9-7-5-8.6-9.8 6.6-2.2 11-4.9 14.2-7.6 3-2.8 4.1-5.7 4-9-5.9 4.9-11.1 9-16.5 11-5.8 1.8-12.1 4-15.5 1.7-3.4-2.8-5.5-11.1-4.5-16.2.6-5.5 4.5-11.1 8.6-14.7 4-3.6 8.5-5.8 14.6-6.6 8.4 9.3 12.6 13.3 13.3 12.5.1-1.5-7.5-12.8-10.4-18.2-2.8-5.7-5.4-9.8-7.2-13.8 5.3-4.3 9.2-8.1 13-12.6 3.4-4.6 8.4-10.6 8.1-13.8-1.2-2.8-7.5-3.5-11.5-4.9-3.7-2.1-7.1-4.4-10.6-7 2.5-2.3 6.4-3.5 11-4 4.5-.5 13.4 2.2 16.8 1.2 2.4-1.5 1.5-5.8.8-9.8-1.2-4.4-3.5-9.9-4.9-14.6-1-4.5-2.3-8.9-2.4-12.6 3.4-1.5 6.4-2.4 9.8-3.2 3.2-1 6.2-1.4 9.4-1.7zm205.4 8.5c-.9 15.2-3.6 27.9-7.6 37.9-4.8 10.2-11.6 15.3-17.5 21.9-5.8 6.1-11.2 11.1-16.8 15.1 16.1 6.1 27.7 11.6 36.2 17.1 8.1 5.4 11 10.6 13.4 15.5 2.1 4.1.9 7.1.5 11-.5 4-1.9 7.7-3.7 12.2 4.3 5.2 8.5 8.9 12.2 11.7 3.9 2.4 7.2 4.6 10.6 4.1 3-.9 5.7-3.5 8.1-8.3-3-2.3-5.4-4.6-7.3-8-2.3-3.5-4-7-5.5-11.5 3.5 5.8 7.6 10.4 12.9 12.5 5.3 2.2 14.7 2.8 18.3.9 3.1-2.8 3.1-9.5 2.1-14.7-1.5-5.4-3.7-11.2-9-15.9-5.5-4.9-12.6-8.8-22.7-12.1-.1-1.2 1.7-3.4 4.4-6.6 3-3.2 6.8-7.7 12.6-13-8-4.3-13.8-7.9-17.9-11.3-4.5-3.4-9.3-5.8-6.8-9.4 2.6-4.3 9.5-8.9 21.9-15-11.5 3.9-17.5 4.4-19.7 2.1-2.2-2.8 5.9-11.9 7.5-17.1 1.4-5.4 1.5-10.3.9-14.7-6.2-1.8-10.8-2.8-15.5-3.6-4.6-.8-8.6-.9-11.6-.8z"/><path stroke="#000" stroke-width=".036" stroke-miterlimit="10" d="M221.9 60.8c.6-4 4-8.9 9.5-14.7 5.5-6.4 15-14.2 23.7-20.2 8.3-6.1 18.2-11.7 26.3-15.5 7.6-4.1 14.4-6.7 20-8.3 5-1.8 9-4.3 12.5-2.4 3.4 1.3 5.5 4.6 8.1 11.5 2.1 6.7 4.5 18.7 5.9 29 1.2 10.1 1.8 22.4 1.9 31.7 0 8.8-.9 16.8-2.2 22.6-1.5 5.7-2.6 9-6.1 11.6-3.6 2.2-9 3-15.7 2.3-8.1-13.8-18.6-24.6-32.8-32.5-14.1-8-30.8-13.1-51.1-15.1z"/><path fill="#FFC080" stroke="#000" stroke-width=".036" stroke-miterlimit="10" d="M225.3 58.7c1.5-2.7 3.4-5.7 5.9-8.4 2.3-3.1 5.2-6.1 8.5-8.9 1 .1 3.2.5 6.1 1.2 2.8.4 6.3 1.4 11 2.6-2.7 1.4-5.7 3-7.9 6.1-2.3 3-4.9 6.1-6.7 10.7-4.5-.9-8.4-1.5-11.1-1.9-2.9-.7-4.9-1-5.8-1.4z"/><path fill="#A16121" stroke="#000" stroke-width=".036" stroke-miterlimit="10" d="M261.4 23.6c-4.8 3.4-8.4 6.4-11.9 9.3-3.4 2.5-6.1 4.8-8.1 6.4 2.1.4 4.6.6 7.7 1.3 3.1.5 5.9 1.4 9.9 2.2.9-.8 1.7-1.3 2.8-2.1.9-.9 2.1-1.5 3.5-2.5-1.2-3.1-2.1-6.1-2.7-8.4-.8-2.4-1-4.4-1.2-6.2z"/><path fill="#FFC080" stroke="#000" stroke-width=".036" stroke-miterlimit="10" d="M269.4 19.1c-1.8.8-3 1.3-4 2.1-1 .6-1.8 1-2.3 1.7.3 1.7.8 3.6 1.5 5.8.8 2.2 1.3 4.6 2.6 7.4 2.1-1.3 4.5-2.7 6.3-3.7 1.7-1.2 3.2-1.9 5.2-2.8 1.8-1.2 4.3-2.2 6.8-3.1-2.2-1.3-4-2.7-6.8-3.7-2.8-1.5-5.9-2.6-9.3-3.7z"/><path fill="#A16121" stroke="#000" stroke-width=".036" stroke-miterlimit="10" d="M272.5 17.3c2.4-2.2 5.9-3.6 9.9-5.7s9.8-4.4 13.9-5.5c3.4-1.5 5.8-2.3 7.9-2.8 2.5-.8 3.9-1.4 5.7-1.4-2.6 2.3-4.8 4.8-7.1 7.3-2.2 2.6-5.2 4.5-6.4 7.2-1.8 2.3-3.1 5.7-3.9 7.1-1.2 1.3-1.6 1.2-2.6 1-1.8-.5-3.7-2.2-5.8-3-2.1-.8-4-1.7-5.8-2.2-2-.4-4-1.6-5.8-2z"/><path fill="#FFC080" stroke="#000" stroke-width=".036" stroke-miterlimit="10" d="M312.4 2.4c-2.7 2.5-5.2 4.8-7.3 7-2.2 2.1-4.3 4-5.7 6.3-1.6 2.2-3 4.8-3.7 7.2 2.2-1 4.1-.9 5.8-1 1.5-.1 1.9.3 3.2 1.2.9.8 2.1 2.1 3 3.9.6 1.5 1.5 3.4 2.2 5.4.9-3 1.9-4.8 3.1-6.8 1.2-2.1 2.2-3.6 3.6-4.6 1.3-1.4 3-2.6 4.5-3.5-1-4.9-2.1-8.5-3.6-10.8-1.6-2.7-3.3-4.2-5.1-4.3z"/><path fill="#A16121" stroke="#000" stroke-width=".036" stroke-miterlimit="10" d="M321.5 19.2c-2.4 1.8-4.1 3.9-6.1 6.7-2.1 2.7-3.4 5.7-4.9 9.4 0 1.7.8 3.5.9 5.4 0 1.5.8 3.2.9 5 2.8 1.7 5.7 3.2 8 4.6 2.3 1.4 4.1 2.6 5.9 4-.5-6.2-.9-11.7-1.2-16.1-.3-4.9-1.2-7.7-1.3-11-.5-3.1-1.3-5.8-2.2-8z"/><path fill="#FFC080" stroke="#000" stroke-width=".036" stroke-miterlimit="10" d="M326.4 56.6l.5 10.6c-1.7 1-4 2.2-5.9 3.5-2.2 1-4.5 2.4-7 3.7.4-5.7.3-10.2.1-14.6-.3-4.4-.5-8.1-1.3-11.2 2.8 1.3 5.4 2.8 7.7 4.1 2.3 1.2 4.3 2.5 5.9 3.9z"/><path fill="#A16121" stroke="#000" stroke-width=".036" stroke-miterlimit="10" d="M327.3 69.3c-.3 3.2-.3 6.8-.5 10.3-.5 3.1-.9 8-1.2 10.7-.5 2.6-.8 3.6-1.3 5.5-.8 2.1-1.7 3.5-2.7 5.7l-10.2-10.4c.5-2.8 1.3-4.9 1.8-7.2.4-2.5.5-4.1.9-6.1 1.5-1 3.9-2.2 5.9-3.5 2.4-1.5 4.5-3.2 7.3-5z"/><path fill="#FFC080" stroke="#000" stroke-width=".036" stroke-miterlimit="10" d="M309.9 92.7c-.4.9-1.8 1.7-3.2 2.3-1.9.6-3.9 1-6.8 1.7 1.3 1.8 3 3 4 4.9 1 1.5 1.9 3.2 2.7 5 1.9.5 3.6.5 6.1 0 2.3-.5 4.4-2.1 7.2-3.6-3.5-3.1-5.8-6.1-7.5-7.5-1.8-1.5-2.5-2.9-2.5-2.8z"/><path fill="#A16121" stroke="#000" stroke-width=".036" stroke-miterlimit="10" d="M297.9 94.3c3.4-.5 5.8-1.7 7.9-3 1.8-1.5 2.6-2.6 3.7-6.1.9-4.4 1.8-10.2 2.2-16.4 0-6.4-.1-13-.9-19.7-1.3-6.7-2.8-15.5-4.6-19.3-1.7-4-3.9-4.9-6.6-4.6-3.2-.4-7.5.6-12.3 3.1-5.4 1.9-12 5.8-17.7 9.7-5.8 3.4-12.2 9-15.3 12-3.4 2.6-3.2 3.6-4.5 5.5-1.8 1.8-2.8 4-4.5 6.1 6.2 1.9 12.1 3.6 17.8 6.1 5.4 1.9 10.6 4.1 15.5 7.1 4.8 3 10.1 7.2 13.4 10.7 3.2 3.1 5 6.1 5.9 8.8z"/><path stroke="#000" stroke-width=".036" stroke-miterlimit="10" d="M262.1 22c-1-1.7-1.9-3-2.7-4.4-1.3-1.7-2.3-3.7-3.1-4.1-.9-.8-2.1 0-2.1.8-.5.3-.1.5 1.2 2.7 1.3 1.9 3.9 8.3 5.7 9.9 1.3 1.4 2.1-1 2.3-1.4.1-1.1-.8-2.3-1.3-3.5zm-6.3 1.5c-1.3-1.2-2.8-2.2-4.1-3.1-1.9-1.5-3.2-2.3-4.4-2.8-1.4-.1-1.8.5-1.7 1.4 0 .4 0 .4 2.1 2.1 1.9 1.7 6.7 6.3 8.8 7.5 1.4.9 1.8-1.7 1.7-2.2-.6-1.1-1.4-1.9-2.4-2.9zm63.7-16c1-.9 2.6-1.7 4.6-2.3 1.5-1.2 5.9-1.5 7.2-2.6 1.4-1.3 2.1-2.3.9-2.6-1.9-.3-6.4.5-9.5 1.8-3.1 1.2-7.6 3.6-8.6 5.3-1.2 1.3.8 2.4 1.8 3 .9 0 1.9-2.2 3.6-2.6zm1.6 7.2c1.2-.8 2.1-1.4 4.1-1.9 1.7-.9 4.8-1.7 6.3-2.3 1.2-1.3 1.9-2.1.9-2.3-1.8-.1-5.8.3-8.5 1.7-3 .6-6.4 3.4-7.5 4.6-1.2 1.2.5 2.2 1.5 2.6.9-.3 2-1.7 3.2-2.4zm-188.7 48c-1.7-3.9-6.3-7.3-12.9-11.9-7.2-4.5-18.3-10.3-27.9-13.9-9.8-3.9-20.9-6.7-29.3-8.5-8.8-2.1-15.7-3-21.4-3.2-6.1-.4-9.8-1.9-12.8.8-3.1 1.9-4.6 5.9-5.2 13-.9 7 .3 19.3 1.4 29.7.9 10.1 3.4 22 5.8 31.1 2.1 8.6 4.8 16 7.6 21.5 2.8 5 4.3 8.3 8.8 9.7 4.3 1.3 9 .8 15.7-1.5 4.3-15.6 12.2-28.1 24-39.5 11.7-11.3 27.1-20.2 46.2-27.3z"/><path fill="#FFC080" stroke="#000" stroke-width=".036" stroke-miterlimit="10" d="M128.4 61.5c-2.3-2.3-4.9-4.5-7.7-6.6-3.2-2.1-6.7-4.8-10.4-6.7-.9.4-3.2 1.3-5.5 2.7-2.7 1-6.1 3.2-10.1 5.2 3.2.3 5.8 2.1 9.2 4 3.2 1.8 5.8 5.2 9.2 8.6 4.3-1.8 7.5-3.5 10.2-4.5 2.2-1.4 4.2-2.3 5.1-2.7z"/><path fill="#A16121" stroke="#000" stroke-width=".036" stroke-miterlimit="10" d="M84.9 36.4c5.3 2.2 9.7 4.4 13.7 6.1 3.7 1.8 7.1 3.1 9.5 4.4-2.1.5-4.6 1.7-7.2 3-2.7 1.3-5.9 2.8-9.2 4.6-1.2-.8-2.1-.8-3.2-1.4-1.4-.6-2.6-1.2-4-1.5.1-3.1.5-6.4.6-8.6.1-3-.2-4.7-.2-6.6z"/><path fill="#FFC080" stroke="#000" stroke-width=".036" stroke-miterlimit="10" d="M76 33.9c1.8.5 3.1.4 4.4 1 1 .5 1.9.4 2.7 1 .1 1.5.1 3.7 0 6.1-.1 2.3-.4 4.9-.8 7.7-2.8-.9-5-1.4-7.1-2.1-1.9-.6-4-1.2-5.7-1.5-2.3-.6-4.8-.9-7.4-1.3 1.7-1.7 3.1-3.6 5.7-5.3 2.3-1.7 5-3.7 8.2-5.6z"/><path fill="#A16121" stroke="#000" stroke-width=".036" stroke-miterlimit="10" d="M72.5 32.9c-3.1-1-6.6-2.2-11-3-4.8-1-10.7-1.9-14.8-2.2-3.7-.5-6.3-.9-8.3-.6-2.2-.3-4.6-.3-5.9 0 2.8 1.9 5.9 3.2 8.8 5.3 2.6 1.7 5.5 3.5 7.9 5.4 1.9 1.7 4.3 4.6 5.5 5.9 1 .8 1.3.9 2.7.4 1.2-.9 3-3 4.9-4.1 1.7-1.4 3.2-2.4 5.2-3.6 1.6-1.3 3.2-2.5 5-3.5z"/><path fill="#FFC080" stroke="#000" stroke-width=".036" stroke-miterlimit="10" d="M30.3 28.1c3.2 1.5 6.2 3.2 8.9 5 2.7 1.3 4.9 2.8 7.1 4.6 1.9 1.8 3.9 3.9 5.3 6.2-2.6-.1-4.4 0-5.9.4-1.5 0-2.3.8-2.8 1.8-1 1-1.3 2.6-1.8 4.6-.5 1.8-.8 3.4-.8 5.7-1.8-2.2-3.2-4.6-4.8-5.9-1.5-1.4-3.2-3.1-4.5-3.6-1.7-1-3.5-1.8-5.4-2.3-.3-5 .3-8.6 1-11.3.6-3 2-4.5 3.7-5.2z"/><path fill="#A16121" stroke="#000" stroke-width=".036" stroke-miterlimit="10" d="M25.5 46.8c2.4 1 5.2 2.8 7.6 4.9s4.6 4.9 7.1 8c0 1.9.1 3.6.4 5.5 0 1.5.1 3.2.4 5-2.7 2.5-4.8 4.3-6.7 6.4-2.1 1.9-3.5 3.7-4.8 5.4-1.4-6.3-2.2-11.5-2.8-16-.9-4.8-1.2-8-1.3-11.1-.3-3.2-.4-5.7.1-8.1z"/><path fill="#FFC080" stroke="#000" stroke-width=".036" stroke-miterlimit="10" d="M29.9 84.2l2.1 10.4c2.2.8 4.3.9 6.7 1.8 2.3.5 5 1.2 7.6 1.9-1.7-5.3-2.7-9.8-3.6-14.1-1-4.6-1.5-7.7-1.5-11.2-2.5 2.1-4.8 3.9-6.4 5.9-2.2 2-3.6 3.5-4.9 5.3z"/><path fill="#A16121" stroke="#000" stroke-width=".036" stroke-miterlimit="10" d="M32.2 96.7c.8 3.2 1.9 6.3 3 9.8 1.2 3.2 2.2 7.2 3.6 10.1 1 2.5 1.3 3.4 2.7 5.2.9 1.7 2.6 3.1 4 4.8l7.3-12.5c-1.7-2.3-2.7-4.9-3.6-6.7-1-2.3-1.9-3.9-2.2-5.7-2.1-.5-4.1-1.2-6.7-1.9-2.6-1.1-5.3-1.8-8.1-3.1z"/><path fill="#FFC080" stroke="#000" stroke-width=".036" stroke-miterlimit="10" d="M54.8 115.2c.4.6 1.9 1.3 3.6 1.4 1.5.1 4.3.1 7.1 0-1.2 1.8-2.1 3.7-2.7 5.8-.9 1.7-1.2 3.5-1.3 5.4-1.8 1-3.6 1.5-5.9 1.5-2.3-.3-5.2-.6-8-1.7 2.6-4.3 4.3-7 5.5-9.2 1.3-2.2 1.7-3 1.7-3.2z"/><path fill="#A16121" stroke="#000" stroke-width=".036" stroke-miterlimit="10" d="M66.7 113.8c-3.2.3-6.2.1-8.4-.9-2.2-1.2-3.7-1.8-5.2-4.9-1.9-3.9-4.6-9.7-6.1-15.5-1.8-6.3-3.5-12.8-4-19.3-1-7.1-.9-15.2-.1-19.9.8-4.4 2.1-5.4 5.3-6.1 3-1 7-1 12.5 0 5.3.6 13.2 2.8 19.6 5 6.6 1.9 13.2 5.5 17.8 7.9 3.7 1.5 3.5 2.8 5.7 4.4 1.9 1.4 3.7 3 5.9 4.6-5.9 3.2-10.7 6.8-15.7 10.3-5 3.5-9.3 6.2-13.3 10.6-4.1 4.3-8.3 9.3-10.4 13.7-2.1 3.9-3.8 7.2-3.6 10.1z"/><path stroke="#000" stroke-width=".036" stroke-miterlimit="10" d="M95.8 40.5c.6-1.7 1.4-3 2.8-4.4.8-1.8 2.3-3.5 3.2-4 .4-.8 2.1 0 2.1.8.3.3-.5.5-1.3 2.7-1.4 2.1-4.5 8-5.8 9.8-1.4 1.4-2.2-1-2.3-1.4-.4-1 .4-2.2 1.3-3.5zm6.3 1.8c.8-1.2 2.7-2.2 4.3-3.1 1.4-1.2 3.2-2.7 4.4-2.7 1-.1 1.4.5 1.7 1.4-.3.4-.5.4-2.2 2.1-2.3 1.5-7 5.9-8.9 7.2-1.8.5-2.2-1.5-1.7-2.2-.1-1 1.1-1.9 2.4-2.7zm-75.7 27.6c-1.3.4-2.4.9-3.5 2.1-1.7 1-3.6 2.8-4.8 3.9-1.4.5-2.8.4-2.2-.4.1-1.3 3.2-4.4 5.3-5.8 1.9-1.8 5.7-3.5 7.2-3.6 1-.3 1.4 1.5 1.2 2.4-.9.6-1.8.6-3.2 1.4zm4.2 4.2c-1.2.4-2.2 1-3.1 1.9-1.7.5-3.1 3-4.3 3.4-1.4.4-2.2.3-1.8-.4.1-1.4 2.8-3.6 4.6-5 2.1-1.9 4.5-2.8 6.3-3.2.9-.1 1.4 1.4 1 2.2-.6.4-1.4.1-2.7 1.1zm10.6 46.8c-1.3.9-2.8 1.9-4.1 3.1-1.9.8-3.2 2.3-4.4 2.7-1.4-.1-1.8-.8-1.7-1.4-.4-.8.1-.6 2.1-2.1 1.8-1.9 7-6.2 9-7.2 1.2-.9 1.7 1.2 1.5 2.2-.2.7-1.5 1.6-2.4 2.7zm131-68.6c-8 1.2-13.5 1.8-19.6 2.4-6.2.1-10.6-.5-17.2 0-7.5.1-16-.4-24.5 2.5-8.5 2.7-18.6 8.9-24.8 14.1-6.1 4.6-9.2 7.6-13.2 14.7-4.8 7.1-9 17-12.8 27.3-4.6 10.1-7.7 20.6-10.7 32.2-3.1 11-4.9 22.2-4.9 33.7-.1 11.3 1.4 23.1 5.7 34.2 4.1 10.8 8.4 21.3 19.7 29.9 11.1 7.9 30.8 14.6 46.7 18.6 15.5 3.7 28.8 4.1 47.3 4.6 18.6.3 42.7-.3 62.9-3.5 19.9-4 41.6-10.2 56.5-18.6 14.6-8.6 23-21 30.7-32.2 7.2-11.7 11.3-24 14.4-36.7 2.8-13 6.2-26.2 4.5-39.5-1.9-13.5-6.7-28-14.3-39.8-8-12-18.3-22.7-31.5-30.7-13.4-8.6-32.9-14.4-47.4-17.4-14.7-3.2-29.3-.9-40.2 0-11.4.4-19.5 3.1-27.3 4.2z"/><path fill="#FFC080" d="M78.6 82.6c-1 .8-1.7 1.8-2.5 3.1-.8 1-1.7 2.7-2.2 4.5 1.5 2.4 3.7 6.1 7.1 9.4 3.2 3.2 10.3 8.8 12.4 11.6 1.7 2.6-.6 3.6-3 5.2-3 1.2-7.7 2.6-12.9 3.7-5.3 1-11.5 2.2-18.6 3.5-.4.6-.9 2.1-1.5 3.7-.6 1.8-1.5 3.9-2.2 6.7 2.6 2.2 5.3 4.8 8.6 6.7 2.8 2.2 6.8 3.7 10.4 5.7 3.7 1.4 9 2.1 10.8 3.9 1.3 1.4.1 3-3.5 6.1-4.4 3.4-15.2 8.5-21 12.5-5.9 3.5-9.9 6.6-13 8.8-.4.6-.5 1.7-.4 2.6-.1.9.1 2.2.3 3.4 4.5 2.3 9.2 3.6 14.4 4.9 5 .6 11.3 1.2 16.5 1.5 4.9.4 11.5.4 13.3 1.9 1 1.3-2.2 4.1-4.1 7.1-1.8 2.6-3.6 4.5-7 10.3-4 5.8-9.3 13.7-16.4 24.1.5.9 1.3 1.9 2.3 3.1l3 3.1c6.8-.9 13.2-2.2 19.5-4.4 6.3-2.2 12.6-6.1 17.4-8.1 3.9-2.3 6.3-5.8 8.4-5.4 1.5 0 2.5 2.1 4.1 6.7 1.8 4.4 4.3 13.8 6.8 19.7 2.1 5.5 3.9 9.8 5.9 13.3 1.5.5 2.8.9 5.3 1.2 1.8.3 4.8.3 7.5.5 3.5-3 6.4-6.6 9.4-10.8 2.8-4.5 5.2-12.4 7.5-15.2 1.9-3.2 2.7-3.1 4.8-2.6 1.4.4 2.8 2.3 6.3 5.3s10.1 8.5 15.2 12.6c5.2 4 9.5 7 14.7 10.3 1.4.1 3.5-.4 6.7-.5 3.1-.4 6.8-.9 11.7-1.5 1.3-5 2.6-9.8 3.4-14.8.4-5.3.5-12 1.4-15.2.6-3 1.3-4.5 3.9-4.1 2.3 0 4.9 1.4 11.2 3.7 6.1 2.1 19.2 5.3 26 7.7 6.6 2.1 11.3 3.1 14.3 4.1.1-.1.8-.9 1.9-1.3 1-.9 2.2-1.4 4-2.6-1.3-4.4-3.6-9.2-5.5-15.7-2.7-6.8-6.4-17.7-7.7-22.6-1.2-5-1.3-6.8.1-7.5 1-1.2 3.5 0 7.4 1.5 4 1 8.9 3.7 15.2 5.7 5.8 1.8 11.7 3 18.8 4.5 1.3-2.1 2.6-4.3 3.3-6.6.8-2.6 1.6-5.3 1.8-8.1-6.6-5.2-12.4-10.2-17.9-15.1-5.9-5.2-13.3-11.7-15.1-14.8-1.8-3.7 1-3.6 4.5-4.5 3.1-.8 9.2.3 14.2.1 4.5-.1 9.4-1.8 13.7-2.1 4-.8 7.3-1.4 10.6-1.9.5-3.2.9-6.7.6-9.9-.4-3.4-1.4-7-2.6-10.3-7.2-1.2-13.2-1.9-17.8-3.4-5-1.3-9.3-2.8-10.7-4.6-1.5-2.4.1-4.6 2.6-9.5 2.3-5.2 5.5-11.6 10.7-19.9-.8-1.5-1.4-2.3-1.9-3.4-.6-1.2-1.5-1.5-2.2-2.2-1.3 2.2-4.5 4-10.7 4.9-6.4.6-20.6 1.7-25.7 1.2-5.3-1-4.5-1.9-4.6-5.2-.3-3.2 2.6-9.4 3.6-13.7.9-4.4 1.8-9.4 2.2-13.7-.8-.4-1.2-1.4-2.2-1.7-.8-.6-2.2-1.2-3.2-1.5-6.6 3.6-12.9 6.7-18.4 9.8-5.9 3.1-11.2 6.7-15.3 8.4-4.3 1.3-7.2 1.8-8.9 0-2.4-2.7-1.3-7.9-3-12.5-1.8-4.6-3.6-9.5-6.4-14.7l-5.7.6c-2.6 3-5 6.2-7.3 9.7-2.6 3.2-5 6.8-6.8 10.3-2.3 3.4-3.5 8.3-5 10.2-1.7 1.5-3.1 1.3-4.8-.8-2.1-2.7-5.3-10.8-7.6-14.4-2.7-4-6.2-7.7-8-8.3-2.2-.9-1.7-.3-3.4 3.5-1.8 3.4-5.2 12.8-7.1 17.3-2.2 3.9-4.1 7-5.8 7.7-1.9.4-2.1-1.4-4.4-4.4-2.7-3.5-7.3-10.4-11-14.4-3.9-4.1-7.6-6.7-11.2-8.8-2.8-.3-6.3-.3-9.4.5-3.2.5-7.1 1.5-10.6 3.1.4 4.3.5 8.6 1.8 13.2.5 4.4 4.5 10.2 4 13.4-.4 2.7-3 4-6.3 3.9-3.7-.8-11.7-4.6-15.5-6.2-4.1-1.4-6.2-2.2-8.3-2.3-2.1-.7-3.9-.7-5.2-.5z"/><path stroke="#000" stroke-width=".036" stroke-miterlimit="10" d="M149.4 97.8c-.1-2.1 2.5-4 3.7-5.8 1.3-1.9 2.2-3.2 4.6-4.4 2.1-1.3 6.1-3.4 8-3.2 1.5-.4 2.7 1.4 2.1 2.5-1 .8-5.7 1.3-7.5 3-1.9 1.3-4.1 3.7-5.2 5.8-1.8 1.9-1.8 4.8-3 5.5-1-.1-3-2-2.7-3.4zm67.6 3.5c-.1-1.9-2.7-4.5-3.7-6.3-1.7-2.1-2.6-3.5-4.6-4.8-2.3-1.4-6.3-3.6-8-3.6-1.9-.4-3 1.7-2.1 2.7.6 1 5.3 1.3 7.5 3.2 2.1 1.7 3.6 4 5.2 6.4 1.3 1.9 1.8 5.4 3.1 5.9.9-.1 2.3-1.6 2.6-3.5zm-71.7 3.2c0 1.3 1.2 2.2 2.7 2.2 1.4 0 2.7-.9 2.7-2.2 0-1.2-1.3-2.2-2.7-2.2-1.6 0-2.7 1-2.7 2.2zm67.1 4.7c0 1.2 1.2 2.2 2.6 2.2 1.5 0 2.7-1 2.7-2.2 0-1.3-1.2-2.2-2.7-2.2-1.4.1-2.6 1-2.6 2.2zm-27.2-3.4c0 4.5 4.3 8.1 9.5 8.1 5.3 0 9.7-3.6 9.7-8.1s-4.4-8.1-9.7-8.1c-5.2-.1-9.5 3.6-9.5 8.1z"/><path fill="#fff" stroke="#000" stroke-width=".036" stroke-miterlimit="10" d="M191.3 102.9c0 1.2 1.2 2.2 2.7 2.2 1.4 0 2.6-1 2.6-2.2 0-1.2-1.2-2.2-2.6-2.2-1.5 0-2.7 1.1-2.7 2.2z"/><path stroke="#000" stroke-width=".036" stroke-miterlimit="10" d="M159.1 100.9c0 4.5 4.3 8.1 9.5 8.1s9.5-3.6 9.5-8.1-4.3-8.1-9.5-8.1-9.5 3.6-9.5 8.1z"/><path fill="#fff" stroke="#000" stroke-width=".036" stroke-miterlimit="10" d="M165.4 98c0 1.3 1.2 2.2 2.6 2.2 1.4 0 2.6-.9 2.6-2.2 0-1.2-1.2-2.2-2.6-2.2-1.5 0-2.6 1.1-2.6 2.2z"/><path stroke="#000" stroke-width=".036" stroke-miterlimit="10" d="M77.2 84.2c-.6-1.5-1-4.6-1.2-6.3-.4-2.3-1-5-.5-6.2.4-1.3 1.5-1.7 2.5-1.2.1.3.5.3 1.2 3.5.5 2.7 2.8 11.2 3 13.7-.4 2.3-2.4.9-3.2.6-1.2-.8-1.6-2.4-1.8-4.1zm-4.9 4.4c-.9-1.7-1.9-4.1-2.6-5.8-1-2.1-1.8-4.9-1.8-6.1-.1-1.4 1.4-1.9 2.2-1.5.4 0 .5.4 1.8 3.1 1.4 2.8 5.3 9.9 6.1 12.8.4 2.1-2.3 1.8-3.1 1.3-.9-.8-2-2.2-2.6-3.8z"/><path fill="#A16121" stroke="#000" stroke-width=".036" stroke-miterlimit="10" d="M106.5 61.8c-2.6.8-5.3 2.3-8.1 4.1-3.5 1.4-6.7 4.5-9.7 6.8-3 2.2-5.4 4.8-7.4 7.2 3.6.9 7 2.1 11.1 3.5 4.1 1.3 8.6 3.5 12.1 4.5 2.6.9 4.5.9 5.8.5 1-.3 1.4-1.5 1.2-3.4-.6-2.7-2.4-7.6-3.4-10.7-1.2-3.4-1.8-6.7-1.9-8.5-.1-1.9-.5-3.5.3-4zm-34 29.5c1.5 3.1 3 5.5 4.8 7.9 1.7 1.9 3.1 3.1 5.3 5 1.8 1.5 4.9 3.2 6.3 5 1.2 1.4 1.9 2.7 1.3 3.9-1.4.8-3.5 1.7-6.2 2.7-3 1-5.4 1.4-9.4 2.6-4.3.8-8.9 1.7-15 2.7 1.8-5.7 4-10.7 6.1-15.6 2.1-5.1 4.5-9.5 6.8-14.2zm-17.9 45.2c1.5 1.8 3.2 3 5.5 4.9 2.2 1.8 4.5 3 7.5 4.9 2.7 1.2 5.7 2.7 8.4 3.6 2.4.4 4.3.9 5.4 1.5.8.5.8.6-1 2.5-2.6 1.7-8.6 5-12.2 7.6-3.6 1.9-6.4 3.1-9.5 5.4-3.5 2.1-7.1 4.6-10.8 7.7-.5-4.4-.4-9.5.9-16 1.1-6.4 2.9-13.6 5.8-22.1zm-7.2 49.7c1.3.6 4.1 2.1 7.1 2.8 2.8.6 7.7 2.1 11.7 2.7l11.1.4c3.7 0 8.4-.3 10.4.6 1.3.4.9.8-.6 3.1-1.5 2.4-5 6.4-7.5 10.6-2.7 3.1-4.6 6.7-7.2 10.8-3.1 4.1-5.8 8.8-9.5 14.4-2.5-3.6-5.2-7.2-7.1-11.9-2.1-4.8-5-9.7-5.9-15.2-1.3-5.6-2.5-11.4-2.5-18.3zm24.9 55.5c2.4-.4 5.5-.4 9.3-1.4 3.2-1.2 8.5-2.5 12.4-3.9 3.6-1.8 7.2-3.7 10.3-5.3 2.8-1.9 5-3.4 7.1-4.3 1.2-1 2.3-1.9 3-1.7.6 0 1.4-.4 2.3 1.8.8 1.9 1.7 7 2.7 10.6.6 3.1 2.1 6.6 2.8 9.4.8 2.2.8 4.6 2.1 6.8 1 2.2 2.2 4.8 4 7.2-7.1-1.4-13.5-2.4-19.3-4.1-6.2-1.4-10.1-3-16.1-5.2-6.3-2.6-13.1-5.9-20.6-9.9zm75.9 21.8c1.7-1.9 4.1-3.9 5.9-6.8 1.7-2.8 4.1-7.2 5.8-10.2 1.4-3.5 2.2-7 3.7-8.5.9-1.4 2.1-1.5 4 .1 1.9.9 4.5 5.8 7.7 8.3 3 2.3 6.3 5 9.5 7.1 2.7 1.9 5.2 3.9 7.4 5.3 1.9 1.4 3.6 2.7 5 3.9-3.2.4-6.8.1-11.9.6-5.4.4-11.3.1-17.8.6-6.1 0-12.4-.2-19.3-.4zm76.1-3.3c1-4.1 2.4-8.5 2.8-13.2 0-5.2-.4-12.4.4-15.2.8-2.7 1.9-2.7 5-1.9 2.8.1 6.6 2.3 11.7 4.1 5.3 1.5 12.2 3.5 18.4 5.3 5.5 1.5 10.6 2.8 15.1 4.4-5.3 2.8-10.7 5.4-16.2 7.7-5.9 1.9-11.5 4.3-17.7 5.5-6.1 1.3-12.8 2.8-19.5 3.3zm89.4-53.7c-1.4-.4-3.7-.4-7-1.4-3.2-1.2-8.5-2.6-12.4-3.7-4.6-1.5-9.7-3.5-12.6-4.3-3.2-1.7-4.5-2.3-5.3-2.5-1-.3-1.2.3-.4 3.1.6 2.7 2.5 7.9 4.4 13 1.7 4.5 3.5 11.9 5.4 16.1 1.5 4.3 2.6 7.5 3.6 9.7 3.5-3.2 7.4-6.6 10.2-9.5 2.8-3.4 5.7-5.9 8-9.2 2.2-3.2 4.4-7.5 6.1-11.3zm16.2-52.8c-2.4.5-5.4 1.2-9.4 1.9-4.3.6-10.2 1-14.3 1.7-4.5-.1-8.5-.1-11 0-2.8-.3-4.4-.3-4.6.5-.5.8.4 1.5 2.7 4.3 1.9 2.3 6.3 5.7 11.1 10.1 4.9 4.3 10.2 8.6 17.4 14.6 2.1-6.6 3.9-12 5.4-17.7 1.2-5.8 2.1-10.5 2.7-15.4zm-14.6-58.8c-2.3 3.9-4.4 7.1-6.2 11.1-2.1 3.4-3.9 8.1-4.9 10.8-1.4 2.3-2.3 3.7-1.7 4.8.6.9 2.8 1.5 6.1 2.5 2.8.6 8.9 2.1 12.2 2.8 3.1.8 5.7.5 7.2.6-1.2-6.3-3.4-12.1-5.2-17.4-2.3-5.5-4.4-10.4-7.5-15.2zm-38.3-32.3c-.6 3.4-1.5 6.8-2.2 10.4-1.2 3.5-2.1 7-2.7 9.9-.9 2.5-2.2 4.9-1.4 6.3.3 1.4 1.3 2.3 4.6 2.7 3.4 0 10.4-.6 14.8-.9 3.6-.4 6.6-.4 9.4-1 2.7-.9 5.3-2.5 7.7-4.1-4.3-4.4-8.6-8.5-13.7-12.4-5.2-4.1-10.3-7.6-16.5-10.9zm-57.8-13.7c1.7 1.7 2.8 4.1 4 6.3.9 2.1 1 4.8 1.9 7.6.5 2.8.8 7.1 1.8 9.3.5 2.1 1.5 2.8 3.6 2.8 2.1-.4 4.8-2.2 8.6-4 3.6-2.1 8.8-5.7 13.5-7.9 4.3-2.6 8.8-4 13-5.7-9.5-3.1-17.4-5.3-23.6-6.6-6.3-1.2-10.3-1.7-13.9-1.5-3.9-.3-6.8-.4-8.9-.3zm-11.5 1.3c-1.3-.4-4.1 0-10.1.6-5.9.6-13.9 2.1-24.5 3.7 3.2 2.7 5.5 5.2 7.5 7.9 1.4 2.2 2.1 4.6 3.5 7.3 1.2 2.3 2.7 7.5 4.1 8.5.8.6 1.7-.4 3.2-3.1 1.4-3.1 4.6-10.3 6.7-13.7 1.7-3.2 3.1-4.4 4.8-5.9 1.3-1.8 3.4-3.6 4.8-5.3zm-74.8 7.1c1.8-.1 4.1-.1 7 0 2.4-.1 5.4.1 8.9.3 3-.4 6.3-.5 9.5-.9 3.1-.5 6.3-.9 9.7-1.2-1.8 2.7-3.4 6.6-5.2 10.2-1.9 3.9-4.3 9.2-5.4 12.4-1.2 2.6-2.1 3.9-2.7 3.9-1.2-.4-1.9-1.8-3.7-4.3-2.2-3.2-5.9-8.3-8.8-11.6-3.2-3.4-6.3-6.5-9.3-8.8z"/><path stroke="#000" stroke-width=".036" stroke-miterlimit="10" d="M48.2 151.7c-1.9-1.2-5-3-6.8-4.4-2.3-1.7-5.5-3.6-6.2-4.8-.8-1.4 0-2.8 1.3-2.7.5-.3.9 0 4.1 2.2 3.1 1.8 12.9 7 15.5 9 1.8 1.8-1.2 2.6-2.4 2.8-1.4-.2-3.8-1.1-5.5-2.1zm2.2-7.6c-1.8-1.2-3.2-2.2-4.8-3.1-1.7-1-3.7-2.8-4.3-3.4-.8-.9 0-2.2.8-1.9.5-.4.5.1 3 1.5 2.3 1.3 8.9 4.8 10.8 6.4 1.3 1.2-.8 1.8-1.7 1.9-1.1.1-2.4-1-3.8-1.4zm58.4 114.5c-1.8 1.4-3.9 4-5.7 5.8-2.2 1.5-4.6 4.4-5.9 5-1.7.3-2.4-1-2.3-1.8-.3-1 .5-.9 2.8-3.6 2.4-3.1 9.7-11.6 12.2-13.2 2.1-1.5 2.3 1.3 2.2 3-.6 1.3-1.9 2.7-3.3 4.8zm-7-3.8c-1.2 1.3-3 2.4-4 4-1.7 1-3.2 2.8-4.1 3.5-1 .1-1.9-.8-1.7-1.3 0-.6 0-.8 2.1-2.4 1.8-2.2 6.3-8.3 8.5-9.3 1.2-.9 1.7.6 1.5 2.2-.2 1-1.6 1.8-2.3 3.3zm105.6 3.8c.5 1.4 1.3 4 1.8 6.2.4 1.9 1.2 4.8 1.3 6.1-.6 1-1.5 1.2-2.2.9-.4-.6-1-.8-1.4-3.4-1.4-2.8-4.3-11.5-4.5-13.5-.4-2.3 1.9-1.3 3-.4.7.5 1.2 2 2 4.1zm-7.3.6c.4 1.4.5 3.6.9 5.5-.1 1.5.5 4.4.4 5.5-.8.9-1.4.9-1.9.5-.5-.5-.6-.9-.9-3.2-1-3-2.3-10.2-2.4-12.2-.1-2.4 1.9-.6 2.7 0 .4.4.7 2.4 1.2 3.9zm102.6-34.7c1.2.4 2.6 1.3 4.3 2.7 1.7 1.4 4.1 3.7 5.9 4.9 1.2.8 3.2.6 2.7-.4-.9-1.4-3.7-5.5-6.4-7.4-3.1-2.4-7.1-4.4-9-4.8-1.9-.6-1.9 2.2-1.4 3.1.4.9 2.1 1 3.9 1.9zm-5.4 5.2c.8.5 2.2 1.2 3.7 2.5 1.3 1.2 3.9 3.1 5.3 4.3 1.3.5 2.6.4 2.3-.4-.8-1.3-3.5-4.8-5.7-6.4-2.3-2.2-6.4-3.7-7.9-4.1-1.7-.4-1.9 1.7-1.3 2.7.4.5 2.2.3 3.6 1.4zm25.4-122c1.4-.8 4-1.3 6.2-1.5 1.8-.5 5-1.4 6.2-.8.8.3 1.5 1.2.9 2.2-.5.1-.9.5-3.6 1.2-3.5.4-11.2 3.6-13.8 3.7-2.6-.3-.8-2.1-.1-3 .3-1 2.3-1.3 4.2-1.8zm.1 7.4c1.4-.4 3.5-.4 5.7-.5 1.5-.3 4.4-.8 5.5-.1.6.3.8 1.3.4 2.1-.5.4-.9.1-3.2.6-2.8.1-10.4 1.7-12.4 1.7-1.9-.1-.9-2.3.1-2.6.7-.7 2-1.1 3.9-1.2zm-198.8 49.3c-7.5-1.2-24.9-1.9-38.3-3.4-13.8-1.9-31.1-6.1-41.9-7.5-10.6-1.9-17.4-2.7-21-2.8-4-.4-4 1.8-3 2.6.1.3 1.8.6 7 1.7 5.5 1.2 14.2 2.1 24.9 4.1 10.2 1.5 24.6 4.9 35.8 6.6 10.4 1.4 21.8 1.8 28.5 2.6 6.4.1 10.6.6 11.9.1 1.3-1 2.9-2.7-3.9-4zm-95.9 28.1c8.3-1 16.5-2.6 27.2-4.1 10.3-1.9 24-5.5 34.6-7.3 10.4-2.5 20.9-4.4 27.3-5.3 5.7-1 8.3-.9 9.3-.1 1.2.3 3.1 1.7-2.2 3.2-5.9 1.3-20.4 3.1-30.9 5.4-10.7 2.1-21.4 4.9-32.6 7.1-11.6 1.7-25.4 3.7-34.4 4.8-9.5.9-16.5 2.2-20.9 2.3-4.4-.4-5.7-1.4-5.3-2.1 0-.6 1.2-1.4 5.9-1.8 4.7-.8 13.2-1.3 22-2.1zm5.8 42.3c7.6-4.1 24.6-12.8 35.1-17.9 9.9-5.4 16.8-8.3 25.5-12.5 8.3-4.8 20.1-10.7 25.7-12.8 5.3-1.9 6.8-1 6.1.6-.9.8-4.5 2.8-11.9 6.7-8.4 3.9-22.9 10.3-34.7 16.4-11.3 5.8-23.1 11.7-33.3 17.8-10.7 5.7-23.7 12.5-30.2 16-7.1 2.9-9.2 2.6-10.2 2.2-1.2-.5.9-3.1 4.1-4.8 2.8-2.5 9.3-4.5 13.4-6.7 3.4-1.7 3-1.6 10.4-5zm215.8-85.8c6.7-2.8 23.9-6.3 37-10.4 12.8-4.8 28-10.7 39.7-15.3 11.6-4.9 23.5-11 29.1-12.6 5.2-1.8 4 .6 3.5 1.9-.6.5-.1 0-6.4 3-7 2.7-21.5 9.9-32.7 14.7-11.6 4.6-23.6 9-33.9 13.2-10.4 3.4-21.1 6.2-27.6 8-6.7 1.5-10.6 2.7-11.6 2.4-1.6-.7-3.9-2.6 2.9-4.9zm91.6 9.9c-8.5.6-17 1.2-27.5 1.5-10.7.1-25-.4-35.5-.1-10.8-.1-21.4 0-27.7.4-6.2.1-8.3 1-9.2 1.7-1 .6-3.2 2.1 2.8 2.7 5.7.3 20.2-1 31.3-.9 10.8 0 21.8.3 33.4.3 11.5-.5 25-1.8 34.7-2.3 9.4-.9 16.2-1 21-1.8 4.1-1.2 4.5-2.6 4.6-3.2-.1-.8-1.8-.8-6.1-.5-4.9.4-13.5 1.2-21.8 2.2zm-7.8 31.7c-8.3-2.6-27.3-7.4-37.9-10.3-11.2-3-20.8-5.3-27.6-7-7-1.8-10.7-3.6-13.7-3.5-3.7-.3-6.8.5-5.8 1.8.8 1.2 7.1 2.1 13 4.1 5.5 1.3 13.4 2.7 23.1 5.3 9.9 2.6 24.5 6.7 36.2 10.4 11.3 3.1 25.7 7.7 33 9.4 6.7 1.4 9.7.3 10.3 0 .8-.9-2.1-2.3-5-3.7-3.4-1.5-10.3-2.8-14.4-3.9-4.6-1.3-3.1-.4-11.2-2.6zm-149.3-133.1c1-1.4 2.2-3.5 4.9-5.7 2.3-2.2 7.9-6.1 10.2-7.6 1.7-1.9 2.5-3.2 2.3-3.9-.4-.9-.9-1.3-2.1-.6-1.5.5-3.2 2.2-5 4-1.9 1.5-3.6 3-5.5 4.8-2.1 1.3-5 3.7-5.9 5.4-1 1.4-1.9 3.2-1.3 4 0 .5 1.1.4 2.4-.4zm-4.5-1.6c.5-1 1.3-3.6 2.8-5.7 1.4-2.7 5.2-6.2 6.7-8.4 1.3-1.8 1-3.5 1.3-3.6-.1-1.2-1.4-.8-1.9-.3-1 .6-2.3 2.5-3.4 4.4-1.3 1.7-2.5 3.2-3.5 5.2-1.5 1.8-3 3.9-3.7 5.7-.8 1.3-.9 3-.4 3.5 0 .3 1.2.1 2.1-.8zm-21.5 4.5c-1.2-1.2-1.9-3.9-3.4-5.7-1.5-1.8-2.7-3.5-4.5-4.5-2.3-1.3-5-1.9-6.2-2.5-1.5-.8-1-1.8-.9-2.1-.3-.8.5-1.3 1.8-1 1 0 3.2 0 5.5 1.9 1.9 1.5 5.3 4.8 7.1 7.2 1.5 1.8 2.5 4 2.7 5.2-.2 1.2-1.1 1.9-2.1 1.5zm5.9-3.1c-1.3-1.3-2.4-5.2-3.5-7.6-1.4-3.2-2.2-6.4-2.3-8.1-.3-1.5 1-2.2 1.9-1.4.4.4.5 2.3 1.4 4.4.6 1.5 1.7 5.3 2.6 7.2.4 1.4 1.5 3.2 1.5 4-.3 1-.7 2-1.6 1.5zm7.6-2.6c-.5-.5-.9-1.5-.6-3.1 0-1.7.6-4.9 1.4-6.7.6-2.1 1.7-3.9 2.6-5.4.4-2.1 0-4.4.8-5.9.5-1.8 1.8-4.4 2.8-4.8.4-.9 1.5.1 1.5 1.2-.4.8-1.5 2.7-1.9 4.4-.9 1.8-.6 3.4-1.2 5.7-1.2 2.2-2.1 4.6-2.7 6.8-.8 1.5-.9 3.1-.9 4.1-.1.8-.1 1.3 0 2.1-.6.6-1.4 1.6-1.8 1.6zm13.7 113.3c-4.4.3-8.3.3-11.6 0-3.4-.6-6.3-1.4-9.4-2.8-3.6-1.8-7.2-5.4-11.3-7.3-4.8-2.2-10.8-4.1-14.7-5.8-3.9-1.7-6.3-3.1-7.9-4.8-2.2-2.5-3.4-5-3.5-7.7-.5-2.4-.1-5.7 2.2-7.2 2.4-2.2 6.3-3.7 11.6-4.1 4.5-.9 11.5.6 17.4 1.7 5.8.8 12.5 4.3 17.7 5 4.6.5 5.5.3 11.1-1.3 5.3-2.1 14.2-6.8 20.8-8.4 6.7-1.4 12.6-1.4 17.3-.5 3.9.4 5.9 1.2 6.7 3.9.5 2.4-.8 7.1-2.8 11-3 3.2-8 7.2-11.1 10.1-2.6 2.6-3.5 4.4-5.2 7-2.1 2.3-3.6 5.5-7.1 7.6-4.3 1.7-9.3 3-16.5 3.4 0 5.8.5 11.3 1.5 16.6.9 5.2 1.8 10.1 4.3 14.7 2.2 4.4 5.9 8.6 9.3 12.2 2.8 3 5.4 5.4 9.2 6.8 3.5 1.4 8.6 1.9 12.5 1.5 3.5-.8 6.3-1.9 9.9-4.5 3.6-3 8.8-8.8 11.5-10.4 2.2-1.9 2.4-.4 2.3.6-.5.9-2.4 3.4-4.8 5.8-2.6 2.2-5.7 5.8-9.8 7.9-4.8 1.9-10.1 3.5-15.3 3.6-5.2-.4-10.2-2.6-14.1-5.2-3.9-2.8-7.6-8.4-9.8-11.6-2.6-3.4-4.3-7-5-9.4-.6 5.2-1.9 9.8-3.9 14.4-2.2 4.4-4.9 9.2-8.1 12.4-3.6 2.7-7.2 4.1-11.3 4.8-4.4.4-9-.8-13.4-1.5-4.6-1.4-9-3.1-12.6-5-3.7-2.1-7.9-5.5-9.4-7-1.7-1.9-.9-3.4-.1-3.2.5-.3 1.5 1 3.6 2.4 1.5 1.2 4.3 3 7.1 4.9 2.8 1.3 5.8 3.4 9.9 4.6 3.9 1 9.5 1.9 13.5 2.2 3.6-.4 6.2-1.3 9.2-3.2 2.6-1.7 4.5-4.6 6.8-8.4 1.9-4.6 4.9-12 5.9-17 .6-4.9.1-8.3 0-12-.4-4-1.4-8.8-1.7-11.3-.7-3-.9-4.9-.9-5.5z"/><path fill="#fff" stroke="#000" stroke-width=".036" stroke-miterlimit="10" d="M133.1 136.8c0 .5.5 1 1.2 1 .8 0 1.3-.5 1.3-1s-.5-1-1.3-1c-.6 0-1.2.5-1.2 1zm2.4-2.1c0 .5.5 1 1.3 1 .6 0 1.2-.5 1.2-1s-.5-1-1.2-1c-.8-.1-1.3.4-1.3 1zm24.5 1.1c0 .5.6 1 1.3 1 .6 0 1.3-.5 1.3-1 0-.6-.6-1-1.3-1-.7 0-1.3.4-1.3 1zm3.7 1.7c0 .5.6 1 1.3 1 .6 0 1.3-.5 1.3-1 0-.6-.6-1-1.3-1-.6 0-1.3.3-1.3 1zm56.1 2.1c0 .5.5 1 1.2 1 .8 0 1.3-.5 1.3-1 0-.6-.5-1-1.3-1-.7-.1-1.2.3-1.2 1zm-16.9 19.8c0 .5.5 1 1.2 1 .8 0 1.3-.5 1.3-1 0-.6-.5-1-1.3-1-.7 0-1.2.4-1.2 1zm-50.7-27.6c-1.3-.3-2.4-.4-3.5-.4-1.3 0-2.5-.1-3.5.1-1.3.1-3.4.1-4.1.5-1.4.3-1.7.4-2.2.9-.1.5-.5.4.3 1 .3.1.3.1 1.4 0 1-.4 2.6-1 4.6-.9 1.5-.4 2.8 0 4.4.1 1.4 0 2.2.3 3.7.8 1.2.3 2.7.8 3.6 1 .6-.1 1.2-1 1-1.2-.4-.5-1.3-.9-2.2-1.2l-3.5-.7zm58.1 17.8c.4-1 .6-1.3 1.3-1.8.4-.9 1.5-1.4 2.5-2.1.4-.9 1.5-.6 2.1-1.2.9-.9 1.2-2.1 2.2-2.4.4-.5 1.5-.3 1.5.3-.1.5-.8 1.8-1.4 2.8-.6.3-1.9 1.3-2.4 1.7-1 .4-1.8.9-2.3 1.5-1 .4-.9.9-1.5 2.1-1 1.3-1.9 2.5-2.7 4-1.3.9-1.9 1.8-2.4 2.2-1 0-.9-.5-1-1-.3-.8.6-1.2 1.3-2.2.2-1.6 1.9-2.9 2.8-3.9z"/><path stroke="#000" stroke-width=".036" stroke-miterlimit="10" d="M44.1 340.3c-1.9-1.3-5-2.7-6.8-4.3-2.3-1.9-5.5-3.7-6.2-4.9-.8-1.5 0-2.6 1.3-2.6.5-.4.9.1 4.1 2.1 3.1 1.8 12.9 6.8 15.5 9.2 1.8 1.8-1.2 2.6-2.5 2.8-1.3-.1-3.8-1.4-5.4-2.3zm2.3-7.6c-1.4-.9-3.5-2.1-4.8-3-1.9-1.4-3.7-2.6-4.4-3.5-.4-1-.3-1.8.9-1.8.3-.4.5.1 2.8 1.5 2.3 1 8.9 4.8 10.8 6.3.9 1.2-.6 1.8-1.7 1.9-1.2.2-2.1-1-3.6-1.4zm289.6 13.3c1.7-1.2 4.6-3 6.8-4.4 1.9-1.7 5.2-3.6 6.2-4.8.5-1.4-.4-2.8-1.3-2.7-.9-.4-1.3.1-4.1 2.1-3.5 1.8-13.3 6.8-15.5 9.2-2.2 1.8.8 2.6 2.5 2.8.9-.3 3.3-1.2 5.4-2.2zm-2.4-7.6c1.2-1.2 3.1-2.2 4.8-3.1 1.6-1 3.5-2.8 4.4-3.4 0-.9-.1-2.2-.9-1.9-.9-.4-.9.1-3 1.5-2.7 1-9.3 4.8-10.8 6.3-1.4 1 .5 2.1 1.8 2.1.8 0 2.2-1.1 3.7-1.5zm-44.4-39.2c1.7-1.2 4.6-3 6.8-4.4 1.9-1.7 5.2-3.6 6.2-4.8.5-1.4-.4-2.8-1.3-2.7-.9-.3-1.3 0-4.1 2.2-3.5 1.8-13.3 7-15.5 9-2.2 1.8.8 2.6 2.4 2.8 1-.2 3.4-1.1 5.5-2.1zm-2.4-7.6c1.4-1.2 3.2-2.2 4.9-3.1 1.7-1 3.1-2.8 4.3-3.4 0-.9-.1-2.2-.9-1.9-.6-.4-.8.1-2.8 1.5-2.7 1.3-9.3 4.8-10.8 6.4-1.3 1.2.3 1.8 1.7 1.9.7.1 2.1-1 3.6-1.4zm-193.7 7.6c-1.9-1.2-5-3-6.8-4.4-2.3-1.7-5.5-3.6-6.2-4.8-.8-1.4 0-2.8 1.3-2.7.5-.3.9 0 4.1 2.2 3.1 1.8 12.9 7 15.5 9 1.8 1.8-1.2 2.6-2.4 2.8-1.4-.2-3.9-1.1-5.5-2.1zm2.3-7.6c-1.4-1.2-3.5-2.2-4.8-3.1-1.9-1-3.7-2.8-4.4-3.4-.4-.9-.3-2.2.9-1.9.3-.4.5.1 2.8 1.5 2.3 1.3 8.9 4.8 10.8 6.4.9 1.2-.6 1.8-1.7 1.9-1.2.1-2.1-1-3.6-1.4z"/></svg>