<svg xmlns="http://www.w3.org/2000/svg" version="1" width="443.705" height="396.497" viewBox="0 0 443.705 396.497"><g fill-rule="evenodd"><path d="M2.742 115.17c7.554-9.443 21.442-13.664 33.33-16.998 12-3.222 26.221-6.111 37.887-2.444 11.665 3.667 26.996 14.221 31.33 24.331 4.221 10.222-3.445 25.554-5.889 35.885-2.554 10.333-7.777 17.221-9 25.443-1.11 8.11.112 16.332 2 23.33 1.89 7.112 5 13.11 9.444 18.444 6.11-2.001 11.999-3.556 18.888-3.444 6.442-.443 12.442-.224 20.999 2.444 8.554 2.779 18.664 10.555 29.884 12.998 11 2.113 24.444 1.778 34.774-1 9.778-3.333 17.775-9.331 23.996-18.441l24.888 19.441c-6.555 2.444-11.22 6.556-13.998 11.444-3.11 4.888-1.111 11.443-2.999 18.443-2.224 6.775-4.779 14.555-8.891 22.888 6.446 2.444 11.555 6.555 14.445 11.443 2.775 4.776 4.222 11.22 3.445 18.441 6.555-3.222 11.885-4.222 16.443-2.998 4.441 1.22 8.775 6.555 9.995 10.442 1.113 3.443-.219 7.555-3.552 11.443.777 4.776.777 8.444 0 11.443-1.224 2.775-2.892 4.776-5.446 6-2.556.887-5.89.887-9.997 0-.223 5.443-1.89 9.442-5 12.44-3.333 2.779-9.11 5.001-13.888 4.558-5.223-.558-12.333-3.222-14.443-7.999-1.777-5.335 2.223-14.999 3-20.889.443-5.889 1.109-9.776-.558-12.998-1.885-3.445-5.664-5.777-10.885-6.997-.556 9.106-1.889 16.107-4.001 21.439-2.332 5.446-5.332 8.222-9.443 10 7.444 2.89 12.555 6.221 14.444 10.442 1.776 4.111-.224 10.89-2.556 13.888-2.556 2.667-6.222 3.667-11.444 2.556-.555 5.111-1.999 8.888-3.442 10.888-1.557 1.779-4.002 2-6.445 1.556-2.777-.334-6.11-2.222-9.998-4.445-1.89 5.446-4.889 7.667-9 7.891-4.333 0-12.333-2.779-15.887-7.891-3.556-5.331-7.555-15.997-5.556-23.44 1.777-7.888 11.11-16.332 15.998-21.888 4.444-5.775 10.111-7.778 11.444-11.997 1.11-4.557-.222-9.222-4-14.444-3.333 3.109-7.332 5.11-12.443 6-5 .889-11.109.555-17.887-.554l2.443 4.996c4.888.111 8.223 1.445 10 4.445 1.776 2.887 1.776 10.22.444 12.999-1.555 2.443-4.999 3.109-9.887 2 .444 3.777.554 6.775-.557 9-1.222 1.887-3.888 3.222-5.444 3.999-1.776.555-3.443.555-4.998 0-4.555 4.222-8.11 6.332-11.999 5.886-4.223-.666-8.556-4.889-10.444-8.442-1.889-3.667-.888-9.11 0-12.886.778-4.111 3.888-6.224 4.999-10.555.778-4.335.778-9.78 0-15.889-2.11-1.444-4.11-2.778-6-4-2.11-1.554-4.11-2.89-5.999-4.444-.333 7.112-1.667 13.109-4.444 18.444-2.667 4.889-7.333 9.888-11.888 12.886-5 3.111-10.666 4.777-17.443 5.443 3.888 5.223 6.111 9.446 5.443 14-.666 4.223-5.333 9.888-8.443 11.443-3.444 1.443-6.221 0-10-3.445-1.111 3.556-3.11 5.559-5.999 6.001-3.222.224-6.777-1.112-11.888-3.999-2.112 3.557-4.223 5.665-7.554 5.889-3.333.111-9-1.224-11.444-4.445-2.667-3.554-5-10.89-4.445-16.443.223-5.666-1.443-11.332 7-17.887 8.555-7.222 35.664-13.888 42.775-23.442 6.665-9.888-3.557-23.332-2.444-33.887.777-10.886 3.887-20.442 8.443-29.885-8.555-12.667-13.222-25.442-14.444-38.776-1.444-13.553 5.444-28.774 7.444-40.883 2.111-12.554 6.777-24.332 4.555-31.886-3.11-7.999-12.22-12.887-19.998-13.443-8-.223-18.331 8.888-25.887 10.999-7.666 1.778-13.665 1.444-18.886-.556.004.001-10.552-10.998-2.997-20.331z" stroke="#000" stroke-width=".036" stroke-miterlimit="10"/><path d="M222.274 227.383c-.329.998-.552 3.222-.218 6.221.107 3.11 1.885 9.554 1.107 11.998-.777 1.89-3.887 1.112-6.775-.22-3.555-1.667-7.444-4-12.889-8.222 3.558-.335 7.111-1.224 10.222-2.668 3.001-1.777 6.002-3.998 8.553-7.109zm-23.662 10.886c.778 2.002.778 4.889-.444 9.111-1.443 4.334-4.665 12.998-7.109 15.666-3 2.109-6.667 1.442-9.223-2.444-2.443-4.111-4.443-11.332-5.554-21.663 4.111.554 7.666.997 11.555.886 3.665-.109 7.109-.778 10.775-1.556zm-29.218-.442c.555 3.664-1 8.444-4.222 14.33-3.333 5.446-11.888 18.11-15.443 20-3.778 1.666-5.998-3.444-6.666-8.888-.666-5.889 1.777-16.998 2.222-23.444.112-6.443-.333-10.554-1.333-13.553 4.111 2.779 8.11 5 12.444 7.11 4.443 1.889 8.22 3.221 12.998 4.445zm-32.775-13.11c-.89 3.11-2.889 6.666-5.555 11.108-2.779 4-7.778 13.776-10.778 14.334-3.222.332-5.889-7.998-8.443-11.666-3.112-4.111-5.998-8.11-9.11-11.998 5.221-1.555 9.666-2.444 13.775-3.11 4.111-.777 6.778-1.001 10.556-.669 3.444.111 6.333.777 9.555 2.001zm-38.554 5.554c-1.554-.332-3.109.777-5.887 3.333-2.444 2.444-7.555 7.221-9.777 10.889-2.444 2.999-4.776 6.332-5.777 8.776 4.444 1.89 8.888 3.445 12.887 4.223 4.222.777 9.443 3.222 11.443.443 1.446-3.11-1.776-14.22-2-18.776-.665-4.889-.665-7.444-.889-8.888zm-23.44 26.554c-1.667 4-3.555 8.222-4.444 12.664-1 4.446-2.222 8.776-2.444 13.445 10.333-1.556 16.554-3.668 19.109-6.335 2.221-3.33-2.112-7.333-4-10.663-2-3.445-4.888-6.335-8.221-9.111zm158.539 35.885c-.89 3.334-1.443 6.443-2.891 9.777-1.666 2.887-5.442 7.998-4.888 9.33.558 1.335 5.665-1.108 8.887-1.777 2.891-1.332 5.559-2.665 8.446-4.889-.332-2.775-1.222-4.997-2.668-7.109-1.555-2.221-3.998-4-6.886-5.332zm-23.441 33.219c-1.444.554-3.777 1.443-5.777 2.222-2.332.776-8.222.668-7.776 2.667.223 1.777 3.332 3.998 9.333 7.555-5.111-1.335-8-.888-8.666 1.332-.667 1.89.888 5.555 4.665 11 3.001-3.667 5.221-7.332 6.667-11.442 1.441-4.223 1.665-8.669 1.554-13.334zm-134.877 17.555c-1.11-5.999-1.11-9.776 0-11.777 1.223-2.334 3-.335 5.778-.443 2.223-.111 5.111.108 8.222.221-1.333-5.333-2.889-9.332-3.778-12.888-1.332-3.665-5.666-6.667-2.666-7.667 3.11-.997 9.666-.777 20.552 1.112-1.11 6.666-2.666 12.332-5.109 16.555-2.556 4.111-5.555 6.555-9.444 9.11-4.111 2.555-8.222 4.33-13.555 5.777z" fill="#a16121" stroke="#000" stroke-width=".036" stroke-miterlimit="10"/><path d="M67.514 285.49c1.333 4.997 2.444 9.108 3.333 13.219.668 3.891 1.889 6.443 1.111 10.223-.778 3.222-2.554 7.888-5.775 10.997-3.445 2.891-9 4.78-14.111 7.333-5.666 2.335-12.887 4.999-17.775 7.555-5.111 2.557-9.556 3.889-11.667 8.223-2.444 4.223-2.556 12.556-2 17.221 0 4.554 2.111 7.667 4.222 9.776 1.888 1.666 6.443 2.113 9 1.332 2.777-1.443 4.776-4.111 6.443-7.553 1.333-3.444 1.555-7.667 1.11-12.666 1.445 2.443 2.111 5.111 2.445 7.998.333 2.668-.11 5.558-.89 8.667 1.778 1.556 3.333 1.888 5.556 2.222 1.888-.111 4.889-.555 6.444-1.777 1.334-1.332 1.443-3.11 1.555-5.332 0-2.443-1.222-5.334-2.444-8.668 2.111 1.556 3.666 3.334 4.667 5.335.777 1.777 1.222 4.222.889 6.443 1.777 1.667 3.667 2.109 5.666 2.222 1.889-.112 4.444-1.002 5.999-2.668 1.223-1.775 2.444-5.22 2.444-7.776-.444-2.777-1.778-5.441-3.11-7.997-1.667-3.003-3-5.777-4.888-8.334-2-2.556-3.667-5.222-5.889-7.556 2.778 1.446 5.111 3.002 7 4.669 1.778 1.442 3.11 3.222 3.999 4.888l2.445-.224c-1.111-5.445-1.334-8.887-1.111-11.554-.333-2.556.112-3.445 2.221-3.556 2.223-.332 6.222-.112 12 1.111-2.444-5.777-4.777-9.889-5.777-13.222-1.111-3.554-3.11-4.999-1.777-6.443.888-1.443 3.332-2.109 7.333-1.998 4.11-.224 9.332.443 16.553 1.555.556-4.557.556-8.999.889-13.333-.112-4.665-.889-13.221-.223-13.664.444-.558 2.334 5.22 3.112 9.665.333 4.11.333 8.999-.445 15.108 1.444 1.778 4.111 3.333 7.999 5.111 3.889 1.332 8.888 3.333 15.444 4.665 6.331.89 15.887 2.113 22.218 2.332 6.111 0 9.223-.776 13.667-1.886 3.888-1.336 7.443-2.668 10.221-4.888 2 2.998 3.555 6.22 4.221 9.664.778 3.445 1.779 6.667 0 10.889-2.109 4.001-8.887 8.442-12.665 13.33-4.444 4.445-9.333 9-11.665 13.669-2.11 4.441-3 8.329-2.223 12.886.333 4.224 2 10.109 4.555 13.442 2.445 3.001 6.778 4.999 10 5.557 2.666.332 5.667-.558 7.333-2.224 1.443-1.998 2.111-5.666 2-8.442-.333-3.113-1.888-5.557-4.222-8.555 3.112.888 5.889 2.666 7.111 4.888 1.11 2.222 1.888 4.999 1.11 8.333 3.001 1.999 5.555 3.11 8.11 3.333 2.445-.223 4.89-1.334 6.444-2.89 1.112-1.667 1.89-4.22 1.112-6.443-.667-2.222-2.889-5.001-5.777-7.444 1.999-.108 3.777.334 5.333 1.335 1.443.997 2.333 2.11 3.109 4.222 3.666.998 6.555.555 8.667-1.335 1.999-2.221 3.778-7.109 3.555-9.999-.666-2.888-3.888-6.109-6.221-7.553-2.335-1.89-4.555-3.445-8.444-3.333-4.224-.112-9.665.554-16.332 2.443.556-1.111 1.89-2.001 3.999-2.667 2-.889 5.777-1.555 8.333-2.002 2.332-.776 4.111-1.442 5.777-1.998-2.556-3.443-4.333-6.442-4.888-8.556-.668-2.553-.444-4.33.666-5.33.776-1.224 1.666-1.668 3.555-1.333-3.222-2.444-4.777-4.223-5.11-5.777-.333-1.447.333-2.336 3.334-3.113 2.888-1.11 7.332-2.444 13.775-3.554-.777-7.001-.111-12.666 2-18.222 1.778-5.666 7-9.999 10.107-14.222 2.669-4.22 4.889-6.887 7.11-11.44 2.336-5.445 5-12.667 6.667-18.222 1-5.335.223-9.888 1.111-13.222.778-3.556 2.888-5.223 5.111-7.556 2.11-2.443 5.001-4.665 8.665-6.666l-19.553-14.331c-.666 1.001-1.332 2.11-2.445 3.333-1.112 1.112-2.221 2.333-3.776 3.665-.222 3.779-.222 7.113 0 10.446.221 2.887 1.221 6.998.89 8.888-.777 1.777-2.444 2.664-5 2.664-2.889-.22-8.442-2.553-11.554-3.999-3.445-1.775-5.556-3.554-7.555-5.777-.112 4.11-.778 8.001-2.001 12.89-1.443 4.554-3.221 12.109-5.776 14.996-3 2.556-7.89 2.002-10.777.89-3.222-1.332-4.666-4.223-6.445-8.664-1.776-4.777-3.109-11.332-3.999-19.666-3.999 12.664-7.999 22.109-12.442 28.33-4.667 6.112-10.999 8.556-14.333 8.668-3.666-.335-4.888-4.889-5.778-9.776-.777-5.335-.222-13.668.446-20.335.111-6.774.554-13.441.889-19.997l-2.668-.889c-2.11 6.667-4.555 12.222-7.777 17.109-3.555 5-8.221 10.89-11.443 11.666-3.111 0-5.11-5.223-7.777-9.222-2.999-3.999-6.556-8.665-10.222-14.442-.666 1.667-.444 4.554.223 9.111.333 4.665 3.666 13.553 3.555 17.664.111 3.444-.222 4.665-4 4.888-4.222.112-11.222-1.224-20.998-3.999 3.111 2.222 5.777 4.888 7.556 7.998 1.555 2.779 3.666 6.667 2.889 9.554-1.557 2.668-4.667 4.89-8.89 6.667-4 1.554-8.888 2.555-14.665 3.002z" fill="#ffc080" stroke="#000" stroke-width=".036" stroke-miterlimit="10"/><path d="M74.401 247.714c3.445-5.334 7-9.888 11.11-13.664 3.778-4.111 8.11-7.444 12.554-10l-3.999-6.223c-5.109-.666-9.888-.89-14.776.223-4.999.889-9.887 2.667-14.666 5.334.89 3.331 2 7.109 3.778 11.332 1.556 3.888 3.555 8.221 5.999 12.998z" fill="#a16121" stroke="#000" stroke-width=".036" stroke-miterlimit="10"/><path d="M64.403 219.605c2.333-1.555 5.887-2.888 10.666-3.554 4.776-.889 10.442-1.112 17.442-1.112-.999-1.667-1.333-3.444-1.888-4.888-.667-1.556-.667-3.222-.89-4.557-2.222-1.998-4.667-4.219-7.333-5.774-2.889-2.001-5.777-3.779-9.11-4.89-3.667-1.111-6.667-1.334-10.666-1.111-.89 5.112-1.667 9.331-1.111 13.888.446 4.222 1.002 8.222 2.89 11.998z" fill="#ffc080" stroke="#000" stroke-width=".036" stroke-miterlimit="10"/><path d="M63.958 189.497c.557-1.888 1-4.666 1.778-7.109.554-3 1.444-5.667 2.221-9.222 2.222.889 5.111 2.556 8.222 5 3.333 2.444 6.333 5 10.666 8.888 0 2.888-.223 5.333.222 7.777.223 2.223.667 4.221 1.333 5.999-3.443-3.888-6.999-6.555-11.11-8.443-4.221-1.889-8.665-3.001-13.332-2.89z" fill="#a16121" stroke="#000" stroke-width=".036" stroke-miterlimit="10"/><path d="M87.067 183.054c-1.777-2.333-4-4-7.11-6.223-3.222-2.221-7-4.332-11.332-6.332l1.777-7.111c3.777-2 7.777-3.11 11.999-3.777 4.333-.666 8.443-.888 13.221-.222-2.555 5.222-4.666 9.665-5.888 13.776-1.445 4.111-2.333 7-2.667 9.889z" fill="#ffc080" stroke="#000" stroke-width=".036" stroke-miterlimit="10"/><path d="M71.514 159.389c2.444-1.555 5.776-2.889 9.998-3.557 4-.666 9-1.11 14.554-.887 2.223-5.221 3.556-9.11 4.888-12.554.89-3.445 1.779-5.889 1.779-7.779-4.777-.222-9.777.444-14.554 2.446-4.888 2-10 4.777-14.888 9.22-.556 1.779-.444 3.778-.889 6-.555 2-.445 4.667-.888 7.111z" fill="#a16121" stroke="#000" stroke-width=".036" stroke-miterlimit="10"/><path d="M73.735 140.502c3-3.333 6.778-5.778 11.776-7.333 4.778-1.555 10.666-2.666 17.665-2.444 1.223-2.777 1.223-5.554 0-8.776-1.333-3.223-4.222-6.555-8.221-10-5.445-.221-9.999 1.111-14.11 4.444-4.443 3.444-7.555 7.888-10.666 14.998 1.223 1.445 2.333 3 2.889 4.667.446 1.555.667 2.888.667 4.444z" fill="#ffc080" stroke="#000" stroke-width=".036" stroke-miterlimit="10"/><path d="M68.625 128.837c0-.445-.445-.889-1.778-1.778-1.333-.89-3.555-1.779-6.223-3.111 1.334-4.888 1.778-9.555 1.778-13.999-.111-4.555-1.11-8.778-2.556-13.11 4.667-.112 8.778.778 12.777 1.778 3.666 1.11 7.221 2.665 10.221 4.665 2.666 1.446 5.333 3 7.11 4.667-4.444.555-7.888 3.11-11.554 6.443-3.664 3.223-6.776 8.444-9.775 14.445z" fill="#a16121" stroke="#000" stroke-width=".036" stroke-miterlimit="10"/><path d="M56.959 123.059c1.333-2.334 2.222-5.444 2.222-9.777-.223-4.667-.889-9.667-2.444-16.331-5.111.444-9.11.999-11.999 1.667-3 .333-5.222 1.332-6.223 1.776-1.666 2.334-2.777 5.223-3.333 8.666-.778 3.333-.555 8.333-.222 11.555.222 2.889.889 5.109 2 6.222 4.444-2.889 7.999-4.111 11.555-4.888 3.111-.889 6.223-.112 8.444 1.11z" fill="#ffc080" stroke="#000" stroke-width=".036" stroke-miterlimit="10"/><path d="M35.627 100.617c-2.999 2.556-4.777 6.332-4.889 10.887-.333 4.556 1.001 9.889 3.557 16.444-4.444 3-8.222 4.888-13 5.666-4.888.667-11.553.667-14.442-1.333-3.112-2.556-4.444-8.11-3.112-11.888.889-3.888 4.889-7.221 10.222-10.443 5.444-3.334 12.221-6.444 21.664-9.333z" fill="#a16121" stroke="#000" stroke-width=".036" stroke-miterlimit="10"/><path d="M140.618 322.373l2.223 5.223c-4.444 2.333-7.777 4.555-10 6.667-2.555 2.109-3.888 3.776-4.444 5.442 3.667-2.886 6.778-5.665 9.776-7.109 2.556-2.001 4.89-3.223 7-3.223 2.112-.11 3.778.667 5.445 2.334 1.11 1.001 2.556 3.444 2.999 5.555.112 1.89-.221 5.445-1.443 6.778-1.444 1.442-3.667 1.332-6.667.889-.333-1.444-.777-2.779-1.332-3.558-.777-1.108-1.557-1.777-2.779-1.998 1.112 2.888 1.667 5.333 2.111 7.333.111 1.556 0 2.888-.333 4.443-1 1.554-1.666 3.333-3.222 4.888-1.222.89-3.333 1.777-5.111 1.777-.333-2.332-.777-4.445-1.332-5.888-.557-1.556-1.556-2.888-2.556-3.554 1.223 4.554 1.333 7.999.333 10.331-.999 2.11-4.111 3.557-6.331 3.445-2.889-.334-6.667-3.11-8.333-5.335-1.667-2.888-2-6.443-1.444-9.331-.111-3.112 2-5.11 2.889-7.778.555-2.667 1.889-4.999 2.222-8.221.223-3.554.223-7.887 0-12.999 4.222 1.224 7.889 2.001 11.444 2.778 3.218.667 6.33.89 8.885 1.111zm87.657-33.884c-2.112 1.89-3.999 4.222-6.111 6.998-2.331 2.556-4.997 5.777-6.33 8.779-1.668 2.775-2.445 5.331-2.778 8.109-.556 2.445-.443 5.109-.11 7.553 4.222.334 7.664 1.666 10.33 3.557 2.444 1.89 4.554 4.11 5.111 8.333.221 3.776-2.111 9.776-2.777 14.996-1.002 4.889-3.335 11.113-1.891 14.777 1.559 3.445 7.002 5.446 10.777 6.001 3.779.222 7.001-.224 10.555-2.556 2.667-2.445 6.112-6.999 7.332-10.666.89-4 .778-8.333-.777-11.221-1.556-2.999-4.33-4.333-8.333-5.223 2.89-1.332 5.335-1.556 7.335-.666 1.775.666 3.111 2.556 3.999 5.223.666 2.222.998 5.22.556 8.999 1.998.89 4.222 1.001 6.22.332 2.113-.666 4.557-2.999 6.001-4.889.777-2.556.666-5.666.111-8.441-.777-3.003-2.001-6.001-4.11-7.667-2.221-1.667-5.224-2.445-8.999-2.333 2.109-.89 3.999-1.332 6.108-.89 1.89.224 3.668 1.001 5.334 2.333 1.443 1.112 2.333 2.667 3.111 4.665 2.443-1.998 3.443-4.219 2.998-6.663-.555-2.891-3.11-7.333-5.554-9.11-2.999-1.667-6.221-2.113-9.666-1.335-3.664 0-7.443 1.111-10.889 3.778-3.333 2.664-6.555 6.888-9.219 12.664-.112-2.775.776-5.442 2.222-7.998 1.442-2.668 3.664-5.224 6.665-7.667-.334-2.445-.558-4.777-.666-6.555-.445-2.11-.777-3.777-1-4.998-5.223 3.11-9.11 5.108-12.556 6.443-3.445 1.332-6.998 1.444-7.664.778-1.112-1.444.666-5 1.887-7.667.666-2.888 3.222-6.001 4.222-8.445 1.002-2.332 1.444-4.889 1.778-6.443-.666-.331-1.224-1.221-1.666-1.443-.778-.331-.89-1.22-1.556-1.442z" fill="#ffc080" stroke="#000" stroke-width=".036" stroke-miterlimit="10"/><path d="M46.737 90.396c.333 1.333 1.001 2 1.556 4.111.556 1.555 1 5.11 1.778 6.443.778 1.111 1.444 1.889 2 .999 0-1.665-.111-5.442-.777-8.331-1.001-3-3-6.777-3.888-7.889-1.445-1.111-2.446.333-2.556 1.333-.445.666 1.333 1.778 1.887 3.334zm-6.331.889c.333.999.777 1.776 1.332 3.555.335 1.444 1.001 4.333 1.557 5.666.666.889 1.111 1.888 1.777.889 0-1.222-.222-5.111-.666-7.333-1-2.556-2.556-6.001-3.445-6.888-1.332-.778-2.221.221-2.221 1.222-.224.555.888 1.667 1.666 2.889zm13.997 113.212c1.222-.558 2.223-.778 4.223-1.112 1.445-.443 5.333-.778 6.555-1.001 1.222-.666 2.222-1.444 1.222-1.886-1.333-.446-5.666-.778-8.333-.112-3.11.778-6.998 1.332-8.22 2.888-1.112.666-.223 2.444.999 2.778.444.223 2.332-1.444 3.554-1.555zm.112 6.443c1-.446 2.111-.777 3.778-1 1.555-.443 4.333-.554 5.777-.778 1.111-.666 1.888-1.555 1.111-1.778-1.556-.554-4.889-.443-7.445-.111-2.554.446-6.332 1.334-7.109 2.667-.778.666-.335 2.001.887 2.333.556-.001 1.557-1.002 3.001-1.333zm179.426 49.662c1.001.111 2.444 0 4.334.555 1.775.223 4.777 1.111 6.443 1.446 1.109-.223 2.888-.669 1.887-1.335-1.109-1.001-5.108-2.667-7.774-3.222-3-.666-7.334-.89-8.666-.224-1.778.558-.78 2.113 0 3.002.886.333 1.999-.333 3.776-.222zm-2.22 6.112c.889-.224 2.333.219 3.888.442 1.667.224 3.999 1.112 5.666 1.332 1-.111 2.556-.666 1.666-1.221-.888-1.001-4.776-2.222-6.889-2.779-2.776-.442-6.333-.666-7.665-.22-1.554.109-.558 2.11 0 2.554l3.334-.108zm33.44 50.327c.556-.776 2.109-2.109 3.445-2.777 1.443-1.11 4.441-2.888 5.555-3.666.998-1 1.221-2.778.219-2.332-1.442.443-5.554 1.443-7.663 3.442-2.556 1.558-5.445 4.779-6.112 6.223-.889 1.221 1.225 1.89 2.113 1.998.443-.333 1.554-1.999 2.443-2.888zm2.888 5.778c.558-.667 1.556-1.891 2.999-2.444 1.446-1.001 3.668-2.668 4.888-3.222.89-1.112 1.113-2.222.224-2.002-1.108.224-4.889 1.224-6.667 3.003-2.552 1.555-4.665 3.775-5.442 5.443-.778 1.22 1.001 1.666 1.889 1.777.331-.223 1.331-1.777 2.109-2.555zm-233.421 5c.777.888 1.776 1.554 2.999 3.222 1.222 1.109 2.779 4.223 4.222 5.111 1.001.777 2.333 1.221 2.333.109-.555-1.668-2.333-5.109-4.111-7.334-1.777-2.444-5.554-4.888-6.665-5.554-1.667-.666-2 1.224-1.89 2.222-.221.668 2.223 1.112 3.112 2.224zm-5.444 3.444c.667.666 1.555 1.444 2.667 2.776.999 1.334 2.333 3.445 3.554 4.557.999.666 2 .997 2.111.108-.556-1.22-1.889-4.665-3.556-6.444-1.665-2.221-4.776-4.441-5.887-4.999-1.333-.555-1.89 1.111-1.667 2.001.001.443 1.779 1.113 2.778 2.001zm305.969-236.757c2.002-2.889 6.222-5.666 12.668-8.333 6.444-2.889 16.552-6.11 25.662-7.889 8.445-2.11 18.553-2.554 26.109-2.999 7.666-.668 13.333-.444 18.664.222 4.776.223 8.333-.11 10.665 2.444 2.334 2.111 2.779 5.666 2.556 11.888-.666 6.222-2.998 16.11-5.33 24.998-2.557 8.443-6.555 17.999-9.445 25.665-3.554 6.999-6.443 12.998-9.555 17.109-3.332 3.89-5.111 6.222-8.775 7-3.668.556-8.222-.778-13.222-3.555-1.443-13.888-6.332-25.776-14.665-36.997-8.668-11.11-20-21.11-35.332-29.553z" stroke="#000" stroke-width=".036" stroke-miterlimit="10"/><path d="M338.711 94.062c1.998-1.555 4.665-3.222 7.553-4.556 2.89-1.555 5.999-2.777 9.776-4.11.89.444 2.335 1.445 4.333 3 2.002 1.555 4.445 3.333 7.78 5.777-2.669-.223-5.559.888-8.223 2.11-2.891 1.112-5.889 3.556-9 6.11-3.222-2.221-6.334-4-8.109-5.333-1.889-1.443-3.668-2.443-4.11-2.998z" fill="#ffc080" stroke="#000" stroke-width=".036" stroke-miterlimit="10"/><path d="M379.262 78.84c-5.112 1.334-8.889 2.111-12.556 3.222-3.665.889-6.555 1.667-8.665 2.333 1.666.779 3.556 2.111 5.666 3.556 2.112 1.333 4.334 3.222 7.11 5.221.776-.333 1.777-.556 3.001-.666.997-.112 2.332-.778 3.554-.778.223-2.667.334-5.556.776-7.444.335-1.998.558-4.221 1.114-5.444z" fill="#a16121" stroke="#000" stroke-width=".036" stroke-miterlimit="10"/><path d="M387.148 77.952c-1.556 0-2.999.112-3.888.333-1.222-.11-1.999.445-2.333.445-.334 1.333-.777 3.221-.89 5.223-.331 2-.331 4.221-.442 6.665 2.333-.445 4.111-.555 6.221-.778 1.666-.333 3.222-.333 5.111-.444 1.887-.222 3.888-.11 6.443-.11-.89-1.667-2.667-3.445-4.111-5.333-1.554-1.89-3.998-3.89-6.111-6.001z" fill="#ffc080" stroke="#000" stroke-width=".036" stroke-miterlimit="10"/><path d="M390.15 77.619c2.887-.556 5.886-.889 9.888-1 3.664-.11 9.331 0 12.776.334 2.886 0 5.442.333 7.221.555 1.89.111 3.556.556 4.999.889-2.886.889-5.441 2.111-8.11 3.221-2.777 1.001-5.441 2.334-7.555 3.557-2.444.999-4.442 3.555-5.554 4.221-1.333.777-1.667.333-2.333-.11-1.112-1-2.444-3-3.558-4.222-1.554-1.445-2.443-2.556-3.887-3.778-1.554-1.335-2.443-2.557-3.887-3.667z" fill="#a16121" stroke="#000" stroke-width=".036" stroke-miterlimit="10"/><path d="M426.813 79.618c-3.003.778-5.889 1.89-8.223 2.889-2.667.778-4.889 1.667-6.666 3.11-2 1.224-3.776 2.667-5.332 4.334 1.887.221 3.666.777 4.89 1.222.996.222 1.554.889 2.109 2 .442.778.776 2.556 1 4.111.221 1.443-.111 3.11-.111 4.999 1.667-1.889 3.11-3.333 4.776-4.333 1.444-.999 2.779-2.222 4.445-2.445 1.556-.777 2.999-.999 4.777-1.11.777-4.333 1.221-7.333.89-9.889-.222-2.665-1.222-3.999-2.555-4.888z" fill="#ffc080" stroke="#000" stroke-width=".036" stroke-miterlimit="10"/><path d="M428.256 96.173c-2.666.666-4.665 1.555-7.221 3.11-2.221 1.555-4.999 3.333-7.109 5.777-.445 1.443-.777 3.11-1 4.555-.224 1.332-1.001 2.777-1.113 4.332 1.89 2.445 3.334 4.444 4.777 6.444 1.224 1.89 2.445 3.778 3.222 5.223 1.779-5.333 3.333-9.334 4.669-13.222 1.22-3.778 1.998-6.667 2.775-9.111.557-2.552.89-5.331 1-7.108z" fill="#a16121" stroke="#000" stroke-width=".036" stroke-miterlimit="10"/><path d="M419.257 127.28l-3.333 8.556c-1.998.109-3.664.333-5.889.666-1.998.333-4.554.111-6.775.556 2.109-4.334 3.665-8 5.109-11.443 1.224-3.556 2.335-6.667 2.89-9.334 1.667 2.111 3.222 4.111 4.665 6 1.223 1.778 2.333 3.444 3.333 4.999z" fill="#ffc080" stroke="#000" stroke-width=".036" stroke-miterlimit="10"/><path d="M415.481 137.613c-1.447 2.444-2.779 5.222-3.999 7.889-1.558 2.444-3.334 5.999-4.445 8.11-1.444 1.555-1.89 2.889-3 3.999-1.111 1.222-2.778 2.223-4.11 3.445l-4.445-11.666c1.443-1.777 2.779-3.667 3.999-5.222 1-1.666 1.89-3 2.668-4.443 1.777-.112 3.775-.333 6-.666 2.221-.557 4.665-.891 7.332-1.446z" fill="#a16121" stroke="#000" stroke-width=".036" stroke-miterlimit="10"/><path d="M393.703 150.057c-.666.554-1.775.666-3.333.777-1.556-.111-3.554-.444-5.997-1.001.442 1.667 1.22 3.557 1.443 5.222.11 1.556.555 3.333.442 4.888 1.224 1.112 2.668 1.667 4.78 2.111 1.887.112 4.219 0 6.998-.333-1.666-3.778-2.667-6.776-3.445-8.555-.665-2.11-1.108-2.999-.888-3.109z" fill="#ffc080" stroke="#000" stroke-width=".036" stroke-miterlimit="10"/><path d="M383.707 147.168c2.888.555 4.888 1.111 7.221.445 1.778-.556 2.888-1.001 5.108-3.445 2.225-2.777 4.668-7.554 7.335-12.22 2.11-5 4.555-10.443 6.109-15.887 1.444-5.999 2.89-12.778 2.998-16.888-.108-3.888-1.332-4.888-3.664-5.999-2.443-1.444-6-1.888-10.666-1.778-4.665-.222-11.998.444-17.332 1.555-6.001 1.001-12.555 2.667-16.221 4.111-3.887 1.112-3.557 1.667-5.442 2.889-2.002.889-3.779 2.111-5.777 3.223 4.222 3.555 8.221 7.221 11.998 10.998 3.667 3.777 6.777 6.555 9.776 10.888 2.779 4 5.223 9.221 6.889 13.11 1.332 3.554 1.888 6.554 1.668 8.998z" fill="#a16121" stroke="#000" stroke-width=".036" stroke-miterlimit="10"/><path d="M380.373 77.73c-.335-1.334-.558-3.222-.666-4.444-.445-1.778-.78-3.333-1.001-4.222-1-1-1.334-.666-1.89-.221-.442.333-.442.333 0 2.554.112 2.111.443 8 1.001 9.888.666 1.334 1.444.223 2.333-.333.335-.778.112-2 .223-3.222zm-5.558-1.001c-.776-1.332-1.332-2.777-2.108-3.888-.89-1.445-1.89-3.222-2.556-3.666-.778-.557-1.779-.224-1.779.554-.442.334 0 .112.89 2.334.666 1.776 3.109 7.333 4.333 8.887 1.113 1.444 1.667-.777 2.11-1.11 0-.777-.443-2.11-.89-3.111zm55.886 9.333c1-.11 2.443-.333 4.333-.222 1.778-.111 5.001.445 6.667.445 1.108-.333 2.664-1.334 1.666-1.667-1.446-.889-5.333-1.667-8.221-1.888-3.334-.112-7.225.442-8.668 1.222-1.444.443-.443 2.554.445 2.889.89 0 1.999-.556 3.778-.779zm-1.222 6.333c1.11-.111 1.998-.333 3.889-.223 1.555-.11 4.33.444 5.777.444 1.221-.222 2.109-.999 1.443-1.443-1.111-1.001-4.776-1.555-7.108-1.667-2.779-.221-6.336.112-7.668.999-1.221.335-.223 2.334.445 2.556.333-.111 2.111-.333 3.222-.666zm-165.541-27.22c-.11-3.555-2.443-8.332-6.109-13.888-4.109-5.887-11-14.442-17.22-20.553-6.444-6.555-14.333-12.332-20.22-16.888-6.334-4.665-11.444-7.665-15.775-9.888-4.556-2.444-7.444-4.554-10.333-3.776-3.222.333-5.777 3.333-8.555 8.555-3.222 5.333-6.667 15.109-9.111 23.774-2.556 8.333-5 18.666-6.111 26.665-1.221 7.666-2 14.332-1.443 19.554.333 5 .666 8 3.555 10.666 2.889 2.333 6.777 3.889 12.998 4.222 8.556-10.554 19.222-18.332 32.443-22.887 12.885-4.777 28.329-6.776 45.881-5.556z" stroke="#000" stroke-width=".036" stroke-miterlimit="10"/><path d="M261.163 62.954c-1.225-2.556-2.113-5.222-3.891-7.999-1.888-3-3.442-5.778-5.887-8.778-1.224 0-3.002-.111-5.334.112-2.667 0-5.889.221-9.666.666 2.222 1.556 3.999 3.222 5.777 6.222 1.556 2.444 3.109 6.222 4.223 10.11 3.999.111 7.221-.333 9.665-.112 2.444-.333 4 0 5.113-.221z" fill="#ffc080" stroke="#000" stroke-width=".036" stroke-miterlimit="10"/><path d="M235.496 27.958c3.335 3.776 6.221 6.665 8.665 9.554 2.444 2.667 4.446 4.888 6.001 6.666-2.002-.223-4.224-.111-6.667-.111-2.444 0-5.777.333-8.775.556l-2.11-2.223c-.777-.778-1.667-1.777-2.667-2.555 1.444-2.445 2.444-4.667 3.445-6.666.997-2 1.554-3.889 2.108-5.221z" fill="#a16121" stroke="#000" stroke-width=".036" stroke-miterlimit="10"/><path d="M229.276 22.958c1.332.889 2.221 1.555 3.11 2.444.889.666 1.332 1.222 1.777 1.667-.558 1.223-1.111 3.11-2.111 4.777-1.002 1.89-2.11 3.555-3.334 5.889-1.775-1.445-3.222-3.111-4.777-4.11-1.777-1.223-2.554-2.111-3.998-3.112-1.666-1.11-3.442-2.333-5.332-3.666 1.666-.778 3.778-1.667 6.333-2.221 2.331-.78 5.111-1.335 8.332-1.668z" fill="#ffc080" stroke="#000" stroke-width=".036" stroke-miterlimit="10"/><path d="M226.943 21.068c-2.112-2-4.669-4.221-7.666-6.221-3.333-2.444-8.109-5.111-10.888-6.778-2.888-2-4.89-2.554-6.443-3.444-2.112-1.11-3.222-1.667-4.556-2.111 1.777 2.556 3.444 4.556 4.999 7.222 1.446 2.111 3.223 4.888 4.444 7.111 1.001 2 1.334 5.333 2.333 6.555.443.889.667 1.443 1.89 1.222 1.333-.445 3.109-1.112 5.332-1.555 1.668-.556 3.444-.777 5.334-1.112 1.888-.333 3.221-.778 5.221-.889z" fill="#a16121" stroke="#000" stroke-width=".036" stroke-miterlimit="10"/><path d="M195.169 2.626c1.889 2.444 3.666 4.777 5.333 6.998 1.444 1.89 2.889 4.111 3.888 6.222 1 2 1.556 4.334 2.111 6.555-1.778-.999-3.777-1.555-4.777-1.666-1.333-.333-1.999 0-2.889.556-1.222.444-2.11 1.555-3.111 2.888-.888.999-1.888 2.556-2.554 4.223-.445-2.334-1.002-4.556-1.668-6.222-.667-1.89-1.444-3.222-2.332-4.443-.89-1.446-2.334-2.667-3.444-3.667 1.443-4.001 3-6.89 4.665-8.667 1.334-1.778 3.333-3.111 4.778-2.777z" fill="#ffc080" stroke="#000" stroke-width=".036" stroke-miterlimit="10"/><path d="M185.06 15.736c1.555 2 3.109 3.776 4.22 6.556 1.223 2.444 2.001 5.331 2.778 8.664-.777 1.556-.889 2.889-1.556 4.444-.333 1.333-1.223 2.888-1.443 4.222-3.112 1-5.222 1.778-7.556 2.777-2.443.778-3.888 1.778-5.554 2.556.999-5.221 2.221-9.888 3.222-13.555.89-4.111 1.667-6.443 2.778-9.109.999-2.555 1.887-4.888 3.111-6.555z" fill="#a16121" stroke="#000" stroke-width=".036" stroke-miterlimit="10"/><path d="M175.504 46.733l-1.888 9c1.332 1.222 2.999 2.332 4.554 3.776 1.557 1.333 3.333 2.556 5.333 4.111.444-4.666 1.111-8.776 2-12.333.667-3.665 1.557-6.777 2.666-9.333-2.776.557-4.999 1.778-7.11 2.444-2.112.669-4.112 1.446-5.555 2.335z" fill="#ffc080" stroke="#000" stroke-width=".036" stroke-miterlimit="10"/><path d="M173.06 57.399c-.444 2.777-.777 5.888-1 8.888-.444 2.666-.666 6.888-.666 9.221-.111 2.223 0 3 .333 4.888.112 1.667.778 3.222 1.555 5.111l10.111-7.333c-.222-2.222-.555-4.667-.555-6.445-.112-2 .111-3.776.221-5.331-1.443-1.112-2.998-2.223-4.665-3.778-1.667-1.445-3.446-3.333-5.334-5.221z" fill="#a16121" stroke="#000" stroke-width=".036" stroke-miterlimit="10"/><path d="M184.504 79.73c.221.556.999 1.778 2.332 2.444 1.11.557 3.112 1.778 5.556 2.444-1.777.999-3 2.333-4.111 3.555-1.221 1.112-2.334 2.556-2.888 3.889-1.667.222-3.557.11-5.222-.777-2.001-.889-3.889-2.111-5.667-4.111 3.111-2.334 5.889-4.11 7.444-5.333l2.556-2.111z" fill="#ffc080" stroke="#000" stroke-width=".036" stroke-miterlimit="10"/><path d="M194.391 82.84c-2.999-.999-4.666-2.221-6.222-3.667-1.555-1.666-2.332-2.555-2.332-5.666-.557-3.666-.111-8.999.442-14.221.445-5.665 1.779-11.221 3.557-16.664 1.666-5.777 4.333-12.444 6.776-15.777 1.89-3.11 3.555-3.555 6.222-2.999 2.778.222 5.667 1.667 9.889 4.333 3.999 2.333 9 6.777 13.663 10.777 4.445 3.888 8.557 8.999 11.443 12.331 2.222 2.778 1.778 3.444 3.002 5.445.886 1.889 1.888 3.666 2.999 5.777-5.778.666-11.111 1.555-16.001 2.666-5.107.889-9.663 2.001-14.107 3.777-4.888 1.667-9.776 4.779-12.998 7.223-3.333 2.332-5.445 4.554-6.333 6.665z" fill="#a16121" stroke="#000" stroke-width=".036" stroke-miterlimit="10"/><path d="M242.606 34.956c.889-.999 2.444-1.666 3.779-2.444 1.221-1.111 2.664-1.777 3.888-2 .89 0 1.221.444 1.443 1.334-.111.333-.777.333-1.998 1.667-1.89 1.333-6.555 4.667-8.002 5.666-1.554.444-1.998-1.333-1.332-1.889-.111-.89 1.224-1.667 2.222-2.334zm4.446 3.667c1.221-.445 2.667-.779 4.334-1.001 1.443-.223 3.221-1.11 4.442-.556.555.333 1.112.889.776 1.667l-2.332.889c-2.109.666-7.887 2.111-9.554 2.556-1.778-.333-1.112-1.667-.558-2.333.112-.779 1.668-.889 2.892-1.222zm-69.325-4.445c-1.224 0-2.223.334-3.445.556-1.555.333-4.111.777-5.112 1.333-1.222-.112-2.443-.445-1.555-1 .778-.999 3.667-2.221 6.111-2.777 1.89-.666 5.777-.778 7-.333.889 0 .444 1.778 0 2.333l-2.999-.112zm1.888 4.778c-1.111 0-2 .333-3.112.555-1.332.111-3.666.889-4.444 1.112-1.223 0-2.11-.445-1.332-.889.666-.889 2.999-2 5.333-2.445 2-.556 4.888-.667 6.11-.333.666.11.554 1.667.11 2.11l-2.665-.11zm-7.777 40.662c-1.556.223-3.001.556-4.334 1-1.665 0-3.555.777-4.444.555-.999-.666-1.11-1.222-.777-1.667-.11-.554.556-.444 2.444-.887 1.778-.889 7.777-2.444 9.444-2.556 1.444 0 .777 1.444.556 2.221-.333.335-2 .779-2.889 1.334zm127.096-8.999c-6.663-1.776-11.663-3.221-16.331-4.776-5.108-1.888-8.223-4-13.553-5.89-5.778-2.444-12.775-5.777-20.108-6.554-7.667-.667-17.667.777-24.445 2.556-6.885 1.333-9.773 3-15.552 7.111-6.221 4-12.886 10.554-19.553 17.109-6.888 6.555-13.555 13.665-19.554 21.774-6.109 7.556-11.887 15.889-15.554 24.999-3.999 8.889-6.999 18.666-7.221 28.885-.667 9.889-.779 19.889 5.222 30.443 5.777 10 19.221 22.109 30.44 30.774 10.89 8.444 21.111 13.222 35.776 19.888 14.774 6.443 33.328 14.777 50.883 18.999 17.109 3.889 36.106 6.221 50.994 4.889 14.333-1.89 25.107-8.444 35.33-14.888 10-6.778 16.887-15.112 24.107-24.111 6.89-9.107 13.779-18.552 17.222-29.551 3.001-10.999 4.333-24.664 2.332-36.33-1.998-12.443-6.886-23.997-14.219-35.108-7.668-11.22-20.998-22.664-31.442-30.108-10.998-7.332-22.442-10.666-31.776-13.887-9.442-3.112-16.554-4.89-22.998-6.224z" stroke="#000" stroke-width=".036" stroke-miterlimit="10"/><path d="M214.611 62.288c-1.111.11-2.111.777-3.001 1.555-1.22.554-2.333 1.667-3.332 2.889.223 2.666.999 5.777 2.333 9.777 1.223 3.777 5.444 10.554 5.777 13.443.112 2.221-1.666 2.777-4.109 2.999-3.002.111-6.667-.666-11.444-1.443-4.556-1.001-10-2.221-15.888-3.667-.556.221-1.555 1.445-2.556 2.444-1.222 1.333-2.556 2.444-3.999 4.555 1.11 2.666 2.776 5.444 4.555 8.333 1.666 2.554 3.888 5.221 6.222 7.998 2.222 2.333 6.665 5 7.333 6.777.222 1.667-.89 2.334-5.001 3.667-4.555 1-15.108 1.445-20.886 2.556-5.667.556-10.222 1.778-13.222 2.444-.445.556-.999.889-1.222 1.89-.444.554-.777 1.777-.999 2.777 2.889 3.222 6 5.999 9.776 8.776 3.555 2.444 8.556 4.778 12.443 7 3.556 2 8.999 4.333 9.888 6.11.223 1.556-3.109 2.556-5.778 4.222-2.443 1.334-4.443 2.667-8.998 5.778-5.333 3.332-11.998 7.333-21.221 13.331 0 .89.223 2.111.667 3.222.222 1.11.666 2.111 1.332 3.445 5.556 1.555 11.333 2.777 16.887 3.222 5.445.333 12.11-.224 16.554-.445 4.11-.667 6.778-2.111 8.444-1.333 1.443.333.777 3 1 6.778-.334 4.109-1.223 12.664-1.445 17.886-.222 5-.222 9.331 0 12.552 1.111.781 2.001 1.667 3.889 2.667 1.333.89 3.667 1.89 5.777 3.002 3.445-1.224 7.557-3.002 11.111-5.334 3.666-2.667 8.218-7.775 11.108-9.333 2.443-1.664 2.998-1.664 4.665-.443.89.889 1.556 2.444 3.222 6.332 1.778 3.556 4.889 10.223 7.667 15.223 2.556 4.888 5.221 8.888 7.999 13.218 1.111.446 2.778 1.112 5.442 2.002 2.444.889 5.89 1.666 9.889 2.778 2.667-3.557 5.223-6.778 7.667-10.555 2.222-3.891 4.334-9.445 6.332-11.555 1.666-2.224 2.332-3.002 4.558-1.889 1.998.889 3.109 2.999 7.553 6.778 4.222 3.776 12.89 10.666 17.886 15.108 4.78 3.999 7.668 6.442 9.89 8.222.222-.224.888-.332 2-.332.777-.334 2.556-.558 4.111-.669.223-3.999.223-8.665.889-14.442.221-6.221 1.109-15.997 1.778-20.331.666-4.553.998-5.666 2.664-5.889 1.224-.332 2.443 1.335 5.335 3.779 2.22 2.333 6.108 5.997 10 9.665 3.999 3.222 8.11 6.555 13.218 9.997 1.778-1.109 3.445-2.444 5-4 1.335-1.774 2.891-3.553 4.223-5.777-3.557-6.22-6.109-12.22-8.889-17.998-2.998-5.886-6.443-14.108-6.889-16.997-.332-3.444 2.224-2.556 5.111-2 2.999.556 6.889 3.223 11.22 4.998 3.892 1.001 7.557 2.336 11.444 3.114 3.445.666 6.335 1.667 9.11 2.11 1.556-2.444 3.002-5 3.891-7.666.887-2.889 1.221-5.888 1.444-9-5.335-3.333-9.446-6.111-12.779-8.776-3.664-2.667-6.663-5.112-6.886-7.333-.447-2.334 1.777-4.001 5.33-6.667 3.557-3.222 8.223-7.221 15.223-12 0-1.11-.111-2.333-.334-3.222-.223-.889-.666-1.888-.889-2.556-1.667 1.112-5.22 1.557-10.22.112-5.446-1.556-16.89-5.778-20.666-7.888-3.667-2.111-3.109-3.556-1.777-5.667.777-2.889 5.11-6.221 7.444-9.554 2.443-3.444 4.333-6.666 6.555-10.11-.335-.779-.89-1.445-1.225-2.001-.555-.887-1.221-1.665-1.998-2.333-6.555.333-12.555.777-17.998 1.333-5.555.333-11.556 1.333-14.999 1.333-3.889-.445-6.221-.889-6.999-3-.89-2.444 1.332-7.111 1.89-10.999.332-4.334.221-8.778.108-13.777l-4.665-1.445c-3.11 1.667-6.333 3.222-9.223 5.111-3.109 1.889-6.555 3.667-8.999 5.776-2.887 1.89-5.666 5.444-7.44 6.334-2.113.777-2.891 0-3.557-2.333-1.112-2.889-.446-10.11-1.001-13.888-1.001-4.334-2.109-8-3.333-9.333-1.22-1.333-1.556-.667-3.999 1.555-2.888 2-8.444 8.443-11.556 11.22-3.11 2.111-5.777 4.334-7.109 4.111-1.556-.222-1.224-1.888-2.001-5-.997-3.776-2.221-10.664-3.664-15.109-1.556-4.554-3.669-7.777-5.89-10.888-2.444-1.333-4.555-2.111-7.556-2.777-2.664-.666-6.22-1.222-9.442-1.222-1.444 3.444-2.332 7.11-3.11 10.999-.558 3.888-.777 9.444-1.554 12-1.668 1.888-3.335 2.444-6.225.778-2.888-1.556-7.663-7.777-10.108-10.112-2.665-2.444-4.444-3.888-5.777-4.776-1.773-1.107-3.106-1.996-3.996-2.217z" fill="#ffc080"/><path d="M265.161 98.727c.777-1.222 2.888-2.777 5.001-3.332 1.554-.779 2.886-1.778 5.22-1.778 2.225-.333 5.555-.445 7.444.111 1.332.444 1.554 1.888.666 2.666-.998-.111-5.001-.333-6.888-.221-2.225.333-4.668 1.667-6.112 2.777-2.108.666-3.222 3.333-4.222 3.333-1.109-.222-1.775-2.555-1.109-3.556zm52.219 26.109c0-1.555-.113-4.666-.779-6.332-.776-1.888-.889-4-2-5.444-1.444-2.222-4-4.777-5.112-5.554-1.221-.778-3.222.111-2.553 1.443.221 1 3.665 3 4.777 5.111 1.108 2.111 1.332 4.556 1.887 6.888.335 2-.555 4.776.335 5.777.442.334 2.886-.444 3.445-1.889zm-57.773-22.22c-.335.89.219 2.112 1.443 2.667 1.109.444 2.444.111 2.776-.89.445-.887-.108-2.11-1.332-2.554-1.112-.556-2.444-.223-2.887.777zm51.44 26.887c-.446.889.108 2.111 1.332 2.556 1.112.555 2.444.222 2.888-.777.334-1-.221-2.111-1.332-2.667-1.224-.446-2.446-.111-2.888.888zm-20.334-12.221c-1.556 3.555.669 7.889 4.779 9.777 4.22 1.778 8.888.444 10.443-3.111 1.555-3.556-.666-7.888-4.777-9.667-4.222-1.887-8.887-.444-10.445 3.001z" stroke="#000" stroke-width=".036" stroke-miterlimit="10"/><path d="M296.49 117.17c-.442 1.001.224 2.223 1.335 2.667 1.221.555 2.444.222 2.888-.778.445-1-.224-2.111-1.332-2.667-1.224-.444-2.445-.111-2.891.778z" fill="#fff" stroke="#000" stroke-width=".036" stroke-miterlimit="10"/><path d="M271.828 104.505c-1.558 3.556.554 7.889 4.665 9.666 4.223 1.89 8.776.446 10.332-3.11 1.555-3.555-.556-7.887-4.665-9.666-4.223-1.89-8.889-.445-10.332 3.11z" stroke="#000" stroke-width=".036" stroke-miterlimit="10"/><path d="M277.715 104.505c-.332.889.222 2.111 1.334 2.556 1.109.556 2.333.112 2.775-.778.447-1-.11-2.111-1.22-2.667-1.223-.443-2.444-.11-2.889.889z" fill="#fff" stroke="#000" stroke-width=".036" stroke-miterlimit="10"/><path d="M212.834 63.065c.222-1.89.666-3.667 1.332-5.333.557-1.89 1.002-4.443 1.778-5.111.557-1.111 1.779-.555 2.333 0 0 .333 0 .668-.444 3.112-.666 2.554-1.556 9.665-2.222 11.887-1.222 1.665-2.333 0-2.889-.667-.666-.666-.332-2.665.112-3.888zm-5.332 1.777c-.224-1.667-.224-3.888 0-5.443-.224-1.667.109-4.888.555-5.444.333-1.001 1.666-1.001 2.334-.445l.333 3.11c.221 2.445.333 9.888.333 12.111-.666 1.555-2.333.666-2.889-.112-.666-.777-.89-2.444-.666-3.777z" stroke="#000" stroke-width=".036" stroke-miterlimit="10"/><path d="M243.719 55.509c-2.556-.111-4.777-.111-7.888.445-3.222.223-7.112.889-10 2-2.999.667-5.888 1.89-8.22 3.222 2.332 1.778 4.998 4.111 7.554 6.555l7.999 7.777c1.998 1.555 2.998 2.223 4.334 2.444.997.223 1.555-.666 2.109-2.221.335-2.444.556-6.667 1.113-9.667.442-2.889.776-5.777 1.442-7.333.667-1.999.778-2.665 1.557-3.222zm-36.997 11.555c.112 3.11.336 5.333 1.113 7.889.555 2 1.222 3.776 2.443 5.776.89 2.111 2.556 4.001 3.222 6.112.445 1.444.333 2.777-.333 3.555-1.444.222-3.222.222-5.776 0-2.334-.111-5.111-.667-8.333-1.222-3.668-.777-7.777-1.778-12.778-3 3.557-4 6.555-7 10.224-10.333 3.554-3.333 6.554-6.111 10.218-8.777zm-29.662 29.554c.444 1.665 1.333 3.554 2.667 5.665.999 2 2.554 4.333 4.221 6.555 1.666 1.777 3.445 4.221 5.332 5.666 1.556 1.444 3.112 1.889 3.778 2.999.222.445.557 1.001-1.556 1.667-2.556.334-8.998 1.333-12.443 1.778-3.888.445-6 .221-9.333 1-3.666.554-7 1.332-11.222 2.333 1.224-3.778 2.89-7.555 6.223-12.221 3-4.666 7.111-9.666 12.333-15.442zm-22.888 36.774c.777 1.332 2.333 2.887 4.667 4.666 2 1.778 5.333 4.222 8.332 6.11 2.667 1.667 5.667 2.777 8.555 4.223 2.888 1.11 6.555 2.889 7.999 3.999 1 1.001.111.778-1.444 2.333-2.11 1.445-6.444 3.333-9.554 5.666-3.222 1.778-6.111 3.666-9.555 6.11-3.888 2.111-7.777 5.223-12.554 8.112-.666-3.667-1.556-7.444-1.446-11.778 0-4.554-.666-9.109.556-14.109.557-5 2.445-10.111 4.444-15.332zm.557 52.327c2 .777 4.443 1.445 7.777 2 2.999.556 7.554 1 11.11 1.333 3.222 0 7.11-.666 9.999-.666 2.777-.333 5.111-.778 7-.89 1.443-.333 1.999-1 2.889-.333.555 0 1.11.333 1.221 2.333-.555 1.89-.888 6.111-1.444 9.222-.445 2.776-.778 5.889-.999 8.442-.666 2.112-.778 4.002-.778 6.112 0 2.11.223 4.446.666 6.998-5.108-3.554-9.553-6.443-13.775-9.885-4.444-3.445-7.111-5.669-10.999-9.668-4.001-4.22-8.224-9.22-12.667-14.998zm52.438 43.331c2.11-.777 4.443-1.555 6.999-3.222 2.444-1.778 5.557-4.111 8.108-6.112 2.222-2.222 4.335-4.889 5.891-5.443 1.111-.889 2-.223 3.109 1.555 1 1.667 1.666 5.997 3.333 9.111 1.444 2.776 3.11 6.22 5 9 1.443 2.332 2.779 4.665 3.999 6.555 1 1.775 2.002 3.554 2.556 4.889-2.443-1.001-5.777-2.225-9.553-3.668-4.335-1.556-9.223-3.554-14.223-5.555-5.108-2.221-9.886-4.445-15.219-7.11zm61.217 23.777c2.556-2.891 4.664-5.89 6.775-9.446 1.89-3.888 3.556-9.999 5.445-11.886 1.443-2.001 2.556-1.224 4.665.22 1.778 1.223 4.554 4.11 7.887 7.333 3.334 2.778 8.557 7.112 12.668 10.445 3.888 3.222 7.221 5.998 10.442 8.776-5.22.224-10.219.777-15.443.443-5.223-.332-10.665-.89-15.888-1.667-5.443-.997-11.109-2.555-16.551-4.218zm88.991-11.556c-1.224-.558-2.891-1.89-5-3.556-2.556-2.11-5.666-4.666-8.445-7.222-3.109-2.667-6.555-6.112-8.553-7.778-2.001-1.775-2.667-3.888-3.222-3.776-.89-.666-1.224.112-1.446 2.333-.555 2.333-.778 7.11-1.109 11.778-.445 4.331-1.001 10.331-1.224 14.554-.331 3.776-.331 6.887-.443 8.888 3.999-1.221 7.776-2.556 11.332-3.999 3.222-1.555 6.221-2.779 9.442-4.555 3.002-2.001 5.889-4.223 8.668-6.667zm30.997-36.108c-2.113-.446-4.777-.89-7.999-1.778-3.667-1.113-8.332-2.445-11.89-3.557-3.333-1.667-7.108-2.775-8.776-3.776-2.001-1.11-3.556-1.667-3.775-1.222-.67.333-.446 1.445.666 4.221.666 2.444 2.998 7 5.331 11.889 2.332 4.889 5.223 10.555 8.668 17.441 4.111-4.22 7.443-8.219 10.442-11.998 2.888-4.111 5.332-7.555 7.333-11.22zm8.776-51.439c-3.11 2-6.001 4.332-8.666 6.555-3.001 2.109-5.999 4.999-7.666 6.888-1.998 1.333-3.11 2.111-2.887 3.222-.112 1.11 1.777 1.888 3.999 3.999 1.778 1.778 6.22 4.667 8.665 6.555 2.221 1.555 3.998 2.556 5.333 3 .998-5.444 1.998-10.666 2.11-15.667.001-5.221.001-9.776-.888-14.552zm-19-38.775c-1.886 2.554-3.664 4.888-5.331 7.443-2.108 2.444-4.11 4.778-5.554 6.999-1.667 1.89-3.334 2.777-3.334 4.444-.666 1.334.666 2.001 2.776 3.667 2.556 1.445 8.221 3.112 11.89 4.555 3.109 1.001 5.331 1.778 7.887 2.334 2.556.109 4.888.221 7.443-.557-1.666-5.111-3.775-9.555-6.331-14.553-2.667-4.888-5.665-9.666-9.446-14.332zm-40.993-30.886c.554 2.111.89 4.11.998 6.443-.108 1.89-.778 4.445-1.11 6.779-.776 2.444-1.777 5.665-1.777 7.888-.446 1.665.332 2.999 1.89 3.555 1.667.556 4.22-.223 8.11-.223 3.554-.555 8.888-1.223 13.441-1.556 4.222-.444 8.333-.444 12.332 0-6.331-5.666-12.22-10.109-16.443-13.331-4.553-3.555-7.887-4.444-10.442-6.111-2.888-1.667-5.223-2.668-6.999-3.444zm-9.556-2.89c-.777-.555-3.333-1.667-8.11-2.889-5.111-1.443-11.555-3.443-20.665-5.554 1.666 3.444 2.447 5.999 3.224 8.887.332 2.223.108 4.556.221 7-.331 2.333-.221 6.888.335 8.11.11 1 1.443 0 3.556-1.332 2.222-1.89 7.11-6.555 9.997-8.444 2.557-2.221 3.778-2.112 5.776-3.111 1.778-1 3.668-1.889 5.666-2.667zm-61.44-20.108c1.447.777 3.445 1.443 5.557 2.444 1.888.887 4.332 2.11 6.887 3.222 2.226.555 5.111 1.776 7.779 2.444 2.664.999 5.221 1.443 8.11 2.554-2.444 1.667-5 3.89-7.667 6.222-2.888 2.223-6.555 6-8.442 7.889-1.666 1.555-3.224 2.444-3.444 2.221-.889-.333-1.112-2.221-1.555-4.776-.89-3.11-1.89-8.443-3.002-12.109-1.11-3.556-2.664-7.333-4.223-10.111z" fill="#a16121" stroke="#000" stroke-width=".036" stroke-miterlimit="10"/><path d="M166.727 106.283c-1.332-1.667-2.778-3.889-3.888-5.777-1.333-2.222-3.001-4.777-3.222-5.999-.224-1.222.999-1.89 1.888-1.557.333.335.777.223 2.556 3.112 2.111 2.666 7.554 9.999 8.999 12.554.778 1.889-1.778 1.778-2.889 1.333-1.222-.778-2.223-1.999-3.444-3.666zm4.333-5.221c-1-1.222-1.89-3-2.667-4.11-.999-1.556-2.333-3.333-2.333-4.111.111-1.111.444-1.333 1.443-1.111.334-.223.334.333 1.778 2.11 1.221 1.667 5.333 7 6.333 8.777.555 1.444-1.444 1.223-2.11.999-.889-.222-1.555-1.777-2.444-2.554zm6.667 110.656c-1.89 1.001-4.334 1.444-6.445 2.556-2.445.778-5.221 1.555-6.555 1.886-1.332-.331-1.888-1.666-1.222-2.221 0-.889.777-.666 3.556-1.89 2.999-1.444 11.443-5.774 14.221-6.108 2.11-.555 1.333 1.889.666 3.11-.779.777-2.333 1.666-4.221 2.667zm-4.222-5.443c-1.446.332-3.112 1.332-4.556 1.775-1.888.558-3.555 1.001-4.555 1.335-.999-.446-1.111-1.112-.778-1.556.112-.446.224-.557 2.445-1.223 2.11-1.221 7.888-4 10-4.443 1.443-.446.887 1.444.442 2.222-.777.778-1.776 1.001-2.998 1.89zm82.099 39.327c-.108 1.335-.332 3.779-.666 5.558-.332 1.555-.888 4.441-1.22 5.22-.89.777-1.556.223-2.002 0-.554-.666-.111-.889.112-3.222.11-2.999.334-10.221 1.111-12.221.555-1.998 1.778-.335 2.444.666.334.777.113 2.112.221 3.999zm-5.997-1.999c-.334 1.222-.89 3.111-1.224 4.777-.666 1.556-1.221 3.445-1.666 4.446-.779.666-1.779 0-1.779-.224-.22-.446-.22-.777.446-2.778.224-2.333 1.443-9.331 2.333-10.666.666-1.556 1.666-.111 2.113.889.22.666.001 2.001-.223 3.556zm92.991 8c.555.777 1.332 2 2.334 3.667.554 1.555 2.109 4.555 2.998 5.998.89 1.112 2.113 1.443 2.335.557-.222-1.446-1.224-5.558-2.556-8.001-1.554-2.664-4.222-6.109-5.445-6.887-1.332-.889-2.664.89-2.333 1.887-.223.557 1.667 1.778 2.667 2.779zm-6.113 2.221c.67.889 1.224 1.555 2.113 3.222.443 1.556 1.888 3.891 2.667 5.223.887 1.001 1.556 1.332 1.998.555 0-1.221-1.332-5-2.22-7.109-1.336-2.444-3.78-5.442-4.777-6.001-1.447-.889-2.113.67-2.001 1.667-.112.776 1.224 1.446 2.22 2.443zm62.106-87.547c1.447.112 3.558.445 5.446 1 1.556.443 4.442.778 5.221 1.444.777.556.335 1.223-.112 2-.666.223-.885 0-3.222-.222-2.998-.667-10.219-1.112-12.221-1.778-1.775-1.222-.331-1.888.889-2.444.557-.444 2.445-.444 3.999 0zm-2.332 5.89c1.336.444 2.89.666 4.666 1.555 1.224.555 3.667.999 4.333 1.777.335.556.224 1.445-.331 1.778-.777.224-.558-.111-2.778-.556-2.556-1.111-8.889-2.11-10.443-2.999-1.777-1.11.112-1.778 1.001-2 .665-.445 1.997.11 3.552.445zm-174.095-29.666c-5.219-3.667-19.33-9.777-29.106-15.776-10.221-6.333-22.665-15.555-30.442-20.443-7.776-4.888-12.555-8.333-15.553-9.443-3.223-1.444-3.778-.112-3.333 1 .11.554.887 1.111 4.888 3.776 3.888 2.556 10.554 6.667 18.22 11.889 7.666 4.776 17.666 12.444 26.108 17.443 7.777 4.554 16.11 9.221 21.553 11.887 4.891 2.667 7.999 4.11 9.331 4.333 1.224-.332 3.113-1.332-1.666-4.666zm-85.434-10.887c5.777 1.443 13.555 3.888 22.887 6.11 8.776 2.221 20.886 3.888 29.886 6.222 8.999 2 17.775 3.443 23.331 5.221 4.666 1.334 6.666 2.222 7.333 3.111.666.889 1.89 2.334-2.779 1.778-5.332-1.001-17.109-4.556-26.329-6.444-9.333-2.111-18.887-3.556-28.22-5.556-9.666-2.444-22.554-6.444-28.776-8.11-6.556-1.888-6.999-1.666-9.109-2.332-2.556-1.223-3.667-3.11-3.334-3.556.222-.666 2.556 0 5.222.667 2.444.222 4.332 1.334 9.888 2.889zm-10 35.441c7.555-.556 23.664-1.667 33.776-2.111 9.442-.555 16.331-.89 24.553-.999 7.998-.445 19.663-1.557 24.663-1.223 4.667 0 5.778 2 4.556 2.555-1.444.334-4.333.889-11.665 1.222-7.89.223-21.888.111-32.998 1.001-11.332.333-21.998 1.778-32.442 2.556-10.666.889-22.886 1.776-29.442 2.221-6.443-.333-8.332-1.11-8.665-1.888-.556-.889 1.667-2.112 4.888-2.333 2.889-.778 8.887-.556 12.886-.667 3.559-.334 2.557-.001 9.89-.334zm200.091 6.666c6.224.11 21 3.333 32.774 4.555 11.443.999 25.665 1.111 36.663 1.555 10.889.222 21.998-.777 27.332 0 5 .333 2.557 2.111 2.109 2.777l-6.22.112c-6.666-.112-20.22.444-30.777.333-10.663-.224-21.997-.666-31.439-1.333-9.334-1.334-18.889-2-24.442-3.222-5.889-.89-9.11-1.444-10.111-2.111-1-.778-2.332-3.221 4.111-2.666zm68.772 39.441c-6.998-2.333-13.999-5.112-22.22-8.333-8.889-3.665-19.331-8.776-27.888-12.331-8.442-3.777-17.221-7.555-21.998-9.222-4.999-1.777-6.887-2.221-7.775-1.777-1.335 0-3.222.89 1.221 3.111 4.445 1.888 16.221 6.222 25.111 10 8.553 3.776 16.886 7.887 26.218 11.886 9.333 3.779 19.999 7 28.109 10.111 7.555 2.667 13.332 4.553 17.331 5.666 3.334.777 4.777-.666 4.777-.889-.334-.89-.889-1-4.665-2.444-4.111-1.668-11.332-3.446-18.221-5.778zm-16.997 22.443c-5.889-5-19-15.111-26.443-21.332-7.999-6.224-14.443-11.224-19.331-15-4.889-3.778-7.221-6.444-9.554-7.554-2.778-1.334-5.669-1.89-5.222-.445.554 1.332 4.333 3.888 8.775 7.664 4.11 3.001 9.445 6.778 16.442 12.224 6.891 5.332 16.779 14.108 24.998 20.774 8.221 6.332 17.111 15 22.777 18.776 4.888 3.445 7.222 3.776 8.222 3.556.666-.334-.67-2.89-2.668-4.668-2.443-2.221-7.108-5.886-10.11-7.998-2.887-2.555-2.667-1.555-7.886-5.997zm-71.994-156.653c1.221-.667 2.998-1.89 5.777-2.777 2.779-.889 7.887-1.89 10.666-2.556 1.89-.889 3.11-1.445 3.222-2.111.332-.666-.555-1.667-1.443-1.333-1.556-.11-3.334.777-5.335 1.445-1.89.445-3.888 1.222-5.997 1.888-2.225.557-5.111 1.446-6.556 2.223-1.666.666-2.335 2-2.443 2.666-.001.443.553.776 2.109.555zm-2.999-2.889c.998-.889 1.667-2.223 4.111-3.555 1.998-1.333 6.331-3.333 8.329-4.222 1.556-1.222 1.891-1.888 2.225-2.444-.222-.667-.558-1.222-1.446-.778-1.109.222-2.776 1.111-4.11 2.222-1.664.889-3.223 1.666-4.665 2.778-1.668.887-4 2.11-4.89 3.222-1.22.778-1.555 2.222-1.443 2.666-.112.444.665.333 1.889.111zm-18.557-3.889c-.442-1.111-.554-4-.776-5.666-.556-1.777-1.222-3.777-1.998-5.11-1.443-1.555-3.223-3.333-3.999-4.111-.89-1-.447-1.778 0-1.89 0-.443.997-.777 1.774-.11.89.445 2.447 1.444 3.779 3.443 1.001 1.778 2.333 5.89 3.109 8.11.556 1.89.666 4.11.335 5-.445.89-1.888 1.001-2.224.334zm5.778-.445c-.332-1.222-.554-4.998-.22-7.109.108-2.778.332-5.89 1.108-7.222.558-1.557 1.335-1 1.89-.444.111.554-.446 1.888-.334 4-.332 1.777-.332 4.666-.442 6.555-.336 1.667 0 2.889-.224 3.667-.778.665-1.22 1.443-1.778.553zm6.778.668c-.334-.668-.11-1.555.666-2.667.556-1.444 2.113-3.443 3.445-4.776.89-1.334 2.888-2.333 3.888-3.444 1.001-1.557 1.335-3.333 2.667-4.445.89-1.332 2.888-2.667 3.888-2.667.556-.444 1.113.445.778 1.334-.555.554-2.11 1.666-3 2.888-1.222 1.111-1.777 2.333-2.89 4.11-1.443 1.333-3.552 2.778-4.554 4.333-1.22 1.11-1.777 2.111-2.109 3-.446.666-.558 1.222-.777 1.665-.781.113-1.89.891-2.002.669zm-28.218 94.102c-3.557-.999-6.446-2.444-9.11-3.887-2.556-1.556-4.557-3.222-6.443-5.445-2.225-2.666-4.111-6.776-6.555-9.777-2.891-3.666-7.225-6.888-9.558-9.665-2.556-2.778-3.776-4.556-4.554-6.555-.89-2.666-.89-5.221 0-7.222.442-2.333 1.666-4.11 4.111-4.888 2.667-1 6.22-.779 10.666.666 4.11 1.223 8.333 4.111 13.109 7.333 4.222 2.777 8.441 7.554 12.221 10 3.554 2.109 4.223 2.221 9.223 2.887 4.889.445 13.33-.666 19.33.557 5.556 1 10.443 3.444 13.776 5.554 3.111 1.667 3.999 3 3.888 5.333-.555 2.334-3.11 5.333-5.997 7.667-3.668 1.667-8.891 2.889-12.221 4.111-3.225 1.332-4.223 2.444-6.446 3.776-2.664 1.333-4.554 3.112-8.223 3.557-3.999-.111-8.329-1-14.22-3.112-2 4.779-3.332 8.888-4.445 13.667-1.108 4.443-2.109 8.666-1.777 13.11.111 4.109 1.559 9.443 3.113 12.997.89 3.556 2.664 5.777 4.889 8.333 2.332 2.333 5.997 4.334 9.331 5.555 2.777.777 5.776.334 9.444-.109 3.665-1.112 9.998-3.667 12.554-4.223 2.111-.666 2.224.332 1.666 1.333-1.108.555-2.888 1.667-5.777 2.89-2.888.886-6.663 2.553-10.442 2.887-4.223 0-9.666-.666-13.33-2.444-3.893-2.222-7.444-5.224-9.334-9-2.113-3.776-3.222-9.11-3.777-12.556-.776-3.776-1-6.665-.668-9.109-2.445 3.778-5.001 7.111-8.11 9.999-3.445 2.779-6.999 5.558-10.666 7.001-3.554 1.109-7.222.666-10.555-.112-3.775-1.332-6.997-3.445-10.108-5.889-3.333-2.333-6.222-5.666-8.221-8.222-2.555-2.999-4.221-7.109-4.999-8.887-.89-2 .442-2.666.999-2.445.223-.111.889 1.444 1.999 3 .778 1.777 2.223 3.778 3.891 6.444 1.333 1.888 3.554 4.776 6.22 7 2.775 2.109 6.555 5.111 9.996 6.443 3.003 1 5.335 1.224 8.334.666 2.666-.889 5-1.778 8.333-4.331 3.111-3.002 7.778-7.779 10.555-11.334 2.443-3.556 2.667-6.555 4.11-9.443 1-3.445 2.002-7.221 2.556-9.555.553-2.555 1.11-3.778 1.222-4.556z" stroke="#000" stroke-width=".036" stroke-miterlimit="10"/><path d="M238.831 123.948c-.113.445.11 1 .666 1.223.554.221 1.111.11 1.334-.334.22-.443-.11-.999-.668-1.332-.444-.224-1.11-.001-1.332.443zm2.666-.889c-.223.445.111 1 .666 1.222.443.222 1.109 0 1.332-.444.111-.445-.11-1.001-.666-1.222-.555-.223-1.112 0-1.332.444zm18.996 9.333c-.22.444.111 1 .67 1.222.554.222 1.108 0 1.332-.444.11-.444-.112-1-.666-1.222-.558-.222-1.113-.001-1.336.444zm2.336 2.555c-.111.555.108 1.111.666 1.332.555.224 1.108 0 1.332-.442.224-.445-.111-1-.666-1.224-.555-.222-1.112-.11-1.332.334zm43.549 20.997c-.22.445.112 1 .666 1.222.558.223 1.112.111 1.336-.333.111-.444-.112-1.11-.666-1.334-.558-.221-1.112.001-1.336.445zm-20.219 9.889c-.224.444.11 1.001.666 1.222.558.223 1.111 0 1.334-.445.221-.444-.11-.999-.668-1.222-.555-.221-1.109-.111-1.332.445zm-30.442-39.331c-1.11-.666-1.556-.999-2.556-1.444-.89-.556-1.998-.777-2.888-1.111-1.224-.556-2.667-.889-3.445-1-1.108-.112-1.777-.445-1.998-.112-.224-.11-.669.778-.111 1.001.111.111-.112.111 1.001.444.777.111 2.553.555 3.999.889 1.221.333 2.221.999 3.442 1.555.777.444 1.666 1.222 2.667 1.888l2.556 2.111c.555 0 1.112 0 1.224-.444 0-.666-1.001-1.111-1.335-1.777-.779-.887-1.779-1.555-2.556-2zm39.665 34.109c.442-.556 1-.889 1.666-1 .443-.445 1.886-.555 2.664-.778.777-.221.889-.11 2.001-.11.442-.779 1.998-.889 2.556-1.224.443-.222 1.222 0 1.109.667-.554.333-1.109 1.333-2.109 1.777-.666.223-1.89.223-2.445.445-.889.111-1.666.111-2.332.444-.89 0-1.111.668-2.001 1.113-1.221.554-2.556 1.443-3.554 2.221-1.334.445-2.224.889-2.666.889-.666-.111-.666-.777-.447-1.11.224-.557.669-1 1.779-1.333.668-.557 2.777-1.779 3.779-2.001z" fill="#fff" stroke="#000" stroke-width=".036" stroke-miterlimit="10"/></g></svg>