<svg width="109" height="105" xmlns="http://www.w3.org/2000/svg" xmlns:undefined="http://www.inkscape.org/namespaces/inkscape" xmlns:xlink="http://www.w3.org/1999/xlink">
 <defs>
  <linearGradient id="imagebot_44">
   <stop stop-color="#000000" stop-opacity="0" id="imagebot_60" offset="0"/>
   <stop stop-color="#000000" stop-opacity="0.57196" id="imagebot_59" offset="1"/>
  </linearGradient>
  <filter height="1.6817" y="-0.34085" width="1.69603" x="-0.34802" id="imagebot_20">
   <feGaussianBlur id="imagebot_56" stdDeviation="5.46506" />
  </filter>
  <filter height="1.90677" y="-0.45339" width="2.0395" x="-0.51975" id="imagebot_18">
   <feGaussianBlur id="imagebot_55" stdDeviation="4.15116" />
  </filter>
  <filter id="imagebot_15">
   <feGaussianBlur id="imagebot_48" stdDeviation="0.21752" />
  </filter>
  <radialGradient r="65" fy="497.9592" fx="216.99271" cy="497.9592" cx="216.99271" gradientTransform="matrix(0.510273,1.0071643,-0.9651122,0.4889677,650.88519,-406.13978)" gradientUnits="userSpaceOnUse" id="imagebot_38" xlink:href="#imagebot_44"/>
  <radialGradient r="15.5" fy="409.86218" fx="233.49998" cy="409.86218" cx="233.49998" gradientTransform="matrix(0.387095 1.51613 -1.42341 0.363422 730.515 -86.1066)" gradientUnits="userSpaceOnUse" id="imagebot_35" xlink:href="#imagebot_44"/>
  <radialGradient r="31.21514" fy="51.11454" fx="23.48026" cy="51.11454" cx="23.48026" gradientTransform="matrix(1.26714 0.299953 -0.222381 0.93944 238.603 8.78822)" gradientUnits="userSpaceOnUse" id="imagebot_26" xlink:href="#imagebot_44"/>
  <radialGradient r="15.5" fy="409.86218" fx="233.49998" cy="409.86218" cx="233.49998" gradientTransform="matrix(0.387095 1.51613 -1.42341 0.363422 730.515 -86.1066)" gradientUnits="userSpaceOnUse" id="imagebot_23" xlink:href="#imagebot_44"/>
  <radialGradient r="15.17075" fy="80.45094" fx="276.0408" cy="80.45094" cx="276.0408" gradientTransform="matrix(1.0267363,0.3567875,-7.0533119e-2,0.2029749,-1.7058541,-32.4087)" gradientUnits="userSpaceOnUse" id="imagebot_13" xlink:href="#imagebot_44"/>
  <radialGradient r="5.42671" fy="74.86816" fx="261.30423" cy="74.86816" cx="261.30423" gradientTransform="matrix(1.2544153,0.4699599,-0.2656339,0.709029,-46.559534,-100.19401)" gradientUnits="userSpaceOnUse" id="imagebot_10" xlink:href="#imagebot_44"/>
  <radialGradient r="10.74107" fy="71.25101" fx="244.43129" cy="71.25101" cx="244.43129" gradientTransform="matrix(1.9045758,0.1724787,-0.1322283,1.4601167,-211.42646,-75.899465)" gradientUnits="userSpaceOnUse" id="imagebot_7" xlink:href="#imagebot_44"/>
  <radialGradient r="13.67723" fy="38.64098" fx="271.97729" cy="38.64098" cx="271.97729" gradientTransform="matrix(1.4010076,5.8976933e-2,-9.3381808e-2,2.2183016,-105.45658,-65.863626)" gradientUnits="userSpaceOnUse" id="imagebot_5" xlink:href="#imagebot_44"/>
 </defs>
 <metadata id="imagebot_43"/>
 <g id="imagebot_2" label="Layer 1">
  <path transform="matrix(1 0 0 1 -239.44 -30.6393)" label="Layer 1" fill="#7aa27a" stroke-width="4" stroke-linecap="round" stroke-miterlimit="4" d="M343.75653,83.69527C343.75653,87.14758 343.37836,110.47237 342.66119,113.70991C340.8974,122.59166 335.18796,127.70528 326.61411,129.65157C322.62909,130.39496 318.09628,114.09405 313.17691,114.0032C308.25751,113.91235 302.95154,130.03159 297.42023,130.03159C291.86295,130.03159 286.53317,113.90323 281.59436,113.9781C276.65558,114.05298 272.10773,130.33109 268.11435,129.56029C259.07251,128.05975 254.34488,121.87473 252.11552,113.41774C251.4397,110.2701 251.08389,87.04385 251.08389,83.69527C251.08389,58.11762 271.84256,37.35895 297.42023,37.35895C322.99786,37.35895 343.75653,58.11762 343.75653,83.69527z" id="imagebot_39"/>
  <path transform="matrix(1 0 0 1 -239.44 -30.6393)" label="Layer 1" fill="url(#imagebot_38)" stroke-width="4" stroke-linecap="round" stroke-miterlimit="4" id="imagebot_37" d="M343.75653,83.69527C343.75653,87.14758 343.37836,110.47237 342.66119,113.70991C340.8974,122.59166 335.18796,127.70528 326.61411,129.65157C322.62909,130.39496 318.09628,114.09405 313.17691,114.0032C308.25751,113.91235 302.95154,130.03159 297.42023,130.03159C291.86295,130.03159 286.53317,113.90323 281.59436,113.9781C276.65558,114.05298 272.10773,130.33109 268.11435,129.56029C259.07251,128.05975 254.34488,121.87473 252.11552,113.41774C251.4397,110.2701 251.08389,87.04385 251.08389,83.69527C251.08389,58.11762 271.84256,37.35895 297.42023,37.35895C322.99786,37.35895 343.75653,58.11762 343.75653,83.69527z"/>
  <g label="Layer 1" id="imagebot_32" transform="matrix(0.712866 0 0 0.712866 -87.4449 -258.012)">
   <path fill="#ffffff" stroke-width="4" stroke-linecap="round" stroke-miterlimit="4" d="M 259 424.862 A 15.5 15.5 0 1 1 228 424.862 A 15.5 15.5 0 1 1 259 424.862 Z" id="imagebot_36"/>
   <path fill="url(#imagebot_35)" stroke-width="4" stroke-linecap="round" stroke-miterlimit="4" id="imagebot_34" d="M 259 424.862 A 15.5 15.5 0 1 1 228 424.862 A 15.5 15.5 0 1 1 259 424.862 Z"/>
   <path fill="#000000" stroke-width="4" stroke-linecap="round" stroke-miterlimit="4" transform="matrix(0.6129032,0,0,0.6129032,101.70968,169.7531)" d="M255,417.86218A15.5,15.5 0 1 1 224,417.86218A15.5,15.5 0 1 1 255,417.86218z" id="imagebot_33"/>
  </g>
  <path label="Layer 1" transform="matrix(1 0 0 1 -239.44 -30.6393)" fill="#808080" fill-rule="evenodd" stroke-width="1px" d="M 258.036 56.0422 C 250.273 63.2669 250.394 73.645 249.226 83.5078 L 249.226 98.277 C 260.868 93.6258 265.189 106.058 273.064 110.196 C 272.535 95.3403 264.292 73.5819 301.307 92.3175 C 319.61 75.3058 308.735 69.4295 305.453 63.0382 C 305.453 63.0382 271.25 44.6414 258.036 56.0422 Z" id="imagebot_31"/>
  <path label="Layer 1" transform="matrix(1 0 0 1 -239.44 -30.6393)" fill="#666666" fill-rule="evenodd" stroke-width="1px" id="imagebot_30" d="M 258.371 57.952 C 250.962 66.0605 252.183 71.4777 251.015 81.3405 L 250.977 94.7438 C 260.237 93.024 265.144 98.1645 270.169 103.857 C 270.358 89.8215 265.484 73.8341 300.011 89.7264 C 315.464 77.6378 307.957 67.8749 302.602 64.0746 C 302.602 64.0746 273.1 46.9224 258.371 57.952 Z"/>
  <path label="Layer 1" transform="matrix(1 0 0 1 -239.44 -30.6393)" fill="#4d4d4d" fill-rule="evenodd" stroke-width="1px" d="M 260.316 60.0733 C 252.907 68.1818 254.304 70.9474 253.137 80.8102 L 253.628 92.0922 C 262.889 90.3724 263.376 93.5683 268.402 99.2609 C 268.591 85.2253 268.136 73.127 297.006 87.0748 C 310.161 74.9862 306.897 69.9962 301.542 66.1959 C 301.542 66.1959 275.045 49.0438 260.316 60.0733 Z" id="imagebot_29"/>
  <path label="Layer 1" fill="#999999" stroke-width="4" stroke-linecap="round" stroke-miterlimit="4" transform="matrix(0.530211 0.847866 -0.847866 0.530211 71.0139 -21.2697)" d="M32.17336,59.14548A3.44715,4.50781 0 1 1 25.27907,59.14548A3.44715,4.50781 0 1 1 32.17336,59.14548z" id="imagebot_28"/>
  <path label="Layer 1" transform="matrix(1 0 0 1 -239.44 -30.6393)" fill="#999999" stroke-width="4" stroke-linecap="round" stroke-miterlimit="4" id="imagebot_27" d="M 265.77 70.5265 A 3.44715 4.50781 0 1 1 258.876 70.5265 A 3.44715 4.50781 0 1 1 265.77 70.5265 Z"/>
  <path label="Layer 1" transform="matrix(1 0 0 1 -239.44 -30.6393)" fill="url(#imagebot_26)" fill-rule="evenodd" stroke-width="1px" id="imagebot_25" d="M 258.036 56.0422 C 250.273 63.2669 250.394 73.645 249.226 83.5078 L 249.226 98.277 C 260.868 93.6258 265.189 106.058 273.064 110.196 C 272.535 95.3403 264.292 73.5819 301.307 92.3175 C 319.61 75.3058 308.735 69.4295 305.453 63.0382 C 305.453 63.0382 271.25 44.6414 258.036 56.0422 Z"/>
  <g label="Layer 1" id="imagebot_21" transform="matrix(0.712866 0 0 0.712866 -115.96 -258.012)">
   <path fill="#ff0000" stroke-width="4" stroke-linecap="round" stroke-miterlimit="4" id="imagebot_24" d="M 259 424.862 A 15.5 15.5 0 1 1 228 424.862 A 15.5 15.5 0 1 1 259 424.862 Z"/>
   <path fill="url(#imagebot_23)" stroke-width="4" stroke-linecap="round" stroke-miterlimit="4" d="M 259 424.862 A 15.5 15.5 0 1 1 228 424.862 A 15.5 15.5 0 1 1 259 424.862 Z" id="imagebot_22"/>
  </g>
  <path label="Layer 1" fill="#ffffff" fill-opacity="0.62745" stroke-width="4" stroke-linecap="round" stroke-miterlimit="4" filter="url(#imagebot_20)" d="M180.00896,413.25201C169.98338,423.52179 159.60271,429.66602 156.83775,426.96683C154.07283,424.26764 159.9655,413.74213 169.99104,403.47235C180.01662,393.20258 190.39729,387.05835 193.16225,389.75751C195.92717,392.45673 190.0345,402.98224 180.00896,413.25201z" id="imagebot_19" transform="matrix(0.712866 0 0 0.712866 -91.0092 -265.141)"/>
  <path label="Layer 1" fill="#ffffff" fill-opacity="0.43439" stroke-width="4" stroke-linecap="round" stroke-miterlimit="4" filter="url(#imagebot_18)" transform="matrix(0.549805 0.453755 -0.453755 0.549805 179.251 -303.971)" d="M262,501.86218C262,509.31418 259.53601,515.36218 256.5,515.36218C253.464,515.36218 251,509.31418 251,501.86218C251,494.41019 253.464,488.36218 256.5,488.36218C259.53601,488.36218 262,494.41019 262,501.86218z" id="imagebot_17"/>
  <path transform="matrix(1 0 0 1 -239.44 -30.6393)" label="Layer 1" fill="#333333" fill-rule="evenodd" stroke-width="1px" d="M244.10771,68.26577C239.44054,73.74519 242.87921,84.2891 249.28673,86.49224L249.38683,81.59667C245.97832,78.99889 244.12662,75.5397 247.06935,70.87473C250.96005,67.20739 256.62204,70.75883 261.83475,72.80867C263.68802,71.81563 263.76706,69.54006 262.88895,68.54702C257.22687,66.31799 249.20781,63.34457 244.10771,68.26577z" id="imagebot_16"/>
  <path transform="matrix(1 0 0 1 -239.44 -30.6393)" label="Layer 1" fill="#ff0000" fill-opacity="0.56981" stroke-width="4" stroke-linecap="round" stroke-miterlimit="4" filter="url(#imagebot_15)" d="M263.14267,77.32761L292.96155,87.76762L292.03693,90.48988L262.62006,78.86627L263.14267,77.32761z" id="imagebot_14"/>
  <path transform="matrix(1 0 0 1 -239.44 -30.6393)" label="Layer 1" fill="url(#imagebot_13)" stroke-width="4" stroke-linecap="round" stroke-miterlimit="4" id="imagebot_12" d="M263.14267,77.32761L292.96155,87.76762L292.03693,90.48988L262.62006,78.86627L263.14267,77.32761z"/>
  <path transform="matrix(1 0 0 1 -239.44 -30.6393)" label="Layer 1" fill="#999999" stroke-width="4" stroke-linecap="round" stroke-miterlimit="4" d="M257.76569,73.79732L266.41577,76.70276C267.24252,78.79808 266.53403,80.15482 264.94315,81.08705L256.29306,78.18161C255.23422,75.02179 256.58441,74.50211 257.76569,73.79732z" id="imagebot_11"/>
  <path transform="matrix(1 0 0 1 -239.44 -30.6393)" label="Layer 1" fill="url(#imagebot_10)" stroke-width="4" stroke-linecap="round" stroke-miterlimit="4" id="imagebot_9" d="M257.76569,73.79732L266.41577,76.70276C267.24252,78.79808 266.53403,80.15482 264.94315,81.08705L256.29306,78.18161C255.23422,75.02179 256.58441,74.50211 257.76569,73.79732z"/>
  <path transform="matrix(1 0 0 1 -239.44 -30.6393)" label="Layer 1" fill="#333333" fill-rule="evenodd" stroke-width="1px" d="M270.73145,37.87647C265.48447,43.51977 266.46109,56.59569 275.66046,66.73579C277.53714,66.61988 278.11786,65.76343 277.57645,64.26577C268.95078,54.4623 268.81897,44.79191 273.3577,39.76577C278.04761,34.57225 285.50916,33.02567 290.75031,37.89532L294.90451,37.40443C288.36649,30.63929 275.86044,31.08923 270.73145,37.87647z" id="imagebot_8"/>
  <path transform="matrix(1 0 0 1 -239.44 -30.6393)" label="Layer 1" fill="url(#imagebot_7)" fill-rule="evenodd" stroke-width="1px" id="imagebot_6" d="M244.10771,68.26577C239.44054,73.74519 242.87921,84.2891 249.28673,86.49224L249.38683,81.59667C245.97832,78.99889 244.12662,75.5397 247.06935,70.87473C250.96005,67.20739 256.62204,70.75883 261.83475,72.80867C263.68802,71.81563 263.76706,69.54006 262.88895,68.54702C257.22687,66.31799 249.20781,63.34457 244.10771,68.26577z"/>
  <path transform="matrix(1 0 0 1 -239.44 -30.6393)" label="Layer 1" fill="url(#imagebot_5)" fill-rule="evenodd" stroke-width="1px" id="imagebot_4" d="M270.73145,37.87647C265.48447,43.51977 266.46109,56.59569 275.66046,66.73579C277.53714,66.61988 278.11786,65.76343 277.57645,64.26577C268.95078,54.4623 268.81897,44.79191 273.3577,39.76577C278.04761,34.57225 285.50916,33.02567 290.75031,37.89532L294.90451,37.40443C288.36649,30.63929 275.86044,31.08923 270.73145,37.87647z"/>
  <title>Layer 1</title>
 </g>
</svg>