<svg xmlns="http://www.w3.org/2000/svg" xmlns:xlink="http://www.w3.org/1999/xlink" width="359.758" height="346.085"><title>Dino: very simple BD style T-REX</title><defs><linearGradient id="a"><stop offset="0" stop-color="#de00ea"/><stop offset="1" stop-color="#de00ea" stop-opacity="0"/></linearGradient><linearGradient xlink:href="#a" gradientUnits="userSpaceOnUse" x1="439.891" y1="814.087" x2="514.343" y2="726.26"/><linearGradient xlink:href="#a" gradientUnits="userSpaceOnUse" x1="439.891" y1="814.087" x2="514.343" y2="726.26" gradientTransform="matrix(.732 0 0 .834 38.773 -336.485)"/><linearGradient xlink:href="#a" id="b" gradientUnits="userSpaceOnUse" gradientTransform="matrix(.732 0 0 .834 38.773 -336.485)" x1="439.891" y1="814.087" x2="514.343" y2="726.26"/></defs><g stroke="#000" stroke-width="5.121" fill="none"><path d="M125.503 167.162l-49.325 18.6-1.234.546"/><path d="M72.448 177.47c20.454-5.752 14.147 16.828 12.872 16.907" overflow="visible" enable-background="accumulate"/></g><path transform="matrix(.322 .25 -.23 .385 99.339 -204.448)" d="M191.339 641.212l-20.607-12.02-20.607-12.02 20.713-11.836 20.713-11.836-.106 23.856-.106 23.856z" fill="#fff" stroke="#000" stroke-width="9.391" overflow="visible" enable-background="accumulate"/><path d="M191.339 641.212l-20.607-12.02-20.607-12.02 20.713-11.836 20.713-11.836-.106 23.856-.106 23.856z" transform="matrix(.322 .25 -.23 .385 118.505 -203.973)" fill="#fff" stroke="#000" stroke-width="9.391" overflow="visible" enable-background="accumulate"/><path transform="matrix(.322 .25 -.23 .385 136.838 -203.498)" d="M191.339 641.212l-20.607-12.02-20.607-12.02 20.713-11.836 20.713-11.836-.106 23.856-.106 23.856z" fill="#fff" stroke="#000" stroke-width="9.391" overflow="visible" enable-background="accumulate"/><path d="M191.339 641.212l-20.607-12.02-20.607-12.02 20.713-11.836 20.713-11.836-.106 23.856-.106 23.856z" transform="matrix(.322 .25 -.23 .385 156.004 -202.074)" fill="#fff" stroke="#000" stroke-width="9.391" overflow="visible" enable-background="accumulate"/><path transform="matrix(.322 .25 -.23 .385 176.004 -200.174)" d="M191.339 641.212l-20.607-12.02-20.607-12.02 20.713-11.836 20.713-11.836-.106 23.856-.106 23.856z" fill="#fff" stroke="#000" stroke-width="9.391" overflow="visible" enable-background="accumulate"/><path transform="matrix(.064 .438 -.403 .077 258.481 -10.254)" d="M191.339 641.212l-20.607-12.02-20.607-12.02 20.713-11.836 20.713-11.836-.106 23.856-.106 23.856z" fill="#fff" stroke="#000" stroke-width="9.391" overflow="visible" enable-background="accumulate"/><path d="M191.339 641.212l-20.607-12.02-20.607-12.02 20.713-11.836 20.713-11.836-.106 23.856-.106 23.856z" transform="matrix(.064 .438 -.403 .077 343.063 -25.923)" fill="#fff" stroke="#000" stroke-width="9.391" overflow="visible" enable-background="accumulate"/><path transform="matrix(.064 .438 -.403 .077 320.98 -22.124)" d="M191.339 641.212l-20.607-12.02-20.607-12.02 20.713-11.836 20.713-11.836-.106 23.856-.106 23.856z" fill="#fff" stroke="#000" stroke-width="9.391" overflow="visible" enable-background="accumulate"/><path d="M191.339 641.212l-20.607-12.02-20.607-12.02 20.713-11.836 20.713-11.836-.106 23.856-.106 23.856z" transform="matrix(.064 .438 -.403 .077 300.98 -17.851)" fill="#fff" stroke="#000" stroke-width="9.391" overflow="visible" enable-background="accumulate"/><path transform="matrix(.064 .438 -.403 .077 278.897 -14.052)" d="M191.339 641.212l-20.607-12.02-20.607-12.02 20.713-11.836 20.713-11.836-.106 23.856-.106 23.856z" fill="#fff" stroke="#000" stroke-width="9.391" overflow="visible" enable-background="accumulate"/><path d="M219.881 311.332c-.725-2.674-3.086-3.909-5.155-4.634-4.369-1.42-9.037-1.325-13.426-.08-2.811.877-5.575 2.455-7.509 5.135m26.894-.382c-.485-2.037-2.494-2.755-4.124-2.733-3.55.107-7.088.715-10.552 1.638-2.837.986-5.094 3.488-6.928 6.112-1.412 2.067-2.58 4.339-3.69 6.636m39.131-65.203l-13.739 53.625-.292 1.386m-.17-1.144c-.916-1.561-2.817-1.457-4.211-.859-3.021 1.353-5.91 3.128-8.657 5.145-2.194 1.848-3.518 4.778-4.449 7.663-.705 2.26-1.151 4.608-1.541 6.957" stroke="#000" stroke-width="4" fill="none"/><path d="M112.002 32.391c-26.167-15.485-61.971-2.868-88.097 8.03-15.453 6.446-25.225 24.498-20.86 32.384 0 0 118.094-1.552 117.41 18.735-.357 10.337-105.978 27.386-105.978 27.386-17.555 4.536 5.572 16.454 32.399 11.517 16.903-3.111 49.89-5.913 56.115 9.314 10.614 25.962 3.964 91.787 52.368 123.493 60.63 39.714 98.171 13.964 118.523-5.994 7.703-7.555 29.471-34.729 44.762-34.227 12.693.417 35.057 14.437 38.945 12.312 1.933-1.057-12.722-26.944-41.196-37.097-23.425-8.353-45.085 9.698-88.943-19.03-47.786-34.51-69.281-52.923-78.472-99.448-3.046-15.416-6.456-29.313-36.977-47.374z" fill="#800080" stroke="#000" stroke-width="4" overflow="visible" enable-background="accumulate"/><path d="M84.818 200.819c17.264-13.777 18.528 9.867 17.364 10.464" stroke="#000" stroke-width="4" overflow="visible" enable-background="accumulate" fill="none"/><path d="M131.06 169.383l-40.135 37.63-.979 1.017" stroke="#000" stroke-width="4" fill="none"/><path transform="matrix(.6 0 0 .863 -114.976 -451.109)" d="M370.456 554.663c0 11.564-8.293 20.939-18.523 20.939s-18.523-9.375-18.523-20.939 8.293-20.939 18.523-20.939 18.523 9.375 18.523 20.939z" fill="#fff" stroke="#000" stroke-width="5.558" overflow="visible" enable-background="accumulate"/><path transform="matrix(.6 0 0 .863 -8.473 -426.086)" d="M173.953 528.087c0 5.782-2.524 10.469-5.637 10.469-3.113 0-5.637-4.687-5.637-10.469 0-5.782 2.524-10.469 5.637-10.469 3.113 0 5.637 4.687 5.637 10.469z" stroke="#000" stroke-width="5.558" overflow="visible" enable-background="accumulate"/><path d="M370.456 554.663c0 11.564-8.293 20.939-18.523 20.939s-18.523-9.375-18.523-20.939 8.293-20.939 18.523-20.939 18.523 9.375 18.523 20.939z" transform="matrix(.509 0 0 .732 -104.319 -376.614)" fill="#fff" stroke="#000" stroke-width="6.555" overflow="visible" enable-background="accumulate"/><path d="M173.953 528.087c0 5.782-2.524 10.469-5.637 10.469-3.113 0-5.637-4.687-5.637-10.469 0-5.782 2.524-10.469 5.637-10.469 3.113 0 5.637 4.687 5.637 10.469z" transform="matrix(.509 0 0 .732 -12.816 -355.062)" stroke="#000" stroke-width="6.555" overflow="visible" enable-background="accumulate"/><path transform="matrix(.732 0 0 .834 -155.395 -421.543)" d="M236.895 575.724c0 1.573-1.275 2.847-2.847 2.847-1.573 0-2.847-1.275-2.847-2.847 0-1.573 1.275-2.847 2.847-2.847 1.573 0 2.847 1.275 2.847 2.847z" stroke="#000" stroke-width="5.121" overflow="visible" enable-background="accumulate"/><path d="M161.667 177.302l7.359-19.336 7.359-19.336 5.781 6.485 5.781 6.485-13.14 12.851-13.14 12.851zM253.176 228.6l.371-17.282.371-17.282 9.923 1.969 9.923 1.969-10.293 15.314-10.293 15.314zM139.11 147.34l11.231-14.463 11.231-14.463 4.35 7.605 4.35 7.605-15.581 6.858-15.581 6.858zM217.566 217.517l4.836-17.871 4.836-17.871 7.457 4.122 7.457 4.122-12.292 13.749-12.292 13.749zM189.382 200.001l6.383-19.264 6.383-19.264 6.437 5.592 6.437 5.592-12.82 13.672-12.82 13.672z" fill="#de00ea" overflow="visible" enable-background="accumulate"/><path d="M244.163 320.473c-1.287-2.477-4.097-3.127-6.493-3.343-5.039-.344-10.125.889-14.692 3.195-2.911 1.556-5.64 3.796-7.258 6.928m29.331-6.937c-.907-1.904-3.236-2.127-5.014-1.707-3.861.971-7.617 2.438-11.232 4.199-2.92 1.671-4.923 4.704-6.443 7.757-1.161 2.396-2.018 4.936-2.807 7.487m30.714-74.261l-5.096 56.577-.063 1.447m-.397-1.094c-1.291-1.326-3.349-.759-4.763.175-3.053 2.08-5.882 4.546-8.512 7.218-2.057 2.369-2.962 5.6-3.446 8.691-.352 2.415-.405 4.855-.397 7.281" stroke="#000" stroke-width="4" fill="none"/><path d="M116.727 196.053c-.826.017-1.63.069-2.447.104 5.547 24.644 15.795 50.529 41.088 67.096 33.283 21.801 59.592 23.871 79.935 18.005-.52-34.31-38.146-70.207-86.703-81.662-11.087-2.615-21.824-3.756-31.873-3.544z" fill="url(#b)" stroke="#000" stroke-width="4" overflow="visible" enable-background="accumulate"/><path d="M68.766 5.827c11.946 7.975 14.168 6.063 30.833-3.827" stroke="#000" stroke-width="4" fill="none"/></svg>