<?xml version="1.0" encoding="utf-8"?>
<!-- Generator: Adobe Illustrator 18.0.0, SVG Export Plug-In . SVG Version: 6.00 Build 0)  -->
<!DOCTYPE svg PUBLIC "-//W3C//DTD SVG 1.1//EN" "http://www.w3.org/Graphics/SVG/1.1/DTD/svg11.dtd">
<svg version="1.1"
	 id="Layer_1" xmlns:svg="http://www.w3.org/2000/svg" xmlns:dc="http://purl.org/dc/elements/1.1/" xmlns:cc="http://web.resource.org/cc/" xmlns:rdf="http://www.w3.org/1999/02/22-rdf-syntax-ns#"
	 xmlns="http://www.w3.org/2000/svg" xmlns:xlink="http://www.w3.org/1999/xlink" x="0px" y="0px" viewBox="0 0 291.3 279.7"
	 enable-background="new 0 0 291.3 279.7" xml:space="preserve">
<g>
	<path fill="#FBC9BF" d="M161.7,3.8c-1.1,2.6-2.9,0.5-5.3,0.5c-10.6,2.5-20.8,4-29.8,8.2c-0.6,0.3-1.3,0.1-1.9,0.5
		c-4.1,2.6-11.1,5.3-15.8,7.7c-2.4,1.2-4.4,2.4-6.7,3.8c-3.9,2.5-8.7,3.8-10.6,8.6c-1,0-1.9,0-2.9,0C78,41.2,68.9,51,59.5,60.5
		c-3.7,5-5.7,11.6-11.5,14.4c6-7.9,10.9-17,18.7-23c0.5-1.1,0.8-2.4,1.4-3.4c4.4-3.6,9.5-6.5,12.5-11.5c7.6-5.3,15.5-10.2,24-15.4
		c13.6-8.2,31.6-15.9,51.4-18.2C157.6,3.2,160.3,1.8,161.7,3.8z"/>
	<path fill="#FBC9BF" d="M149.7,21.6c-0.3,5.5-1.4,12.6-7.2,14.4c-3.4,1-8.6,0.1-13,1c-12.8,2.6-30.7,7.4-40.3,11.5
		c-6.3,4.4-14.4,7-21.1,11c21-18.2,46.1-32.3,80.6-37C149.3,22.4,149.1,21.6,149.7,21.6z"/>
	<path fill="#FBC9BF" d="M140.6,39.8c-0.1,6.6-6.7,10.6-7.7,17.8c-22.7-4-47.7,0-63.8,6.7C87.7,50.9,111.1,42.4,140.6,39.8z"/>
	<path d="M113.3,59c3.4-0.3,4.7,1.8,3.8,4.3c-2.6-0.5-2.6,3.5-4.8,1.9c0.5-1.7,1.6-2.8,3.4-3.4C115.5,60.4,112.5,61.5,113.3,59z"/>
	<path d="M124.3,59.5c2.1,0,3.2,1,4.8,1.4c0.4,3.6-2.4,4-4.3,5.3c-1,3.2-3.5,4.8-6.2,6.2c-0.8,2.4-2.1,4.3-4.8,4.8
		c-0.2-2.8,2.1-3,2.9-4.8c-1-1.2-2.8-1.7-3.4-3.4c2-1,3.5,0.5,4.3,1.9c1.5-1.4,2.7-3.1,4.8-3.8c-0.4-1.6-2.4-1.5-3.4-2.4
		c1-2.6,4,0.2,4.8,1c0.5-1.6,1.9-2.2,2.9-3.4C127.1,60.3,123.6,62,124.3,59.5z"/>
	<path d="M136.3,61.9c1.8,0.1,3.1,0.8,3.8,1.9c-0.2,2.1-1.3,3.2-3.4,3.4C138.4,64.7,137,64.3,136.3,61.9z"/>
	
		<linearGradient id="SVGID_1_" gradientUnits="userSpaceOnUse" x1="76.7804" y1="214.7635" x2="78.713" y2="214.7635" gradientTransform="matrix(1 0 0 -1 0 279)">
		<stop  offset="0" style="stop-color:#FFFF00"/>
		<stop  offset="1" style="stop-color:#FBC9BF"/>
	</linearGradient>
	<path fill="url(#SVGID_1_)" d="M78.7,63.4c0,1.3-1.1,2.3-1.9,1.4C76.6,63.5,77.8,63.6,78.7,63.4z"/>
	<path d="M85,63.4c2,0,2.9,1.3,3.4,2.9c-0.3,2.1-3.1,1.7-3.4,3.8c-0.6,0-1.3,0-1.9,0C82.6,66.4,87.8,66.7,85,63.4z"/>
	<path d="M96,63.4c6.9-0.2,3.8,7.4-1.4,6.7c-0.1-2.5,2.1-2.7,3.4-3.8C98.2,64.3,95.9,65.1,96,63.4z"/>
	<path d="M108,63.8c2,0.1,3,1.2,3.8,2.4c-0.5,2.5-2.1,4-5.3,3.8C107.1,66.9,110,67.4,108,63.8z"/>
	
		<linearGradient id="SVGID_2_" gradientUnits="userSpaceOnUse" x1="66.715" y1="211.09" x2="75.9226" y2="211.09" gradientTransform="matrix(1 0 0 -1 0 279)">
		<stop  offset="0" style="stop-color:#FFFF00"/>
		<stop  offset="1" style="stop-color:#FBC9BF"/>
	</linearGradient>
	<path fill="url(#SVGID_2_)" d="M75.4,64.8c-0.2,1.2,0.9,1,0.5,2.4c-1.9,1-4.2,1.6-4.8,3.8c-1.7-1.1-3.6-1.8-4.3-3.8
		C70.4,70,71.3,64.5,75.4,64.8z"/>
	<path d="M136.3,67.7c-0.4,2.8-2.4,4-5.3,4.3c-0.2-2.6,2-2.8,3.4-3.8c-0.4-1.6-2.4-1.5-3.4-2.4C132.2,63.3,135.8,66.3,136.3,67.7z"
		/>
	<path d="M143,66.2c2.8-0.4,3.6,1.2,4.8,2.4c-1.1,1.8-1.7,4.1-4.8,3.8c-0.5-2.4,1.9-1.9,2.4-3.4C145.2,67.6,142.3,68.7,143,66.2z"/>
	<path d="M83,72c-1.8,1.5-3.5,5.3-6.2,4.3c0.5-2.2,2.1-3.3,3.8-4.3c-0.1-1.8-2-1.8-1.9-3.8C80.8,67.1,82.4,70.1,83,72z"/>
	<path d="M90.2,67.7c2.9,0.3,3.6,2.8,4.8,4.8c-1.2,2.2-2.5,4.2-5.8,4.3c-0.3-2.9,2.6-2.5,3.4-4.3C92.5,70.2,89.7,70.7,90.2,67.7z"/>
	<path d="M101.3,77.3c-0.1-2.7,1.4-3.7,3.4-4.3c-0.1-2.3-3-1.8-2.4-4.8c2.3,0.5,2.8,2.9,4.8,3.8C105.5,74.1,104.8,77.2,101.3,77.3z"
		/>
	<path d="M125.3,68.2c2.7,0.8,3.9,3.1,5.3,5.3c-3.5,3.7-5.9,8.5-12,9.6c-0.8-3.3,3.4-1.7,3.8-3.8c0.5-2.7-2.5-2-2.9-3.8
		c1.8-2.2,3.2,1.1,4.8,1.9c1.7-0.8,2.4-2.7,3.8-3.8C127.9,70.9,124.8,71.4,125.3,68.2z"/>
	
		<linearGradient id="SVGID_3_" gradientUnits="userSpaceOnUse" x1="59.0868" y1="207.2455" x2="65.274" y2="207.2455" gradientTransform="matrix(1 0 0 -1 0 279)">
		<stop  offset="0" style="stop-color:#FFFF00"/>
		<stop  offset="1" style="stop-color:#FBC9BF"/>
	</linearGradient>
	<path fill="url(#SVGID_3_)" d="M65.3,68.6c-0.6,3.2-4.4,3.2-5.3,6.2C56.8,72.7,62.8,69.7,65.3,68.6z"/>
	<path d="M137.3,69.1c5.5,1,7.3,9.2,0,9.6c-0.1-2.5,2.3-2.5,2.9-4.3C139.9,71.9,136.8,72.3,137.3,69.1z"/>
	<path d="M149.3,78.2c-0.7-2.8,1.4-2.8,2.4-3.8c0.6-2.3-1.9-1.6-1.9-3.4C155.6,69.9,154,77.7,149.3,78.2z"/>
	<path d="M72,73c0.3,0,0.6,0,1,0c2.1,1.1,3.1,3.3,4.3,5.3c-2.6,1.7-3.7,5-8.2,4.8c0.6-2.9,4.5-2.5,5.3-5.3
		C74.2,75.5,71.9,75.4,72,73z"/>
	<path d="M83,83c0.1-3,3.7-2.3,4.3-4.8c-0.4-2.5-3.5-2.3-3.4-5.3c3.1,0.3,3.4,3.4,5.3,4.8C88.4,80.8,86,83.6,83,83z"/>
	<path d="M102.2,78.7c-1.3,2.7-4.3,3.7-7.2,4.8c0.5,3.2-2.3,6-5.8,6.7c-0.3-3.6,3.7-3,3.8-6.2c0-2.5-3.3-1.8-2.9-4.8
		c2.3,0.2,2.7,2.4,4.8,2.9c1-1.4,3-1.8,3.8-3.4c-0.1-2.7-3.5-1.9-3.4-4.8C98.4,73.2,99.9,77.3,102.2,78.7z"/>
	<path d="M107.5,73.9c3,0.2,4,2.4,5.8,3.8c0.2,4.2-3.3,4.7-6.2,5.8c-0.4-3.6,3.7-2.7,4.3-5.3C110.5,76.4,106.9,77.3,107.5,73.9z"/>
	<path d="M143,75.4c3.8-0.1,4.7,2.7,6.2,4.8c-0.8,2.4-2.9,3.5-6.2,3.4c0.1-2.3,2.9-1.9,3.8-3.4C146.7,77.5,143.4,77.9,143,75.4z"/>
	<path d="M125.3,91.2c0-0.8,0-1.6,0-2.4c1.4-0.5,2.3-1.5,3.4-2.4c0.8-3.5-2.6-2.8-2.4-5.8c2.8,0.4,3.5,2.9,5.3,4.3
		c-0.4-2.1,2.2-3,3.8-4.3c-0.1-2.7-3.5-1.9-3.4-4.8c6.1,0.2,6.6,8.2,0.5,8.6c1.6,1.9,2,5.1,4.3,6.2c0.4-2.3,3.2-2.3,3.8-4.3
		c0.3-2.7-3-1.8-2.4-4.8c4.3,3.2,8.2,6.9,11,11.5c-0.7,2.5-3,3.3-5.3,4.3c0.7,2.9-3,4.8-5.8,5.8c-1.2,3-3.9,6.9-7.2,6.2
		c0.3-3.2,3.8-3.2,4.8-5.8c-1.2-1.6-3.5-1.9-3.8-4.3c3.3-0.6,3.1,2.4,5.3,2.9c1.5-1.4,3.7-2,4.8-3.8c-0.2-2.4-3.1-2-2.9-4.8
		c2.3,0.1,2.7,2.1,4.3,2.9c0.7-1.7,2.6-2.2,3.4-3.8c-0.4-2.5-3.9-1.8-3.8-4.8c-5.3,1.6-5.5,8.2-11.5,9.1c-1.1,3.1-2.6,5.8-6.2,6.2
		c-0.2-3.1,2.5-3.3,3.4-5.3c-0.3-2.3-2.8-2.3-2.9-4.8c2.3,0.1,2.9,1.9,4.3,2.9c2.2-0.7,3.6-2.1,5.3-3.4c-1.1-2.1-2.3-4.1-4.3-5.3
		C128.1,87.7,128.6,91.3,125.3,91.2z"/>
	<path d="M176.1,78.7c2.5,0.2,3.2,2.2,5.3,2.9c0,1.9-1.4,2.4-3.4,2.4C179.7,80.8,175.9,81.7,176.1,78.7z"/>
	<path d="M101.3,90.2c-0.5-3.3,2.8-2.7,3.4-4.8c0.3-2.9-3-2.1-2.4-5.3c2.8,1,4.5,3.2,5.3,6.2C104.1,84.8,105,90.7,101.3,90.2z"/>
	<path d="M119,97c-0.3-3.2,2.5-3.3,4.3-4.3c-0.9-3.2-3.9-4.4-5.8-6.7c-2,1.2-1.7,4.7-4.3,5.3c-0.2-0.4-0.4-0.9-1-1
		c1.6-1.8,2-4.7,4.8-5.3c-0.7-2-3.3-2.2-3.4-4.8c5,2.9,8.2,7.5,11.5,12C123.8,94.4,122.8,97,119,97z"/>
	<path d="M173.3,82.1c0.3,0,0.6,0,1,0c2.2,0.3,2.5,2.6,3.4,4.3c0.2,1-0.7,0.9-1.4,1c-0.1,4.4-4.7,8-10.1,8.6
		c0.3-2.6,3.7-2.1,4.3-4.3c0.3-2.2-2.6-1.3-2.4-3.4c2.2,0.4,3.9,1.3,4.8,2.9c0.9-1.8,3-2.5,2.9-5.3
		C175.7,83.8,173.3,84.1,173.3,82.1z"/>
	<path d="M183.8,85.9c1.6-0.4,2.5,4.4,0,4.3C184.6,87.8,183.2,87.4,183.8,85.9z"/>
	<path d="M97,96c-0.6,0-1.3,0-1.9,0c-0.4-3.3,2.6-3.1,3.8-4.8c0.3-2.3-3.1-2.7-1.9-4.3c2.2,0.6,3.3,2.4,4.3,4.3
		C101,93.9,97.5,93.5,97,96z"/>
	<path d="M113.3,91.2c-1.3,2.2-2.5,4.6-5.8,4.8c-1.3,3-2.8,5.8-6.2,6.7c-1.1-2.4,2.8-3.4,3.4-5.8c0-2.2-2.7-1.7-2.4-4.3
		c2,0.1,2.4,1.7,3.8,2.4c1.4-1.1,2.8-2.4,4.8-2.9c-0.2-2.7-3.6-2.1-3.4-5.3C110.5,87.2,111.2,89.9,113.3,91.2z"/>
	<path d="M179,88.3c5.9,0.5,4.7,8.3-1,8.2c0-2.4,1.9-2.9,3.4-3.8C181.4,90.4,178.2,91.3,179,88.3z"/>
	
		<linearGradient id="SVGID_4_" gradientUnits="userSpaceOnUse" x1="74.394" y1="188.5042" x2="76.314" y2="188.5042" gradientTransform="matrix(1 0 0 -1 0 279)">
		<stop  offset="0" style="stop-color:#FFFF00"/>
		<stop  offset="1" style="stop-color:#FBC9BF"/>
	</linearGradient>
	<path fill="url(#SVGID_4_)" d="M75.4,89.8c0.4,0.1,0.5,0.5,1,0.5c0,0.3,0,0.6,0,1c-1,0.2-1.3-0.3-1.9-0.5
		C74.5,90.2,75.3,90.4,75.4,89.8z"/>
	<path d="M113.3,92.2c3.2,0.5,3.7,3.7,5.8,5.3c-0.6,1.8-1.1,3.7-2.9,5.3c-0.6,0.5-2,0.5-2.4,1c-0.3,0.4,0.3,1.6,0,1.9
		c-1.5,1.6-3.7,3.1-6.2,3.4c-0.1-2.9,3.2-2.6,3.8-4.8c-0.7-2.2-5.3-3-3.4-6.2c2.3,0.8,2.8,3.2,4.8,4.3c1.3-1.3,3.2-1.9,3.8-3.8
		C116.6,95.3,113.4,95.2,113.3,92.2z"/>
	<path d="M87.4,103.2c0.5-3.3,4-3.7,5.3-6.2c0-2.2-2.7-1.7-2.4-4.3C98.1,94.3,93.8,102.8,87.4,103.2z"/>
	<path d="M174.2,94.1c1.9,0.5,2.7,2.1,3.8,3.4c-1.1,2.8-2.8,4.9-5.8,5.8c0.1-2.9,2.7-3.4,3.4-5.8C175.8,95.6,173.7,96.2,174.2,94.1z
		"/>
	<path d="M185.7,94.1c2-0.2,1.9,1.6,2.9,2.4c-0.5,3.3-1,6.7-4.8,6.7c-0.5,3.7-2.4,5.9-5.8,6.7c-0.2,1.5,1.5,1.1,1,2.9
		c-1.2,3.4-5.7,3.6-6.2,7.7c-1.5,0.6-2.2,1.9-4.8,1.4c-0.1-2.5,2.7-2.1,3.4-3.8c0.3-3.4-3.9-2.2-3.4-5.8c2.6,0.2,3.3,2.4,4.8,3.8
		c1.7-1,3.3-2.2,4.3-3.8c-0.8-2.1-3-2.8-3.4-5.3c2.1,0,2.8,1.4,3.8,2.4c0.7-2.6,3.8-2.9,4.3-5.8c0.1-2.3-3.6-0.9-2.9-3.8
		c2.9-0.3,3.6,1.6,4.8,2.9C185.9,100.4,187.4,97.6,185.7,94.1z"/>
	<path d="M96.5,98.4c1.6,1.8,3.3,3.4,4.8,5.3c-1.6,2.3-5,5.2-7.7,4.8c0.3-2.9,3.5-2.9,4.8-4.8c-0.1-1.9-2.1-2.1-2.9-3.4
		C95.2,99,96.5,99.3,96.5,98.4z"/>
	<path d="M35.5,100.8c7.3-1.8,11.1,2.6,12,6.7c1.2,5.7-1.9,11.3-5.8,12.5c-4.1,1.3-10.8-1.3-12.5-5.3
		C26.3,107.5,30.4,102.1,35.5,100.8z M37.4,111.4c2,0.4,2-1.2,1.9-2.9c-0.6,0-1.3,0-1.9,0C37.3,109.6,36.5,110.5,37.4,111.4z"/>
	<path d="M155,121c0.3-2.5,3.1-2.3,3.8-4.3c0.1-1.9-2.1-1.5-1.9-3.4c2-0.4,2.4,0.8,2.9,1.9c2.1-0.7,2.9-2.5,4.8-3.4
		c0.5-3.4-3.1-2.7-2.9-5.8c2.5-0.1,2.5,2.3,4.3,2.9c1.1-1.8,4.2-2,4.3-3.4c0.1-1.9-4.1-1.5-3.4-4.8c2.9,0.6,4.6,2.4,5.8,4.8
		c-4.5,5.5-10.3,9.9-14.9,15.4C156.4,121.5,156.8,121,155,121z"/>
	<path d="M191,101.3c2.2-0.4,2.1,1.4,3.4,1.9c-0.1,3.6-1.3,6.1-4.3,6.7C190.8,106.4,192.9,105,191,101.3z"/>
	<path fill="#FDCA90" d="M268.8,103.7c0.4,0.2,0.9,0.4,1,1c0,3.2-1.2,5.2-1.4,8.2c-6.9,10.7-13.4,21.8-25.4,27.4
		c-1.1,0.2,0.1,3-1.4,1.4c-1.7-1.7,3-3.3,4.3-4.8C253.9,127.6,256.5,109.8,268.8,103.7z"/>
	<path d="M186.2,106.1c4.5,0.7,4.1,8.7,0,9.6c-1.5-2.1,1.7-2.9,1.4-5.3C188.1,108.1,185.6,108.7,186.2,106.1z"/>
	<path d="M195.3,115.2c0.8-3.7,2.9-5.8,0.5-9.1C201.2,106.3,199.2,114.7,195.3,115.2z"/>
	<path d="M156,110.9c-1.1,1.9-3.8,4.3-6.2,3.4c0.6-1.8,2.7-2.1,3.8-3.4c-0.3-1.8-2.4-1.8-1.9-4.3C153.9,107.2,155,109,156,110.9z"/>
	<path fill="#FFFFFF" d="M37.4,108.5c0.6,0,1.3,0,1.9,0c0.1,1.7,0.1,3.3-1.9,2.9C36.5,110.5,37.3,109.6,37.4,108.5z"/>
	<path d="M137.7,116.2c-0.9,2.7-2.4,6-5.8,4.8c0.6-2,3.1-2,3.4-4.3c-0.1-2.5-3.1-2.1-3.4-4.3C134.4,111.4,136.3,114.6,137.7,116.2z"
		/>
	<path d="M145.4,112.3c2.6,0.2,2.8,2.7,4.3,3.8c-0.9,2.6-3.3,5.9-6.2,4.8c0.1-2.8,3.2-2.6,3.8-4.8
		C147.2,114.3,144.9,114.8,145.4,112.3z"/>
	<path d="M150.2,153.1c0.3-2.6,3.3-2.4,3.8-4.8c0.4-3.1-3.4-2.1-2.9-5.3c2.8-0.5,2.9,3.3,4.3,3.4c1.9,0,1.9-3,4.3-3.8
		c-0.7-2.4-3-3.1-3.8-5.3c5.7,0.8,6.8,6.4,10.6,9.1c1.5-1.7,3.3-3.1,5.3-4.3c-0.3-2.3-2.8-2.3-2.9-4.8c2.4-0.5,2.4,1.4,3.8,1.9
		c1.8-0.7,3.1-2,4.3-3.4c0.4-2.6-2.6-1.9-1.9-4.8c1.9,0.1,1.9,1.9,3.4,2.4c1.1-1.3,3.2-1.6,4.3-2.9c0.4-2.9-3-2.1-2.9-4.8
		c-2.5,0.4-2.6,3.1-5.8,2.9c0.2-2.2,1.6-3.2,3.4-3.8c-0.4-2.5-2.6-3.1-2.9-5.8c2.4,0,2.9,1.9,3.8,3.4c2.1-0.8,3.4-2.4,4.8-3.8
		c-0.2-2.7-3.7-2.1-3.4-5.3c3.4,0.2,3.7,3.3,5.8,4.8c-0.9,3.4-3.7,4.9-6.2,6.7c2.2-0.3,3.3,2.6,5.3,3.8c0.7-1.9,2.4-2.8,3.4-4.3
		c-0.4-1.7-1.4-2.7-1.9-4.3c3-0.3,2.8,2.6,4.3,3.8c-1.1,2.4-2.6,4.4-5.3,5.3c-0.2,3.3-2.5,4.5-5.3,5.3c-1.1,2.6-3.4,6.4-6.2,5.8
		c0,4.3-2.5,6.1-6.2,6.7c0,3.9-3,4.7-5.3,6.2c-0.4-3,2.2-2.9,2.9-4.8c-0.4-2-1.7-3.1-2.9-4.3C156.5,145.3,156.8,152.7,150.2,153.1z"
		/>
	<path d="M190.1,121.9c1-1.9,1.8-4,3.4-5.3c0.3-2-2.6-0.9-1.9-3.4C198.3,112.9,194,123.5,190.1,121.9z"/>
	<path d="M149.3,127.7c-0.5-3.4,3.2-2.6,3.8-4.8c0.2-3-3.1-2.3-2.9-5.3C156.8,118.8,156.3,127.3,149.3,127.7z"/>
	<path d="M100.3,118.1c2.6,1.2,4.9,2.7,5.8,5.8c-1.5,2-3,4.1-5.8,4.8c-0.1-3,3.1-2.7,3.4-5.3C103.3,120.9,99.8,121.5,100.3,118.1z"
		/>
	<path d="M196.8,118.1c5,0.7,2.6,9.6-1.4,9.6C196.2,124.4,199.1,121.8,196.8,118.1z"/>
	<path d="M168,123.4c-1.1,2.4-2.8,4.2-5.8,4.8c-0.3-2.8,2.7-2.4,3.4-4.3c0.5-3-2.7-2.4-2.9-4.8C165.2,118,166.7,121.6,168,123.4z"/>
	<path d="M216,120c-1,1.1-1.9,2.3-3.4,2.9C212.1,120.4,214.7,117.6,216,120z"/>
	<path d="M201.1,173.3c0.6,0,1.3,0,1.9,0c1.2-1.1,1.5-3.3,3.4-3.8c-1.2-5.9,5.7-6,3.8-11c-3.5,3.7-5.1,9.3-9.1,12.5
		c-0.7-4,2.8-3.9,1.9-8.2c0.8,0,1.2,0.4,1.4,1c3.3-3.3,3.3-9.8,7.7-12c0.3-1-0.6-3.2,0.5-3.4c4.1,1.4-1.5,6.9-2.9,7.7
		c0.1,0.9,0.3,1.6,1,1.9c3.2-2.4,5.2-6,5.8-11c-0.6-1.9-1,0.1-2.4,0c0.1-3.5,5.2-8.5,0.5-11c0.9-1.1,1.9-1.9,1.4-4.3
		c-2-0.1-1.6,2.2-3.4,2.4c1.9,2.8-0.5,7.6-3.8,8.2c0.3-2.9,3-3.4,2.4-7.2c1.7-3.5,4.1-6.1,3.8-11.5c3.1,0.7,2.1,4.9,2.4,7.7
		c1,8.6,2.4,21.5-1.4,27.8c-1.6,0.5-0.7-1.5-1-2.4c-3.9,1.7-2,9.2-7.2,9.6c-0.2,1.2,0.9,1,0.5,2.4c0.7,0.9,2.8,0.4,2.9,1.9
		c-0.3,3.1-2.2,4.5-4.8,5.3c0.3-2.6,2.6-3.1,2.9-5.8c-4.7,2.5-5.3,9.1-10.6,11c0-2.9,2.2-3.6,3.4-5.3
		C202.4,174.2,200.7,174.7,201.1,173.3z"/>
	<path d="M118.1,133.9c0.7-2.5,3-3.4,5.3-4.3c-0.3-2.4-1.8-3.6-3.8-4.3c-0.1-0.6,0.1-0.9,0.5-1C126.6,124.7,126.6,133.7,118.1,133.9
		z"/>
	<path d="M144,123.8c3,0.4,3.8,3,5.3,4.8c-0.6,3-3.2,4.2-5.8,5.3c0.2,4.1-3.2,7-6.2,6.2c0.4-2.8,3.4-3,4.3-5.3
		c-0.3-2.5-3.6-2.1-3.8-4.8c2.7-0.3,3.2,1.6,4.8,2.4c1.1-1.6,4.2-1.3,4.8-3.4C147,126.6,143.8,126.9,144,123.8z"/>
	<path d="M95,124.3c2.6,0.6,3.7,2.7,4.8,4.8c-0.6,2.9-4.2,2.7-5.8,4.8c-1.3,1.9-1.8,5.7-5.8,5.3c0.7-3.1,4.7-3.3,2.9-7.7
		c2.5,2,4.2-1.2,6.2-2.4C97.6,126.5,94.3,127.5,95,124.3z"/>
	<path d="M155.5,134.4c0.3-2.7,3.1-3,4.3-4.8c-0.3-2.7-3.6-2.5-3.8-5.3c3.4,0.2,4.4,2.9,6.2,4.8C161,131.6,158.4,135.1,155.5,134.4z
		"/>
	<path fill="#FDCA90" d="M264.5,124.3c0.1,6.3-4.3,12.4-8.2,16.3c3.4,5.1,7.7,9.3,7.7,17.8c-5.1-5.7-8.9-12.9-16.3-16.3
		C253.5,136.4,260.1,131.5,264.5,124.3z"/>
	<path d="M101.3,151.2c0.3-1.9,2.1-2.4,2.9-3.8c-0.3-2.4-3.1-2.3-2.9-5.3c1.9,0.5,2.7,2.1,3.8,3.4c1.9-0.6,2.9-2.2,4.3-3.4
		c-0.8-1.9-3-2.4-3.4-4.8c-2.4,0.5-2.5,3.2-5.8,2.9c0.1,2.1-2.2,4.9-5.3,5.3c-2,1.7-2.2,5.2-5.8,5.3c-0.4-2.9,2.5-2.7,2.9-4.8
		c0.5-2.7-2.7-1.8-2.4-4.3c2.7-0.5,2.7,1.8,4.3,2.4c1.8-0.3,2.3-1.8,3.8-2.4c-0.4-2.3-3.2-2.3-2.9-5.3c2.9-0.2,2.8,2.7,4.8,3.4
		c0.7-1.8,3.2-2,3.8-3.8c-0.4-2.3-2.9-2.5-2.4-5.8c2.5,0.4,2,3.8,4.3,4.3c0.7-2.2,2.8-3,4.3-4.3c0.4-2.9-3.4-1.7-2.9-4.8
		c2.5,1.2,5.2,2.2,5.3,4.3c0.1,3.3-4.6,3.7-6.2,6.2c1.8,2.5,5.9,2.7,5.8,7.2c-1.8,1.2-2.7,3.4-5.8,3.4
		C106.7,148.7,104.6,151.4,101.3,151.2z"/>
	<path d="M169.4,125.3c2.8,0.4,3.8,2.6,4.8,4.8c-1.3,2.1-3.1,5.6-6.2,4.3c0.2-2.6,2.9-2.5,3.8-4.3
		C171.6,127.9,169.3,127.8,169.4,125.3z"/>
	<path d="M191,125.3c5.3,0.8,5.4,8.4-0.5,8.6c-0.8,3.1-2.7,5-5.3,6.2c-0.8-3,1.8-2.7,2.4-4.3c0.6-2.7-2.1-2.1-1.4-4.8
		c1.9,0.1,1.9,1.9,3.4,2.4c0.5-1.7,2.1-2.4,3.4-3.4C193.1,127.7,190.4,128.1,191,125.3z"/>
	<path fill="#FBC9BF" d="M2.9,129.1c3,2.3,4.1,6.5,6.2,9.6c-1.7,3.4-3.4,6.9-5.8,9.6c-0.2-4.5,2.6-6.1,3.8-9.1
		C6.8,135,2.2,132.7,2.9,129.1z"/>
	<path d="M126.2,130.5c2.2,1,4.4,2,4.8,4.8c-1.9,1.7-3.9,5.5-6.7,4.8c0.2-3,3.5-2.9,4.3-5.3C128.7,132.5,125.4,133.6,126.2,130.5z"
		/>
	<path d="M150.7,141.1c-0.4,0.6-0.6,1.3-0.5,2.4c-5.5,1.9-5.5,9.3-12,10.1c0.2-3.2,3.5-3.2,4.3-5.8c-0.8-2-3.8-2-3.8-4.8
		c2.5,0,3.1,2,4.8,2.9c1.3-1.4,3-2.4,4.8-3.4c-0.7-2.8-3.2-3.9-4.3-6.2c2.6-0.6,2.6,1.5,5.3,1c-0.1,1.1-0.9,2,0,2.9
		c2.3-0.4,2.4-3.1,4.3-3.8c0.1-3.2-3.5-2.6-3.4-5.8C156.2,131.2,157.2,140.3,150.7,141.1z"/>
	<path d="M101.3,163.2c0.3-2.1,2.5-2.3,2.9-4.3c0.2-2.5-2.1-2.3-1.9-4.8c2.3-0.2,2.2,2,3.4,2.9c2.1-0.6,3-2.4,4.8-3.4
		c-0.1-2.8-4-1.8-3.4-5.3c2.8,0,3.2,2.5,4.8,3.8c1.5-0.8,2.6-1.9,3.4-3.4c-0.2-2.5-4-3.5-2.9-5.8c2.2,0.4,2.5,2.6,4.3,3.4
		c1.6-1.4,3.2-2.8,5.3-3.8c-0.7-2.2-3.8-2-3.8-4.8c-2.7,0.3-2.3,3.8-5.8,3.4c-0.4-3.4,3-3.1,3.8-5.3c-0.9-1.8-3.1-2.3-3.4-4.8
		c2.2,0.8,4.7,2.6,5.8,4.3c0.1,0.2-0.7,0.7-0.5,1c1.7,2.1,4.3,3.1,6.2,5.8c-1.2,4.1-6.8,3.7-7.2,8.6c-4,1.7-5.7,5.8-10.1,7.2
		C105.7,160.2,104.8,163,101.3,163.2z"/>
	<path d="M162.2,141.1c0.5-2.2,1.9-3.5,3.4-4.8c0.4-3.1-2.8-2.7-2.9-5.3c2.8,0.6,4.1,2.6,5.3,4.8
		C166.9,138.4,165.6,140.8,162.2,141.1z"/>
	<path d="M196.3,131.5c5.3,0.5,2.4,8.4-1.9,7.7c0,3.7-2.6,4.8-5.3,5.8c-0.6-3,2.3-2.5,2.9-4.3c0.5-1.9-1.4-1.4-1-3.4
		c1.8-0.3,2.6,0.3,3.4,1C196.9,137,197.9,134.3,196.3,131.5z"/>
	<path d="M132,136.3c3,0.6,4.2,2.9,5.3,5.3c-1.3,2.2-2.8,4.2-6.2,4.3c-0.2-2.9,3.4-2,3.8-4.3C134.7,139,131.6,139.4,132,136.3z"/>
	<path d="M200.1,136.3c5.4,0.6-0.2,6.7-2.9,6.7C197.6,140.2,201.4,139.2,200.1,136.3z"/>
	<path d="M173.3,152.6c0.2-2.5,2.1-3.3,3.4-4.8c0-2.4-2.9-1.9-2.4-4.8c1.9,0.2,2.1,2.1,3.8,2.4c0.6-2.2,3.8-2,4.8-3.8
		c-0.2-2.2-2.5-2.3-2.9-4.3c6.3-1.4,5.9,9.9-1.4,8.6C179.7,149.4,176.3,151.7,173.3,152.6z"/>
	<path d="M214.1,137.7c0.6-0.1,0.9,0.1,1,0.5c0.7,2.2-1.1,5.8-3.8,6.2C211.6,141.7,213.7,140.5,214.1,137.7z"/>
	<path d="M192,148.3c0.2-2.2,2.3-2.5,3.4-3.8c0.4-1.5-1.3-0.9-1-2.4C199.4,142.2,195.7,149.5,192,148.3z"/>
	<path d="M185.3,142.5c1.8,0.3,2.4,1.8,3.4,2.9c-0.7,2.6-2.3,6.5-5.3,5.3c0.1-2.5,2.3-2.9,2.9-4.8
		C186.4,144.2,183.8,144.1,185.3,142.5z"/>
	<path d="M206.4,142.5c1.4-0.4,1.2,0.7,2.4,0.5c-0.8,3.4-1.4,6.9-4.8,7.7C203.7,146.8,208.1,146.5,206.4,142.5z"/>
	<path d="M124.3,143c3.4,0.8,5,3.3,6.7,5.8c-1.7,2.1-3.2,4.4-6.2,5.3c-1.7,1.7-2.4,4.3-5.8,4.3c-0.2-2.8,2.8-2.3,3.4-4.3
		c-1.1-1.5-4.1-1.1-3.8-3.8c2.2-1.2,4.2,1.4,5.3,2.9c1.3-1.4,3.1-2.4,4.3-3.8C128.3,145.7,124.6,146.1,124.3,143z"/>
	<path fill="#FDCA90" d="M245.3,144c5,2.5,8.6,6.2,12,10.6c2.1,2.8,4.1,7.3,6.7,10.6c2.1,2.7,3.9,7.1,4.8,12
		C255.7,171.3,254.1,154.1,245.3,144z"/>
	<path d="M198.2,144.5c4.9,2.6-0.2,6.8-2.4,9.1c1.7,3,6.8-0.7,5.3-3.8c5.5,0.9-0.3,5.6-1.9,6.7c-0.6,2.5,2.4,1.4,2.4,3.4
		c1.5-6.2,7.2-8.2,8.2-14.9c1.9-0.6,1.2,1.3,1.9,1.9c-0.4,4.1-4.5,4.4-4.8,8.6c-5.2,1.8-3.5,10.6-9.6,11.5c0-2.7,1.9-3.5,3.4-4.8
		c0.2-1.8-1.9-1.3-1.4-3.4c-2.2,1.4-1.9,5.1-5.3,5.3c-0.9,3.2-3.4,7.1-6.2,6.7c0.7-2.2,2.2-3.6,3.8-4.8c-0.2-1.1-0.8-1.8-0.5-3.4
		c4.2,1.8,4.5-3.6,6.2-5.8c0-1-1.3-0.6-1-1.9c-2.7,0.7-2.9,3.9-6.2,3.8c-0.2-3.1,2.3-3.4,3.8-4.8c0-1.4-1.8-2-0.5-3.4
		C196.7,153.2,198.3,147.1,198.2,144.5z"/>
	<path d="M95,156.9c-0.3-3,3.3-2.2,3.8-4.3c-0.3-2.6-3.4-2.4-2.9-5.8C102.2,148.7,102.3,156.2,95,156.9z"/>
	<path d="M192.5,151.7c-2.1,0.7-2.8,2.9-5.3,3.4c-0.4-3,2.2-2.9,2.9-4.8c0-1.5-1.5-1.4-1-3.4C192,146.7,192.2,149.2,192.5,151.7z"/>
	<path d="M84.5,147.3c1.7,1.5,3.3,3.1,4.3,5.3c-1,2.3-2.6,4.1-5.8,4.3c-0.5-3.1,3-2.1,3.4-4.3C86.3,150.5,82.5,150.1,84.5,147.3z"/>
	<path d="M179,148.3c4.3,1,4.9,5.6,8.2,7.7c-1.3,2.5-1.7,5.9-5.8,5.8c0.1-2.8,2.3-3.4,3.4-5.3c0-1.5-1-1.9-1.4-2.9
		c-2.6,0.8-3.4,3.3-6.7,3.4c0.2-2.7,2.3-3.5,4.3-4.3c0.1-1.3-0.7-1.6-1.9-1.4C179,150.2,179,149.3,179,148.3z"/>
	<path d="M156,150.2c1.4,0.4,1.2-0.7,2.4-0.5c0.5,2.2,2.8,2.6,3.8,4.3c-1.1,2.5-4.2,5.3-6.2,5.3c0-0.5,0-1,0-1.4
		c0.4-1.9,3-1.5,3.4-3.4C159.1,152.2,156.5,152.2,156,150.2z"/>
	<path d="M168,149.7c2.4-0.9,3.5,2.6,4.8,4.3c3.7,4.8,5.9,6.6-0.5,10.1c-0.5-2.7,1.8-2.7,2.4-4.3c0.2-1.9-1.3-2.2-1.9-3.4
		c-2.7,0.5-3.9,2.5-5.8,3.8c4.1,3.3,13.5,11,3.8,14.4c-1.2-2,2-2.9,2.4-4.8c0.5-2.1-1.6-1.6-1.4-3.4c-3,0-2.7,3.4-5.8,3.4
		c-1-1.9,1.7-3.6,3.4-4.3c0-1.9-2.3-1.5-2.4-3.4c-2,0.9-2.7,4.5-5.8,2.9c0.4-2.4,3.2-2.3,3.8-4.3c0.4-2.9-2.6-2.6-2.4-5.3
		c2.6-0.4,2,2.4,3.8,2.9c0.7-2.1,2.6-2.8,4.3-3.8C171,151.9,167.8,152.5,168,149.7z"/>
	<path d="M131,150.2c4-0.1,4.6,3.1,6.7,4.8c-0.9,2.6-3.4,3.6-4.3,6.2c-4.2,0.1-3.8,4.8-8.2,4.8c-0.3-2.5,2.5-2,2.9-3.8
		c-0.4-2.6-4.1-4-2.9-6.7c2.7,0.8,3,4,5.3,5.3c0.7-2.7,3.1-3.6,4.8-5.3C135,152.7,131.6,152.9,131,150.2z"/>
	<path d="M145.4,150.2c2.2,1,3.8,2.6,4.8,4.8c-2.7,1.5-4.1,4.2-7.2,5.3c-0.4-3.8,2.7-4,4.8-5.3C147.7,152.7,144.8,153.2,145.4,150.2
		z"/>
	
		<linearGradient id="SVGID_5_" gradientUnits="userSpaceOnUse" x1="74.5767" y1="120.8525" x2="80.153" y2="120.8525" gradientTransform="matrix(1 0 0 -1 0 279)">
		<stop  offset="0" style="stop-color:#FFFF00"/>
		<stop  offset="1" style="stop-color:#FBC9BF"/>
	</linearGradient>
	<path fill="url(#SVGID_5_)" d="M76.8,154.1c0.9,1.7,2.9,2.2,3.4,4.3c-1.8,1.1-1.9,3.8-4.8,3.8C73.3,160.1,75.9,156.2,76.8,154.1z"
		/>
	<path d="M89.3,154.1c7,0.5,5.9,9.3-0.5,9.6c-0.7,3.3-3,5-5.8,6.2c-2-3.4,3.3-2.5,3.4-5.3c-0.1-2-2.6-1.5-2.9-3.4
		c1.9-1.5,3.4,1.4,4.3,2.4c0.9-2.3,4.1-2.3,4.3-5.3C92,156.1,88.8,156.9,89.3,154.1z"/>
	<path d="M113.3,155c6.5,0.5,6.3,9.1,0,9.6c-0.2-2.8,2.7-2.4,2.9-4.8C116.5,156.9,112.8,158.1,113.3,155z"/>
	<path d="M150.2,156c6.9,1.3,4.7,9.2-1,10.1c-1.6-3,2.7-3,3.4-5.3C152.2,158.8,150.7,157.9,150.2,156z"/>
	<path d="M137.7,156.9c3.4,0.6,4.5,3.5,5.8,6.2c3.1,0.1,4.1,2.3,5.3,4.3c-2,1.7-3.4,3.9-6.2,4.8c0.3,3.7-2.5,4.2-5.3,4.8
		c2.5-3.8,3.2-3.2,0-7.7c-2.8,0.1-1.9,3.9-5.3,3.4c-1.5-2.6,2.3-2.4,2.9-4.3c0.4-3.1-3.4-2.1-2.9-5.3c2.7,0,2.8,2.6,4.8,3.4
		c1.3-1.4,2.3-3.1,4.3-3.8C140.4,160.3,137.9,159.8,137.7,156.9z M137.3,168c2.1,0.8,2.9,2.8,4.8,3.8c0.5-2.4,2.9-2.9,4.3-4.3
		C144.4,161.6,140.3,165.3,137.3,168z"/>
	<path d="M180,173.7c0.2,3.2-2.4,5.8-4.8,4.8c0-2.2,2.3-2.2,2.9-3.8c-0.1-2-2.8-1.3-1.9-4.3c2.1-0.1,1.9,2,3.4,2.4
		c1.5-1,2.6-2.5,3.4-4.3c-0.1-0.6-0.9-0.4-1.4-0.5c0-1.1,0-2.2,0-3.4c1.4,0.9,2.4-0.6,2.9,1c1.2-1.4,2.3-2.9,3.8-3.8
		c-0.3-1.4-1.4-2.1-1-4.3c5.1,1.5,2.1,9-2.9,8.6C186.2,169.5,183.9,173.3,180,173.7z"/>
	<path d="M107,160.3c3.2,0.5,4.8,2.6,5.8,5.3c-1.3,2.1-2.6,4.1-5.8,4.3c-0.4-3,2.2-2.9,3.4-4.3C110.2,162.9,106.6,163.6,107,160.3z"
		/>
	<path d="M177.1,160.3c2.4,0,2.7,2.1,4.3,2.9c-1.9,1.6-2.2,4.8-5.8,4.8c0-2.4,2.1-2.7,2.9-4.3C178.7,161.9,176.6,162.4,177.1,160.3z
		"/>
	<path d="M96,160.8c3.1,0.1,4.1,2.3,5.3,4.3c-2.4,1.1-3.4,3.7-6.7,3.8c-0.3-2.8,2.7-2.4,3.4-4.3C98.2,162.4,95.5,163.2,96,160.8z"/>
	<path d="M119,161.7c3.1,0.2,4.1,2.6,5.8,4.3c-0.9,2.7-2.3,4.8-5.8,4.8c-0.1-2.6,3.1-2,3.4-4.3C122.5,163.8,118.3,165.2,119,161.7z"
		/>
	<path d="M213.1,161.7c1.2,0.1,2.3,0.3,2.9,1c-2,1.9-2.8,4.9-5.8,5.8C210.5,165.6,212.8,164.7,213.1,161.7z"/>
	<path d="M156,162.2c2.8,0.4,3.6,2.8,5.3,4.3c-1.4,2.1-3.7,5.5-6.7,4.3c0.3-2.4,2.9-2.5,4.3-3.8C158.9,164.5,155.5,165.3,156,162.2z
		"/>
	
		<linearGradient id="SVGID_6_" gradientUnits="userSpaceOnUse" x1="72.4269" y1="114.6231" x2="74.8771" y2="114.6231" gradientTransform="matrix(1 0 0 -1 0 279)">
		<stop  offset="0" style="stop-color:#FFFF00"/>
		<stop  offset="1" style="stop-color:#FBC9BF"/>
	</linearGradient>
	<path fill="url(#SVGID_6_)" d="M73.4,162.7c0.8-0.1,0.8,0.5,1.4,0.5c0.1,1.7-1.6,1.6-1.9,2.9C71.2,164.9,74.4,164.6,73.4,162.7z"/>
	
		<linearGradient id="SVGID_7_" gradientUnits="userSpaceOnUse" x1="137.269" y1="110.9116" x2="146.388" y2="110.9116" gradientTransform="matrix(1 0 0 -1 0 279)">
		<stop  offset="0" style="stop-color:#FFFF00"/>
		<stop  offset="1" style="stop-color:#FBC9BF"/>
	</linearGradient>
	<path fill="url(#SVGID_7_)" d="M146.4,167.5c-1.4,1.4-3.8,2-4.3,4.3c-1.9-1-2.7-3-4.8-3.8C140.3,165.3,144.4,161.6,146.4,167.5z"/>
	<path d="M18.2,164.6c1.4,0.1,2.3,0.6,1.9,2.4C18.8,166.9,18.1,166.2,18.2,164.6z"/>
	<path d="M77.8,165.6c2.4,1,3.8,2.9,4.8,5.3c-1.3,2.2-2.8,4.2-6.2,4.3c0.5-2.1,2.5-2.7,3.4-4.3C79.8,168.4,77.4,168.3,77.8,165.6z"
		/>
	<path d="M89.3,166.1c3.3,0.2,3.7,3.4,5.3,5.3c-1.1,2.2-3.5,4.8-6.2,3.8c0.6-1.9,3.1-2,3.8-3.8C91.9,168.8,88.8,169.3,89.3,166.1z"
		/>
	<path d="M113.3,166.5c5.4,0.9,7.3,9.5,0,9.6c0.2-2.2,2.7-2.1,2.9-4.3C115.7,169.5,113.2,169.3,113.3,166.5z"/>
	<path d="M184.3,180c1.1-0.1,1.8,0.1,1.9,1c1.4-1.2,2-3.1,3.4-4.3c0-1-1.3-0.6-1-1.9c-1.9,0.3-1.4,3-4.3,2.4c1.3-3,2.1-3.4,1-7.2
		c1.9,0.5,2.8,2,2.9,4.3c1.2-0.1,2.3-0.1,2.9,0.5c2.2-2,5.4-4.6,3.4-8.2c2.1-0.5,2.1,1.1,2.9,1.9c-0.6,3.5-2.4,5.9-5.3,7.2
		c-0.2,1.2,0.9,1,0.5,2.4c-5.2,1.2-4.6,8.2-9.1,10.1C183.2,184.2,186.6,183.5,184.3,180z"/>
	<path d="M23,167c2.2,0,3.2,1.3,3.4,3.4C24.4,170.1,22.9,169.4,23,167z"/>
	<path d="M102.2,167c0.3,0,0.6,0,1,0c2.2,0.4,2.3,2.8,3.4,4.3c-1.1,2.1-2.8,3.6-5.3,4.3c-0.1-2.5,2.3-2.5,2.9-4.3
		C103.8,169.6,102.6,168.8,102.2,167z"/>
	<path d="M161.7,168c2.5,0.1,3,2.1,4.3,3.4c-1.1,2.6-3.4,5.9-6.7,4.8c0.4-2.5,3.8-2,4.3-4.3C163.8,169.8,161.3,170.3,161.7,168z"/>
	<path d="M126.2,168.5c2.7,0.7,3.4,3.3,5.3,4.8c-0.9,2.2-2.4,3.7-5.3,3.8c-0.5-2.4,2.2-1.7,2.4-3.4
		C128.4,171.4,125.9,171.4,126.2,168.5z"/>
	<path d="M148.8,168.5c2.8,0.4,3.9,2.5,5.3,4.3c-1.2,2.4-3.8,5.1-6.7,4.3c0.9-1.6,2.2-2.9,4.3-3.4
		C152.2,170.5,148.5,171.5,148.8,168.5z"/>
	<path d="M29.3,170.9c1.8-0.1,2.3,1.3,2.4,2.9C30,173.7,28.3,172.1,29.3,170.9z"/>
	<path d="M36.5,171.8c0.7-1.3,2.6,0.2,2.4,1.4C37.1,173.8,37.3,172.3,36.5,171.8z"/>
	<path d="M33.6,172.3c0.5,0,1,0,1.4,0c0,0.5,0,1,0,1.4C34,173.8,33.5,173.4,33.6,172.3z"/>
	<path d="M83,172.3c2.9,0.5,4.6,2.1,5.3,4.8c-1.3,1.7-2.9,5.3-5.8,3.8c0-2.6,2.5-2.6,3.4-4.3C85.7,174.4,82.7,175,83,172.3z"/>
	<path d="M95,172.3c6.8,0.6,6.2,9.5-1,9.1c-0.4-3.3,3.8-2,3.8-4.8C97.7,174.5,94.6,175.2,95,172.3z"/>
	<path d="M106.1,181.9c0.5-2.4,2.9-2.9,4.3-4.3c0-2.5-3.2-1.9-3.4-4.3C113.7,172.3,114.3,182.5,106.1,181.9z"/>
	<path d="M166.1,172.8c2.2,0.4,3.7,1.4,4.3,3.4c-1.5,2.2-3,4.4-6.2,4.8c-0.2-2.9,2.2-3.2,3.4-4.8
		C167.7,174.4,165.6,174.9,166.1,172.8z"/>
	<path d="M42.2,173.3c1.6,0.1,2.9,0.6,2.9,2.4C43.3,175.7,42.5,174.7,42.2,173.3z"/>
	<path d="M120,173.3c3.2,0.5,4.5,2.8,5.8,5.3c-1.4,1.6-3.5,5.1-6.7,3.4c1-1.6,3.2-1.9,4.3-3.4C123.2,175.8,119.7,176.5,120,173.3z"
		/>
	<path d="M47,174.2c0.8,0,1.6,0,2.4,0c0,0.6,0,1.3,0,1.9C47.9,176.2,47.4,175.3,47,174.2z"/>
	<path d="M61.4,174.2c0.5,0,1,0,1.4,0c0.1,0.8-0.5,0.8-0.5,1.4c-0.3,0-0.6,0-1,0C61.4,175.2,61.4,174.7,61.4,174.2z"/>
	<path d="M132,174.2c2.6,0.4,3.8,2.3,4.8,4.3c-1,1.9-3,5.3-5.8,3.8c-0.3-2.5,3.2-1.3,3.4-3.4C134.9,176.1,131.2,177.4,132,174.2z"/>
	<path d="M53.3,174.7c1.1,0.2,2.2,0.3,1.9,1.9C53.7,176.8,53.1,176.2,53.3,174.7z"/>
	<path d="M143,174.7c2.2,0.9,4,2.1,4.8,4.3c-0.6,2.3-2.6,3.2-4.8,3.8c-0.6-2.7,1.8-2.4,2.4-3.8C144.6,177.6,142.6,177.3,143,174.7z"
		/>
	<path d="M154.1,174.7c7.5,0.8,4.2,8.3-1.9,8.2c0.4-2.6,3.4-2.7,4.3-4.8C156,176.6,153.6,177.1,154.1,174.7z"/>
	<path d="M57.6,175.2c0.5,0,1,0,1.4,0c0,0.5,0,1,0,1.4C58,176.7,57.5,176.2,57.6,175.2z"/>
	<path d="M180.9,184.8c-0.4-0.4-1.1-0.5-1.9-0.5c0.5-3.7,5-4,2.4-8.2C186.8,177.2,182.7,182.7,180.9,184.8z"/>
	<path d="M171.3,177.1c1.9,0.5,2.7,2.1,3.8,3.4c-0.9,2.8-2.3,5.1-5.8,5.3c-0.1-2.8,2.4-3,3.4-4.8
		C172.8,179.1,170.7,179.5,171.3,177.1z"/>
	<path d="M206.4,177.1c-1.3,2.1-2.1,4.7-5.3,4.8C202.7,180.1,202.5,176.6,206.4,177.1z"/>
	<path d="M76.8,178.1c2.6,0.8,4.1,2.6,4.8,5.3c-1.5,2.2-3,4.4-6.2,4.8c-0.2-2.9,3-2.4,3.4-4.8C78.9,180.7,76.6,180.7,76.8,178.1z"/>
	<path d="M88.8,178.1c6.7,1,5.2,9.7-1,10.1c0-3.1,3-3.1,3.8-5.3C91.6,180.3,88.1,181.4,88.8,178.1z"/>
	<path d="M101.3,178.1c2.2,1,3.3,3.1,4.8,4.8c-0.5,2.8-3.5,5.3-6.2,4.3c0.5-1.9,2.9-1.9,3.8-3.4
		C103.9,180.9,100.4,181.6,101.3,178.1z"/>
	<path d="M114.2,178.5c2.2,1.3,3.6,3.5,4.8,5.8c-0.9,2-3,4.8-5.3,3.8c0.2-2,2.3-2.2,2.9-3.8C116.9,181.5,111.7,180.6,114.2,178.5z"
		/>
	<path d="M126.2,180c2.1,0.6,3,2.4,4.3,3.8c-0.7,2.5-2.2,4.1-5.3,4.3c-0.3-2.5,2.5-2,2.9-3.8C128.1,182.2,125.6,182.7,126.2,180z"/>
	<path d="M137.3,180c2.5,0.3,2.9,2.6,4.8,3.4c0,3.4-2.8,3.9-5.3,4.8c0.1-2,1.7-2.4,2.4-3.8C139.2,182.2,136.6,182.7,137.3,180z"/>
	<path d="M159.3,180c6.3,0.9,3.2,8.2-1.9,8.2c0.4-2.3,2.2-3.2,3.8-4.3C160.8,182.4,158.8,182.4,159.3,180z"/>
	<path d="M147.8,180.9c5.2,0.6,5.4,7.8-0.5,7.7c-0.4-2.1,1.6-2,1.9-3.4C149.2,183.4,147.6,183,147.8,180.9z"/>
	<path d="M175.7,182.4c1.4,0.7,2.3,1.9,3.4,2.9c-1.3,2.2-2.5,4.6-5.8,4.8c0.2-2.2,1.6-3.2,3.4-3.8
		C177,184.3,175.1,184.6,175.7,182.4z"/>
	<path d="M95,184.3c7.4,2.1,4.6,8.4-1.9,9.6c-0.3-3.3,3.4-2.7,4.3-4.8C97.6,186.5,94.3,187.5,95,184.3z"/>
	<path d="M186.2,192c0.1-0.6-0.1-0.9-0.5-1c0.3-2.6,3.8-3.5,1.9-6.7c2.1-0.1,2.4,1.4,3.4,2.4C189.2,188.3,189.2,191.6,186.2,192z"/>
	<path d="M82.1,184.8c3,0.4,4.1,2.6,5.3,4.8c-1,2.5-3.1,3.9-6.2,4.3c0.1-2.6,2.8-2.6,3.8-4.3C84.5,187.5,81.5,187.9,82.1,184.8z"/>
	<path d="M107,185.3c3.8-0.1,4.7,2.7,6.2,4.8c-1.1,2.4-3,4.1-6.2,4.3c0.1-2.3,1.8-3,3.8-3.4C110.7,188,107.4,188.1,107,185.3z"/>
	<path d="M163.2,185.3c2.1,0,3,1.1,3.8,2.4c-0.5,3-2.6,4.5-5.3,5.3c-0.3-2.9,2.7-2.5,2.9-4.8C164.8,186.5,162.5,187.4,163.2,185.3z"
		/>
	<path d="M120,185.7c2.9,0.1,3.5,2.5,4.8,4.3c-1.6,1.8-2.4,4.3-6.2,3.8c0.2-2.2,2.7-2.1,3.8-3.4C122.5,188,119.9,188.2,120,185.7z"
		/>
	<path d="M131.5,186.2c2.7-0.2,3.3,1.8,4.8,2.9c0,3.6-3,4-5.8,4.8c-0.1-2.5,2.4-2.4,3.4-3.8C134,187.9,131.3,188.5,131.5,186.2z"/>
	<path d="M142.1,186.2c3.2,0.2,5.1,1.6,4.8,5.3c-1.7,0.8-3.1,2-5.3,2.4c-0.5-2.9,2.4-2.4,3.4-3.8
		C144.6,188.2,142.1,188.4,142.1,186.2z"/>
	<path d="M153.1,186.7c2.6-0.1,2.8,2.3,4.3,3.4c-1.3,2.1-3.1,3.6-6.2,3.8c-0.2-2.3,1.9-2.3,3.4-2.9
		C154.9,188.7,152.8,188.9,153.1,186.7z"/>
	<path d="M168,189.6c1.8,0.8,3.8,1.4,4.3,3.4c-1.4,2.1-3.8,3.3-6.2,4.3c-1.2-2,2.4-2.9,3.4-4.3C169.7,191.1,167.2,192,168,189.6z"/>
	<path d="M101.3,190.1c2.7,1,3.2,4.2,5.3,5.8c-0.8,2.4-2.4,4-5.3,4.3c-0.6-2.9,2-2.5,2.9-3.8C103.7,193.7,100.4,194,101.3,190.1z"/>
	<path d="M75.8,191.5c5.2,0.3,5.4,7.5-0.5,7.2c0-1.7,1.3-2.2,2.4-2.9C78,193.5,75.7,193.7,75.8,191.5z"/>
	<path d="M92.2,194.4c-0.2,3.6-2.9,4.8-5.8,5.8c-0.6-3.3,3-2.5,3.4-4.8c0.1-1.9-2.1-1.5-1.9-3.4C89.7,190.7,90.6,193.8,92.2,194.4z"
		/>
	<path d="M125.3,191.5c6,1,3.2,9.3-1.4,8.2c0-2.4,2.7-2.1,2.9-4.3C126.7,193.5,124.6,193.9,125.3,191.5z"/>
	<path d="M157.4,191.5c2.3-0.3,2.2,1.9,3.8,2.4c-1.1,2-2.6,5.9-5.8,4.3C157.2,196.2,159.5,194.7,157.4,191.5z"/>
	<path d="M113.3,192c6.5,0.1,4.3,8.3-1,8.2c-0.7-3.1,2.7-2.1,2.9-4.3C115.6,193.5,113.2,194,113.3,192z"/>
	<path d="M136.8,192c2.6-0.1,2.7,2.4,3.8,3.8c-1.2,2-3.1,5.4-5.8,4.3c0.3-2.3,3.1-2,3.4-4.3C138.2,194.1,136.5,194.1,136.8,192z"/>
	<path d="M147.3,192c2.4,0.2,2.9,2.2,3.8,3.8c-1.5,1.2-2.1,3.3-4.8,3.4C147.5,196.3,148.8,195.4,147.3,192z"/>
	<path d="M172.3,194.4c1.5,0,1.9,1,2.9,1.4c0.6,3.9-2.8,6-5.3,5.3c0.7-1.6,2.2-2.3,3.4-3.4C173.3,196.2,172,196.1,172.3,194.4z"/>
	<path d="M71,195.8c3.6,0.9,5.7,7.1,0,7.2C72.2,199.8,71.3,199.5,71,195.8z"/>
	<path d="M93.6,195.8c2.7,1.3,4.2,3.8,5.8,6.2c-1.2,2-3.3,3.1-6.2,3.4c0.2-2.2,2.3-2.5,3.8-3.4C95.8,200,93.2,199.4,93.6,195.8z"/>
	<path d="M161.7,195.8c2.1,0.4,3,2.1,3.8,3.8c-3.6,2.7-7.3,5.2-11.5,7.2c-0.5-2.7,1.7-2.8,3.4-3.4c0-1.2-2.1-0.5-1.4-2.4
		c1.6-0.2,2,0.8,2.9,1.4c1.4-0.7,1.6-2.6,3.8-2.4C163.1,197.9,161.5,197.8,161.7,195.8z"/>
	<path d="M118.1,197.3c2.8,0.2,3.9,2.1,5.3,3.8c-0.9,2.6-3.3,3.7-6.2,4.3c-0.1-2.6,2.4-2.7,3.8-3.8
		C119.7,200.4,118,199.8,118.1,197.3z"/>
	<path d="M130.1,197.3c2.1,1,3.1,3,4.3,4.8c-0.5,2.2-3.9,4.1-6.2,2.9c0.4-1.3,1.8-1.7,3.4-1.9C132,200,128.5,199.9,130.1,197.3z"/>
	<path d="M139.2,204.9c0-0.3,0-0.6,0-1c0.9-1.5,2.7-2.1,3.8-3.4c0-1.6-1.6-1.6-1.4-3.4c2.3,0.5,4.2,1.6,3.8,4.8
		C142.4,202.1,142.3,205.1,139.2,204.9z"/>
	<path d="M152.1,197.3c1.7-0.3,2.5,0.4,2.9,1.4c-0.6,2.8-2.3,4.4-5.8,4.3c0.1-2.3,2.9-1.9,3.8-3.4
		C153.5,198.2,151.8,198.7,152.1,197.3z"/>
	<path d="M106.6,198.2c2.5,0.4,4,1.7,4.8,3.8c-1.1,2.2-3.3,3.4-6.2,3.8c-0.6-2.8,2.7-1.8,2.9-3.8
		C107.9,200.4,106.2,200.3,106.6,198.2z"/>
	<path d="M146.4,202.1c1.6,0.4,2.5,1.3,2.9,2.9c-1.8,1.7-3.8,3.2-6.2,4.3c0-0.8,0-1.6,0-2.4c1.4-0.5,2.8-1,3.8-1.9
		C147.2,203.5,146,203.5,146.4,202.1z"/>
	<path fill="#FBC9BF" d="M48.5,203c5.6,0.2,6,6.9,9.6,11c1.3,1.5,3.4,2.2,4.3,3.4c2.2,2.5,3.7,7.3,6.7,9.6c0.6,0.4,1.4,0,1.9,0.5
		c0.7,0.7,1.1,1.6,1.9,2.4c4.2,4.1,8,8.2,13.4,12.5c8.5,6.6,18,12.7,28.3,18.2c6.7,3.6,13.7,5.3,21.1,8.2c0.6,0.2,0.6,1.2,1,1.4
		c3.6,2,8.6,1.9,13,2.9c3.7,0.8,7.3,1.8,12,2.9c-0.5,1.2-3.8,0.4-5.8,0c-9-1.6-19.6-4.4-27.8-8.2c-5.5-2.5-10.5-3.8-14.9-6.7
		c-0.9-0.3-2,1.4-2.4,0c-6.6-7-17.8-9.4-23.5-17.3c-5.1-2.8-9.1-6.6-13-10.6c-0.8,0-1.6,0-2.4,0C63.8,223.5,55.1,214.3,48.5,203z"/>
	<path d="M87.4,203c2.8-0.1,3.7,1.7,5.3,2.9c-1.2,2.1-2.2,4.5-5.8,4.3c0-2.1,1-3.1,2.9-3.4C89.7,204.8,87.4,205.1,87.4,203z"/>
	<path d="M112.3,203c7.6,1.2,2.7,10.8-2.9,9.1c1.2-2.2,4-2.7,4.8-5.3C114.1,205,111.8,205.5,112.3,203z"/>
	<path d="M132.9,210.2c-0.3-3,2.4-3,3.8-4.3c0.3-1.7-1.7-1.2-1.4-2.9C142.1,203.4,137.4,210.2,132.9,210.2z"/>
	<path d="M97.9,211.2c1.1-1.3,1.8-3,3.8-3.4c0.7-2.6-1.7-2.1-1.9-3.8C105.7,202.4,105,212.9,97.9,211.2z"/>
	<path d="M124.3,203.5c2.2,0.2,2.6,2.2,3.8,3.4c-0.9,2.8-2.9,4.5-6.7,4.3c0.8-1.8,2.9-2.2,3.8-3.8
		C125.1,205.9,123.8,205.6,124.3,203.5z"/>
	<path d="M159.8,204.9c1.1-0.2,1.8,0.1,2.4,0.5c-0.1,3.1-1.6,4.8-4.8,4.8C156.8,206.9,161.7,208,159.8,204.9z"/>
	<path d="M149.3,205.4c2.4,0,3.5,1.3,3.4,3.8c-1.4,1.2-2.4,2.7-5.3,2.4c-0.4-2.3,1.8-2,2.9-2.9C150.7,206.9,148.8,207.3,149.3,205.4
		z"/>
	<path d="M81.1,206.9c2.4,0.5,3,2.7,4.3,4.3c-0.6,1.8-4.1,2.7-5.8,1.9c0.1-1.5,1.7-1.5,2.9-1.9C82.4,209.4,80.4,209.5,81.1,206.9z"
		/>
	<path d="M139.2,206.9c2.5-0.1,3,1.8,3.4,3.8c-1.8,1.3-3.5,2.6-6.2,2.9c-0.2-2.6,2.3-2.5,3.8-3.4
		C140.2,208.7,138.9,208.6,139.2,206.9z"/>
	<path d="M93.1,207.8c2.3,1.3,3.9,3.1,5.3,5.3c-2.3,0.1-3.3,1.5-5.3,1.9c0.1-0.9-0.6-1-0.5-1.9c1.1,0.2,1.8-0.1,2.4-0.5
		C94.9,210.6,92.4,210.8,93.1,207.8z"/>
	<path d="M129.1,207.8c2.2,0.4,2.8,2.3,3.4,4.3c-1.6,1.6-3.6,2.8-6.7,2.9c0.2-2.3,2.9-2.2,4.3-3.4
		C129.3,210.8,128.4,208.7,129.1,207.8z"/>
	<path d="M117.1,209.7c2,0.9,4.4,1.4,4.3,4.3c-3-0.1-4.5,3.4-7.2,1.9c0-2.4,3.4-1.4,4.3-2.9C118.7,211.3,116.6,211.8,117.1,209.7z"
		/>
	<path d="M143,210.7c1.3,0.5,2.7,0.8,2.9,2.4c-1.2,2-3.8,2.6-6.7,2.9c-0.3-2.7,2.9-1.9,4.3-2.9C143.7,211.9,142.6,212.1,143,210.7z"
		/>
	<path d="M133.4,212.6c1.7-0.3,1.2,1.7,2.9,1.4c-0.7,2.7-3.6,3.1-6.2,3.8C129.4,214.3,134.5,216.6,133.4,212.6z"/>
	<path fill="#FBC9BF" d="M69.6,214.1c16.4,7.1,37.5,11.5,61.9,9.1c1.2,6.8,6.6,9.4,7.7,16.3c-24.4-1.8-42.2-10.3-60.5-18.2
		C77.2,217.3,71.9,217.2,69.6,214.1z"/>
	<path d="M122.4,214.1c1.6-0.1,2.3,0.6,2.4,1.9c-1.1,2.8-4.3,3.4-7.7,3.8C116.9,216,123.6,218.9,122.4,214.1z"/>
	<path fill="#FBC9BF" d="M72,226.5c0.1-0.6,0.9-0.4,1.4-0.5c19.8,17.8,44.6,30.6,77.3,35.5c3.1,3.6,8.2,5.3,8.6,11.5
		c-4.6,0.3-9.5-1.2-13.9-2.4c-6.1-1.6-11.4-4-17.8-6.2c-4.4-1.6-9.5-3.1-13-5.3c-1.8-1.2-2.9-2.8-4.8-3.8
		c-5.2-2.8-11.1-5.7-16.3-9.1C86.8,239.3,78.4,233.9,72,226.5z"/>
	<path fill="#FBC9BF" d="M157.4,8.2c0.4,4.1-2,5.4-2.4,8.6c-3.8,2.2-13.4,3.6-19.2,4.8c-6.3,1.3-13.4,1.9-17.3,4.8
		c-15.8,3.7-26.7,12.4-39.4,19.2c-0.1-0.4,0.2-0.5,0.5-0.5C99.7,27.2,125.8,12.9,157.4,8.2z"/>
	<path d="M161.7,0c3.9,1.5,1.2,7.5-1.9,7.7c0,7.1-3.7,10.4-7.2,13.9c-0.2,8.8-4.4,13.5-9.6,17.3c0.8,8.9-7.4,11.4-7.2,18.2
		c2.8,3.2,10.3,1.9,13,5.3c17.1,3.5,30,13.1,42.2,22.1c4.9,3.6,8.7,10,14.4,13.4c0,3.4,4.4,5.7,7.2,9.6c4.1,5.7,7.7,16,16.3,10.1
		c3.7-11.3,5.8-24.2,10.1-35c1.1-0.4,1.1-1.8,2.4-1.9c1.8-9.2,8.6-17.9,13.9-25.4c1.8-2.6,3-6,4.8-8.2c1.4-1.7,4.4-3.5,6.7-5.3
		c5.1-4,7.5-6,15.4-7.7c2.7-0.6,6.7-1.8,8.6,0.5c-0.1,0.6,0.1,0.9,0.5,1c-0.5,3.2-2,5.3-3.8,7.2c0.9,10.3-1.6,17.3-6.2,22.1
		c2.2,6.7-1.1,14.8-5.3,18.2c2.3,7-1.4,13.2-3.8,18.2c3.2,7.2-4.4,13.1-5.3,17.8c-0.4,2.1,0.6,4.3,0.5,6.2
		c-0.4,6.8-4.2,10.9-8.6,14.9c4.2,5,7.6,9.9,7.7,17.3c0,1.6-0.7,3.7-0.5,5.3c0.6,4.4,4.7,8.7,5.3,13.4c0.2,1.5-0.7,3.1-0.5,4.3
		c0.9,5.4,6.2,10,6.7,15.8c0.1,1.5-0.7,3.4-0.5,4.8c1,5.3,5.4,9,5.3,14.4c0,1.1-1.1,3.1-1,4.3c0.3,2.6,3.7,5,4.8,8.6
		c1.1,3.7-0.6,8.1,0,11.5c0.5,2.9,3.8,4.7,3.4,7.7c-0.2,1.3-1.7,1.8-1.9,3.4c-21.3-1.4-28.5-17-38.4-29.8
		c-2.2-5.3-4.5-10.3-7.2-15.8c-2.8-5.7-6.1-13.5-8.2-21.6c-1.8-7.4-1.8-21.8-10.6-20.6c-3.7,0.5-6.9,7.5-9.1,10.6
		c-3.2,4.5-5.9,6.9-8.2,11c-7.4,6.5-14.9,12.9-22.6,19.2c-4.1,1.3-7.8,3-10.1,6.2c-12.1,5-24.7,9.5-38.9,12.5
		c0.3,5.7,5,9.3,6.7,13.9c0.5,1.4,0.4,3.4,1,4.8c2,4.7,7.7,7.8,9.6,13c0.6,1.5,0.3,3.4,1,4.8c1.5,3.3,5.7,4.3,7.7,7.7
		c0.8,1.4,0.4,2.9,1,4.3c0.9,2.5,4.1,4.8,2.9,8.2c-7.2,1.3-15.3-1.4-22.6-3.4c-7.2-2-14.9-4-19.7-8.2c-7.4-1.2-11.7-5.6-18.2-7.7
		c-4.5-4.5-11.8-8.1-17.3-12.5c-2.2-1.8-4.2-3.5-6.2-5.3c-3.2-2.8-5.7-6.1-10.1-8.2c-2.7-4.9-6.6-8.7-11-12
		c-1.3-4.3-4.7-7.1-7.2-10.6c-2.5-3.5-4.1-7.8-6.7-11c-2.7-3.3-6.9-5.2-10.1-8.2c-3-2.7-6.1-6.2-9.1-9.6c-2.8-3.1-6.3-6.5-8.6-9.6
		c-1.5-2-2.3-5-3.8-7.2c-2.9-4.2-6.2-7.7-8.2-13.9c-1-1-3-0.8-3.8-1.9c-0.8-5.9,2.3-7.9,3.8-11.5c-1.5-3.3-3.5-6.1-5.3-9.1
		c0.2-2.5,2.7-2.7,4.3-3.8c8.7-20.7,23.2-35.7,40.3-48c8.8-16.9,22.2-29.3,35-42.2c10.1-7,20.3-14,31.7-19.7
		c11.3-5.6,23.5-10.5,37.4-13.4c4.1-0.9,9.2-0.3,12.5-2.4C161.4,0,161.6,0,161.7,0z M156,3.4c-19.7,2.3-37.7,10-51.4,18.2
		c-8.5,5.2-16.4,10.1-24,15.4c-3,5-8.1,7.9-12.5,11.5c-0.6,1-0.9,2.3-1.4,3.4C58.9,57.9,54,66.9,48,74.9c5.8-2.8,7.8-9.4,11.5-14.4
		C68.9,51,78,41.2,88.8,33.1c1,0,1.9,0,2.9,0c1.9-4.8,6.6-6.2,10.6-8.6c2.3-1.4,4.3-2.6,6.7-3.8c4.8-2.4,11.8-5.1,15.8-7.7
		c0.6-0.4,1.3-0.2,1.9-0.5c8.9-4.1,19.1-5.7,29.8-8.2c2.3,0,4.2,2.1,5.3-0.5C160.3,1.8,157.6,3.2,156,3.4z M79.7,45.1
		c-0.3,0-0.6,0.1-0.5,0.5c12.7-6.8,23.5-15.5,39.4-19.2c3.8-2.9,11-3.5,17.3-4.8c5.8-1.2,15.4-2.6,19.2-4.8c0.4-3.3,2.8-4.5,2.4-8.6
		C125.8,12.9,99.7,27.2,79.7,45.1z M148.8,22.6c-34.5,4.7-59.6,18.8-80.6,37c6.7-4,14.8-6.7,21.1-11c9.7-4.1,27.5-9,40.3-11.5
		c4.4-0.9,9.6,0.1,13-1c5.8-1.8,6.9-8.9,7.2-14.4C149.1,21.6,149.3,22.4,148.8,22.6z M157.4,68.6c1.2,0.1,1,1.6,1,2.9
		c-1.4,0.5-2.1,1.7-4.3,1.4c2.1-2.4,0.7-3.3-0.5-5.8c1.7-0.7,2.3,2.2,3.4,0.5c-2-0.2-2.1-2.4-4.3-2.4c-1.5,0.9-1.6,3.1-4.3,2.9
		c-0.3-1.5,0.8-1.4,0.5-2.9c-2.3,0.2-1.3-2.8-3.8-2.4c-1.8,0-1.5,2.1-3.8,1.4c0.4-1.4,0.4-1.5,0-2.9c-2.4-0.2-3.8-1.3-6.7-1
		c-1,0.9-1.1,2.8-3.4,2.4c-0.8-1.6,0.3-1.6,0.5-3.4c-5.3-2.1-9-0.5-13.9,0.5c-0.1-0.9,0.5-1.1,0.5-1.9c-2,0.4-2.5-0.7-4.3-0.5
		c-1.5,1.4-2.7,3.1-5.8,2.9c-0.3-0.7,0.6-2.5-0.5-2.4c-1.3,2.8-3.6,6.9-6.7,6.2c0.4-3,3.7-3,4.3-5.8c-3.9-2.3-5.7,3.8-9.1,1.9
		c0.1-0.9,1.6-0.3,1.4-1.4c-0.8-0.8-2,0.4-3.8,0c-0.1,1.4,1.6,0.9,1,2.9c-1.3,1.3-3.6,4.1-5.8,2.9c-0.2-2.9,4.1-1.3,3.4-4.8
		c-4.4-0.8-4.6,4.1-8.2,1.4c-1.5,2-3.6,3.4-5.8,4.8c-1.1,2.7-3.1,4.6-6.2,5.3c-1,3-4.1,6.5-6.7,6.2c-0.1-3.1,3.1-2.9,3.8-5.3
		c-1.6-5.1-5.5,1.8-7.7,3.4c4.5,3.8,8.4,8.2,12,13c3.9-0.4,5.7-2.5,8.2-5.3c-1.5-0.8-3-1.5-3.4-3.4c5.7,2,8.1,7.2,11,12
		c-1.9,1.6-4.2,5.4-7.2,4.3c0.2-3.2,4.6-2.1,4.8-5.3c-1.3-1.9-2.2-4.2-4.3-5.3c-2,1.7-4.1,3.2-5.3,5.8c2.1,2.4,6.8,5.8,3.4,9.6
		c2.2,0.7,0.9,4.8,4.3,4.3c0.1-0.4,0-0.9,0.5-1c-0.3-1.6-3.8-2.6-2.4-4.3c2,0.9,4.1,1.7,4.3,4.3c-0.1,2.2-2.5,2-2.9,3.8
		c1.4,1.8,1.2,5.2,2.9,6.7c0.4-2.7,3.9-2.2,4.3-4.8c-0.9-1.7-2.9-2.2-3.4-4.3c7.7,1,5,9.2-1,10.1c-0.1,3.5,2,4.7,1.4,8.6
		c1.8,0.1,2.6-0.9,2.9-2.4c-0.8-1.4-3.8-3.2-2.4-5.3c2.5,0.4,1.9,3.9,4.8,3.8c1.3-1.2,2.8-2.3,3.8-3.8c-0.7-2.2-4.5-1.3-3.8-4.8
		c2.7,1.1,5.2,2.5,5.8,5.8c-2.9,3.8-7,6.5-10.6,9.6c0.6,1.8,0.4,4.4,1,6.2c-1.4,1-1.8,3-3.4,3.8c0,1.8,2.1,1.4,1.4,3.8
		c-1.3,1.5-3.4,4.6-5.3,3.8c-0.3-3.4,4-2.1,3.4-5.8c-2.9,1.3-3.9,4.4-5.8,6.7c1.5-0.4,1.5,0.7,1.9,1.4c-1.4,2.2-4.7,2.4-5.3,5.3
		c2,1.6,4.7,2.6,5.3,5.8c-0.9,2.7-3.8,3.6-6.2,4.8c-1.4,1.7-1.4,4.6-4.8,4.3c-0.8,3.9-2.2,7.1-1.9,12c2.1-0.3,1.8-3,4.3-2.9
		c0-2.5-3.6-1.5-2.9-4.8c3.5-0.1,4,2.7,5.3,4.8c-1.8,2.2-3.7,4.3-7.2,4.8c-0.7,2.6-0.7,6.6,0,9.1c1.6,0,2.6-0.6,2.9-1.9
		c0.1-2-2.4-1.5-1.9-3.8c3,0.2,3.9,2.5,5.3,4.3c-1.2,2-3.4,3-6.2,3.4c-0.1,6.6,0.9,17.1,7.7,12.5c0.7-1.7-2.2-2.3-0.5-3.4
		c1.7-0.1,1.6,1.6,2.9,1.9c0.7-1.4,2.6-1.5,3.8-2.4c0.3-2.4-3.3-3.4-1.4-5.8c1.2,2.2,3.8,2.9,4.3,5.8c-4,3.2-8.8,5.6-13.9,7.7
		c-0.5,3.1,1.2,3.9,3.4,4.3c1.1-0.5-1-2.2,0.5-2.9c1.9,0.5,2.2,2.6,2.9,4.3c2-0.4,2.3,0.9,3.8,1c0.1-0.7-0.2-1.8,0.5-1.9
		c2.2,0.2,3.1,1.7,4.3,2.9c-0.1-1.3,0.2-2.1,1.4-1.9c0.2-1.6-2.1-0.8-1.4-2.9c2.1,0.4,4.3,0.8,4.3,3.4c-0.6,1.2-2.6,1-3.4,1.9
		c2,0.3,5.2,1.8,6.7,1c-0.6,0.1-1.7-1.4-0.5-1.4c2.3-0.4,2.5,1.4,4.8,1c0.9-2.1-1.8-3-0.5-3.8c2.3,0,2.3,2.2,4.3,2.4
		c-0.1-2.2,2.4-1.8,3.4-2.9c0.4-1.7-2.5-2.5-1-3.8c2.3,0.4,2.5,2.9,3.8,4.3c-3.4,2-6.7,4.2-11,5.3c2.1,0.6,4.5,1,6.7,1.4
		c1.3-1.6,3.4-2.4,5.3-3.4c0.5-1.2-2.1-1.7-0.5-2.4c2,0.1,2.9,1.3,3.4,2.9c-1,1.2-2.8,1.7-3.8,2.9c0.8,0.8,2.8,0.4,4.3,0.5
		c0.5-1.2-1.5-2.3,0-2.9c2.3-0.2,2.1,2.1,2.9,3.4c4.2-0.4,9.1-1.7,9.1-4.8c1.6-0.1,2.3,0.6,2.4,1.9c0.4,1.5-1.2,1-1.4,1.9
		c5.9,0.5,7.7-3.2,11-5.3c0.1,0.7,0.8,0.8,1,1.4c0.4,1.5-1.6,0.7-1.4,1.9c3-0.4,5.7-1,8.2-1.9c-0.8-0.6,1.1-2.4,1.9-2.9
		c1.9-0.3,1.2,2,2.9,1.9c1.7-0.7,4.5-0.3,4.8-2.4c-0.2-1.1-2.9,1.8-3.8,0c1.7-0.7,2.2-2.6,3.4-3.8c1.9-0.1,0.6,2.9,2.4,2.9
		c3.8,2.1,5.2-2.2,6.7-3.8c0.7,0.7,0.9,1.9,2.9,1.4c0.8-0.8-0.4-1.6,0-3.4c1.7-0.5,3.4-1.1,2.9-3.8c-2.4,0.2-3.8,3.9-6.2,2.4
		c0.9-1,1.3-2.5,3.4-2.4c0.5-1.2-1.5-2.3,0-2.9c1.4,0.6,2.9,1,2.9,2.9c2-0.2,3,0.5,2.9,2.4c-0.3,1.8-5.9,2.2-3.4,3.8
		c1.9-3.4,7.8-2.7,9.1-6.7c-2-0.2-3.1,3-4.8,1.4c0.3-1.8,1.9-2.3,3.4-2.9c0.4-1.3-1.5-2.6,0-3.4c2,0.3,2.4,2.9,2.4,3.8
		c4.6,0.7,6.8-3.4,9.6-5.8c3.2-2.7,9.6-4.6,7.7-8.2c-3,1.8-3.9,5.7-8.2,6.2c1.3-5.3,8.8-6.8,8.2-12.5c-2.9,0.3-2.3,4.1-5.3,4.3
		c-1.4-2.2,0.9-4.4,2.9-4.8c0.3-1.8-1-1.8-1-3.4c3.2,1.1,4.1-2.5,5.8-4.3c-0.4-1.5-1.4-2.1,0-3.4c1.2,0.7,2,1.9,2.4,3.4
		c-1.4,2.4-3.5,4.2-5.8,5.8c1.9,1.9,3.8,3.9,4.8,6.7c3.1-1.6,5.5-5.6,7.7-8.2c1-1.1,2.5-1.8,3.4-2.9c5.2-6.5,7.5-17.7,18.2-12.5
		c2.5,2.2,2.2,5.5,2.9,8.6c1.9,9.4,5.1,19.3,7.7,27.8c4.5,7.5,7.8,16.2,12,24c6.1,5.6,9,14.4,15.8,19.2c2.1,0.6,4,1.5,4.8,3.4
		c4.5,1,9.4,3.9,13.9,3.4c0.3-2.4-0.7-3.5-1-5.3c-19.9-13.4-35.6-31-44.2-55.7c-7.8-8.5-3.4-27.2-15.8-30.7
		c-1.6-0.5-3.7,0.9-4.3-1.4c0.4-0.8,1.1-1.5,1.9-1.9c15.4-0.9,12.9,16.2,18.2,25.4c1.2,3.3,1.7,6.5,2.9,9.6c2.4,6.1,5.7,11,9.1,16.3
		c0.9,1.4,1.9,2.9,1.9,4.8c8.8,10.2,16.5,21.6,28.8,28.3c2.8-14.5-10-19.7-16.8-25.9c-1.8-1.7-3.5-4.2-5.3-6.2
		c-9.5-10.8-17.1-21.4-21.1-38.4c-2.3-3-3-7.5-4.8-11c-3.6-2.5-6.8-5.3-13.4-4.8c-0.4-0.9-1.3-1.2-1-2.9
		c11.3-2.4,19.1,7.7,21.6,15.4c2.7,8.3,5.1,18,10.1,24.5c5.4,7,7.8,14.7,14.9,18.7c-0.1,1.2,0.8,1.5,1,2.4c3.9,1.9,6,5.5,10.6,6.7
		c-0.1-6.4-3.8-9.3-4.8-14.9c-8.8-6.4-17.3-13.1-21.6-24c-7.3-5.2-5.9-17-11.5-23.5c-4.3-5-9.4-8.9-18.2-9.1c-0.4-0.9-1.3-1.2-1-2.9
		c4.9-0.2,9,0.2,12.5,1.9c2,1,2.8,3,4.3,4.3c0.7,0.6,1.8,0.3,2.4,1c4.3,4.3,5.6,11,8.2,17.3c1,2.4,2.9,4.8,4.3,7.2
		c5.1,8.9,9.3,16.4,17.8,21.1c0.8,0.9,1.1,2.4,2.4,2.9c0.2-7.1-3.9-9.9-5.3-15.4c-4.6-2.9-8.9-6.3-12-10.6
		c-6.1-8.3-8.4-19.5-15.4-26.9c-2.8-0.9-5.9-1.5-5.8-5.3c1-1.7,3.2-2.2,5.3-2.9c3.4-3.6,5.6-7.4,7.7-12c1.4-2.9,3.3-6.4,4.3-8.2
		c1-1.7,2-2.6,2.9-3.8c1-1.4,0.9-3,1.9-4.3c1.6-2.1,4.6-4.2,6.7-5.8c1.4-1,4.2-1.7,5.8-3.4c3-3.1,3.9-9.3,3.4-13.4
		c-8.8,6.6-16.9,13.9-20.6,25.4c-2.6,1-2.3,4.7-4.3,6.2c0,1,0,1.9,0,2.9c-2,4.9-4.4,9.4-7.7,13c-4.9,2.9-11.8,8.6-19.2,5.8
		c0-0.6,0-1.3,0-1.9c2.8-0.4,5.4-1,8.6-1c3.7-2,6.8-4.7,10.6-6.7c3.9-5.4,5.4-13.2,7.7-20.2c7.3-12.4,16.8-22.5,28.3-30.7
		c0.5-4.2,3-7.6,1.9-12c-3.6,0.8-5.6,4.5-8.2,6.2c-0.6,0.4-1.4,0-1.9,0.5c-2.3,2.1-4.8,5.8-6.7,8.2c-1.2,1.5-3.4,2.5-4.3,3.8
		c-0.4,0.6,0,1.5-0.5,2.4c-1.5,2.9-5.5,6.5-7.7,10.6c-3.4,6.2-5.3,12.9-6.7,20.2c-1.6,8.1-11.4,16.6-20.2,13.9c0-0.6,0-1.3,0-1.9
		c6.2-0.9,11.1-2.4,13.9-6.7c1.8-2.7,1.1-7.1,4.3-9.1c1.4-8.6,5.3-17.9,9.6-23.5c0.6-0.8,1.8-1.5,2.4-2.4c1.2-1.7,1.6-4.2,2.9-5.8
		c1.2-1.6,3.5-2.7,4.8-4.3c1.4-1.7,1.9-3.5,3.4-4.8c4.7-4.4,10.2-8.7,16.3-11.5c3.5-4.1,4.3-10.8,4.8-17.8c-3.3,0.7-4.6,3.4-7.7,4.3
		c-0.1,0.9-0.3,1.6-1,1.9c-8.6,6.2-14.8,14.6-21.6,22.6c-0.1,2.8-1.6,4.2-3.4,5.3c-3.8,8.2-8.2,15.8-10.6,25.4
		c-0.7,0-1.1,0.2-1.4,0.5c-2.3,10.5-3.2,22.4-15.4,23c0-1-1.3-0.6-1-1.9c0-0.6,0.6-0.7,0.5-1.4c5.1-0.5,9.2-3.7,10.1-6.7
		c2.1-7,2.2-14.3,4.8-19.7c0.5-1,1.9-1.4,2.4-2.4c1.7-3.5,2.2-7.8,3.8-11c0.4-0.7,1.4-1.1,1.9-1.9c0.6-1.1,0.4-2.9,1-3.8
		c0.6-1,2.2-1.8,2.9-2.9c0.4-0.7,0.1-1.9,0.5-2.4c0.4-0.6,1.4-0.4,1.9-1c1.5-1.6,2.4-4.2,3.8-6.2c3.7-5,7.7-9.5,12-13.4
		c2.3-2.1,4-4,6.2-5.8c3.7-2.9,8.2-4.8,12-8.2c-0.2-1.5,0.9-1.7,0.5-3.4c-4.7-0.4-10.2,1.4-12.5,2.9c-3.8,2.5-11.5,6.9-13.4,9.1
		c-0.6,0.7-0.4,2.1-1,2.9c-3,4.6-7.6,9.1-11,14.4c-3.5,5.5-6.4,13.7-8.2,18.7c-0.7,0.2-1.2,0.7-1.9,1c-0.6,4.5-3.8,10.7-5.8,18.2
		c-2.2,8.5-0.8,17.3-8.2,18.7c-6.5,1.3-9.4-3.2-13-6.7c-1.3,1.6,0.4,6.1-2.4,6.2c0.8,2.5-0.2,6.2-2.9,6.7c1.2,3.3-1.4,8.2-4.8,6.7
		c1.2-2.1,3.9-3.3,2.4-6.7c0.8,0,1.6,0,2.4,0c0.8-2.5,2.1-4.2,0.5-6.7c3.5-0.8,2.6-6,3.8-9.1c-3.5,0.3-1.6,6.1-4.8,6.7
		c0.6,2.2-0.1,6-2.9,6.2c-0.1,3.6-2.2,7.7-5.3,6.7c0.7-1.8,2.5-2.6,3.4-4.3c0-1.8-2.1-1.5-1.4-3.8c1.9-0.7,1.5,1,2.9,1
		c1.5-2.1,2-4,1.4-7.2c0.9-0.1,1.1,0.5,1.9,0.5c-0.1-3.6,4.3-9.1,0.5-10.6c-0.9,2.4-0.4,6.3-3.8,6.2c-0.1,3.1-0.7,5.7-3.8,5.8
		c1-2.5,2.6-3.9,1-6.7c2.5,0.4,3.2-0.9,4.3-1.9c0.3-1.9-1.8-1.4-1.4-3.4c0.8,0,1.6,0,2.4,0c-0.3-2.6-0.5-5.2-3.4-5.3
		c-1.8,1.4,0.1,6.5-3.8,5.8c1-3.1,0.6-3.5-0.5-6.2c0.8,0,1.6,0,2.4,0c-1.3-1.9-2-3.6-1.9-5.8c-3.2,0.5-1.6,5.8-4.8,6.2
		c-0.8-2.3,1.2-3.8-0.5-6.2c1.2-0.5,2.5,1.6,2.4-0.5c-1.9-1-2.5-3.2-3.8-4.8c-2,1.1-0.4,5.6-4.3,4.8c1.9-3.1-0.7-5.3,0.5-9.6
		c-1.1-0.5-3.5-2.2-4.3-1.4c0.7,0,0.5,1.2-0.5,1c-1.6-1-0.5-1.7,0-2.9c-3.1-2.1-6.4-4.2-9.6-6.2c0.2,8.5-9.1,11.3-12.5,17.8
		c2.3,1.7,5.4,2.6,4.8,7.2c-5,0.9-6.5,10-11.5,7.7c0.5-2,3.6-1.5,3.4-4.3c-0.2-1.6-3-0.6-2.4-2.9c3.4-0.7,2.7,2.8,5.3,2.9
		c-1.3-2.8,3.1-3,3.4-5.8c-1.3-1.2-2.1-3.1-3.8-3.8c-1.7,1.1-2.1,3.6-5.3,3.4c0,1,0,1.9,0,2.9c-4.2,2-6.1,8.9-11,8.6
		c-0.2,3.9-2.8,5.5-5.8,6.7c0-0.5-0.4-0.6-0.5-1c0.3-2.5,3.5-2.3,3.8-4.8c-0.7-1.9-4.7-3-3.4-5.3c2.3,0.9,3.8,2.6,5.3,4.3
		c0.9-2,3-2.8,3.8-4.8c0-2.2-2.7-1.7-2.4-4.3c2.9-0.3,2.5,2.7,4.8,2.9c0.2-2.4,3.1-2,2.9-4.8c-0.3-1.6-3.4-2.9-2.4-4.3
		c3-0.3,2.1,3.3,4.8,3.4c0.5-2,2.5-2.6,3.4-4.3c-1.1-2.3-2.5-4.2-4.8-5.3c-0.2,2.3-2.6,4.8-4.8,3.4c1-2.2,3.3-3.1,4.8-4.8
		c-0.3-2.2-4.4-3.3-3.4-5.3c2-0.1,1.5,2.4,3.8,1.9c0.6-1.5,3.5-0.7,3.4-2.9c-0.1-1.4-3.3-2.1-1.4-3.8c2,1,4.1,2,3.8,5.3
		c-1.5,1.8-4.8,2.5-6.2,2.9c2.6,2,3.6,5.7,7.2,6.7c2.5-4.3,7.6-5.9,9.6-10.6c-0.6-1.2-1.9-1.6-1.9-3.4c2-0.6,1.9,1,3.4,1
		c0.3-2.3-1.8-2.4-2.9-3.4c0.3-1.6-0.1-2.4-1-2.9c-1.6,0.4-2,2.2-3.4,2.9c2.6,2.3-2,4.8-2.9,6.7c0.9,0.4,2.9,2.2,1.4,3.4
		c-3.9-2.3-1.9-5.9,0-9.1c-0.8-1.7-2.8-2.3-3.4-4.3c2.5-0.2,2.6,1.9,4.8,1.9c-0.4-2.5-3-2.8-3.4-5.3c-2.2-0.7-2.4,1.9-3.8,0.5
		C157.9,68.4,157.5,68.1,157.4,68.6z M69.1,64.3c16.1-6.7,41.2-10.7,63.8-6.7c1-7.2,7.6-11.2,7.7-17.8
		C111.1,42.4,87.7,50.9,69.1,64.3z M76.8,64.8c0.8,0.9,1.9-0.1,1.9-1.4C77.8,63.6,76.6,63.5,76.8,64.8z M66.7,67.2
		c0.7,2,2.7,2.8,4.3,3.8c0.6-2.2,2.9-2.9,4.8-3.8c0.4-1.4-0.7-1.2-0.5-2.4C71.3,64.5,70.4,70,66.7,67.2z M60,74.9
		c0.8-3,4.6-3,5.3-6.2C62.8,69.7,56.8,72.7,60,74.9z M56.2,195.8c1,1.9,3.9,4.4,6.2,3.4c-11.1-6.7-22.3-13.3-29.3-24
		c10.2,8.7,19.9,17.9,32.6,24c-4.8-5.1-11.7-8.2-17.8-12c-3.5-4.7-9-7.3-12-12.5c5.1,1.4,7.2,6.6,11,9.6c5.4,4.3,11.7,7.7,18.2,11
		c-1.5-2.3-4.3-3.4-7.2-4.3c-3.5-3.5-7.6-6.4-12-9.1c-1.4-2.9-6.3-4.9-6.2-7.7c5.1,1.6,6.1,7.3,11.5,8.6c3.4,4.4,8.5,7.2,13.9,9.6
		c-3.7-4.9-11.3-6-14.4-11.5c-2.6-0.3-5.4-2.9-4.8-4.8c4.6,2.9,8.6,6.4,12.5,10.1c3.2-0.4,5.3,4.6,7.2,2.4
		c-4.9-3.9-13-7.1-14.9-12.5c5,3.2,8.9,7.4,14.4,10.1c-0.6-4.9-7.2-3.7-8.2-8.2c3.1,0.4,5.3,4.3,8.2,3.4c-1-1.2-3.1-1.3-3.4-3.4
		c2.6-0.8,2.1,1.4,3.8,1.4c0.5-2.3-2.2-1.3-1.9-3.4c1.4-0.4,1.2,0.7,2.4,0.5c0.6-2.2-2.7-0.5-1.9-2.9c0.9-0.5,1.6,1.4,1.9,0
		c-0.8-0.1-1.1-0.8-1-1.9c2.4,1.5,1.4-2.3,1.9-4.3c0.6-2.6,2.6-5.2,3.4-7.2c0.7-2,0.6-4.4,1.4-6.2c0.1-0.2,1.3-0.2,1.4-0.5
		c1.6-2.4,2.1-5.6,3.4-8.2c2.5-4.8,7-8.8,9.6-13c0.6-2.4-1.5-2-1.4-3.8c2.3-1.3-0.1-4.6,0.5-7.2c-0.5-0.5-1-0.9-1.4-1.4
		C79.4,99.1,68.1,85,53.3,74.4c-11.4,6-19.8,15-29.3,23c-6,10.8-15.8,17.8-18.7,31.7c2.1,3.2,4.6,6,5.8,10.1
		c-1.5,3.7-5.1,6.3-4.8,10.6c0.2,3.8,4.3,6.2,4.8,10.1c1.3,0.5,2.1-1,3.4,1c0.4,1.7-1.1,2.3,0,3.4c3.7,0,4.6,6.1,7.7,8.2
		c0.3-1.6-2.2-2.9-0.5-4.3c12.1,15.3,26,28.7,45.1,37c-4.5-3.9-11.8-4.8-14.9-10.1c-4.5-0.9-7.3-4.6-9.6-6.7
		c-5.1-4.8-11.8-8.8-14.9-15.4C37.4,180,44,190.8,56.2,195.8z M74.4,90.7c0.6,0.2,0.9,0.7,1.9,0.5c0-0.3,0-0.6,0-1
		c-0.5,0-0.6-0.4-1-0.5C75.3,90.4,74.5,90.2,74.4,90.7z M245.7,136.8c-1.3,1.5-6,3.1-4.3,4.8c1.5,1.6,0.4-1.2,1.4-1.4
		c12-5.6,18.6-16.6,25.4-27.4c0.2-3,1.4-5,1.4-8.2c-0.1-0.5-0.5-0.7-1-1C256.5,109.8,253.9,127.6,245.7,136.8z M247.7,142.1
		c7.4,3.4,11.2,10.6,16.3,16.3c0-8.5-4.3-12.7-7.7-17.8c3.9-3.9,8.2-10,8.2-16.3C260.1,131.5,253.5,136.4,247.7,142.1z M7.2,139.2
		c-1.3,3-4,4.6-3.8,9.1c2.4-2.7,4-6.2,5.8-9.6c-2.2-3.1-3.2-7.3-6.2-9.6C2.2,132.7,6.8,135,7.2,139.2z M268.8,177.1
		c-0.9-4.9-2.7-9.3-4.8-12c-2.6-3.3-4.6-7.8-6.7-10.6c-3.4-4.4-7-8-12-10.6C254.1,154.1,255.7,171.3,268.8,177.1z M75.4,162.2
		c2.9,0,3-2.7,4.8-3.8c-0.5-2.1-2.5-2.7-3.4-4.3C75.9,156.2,73.3,160.1,75.4,162.2z M73,166.1c0.3-1.3,2-1.2,1.9-2.9
		c-0.6,0-0.7-0.6-1.4-0.5C74.4,164.6,71.2,164.9,73,166.1z M34.6,185.3c-4.3-2.9-6.8-10.1-11.5-11C27.4,177.1,30.3,184,34.6,185.3z
		 M38.9,189.6c0.1-1.7-1.7-1.5-2.4-2.4C36.7,188.6,38.1,188.7,38.9,189.6z M72,233.3c0.8,0,1.6,0,2.4,0c3.9,3.9,7.9,7.8,13,10.6
		c5.7,7.9,16.9,10.3,23.5,17.3c0.4,1.4,1.5-0.3,2.4,0c4.3,2.9,9.4,4.3,14.9,6.7c8.2,3.7,18.8,6.6,27.8,8.2c2,0.4,5.3,1.2,5.8,0
		c-4.7-1.1-8.3-2.1-12-2.9c-4.3-1-9.3-0.9-13-2.9c-0.4-0.2-0.4-1.2-1-1.4c-7.4-2.8-14.4-4.5-21.1-8.2c-10.3-5.6-19.8-11.6-28.3-18.2
		c-5.5-4.2-9.3-8.4-13.4-12.5c-0.8-0.8-1.2-1.7-1.9-2.4c-0.5-0.5-1.3,0-1.9-0.5c-3-2.3-4.6-7.1-6.7-9.6c-1-1.1-3-1.8-4.3-3.4
		c-3.6-4.1-4-10.8-9.6-11C55.1,214.3,63.8,223.5,72,233.3z M78.7,221.3c18.3,7.9,36,16.4,60.5,18.2c-1.1-6.9-6.5-9.5-7.7-16.3
		c-24.4,2.4-45.5-2-61.9-9.1C71.9,217.2,77.2,217.3,78.7,221.3z M140.1,243.3c-8.9-0.4-15.9-2.6-24.5-3.4
		c-6.3-2.8-13.5-4.7-20.6-6.7c-1.2-2.1-3.6-3.1-6.7-3.4c-4.4-4.3-12.1-5.2-16.3-9.6c-0.9,0-1,0.4-0.5,1c5.3,3.2,8.9,8.1,14.9,10.6
		c4.8,6.4,14.4,8,20.2,13.4c4.1,0.1,7.2,3.3,11,4.8c8.3,3.3,18,4.7,26.9,6.7c1.7,0.4,3.2,2.6,5.3,1
		C148.6,250.9,143.1,248.4,140.1,243.3z M93.6,246.2c5.2,3.5,11.1,6.3,16.3,9.1c1.9,1,3,2.7,4.8,3.8c3.4,2.2,8.5,3.7,13,5.3
		c6.3,2.3,11.6,4.6,17.8,6.2c4.4,1.2,9.3,2.7,13.9,2.4c-0.5-6.3-5.5-7.9-8.6-11.5c-32.6-5-57.5-17.7-77.3-35.5
		c-0.6,0.1-1.4-0.1-1.4,0.5C78.4,233.9,86.8,239.3,93.6,246.2z"/>
	
		<linearGradient id="SVGID_8_" gradientUnits="userSpaceOnUse" x1="61.436" y1="136.9299" x2="288.0588" y2="136.9299" gradientTransform="matrix(1 0 0 -1 0 279)">
		<stop  offset="0" style="stop-color:#FFFF00"/>
		<stop  offset="1" style="stop-color:#FBC9BF"/>
	</linearGradient>
	<path fill="url(#SVGID_8_)" d="M157.9,68.6c1.4,1.4,1.7-1.1,3.8-0.5c0.4,2.5,3,2.8,3.4,5.3c-2.2-0.1-2.3-2.1-4.8-1.9
		c0.6,2,2.5,2.6,3.4,4.3c-1.9,3.2-3.9,6.8,0,9.1c1.5-1.2-0.5-3-1.4-3.4c0.9-1.9,5.5-4.4,2.9-6.7c1.4-0.7,1.7-2.4,3.4-2.9
		c0.8,0.5,1.2,1.3,1,2.9c1.1,1,3.1,1,2.9,3.4c-1.5,0.1-1.4-1.5-3.4-1c0,1.8,1.4,2.2,1.9,3.4c-2,4.7-7.1,6.3-9.6,10.6
		c-3.6-1.1-4.6-4.7-7.2-6.7c1.5-0.4,4.8-1.1,6.2-2.9c0.2-3.3-1.8-4.2-3.8-5.3c-1.8,1.7,1.4,2.5,1.4,3.8c0.1,2.2-2.8,1.4-3.4,2.9
		c-2.4,0.4-1.8-2-3.8-1.9c-1,2,3,3,3.4,5.3c-1.5,1.7-3.8,2.6-4.8,4.8c2.2,1.4,4.6-1.1,4.8-3.4c2.3,1,3.7,3,4.8,5.3
		c-0.8,1.7-2.8,2.3-3.4,4.3c-2.7,0-1.8-3.7-4.8-3.4c-1,1.4,2.1,2.7,2.4,4.3c0.2,2.8-2.7,2.4-2.9,4.8c-2.3-0.2-1.9-3.2-4.8-2.9
		c-0.3,2.6,2.4,2.1,2.4,4.3c-0.9,2-3,2.8-3.8,4.8c-1.4-1.8-2.9-3.5-5.3-4.3c-1.4,2.3,2.6,3.4,3.4,5.3c-0.4,2.5-3.5,2.3-3.8,4.8
		c0.1,0.4,0.5,0.5,0.5,1c2.9-1.2,5.5-2.8,5.8-6.7c4.9,0.3,6.8-6.6,11-8.6c0-1,0-1.9,0-2.9c3.1,0.3,3.5-2.2,5.3-3.4
		c1.8,0.8,2.5,2.6,3.8,3.8c-0.3,2.7-4.7,2.9-3.4,5.8c-2.6-0.1-1.8-3.6-5.3-2.9c-0.6,2.3,2.2,1.3,2.4,2.9c0.2,2.8-2.8,2.3-3.4,4.3
		c5.1,2.3,6.5-6.8,11.5-7.7c0.6-4.6-2.5-5.5-4.8-7.2c3.4-6.4,12.7-9.3,12.5-17.8c3.2,2.1,6.5,4.1,9.6,6.2c-0.5,1.2-1.6,1.9,0,2.9
		c1,0.3,1.1-0.9,0.5-1c0.8-0.8,3.2,0.9,4.3,1.4c-1.1,4.3,1.4,6.5-0.5,9.6c3.9,0.8,2.3-3.7,4.3-4.8c1.3,1.6,1.9,3.8,3.8,4.8
		c0.1,2.1-1.2,0-2.4,0.5c1.7,2.4-0.4,4,0.5,6.2c3.2-0.4,1.6-5.8,4.8-6.2c-0.1,2.1,0.7,3.8,1.9,5.8c-0.8,0-1.6,0-2.4,0
		c1.1,2.7,1.5,3.1,0.5,6.2c3.9,0.7,2-4.4,3.8-5.8c2.8,0,3,2.7,3.4,5.3c-0.8,0-1.6,0-2.4,0c-0.4,2,1.7,1.5,1.4,3.4
		c-1.1,1-1.8,2.3-4.3,1.9c1.6,2.8,0,4.2-1,6.7c3.2,0,3.7-2.7,3.8-5.8c3.4,0,2.9-3.8,3.8-6.2c3.8,1.4-0.6,7-0.5,10.6
		c-0.9,0.1-1-0.6-1.9-0.5c0.6,3.2,0.1,5.1-1.4,7.2c-1.4,0.1-0.9-1.6-2.9-1c-0.6,2.4,1.5,2,1.4,3.8c-0.9,1.7-2.6,2.5-3.4,4.3
		c3.1,1,5.2-3.1,5.3-6.7c2.8-0.3,3.5-4,2.9-6.2c3.2-0.6,1.3-6.4,4.8-6.7c-1.2,3.1-0.4,8.3-3.8,9.1c1.7,2.5,0.3,4.3-0.5,6.7
		c-0.8,0-1.6,0-2.4,0c1.5,3.4-1.2,4.7-2.4,6.7c3.4,1.4,6-3.4,4.8-6.7c2.7-0.5,3.7-4.3,2.9-6.7c2.8-0.1,1.1-4.7,2.4-6.2
		c3.6,3.6,6.4,8,13,6.7c7.4-1.4,6-10.2,8.2-18.7c1.9-7.6,5.2-13.8,5.8-18.2c0.7-0.2,1.2-0.7,1.9-1c1.7-5,4.6-13.2,8.2-18.7
		c3.4-5.3,8.1-9.8,11-14.4c0.5-0.8,0.4-2.2,1-2.9c1.9-2.2,9.6-6.7,13.4-9.1c2.3-1.4,7.8-3.3,12.5-2.9c0.4,1.7-0.7,1.8-0.5,3.4
		c-3.8,3.4-8.3,5.2-12,8.2c-2.3,1.8-4,3.7-6.2,5.8c-4.3,3.9-8.3,8.4-12,13.4c-1.5,2-2.4,4.6-3.8,6.2c-0.5,0.6-1.5,0.4-1.9,1
		c-0.3,0.5-0.1,1.7-0.5,2.4c-0.7,1.1-2.3,1.9-2.9,2.9c-0.6,0.9-0.3,2.7-1,3.8c-0.5,0.9-1.6,1.2-1.9,1.9c-1.6,3.3-2.1,7.5-3.8,11
		c-0.5,0.9-1.9,1.4-2.4,2.4c-2.6,5.4-2.7,12.7-4.8,19.7c-0.9,3-5,6.3-10.1,6.7c0.1,0.8-0.5,0.8-0.5,1.4c-0.4,1.3,1,1,1,1.9
		c12.2-0.6,13.1-12.5,15.4-23c0.4-0.3,0.8-0.5,1.4-0.5c2.3-9.7,6.7-17.3,10.6-25.4c1.8-1.1,3.2-2.5,3.4-5.3
		c6.8-7.9,13-16.4,21.6-22.6c0.6-0.3,0.9-1,1-1.9c3.1-0.9,4.4-3.6,7.7-4.3c-0.5,7-1.3,13.7-4.8,17.8c-6.1,2.8-11.6,7.1-16.3,11.5
		c-1.4,1.3-1.9,3.1-3.4,4.8c-1.3,1.6-3.6,2.8-4.8,4.3c-1.3,1.6-1.7,4.1-2.9,5.8c-0.6,0.9-1.8,1.6-2.4,2.4
		c-4.3,5.6-8.2,14.9-9.6,23.5c-3.2,2.1-2.5,6.4-4.3,9.1c-2.9,4.3-7.7,5.8-13.9,6.7c0,0.6,0,1.3,0,1.9c8.7,2.7,18.5-5.8,20.2-13.9
		c1.4-7.3,3.4-13.9,6.7-20.2c2.2-4.1,6.2-7.6,7.7-10.6c0.4-0.9,0-1.8,0.5-2.4c0.9-1.3,3.1-2.4,4.3-3.8c1.9-2.4,4.4-6,6.7-8.2
		c0.5-0.5,1.3-0.1,1.9-0.5c2.6-1.7,4.6-5.5,8.2-6.2c1.1,4.4-1.4,7.8-1.9,12c-11.5,8.2-21,18.3-28.3,30.7c-2.3,7-3.8,14.8-7.7,20.2
		c-3.8,2-6.8,4.7-10.6,6.7c-3.2,0-5.8,0.6-8.6,1c0,0.6,0,1.3,0,1.9c7.4,2.9,14.3-2.9,19.2-5.8c3.3-3.6,5.7-8.1,7.7-13
		c0-1,0-1.9,0-2.9c2-1.5,1.8-5.3,4.3-6.2c3.8-11.6,11.9-18.8,20.6-25.4c0.5,4.2-0.4,10.3-3.4,13.4c-1.6,1.6-4.4,2.3-5.8,3.4
		c-2.1,1.6-5.1,3.7-6.7,5.8c-1,1.3-0.9,2.9-1.9,4.3c-0.8,1.2-1.8,2.1-2.9,3.8c-1.1,1.8-3,5.2-4.3,8.2c-2.1,4.5-4.3,8.4-7.7,12
		c-2.1,0.6-4.2,1.2-5.3,2.9c-0.1,3.8,3,4.4,5.8,5.3c7,7.4,9.3,18.6,15.4,26.9c3.1,4.3,7.4,7.6,12,10.6c1.4,5.5,5.5,8.3,5.3,15.4
		c-1.3-0.5-1.6-1.9-2.4-2.9c-8.4-4.7-12.6-12.2-17.8-21.1c-1.4-2.4-3.4-4.8-4.3-7.2c-2.5-6.3-3.8-13-8.2-17.3
		c-0.6-0.6-1.7-0.4-2.4-1c-1.5-1.3-2.3-3.3-4.3-4.3c-3.5-1.7-7.6-2.1-12.5-1.9c-0.4,1.7,0.5,2,1,2.9c8.9,0.3,13.9,4.1,18.2,9.1
		c5.6,6.5,4.2,18.3,11.5,23.5c4.3,10.9,12.8,17.6,21.6,24c1,5.5,4.7,8.4,4.8,14.9c-4.6-1.2-6.7-4.9-10.6-6.7c-0.2-0.9-1-1.2-1-2.4
		c-7.1-4-9.5-11.7-14.9-18.7c-5-6.5-7.3-16.2-10.1-24.5c-2.5-7.6-10.3-17.8-21.6-15.4c-0.4,1.7,0.5,2,1,2.9
		c6.6-0.5,9.8,2.3,13.4,4.8c1.8,3.5,2.5,8,4.8,11c4,17,11.6,27.6,21.1,38.4c1.8,2,3.4,4.6,5.3,6.2c6.8,6.2,19.6,11.4,16.8,25.9
		c-12.3-6.7-20-18.1-28.8-28.3c0-1.9-1-3.4-1.9-4.8c-3.5-5.4-6.8-10.3-9.1-16.3c-1.2-3.1-1.7-6.3-2.9-9.6
		c-5.4-9.2-2.8-26.3-18.2-25.4c-0.8,0.4-1.5,1.1-1.9,1.9c0.6,2.3,2.7,1,4.3,1.4c12.4,3.5,8,22.2,15.8,30.7
		c8.6,24.7,24.3,42.3,44.2,55.7c0.3,1.8,1.3,2.9,1,5.3c-4.5,0.5-9.4-2.4-13.9-3.4c-0.8-1.9-2.7-2.7-4.8-3.4
		c-6.8-4.8-9.7-13.6-15.8-19.2c-4.2-7.8-7.5-16.5-12-24c-2.5-8.5-5.7-18.4-7.7-27.8c-0.6-3.1-0.4-6.4-2.9-8.6
		c-10.7-5.2-13,6-18.2,12.5c-0.9,1.1-2.4,1.8-3.4,2.9c-2.2,2.6-4.6,6.5-7.7,8.2c-1-2.8-2.9-4.8-4.8-6.7c2.3-1.6,4.4-3.3,5.8-5.8
		c-0.4-1.5-1.2-2.6-2.4-3.4c-1.4,1.3-0.4,1.9,0,3.4c-1.6,1.9-2.5,5.5-5.8,4.3c-0.1,1.5,1.3,1.6,1,3.4c-2,0.4-4.2,2.6-2.9,4.8
		c3-0.2,2.4-4,5.3-4.3c0.6,5.6-6.8,7.2-8.2,12.5c4.2-0.6,5.2-4.4,8.2-6.2c1.9,3.5-4.5,5.5-7.7,8.2c-2.8,2.4-5,6.5-9.6,5.8
		c0-0.9-0.4-3.5-2.4-3.8c-1.5,0.7,0.4,2.1,0,3.4c-1.5,0.6-3.1,1.1-3.4,2.9c1.7,1.5,2.8-1.6,4.8-1.4c-1.3,4-7.3,3.3-9.1,6.7
		c-2.6-1.7,3.1-2,3.4-3.8c0.1-1.9-0.9-2.6-2.9-2.4c0-1.9-1.5-2.3-2.9-2.9c-1.5,0.6,0.5,1.6,0,2.9c-2.1-0.1-2.4,1.4-3.4,2.4
		c2.5,1.5,3.8-2.2,6.2-2.4c0.5,2.7-1.2,3.3-2.9,3.8c-0.4,1.8,0.8,2.6,0,3.4c-1.9,0.5-2.1-0.7-2.9-1.4c-1.5,1.7-3,6-6.7,3.8
		c-1.8,0-0.5-3-2.4-2.9c-1.1,1.2-1.6,3.2-3.4,3.8c0.9,1.8,3.6-1.1,3.8,0c-0.3,2.1-3.1,1.7-4.8,2.4c-1.7,0.1-0.9-2.3-2.9-1.9
		c-0.8,0.5-2.8,2.3-1.9,2.9c-2.4,0.9-5.2,1.6-8.2,1.9c-0.1-1.3,1.9-0.4,1.4-1.9c-0.2-0.6-0.8-0.8-1-1.4c-3.4,2.1-5.1,5.7-11,5.3
		c0.2-0.9,1.9-0.4,1.4-1.9c-0.1-1.4-0.8-2-2.4-1.9c-0.1,3.1-4.9,4.4-9.1,4.8c-0.8-1.3-0.6-3.5-2.9-3.4c-1.5,0.6,0.5,1.6,0,2.9
		c-1.5-0.1-3.5,0.3-4.3-0.5c1-1.2,2.8-1.7,3.8-2.9c-0.5-1.6-1.3-2.8-3.4-2.9c-1.6,0.7,1,1.2,0.5,2.4c-1.9,1-4,1.8-5.3,3.4
		c-2.2-0.5-4.6-0.8-6.7-1.4c4.4-1.1,7.6-3.3,11-5.3c-1.3-1.4-1.5-3.9-3.8-4.3c-1.6,1.3,1.3,2.2,1,3.8c-1,1.1-3.5,0.7-3.4,2.9
		c-2-0.2-2-2.4-4.3-2.4c-1.3,0.9,1.4,1.8,0.5,3.8c-2.3,0.4-2.5-1.4-4.8-1c-1.2,0.1-0.1,1.6,0.5,1.4c-1.5,0.8-4.7-0.7-6.7-1
		c0.8-1,2.8-0.8,3.4-1.9c0-2.6-2.2-2.9-4.3-3.4c-0.7,2.1,1.6,1.3,1.4,2.9c-1.3-0.1-1.6,0.7-1.4,1.9c-1.3-1.1-2.1-2.7-4.3-2.9
		c-0.7,0.1-0.4,1.2-0.5,1.9c-1.6,0-1.8-1.4-3.8-1c-0.6-1.8-0.9-3.9-2.9-4.3c-1.5,0.7,0.7,2.4-0.5,2.9c-2.1-0.4-3.9-1.2-3.4-4.3
		c5.1-2.1,9.9-4.5,13.9-7.7c-0.5-2.9-3.1-3.6-4.3-5.8c-1.9,2.4,1.7,3.4,1.4,5.8c-1.2,0.9-3.2,1-3.8,2.4c-1.3-0.3-1.2-2-2.9-1.9
		c-1.7,1.1,1.1,1.7,0.5,3.4c-6.8,4.7-7.7-5.9-7.7-12.5c2.9-0.3,5.1-1.3,6.2-3.4c-1.4-1.8-2.3-4.1-5.3-4.3c-0.4,2.4,2,1.8,1.9,3.8
		c-0.3,1.3-1.3,1.9-2.9,1.9c-0.7-2.6-0.7-6.6,0-9.1c3.5-0.5,5.4-2.6,7.2-4.8c-1.2-2.1-1.8-4.9-5.3-4.8c-0.7,3.3,2.8,2.3,2.9,4.8
		c-2.6-0.2-2.2,2.6-4.3,2.9c-0.3-4.9,1.2-8.1,1.9-12c3.4,0.3,3.4-2.6,4.8-4.3c2.4-1.2,5.3-2.1,6.2-4.8c-0.6-3.1-3.2-4.1-5.3-5.8
		c0.6-2.9,3.9-3.1,5.3-5.3c-0.4-0.7-0.4-1.9-1.9-1.4c1.8-2.3,2.9-5.5,5.8-6.7c0.7,3.7-3.7,2.4-3.4,5.8c1.8,0.7,4-2.4,5.3-3.8
		c0.6-2.4-1.5-2-1.4-3.8c1.6-0.8,1.9-2.9,3.4-3.8c-0.5-1.9-0.3-4.5-1-6.2c3.6-3.1,7.6-5.8,10.6-9.6c-0.6-3.2-3-4.7-5.8-5.8
		c-0.6,3.5,3.2,2.6,3.8,4.8c-1,1.5-2.5,2.6-3.8,3.8c-2.9,0-2.3-3.5-4.8-3.8c-1.4,2.1,1.6,3.9,2.4,5.3c-0.3,1.5-1.1,2.5-2.9,2.4
		c0.5-3.9-1.6-5.2-1.4-8.6c5.9-0.9,8.7-9.1,1-10.1c0.5,2.1,2.5,2.7,3.4,4.3c-0.4,2.6-3.9,2.1-4.3,4.8c-1.6-1.6-1.5-4.9-2.9-6.7
		c0.4-1.9,2.8-1.7,2.9-3.8c-0.2-2.7-2.3-3.4-4.3-4.3c-1.4,1.7,2.1,2.7,2.4,4.3c-0.5,0-0.4,0.6-0.5,1c-3.4,0.5-2.2-3.6-4.3-4.3
		c3.5-3.8-1.2-7.2-3.4-9.6c1.2-2.5,3.3-4.1,5.3-5.8c2.1,1.1,3,3.4,4.3,5.3c-0.2,3.1-4.6,2.1-4.8,5.3c3,1,5.3-2.7,7.2-4.3
		c-2.9-4.8-5.4-10-11-12c0.4,1.9,1.9,2.6,3.4,3.4c-2.4,2.8-4.3,4.9-8.2,5.3c-3.6-4.7-7.5-9.2-12-13c2.2-1.6,6.1-8.4,7.7-3.4
		c-0.7,2.3-3.9,2.2-3.8,5.3c2.6,0.2,5.7-3.2,6.7-6.2c3.1-0.7,5.1-2.6,6.2-5.3c2.2-1.3,4.3-2.8,5.8-4.8c3.5,2.6,3.8-2.2,8.2-1.4
		c0.7,3.5-3.5,1.9-3.4,4.8c2.2,1.2,4.5-1.6,5.8-2.9c0.7-1.9-1-1.5-1-2.9c1.8,0.4,3.1-0.8,3.8,0c0.1,1.1-1.4,0.5-1.4,1.4
		c3.4,1.9,5.3-4.2,9.1-1.9c-0.6,2.8-3.9,2.8-4.3,5.8c3.2,0.7,5.5-3.4,6.7-6.2c1-0.1,0.2,1.7,0.5,2.4c3.1,0.2,4.2-1.5,5.8-2.9
		c1.9-0.3,2.3,0.9,4.3,0.5c0.1,0.9-0.6,1-0.5,1.9c4.9-1,8.6-2.6,13.9-0.5c-0.2,1.7-1.3,1.8-0.5,3.4c2.3,0.4,2.3-1.5,3.4-2.4
		c2.9-0.4,4.3,0.8,6.7,1c0.4,1.4,0.4,1.5,0,2.9c2.4,0.6,2-1.5,3.8-1.4c2.5-0.4,1.5,2.6,3.8,2.4c0.3,1.5-0.8,1.4-0.5,2.9
		c2.7,0.3,2.9-1.9,4.3-2.9c2.2,0,2.3,2.2,4.3,2.4c-1.1,1.7-1.7-1.1-3.4-0.5c1.2,2.4,2.6,3.3,0.5,5.8c2.2,0.3,2.9-1,4.3-1.4
		c0-1.3,0.3-2.8-1-2.9C157.5,68.1,157.9,68.4,157.9,68.6z M202.1,175.7c-1.2,1.7-3.3,2.4-3.4,5.3c5.3-1.9,5.9-8.5,10.6-11
		c-0.3,2.6-2.6,3.1-2.9,5.8c2.6-0.8,4.5-2.2,4.8-5.3c-0.1-1.5-2.1-1.1-2.9-1.9c0.4-1.4-0.7-1.2-0.5-2.4c5.2-0.4,3.3-7.9,7.2-9.6
		c0.2,0.9-0.7,2.9,1,2.4c3.8-6.3,2.4-19.3,1.4-27.8c-0.3-2.8,0.7-7-2.4-7.7c0.3,5.4-2.2,8.1-3.8,11.5c0.6,3.8-2.1,4.3-2.4,7.2
		c3.4-0.5,5.7-5.3,3.8-8.2c1.8-0.2,1.4-2.5,3.4-2.4c0.4,2.4-0.6,3.3-1.4,4.3c4.8,2.5-0.3,7.5-0.5,11c1.4,0.1,1.8-1.9,2.4,0
		c-0.5,5.1-2.6,8.6-5.8,11c-0.6-0.3-0.9-1-1-1.9c1.4-0.8,6.9-6.3,2.9-7.7c-1.1,0.2-0.2,2.4-0.5,3.4c-4.4,2.2-4.4,8.7-7.7,12
		c-0.2-0.6-0.6-1-1.4-1c0.9,4.3-2.6,4.1-1.9,8.2c4-3.2,5.7-8.7,9.1-12.5c1.9,5-5,5.2-3.8,11c-1.9,0.5-2.1,2.7-3.4,3.8
		c-0.6,0-1.3,0-1.9,0C200.7,174.7,202.4,174.2,202.1,175.7z M90.2,92.6c-0.3,2.6,2.4,2.1,2.4,4.3c-1.3,2.6-4.8,2.9-5.3,6.2
		C93.8,102.8,98.1,94.3,90.2,92.6z M101.3,91.2c-1-1.9-2.1-3.7-4.3-4.3c-1.1,1.6,2.2,2,1.9,4.3c-1.2,1.7-4.2,1.5-3.8,4.8
		c0.6,0,1.3,0,1.9,0C97.5,93.5,101,93.9,101.3,91.2z M107.5,86.4c-0.8-3-2.5-5.2-5.3-6.2c-0.6,3.2,2.7,2.4,2.4,5.3
		c-0.6,2.1-3.9,1.5-3.4,4.8C105,90.7,104.1,84.8,107.5,86.4z M89.3,77.8c-1.9-1.4-2.2-4.5-5.3-4.8c-0.1,3,3,2.8,3.4,5.3
		C86.8,80.7,83.1,80,83,83C86,83.6,88.4,80.8,89.3,77.8z M149.7,71c0,1.7,2.5,1,1.9,3.4c-1,1.1-3.1,1-2.4,3.8
		C154,77.7,155.6,69.9,149.7,71z M151.7,106.6c-0.4,2.5,1.6,2.5,1.9,4.3c-1.1,1.3-3.3,1.5-3.8,3.4c2.4,1,5.2-1.4,6.2-3.4
		C155,109,153.9,107.2,151.7,106.6z M208.3,131c0.4,3.9-1.6,5.5-2.9,7.7c-1.4-0.4-1.2,0.7-2.4,0.5c0.6,3.5-2.5,3.2-1.9,6.7
		c2.1-1.7,5.2-3.5,4.3-6.7c3.3-1,5.2-3.4,4.8-8.2c2-0.4,5-5.8,1.9-6.7C210.9,126.5,210.8,130,208.3,131z M115.7,61.9
		c-1.7,0.5-2.8,1.6-3.4,3.4c2.2,1.6,2.2-2.4,4.8-1.9c0.8-2.5-0.5-4.7-3.8-4.3C112.5,61.5,115.5,60.4,115.7,61.9z M126.7,62.4
		c-0.9,1.2-2.4,1.7-2.9,3.4c-0.8-0.7-3.8-3.6-4.8-1c1,0.9,3,0.8,3.4,2.4c-2.1,0.7-3.3,2.5-4.8,3.8c-0.9-1.4-2.4-3-4.3-1.9
		c0.6,1.7,2.4,2.1,3.4,3.4c-0.7,1.8-3.1,2-2.9,4.8c2.7-0.5,4-2.4,4.8-4.8c2.7-1.5,5.3-3.1,6.2-6.2c1.9-1.3,4.7-1.7,4.3-5.3
		c-1.6-0.5-2.7-1.4-4.8-1.4C123.6,62,127.1,60.3,126.7,62.4z M136.8,67.2c2.1-0.2,3.2-1.3,3.4-3.4c-0.8-1.2-2-1.8-3.8-1.9
		C137,64.3,138.4,64.7,136.8,67.2z M83,70.1c0.6,0,1.3,0,1.9,0c0.2-2.2,3.1-1.7,3.4-3.8c-0.5-1.6-1.3-2.8-3.4-2.9
		C87.8,66.7,82.6,66.4,83,70.1z M97.9,66.2c-1.2,1.2-3.5,1.3-3.4,3.8c5.2,0.6,8.4-6.9,1.4-6.7C95.9,65.1,98.2,64.3,97.9,66.2z
		 M106.6,70.1c3.2,0.1,4.7-1.3,5.3-3.8c-0.9-1.2-1.9-2.3-3.8-2.4C110,67.4,107.1,66.9,106.6,70.1z M131,65.8c1,0.9,3,0.8,3.4,2.4
		c-1.3,1.1-3.5,1.3-3.4,3.8c2.9-0.3,4.9-1.5,5.3-4.3C135.8,66.3,132.2,63.3,131,65.8z M145.4,69.1c-0.5,1.5-2.9,1-2.4,3.4
		c3.1,0.2,3.7-2,4.8-3.8c-1.2-1.2-2-2.8-4.8-2.4C142.3,68.7,145.2,67.6,145.4,69.1z M78.7,68.2c-0.1,2,1.8,2,1.9,3.8
		c-1.7,1-3.3,2.1-3.8,4.3c2.7,1,4.4-2.9,6.2-4.3C82.4,70.1,80.8,67.1,78.7,68.2z M92.6,72.5c-0.7,1.8-3.7,1.4-3.4,4.3
		c3.2-0.1,4.6-2.2,5.8-4.3c-1.2-2-1.9-4.5-4.8-4.8C89.7,70.7,92.5,70.2,92.6,72.5z M95.5,73.9c-0.1,2.9,3.3,2.1,3.4,4.8
		C98,80.3,96,80.7,95,82.1c-2.1-0.5-2.5-2.7-4.8-2.9c-0.5,3,2.9,2.3,2.9,4.8c-0.1,3.2-4.1,2.6-3.8,6.2c3.5-0.7,6.3-3.5,5.8-6.7
		c2.9-1.1,5.9-2.1,7.2-4.8C99.9,77.3,98.4,73.2,95.5,73.9z M107,72c-2-0.9-2.5-3.3-4.8-3.8c-0.6,3,2.3,2.5,2.4,4.8
		c-1.9,0.6-3.5,1.7-3.4,4.3C104.8,77.2,105.5,74.1,107,72z M128.1,73.4c-1.4,1.1-2.1,3-3.8,3.8c-1.6-0.8-3-4.1-4.8-1.9
		c0.4,1.8,3.4,1.1,2.9,3.8c-0.5,2.1-4.6,0.5-3.8,3.8c6.1-1.1,8.5-5.9,12-9.6c-1.4-2.1-2.6-4.5-5.3-5.3
		C124.8,71.4,127.9,70.9,128.1,73.4z M140.1,74.4c-0.6,1.8-3,1.8-2.9,4.3c7.3-0.4,5.5-8.6,0-9.6C136.8,72.3,139.9,71.9,140.1,74.4z
		 M74.4,77.8c-0.8,2.7-4.6,2.4-5.3,5.3c4.5,0.2,5.5-3.1,8.2-4.8C76,76.3,75,74.1,73,73c-0.3,0-0.6,0-1,0
		C71.9,75.4,74.2,75.5,74.4,77.8z M111.4,78.2c-0.6,2.6-4.7,1.7-4.3,5.3c2.9-1.1,6.4-1.6,6.2-5.8c-1.8-1.4-2.8-3.6-5.8-3.8
		C106.9,77.3,110.5,76.4,111.4,78.2z M146.9,80.2c-1,1.4-3.8,1-3.8,3.4c3.3,0.1,5.5-0.9,6.2-3.4c-1.6-2.1-2.4-4.9-6.2-4.8
		C143.4,77.9,146.7,77.5,146.9,80.2z M125.3,92.2c-3.3-4.5-6.6-9.1-11.5-12c0.1,2.6,2.6,2.8,3.4,4.8c-2.8,0.6-3.2,3.5-4.8,5.3
		c0.5,0.1,0.7,0.5,1,1c2.7-0.5,2.4-4,4.3-5.3c1.8,2.3,4.8,3.5,5.8,6.7c-1.8,1-4.6,1.1-4.3,4.3C122.8,97,123.8,94.4,125.3,92.2z
		 M107.5,86.9c-0.3,3.2,3.1,2.6,3.4,5.3c-2,0.5-3.4,1.7-4.8,2.9c-1.4-0.7-1.8-2.3-3.8-2.4c-0.3,2.6,2.4,2.1,2.4,4.3
		c-0.5,2.3-4.5,3.4-3.4,5.8c3.4-0.9,4.9-3.7,6.2-6.7c3.3-0.2,4.4-2.6,5.8-4.8C111.2,89.9,110.5,87.2,107.5,86.9z M116.6,98.4
		c-0.6,1.9-2.6,2.6-3.8,3.8c-2-1.1-2.5-3.5-4.8-4.3c-2,3.3,2.7,4,3.4,6.2c-0.6,2.2-3.9,1.9-3.8,4.8c2.6-0.2,4.7-1.8,6.2-3.4
		c0.3-0.3-0.3-1.6,0-1.9c0.4-0.5,1.8-0.4,2.4-1c1.8-1.6,2.3-3.5,2.9-5.3c-2.1-1.6-2.6-4.8-5.8-5.3C113.4,95.2,116.6,95.3,116.6,98.4
		z M131,87.4c2,1.2,3.2,3.2,4.3,5.3c-1.6,1.2-3.1,2.7-5.3,3.4c-1.4-1-2-2.8-4.3-2.9c0,2.5,2.6,2.5,2.9,4.8c-0.9,2-3.6,2.2-3.4,5.3
		c3.7-0.5,5.2-3.2,6.2-6.2c6-0.9,6.2-7.6,11.5-9.1c-0.1,3,3.5,2.3,3.8,4.8c-0.8,1.6-2.7,2.1-3.4,3.8c-1.6-0.8-2-2.8-4.3-2.9
		c-0.2,2.8,2.7,2.4,2.9,4.8c-1.1,1.8-3.3,2.4-4.8,3.8c-2.2-0.5-1.9-3.5-5.3-2.9c0.3,2.4,2.7,2.8,3.8,4.3c-1,2.6-4.5,2.6-4.8,5.8
		c3.3,0.7,6-3.2,7.2-6.2c2.8-0.9,6.5-2.8,5.8-5.8c2.2-1,4.6-1.8,5.3-4.3c-2.9-4.7-6.7-8.3-11-11.5c-0.6,3,2.7,2.1,2.4,4.8
		c-0.7,2.1-3.4,2-3.8,4.3c-2.4-1.2-2.7-4.3-4.3-6.2c6.2-0.5,5.6-8.4-0.5-8.6c-0.1,2.9,3.3,2.1,3.4,4.8c-1.6,1.4-4.3,2.2-3.8,4.3
		c-1.8-1.4-2.5-3.9-5.3-4.3c-0.2,2.9,3.2,2.2,2.4,5.8c-1.1,0.9-2,1.9-3.4,2.4c0,0.8,0,1.6,0,2.4C128.6,91.3,128.1,87.7,131,87.4z
		 M178.1,84c1.9,0,3.4-0.5,3.4-2.4c-2.1-0.7-2.8-2.6-5.3-2.9C175.9,81.7,179.7,80.8,178.1,84z M175.7,85.9c0.1,2.8-1.9,3.5-2.9,5.3
		c-0.9-1.6-2.6-2.5-4.8-2.9c-0.2,2.1,2.7,1.2,2.4,3.4c-0.6,2.3-4,1.7-4.3,4.3c5.3-0.7,10-4.3,10.1-8.6c0.8,0,1.7,0.1,1.4-1
		c-0.8-1.7-1.1-4-3.4-4.3c-0.3,0-0.6,0-1,0C173.3,84.1,175.7,83.8,175.7,85.9z M183.8,90.2c2.5,0.1,1.6-4.7,0-4.3
		C183.2,87.4,184.6,87.8,183.8,90.2z M181.4,92.6c-1.5,0.9-3.3,1.5-3.4,3.8c5.7,0.1,6.8-7.7,1-8.2C178.2,91.3,181.4,90.4,181.4,92.6
		z M175.7,97.4c-0.7,2.3-3.2,2.8-3.4,5.8c3-0.8,4.7-3,5.8-5.8c-1.1-1.3-1.9-2.9-3.8-3.4C173.7,96.2,175.8,95.6,175.7,97.4z
		 M183.8,102.7c-1.2-1.3-1.9-3.2-4.8-2.9c-0.7,2.9,3,1.5,2.9,3.8c-0.5,2.8-3.6,3.1-4.3,5.8c-1.1-1-1.7-2.4-3.8-2.4
		c0.4,2.5,2.5,3.2,3.4,5.3c-1,1.7-2.6,2.8-4.3,3.8c-1.5-1.4-2.1-3.6-4.8-3.8c-0.5,3.6,3.7,2.4,3.4,5.8c-0.7,1.7-3.4,1.4-3.4,3.8
		c2.6,0.5,3.3-0.8,4.8-1.4c0.5-4.1,5-4.2,6.2-7.7c0.5-1.8-1.2-1.4-1-2.9c3.3-0.8,5.3-3,5.8-6.7c3.8-0.1,4.3-3.4,4.8-6.7
		c-1-0.8-0.9-2.6-2.9-2.4C187.4,97.6,185.9,100.4,183.8,102.7z M95.5,100.3c0.8,1.3,2.7,1.4,2.9,3.4c-1.3,1.9-4.5,1.9-4.8,4.8
		c2.7,0.4,6-2.5,7.7-4.8c-1.5-1.9-3.2-3.5-4.8-5.3C96.5,99.3,95.2,99,95.5,100.3z M111.4,116.6c-2.2,1.3-5.1,1.9-5.3,5.3
		c6.5-1.3,8.1-7.5,13.4-10.1c0-1,0-1.9,0-2.9c2.8,1.5,2.7-2.7,5.3-2.9c1.5,1.3,3.4,2.4,3.8,4.8c-0.9,1.3-2,2.4-3.4,3.4
		c-1.4-0.7-1.8-2.3-3.8-2.4c-0.6,3,2.7,2.1,2.4,4.8c-1.2,2.1-4,2.7-5.3,4.8c-1.9-0.9-2.4-3-4.3-3.8c-0.7,3.6,2.6,3.2,2.9,5.8
		c-1.2,1.9-4.4,1.7-4.3,4.8c3.4-0.9,5.9-2.7,6.7-6.2c3.6-0.1,4.1-3.3,6.7-4.3c0.5,2.4,2.7,3.1,3.4,5.3c-0.5,2.5-4.4,1.6-4.3,4.8
		c3.7,0.3,3.8-2.9,6.7-3.4c0.4,2,3.2,1.6,2.9,4.3c-0.5,2.4-4.4,1.4-3.8,4.8c3.2-0.8,5.7-2.3,6.2-5.8c2.7-0.4,3.6-2.4,5.8-3.4
		c0-0.8,0.1-1.5,0.5-1.9c-1.3-2.1-2.5-4.2-5.3-4.8c-0.7,3.2,2.9,2.2,2.9,4.8c-1,1.9-3.3,2.4-4.3,4.3c-3.3-3.4-6.7-6.7-10.1-10.1
		c0.6-3,4-3,4.8-5.8c-1.8-2.3-3.1-5.2-6.2-6.2c-1.3-2.4-2.3-5.1-5.8-5.3c-0.4,3.3,3.7,2.1,3.4,5.3c-1,1.5-2.3,2.8-4.3,3.4
		c-1.3-0.8-1.7-2.5-3.8-2.4c-0.2,2.8,2.7,2.4,2.9,4.8c-1.3,2.1-3.9,2.8-5.3,4.8c-0.6-2.3-3-2.8-4.8-3.8c-0.8-3.2-2.7-5.3-5.8-6.2
		c0.1,2.8,2.9,2.8,3.4,5.3c-1.1,2.3-4.5,2.3-5.3,4.8c3.4,1.5,4.5-3,7.7-3.4C107.6,114.6,110.9,114.2,111.4,116.6z M150.2,117.6
		c-0.2,3,3.1,2.3,2.9,5.3c-0.7,2.2-4.4,1.4-3.8,4.8C156.3,127.3,156.8,118.8,150.2,117.6z M157.9,121c4.6-5.5,10.3-9.8,14.9-15.4
		c-1.1-2.4-2.8-4.2-5.8-4.8c-0.8,3.3,3.5,2.9,3.4,4.8c-0.1,1.4-3.2,1.5-4.3,3.4c-1.8-0.6-1.8-3-4.3-2.9c-0.2,3.1,3.4,2.3,2.9,5.8
		c-1.9,0.8-2.7,2.7-4.8,3.4c-0.5-1.1-0.8-2.4-2.9-1.9c-0.1,1.9,2.1,1.5,1.9,3.4c-0.7,2-3.6,1.9-3.8,4.3
		C156.8,121,156.4,121.5,157.9,121z M190.1,109.9c3-0.7,4.3-3.1,4.3-6.7c-1.2-0.5-1.2-2.3-3.4-1.9
		C192.9,105,190.8,106.4,190.1,109.9z M187.7,110.4c0.3,2.4-3,3.2-1.4,5.3c4.1-0.9,4.5-8.9,0-9.6
		C185.6,108.7,188.1,108.1,187.7,110.4z M191.5,113.3c-0.7,2.4,2.2,1.3,1.9,3.4c-1.6,1.3-2.4,3.4-3.4,5.3
		C194,123.5,198.3,112.9,191.5,113.3z M195.8,106.1c2.4,3.3,0.3,5.4-0.5,9.1C199.2,114.7,201.2,106.3,195.8,106.1z M132,112.3
		c0.3,2.2,3.3,1.9,3.4,4.3c-0.2,2.3-2.8,2.3-3.4,4.3c3.4,1.2,4.8-2.1,5.8-4.8C136.3,114.6,134.4,111.4,132,112.3z M147.3,116.2
		c-0.7,2.2-3.7,2-3.8,4.8c3,1.1,5.4-2.2,6.2-4.8c-1.6-1.2-1.8-3.7-4.3-3.8C144.9,114.8,147.2,114.3,147.3,116.2z M168,135.8
		c-1.2-2.2-2.5-4.2-5.3-4.8c0.1,2.6,3.3,2.2,2.9,5.3c-1.4,1.3-2.9,2.6-3.4,4.8C165.6,140.8,166.9,138.4,168,135.8z M162.2,144
		c1.2,1.2,2.5,2.3,2.9,4.3c-0.7,1.9-3.3,1.8-2.9,4.8c2.3-1.5,5.3-2.4,5.3-6.2c3.7-0.6,6.2-2.4,6.2-6.7c2.9,0.7,5.1-3.1,6.2-5.8
		c2.8-0.8,5.1-2,5.3-5.3c2.7-0.8,4.2-2.8,5.3-5.3c-1.5-1.2-1.3-4.1-4.3-3.8c0.5,1.6,1.5,2.6,1.9,4.3c-1,1.6-2.7,2.5-3.4,4.3
		c-2-1.3-3.1-4.1-5.3-3.8c2.5-1.8,5.3-3.3,6.2-6.7c-2-1.5-2.4-4.6-5.8-4.8c-0.3,3.2,3.2,2.6,3.4,5.3c-1.4,1.5-2.7,3-4.8,3.8
		c-0.9-1.5-1.5-3.3-3.8-3.4c0.2,2.6,2.5,3.3,2.9,5.8c-1.7,0.7-3.2,1.6-3.4,3.8c3.1,0.3,3.3-2.5,5.8-2.9c-0.1,2.7,3.2,1.9,2.9,4.8
		c-1.1,1.3-3.2,1.6-4.3,2.9c-1.5-0.5-1.5-2.3-3.4-2.4c-0.7,2.9,2.3,2.2,1.9,4.8c-1.2,1.4-2.5,2.6-4.3,3.4c-1.4-0.5-1.4-2.4-3.8-1.9
		c0,2.5,2.6,2.5,2.9,4.8c-2,1.2-3.8,2.6-5.3,4.3c-3.8-2.8-4.8-8.3-10.6-9.1c0.9,2.2,3.2,2.9,3.8,5.3c-2.4,0.9-2.4,3.9-4.3,3.8
		c-1.4,0-1.5-3.9-4.3-3.4c-0.5,3.2,3.3,2.2,2.9,5.3c-0.5,2.4-3.5,2.2-3.8,4.8C156.8,152.7,156.5,145.3,162.2,144z M159.3,154.5
		c-0.4,1.9-3,1.5-3.4,3.4c0,0.5,0,1,0,1.4c2,0,5.1-2.8,6.2-5.3c-1-1.7-3.3-2.1-3.8-4.3c-1.2-0.2-1,0.9-2.4,0.5
		C156.5,152.2,159.1,152.2,159.3,154.5z M103.7,123.4c-0.3,2.6-3.4,2.3-3.4,5.3c2.8-0.7,4.2-2.8,5.8-4.8c-0.8-3-3.1-4.6-5.8-5.8
		C99.8,121.5,103.3,120.9,103.7,123.4z M195.3,127.7c4.1,0,6.5-8.9,1.4-9.6C199.1,121.8,196.2,124.4,195.3,127.7z M162.7,119
		c0.2,2.4,3.4,1.8,2.9,4.8c-0.7,1.9-3.6,1.5-3.4,4.3c2.9-0.6,4.6-2.4,5.8-4.8C166.7,121.6,165.2,118,162.7,119z M212.6,122.9
		c1.5-0.6,2.4-1.8,3.4-2.9C214.7,117.6,212.1,120.4,212.6,122.9z M120,124.3c-0.4,0.1-0.6,0.4-0.5,1c2,0.7,3.5,1.9,3.8,4.3
		c-2.2,1-4.6,1.8-5.3,4.3C126.6,133.7,126.6,124.7,120,124.3z M147.3,129.1c-0.6,2.1-3.7,1.8-4.8,3.4c-1.6-0.8-2.1-2.7-4.8-2.4
		c0.2,2.7,3.5,2.3,3.8,4.8c-0.9,2.3-4,2.4-4.3,5.3c3.1,0.7,6.4-2.1,6.2-6.2c2.6-1.1,5.1-2.2,5.8-5.3c-1.5-1.8-2.3-4.4-5.3-4.8
		C143.8,126.9,147,126.6,147.3,129.1z M97.4,129.1c-2.1,1.2-3.7,4.4-6.2,2.4c1.8,4.4-2.2,4.6-2.9,7.7c3.9,0.4,4.4-3.4,5.8-5.3
		c1.6-2.1,5.1-1.9,5.8-4.8c-1.1-2.1-2.2-4.2-4.8-4.8C94.3,127.5,97.6,126.5,97.4,129.1z M150.2,130.5c-0.1,3.2,3.5,2.6,3.4,5.8
		c-1.9,0.8-2,3.4-4.3,3.8c-0.9-0.9-0.1-1.8,0-2.9c-2.6,0.6-2.6-1.5-5.3-1c1.2,2.4,3.6,3.5,4.3,6.2c-1.8,0.9-3.5,2-4.8,3.4
		c-1.7-0.9-2.3-2.8-4.8-2.9c0.1,2.8,3,2.8,3.8,4.8c-0.8,2.6-4.1,2.6-4.3,5.8c6.5-0.8,6.5-8.2,12-10.1c-0.2-1.1,0.1-1.8,0.5-2.4
		C157.2,140.3,156.2,131.2,150.2,130.5z M162.2,129.1c-1.8-1.9-2.8-4.6-6.2-4.8c0.3,2.8,3.5,2.6,3.8,5.3c-1.2,1.8-4,2.1-4.3,4.8
		C158.4,135.1,161,131.6,162.2,129.1z M96,146.9c-0.5,3.4,2.6,3.2,2.9,5.8c-0.6,2.1-4.2,1.3-3.8,4.3
		C102.3,156.2,102.2,148.7,96,146.9z M106.1,146.4c3.1,0,4-2.1,5.8-3.4c0.1-4.5-4-4.7-5.8-7.2c1.7-2.6,6.4-3,6.2-6.2
		c-0.1-2.1-2.8-3.1-5.3-4.3c-0.6,3.1,3.2,1.9,2.9,4.8c-1.5,1.4-3.7,2.1-4.3,4.3c-2.3-0.6-1.8-4-4.3-4.3c-0.6,3.3,2,3.5,2.4,5.8
		c-0.7,1.9-3.1,2-3.8,3.8c-2-0.7-1.9-3.6-4.8-3.4c-0.3,3,2.4,3,2.9,5.3c-1.5,0.6-2.1,2.1-3.8,2.4c-1.7-0.6-1.6-2.9-4.3-2.4
		c-0.3,2.5,2.9,1.6,2.4,4.3c-0.4,2.1-3.3,1.9-2.9,4.8c3.6-0.1,3.7-3.6,5.8-5.3c3.1-0.4,5.4-3.2,5.3-5.3c3.2,0.3,3.3-2.4,5.8-2.9
		c0.3,2.4,2.6,2.9,3.4,4.8c-1.4,1.1-2.4,2.7-4.3,3.4c-1.1-1.3-1.9-2.9-3.8-3.4c-0.3,3,2.5,2.9,2.9,5.3c-0.8,1.5-2.5,1.9-2.9,3.8
		C104.6,151.4,106.7,148.7,106.1,146.4z M171.8,130.1c-0.9,1.8-3.7,1.8-3.8,4.3c3.2,1.2,4.9-2.2,6.2-4.3c-1-2.2-2-4.4-4.8-4.8
		C169.3,127.8,171.6,127.9,171.8,130.1z M192.9,130.1c-1.3,0.9-2.8,1.6-3.4,3.4c-1.5-0.5-1.5-2.3-3.4-2.4c-0.6,2.7,2.1,2.1,1.4,4.8
		c-0.6,1.6-3.2,1.3-2.4,4.3c2.6-1.3,4.5-3.2,5.3-6.2c5.8-0.2,5.8-7.9,0.5-8.6C190.4,128.1,193.1,127.7,192.9,130.1z M128.6,134.9
		c-0.8,2.4-4.2,2.2-4.3,5.3c2.8,0.7,4.9-3.1,6.7-4.8c-0.4-2.8-2.6-3.8-4.8-4.8C125.4,133.6,128.7,132.5,128.6,134.9z M128.1,149.3
		c-1.2,1.5-3,2.4-4.3,3.8c-1-1.5-3.1-4-5.3-2.9c-0.2,2.8,2.8,2.4,3.8,3.8c-0.5,2-3.6,1.5-3.4,4.3c3.4,0,4.1-2.6,5.8-4.3
		c3-0.8,4.5-3.2,6.2-5.3c-1.7-2.5-3.4-5-6.7-5.8C124.6,146.1,128.3,145.7,128.1,149.3z M107,157.9c4.3-1.4,6-5.5,10.1-7.2
		c0.4-4.9,6-4.5,7.2-8.6c-1.9-2.6-4.5-3.7-6.2-5.8c-0.2-0.3,0.6-0.7,0.5-1c-1-1.7-3.6-3.5-5.8-4.3c0.2,2.5,2.5,3,3.4,4.8
		c-0.9,2.2-4.2,1.9-3.8,5.3c3.4,0.4,3-3,5.8-3.4c0.1,2.8,3.1,2.6,3.8,4.8c-2,1-3.7,2.4-5.3,3.8c-1.8-0.8-2.1-3-4.3-3.4
		c-1.1,2.3,2.7,3.2,2.9,5.8c-0.8,1.5-1.9,2.6-3.4,3.4c-1.6-1.3-2-3.8-4.8-3.8c-0.6,3.5,3.3,2.5,3.4,5.3c-1.8,0.9-2.7,2.7-4.8,3.4
		c-1.2-0.9-1.1-3.1-3.4-2.9c-0.2,2.5,2.1,2.3,1.9,4.8c-0.4,2-2.6,2.2-2.9,4.3C104.8,163,105.7,160.2,107,157.9z M194.4,138.2
		c-0.8-0.6-1.6-1.3-3.4-1c-0.5,1.9,1.4,1.4,1,3.4c-0.6,1.8-3.5,1.3-2.9,4.3c2.7-1,5.3-2.1,5.3-5.8c4.3,0.7,7.2-7.2,1.9-7.7
		C197.9,134.3,196.9,137,194.4,138.2z M134.9,141.6c-0.4,2.3-4,1.4-3.8,4.3c3.4-0.1,5-2.1,6.2-4.3c-1.1-2.4-2.3-4.7-5.3-5.3
		C131.6,139.4,134.7,139,134.9,141.6z M197.3,143c2.7,0,8.3-6.1,2.9-6.7C201.4,139.2,197.6,140.2,197.3,143z M179,151.2
		c1.3-0.1,2.1,0.2,1.9,1.4c-2,0.8-4.1,1.7-4.3,4.3c3.3,0,4.1-2.6,6.7-3.4c0.4,1,1.5,1.4,1.4,2.9c-1,1.9-3.2,2.5-3.4,5.3
		c4,0.2,4.5-3.2,5.8-5.8c-3.2-2-3.9-6.7-8.2-7.7C179,149.3,179,150.2,179,151.2z M178.5,145.9c7.3,1.2,7.7-10.1,1.4-8.6
		c0.3,2.1,2.7,2.1,2.9,4.3c-1,1.9-4.2,1.6-4.8,3.8c-1.8-0.3-2-2.2-3.8-2.4c-0.5,2.9,2.4,2.4,2.4,4.8c-1.2,1.5-3.1,2.3-3.4,4.8
		C176.3,151.7,179.7,149.4,178.5,145.9z M211.2,144.5c2.7-0.5,4.5-4,3.8-6.2c-0.1-0.4-0.4-0.6-1-0.5
		C213.7,140.5,211.6,141.7,211.2,144.5z M189.1,146.9c-0.6,2,1,1.9,1,3.4c-0.7,1.9-3.3,1.8-2.9,4.8c2.5-0.4,3.1-2.6,5.3-3.4
		C192.2,149.2,192,146.7,189.1,146.9z M194.4,142.1c-0.4,1.5,1.3,0.9,1,2.4c-1.1,1.3-3.2,1.6-3.4,3.8
		C195.7,149.5,199.4,142.2,194.4,142.1z M186.2,145.9c-0.6,1.9-2.8,2.3-2.9,4.8c3,1.2,4.5-2.7,5.3-5.3c-1-1.1-1.6-2.6-3.4-2.9
		C183.8,144.1,186.4,144.2,186.2,145.9z M204,150.7c3.4-0.8,4-4.3,4.8-7.7c-1.2,0.2-1-0.9-2.4-0.5
		C208.1,146.5,203.7,146.8,204,150.7z M193.4,150.7c-1.3,1.3,0.4,2,0.5,3.4c-1.5,1.4-4.1,1.7-3.8,4.8c3.4,0,3.5-3.2,6.2-3.8
		c-0.4,1.3,1,1,1,1.9c-1.7,2.2-2.1,7.6-6.2,5.8c-0.3,1.6,0.3,2.2,0.5,3.4c-1.6,1.2-3.2,2.6-3.8,4.8c2.8,0.4,5.4-3.5,6.2-6.7
		c3.4-0.1,3.1-3.9,5.3-5.3c-0.5,2.1,1.6,1.6,1.4,3.4c-1.5,1.3-3.3,2.1-3.4,4.8c6.1-0.9,4.4-9.7,9.6-11.5c0.3-4.2,4.4-4.5,4.8-8.6
		c-0.7-0.6,0-2.5-1.9-1.9c-1,6.7-6.7,8.7-8.2,14.9c0-2-3-0.8-2.4-3.4c1.6-1.1,7.4-5.8,1.9-6.7c1.6,3.1-3.6,6.9-5.3,3.8
		c2.2-2.3,7.3-6.6,2.4-9.1C198.3,147.1,196.7,153.2,193.4,150.7z M86.4,152.6c-0.4,2.2-3.9,1.3-3.4,4.3c3.1-0.2,4.7-2,5.8-4.3
		c-1-2.2-2.6-3.8-4.3-5.3C82.5,150.1,86.3,150.5,86.4,152.6z M170.9,154.5c-1.7,1-3.6,1.8-4.3,3.8c-1.8-0.4-1.2-3.3-3.8-2.9
		c-0.2,2.7,2.8,2.3,2.4,5.3c-0.7,2.1-3.5,2-3.8,4.3c3,1.6,3.7-2,5.8-2.9c0.1,1.9,2.4,1.5,2.4,3.4c-1.7,0.7-4.4,2.5-3.4,4.3
		c3.1,0,2.7-3.4,5.8-3.4c-0.2,1.8,1.9,1.3,1.4,3.4c-0.4,1.9-3.6,2.8-2.4,4.8c9.7-3.4,0.3-11.1-3.8-14.4c1.9-1.3,3-3.4,5.8-3.8
		c0.6,1.1,2.1,1.4,1.9,3.4c-0.6,1.7-2.9,1.6-2.4,4.3c6.4-3.5,4.2-5.3,0.5-10.1c-1.3-1.7-2.4-5.2-4.8-4.3
		C167.8,152.5,171,151.9,170.9,154.5z M135.3,155.5c-1.7,1.7-4.1,2.6-4.8,5.3c-2.3-1.3-2.6-4.5-5.3-5.3c-1.3,2.7,2.5,4.2,2.9,6.7
		c-0.4,1.9-3.2,1.3-2.9,3.8c4.3,0,4-4.7,8.2-4.8c0.9-2.6,3.4-3.6,4.3-6.2c-2.1-1.7-2.7-4.9-6.7-4.8
		C131.6,152.9,135,152.7,135.3,155.5z M147.8,155c-2.1,1.3-5.2,1.5-4.8,5.3c3.1-1,4.5-3.8,7.2-5.3c-1-2.2-2.6-3.8-4.8-4.8
		C144.8,153.2,147.7,152.7,147.8,155z M92.2,158.4c-0.2,3-3.4,3-4.3,5.3c-0.9-1-2.4-3.9-4.3-2.4c0.2,1.8,2.8,1.4,2.9,3.4
		c-0.1,2.8-5.4,1.8-3.4,5.3c2.8-1.2,5.1-2.9,5.8-6.2c6.4-0.3,7.5-9.1,0.5-9.6C88.8,156.9,92,156.1,92.2,158.4z M116.2,159.8
		c-0.2,2.4-3.1,2-2.9,4.8c6.3-0.5,6.5-9.1,0-9.6C112.8,158.1,116.5,156.9,116.2,159.8z M152.6,160.8c-0.6,2.3-4.9,2.3-3.4,5.3
		c5.7-0.9,7.9-8.8,1-10.1C150.7,157.9,152.2,158.8,152.6,160.8z M141.1,162.7c-2,0.7-3,2.4-4.3,3.8c-2-0.8-2.1-3.4-4.8-3.4
		c-0.5,3.2,3.3,2.2,2.9,5.3c-0.6,1.9-4.4,1.7-2.9,4.3c3.4,0.5,2.5-3.3,5.3-3.4c3.2,4.4,2.5,3.8,0,7.7c2.8-0.6,5.6-1.1,5.3-4.8
		c2.8-0.9,4.2-3.1,6.2-4.8c-1.2-2-2.2-4.2-5.3-4.3c-1.2-2.8-2.3-5.7-5.8-6.2C137.9,159.8,140.4,160.3,141.1,162.7z M183.3,188.1
		c4.5-1.9,3.9-8.9,9.1-10.1c0.4-1.4-0.7-1.2-0.5-2.4c2.8-1.3,4.6-3.7,5.3-7.2c-0.7-0.9-0.8-2.4-2.9-1.9c2.1,3.5-1.2,6.1-3.4,8.2
		c-0.6-0.6-1.7-0.5-2.9-0.5c-0.1-2.3-1-3.8-2.9-4.3c1.2,3.8,0.4,4.2-1,7.2c2.9,0.6,2.4-2.1,4.3-2.4c-0.4,1.3,1,1,1,1.9
		c-1.3,1.2-2,3.2-3.4,4.3c-0.1-0.8-0.8-1.1-1.9-1C186.6,183.5,183.2,184.2,183.3,188.1z M181.4,176.1c2.6,4.2-1.9,4.5-2.4,8.2
		c0.8,0,1.5,0.1,1.9,0.5C182.7,182.7,186.8,177.2,181.4,176.1z M184.3,166.1c5,0.4,8-7.1,2.9-8.6c-0.5,2.2,0.6,2.9,1,4.3
		c-1.6,1-2.6,2.5-3.8,3.8c-0.5-1.6-1.5,0-2.9-1c0,1.1,0,2.2,0,3.4c0.6,0.1,1.4-0.1,1.4,0.5c-0.7,1.8-1.8,3.3-3.4,4.3
		c-1.5-0.4-1.3-2.5-3.4-2.4c-0.9,3,1.8,2.3,1.9,4.3c-0.6,1.6-2.8,1.6-2.9,3.8c2.4,1,5-1.6,4.8-4.8
		C183.9,173.3,186.2,169.5,184.3,166.1z M110.4,165.6c-1.1,1.4-3.8,1.3-3.4,4.3c3.2-0.2,4.5-2.2,5.8-4.3c-1-2.7-2.6-4.8-5.8-5.3
		C106.6,163.6,110.2,162.9,110.4,165.6z M178.5,163.7c-0.8,1.6-2.9,1.9-2.9,4.3c3.5,0,3.8-3.2,5.8-4.8c-1.6-0.8-1.9-2.9-4.3-2.9
		C176.6,162.4,178.7,161.9,178.5,163.7z M97.9,164.6c-0.7,1.9-3.6,1.5-3.4,4.3c3.4-0.2,4.3-2.7,6.7-3.8c-1.2-2-2.2-4.2-5.3-4.3
		C95.5,163.2,98.2,162.4,97.9,164.6z M122.4,166.5c-0.2,2.3-3.4,1.7-3.4,4.3c3.5,0,4.9-2.1,5.8-4.8c-1.7-1.7-2.6-4.1-5.8-4.3
		C118.3,165.2,122.5,163.8,122.4,166.5z M210.2,168.5c3-0.9,3.8-3.9,5.8-5.8c-0.6-0.7-1.6-0.9-2.9-1
		C212.8,164.7,210.5,165.6,210.2,168.5z M158.9,167c-1.4,1.3-4,1.4-4.3,3.8c3,1.1,5.3-2.3,6.7-4.3c-1.7-1.5-2.4-3.9-5.3-4.3
		C155.5,165.3,158.9,164.5,158.9,167z M79.7,170.9c-0.9,1.7-2.9,2.2-3.4,4.3c3.4-0.1,5-2.1,6.2-4.3c-1-2.4-2.4-4.3-4.8-5.3
		C77.4,168.3,79.8,168.4,79.7,170.9z M92.2,171.3c-0.7,1.8-3.2,1.9-3.8,3.8c2.8,1,5.1-1.6,6.2-3.8c-1.6-1.9-1.9-5.1-5.3-5.3
		C88.8,169.3,91.9,168.8,92.2,171.3z M116.2,171.8c-0.2,2.2-2.7,2.1-2.9,4.3c7.3-0.1,5.4-8.7,0-9.6
		C113.2,169.3,115.7,169.5,116.2,171.8z M104.2,171.3c-0.6,1.8-3,1.8-2.9,4.3c2.5-0.7,4.2-2.2,5.3-4.3c-1-1.5-1.2-3.9-3.4-4.3
		c-0.3,0-0.6,0-1,0C102.6,168.8,103.8,169.6,104.2,171.3z M163.7,171.8c-0.6,2.3-4,1.8-4.3,4.3c3.3,1.1,5.6-2.2,6.7-4.8
		c-1.3-1.3-1.9-3.3-4.3-3.4C161.3,170.3,163.8,169.8,163.7,171.8z M128.6,173.7c-0.2,1.7-2.9,1-2.4,3.4c2.9-0.2,4.4-1.7,5.3-3.8
		c-1.9-1.5-2.6-4.1-5.3-4.8C125.9,171.4,128.4,171.4,128.6,173.7z M151.7,173.7c-2.1,0.5-3.4,1.7-4.3,3.4c2.9,0.8,5.6-1.9,6.7-4.3
		c-1.4-1.8-2.5-3.9-5.3-4.3C148.5,171.5,152.2,170.5,151.7,173.7z M85.9,176.6c-0.8,1.8-3.4,1.8-3.4,4.3c2.9,1.4,4.5-2.1,5.8-3.8
		c-0.6-2.7-2.4-4.3-5.3-4.8C82.7,175,85.7,174.4,85.9,176.6z M97.9,176.6c0,2.8-4.2,1.5-3.8,4.8c7.2,0.3,7.7-8.5,1-9.1
		C94.6,175.2,97.7,174.5,97.9,176.6z M107,173.3c0.1,2.4,3.3,1.8,3.4,4.3c-1.4,1.4-3.8,2-4.3,4.3C114.3,182.5,113.7,172.3,107,173.3
		z M167.5,176.1c-1.1,1.6-3.5,1.9-3.4,4.8c3.2-0.4,4.7-2.6,6.2-4.8c-0.6-2-2.1-3-4.3-3.4C165.6,174.9,167.7,174.4,167.5,176.1z
		 M123.3,178.5c-1.1,1.5-3.4,1.8-4.3,3.4c3.2,1.8,5.3-1.8,6.7-3.4c-1.2-2.5-2.6-4.8-5.8-5.3C119.7,176.5,123.2,175.8,123.3,178.5z
		 M134.4,179c-0.2,2.1-3.6,0.9-3.4,3.4c2.8,1.5,4.8-1.9,5.8-3.8c-1-2-2.2-3.9-4.8-4.3C131.2,177.4,134.9,176.1,134.4,179z
		 M145.4,179c-0.6,1.5-3,1.1-2.4,3.8c2.2-0.6,4.2-1.6,4.8-3.8c-0.8-2.3-2.6-3.5-4.8-4.3C142.6,177.3,144.6,177.6,145.4,179z
		 M156.5,178.1c-0.9,2.1-3.9,2.2-4.3,4.8c6.1,0.2,9.4-7.4,1.9-8.2C153.6,177.1,156,176.6,156.5,178.1z M172.8,180.9
		c-1,1.8-3.4,2-3.4,4.8c3.4-0.2,4.8-2.5,5.8-5.3c-1.1-1.3-1.9-2.9-3.8-3.4C170.7,179.5,172.8,179.1,172.8,180.9z M201.1,181.9
		c3.2-0.1,4-2.7,5.3-4.8C202.5,176.6,202.7,180.1,201.1,181.9z M78.7,183.3c-0.3,2.4-3.6,1.9-3.4,4.8c3.2-0.4,4.7-2.6,6.2-4.8
		c-0.7-2.7-2.2-4.5-4.8-5.3C76.6,180.7,78.9,180.7,78.7,183.3z M91.7,182.9c-0.9,2.2-3.9,2.2-3.8,5.3c6.2-0.4,7.6-9.1,1-10.1
		C88.1,181.4,91.6,180.3,91.7,182.9z M103.7,183.8c-1,1.4-3.4,1.4-3.8,3.4c2.7,1,5.8-1.5,6.2-4.3c-1.5-1.7-2.6-3.8-4.8-4.8
		C100.4,181.6,103.9,180.9,103.7,183.8z M116.6,184.3c-0.6,1.6-2.7,1.8-2.9,3.8c2.3,1,4.4-1.9,5.3-3.8c-1.2-2.3-2.6-4.4-4.8-5.8
		C111.7,180.6,116.9,181.5,116.6,184.3z M128.1,184.3c-0.4,1.9-3.2,1.3-2.9,3.8c3-0.2,4.6-1.8,5.3-4.3c-1.3-1.4-2.2-3.2-4.3-3.8
		C125.6,182.7,128.1,182.2,128.1,184.3z M139.2,184.3c-0.7,1.4-2.3,1.8-2.4,3.8c2.5-0.9,5.3-1.4,5.3-4.8c-1.9-0.8-2.3-3.1-4.8-3.4
		C136.6,182.7,139.2,182.2,139.2,184.3z M161.3,183.8c-1.6,1.1-3.5,2-3.8,4.3c5.1,0.1,8.2-7.3,1.9-8.2
		C158.8,182.4,160.8,182.4,161.3,183.8z M149.3,185.3c-0.4,1.4-2.3,1.2-1.9,3.4c5.9,0.1,5.7-7.1,0.5-7.7
		C147.6,183,149.2,183.4,149.3,185.3z M176.6,186.2c-1.7,0.7-3.2,1.6-3.4,3.8c3.3-0.2,4.4-2.6,5.8-4.8c-1.1-1-2-2.2-3.4-2.9
		C175.1,184.6,177,184.3,176.6,186.2z M97.4,189.1c-0.9,2.1-4.6,1.5-4.3,4.8c6.5-1.2,9.4-7.5,1.9-9.6
		C94.3,187.5,97.6,186.5,97.4,189.1z M183.3,190.1c-0.4-2.4-2.2-3.5-4.3-2.9c-0.4,2.2,2.4,1.1,2.4,2.9c-1.6,1.4-4.7,1.4-4.3,4.8
		c2.4-0.8,4-2.4,6.2-3.4c0,0.5,0.4,0.6,0.5,1c-0.8,2.1-3.4,2.4-4.3,4.3c1.3,2.6,3.1-0.5,4.3-1c0.2,1.9-3,2.1-1.4,3.8
		c2.4-1.1,4.8-2.2,4.8-5.8c-1.7-0.4-2.1,3-3.4,1.4C187,194,186.2,191.1,183.3,190.1z M191,186.7c-0.9-1-1.3-2.5-3.4-2.4
		c1.8,3.3-1.6,4.1-1.9,6.7c0.4,0.1,0.6,0.4,0.5,1C189.2,191.6,189.2,188.3,191,186.7z M85,189.6c-1.1,1.7-3.8,1.7-3.8,4.3
		c3.1-0.4,5.2-1.8,6.2-4.3c-1.2-2.2-2.3-4.4-5.3-4.8C81.5,187.9,84.5,187.5,85,189.6z M110.9,191c-2,0.4-3.8,1-3.8,3.4
		c3.3-0.3,5.2-1.9,6.2-4.3c-1.6-2.1-2.4-4.9-6.2-4.8C107.4,188.1,110.7,188,110.9,191z M164.6,188.1c-0.2,2.3-3.2,1.9-2.9,4.8
		c2.7-0.8,4.7-2.3,5.3-5.3c-0.8-1.3-1.7-2.4-3.8-2.4C162.5,187.4,164.8,186.5,164.6,188.1z M122.4,190.5c-1.1,1.3-3.7,1.1-3.8,3.4
		c3.8,0.4,4.6-2.1,6.2-3.8c-1.3-1.8-1.9-4.2-4.8-4.3C119.9,188.2,122.5,188,122.4,190.5z M133.9,190.1c-1,1.4-3.5,1.3-3.4,3.8
		c2.7-0.8,5.8-1.2,5.8-4.8c-1.5-1.1-2.1-3-4.8-2.9C131.3,188.5,134,187.9,133.9,190.1z M144.9,190.1c-0.9,1.5-3.9,0.9-3.4,3.8
		c2.2-0.4,3.6-1.6,5.3-2.4c0.3-3.7-1.6-5.1-4.8-5.3C142.1,188.4,144.6,188.2,144.9,190.1z M154.5,191c-1.5,0.6-3.6,0.6-3.4,2.9
		c3.1-0.3,4.9-1.8,6.2-3.8c-1.5-1-1.7-3.4-4.3-3.4C152.8,188.9,154.9,188.7,154.5,191z M169.4,192.9c-1,1.4-4.5,2.3-3.4,4.3
		c2.5-1,4.8-2.2,6.2-4.3c-0.6-2-2.6-2.6-4.3-3.4C167.2,192,169.7,191.1,169.4,192.9z M104.2,196.3c-0.9,1.4-3.5,1-2.9,3.8
		c2.9-0.3,4.5-1.9,5.3-4.3c-2.1-1.6-2.6-4.8-5.3-5.8C100.4,194,103.7,193.7,104.2,196.3z M77.8,195.8c-1.1,0.6-2.4,1.2-2.4,2.9
		c5.8,0.3,5.7-6.9,0.5-7.2C75.7,193.7,78,193.5,77.8,195.8z M87.8,192c-0.1,1.9,2.1,1.5,1.9,3.4c-0.4,2.3-4,1.5-3.4,4.8
		c2.9-1,5.5-2.1,5.8-5.8C90.6,193.8,89.7,190.7,87.8,192z M126.7,195.3c-0.2,2.2-2.8,2-2.9,4.3c4.7,1.2,7.4-7.2,1.4-8.2
		C124.6,193.9,126.7,193.5,126.7,195.3z M155.5,198.2c3.1,1.5,4.6-2.3,5.8-4.3c-1.6-0.5-1.5-2.7-3.8-2.4
		C159.5,194.7,157.2,196.2,155.5,198.2z M115.2,195.8c-0.2,2.2-3.6,1.2-2.9,4.3c5.2,0.1,7.4-8.1,1-8.2
		C113.2,194,115.6,193.5,115.2,195.8z M138.2,195.8c-0.2,2.3-3.1,2-3.4,4.3c2.7,1.1,4.6-2.4,5.8-4.3c-1.1-1.4-1.2-3.9-3.8-3.8
		C136.5,194.1,138.2,194.1,138.2,195.8z M146.4,199.2c2.7,0,3.3-2.2,4.8-3.4c-0.9-1.6-1.5-3.6-3.8-3.8
		C148.8,195.4,147.5,196.3,146.4,199.2z M173.3,197.7c-1.2,1.1-2.7,1.8-3.4,3.4c2.5,0.7,5.9-1.4,5.3-5.3c-1-0.4-1.4-1.5-2.9-1.4
		C172,196.1,173.3,196.2,173.3,197.7z M71,203c5.7-0.1,3.6-6.3,0-7.2C71.3,199.5,72.2,199.8,71,203z M97,202.1
		c-1.6,0.8-3.7,1.1-3.8,3.4c2.9-0.3,5.1-1.3,6.2-3.4c-1.6-2.4-3-5-5.8-6.2C93.2,199.4,95.8,200,97,202.1z M162.7,200.1
		c-2.3-0.2-2.5,1.7-3.8,2.4c-0.8-0.6-1.3-1.6-2.9-1.4c-0.6,1.9,1.4,1.2,1.4,2.4c-1.6,0.6-3.8,0.7-3.4,3.4c4.2-2,8-4.5,11.5-7.2
		c-0.8-1.7-1.7-3.4-3.8-3.8C161.5,197.8,163.1,197.9,162.7,200.1z M120.9,201.6c-1.4,1.1-3.9,1.2-3.8,3.8c2.9-0.6,5.4-1.7,6.2-4.3
		c-1.4-1.7-2.5-3.6-5.3-3.8C118,199.8,119.7,200.4,120.9,201.6z M131.5,203c-1.5,0.2-2.9,0.6-3.4,1.9c2.3,1.2,5.7-0.7,6.2-2.9
		c-1.3-1.8-2.3-3.8-4.3-4.8C128.5,199.9,132,200,131.5,203z M135.3,203c-0.3,1.7,1.7,1.2,1.4,2.9c-1.4,1.3-4.1,1.3-3.8,4.3
		C137.4,210.2,142.1,203.4,135.3,203z M145.4,202.1c0.4-3.2-1.5-4.3-3.8-4.8c-0.1,1.7,1.4,1.8,1.4,3.4c-1.2,1.2-2.9,1.9-3.8,3.4
		c0,0.3,0,0.6,0,1C142.3,205.1,142.4,202.1,145.4,202.1z M153.1,199.7c-0.9,1.5-3.7,1.1-3.8,3.4c3.4,0.1,5.2-1.6,5.8-4.3
		c-0.4-1-1.2-1.7-2.9-1.4C151.8,198.7,153.5,198.2,153.1,199.7z M108,202.1c-0.2,2-3.5,1-2.9,3.8c2.9-0.5,5.1-1.6,6.2-3.8
		c-0.8-2.1-2.3-3.4-4.8-3.8C106.2,200.3,107.9,200.4,108,202.1z M146.9,204.9c-1,0.9-2.5,1.4-3.8,1.9c0,0.8,0,1.6,0,2.4
		c2.4-1.1,4.4-2.6,6.2-4.3c-0.4-1.6-1.3-2.5-2.9-2.9C146,203.5,147.2,203.5,146.9,204.9z M89.8,206.9c-1.9,0.2-2.9,1.2-2.9,3.4
		c3.6,0.2,4.5-2.2,5.8-4.3c-1.6-1.2-2.5-2.9-5.3-2.9C87.4,205.1,89.7,204.8,89.8,206.9z M114.2,206.9c-0.8,2.5-3.6,3.1-4.8,5.3
		c5.6,1.7,10.5-8,2.9-9.1C111.8,205.5,114.1,205,114.2,206.9z M99.8,204c0.2,1.7,2.6,1.2,1.9,3.8c-2,0.4-2.8,2-3.8,3.4
		C105,212.9,105.7,202.4,99.8,204z M125.3,207.3c-1,1.6-3.1,2.1-3.8,3.8c3.8,0.1,5.9-1.5,6.7-4.3c-1.2-1.2-1.7-3.1-3.8-3.4
		C123.8,205.6,125.1,205.9,125.3,207.3z M157.4,210.2c3.2,0,4.7-1.7,4.8-4.8c-0.6-0.4-1.3-0.6-2.4-0.5
		C161.7,208,156.8,206.9,157.4,210.2z M150.2,208.8c-1,0.9-3.3,0.6-2.9,2.9c2.9,0.3,3.9-1.2,5.3-2.4c0.1-2.6-1-3.8-3.4-3.8
		C148.8,207.3,150.7,206.9,150.2,208.8z M82.6,211.2c-1.2,0.4-2.8,0.4-2.9,1.9c1.7,0.8,5.2-0.1,5.8-1.9c-1.3-1.6-1.9-3.9-4.3-4.3
		C80.4,209.5,82.4,209.4,82.6,211.2z M140.1,210.2c-1.5,0.9-4,0.8-3.8,3.4c2.8-0.3,4.4-1.6,6.2-2.9c-0.4-2-0.8-4-3.4-3.8
		C138.9,208.6,140.2,208.7,140.1,210.2z M95,212.6c-0.6,0.4-1.3,0.6-2.4,0.5c-0.1,0.9,0.5,1.1,0.5,1.9c1.9-0.5,2.9-1.9,5.3-1.9
		c-1.3-2.2-3-4-5.3-5.3C92.4,210.8,94.9,210.6,95,212.6z M130.1,211.7c-1.4,1.1-4.1,1-4.3,3.4c3.1-0.1,5.1-1.3,6.7-2.9
		c-0.6-2-1.2-3.9-3.4-4.3C128.4,208.7,129.3,210.8,130.1,211.7z M118.6,213.1c-0.9,1.5-4.3,0.5-4.3,2.9c2.7,1.4,4.2-2,7.2-1.9
		c0.1-3-2.3-3.4-4.3-4.3C116.6,211.8,118.7,211.3,118.6,213.1z M143.5,213.1c-1.4,1-4.6,0.2-4.3,2.9c3-0.2,5.5-0.9,6.7-2.9
		c-0.1-1.6-1.6-1.9-2.9-2.4C142.6,212.1,143.7,211.9,143.5,213.1z M130.1,217.9c2.7-0.7,5.6-1.1,6.2-3.8c-1.7,0.3-1.2-1.7-2.9-1.4
		C134.5,216.6,129.4,214.3,130.1,217.9z M117.1,219.8c3.4-0.4,6.6-1.1,7.7-3.8c-0.1-1.4-0.8-2-2.4-1.9
		C123.6,218.9,116.9,216,117.1,219.8z"/>
	<path d="M212.1,124.3c3.1,1,0.1,6.3-1.9,6.7c0.4,4.8-1.5,7.1-4.8,8.2c0.9,3.2-2.2,5-4.3,6.7c-0.6-3.5,2.5-3.2,1.9-6.7
		c1.2,0.2,1-0.9,2.4-0.5c1.3-2.2,3.2-3.8,2.9-7.7C210.8,130,210.9,126.5,212.1,124.3z"/>
	<path fill="#FDCA90" d="M27.4,172.8c3.1,6.5,9.7,10.6,14.9,15.4c2.3,2.2,5.1,5.8,9.6,6.7c3.1,5.2,10.4,6.2,14.9,10.1
		c-19.1-8.2-33-21.7-45.1-37c-1.7,1.4,0.8,2.7,0.5,4.3c-3.1-2.1-4-8.2-7.7-8.2c-1.1-1,0.4-1.6,0-3.4c-1.2-2-2.1-0.4-3.4-1
		c-0.5-3.8-4.6-6.3-4.8-10.1c-0.3-4.2,3.3-6.8,4.8-10.6c-1.2-4.1-3.6-6.9-5.8-10.1C8.2,115.3,18,108.2,24,97.4
		c9.4-8,17.9-17,29.3-23C68.1,85,79.4,99.1,84,120c0.5,0.5,0.9,1,1.4,1.4c-0.6,2.6,1.8,5.9-0.5,7.2c0,1.8,2.1,1.5,1.4,3.8
		c-2.6,4.2-7.1,8.2-9.6,13c-1.3,2.5-1.7,5.7-3.4,8.2c-0.2,0.3-1.4,0.3-1.4,0.5c-0.9,1.8-0.7,4.3-1.4,6.2c-0.7,2-2.7,4.6-3.4,7.2
		c-0.5,2,0.5,5.8-1.9,4.3c-0.1,1.1,0.1,1.8,1,1.9c-0.3,1.4-1-0.5-1.9,0c-0.8,2.4,2.5,0.7,1.9,2.9c-1.2,0.2-1-0.9-2.4-0.5
		c-0.3,2.1,2.4,1.1,1.9,3.4c-1.8,0-1.3-2.2-3.8-1.4c0.2,2,2.3,2.1,3.4,3.4c-2.9,1-5-3-8.2-3.4c0.9,4.5,7.6,3.3,8.2,8.2
		c-5.5-2.7-9.4-6.9-14.4-10.1c1.9,5.3,9.9,8.6,14.9,12.5c-1.9,2.2-4-2.8-7.2-2.4c-3.9-3.6-7.9-7.2-12.5-10.1
		c-0.6,1.9,2.2,4.5,4.8,4.8c3.1,5.5,10.7,6.6,14.4,11.5c-5.5-2.4-10.5-5.2-13.9-9.6c-5.4-1.3-6.4-7-11.5-8.6
		c-0.1,2.8,4.8,4.8,6.2,7.7c4.4,2.7,8.5,5.6,12,9.1c2.9,0.9,5.7,2,7.2,4.3c-6.6-3.4-12.8-6.7-18.2-11c-3.8-3-5.9-8.2-11-9.6
		c3,5.2,8.5,7.8,12,12.5c6.1,3.8,12.9,6.9,17.8,12c-12.8-6.1-22.4-15.3-32.6-24c7,10.7,18.2,17.3,29.3,24c-2.3,1-5.2-1.5-6.2-3.4
		C44,190.8,37.4,180,27.4,172.8z M29.3,114.7c1.7,4,8.4,6.6,12.5,5.3c3.8-1.2,7-6.8,5.8-12.5c-0.9-4.1-4.7-8.5-12-6.7
		C30.4,102.1,26.3,107.5,29.3,114.7z M20.2,167c0.4-1.8-0.5-2.3-1.9-2.4C18.1,166.2,18.8,166.9,20.2,167z M26.4,170.4
		c-0.2-2.1-1.1-3.4-3.4-3.4C22.9,169.4,24.4,170.1,26.4,170.4z M31.7,173.7c-0.1-1.6-0.6-2.9-2.4-2.9
		C28.3,172.1,30,173.7,31.7,173.7z M38.9,173.3c0.2-1.2-1.7-2.7-2.4-1.4C37.3,172.3,37.1,173.8,38.9,173.3z M35,173.7
		c0-0.5,0-1,0-1.4c-0.5,0-1,0-1.4,0C33.5,173.4,34,173.8,35,173.7z M45.1,175.7c0.1-1.8-1.3-2.3-2.9-2.4
		C42.5,174.7,43.3,175.7,45.1,175.7z M49.4,176.1c0-0.6,0-1.3,0-1.9c-0.8,0-1.6,0-2.4,0C47.4,175.3,47.9,176.2,49.4,176.1z
		 M61.4,175.7c0.3,0,0.6,0,1,0c0-0.6,0.6-0.7,0.5-1.4c-0.5,0-1,0-1.4,0C61.4,174.7,61.4,175.2,61.4,175.7z M55.2,176.6
		c0.3-1.6-0.8-1.8-1.9-1.9C53.1,176.2,53.7,176.8,55.2,176.6z M59,176.6c0-0.5,0-1,0-1.4c-0.5,0-1,0-1.4,0
		C57.5,176.2,58,176.7,59,176.6z"/>
	<path d="M107.5,111.8c-3.1,0.3-4.3,4.9-7.7,3.4c0.8-2.5,4.2-2.5,5.3-4.8c-0.4-2.5-3.2-2.5-3.4-5.3c3.1,0.9,4.9,3.1,5.8,6.2
		c1.8,1,4.2,1.5,4.8,3.8c1.3-2,4-2.7,5.3-4.8c-0.2-2.4-3.1-2-2.9-4.8c2.2-0.1,2.6,1.6,3.8,2.4c2-0.6,3.3-1.8,4.3-3.4
		c0.3-3.2-3.8-2-3.4-5.3c3.5,0.2,4.5,2.9,5.8,5.3c3.1,1.1,4.4,3.9,6.2,6.2c-0.8,2.8-4.2,2.8-4.8,5.8c3.3,3.4,6.7,6.7,10.1,10.1
		c1-1.9,3.3-2.5,4.3-4.3c0-2.6-3.5-1.6-2.9-4.8c2.7,0.6,4,2.7,5.3,4.8c-0.4,0.4-0.5,1.1-0.5,1.9c-2.1,0.9-3.1,3-5.8,3.4
		c-0.5,3.5-3.1,4.9-6.2,5.8c-0.6-3.4,3.3-2.4,3.8-4.8c0.3-2.7-2.5-2.3-2.9-4.3c-2.9,0.4-3.1,3.7-6.7,3.4c-0.1-3.2,3.8-2.3,4.3-4.8
		c-0.7-2.2-2.8-2.9-3.4-5.3c-2.6,1-3.2,4.2-6.7,4.3c-0.8,3.5-3.3,5.3-6.7,6.2c-0.1-3.1,3.2-2.9,4.3-4.8c-0.3-2.6-3.6-2.2-2.9-5.8
		c1.9,0.8,2.5,3,4.3,3.8c1.3-2.1,4-2.7,5.3-4.8c0.3-2.7-3-1.8-2.4-4.8c2,0.1,2.4,1.7,3.8,2.4c1.3-0.9,2.4-2,3.4-3.4
		c-0.4-2.4-2.3-3.5-3.8-4.8c-2.6,0.2-2.4,4.4-5.3,2.9c0,1,0,1.9,0,2.9c-5.3,2.5-6.9,8.7-13.4,10.1c0.2-3.4,3.1-3.9,5.3-5.3
		C110.9,114.2,107.6,114.6,107.5,111.8z"/>
	<path fill="#FBC9BF" d="M23,174.2c4.7,0.9,7.2,8.2,11.5,11C30.3,184,27.4,177.1,23,174.2z"/>
	<path d="M183.8,195.3c1.3,1.5,1.7-1.8,3.4-1.4c0,3.5-2.4,4.7-4.8,5.8c-1.6-1.8,1.6-2,1.4-3.8c-1.2,0.5-3,3.5-4.3,1
		c0.9-1.9,3.5-2.2,4.3-4.3c-0.1-0.4-0.5-0.5-0.5-1c-2.3,0.9-3.8,2.6-6.2,3.4c-0.4-3.4,2.7-3.3,4.3-4.8c0-1.8-2.8-0.7-2.4-2.9
		c2.2-0.6,3.9,0.5,4.3,2.9C186.2,191.1,187,194,183.8,195.3z"/>
	<path fill="#FBC9BF" d="M36.5,187.2c0.7,0.9,2.5,0.7,2.4,2.4C38.1,188.7,36.7,188.6,36.5,187.2z"/>
	<path fill="#FBC9BF" d="M149.7,257.7c-2,1.6-3.6-0.6-5.3-1c-8.9-2-18.6-3.5-26.9-6.7c-3.8-1.5-6.9-4.7-11-4.8
		c-5.7-5.5-15.4-7-20.2-13.4c-6-2.5-9.6-7.3-14.9-10.6c-0.5-0.6-0.4-1,0.5-1c4.2,4.4,11.9,5.3,16.3,9.6c3.1,0.3,5.5,1.2,6.7,3.4
		c7.1,2,14.4,3.9,20.6,6.7c8.5,0.8,15.6,3,24.5,3.4C143.1,248.4,148.6,250.9,149.7,257.7z"/>
</g>
</svg>
