<svg xmlns="http://www.w3.org/2000/svg" viewBox="0 0 390.2 248" enable-background="new 0 0 390.2 248"><path fill="#fd0" d="M39.8 8.1c2.1.7 3.2 4.4.5 4.8.9-2.6-2-3.1-.5-4.8zm-3.8 2.8c1.8-.4 1.7 2.1 1 2.9-.9-.5-.6-2-1-2.9zm319.1.5c-1 .9-1.9 1.9-3.4 2.4 1.2-1.9-.2-2.1-2.4-1.9.4-1.6 4.8-1.1 5.8-.5zm-321.5 1.5c.5 1.6-1.5.7-2.4 1-.5-1.7 1.4-.8 2.4-1zm-5.3.4c1.2.6 1.7 1.8 3.4 1.9 0 1.5-3.1 1.1-3.8.5-.3-1.1 0-1.8.4-2.4zm327.3 0h2.4c.4 1.8-1.4 1.5-1.4 2.9-.7-.6-.9-1.6-1-2.9zm-3.4 2h1.4c0 1.3.2 2.7-.5 3.4-1.1-.3-.8-2.1-2.9-1.4l2-2zm-323 2.8c-1.4 1-4.5 2.3-6.2 1.4 1.3-1.8 3.8-1.8 6.2-1.4zm336 0c.9-1.1 2.7 1.1 2.9 2.4-.6.6-1.7.5-2.9.5-.5-1.2 1.5-2.3 0-2.9zm-333.6 2c.7.4 1.5.7 1.4 1.9-.3-.1-1.8-1.2-1.9 0-1.4-.5.6-1.3.5-1.9zm-7.2 7.6c2.6.8 7.5-1.2 8.6 1.4.5-.3.5-1.1 1.4-1v1.4c3.5-.3 3 3.4 5.3 4.3-1.1 1.3 1.3 3.7-1.4 3.8.2-2-1.4-2.1-1-4.3-1.1 0-1.4.8-2.9.5.1-.8.8-1.1 1.9-1 0-3.2-5.1-1.3-5.3-4.3-3.3.7-4.5 3.5-7.2 4.8.8 2.5.5 5.3 1.4 7.2 1 2 3.1 2.4 3.8 4.3-.9.5-1.6-1.4-1.9 0-3.3-3.5-7.3-12.2-2.7-17.1zm348.5 0c1.4.7.7 2.6.5 3.8-1.6-.5-.4-2.8-.5-3.8zm-15.9 4.4h3.4c.4 1.8-2.3.6-3.4 1v-1zm2.9 2.4c1.9.5 4.3.5 5.3 1.9-1.9-.5-8.4-1.5-6.7 4.3.3 1.3 1.9 1.3 2.9 1.9-1.5 1.2-3.9-.9-5.3-1.4-1-1.9 2.5-3 0-3.4 1.1-1.2 3.3-1.5 3.8-3.3zm-329.7.4c2.1-.2 3 .8 3.4 2.4-.6.4-1.3.6-2.4.5.6-1.9-1.1-1.5-1-2.9zm4.8 0c2.2 2.9-.7 8-4.3 6.2-.3-2.3 3.3-.9 3.8-2.4.1-1.3-.3-3.1.5-3.8zm-8.6 1c1.7-.5.7 1.9 1 2.9-1.3-.1-1-1.6-1-2.9zm253.8 0h1.9c-1.3 6.1-4.1 10.6-7.2 14.9-2.1-1.1-2.3-4.7-.5-6.2-.5-2.6-.2-4.3 1-6.2 1.1.7 1.6 1.9 2.9 2.4 1.7-.7 2.3-2.3 1.9-4.9zm-2.8 1h1.9c.2 1-.3 1.3-.5 1.9-1.3.1-1.6-.7-1.4-1.9zm85.9.9c0 1.3.2 2.7-.5 3.4h-1c-2 .2-1.3-2.2-1.9-3.4.7-.7 2.7-.7 3.4 0z"/><path d="M102.2 38.8c1.5-.7 1.5 3.1 0 2.4v-2.4zm188.1 0c1.5-.7 1.5 3.1 0 2.4v-2.4zm2.9.5c1.4-.5.9 1.1 1 1.9h-1.4c-.3-1 .3-1.3.4-1.9z"/><path fill="#fd0" d="M270.2 39.7c-.2 1.9.8 4.9-1.9 4.3 1.2-1.5.8-2.2 0-3.8.4-.4 1-.5 1.9-.5zm94 1.5c1.4-.5.9 1.1 1 1.9-1.5-.3-1.5.9-2.4 0-.1-1.3 1.9-.4 1.4-1.9zm-329.7 1.9c-.6 1.5-2.2 2-4.3 1.9.4-1.6 2.7-1.5 4.3-1.9zm96 5.8c1.4 0 1.3 2.9-.5 2.4-1.2-1.2.7-.9.5-2.4zm-3.4 2.8l4.8 5.8c-1.5 2.7.8 4.3 1.9 5.8-.8 2.5-.1 5.2 3.4 4.8-.4 1.2-1.4 1.8-1 3.8-2.1-1.1-1.6-4.8-3.8-5.8l-.5-2.9c-.8-2.1-2.8-3-2.4-6.2-1.7-.8-1.8-3.3-2.4-5.3zm134.9.5l-1 1.4c-2-.3-.2-2.9 1-1.4z"/><path d="M334.5 55.1v3.8c-2.4 1-3.8 2.5-6.7 1.9-5.9-1.2-6-10.2 3.8-7.7.8.9 1.2 2.1 2.9 2zm-4.3 2.9c-.9.1-2.4-.5-1.9 1 2 .1 4 .2 4.8-1-.3-2.6-2.1-3.6-4.8-3.8.3 1.5 2.8 1 1.9 3.8zm-4.8-2.4c.2 1.1.5 2.1 1.4 2.4.1-.9-.5-1.1-.5-1.9.1-.7.8-.8 1-1.4-1.3-.4-1 .9-1.9.9z"/><path fill="#fd0" d="M41.2 55.6c-3.1-.7-3.3 1.5-4.8 2.4-.3-1.8.3-2.6 1-3.4 1.7 1.5 3.4-2.1 3.8 1zm93.1-1.5c.1 1.6-1.8 2.5-2.9 1.4.5-1 1.2-1.6 2.9-1.4zm193.9 0c2.7.2 4.5 1.3 4.8 3.8-.8 1.1-2.8 1-4.8 1-.5-1.4 1.1-.9 1.9-1 1-2.7-1.5-2.2-1.9-3.8zm-.9.5l-1 1.4.5 1.9c-.9-.3-1.3-1.3-1.4-2.4.9.1.6-1.2 1.9-.9zm-279.8 2.4c1.8-1.2 4 3.5 2.4 5.8-.9-1.8-.4-5.1-2.4-5.8zm86.8 1.9c1.8-.4 1.8 2.3 0 1.9v-1.9zm-89.7.5c2-.1.9 3.4-1 2.4-.3-1.5 1.7-.6 1-2.4zm303.8.5c-.7 1.1-1.1 2.4-3.4 1.9.3-1.5 2.4-1.1 3.4-1.9zm0 1.9c1.8-.4 1.8 2.3 0 1.9v-1.9zm-307.2.5c1.7-.5.4 2.2 1.9 1.9-.8 1.5-2.2-.5-1.9-1.9zm304.3.5c1.4-.1 1.5 1.9 1 2.4-1.7.3-1.7-1.7-1-2.4zm-197.2.5c1.4.7 2 2.2 2.4 3.8-1-.2-1.5.1-1.4 1-1.4-.6-1.5-4-1-4.8zm-99.9.4c2.1 1.2-1.7 4.2-3.4 4.8-1.3-.7.8-2-.5-2.4.9-.6 3.9.3 3.9-2.4zm87.4 0c1.9-.3 2.1 1.1 2.4 2.4-.8-.2-.9.4-1 1-1.1-.5-2.7-2-1.4-3.4zm216.9.5c-.6.8-1.2 1.7-2.4 1.9.1-1.4 1.1-3.1 2.4-1.9zm-114.2 4.8c1.6-.2 3.4 2.3 4.3 0 1.5 1.7-.8 2.8-1.4 4.3-1.5 3.9-2.5 8.5-4.3 12-1.7-.6-3.1-3.9-5.8-1.9-1.1-.4.2-2.3 1-2.4 1.9 1.8 6.4 1.1 5.3-2.9-.7-.8-1.7-1.2-2.9-1.4.4-.4.5-1.1.5-1.9 2.1 1 5.2.6 5.3-1.9.4-2.4-2.1-1.9-2-3.9zm-83 1.9c0 1.8-1.9 1.6-3.4 1.9-1.3-.1-.4 1.9-1.9 1.4-.1-2.8 3.3-2.3 5.3-3.3zm84 1.5l-1 1.4c-2-.3-.2-3 1-1.4zm7.6-.5c1.6.2 1.3 3.7-1 2.9-.3-1.7.6-2 1-2.9zm5.3 0c0 1.3-1.1 2.3-1.9 1.4-.2-1.2.7-1.5 1.9-1.4zm-201.1.5c-.4.8-1.2 1.4-1.4 2.4-1.1.2-1.8-.1-2.4-.5l3.8-1.9zm89.3 1.4c1.2 0 1.1 1.8.5 2.4-1.3 0-1.2-1.8-.5-2.4zm15.8.5c-.2.9-1.4.9-1 2.4-1.3-.2-1.6-1.3-1.9-2.4.7-.7 2.3-.7 2.9 0zm-83.5.5c1.7-.3 1.7 1.7 1 2.4-1.7.3-1.8-1.7-1-2.4zm242.4.5c-.5 1.1-1.2 2-1 3.8-2.6.1-.8-4 1-3.8zm-70.1.4c1.5-.6 1.5 4 0 3.4v-3.4zm3.4 0c.9-.2 1.5 2.2.5 2.4-1.8.5-.9-2-.5-2.4zm-91.2.5c1.3-.1 1.2 1 1.4 1.9h-1.9c-.1-.8.6-1 .5-1.9zm-106.1 1c-.4 2.3-2.3 3.1-4.3 3.8-.7-.7.1-2.3.5-3.4 0 .1 3.8-.4 3.8-.4z"/><path d="M323.4 77.2h1.4c2.2 2.6-3.3 7.4-4.3 3.8 2.2.6 1.9-1.3 3.8-1 .8-1.9-.9-1.5-.9-2.8zm14.9 0h3.8c.3 1.9-2.6.6-3.8 1v-1z"/><path fill="#fd0" d="M152.1 78.1h2.9c-.3 1.1-.7 2.2-.5 3.8-.8-1.2-2.3-1.8-2.4-3.8zm-93.1 9.6c-2.4-1.3 1.8-2.6.5-5.8-.1-1.4-2.3-.6-1.9-2.4 3.7-.6 3.6 5.7 1.4 8.2z"/><path d="M284.6 79.1c1.3-.1 2.4-.2 1.9 1.4-1.3.2-2.1-.1-1.9-1.4z"/><path fill="#fd0" d="M156.9 79.6l2.9.5c.1 1.8-.9 2.6-2.4 2.9-1-1-1.1-2-.5-3.4zm-101.8.9c-3.5-.4-5.1 3.8-2.9 6.2-4.3-.8-.7-8.9 2.9-6.2zm285.1 1c0 1.4-3.6-.7-2.9 1.4-1.3.3-1-1-1.9-1 1-.7 3.6-1.4 4.8-.4zm1 1.4c1.5.3.7 2.8 1.4 3.8-1.4-.2-1.6-1.8-1.4-3.8zm-2.9.5c1.4.1 2 .8 1.9 2.4-1.7.4-2.1-.7-1.9-2.4zm-182.8.5c1.9 1 4.1 1.2 5.8 0v1.9c-2.8-.2-5.7 1.5-5.8-1.9zm179.9 0c2 .3 1.7 2.8 2.9 3.8-1.7-.5-3-1.4-2.9-3.8zm-278.8 1c2 .6-.1 1.9-1.4 1.9-.5-1.6 1.2-1 1.4-1.9zm172.8.4c1.3.2 1.6 1.3 1.9 2.4h-1.9v-2.4zm-82.6 1.5h1.4v4.3c-1.3-.6-1.2-2.6-1.4-4.3zm193.4 0c3.3.5.7 4.8 0 6.7-.9-.2-2.1-.2-1.9-1.4 3.1.5 2.2-3.9 1.9-5.3zm-283.6.9c2-.2.4 2.1.5 2.9-1.2-1.1-2.7.1-2.9 1.4-1.3-.6-3.1-.8-2.9-2.9 2.4 1.2 4.4 1.2 5.3-1.4zm105.6.5c.2 1.3-1.8.5-1.9 1.4-1.7-1 1-2.8 1.9-1.4zm70.1-.5h2.9c.5 2.9-3.1 2-2.9 0z"/><path d="M131.5 89.2c2-.2.3 1.6.5 2.4-.4-.3-.8-.5-1.4-.5l.9-1.9z"/><path fill="#fd0" d="M163.1 90.6c.3 2.2-2.7 1.1-3.8 1.9.2-1.6 2.7-2.6 3.8-1.9zm179.5 1.5c.7 0 1.1 3.6-.5 2.9 0-1.2 0-2.4.5-2.9z"/><path d="M299.4 93c1.3 1.1 3.6 5.9 0 6.2l1.9 1-1 1.9c-9.3 3.2-10.3-11.5-.9-9.1zm-3.3 5.8c1.9.3 2 .4 3.4-.5v-2.4c-1.8.4-3.1 1.1-3.4 2.9zm10.5-5.8h1.4v1.9c-1.2.2-1.1-1-1.4-1.9z"/><path fill="#fd0" d="M95.5 94.9c1.2.2 1.6 1.3 2.9 1.4-1.4.4-1.9 1.6-3.8 1.4 0-.8-.4-1.2-1-1.4-.3-1.2 1.7-.4 1.9-1.4z"/><path d="M308.6 94.9h1.9c-.2 1.9.4 4.6-.5 5.8-1.9-.5-.3-4.5-1.4-5.8z"/><path fill="#fd0" d="M299.4 95.9v2.4c-1.4.9-1.5.8-3.4.5.4-1.8 1.7-2.5 3.4-2.9z"/><path d="M62.3 96.4c1.6-.5.7 1.5 1 2.4h-2.9c-.5-1.4 1.1-.9 1.9-1v-1.4z"/><path fill="#fd0" d="M162.7 98.8c.8-.1.8.5 1.4.5.1 1.6-.6 2.3-1.9 2.4-.1-1.2-.1-2.4.5-2.9z"/><path d="M275.5 99.3c1.4-.5.9 1.1 1 1.9h-1.5c-.2-1 .3-1.3.5-1.9zm-39.4.4c.8 0 1.8-.2 1.9.5.5 1.7-2.9 1.3-1.9-.5z"/><path fill="#fd0" d="M57.5 102.1c-.9 1.1-2.1 1.7-3.8 1.9 0-1.9 1.8-2 3.8-1.9z"/><path d="M308.1 102.1c.2 2.1-5.1 3.7-5.3 1 2.8.7 3.1-1.1 5.3-1z"/><path fill="#fd0" d="M333 102.6c-1.3.3-3.1 1.6-3.8 1-.5-2.1 3-1.6 3.8-1zm2.4-.5h2.9v1.4c-.7.7-2.6-.2-2.9-1.4zm0 4.8c-1.4.1-2.6.1-2.4-1.4 1-1 2.5 0 2.4 1.4zm-124.3 7.2c1.2.2 1.6 1.3 2.9 1.4-.7 2.2-3.1.4-2.9-1.4zm34.1 2.9c2.1 1.1 6.6-.2 8.6 1-2.4 1.2-5 2-8.6 1.9.3-1.5-1-1.9 0-2.9z"/><path d="M231.3 126.1c-.6-1.4-.6-3 0-4.3 1.3-.6 2.5-.6 3.8 0 .5 3.2-.5 5-3.8 4.3z"/><path fill="#fd0" d="M60.9 122.3c2.1 1.1-2.6 2.1-1.9 4.8-.9-.8-1-2.5-1-4.3.9-.3 2.8.6 2.9-.5zm7.7 2.4c1.2.2 3.3 4 1 4.8 1.1-3-2.5-3-1-4.8zm-4.8 2.4c.8-.1.8.5 1.4.5.1 1.3-.7 1.6-1.9 1.4-.2-1 .3-1.3.5-1.9zm118.5.5c2-.3-.2 3.8 1.9 3.4-.8 2.4-3.6-1.8-1.9-3.4zm-10.5 1.4c1.3-.1 1.6.7 1.4 1.9-1.3.1-2.1-.2-1.9-1.4.4.1.5-.2.5-.5z"/><path d="M263.9 131.4c1.2 1.6-.1 3.8 0 5.8-7.5 1.8-7-9.3 0-5.8zm-2.4 2.4c-.1 1.4 1.4 1.2 1.9 1.9v-2.4c-.8 0-1.4.1-1.9.5z"/><path fill="#fd0" d="M215 131.9c1.3-.1 2.1.2 1.9 1.4-1.3.2-2.1-.1-1.9-1.4z"/><path d="M135.8 132.9c-.2 3.4-.6 4.2-.5 6.2-1.4-.5-2.5-1.4-4.8-1-.6-1.1-1.3-2.2-1-4.3 1.8-1.3 3.6-1.6 6.3-.9zm-3.9 3.8c2.3.7 2.9-1.8 1.9-2.9-1.6 0-2.2 1-1.9 2.9z"/><path fill="#fd0" d="M263.5 133.3v2.4c-.6-.7-2-.6-1.9-1.9.4-.4 1-.5 1.9-.5zm-129.6.5c1 1.1.4 3.5-1.9 2.9-.4-1.9.2-2.9 1.9-2.9z"/><path d="M160.3 135.3c1.3-.1 1.6.7 1.4 1.9h-1.4v-1.9z"/><path fill="#fd0" d="M220.3 136.2c1.4.2 1.4 1.8 1.9 2.9-1.6-.1-2.1-1.1-1.9-2.9z"/><path d="M278.3 139.1c.8 1.6 2.4 2.4 1.9 5.3-1.5 2.4-6.1 1.5-6.7-1 .8-2.2 1-5.1 4.8-4.3zm-1.4 4.8c1.6.2 2.7-.1 2.4-1.9-.9.1-1.1-.5-1.9-.5.4 1.4-.7 1.2-.5 2.4zm-156.5-1.9c-.3 1.5-.4 3.1-1 4.3-2.3.5-5.2.8-7.2-1-1-5.8 5.3-5.1 8.2-3.3zm-6.2 2.4c.8.8 2.8.4 4.3.5.5-3.2-4.6-4-4.3-.5zm75.3-3.4c.5 1.6-1.5.7-2.4 1-.5-1.6 1.5-.8 2.4-1zm-12 .5v1.4c-.9-.1-2.4.5-1.9-1 .4-.3 1.1-.4 1.9-.4z"/><path fill="#fd0" d="M277.4 141.5l1.9.5c.3 1.8-.8 2.1-2.4 1.9-.2-1.2.9-1 .5-2.4z"/><path d="M218.3 142c.5 1.6-1.5.7-2.4 1-.5-1.7 1.5-.8 2.4-1z"/><path fill="#fd0" d="M202.5 147.7c.4.3.8.5 1.4.5-.8.4.1 2.4-1.4 1.9.3-1.5-.9-1.5 0-2.4z"/><path d="M221.2 147.7c.8 0 1.8-.2 1.9.5.6 1.7-2.9 1.3-1.9-.5zm2.9 0h1.4c-.3.7.6 2.5-.5 2.4-1.6.5-.7-1.5-.9-2.4zm72 8.2c-2.4.1-4.6.1-5.8-1-2.1-10.3 10.7-6.2 5.8 1zm-2.4-1.9c1.6.1 2.3-.6 2.4-1.9-.3-.9-1.3-1.3-2.4-1.4-.7.6-.7 2.6 0 3.3zm-190.6-3.9c1 1.1-.4 3 .5 4.8-2.1.9-6.5 1.9-7.2-1-.4-4.4 4.7-4.4 6.7-3.8zm-4.8 3.9c2 1.9 4.8-.3 2.9-2.4-1.8-.1-2.6.9-2.9 2.4z"/><path fill="#fd0" d="M293.7 150.6c1.1.2 2.1.5 2.4 1.4-.1 1.4-.8 2-2.4 1.9-.7-.6-.7-2.6 0-3.3zm-192.5 1c2 2.1-.9 4.3-2.9 2.4.3-1.5 1.1-2.5 2.9-2.4zm-30.2 2.4c-.1 1.4-.6 2.3-2.4 1.9.2-1.3 1.2-1.6 2.4-1.9zm143 3.8c-1 1-1.6-.1-2.4-.5.1-1.4 2.9-1.3 2.4.5z"/><path d="M312.4 164.1c-1.7 1.7-3.3 3.5-7.2 2.9-.6-1-1.4-1.8-2.4-2.4-1.6-6.7 4.2-9.7 8.6-6.2 1.5 2.8-.3 3.7 1 5.7zm-4.8.9c1-.9 2.2-1.6 2.9-2.9-1-.8-1.6-1.9-1.9-3.4-4.7-1.1-4 6.2-1 6.3z"/><path fill="#fd0" d="M69.5 157.8c-.4 1.5-1.7 2.2-3.8 1.9-.1-2 2.9-2.4 3.8-1.9zm117.6 0c4.4 1.5 3.9 8 10.6 7.2.4.4.5 1.1.5 1.9 2.6-.3 2.2-1.6 5.3-1.9-1 2.5-3.7 3.4-5.8 4.8-4.4-3.2-8.6-6.4-10.6-12z"/><path d="M89.7 162.1c-2 0-2.3-1.6-4.8-1-.8.9.8 2.4 1 3.8 2-.4 2.1-2.7 5.3-1.9-.9 1.5-3 1.8-3.8 3.4h-3.4c-5.6-4.4 4.5-12.1 5.7-4.3z"/><path fill="#fd0" d="M308.6 158.8c.3 1.4 1 2.6 1.9 3.4-.7 1.3-1.9 1.9-2.9 2.9-3-.2-3.7-7.5 1-6.3z"/><path d="M169.4 181.8l1 1.9h-1.9c-.4 1.5 1.7.6 1 2.4-3.3-1.1-1 3.5-3.8 2.9l.5 1.9c-3.5 1.4-3 7-6.7 8.2-.1-5.4 4.4-6.1 4.8-11 2.1-.1 2.3-2.1 2.4-4.3 3.8-3.3 4.3-9.8 7.7-13.4 0-4.3 2.1-6.5 4.3-8.6.7 1.3-.6 4-2.4 4.3.4 4.1-2.3 5.4-1.4 8.6-2.5-1-.6 2.9-3.4 2.9.4 1.4 2.3 1.2 1.9 3.4-1.5.4-.6-1.7-2.4-1-.8.4-1.1 1.2-1.6 1.8z"/><path fill="#fd0" d="M186.2 162.1c5.4 3 7.3 11.1 16.3 9.1-3.1 8.2-11.9.4-13-4.8-1.7-.8-2.9-2.2-3.3-4.3z"/><path d="M225.5 162.1c.5 1.6-1.5.7-2.4 1-.5-1.6 1.5-.8 2.4-1z"/><path fill="#fd0" d="M328.7 169.8c.6 2 3.6 3.6 1.9 6.2-1.2-5-5.3-5.9-9.6-3.4.3-3.2 4.4-2.6 7.7-2.8zm-140.1.5c4.5 2.8 8 9.5 13.9 6.7-4.4 9.6-12.6-1.4-13.9-6.7z"/><path fill="#78BDE8" d="M67.6 171.3c1.7 1.5 1.8-.3 4.8.5.1 1.2-.8 1.5-1 2.4-4.1-1-3.6 2.5-7.2 1.9 1.7-1 .6-2.9 1.4-3.8.3-.3 2.8.4 2-1zm5.8 1.4c4-1.4 2.9 6 1.4 8.2-1.9-2.4 1.6-7.5-1.4-8.2z"/><path d="M215.5 172.7c1.1-.7 1.8 1.2 1.9 0 1.4.7-.8 1.7-1.9 1.4v-1.4z"/><path fill="#fd0" d="M325.4 173.2c1.5-.6 1.2.8 1.9 1-.4 1.7-1.9 2.2-3.4 2.9-.3-2.2 1.4-2.2 1.5-3.9zm-255.9 3.3c1.7.2 2.3 1.5 2.4 3.4-1.3-.5-2.5-1.1-3.8-1.4-.4-1.6 1.3-1 1.4-2zm-4.3.5c-.7.7-1 1.9-1.4 2.9-1.1-.7 0-3.1 1.4-2.9zm261.1 1c2.2-.9 2.5 2.6 1.4 3.4-1.6 0-1.4-1.8-1.4-3.4z"/><path d="M216.4 178.5c.9.2 2.1.2 1.9 1.4-1.2.1-2.4.2-1.9-1.4z"/><path fill="#fd0" d="M62.8 180.9c.7 0 1.1 3.6-.5 2.9 0-1.3 0-2.4.5-2.9zm6.7.4c-.1 1.5-.9 2.3-2.4 2.4-1.2-1.2.9-4 2.4-2.4zm253.5 2.4c.7.9 2.5.7 2.4 2.4-1.9.3-2.2-1-2.4-2.4z"/><path fill="#78BDE8" d="M62.3 184.7c2.1.8.4 5.4 1 7.7.4.7 1.5.7 2.4 1-.3 1.1-.4 2.5-1 3.4-3.6-1.3-2-7.7-2.4-12.1z"/><path fill="#fd0" d="M68.6 185.6c2.3 1-1.7 1.9-1.9 3.4-1.5.1-1.6-1.2-1.9-2.4.4-1.1 3.4.2 3.8-1z"/><path fill="#78BDE8" d="M68.6 189h1.9l-3.8 4.8c-1.6-1.9 2-2.7 1.9-4.8z"/><path fill="#fd0" d="M122.8 190c1.4 0 1.6 1.2 2.9 1.4.2 1.2-.9 1-.5 2.4l-3.4-1c-.2-1.5.7-1.8 1-2.8zm66.7 0c1.2.2 2.2 1.6 1.4 2.4 2.2 2.1 5.3 4.8 8.2 4.8-.2.9-1.4.9-1 2.4-1.8-.7-2.2-.4-1.4 1.4-4.5-1.5-6.2-5.9-7.2-11zm85 1.9c-.1 1.7-1.6 1.9-3.4 1.9-.4-.9-.8-1.8-1-2.9 2.2-.1 3.5-.9 4.4 1zm-28.8 2.9h2.4c.3 1.9-1 2.2-1.4 3.4-2.4-.2-1-2.6-1-3.4z"/><path fill="#78BDE8" d="M81.5 196.2l1.9.5c.1 1.6-.6 2.3-1.9 2.4v-2.9zm4.4 1.4c1.2.9 2 2.1 2.4 3.8-1.5 1.8-2 4.7-3.8 6.2 1.2-4 0-6.7 1.4-10zm-14.4.5h1.9c.1 1.3-1 1.2-1.9 1.4v-1.4z"/><path fill="#fd0" d="M317.2 199.1c1.8.4 4.1 2.3 3.4 3.8-1.1-1.3-2.8-2-3.4-3.8zm-1.9.5c-1.6 1.6-2 4.4-2.4 7.2-3.4-1.5-.6-7.5 2.4-7.2z"/><path d="M158.3 200c1.2.1 1.9.7 1.9 1.9h-1.9v-1.9z"/><path fill="#fd0" d="M192.4 200c1 1.1 2 2.1 3.8 2.4-.9 2.8-4.2.4-3.8-2.4zm-111.8 1c2.6 1 2.7 4.2 1.4 6.7-.8-2.1-.2-5.5-3.8-4.8.1-1.3 2-.8 2.4-1.9zm237.1 6.2c-1.2.2-1-.9-2.4-.5-2.9-6.4 6.8-4.7 2.4.5zm-242.4-2.8c1.2.5-.6 2.5 0 4.3.8 2.5 2.3 1.7 3.8 3.4-5.3 1.7-5.8-5.2-3.8-7.7z"/><path fill="#78BDE8" d="M70 204.8c3.2 2.4-.1 9.7 6.7 9.1.3 1.7 1 2.8 1.9 3.8-5.5.6-6.6-7.1-10.6-9.6.2-1.5 2-1.5 2-3.3z"/><path d="M237.5 205.3c2.6 1.9 3.2 5.4 4.8 8.2.7 1.2 2.5 2 1.9 3.8-1.1-.5-2.9-3.3-3.8-1 1.7.7 2.1 1.7 1.4 3.8-1.5-.4-1.5-2-3.4-1 0-2.2.9-3.6 2.4-4.3-.1-2.9-3.8-6.1-3.3-9.5z"/><path fill="#fd0" d="M322 205.8c-.4 1.2-1.4 1.8-1 3.8-1.8.1-1.4-4.9 1-3.8z"/><path d="M117.5 207.7c.5 1.6-1.5.7-2.4 1-.4-1.6 1.5-.8 2.4-1z"/><path fill="#fd0" d="M80.6 209.2c0 1.2-1.8 1.1-2.4.5 0-1.3 1.8-1.2 2.4-.5zm237.6-.5c-.4 1.4.7 1.2.5 2.4-2.4.4-3.3-.6-4.3-1.4 0-1.5 2.3-.9 3.8-1z"/><path fill="#78BDE8" d="M80.6 213c1 .1 1 1.2 1 2.4-1 .8-4.1.9-3.4-1.4 1.2 0 2.3.1 2.4-1z"/><path fill="#fd0" d="M297 226.4c-.5-2.4 2.2-1.7 2.4-3.4-.6-2.1.2-3.4.5-5.8-1.5-1.7-5.8-.6-6.2-3.4-2.4-.3-.7 4.2-3.4 2.4v6.2c1.3 1.5 3.4 3.5 5.8 2.4-.2 1.4-.6 2.6-1.9 2.9-3.2-1.3-4.7-4.3-6.2-7.2.9-2.9 2.1-7.1 4.8-7.7-.4.1 4.8.5 5.8 1 .1.1 2.6 2.5 2.9 3.4 1.1 3.9-.9 9.7-4.5 9.2z"/><path fill="#78BDE8" d="M94 215.9c1.1 1.8-1.2 4.2-2.9 4.8-.2 2.3-1 5.1 0 7.2 3-.2 4 1.8 5.3 3.4-3.6 1.5-6.8-5.1-10.1-2.4 1.1-1.8-1-1.8-1-3.8 1.1-.3.7.9 1.4 1 1.7-.9-.6-1.9-.5-2.9 1.7-.4 1.8.7 3.4.5.7-.5.5-2.7-.5-3.8 1.4.3.8-1.4 1.4-1.9 1-.9 3.3-.5 3.5-2.1z"/><path fill="#fd0" d="M105.1 216.8c.3 1.4 1.8 1.7 1.4 3.8-.6 2.1-2.9 2.6-2.9 5.3-.6-.5-.9-1.4-2.4-1 1.1-1.5 1.5-3.6 1.9-5.8-.4-2.1-3.5-1.3-5.8-1.4 2.2-2.8 3.7-.6 7.8-.9z"/><path d="M235.6 216.8c1.3-.1 2.4-.2 1.9 1.4-1.2.2-2-.1-1.9-1.4z"/><path fill="#78BDE8" d="M135.8 217.8c1.5-.2 1.1 1.5 2.9 1 .2 2.3 1.8 4.8 1.4 7.7-.5 3.6-3.9 5.3-5.3 7.7-2.5-3.5 3.8-6 2.4-11.5-.9-1.2-2.7-3.1-1.4-4.9z"/><path fill="#fd0" d="M296.1 217.8c1.1.5.6 2.6 1.4 3.4-1.2.7-1.6 2.3-3.8 1.9-1.5-2.2-2.4-6.3 2.4-5.3zm-198.7 1c-.8 1.6-1.8 3-1.9 5.3.2 1.7 3.1.7 4.8 1-.7 1.9 1 1.5 1 2.9-4.1 1.1-5.9-1-7.7-3.4 1.3-1.9.7-5.7 3.8-5.8zm3.3.9c0 1.8-.2 3.3-1.9 3.4-1-1.3-.7-4.3 1.9-3.4z"/><path d="M308.1 219.7v4.3c-3.7.6-3.3-4.5 0-4.3z"/><path fill="#fd0" d="M135.3 223.6c-.9 6.2-3.4 10.6-10.6 10.6-1.5-2.1-1.2-6.6 1.4-7.2.2 1.9-.4 4.6.5 5.8 4.2-.9 7.2-3.1 6.7-8.6-2.8-.8-4.3 1.5-5.8.5 1-2.8 5.8-2.1 7.8-1.1zm129.6.9c-1.2 1.2-2.6 2.1-3.8 3.4-1.3.4-1-1-1.9-1 .5-2.8 3.6-5 5.7-2.4z"/><path d="M271.1 223.6c3 1.5 6.3 2.6 7.2 6.2-2.9-.8-3.6-3.8-6.7-4.3-.4-.4-.5-1.1-.5-1.9z"/><path fill="#fd0" d="M266.8 227.9c.6.6.5 1.7.5 2.9-1.8.1-2.6-.9-2.9-2.4.6-.4 1.3-.7 2.4-.5z"/><path fill="#78BDE8" d="M119.9 228.4c3.4.8-2 2-.5 5.3.6 1.1 4-.5 2.9 2.4h4.8c-1.8 2.2-6.9.4-9.6.5 0-1.4-.1-2.7-2.4-2.9 1.2-2.3 4.7-2.1 4.8-5.3z"/><path fill="#fd0" d="M272.1 229.8c-.1 2.4-1.1 3.4 1 3.4-2.1 1.9-5.9 2.4-3.8-2.9.5-.6 1.6-.6 2.8-.5zm-9.6 1c2.4-.3 2.1 2.1 2.9 3.4-1.5-.7-2.8-1.4-2.9-3.4z"/><path fill="#78BDE8" d="M131 235.1c.5 1.7-1.9.7-2.9 1 .1-1.3 1.6-1 2.9-1zm142.5 5.3c-1.5.8-5.7.8-7.2 0 2.5-.2 6-2.7 7.2 0z"/><path fill="#00447C" d="M145.4 100.7c1.5-2-1.5-3-.5-4.3h-2.4c-1.8-3-5.1-4.5-6.2-8.2-5.4-4.2-8.5-11-11-16.8-.6-1.5.8-1.2 1-1.9-3-1-3.3-4.7-4.3-7.7.7 0 1.4.1 1.4-.5-.5-.8-2.2-.3-2.4-1.4 1.6-1.7.3-1.2-.5-3.8-.5-1.9.3-5.1 0-6.7l-1-1.9c-.2-3 1.3-5.8 0-8.2 2.2-.3 1.4 1.9 1.9 2.9 1.2 2.4 3 4.8 3.8 7.7 1.1 3.8 1.7 7.7 2.9 11.5 4.8 6.7 6.7 16.4 13.4 21.1.2 2 1.7 2.8 2.9 3.8 1.8 5.2 3.4 10.6 5.3 15.8 1.8-3.5 1.9-8.4 1.4-12-.2-1.2-.6-1.6-1-3.8l-1.4-2.4.5-1.9c-.1-.7-1.2-1.6-1.4-2.4-1.1-3.4-1.1-8.5-1.9-11-.6-2-2.3-5.1-2.4-8.6 3.7 2.9 3.5 8.9 4.8 13.9.9 3.5 3 6.6 3.8 9.6 4.4 4.7 6.4 11.8 9.1 18.2.2 1-.3 1.3-.5 1.9 1.5 1.9 2.8 3.9 2.4 7.7l4.3 2.9c-.7-1.6.3-5.2 0-8.6-.3-3.6-2.5-7.7-.5-10.6 3.5 2.7 2.5 10 5.8 13 1.1-1.2.2-4.6-1.4-4.8.3-6.3-3.8-12.1-5.8-17.8-4.8-5.4-7.1-13.4-12-18.7-3.7-3.3-6.6-7.5-9.1-12-3.2-1.6-6-3.6-7.2-7.2-2.8-2.2-5.1-4.8-8.6-6.2-1.4-4-7-3.8-9.1-7.2-1.8.1-3.1-1.4-4.8-2.4-2.7-1.6-5.8-2.7-7.2-5.8h-2.9c-5.5-3.1-11.5-5.9-17.8-8.6-.8-.4-1.9-.7-2.4-1-.3-.2-.3-1.3-.5-1.4-.5-.2-1.4.3-1.9 0-1.6-.8-6.2-3-9.1-3.8-4.7-1.3-8.3-1.5-13.4-2.9-15.2-4.3-40.7-4.2-38.9 16.2-1 .3-1.8.7-1.4 2.4-.4 1.5 1.6.7 1.4 1.9-2.3 9.4 4.6 17.3 10.1 22.1.1 1.4-.3 3.1.5 3.8.1 1 2.1.1 2.4 1 1.7 6.5 6.4 9.9 6.7 17.8 2.4.5 2 3.8 4.3 4.3.7 7.9 5 14.1 6.2 23 .5 3.6 4.9 9.4 2.4 13.9.4 1.6 1.1.1 1.9 1 .1 5.1-1.4 6.7.5 10.6-2.4-.6-2.4-.6-4.3-1.4.3-1.6 1.8-.7 2.9-.5l-1-2.9c-1.2-.2-1 .9-2.4.5.6-1.5 1.9-2.3 2.9-3.4-1.2-1.6-1.8 1.3-3.8.5-.8-1.9 1-1.9 1.4-4.3-.8-1.5-1.8 1.7-2.9 0-.5-2.4 1-2.9 1.4-4.3-.1-1-2.1-.1-2.4-1-.2-1.7.9-4.7-1.9-3.8-.4-1.7.5-2 1-2.9-.1-1.1-2-.2-2.9-.5.8-1 1-2.6 1.4-3.8-1.2-1.3-3 .8-3.8-1-.1-1.7 1.6-1.6 1.9-2.9-.2-1.1-2.4-.2-3.4-.5.2-1.1.8-1.8.5-3.4-.3-1.4-1 .5-1.9 0-1-2.1-.6-2.5.5-4.3-.3-1.1-3 .1-3.4-1-.5-2 1-1.9 1-3.4-1.6-.7-3.9-.6-4.3-2.4-.5-1.8 1.8-.8 1.4-2.4-1.4-2.2-3.1 1.2-4.3-1.4-.5-2 1-1.9 1-3.4-.4-1.2-3.3.1-3.8-1-.2-1.5 1.5-1.1 1-2.9-.1-1.1-2-.2-2.9-.5 0-2 1.7-2.4.5-4.3-2.1-.7-1 1.9-2.9 1.4-.7-.7-.7-3.1 0-3.8-.4-1.2-3.3.1-3.8-1-.2-1.8.1-3.1 1-3.8-.2-1.1-2.4-.2-3.4-.5-1.2-1.1.7-1.3 1-2.4-.5-1.3-4 .5-3.8-1.4-1.5-1.5 1.6-.8 1-2.9-1.2-1.8-2.6 1.4-3.4 0-1.5-1.5 1.1-1.7 1-3.4-.5-1.2-3.7.2-4.3-1-.4-2.1 2.6-.9 2.4-2.9-.5-1.1-3-.2-4.3-.5l-.5-1.9 2.4-2.9c-1.1-.9-4.1 0-4.3-1.9.1-1.6 2.4-1.1 2.9-2.4-.5-1.8-4.3-.2-3.8-2.9 1.5-.4 3.6-.3 3.4-2.4-.4-1.2-3.3.1-3.8-1 .1-2.1 3-1.5 4.3-2.4.2-2.4-3.6-.8-3.4-3.4.7-1.4 2.5-1.6 4.8-1.4.3-1.8-.8-2.1-2.4-1.9.2-1.1.6-2 1-2.9l4.8.5c0-1.8-2.3-1.2-1.9-3.4 1.6-1.5 2.5.7 4.3.5 1.7-1.1-1.1-1.7-.5-3.4 1.4-1.1 3.2.7 4.9.8 1.6-.8-.9-2.6.5-3.4 2.3-1.1 6.2-.6 7.2-2.9 11.8-1.5 24.3-2.4 35.5 0 2.2.5 4.1 2.1 6.2 2.4 1.3.2 3-.3 4.3 0 1.4.3 2.7 1.6 4.3 1.9 1 .2 2.1-.2 2.9 0 1 .3 2.3 1.7 3.4 1.9 3.4.8 6.9 1.9 9.1 3.8 3.4.1 5.8 1.2 7.2 3.4 21.8 10 39.7 24 52.8 42.7 6.2 4.8 10.3 13.2 15.4 20.6 1.1 1.6 2.7 2.5 2.9 5.8 2.7 1 1.7 5.7 4.8 6.2 2.1 9.2 9.2 15 7.2 24.5-3.7.3-4.2-2.6-5.8-4.3-1.9.5-2.4 2.4-2.9 4.3-5.9-.3-8.3-1.1-12-3.4-.1-1.3 1.9-.4 1.4-1.9-1.5-.4-1.5.7-1.9 1.4-2.6-2-3.5-5.8-7.7-6.2-.9-3-4.4-3.7-7.1-5.1z"/><path d="M186.7 108.4c1.2-.9.2-3.8 1.4-5.3.2-.3 1.3-.1 1.4-.5.9-2.1.6-4.1 1.9-5.8 1-1.2 3.5-2.8 4.8-2.9 1.1-.1 4.8.6 6.2 1.9 2.4 2.2 1.8 6.2 3.4 10.1 2.9-1.7 2.8-5 4.3-7.7 2.2-3.9 4.9-6.5 7.2-11 1.8-3.5 4.2-7.6 6.7-11 3.4-4.6 7.5-8.3 10.1-13.4 2-1.2 3.3-3.1 4.8-4.8 1.5-1.8 3.3-3.1 4.8-4.8 1.4-1.6 1.9-3.8 3.4-5.3 1.7-1.7 4.5-2.7 6.2-4.3 2-1.8 3.1-3.8 4.8-5.8 7-3.4 12-8.8 19.2-12 3.5-2.8 8.2-4.7 12.5-6.7 2.3-1.1 5.7-2 7.2-4.3 6.9-2.3 16.3-4.8 24.5-6.7 2-.5 3.8-1.6 5.8-1.9 3.5-.7 7.4-.4 11-1 5.1-.8 14.4-.9 20.2 0 2.1.3 4.4-.3 6.2 0 1.5.2 3.2 1.3 5.3 1.9 1.9.6 4.2.7 5.8 1.4 1.1.6 2.1 2 3.4 2.9l3.8 1.9c3.4 2.9 7 9.8 7.2 14.4.3 5.7-2.5 9.4-2.9 15.4-4.5 8.5-11.2 14.7-15.8 23-.8.4-1.4 1.2-2.4 1.4-2 4.4-5.2 8.3-7.7 12.5-1.3 2.3-1.8 5.7-4.3 7.2-1.2 4.4-3.1 8.1-5.8 11-.2 2.3-1 4.9-1.9 7.2-.8 2-2.2 3.8-2.9 5.8v2.4c-.7 2.2-1.9 4.1-2.4 6.2-.8 3.9-.5 7.9-1.9 11.5l-1.9 2.4c-.5 1-.5 2.6-1 3.4-2 3.3-6.2 6.6-8.6 7.7-2.2 1-5.2 1.3-8.2 1.9l12 17.8c2.1 3.5 2.9 7.1 3.8 11 2 7.9 3.9 17.7 1.9 27.8-.5 2.3-1.6 4.7-1.9 6.7-.4 3.2-1.7 4.9-3.4 7.7-3.5 5.9-9.3 11.7-14.9 15.8-1.9 1.4-3.6 2.8-6.2 4.3-4.8 2.7-13.7 6-21.1 6.7-6.7.7-13.3.8-21.1.5-2.7-.1-6.2 0-7.7-.5l-1.4-1.4c-.4-.3-1.5-.1-1.9-.5-3-2.8-4.9-8.5-8.6-10.6-3.2-1.8-6.5-1.3-11.5-2.4-5-4.1-8.8-11.2-13-17.3-5.7-8.3-10.2-15.2-13.9-25.4-3.1-2.5-4-7.2-5.8-11-2 6.3-2.5 14.2-4.3 21.1-1.1 4.2-4.1 15.3-10.1 10.6-2.1-1.7-1.7-2.5-3.4-6.2-1.3-2.9-3.3-7.5-3.8-12-.6-4.8-.4-7.5-1-12-1.4 0-1.1 1.7-1.4 2.4-2.4 5.3-5.4 12.6-8.2 18.2-3.3 6.8-7.3 13.2-10.1 20.2-2.4 2-3.5 4.1-4.8 6.2-1.1 1.9-1.9 5.1-4.3 6.7-2 1.3-4.5.9-6.7 1.4-.8.2-1.5 1.1-2.4 1.4-2.2.7-4.8.1-6.2 1-3.9 2.2-3.6 7.8-6.2 11-7.4 1.6-17.9 0-25 1.9-4-1.5-7.9-.6-11.5-1.9-1-.3-1.9-1.2-2.9-1.4-2-.6-4.3-.3-6.2-1-2.5-.9-5.3-3.7-9.1-3.8-2.3-2.5-5.2-4.4-8.6-5.8-.4-2.4-2.5-3-4.3-3.8-4.2-4.1-6.3-9-9.6-14.4-1.7-2.7-3.5-4-4.3-8.2-2-10.6-.8-22.8 2.4-32.2.5-1.3 1.4-2.4 1.9-3.8 1.3-3.5 2-5.5 3.8-8.6.4-.7 1.6-1.2 1.9-1.9l.5-2.9c1.5-2.4 4.7-5.1 6.7-7.7 2.2-2.7 4.7-5.1 6.2-7.7-3.4 2.3-6.6-.4-11 0-6.4-4.1-11-10.1-15.4-16.3-.6-5-1.7-9.5-3.8-13 .1-5.5-2.5-8.3-4.8-11.5-1.8-7-5.7-11.8-8.2-18.2-.5-1.3-2.5-1-2.9-2.4-2.5-4.5-5.1-10.3-8.7-14.7-.2-.3-1.3-.3-1.4-.5v-1.4c-.6-.8-1.2-.7-1.9-1.4-1.4-1.3-2.4-4.3-3.8-6.2-1-1.3-2.3-2-3.4-3.4-.7-.8-1.3-2.1-1.9-2.9-2.6-3.1-4.6-6.1-6.3-11.1-.7-2.2-2.5-4.6-2.9-6.7-.5-3.2-.6-8.1 0-11.5.2-1.2 1.1-2.1 1.9-3.8 1.9-3.9 3-6.9 7.2-9.6.6-.4 2.3-.3 3.4-1 1.5-.8 5-3.6 7.2-4.3 3-1 7.7-1.2 11.5-1.9 11.8-2.2 26.9.1 37.9 1.9 2.6 2.5 8.6 1.6 11 4.3 4.6 0 7.8 1.5 10.1 3.8 4.9.3 9 3.7 13 5.8 4 2 7.8 4.4 12 6.7 2.8 1.5 6 2.6 8.2 4.3l4.3 4.8c2.3 1.8 4.8 2.7 6.7 4.3 2.3 2 3.5 4.3 6.2 6.2 1.3.9 4.4 3.6 5.8 5.3 1 1.2 1.3 3 2.4 4.3 1.7 2 4.4 3.2 6.2 5.3 1.7 1.9 2.6 4.9 4.3 7.2l2.9 2.9c1.4 2 1.9 3.2 3.4 5.3 1.7 2.3 3.4 6.1 5.3 9.1 1.4 2.2 4.1 4 4.8 7.7 2.5 2.7 4.5 5.7 5.3 10.1 2.2 2.3 3.6 5.4 5.3 8.2zm-34.1-2.4c4.2.4 5 4.2 7.7 6.2.4-.7.4-1.9 1.9-1.4.4 1.5-1.6.7-1.4 1.9 3.7 2.2 6.1 3.1 12 3.4.5-1.9.9-3.9 2.9-4.3 1.6 1.8 2.1 4.6 5.8 4.3 2-9.5-5.1-15.3-7.2-24.5-3.1-.5-2.1-5.2-4.8-6.2-.1-3.2-1.8-4.1-2.9-5.8-5.1-7.5-9.2-15.8-15.4-20.6-13.1-18.8-31-32.7-52.8-42.7-1.4-2.2-3.8-3.3-7.2-3.4-2.3-2-5.8-3.1-9.1-3.8-1.1-.2-2.3-1.6-3.4-1.9-.8-.2-1.9.2-2.9 0-1.6-.3-2.9-1.6-4.3-1.9-1.3-.3-3 .2-4.3 0-2.2-.3-4-1.9-6.2-2.4-11.2-2.4-23.7-1.5-35.5 0-1 2.3-4.9 1.8-7.2 2.9-1.4.8 1.1 2.6-.5 3.4-1.8-.1-3.5-1.9-5.3-.5-.7 1.7 2.2 2.3.5 3.4-1.8.2-2.7-2-4.3-.5-.4 2.2 1.9 1.6 1.9 3.4l-4.8-.5c-.4.9-.8 1.8-1 2.9 1.6-.2 2.7.1 2.4 1.9-2.3-.2-4.1.1-4.8 1.4-.3 2.5 3.6.9 3.4 3.4-1.3.9-4.2.3-4.3 2.4.5 1.1 3.4-.2 3.8 1 .2 2.1-1.9 2-3.4 2.4-.4 2.7 3.4 1.1 3.8 2.9-.4 1.3-2.7.8-2.9 2.4.2 1.9 3.2 1 4.3 1.9l-2.4 2.9c-.1.9.5 1.1.5 1.9 1.3.1 3.8-.8 4.4.2.2 1.9-2.8.7-2.4 2.9.6 1.2 3.8-.3 4.3 1 .2 1.7-2.4 1.8-1 3.4.8 1.4 2.2-1.8 3.4 0 .7 2.1-2.5 1.4-1 2.9-.1 1.9 3.4.1 3.8 1.4-.2 1.1-2.1 1.3-1 2.4 1 .3 3.2-.6 3.4.5-.8.8-1.2 2-1 3.8.5 1.1 3.4-.2 3.8 1-.7.7-.7 3.1 0 3.8 1.9.4.8-2.1 2.9-1.4 1.2 2-.5 2.3-.5 4.3.8.3 2.8-.6 2.9.5.5 1.8-1.2 1.4-1 2.9.5 1.1 3.4-.2 3.8 1 0 1.5-1.5 1.4-1 3.4 1.3 2.6 3-.8 4.3 1.4.4 1.6-2 .6-1.4 2.4.5 1.8 2.8 1.7 4.3 2.4 0 1.5-1.5 1.4-1 3.4.4 1 3.1-.2 3.4 1-1.1 1.8-1.5 2.2-.5 4.3.9.5 1.6-1.4 1.9 0 .3 1.6-.3 2.2-.5 3.4 1 .3 3.2-.6 3.4.5-.3 1.3-2 1.2-1.9 2.9.9 1.8 2.7-.3 3.8 1-.5 1.3-.7 2.8-1.4 3.8.8.3 2.8-.6 2.9.5-.4.9-1.3 1.2-1 2.9 2.8-.9 1.7 2.1 1.9 3.8.3.8 2.3 0 2.4 1-.5 1.5-1.9 1.9-1.4 4.3 1.1 1.7 2.1-1.5 2.9 0-.4 2.4-2.2 2.4-1.4 4.3 2 .8 2.6-2.1 3.8-.5-1 1.1-2.3 1.9-2.9 3.4 1.4.4 1.2-.7 2.4-.5l1 2.9c-1.1-.2-2.6-1.1-2.9.5 2 .8 1.9.9 4.3 1.4-1.9-3.9-.4-5.4-.5-10.6-.8-.9-1.5.7-1.9-1 2.5-4.5-1.9-10.3-2.4-13.9-1.2-8.9-5.5-15.1-6.2-23l-4.3-4.3c-.3-7.8-5.1-11.3-6.7-17.8-.3-.8-2.3 0-2.4-1-.7-.7-.4-2.5-.5-3.8-5.4-5-12.2-12.9-9.9-22.3.1-1.3-1.9-.4-1.4-1.9-.4-1.7.4-2.1 1.4-2.4-1.8-20.4 23.7-20.5 38.9-16.3 5.1 1.4 8.7 1.6 13.4 2.9 2.9.8 7.5 3 9.1 3.8.5.3 1.4-.2 1.9 0 .2.1.2 1.3.5 1.4.5.3 1.6.6 2.4 1 6.3 2.8 12.3 5.5 17.8 8.6h2.9c1.4 3.1 4.5 4.1 7.2 5.8 1.7 1 3 2.5 4.8 2.4 2.1 3.4 7.7 3.2 9.1 7.2 3.5 1.4 5.8 4.1 8.6 6.2 1.2 3.6 4 5.6 7.2 7.2 2.5 4.5 5.4 8.7 9.1 12 4.9 5.3 7.2 13.3 12 18.7 1.9 5.6 6.1 11.4 5.8 17.8 1.6.2 2.5 3.6 1.4 4.8-3.2-3-2.3-10.2-5.8-13-2 2.9.2 7 .5 10.6.3 3.4-.7 7 0 8.6-1.4-1-3.1-1.7-4.3-2.9.4-3.7-.9-5.8-2.4-7.7.2-.6.7-.9.5-1.9-2.7-6.4-4.7-13.6-9.1-18.2-.8-3-2.9-6.1-3.8-9.6-1.3-5-1.1-11-4.8-13.9.1 3.5 1.8 6.7 2.4 8.6.8 2.6.9 7.7 1.9 11 .3.8 1.3 1.7 1.4 2.4l-.5 1.9c.3 1 1.3 1.4 1.4 2.4.4 2.2.8 2.6 1 3.8.5 3.6.3 8.5-1.4 12-1.8-5.2-3.4-10.6-5.3-15.8-1.2-1-2.7-1.8-2.9-3.8-6.8-4.8-8.6-14.4-13.4-21.1-1.2-3.8-1.8-7.8-2.9-11.5-.9-2.9-2.6-5.3-3.8-7.7-.5-1 .3-3.2-1.9-2.9 1.3 2.3-.2 5.2 0 8.2 0 .5.9 1.4 1 1.9.3 1.7-.5 4.8 0 6.7.8 2.7 2.1 2.1.5 3.8.2 1.1 1.9.6 2.4 1.4-.1.6-.8.5-1.4.5 1 3 1.3 6.7 4.3 7.7-.2.8-1.5.4-1 1.9 2.5 5.8 5.7 12.6 11 16.8 1.2 3.6 4.4 5.2 6.2 8.2h2.4c-1 1.3 2 2.3.5 4.3 2.7 1.5 6.2 2.2 7.2 5.4zm193.9-23.1c.7.1 1.8-.2 1.9.5-3.8.5-4.3 4.3-5.3 7.7 2.8 2 .1 7-2.9 6.2.6.2 1.1.5 1.4 1-.2.9-1.9.4-1.4 1.9 1.9 3.2-2 4.6 0 6.7-.7 0-1.1.2-1.4.5.3 8.5-3.1 15.2-4.3 23.5-3.8 3.6-7.1 7.6-10.1 12 3-.3 2.3-1.5 4.8-1.9 1.3-2.7 2.7-5.3 5.3-6.7.3-3 1.9-4.9 3.8-6.2.2-1.5-1.5-1.1-1-2.9 1.2.1 2-.2 2.4-1-1.1-.5-.2-3-.5-4.3 1.7.4 2-.5 2.9-1 .3-1.9-2-1.2-1.9-2.9 1.8-1.5-.5-7.2 3.8-6.2-.6-1.9.2-2.3-1-3.8 1.2-1 2.5-2 1.9-4.8 4.7-1 1.3-7.9 5.8-9.6.4-1.4-.7-1.2-.5-2.4 2.9-2.1 3.1-3.9 3.8-8.2 4.4-1.3 4-9.6 9.1-8.6 0-1.2-1.3-6.7 2.9-6.2.4-1.7-.7-1.8-.5-3.4 1.2-.8 3.1-1 2.4-3.8 1.7.3 2.3-.6 3.4-1v-2.9c4.8 1 2.9-4.7 6.2-5.3.2-1.2-.9-1-.5-2.4.6-.2.9-.7 1.9-.5-.3-2.2.3-3.6 1.9-3.8-.4-1.8.6-2.3.5-3.8 3.6-.1 1.3-6.1 3.8-7.2-1.4-2-.5-2.5.5-4.3-2.1-1.6-1.4-6-2.9-8.2-2.5.4-3.1-3-2.4-4.3-2.1 0-2.6-1.6-2.9-3.4h-2.9c0-2.3-2.6-1.3-4.3-1.9-1.9-.6-3.8-2.3-5.8-2.9-9.1-2.5-22.9-1.4-33.6 0-10.8 1.4-20.6 6.4-29.3 7.7-.2.6-.5 1.1-1 1.4-15 5.2-27.3 13-38.9 21.6h-1.4c-3.8 5.5-9.6 9-14.4 13.4-1.1 4.9-6.4 5.8-7.7 10.6-5.3 3.2-7 9.9-12 13.4v2.4l-2.4 1c-.2 3.9-5.3 5-3.8 9.1h-1.9c-.5 2.1-.3 1.9.5 3.4h-1.9c0 .9 1.3 2.8 0 3.4-.8 0-.3-1.3-1-1.4-1.3 2.1-2.1 4.6-4.3 5.8-.1.8 1.5 2.6-.5 2.4 1.3 2-.3 3.5 0 6.7 1.6.3 2.5-.5 4.3.5-1 1.6-1.4.2-2.9 0-1.2 1.9-1.2 2.2-1.4 4.8 1.2 1.1 3.4.2 4.3-.5.5-5.5 3.5-8.3 4.3-13.4 0-.8-1.2-.4-1-1.4 3.8-.2 3.4-4.6 5.3-6.7-.9-.1-2.4.5-1.9-1 1.3 0 2.7.2 3.4-.5v-2.4c2.4-3.3 4.3-7.2 5.8-11.5 3-1.2 3.3-4.5 4.8-6.7l1.4-.5v-1.4c.4-.5 1.5-.8 1.9-1.4.6-.8.5-2.2 1-2.9.7-.9 2.1-1.4 2.9-2.4.6-.7.5-1.9 1-2.4l6.2-4.8c.9-1 .4-3.1 2.4-2.4 3.8-4.8 9.6-7.7 13.9-12 2.1-.3 2.7-2.1 5.3-1.9.5-.6.8-1.4 1.4-1.9 4.3-.5 5.3-4.3 10.1-4.3.5-1.5 1.8-2 2.9-2.9 7.4-2.4 14.1-6.9 21.6-9.6 3.1-1.1 7.8-1.4 9.1-3.4h2.9c.1-.5.1-.8.5-1 3.9-1.7 9.5-2.1 13.9-2.9l5.3-1.9c2.3-.4 5.4-.5 7.7-.5 7-.1 12.6 3.1 18.7 4.3-.3 2.7 4 .8 2.9 4.3.8.3 2.8-.6 2.9.5-1.3 1.1-.1 1.6-1 2.9 1.9.7 2.2 2.9 4.3 3.4-.1-1.4-3.1-2.3-1.9-3.4 1.4.4 2.4 1.1 2.9 2.4l-1 1.9c.9.2 2.1-1.5 1.9.5-.1 1.1-2 .2-2.9.5.9 1.6 3.5 1.6 2.9 4.8-1.1-.1-2.1-1-2.4.5.6 1.2 1.8-.5 1.9.5-2 .1.5 1.8-1 2.4-.9-.4-.6-1.9-2.4-1.4-1.4 1.4 1.2.8 1 2.4-1.5.4-1.5-.8-2.4-1-1.2 3.2.7 4.8-1.4 4.8 0 2.5 2.1-.2 1.4 2.9-1.4.4-1.2-.7-2.4-.5-1.2 1.1.7.9.5 2.4-2.7-1.1-1.7 1.4-.5 2.4-1.8.7-.9-1.3-2.4-1l1 2.9c-.7-.6-2-1.7-2.4 0 1.3.8 2.8-.6 2.4 2.4-1.1 0-1.4-.8-2.9-.5.9 1.7-.2 2.5-1 3.8-1.3-.1-.5-2.4-1.4-2.9-1.3 1.4.9 3.2-1.4 3.4-.3 1.2 2.1 2 .5 2.9-.8 0-.4-1.2-1.4-1-.3 3.3-5.4 6.2-3.8 8.2.4-1.3 1.7-1.8 2.9-2.4l-3.4 5.3-1.9-1c-.1 1 2.1 1.9.5 2.9-.8 0-.4-1.2-1.4-1 .1.9-.5 1.1-1.4 1-.7 2.5 1.1 2.4 1.4 3.8-2.3-.9-2.5.7-3.8 1.9 2.5.3-.5 1.1-.5 1.9.7 1.3 2.1-1 1.9 1-.1 1.1-2 .2-2.9.5-.2 1.7 1.2 1.7 1.9 2.4-.4.7-.4 1.9-1.9 1.4-.1-.9.5-1.1.5-1.9-2 .2-.7 1.2-1.8 2.7zm-306.2-70c2.7-.4 1.6-4.1-.5-4.8-1.5 1.7 1.4 2.2.5 4.8zm77.2 33.1c2.4-6.6 0-12.8-5.8-13.9l-3.8 3.4c-1.2-2-2.4-4-2.4-7.2-4.7-2.8-9.3-5.7-15.4-7.2-2.2-2.8-6.1-3.8-10.1-4.8 0-.7-.2-1.1-.5-1.4-5.1-.4-10.3-4.5-14.4-2.9.5-1.7-2.2-.4-1.9-1.9l-1.9 1c-1.9-2.7-7.2-2-11-2.9l-1.4 2.9c-1.1-.8-2.3-1.5-3.4-2.4.4 4.4-3.2 4.8-3.4 8.6-1.8.7-3.3 1.8-4.3 3.4-1-.9-2.5.3-2.9 1.4 11.9-1.1 21.8 1.3 31.2 2.9 1.4.2 3-.2 4.3 0 4 .6 7.3 3.4 11.5 2.9 1.2 2.2 5.1 2.4 7.7 3.4 4 1.4 7.8 2.8 11 4.8 2.2.3 4.6.6 5.3 2.4-10.8-2-18.3-7.3-29.3-9.1-.8-1.6-2.7-2-4.3-2.4-6.1-1.5-13.7-1.9-19.7-2.9-.8 0-.4 1.2-1.4 1-.7-1.3-1.9-.6-3.4-1.9-6.3 1.8-7.5-.6-14.4.5l.5 2.9c4.9.8 7 4.5 9.1 8.2.2 3.2-2.7 5.5-1.4 8.2-1.7.2-2.6 1.2-3.4 2.4 3.2 2.8 7.5.4 9.6 0 22.4-4.6 50.2 1.5 68.2 5.8-.8-2.5 2-1.5 1.4-3.8-2.6-.9-1 2.6-3.4 1.9-1.2-2 1-.9 1-2.9-1.9-.9-3.1-2.6-5.8-2.9.7-2.7-2.3-1.5-1.9-3.8.1-.7 1.2-.4 1.9-.5.2-1.5-1.5-1.1-1-2.9 2.1 0 1.5-2.6 3.8-2.4 1.6.1 2.5 1 2.4 2.9-.7.9-2 1.2-2.4 2.4 1 2.3 2.1 4.6 2.9 7.2l2.6-.4zm210.7.9c-14.7-1.6-29 1.8-38.4 1.9-2.6 1.6-6 2.3-9.6 2.9-.6.7-.6 2-1.4 2.4-3.5-.3-2.5 2.6-6.2 2.9-.8 1.9 2.1.2 1.9 1.4-1.8 1.4-2.1 4.3-3.4 6.2.4 1.1 1.8 1.1 1.9 2.4 17.9-.8 42.6-2.7 56.6 1.9 2.3.7 6.8 1.4 7.7 2.9 2.2.1 4.2.3 4.3 2.4-2.2-.1-4-1.8-6.2-2.4-.7-.2-1.6.2-2.4 0-2.5-.5-5.1-2.4-7.7-2.9-1.6-.3-3.5.2-5.3 0-7.1-.7-13.5-3.2-19.2-1-7.7-2.4-21.8-.1-29.8 1.9.6.1 1.1.1 1 1-3.5.2-2.8 4.6-5.8 5.3.2 3-1.9 7.3-3.8 9.6 4.5 1.6 10.2 1.2 15.8 1 7.4-.3 15.6-.7 23 0 5.1.5 8.4 1.6 13 2.4 2.2.4 4.4 1.7 6.2 1.9 3.4.5 6.5 1 8.6 1.9 2.4 1 5.5 1.8 6.2 3.8-6.9-2.1-17.1-6.6-22.1-4.8 0-.7-.2-1.1-.5-1.4-13.6-3.1-35.5-4.5-49.6-.4-1.2-1.6-3.4-.8-4.8 0l1.4 1.9c-1.9 2.4-3.2 4.1-6.7 3.8-.3 1.4 3.1 1.6 1.4 2.9-1.5.4-.6-1.7-2.4-1-1.5 1.5-4.1 4.1-3.4 6.2 2.6.4 1.3-3.2 2.4-4.3.8.4 2.4.2 2.9 1-1.9-.3-2.7.5-2.4 2.4 11.6-.2 27.5-.2 40.8 1 .1-1.7-2.6-.6-3.4-1.4-1.4-1.3-2.4-3.1-3.8-4.3v-3.8c1.9-.2 1.9-2.5 4.3-3.4 5.1-1.9 14.6-.6 16.8 2.4-5.9-2.5-17.9-3.4-17.8 5.3 1.8 1.9 3.6 3.7 6.7 4.3.1.9-.5 2.4 1 1.9 1.6-.3.9-1 1.4-1.4 2.7-.5 3.3 2 4.8 0-.2 1.1-2.1 1.3-1 2.4 3.5-.7 6.2 1.2 8.6 1.9h2.9c3.6.8 6.5 4.4 11 3.8.4 1.3 3.4 2.5 4.3 2.9.8.4 2.1 1.5 1.9 1.4 1.6.6 4.6 1.9 5.8 0-4.7-2.8-10.3-4.7-9.6-13 3.3-3.6 6.6-1.9 12.5-1.9 1.1-1.9-2.5-2.4-2.9-4.3 1.6-.3 2.2.3 3.4.5-.2-5-5.4-5.1-8.2-7.7-.6-2.1-2.5-3.9-2.4-6.7.1-2.7 1.3-5.2 3.8-5.8.5-.1 4.2-.7 4.8 1h-4.8c-3.8 5 .7 11.3 4.8 13-.7-2.5-3.8-2.6-2.9-6.7.2-1.2-2.2.3-1.4-1.4 1.2-.4 1.3-1.9 1.9-2.9 2.7-.7 5.2-1.5 7.2.5 0 .7-2 1.5 0 1.4.9-.1 1.1.5 1.9.5.3-1.9-.5-2.7-.5-4.3 1.5 0 3.2.3 2.9-1.4-.2-1.9-4.3.1-3.4-2.9 2.3-.5 1.8 1.7 4.3 1 1.5-2.7-1.5-2.1-2.4-2.9-3.4-3.1-6.8-5.5-5.8-12.5.8-.8 1.7-2.6 3.4-3.4 2.3-1 8.7-1.5 9.6 0-1.6.2-4.5 1-7.7 1 .1 2-2 1.8-3.4 2.4-.5 3 1.5 4.8 1 7.2 2.1.7 6 5.9 8.2 1.9-3.3-.1-8-2-7.2-7.7 2.1-1.6 4-3.4 8.2-2.9-.1 1.7 2.3.9 1.9 2.9-.8 0-1.7-.1-1.4 1 4.2.5 3.8-2.7 3.4-5.8 2.5.3 4.1-.4 4.3-2.4-.4-1.2-3.8.6-3.4-1.4.9-1 3.8-.1 4.8-1-.4-1.8-2.3-2.2-4.3-2.4-3.6-3.3-8.1-5.6-7.7-13 2.3-4.1 7.8-5 13.9-5.3-1 3.1 2.3 1.9 3.4 2.9 0 1-1.3.6-1 1.9.9.3 2-1.4 2.4 0l-.5 3.8c1.4-.8 1.9-2.6 1.9-4.8 1.5 0 1.4-1.5 1.4-2.9-1-1.5-6 .9-6.2-1.4 1.1-.4 4.5.1 6.2-1v-2.9c-.9-1.5-5.6.8-5.8-1.4 1.9-.2 4.6.4 5.8-.5-.2-2.4-3.2-1.4-4.3-1.4-3.8-.3-6.3-.6-8.2-1-.7-.1-1.7.2-2.4 0-.3-.1-.3-1.3-.5-1.4-.7-.4-1.2.6-1.9.5-.5-.1-2.3-1.2-1.9-1-1.2-.8-1.4-3-2.9-3.4-.5-1.9-1-3.8-1.4-5.8-8.9-.4-19.1 2-25.9 5.3-11.4 2.1-19.7 7.5-29.8 11-.8 3.4-5.9 3.9-4.8 7.7-1.8-.2-3.7 2.9-1.9 3.4 1.9-3 6.5-.1 8.6-3.8 7.4-.5 17.2-4.9 24-6.7 4.9-1.3 9.6-1.3 15.4-1.9 6.8-.8 15.2-1.4 23-1.4 2.6 0 6.7-1.1 8.2 1.4-13.8-.9-27.9.5-40.8 1.9-.8 0-.3 1.3-1 1.4-11.8 1.8-21.5 5.7-32.2 8.6-.9 2.3-3.8 1.9-5.8 3.4-2.2 1.7-3.1 4.3-4.8 6.7l1 1.9c-1.1.3-2.2.6-2.4 1.9 3.8-3.1 11.1-2.7 15.4-5.3 19.9-.7 46.7-1.7 62.9 4.3v1c-7.3-1.3-18.8-3.7-27.5-4.7zm-291.3-33.1c.7-.7.9-3.3-1-2.9.5.9.2 2.4 1 2.9zm312.5-1.9c2.2-.2 3.6 0 2.4 1.9 1.4-.5 2.3-1.5 3.4-2.4-1.1-.6-5.5-1.1-5.8.5zm-318.2 1.9c.9-.2 2.9.7 2.4-1-1 .3-2.9-.6-2.4 1zm-3.4 1.9c.7.6 3.8 1 3.8-.5-1.7-.1-2.2-1.3-3.4-1.9-.3.6-.6 1.3-.4 2.4zm328.8.5c0-1.4 1.8-1.1 1.4-2.9h-2.4c.1 1.3.3 2.3 1 2.9zm-6.3 1c2.1-.7 1.7 1.1 2.9 1.4.7-.6.5-2.1.5-3.4h-1.4l-2 2zm-327.3 2.4c1.7.9 4.9-.4 6.2-1.4-2.4-.5-4.9-.5-6.2 1.4zm342.2 1.4c1.2.1 2.3.1 2.9-.5-.2-1.3-2-3.5-2.9-2.4 1.5.6-.5 1.7 0 2.9zm-334 1c.1-1.2 1.6-.1 1.9 0 .1-1.2-.7-1.5-1.4-1.9 0 .6-2 1.4-.5 1.9zm-3.9 23c.3-1.4 1 .5 1.9 0-.8-1.9-2.9-2.3-3.8-4.3-.9-1.9-.6-4.7-1.4-7.2 2.7-1.3 3.9-4.1 7.2-4.8.2 3 5.3 1.1 5.3 4.3-1.1-.1-1.8.1-1.9 1 1.5.3 1.7-.5 2.9-.5-.4 2.2 1.2 2.3 1 4.3 2.7-.1.3-2.5 1.4-3.8-2.2-1-1.8-4.6-5.3-4.3v-1.4c-.9-.1-1 .6-1.4 1-1.1-2.6-6-.6-8.6-1.4-4.8 4.7-.8 13.4 2.7 17.1zm346.1-13.4c.2-1.2 1-3.2-.5-3.8.1.9-1.1 3.2.5 3.8zm-16.4 1.4c1.1-.3 3.7.9 3.4-1h-3.4v1zm3.4 14.9c.2-5.2-6.3-3.6-7.7-7.2.6-3 2.5-4.9 3.4-7.7-1.9 0-2.8 1.1-4.3 1.4.8 1.8.1 4.4-.5 6.2 2.4 3.7 5.5 5.2 9.1 7.3zm-4.3-10.1c2.5.3-1 1.5 0 3.4 1.4.5 3.7 2.6 5.3 1.4-1-.6-2.6-.6-2.9-1.9-1.7-5.8 4.8-4.8 6.7-4.3-.9-1.5-3.4-1.4-5.3-1.9-.5 1.8-2.7 2.1-3.8 3.3zm-324.9 0c1.1.2 1.8-.1 2.4-.5-.3-1.6-1.2-2.6-3.4-2.4-.1 1.4 1.6 1 1 2.9zm3.3 1c-.5 1.5-4.1.1-3.8 2.4 3.6 1.7 6.5-3.3 4.3-6.2-.8.6-.4 2.4-.5 3.8zm-7.2 0c-.3-1 .8-3.3-1-2.9.1 1.3-.2 2.8 1 2.9zm251 1.9c-1.3-.5-1.8-1.7-2.9-2.4-1.1 1.9-1.5 3.7-1 6.2-1.8 1.6-1.6 5.2.5 6.2 3.1-4.3 5.9-8.8 7.2-14.9h-1.9c.4 2.7-.2 4.3-1.9 4.9zm.5-1.9c.2-.6.7-.9.5-1.9h-1.9c-.2 1.2.1 2 1.4 1.9zm81.1-1c.6 1.1-.1 3.6 1.9 3.4h1c.7-.6.5-2.1.5-3.4-.7-.7-2.7-.7-3.4 0zm-322.5 3.4c1.7.7.3-1.6 1.4-1.4.6-.1 1.4.1 1.4-.5-.6-.2-.9-.7-1.9-.5.1 0-.9 2.4-.9 2.4zm230.9-1c.8 1.7 1.2 2.3 0 3.8 2.7.6 1.8-2.4 1.9-4.3-.9 0-1.5.1-1.9.5zm94.5 2.9c.9.9.9-.3 2.4 0-.1-.9.5-2.4-1-1.9.5 1.5-1.5.6-1.4 1.9zm-332.6 1.9c2.2.1 3.7-.5 4.3-1.9-1.6.4-3.9.3-4.3 1.9zm113.3 29.8c-.6 3.6 3.1 3 1.9 7.2-1.3-.1-2.1.2-1.9 1.4.7.5 3.1-.4 3.8-1.4-2-4-1.6-8.3-2.9-12.5-.8-2.7-3.3-4.8-2.9-8.2-2.5-1-2.2-4.8-3.4-7.2-.7-1.5-2.1-2.9-2.9-4.3-1.2-2.2-1.9-5.5-5.3-5.8v2.9c2.9-.5 4.2 2.9 2.4 4.3 2.1.1 4.2 3.8 1.9 5.3 3.1 1 2.7 5.6 4.8 7.7.5 2.1-.5 2.7-1 3.8 2.2-.3 4.3 2.1 2.9 3.8-1.4 0-1.4-1.5-2.4-1.9-1.3 2.9 4.3 2.5 5 4.9zm220.3-26.9c.3-1.7 1.5-2.6 2.4-3.8-1.5.3-3.7 2.3-2.4 3.8zm-260.2 2.4c-.1-2.1-2.7-1.2-4.3-1.4-9.7-1.6-21-5-33.6-3.8-.5.5-.9 1-1.4 1.4-2.5-2.4-7.7.1-9.6-1-.7.6-1.4 1.2-1.9 1.9-1.3-1.6-2.3-1-4.3-1.4-.1.6.1 1.4-.5 1.4-2.5-1.1-2.7 1-5.8.5.1.9 2 2.4.5 3.4-1.2.2.3-2.2-1.4-1.4.7 2.1-1.1 1.7-1.4 2.9 4.9-.4 9.7 1.7 12.5 4.8 1.5 2.8.3 3.7 0 5.8-.6 4-3.6 4.9-2.9 7.7 5.4-2.1 11.3-2.6 17.3-3.8 2.7-.5 4.6-1.7 7.2-1.9 3.3-.3 7.3-.5 9.1-1 7.9-1.9 20.8 0 26.9 1 3.6.6 7-.4 10.6 0 .2-4.5-2.5-8.1-2.4-11-2 .6-2.1-.7-1.9-2.4-1.4.4-1.5.4-2.9 0-.2.9.7 2.9-1 2.4 0-1.3.2-2.7-.5-3.4-2.3-.2-4.2 0-5.3 1v-1.9c-1.2-.3-1.5.5-3 .2zm151.7 20.6c-2.3-.5-2 1.6-1.9 3.4-1 .9-3.3.6-2.9 2.9 2.3-.4 3.3-2.2 3.8-4.3 4.1-1 3.4-6.9 7.2-8.2 2.3-6.6 6.3-11.7 7.7-19.2-.5-.6-2.2-.2-2.9.5.8.1 1.1.8 1 1.9-1.7-.5-.4 2.2-1.9 1.9-3.2.5-2.8-2.6-4.8-3.4-.5 1.5-1.9 2.2-2.4 3.8 1 .5 4.8-.8 5.3 1.4.3 1.9-.7 2.5-1.4 3.4h-3.8v-3.8c-1.4-.5-.9 1.1-1 1.9-3.2-.1-1.1 5-4.3 4.8 0 1.1.8 1.4.5 2.9-2 1.3-4.7 3.9-2.9 6.2l-2.9 3.8c2 .6 1.9-1 3.4-1-.8-3.5 1.7-3.7 2.4-5.8-2-2.5 1.9-3.3 2.9-4.3-1.1-.1-1-1.2-1-2.4.6-.8 1-1.9 2.4-1.9 1.3.3 2.7.5 2.4 2.4-1.5.2-2.4-1.3-2.9.5.3.8 2.3 0 2.4 1-.1 1.3-1.4 1.5-2.4 1.9.3 3.3-.9 5.1-1.4 7.7-.9-.2 0-2.2-1.9-1.4-.8 2.3 2.3.9 1.3 3.4zm-7.2-12.9c-1.4 9.8-5.5 16.9-7.7 25.9h-1.4c.3 3.3-1.2 4.9-2.9 6.2 1.3 2-3.4 3.4-1.9 5.8-1.6.4-2.5 1.3-2.9 2.9.9.1 2.4-.5 1.9 1h-1.9c.8 2.3-1.1 2.3-1.4 2.9-.9 1.5-.2 4-1 5.3l-1.4 1c-.8.7-.8 1.5-1.9 1-.2-3.6.5-8.2-.5-11 2-1.5 1.6-5.4 2.4-8.2-1.9.8-.9 4.5-3.4 4.8.2 2.1-1.5 1.6-.5 3.4h-1.9l1.4 1.9c-1.9 1.1-1.7 4.3-3.8 5.3 2.3.2.4 3.2 0 3.8-.4 1.5 1.7.6 1 2.4-1.8-1.1-3.9 1.8-3.4 2.9 2.1.5 1.1-2.1 2.9-1.9-.4 1.5 1.2 1 1.4 1.9 4.3.1 8.5.2 11.5-1 3.6-4.1 7.1-8.2 12.5-10.6-.2-2.8 2-3.1 2.4-5.3 4.7-2.8 7.5-7.5 11.5-11v-2.4c5.4-3.3 5.9-11.4 10.1-15.8-.5-5.6 1.9-12.2 3.8-16.8-1.5-.4-.5-3.4-1.4-4.3-2.4.5-2.2 3.5-2.4 6.2-1.4 1.8-2.8 3.6-2.9 6.7-1.3 1-2.4 2.1-2.4 4.3-4.4 3.3-7.4 8-9.6 13.4-.8 0-1.5.1-1.9.5l1 1.9c-5.2 5-7.1 13.4-11 19.7-.7-.3-1.2-.7-1.4-1.4 2-6.1 1.5-12.9 2.4-19.2.8-5.8 4.1-11.4 4.8-16.3 3-1.9 2.4-7.5 6.2-8.6-1-1.8 2.2-2.8 0-2.9-1.9 2-3.4 4.5-6.3 5.6zm-211.2-5.3c1.8.7.9-1.3 2.4-1 0-1.3.3-2.8-1-2.9-.5 1.5.4 3-1.4 3.9zm93.1-1.4c1.8.5 1.9-2.4.5-2.4.2 1.5-1.7 1.2-.5 2.4zm-.5 5.7c-.4 3.2 1.6 4.1 2.4 6.2l.5 2.9c2.3.9 1.8 4.6 3.8 5.8-.5-2.1.5-2.7 1-3.8-3.5.4-4.2-2.3-3.4-4.8-1.2-1.5-3.5-3-1.9-5.8l-4.8-5.8c.6 2 .7 4.5 2.4 5.3zm131.6-3.3c.1-.7.8-.8 1-1.4-1.3-1.6-3.1 1-1 1.4zm-223.7.9c-.6.8-1.3 1.6-1 3.4 1.5-.9 1.7-3.1 4.8-2.4-.4-3.1-2.1.5-3.8-1zm94.1 1c1.1 1 3 .2 2.9-1.4-1.8-.3-2.5.3-2.9 1.4zm-81.6 7.2c1.6-2.2-.6-6.9-2.4-5.8 2 .7 1.5 4 2.4 5.8zm84.4-1.9c1.8.4 1.8-2.3 0-1.9v1.9zm-90.7.9c1.9 1 2.9-2.5 1-2.4.7 1.8-1.3.9-1 2.4zm301.4 0c2.3.5 2.7-.8 3.4-1.9-1 .8-3.1.4-3.4 1.9zm3.4 1.9c1.8.4 1.8-2.3 0-1.9v1.9zm-305.2.5c-1.5.2-.2-2.4-1.9-1.9-.4 1.4 1 3.4 1.9 1.9zm303.3 1c.5-.5.4-2.5-1-2.4-.7.7-.7 2.7 1 2.4zm-197.3 2.9c-.1-.9.5-1.1 1.4-1-.4-1.7-1-3.2-2.4-3.8-.4.8-.3 4.2 1 4.8zm-104.6-2c1.3.4-.9 1.7.5 2.4 1.6-.6 5.5-3.6 3.4-4.8-.1 2.7-3.1 1.8-3.9 2.4zm92.6 1c.1-.6.1-1.1 1-1-.3-1.3-.5-2.7-2.4-2.4-1.3 1.4.3 2.9 1.4 3.4zm213.1-1c1.2-.3 1.8-1.1 2.4-1.9-1.3-1.2-2.3.5-2.4 1.9zm-290.8 25.5c-1 3.2-7 1.4-6.2 4.3 1-1.6 3.4-.4 5.3-1 1.6-.4 3.7-2.7 6.2-1.9 3.8-1.8 7.7-3.5 13-3.8.8-.4.7-1.5 1.9-1.4 17.1-2.1 34.6-2.7 50.9-2.4-.6-3-2.1-3-3.4-4.8-2.2-3.1-2.7-9.5-5.8-10.1 0-.8 1.2-.4 1-1.4-2 .2-1.9-1.6-2.9-2.4-9.7.2-21.4-1.9-32.2-1-5.1.5-8.8 2.7-11.5.5-7.6 1.4-15.7 3.6-21.6 5.3-.3 2.5-1.8 1-2.9 2.9 4.1 0 7.5 2.9 11 4.8-.2 2.8 2 3.2 2.9 4.8h-1.9c1.2 4.5-3.5 4.8-1.9 8.2-.9 0-1.1-.7-1.9-.6zm180.9-18.7c0 2.5-3.2 2.9-5.3 1.9 0 .8-.1 1.5-.5 1.9 1.2.2 2.2.7 2.9 1.4 1.1 4-3.4 4.7-5.3 2.9-.7.1-2.1 2-1 2.4 2.7-2 4.1 1.4 5.8 1.9 1.9-3.5 2.8-8.1 4.3-12 .6-1.6 2.9-2.6 1.4-4.3-.9 2.3-2.7-.2-4.3 0 0 2 2.5 1.5 2 3.9zm-90.2 1.4c1.5.4.7-1.6 1.9-1.4 1.5-.3 3.4-.1 3.4-1.9-2 .9-5.4.4-5.3 3.3zm88.3-.5c.1-.7.8-.8 1-1.4-1.2-1.6-3 1.1-1 1.4zm7.7 1c2.2.8 2.6-2.7 1-2.9-.5.9-1.4 1.2-1 2.9zm4.3-1.5c.8.9 1.9-.1 1.9-1.4-1.2-.1-2.1.2-1.9 1.4zm-203 1c.6.4 1.3.6 2.4.5.3-1 1-1.6 1.4-2.4l-3.8 1.9zm93.6 1.9c.7-.6.7-2.4-.5-2.4-.7.6-.8 2.4.5 2.4zm12.4-1.9c.3 1.1.6 2.2 1.9 2.4-.4-1.5.8-1.5 1-2.4-.6-.7-2.2-.7-2.9 0zm91.7 4.8c1.5.6 1.5-4 0-3.4v3.4zm3.9-1c1.1-.2.5-2.6-.5-2.4-.4.4-1.3 2.9.5 2.4zm-92.2 0h1.9c-.2-.9-.2-2.1-1.4-1.9.1.9-.6 1.1-.5 1.9zm-109.4-.4c-.4 1-1.2 2.7-.5 3.4 2-.7 3.9-1.5 4.3-3.8 0-.1-3.8.4-3.8.4zm107 4.3c-.2-1.7.2-2.7.5-3.8h-2.9c.1 1.9 1.6 2.5 2.4 3.8zm-97-2.4c-.4 1.8 1.8 1 1.9 2.4 1.3 3.2-2.9 4.5-.5 5.8 2.3-2.6 2.4-8.9-1.4-8.2zm99.9 3.3c1.5-.3 2.5-1.1 2.4-2.9l-2.9-.5c-.6 1.5-.5 2.5.5 3.4zm-105.1 3.9c-2.2-2.5-.7-6.7 2.9-6.2-3.7-2.8-7.3 5.3-2.9 6.2zm283.1-4.8c1 0 .6 1.3 1.9 1-.7-2.1 2.9 0 2.9-1.4-1.2-1.1-3.8-.4-4.8.4zm7.2 4.8c-.7-1.1.1-3.6-1.4-3.8-.2 1.9 0 3.5 1.4 3.8zm-2.4-1c.1-1.6-.6-2.3-1.9-2.4-.2 1.7.2 2.8 1.9 2.4zm-179 0v-1.9c-1.7 1.2-3.9 1-5.8 0 .2 3.4 3.1 1.7 5.8 1.9zm177.1 1.9c-1.2-1.1-.9-3.6-2.9-3.8-.1 2.4 1.2 3.3 2.9 3.8zm-283.2-.9c1.3 0 3.4-1.4 1.4-1.9-.1.9-1.8.3-1.4 1.9zm174.3.9h1.9c-.3-1.1-.6-2.2-1.9-2.4v2.4zm-173.3 12h6.7c.3 2.3 2.7 1.8 3.4 2.9.5.9-.9 1.4 1 1.4-.3 2.9 0 5 0 6.2l-1.9-1.4c-1 1.9 2 2.1.5 2.9-2.9-2.4-4.7 3.7-7.2 4.8 2.4-.6 4.4-1.7 5.3-3.8.8 0 .4 1.2 1.4 1 8.1-4.7 18.1-7.5 29.3-9.1.8-.3 0-2.3 1-2.4 1.3.4 4.5-1 4.3 1h-4.3c2 2.5 4.9.3 7.2 0 12.4-1.5 27.4-1.6 40.8-2.4-.9-4.1-5.1-4.8-7.7-7.2 0-.8 1.3-.3 1.4-1-.9-1.8-2.7.3-3.8-1-.2-1.2 2.2.3 1.4-1.4-2.2.7-1-1.8-1.9-2.4-1.6.2-4.1.9-4.8-1-1.8-.5-1.4 1.2-2.9 1-.2-.7-.6-.9-1.4-1-7.4-.9-15.9.1-20.6 1-3.9-2.5-9.7 1.1-15.4 0-.8.4-1.4 1.2-2.4 1.4-5.4-.9-6.9 2.1-11.5 1.9-.8.4.1 2.3-1.4 1.9-1.5.4-.6-1.7-2.4-1l-.7 2c-1.8.7-.9-1.3-2.4-1-.1.7.2 1.8-.5 1.9-4.3-2.3-6.8 2.9-9.1 1.9-.6 1.2 2.2 1.2.5 1.9-.4-.6-2.3-2.1-2.9-1 1.5-.4.9 1.2 1 2zm92.2-8.6v-4.3h-1.4c.1 1.7 0 3.7 1.4 4.3zm190 1c-.1 1.3 1 1.2 1.9 1.4.7-2 3.3-6.2 0-6.7.3 1.4 1.2 5.8-1.9 5.3zm-287-2.9c-.2 2.1 1.5 2.3 2.9 2.9.2-1.3 1.7-2.6 2.9-1.4-.1-.8 1.6-3.1-.5-2.9-.9 2.5-2.9 2.5-5.3 1.4zm109 .5c.1-1 2.1-.1 1.9-1.4-.9-1.5-3.6.3-1.9 1.4zm74.8-2h-2.9c-.1 2 3.5 2.9 2.9 0zm-75.8 4.8c1.1-.8 4.1.3 3.8-1.9-1.1-.7-3.6.3-3.8 1.9zm182.9 2.4c1.5.7 1.2-2.9.5-2.9-.6.6-.6 1.8-.5 2.9zm-140.7 14c-3.4-2.1-.6-7.4-3.8-9.6 0-.6.6-.7.5-1.4-1.5.2-1.1-1.5-2.9-1-3.8 2.4-4.1 7.6-5.8 11-.1 1.3 1.9.4 1.4 1.9-.6.4-1.3.6-2.4.5.7 2.7-.5 2.1-.5 4.8.8 0 1.7-.1 1.4 1h-1.9c.5 2-1.6 4.1.5 4.8-.1-1.3-.2-2.4 1.4-1.9.2 1.8-.9 2.3-1.4 3.4.6.2 1.1.5 1.4 1 1.2 5.5 4.1 9.4 8.6 11.5 1-1-.2-1.4 0-2.9h2.9c1-3.4-.6-5.4-1.4-8.2.7 1.4 2.2-1 2.9.5.4 1.6-1.9.6-1.4 2.4 1.4 1.4 1.1-1.3 2.4-1.4 0-1.6-1.6-1.6-1.4-3.4.7.5 1.2.5 1.4-.5-1.8-.4-.9-3.8 0-4.3-1.9-.9-2.2 2.2-3.4.5 3-2.2-.2-5.1 1.5-8.7zm-39.3-7.2c1.4-.1 2-.8 1.9-2.4-.6 0-.7-.6-1.4-.5-.6.5-.6 1.7-.5 2.9zm-98.9 2.8v3.4c-1.2.1-1.9.7-1.9 1.9 2.7-.2 2.9-2.9 2.9-5.8-1.8-.3-4.2-3.9-5.8-1.4 2.5-.2 3.2 1.3 4.8 1.9zm163.2-2.4c.2.9-.7 2.9 1 2.4-.6-1.3.9-2.8 0-2.9-.2.4-.4.6-1 .5zm-172.8 2c1.7-.2 3-.9 3.8-1.9-2-.2-3.8-.1-3.8 1.9zm275.5-.5c.8.6 2.6-.6 3.8-1-.8-.6-4.3-1.1-3.8 1zm9.1 0v-1.4h-2.9c.3 1.1 2.2 2 2.9 1.4zm-198.7-1c-6.2-.3-11.7.1-16.3 1.4v-1c-3.6 1.2-6.1.2-11.5 0-.6 0-.4.8-1 1-11.6.7-22.7 1.9-31.2 5.8-.7-.1-.8-.8-1.4-1 .2 2.7-4 3.1-4.8 1.9-.2 1.1-1 1.5-1.4 2.4-.9-.1-.3-1.6-1.4-1.4-.3.7.6 2.5-.5 2.4-2-1.3-2 2.3-3.8 0 .4 2.2-.5 2-1.9 1.4-.4 1.7 2.8 2.3 1.4 3.4-1.4-.9-2.2-3.1-4.3-1.9l1 1.9c-2-.6-4-.3-4.8 1.4 1.2.6 2.3-1.2 3.8.5 1.5.2.2-2.4 1.9-1.9 1.3.5-.7 1.3.5 1.9 5.2 0 10.6 4.1 7.7 9.1 1.2.6 1.2-2.2 1.9-.5 0 1.6-2.2 1-2.9 1.9-.9 3.7-3.3 2.8-3.8 6.7 1.2.2 1-.9 2.4-.5 1.8-2.4 4.8-4.2 7.7-5.8 5.1-2.7 11.5-5.6 17.3-6.7 1.5-1.7 3.8-2.6 7.2-2.4.1-.4 0-.9.5-1 2.6.5 4-.6 5.3-1 7.9-2.5 19.4-2.8 27.8-3.8 3.7-.5 8.8.7 12.5 0l2.4-1c2.6-.3 6.1.3 8.2-.5.1-.1.7-2.3 1.4-1.4.1.4 0 .9.5 1-2.4-5.4-8.3-7.4-13-10.6.5-.7.5-1.2-.5-1.4-.7 2-3.1-1.2-4.8 0-.6 1.2 2.2 1.2.5 1.9-.8-.8-2.4-.7-2.6-2.2zm192.5 23.1c.1-.9 1.6-.3 1.4-1.4-.6-1.6-2.5-2-3.4-3.4 2.4-.8 3.3 1.4 4.3.5.3-3.3-3.1-3.7-4.8-4.3-2.3-.8-7.6-5.2-9.6-2.9-.1-1.2-1.6-1-2.9-1v-1.4c-11.6-5.1-27.4-7.3-42.7-7.2-.7.3-.1 1.8-1 1.9 0-.8-.1-1.5-.5-1.9-3.4.2-5.5-.9-9.1-.5-1.4.1-.8 2-2.4 1.9-1.2-3.1-8-1.1-9.6 0-.9-.2-.9-1.4-2.4-1-1.7 1.3-3.1-.1-3.8 1.9-.8 0-.4-1.2-1.4-1-.1.9.5 1.1.5 1.9-4.8-1.7-4.2 5-6.2 6.2 4-1 7.4 1.5 13.4 1 6.6 3.3 15.1 2.4 22.6 3.8 7.7 1.5 14.8 3.9 22.1 4.8-.1.9.6 1 1 1.4 4.8.9 9.1 2.5 12.5 3.8 1.4.6 2.6 1.4 3.8 1.9 3.6 1.4 7.5 1.7 8.6 4.8-10.2-3.6-18.6-8.9-30.7-10.6 0-.7-.2-1.1-.5-1.4-4.9.4-8.5-3-13-1.4 1.5 1.2 4 .5 5.8 1.4.3.2 0 1.3.5 1.4 1.5.6 3.5.4 4.8 1l2.4 1.9c2.9.9 2.9 1.7 4.8 2.9.5.3 1.4-.2 1.9 0 1.1.6 2 2.1 3.4 2.9 1.4.9 3.3 1.1 4.3 1.9v1.4c.6.7 4.2 2.4 4.8 2.9 3 2.6 7 2.1 11.5 1.9.7-1.4 2.3-1.8 2.4-3.8-.5-1.1-1.7-1.5-1.4-3.4 1.5-.1 1.4 1.5 3.4 1-1.4-2.6-3.9-4.1-5.8-6.2-1.8-5.4 2.9-9.9 8.2-8.2-.1.7-.8.8-1 1.4 3.2-.6 4 2 3.8 3.2zm.9-20.2c-.2 1.5 1 1.5 2.4 1.4.1-1.4-1.4-2.4-2.4-1.4zm2.9 8.6c.7-.6.5-2.1.5-3.4-4 .6-4.9-1.8-7.2-2.9 1.1 3.3 4.4 4.4 6.7 6.3zm-277.9-.9c-1.8.2-1.5-1.7-2.4-2.4-.7.6-.7 2.7 0 3.4 3.2.6 3.3-1.8 4.8-2.9-1.8-1.9-1.7 1-2.4 1.9zm156 2.4c-1.3-.2-1.7-1.2-2.9-1.4-.2 1.7 2.2 3.5 2.9 1.4zm5.3 7.7c5.7-3.1 11.7-5.9 20.2-6.2 0-1.7-2.6-.9-3.4-1-7.6-.4-11.2 1.7-17.8 1.9.3 1.3-1 .9-1.4 1.4-1.5-1.4-5.3-.9-5.8 1.4 1.1 1.2.9-.7 2.4-.5l-.5 2.9c.3 1 2.9-.3 2.4 1.4-.9 1.6-3.1-.8-3.8.5-.5 3.2 2.4.9 3.4 1.9-.2-2.1 2.3-1.5 2.9-2.9-.4-.9-1.2-1.3-1.4-2.4 1.4.1 1.1 1.8 2.8 1.6zm-57.1-4.4c2.2-.4 3 .5 3.4 1.9 8.2-.6 8.1 6.9 15.8 6.7.8-.7-1.1-3.1 1.9-2.4-.9-1.3-1.9-5.7 0-6.7-4.6-2.7-10.4.7-14.4-1.4-1.8 1.4-4.3.5-6.7 0v1.9zm83 1c3.6.1 6.3-.8 8.6-1.9l-8.6-1c-1 1 .3 1.4 0 2.9zm-17.7 12c2.3-4.3 8.6-4.5 10.6-9.1-.7-.1-1.8.2-1.9-.5-.6-3.9 5.9-4.9 4.3.5 1.4-.1 3.1.3 3.8-.5.6-2-2-.9-2.4-1.9-.6-1.9 1.4-1.2 1.4-2.4-6.5-.9-12.1 3.2-18.7 3.8-.4 1.4-1.2 2.3-3.4 1.9.1.8-.2 1.1-.5 1.4-1.4 1.6-3.7 3.9-4.8 3.8-.1.9.5 1.1.5 1.9 2.3-.1 2.1-2.7 3.8-3.4.9.7 3.4-.2 2.9 1.9-1.1-.3-3-1.1-2.9 1 1.4 1.6 2.4-1.2 3.4 0 .2 3.9-5.7.8-5.8 3.4 3.2 1.4 6.4-1.5 9.7-1.8zm-98-11.5c-2.3-.4-3.2-1.8-3.4.5-1.9-2-3 .9-4.8-1-1 1.5-4.4 1.9-7.2 1.9-.1.5-.1.8-.5 1-5.2 1.6-10 4.5-15.4 6.2-.1.7.2 1.8-.5 1.9-.6 0-.7-.6-1.4-.5-1.2 2.8-5.7 2.3-6.7 5.3h-1.4c1 3.6-4.8 3.2-5.8 6.2.9.1 2.4-.5 1.9 1-1.4.4-1.2-.7-2.4-.5-.9.9-.1 1.2 0 2.4-3.1-.5-1.9 2.4-3.8 1.9 0 1.1.8 1.4.5 2.9-2.6.4-2.2 3.8-4.3 3.4l1 1.9h-1.9l1.4 1.9c-2.4-.5-1.3 2.2-3.4 1l1 1.9c12.8-6.7 22-17 36-22.6.1-.6-.1-1.4.5-1.4 2.6-.8 3.6-3.1 7.2-2.9.8-1.1 2.4-1.6 2.9-1.9 5.4-3 11.1-4.4 17.8-5.8.5-.5.9-1 1.4-1.4 4.7-.2 6.7-.2 10.6-1-.2-1.7-3.3-2.5-4.8-1.4-2.3-4.8-12.2-.8-14.4-2.4-.1 0-.1 1.5-.1 1.5zm122.9 4.3c4.2 3.1 12.5 2.2 15.8 6.2 3.8.8 7.9 1.4 10.1 3.8l5.8 1c0 .7.2 1.1.5 1.4l3.8 1c6.2 5.1 16.1 6.6 21.1 13 5.8 1.4 8.1 6.3 13.4 8.2.9 1.5 2.7 4.6 4.3 3.8-2.8-2.2-2.4-7.5-6.2-8.6-3.6-5-5.9-11.4-12.5-13.4l-4.8-5.3c-2.3-.3-3.5-1.6-4.8-2.9-2.2.6-1.9-1.3-3.8-1-1-2.8-5.4-2.3-6.7-4.8l-8.6-1.9c-1.1-2.6-5.6-1.8-7.7-3.4-1.9-.7-1.5 1-2.9 1 0-.8-.1-1.5-.5-1.9-4 0-5.4-2.6-10.1-1.9-1.1 1.5-3.2 1.6-4.3 1.9 1.4.2-.8.7-1 1-1.3.3-1-1-1.9-1-.7.6-1.4 1.2-1.9 1.9-1.2-1.4-1.6-1.2-3.8-1 1.9 2.4 5.9 1.6 7.7 1.4-.1.8-1.3.4-1 1.5zm-176.1 10.1c-2.2 1.1-3.9 2.1-5.3 3.4 1.4-.1 3.4 3.2 5.8 1 .4 1.3 2.6.9 4.3 1 2.8-3.1 6.6-5.2 9.6-8.2 5.6-1.6 7.9-6.5 14.9-6.7-.2-2.9 4.1-1.4 4.8-3.4l-10.6 1.9c-3.6 3.8-12 2.8-14.9 7.2-2-.4-5.5 1.4-6.2 3.8-1.3.2.4-2.7-1.4-1.9.1 2.5.3 5.1-1.9 5.3.1-1.3 1.4-1.4.9-3.4zm99.3-3.9h2.4c-3.7-4-7.9-7.5-13.9-9.1v1.9c.8.8 2-.4 3.8 0 .5 1.6 2.1 2 1.4 4.8 2.4-1.7 7.6-.5 6.3 2.4zm-117.6-8.1c-.1 1.8 0 3.5 1 4.3-.7-2.7 4-3.7 1.9-4.8-.1 1.1-2 .2-2.9.5zm97 .9c-3.6-.3-4.8-.1-8.6 0-.9 1.6 2.2 1.6.5 2.4-.8 0-.4-1.2-1.4-1-.1.6-.1 1.1-1 1-1.6-2-3.7-.4-5.3 0-1.9.5-4.1.4-6.2 1-4.2 1.1-7.4 3.7-11.5 3.8 0 .5-.1.8-.5 1-3 1.6-6.5 2.4-9.6 3.8-.7 1.4-1.6 2.6-3.8 2.4-1.9 2.4-4.9 3.7-8.2 4.8-1.8 2.5-4.8 3.8-8.2 4.8-1.2 3.5-4 3.6-5.3 6.2h-1.9c-1.1.7.6 1.2-.5 1.4-2.5-1.7-1.6 3.4-4.3 1.4-.1.7.2 1.8-.5 1.9-.6 0-.7-.6-1.4-.5-1.9 3.2-4.7 5.5-7.7 7.7.7 4.6 7.5 3 7.7 8.2.9.1 2.4-.5 1.9 1-.5 1.3-1.3-.7-1.9.5.1 1.6.2 3.4-1 3.8.4.8 2.3-.1 1.9 1.4-3.3.8-3.8 5.9-2.9 8.2-1.5.3-.7-1.7-1.9-.5-.9 1.6 2.2 1.6.5 2.4-.8 0-.4-1.2-1.4-1-.7 2.8-3.8 3.2-3.8 6.7-1.2-.1-2.3-.1-2.4 1 1.5.4 1.5 1 1 2.4 1.5-.9 3.3-1.5 3.4-3.8 4.7-3.2 7.2-8.3 11.5-12.5l1.4-.5c3.6-3.1 5.9-8.5 9.6-9.1 3.4-6.1 10.9-9.9 15.4-14.4 1.4-1.4 2.8-2.7 4.3-3.8 1.6-1.2 3.6-1.7 5.3-2.9 3.8-2.6 6.9-6.2 10.6-8.2 1.5-.8 2-.2 2.9-1 1.3-1.2 4.2-2.1 5.3-2.9 2.3-1.6 4.7-2.9 7.7-2.9 1.5-2.5 4.8-2.7 7.7-3.4 1-.2 1.9-1.6 2.9-1.9 2.6-.8 5.4-1.1 8.6-1-1.3-4.3-7-4.1-8.9-7.9zm13.4 8.7c-.5 2.8-2.4 1.2-4.8 1.9 0-.5.4-.6.5-1-2.6.2-2.3.1-4.8 0-.1.6.1 1.4-.5 1.4-2.3-2.4-4.8 1.9-8.6 1-.1.6.1 1.4-.5 1.4-8.5 2.8-15.6 7.1-23.5 10.6v1.4c-5.3 2.4-9 6.4-14.4 8.6-2.6 5.2-8.6 7.1-12.5 11-.3.8.6 2.8-.5 2.9-.6 0-.4-.8-1-1-1.4 2.2-3.8 2.8-4.8 6.2h-2.4c-.2 2.4-2.9 2.7-3.8 3.8-.5.7-.4 1.9-1 2.4-.2.2-.8-.6-1-.5-.6.5.1 1.3 0 1.4-.7.9-2.7 0-2.4 1.4.6.2 1 .6 1 1.4h-1.9c0 1.7 2.5 1.5.5 2.9-.9-.1-.3-1.6-1.4-1.4-1.6 1-2.2 2.1-2.4 3.4-3.2-.2-2 4.1-5.3 3.8.3 1.2 1.1 1.8 1.9 2.4 1.4-3.7 6.5-3.7 10.1-5.3 0 1.3-.8 1 0 1.9 6.2.9 3.9 6.8 5.3 10.1-2.1-.5-2.1 1.1-2.9 1.9.8.1 2.4-.5 1.9 1-3.2.1-3.5 3.2-3.8 6.2-2.4 2.2-5 4.2-6.2 7.7 1.6.9 3.1-1.9 3.4-3.8 2.7-2.9 5.6-5.6 6.7-10.1 5.9-3.3 7.7-10.4 12.5-14.9 1.3-1.2 3.1-1.6 4.3-2.9.7-.7.7-2.1 1.4-2.9.5-.6 1.5-.4 1.9-1v-1.4c.2-.3 1.4-.9 1.9-1.4 7.4-8 15.1-16 24-21.6 3.4-4.6 8.8-7.3 13.4-10.6 4.1-2.9 8.3-6 13-8.2 1.2-.6-.9-1.4.5-1.9l1.9 1c1.5-2.5 7.9-1.6 9.1-5.8-1.3-.7-3.7-.5-3.8-2.4 4.2-.1 5.6 2.7 10.6 1.9.7-.6.8-2.9-.5-2.9.1 1.1-.1 1.8-1 1.9l-8.2-1.9c-.2-1.3-1.5-1.3-1-3.4-5.2 1.1-6-4.2-9.1-2.4 2.7.8 5.2 4.3 8.2 5.8zm69.1-1.9c-1.3 0-2.7-.2-3.4.5 1.1 1.7-1 1.6 0 2.9 1.5-1 2.1-2.2 4.8-2.9-.1 1.8-2.5 1.4-2.9 2.9 1.4 1.3 3.5 0 4.8.5.5.2 1.9 2.8 3.4 1 0 .6-.6.7-.5 1.4.8.4 2.6 0 2.4 1.4 3.2 0 4.3 1 6.2 1.9.8.4 2 .6 2.9 1v1c.6.3 1.6.1 2.4.5 2.2.9 5.5 2.2 7.7 3.4.1.1-.1.8 0 1h1.4c1.4.8 1.9 2.4 2.9 3.4 23.7 12 39.6 31.8 59 48 1.5-5-5.1-5.8-5.3-10.6-4.4-3-6.7-9.4-5.3-16.8 2.3-1.7 4.6-3.4 9.1-2.9-1.2-3.2-3.1-5.9-6.7-6.7-3.6-6.5-12.4-7.8-16.8-13.4-2.4-1-4.9-2-7.2-2.9-3.5-1.3-6.3-4.1-9.6-5.8-.5-.3-1.4.2-1.9 0-1.4-.4-2.1-2.9-4.3-1.9 0-.7-.2-1.1-.5-1.4-6.5-1.7-12.8-3.5-17.8-6.7-5.3-.1-9.6-3-14.4-3.8l-3.4-1c-2.4 0-3.7 1.9-6.2 1.9-.7 1.9 1 1.5 1 2.9-2.4.9-1.9-2.4-3.4-1-.3 1.5 2.5 0 1.6 2.2zm-168-1c2.4-.8.3-4.6-1-4.8-1.4 1.8 2.2 1.8 1 4.8zm-6.2-.5c1.3.1 2.1-.2 1.9-1.4-.6 0-.7-.6-1.4-.5-.2.6-.7.9-.5 1.9zm136.3 8.7c-.5.4-.1 1.8-1.4 1.4-2.5-4.3-7.2-6.6-8.6-12-1.6-.1-2.3.6-2.4 1.9.9.2 2.9-.7 2.4 1h-2.4c1.8 5.3 4.8 9.3 7.7 13.4 3.8 2.6 6.2-1.9 8.6-5.3-1 0-.6-1.3-1.9-1 .1.9-.6 3.5-1.9 2.4 1.1 0 1.1-1.8-.1-1.8zm-15.3-6.8c-2.2.4.1-3.6-1.9-3.4-1.8 1.7 1 5.9 1.9 3.4zm-13-1.4c-.1 1.3.7 1.6 1.9 1.4.1-1.3-.2-2.1-1.4-1.9 0 .3-.1.6-.5.5zm45.6 3.8c.1-1.3-.7-1.6-1.9-1.4-.2 1.3.6 1.6 1.9 1.4zm106.5 74.4c-.2 4.2-3.6 6.6-6.7 6.2-2.7-.3-4-4.3-6.2-4.8 2.3 2.8 3.7 6.5 7.7 7.7 3.9-3.4 7.1-7.6 8.2-13.9-1.8-1.9-3-4.3-5.8-5.3 0-.8.4-1.2 1-1.4 2.8.3 2.6 3.5 5.3 3.8.7-2.6-2.5-5.1-5.8-5.3-13.3-15.7-29.4-28.5-46.1-40.8-4.2-.4-5.5-3.7-9.1-4.8-1.3-2.6-5.6-3.6-7.7-4.8-2.1-1.1-3.9-1.4-6.2-2.4l-2.4-1.9c-1.1-.5-2.5-.5-3.8-1-2.3-.9-3.5-2.3-6.2-1.9v-1.4c-2.2 0-4.9.4-5.8-1-1 .3.3 2.9-1.4 2.4-1.4-.4.3-1.5 0-2.4-1.5.3-1.8-.5-2.9-.5 0 .8.1 1.7-1 1.4-.9 1.6 2.2 1.6.5 2.4-.5-.5-1-.9-1.4-1.4l1-1.9c-3.7-.7-1.1 3.6-4.8 1.9-.7.6-.5 2.1-.5 3.4l1.9-1.9c.1 1.6 3.2.3 3.8 1.4-.2.6-.5 1.1-1 1.4-.6-.5-.9-1.4-2.4-1 2.9 3.9 7.4 6 12.5 7.7 6.7 6.9 16.6 10.6 22.6 18.2h1.9c16.1 13.6 31.1 28.4 45.6 43.7-5.6-7-3.3-19.8 8.2-16.8.8.2.9 1.1 1.9 1.9.6.5 3.8.2 1.4 1.9-1.9-1.3-3.8-2.6-7.2-2.4.2 2.3-2.1 2.1-3.4 2.9-.4 2.2-1.9 3.2-1.9 5.8 1.5-.2.2 2.4 1.9 1.9v-3.7c2 1 .9-1.2 1.4-1.9.3-.3 3.3-2.4 3.4-2.4 4.1-1.8 5.1 1.5 7.2 2.9 2.4 1.6 3.9 2.8 4.3 5.3l-2 2.8zm-101.2-68.6c-.5-1.1-.6-2.6-1.9-2.9-.2 1.8.3 2.8 1.9 2.9zm-103.7 78.7c5-3.5 5.8-11.1 11-14.4 3-5.8 7.5-10.1 10.6-15.8 1.4-.3 2.3-1.2 2.4-2.9 4.5-3.3 6.2-9.5 11-12.5l1-3.4c8.2-9.1 16-18.5 25-26.9-.6-.1-1.1-.1-1-1 2.1.6 2.5.1 2.9-1.9-1.3.1-2.4.2-1.9-1.4-2.4.5-5.1.2-5.3 2.4-1.5.2-1.1-1.5-2.9-1l-1.4 2.9c-.8-.2-.4-1.5-1.9-1-3.4 2.4-7.3 4.2-11.5 5.8-.7 1.3-1.7 2.5-2.9 3.4-2.9 1.5-6.6 3.8-8.6 5.3-2.4 1.7-6.3 3-6.7 5.8-4.2 1.7-6.4 5.4-10.6 7.2-5.3 7.9-15.6 13.2-19.2 21.1-2.3 0-1.6 3.7-3.8 2.4.3 1.7-1.7 1.1-1.4 3.8h-1.9v2.4c-3.4.2-2.7 4.7-5.8 5.3-.5 1.5.1 1.3-.5 2.4-3.8 1-4 5.6-6.7 7.7-.4 1.4.7 1.2.5 2.4-3.2-.1-4.9 2.4-3.4 4.3 3.9-2.9 9-7.1 13.4-10.1 2-1.3 4.6-1.8 8.2-1.4 1.2 1.8 3.3 2.8 5.3 3.8 1.1 2.4 1.3 5.7 2.4 8.2-2.2 1.1-3.7 4.8-2.4 6.7 1.9-3.2 4.9-5.5 6.1-9.6zm81.1-72.5c-5.3 2.5-8.3-4.6-11-7.7-1 1.5-.9 2.6-2.4 4.3 1.2 1.5.7 2.8 0 4.3 1 .8 1.5 2 2.9 2.4-.6.2-1 .6-1 1.4 3.6 3.5 8.2 11.8 13.4 4.8-.6-.2-1.1-.5-1.4-1 1.3-1 1.2 1.1 2.9 0-.3-1.5.5-1.7.5-2.9-1.5-.4-.6 1.7-2.4 1 .3-1 1.2-3.1-.5-3.4-.5.4-.1 1.8-1.4 1.4-.4-1.4.7-1.2.5-2.4.7.8 2.1.5 1.9-1-1.1-1.2-.9.7-2.4.5-1-1.3 1.8-1.2.4-1.7zm112.8 72.5c-1.6-3.4-4.9-5.3-7.2-8.2-.5-.6-.4-1.7-1-2.4-2.9-3.4-8.3-6.1-9.6-10.1-7.3-6.1-13.8-13.1-20.6-19.7-4.4-2.5-7.4-6.3-11-9.6-4.8-1-6.1-5.5-10.6-6.7-.1-1.9-1.9-1.9-2.4-3.4-5.5-1.7-8-6.4-13.9-7.7-3.8-4.5-9.9-6.7-15.8-9.1-.1.6-.1 1.1-1 1-1.1-1.6.2-2.5-1.9-2.9-.2.9 1.5 2.1-.5 1.9-1.1-.6.5-4-2.4-2.9 1.2 1.7.7 3.7.5 5.8-.9-.4-2.5-1.8-2.9 0 .9 1 2.5.6 2.9 1 3 4.2 5.8 8.6 10.1 11.5.1-.6.8-.5 1.4-.5 2.4 7.6 9.2 11.8 13.9 17.3 3.4 4 5.9 8.7 10.1 12 2.6 5.4 7.5 8.5 9.6 14.4 6.5 4.9 9.2 13.5 15.4 18.7-.5 1.2 2.1 1.7.5 2.4-4.1-2.8-5.9-7.9-9.6-11v-1.4c-5.8-5.4-9.5-12.9-14.9-18.7-.7-1.5-1.4-3.1-3.4-3.4-1.8-4.5-6.3-8.1-8.6-11.5-1.7-2.5-3.7-4.6-5.8-6.7-2-2.2-4.4-3.9-6.2-6.2-.8-1-1-2.4-1.9-3.4-2-2.1-5.1-3.5-7.2-5.8-1.7-1.8-2.5-4.4-4.3-5.8-1.4 1.4 0 2.8-1 4.8 1.7 1.1 5.5-.2 3.8 2.4-.5-.8-1.3-1.2-2.9-1-.5.8-1.6 1-1.9 1.9 1.5 1.4 1-1.9 3.4-1-.3 1.9.5 2.7.5 4.3-1.1-.1-1.8.1-1.9 1 1 1.5 2 4 .5 5.8 1.9-1.1 3 .6 2.9 2.9.8.3 2.8-.6 2.9.5l-1.9 1c1.4 1.5 3.5 2.2 2.9 5.8l2.9 1.4c-1 1 .2 1.4 0 2.9 1.5.5 1.8 2 2.4 2.9 1.1 1.5 2.5 4.6 2.9 5.3 1.9 3.9 4.2 8 5.8 11 .9 1.8 2.2 4.3 1.9 6.2-1.9-2-3.1-4.5-3.8-7.7-3-3.3-4.5-7.6-6.7-11.5-1.8-3.2-3.9-6.2-5.3-9.6-.7-.1-1.8.2-1.9-.5 0-.8 1.2-.4 1-1.4-.7-.4-1-1.2-1-2.4-1.1.1-2.1 1-2.4-.5 0-.8 1.3-.3 1.4-1-2.6-.6-1-2.5-2.9-3.8-1.6 1.2-3.1-1-4.3 0-.2 3.3 4.2-.8 3.8 2.4h-2.9c-.3 2.9 2.7.1 3.4 1.4 0 .5.4.6.5 1-.1 1-1.3 1-1.9 1.4 2.9 3 .2 8.7 4.3 10.6-1.5.7-.6 1.8 0 2.9 1.7.5.2-2.3 2.4-1.4.5 2.1-1.5 1.7-2.4 2.4 1.4 5.8 4.2 9.9 5.8 14.4.7 2.1.6 1.6 1.4 2.9 1.2 1.9 1.6 4.1 1.9 6.2 2.2.8 2.6 3.5 5.3 3.8 0 .8-1.3.3-1.4 1 1.2 1.3 2.6 2.5 2.9 4.8 1.3 1 1.2-1.1 2.9 0-.1 2.1 1.4 2.4 2.4 3.4 1.5-2.2-.3.7 1.9.5.2-.9-1.5-2.1.5-1.9 1.1.1.2 2 .5 2.9 1.8.5 3.1-.1 5.3 1-.1-2.5-2.5.2-2.4-2.4 0-.8 1.2-.4 1-1.4-1.5-.4-1-2.9-2.9-2.9.4-.7.7-1.5 1.9-1.4 0 2.4 2.1 2.7 1.9 5.3 4.1 1.5 3.3 7.9 8.2 8.6.5-3.1-1.9-.4-2.4-2.4 1-1.6-1.5-2.7.5-4.3-2.6-7.7 4.3-9.1 10.6-7.2 2.2 1.7 4.4 3.3 6.2 5.3-4.9-1.2-9.1-6.6-13.9-2.4.1 3.3-.3 7 1.9 8.2-.1-3.9-.7-8.7 3.8-6.7.5-.4.1-1.8 1.4-1.4 2.5 2.4 7.9 3.6 7.7 7.2.1-.7 1.2-.4 1.9-.5.5 3.1 4.5 2.9 4.3 6.7-2.8-.4-3.2 1.6-6.2 1 1.3 3 8 .7 10.1 0 .7-3.1-2.1-2.7-2.9-4.3 3.4-2.4 4.6 6 6.7 3.4-1.2-1.9-3.6-2.5-3.8-5.3 3.7.6 3.2 5.4 7.7 5.3 1-2-3.1-2.6-2.4-5.8-4.9-3.5-7.6-11.8-5.3-19.7 9.6-9.3 21.3 5.1 29.3 7.7-1 .6-2.5.7-3.4 1.4-2.2-4.8-9-5.1-12-9.1-2.6-.4-4.3-1.8-7.2-1.9-.4 1.3-1.2 2.3-1.9 3.4-1.2.6-1.2-2.2-1.9-.5 1.7.5-1.9 7.5 1 9.1 2.2-1 2.1-4.3 2.9-6.7 3.9.8 4.5-1.6 7.2-1.9v1.4c.9.1 1.1-.5 1.9-.5 1.6 2.7 5.4 3.3 7.2 5.8 0 4.2.4 5.8 0 9.6-4.8 1-7.3 4.2-13 4.3-.4-3.4-3.9-4.5-4.8-7.7-.4-1.2.9-2.9-1-3.8-.1.6-.8.5-1.4.5.4 2.4 1.6 4.6 2.4 5.8 1.3 1.8 2.5 5.5 3.4 6.2 2.8 2.3 4.3.3 7.7-1 4.6-1.7 7.6-4.3 11-5.8 1.8-.8 3.2-.9 3.4-2.9.1-1.4-1.8-1.6-.5-2.9 1.3.8 2.2 1.3 2.9-.5-2.4-.8-3.4.6-5.8-.5 1-1.2 1.9-2 3.4-.7zm-151.2-1c.6-1.3.4-1.5 1.9-1 .2-1.7 1.1-2.8 1-4.8 1.8.7.9-1.3 2.4-1 2.5-8.1 7.9-15.1 9.6-25.4.7 0 1.1-.2 1.4-.5.1-1.2.1-2.3-.5-2.9 2.2-.1.8-2 1.4-3.8.9-2.7 2.3-9 2.9-11.5.3-1.7-.6-2.3-1-3.4 2.8-.7 3.1-4.5 1.9-6.7-1.7.4-2.3 2.2-1.4 3.8-1.8-.5-.8 1.8-2.4 1.4 0-7.3 7.9-12.7 2.9-19.2-.1.6.1 1.4-.5 1.4-2-.6-3.6 3-5.8 3.8l-1 2.9c-8 7.2-15.7 14.7-20.6 25-.8 0-1.5.1-1.9.5-5.1 7.4-10.7 14.2-16.3 21.1v2.4c-1.4-.5-.9 1.1-1 1.9-1.1-.2-1.8.1-2.4.5-.8 2.8-2.1 5-4.8 5.8v2.9c-.8 0-1.5.1-1.9.5-.2 2.7-.7 5-3.4 5.3-1.3 2.4-2.5 4.9-3.8 7.2h-1.4c-1.2 1.2 1.2 1.3.5 3.4-1-.3-.9-1.4-1.9-.5-.8 1.6.1 1.8 0 3.8-1.1-.1-1.8.1-1.9 1 1.7 1.1-2.2.6-1 2.9 1.8-1.1 3.1-2.7 3.8-4.8 1.9-.3 2.6-2.2 3.8-3.4 1.6-1.5 4.1-2.8 4.3-4.8 2.8-.8 5.6-4.5 9.6-4.8 3.3-.3 5.5.5 7.7 2.9.7 2.5.6 5.8 1.4 8.2 1.1-1.9 2.3-3.8 3.4-5.8-.4-.5-1.8-.1-1.4-1.4.9-.9 1.2-.1 2.4 0 .8-4.5 4.2-6.4 4.8-11h1.4c.4-3.2 2.2-4.9 3.8-6.7.7.6.9 1.6 1 2.9-2.2-.2-2.7 1.3-1.9 2.9-2.9 1-1.8 3.1-3.8 4.8.2.8 1.5.4 1 1.9-1.4.4-1.2-.7-2.4-.5.7 1.5.4 2.8-1.4 2.9 1.5 2.8-1.9 3.5-.5 6.2h-1.4c0 1.1.8 1.4.5 2.9 1.8-.2 3.1.1 3.8 1 .8-.3 0-2.3 1-2.4.4.9 1.7 1.7 2.4 1 .9-1.6-2.2-1.6-.5-2.4.8 0 .4 1.2 1.4 1 .2-1.8 1-3.2 2.9-3.4-.6-2.1 1.4-3.2.5-4.8.7-.1.4 1.1 1.4.8zm41.3-66.7c1.5.4.7-1.6 1.4-1.9-.7 0-1.1-.2-1.4-.5-.9.9.3.9 0 2.4zm131.5 40.8c-1.9 4-3.6 8.3-4.8 13-1.5-.2-.2 2.4-1.9 1.9 1.1 5.3-3.7 7.2-4.8 9.6-.8 1.9-1.3 1.6-2.4 2.9-2.4 2.8-3.3 6-6.2 7.7-2.7.2-1.5 1.8-4.3 1.4-.6.9-1.3 1.6-1.9 2.4-3.3-.8-2.5 3.6-5.3 1.9-.3.7.6 2.5-.5 2.4-1.6.2-.8-2.1-2.9-1.4-.4 3.7-4.5 1.5-6.2 4.3-.8-.2-.4-1.5-1.9-1l-1 1.9c-.6-.1-.5-.8-.5-1.4-2.8 1.3-4.4 1.5-7.7.5-1.3 1-.1 1.8-2.4 1-.1.9.5 2.4-1 1.9v-1.9l-4.3 1 .5 2.9c3.7-.8 4.3.2 6.7-1 1.5-.4 1.8.4 2.4 1 2.9-1.8 8-1.4 11.5-1.4 2.1-2.3 8.3-2.7 10.6-3.4-.4-.1-.6-.4-.5-1 1.7-.2 2.3-.7 3.8 0 1.8-2.5 3.3-2.4 6.2-3.4.9-2.6 2.4-4.6 5.8-4.8v-2.4c4.4-.1 3.7-5.3 7.2-6.2-.4-3.8 3.2-3.5 2.9-7.2.7-.1 1.8.2 1.9-.5-.6-.2-1-.6-1-1.4 1.2.1 2.3.1 2.4-1-.4-.5-1.8-.1-1.4-1.4.1-1.3 1.4-1.5 2.4-1.9-.9-1.6.1-2.3 0-4.3 1.3 0 1 .8 1.9 0-1.2-2.4-1.1-5.6-1-9.1.1-2.3 1.3-2.7 1.4-4.3.3-3.4-2-8.2-1-11 .1-1.1-1.4-.5-1.4-1.4-.2-1.6.2-2.7.5-3.8-1-1.4-1.2-3.6-2.9-4.3-1.8-4.2-4.6-8.7-6.7-11.5-1.7-2.2-2.5-5.3-5.3-5.8.9 2.8 3.7 4.4 5.3 7.2 3.4 6.2 7 14.5 6.7 21.6 1.1 1.3 2.7 6.7.5 8.2l1 1.9c-1.6.2-2-.8-2.9-1.4.1-.9 1.6-4.3-.5-4.3v3.4c-1.3 1.4-3.9 1.4-5.3 1.4.4 2.8 2.4 4 4.3 5.3.9-1.2 1.8-2.7 1-4.3 2.2-.9 2.3.7 3 1.5zm-144.5-35.5c0 .8-1.2.4-1 1.4 1.7.6 3 1.4 2.9 3.8 2.5.8 3.6 3.1 6.7 3.4 1.8-1.5 5.4-3.4 4.8-5.8-2.6 0-3 2.1-4.8 2.9-4.5-2.3-7.4-6.4-11-9.6-.3.3-1.1 2.3 0 2.4.1-.6.1-1.1 1-1-.7 2.1.9 1.8 1.4 2.5zm-120.9.5c1.8.4 2.3-.5 2.4-1.9-1.2.3-2.2.6-2.4 1.9zm143 1.4c.8.4 1.4 1.5 2.4.5.5-1.8-2.3-1.9-2.4-.5zm-145.9 2.4c2.2.3 3.5-.4 3.8-1.9-.9-.5-3.9-.1-3.8 1.9zm132 10.1c2.1-1.4 4.7-2.3 5.8-4.8-3.1.3-2.7 1.6-5.3 1.9 0-.8-.1-1.5-.5-1.9-6.7.8-6.1-5.7-10.6-7.2 2 5.6 6.2 8.8 10.6 12zm-128.2 45.1v-1.9c-.6-1.2-1.8.5-1.9-.5.5-1.8-1.3-5-2.4-6.7-.4-3.6-2.1-5.9-3.8-8.2-.2-9.9-.4-18 1.9-25.4.4-1.3 1.6-2.5 1-4.3 2.8-.7 2.5-4.5 3.8-6.7-1.4.3-2.1 1.4-4.3 1-.2 1.6 2.1.8 1.4 2.9-1.5.1-2.7.5-3.8 1l1.4 2.9c-1.7.2-3.1.8-3.4 2.4.3.7 1.8.1 1.9 1-.3 2.1-3.2 1.6-3.4 3.8 1.6-.5 1.6.7 1.4 1.9-1.3 0-2.7-.2-3.4.5-.8 2.4 2.1 1.1 1.9 2.9-1 .8-2.5 1-2.9 2.4.3.8 2.3 0 2.4 1v1.4c-2.4-.1-3.5 1-3.4 3.4.4 1 3.1-.2 3.4 1-1 1.6-4 1.2-3.8 3.8.3.9 2.7-.1 2.9 1-1.7 1.6-1.2 2.7-2.4 4.3.3.8 2.3 0 2.4 1-.6.6-.5 1.7-.5 2.9.3.8 2.3 0 2.4 1-.7 1.2-1 2.9-1.4 4.3 3.1.9 2.4 5.6 5.8 6.2.5.1 1-2.1 1.4-.5-1 .7-1.7 1.8-1.4 3.8.4 1 3.1-.2 3.4 1-1.6 1.4.9 2-1 3.8 1.8-1.7 1.5.3 4.3 0 0 2.9 2.3 3.8 3.8 3.8.4 1.4-.7 1.2-.5 2.4 2.6-.3 4 1.6 5.3 3.8.4-1.8 1.5 0 3.4-.5v2.4c3.1.2 4.7 3.5 7.7 2.4.8 4 5.4 1 8.2 2.9 0 1-1.3.6-1 1.9 1.5-.5.9-1.5 2.4-1.9.3-.1 1.3.9 1.9 1 1.7.2 3.7-.2 4.8 1 3.3-1 7.1 2.3 9.6-.5 1.9 3.1 6.6-1.2 9.1 1 1 0 .6-1.3 1.9-1l2.4 1c.9-.7 2.1-1.1 1.9-2.9-2.6.4-4.3-.2-5.3-1.4-.1.7.2 1.8-.5 1.9-8.7-1.2-18.6.5-24.5-4.3-.3 1.1-.9 2-2.4 1.9-.3-1.5.5-1.7.5-2.9-2.1-.1-1.1 2.8-3.4 2.4 1.3-1.3-.2-2.3-.5-3.4-1.2-.2-1 .9-2.4.5-.7-.6-.2-2.4-1.4-2.4-3.4.5-6.8-4.5-10.6-3.8.1-.9 1.6-.3 1.4-1.4-1-.3-3.2.6-3.4-.5 0-.8 1.2-.4 1-1.4-5.6-.9-5.7-7.4-9.3-10.4zm120-48.4c1.1 5.2 9.9 13 13 4.8-9 2-10.9-6.1-16.3-9.1.4 2 1.6 3.4 3.3 4.3zm131.5 6.2c4.3-2.6 8.4-1.6 9.6 3.4 1.7-2.7-1.3-4.3-1.9-6.2-3.3.1-7.4-.5-7.7 2.8zm-118.5 4.3c-5.9 2.8-9.4-3.9-13.9-6.7 1.3 5.3 9.5 16.3 13.9 6.7zm-136.8-4.8c-.8 1 .3 2.9-1.4 3.8 3.6.6 3.1-3 7.2-1.9.2-.9 1-1.2 1-2.4-3-.7-3.1 1-4.8-.5.7 1.5-1.8.8-2 1zm9.1 8.7c1.5-2.1 2.6-9.6-1.4-8.2 3 .7-.5 5.8 1.4 8.2zm249.1-3.9c1.4-.6 3-1.2 3.4-2.9-.8-.2-.4-1.5-1.9-1-.1 1.8-1.8 1.8-1.5 3.9zm-1.9 5.3c1.2-1.1-.5-1.1-1-1.9-.5-1.9 1.1-5.9-1-6.2-1.3 1.2.1 7.1 2 8.1zm-133.4 2.4c2.6 1.7 3.5 8.8 7.2 9.1 2.2.2 2.3-.9 4.3-2.4-.9-2 1.1-5.3-1.4-6.2 1.3-.3 2.2-1 2.9-1.9-1.5-1.4-2.4.8-4.3.5 0-2-1.7-1.1-2.9-1.9-2.8-2-3.9-6.6-6.7-6.7 0 4 1.2 5.3.9 9.5zm-120.5-6.2c1.4.4 2.5 1 3.8 1.4-.1-1.8-.7-3.2-2.4-3.4-.1 1-1.8.4-1.4 2zm-4.3 1.4c.4-1 .7-2.1 1.4-2.9-1.4-.2-2.5 2.2-1.4 2.9zm264 1.4c1-.8.8-4.2-1.4-3.4-.1 1.7-.3 3.5 1.4 3.4zm-265.5 2.4c1.5.7 1.2-2.9.5-2.9-.5.6-.5 1.7-.5 2.9zm4.8 0c1.5-.1 2.3-.9 2.4-2.4-1.5-1.6-3.6 1.2-2.4 2.4zm4.8 2.4c.2-1.3 3.3-4.1 1.4-4.3.2 1.8-2.7 2.9-1.4 4.3zm253.5 0c.1-1.7-1.7-1.5-2.4-2.4.2 1.4.5 2.7 2.4 2.4zm-260.7 10.6c.5-.9.6-2.3 1-3.4-.9-.3-2-.2-2.4-1-.6-2.3 1.2-6.9-1-7.7.4 4.5-1.2 10.9 2.4 12.1zm0-10.1c.3 1.2.4 2.5 1.9 2.4.2-1.4 4.3-2.3 1.9-3.4-.3 1.2-3.3-.1-3.8 1zm2 7.2l3.8-4.8h-1.9c.1 2.1-3.5 2.9-1.9 4.8zm130 7.2c-.7-1.8-.4-2.2 1.4-1.4-.4-1.5.8-1.5 1-2.4-2.9 0-6-2.7-8.2-4.8.8-.8-.2-2.2-1.4-2.4 1 5.1 2.7 9.5 7.2 11zm-115.2-1.9c1.3-.1 2-.8 1.9-2.4-.9.1-1.1-.5-1.9-.5v2.9zm2.9 8.6c1.8-1.5 2.3-4.4 3.8-6.2-.4-1.7-1.2-2.9-2.4-3.8-1.3 3.2-.1 5.9-1.4 10zm-12.9-8.1c.9-.2 2.1-.2 1.9-1.4h-1.9v1.4zm249.1 3.3c.8-1.5-1.5-3.4-3.4-3.8.6 1.8 2.3 2.5 3.4 3.8zm-7.7 3.9c.4-2.8.8-5.6 2.4-7.2-3-.3-5.8 5.7-2.4 7.2zm-116.6-4.4c-1.8-.2-2.9-1.3-3.8-2.4-.5 2.8 2.8 5.2 3.8 2.4zm-118.1.5c3.6-.7 3.1 2.7 3.8 4.8 1.3-2.5 1.1-5.8-1.4-6.7-.4 1.1-2.3.6-2.4 1.9zm237.1 3.9c1.4-.4 1.2.7 2.4.5 4.4-5.3-5.3-7-2.4-.5zm-236.2 5.2c-1.6-1.7-3.1-.8-3.8-3.4-.6-1.8 1.2-3.8 0-4.3-2 2.6-1.5 9.5 3.8 7.7zm-11-3.8c4 2.5 5.1 10.2 10.6 9.6-.9-1-1.7-2.2-1.9-3.8-6.8.6-3.5-6.7-6.7-9.1-.1 1.7-1.9 1.7-2 3.3zm252.9 1.4c-.5-2.1.5-2.7 1-3.8-2.4-1.1-2.8 3.9-1 3.8zm-242.8 0c.6.7 2.4.7 2.4-.5-.6-.6-2.4-.7-2.4.5zm236.1 0c1.1.9 2 1.9 4.3 1.4.2-1.2-.9-1-.5-2.4-1.4.2-3.7-.4-3.8 1zm-209.2 1.5c-2.4-.3-2.6 2.6-4.3.5-.3 2.5-2.9-.1-3.4 2.4 1.3 1.5 4.2-.8 6.7-.5 1.9.3 3.3 1.6 4.3 2.9-.7 2.2.3 4.1 0 7.2-1.6 2.7-5.7 3.8-4.3 8.2-.9-.1-1 .6-1.4 1-.7-.4-1.5-.7-1.4-1.9-1.6.1-4.2-.6-3.8 1.4 1.4 1.3 3 2.4 6.2 1.9 1.7-1.8 2.8-4.2 5.3-5.3.1-.9-.5-1.1-.5-1.9 1.1.1 1.8-.1 1.9-1-.6-.1-1.1-.1-1-1 1.8-.5 1.3-4.5 1.4-5.3h1c.1-2.8-1.1-5.2-2.4-7.7-1.6-.2-4.2.7-4.3-.9zm-26.9 2.9c-.7 2.3 2.4 2.3 3.4 1.4.1-1.2.1-2.3-1-2.4-.1 1.1-1.2 1-2.4 1zm223.2 3.3c-.3-.9-2.7-3.3-2.9-3.4-.9-.5-6.1-.9-5.8-1-2.7.6-3.9 4.8-4.8 7.7 1.6 2.9 3 5.9 6.2 7.2 1.4-.2 1.7-1.5 1.9-2.9-2.4 1.1-4.5-.9-5.8-2.4v-6.2c2.7 1.8.9-2.7 3.4-2.4.4 2.8 4.7 1.7 6.2 3.4-.2 2.4-1.1 3.7-.5 5.8-.2 1.7-2.9 1-2.4 3.4 3.7.4 5.7-5.4 4.5-9.2zm-210.7.5c-.7.6 0 2.3-1.4 1.9 1 1.1 1.2 3.3.5 3.8-1.5.2-1.7-.9-3.4-.5-.1 1 2.1 1.9.5 2.9-.8 0-.4-1.2-1.4-1 0 2 2 2 1 3.8 3.3-2.7 6.5 3.9 10.1 2.4-1.3-1.6-2.2-3.5-5.3-3.4-1-2.1-.2-4.9 0-7.2 1.7-.6 4-3 2.9-4.8-.4 1.8-2.7 1.4-3.5 2.1zm6.7 0c2.3.1 5.4-.6 5.8 1.4-.4 2.1-.8 4.3-1.9 5.8 1.5-.4 1.8.4 2.4 1 0-2.7 2.3-3.2 2.9-5.3.4-2.2-1.1-2.4-1.4-3.8-4.2.2-5.7-2-7.8.9zm39.8 4.8c1.4 5.5-4.9 8-2.4 11.5 1.4-2.4 4.8-4 5.3-7.7.4-2.9-1.2-5.3-1.4-7.7-1.8.5-1.4-1.2-2.9-1-1.3 1.9.5 3.8 1.4 4.9zm156.5.5c2.3.4 2.6-1.2 3.8-1.9-.9-.7-.3-2.9-1.4-3.4-4.8-1-3.9 3.1-2.4 5.3zm-200.2 1.4c1.8 2.4 3.6 4.5 7.7 3.4.1-1.4-1.6-.9-1-2.9-1.7-.3-4.6.7-4.8-1 .1-2.3 1.1-3.7 1.9-5.3-3 .2-2.4 4-3.8 5.8zm5.3-1.4c1.7-.1 1.9-1.6 1.9-3.4-2.6-.9-2.9 2.1-1.9 3.4zm28.8 1.4c1.4 1 2.9-1.3 5.8-.5.4 5.6-2.5 7.8-6.7 8.6-.9-1.2-.3-3.9-.5-5.8-2.6.6-3 5.1-1.4 7.2 7.1.1 9.7-4.4 10.6-10.6-2.1-.8-6.9-1.5-7.8 1.1zm131.5 2.4c1 0 .6 1.3 1.9 1l3.8-3.4c-2-2.6-5.1-.4-5.7 2.4zm5.3 1.5c.3 1.5 1.1 2.5 2.9 2.4.1-1.2.1-2.3-.5-2.9-1.1-.2-1.8.1-2.4.5zm-149.3 5.2c2.3.2 2.4 1.5 2.4 2.9 2.7-.1 7.8 1.7 9.6-.5h-4.8c1.1-2.9-2.3-1.3-2.9-2.4-1.5-3.3 3.9-4.5.5-5.3-.1 3.3-3.6 3.1-4.8 5.3zm154.1-3.3c-2 5.2 1.7 4.8 3.8 2.9-2.1 0-1-.9-1-3.4-1.1-.1-2.2-.1-2.8.5zm-162.2 4.8c2.5.9 3.1-4.7 2.4-3.8-.7 1.3-2.2 1.9-2.4 3.8zm158.4-1c-.8-1.3-.5-3.6-2.9-3.4.1 2.1 1.4 2.8 2.9 3.4zm-137.3 1.9c1-.3 3.3.8 2.9-1-1.3.1-2.8-.2-2.9 1zm138.2 4.4c1.5.8 5.7.8 7.2 0-1.2-2.7-4.7-.2-7.2 0z"/><path fill="#00447C" d="M348.4 80.1l-.5 1.9c1.5.4 1.5-.7 1.9-1.4-.7-.7-2.2-.7-1.9-2.4.8-.3 2.8.6 2.9-.5.2-2-1.2.4-1.9-1-.1-.8 3-1.7.5-1.9 1.3-1.2 1.5-2.8 3.8-1.9-.3-1.5-2.2-1.4-1.4-3.8 1 .2 1.5-.1 1.4-1 1.1-.3.7.9 1.4 1 1.7-.9-.6-1.9-.5-2.9l1.9 1c.6-2.3 2.7-3 3.4-5.3-1.2.6-2.5 1.1-2.9 2.4-1.5-1.9 3.6-4.9 3.8-8.2 1.1-.3.7.9 1.4 1 1.6-.9-.8-1.7-.5-2.9 2.3-.1.2-2 1.4-3.4.9.5.1 2.8 1.4 2.9.7-1.3 1.9-2.2 1-3.8 1.5-.3 1.7.5 2.9.5.4-3-1.1-1.6-2.4-2.4.4-1.7 1.7-.6 2.4 0l-1-2.9c1.5-.4.6 1.7 2.4 1-1.2-1-2.3-3.5.5-2.4.2-1.5-1.7-1.3-.5-2.4 1.2-.2 1 .9 2.4.5.6-3.1-1.5-.4-1.4-2.9 2.1.1.2-1.6 1.4-4.8.9.2.9 1.4 2.4 1 .2-1.6-2.4-1-1-2.4 1.8-.5 1.5 1 2.4 1.4 1.5-.6-1-2.3 1-2.4-.1-1-1.3.7-1.9-.5.3-1.5 1.3-.6 2.4-.5.7-3.2-1.9-3.2-2.9-4.8.8-.3 2.8.6 2.9-.5.1-2-1-.3-1.9-.5l1-1.9c-.4-1.3-1.5-2-2.9-2.4-1.2 1.1 1.8 2 1.9 3.4-2.1-.4-2.5-2.7-4.3-3.4.8-1.3-.3-1.8 1-2.9-.1-1.1-2-.2-2.9-.5 1.2-3.6-3.2-1.6-2.9-4.3-6.2-1.2-11.8-4.4-18.7-4.3-2.3 0-5.4.1-7.7.5l-5.3 1.9c-4.4.7-10.1 1.2-13.9 2.9-.4.2-.4.5-.5 1h-2.9c-1.3 2-6.1 2.2-9.1 3.4-7.5 2.7-14.2 7.2-21.6 9.6-1 .9-2.4 1.4-2.9 2.9-4.8 0-5.8 3.8-10.1 4.3-.6.5-1 1.3-1.4 1.9-2.6-.2-3.2 1.6-5.3 1.9-4.4 4.3-10.1 7.2-13.9 12-2-.7-1.5 1.4-2.4 2.4-1.8 1.9-4.5 2.9-6.2 4.8-.5.5-.4 1.7-1 2.4-.8 1-2.2 1.5-2.9 2.4-.5.7-.4 2.1-1 2.9-.5.6-1.5.9-1.9 1.4v1.4c-.2.3-1.3.2-1.4.5-1.5 2.2-1.8 5.5-4.8 6.7-1.4 4.3-3.3 8.2-5.8 11.5v2.4c-.6.7-2.1.5-3.4.5-.5 1.4 1.1.9 1.9 1-1.9 2.1-1.4 6.6-5.3 6.7-.3 1.1.9.7 1 1.4-.8 5.1-3.9 8-4.3 13.4-.9.7-3.1 1.6-4.3.5.3-2.6.2-2.9 1.4-4.8 1.5.2 1.9 1.6 2.9 0-1.9-.9-2.8-.2-4.3-.5-.3-3.2 1.3-4.7 0-6.7 2 .2.3-1.6.5-2.4 2.2-1.1 3.1-3.7 4.3-5.8.7.1.2 1.4 1 1.4 1.3-.6 0-2.5 0-3.4h1.9c-.8-1.5-1-1.3-.5-3.4h1.9c-1.5-4.1 3.6-5.2 3.8-9.1l2.4-1v-2.4c5-3.5 6.7-10.2 12-13.4 1.3-4.8 6.5-5.6 7.7-10.6 4.8-4.4 10.6-7.9 14.4-13.4h1.4c11.6-8.6 23.9-16.4 38.9-21.6.4-.4.7-.9 1-1.4 8.7-1.3 18.5-6.3 29.3-7.7 10.7-1.4 24.5-2.5 33.6 0 1.9.5 3.8 2.2 5.8 2.9 1.7.6 4.3-.4 4.3 1.9h2.9c.3 1.8.8 3.4 2.9 3.4-.7 1.3-.1 4.7 2.4 4.3 1.5 2.2.8 6.6 2.9 8.2-1 1.8-1.9 2.3-.5 4.3-2.6 1.1-.2 7.1-3.8 7.2.1 1.5-.9 2-.5 3.8-1.7.3-2.2 1.7-1.9 3.8-1-.2-1.3.3-1.9.5-.4 1.4.7 1.2.5 2.4-3.3.5-1.4 6.3-6.2 5.3v3c-1 .4-1.6 1.2-3.4 1 .7 2.8-1.2 3-2.4 3.8-.2 1.5.9 1.7.5 3.4-4.2-.5-2.9 5-2.9 6.2-5.1-1-4.7 7.3-9.1 8.6-.7 4.2-1 6.1-3.8 8.2-.2 1.2.9 1 .5 2.4-4.4 1.7-1.1 8.6-5.8 9.6.6 2.8-.7 3.8-1.9 4.8 1.1 1.5.4 1.9 1 3.8-4.3-.9-2 4.7-3.8 6.2-.1 1.7 2.3.9 1.9 2.9-.9.4-1.2 1.3-2.9 1 .3 1.3-.6 3.8.5 4.3-.4.7-1.2 1-2.4 1-.5 1.8 1.2 1.4 1 2.9-2 1.4-3.5 3.2-3.8 6.2-2.6 1.4-4 4-5.3 6.7-2.5.4-1.8 1.6-4.8 1.9 2.9-4.4 6.3-8.4 10.1-12 1.2-8.4 4.7-15 4.3-23.5.4-.3.8-.5 1.4-.5-2-2.1 1.9-3.5 0-6.7-.4-1.5 1.2-1 1.4-1.9-.4-.4-.9-.7-1.4-1 3 .7 5.7-4.2 2.9-6.2.9-3.4 1.5-7.1 5.3-7.7-.1-.7-1.2-.4-1.9-.5 1-1.5-.3-2.5 1.8-2.8z"/><path fill="#78BDE8" d="M115.1 46c-.7-2.6-1.8-4.9-2.9-7.2.4-1.2 1.7-1.5 2.4-2.4.1-1.9-.8-2.8-2.4-2.9-2.3-.2-1.7 2.4-3.8 2.4-.5 1.8 1.2 1.4 1 2.9-.8 0-1.8-.2-1.9.5-.4 2.3 2.7 1.2 1.9 3.8 2.6.2 3.8 1.9 5.7 2.9.1 2-2.1.9-1 2.9 2.4.6.7-2.8 3.4-1.9.6 2.3-2.2 1.3-1.4 3.8-17.9-4.3-45.7-10.4-68.1-5.8-2.1.4-6.4 2.8-9.6 0 .7-1.2 1.6-2.2 3.4-2.4-1.3-2.7 1.7-4.9 1.4-8.2-2.1-3.7-4.2-7.3-9.1-8.2l-.5-2.9c6.9-1.1 8.1 1.3 14.4-.5 1.4 1.3 2.6.6 3.4 1.9 1.1.3.7-.9 1.4-1 6 1 13.6 1.4 19.7 2.9 1.6.4 3.5.8 4.3 2.4 11 1.8 18.5 7.1 29.3 9.1-.7-1.8-3-2.1-5.3-2.4-3.2-2-7-3.4-11-4.8-2.6-.9-6.5-1.2-7.7-3.4-4.2.5-7.5-2.3-11.5-2.9-1.3-.2-2.9.2-4.3 0-9.4-1.6-19.3-4-31.2-2.9.4-1.1 1.9-2.4 2.9-1.4 1-1.5 2.5-2.6 4.3-3.4.2-3.8 3.7-4.3 3.4-8.6 1.1.9 2.3 1.6 3.4 2.4.5-.9 1-1.9 1.4-2.9 3.8.8 9.1.2 11 2.9l1.9-1c-.2 1.5 2.4.2 1.9 1.9 4.1-1.6 9.3 2.5 14.4 2.9.3.4.5.8.5 1.4 4 1 7.9 2 10.1 4.8 6 1.5 10.7 4.4 15.4 7.2 0 3.2 1.2 5.2 2.4 7.2l3.8-3.4c5.8 1.1 8.2 7.3 5.8 13.9l-2.6.4zm-12.9-4.8c1.5.7 1.5-3.1 0-2.4v2.4zm253.9 10.5v-1c-16.2-6-43-5-62.9-4.3-4.3 2.6-11.6 2.2-15.4 5.3.2-1.3 1.3-1.6 2.4-1.9l-1-1.9c1.7-2.4 2.6-5 4.8-6.7 1.9-1.4 4.8-1.1 5.8-3.4 10.6-3 20.3-6.9 32.2-8.6.7-.1.2-1.4 1-1.4 12.9-1.4 27-2.8 40.8-1.9-1.4-2.6-5.6-1.4-8.2-1.4-7.8 0-16.2.7-23 1.4-5.7.7-10.5.6-15.4 1.9-6.8 1.9-16.6 6.2-24 6.7-2.2 3.8-6.8.8-8.6 3.8-1.7-.5.1-3.5 1.9-3.4-1.1-3.8 4-4.3 4.8-7.7 10.1-3.5 18.3-8.9 29.8-11 6.8-3.3 17-5.7 25.9-5.3.5 1.9 1 3.8 1.4 5.8 1.5.3 1.7 2.5 2.9 3.4-.4-.3 1.4.9 1.9 1 .7.1 1.2-.8 1.9-.5.2.1.2 1.3.5 1.4.7.2 1.7-.1 2.4 0 1.9.3 4.4.7 8.2 1 1.1.1 4.1-.9 4.3 1.4-1.2.9-3.9.3-5.8.5.1 2.3 4.8 0 5.8 1.4v2.9c-1.8 1-5.1.5-6.2 1 .2 2.3 5.2-.1 6.2 1.4 0 1.4 0 2.9-1.4 2.9 0 2.2-.5 4-1.9 4.8l.5-3.8c-.4-1.4-1.5.3-2.4 0-.4-1.3 1-1 1-1.9-1.1-1-4.4.2-3.4-2.9-6.1.3-11.6 1.1-13.9 5.3-.5 7.3 4.1 9.6 7.7 13 2 .2 3.9.6 4.3 2.4-1 .9-3.9-.1-4.8 1-.4 2 3 .2 3.4 1.4-.3 2-1.8 2.7-4.3 2.4.4 3 .8 6.2-3.4 5.8-.2-1 .7-.9 1.4-1 .3-1.9-2-1.2-1.9-2.9-4.2-.5-6.1 1.3-8.2 2.9-.8 5.7 3.9 7.6 7.2 7.7-2.2 3.9-6-1.2-8.2-1.9.6-2.4-1.5-4.2-1-7.2 1.4-.6 3.4-.4 3.4-2.4 3.2.1 6.1-.8 7.7-1-.9-1.5-7.3-1-9.6 0-1.6.7-2.6 2.6-3.4 3.4-1 6.9 2.3 9.4 5.8 12.5.9.8 3.9.2 2.4 2.9-2.5.7-2.1-1.5-4.3-1-.9 3 3.2 1 3.4 2.9.3 1.7-1.4 1.5-2.9 1.4 0 1.6.8 2.4.5 4.3l-1.9-.5c-2 .1 0-.7 0-1.4-2-1.9-4.5-1.2-7.2-.5-.7.9-.7 2.5-1.9 2.9-.7 1.7 1.6.3 1.4 1.4-.9 4.1 2.1 4.3 2.9 6.7-4.1-1.6-8.6-8-4.8-13h4.8c-.6-1.7-4.3-1.1-4.8-1-2.6.6-3.8 3.1-3.8 5.8-.1 2.8 1.8 4.6 2.4 6.7 2.7 2.6 7.9 2.6 8.2 7.7-1.1-.2-1.8-.8-3.4-.5.3 1.9 4 2.5 2.9 4.3-5.9 0-9.2-1.7-12.5 1.9-.7 8.3 4.9 10.2 9.6 13-1.1 1.9-4.2.6-5.8 0 .2.1-1.1-1.1-1.9-1.4-.9-.4-3.9-1.6-4.3-2.9-4.6.6-7.4-3-11-3.8h-2.9c-2.5-.7-5.1-2.6-8.6-1.9-1.2-1.1.7-1.3 1-2.4-1.5 2-2.1-.5-4.8 0-.5.4.1 1.2-1.4 1.4-1.4.5-.9-1.1-1-1.9-3.1-.6-4.9-2.4-6.7-4.3-.2-8.7 11.8-7.8 17.8-5.3-2.2-3-11.7-4.3-16.8-2.4-2.4.9-2.4 3.2-4.3 3.4v3.8c1.5 1.3 2.4 3 3.8 4.3.8.8 3.5-.3 3.4 1.4-13.3-1.2-29.2-1.1-40.8-1-.3-1.9.5-2.7 2.4-2.4-.5-.8-2-.5-2.9-1-1.1 1.1.2 4.7-2.4 4.3-.8-2.2 1.9-4.8 3.4-6.2 1.8-.7.9 1.3 2.4 1 1.7-1.2-1.7-1.4-1.4-2.9 3.5.3 4.9-1.5 6.7-3.8l-1.4-1.9c1.4-.8 3.6-1.6 4.8 0 14.1-4.1 36-2.7 49.9.5.3.4.5.8.5 1.4 5-1.8 15.2 2.7 22.1 4.8-.8-2.1-3.9-2.8-6.2-3.8-2.2-.9-5.2-1.4-8.6-1.9-1.9-.3-4.1-1.6-6.2-1.9-4.5-.8-7.8-1.9-13-2.4-7.5-.7-15.6-.3-23 0-5.7.3-11.4.7-15.8-1 2-2.3 4-6.6 3.8-9.6 3-.7 2.2-5.1 5.8-5.3.2-.8-.4-.9-1-1 7.9-2.1 22.1-4.3 29.8-1.9 5.7-2.2 12.1.2 19.2 1 1.8.2 3.7-.3 5.3 0 2.6.5 5.2 2.3 7.7 2.9.8.2 1.7-.2 2.4 0 2.2.6 4 2.3 6.2 2.4-.1-2.1-2.1-2.3-4.3-2.4-.9-1.5-5.4-2.1-7.7-2.9-14-4.6-38.8-2.7-56.6-1.9-.1-1.3-1.6-1.3-1.9-2.4 1.2-2 1.6-4.8 3.4-6.2.2-1.3-2.7.4-1.9-1.4 3.8-.3 2.8-3.2 6.2-2.9.8-.4.9-1.7 1.4-2.4 3.6-.6 7-1.3 9.6-2.9 9.4-.2 23.7-3.5 38.4-1.9 8 .8 19.5 3.2 27.2 4.6zm-65.8-10.5c1.5.7 1.5-3.1 0-2.4v2.4zm2.4 0h1.4c-.1-.9.5-2.4-1-1.9 0 .6-.6.9-.4 1.9zm38.9 12c-9.8-2.5-9.7 6.5-3.8 7.7 3 .6 4.3-1 6.7-1.9v-3.8c-1.7 0-2.1-1.2-2.9-2zm-20.2 20.6c-3.1 5.7 2.2 10 8.6 9.1.7-2.1-2.9 0-2.9-1.4 3.2-.5 2.3-4.4 1-6.2.3-1.1 3.3.4 2.9-1.4-3.8-.6-6.1-1.4-9.6-.1zm13 6.3c-2-.4-1.7 1.5-3.8 1 1 3.6 6.5-1.2 4.3-3.8h-1.4c-.1 1.2 1.6.8.9 2.8zm13.9-2c1.2-.4 4.1.9 3.8-1h-3.8v1zm-51.8 2.4c.5-1.6-.7-1.6-1.9-1.4-.2 1.3.6 1.6 1.9 1.4zm13.9 21.6l1-1.9-1.9-1c3.6-.4 1.3-5.2 0-6.2-9.5-2.4-8.5 12.3.9 9.1zm7.7-7.2v-1.9h-1.4c.2.9.1 2.1 1.4 1.9zm1.9 5.8c.9-1.2.3-3.9.5-5.8h-1.9c1.1 1.3-.5 5.3 1.4 5.8zm-35 .5h1.4c-.1-.9.5-2.4-1-1.9-.1.6-.6.9-.4 1.9zm27.8 1.9c.1 2.7 5.5 1.1 5.3-1-2.2-.1-2.5 1.7-5.3 1z"/><path fill="#fd0" d="M351.3 40.7c.5-1.9 1.3-4.4.5-6.2 1.5-.4 2.4-1.4 4.3-1.4-.9 2.8-2.7 4.6-3.4 7.7 1.4 3.6 7.9 2 7.7 7.2-3.6-2.2-6.7-3.7-9.1-7.3zm-312.9-1.9c1-.2 1.3.3 1.9.5-.1.6-.9.4-1.4.5-1.2-.2.3 2.2-1.4 1.4-.1 0 .9-2.4.9-2.4zm100.3 31.2c1 .5 1 1.9 2.4 1.9 1.4-1.7-.7-4.1-2.9-3.8.4-1.2 1.4-1.8 1-3.8-2.1-2.1-1.6-6.7-4.8-7.7 2.2-1.5.2-5.2-1.9-5.3 1.8-1.4.5-4.8-2.4-4.3v-2.9c3.4.3 4 3.6 5.3 5.8.8 1.4 2.2 2.8 2.9 4.3 1.1 2.4.9 6.2 3.4 7.2-.4 3.4 2.1 5.4 2.9 8.2 1.2 4.2.9 8.5 2.9 12.5-.7 1-3.1 1.9-3.8 1.4-.1-1.3.7-1.6 1.9-1.4 1.2-4.2-2.5-3.6-1.9-7.2-.9-2.5-6.5-2.1-5-4.9zm227.5-25.9c-.9 1.2-2.1 2.1-2.4 3.8-1.3-1.5.9-3.5 2.4-3.8zm-112.3 23.5c1.9-.8 1 1.2 1.9 1.4.5-2.5 1.7-4.3 1.4-7.7 1-.5 2.3-.6 2.4-1.9-.1-1-2.1-.1-2.4-1 .4-1.7 1.4-.3 2.9-.5.3-1.9-1.1-2.1-2.4-2.4-1.4 0-1.8 1.1-2.4 1.9-.1 1.2-.1 2.3 1 2.4-1 1.1-4.8 1.9-2.9 4.3-.7 2.1-3.2 2.3-2.4 5.8-1.5-.1-1.4 1.5-3.4 1l2.9-3.8c-1.8-2.3.9-4.9 2.9-6.2.3-1.5-.5-1.7-.5-2.9 3.3.2 1.1-4.9 4.3-4.8.1-.9-.5-2.4 1-1.9v3.8h3.8c.7-.9 1.7-1.5 1.4-3.4-.5-2.2-4.3-.9-5.3-1.4.5-1.6 1.9-2.3 2.4-3.8 2 .7 1.6 3.9 4.8 3.4 1.5.2.2-2.4 1.9-1.9.1-1.1-.1-1.8-1-1.9.7-.7 2.4-1 2.9-.5-1.4 7.5-5.4 12.6-7.7 19.2-3.8 1.3-3.1 7.2-7.2 8.2-.6 2.2-1.5 3.9-3.8 4.3-.4-2.3 1.8-2 2.9-2.9 0-1.8-.4-3.9 1.9-3.4 1.1-2.6-2-1.2-1.3-3.4z"/><path fill="#00447C" d="M254.3 52.2c2.2.1-1 1.1 0 2.9-3.8 1.2-3.2 6.7-6.2 8.6-.7 4.9-4 10.6-4.8 16.3-.9 6.3-.4 13.1-2.4 19.2.3.7.7 1.2 1.4 1.4 3.9-6.3 5.8-14.7 11-19.7l-1-1.9c.4-.4 1.1-.5 1.9-.5 2.2-5.5 5.2-10.2 9.6-13.4 0-2.3 1.1-3.4 2.4-4.3 0-3.2 1.5-4.9 2.9-6.7.2-2.7 0-5.8 2.4-6.2 1 1-.1 3.9 1.4 4.3-2 4.6-4.4 11.2-3.8 16.8-4.2 4.4-4.7 12.6-10.1 15.8v2.4c-4 3.5-6.8 8.2-11.5 11-.4 2.2-2.6 2.5-2.4 5.3-5.4 2.3-8.9 6.5-12.5 10.6-3 1.1-7.3 1.1-11.5 1-.2-.9-1.9-.4-1.4-1.9-1.8-.2-.8 2.4-2.9 1.9-.5-1.1 1.6-4 3.4-2.9.7-1.8-1.3-.9-1-2.4.4-.6 2.3-3.6 0-3.8 2.1-.9 1.9-4.2 3.8-5.3l-1.4-1.9h1.9c-1-1.8.7-1.3.5-3.4 2.4-.3 1.5-4 3.4-4.8-.8 2.7-.4 6.6-2.4 8.2 1 2.9.3 7.4.5 11 1.1.6 1.1-.2 1.9-1l1.4-1c.8-1.2 0-3.7 1-5.3.3-.6 2.3-.6 1.4-2.9h1.9c.5-1.4-1.1-.9-1.9-1 .4-1.6 1.3-2.5 2.9-2.9-1.5-2.3 3.2-3.8 1.9-5.8 1.7-1.3 3.2-2.9 2.9-6.2h1.4c2.2-9 6.3-16.1 7.7-25.9 3-.9 4.5-3.4 6.3-5.6zm-16.3 48c-.1-.7-1.2-.4-1.9-.5-1 1.8 2.4 2.2 1.9.5z"/><path fill="#fd0" d="M38.4 48.9c1.2.1 1 1.6 1 2.9-1.5-.4-.6 1.7-2.4 1 1.7-1 .8-2.5 1.4-3.9z"/><path d="M66.2 51.7c-.4 1.3 1.5 2.6 0 3.4-1.4-.7-1.4-2.8-4.3-1.9.7 1.4 2.9 1.5 1.4 3.8 2.1.7 1.5-1.4 3.4-1-2.3 4.2-10.7 4-9.6-1.4.5-2.7 5.1-3.5 9.1-2.9z"/><path fill="#78BDE8" d="M61.4 92.1c-1.6-3.4 3.1-3.7 1.9-8.2h1.9c-.9-1.6-3.1-2-2.9-4.8-3.5-1.9-7-4.8-11-4.8 1.1-1.9 2.6-.4 2.9-2.9 5.9-1.7 14-3.8 21.6-5.3 2.7 2.2 6.4 0 11.5-.5 10.8-1 22.4 1.2 32.2 1 1 .8.9 2.6 2.9 2.4.3 1.1-.9.7-1 1.4 3 .6 3.6 7 5.8 10.1 1.2 1.8 2.8 1.8 3.4 4.8-16.3-.3-33.8.3-50.9 2.4-1.2-.1-1.2 1.1-1.9 1.4-5.3.3-9.2 2-13 3.8-2.5-.8-4.7 1.5-6.2 1.9-1.9.5-4.2-.6-5.3 1-.8-3 5.2-1.1 6.2-4.3.8 0 1 .7 1.9.6zm21.1-17.8c-4.6-6.5-22.5-2.4-14.9 6.7 4.4 0 10.1 2.7 11.5-1.9-1.5 1.5-5.3.8-8.2 1-.5-1.1-2.5-3.2-1-4.8 1.1.2 0 2.5 1 2.9 1.6.8 4.1.6 5.3-.5.6-3-1.1-3.7-2.4-4.8 3.2-1.3 6.4 1.2 7.7 3.4-.4 1.1-1.8 1.1-1.9 2.4 2.9.4 3.1-1.8 2.9-4.4zm-27.4 23.5c.5-1.1 2.5.4 2.9 1 1.8-.8-1.1-.7-.5-1.9 2.3 1 4.8-4.2 9.1-1.9.7-.1.4-1.2.5-1.9 1.5-.4.6 1.7 2.4 1l.5-1.9c1.8-.7.9 1.3 2.4 1 1.5.4.7-1.6 1.4-1.9 4.7.2 6.2-2.8 11.5-1.9 1-.3 1.6-1 2.4-1.4 5.7 1.1 11.4-2.5 15.4 0 4.7-.9 13.3-1.8 20.6-1 .8.1 1.3.3 1.4 1 1.5.2 1.1-1.5 2.9-1 .7 1.8 3.2 1.1 4.8 1 .9.6-.3 3.1 1.9 2.4.7 1.7-1.6.3-1.4 1.4 1.2 1.3 3-.8 3.8 1-.1.7-1.4.2-1.4 1 2.5 2.4 6.8 3.1 7.7 7.2-13.4.8-28.4.9-40.8 2.4-2.3.3-5.2 2.5-7.2 0h4.3c.2-1.9-3-.5-4.3-1-1 .1-.1 2.1-1 2.4-11.2 1.6-21.1 4.5-29.3 9.1-1.1.3-.7-.9-1.4-1-.9 2.1-2.9 3.2-5.3 3.8 2.5-1.1 4.3-7.2 7.2-4.8 1.5-.8-1.5-1-.5-2.9l1.9 1.4c0-1.3-.3-3.3 0-6.2-1.9-.1-.4-.6-1-1.4-.6-1.1-3.1-.6-3.4-2.9h-6.7c.1-1 .7-2.6-.8-2.1zm45.6 4.3h2.4c.8-2.1 2.8-3 4.3-4.3v-4.8c-1.7-.2-2.4-2.2-3.8-2.9-3-1.3-6-.6-9.6 0-1 .2-2-.2-2.9 0-5.3.9-9.7 5.5-9.6 8.2 0 .7 1 3.1 1.9 3.8 1.1.9 7.3 2.6 7.7 1-1.4-1.3-4.9-.6-5.3-2.9.6-2.5.1-4.5-.5-5.8 3.2-.3 4.4-3.2 8.2-1.9-1 .6-2.7.5-3.4 1.4-.8 5.8 2.2 8.6 7.2 7.2.7-2.2 2.6-3.2 1.9-6.7-1.2-.9-3.1-1-3.4-2.9 3.7.1 2.1 1.1 4.3 0 1.5-.2.2 2.4 1.9 1.9 1-.1-.7-1.3 1-1.4 2.2.5 2.4 3 3.4 4.8-1.9 1.7-3.8 3.5-5.7 5.3zm29.8-11c.7 0 1.1.2 1.4.5-.1-.8 1.5-2.6-.5-2.4l-.9 1.9zm-68.2 6.7c-.9.1-2.4-.5-1.9 1h2.9c-.2-.9.7-2.9-1-2.4v1.4z"/><path d="M106.5 96.9c-.9-1.8-1.2-4.3-3.4-4.8-1.7.1 0 1.3-1 1.4-1.7.5-.4-2.2-1.9-1.9-2.2 1.1-.6.1-4.3 0 .2 1.9 2.2 2 3.4 2.9.7 3.6-1.2 4.5-1.9 6.7-5 1.4-8-1.4-7.2-7.2.7-.9 2.3-.9 3.4-1.4-3.8-1.3-5 1.6-8.2 1.9.6 1.2 1.1 3.2.5 5.8.4 2.3 3.9 1.5 5.3 2.9-.4 1.6-6.6-.1-7.7-1-1-.8-1.9-3.2-1.9-3.8-.1-2.6 4.3-7.2 9.6-8.2.9-.2 1.9.2 2.9 0 3.6-.6 6.6-1.3 9.6 0 1.5.6 2.1 2.7 3.8 2.9v4.8c-1.5 1.3-3.6 2.2-4.3 4.3h-2.4c1.8-1.9 3.7-3.7 5.7-5.3zm-13-.5c.6.2 1 .6 1 1.4 2 .2 2.5-1.1 3.8-1.4-1.3-.2-1.7-1.2-2.9-1.4-.1.9-2.1.1-1.9 1.4z"/><path fill="#fd0" d="M200.1 117.5c1.1 1.7 1.4-1.4 3.4-.5-.9.5-1.8 4 0 4.3-.3 1-.7 1-1.4.5-.1 1.7 1.4 1.8 1.4 3.4-1.3.1-1 2.8-2.4 1.4-.5-1.8 1.8-.8 1.4-2.4-.6-1.5-2.1.9-2.9-.5.9 2.7 2.5 4.8 1.4 8.2h-2.9c-.2 1.5 1 1.9 0 2.9-4.6-2.1-7.4-6-8.6-11.5-.4-.4-.9-.7-1.4-1 .5-1.1 1.7-1.5 1.4-3.4-1.6-.5-1.6.7-1.4 1.9-2.1-.7 0-2.8-.5-4.8h1.9c.2-1-.7-.9-1.4-1 0-2.7 1.2-2.1.5-4.8 1.1.2 1.8-.1 2.4-.5.4-1.5-1.6-.7-1.4-1.9 1.7-3.5 2-8.6 5.8-11 1.8-.5 1.4 1.2 2.9 1 .1.8-.5.8-.5 1.4 3.2 2.2.5 7.5 3.8 9.6-1.8 3.7 1.4 6.6-1.5 8.7zm-141.6-14.9c1.6-2.5 3.9 1.1 5.8 1.4 0 2.9-.2 5.6-2.9 5.8.1-1.2.7-1.9 1.9-1.9v-3.4c-1.6-.6-2.3-2.1-4.8-1.9zm169-.9c.9.1-.6 1.6 0 2.9-1.6.5-.7-1.5-1-2.4.6 0 .8-.2 1-.5z"/><path fill="#78BDE8" d="M142 105c1.8-.8-1.1-.7-.5-1.9 1.7-1.2 4.1 2 4.8 0 1 .3 1 .7.5 1.4 4.6 3.2 10.5 5.1 13 10.6-.5 0-.4-.6-.5-1-.7-.8-1.3 1.4-1.4 1.4-2 .8-5.6.1-8.2.5-.9.1-1.5.8-2.4 1-3.6.7-8.8-.5-12.5 0-8.4 1.1-19.9 1.4-27.8 3.8-1.2.4-2.6 1.4-5.3 1-.5 0-.4.6-.5 1-3.4-.2-5.7.7-7.2 2.4-5.8 1.1-12.2 4-17.3 6.7-2.9 1.5-5.9 3.3-7.7 5.8-1.4-.4-1.2.7-2.4.5.5-3.9 3-3.1 3.8-6.7.7-.9 2.9-.3 2.9-1.9-.8-1.8-.7 1.1-1.9.5 3-5-2.5-9.1-7.7-9.1-1.2-.6.9-1.4-.5-1.9-1.7-.5-.4 2.2-1.9 1.9-1.5-1.7-2.6.1-3.8-.5.8-1.8 2.8-2 4.8-1.4l-1-1.9c2.1-1.2 3 1 4.3 1.9 1.3-1-1.8-1.7-1.4-3.4 1.4.5 2.3.8 1.9-1.4 1.8 2.3 1.8-1.3 3.8 0 1 .1.2-1.7.5-2.4 1.1-.1.5 1.4 1.4 1.4.4-.9 1.2-1.3 1.4-2.4.8 1.2 5 .7 4.8-1.9l1.4 1c8.5-3.8 19.5-5.1 31.2-5.8.5-.1.3-1 1-1 5.4.2 7.9 1.2 11.5 0v1c4.6-1.3 10.1-1.7 16.3-1.4.4 1.3 2 1.2 2.6 2.2zm186.2 17.8l1-1.4c-5.3-1.8-10 2.7-8.2 8.2 1.9 2.1 4.4 3.6 5.8 6.2-2 .6-1.9-1-3.4-1-.2 1.8.9 2.3 1.4 3.4-.1 2-1.7 2.4-2.4 3.8-4.5.2-8.5.7-11.5-1.9-.6-.5-4.2-2.2-4.8-2.9-.2-.2.2-1.3 0-1.4-1-.8-2.9-1.1-4.3-1.9-1.3-.8-2.2-2.3-3.4-2.9-.5-.2-1.4.3-1.9 0-1.9-1.1-1.9-2-4.8-2.9l-2.4-1.9c-1.3-.5-3.3-.3-4.8-1-.4-.2-.2-1.3-.5-1.4-1.7-1-4.2-.2-5.8-1.4 4.5-1.6 8.1 1.9 13 1.4.3.4.5.8.5 1.4 12.1 1.6 20.6 7 30.7 10.6-1.1-3.1-5-3.4-8.6-4.8l-3.8-1.9c-3.3-1.4-7.7-3-12.5-3.8-.3-.5-1.1-.5-1-1.4-7.2-.9-14.4-3.3-22.1-4.8-7.4-1.4-15.9-.6-22.6-3.8-6 .6-9.4-1.9-13.4-1 2-1.3 1.4-7.9 6.2-6.2l-.5-1.9c1.1-.3.7.9 1.4 1 .7-2.1 2.1-.7 3.8-1.9 1.5-.4 1.5.8 2.4 1 1.6-1.1 8.4-3.1 9.6 0 1.6.1 1-1.9 2.4-1.9 3.6-.4 5.7.7 9.1.5.4.4.5 1.1.5 1.9.9-.1.3-1.6 1-1.9 15.3-.1 31.1 2.1 42.7 7.2v1.4c1.3 0 2.8-.3 2.9 1 2-2.3 7.3 2.1 9.6 2.9 1.7.6 5.1 1 4.8 4.3-1.1.9-2-1.2-4.3-.5.9 1.3 2.7 1.7 3.4 3.4.1 1.1-1.4.5-1.4 1.4.3-1.5-.5-4.1-3.8-3.2zm-81.5-13.9c1.4-.3 2.9-.6 2.9-2.4-1.8 0-2.1 1.4-2.9 2.4zm.4 5.2c.8-.8 2.7-.5 2.9-1.9-.1-.7-1.2-.4-1.9-.5.7 1.9-1.3 1-1 2.4z"/><path d="M249.5 106.5c0 1.8-1.4 2.1-2.9 2.4.9-1 1.2-2.4 2.9-2.4z"/><path fill="#fd0" d="M329.2 107.9c2.3 1.1 3.2 3.5 7.2 2.9 0 1.3.2 2.7-.5 3.4-2.3-2-5.6-3.1-6.7-6.3zm-268.8 3.4c-1.5 1.1-1.7 3.5-4.8 2.9-.7-.6-.7-2.7 0-3.4.9.7.6 2.6 2.4 2.4.7-.9.6-3.8 2.4-1.9z"/><path d="M248.1 111.7c.8 0 1.8-.2 1.9.5-.2 1.4-2.1 1.1-2.9 1.9-.3-1.4 1.7-.5 1-2.4z"/><path fill="#78BDE8" d="M216.4 121.8c.2 1.1 1 1.5 1.4 2.4-.6 1.3-3.1.8-2.9 2.9-1-1-3.8 1.3-3.4-1.9.8-1.3 2.9 1.1 3.8-.5.5-1.7-2.1-.5-2.4-1.4l.5-2.9c-1.5-.2-1.3 1.7-2.4.5.4-2.3 4.3-2.8 5.8-1.4.4-.5 1.8-.1 1.4-1.4 6.5-.2 10.2-2.3 17.8-1.9.8 0 3.4-.8 3.4 1-8.5.3-14.5 3.1-20.2 6.2-1.6.1-1.3-1.6-2.8-1.6z"/><path fill="#fd0" d="M217.9 133.8c.1-2.6 6 .6 5.8-3.4-1-1.2-2 1.6-3.4 0-.2-2.1 1.7-1.3 2.9-1 .5-2.1-1.9-1.3-2.9-1.9-1.8.6-1.5 3.3-3.8 3.4l-.5-1.9c1.1 0 3.4-2.3 4.8-3.8.3-.3.6-.7.5-1.4 2.2.4 3-.5 3.4-1.9 6.6-.6 12.2-4.7 18.7-3.8 0 1.2-2.1.5-1.4 2.4.4 1.1 3-.1 2.4 1.9-.7.7-2.5.4-3.8.5 1.6-5.4-4.9-4.3-4.3-.5.1.7 1.2.4 1.9.5-1.9 4.6-8.3 4.8-10.6 9.1-3.4.2-6.6 3.1-9.7 1.8zm17.2-12c-1.3-.6-2.5-.6-3.8 0-.6 1.4-.6 3 0 4.3 3.3.7 4.3-1.1 3.8-4.3zm-9.1 1.9c.1 1.3-.7 1.6-1.9 1.4v3.8c1.5.1 1.7 1.5 3.8 1 1.4-1.9.9-5.7-1.9-6.2zm-56.6 4.8c.7-2.8-1-3.2-1.4-4.8-1.8-.4-3.1.8-3.8 0v-1.9c6 1.6 10.2 5.2 13.9 9.1h-2.4c1.2-2.9-4-4.1-6.3-2.4z"/><path fill="#78BDE8" d="M163.6 131.9c-3.2-.2-6.1.2-8.6 1-1 .3-1.9 1.7-2.9 1.9-2.9.7-6.2.9-7.7 3.4-3 0-5.4 1.3-7.7 2.9-1.1.8-4 1.7-5.3 2.9-.9.8-1.4.2-2.9 1-3.6 2-6.7 5.6-10.6 8.2-1.7 1.1-3.7 1.7-5.3 2.9-1.5 1.1-2.9 2.4-4.3 3.8-4.5 4.5-12 8.3-15.4 14.4-3.7.7-6 6.1-9.6 9.1l-1.4.5c-4.3 4.2-6.8 9.3-11.5 12.5 0 2.4-1.9 2.9-3.4 3.8.6-1.4.5-2-1-2.4.1-1 1.2-1 2.4-1 0-3.5 3.2-3.9 3.8-6.7 1.1-.3.7.9 1.4 1 1.7-.8-1.4-.8-.5-2.4 1.3-1.2.4.8 1.9.5-.9-2.3-.4-7.4 2.9-8.2.4-1.6-1.6-.7-1.9-1.4 1.2-.4 1-2.2 1-3.8.6-1.2 1.4.9 1.9-.5s-1.1-.9-1.9-1c-.1-5.1-7-3.6-7.7-8.2 3-2.2 5.8-4.4 7.7-7.7.8-.1.8.5 1.4.5.7-.1.4-1.2.5-1.9 2.8 1.9 1.8-3.1 4.3-1.4 1.1-.3-.6-.7.5-1.4h1.9c1.3-2.6 4.1-2.7 5.3-6.2 3.4-1 6.3-2.3 8.2-4.8 3.2-1.1 6.2-2.4 8.2-4.8 2.3.2 3.2-1 3.8-2.4 3.1-1.5 6.6-2.3 9.6-3.8.4-.2.4-.4.5-1 4.1-.1 7.4-2.7 11.5-3.8 2.2-.6 4.3-.4 6.2-1 1.5-.4 3.6-2 5.3 0 .8.2.9-.4 1-1 1.1-.3.7.9 1.4 1 1.7-.8-1.4-.8-.5-2.4 3.8-.1 5-.3 8.6 0 2.2 3.5 7.9 3.3 8.9 7.9zm-17.7-1.4c.6 1.8 2.6 2.2 5.3 1.9-.4-1.8.6-2.3.5-3.8-1.2-.8-2.1-1.8-4.3-1.4-.6 1-1.8 1.4-1.5 3.3zm-16.4 3.3c-.4 2.1.3 3.2 1 4.3 2.3-.4 3.4.4 4.8 1-.1-2 .2-2.9.5-6.2-2.7-.7-4.5-.4-6.3.9zm-17.2 11.5c2 1.8 4.9 1.4 7.2 1 .6-1.2.7-2.8 1-4.3-3-1.8-9.3-2.5-8.2 3.3zm-15.9 8.7c.7 2.9 5.1 1.9 7.2 1-.8-1.8.5-3.7-.5-4.8-2-.7-7.1-.7-6.7 3.8zm-12.5 12.5h3.4c.8-1.6 2.9-1.9 3.8-3.4-3.2-.8-3.2 1.6-5.3 1.9-.1-1.5-1.7-2.9-1-3.8 2.5-.6 2.8 1 4.8 1-1.1-7.9-11.2-.2-5.7 4.3zm76.4-39.4c3.1-1.8 3.9 3.6 9.1 2.4-.6 2 .8 2.1 1 3.4l8.2 1.9c.8-.1 1.1-.8 1-1.9 1.3 0 1.1 2.3.5 2.9-5 .8-6.3-2-10.6-1.9.2 1.9 2.5 1.7 3.8 2.4-1.2 4.1-7.6 3.3-9.1 5.8l-1.9-1c-1.3.5.7 1.3-.5 1.9-4.7 2.1-8.9 5.3-13 8.2-4.7 3.3-10 6-13.4 10.6-8.9 5.6-16.6 13.6-24 21.6-.5.5-1.7 1.2-1.9 1.4v1.4c-.4.5-1.4.4-1.9 1-.7.8-.7 2.2-1.4 2.9-1.2 1.2-3 1.6-4.3 2.9-4.7 4.4-6.5 11.6-12.5 14.9-1.1 4.5-4 7.2-6.7 10.1-.3 2-1.8 4.7-3.4 3.8 1.2-3.4 3.8-5.5 6.2-7.7.3-3 .6-6.1 3.8-6.2.5-1.4-1.1-.9-1.9-1 .7-.9.8-2.4 2.9-1.9-1.4-3.3.9-9.2-5.3-10.1-.8-1 0-.6 0-1.9-3.5 1.6-8.7 1.6-10.1 5.3-.8-.6-1.7-1.2-1.9-2.4 3.3.3 2.1-4 5.3-3.8.2-1.3.8-2.4 2.4-3.4 1.1-.1.5 1.4 1.4 1.4 2-1.3-.5-1.1-.5-2.9h1.9c0-.8-.4-1.2-1-1.4-.3-1.4 1.7-.5 2.4-1.4.1-.2-.6-.9 0-1.4.2-.1.7.7 1 .5.5-.5.4-1.7 1-2.4.9-1.1 3.7-1.5 3.8-3.8h2.4c1-3.5 3.4-4 4.8-6.2.5.1.3 1 1 1 1.1-.1.2-2 .5-2.9 3.9-3.9 9.9-5.8 12.5-11 5.4-2.3 9.1-6.3 14.4-8.6v-1.4c7.9-3.5 15-7.7 23.5-10.6.6-.1.4-.9.5-1.4 3.9 1 6.4-3.4 8.6-1 .6-.1.4-.9.5-1.4 2.5.1 2.2.2 4.8 0-.1.4-.5.5-.5 1 2.4-.7 4.3.9 4.8-1.9-3.1-2-5.6-5.5-8.2-5.8zm0 10.1h1.4c.1-1.3-.2-2.1-1.4-1.9v1.9zm75.8-9.1c1.5-1.4 1 1.9 3.4 1 .1-1.4-1.6-.9-1-2.9 2.5 0 3.9-1.9 6.2-1.9.9 0 1.4.6 3.4 1 4.8.9 9.1 3.7 14.4 3.8 5 3.2 11.3 5 17.8 6.7.3.4.5.8.5 1.4 2.2-.9 2.9 1.5 4.3 1.9.5.2 1.4-.3 1.9 0 3.3 1.7 6.1 4.5 9.6 5.8 2.3.9 4.8 1.9 7.2 2.9 4.4 5.7 13.2 6.9 16.8 13.4 3.6.9 5.5 3.5 6.7 6.7-4.5-.5-6.8 1.2-9.1 2.9-1.4 7.4.8 13.8 5.3 16.8.2 4.8 6.8 5.6 5.3 10.6-19.4-16.2-35.4-36-59-48-1-1-1.5-2.5-2.9-3.4-.3-.2-1.2.2-1.4 0v-1c-2.1-1.2-5.4-2.4-7.7-3.4-.8-.3-1.8-.2-2.4-.5v-1l-2.9-1c-2-.9-3-2-6.2-1.9.2-1.5-1.6-1-2.4-1.4-.1-.8.5-.8.5-1.4-1.4 1.9-2.8-.8-3.4-1-1.3-.5-3.4.8-4.8-.5.4-1.5 2.8-1.1 2.9-2.9-2.7.7-3.3 1.8-4.8 2.9-1-1.3 1.1-1.2 0-2.9.6-.7 2.1-.5 3.4-.5.7-2-2.1-.5-1.6-2.2zm6.2 2.8l2.9 1.4c1-1.1 2.3-1.8 1.9-4.3-1.7-1.9-6-1-4.8 2.9zm21.6 6.3c-.1-1.9 1.2-4.2 0-5.8-7-3.5-7.5 7.6 0 5.8zm9.6 6.2c.6 2.5 5.2 3.4 6.7 1 .5-2.9-1.1-3.7-1.9-5.3-3.8-.8-4 2.1-4.8 4.3zm16.8 11.5c1.1 1.1 3.4 1.1 5.8 1 4.9-7.2-7.9-11.3-5.8-1zm21.1 3.4c-4.4-3.5-10.2-.5-8.6 6.2 1 .6 1.8 1.4 2.4 2.4 3.9.6 5.5-1.2 7.2-2.9-1.3-1.9.5-2.8-1-5.7zm14 46.5c-.4-2.5-1.9-3.7-4.3-5.3-2.1-1.3-3.1-4.7-7.2-2.9-.1 0-3.1 2.1-3.4 2.4-.6.7.6 2.9-1.4 1.9v3.8c-1.7.5-.4-2.2-1.9-1.9 0-2.5 1.5-3.6 1.9-5.8 1.3-.8 3.5-.6 3.4-2.9 3.4-.2 5.3 1.1 7.2 2.4 2.3-1.7-.9-1.4-1.4-1.9-1-.8-1.1-1.7-1.9-1.9-11.5-3.1-13.7 9.8-8.2 16.8-14.5-15.3-29.5-30.1-45.6-43.7h-1.9c-5.9-7.7-15.9-11.3-22.6-18.2-5-1.7-9.6-3.8-12.5-7.7 1.5-.4 1.8.4 2.4 1 .4-.4.7-.9 1-1.4-.6-1.1-3.7.2-3.8-1.4l-1.9 1.9c0-1.3-.2-2.7.5-3.4 3.7 1.7 1.1-2.6 4.8-1.9l-1 1.9c.5.5.9 1 1.4 1.4 1.7-.8-1.4-.8-.5-2.4 1 .2.9-.7 1-1.4 1.1 0 1.4.8 2.9.5.3.9-1.4 2 0 2.4 1.7.5.5-2.1 1.4-2.4.9 1.3 3.6.9 5.8 1v1.4c2.8-.4 4 1 6.2 1.9 1.3.5 2.8.5 3.8 1l2.4 1.9c2.4 1 4.2 1.3 6.2 2.4 2.1 1.2 6.4 2.2 7.7 4.8 3.6 1.1 4.9 4.4 9.1 4.8 16.7 12.3 32.8 25.1 46.1 40.8 3.3.2 6.5 2.7 5.8 5.3-2.7-.4-2.5-3.6-5.3-3.8-.6.2-1 .6-1 1.4 2.7 1 4 3.4 5.8 5.3-1.1 6.3-4.2 10.5-8.2 13.9-3.9-1.2-5.3-4.9-7.7-7.7 2.2.5 3.5 4.5 6.2 4.8 3.1.4 6.5-2 6.7-6.2l2-2.9zm-213.1 22.6c-1.3-1.9.2-5.6 2.4-6.7l-2.4-8.2c-2-1.1-4.1-2-5.3-3.8-3.6-.3-6.1.1-8.2 1.4-4.5 2.9-9.6 7.2-13.4 10.1-1.5-1.9.2-4.4 3.4-4.3.2-1.2-.9-1-.5-2.4 2.7-2.1 2.9-6.7 6.7-7.7.6-1.1-.1-.9.5-2.4 3.1-.6 2.3-5 5.8-5.3v-2.4h1.9c-.3-2.8 1.7-2.2 1.4-3.8 2.2 1.3 1.5-2.4 3.8-2.4 3.6-8 13.9-13.3 19.2-21.1 4.2-1.8 6.3-5.5 10.6-7.2.4-2.8 4.3-4 6.7-5.8 2.1-1.5 5.8-3.7 8.6-5.3 1.2-.9 2.1-2 2.9-3.4 4.2-1.6 8.1-3.4 11.5-5.8 1.5-.6 1.2.8 1.9 1 .5-.9 1-1.9 1.4-2.9 1.8-.5 1.4 1.2 2.9 1 .2-2.2 2.9-1.9 5.3-2.4-.5 1.6.7 1.6 1.9 1.4-.4 2-.8 2.6-2.9 1.9-.2.8.4.9 1 1-8.9 8.3-16.7 17.8-25 26.9l-1 3.4c-4.8 3-6.5 9.2-11 12.5-.1 1.6-1 2.5-2.4 2.9l-10.6 15.8c-5.2 3.3-6.1 10.9-11 14.4-1.1 4.1-4.1 6.4-6.1 9.6zm63.3-85.4c-.5 1.4 1.1.9 1.9 1v-1.4c-.8-.1-1.5 0-1.9.4zm-53.3 59.5c-1.8 1.1-3.9 1.6-6.2 2.4-.6-.5-1.4-.8-1.9-1.4.1-1.4 2-.8 1.9-2.4-1.2.1-2.3.1-2.4-1 2-.7 1.2-3.3 1.9-4.8.3-.6 1.5-.4 1.9-1 .7-1-1-3.1 1-2.4-.6 7.4 9.1 5.9 8.6.5 0 .3-1-2.4-1-2.4-.8-1-2.4-.7-3.4-1.9 1.7-2.1 4.7-1 7.7-1v3.4c3.8-.3 1.2-5.6 0-6.7-5.9-.8-8.5 1.3-11 3.4-1.2 1-3.4 1.9-3.4 1.9l-.5 1.9c-.9 1.3-2 2.2-2.9 3.8-1.7 3.2-1.5 5.2-1.4 9.6.7.3 1.2.7 1.4 1.4 6.1.9 7.9-1.3 10.6-3.4 2.1-1.6 5-2.9 4.8-5.8h1.4c-1.4-2.9 2.2-2.2 1.9-5.3-3.7 3-4.9 8.5-9 11.2zm-7.2 7.2c.9-.2 2.9.7 2.4-1-.9.2-2.8-.6-2.4 1z"/><path fill="#fd0" d="M199.1 147.3c1.5.2 1.3-1.7 2.4-.5.2 1.5-1.2 1.7-1.9 1 .2 1.2-.9 1-.5 2.4 1.3.3.9-1 1.4-1.4 1.6.3.7 2.3.5 3.4 1.8.7.9-1.3 2.4-1 0 1.1-.8 1.4-.5 2.9-1.7 1.1-1.6-1-2.9 0 .4.4.9.7 1.4 1-5.2 7-9.8-1.3-13.4-4.8 0-.8.4-1.2 1-1.4-1.4-.4-1.9-1.6-2.9-2.4.7-1.5 1.2-2.8 0-4.3 1.5-1.7 1.4-2.8 2.4-4.3 2.8 3.1 5.7 10.2 11 7.7 1.5.2-1.3.1-.4 1.7zm-11-2.4h1.4c-.2-1.2-1.5-1.4-2.4-1.9l1 1.9zm-1-2.9c.9-.2 2.9.7 2.4-1-.9.2-2.9-.6-2.4 1z"/><path d="M187.1 142.9c.9.5 2.2.7 2.4 1.9h-1.4l-1-1.9z"/><path fill="#78BDE8" d="M308.6 218.3c2.4 1.1 3.4-.3 5.8.5-.7 1.8-1.6 1.3-2.9.5-1.3 1.2.6 1.4.5 2.9-.2 2-1.6 2.1-3.4 2.9-3.4 1.4-6.4 4.1-11 5.8-3.4 1.2-4.9 3.3-7.7 1-.9-.7-2.1-4.5-3.4-6.2-.8-1.1-2-3.4-2.4-5.8.7 0 1.4.1 1.4-.5 1.9.9.6 2.7 1 3.8.9 3.2 4.4 4.2 4.8 7.7 5.7-.1 8.2-3.3 13-4.3.4-3.8 0-5.4 0-9.6-1.8-2.5-5.6-3.1-7.2-5.8l-1.9.5v-1.4c-2.7.3-3.3 2.8-7.2 1.9-.8 2.4-.7 5.7-2.9 6.7-2.8-1.6.8-8.6-1-9.1.8-1.8.7 1.1 1.9.5.7-1 1.5-2 1.9-3.4 2.9.1 4.6 1.5 7.2 1.9 3 4.1 9.8 4.3 12 9.1.9-.7 2.4-.8 3.4-1.4-8-2.6-19.7-17-29.3-7.7-2.4 7.9.4 16.1 5.3 19.7-.7 3.2 3.4 3.8 2.4 5.8-4.4.1-4-4.7-7.7-5.3.2 2.8 2.7 3.4 3.8 5.3-2.1 2.7-3.4-5.7-6.7-3.4.8 1.6 3.5 1.3 2.9 4.3-2.1.7-8.8 3-10.1 0 3.1.7 3.5-1.3 6.2-1 .2-3.9-3.8-3.6-4.3-6.7-.8 0-1.8-.2-1.9.5.2-3.6-5.2-4.8-7.7-7.2-1.3-.3-.9 1-1.4 1.4-4.5-2-3.9 2.8-3.8 6.7-2.2-1.2-1.9-4.9-1.9-8.2 4.8-4.2 9 1.2 13.9 2.4-1.8-2-4.1-3.6-6.2-5.3-6.2-1.9-13.2-.5-10.6 7.2-1.9 1.6.5 2.7-.5 4.3.5 2 2.9-.7 2.4 2.4-4.8-.8-4.1-7.1-8.2-8.6.2-2.6-2-2.8-1.9-5.3-1.2-.1-1.5.7-1.9 1.4 1.9 0 1.4 2.4 2.9 2.9.3 1.1-.9.7-1 1.4-.1 2.6 2.3-.1 2.4 2.4-2.2-1.1-3.5-.4-5.3-1-.3-.8.6-2.8-.5-2.9-2-.1-.3 1-.5 1.9-2.3.2-.4-2.7-1.9-.5-1-.9-2.5-1.3-2.4-3.4-1.7-1.1-1.6 1-2.9 0-.3-2.3-1.6-3.5-2.9-4.8.1-.7 1.4-.2 1.4-1-2.7-.4-3-3-5.3-3.8-.3-2.1-.7-4.4-1.9-6.2-.8-1.3-.7-.7-1.4-2.9-1.6-4.5-4.4-8.6-5.8-14.4.9-.7 2.9-.3 2.4-2.4-2.2-.9-.7 1.9-2.4 1.4-.6-1.1-1.5-2.2 0-2.9-4.1-1.9-1.5-7.6-4.3-10.6.6-.5 1.8-.5 1.9-1.4-.1-.4-.5-.5-.5-1-.7-1.4-3.6 1.4-3.4-1.4h2.9c.3-3.2-4 .9-3.8-2.4 1.2-1 2.7 1.2 4.3 0 1.9 1.4.3 3.3 2.9 3.8-.1.7-1.4.2-1.4 1 .3 1.5 1.3.6 2.4.5-.1 1.2.2 2 1 2.4.3 1.1-.9.7-1 1.4.1.7 1.2.4 1.9.5 1.4 3.4 3.5 6.4 5.3 9.6 2.2 3.9 3.7 8.3 6.7 11.5.7 3.1 2 5.7 3.8 7.7.2-2-1-4.4-1.9-6.2-1.5-3-3.8-7.1-5.8-11-.4-.7-1.8-3.8-2.9-5.3-.6-.9-.9-2.4-2.4-2.9.2-1.5-1-1.9 0-2.9-.9-.5-1.9-1-2.9-1.4.6-3.5-1.5-4.3-2.9-5.8l1.9-1c-.1-1.1-2-.2-2.9-.5.1-2.3-1-3.9-2.9-2.9 1.5-1.8.5-4.3-.5-5.8.1-.8.8-1.1 1.9-1 0-1.6-.8-2.4-.5-4.3-2.4-.9-1.9 2.4-3.4 1 .3-1 1.5-1.1 1.9-1.9 1.6-.3 2.4.1 2.9 1 1.6-2.6-2.1-1.3-3.8-2.4 1-2-.4-3.4 1-4.8 1.8 1.3 2.6 3.9 4.3 5.8 2.1 2.2 5.2 3.6 7.2 5.8.9.9 1.1 2.4 1.9 3.4 1.9 2.3 4.2 4.1 6.2 6.2 2 2.1 4 4.2 5.8 6.7 2.3 3.4 6.9 7 8.6 11.5 2 .2 2.7 1.8 3.4 3.4 5.4 5.8 9 13.4 14.9 18.7v1.4c3.7 3.2 5.5 8.3 9.6 11 1.6-.7-1-1.2-.5-2.4-6.1-5.2-8.9-13.9-15.4-18.7-2.1-5.9-7-9-9.6-14.4-4.2-3.3-6.6-8-10.1-12-4.7-5.5-11.5-9.6-13.9-17.3-.7 0-1.4-.1-1.4.5-4.3-2.9-7.1-7.3-10.1-11.5-.4-.4-2 0-2.9-1 .4-1.8 2-.4 2.9 0 .3-2.1.8-4-.5-5.8 2.9-1.1 1.3 2.3 2.4 2.9 2 .1.3-1 .5-1.9 2.1.4.8 1.3 1.9 2.9.8.2.9-.4 1-1 5.9 2.4 12 4.6 15.8 9.1 5.9 1.3 8.4 6 13.9 7.7.5 1.5 2.3 1.5 2.4 3.4 4.5 1.3 5.8 5.7 10.6 6.7 3.6 3.3 6.6 7.1 11 9.6 6.8 6.6 13.3 13.5 20.6 19.7 1.3 4 6.7 6.6 9.6 10.1.6.7.4 1.8 1 2.4 2.3 2.8 5.6 4.8 7.2 8.2-1.1-1.1-2-.3-3.4.7zm-92.7-75.4c.9-.2 2.9.7 2.4-1-.9.3-2.9-.6-2.4 1zm7.2 5.3c-.1-.7-1.2-.4-1.9-.5-1 1.8 2.5 2.2 1.9.5zm2 1.9c1 .1.2-1.7.5-2.4h-1.4c.1.9-.8 2.9.9 2.4zm-2 13c.9-.2 2.9.7 2.4-1-.9.2-2.9-.6-2.4 1zm-7.6 11c1.1.3 3.3-.8 1.9-1.4-.1 1.2-.8-.7-1.9 0v1.4zm2.8 5.8c.1-1.3-1-1.2-1.9-1.4-.5 1.6.7 1.5 1.9 1.4zm56.2 6.2l.5 2.9c-6.5-5.8-11.1 6.1-4.3 7.2 1.4.2 3.2-.7 4.8-1.4-.2-2.9 0-5.4 1-7.2-2.9-3.7-6.7-6.4-13.9-5.8-1 1.9-3.2 2.6-2.4 6.2 4.1 7.4 6.7 16.3 18.7 15.8 3.9-2.7 2.9-14.6-1.9-13.9 2.8 2.9 5.7 10.2 1 12 .3-.1-1-.9-1.4-1-2.3-.1-2.9-.3-5.3-1-2.7-4.4-7.1-7-7.7-13.4 2.5-5.5 6.5-.8 10.9-.4zm-21.1 13c.3 1.1-1 3.1 1 3.8.5-2.1 1-6.7-1.9-7.7.1-.4.4-.6 1-.5-3.5-4.7-5.7-10.6-13.4-11-1.3 2.7-3 5.9-2.4 10.1.2 1.5 3.3 8.3 3.8 9.1l1.9.5c2.5 2.3 4.2 6.1 8.6 4.8 1.2-.4 4.1-3 1.9-4.3l-1 1.9c-5.3 1-7.7-3.5-8.6-5.3 2.9.6 3.6-.9 5.3-1.4v-5.8c-2-.2-2.4-2.1-5.3-1.4-1.9.5-2.4 2.4-3.8 3.4-.5-4.1-1.3-9.4 4.8-8.2 2.3 4.1 6.8 6.7 8.1 12zm-12.5 15.8c-1.5.7-2.4 2.1-2.4 4.3 1.8-1.1 1.9.5 3.4 1 .7-2.1.3-3.1-1.4-3.8 1-2.3 2.8.4 3.8 1 .6-1.9-1.2-2.6-1.9-3.8-1.6-2.7-2.2-6.3-4.8-8.2-.6 3.3 3.1 6.5 3.3 9.5zm-3.4 3.4c.5-1.6-.7-1.6-1.9-1.4-.1 1.2.7 1.5 1.9 1.4zm42.7 8.1c-.7-2.1-2.2-3.6-3.8-4.8.9 2 1.6 4.2 3.8 4.8zm-8.6-.9c3.1.6 3.8 3.5 6.7 4.3-.9-3.6-4.2-4.8-7.2-6.2 0 .8.1 1.5.5 1.9zm36.5-1.5v-4.3c-3.3-.2-3.7 4.9 0 4.3z"/><path fill="#00447C" d="M331.1 189c.8 1.6-.1 3.1-1 4.3-2-1.2-4-2.4-4.3-5.3 1.4-.1 4 0 5.3-1.4v-3.4c2 0 .6 3.4.5 4.3.8.6 1.3 1.6 2.9 1.4l-1-1.9c2.2-1.4.6-6.9-.5-8.2.3-7.1-3.3-15.4-6.7-21.6-1.5-2.8-4.4-4.4-5.3-7.2 2.8.5 3.6 3.5 5.3 5.8 2.1 2.8 4.9 7.3 6.7 11.5 1.6.8 1.9 2.9 2.9 4.3-.3 1.1-.7 2.2-.5 3.8.1.9 1.6.3 1.4 1.4-1 2.9 1.2 7.7 1 11-.1 1.6-1.4 2.1-1.4 4.3-.1 3.5-.3 6.7 1 9.1-1 .8-.6 0-1.9 0 .1 2-.9 2.7 0 4.3-1 .5-2.3.6-2.4 1.9-.3 1.3 1 .9 1.4 1.4-.1 1-1.2 1-2.4 1 0 .8.4 1.2 1 1.4-.1.7-1.2.4-1.9.5.3 3.7-3.3 3.4-2.9 7.2-3.5 1-2.8 6.1-7.2 6.2v2.4c-3.3.2-4.9 2.2-5.8 4.8-2.9 1-4.4.9-6.2 3.4-1.5-.7-2.1-.2-3.8 0-.1.6.1.9.5 1-2.3.7-8.4 1-10.6 3.4-3.5.1-8.6-.4-11.5 1.4-.6-.5-.9-1.4-2.4-1-2.5 1.1-3 .2-6.7 1l-.5-2.9 4.3-1v1.9c1.4.5.9-1.1 1-1.9 2.3.8 1.1 0 2.4-1 3.3 1 4.9.8 7.7-.5 0 .7-.1 1.4.5 1.4l1-1.9c1.5-.6 1.2.8 1.9 1 1.8-2.8 5.9-.6 6.2-4.3 2.1-.7 1.3 1.6 2.9 1.4 1 .1.2-1.7.5-2.4 2.7 1.6 1.9-2.7 5.3-1.9.7-.8 1.4-1.5 1.9-2.4 2.8.4 1.6-1.2 4.3-1.4 3-1.6 3.9-4.8 6.2-7.7 1.1-1.3 1.6-1 2.4-2.9 1.1-2.4 5.9-4.3 4.8-9.6 1.7.5.4-2.2 1.9-1.9 1.2-4.7 2.9-8.9 4.8-13-.8-.4-.9-2-3-1.5z"/><path fill="#fd0" d="M188.1 153c-.8-.2-.9.4-1 1-1.1-.1-.3-2.1 0-2.4 3.7 3.2 6.5 7.3 11 9.6 1.8-.8 2.2-2.9 4.8-2.9.6 2.3-3 4.3-4.8 5.8-3.1-.3-4.2-2.5-6.7-3.4.2-2.4-1.2-3.3-2.9-3.8-.3-1.1.9-.7 1-1.4-.5-.8-2.1-.5-1.4-2.5z"/><path fill="#00447C" d="M79.1 225c.3 1.1-.9.7-1 1.4.2 1.1 2.4.2 3.4.5.1 1.1-1.4.5-1.4 1.4 3.7-.6 7.1 4.3 10.6 3.8 1.2 0 .8 1.8 1.4 2.4 1.4.4 1.2-.7 2.4-.5.3 1.1 1.8 2.1.5 3.4 2.3.4 1.3-2.5 3.4-2.4 0 1.1-.8 1.4-.5 2.9 1.5.1 2.1-.8 2.4-1.9 5.9 4.8 15.8 3.1 24.5 4.3.7-.1.4-1.2.5-1.9 1 1.2 2.6 1.8 5.3 1.4.2 1.8-1 2.2-1.9 2.9l-2.4-1c-1.3-.4-1 1-1.9 1-2.5-2.1-7.3 2.2-9.1-1-2.5 2.8-6.3-.6-9.6.5-1.1-1.2-3.1-.7-4.8-1-.6-.1-1.6-1-1.9-1l-2.4 1.9c-.3-1.3 1-1 1-1.9-2.8-1.9-7.3 1.1-8.2-2.9-2.9 1.1-4.6-2.2-7.7-2.4v-2.4c-1.8.5-3-1.3-3.4.5-1.3-2.2-2.7-4.2-5.3-3.8-.2-1.2.9-1 .5-2.4-1.5-.1-3.8-1-3.8-3.8-2.8.3-2.5-1.7-4.3 0 1.9-1.8-.7-2.4 1-3.8-.3-1.1-3 .1-3.4-1-.3-2.1.4-3.1 1.4-3.8-.5-1.6-.9.5-1.4.5-3.4-.6-2.7-5.3-5.8-6.2.5-1.4.8-3.1 1.4-4.3-.1-1-2.1-.1-2.4-1-.1-1.2-.1-2.3.5-2.9-.1-1-2.1-.1-2.4-1 1.2-1.6.7-2.7 2.4-4.3-.2-1.1-2.5 0-2.9-1-.1-2.7 2.8-2.3 3.8-3.8-.3-1.1-3 .1-3.4-1-.1-2.4 1-3.5 3.4-3.4v-1.4c-.1-1-2.1-.1-2.4-1 .4-1.4 1.9-1.6 2.9-2.4.2-1.8-2.8-.4-1.9-2.9.6-.7 2.1-.5 3.4-.5.1-1.3.2-2.4-1.4-1.9.1-2.3 3-1.8 3.4-3.8-.1-.9-1.6-.3-1.9-1 .3-1.6 1.6-2.2 3.4-2.4l-1.4-2.9c1.1-.5 2.4-.8 3.8-1 .7-2.1-1.6-1.3-1.4-2.9 2.2.5 2.9-.6 4.3-1-1.3 2.2-1 6-3.8 6.7.7 1.8-.6 3-1 4.3-2.3 7.4-2.1 15.5-1.9 25.4 1.8 2.2 3.5 4.5 3.8 8.2 1.1 1.7 2.9 5 2.4 6.7.1 1 1.3-.7 1.9.5v1.9c3.3 3.3 3.4 9.8 9.3 10.4z"/><path fill="#78BDE8" d="M159.8 215.9c.9 1.6-1.1 2.7-.5 4.8-1.9.2-2.6 1.5-2.9 3.4-1.1.3-.7-.9-1.4-1-1.7.8 1.4.8.5 2.4-.7.8-2 0-2.4-1-1 .1-.1 2.1-1 2.4-.8-.8-2-1.2-3.8-1 .3-1.5-.5-1.7-.5-2.9h1.4c-1.4-2.8 2-3.5.5-6.2 1.8-.1 2.1-1.4 1.4-2.9 1.2-.2 1 .9 2.4.5.6-1.5-.8-1.2-1-1.9 2.1-1.7 1-3.8 3.8-4.8-.8-1.6-.3-3 1.9-2.9-.1-1.2-.3-2.3-1-2.9-1.7 1.9-3.5 3.6-3.8 6.7h-1.4c-.6 4.7-4 6.6-4.8 11-1.2-.1-1.5-.9-2.4 0-.3 1.3 1 .9 1.4 1.4l-3.4 5.8c-.9-2.4-.8-5.6-1.4-8.2-2.2-2.4-4.4-3.1-7.7-2.9-4 .3-6.8 4-9.6 4.8-.2 2-2.8 3.3-4.3 4.8-1.2 1.2-1.9 3.1-3.8 3.4-.8 2.1-2 3.7-3.8 4.8-1.3-2.3 2.7-1.8 1-2.9.1-.8.8-1.1 1.9-1 .1-2-.8-2.3 0-3.8 1-1 .9.2 1.9.5.7-2.1-1.6-2.2-.5-3.4h1.4l3.8-7.2c2.6-.3 3.2-2.6 3.4-5.3.4-.4 1.1-.5 1.9-.5v-2.9c2.7-.8 4-3 4.8-5.8.6-.4 1.3-.6 2.4-.5.1-.9-.5-2.4 1-1.9v-2.4c5.6-6.9 11.2-13.7 16.3-21.1.4-.4 1.1-.5 1.9-.5 5-10.2 12.6-17.8 20.6-25l1-2.9c2.2-.8 3.8-4.4 5.8-3.8.6-.1.4-.9.5-1.4 5.1 6.5-2.9 11.9-2.9 19.2 1.6.4.6-1.9 2.4-1.4-.8-1.6-.3-3.5 1.4-3.8 1.2 2.2.9 6-1.9 6.7.4 1 1.2 1.6 1 3.4-.6 2.5-2 8.8-2.9 11.5-.6 1.9.8 3.7-1.4 3.8.6.6.5 1.7.5 2.9-.4.3-.8.5-1.4.5-1.7 10.3-7.1 17.3-9.6 25.4-1.5-.4-.6 1.7-2.4 1 .1 2-.7 3.1-1 4.8-1.5-.5-1.4-.3-1.9 1-1 .4-.7-.8-1.4-.8zm11-36c1.8-.7.9 1.3 2.4 1 .4-2.1-1.6-2-1.9-3.4 2.7 0 .9-3.9 3.4-2.9-.8-3.3 1.9-4.5 1.4-8.6 1.8-.3 3.1-3 2.4-4.3-2.2 2.1-4.3 4.4-4.3 8.6-3.4 3.7-3.9 10.2-7.7 13.4-.1 2.2-.3 4.2-2.4 4.3-.4 4.9-4.9 5.6-4.8 11 3.8-1.2 3.2-6.7 6.7-8.2.1-.9-.5-1.1-.5-1.9 2.8.6.5-3.9 3.8-2.9.7-1.8-1.3-.9-1-2.4h1.9l-1-1.9c.7-.5 1-1.3 1.6-1.8zm-32.6 30.2h3.8c2.6-3.4 8-3.9 9.1-8.6-3.7 1.3-4.5 5.4-9.6 5.3 0-.5-.4-.6-.5-1 .5-2 .7-3.5-.5-4.8 2.1.7 0-2.9 1.4-2.9 2.2-.1 2.6 1.6 3.4 2.9 3.2.5 4.7-.8 4.8-3.4-1.6-.4-.6 1.9-2.4 1.4-.3-1.2-1.9-1-1.4-2.9 1.9-1.9 2.7.6 4.8-.5.3-3.2-3.2-2.6-4.3-4.3 1.7-1.4 3-2.1 3.8-3.4 1.5.5 3.3.6 3.8 1.9.5 5.3-2.4 7.2-3.4 11 1.5.4.6-1.7 2.4-1-.1-4 4.6-10.3 1-13.9-10.6-.3-21.2 14-16.2 24.2zm20.1-8.1h1.9c-.1-1.2-.7-1.9-1.9-1.9v1.9z"/><path fill="#fd0" d="M320.1 174.1c2.1.3.4 4.4 1 6.2.4.8 2.1.8 1 1.9-2-.9-3.4-6.8-2-8.1zm-132.5 1c2.8.1 4 4.7 6.7 6.7 1.1.8 2.9-.1 2.9 1.9 1.9.3 2.8-1.9 4.3-.5-.6 1-1.6 1.6-2.9 1.9 2.6 1 .6 4.2 1.4 6.2-2 1.5-2.2 2.6-4.3 2.4-3.7-.3-4.6-7.4-7.2-9.1.4-4.1-.8-5.4-.9-9.5z"/><path fill="#78BDE8" d="M73.4 181.8c1.9.3-1.3 3-1.4 4.3-1.4-1.4 1.5-2.5 1.4-4.3z"/><path d="M263.5 186.6c.6 6.5 5 9.1 7.7 13.4 2.4.6 3 .8 5.3 1 .4 0 1.8.8 1.4 1 4.7-1.8 1.9-9.1-1-12 4.8-.7 5.9 11.2 1.9 13.9-12 .5-14.6-8.5-18.7-15.8-.8-3.6 1.4-4.3 2.4-6.2 7.2-.6 11.1 2.1 13.9 5.8-.9 1.8-1.2 4.3-1 7.2-1.6.7-3.4 1.7-4.8 1.4-6.8-1.1-2.2-13 4.3-7.2 1.6-.8-1.2-1.3-.5-2.9-4.3-.5-8.3-5.2-10.9.4zm6.7 4.3c.2 1.1.6 2 1 2.9 1.8 0 3.3-.2 3.4-1.9-1-1.9-2.3-1.1-4.4-1zm-138.7-.5c.3 3.1-3.3 2.4-1.9 5.3h-1.4c.2 2.8-2.7 4.2-4.8 5.8-2.7 2-4.5 4.3-10.6 3.4-.3-.7-.7-1.2-1.4-1.4-.1-4.4-.3-6.4 1.4-9.6.9-1.6 1.9-2.5 2.9-3.8.2-.3.2-1.6.5-1.9 0 0 2.1-.9 3.4-1.9 2.5-2.1 5.1-4.2 11-3.4 1.2 1.1 3.8 6.4 0 6.7v-3.4c-3 0-6-1.1-7.7 1 1 1.2 2.6.9 3.4 1.9 0 0 1 2.7 1 2.4.5 5.5-9.2 6.9-8.6-.5-2-.7-.3 1.4-1 2.4-.4.6-1.6.3-1.9 1-.8 1.5 0 4.1-1.9 4.8.1 1 1.2 1 2.4 1 .1 1.6-1.9 1-1.9 2.4.5.6 1.3 1 1.9 1.4 2.3-.8 4.5-1.2 6.2-2.4 3.9-2.8 5.1-8.3 9-11.2zm-9.6 2.5l3.4 1c-.4-1.4.7-1.2.5-2.4-1.2-.2-1.4-1.4-2.9-1.4-.4.9-1.3 1.2-1 2.8zm123.3-5.8c-6.1-1.3-5.3 4.1-4.8 8.2 1.5-.9 2-2.8 3.8-3.4 2.9-.6 3.3 1.2 5.3 1.4v5.8c-1.7.5-2.4 2.1-5.3 1.4.9 1.8 3.3 6.3 8.6 5.3l1-1.9c2.2 1.3-.7 4-1.9 4.3-4.4 1.3-6.1-2.5-8.6-4.8-.3-.2-1.7-.2-1.9-.5-.6-.8-3.6-7.6-3.8-9.1-.6-4.2 1.1-7.4 2.4-10.1 7.7.4 10 6.4 13.4 11-.6-.1-.9.1-1 .5 2.9 1 2.4 5.6 1.9 7.7-2-.7-.7-2.8-1-3.8-1.2-5.3-5.7-7.9-8.1-12zm1.5 11c.5-1.1 1.8-1.4 1.4-3.4h-2.4c0 .9-1.4 3.3 1 3.4z"/><path fill="#78BDE8" d="M109.4 212c1.3 2.5 2.5 4.9 2.4 7.7h-1c-.2.8.4 4.8-1.4 5.3-.2.8.4.9 1 1-.1.8-.8 1.1-1.9 1l.5 1.9c-2.5 1-3.6 3.5-5.3 5.3-3.2.5-4.9-.6-6.2-1.9-.3-2.1 2.2-1.3 3.8-1.4-.1 1.2.7 1.5 1.4 1.9.5-.3.5-1.1 1.4-1-1.4-4.3 2.7-5.5 4.3-8.2.3-3.1-.7-5 0-7.2-1-1.3-2.4-2.6-4.3-2.9-2.5-.4-5.5 2-6.7.5.5-2.5 3.1.1 3.4-2.4 1.7 2.1 1.9-.8 4.3-.5.1 1.6 2.7.7 4.3.9z"/><path d="M276.4 221.6c1.7 1.2 3.1 2.7 3.8 4.8-2.2-.6-2.9-2.8-3.8-4.8z"/><path fill="#78BDE8" d="M109.4 231.2c.7-.8.1 4.7-2.4 3.8.2-1.8 1.7-2.4 2.4-3.8zm-2.9-181.4v1.9c1.1-1 3-1.2 5.3-1 .7.6.5 2.1.5 3.4 1.6.5.7-1.5 1-2.4 1.4.4 1.5.4 2.9 0-.2 1.7-.1 3 1.9 2.4-.1 2.9 2.6 6.5 2.4 11-3.6-.4-7 .6-10.6 0-6.1-1-19-2.9-26.9-1-1.8.4-5.8.7-9.1 1-2.6.2-4.5 1.4-7.2 1.9-6 1.2-11.9 1.8-17.3 3.8-.7-2.7 2.3-3.7 2.9-7.7.3-2.1 1.5-3 0-5.8-2.7-3.1-7.6-5.2-12.5-4.8.3-1.1 2.1-.8 1.4-2.9 1.7-.7.3 1.6 1.4 1.4 1.6-1-.4-2.5-.5-3.4 3.1.5 3.2-1.5 5.8-.5.6-.1.4-.9.5-1.4 2 .5 3-.2 4.3 1.4.6-.7 1.2-1.4 1.9-1.9 1.9 1.1 7.1-1.4 9.6 1 .5-.5 1-.9 1.4-1.4 12.6-1.2 23.9 2.2 33.6 3.8 1.6.3 4.3-.7 4.3 1.4 1.6.6 1.9-.2 3-.2zm-49.4 4.8c-1.1 5.4 7.3 5.6 9.6 1.4-1.9-.4-1.2 1.7-3.4 1 1.5-2.3-.8-2.4-1.4-3.8 2.9-.9 2.9 1.3 4.3 1.9 1.5-.7-.4-2.1 0-3.4-4-.6-8.6.2-9.1 2.9z"/><path d="M79.6 78.6c.1-1.3 1.6-1.3 1.9-2.4-1.3-2.2-4.5-4.6-7.7-3.4 1.3 1.1 3 1.8 2.4 4.8-1.1 1-3.6 1.3-5.3.5-.9-.3.1-2.7-1-2.9-1.6 1.6.5 3.7 1 4.8 2.9-.2 6.7.6 8.2-1-1.4 4.7-7.1 2-11.5 2-7.6-9.1 10.3-13.2 14.9-6.7.2 2.6 0 4.8-2.9 4.3zm-5.7-1.4c.8-.7.7-2.7-1-2.4-.8.7-.7 2.7 1 2.4zm247.1-3.4c.4 1.9-2.5.3-2.9 1.4 1.3 1.8 2.3 5.8-1 6.2 0 1.4 3.6-.7 2.9 1.4-6.5.8-11.8-3.4-8.6-9.1 3.5-1.2 5.8-.4 9.6.1zm-6.7 5.3c-.3-1.9.4-2.8 1-3.8-1.8-.2-3.6 3.9-1 3.8z"/><path fill="#78BDE8" d="M162.2 117c2.4.5 4.9 1.4 6.7 0 4 2.1 9.8-1.2 14.4 1.4-1.9 1.1-.9 5.4 0 6.7-3-.7-1.1 1.7-1.9 2.4-7.7.2-7.7-7.4-15.8-6.7-.4-1.4-1.2-2.3-3.4-1.9v-1.9zm-32.7 1.9c2.2 1.6 12.1-2.4 14.4 2.4 1.5-1 4.6-.3 4.8 1.4-3.9.8-5.9.7-10.6 1-.5.5-1 .9-1.4 1.4-6.7 1.3-12.3 2.8-17.8 5.8-.5.3-2 .8-2.9 1.9-3.6-.2-4.6 2.1-7.2 2.9-.6.1-.4.9-.5 1.4-14 5.6-23.2 15.9-36 22.6l-1-1.9c2 1.3.9-1.4 3.4-1l-1.4-1.9h1.9l-1-1.9c2.1.5 1.8-3 4.3-3.4.3-1.5-.5-1.7-.5-2.9 1.9.5.8-2.5 3.8-1.9-.1-1.2-.9-1.5 0-2.4 1.2-.2 1 .9 2.4.5.5-1.4-1.1-.9-1.9-1 1-3.1 6.8-2.6 5.8-6.2h1.4c1-3 5.5-2.5 6.7-5.3.8-.1.8.5 1.4.5.7-.1.4-1.2.5-1.9 5.4-1.8 10.1-4.6 15.4-6.2.4-.1.4-.5.5-1 2.8 0 6.2-.4 7.2-1.9 1.8 1.8 2.9-1 4.8 1 .2-2.3 1.1-.8 3.4-.5.1 0 .1-1.5.1-1.5zm123.9 4.4c-1.8.1-5.8 1-7.7-1.4 2.3-.2 2.6-.5 3.8 1 .6-.7 1.2-1.4 1.9-1.9 1 0 .6 1.3 1.9 1 .2-.2 2.3-.7 1-1 1.1-.3 3.2-.4 4.3-1.9 4.7-.7 6.1 1.9 10.1 1.9.4.4.5 1.1.5 1.9 1.4.1.9-1.6 2.9-1 2.1 1.6 6.6.8 7.7 3.4l8.6 1.9c1.4 2.5 5.7 2 6.7 4.8 2-.4 1.7 1.5 3.8 1 1.3 1.2 2.5 2.6 4.8 2.9l4.8 5.3c6.6 2 8.9 8.4 12.5 13.4 3.8 1.2 3.5 6.5 6.2 8.6-1.6.8-3.5-2.3-4.3-3.8-5.4-1.9-7.6-6.8-13.4-8.2-5-6.3-14.9-7.8-21.1-13l-3.8-1c-.3-.4-.5-.8-.5-1.4l-5.8-1c-2.2-2.5-6.2-3-10.1-3.8-3.4-4-11.6-3.1-15.8-6.2-.3-1.2.9-.8 1-1.5z"/><path d="M227.9 130c-2.1.5-2.4-.8-3.8-1v-3.8c1.3.1 2.1-.2 1.9-1.4 2.8.4 3.3 4.2 1.9 6.2zm-80.6-2.9c2.3-.4 3.2.7 4.3 1.4.1 1.5-.8 2-.5 3.8-2.7.3-4.7-.1-5.3-1.9-.2-1.8 1-2.2 1.5-3.3zm99.8 1c.4 2.5-.9 3.2-1.9 4.3l-2.9-1.4c-1.2-4 3.1-4.9 4.8-2.9z"/><path fill="#fd0" d="M199.6 139.6c1.3 1.1 2-1.5 1.9-2.4 1.3-.4 1 1 1.9 1-2.4 3.3-4.9 7.9-8.6 5.3-2.9-4.2-5.9-8.2-7.7-13.4h2.4c.5-1.6-1.5-.7-2.4-1 .1-1.4.8-2 2.4-1.9 1.5 5.4 6.1 7.7 8.6 12 1.3.3.9-1 1.4-1.4 1.3-.1 1.3 1.7.1 1.8z"/><path fill="#78BDE8" d="M75.3 138.1c2.2-.2 2-2.8 1.9-5.3 1.9-.8.2 2.1 1.4 1.9.7-2.4 4.3-4.2 6.2-3.8 2.9-4.4 11.3-3.4 14.9-7.2l10.6-1.9c-.7 2-5 .5-4.8 3.4-7 .2-9.3 5.1-14.9 6.7-3 2.9-6.8 5.1-9.6 8.2-1.7 0-3.9.4-4.3-1-2.3 2.2-4.4-1-5.8-1 1.3-1.3 3.1-2.3 5.3-3.4.6 2.1-.7 2.2-.9 3.4z"/><path fill="#fd0" d="M118.5 144.9c-1.5-.1-3.5.3-4.3-.5-.3-3.5 4.8-2.7 4.3.5z"/><path d="M154.5 186.1c3.7 3.6-1.1 9.9-1 13.9-1.8-.7-.9 1.3-2.4 1 1-3.8 3.8-5.8 3.4-11-.6-1.4-2.4-1.5-3.8-1.9-.8 1.2-2.1 2-3.8 3.4 1.1 1.8 4.6 1.2 4.3 4.3-2.1 1.1-2.9-1.4-4.8.5-.4 1.9 1.2 1.7 1.4 2.9 1.8.5.8-1.8 2.4-1.4-.1 2.6-1.6 3.9-4.8 3.4-.8-1.3-1.2-3-3.4-2.9-1.4 0 .7 3.6-1.4 2.9 1.2 1.3 1 2.8.5 4.8.1.4.5.5.5 1 5.1.1 5.9-4 9.6-5.3-1.1 4.8-6.6 5.3-9.1 8.6h-3.8c-5.1-10.4 5.5-24.7 16.2-24.2z"/><path stroke="#000" stroke-width="1.173" d="M201.2 96.5s5.1-32.7 12.8-42.7m-21.1 42.7s-5.1-32.7-12.8-42.7" fill="none"/></svg>