<?xml version="1.0" encoding="utf-8"?>
<!-- Generator: Adobe Illustrator 18.0.0, SVG Export Plug-In . SVG Version: 6.00 Build 0)  -->
<!DOCTYPE svg PUBLIC "-//W3C//DTD SVG 1.1//EN" "http://www.w3.org/Graphics/SVG/1.1/DTD/svg11.dtd">
<svg version="1.1"
	 id="Layer_1" xmlns:svg="http://www.w3.org/2000/svg" xmlns:dc="http://purl.org/dc/elements/1.1/" xmlns:cc="http://web.resource.org/cc/" xmlns:rdf="http://www.w3.org/1999/02/22-rdf-syntax-ns#"
	 xmlns="http://www.w3.org/2000/svg" xmlns:xlink="http://www.w3.org/1999/xlink" x="0px" y="0px" viewBox="0 0 246.4 272.4"
	 enable-background="new 0 0 246.4 272.4" xml:space="preserve">
<g>
	<path fill="#FFFFFF" d="M15.1,5.2c3.2,2.3,4.5,6.6,6.2,10.4C16.4,16.9,14.7,9.5,15.1,5.2z"/>
	<path fill="#FFFFFF" d="M27.6,13.5c-0.1,3.5-2.3,7.7-5.2,9.9c1.7-4.4,0.6-9.9-2.1-14.6C22.6,8.6,25.5,11.8,27.6,13.5z"/>
	<path fill="#FFFFFF" d="M57.3,10.9c-1.2,3.7-2.5,7.2-4.2,10.4c2.8,3.9-0.1,9.6-1,15.1c-0.8,4.8,1.1,10.5-2.6,12.5
		c-0.8-12.2,2.1-17.8,3.1-26.5c-4.1-3-1.5-9.6,0.5-13.5C55.6,8.5,55.9,10.2,57.3,10.9z"/>
	<path fill="#FFFFFF" d="M28.1,19.3c0.5,2.6,1.1,6.5-1.6,7.3C26.5,23.6,28,22.1,28.1,19.3z"/>
	<path fill="#FFFFFF" d="M74.9,21.3c-1.7,3.1-4.6,5.1-5.7,8.8c-1.4,0.4-1-1-2.1-1c-0.7,2.3-0.9,5-1,7.8c-1.8-2.2-2.5-5.5-2.6-9.4
		C68.4,26.2,68.7,16.8,74.9,21.3z"/>
	<path d="M57.3,23.9c0.5,0,1,0,1.6,0c1.5,13.1-0.4,31.5-8.3,38.5C54,50.7,59.2,37.1,57.3,23.9z"/>
	<path fill="#FFFFFF" d="M79.1,24.5c0.5,0.2,0.9,0.5,1,1c1,3.8-1.9,4.7-2.6,8.8c-0.1,0.8,1.1,1.3,1,2.6c0,0.9-1.1,1.4-1,2.1
		c0.4,3.3,2.2,5.9,1.6,9.4c-0.4,2.4-3.5,6.2-4.2,8.8c-3.4,13.3-3.3,25.5-15.1,28.6c-2.4-1.4-5.2-2.4-7.3-4.2c0.2-1.3,2.9,0.2,4.7,0
		c4.2-3,8.1-8.3,10.9-14.1c2.5-4.9,3.1-9.5,4.7-15.1c1.2-4.2,4.3-8.2,3.6-12.5c-0.6-3.9-4.2-4.5-5.7-6.8
		C73.3,30.1,76.6,27.7,79.1,24.5z"/>
	<path d="M36.4,27.6c2.4-1.5,2.8,2,2.1,4.2c-0.3,2.2,2.8,2.6,1.6,4.2C35.9,35.4,36.9,30.7,36.4,27.6z"/>
	<path d="M41.6,29.1c3.3-1.8,2.8,6.1,2.1,7.3C40.1,36.1,43.5,31.6,41.6,29.1z"/>
	<path fill="#FFFFFF" d="M68.2,32.8c4.1,11.7-4.3,23.6-7.8,32.8c-1.7,2.1-4.8,2.8-5.2,6.2c4,3,6.8-2.8,8.3-5.2
		c5.9-9,6-18.8,8.3-30.7c3.7,18.7-5.4,33.5-15.6,41.6c-3.3,0.6-3.8-1.8-7.3-1c1.4-2.1,2.3-4.7,3.1-7.3c1.6-0.6,2.9-1.6,4.2-2.6
		C60.7,55.8,65.7,45.6,68.2,32.8z"/>
	<path d="M20.8,37.5c0.5,0.2,0.9,0.5,1,1c-5.2,8.3-7.1,20-13.5,27.1c-1.1-0.9,1.9-6.3,3.6-7.8C13.9,50,17.6,44,20.8,37.5z"/>
	<path d="M27.6,40.6c-1.6,6.2-7,13.1-9.9,19.8C19.1,54,22.3,44.8,27.6,40.6z"/>
	<path fill="#FFFFFF" d="M84.8,44.2c0.7-1.3,2.5,0.5,2.1,2.1C85.7,46.2,85.8,44.7,84.8,44.2z"/>
	<path d="M41.1,44.2c1.7,3.8-7.1,6.1-8.8,9.9c-4.5-1.7-7.8,0.9-10.4,2.6c0.7-3.3,3.5-4.4,4.7-7.3C33.5,51.3,38.4,48.2,41.1,44.2z"/>
	<path fill="#FFFFFF" d="M94.7,54.6c1.4,0.3,2,1.5,3.1,2.1c-6.3,16-1.8,42.9-18.7,48.4c1.6-6.2,5.6-10.1,8.3-16.1
		c4.4-9.7,2.9-23.3,7.3-32.8C94.7,55.7,94.7,55.2,94.7,54.6z"/>
	<path fill="#FFFFFF" d="M106.7,56.2c3.8,8.9,20.7,11.1,24.5,20.8c0.6,1.5,0.2,3.9,0.5,5.7c2.1,10.2,4.1,19.7,2.6,31.7
		c-1.3-18.7-2.8-39.2-16.1-47.4C113.5,66.2,105.9,62.5,106.7,56.2z"/>
	<path fill="#FFFFFF" d="M99.4,61.4c4.9,2.1,1.7,7.4,1,12C97.3,71.8,98.6,65,99.4,61.4z"/>
	<path fill="#FFFFFF" d="M193.6,66.6c0.7,2.2-0.1,3.4-1,5.2c-1.5,0.6-3.6,0.6-5.7,0.5c0-1.9,0-3.8,0-5.7C189,65.4,191,66,193.6,66.6
		z"/>
	<path fill="#FFFFFF" d="M105.7,66.6c0.8-0.1,0.9,0.5,1.6,0.5c1.5,12-2.4,27.3-8.3,39.6c-2.5,5.2-12,16.6-18.2,16.7
		c-3.3,0-5.5-3.5-8.8-3.6c-0.8-4.9-7-4.4-6.2-10.9c4.7,0.1,6.4,5,12.5,4.7c11-0.6,21.1-19.2,22.9-30.7
		C101.9,76.8,104.1,71.2,105.7,66.6z"/>
	<path fill="#FFFFFF" d="M109.3,66.6c5.6,5.7,8.3,19.7,6.8,31.7c-0.4,3.3-4.3,10.1-6.8,15.1c-2.4,4.9-4.2,11.3-6.8,14.6
		c-0.8,1-3.3,2.1-4.7,3.6c-3.7,4.2-5.4,9.9-9.4,10.4c-4.7,0.6-13.6-4.6-17.7-8.8c-2.5-2.6-6.1-7.8-4.7-10.9
		c3.7,2.4,9.2,7.4,13.5,10.9c1.5-0.5,2.3-0.6,3.6-1.6c0.9-0.7,1.3-2.5,2.1-3.1c1.4-1.1,3.6-1.3,5.2-2.6c3.3-2.7,8.4-7.4,11.4-10.9
		c3.2-3.7,5.6-9.7,8.3-16.7C115,86.5,111.2,78.7,109.3,66.6z"/>
	<path fill="#FFFFFF" d="M179.6,67.7c2.1-0.2,3.8,0,4.7,1c0.2,2.1-2.2,1.6-2.6,3.1c0.3,2.5,3.4,2.2,3.6,4.7
		c-3.8,6.9-4.6,18.7-1.6,27.6c-4.5-2.3-7-11-7.8-18.7C180.5,81.6,177.9,72.4,179.6,67.7z"/>
	<path fill="#FFFFFF" d="M114,68.7c10.8-1.3,7.8,17.8,8.8,27.6c0.7,6.9-0.8,12.6-4.2,19.3c-0.5,1-2,1.6-2.6,2.6
		c-3.4,6-5.2,13.2-9.4,18.7c-4.5,6-9.8,9.1-13.5,14.1c7.7-0.6,12.6-8.6,18.2-13c-0.5-1.5-0.5-1.6,0-3.1
		c9.4-13.6,17.8-31.4,14.6-53.1c2.3,4.5,4.3,8.9,4.7,13.5c0.5,5.8-0.5,17.8-3.6,22.9c-2,3.3-5.9,5.6-7.8,8.8
		c-3.5,5.9-5.1,12.4-8.3,16.7c-4,5.3-12.4,7-16.7,11.4c-2.4-0.2-4-1.2-6.2-1.6c-0.1-1.7,2-1.1,2.1-2.6c-5.1-2.4-10.5-0.8-14.6-4.2
		c-4-3.3-5.1-9.2-9.4-12c4.3,2.1,9.4,7.9,13,12.5c1.5-0.5-0.8-1.4,0.5-2.1c12.8,7.3,18.9-6.9,24.5-15.6c6.1-9.6,14.3-17.5,15.1-28.6
		c0.4-5.3-0.7-11.1-1-16.1C117.7,78.9,117.5,72.2,114,68.7z"/>
	<path fill="#FFFFFF" d="M172.8,69.2c1.2,0,2.4,0,3.6,0C176.3,72.4,173,72.1,172.8,69.2z"/>
	<path fill="#FFFFFF" d="M130.1,70.8c1.6,0.7,2.7,1.8,4.2,2.6c4.1,7.7,3.1,15.1,5.2,27.1c2.2,12.8,6.5,20.4,5.2,34.9
		c-0.8,9.2-2.6,21-12,23.9c-0.6-3.8,2.9-7.5,4.2-12c0.8-2.9,0.5-7.1,1-10.9c2.4-16.6-0.7-39.3-5.7-55.7c-0.2-1.8,0.2-2.9,0.5-4.2
		C131.8,74.6,130.5,73.2,130.1,70.8z"/>
	<path fill="#FFFFFF" d="M169.7,71.8c0.4,1.9-0.9,2.2-0.5,4.2C163.4,80.1,164.7,69.2,169.7,71.8z"/>
	<path fill="#FFFFFF" d="M136.9,72.9c0.6-0.1,0.9,0.1,1,0.5c6.7,3.1,7.5,10.8,10.9,20.8c2.9,8.4,6.8,14.7,7.8,23.9
		c2.1,18.3,0.8,41-16.7,42.7c12-12.6,14.1-34.9,6.8-52.6c-1.4-3.3-3.6-6.5-4.2-10.4c-0.4-2.7,0.3-4.9,0-7.3
		C141.7,84.1,137.8,78.7,136.9,72.9z"/>
	<path fill="#FFFFFF" d="M145.7,74.9c0.2-1.2,2.8-0.4,3.1,0c6.7,5.1,8.8,14.7,13,23.4c3,6.1,6.3,10.5,7.8,16.1
		c2.8,10.2,1.8,31.2-5.2,40.6c-1.9,2.5-6.1,6.5-10.9,6.2c12.7-12.9,13-41.6,4.2-59.3c-2-4-5.3-8-6.2-12.5
		C150.4,84.3,149.1,77.6,145.7,74.9z"/>
	<path fill="#FFFFFF" d="M150.9,74.4c2,2.1,4,1,7.8,1c3.6,1.2,3.4,4.2,5.2,8.3c1.1,2.5,3.8,4.4,6.2,7.8c3.3,4.6,5.5,10.8,8.3,16.1
		c2.2,4.1,3.8,6.7,3.6,13.5c-0.2,7.7,2,15.5-0.5,23.9c-1.5,5.1-4.8,14.4-12,14.6c-2.4-0.3,1.7-1.8,2.1-2.6c3.8-6.5,5.6-14,6.2-21.3
		c2.2-24.3-13.2-39.8-21.3-56.2C154,78.6,151.6,77.4,150.9,74.4z"/>
	<path d="M16.1,74.9c0,3.6-1.9,5.4-5.2,5.7C9.1,77.2,12.2,74.4,16.1,74.9z"/>
	<path fill="#FFFFFF" d="M175.9,74.9c1.3,5-4.7,7.7-3.6,12.5c-2.7-0.1-3.3-2.3-4.2-4.2C170.2,80,170.1,74.5,175.9,74.9z"/>
	<path fill="#FFFFFF" d="M198.8,146.8c-2.3,0,1-2.1,1-3.1c2.7-6.4,1.4-12.5,2.6-18.7c1.2-6.1,5.2-10.3,7.3-15.6
		c1.5-3.8,1.2-8.2,3.1-11.4c1.3-2.1,6-5.6,7.8-8.3c1.5-2.2,2.6-5.2,2.1-7.8c1.1-0.5,1.4-1.7,2.1-2.6c0.2-1.8-0.2-2.9-0.5-4.2
		c3.6,1.3,5.5,4.2,8.3,6.2c-2.4,14.2-11.4,21.9-18.7,31.2c0.2,2.5-0.9,3.6-0.5,6.2C207.6,127.1,207.8,141.5,198.8,146.8z"/>
	<path fill="#FFFFFF" d="M239.9,88.5c2.7,3.3,5.6,8.6,5.2,12.5c-0.6,5.8-7.3,6.7-10.9,10.4c-2.7,2.8-3.5,7.3-6.2,9.9
		c-5.1,4.8-12.7,6.8-17.2,12c-0.1-4.5,2.4-6.2,2.1-10.9c6.1-7.8,19-15.1,25-23.9C239.8,95.4,240.7,91.7,239.9,88.5z"/>
	<path fill="#FFFFFF" d="M79.6,93.2c4.9,10.2-13.7,18.3-15.1,5.2C71.9,100.6,72.7,93,79.6,93.2z"/>
	<path fill="#FFFFFF" d="M129.6,117.6c5.9,3.3,4.9,12.2,4.7,19.8C133.4,130.5,127.9,123.6,129.6,117.6z"/>
	<path fill="#FFFFFF" d="M241.5,118.7c0.6-0.1,0.9,0.1,1,0.5c-2.2,6.5-2,11.4-6.2,15.1c-6.7,5.9-18.6,4-23.9,11.4
		c-2-1.2-2.4-6.6-2.1-8.3C221.6,134.1,231.9,125.4,241.5,118.7z"/>
	<path fill="#FFFFFF" d="M126.5,122.3c3.3,2.1-1.2,5.5,0,7.3c-1.9,0.5-2.9,1.9-5.2,2.1C121.9,127.4,125.1,125.7,126.5,122.3z"/>
	<path fill="#FFFFFF" d="M128,131.1c3.5,1.2,6.4,10.1,3.1,13C131.8,138.4,126.9,135.6,128,131.1z"/>
	<path fill="#FFFFFF" d="M127,139.5c-10.3-2.1-11.2,5.1-16.7,7.8C111.1,143.8,124.5,125.3,127,139.5z"/>
	<path fill="#FFFFFF" d="M206.6,140.5c-0.5,6.5-4.6,9.3-10.9,9.9C199.4,147.2,202.4,143.3,206.6,140.5z"/>
	<path fill="#FFFFFF" d="M237.3,141.6c0.9,1.3-0.5,3.7,0,6.2c-2.6,3.3-8.1,3.6-13,2.1c-2.5,1.5-9,3.7-11.4,0.5
		C216.3,142.7,228.7,144,237.3,141.6z"/>
	<path fill="#FFFFFF" d="M207.7,149.4c0.5,2.8-2.6,1.9-3.6,3.1c-3.7,4.6-11.2,7.8-19.3,6.2c5.9-5.6,17.8-2.2,21.9-9.9
		C207.2,148.8,207.5,149,207.7,149.4z"/>
	<path fill="#FFFFFF" d="M75.5,150.4c6.6-0.5,12.1,4.6,16.1,8.3C86,158.3,77.8,155.9,75.5,150.4z"/>
	<path fill="#FFFFFF" d="M126.5,156.1c-3.4-1.4-8.3-1.4-11.4-3.1C117.4,149.1,126.4,151.3,126.5,156.1z"/>
	<path fill="#FFFFFF" d="M236.3,152.5c-2.4,5.9-18.9,12-20.8,1.6C221.3,156.3,230,153.2,236.3,152.5z"/>
	<path fill="#FFFFFF" d="M100.4,154c0.1,1.7,1.6,3.4,0.5,4.7c-1.8-1.3-4.5,0.4-5.7-0.5C97.3,157.1,96.8,153.6,100.4,154z"/>
	<path fill="#FFFFFF" d="M208.2,154c-4.9,5.9-14.2,12.5-22.4,7.8c1.2-1.8,4.9,0.2,6.8,0c5.6-0.6,10.4-5.1,14.1-7.8
		C207.1,154,207.7,154,208.2,154z"/>
	<path fill="#FFFFFF" d="M74.4,155.1c1.4-1.3,3.6,0.9,3.1,3.1C76.1,157.5,75.5,156.1,74.4,155.1z"/>
	<path fill="#FFFFFF" d="M125.9,160.8c-7.1-3.2-12.7-1.9-21.3-1.6c-0.8-3.8,5.6-4.5,9.9-4.2C118.9,155.4,126.5,157,125.9,160.8z"/>
	<path fill="#FFFFFF" d="M236.3,158.2c-2.9,3.9-15,9.8-18.7,3.1C225.2,163.6,230.6,159.6,236.3,158.2z"/>
	<path fill="#FFFFFF" d="M93.2,162.4c-0.4,1.2-0.5,2.7-1,3.6c-3.1-3.3-10.2-2.6-14.1-5.2C82.4,157.1,88,162.1,93.2,162.4z"/>
	<path fill="#FFFFFF" d="M72.9,161.3c6.8,2,13.7,3.9,19.3,7.3c0.1,1.3-0.8,1.6-1,2.6C85.5,167.5,75.7,167.9,72.9,161.3z"/>
	<path fill="#FFFFFF" d="M124.4,166.5c-6.5-2.9-14.5,0.8-19.8-2.1c0.1-0.4,0.5-0.5,0.5-1C111.4,162.1,122.8,159.2,124.4,166.5z"/>
	<path fill="#FFFFFF" d="M207.1,162.9c0.5,0.2,0.9,0.5,1,1c0.3,2-1.3,2.1-1.6,3.6c-4.4,0.7-12,3.2-15.6,2.1c-1.2-0.4-4-1.3-3.1-3.6
		C194.8,166.5,203.3,167.5,207.1,162.9z"/>
	<path fill="#FFFFFF" d="M235.2,163.9c0,7.1-14,9.6-15.6,2.1C225.3,169.4,231.4,163.9,235.2,163.9z"/>
	<path fill="#FFFFFF" d="M89.5,175.4c-5.2-0.7-11.6-4.7-17.2-6.8c3.6-3.2,7.2,1.5,9.9,2.6C85.1,172.4,90.9,170.8,89.5,175.4z"/>
	<path fill="#FFFFFF" d="M123.3,172.8c-3.1-0.7-7.1-0.5-10.4-1c0,5.2,6.7,3.7,8.8,6.8c-6.4,2.2-9.8-7.5-16.7-8.3
		c1.3-2.8,6-2.5,8.8-2.1C117.7,168.6,121.9,171.3,123.3,172.8z"/>
	<path fill="#FFFFFF" d="M208.7,169.1c0,1,0,2.1,0,3.1c-3.2,0.4-6.3,1-9.4,1.6c0.8,3.7,8.4,0,9.4,0.5c-1.6,5.9-12.6,1.3-17.2,0.5
		C197.2,172.9,202.6,170.7,208.7,169.1z"/>
	<path fill="#FFFFFF" d="M234.7,171.2c-0.9,4.3-4.4,6-9.4,6.2c2,3.7,7.5-0.2,10.4-0.5c-2,3.2-6.4,6.5-10.9,4.2
		c-0.3-3.3-1.8-5.5-2.1-8.8C227.5,173.6,231.6,171.7,234.7,171.2z"/>
	<path fill="#FFFFFF" d="M72.3,172.3c2.5-0.2,4.1,0.4,4.2,2.6c-1.5-0.1-3.4,0.3-4.2-0.5C72.3,173.6,72.3,173,72.3,172.3z"/>
	<path fill="#FFFFFF" d="M111.9,176.9c-0.5,2.7-4.5,1.7-6.8,2.6C103.4,173.4,109.7,173.5,111.9,176.9z"/>
	<path fill="#FFFFFF" d="M71.8,177.5c5.1,0,12.5,2.4,10.9,8.8c-3.1-1.1-4.6-6.4-8.3-5.2c0.7,3.8,6.5,4.6,4.7,9.4
		c-2.1-2.4-2.9-6.2-7.8-5.7c0.5,1.8,1.8,2.7,3.1,3.6c-0.3,2.2-4.3,0.1-5.2-0.5c0.2-1.2,0.8-2,0.5-3.6c0.7-0.7,2.3-0.5,3.6-0.5
		c0-1.9-2-1.9-2.6-3.1C71.5,179.9,71.1,178.1,71.8,177.5z"/>
	<path fill="#FFFFFF" d="M209.7,181.6c-3.9,1.1-6.8,0.9-9.4-1c-2.2-0.4-6.4,1.2-6.2-1.6c4.4-1.2,10.7,2.1,15.1-0.5
		C208.8,180.1,209.7,180.4,209.7,181.6z"/>
	<path fill="#FFFFFF" d="M209.7,180.6c-0.1-1.4,0.2-2.2,1.6-2.1C211.4,179.9,211.5,181.1,209.7,180.6z"/>
	<path fill="#FFFFFF" d="M236.3,182.1c-1.7,2.1-3.8,3.8-4.7,6.8c-3.3,0.4-4.7-1.2-7.3-1.6c-0.3-1.7,0.4-2.4,0.5-3.6
		C229.6,185.1,232.4,183,236.3,182.1z"/>
	<path fill="#FFFFFF" d="M212.9,183.2c-0.4,1.6,0.9,1.5,0.5,3.1c-6.4-0.8-11.7,1.5-18.7-0.5c0.1-0.9-0.6-1.1-0.5-2.1
		C201.1,182.7,206,185.2,212.9,183.2z"/>
	<path fill="#FFFFFF" d="M236.3,186.3c1.9-0.3,1.6,1.5,1.6,3.1c-3.1,0-3,3.2-4.7,4.7c-3.1-0.2-6.1-0.5-7.3-2.6
		C227.6,190.8,235.6,191.1,236.3,186.3z"/>
	<path fill="#FFFFFF" d="M212.9,190c-1.6,1.2-3.9-1.7-6.2,0c0.5,1.7,3.8,0.7,4.7,2.1c-4.1,2.9-8.9-2.5-15.1-0.5
		c0.4-1.6-0.5-1.9-0.5-3.1C201.7,191.5,208.1,184.2,212.9,190z"/>
	<path fill="#FFFFFF" d="M105.1,188.4c0.9-0.7,4.8,0,4.2,2.6c-1.2,0-2.4,0-3.6,0C105.4,190.2,106.3,188.3,105.1,188.4z"/>
	<path fill="#FFFFFF" d="M78.1,195.2c-2.6-2.3-9-0.8-9.9-4.7C70.2,191.3,78.5,190.1,78.1,195.2z"/>
	<path fill="#FFFFFF" d="M117.1,195.7c-2.2-0.4-5.4-2-7.8-0.5c1.2,2.1,4.6,3.6,7.3,2.6c0.5,1.9,2.1,3.2,1,5.2
		c-3.2-2.8-7.1-2.8-12-3.1c2,4.3,9.7,2.8,11.4,7.3c-3,0.3-6.2-3.4-12-2.1c-1.8-4.1,1-8.9,0.5-12
		C109.9,194.2,117.6,188.6,117.1,195.7z"/>
	<path fill="#FFFFFF" d="M210.8,194.6c-2.1,2.5-10.1,1.5-13.5,0C200.3,190.7,206.2,196.6,210.8,194.6z"/>
	<path fill="#FFFFFF" d="M236.3,194.6c1.9,0.4-0.1,2.1,0.5,4.2c-2.5,2.1-5.9,0-7.8,1c0-1.2-0.9-1.5-0.5-3.1
		C231.8,196.7,234.4,196.1,236.3,194.6z"/>
	<path fill="#FFFFFF" d="M208.7,198.8c-2.2,1-7.5,2-11.4,1c0-0.9,0-1.7,0-2.6C199.9,197.7,209.2,195.6,208.7,198.8z"/>
	<path fill="#FFFFFF" d="M66.1,198.3c4-1.4,7.9,2.2,10.4,2.6C74.1,204.6,70.2,197.8,66.1,198.3z"/>
	<path fill="#FFFFFF" d="M69.7,203.5c-2-0.3-4-0.5-4.2-2.6C66.5,200.4,70.6,200.5,69.7,203.5z"/>
	<path fill="#FFFFFF" d="M207.1,201.4c-0.3,1.4-1.3,2.2-1.6,3.6c-2.4-0.6-7,0.7-9.9-0.5c-0.2-1.6,0.7-2,1-3.1
		C200.4,203.9,203.4,199.9,207.1,201.4z"/>
	<path fill="#FFFFFF" d="M229.5,201.4c2.8,1.2,5.1,0.2,7.3,0.5c0.3,1.6-0.9,1.8-0.5,3.6C233.2,204.9,229.7,205.8,229.5,201.4z"/>
	<path fill="#FFFFFF" d="M72.3,206.6c-1.6-0.1-3.6,0.1-3.6-1.6C71,205,72,204.1,72.3,206.6z"/>
	<path fill="#FFFFFF" d="M236.3,206.6c-0.3,2.4,0.9,2.9,0,4.7c-3.1,0.5-3.7-1.5-6.2-1.6c0-0.9,0-1.7,0-2.6
		C232.6,208.1,234,207.2,236.3,206.6z"/>
	<path fill="#FFFFFF" d="M203.5,207.6c-0.2,1.9-8.9,3.7-9.9,0C197.3,209.3,200.5,207.2,203.5,207.6z"/>
	<path fill="#FFFFFF" d="M71.3,211.8c-2.1,0.9-4.1-2.3-7.3-2.1c0-0.5,0-1,0-1.6C67.6,207.3,70.6,208.9,71.3,211.8z"/>
	<path fill="#FFFFFF" d="M115,210.8c-1.5,3.5-8.9,1-9.9-1c0-0.5,0-1,0-1.6C109.5,206,110.7,211.2,115,210.8z"/>
	<path fill="#FFFFFF" d="M192,211.8c2.6,2.5,5.5,0.6,8.8,0c-0.1,1.8-1.5,2.3-1.6,4.2c-3.1-0.8-6.2,0.8-8.8-1
		C190.5,213.4,191.6,212.9,192,211.8z"/>
	<path fill="#FFFFFF" d="M63.5,212.3c2.2,0.4,3.2,2,5.2,2.6c-1.1,2.4-3.3-1-5.7-0.5C62.8,213.3,63.3,213,63.5,212.3z"/>
	<path fill="#FFFFFF" d="M231.1,212.3c1.2,0.9,2.9,1.3,5.2,1c0.8,1.7-0.1,2,0,4.2c-2.2,1.1-5,0.4-6.2-1
		C230.2,214.9,230.6,213.6,231.1,212.3z"/>
	<path fill="#FFFFFF" d="M113.5,214.4c0.9,0.9-0.5,1.7,0,3.6c-4.6,0.3-6.1-2.5-8.3-4.7C107.1,213.3,110,217.1,113.5,214.4z"/>
	<path fill="#FFFFFF" d="M70.3,218.1c-0.3,1.5-0.8,2.7-1,4.2c-2.2-1.8-7.1-3.7-7.3-5.7C64.4,215.5,66,219.2,70.3,218.1z"/>
	<path fill="#FFFFFF" d="M105.1,217c2.1-0.1,2.9,2.6,0,2.1C105.1,218.4,105.1,217.7,105.1,217z"/>
	<path fill="#FFFFFF" d="M188.4,218.1c2.7,1.3,5,0.7,8.3,0.5c-0.5,4-2.8,6.2-4.2,9.4c-2.5-1-4.7-2.2-7.8-2.6c-0.4-1.8,0.6-2.2,1-3.1
		c2.6,0.3,3.4,2.5,6.8,2.1c0.8-0.5,1.6-0.8,1.6-2.1C192,221.1,188.2,221.6,188.4,218.1z"/>
	<path fill="#FFFFFF" d="M60.4,220.1c3.5,1.5,7,3.1,7.3,7.8c-2.3-1.7-5.1-2.9-7.8-4.2C59.6,222.1,60.2,221.4,60.4,220.1z"/>
	<path fill="#FFFFFF" d="M112.4,220.7c0.1,1.7-0.9,2.2-0.5,4.2c-2.2-0.6-4.1-1.5-7.3-1C104.7,218.1,107.8,221.3,112.4,220.7z"/>
	<path fill="#FFFFFF" d="M230,220.1c1.9,1.6,4.7,1.3,6.8,1.6c0.4,4.9-4.8,4.4-7.3,2.6C229.1,222.3,230.1,221.8,230,220.1z"/>
	<path fill="#FFFFFF" d="M58.3,225.3c2.7,2.4,6.8,3.3,7.8,7.3c-3-1.3-6.9-1.7-9.4-3.6C56.9,227.4,57.9,226.6,58.3,225.3z"/>
	<path fill="#FFFFFF" d="M103.6,225.9c3.4,1,6.9-0.2,7.3,3.1c-2.2-0.6-4.1-1.5-7.3-1C103.6,227.3,103.6,226.6,103.6,225.9z"/>
	<path fill="#FFFFFF" d="M228.5,226.9c1.8,1.5,5.6,2.2,7.8,0.5c1.4,7-4.6,10.7-1,18.2c-5,1.3-6.6-1-10.4-2.1
		C227.9,238.3,228.8,233.5,228.5,226.9z"/>
	<path fill="#FFFFFF" d="M191,230.5c-0.6,2-2.2,3-2.6,5.2c-1.6-0.1-0.9-2.6-3.1-2.1c-1.8,1.5,0.9,2.9,2.6,2.6
		c-2.1,5.2-9.3,5.2-9.4,12.5c-4.6-1.4-7.6-4.5-11.4-6.8c3.1-1.8,6-3.7,8.8-5.7c2.2-0.1,2.8,1.4,5.2,1c0-2.2-2.6-1.9-2.6-4.2
		c1.7-1.3,3.5,0.7,5.7,0.5c-0.1-2.6-4-2.6-2.6-5.2C183.8,228.2,189.3,228.7,191,230.5z"/>
	<path fill="#FFFFFF" d="M103,229.5c2.5,0.8,4.5,2.1,7.3,2.6c-0.5,0.7-0.5,1.9-1,2.6c-1.8-1-3.7-1.9-6.8-1.6
		C102.3,231.5,103.5,231.3,103,229.5z"/>
	<path fill="#FFFFFF" d="M58.8,237.8c-2.3-0.5-3-2.2-5.7-1C53.1,230.3,58.9,233.3,58.8,237.8z"/>
	<path fill="#FFFFFF" d="M60.4,233.7c1.8,0.6,4.3,0.5,4.7,2.6c-0.5,0-0.4,0.6-0.5,1C61.7,237.6,60.9,235.7,60.4,233.7z"/>
	<path fill="#FFFFFF" d="M108.8,236.8c0.5,1.5,0.5,2.2,0,3.6c-2.9-0.2-5-1.3-6.8-2.6c0-0.5,0-1,0-1.6
		C104.2,234.7,105.9,237.4,108.8,236.8z"/>
	<path fill="#FFFFFF" d="M52,237.8c2.8,0.5,4.1,2.5,6.2,3.6c-1.5,4.1-5.9,5.2-6.8,9.9c-3.1-0.8-6-1.6-7.8-3.6
		C46.1,244.1,50.3,242.2,52,237.8z"/>
	<path fill="#FFFFFF" d="M99.9,241c4.2-0.4,4.3,4.3,8.8,2.1c0.3,1.2,0.7,2.4,0.5,4.2c-2.8-1.8-5.6-4.3-9.9-3.1
		C99,242.5,100.3,242.5,99.9,241z"/>
	<path fill="#FFFFFF" d="M98.9,245.1c3.7,0.1,7.3,2.1,9.4,5.2c-2.9,1.4-4.4-1.4-7.3-1.6c0,2.8,2.4,3.1,3.6,4.7c-1,3-2.9,5.1-3.1,8.8
		c-5-0.1-6.1-1.4-9.4-3.6C94.8,254.2,100.3,250.7,98.9,245.1z"/>
	<path d="M61.4,9.9c1,1.2-2,2.9-2.1,4.7c1.3,1,2.4-2.8,4.2-3.1c3.2-0.1,5.1,3.9,7.3,3.1c1.7,1.5-1.6,2.6-1.6,4.2
		c1.2-0.7,2.2-1.6,3.1-2.6c5.5,3.1,11.3,7.7,14.6,11.5c-1.3,2.9-5.1,5-5.7,8.3C80,42,83.7,47.6,81.7,53.6c-0.9,2.8-3.7,4.8-4.7,7.3
		c-2.5,6.6-1.7,13.3-4.7,20.3c3.4-1.9,6.9-5.4,7.8-11.4c0.3-2.2-0.4-4.9,0-7.3c1.2-6.7,8.8-12.2,3.1-19.3c0.7,0,1.4,0,2.1,0
		c2-5.5,1.1-10.3,3.1-14.1c2.6,2.3,5.9,4.7,8.8,9.4c2.8,4.4,2.2,7.5-1.6,12.5c0.6,1.3,1.3,2.5,2.1,3.6c3.2-2.3,2.5-6,2.6-9.4
		c2.6,0.5,2.5,3.7,3.6,5.7c-1.3,1.3-1.3,3.9-2.6,5.2c0.7,1.6,1.8,2.7,3.1,3.6c0.6-1-0.5-4,1.6-4.7c2.6,0.1,7.6,4.7,8.3,6.8
		c3.4-0.3,6.6,4.6,10.4,5.2c9.9,1.6,18.1,7.6,29.7,5.2c1.6-0.3,3.1-1.7,4.7-2.1c4.2-1,9.9,0.3,13.5-3.1c10.4-0.5,20.1-5.9,31.7-4.2
		c-8.6,5.6-14.2,14.2-19.3,23.4c0.4,21.2,11.5,55.4-5.2,70.3c3.8,1,7.4-2.5,9.4-4.7c2.9-3.2,5-9.7,5.7-15.6c1-8.2-0.8-15.2,3.1-20.8
		c0.3-0.5,1.8-0.5,2.1-1c2.9-5.5,1.7-11.6,4.2-16.1c1.1-0.5,2.1-1.1,3.1-1.6c1.6-9.1,14.7-19.4,6.8-28.1c-1.9,3.7-2.1,9-6.2,10.4
		c1,7.6-7.4,12.1-9.9,18.7c-2.2,6,1,14.9-4.7,19.3c-0.6-6.1-6-16.3-2.1-21.3c-2.7-14.7,16.8-19.1,14.1-31.7c5.1,0.1,8.4,2.3,13,4.7
		C229,74,237,80.1,243,90c4.5,7.4,4,15.6,1.6,25.5c-1,4.2-0.9,9-2.1,13c-0.9,2.9-3.2,5.5-3.6,9.4c-0.4,3.5,0.9,7,0.5,10.4
		c-0.9,7.3-2.9,13.2-3.1,19.8c-0.2,6,2.7,11.7,3.1,18.7c0.2,4.3-1.4,8.9-1.6,13.5c-0.4,9.7,0.4,18.3,1,28.1c0.2,2.9-1.6,5.2-3.1,7.8
		c-0.5,5.8,2.8,13.1-0.5,17.7c-3.5,4.9-13.8,4.6-19.3,1c0.9-3.4,3.6-4.2,5.2-7.8c0.4-0.8,0.2-2.5,0.5-3.1c1.9-3.2,5.4-5.1,5.7-9.9
		c0.1-1.9-1.2-4-1-6.2c0.2-2.8,2.2-5.6,2.6-7.8c0.8-5.1-0.2-10.3-0.5-14.6c-0.6-7.1-5.6-12-6.2-19.8c-0.2-2.3,0.8-4.5,0.5-6.8
		c-0.5-3.9-3.1-8.4-4.7-12.5c-3.6-9.2-8.1-18.1-9.9-27.6c0.7,14.9,1.5,30.6,5.7,43.7c0.7,2.1,2.1,3.6,2.1,5.7
		c-0.1,4.5-5.9,12.6-8.3,16.7c-6.5,11-14.2,23.6-19.8,35.4c-5.3,1.2-8.3,5.4-7.3,11.4c-5,5.8-18.1,3.4-25,4.7
		c0.8-7,6.9-8.7,8.3-15.1c17-7.2,22.9-25.5,31.2-40.1c1.2-17.1-8.6-27.7-12.5-43.2c-16.9,5.3-39.3,7.7-55.2,3.1
		c-1.6,12.1-8,23.8-7.8,34.3c0.1,3.8,1.2,7.9-0.5,12c-4.7,10.8-9.8,26.6-7.3,39.6c-3,5.7-10.5,9.8-7.8,18.2
		c-2.7,9.4-17.5,8-24.5,3.6c3.3-8.5,12.2-11.4,16.7-18.7c2.6-12.3,7.9-23.9,7.3-39.6c-0.7-16.6,1.2-32.4,0-50
		c-1.8,1.4-4.7,0-6.8,0.5c-3.2,6.3-4.4,13.3-7.8,19.3c-1.9,3.4-5.2,5.9-7.3,9.4c-3.6,5.8-1.4,15-7.3,18.7
		c-0.7,7.9-5.1,14.5-5.7,23.9c-1.4,1.7-2,4.3-2.6,6.8c-7,2.4-13.3,9.5-10.4,17.2c-0.7,1.4-2.3,1.9-3.1,3.1
		c-7.2-1.2-14.4,2.1-21.9-2.1c2.1-4,5-7.2,7.8-10.4c1.2-0.2,2.2-1,3.1,0c1.2-2.7,5.9-6.2,8.8-8.8c3.8-9.9,8.8-18.6,12-29.1
		c-0.7-9.8,4.5-17.7,6.2-25c2.7-11.4,1.4-24.7,4.7-35.9c-5.2-7.8-11.9-14.1-11.4-27.6c1.6-1.6,0.9,1.8,3.1,1c1.3-1.7-2.2-2-3.1-3.1
		c0.2-4.8,0.4-9.7,2.6-12.5c-5.3-13.1-16.1-20.7-20.3-34.9c1.1-1.1,2.3-0.1,3.1,0.5c2-2.2,3.6-4.7,6.2-6.2c0.6-2,2.2-5.2,3.6-4.7
		c1.4-9.5,8.5-19.7,3.6-30.7c1.3-2.5,2.2-4.8,1-7.3c2-1.6,2.7-4.6,4.7-6.2c-0.9-1-1.4-2.4-3.1-2.6c-3.4,2.2-4.2,6.9-7.8,8.8
		c-0.1,9.4-1.5,21.6-5.7,28.6c-1.3,6-1.1,12.7-4.2,17.2c-4.9,7.2-16.7,8.3-21.3,15.6c0.3,2.2-0.4,3.4-0.5,5.2
		c-4.1,4.7-9.6,3.4-16.7,2.1c-3.1-3.4-4.8-5-5.7-11.4c-0.4-2.3-1.6-3.7-1.6-5.2c0.1-2.1,2.2-4.4,3.6-7.8c1-2.5,1.6-5.9,2.6-8.3
		c2.3-6,7.2-12.1,7.3-19.3c0-2.1-1.3-4.2-1-6.2c0.8-6.1,9.1-8.9,9.4-14.1c-6-2.3-9.8-6.9-8.8-16.1c5.6-0.4,9,5.5,14.1,7.3
		c1.8-3.2,3.5-6.6,6.8-8.3c2.5-0.6,1.4,2.4,4.2,1.6c0.9-0.8-1.4-2.8,0.5-3.6c1.9,0.7,3.8,1.4,5.7,2.1c0.4,1.6-0.9,1.5-0.5,3.1
		c-1.3,1.1-1.9-1.2-3.6,0c-0.2,3.1,4.6,5.4,5.7,8.8c1-1.7,1.4-5.9,2.6-8.8c-1.2-2-1.4,2.3-2.6,0.5c-0.3-1.2-1-2.7,0-3.6
		c4.3,3.2,13.8,3.4,13,9.9C59.7,11.3,60.3,10.4,61.4,9.9z M21.3,15.6c-1.8-3.8-3-8.1-6.2-10.4C14.7,9.5,16.4,16.9,21.3,15.6z
		 M16.1,87.4c2.1-2.6,3.7-8.4,6.8-8.3c-2.1,5.4-5.4,9.5-11.4,10.9c8.6,5.2,10.9-4.9,14.1-9.9c0.2-2.3-2.9-1.3-2.6-3.6
		c2.6-2.7,3.4,3,4.7,1.6c-0.5-1.6-1.9-2.2-2.1-4.2c0.5-1.1,2.9-0.2,3.1-1.6c-1.8-3.2-11.8,1.8-9.4-5.2c1.3,0.6,2.5,1.3,4.2,1.6
		c3.9-2,7.8,3.1,9.4,1.6c-1.3-2-0.1-5-1-6.2c-3.9-0.4-9.5,2.2-11.5-1c1.7-4.4,7-1.6,12-1.6c1.1,1.7,2.6,2.9,2.1,6.2
		c-0.4,1.9,0.9,1.9,0.5,0c0.9-2.2,2.3-6.2,1.6-8.3C33.3,57.1,25.9,62,25,57.2c4.8-1.3,11.7-3.6,15.1,0.5c-0.1,7.2-4.5,8.5-3.6,15.6
		c4.2,0.1,1.8-6.5,4.2-8.3c1.6,1.4,0.6,3,0.5,5.2c1.8-0.3,1.4-2.8,2.1-4.2c-0.3-11.4,0.2-25.8,3.6-35.4c2,6.4-1.8,11.1-2.1,15.6
		c3.3,5.4-3.6,14.4,1,18.2c2.4-10.2,0.6-22.4,3.1-32.3c1-3.7,2.3-7.4,0-11.4c-2.8-0.7-1.7,2.4-3.6,2.6c2.5-8.7-3.7-14.1-9.4-17.7
		c-5.1,7.8,2.2,13.2,2.6,19.3c-2.4-1.1-1.9-5-5.7-4.7c1.2,5.7-0.4,12.1,3.1,16.1c-1.1,2.2-6.1,1-5.7-1.6c2.7-3.7,1-9.7,0-13.5
		c-0.5,4.6-2,11.1-1,15.6c-6,5.3-9.4,13.2-13,20.8c-0.9,4.3-1.9,8.5-5.7,9.9c5.7-10.2,7.5-24,16.7-31.7c0-3.2,0.1-7.9-0.5-8.8
		c-2.2,2.3,0.3,9.3-4.2,9.4c-1.8-3.8,3.1-7.9,1.6-11.4c-2,3.3-3.3,7.4-5.2,10.9c-0.7-1.4-2.3-1.8-2.1-4.2c1.8-2.2,6-4.7,5.2-7.8
		c-1.3,3.2-3.7,5.3-6.8,6.8c-1,3.3,0.2,7.7,0.5,9.4c0.9-0.3,2.2-2.9,3.1-1.6c-3.1,5.9-6.5,13.8-9.4,19.8c-1.1,2.3-2.6,4.1-3.6,6.2
		c-3.5,7.1-3.8,13.1-1.6,21.9C9.4,88,9.9,87.8,16.1,87.4z M20.3,8.8c2.6,4.7,3.8,10.2,2.1,14.6c2.9-2.2,5.1-6.4,5.2-9.9
		C25.5,11.8,22.6,8.6,20.3,8.8z M53.1,8.8c-2.1,4-4.6,10.5-0.5,13.5c-1,8.8-3.9,14.4-3.1,26.5c3.7-2,1.8-7.7,2.6-12.5
		c0.9-5.5,3.9-11.2,1-15.1c1.7-3.2,3-6.8,4.2-10.4C55.9,10.2,55.6,8.5,53.1,8.8z M26.5,26.5c2.7-0.8,2.1-4.7,1.6-7.3
		C28,22.1,26.5,23.6,26.5,26.5z M63.5,27.6c0.1,3.9,0.8,7.2,2.6,9.4c0.2-2.8,0.3-5.5,1-7.8c1,0,0.7,1.4,2.1,1c1.1-3.8,4-5.7,5.7-8.8
		C68.7,16.8,68.4,26.2,63.5,27.6z M70.8,33.3c1.5,2.3,5.1,2.8,5.7,6.8c0.6,4.3-2.5,8.3-3.6,12.5c-1.6,5.6-2.2,10.2-4.7,15.1
		c-2.9,5.7-6.7,11.1-10.9,14.1c-1.8,0.2-4.5-1.3-4.7,0c2,1.8,4.9,2.8,7.3,4.2c11.8-3.1,11.7-15.3,15.1-28.6c0.7-2.6,3.7-6.4,4.2-8.8
		c0.6-3.4-1.2-6-1.6-9.4c-0.1-0.7,1-1.2,1-2.1c0-1.3-1.2-1.8-1-2.6c0.7-4.1,3.6-5,2.6-8.8c-0.1-0.6-0.6-0.8-1-1
		C76.6,27.7,73.3,30.1,70.8,33.3z M56.2,66.6c-1.3,1-2.5,2-4.2,2.6c-0.9,2.6-1.7,5.2-3.1,7.3c3.5-0.7,4,1.6,7.3,1
		c10.2-8.2,19.4-22.9,15.6-41.6c-2.3,11.9-2.4,21.7-8.3,30.7c-1.5,2.4-4.3,8.2-8.3,5.2c0.4-3.5,3.5-4.2,5.2-6.2
		c3.5-9.2,12-21.1,7.8-32.8C65.7,45.6,60.7,55.8,56.2,66.6z M84.8,73.4c0.6-0.1,0.8,0.8,1,0c-2-10.4,9-16.2,3.6-27.1
		c2.2,0.6,1.1,4.5,4.2,4.2c0.7-6,6.1-11.1-1-14.1c-1.4,3.5-2.9,6.8-5.2,9.4c3.5,5.3-2.2,11.1-3.6,16.1C81.5,70,84,79.4,77,83.3
		c-4.2,3.1-9.4,2.2-13,6.2c-1,0.7-3,0.5-4.2,1C67.6,103.3,84,84,84.8,73.4z M86.9,46.3c0.4-1.5-1.4-3.4-2.1-2.1
		C85.8,44.7,85.7,46.2,86.9,46.3z M94.7,56.2c-4.4,9.5-2.9,23.1-7.3,32.8c-2.7,6.1-6.7,9.9-8.3,16.1C96,99.7,91.5,72.8,97.8,56.7
		c-1.1-0.6-1.7-1.7-3.1-2.1C94.7,55.2,94.7,55.7,94.7,56.2z M118.1,67.1c13.3,8.2,14.8,28.7,16.1,47.4c1.5-12-0.5-21.5-2.6-31.7
		c-0.4-1.8,0.1-4.2-0.5-5.7c-3.8-9.8-20.7-11.9-24.5-20.8C105.9,62.5,113.5,66.2,118.1,67.1z M100.4,73.4c0.7-4.6,3.9-9.9-1-12
		C98.6,65,97.3,71.8,100.4,73.4z M186.8,66.6c0,1.9,0,3.8,0,5.7c2.1,0.1,4.3,0.1,5.7-0.5c0.9-1.8,1.7-3,1-5.2
		C191,66,189,65.4,186.8,66.6z M101,82.7c-1.8,11.5-11.9,30.1-22.9,30.7c-6.1,0.3-7.8-4.6-12.5-4.7c-0.8,6.5,5.4,6,6.2,10.9
		c3.3,0.1,5.5,3.7,8.8,3.6c6.2-0.1,15.7-11.4,18.2-16.7c5.9-12.2,9.8-27.6,8.3-39.6c-0.7,0-0.7-0.7-1.6-0.5
		C104.1,71.2,101.9,76.8,101,82.7z M110.3,98.4c-2.7,7-5.2,12.9-8.3,16.7c-3,3.5-8.1,8.2-11.4,10.9c-1.6,1.3-3.8,1.5-5.2,2.6
		c-0.8,0.7-1.1,2.4-2.1,3.1c-1.3,1-2.1,1.1-3.6,1.6c-4.4-3.5-9.8-8.5-13.5-10.9c-1.4,3.1,2.2,8.3,4.7,10.9c4.1,4.3,13,9.5,17.7,8.8
		c3.9-0.5,5.7-6.2,9.4-10.4c1.3-1.6,3.9-2.6,4.7-3.6c2.6-3.3,4.3-9.7,6.8-14.6c2.5-5,6.3-11.8,6.8-15.1c1.5-12-1.2-26-6.8-31.7
		C111.2,78.7,115,86.5,110.3,98.4z M175.9,85.3c0.8,7.7,3.3,16.4,7.8,18.7c-3.1-8.8-2.3-20.7,1.6-27.6c-0.3-2.5-3.4-2.2-3.6-4.7
		c0.4-1.5,2.8-1,2.6-3.1c-0.8-1.1-2.6-1.2-4.7-1C177.9,72.4,180.5,81.6,175.9,85.3z M118.1,84.8c0.4,5,1.4,10.8,1,16.1
		c-0.7,11.1-9,19.1-15.1,28.6c-5.5,8.7-11.7,22.9-24.5,15.6c-1.3,0.7,0.9,1.6-0.5,2.1c-3.6-4.6-8.7-10.4-13-12.5
		c4.3,2.7,5.4,8.7,9.4,12c4,3.3,9.5,1.8,14.6,4.2c-0.1,1.5-2.2,0.9-2.1,2.6c2.3,0.3,3.9,1.4,6.2,1.6c4.2-4.4,12.6-6.1,16.7-11.4
		c3.2-4.3,4.8-10.7,8.3-16.7c1.9-3.3,5.8-5.6,7.8-8.8c3.1-5.1,4.2-17.1,3.6-22.9c-0.4-4.7-2.4-9-4.7-13.5
		c3.3,21.6-5.2,39.5-14.6,53.1c-0.5,1.5-0.5,1.6,0,3.1c-5.7,4.4-10.5,12.4-18.2,13c3.7-4.9,9-8.1,13.5-14.1
		c4.2-5.5,5.9-12.7,9.4-18.7c0.6-1,2.1-1.6,2.6-2.6c3.4-6.6,4.9-12.3,4.2-19.3c-1-9.8,1.9-28.9-8.8-27.6
		C117.5,72.2,117.7,78.9,118.1,84.8z M176.4,69.2c-1.2,0-2.4,0-3.6,0C173,72.1,176.3,72.4,176.4,69.2z M132.7,76.5
		c-0.3,1.2-0.7,2.4-0.5,4.2c5,16.4,8.1,39.1,5.7,55.7c-0.6,3.8-0.2,8-1,10.9c-1.2,4.5-4.8,8.1-4.2,12c9.4-3,11.2-14.8,12-23.9
		c1.3-14.5-3-22-5.2-34.9c-2.1-12-1.1-19.3-5.2-27.1c-1.4-0.8-2.6-1.9-4.2-2.6C130.5,73.2,131.8,74.6,132.7,76.5z M169.1,76
		c-0.4-1.9,0.9-2.2,0.5-4.2C164.7,69.2,163.4,80.1,169.1,76z M142.6,90.6c0.3,2.3-0.4,4.5,0,7.3c0.5,3.9,2.8,7.1,4.2,10.4
		c7.3,17.6,5.2,40-6.8,52.6c17.4-1.7,18.7-24.3,16.7-42.7c-1-9.2-4.9-15.5-7.8-23.9c-3.4-10-4.2-17.8-10.9-20.8
		c-0.1-0.4-0.4-0.6-1-0.5C137.8,78.7,141.7,84.1,142.6,90.6z M151.4,89.5c0.9,4.5,4.2,8.5,6.2,12.5c8.9,17.7,8.5,46.4-4.2,59.3
		c4.9,0.2,9-3.7,10.9-6.2c7-9.4,8-30.4,5.2-40.6c-1.5-5.6-4.9-10-7.8-16.1c-4.2-8.7-6.3-18.3-13-23.4c-0.4-0.4-2.9-1.2-3.1,0
		C149.1,77.6,150.4,84.3,151.4,89.5z M156.7,79.6c8.2,16.4,23.5,31.9,21.3,56.2c-0.7,7.3-2.4,14.9-6.2,21.3
		c-0.4,0.8-4.5,2.3-2.1,2.6c7.1-0.2,10.4-9.5,12-14.6c2.5-8.4,0.3-16.3,0.5-23.9c0.2-6.9-1.5-9.4-3.6-13.5c-2.8-5.3-5-11.5-8.3-16.1
		c-2.4-3.4-5.2-5.3-6.2-7.8c-1.8-4.2-1.7-7.1-5.2-8.3c-3.8,0-5.8,1.1-7.8-1C151.6,77.4,154,78.6,156.7,79.6z M168.1,83.3
		c0.9,1.9,1.4,4.1,4.2,4.2c-1.1-4.8,5-7.5,3.6-12.5C170.1,74.5,170.2,80,168.1,83.3z M195.7,150.4c6.4-0.6,10.5-3.4,10.9-9.9
		C202.4,143.3,199.4,147.2,195.7,150.4z M213.4,118.7c-0.4-2.7,0.7-3.8,0.5-6.2c7.3-9.4,16.3-17,18.7-31.2c-2.8-2-4.8-4.9-8.3-6.2
		c0.3,1.2,0.7,2.4,0.5,4.2c-0.6,0.9-1,2.1-2.1,2.6c0.5,2.6-0.6,5.6-2.1,7.8c-1.8,2.7-6.5,6.2-7.8,8.3c-1.9,3.2-1.7,7.7-3.1,11.4
		c-2,5.3-6.1,9.5-7.3,15.6c-1.2,6.3,0.1,12.4-2.6,18.7c-0.1,1-3.3,3.1-1,3.1C207.8,141.5,207.6,127.1,213.4,118.7z M237.8,98.4
		c-6,8.8-18.8,16.2-25,23.9c0.4,4.7-2.2,6.5-2.1,10.9c4.5-5.2,12-7.2,17.2-12c2.8-2.6,3.6-7.1,6.2-9.9c3.6-3.8,10.3-4.6,10.9-10.4
		c0.4-3.9-2.5-9.2-5.2-12.5C240.7,91.7,239.8,95.4,237.8,98.4z M64.5,98.4c1.4,13.1,20,4.9,15.1-5.2C72.7,93,71.9,100.6,64.5,98.4z
		 M134.3,137.4c0.2-7.5,1.2-16.5-4.7-19.8C127.9,123.6,133.4,130.5,134.3,137.4z M210.3,137.4c-0.3,1.7,0.1,7.2,2.1,8.3
		c5.4-7.5,17.2-5.6,23.9-11.4c4.3-3.7,4.1-8.6,6.2-15.1c-0.1-0.4-0.4-0.6-1-0.5C231.9,125.4,221.6,134.1,210.3,137.4z M121.3,131.7
		c2.3-0.2,3.3-1.6,5.2-2.1c-1.2-1.8,3.3-5.2,0-7.3C125.1,125.7,121.9,127.4,121.3,131.7z M131.2,144.2c3.3-3,0.4-11.8-3.1-13
		C126.9,135.6,131.8,138.4,131.2,144.2z M110.3,147.3c5.5-2.7,6.4-9.9,16.7-7.8C124.5,125.3,111.1,143.8,110.3,147.3z M212.9,150.4
		c2.5,3.2,9,1,11.4-0.5c4.9,1.5,10.4,1.2,13-2.1c-0.5-2.5,0.9-5,0-6.2C228.7,144,216.3,142.7,212.9,150.4z M127.5,148.8
		c0.8,1.3,2.1,1.7,1,3.6c1.6,0,1.6-1.6,1.6-3.1c-2.9,0.3-2.5-2.7-4.2-3.6c-7.7-4.2-11.5,3.8-17.7,2.6c-0.8,2.8-5.5,1.8-5.2,5.7
		C111.3,155.8,116.7,144.1,127.5,148.8z M206.6,148.8c-4,7.7-15.9,4.3-21.9,9.9c8,1.5,15.6-1.7,19.3-6.2c1.1-1.2,4.2-0.4,3.6-3.1
		C207.5,149,207.2,148.8,206.6,148.8z M91.6,158.7c-4.1-3.8-9.5-8.9-16.1-8.3C77.8,155.9,86,158.3,91.6,158.7z M115,153
		c3.1,1.7,8,1.7,11.4,3.1C126.4,151.3,117.4,149.1,115,153z M215.5,154c2,10.4,18.4,4.3,20.8-1.6C230,153.2,221.3,156.3,215.5,154z
		 M95.2,158.2c1.2,0.9,3.9-0.8,5.7,0.5c1.1-1.2-0.5-3-0.5-4.7C96.8,153.6,97.3,157.1,95.2,158.2z M206.6,154
		c-3.7,2.7-8.4,7.2-14.1,7.8c-1.9,0.2-5.6-1.8-6.8,0c8.2,4.7,17.5-1.9,22.4-7.8C207.7,154,207.1,154,206.6,154z M77.5,158.2
		c0.5-2.2-1.7-4.5-3.1-3.1C75.5,156.1,76.1,157.5,77.5,158.2z M114.5,155.1c-4.3-0.3-10.7,0.4-9.9,4.2c8.7-0.3,14.3-1.7,21.3,1.6
		C126.5,157,118.9,155.4,114.5,155.1z M217.5,161.3c3.7,6.7,15.8,0.7,18.7-3.1C230.6,159.6,225.2,163.6,217.5,161.3z M207.7,161.3
		c-1.4-0.5,1.4-1,0.5-2.6c-3.5,0.8-6.4,2.3-7.8,5.2C203.9,164.2,206,161.4,207.7,161.3z M78.1,160.8c3.8,2.6,10.9,1.9,14.1,5.2
		c0.6-1,0.7-2.5,1-3.6C88,162.1,82.4,157.1,78.1,160.8z M91.1,171.2c0.2-1,1.1-1.3,1-2.6c-5.5-3.3-12.4-5.3-19.3-7.3
		C75.7,167.9,85.5,167.5,91.1,171.2z M105.1,163.4c0,0.5-0.4,0.6-0.5,1c5.3,2.9,13.3-0.8,19.8,2.1
		C122.8,159.2,111.4,162.1,105.1,163.4z M187.9,166c-0.9,2.4,1.9,3.3,3.1,3.6c3.7,1.1,11.2-1.4,15.6-2.1c0.2-1.5,1.8-1.6,1.6-3.6
		c-0.1-0.6-0.6-0.8-1-1C203.3,167.5,194.8,166.5,187.9,166z M219.6,166c1.6,7.5,15.6,5,15.6-2.1C231.4,163.9,225.3,169.4,219.6,166z
		 M82.2,171.2c-2.7-1.1-6.3-5.8-9.9-2.6c5.5,2.1,11.9,6.1,17.2,6.8C90.9,170.8,85.1,172.4,82.2,171.2z M114,168.1
		c-2.8-0.4-7.5-0.8-8.8,2.1c6.9,0.8,10.2,10.5,16.7,8.3c-2.2-3-8.8-1.6-8.8-6.8c3.3,0.5,7.3,0.4,10.4,1
		C121.9,171.3,117.7,168.6,114,168.1z M191.5,174.9c4.5,0.8,15.6,5.3,17.2-0.5c-0.9-0.6-8.5,3.2-9.4-0.5c3.1-0.6,6.1-1.1,9.4-1.6
		c0-1,0-2.1,0-3.1C202.6,170.7,197.2,172.9,191.5,174.9z M222.7,172.3c0.3,3.3,1.8,5.5,2.1,8.8c4.5,2.4,8.9-1,10.9-4.2
		c-2.9,0.4-8.4,4.2-10.4,0.5c5-0.2,8.5-1.9,9.4-6.2C231.6,171.7,227.5,173.6,222.7,172.3z M72.3,174.3c0.8,0.8,2.7,0.5,4.2,0.5
		c-0.1-2.2-1.7-2.8-4.2-2.6C72.3,173,72.3,173.6,72.3,174.3z M81.7,178.5c1.5-1.1,2.1,3.1,4.2,3.1c0.4-1.3,1.4-2,1.6-3.6
		c-3.2-0.2-6.2-5.3-8.3-3.1C81.1,175.2,81.6,177.7,81.7,178.5z M105.1,179.5c2.3-0.9,6.3,0.1,6.8-2.6
		C109.7,173.5,103.4,173.4,105.1,179.5z M70.8,180.6c0.7,1.3,2.6,1.2,2.6,3.1c-1.4,0-3-0.2-3.6,0.5c0.3,1.7-0.4,2.4-0.5,3.6
		c0.9,0.6,4.9,2.7,5.2,0.5c-1.3-1-2.6-1.9-3.1-3.6c4.9-0.4,5.7,3.4,7.8,5.7c1.9-4.7-4-5.6-4.7-9.4c3.7-1.2,5.2,4.1,8.3,5.2
		c1.6-6.4-5.8-8.8-10.9-8.8C71.1,178.1,71.5,179.9,70.8,180.6z M211.3,178.5c-1.4-0.2-1.7,0.7-1.6,2.1
		C211.5,181.1,211.4,179.9,211.3,178.5z M209.2,178.5c-4.4,2.6-10.7-0.7-15.1,0.5c-0.2,2.8,4.1,1.1,6.2,1.6c2.5,2,5.5,2.1,9.4,1
		C209.7,180.4,208.8,180.1,209.2,178.5z M119.7,183.2c-3.8-4.4-9.7-0.6-14.6,0c0,0.9,0,1.7,0,2.6c5.5,0,7.4,3.7,13,3.6
		c0-1.2,0.9-1.5,0.5-3.1c-3.7-0.2-3.8-1.3-6.2,0.5c-0.3-1.3-2-1.1-1.6-3.1c1.7-1.8,10.4,2.8,9.9-1.6
		C120.6,182.7,120.2,183,119.7,183.2z M224.8,183.7c-0.2,1.2-0.8,2-0.5,3.6c2.5,0.4,4,1.9,7.3,1.6c0.9-3,3-4.6,4.7-6.8
		C232.4,183,229.6,185.1,224.8,183.7z M194.1,183.7c-0.1,1,0.6,1.1,0.5,2.1c7,2.1,12.3-0.3,18.7,0.5c0.4-1.6-0.9-1.5-0.5-3.1
		C206,185.2,201.1,182.7,194.1,183.7z M225.9,191.5c1.2,2.1,4.2,2.4,7.3,2.6c1.7-1.5,1.6-4.7,4.7-4.7c0-1.6,0.3-3.4-1.6-3.1
		C235.6,191.1,227.6,190.8,225.9,191.5z M195.7,188.4c0,1.2,0.9,1.5,0.5,3.1c6.2-2,11,3.4,15.1,0.5c-0.9-1.4-4.2-0.4-4.7-2.1
		c2.3-1.7,4.6,1.2,6.2,0C208.1,184.2,201.7,191.5,195.7,188.4z M105.7,191c1.2,0,2.4,0,3.6,0c0.7-2.6-3.2-3.3-4.2-2.6
		C106.3,188.3,105.4,190.2,105.7,191z M68.2,190.5c0.9,3.9,7.3,2.4,9.9,4.7C78.5,190.1,70.2,191.3,68.2,190.5z M105.7,193.1
		c0.5,3-2.3,7.8-0.5,12c5.7-1.3,9,2.4,12,2.1c-1.7-4.5-9.5-3-11.4-7.3c4.9,0.3,8.7,0.3,12,3.1c1.1-2-0.6-3.3-1-5.2
		c-2.6,1-6.1-0.5-7.3-2.6c2.4-1.5,5.6,0.1,7.8,0.5C117.6,188.6,109.9,194.2,105.7,193.1z M72.9,197.2c-0.9-2.4-4.9-1.7-5.7-4.2
		c-0.6,0.5-0.2,1-0.5,2.6C69.7,195.2,70.9,196.6,72.9,197.2z M197.2,194.6c3.4,1.5,11.4,2.5,13.5,0
		C206.2,196.6,200.3,190.7,197.2,194.6z M228.5,196.7c-0.4,1.6,0.5,1.9,0.5,3.1c1.9-1.1,5.3,1,7.8-1c-0.6-2.1,1.4-3.8-0.5-4.2
		C234.4,196.1,231.8,196.7,228.5,196.7z M197.2,197.2c0,0.9,0,1.7,0,2.6c3.9,1,9.2-0.1,11.4-1C209.2,195.6,199.9,197.7,197.2,197.2z
		 M76.5,200.9c-2.5-0.4-6.4-4-10.4-2.6C70.2,197.8,74.1,204.6,76.5,200.9z M65.6,200.9c0.1,2.1,2.2,2.3,4.2,2.6
		C70.6,200.5,66.5,200.4,65.6,200.9z M196.7,201.4c-0.3,1.1-1.3,1.5-1,3.1c2.9,1.2,7.5-0.1,9.9,0.5c0.3-1.5,1.3-2.2,1.6-3.6
		C203.4,199.9,200.4,203.9,196.7,201.4z M236.3,205.6c-0.4-1.8,0.8-2,0.5-3.6c-2.2-0.4-4.5,0.7-7.3-0.5
		C229.7,205.8,233.2,204.9,236.3,205.6z M68.7,205c0.1,1.6,2.1,1.4,3.6,1.6C72,204.1,71,205,68.7,205z M230,207.1c0,0.9,0,1.7,0,2.6
		c2.5,0.1,3.1,2.1,6.2,1.6c0.9-1.7-0.3-2.3,0-4.7C234,207.2,232.6,208.1,230,207.1z M193.6,207.6c1,3.7,9.7,1.9,9.9,0
		C200.5,207.2,197.3,209.3,193.6,207.6z M64,208.2c0,0.5,0,1,0,1.6c3.2-0.2,5.2,3,7.3,2.1C70.6,208.9,67.6,207.3,64,208.2z
		 M105.1,208.2c0,0.5,0,1,0,1.6c1,2.1,8.4,4.5,9.9,1C110.7,211.2,109.5,206,105.1,208.2z M190.5,214.9c2.6,1.8,5.7,0.2,8.8,1
		c0.1-1.8,1.5-2.3,1.6-4.2c-3.4,0.6-6.2,2.5-8.8,0C191.6,212.9,190.5,213.4,190.5,214.9z M63,214.4c2.4-0.5,4.7,2.9,5.7,0.5
		c-2-0.6-3-2.2-5.2-2.6C63.3,213,62.8,213.3,63,214.4z M230,216.5c1.2,1.4,4.1,2.1,6.2,1c-0.1-2.2,0.8-2.5,0-4.2
		c-2.3,0.2-4-0.1-5.2-1C230.6,213.6,230.2,214.9,230,216.5z M105.1,213.4c2.2,2.2,3.7,4.9,8.3,4.7c-0.5-1.9,0.9-2.8,0-3.6
		C110,217.1,107.1,213.3,105.1,213.4z M61.9,216.5c0.2,2.1,5.1,3.9,7.3,5.7c0.3-1.5,0.8-2.7,1-4.2C66,219.2,64.4,215.5,61.9,216.5z
		 M105.1,219.1c2.9,0.5,2.1-2.2,0-2.1C105.1,217.7,105.1,218.4,105.1,219.1z M194.1,222.2c0.1,1.3-0.8,1.6-1.6,2.1
		c-3.3,0.4-4.1-1.8-6.8-2.1c-0.5,0.9-1.5,1.3-1,3.1c3.1,0.4,5.3,1.6,7.8,2.6c1.4-3.2,3.6-5.4,4.2-9.4c-3.4,0.2-5.7,0.8-8.3-0.5
		C188.2,221.6,192,221.1,194.1,222.2z M59.9,223.8c2.8,1.2,5.5,2.5,7.8,4.2c-0.3-4.7-3.8-6.3-7.3-7.8
		C60.2,221.4,59.6,222.1,59.9,223.8z M104.6,223.8c3.2-0.4,5.1,0.4,7.3,1c-0.4-2,0.6-2.5,0.5-4.2
		C107.8,221.3,104.7,218.1,104.6,223.8z M229.5,224.3c2.5,1.8,7.7,2.3,7.3-2.6c-2-0.2-4.9,0-6.8-1.6
		C230.1,221.8,229.1,222.3,229.5,224.3z M56.7,229c2.4,1.9,6.3,2.3,9.4,3.6c-1-4-5.1-4.9-7.8-7.3C57.9,226.6,56.9,227.4,56.7,229z
		 M103.6,227.9c3.2-0.4,5.1,0.4,7.3,1c-0.4-3.3-3.8-2.1-7.3-3.1C103.6,226.6,103.6,227.3,103.6,227.9z M224.8,243.6
		c3.8,1.1,5.5,3.4,10.4,2.1c-3.6-7.5,2.4-11.2,1-18.2c-2.2,1.7-6,1-7.8-0.5C228.8,233.5,227.9,238.3,224.8,243.6z M181.6,228.5
		c-1.4,2.6,2.5,2.6,2.6,5.2c-2.2,0.2-4-1.8-5.7-0.5c0,2.2,2.6,1.9,2.6,4.2c-2.4,0.3-3-1.2-5.2-1c-2.8,2-5.7,4-8.8,5.7
		c3.9,2.2,6.8,5.3,11.4,6.8c0-7.3,7.3-7.3,9.4-12.5c-1.7,0.3-4.4-1.1-2.6-2.6c2.2-0.5,1.5,2,3.1,2.1c0.4-2.2,2-3.2,2.6-5.2
		C189.3,228.7,183.8,228.2,181.6,228.5z M102.5,233.1c3.1-0.3,5,0.6,6.8,1.6c0.5-0.7,0.5-1.9,1-2.6c-2.8-0.5-4.8-1.8-7.3-2.6
		C103.5,231.3,102.3,231.5,102.5,233.1z M53.1,236.8c2.8-1.2,3.4,0.5,5.7,1C58.9,233.3,53.1,230.3,53.1,236.8z M64.5,237.3
		c0.1-0.4,0-1,0.5-1c-0.3-2.1-2.8-2-4.7-2.6C60.9,235.7,61.7,237.6,64.5,237.3z M102,236.3c0,0.5,0,1,0,1.6c1.8,1.3,3.8,2.4,6.8,2.6
		c0.5-1.5,0.5-2.2,0-3.6C105.9,237.4,104.2,234.7,102,236.3z M43.7,247.7c1.8,2,4.7,2.9,7.8,3.6c0.8-4.7,5.3-5.8,6.8-9.9
		c-2.2-1.1-3.4-3.2-6.2-3.6C50.3,242.2,46.1,244.1,43.7,247.7z M99.4,244.1c4.3-1.2,7.1,1.3,9.9,3.1c0.2-1.8-0.2-2.9-0.5-4.2
		c-4.5,2.2-4.6-2.5-8.8-2.1C100.3,242.5,99,242.5,99.4,244.1z M92.1,258.6c3.2,2.2,4.3,3.6,9.4,3.6c0.2-3.7,2.2-5.8,3.1-8.8
		c-1.2-1.5-3.6-1.9-3.6-4.7c2.9,0.1,4.4,3,7.3,1.6c-2.1-3.1-5.7-5.1-9.4-5.2C100.3,250.7,94.8,254.2,92.1,258.6z"/>
	<path fill="#FFFFFF" d="M4.2,86.4c-2.3-8.7-2-14.8,1.6-21.9c1.1-2.2,2.6-4,3.6-6.2c2.8-6,6.2-13.9,9.4-19.8
		c-0.9-1.4-2.2,1.2-3.1,1.6c-0.3-1.7-1.6-6.1-0.5-9.4c3-1.5,5.4-3.6,6.8-6.8c0.8,3.1-3.4,5.6-5.2,7.8c-0.2,2.3,1.4,2.8,2.1,4.2
		c1.9-3.5,3.2-7.6,5.2-10.9c1.5,3.5-3.3,7.7-1.6,11.4c4.5,0,2-7,4.2-9.4c0.6,1,0.6,5.7,0.5,8.8c-9.2,7.8-11,21.6-16.7,31.7
		c3.8-1.4,4.8-5.6,5.7-9.9c3.7-7.6,7-15.5,13-20.8c-0.9-4.5,0.6-11,1-15.6c1,3.9,2.7,9.8,0,13.5c-0.3,2.5,4.6,3.8,5.7,1.6
		c-3.5-4-1.9-10.5-3.1-16.1c3.8-0.3,3.4,3.6,5.7,4.7c-0.4-6-7.7-11.5-2.6-19.3c5.7,3.6,11.9,9,9.4,17.7c1.9-0.2,0.8-3.3,3.6-2.6
		c2.3,4,1,7.7,0,11.4c-2.6,9.9-0.7,22.1-3.1,32.3c-4.6-3.8,2.3-12.8-1-18.2c0.3-4.5,4-9.2,2.1-15.6c-3.5,9.6-4,24-3.6,35.4
		c-0.7,1.4-0.3,3.9-2.1,4.2c0.1-2.2,1.1-3.8-0.5-5.2c-2.3,1.8,0.1,8.4-4.2,8.3c-0.9-7.1,3.5-8.4,3.6-15.6
		c-3.4-4.1-10.3-1.9-15.1-0.5c0.9,4.7,8.3-0.1,11.4,2.1c0.7,2.1-0.7,6.1-1.6,8.3c0.4,1.9-0.9,1.9-0.5,0c0.6-3.3-1-4.6-2.1-6.2
		c-4.9,0-10.3-2.9-12,1.6c2,3.2,7.6,0.6,11.5,1c0.9,1.2-0.2,4.3,1,6.2c-1.5,1.5-5.5-3.5-9.4-1.6c-1.6-0.3-2.9-0.9-4.2-1.6
		c-2.4,7,7.6,2.1,9.4,5.2c-0.2,1.4-2.7,0.5-3.1,1.6c0.1,1.9,1.6,2.6,2.1,4.2c-1.3,1.4-2-4.2-4.7-1.6c-0.3,2.4,2.8,1.4,2.6,3.6
		C22.4,85.1,20,95.2,11.5,90c6-1.5,9.4-5.5,11.4-10.9c-3.1-0.1-4.7,5.7-6.8,8.3C9.9,87.8,9.4,88,4.2,86.4z M17.7,60.4
		c2.9-6.7,8.3-13.6,9.9-19.8C22.3,44.8,19.1,54,17.7,60.4z M42.2,18.7c-0.1-3.7-1-6.7-4.2-7.3C35.6,14.2,38.9,18.4,42.2,18.7z
		 M40.1,35.9c1.3-1.5-1.9-2-1.6-4.2c0.7-2.2,0.3-5.7-2.1-4.2C36.9,30.7,35.9,35.4,40.1,35.9z M43.7,36.4c0.7-1.2,1.3-9.1-2.1-7.3
		C43.5,31.6,40.1,36.1,43.7,36.4z M12,57.8c-1.7,1.5-4.7,6.9-3.6,7.8c6.5-7.1,8.3-18.7,13.5-27.1c-0.1-0.6-0.6-0.8-1-1
		C17.6,44,13.9,50,12,57.8z M30.2,44.8c1.6,1,4,1.2,6.8,1c1-2.2,5.5-5.6,3.6-7.3C37.6,40.5,27.7,36.9,30.2,44.8z M26.5,49.4
		c-1.1,2.9-4,4-4.7,7.3c2.6-1.7,6-4.3,10.4-2.6c1.8-3.8,10.6-6,8.8-9.9C38.4,48.2,33.5,51.3,26.5,49.4z M36.4,51.5
		c1.5,2.5,4.6,3.4,5.7,6.2c1.7-2.7,0.1-4.5-1-6.8C39.2,50.8,37.7,51.1,36.4,51.5z M10.9,80.7c3.4-0.3,5.2-2.1,5.2-5.7
		C12.2,74.4,9.1,77.2,10.9,80.7z"/>
	<path fill="#FFFFFF" d="M59.9,90.6c1.2-0.5,3.1-0.3,4.2-1c3.6-4,8.8-3.1,13-6.2c7-3.9,4.4-13.3,6.8-21.3c1.5-5.1,7.2-10.8,3.6-16.1
		c2.3-2.6,3.8-5.9,5.2-9.4c7.1,2.9,1.8,8.1,1,14.1c-3.1,0.3-1.9-3.6-4.2-4.2c5.4,10.9-5.6,16.7-3.6,27.1c-0.2,0.8-0.5-0.1-1,0
		C84,84,67.6,103.3,59.9,90.6z"/>
	<path fill="#FFFFFF" d="M103,154c-0.3-3.9,4.4-2.9,5.2-5.7c6.2,1.2,10-6.8,17.7-2.6c1.7,0.9,1.2,4,4.2,3.6c0,1.6,0,3.2-1.6,3.1
		c1.1-1.9-0.2-2.3-1-3.6C116.7,144.1,111.3,155.8,103,154z"/>
	<path fill="#FFFFFF" d="M200.4,163.9c1.4-2.9,4.3-4.4,7.8-5.2c0.9,1.6-1.9,2.1-0.5,2.6C206,161.4,203.9,164.2,200.4,163.9z"/>
	<path fill="#FFFFFF" d="M79.1,174.9c2.2-2.2,5.1,3,8.3,3.1c-0.1,1.6-1.1,2.3-1.6,3.6c-2.1,0-2.7-4.2-4.2-3.1
		C81.6,177.7,81.1,175.2,79.1,174.9z"/>
	<path fill="#FFFFFF" d="M120.7,182.1c0.5,4.3-8.2-0.3-9.9,1.6c-0.5,2,1.3,1.9,1.6,3.1c2.5-1.8,2.6-0.8,6.2-0.5
		c0.4,1.6-0.5,1.9-0.5,3.1c-5.6,0-7.5-3.6-13-3.6c0-0.9,0-1.7,0-2.6c4.8-0.6,10.7-4.4,14.6,0C120.2,183,120.6,182.7,120.7,182.1z"/>
	<path fill="#FFFFFF" d="M66.6,195.7c0.4-1.6-0.1-2.1,0.5-2.6c0.8,2.5,4.8,1.8,5.7,4.2C70.9,196.6,69.7,195.2,66.6,195.7z"/>
	<path d="M38,11.4c3.2,0.6,4,3.6,4.2,7.3C38.9,18.4,35.6,14.2,38,11.4z"/>
	<path d="M40.6,38.5c1.9,1.7-2.7,5.1-3.6,7.3c-2.8,0.1-5.2,0-6.8-1C27.7,36.9,37.6,40.5,40.6,38.5z"/>
	<path d="M41.1,51c1.1,2.3,2.7,4.1,1,6.8c-1.2-2.8-4.2-3.8-5.7-6.2C37.7,51.1,39.2,50.8,41.1,51z"/>
</g>
</svg>
