<svg xmlns="http://www.w3.org/2000/svg" viewBox="0 0 725.71 379.57"><defs><linearGradient id="a" y2="593.03" gradientUnits="userSpaceOnUse" x2="500.39" y1="412.56" x1="449.36"><stop stop-color="#b3defd" offset="0"/><stop stop-color="#ededed" offset="1"/></linearGradient><linearGradient id="b" y2="607.97" gradientUnits="userSpaceOnUse" x2="-2.483" gradientTransform="translate(64.728 12.448)" y1="434.96" x1="-18.671"><stop stop-color="#b3defd" offset="0"/><stop stop-color="#ededed" offset="1"/></linearGradient></defs><path d="M345.55 0c-136.6 0-247.31 99.507-247.31 222.25 0 6.67.328 13.261.969 19.781h492.69c.64-6.521 1-13.111 1-19.781 0-122.74-110.75-222.25-247.34-222.25z" fill="#60c"/><path d="M346.43 28.16c-120.07 0-217.41 90.24-217.41 201.56 0 4.137.173 8.238.438 12.312h433.97c.265-4.074.406-8.176.406-12.312-.01-111.32-97.34-201.56-217.41-201.56z" fill="#d40000"/><path d="M347.77 68.66c-94.291 0-171.91 75.916-181.62 173.38h363.22c-9.72-97.46-87.31-173.38-181.6-173.38z" fill="#f44800"/><path d="M341.18 112.69c-1.295.011-2.605.05-3.906.094-74.889 2.504-134.47 58.358-142.97 129.25h299.41c-10.67-73.85-75.82-129.99-152.53-129.34z" fill="#fdca01"/><path d="M347.02 157.6c-.992.008-1.972.031-2.969.063-53.454 1.712-96.743 37.425-107.66 84.375h225.31c-12.608-48.937-59.776-84.883-114.69-84.438z" fill="#ff0"/><path d="M343.65 199.35c-.754.006-1.523.007-2.281.031-31.979 1.024-59.161 18.054-73.344 42.656h153.78c-15.506-25.759-44.97-42.957-78.156-42.688z" fill="#390"/><path d="M543.17 155.55c-50.337 0-91.772 25.723-97.16 58.795-.952-.016-1.906-.028-2.866-.028-47.442 0-85.894 19.978-85.894 44.636 0 24.173 36.96 43.872 83.114 44.636-1.86 3.246-2.866 6.658-2.866 10.187 0 21.224 35.927 38.421 80.248 38.421 34.392 0 63.72-10.356 75.14-24.914 11.024 3.611 23.98 5.704 37.882 5.704 39.951 0 72.359-17.197 72.359-38.421 0-6.373-2.947-12.387-8.116-17.678 18.764-8.604 30.703-21.527 30.703-36.009 0-25.906-38.197-46.906-85.327-46.906-2.791 0-5.536.055-8.257.199-15.431-22.791-49.47-38.62-88.959-38.62z" fill="url(#a)"/><path d="M383.89 202.85c-33.162 0-60.459 17.419-64.009 39.815-.627-.011-1.256-.019-1.888-.019-31.255 0-56.587 13.529-56.587 30.226 0 16.37 24.349 29.709 54.755 30.226-1.226 2.198-1.888 4.508-1.888 6.898 0 14.372 23.668 26.018 52.867 26.018 22.657 0 41.979-7.013 49.502-16.871 7.263 2.445 15.798 3.862 24.957 3.862 26.32 0 47.67-11.645 47.67-26.018 0-4.316-1.942-8.388-5.346-11.971 12.361-5.827 20.227-14.578 20.227-24.384 0-17.543-25.164-31.763-56.213-31.763-1.838 0-3.647.037-5.44.135-10.166-15.434-32.591-26.152-58.606-26.152z" fill="#eee"/><path d="M185.923 182.93c-50.337 0-91.772 25.723-97.16 58.795-.952-.016-1.906-.028-2.866-.028-47.442 0-85.894 19.978-85.894 44.636 0 24.173 36.96 43.872 83.114 44.636-1.86 3.246-2.866 6.658-2.866 10.187 0 21.224 35.927 38.421 80.248 38.421 34.392 0 63.72-10.356 75.14-24.914 11.024 3.611 23.98 5.704 37.882 5.704 39.951 0 72.359-17.197 72.359-38.421 0-6.373-2.947-12.387-8.116-17.678 18.764-8.604 30.703-21.527 30.703-36.009 0-25.906-38.197-46.906-85.327-46.906-2.791 0-5.536.055-8.257.199-15.431-22.791-49.47-38.62-88.959-38.62z" fill="url(#b)"/><path fill="#000080" d="M123.645 251.77c-12.198 0-22.556 8.169-26.222 19.531h9.273c2.33-5.68 8.89-9.75 16.64-9.75 7.749 0 14.335 4.07 16.666 9.75h9.84c-3.667-11.36-13.999-19.53-26.197-19.53zM225.62 251.77c-12.198 0-22.556 8.169-26.222 19.531h9.273c2.33-5.68 8.89-9.75 16.64-9.75 7.749 0 14.335 4.07 16.666 9.75h9.84c-3.666-11.362-13.998-19.531-26.196-19.531zM150.349 295.05c1.477 7.864 12.87 13.969 26.719 13.969s25.241-6.105 26.719-13.969h-53.438zM538.37 255.83c-11.383 4.382-23.985.479-31.488-8.808l8.654-3.331c4.215 4.464 11.799 5.905 19.032 3.122 7.232-2.784 11.916-8.948 12.051-15.086l9.183-3.535c.661 11.921-6.048 23.256-17.431 27.638zM613.24 235c-11.56 3.9-23.99-.53-31.09-10.12l8.786-2.966c4.024 4.636 11.542 6.395 18.884 3.916 7.342-2.478 12.281-8.441 12.672-14.568l9.323-3.147c.161 11.938-7.017 22.982-18.574 26.883z"/><path d="M595.81 269.56a11.525 15.018 0 1 1-23.05 0 11.525 15.018 0 1 1 23.05 0z" fill="#000080" transform="translate(121.99 -240.84) translate(-117.05 249.73)"/></svg>