<?xml version="1.0" encoding="UTF-8" standalone="no"?>
<!-- Created with Inkscape (http://www.inkscape.org/) -->
<svg xmlns:rdf="http://www.w3.org/1999/02/22-rdf-syntax-ns#" xmlns="http://www.w3.org/2000/svg" xmlns:cc="http://web.resource.org/cc/" xmlns:dc="http://purl.org/dc/elements/1.1/" xmlns:svg="http://www.w3.org/2000/svg" xmlns:inkscape="http://www.inkscape.org/namespaces/inkscape" xmlns:sodipodi="http://sodipodi.sourceforge.net/DTD/sodipodi-0.dtd" xmlns:ns1="http://sozi.baierouge.fr" xmlns:xlink="http://www.w3.org/1999/xlink" id="svg2" viewBox="0 0 300.46 353.44" version="1.0" inkscape:version="0.91 r13725">
  <g id="layer1" transform="translate(-215.23 -337.26)">
    <path id="path3254" style="fill-rule:evenodd;stroke:#000000;stroke-width:4;fill:#803300" d="m336 686.86h-113c-9 0-7.03-7.88 2.89-10.79 9.53-2.8 47.32-9.57 70.61-12.21 26.5-3 59-5.5 59-5.5l-19.5 28.5z"/>
    <path id="path3256" style="fill-rule:evenodd;fill:#000000;fill-opacity:.31373" d="m344.19 674.91c-11.95 0.17-29.18 0.5-45.1 1.18-23.41 1.01-61.58 5.13-71.28 7.25-3.16 0.69-5.6 1.9-7.15 3.28 0.67 0.15 1.45 0.26 2.34 0.26h113l8.19-11.97z"/>
    <path id="path2385" style="stroke-linejoin:round;stroke:#000000;stroke-linecap:round;stroke-width:4;fill:#803300" d="m513.69 561.96a121.5 121.5 0 1 1 -243 0 121.5 121.5 0 1 1 243 0z"/>
    <path id="path3276" style="fill:#000000;fill-opacity:.31373" d="m392.19 440.47c-12.93 0-25.38 2.04-37.07 5.78 10.52-2.46 21.61-3.78 33.07-3.78 31.44 0 60.11 9.88 81.69 26.09-21.07-17.54-48.16-28.09-77.69-28.09zm115.06 82.37c1.59 6.49 2.44 13.19 2.44 20.07 0 55.44-54.44 100.43-121.5 100.43-56.09 0-103.31-31.46-117.28-74.18 3.72 63.72 56.62 114.31 121.28 114.31 67.06 0 121.5-54.43 121.5-121.5 0-13.68-2.26-26.85-6.44-39.13z"/>
    <path id="path3236" style="fill:#000000;fill-opacity:.31373" d="m392.19 440.47c-20.72 0-40.24 5.18-57.31 14.34 8.08 28.25 31.71 54.38 59.62 54.38 27.17 0 50.32-24.75 59-52.13-18-10.55-38.96-16.59-61.31-16.59z"/>
    <path id="path2387" style="stroke-linejoin:round;stroke:#000000;stroke-linecap:round;stroke-width:4;fill:#803300" d="m308.22 339.28c-4.13 0-7.07 0.6-7.94 1.72-3.75 4.87 6.14 50.45 32.1 52.25 1.67 0.12 3.24 0.12 4.71 0.09-4.6 8.72-7.21 18.65-7.21 29.19 0 34.58 28.04 74.64 62.62 74.65 34.58 0 62.66-40.07 62.66-74.65 0-10.53-2.63-20.44-7.22-29.15 1.06-0.01 2.18-0.05 3.34-0.13 25.95-1.8 35.85-47.38 32.1-52.25-3.97-5.14-51.2 0.41-57.91 26.44-0.08 0.16-0.24 0.73-0.41 1.59-9.49-5.79-20.63-9.15-32.56-9.15-12.45 0-24.03 3.67-33.78 9.93-0.2-1.27-0.43-2.17-0.53-2.37-5.25-20.34-35.22-28.15-49.97-28.16z"/>
    <path id="path3242" style="fill:#000000;fill-opacity:.31373" d="m440.04 422.84a49.103 49.103 0 1 1 -98.21 0 49.103 49.103 0 1 1 98.21 0z" transform="matrix(.46795 0 0 .46795 176.85 345.79)"/>
    <path id="path3159" style="stroke-linejoin:round;stroke:#000000;stroke-linecap:round;stroke-width:8.5479;fill:#803300" d="m440.04 422.84a49.103 49.103 0 1 1 -98.21 0 49.103 49.103 0 1 1 98.21 0z" transform="matrix(.46795 0 0 .46795 173.06 341.12)"/>
    <path id="path3244" style="fill:#000000;fill-opacity:.31373" d="m440.04 422.84a49.103 49.103 0 1 1 -98.21 0 49.103 49.103 0 1 1 98.21 0z" transform="matrix(.46795 0 0 .46795 247.91 346.14)"/>
    <path id="path3161" style="stroke-linejoin:round;stroke:#000000;stroke-linecap:round;stroke-width:8.5479;fill:#803300" d="m440.04 422.84a49.103 49.103 0 1 1 -98.21 0 49.103 49.103 0 1 1 98.21 0z" transform="matrix(.46795 0 0 .46795 244.19 341.12)"/>
    <path id="path3163" style="stroke-linejoin:round;stroke:#000000;stroke-linecap:round;stroke-width:4;fill:#803300" d="m451.06 614.22c-30.4 0-55.09 24.69-55.09 55.09 0 6.29 1.06 12.31 3 17.94h104.15c1.95-5.63 3-11.65 3-17.94 0-30.4-24.65-55.09-55.06-55.09z"/>
    <path id="path3165" style="stroke-linejoin:round;stroke:#000000;stroke-linecap:round;stroke-width:4;fill:#803300" d="m340.88 614.22c-30.41 0-55.07 24.69-55.07 55.09 0 6.29 1.06 12.31 3 17.94h104.16c1.94-5.63 3-11.65 3-17.94 0-30.4-24.69-55.09-55.09-55.09z"/>
    <path id="path3177" style="stroke-linejoin:round;stroke:#000000;stroke-linecap:round;stroke-width:1.8462;fill:#ffffff" d="m371.42 413.4a9.4428 9.4428 0 1 1 -18.89 0 9.4428 9.4428 0 1 1 18.89 0z" transform="matrix(2.1667 0 0 2.1667 -414.44 -478.21)"/>
    <path id="path3179" style="stroke-linejoin:round;stroke:#000000;stroke-linecap:round;stroke-width:1.8462;fill:#ffffff" d="m371.42 413.4a9.4428 9.4428 0 1 1 -18.89 0 9.4428 9.4428 0 1 1 18.89 0z" transform="matrix(2.1667 0 0 2.1667 -369.11 -478.21)"/>
    <path id="path3181" style="fill:#000000" d="m377.08 426.93a6.61 6.61 0 1 1 -13.22 0 6.61 6.61 0 1 1 13.22 0z" transform="translate(6.9067 -6.9247)"/>
    <path id="path3183" style="fill:#000000" d="m377.08 426.93a6.61 6.61 0 1 1 -13.22 0 6.61 6.61 0 1 1 13.22 0z" transform="translate(37.142 -6.9247)"/>
    <path id="path3192" style="fill-rule:evenodd;fill:#000000" d="m381.93 456.77c3.34-3.56 17.51-4.34 20.48 0.44 2.96 4.78-4.46 14.69-10.24 14.25-5.77-0.45-13.36-11.36-10.24-14.69z"/>
    <path id="path3194" style="fill-rule:evenodd;fill-opacity:.31373;stroke:#000000;stroke-linecap:round;stroke-width:4;fill:#000000" d="m359.46 583.37c34.62 18.88 65.47-1.26 65.47-1.26"/>
    <path id="path3216" style="stroke-linejoin:round;fill-rule:evenodd;stroke:#000000;stroke-width:4;fill:#552200" d="m344.66 384.13c-2.2-31.8-34.94-39.04-36.51-35.26s5.98 46.27 36.51 35.26z"/>
    <path id="path3218" style="stroke-linejoin:round;fill-rule:evenodd;stroke:#000000;stroke-width:4;fill:#552200" d="m437.95 384.13c2.2-31.8 34.94-39.04 36.51-35.26 1.58 3.78-5.98 46.27-36.51 35.26z"/>
    <path id="path3220" style="stroke-linejoin:round;stroke:#000000;stroke-linecap:round;stroke-width:4;fill:#552200" d="m354 671.86a17.5 17.5 0 1 1 -35 0 17.5 17.5 0 1 1 35 0z" transform="matrix(.84286 0 0 1 37.629 -.5)"/>
    <path id="path3224" style="stroke-linejoin:round;stroke:#000000;stroke-linecap:round;stroke-width:4;fill:#552200" d="m354 671.86a17.5 17.5 0 1 1 -35 0 17.5 17.5 0 1 1 35 0z" transform="matrix(.84286 0 0 1 74.629 -.5)"/>
    <path id="path3222" style="stroke-linejoin:round;stroke:#000000;stroke-linecap:round;stroke-width:4;fill:#552200" d="m354 671.86a17.5 17.5 0 1 1 -35 0 17.5 17.5 0 1 1 35 0z" transform="matrix(.84286 0 0 1 57.129 -.5)"/>
    <path id="path3226" style="stroke-linejoin:round;stroke:#000000;stroke-linecap:round;stroke-width:4;fill:#552200" d="m354 671.86a17.5 17.5 0 1 1 -35 0 17.5 17.5 0 1 1 35 0z" transform="matrix(.84286 0 0 1 151.13 -.5)"/>
    <path id="path3228" style="stroke-linejoin:round;stroke:#000000;stroke-linecap:round;stroke-width:4;fill:#552200" d="m354 671.86a17.5 17.5 0 1 1 -35 0 17.5 17.5 0 1 1 35 0z" transform="matrix(.84286 0 0 1 188.13 -.5)"/>
    <path id="path3230" style="stroke-linejoin:round;stroke:#000000;stroke-linecap:round;stroke-width:4;fill:#552200" d="m354 671.86a17.5 17.5 0 1 1 -35 0 17.5 17.5 0 1 1 35 0z" transform="matrix(.84286 0 0 1 170.63 -.5)"/>
    <path id="path3246" style="fill:#000000;fill-opacity:.31373" d="m450.22 398.28c1.14 4.72 1.75 9.66 1.75 14.72 0 34.58-28.08 74.62-62.66 74.62-25.2 0-46.91-21.28-56.84-46.21 7.69 28.78 31.66 55.78 60.03 55.78 34.58 0 62.66-40.08 62.66-74.66 0-8.6-1.76-16.79-4.91-24.25h-0.03z"/>
    <path id="path3264" style="stroke-linejoin:round;stroke:#000000;stroke-linecap:round;stroke-width:7.6177;fill:#552200" d="m354 671.86a17.5 17.5 0 1 1 -35 0 17.5 17.5 0 1 1 35 0z" transform="matrix(.39134 -.22594 .25714 .44538 48.209 328.11)"/>
    <path id="path3266" style="stroke-linejoin:round;stroke:#000000;stroke-linecap:round;stroke-width:7.6177;fill:#552200" d="m354 671.86a17.5 17.5 0 1 1 -35 0 17.5 17.5 0 1 1 35 0z" transform="matrix(.39134 -.22594 .25714 .44538 65.388 318.2)"/>
    <path id="path3268" style="stroke-linejoin:round;stroke:#000000;stroke-linecap:round;stroke-width:7.6177;fill:#552200" d="m354 671.86a17.5 17.5 0 1 1 -35 0 17.5 17.5 0 1 1 35 0z" transform="matrix(.39134 -.22594 .25714 .44538 59.263 327.39)"/>
    <path id="path3270" style="stroke-linejoin:round;stroke:#000000;stroke-linecap:round;stroke-width:7.6177;fill:#552200" d="m354 671.86a17.5 17.5 0 1 1 -35 0 17.5 17.5 0 1 1 35 0z" transform="matrix(-.39134 -.22594 -.25714 .44538 735.79 328.11)"/>
    <path id="path3272" style="stroke-linejoin:round;stroke:#000000;stroke-linecap:round;stroke-width:7.6177;fill:#552200" d="m354 671.86a17.5 17.5 0 1 1 -35 0 17.5 17.5 0 1 1 35 0z" transform="matrix(-.39134 -.22594 -.25714 .44538 718.61 318.2)"/>
    <path id="path3274" style="stroke-linejoin:round;stroke:#000000;stroke-linecap:round;stroke-width:7.6177;fill:#552200" d="m354 671.86a17.5 17.5 0 1 1 -35 0 17.5 17.5 0 1 1 35 0z" transform="matrix(-.39134 -.22594 -.25714 .44538 724.74 327.39)"/>
  </g>
  <metadata>
    <rdf:RDF>
      <cc:Work>
        <dc:format>image/svg+xml</dc:format>
        <dc:type rdf:resource="http://purl.org/dc/dcmitype/StillImage"/>
        <cc:license rdf:resource="http://creativecommons.org/licenses/publicdomain/"/>
        <dc:publisher>
          <cc:Agent rdf:about="http://openclipart.org/">
            <dc:title>Openclipart</dc:title>
          </cc:Agent>
        </dc:publisher>
        <dc:title>Cartoon kangaroo</dc:title>
        <dc:date>2008-07-05T17:51:51</dc:date>
        <dc:description/>
        <dc:source>https://openclipart.org/detail/17575/cartoon-kangaroo-by-lemmling</dc:source>
        <dc:creator>
          <cc:Agent>
            <dc:title>lemmling</dc:title>
          </cc:Agent>
        </dc:creator>
        <dc:subject>
          <rdf:Bag>
            <rdf:li>animal</rdf:li>
            <rdf:li>cartoon</rdf:li>
            <rdf:li>colour</rdf:li>
            <rdf:li>funny</rdf:li>
            <rdf:li>how i did it</rdf:li>
            <rdf:li>kangaroo</rdf:li>
            <rdf:li>mammal</rdf:li>
          </rdf:Bag>
        </dc:subject>
      </cc:Work>
      <cc:License rdf:about="http://creativecommons.org/licenses/publicdomain/">
        <cc:permits rdf:resource="http://creativecommons.org/ns#Reproduction"/>
        <cc:permits rdf:resource="http://creativecommons.org/ns#Distribution"/>
        <cc:permits rdf:resource="http://creativecommons.org/ns#DerivativeWorks"/>
      </cc:License>
    </rdf:RDF>
  </metadata>
</svg>
