<?xml version="1.0" encoding="UTF-8" standalone="no"?>
<!-- Created with Inkscape (http://www.inkscape.org/) -->
<svg xmlns:rdf="http://www.w3.org/1999/02/22-rdf-syntax-ns#" xmlns="http://www.w3.org/2000/svg" xmlns:cc="http://web.resource.org/cc/" xmlns:dc="http://purl.org/dc/elements/1.1/" xmlns:svg="http://www.w3.org/2000/svg" xmlns:inkscape="http://www.inkscape.org/namespaces/inkscape" xmlns:sodipodi="http://sodipodi.sourceforge.net/DTD/sodipodi-0.dtd" xmlns:ns1="http://sozi.baierouge.fr" xmlns:xlink="http://www.w3.org/1999/xlink" id="svg2" viewBox="0 0 247 333.56" version="1.0" inkscape:version="0.91 r13725">
  <g id="layer1" transform="translate(-241.96 -357.14)">
    <path id="path2385" style="stroke-linejoin:round;stroke:#000000;stroke-linecap:round;stroke-width:4;fill:#784421" d="m513.69 561.96a121.5 121.5 0 1 1 -243 0 121.5 121.5 0 1 1 243 0z" transform="translate(-26.731)"/>
    <path id="path3302" style="fill:#000000;fill-opacity:.31373" d="m150.22 103.22c-24.51 0-47.32 7.25-66.408 19.75 8.652 30.48 36.668 52.84 69.908 52.84 31.77 0 58.8-20.42 68.69-48.84-20.19-14.94-45.17-23.75-72.19-23.75z" transform="translate(215.23 337.26)"/>
    <path id="path3242" style="fill:#000000;fill-opacity:.31373" d="m440.04 422.84a49.103 49.103 0 1 1 -98.21 0 49.103 49.103 0 1 1 98.21 0z" transform="matrix(.46795 0 0 .46795 153.39 345.79)"/>
    <path id="path3310" style="stroke-linejoin:round;stroke:#000000;stroke-width:4;fill:#b7bec8" d="m379.99 531.79c-9.67-16.76-27.33-24.67-31.64-22.18-4.7 2.71-6.26 21.72 3.42 38.48 7.49 12.98 17.68 21.89 25.52 23.15-3.89 5.56-4.03 14.09 0.27 21.53 1.65 2.86 3.75 5.23 6.12 7.04-0.91-6.98 1.61-13.56 7.09-16.72 5.48-3.17 12.44-2.06 18.03 2.22-0.38-2.96-1.36-5.97-3.01-8.84-4.3-7.44-11.77-11.58-18.54-10.98 2.83-7.42 0.24-20.71-7.26-33.7z"/>
    <path id="path3276" style="fill:#000000;fill-opacity:.31373" d="m365.46 440.47c-12.93 0-25.38 2.04-37.07 5.78 10.52-2.46 21.61-3.78 33.07-3.78 31.43 0 60.1 9.88 81.68 26.09-21.06-17.54-48.15-28.09-77.68-28.09zm115.06 82.37c1.59 6.49 2.44 13.19 2.44 20.07 0 55.44-54.44 100.43-121.5 100.43-56.09 0-103.31-31.46-117.28-74.18 3.72 63.72 56.62 114.31 121.28 114.31 67.06 0 121.5-54.43 121.5-121.5 0-13.68-2.26-26.85-6.44-39.13z"/>
    <path id="path2479" style="stroke-linejoin:round;stroke:#000000;stroke-linecap:round;stroke-width:4;fill:#784421" d="m97.562 21.875c-11.055 0-20.031 8.976-20.031 20.031 0 7.155 3.758 13.426 9.407 16.969-5.972 10.554-9.407 22.735-9.407 35.719 0 40.136 32.549 72.716 72.689 72.716 40.13 0 72.72-32.58 72.72-72.716 0-12.984-3.44-25.165-9.41-35.719 5.64-3.545 9.41-9.824 9.41-16.969 0-11.055-8.98-20.031-20.03-20.031-7.15 0-13.4 3.771-16.94 9.406-10.56-5.979-22.76-9.406-35.75-9.406s-25.16 3.43-35.72 9.406c-3.55-5.635-9.79-9.406-16.938-9.406z" transform="translate(215.23 337.26)"/>
    <path id="path3163" style="stroke-linejoin:round;stroke:#000000;stroke-linecap:round;stroke-width:4;fill:#784421" d="m424.33 614.22c-30.4 0-55.09 24.69-55.09 55.09 0 6.29 1.06 12.31 3 17.94h104.15c1.95-5.63 3-11.65 3-17.94 0-30.4-24.65-55.09-55.06-55.09z"/>
    <path id="path3165" style="stroke-linejoin:round;stroke:#000000;stroke-linecap:round;stroke-width:4;fill:#784421" d="m314.14 614.22c-30.4 0-55.06 24.69-55.06 55.09 0 6.29 1.06 12.31 3 17.94h104.16c1.94-5.63 3-11.65 3-17.94 0-30.4-24.69-55.09-55.1-55.09z"/>
    <path id="path3177" style="stroke-linejoin:round;stroke:#000000;stroke-linecap:round;stroke-width:1.8462;fill:#ffffff" d="m371.42 413.4a9.4428 9.4428 0 1 1 -18.89 0 9.4428 9.4428 0 1 1 18.89 0z" transform="matrix(2.1667 0 0 2.1667 -441.17 -478.21)"/>
    <path id="path3179" style="stroke-linejoin:round;stroke:#000000;stroke-linecap:round;stroke-width:1.8462;fill:#ffffff" d="m371.42 413.4a9.4428 9.4428 0 1 1 -18.89 0 9.4428 9.4428 0 1 1 18.89 0z" transform="matrix(2.1667 0 0 2.1667 -395.84 -478.21)"/>
    <path id="path3183" style="fill:#000000" d="m377.08 426.93a6.61 6.61 0 1 1 -13.22 0 6.61 6.61 0 1 1 13.22 0z" transform="translate(13.006 -5.5105)"/>
    <path id="path3192" style="fill-rule:evenodd;fill:#000000" d="m349.51 461.23c5.21-5.56 27.11-5.59 31.99 0.69 4.63 5.97-6.96 22.95-16 22.26-9.01-0.7-20.87-17.75-15.99-22.95z"/>
    <path id="path3220" style="stroke-linejoin:round;stroke:#000000;stroke-linecap:round;stroke-width:4;fill:#502d16" d="m354 671.86a17.5 17.5 0 1 1 -35 0 17.5 17.5 0 1 1 35 0z" transform="matrix(.84286 0 0 1 10.898 -.5)"/>
    <path id="path3224" style="stroke-linejoin:round;stroke:#000000;stroke-linecap:round;stroke-width:4;fill:#502d16" d="m354 671.86a17.5 17.5 0 1 1 -35 0 17.5 17.5 0 1 1 35 0z" transform="matrix(.84286 0 0 1 47.898 -.5)"/>
    <path id="path3222" style="stroke-linejoin:round;stroke:#000000;stroke-linecap:round;stroke-width:4;fill:#502d16" d="m354 671.86a17.5 17.5 0 1 1 -35 0 17.5 17.5 0 1 1 35 0z" transform="matrix(.84286 0 0 1 30.398 -.5)"/>
    <path id="path3226" style="stroke-linejoin:round;stroke:#000000;stroke-linecap:round;stroke-width:4;fill:#502d16" d="m354 671.86a17.5 17.5 0 1 1 -35 0 17.5 17.5 0 1 1 35 0z" transform="matrix(.84286 0 0 1 124.4 -.5)"/>
    <path id="path3228" style="stroke-linejoin:round;stroke:#000000;stroke-linecap:round;stroke-width:4;fill:#502d16" d="m354 671.86a17.5 17.5 0 1 1 -35 0 17.5 17.5 0 1 1 35 0z" transform="matrix(.84286 0 0 1 161.4 -.5)"/>
    <path id="path3230" style="stroke-linejoin:round;stroke:#000000;stroke-linecap:round;stroke-width:4;fill:#502d16" d="m354 671.86a17.5 17.5 0 1 1 -35 0 17.5 17.5 0 1 1 35 0z" transform="matrix(.84286 0 0 1 143.9 -.5)"/>
    <path id="path3348" style="fill:#000000;fill-opacity:.31373" d="m122.84 158.12c3.07 3.46 6.11 7.59 8.82 12.29 9.21 15.95 11.45 31.93 5 35.65-6.46 3.73-19.17-6.2-28.38-22.15-1.81-3.13-3.34-6.25-4.59-9.29 1.05 5.27 2.99 10.9 6.12 16.32 7.5 12.98 17.7 21.9 25.53 23.15-3.89 5.57-4.04 14.09 0.25 21.53 1.66 2.87 3.76 5.23 6.13 7.04-0.91-6.98 1.61-13.56 7.09-16.72s12.45-2.06 18.03 2.22c-0.38-2.96-1.37-5.95-3.03-8.82-4.29-7.44-11.76-11.59-18.53-11 2.83-7.41 0.25-20.7-7.25-33.68-4.15-7.19-9.78-12.72-15.19-16.54z" transform="translate(241.96 357.14)"/>
    <path id="path3244" style="fill:#000000;fill-opacity:.31373" d="m440.04 422.84a49.103 49.103 0 1 1 -98.21 0 49.103 49.103 0 1 1 98.21 0z" transform="matrix(.46795 0 0 .46795 217.45 346.14)"/>
    <path id="path3159" style="stroke-linejoin:round;stroke:#000000;stroke-linecap:round;stroke-width:8.5479;fill:#784421" d="m440.04 422.84a49.103 49.103 0 1 1 -98.21 0 49.103 49.103 0 1 1 98.21 0z" transform="matrix(.40526 -.23397 .23397 .40526 75.173 459.1)"/>
    <path id="path3161" style="stroke-linejoin:round;stroke:#000000;stroke-linecap:round;stroke-width:8.5479;fill:#784421" d="m440.04 422.84a49.103 49.103 0 1 1 -98.21 0 49.103 49.103 0 1 1 98.21 0z" transform="matrix(.40526 .23397 -.23397 .40526 337.18 276.16)"/>
    <path id="path3264" style="stroke-linejoin:round;stroke:#000000;stroke-linecap:round;stroke-width:7.6177;fill:#502d16" d="m354 671.86a17.5 17.5 0 1 1 -35 0 17.5 17.5 0 1 1 35 0z" transform="matrix(.22594 -.39134 .44538 .25714 -39.452 510.26)"/>
    <path id="path3266" style="stroke-linejoin:round;stroke:#000000;stroke-linecap:round;stroke-width:7.6177;fill:#502d16" d="m354 671.86a17.5 17.5 0 1 1 -35 0 17.5 17.5 0 1 1 35 0z" transform="matrix(.22594 -.39134 .44538 .25714 -29.533 493.08)"/>
    <path id="path3268" style="stroke-linejoin:round;stroke:#000000;stroke-linecap:round;stroke-width:7.6177;fill:#502d16" d="m354 671.86a17.5 17.5 0 1 1 -35 0 17.5 17.5 0 1 1 35 0z" transform="matrix(.22594 -.39134 .44538 .25714 -30.242 504.1)"/>
    <path id="path3270" style="stroke-linejoin:round;stroke:#000000;stroke-linecap:round;stroke-width:7.6177;fill:#502d16" d="m354 671.86a17.5 17.5 0 1 1 -35 0 17.5 17.5 0 1 1 35 0z" transform="matrix(-.22594 -.39134 -.44538 .25714 769.42 510.7)"/>
    <path id="path3272" style="stroke-linejoin:round;stroke:#000000;stroke-linecap:round;stroke-width:7.6177;fill:#502d16" d="m354 671.86a17.5 17.5 0 1 1 -35 0 17.5 17.5 0 1 1 35 0z" transform="matrix(-.22594 -.39134 -.44538 .25714 759.5 493.52)"/>
    <path id="path3274" style="stroke-linejoin:round;stroke:#000000;stroke-linecap:round;stroke-width:7.6177;fill:#502d16" d="m354 671.86a17.5 17.5 0 1 1 -35 0 17.5 17.5 0 1 1 35 0z" transform="matrix(-.22594 -.39134 -.44538 .25714 760.21 504.54)"/>
    <path id="path2483" style="stroke-linejoin:round;stroke:#000000;stroke-linecap:round;stroke-width:4;fill:#502d16" d="m418.38 367.64c-4.02 0-7.53 2.11-9.53 5.28 6.15 4.13 11.44 9.42 15.57 15.56 3.15-2 5.26-5.54 5.26-9.55 0-6.23-5.07-11.29-11.3-11.29z"/>
    <path id="path2515" style="fill:#000000" d="m377.08 426.93a6.61 6.61 0 1 1 -13.22 0 6.61 6.61 0 1 1 13.22 0z" transform="translate(-21.409 -5.5105)"/>
    <path id="path2523" style="stroke-linejoin:round;stroke:#000000;stroke-linecap:round;stroke-width:4;fill:#502d16" d="m312.75 367.64c4.01 0 7.52 2.11 9.52 5.28-6.14 4.13-11.43 9.42-15.57 15.56-3.15-2-5.25-5.54-5.25-9.55 0-6.23 5.06-11.29 11.3-11.29z"/>
    <path id="path2525" style="fill:#000000;fill-opacity:.31373" d="m217.81 67.812c0.74 4.152 1.13 8.418 1.13 12.782 0 40.136-32.59 72.716-72.72 72.716-30.64 0-56.84-19-67.532-45.84 6.082 34 35.792 59.84 71.532 59.84 40.13 0 72.72-32.58 72.72-72.716 0-9.463-1.83-18.491-5.13-26.782z" transform="translate(215.23 337.26)"/>
    <path id="path3346" style="fill:#000000" d="m121.75 165.81a3.5 3.5 0 1 1 -7 0 3.5 3.5 0 1 1 7 0z" transform="translate(240.7 356.91)"/>
  </g>
  <metadata>
    <rdf:RDF>
      <cc:Work>
        <dc:format>image/svg+xml</dc:format>
        <dc:type rdf:resource="http://purl.org/dc/dcmitype/StillImage"/>
        <cc:license rdf:resource="http://creativecommons.org/licenses/publicdomain/"/>
        <dc:publisher>
          <cc:Agent rdf:about="http://openclipart.org/">
            <dc:title>Openclipart</dc:title>
          </cc:Agent>
        </dc:publisher>
        <dc:title>Cartoon bear</dc:title>
        <dc:date>2008-07-11T09:24:41</dc:date>
        <dc:description/>
        <dc:source>https://openclipart.org/detail/17702/cartoon-bear-by-lemmling</dc:source>
        <dc:creator>
          <cc:Agent>
            <dc:title>lemmling</dc:title>
          </cc:Agent>
        </dc:creator>
        <dc:subject>
          <rdf:Bag>
            <rdf:li>animal</rdf:li>
            <rdf:li>bear</rdf:li>
            <rdf:li>cartoon</rdf:li>
            <rdf:li>colour</rdf:li>
            <rdf:li>how i did it</rdf:li>
            <rdf:li>mammal</rdf:li>
          </rdf:Bag>
        </dc:subject>
      </cc:Work>
      <cc:License rdf:about="http://creativecommons.org/licenses/publicdomain/">
        <cc:permits rdf:resource="http://creativecommons.org/ns#Reproduction"/>
        <cc:permits rdf:resource="http://creativecommons.org/ns#Distribution"/>
        <cc:permits rdf:resource="http://creativecommons.org/ns#DerivativeWorks"/>
      </cc:License>
    </rdf:RDF>
  </metadata>
</svg>
