<svg xmlns="http://www.w3.org/2000/svg" width="556.713" height="769.768"><path d="M479.044 123.471c-.635-.004-1.288.013-1.938.031-41.595 1.201-55.153 39.739-58.469 45.844 1.269 15.276 2.557 4.828 12.031 33.25 6.608 28.422-6.281 137-6.281 137s-5.159 19.089-10.031 26.063c-4.623 6.617-17.419 14.643-18.75 15.469-.489-3.915-3.257-15.325-18.813-27.781-19.232-15.401-283.125 4.594-283.125 4.594s-31.816 9.317-48.156 37.25l-25.219 62.469s-.689 28.961 15.469 41.281c-3.33 18.052-18.858 30.349-17.188 72.781 1.671 42.432 22.747 145.511 55.031 171.375 41.919 6.172 68.188.563 68.188.563l17.781-10.312s20.872-2.673 29.813.594c8.941 3.266 21.188 17.188 21.188 17.188l116.375-1.156s4.923-7.26 17.75-10.313c12.827-3.053 58.469 3.438 58.469 3.438s17.087 4.633 30.375-10.313c13.289-14.945 18.344-85.969 18.344-85.969s13.54-3.853 18.906-73.375c-1.655-48.985-16.804-73.177-28-84.469 3.444-1.162 41.592-14.334 57.25-33.031 16.397-19.58 29.219-81.375 29.219-81.375l-8.594-175.406 8.594-30.938s-10.223-44.505-50.219-44.75z" fill="#b3b3b3" stroke="#000" stroke-width=".9"/><path d="M87.353 384.295l-13.78 9.076 96.929 109.943s9.536 13.089 13.601 22.98c8.056 5.405 33.432 1.75 47.438 5.859 14.006 4.11 49.569 28.889 49.569 28.889s44.923-45.555 57.288-64.408c12.364-18.853 22.353-60.755 22.353-60.755l3.439-52.731s-55.065 24.064-101.527 25.903c-7.487-7.332-37.322-16.828-61.539 6.767-23.07.669-113.773-31.524-113.773-31.524z" fill="#008000" stroke="#000"/><path d="M204.446 412.995c-5.363 10.555-3.948 20.548 1.171 28.925 5.119 8.377 16.686 18.635 25.601 18.606 8.916-.029 22.199-9.481 28.791-19.607 6.591-10.126-1.753-34.711-1.753-34.711s-39.189-10.105-53.809 6.786z" fill="#e0c038" stroke="#e0c038"/><path d="M98.243 344.747s-12.427 12.34-14.329 19.488c-1.902 7.148 2.293 20.061 2.293 20.061s37.256 14.902 56.457 20.347c19.201 5.445 58.749 12.323 58.749 12.323s15.415-13.786 30.951-14.329c15.536-.543 29.231 6.305 29.231 6.305s33.938-3.59 51.802-8.366c17.864-4.776 55.38-20.292 55.38-20.292s13.738-14.1 12.61-22.353c-1.129-8.254-17.195-17.195-17.195-17.195z" fill="#800000" stroke="#000"/><path d="M123.638 18.503c-24.694.232-45.048 12.101-58.625 40.25-12.42 25.751-4.827 107.481-2.406 130.281-.285 2.167-4.65 35.743-4.188 53.406.478 18.246 7.156 55.313 7.156 55.313s7 35.278 36.094 53.313c29.094 18.035 84.277 19.077 129.844 18.313 45.567-.764 100.317-5.649 126.375-22.344 26.058-16.695 30.375-49.875 30.375-49.875s5.347-36.107 5.156-53.875c-.142-13.182-3.533-35.754-5.281-46.563.631-17.247 3.185-105.703-9.875-132.781-14.482-30.025-31.522-42.07-58.469-40.688-25.197 1.293-65.745 46.172-76.219 69.906l-41.875.469-.281-1.063c-6.501-21.91-45.866-72.555-72.813-73.938-1.684-.086-3.322-.14-4.969-.125z" fill="#b3b3b3" stroke="#000"/><path d="M366.353 162.969s10.398-110.294-32.828-119.155c-43.227-8.86-72.141 80.247-72.141 80.247s42.285-.811 61.401 6.079c19.116 6.89 43.569 32.828 43.569 32.828zM178.811 117.301s-30.097-92.482-78.904-75.413c-48.807 17.068-17.964 119.906-17.964 119.906s11.101-20.462 42.714-33.484c31.613-13.022 54.154-11.009 54.154-11.009z" fill="#800000" stroke="#800000"/><path d="M184.573 521.329s91.779 5.587 129.18 83.061c51.157 71.169 11.416 145.755 11.416 145.755l-115.206 1.123s-29.979-36.638-44.659-61.476c-29.583-32.862-43.873-103.53-43.873-103.53s22.353-7.428 40.695-27.488c18.341-20.061 22.448-37.445 22.448-37.445z" fill="#e4c844" stroke="#000"/><path d="M295.412 673.743h.573" stroke="#000" fill="none"/><path d="M205.706 546.757l-53.877 61.329 4.012 4.585 22.9-19.114 14.929 13.383-34.39 21.207 5.732 11.463 34.963-26.366 6.305 10.317-31.524 24.073 1.146 6.305 27.512-14.902 5.732 10.317-21.78 18.914 4.585 6.878 67.633-68.207 9.171 1.72-2.293 8.598 9.171-.573-4.585-17.195-10.317-4.012-42.414 42.987-5.732-4.012 48.146-49.865-5.159-7.451-42.414 38.402-4.585-6.878 37.256-44.134-10.89-5.732-31.524 40.121c-2.868-3.442-27.738-30.572-13.396-14.156l26.579-30.551zM201.407 678.871l-4.012 7.451 19.488-1.72 27.512-30.378 5.732-1.146 4.299 10.89-29.805 27.225-13.756 3.439.287 6.305 24.933 23.786 2.579-5.159-12.323-14.902 7.451-10.317 19.774-18.055s6.562.633 8.597 2.866c1.982 2.175 2.006 8.598 2.006 8.598l-18.628 15.762 2.006 4.299h12.61l29.518-32.957 6.591-2.006.58 6.771s7.646-.195 8.498-3.439c2.726-10.384-2.773-25.972-2.773-25.972l-12.896-16.622-24.073 20.347-8.024-1.433-.287-9.744s16.838-14.291 27.225-16.049c4.322-.731 12.896 2.579 12.896 2.579l2.293-4.299-20.634-3.152-23.213 8.884s-7.087 1.944-9.744 4.299c-5.321 4.716-10.89 18.341-10.89 18.341l-14.902 14.616s-5.325 8.02-9.457 10.03c-2.846 1.385-9.457.86-9.457.86z" stroke="#000"/><g fill="#e8d04c" stroke="#e8d04c"><path d="M293.4 647.348l-6.591-6.305-6.878 4.299-2.006 8.597 4.872 9.171 11.75 2.293zM277.064 665.116l-6.018-5.445-6.305 5.445-.287 8.884 9.171 5.732 6.878-6.591z"/></g><g fill="#800000" stroke="#800000"><path d="M447.453 144.414l.86 54.737 7.165-.287s.162-23.419-1.175-32.494l-6.849-21.957zM476.061 141.222l.86 54.737 7.165-.287s.162-23.419-1.175-32.494l-6.849-21.957zM504.431 143.248l.86 50.279 7.165-.287s.162-23.419-1.175-32.494l-6.849-17.498z"/></g><g fill="#800000" stroke="#800000"><path d="M133.632 695.617l.949 47.062 7.911-.246s.179-20.135-1.298-27.938c-1.477-7.803-7.562-18.878-7.562-18.878zM85.388 702.838l-.957 40.242-7.973-.211s-.181-17.217 1.308-23.889c1.488-6.672 7.622-16.142 7.622-16.142zM104.451 697.036l.949 47.062 7.911-.246s-.226-31.078-1.703-38.881c-1.477-7.803-7.157-7.935-7.157-7.935z"/></g><g fill="#800000" stroke="#800000"><path d="M364.099 690.678l-.949 47.062-7.911-.246s-.179-20.135 1.298-27.938c1.477-7.803 7.562-18.878 7.562-18.878zM412.343 700.899l.957 40.242 7.973-.211s.181-17.217-1.308-23.889c-1.488-6.672-7.622-16.142-7.622-16.142zM393.28 692.097l-.949 47.062-7.911-.246s.226-31.078 1.703-38.881c1.477-7.803 7.157-7.935 7.157-7.935z"/></g><g stroke="#000" fill="none"><path d="M183.973 284.556s-37.502-17.058-54.309-19.454c-16.806-2.396-43.771 2.432-43.771 2.432M184.784 295.094s-40.923-10.114-56.74-9.727c-15.818.387-36.476 8.106-36.476 8.106M181.541 305.631s-30.602-3.108-43.771-.811c-13.169 2.298-34.044 12.969-34.044 12.969M269.704 284.556s37.502-17.058 54.309-19.454c16.806-2.396 43.771 2.432 43.771 2.432M268.893 295.094s40.923-10.114 56.74-9.727c15.818.387 36.476 8.106 36.476 8.106M272.136 305.631s30.602-3.108 43.771-.811c13.169 2.298 34.044 12.969 34.044 12.969"/></g><path d="M183.568 334.407s15.671-2.702 22.291-5.066c6.62-2.364 17.427-9.119 17.427-9.119s13.239 5.809 20.467 7.7c7.228 1.891 22.899 3.648 22.899 3.648" stroke="#800000" stroke-width="4.5" stroke-linecap="round" fill="none"/><path d="M202.718 272.803s14.469-11.083 23.405-10.943c8.937.14 21.683 11.449 21.683 11.449s-7.157 9.848-19.555 9.93c-12.399.082-25.533-10.436-25.533-10.436z" fill="#e0c03c" stroke="#e0c03c"/><path d="M201.806 274.829l26.344 11.753 21.075-11.753" stroke="#800000" stroke-width="4.5" stroke-linecap="round" fill="none"/><path d="M302.722 175.939c1.107 8.483-1.161 14.385-3.648 19.049M317.718 177.155c1.022 9.191-.229 13.333-6.079 17.833M331.093 182.423c.125 7.165-2.565 12.784-4.458 17.833" stroke="#000" stroke-width="2.25" stroke-linecap="round" fill="none"/><path d="M357.842 207.551c-7.095 9.631-15.572 9.727-25.533 9.727" stroke="#000" stroke-width="1.8" stroke-linecap="round" fill="none"/><path d="M266.692 213.24c.102-7.918 8.754-14.463 36.109-18.341 27.355-3.878 28.658 18.914 28.658 18.914s.453 25.959-29.805 21.78c-30.257-4.179-35.065-14.435-34.963-22.353z" fill="#e0c038" stroke="#e0c038"/><path d="M283.32 215.666c0 9.778 7.926 17.704 17.704 17.704s17.704-7.926 17.704-17.704-7.926-17.704-17.704-17.704-17.704 7.926-17.704 17.704z" stroke="#000" stroke-width="1.144"/><path d="M293.341 216.758c0 4.256 3.45 7.707 7.707 7.707 4.256 0 7.707-3.45 7.707-7.707 0-4.256-3.45-7.707-7.707-7.707-4.256 0-7.707 3.45-7.707 7.707z" fill="#fff" stroke="#fff" stroke-width=".498"/><path d="M144.272 176.188c-1.107 8.483 1.161 14.385 3.648 19.049M129.276 177.404c-1.022 9.191.229 13.333 6.079 17.833M115.901 182.672c-.125 7.165 2.565 12.784 4.458 17.833" stroke="#000" stroke-width="2.25" stroke-linecap="round" fill="none"/><path d="M89.152 207.8c7.095 9.631 15.572 9.727 25.533 9.727" stroke="#000" stroke-width="1.8" stroke-linecap="round" fill="none"/><path d="M180.302 213.489c-.102-7.918-8.754-14.463-36.109-18.341-27.355-3.878-28.658 18.914-28.658 18.914s-.453 25.959 29.805 21.78c30.257-4.179 35.065-14.435 34.963-22.353z" fill="#e0c038" stroke="#e0c038"/><path d="M163.674 215.915c0 9.778-7.926 17.704-17.704 17.704s-17.704-7.926-17.704-17.704 7.926-17.704 17.704-17.704 17.704 7.926 17.704 17.704z" stroke="#000" stroke-width="1.144"/><path d="M153.653 217.007c0 4.256-3.45 7.707-7.707 7.707-4.256 0-7.707-3.45-7.707-7.707 0-4.256 3.45-7.707 7.707-7.707 4.256 0 7.707 3.45 7.707 7.707z" fill="#fff" stroke="#fff" stroke-width=".498"/><path d="M394.778 380.288s-1.927 32.449.848 49.177l17.083 48.976 30.296 10.573" stroke="#000" stroke-width=".9" stroke-linecap="round" fill="none"/><path d="M412.884 478.341s-30.539 32.085-45.238 55.413c-14.699 23.327-42.69 88.639-42.69 88.639M452.48 646.128s-40.223 3.857-60.246 4.632c-20.023.775-57.655-3.391-57.655-3.391M30.145 643.427s39.384 11.047 58.55 11.572c19.167.525 51.767-6.783 51.767-6.783" stroke="#000" stroke-width=".9" fill="none"/><path d="M35.28 499.838l88.179 84.787s25.265-11.989 35.611-22.045c10.345-10.055 24.588-37.306 24.588-37.306l-8.479-15.262-91.163-103.033" stroke="#000" stroke-width=".9" stroke-linecap="round" fill="none"/><g fill="#800000" stroke="#800000"><path d="M151.267 502.946l9.171.86 17.482 25.219-1.146 8.024-6.018 1.146-4.585-9.744-14.616-19.201zM123.182 521.574l7.451 1.72 29.518 28.085.573 7.165-6.018 4.012-30.951-30.378zM99.969 549.373l34.676 20.921-2.006 6.878-9.744.286-24.933-22.067z"/></g><path d="M195.996 339.019s18.062 10.101 28.094 10.125c10.033.024 30.352-8.285 30.352-8.285M423.261 184.107s16.976 22.969 49.859 22.193c32.883-.776 50.791-19.09 50.791-19.09" stroke="#000" fill="none"/></svg>