<svg xmlns="http://www.w3.org/2000/svg" xmlns:xlink="http://www.w3.org/1999/xlink" width="540" height="321"><title>monster truck</title><defs><linearGradient id="A"><stop offset="0" stop-color="#0e232e"/><stop offset="1" stop-color="#0e232e"/></linearGradient><linearGradient id="z"><stop offset="0" stop-color="#fff"/><stop offset="1" stop-color="#2d2d2d"/></linearGradient><linearGradient id="y"><stop offset="0" stop-color="#666"/><stop offset="1" stop-color="#0e232e"/></linearGradient><linearGradient id="e"><stop offset="0" stop-color="#dc0000"/><stop offset="1" stop-color="#ffff3e"/></linearGradient><linearGradient id="g"><stop offset="0" stop-color="#f90"/><stop offset="1" stop-color="#2d2d2d"/></linearGradient><linearGradient id="h"><stop offset="0" stop-color="#f90"/><stop offset="1" stop-color="#2d2d2d"/></linearGradient><linearGradient id="i"><stop offset="0" stop-color="#f90"/><stop offset="1" stop-color="#2d2d2d"/></linearGradient><linearGradient id="j"><stop offset="0" stop-color="#f90"/><stop offset="1" stop-color="#2d2d2d"/></linearGradient><linearGradient id="f"><stop offset="0" stop-color="#f90"/><stop offset="1" stop-color="#2d2d2d"/></linearGradient><linearGradient id="k"><stop offset="0" stop-color="#f60"/><stop offset="1" stop-color="#ffff3e"/></linearGradient><linearGradient id="l"><stop offset="0" stop-color="#009100"/><stop offset="1" stop-color="#ccff42"/></linearGradient><linearGradient id="o"><stop offset="0" stop-color="#0e232e"/><stop offset="1" stop-color="#ccff42"/></linearGradient><linearGradient id="p"><stop offset="0" stop-color="#009100"/><stop offset="1" stop-color="#ccff42"/></linearGradient><linearGradient id="b"><stop offset="0" stop-color="#ccff42"/><stop offset="1" stop-color="#009100"/></linearGradient><linearGradient id="v"><stop offset="0" stop-color="#fff"/><stop offset="1" stop-color="#364e59"/></linearGradient><linearGradient id="w"><stop offset="0" stop-color="#ccc"/><stop offset="1" stop-color="#fff"/></linearGradient><linearGradient id="u"><stop offset="0" stop-color="#0e232e"/><stop offset="1" stop-color="#364e59"/></linearGradient><linearGradient id="d"><stop offset="0" stop-color="#fff"/><stop offset="1" stop-color="#fff" stop-opacity="0"/></linearGradient><linearGradient id="c"><stop offset="0" stop-color="#fff"/><stop offset="1" stop-color="#0e232e"/></linearGradient><linearGradient id="x"><stop offset="0" stop-color="#fff"/><stop offset="1" stop-color="#666"/></linearGradient><linearGradient id="m"><stop offset="0" stop-color="#0e232e"/><stop offset="1" stop-color="#9eabb0"/></linearGradient><linearGradient id="s"><stop offset="0" stop-color="#009100"/><stop offset="1" stop-color="#ccff42"/></linearGradient><linearGradient id="t"><stop offset="0" stop-color="#9ade00"/><stop offset="1" stop-color="#009100"/></linearGradient><linearGradient id="a"><stop offset="0" stop-color="#0e232e"/><stop offset="1" stop-color="#bdcdd4"/></linearGradient><linearGradient id="n"><stop offset="0" stop-color="#009100"/><stop offset="1" stop-color="#ffc022"/></linearGradient><linearGradient id="q"><stop offset="0" stop-color="#f90"/><stop offset="1" stop-color="#ffff3e"/></linearGradient><linearGradient id="r"><stop offset="0" stop-color="#009100"/><stop offset="1" stop-color="#ccff42"/></linearGradient><filter id="D" color-interpolation-filters="sRGB"><feGaussianBlur stdDeviation="4.019"/></filter><linearGradient xlink:href="#a" x1="496.764" y1="386.928" x2="484.46" y2="404.829" gradientUnits="userSpaceOnUse"/><linearGradient xlink:href="#a" gradientUnits="userSpaceOnUse" x1="496.764" y1="386.928" x2="484.46" y2="404.829"/><linearGradient xlink:href="#a" gradientUnits="userSpaceOnUse" x1="496.764" y1="386.928" x2="484.46" y2="404.829"/><linearGradient xlink:href="#a" gradientUnits="userSpaceOnUse" x1="496.764" y1="386.928" x2="484.46" y2="404.829"/><linearGradient xlink:href="#a" gradientUnits="userSpaceOnUse" x1="496.764" y1="386.928" x2="484.46" y2="404.829"/><linearGradient xlink:href="#a" gradientUnits="userSpaceOnUse" x1="496.764" y1="386.928" x2="484.46" y2="404.829"/><linearGradient xlink:href="#a" gradientUnits="userSpaceOnUse" x1="496.764" y1="386.928" x2="484.46" y2="404.829"/><linearGradient xlink:href="#b" id="aB" gradientUnits="userSpaceOnUse" x1="46.169" y1="349.273" x2="78.214" y2="353.058"/><radialGradient xlink:href="#c" id="bg" gradientUnits="userSpaceOnUse" gradientTransform="matrix(.149 .609 -.265 .062 667.376 281.77)" cx="592.143" cy="686.036" fx="592.143" fy="686.036" r="22.844"/><radialGradient xlink:href="#c" id="bh" gradientUnits="userSpaceOnUse" gradientTransform="matrix(.149 .609 -.265 .062 666.804 333.913)" cx="592.143" cy="686.036" fx="592.143" fy="686.036" r="22.844"/><radialGradient xlink:href="#c" id="bi" gradientUnits="userSpaceOnUse" gradientTransform="matrix(-.175 .602 -.26 -.079 871.846 386.981)" cx="592.143" cy="686.036" fx="592.143" fy="686.036" r="22.844"/><radialGradient xlink:href="#c" id="bj" gradientUnits="userSpaceOnUse" gradientTransform="matrix(-.175 .602 -.26 -.079 845.28 431.852)" cx="592.143" cy="686.036" fx="592.143" fy="686.036" r="22.844"/><radialGradient xlink:href="#c" id="bk" gradientUnits="userSpaceOnUse" gradientTransform="matrix(-.452 .434 -.186 -.198 996.318 580.332)" cx="592.143" cy="686.036" fx="592.143" fy="686.036" r="22.844"/><radialGradient xlink:href="#c" id="bl" gradientUnits="userSpaceOnUse" gradientTransform="matrix(-.452 .434 -.186 -.198 950.875 605.908)" cx="592.143" cy="686.036" fx="592.143" fy="686.036" r="22.844"/><radialGradient xlink:href="#c" id="bm" gradientUnits="userSpaceOnUse" gradientTransform="matrix(-.609 .149 -.062 -.265 1007.439 810.013)" cx="592.143" cy="686.036" fx="592.143" fy="686.036" r="22.844"/><radialGradient xlink:href="#c" id="bn" gradientUnits="userSpaceOnUse" gradientTransform="matrix(-.609 .149 -.062 -.265 955.296 809.442)" cx="592.143" cy="686.036" fx="592.143" fy="686.036" r="22.844"/><radialGradient xlink:href="#c" id="bo" gradientUnits="userSpaceOnUse" gradientTransform="matrix(-.602 -.175 .079 -.26 902.228 1014.484)" cx="592.143" cy="686.036" fx="592.143" fy="686.036" r="22.844"/><radialGradient xlink:href="#c" id="bp" gradientUnits="userSpaceOnUse" gradientTransform="matrix(-.602 -.175 .079 -.26 857.357 987.917)" cx="592.143" cy="686.036" fx="592.143" fy="686.036" r="22.844"/><radialGradient xlink:href="#c" id="bq" gradientUnits="userSpaceOnUse" gradientTransform="matrix(-.434 -.452 .198 -.186 708.877 1138.956)" cx="592.143" cy="686.036" fx="592.143" fy="686.036" r="22.844"/><radialGradient xlink:href="#c" id="br" gradientUnits="userSpaceOnUse" gradientTransform="matrix(-.434 -.452 .198 -.186 683.301 1093.513)" cx="592.143" cy="686.036" fx="592.143" fy="686.036" r="22.844"/><radialGradient xlink:href="#d" id="bs" gradientUnits="userSpaceOnUse" gradientTransform="matrix(-.809 -.714 .635 -.72 558.995 1672.533)" cx="567.857" cy="736.969" fx="567.857" fy="736.969" r="30.025"/><linearGradient xlink:href="#e" id="bz" gradientUnits="userSpaceOnUse" x1="758.393" y1="471.413" x2="747.513" y2="470.514" gradientTransform="matrix(.934 0 0 .934 -205.209 423.339)"/><linearGradient xlink:href="#f" id="by" gradientUnits="userSpaceOnUse" x1="620.234" y1="424.047" x2="597" y2="425.057" gradientTransform="matrix(.934 0 0 .934 -205.209 423.339)"/><linearGradient xlink:href="#g" id="bx" gradientUnits="userSpaceOnUse" x1="620.234" y1="424.047" x2="597" y2="425.057" gradientTransform="matrix(.934 0 0 .934 -205.209 423.339)"/><linearGradient xlink:href="#h" id="bw" gradientUnits="userSpaceOnUse" x1="620.234" y1="424.047" x2="597" y2="425.057" gradientTransform="matrix(.934 0 0 .934 -205.209 423.339)"/><linearGradient xlink:href="#i" id="bv" gradientUnits="userSpaceOnUse" x1="620.234" y1="424.047" x2="597" y2="425.057" gradientTransform="matrix(.934 0 0 .934 -205.209 423.339)"/><linearGradient xlink:href="#j" id="bu" gradientUnits="userSpaceOnUse" x1="620.234" y1="424.047" x2="597" y2="425.057" gradientTransform="matrix(.934 0 0 .934 -205.209 423.339)"/><linearGradient xlink:href="#k" id="bt" gradientUnits="userSpaceOnUse" x1="423.254" y1="458.392" x2="498.005" y2="445.26" gradientTransform="matrix(.934 0 0 .934 -205.209 423.339)"/><linearGradient xlink:href="#l" id="be" gradientUnits="userSpaceOnUse" x1="381.838" y1="404.854" x2="392.949" y2="473.545" gradientTransform="matrix(.934 0 0 .934 -205.209 423.339)"/><linearGradient xlink:href="#m" id="aP" gradientUnits="userSpaceOnUse" x1="548.571" y1="402.362" x2="547.143" y2="425.934" gradientTransform="matrix(.934 0 0 .934 -205.209 423.339)"/><linearGradient xlink:href="#a" id="aO" gradientUnits="userSpaceOnUse" x1="502.857" y1="402.362" x2="449.286" y2="430.934" gradientTransform="matrix(.934 0 0 .934 -205.209 423.339)"/><linearGradient xlink:href="#n" id="aN" gradientUnits="userSpaceOnUse" x1="729.286" y1="436.648" x2="669.286" y2="438.076" gradientTransform="matrix(.934 0 0 .934 -205.209 423.339)"/><linearGradient xlink:href="#o" id="aM" gradientUnits="userSpaceOnUse" x1="573.767" y1="381.621" x2="563.665" y2="491.728" gradientTransform="matrix(.934 0 0 .934 -205.209 423.339)"/><linearGradient xlink:href="#p" id="aL" gradientUnits="userSpaceOnUse" x1="480.833" y1="417.986" x2="479.822" y2="474.555" gradientTransform="matrix(.934 0 0 .934 -205.209 423.339)"/><linearGradient xlink:href="#q" id="aK" gradientUnits="userSpaceOnUse" x1="449.286" y1="508.791" x2="547.857" y2="505.934" gradientTransform="matrix(.934 0 0 .934 -205.209 423.339)"/><linearGradient xlink:href="#r" id="aJ" gradientUnits="userSpaceOnUse" x1="312.143" y1="436.648" x2="385.714" y2="428.076" gradientTransform="matrix(.934 0 0 .934 -205.209 423.339)"/><linearGradient xlink:href="#s" id="aI" gradientUnits="userSpaceOnUse" x1="562.857" y1="414.505" x2="532.143" y2="408.791" gradientTransform="matrix(.934 0 0 .934 -205.209 423.339)"/><linearGradient xlink:href="#t" id="aH" gradientUnits="userSpaceOnUse" x1="514.286" y1="397.362" x2="463.571" y2="419.505" gradientTransform="matrix(.934 0 0 .934 -205.209 423.339)"/><linearGradient xlink:href="#u" id="aG" gradientUnits="userSpaceOnUse" gradientTransform="matrix(.676 0 0 .705 219.15 583.198)" x1="93.944" y1="466.474" x2="-3.03" y2="465.464"/><linearGradient xlink:href="#u" id="aF" gradientUnits="userSpaceOnUse" gradientTransform="matrix(.676 0 0 .705 220.516 578.21)" x1="93.944" y1="466.474" x2="-3.03" y2="465.464"/><linearGradient xlink:href="#u" id="aE" gradientUnits="userSpaceOnUse" gradientTransform="matrix(.676 0 0 .705 221.882 573.935)" x1="93.944" y1="466.474" x2="-3.03" y2="465.464"/><linearGradient xlink:href="#v" id="aD" gradientUnits="userSpaceOnUse" gradientTransform="matrix(-.66 -.66 -.66 .66 698.259 792.266)" x1="350.523" y1="460.413" x2="362.645" y2="462.433"/><linearGradient xlink:href="#v" id="aC" gradientUnits="userSpaceOnUse" x1="350.523" y1="460.413" x2="362.645" y2="462.433" gradientTransform="matrix(.934 0 0 .934 -205.209 423.339)"/><linearGradient xlink:href="#w" id="aA" gradientUnits="userSpaceOnUse" x1="501.036" y1="546.276" x2="487.904" y2="527.083" gradientTransform="matrix(.934 0 0 .934 -205.209 423.339)"/><linearGradient xlink:href="#a" gradientUnits="userSpaceOnUse" x1="496.764" y1="386.928" x2="484.46" y2="404.829"/><linearGradient xlink:href="#a" id="C" gradientUnits="userSpaceOnUse" x1="496.764" y1="386.928" x2="484.46" y2="404.829"/><linearGradient xlink:href="#a" id="E" gradientUnits="userSpaceOnUse" x1="496.764" y1="386.928" x2="484.46" y2="404.829"/><linearGradient xlink:href="#a" id="F" gradientUnits="userSpaceOnUse" x1="496.764" y1="386.928" x2="484.46" y2="404.829"/><linearGradient xlink:href="#a" id="G" gradientUnits="userSpaceOnUse" x1="496.764" y1="386.928" x2="484.46" y2="404.829"/><linearGradient xlink:href="#a" id="H" gradientUnits="userSpaceOnUse" x1="496.764" y1="386.928" x2="484.46" y2="404.829"/><linearGradient xlink:href="#a" id="I" gradientUnits="userSpaceOnUse" x1="496.764" y1="386.928" x2="484.46" y2="404.829"/><linearGradient xlink:href="#a" id="J" gradientUnits="userSpaceOnUse" x1="496.764" y1="386.928" x2="484.46" y2="404.829"/><linearGradient xlink:href="#a" id="K" gradientUnits="userSpaceOnUse" x1="496.764" y1="386.928" x2="484.46" y2="404.829"/><linearGradient xlink:href="#a" id="L" gradientUnits="userSpaceOnUse" x1="496.764" y1="386.928" x2="484.46" y2="404.829"/><linearGradient xlink:href="#a" id="M" gradientUnits="userSpaceOnUse" x1="496.764" y1="386.928" x2="484.46" y2="404.829"/><linearGradient xlink:href="#a" id="N" gradientUnits="userSpaceOnUse" x1="496.764" y1="386.928" x2="484.46" y2="404.829"/><linearGradient xlink:href="#a" id="O" gradientUnits="userSpaceOnUse" x1="496.764" y1="386.928" x2="484.46" y2="404.829"/><linearGradient xlink:href="#a" id="P" gradientUnits="userSpaceOnUse" x1="496.764" y1="386.928" x2="484.46" y2="404.829"/><linearGradient xlink:href="#a" id="Q" gradientUnits="userSpaceOnUse" x1="496.764" y1="386.928" x2="484.46" y2="404.829"/><linearGradient xlink:href="#a" id="R" gradientUnits="userSpaceOnUse" x1="496.764" y1="386.928" x2="484.46" y2="404.829"/><linearGradient xlink:href="#a" id="S" gradientUnits="userSpaceOnUse" x1="496.764" y1="386.928" x2="484.46" y2="404.829"/><linearGradient xlink:href="#a" id="T" gradientUnits="userSpaceOnUse" x1="496.764" y1="386.928" x2="484.46" y2="404.829"/><linearGradient xlink:href="#a" id="U" gradientUnits="userSpaceOnUse" x1="496.764" y1="386.928" x2="484.46" y2="404.829"/><linearGradient xlink:href="#a" id="V" gradientUnits="userSpaceOnUse" x1="496.764" y1="386.928" x2="484.46" y2="404.829"/><linearGradient xlink:href="#a" id="W" gradientUnits="userSpaceOnUse" x1="496.764" y1="386.928" x2="484.46" y2="404.829"/><linearGradient xlink:href="#a" id="X" gradientUnits="userSpaceOnUse" x1="496.764" y1="386.928" x2="484.46" y2="404.829"/><linearGradient xlink:href="#a" gradientUnits="userSpaceOnUse" x1="496.764" y1="386.928" x2="484.46" y2="404.829"/><linearGradient xlink:href="#a" gradientUnits="userSpaceOnUse" x1="496.764" y1="386.928" x2="484.46" y2="404.829"/><linearGradient xlink:href="#a" id="Y" gradientUnits="userSpaceOnUse" x1="496.764" y1="386.928" x2="484.46" y2="404.829"/><linearGradient xlink:href="#a" id="Z" gradientUnits="userSpaceOnUse" x1="496.764" y1="386.928" x2="484.46" y2="404.829"/><linearGradient xlink:href="#a" id="aa" gradientUnits="userSpaceOnUse" x1="496.764" y1="386.928" x2="484.46" y2="404.829"/><linearGradient xlink:href="#a" id="ab" gradientUnits="userSpaceOnUse" x1="496.764" y1="386.928" x2="484.46" y2="404.829"/><linearGradient xlink:href="#a" id="ac" gradientUnits="userSpaceOnUse" x1="496.764" y1="386.928" x2="484.46" y2="404.829"/><linearGradient xlink:href="#a" id="ad" gradientUnits="userSpaceOnUse" x1="496.764" y1="386.928" x2="484.46" y2="404.829"/><linearGradient xlink:href="#a" id="ae" gradientUnits="userSpaceOnUse" x1="496.764" y1="386.928" x2="484.46" y2="404.829"/><linearGradient xlink:href="#a" id="af" gradientUnits="userSpaceOnUse" x1="496.764" y1="386.928" x2="484.46" y2="404.829"/><linearGradient xlink:href="#a" id="ag" gradientUnits="userSpaceOnUse" x1="496.764" y1="386.928" x2="484.46" y2="404.829"/><linearGradient xlink:href="#a" gradientUnits="userSpaceOnUse" x1="496.764" y1="386.928" x2="484.46" y2="404.829"/><linearGradient xlink:href="#a" gradientUnits="userSpaceOnUse" x1="496.764" y1="386.928" x2="484.46" y2="404.829"/><linearGradient xlink:href="#a" id="ah" gradientUnits="userSpaceOnUse" x1="496.764" y1="386.928" x2="484.46" y2="404.829"/><linearGradient xlink:href="#a" id="ai" gradientUnits="userSpaceOnUse" x1="496.764" y1="386.928" x2="484.46" y2="404.829"/><linearGradient xlink:href="#a" id="aj" gradientUnits="userSpaceOnUse" x1="496.764" y1="386.928" x2="484.46" y2="404.829"/><linearGradient xlink:href="#a" id="ak" gradientUnits="userSpaceOnUse" x1="496.764" y1="386.928" x2="484.46" y2="404.829"/><linearGradient xlink:href="#a" id="al" gradientUnits="userSpaceOnUse" x1="496.764" y1="386.928" x2="484.46" y2="404.829"/><linearGradient xlink:href="#a" id="am" gradientUnits="userSpaceOnUse" x1="496.764" y1="386.928" x2="484.46" y2="404.829"/><linearGradient xlink:href="#a" id="an" gradientUnits="userSpaceOnUse" x1="496.764" y1="386.928" x2="484.46" y2="404.829"/><linearGradient xlink:href="#a" id="ao" gradientUnits="userSpaceOnUse" x1="496.764" y1="386.928" x2="484.46" y2="404.829"/><linearGradient xlink:href="#a" id="ap" gradientUnits="userSpaceOnUse" x1="496.764" y1="386.928" x2="484.46" y2="404.829"/><linearGradient xlink:href="#a" id="aq" gradientUnits="userSpaceOnUse" x1="496.764" y1="386.928" x2="484.46" y2="404.829"/><linearGradient xlink:href="#a" id="ar" gradientUnits="userSpaceOnUse" x1="496.764" y1="386.928" x2="484.46" y2="404.829"/><linearGradient xlink:href="#a" id="as" gradientUnits="userSpaceOnUse" x1="496.764" y1="386.928" x2="484.46" y2="404.829"/><linearGradient xlink:href="#a" id="at" gradientUnits="userSpaceOnUse" x1="496.764" y1="386.928" x2="484.46" y2="404.829"/><linearGradient xlink:href="#a" id="au" gradientUnits="userSpaceOnUse" x1="496.764" y1="386.928" x2="484.46" y2="404.829"/><linearGradient xlink:href="#a" id="av" gradientUnits="userSpaceOnUse" x1="496.764" y1="386.928" x2="484.46" y2="404.829"/><linearGradient xlink:href="#a" id="aw" gradientUnits="userSpaceOnUse" x1="496.764" y1="386.928" x2="484.46" y2="404.829"/><linearGradient xlink:href="#a" id="ax" gradientUnits="userSpaceOnUse" x1="496.764" y1="386.928" x2="484.46" y2="404.829"/><linearGradient xlink:href="#a" id="ay" gradientUnits="userSpaceOnUse" x1="496.764" y1="386.928" x2="484.46" y2="404.829"/><linearGradient xlink:href="#a" id="az" gradientUnits="userSpaceOnUse" x1="496.764" y1="386.928" x2="484.46" y2="404.829"/><linearGradient xlink:href="#a" gradientUnits="userSpaceOnUse" x1="496.764" y1="386.928" x2="484.46" y2="404.829"/><radialGradient xlink:href="#c" id="bC" gradientUnits="userSpaceOnUse" gradientTransform="matrix(.149 .609 -.265 .062 667.376 281.77)" cx="592.143" cy="686.036" fx="592.143" fy="686.036" r="22.844"/><radialGradient xlink:href="#c" id="bD" gradientUnits="userSpaceOnUse" gradientTransform="matrix(.149 .609 -.265 .062 666.804 333.913)" cx="592.143" cy="686.036" fx="592.143" fy="686.036" r="22.844"/><radialGradient xlink:href="#c" id="bE" gradientUnits="userSpaceOnUse" gradientTransform="matrix(-.175 .602 -.26 -.079 871.846 386.981)" cx="592.143" cy="686.036" fx="592.143" fy="686.036" r="22.844"/><radialGradient xlink:href="#c" id="bF" gradientUnits="userSpaceOnUse" gradientTransform="matrix(-.175 .602 -.26 -.079 845.28 431.852)" cx="592.143" cy="686.036" fx="592.143" fy="686.036" r="22.844"/><radialGradient xlink:href="#c" id="bG" gradientUnits="userSpaceOnUse" gradientTransform="matrix(-.452 .434 -.186 -.198 996.318 580.332)" cx="592.143" cy="686.036" fx="592.143" fy="686.036" r="22.844"/><radialGradient xlink:href="#c" id="bH" gradientUnits="userSpaceOnUse" gradientTransform="matrix(-.452 .434 -.186 -.198 950.875 605.908)" cx="592.143" cy="686.036" fx="592.143" fy="686.036" r="22.844"/><radialGradient xlink:href="#c" id="bI" gradientUnits="userSpaceOnUse" gradientTransform="matrix(-.609 .149 -.062 -.265 1007.439 810.013)" cx="592.143" cy="686.036" fx="592.143" fy="686.036" r="22.844"/><radialGradient xlink:href="#c" id="bJ" gradientUnits="userSpaceOnUse" gradientTransform="matrix(-.609 .149 -.062 -.265 955.296 809.442)" cx="592.143" cy="686.036" fx="592.143" fy="686.036" r="22.844"/><radialGradient xlink:href="#c" id="bK" gradientUnits="userSpaceOnUse" gradientTransform="matrix(-.602 -.175 .079 -.26 902.228 1014.484)" cx="592.143" cy="686.036" fx="592.143" fy="686.036" r="22.844"/><radialGradient xlink:href="#c" id="bL" gradientUnits="userSpaceOnUse" gradientTransform="matrix(-.602 -.175 .079 -.26 857.357 987.917)" cx="592.143" cy="686.036" fx="592.143" fy="686.036" r="22.844"/><radialGradient xlink:href="#c" id="bM" gradientUnits="userSpaceOnUse" gradientTransform="matrix(-.434 -.452 .198 -.186 708.877 1138.956)" cx="592.143" cy="686.036" fx="592.143" fy="686.036" r="22.844"/><radialGradient xlink:href="#c" id="bN" gradientUnits="userSpaceOnUse" gradientTransform="matrix(-.434 -.452 .198 -.186 683.301 1093.513)" cx="592.143" cy="686.036" fx="592.143" fy="686.036" r="22.844"/><radialGradient xlink:href="#d" id="bO" gradientUnits="userSpaceOnUse" gradientTransform="matrix(-.809 -.714 .635 -.72 558.995 1672.533)" cx="567.857" cy="736.969" fx="567.857" fy="736.969" r="30.025"/><radialGradient xlink:href="#c" id="aR" gradientUnits="userSpaceOnUse" gradientTransform="matrix(.149 .609 -.265 .062 667.376 281.77)" cx="592.143" cy="686.036" fx="592.143" fy="686.036" r="22.844"/><radialGradient xlink:href="#c" id="aS" gradientUnits="userSpaceOnUse" gradientTransform="matrix(.149 .609 -.265 .062 666.804 333.913)" cx="592.143" cy="686.036" fx="592.143" fy="686.036" r="22.844"/><radialGradient xlink:href="#c" id="aT" gradientUnits="userSpaceOnUse" gradientTransform="matrix(-.175 .602 -.26 -.079 871.846 386.981)" cx="592.143" cy="686.036" fx="592.143" fy="686.036" r="22.844"/><radialGradient xlink:href="#c" id="aU" gradientUnits="userSpaceOnUse" gradientTransform="matrix(-.175 .602 -.26 -.079 845.28 431.852)" cx="592.143" cy="686.036" fx="592.143" fy="686.036" r="22.844"/><radialGradient xlink:href="#c" id="aV" gradientUnits="userSpaceOnUse" gradientTransform="matrix(-.452 .434 -.186 -.198 996.318 580.332)" cx="592.143" cy="686.036" fx="592.143" fy="686.036" r="22.844"/><radialGradient xlink:href="#c" id="aW" gradientUnits="userSpaceOnUse" gradientTransform="matrix(-.452 .434 -.186 -.198 950.875 605.908)" cx="592.143" cy="686.036" fx="592.143" fy="686.036" r="22.844"/><radialGradient xlink:href="#c" id="aX" gradientUnits="userSpaceOnUse" gradientTransform="matrix(-.609 .149 -.062 -.265 1007.439 810.013)" cx="592.143" cy="686.036" fx="592.143" fy="686.036" r="22.844"/><radialGradient xlink:href="#c" id="aY" gradientUnits="userSpaceOnUse" gradientTransform="matrix(-.609 .149 -.062 -.265 955.296 809.442)" cx="592.143" cy="686.036" fx="592.143" fy="686.036" r="22.844"/><radialGradient xlink:href="#c" id="aZ" gradientUnits="userSpaceOnUse" gradientTransform="matrix(-.602 -.175 .079 -.26 902.228 1014.484)" cx="592.143" cy="686.036" fx="592.143" fy="686.036" r="22.844"/><radialGradient xlink:href="#c" id="ba" gradientUnits="userSpaceOnUse" gradientTransform="matrix(-.602 -.175 .079 -.26 857.357 987.917)" cx="592.143" cy="686.036" fx="592.143" fy="686.036" r="22.844"/><radialGradient xlink:href="#c" id="bb" gradientUnits="userSpaceOnUse" gradientTransform="matrix(-.434 -.452 .198 -.186 708.877 1138.956)" cx="592.143" cy="686.036" fx="592.143" fy="686.036" r="22.844"/><radialGradient xlink:href="#c" id="bc" gradientUnits="userSpaceOnUse" gradientTransform="matrix(-.434 -.452 .198 -.186 683.301 1093.513)" cx="592.143" cy="686.036" fx="592.143" fy="686.036" r="22.844"/><radialGradient xlink:href="#d" id="bd" gradientUnits="userSpaceOnUse" gradientTransform="matrix(-.809 -.714 .635 -.72 558.995 1672.533)" cx="567.857" cy="736.969" fx="567.857" fy="736.969" r="30.025"/><radialGradient xlink:href="#x" id="aQ" gradientUnits="userSpaceOnUse" gradientTransform="matrix(.023 -.734 .853 .027 -313.601 1152.728)" cx="298.571" cy="815.11" fx="298.571" fy="815.11" r="56.074"/><radialGradient xlink:href="#x" id="bB" gradientUnits="userSpaceOnUse" gradientTransform="matrix(.021 -.681 .791 .025 -580.009 1139.484)" cx="298.571" cy="815.11" fx="298.571" fy="815.11" r="56.074"/><radialGradient xlink:href="#y" id="bP" cx="402.362" cy="1064.211" fx="402.362" fy="1064.211" r="76.074" gradientTransform="matrix(-.408 -.895 .796 -.363 -248.725 1692.878)" gradientUnits="userSpaceOnUse"/><radialGradient xlink:href="#z" id="bf" cx="386.191" cy="710.383" fx="386.191" fy="710.383" r="56.074" gradientTransform="matrix(.545 .176 -.292 .902 369.441 120.457)" gradientUnits="userSpaceOnUse"/><radialGradient xlink:href="#A" id="bA" gradientUnits="userSpaceOnUse" gradientTransform="matrix(1.724 .021 -.011 .852 -2.285 139.031)" cx="67.454" cy="937.073" fx="67.454" fy="937.073" r="76.074"/><filter id="B" x="-.084" width="1.168" y="-.683" height="2.367"><feGaussianBlur stdDeviation="9.981"/></filter><filter id="bQ" x="-.069" width="1.138" y="-1.037" height="3.074"><feGaussianBlur stdDeviation="5.437"/></filter><filter id="bR" x="-.073" width="1.146" y="-1.096" height="3.192"><feGaussianBlur stdDeviation="5.746"/></filter></defs><g transform="translate(0 -731.362)"><path d="M176.191 282.795a142.931 17.529 0 1 1-285.862 0 142.931 17.529 0 1 1 285.862 0z" transform="matrix(.934 0 0 .934 237.701 725.261)" opacity=".473" fill="#0e232e" filter="url(#B)"/><path d="M317.188 459.403s119.198 106.066 119.198 100.005c0-6.061 7.071-77.782 7.071-77.782l-81.822-41.416z" transform="matrix(.92 0 0 .843 -201.916 464.792)" fill="url(#C)" stroke="#000" filter="url(#D)"/><path d="M428.653 580.681c1.317-5.882-12.568-36.342-12.568-36.342l34.616-.536z" transform="matrix(.92 0 0 .843 -201.916 464.792)" fill="url(#E)" stroke="#000" stroke-width=".923" filter="url(#D)"/><path d="M193.045 917.682h16.728l6.505 7.665 129.175.852s13.94-13.626 9.293-13.626l-166.348-.852z" fill="url(#F)" filter="url(#D)"/><path d="M358.543 832.61c1.237-.063.895.465.351.612-1.474.398-3.683.045-4.462-.403-1.393-.802.44-1.736 3.058-2.045 3.842-.455 8.009.307 9.274 1.418 1.687 1.481-1.62 3.039-6.467 3.479-6.1.554-12.405-.657-14.087-2.434-2.037-2.151 2.794-4.351 9.876-4.912 8.346-.661 16.819 1.007 18.9 3.449.173.203.303.41.389.618" fill="url(#G)" filter="url(#D)"/><path d="M346.482 479.606l4.041-20.203 16.162 2.02-8.081 16.162z" transform="matrix(.92 0 0 .843 -201.916 464.792)" fill="url(#H)" stroke="#000" filter="url(#D)"/><path d="M383.417 489.226l11.429-17.143-12.857-10-5.714 17.143z" transform="matrix(.92 0 0 .843 -201.916 464.792)" fill="url(#I)" stroke="#000" filter="url(#D)"/><path d="M406.921 512.876l212.235-1.088v5.454l-212.235 4.027z" transform="matrix(.92 0 0 .843 -201.916 464.792)" opacity=".946" fill="url(#J)" stroke="#030000" stroke-width=".37" stroke-linecap="round" stroke-linejoin="round" filter="url(#D)"/><path d="M405.459 517.454l211.357 1.661v5.454l-211.357 1.279z" transform="matrix(.92 0 0 .843 -201.916 464.792)" opacity=".946" fill="url(#K)" stroke="#030000" stroke-width=".37" stroke-linecap="round" stroke-linejoin="round" filter="url(#D)"/><path d="M403.996 522.795l210.479-.184v10.504l-210.479-1.927z" transform="matrix(.92 0 0 .843 -201.916 464.792)" opacity=".946" fill="url(#L)" stroke="#030000" stroke-width=".37" stroke-linecap="round" stroke-linejoin="round" filter="url(#D)"/><path d="M180.533 820.276l11.828 10.84 95.284 4.818-4.6-40.95s-29.197-2.737-44.028 0c-21.132 3.9-58.484 25.292-58.484 25.292z" fill="url(#M)" filter="url(#D)"/><path d="M283.045 794.983s21.982-.342 30.885 4.818c7.639 4.427 9.857 32.519 9.857 32.519l-38.113-.602z" fill="url(#N)" filter="url(#D)"/><path d="M69.478 890.131l-3.943-29.508 11.171.602z" fill="url(#O)" filter="url(#D)"/><path d="M85.906 845.568l-13.143-3.011 3.943-4.215 8.543 1.204z" fill="url(#P)" filter="url(#D)"/><path d="M74.735 838.342l11.828 1.807c37.459-16.871 68.862-8.773 103.169-12.646l-9.2-6.022c-1.582-1.087-106.886 10.393-101.855 13.248.559.317-3.943 3.613-3.943 3.613z" fill="url(#Q)" filter="url(#D)"/><path d="M196.961 897.96l153.768 3.613 5.914-12.646-160.339-1.204z" fill="url(#R)" filter="url(#D)"/><path d="M532.143 501.648v-64.286l-102.684-2.561 1.97 28.571 1.429 38.276 100.714 2.857z" transform="matrix(.92 0 0 .843 -201.916 464.792)" fill="url(#S)" stroke="#0e9c06" stroke-width="2.6" filter="url(#D)"/><path d="M532.857 438.076l-2.143 65.714 79.286 2.857c27.225-38.602 59.272-37.018 92.143-28.571 31.437 6.69 38.428 15.824 52.143 24.286l-5-57.857z" transform="matrix(.92 0 0 .843 -201.916 464.792)" fill="url(#T)" stroke="#13ac16" stroke-width="2.9" filter="url(#D)"/><path d="M486.097 840.148l1.314-10.237-150.482 1.204-14.457 1.204-34.828-1.807-.657 5.42z" fill="url(#U)" filter="url(#D)"/><path d="M277.788 826.298c-.809 3.244-60.094.806-68.998 1.204-4.126.215-14.43-.682-11.171-3.011 8.606-6.152 29.279-17.822 45.999-21.679 11.685-2.695 32.859-1.008 34.828-1.204 3.611-.361-.325 16.488-.657 24.69z" fill="url(#V)" filter="url(#D)"/><path d="M292.245 826.9c-4.462 1.892 21.685 0 21.685 0s-2.876-15.928-3.286-20.475c-.559-6.211-9.392-3.188-19.714-4.818-3.334-.526 3.996 24.155 1.314 25.292z" fill="url(#W)" filter="url(#D)"/><path d="M324.085 835.52l-6.87-33.018 41.906 27.152 105.796-2.2 17.782 5.014z" fill="url(#X)" filter="url(#D)"/><path d="M73.188 844.47l-1.853 14.647 19.452 4.882-5.558-17.577z" fill="url(#Y)" filter="url(#D)"/><path transform="matrix(.536 0 0 .297 182.885 727.166)" d="M-30.305 509.91c-.216-1.155 1.451-.86 1.92-.358 1.271 1.361.196 3.447-1.203 4.198-2.502 1.343-5.464-.328-6.476-2.765-1.485-3.576.85-7.515 4.326-8.754 4.633-1.651 9.579 1.37 11.032 5.887 1.828 5.685-1.888 11.649-7.449 13.31-6.735 2.011-13.723-2.406-15.588-9.01-2.198-7.784 2.923-15.799 10.572-17.866.637-.172 1.285-.304 1.938-.394" fill="url(#Z)" stroke="#867f7f" stroke-width=".899" filter="url(#D)"/><path d="M-30.305 509.91c-.216-1.155 1.451-.86 1.92-.358 1.271 1.361.196 3.447-1.203 4.198-2.502 1.343-5.464-.328-6.476-2.765-1.485-3.576.85-7.515 4.326-8.754 4.633-1.651 9.579 1.37 11.032 5.887 1.828 5.685-1.888 11.649-7.449 13.31-6.735 2.011-13.723-2.406-15.588-9.01-2.198-7.784 2.923-15.799 10.572-17.866.637-.172 1.285-.304 1.938-.394" transform="matrix(.536 0 0 .297 184.084 723.853)" fill="url(#aa)" stroke="#867f7f" stroke-width=".899" filter="url(#D)"/><path transform="matrix(.536 0 0 .297 185.682 718.47)" d="M-30.305 509.91c-.216-1.155 1.451-.86 1.92-.358 1.271 1.361.196 3.447-1.203 4.198-2.502 1.343-5.464-.328-6.476-2.765-1.485-3.576.85-7.515 4.326-8.754 4.633-1.651 9.579 1.37 11.032 5.887 1.828 5.685-1.888 11.649-7.449 13.31-6.735 2.011-13.723-2.406-15.588-9.01-2.198-7.784 2.923-15.799 10.572-17.866.637-.172 1.285-.304 1.938-.394" fill="url(#ab)" stroke="#867f7f" stroke-width=".899" filter="url(#D)"/><path d="M-30.305 509.91c-.216-1.155 1.451-.86 1.92-.358 1.271 1.361.196 3.447-1.203 4.198-2.502 1.343-5.464-.328-6.476-2.765-1.485-3.576.85-7.515 4.326-8.754 4.633-1.651 9.579 1.37 11.032 5.887 1.828 5.685-1.888 11.649-7.449 13.31-6.735 2.011-13.723-2.406-15.588-9.01-2.198-7.784 2.923-15.799 10.572-17.866.637-.172 1.285-.304 1.938-.394" transform="matrix(.536 0 0 .297 183.684 726.751)" fill="url(#ac)" stroke="#867f7f" stroke-width=".899" filter="url(#D)"/><path transform="matrix(.536 0 0 .297 184.883 723.439)" d="M-30.305 509.91c-.216-1.155 1.451-.86 1.92-.358 1.271 1.361.196 3.447-1.203 4.198-2.502 1.343-5.464-.328-6.476-2.765-1.485-3.576.85-7.515 4.326-8.754 4.633-1.651 9.579 1.37 11.032 5.887 1.828 5.685-1.888 11.649-7.449 13.31-6.735 2.011-13.723-2.406-15.588-9.01-2.198-7.784 2.923-15.799 10.572-17.866.637-.172 1.285-.304 1.938-.394" fill="url(#ad)" stroke="#867f7f" stroke-width=".899" filter="url(#D)"/><path d="M-30.305 509.91c-.216-1.155 1.451-.86 1.92-.358 1.271 1.361.196 3.447-1.203 4.198-2.502 1.343-5.464-.328-6.476-2.765-1.485-3.576.85-7.515 4.326-8.754 4.633-1.651 9.579 1.37 11.032 5.887 1.828 5.685-1.888 11.649-7.449 13.31-6.735 2.011-13.723-2.406-15.588-9.01-2.198-7.784 2.923-15.799 10.572-17.866.637-.172 1.285-.304 1.938-.394" transform="matrix(.536 0 0 .297 186.481 718.055)" fill="url(#ae)" stroke="#867f7f" stroke-width=".899" filter="url(#D)"/><path d="M343.497 951.748c0-7.184-16.63-39.001-16.63-39.001l31.597-1.026z" opacity=".883" fill="url(#af)" filter="url(#D)"/><path d="M293.571 507.362c10.179-21.989 26.489-38.724 50-49.286 91.027-5.921 59.081 34.273 88.571 51.429-2.273-26.796 3.907-63.736-7.143-80-38.095 2.744-76.19 1.6-114.286 15l7.143 25.714-15-.714z" transform="matrix(.92 0 0 .843 -201.916 464.792)" fill="url(#ag)" stroke="#1adf24" stroke-width=".7" filter="url(#D)"/><path d="M171.206 853.431c-.271-22.173 50.533-12.445 70.063-17.216 0 0-40.254 24.398-10.067 23.778 37.934-.78 35.837-39.882 71.099-23.225-10.169-5.958-44.439 16.464-32.089 29.308 13.168 13.694 49.746-7.828 59.145-13.824 17.284-11.027 64.884-7.588 64.884-7.588-47.269-4.98-66.759 41.881-79.354 40.935-58.179-4.369-113.511-2.872-125.284-2.237z" fill="url(#ah)" filter="url(#D)"/><path d="M442.294 843.221l13.618-.322-5.35 5.639h-12.889z" opacity=".644" fill="url(#ai)" filter="url(#D)"/><path d="M437.43 849.022l13.618-.322-5.35 5.639h-12.889z" opacity=".644" fill="url(#aj)" filter="url(#D)"/><path d="M451.535 849.505l13.618-.322-5.35 5.639h-12.889z" opacity=".644" fill="url(#ak)" filter="url(#D)"/><path d="M446.671 855.305l13.618-.322-5.35 5.639h-12.889z" opacity=".644" fill="url(#al)" filter="url(#D)"/><path d="M471.233 843.06l13.618-.322-5.35 5.639h-12.889z" opacity=".644" fill="url(#am)" filter="url(#D)"/><path d="M466.369 848.86l13.618-.322-5.35 5.639h-12.889z" opacity=".644" fill="url(#an)" filter="url(#D)"/><path d="M442.294 843.221l13.618-.322-5.35 5.639h-12.889z" opacity=".644" fill="url(#ao)" filter="url(#D)"/><path d="M437.43 849.022l13.618-.322-5.35 5.639h-12.889z" opacity=".644" fill="url(#ap)" filter="url(#D)"/><path d="M451.535 849.505l13.618-.322-5.35 5.639h-12.889z" opacity=".644" fill="url(#aq)" filter="url(#D)"/><path d="M446.671 855.305l13.618-.322-5.35 5.639h-12.889z" opacity=".644" fill="url(#ar)" filter="url(#D)"/><path d="M471.233 843.06l13.618-.322-5.35 5.639h-12.889z" opacity=".644" fill="url(#as)" filter="url(#D)"/><path d="M466.369 848.86l13.618-.322-5.35 5.639h-12.889z" opacity=".644" fill="url(#at)" filter="url(#D)"/><rect rx="13.461" ry="1.082" y="411.926" x="594.324" height="4.329" width="26.922" transform="matrix(.92 0 0 .843 -201.916 464.792)" fill="url(#au)" filter="url(#D)"/><rect width="26.922" height="3.367" x="593.939" y="418.179" ry=".842" rx="13.461" transform="matrix(.92 0 0 .843 -201.916 464.792)" fill="url(#av)" filter="url(#D)"/><rect rx="13.461" ry=".842" y="423.47" x="593.939" height="3.367" width="26.922" transform="matrix(.92 0 0 .843 -201.916 464.792)" fill="url(#aw)" filter="url(#D)"/><rect width="26.922" height="3.367" x="593.939" y="428.761" ry=".842" rx="13.461" transform="matrix(.92 0 0 .843 -201.916 464.792)" fill="url(#ax)" filter="url(#D)"/><path d="M594.708 431.166l14.23-4.329-6.923-5.772 9.615-5.291" transform="matrix(.92 0 0 .843 -201.916 464.792)" fill="url(#ay)" stroke="#000" stroke-width=".426" filter="url(#D)"/><path d="M755.594 487.687s-12.122-35.355-7.071-33.335c5.051 2.02 15.152 4.041 15.152 4.041l2.02 22.223z" transform="matrix(.92 0 0 .843 -201.916 464.792)" fill="url(#az)" stroke="#000" stroke-width=".4" filter="url(#D)"/><path d="M90.971 852.315s111.303 99.041 111.303 93.382c0-5.659 6.603-72.63 6.603-72.63l-76.403-38.673z" fill="#2d2d2d" stroke="#000" stroke-width=".934"/><path d="M195.054 969.296c1.229-5.492-11.735-33.935-11.735-33.935l21.005-1.444z" fill="#0e232e" stroke="#000" stroke-width=".862"/><path d="M195.672 924.945h16.978l6.603 8.489 131.112.943s14.149-15.092 9.432-15.092c-4.716 0-168.842-.943-168.842-.943z" fill="url(#aA)"/><path d="M363.651 830.722c1.255-.07.908.516.356.678-1.496.44-3.738.05-4.529-.446-1.414-.889.447-1.922 3.104-2.265 3.899-.504 8.129.34 9.413 1.571 1.712 1.641-1.644 3.366-6.564 3.853-6.191.613-12.591-.728-14.298-2.695-2.067-2.383 2.836-4.82 10.024-5.44 8.471-.732 17.071 1.115 19.183 3.82.176.225.308.454.395.685" fill="url(#aB)"/><path d="M118.326 871.18l3.773-18.865 15.092 1.886-7.546 15.092z" fill="url(#aC)" stroke="#000" stroke-width=".934"/><path d="M152.814 880.164l10.672-16.007-12.006-9.338-5.336 16.007z" fill="url(#aD)" stroke="#000" stroke-width=".934"/><path d="M37.206 892.875l1.886-35.843 12.262.943v-6.603l10.376.943v6.603l13.205 1.887-7.546 1.886v8.489l2.83 18.865-22.638 11.319z" fill="#0e232e"/><path d="M174.762 902.246l198.179-1.016v5.092l-198.179 3.761z" opacity=".946" fill="url(#aE)" stroke="#030000" stroke-width=".345" stroke-linecap="round" stroke-linejoin="round"/><path d="M173.396 906.521l197.359 1.551v5.092l-197.359 1.195z" opacity=".946" fill="url(#aF)" stroke="#030000" stroke-width=".345" stroke-linecap="round" stroke-linejoin="round"/><path d="M172.03 911.509l196.539-.172v9.809l-196.539-1.799z" opacity=".946" fill="url(#aG)" stroke="#030000" stroke-width=".345" stroke-linecap="round" stroke-linejoin="round"/><path d="M182.972 817.061l12.006 12.006 96.712 5.336-4.669-45.355s-29.635-3.032-44.687 0c-21.449 4.32-59.361 28.013-59.361 28.013z" fill="url(#aH)"/><path d="M287.021 789.048s22.311-.379 31.348 5.336c7.753 4.903 10.005 36.017 10.005 36.017l-38.685-.667z" fill="url(#aI)"/><path d="M70.253 898.165l-4.002-32.682 11.339.667zM86.927 845.074l-13.34-3.335 4.002-4.669 8.671 1.334z" fill="#9ade00"/><path d="M75.589 837.07l12.006 2.001c38.02-18.686 69.895-9.717 104.715-14.007l-9.338-6.67c-1.605-1.204-108.488 11.511-103.382 14.673.567.351-4.002 4.002-4.002 4.002z" fill="url(#aJ)"/><path d="M199.647 903.101l156.073 4.002 6.003-14.007-162.742-1.334z" fill="url(#aK)"/><path d="M291.69 891.762v-60.028l-95.883-2.392 1.839 26.679 1.334 35.741 94.044 2.668z" fill="url(#aL)"/><path d="M292.356 832.401l-2.001 61.362 74.034 2.668c25.422-36.045 55.346-34.566 86.04-26.679 29.355 6.247 35.882 14.776 48.689 22.677l-4.669-54.025z" fill="url(#aM)"/><path d="M493.117 839.071l1.334-11.339-152.738 1.334-14.674 1.334-35.35-2.001-.667 6.003z" fill="url(#aN)"/><path d="M281.685 823.731c-.821 3.593-60.995.893-70.033 1.334-4.188.238-14.646-.755-11.339-3.335 8.735-6.813 29.718-19.739 46.688-24.011 11.86-2.985 33.351-1.116 35.35-1.334 3.666-.399-.33 18.262-.667 27.346z" fill="url(#aO)"/><path d="M296.358 824.398c-4.529 2.095 22.01 0 22.01 0s-2.919-17.641-3.335-22.677c-.568-6.879-9.533-3.531-20.009-5.336-3.384-.583 4.056 26.754 1.334 28.013z" fill="url(#aP)"/><path d="M328.676 833.945l-6.973-36.569 42.534 30.073 107.382-2.436 18.048 5.554z" fill="#0e232e"/><path d="M433.104 870.151c-43.872 0-79.452 33.717-79.452 75.287 0 41.569 35.58 75.261 79.452 75.261s79.426-33.691 79.426-75.261c0-41.569-35.554-75.287-79.426-75.287zm0 18.157c33.29 0 60.266 25.587 60.266 57.13 0 31.543-26.976 57.104-60.266 57.104s-60.292-25.561-60.292-57.104 27.002-57.13 60.292-57.13z" opacity=".946" fill="#0e232e"/><path transform="matrix(1.025 0 0 1.043 74.876 101.497)" d="M405 809.148a54.643 48.929 0 1 1-109.286 0 54.643 48.929 0 1 1 109.286 0z" opacity=".946" fill="#2d2d2d"/><path d="M433.099 897.58c-27.885 0-50.501 21.431-50.501 47.853s22.615 47.836 50.501 47.836c27.885 0 50.484-21.414 50.484-47.836 0-26.422-22.599-47.853-50.484-47.853zm0 11.54c21.159 0 38.305 16.263 38.305 36.313 0 20.049-17.146 36.296-38.305 36.296-21.16 0-38.322-16.247-38.322-36.296s17.163-36.313 38.322-36.313z" opacity=".946" fill="url(#aQ)"/><path d="M432.101 916.939c-3.31 0-5.99 2.541-5.99 5.671 0 3.13 2.68 5.663 5.99 5.663s5.99-2.533 5.99-5.663c0-3.13-2.68-5.671-5.99-5.671zm0 1.24c2.586 0 4.679 1.986 4.679 4.431 0 2.445-2.093 4.423-4.679 4.423-2.586 0-4.679-1.978-4.679-4.423 0-2.445 2.093-4.431 4.679-4.431z" opacity=".946" fill="url(#aR)"/><path d="M431.567 965.628c-3.31 0-5.99 2.541-5.99 5.671 0 3.13 2.68 5.663 5.99 5.663s5.99-2.533 5.99-5.663c0-3.13-2.68-5.671-5.99-5.671zm0 1.24c2.586 0 4.679 1.986 4.679 4.431 0 2.445-2.093 4.423-4.679 4.423-2.586 0-4.679-1.978-4.679-4.423 0-2.445 2.093-4.431 4.679-4.431z" opacity=".946" fill="url(#aS)"/><path d="M447.071 921.093c-2.867-1.655-6.458-.795-8.023 1.916-1.565 2.711-.511 6.244 2.356 7.9 2.867 1.655 6.454.802 8.019-1.909 1.565-2.711.515-6.251-2.352-7.907zm-.62 1.074c2.24 1.293 3.059 4.059 1.837 6.177-1.223 2.118-4.024 2.784-6.264 1.491-2.24-1.293-3.063-4.052-1.841-6.17 1.223-2.118 4.028-2.791 6.268-1.498z" opacity=".946" fill="url(#aT)"/><path d="M422.264 962.993c-2.867-1.655-6.458-.795-8.023 1.916-1.565 2.711-.511 6.244 2.356 7.9 2.867 1.655 6.454.802 8.019-1.909 1.565-2.711.515-6.251-2.352-7.907zm-.62 1.074c2.24 1.293 3.059 4.059 1.837 6.177-1.223 2.118-4.024 2.784-6.264 1.491-2.24-1.293-3.063-4.052-1.841-6.17 1.223-2.118 4.028-2.791 6.268-1.498z" opacity=".946" fill="url(#aU)"/><path d="M457.959 932.177c-1.655-2.867-5.196-3.917-7.907-2.352-2.711 1.565-3.564 5.153-1.909 8.019 1.655 2.867 5.189 3.921 7.9 2.356 2.711-1.565 3.571-5.157 1.916-8.023zm-1.074.62c1.293 2.24.62 5.045-1.498 6.268-2.118 1.223-4.877.399-6.17-1.841-1.293-2.24-.627-5.041 1.491-6.264 2.118-1.223 4.884-.403 6.177 1.837z" opacity=".946" fill="url(#aV)"/><path d="M415.526 956.059c-1.655-2.867-5.196-3.917-7.907-2.352-2.711 1.565-3.564 5.153-1.909 8.019 1.655 2.867 5.189 3.921 7.9 2.356 2.711-1.565 3.571-5.157 1.916-8.023zm-1.074.62c1.293 2.24.62 5.045-1.498 6.268-2.118 1.223-4.877.399-6.17-1.841-1.293-2.24-.627-5.041 1.491-6.264 2.118-1.223 4.884-.403 6.177 1.837z" opacity=".946" fill="url(#aW)"/><path d="M461.847 947.219c0-3.31-2.541-5.99-5.671-5.99-3.13 0-5.663 2.68-5.663 5.99s2.533 5.99 5.663 5.99c3.13 0 5.671-2.68 5.671-5.99zm-1.24 0c0 2.586-1.986 4.679-4.431 4.679-2.446 0-4.423-2.093-4.423-4.679 0-2.586 1.978-4.679 4.423-4.679 2.445 0 4.431 2.093 4.431 4.679z" opacity=".946" fill="url(#aX)"/><path d="M413.158 946.685c0-3.31-2.541-5.99-5.671-5.99-3.13 0-5.663 2.68-5.663 5.99s2.533 5.99 5.663 5.99c3.13 0 5.671-2.68 5.671-5.99zm-1.24 0c0 2.586-1.986 4.679-4.431 4.679-2.446 0-4.423-2.093-4.423-4.679 0-2.586 1.978-4.679 4.423-4.679 2.446 0 4.431 2.093 4.431 4.679z" opacity=".946" fill="url(#aY)"/><path d="M457.693 962.189c1.655-2.867.795-6.458-1.916-8.023-2.711-1.565-6.244-.511-7.9 2.356-1.655 2.867-.801 6.454 1.909 8.019 2.711 1.565 6.251.515 7.907-2.352zm-1.074-.62c-1.293 2.24-4.059 3.059-6.177 1.837-2.118-1.223-2.784-4.024-1.491-6.264 1.293-2.24 4.052-3.063 6.17-1.841 2.118 1.223 2.791 4.028 1.498 6.268z" opacity=".946" fill="url(#aZ)"/><path d="M415.793 937.382c1.655-2.867.795-6.458-1.916-8.023-2.711-1.565-6.244-.511-7.9 2.356-1.655 2.867-.802 6.454 1.909 8.019 2.711 1.565 6.251.515 7.907-2.352zm-1.074-.62c-1.293 2.24-4.059 3.059-6.177 1.837-2.118-1.223-2.784-4.024-1.491-6.264 1.293-2.24 4.052-3.063 6.17-1.841 2.118 1.223 2.791 4.028 1.498 6.268z" opacity=".946" fill="url(#ba)"/><path d="M446.609 973.077c2.867-1.655 3.917-5.196 2.352-7.907-1.565-2.711-5.153-3.564-8.019-1.909-2.867 1.655-3.921 5.189-2.356 7.9 1.565 2.711 5.157 3.571 8.023 1.916zm-.62-1.074c-2.24 1.293-5.045.62-6.268-1.498-1.223-2.118-.399-4.877 1.841-6.17 2.24-1.293 5.041-.627 6.264 1.491 1.223 2.118.403 4.884-1.837 6.177z" opacity=".946" fill="url(#bb)"/><path d="M422.726 930.644c2.867-1.655 3.917-5.196 2.352-7.907-1.565-2.711-5.153-3.565-8.019-1.909-2.867 1.655-3.921 5.189-2.356 7.9 1.565 2.711 5.157 3.571 8.023 1.916zm-.62-1.074c-2.24 1.293-5.045.62-6.268-1.498-1.223-2.118-.399-4.877 1.841-6.17 2.24-1.293 5.041-.627 6.264 1.491 1.223 2.118.403 4.884-1.837 6.177z" opacity=".946" fill="url(#bc)"/><path d="M450.776 970.973c-1.269.979-16.305-19.854-17.907-19.808-1.601.046-15.416 21.708-16.738 20.804-1.323-.904 13.843-21.642 13.305-23.151-.539-1.509-25.41-7.953-24.958-9.49.451-1.537 24.861 6.478 26.129 5.499 1.269-.979-.288-26.624 1.313-26.67 1.601-.046 1.521 25.646 2.844 26.55 1.323.904 25.231-8.501 25.77-6.992.539 1.509-23.921 9.372-24.372 10.909-.451 1.537 15.882 21.37 14.614 22.348z" opacity=".946" fill="url(#bd)"/><path d="M74.019 843.858l-1.88 16.223 19.744 5.408-5.641-19.467z" fill="#9ade00"/><path d="M-30.305 509.91c-.216-1.155 1.451-.86 1.92-.358 1.271 1.361.196 3.447-1.203 4.198-2.502 1.343-5.464-.328-6.476-2.765-1.485-3.576.85-7.515 4.326-8.754 4.633-1.651 9.579 1.37 11.032 5.887 1.828 5.685-1.888 11.649-7.449 13.31-6.735 2.011-13.723-2.406-15.588-9.01-2.198-7.784 2.923-15.799 10.572-17.866.637-.172 1.285-.304 1.938-.394" transform="matrix(.545 0 0 .329 185.36 713.534)" stroke="#867f7f" stroke-width=".899" fill="none"/><path transform="matrix(.545 0 0 .329 186.576 709.864)" d="M-30.305 509.91c-.216-1.155 1.451-.86 1.92-.358 1.271 1.361.196 3.447-1.203 4.198-2.502 1.343-5.464-.328-6.476-2.765-1.485-3.576.85-7.515 4.326-8.754 4.633-1.651 9.579 1.37 11.032 5.887 1.828 5.685-1.888 11.649-7.449 13.31-6.735 2.011-13.723-2.406-15.588-9.01-2.198-7.784 2.923-15.799 10.572-17.866.637-.172 1.285-.304 1.938-.394" stroke="#867f7f" stroke-width=".899" fill="none"/><path d="M-30.305 509.91c-.216-1.155 1.451-.86 1.92-.358 1.271 1.361.196 3.447-1.203 4.198-2.502 1.343-5.464-.328-6.476-2.765-1.485-3.576.85-7.515 4.326-8.754 4.633-1.651 9.579 1.37 11.032 5.887 1.828 5.685-1.888 11.649-7.449 13.31-6.735 2.011-13.723-2.406-15.588-9.01-2.198-7.784 2.923-15.799 10.572-17.866.637-.172 1.285-.304 1.938-.394" transform="matrix(.545 0 0 .329 188.198 703.902)" stroke="#867f7f" stroke-width=".899" fill="none"/><path transform="matrix(.545 0 0 .329 186.171 713.075)" d="M-30.305 509.91c-.216-1.155 1.451-.86 1.92-.358 1.271 1.361.196 3.447-1.203 4.198-2.502 1.343-5.464-.328-6.476-2.765-1.485-3.576.85-7.515 4.326-8.754 4.633-1.651 9.579 1.37 11.032 5.887 1.828 5.685-1.888 11.649-7.449 13.31-6.735 2.011-13.723-2.406-15.588-9.01-2.198-7.784 2.923-15.799 10.572-17.866.637-.172 1.285-.304 1.938-.394" stroke="#867f7f" stroke-width=".899" fill="none"/><path d="M-30.305 509.91c-.216-1.155 1.451-.86 1.92-.358 1.271 1.361.196 3.447-1.203 4.198-2.502 1.343-5.464-.328-6.476-2.765-1.485-3.576.85-7.515 4.326-8.754 4.633-1.651 9.579 1.37 11.032 5.887 1.828 5.685-1.888 11.649-7.449 13.31-6.735 2.011-13.723-2.406-15.588-9.01-2.198-7.784 2.923-15.799 10.572-17.866.637-.172 1.285-.304 1.938-.394" transform="matrix(.545 0 0 .329 187.387 709.406)" stroke="#867f7f" stroke-width=".899" fill="none"/><path transform="matrix(.545 0 0 .329 189.009 703.444)" d="M-30.305 509.91c-.216-1.155 1.451-.86 1.92-.358 1.271 1.361.196 3.447-1.203 4.198-2.502 1.343-5.464-.328-6.476-2.765-1.485-3.576.85-7.515 4.326-8.754 4.633-1.651 9.579 1.37 11.032 5.887 1.828 5.685-1.888 11.649-7.449 13.31-6.735 2.011-13.723-2.406-15.588-9.01-2.198-7.784 2.923-15.799 10.572-17.866.637-.172 1.285-.304 1.938-.394" stroke="#867f7f" stroke-width=".899" fill="none"/><path d="M348.379 962.675c0-7.957-16.879-43.196-16.879-43.196l32.07-1.137z" opacity=".883" fill="#0e232e"/><path d="M68.919 897.098c9.505-20.533 24.735-36.159 46.688-46.021 84.998-5.529 55.168 32.003 82.705 48.022-2.122-25.021 3.648-59.515-6.67-74.701-35.572 2.562-71.144 1.494-106.716 14.007l6.67 24.011-14.007-.667z" fill="url(#be)" stroke="#1adf24" stroke-width=".654"/><path d="M112.399 870.113c-43.872 0-79.452 33.717-79.452 75.287 0 41.569 35.58 75.261 79.452 75.261s79.426-33.691 79.426-75.261c0-41.569-35.554-75.287-79.426-75.287zm0 18.157c33.29 0 60.266 25.587 60.266 57.13 0 31.543-26.976 57.104-60.266 57.104s-60.292-25.561-60.292-57.104 27.002-57.13 60.292-57.13z" opacity=".946" fill="#0e232e"/><path d="M169.296 945.4c0 28.184-25.076 51.032-56.009 51.032s-56.009-22.848-56.009-51.032c0-28.184 25.076-51.032 56.009-51.032s56.009 22.848 56.009 51.032z" opacity=".946" fill="#2d2d2d"/><path d="M112.395 895.773c-28.917 0-52.368 22.224-52.368 49.623 0 27.399 23.452 49.606 52.368 49.606 28.917 0 52.351-22.207 52.351-49.606s-23.434-49.623-52.351-49.623zm0 11.967c21.942 0 39.722 16.865 39.722 37.656s-17.78 37.638-39.722 37.638-39.74-16.848-39.74-37.638c0-20.791 17.797-37.656 39.74-37.656z" opacity=".946" fill="url(#bf)"/><path d="M111.529 917.06c-3.311 0-5.992 2.542-5.992 5.673 0 3.131 2.681 5.665 5.992 5.665s5.992-2.534 5.992-5.665c0-3.131-2.681-5.673-5.992-5.673zm0 1.24c2.587 0 4.68 1.986 4.68 4.432 0 2.446-2.094 4.424-4.68 4.424-2.587 0-4.68-1.978-4.68-4.424 0-2.446 2.094-4.432 4.68-4.432z" opacity=".946" fill="url(#bg)"/><path d="M110.995 965.761c-3.311 0-5.992 2.542-5.992 5.673 0 3.131 2.681 5.665 5.992 5.665s5.992-2.534 5.992-5.665c0-3.131-2.681-5.673-5.992-5.673zm0 1.24c2.587 0 4.68 1.986 4.68 4.432 0 2.446-2.094 4.424-4.68 4.424-2.587 0-4.68-1.978-4.68-4.424 0-2.446 2.094-4.432 4.68-4.432z" opacity=".946" fill="url(#bh)"/><path d="M126.503 921.215c-2.867-1.656-6.46-.795-8.025 1.917-1.566 2.712-.511 6.246 2.357 7.902 2.868 1.656 6.456.802 8.021-1.91 1.566-2.712.515-6.253-2.353-7.909zm-.62 1.074c2.24 1.293 3.06 4.06 1.837 6.179-1.223 2.118-4.025 2.785-6.265 1.492-2.24-1.293-3.064-4.053-1.841-6.172 1.223-2.118 4.029-2.792 6.27-1.498z" opacity=".946" fill="url(#bi)"/><path d="M101.69 963.125c-2.868-1.656-6.46-.795-8.025 1.917-1.566 2.712-.511 6.246 2.357 7.902 2.868 1.656 6.456.802 8.021-1.91 1.566-2.712.515-6.253-2.353-7.909zm-.62 1.074c2.24 1.293 3.06 4.06 1.837 6.179-1.223 2.118-4.025 2.785-6.266 1.492-2.24-1.293-3.064-4.053-1.841-6.172 1.223-2.118 4.029-2.792 6.27-1.499z" opacity=".946" fill="url(#bj)"/><path d="M137.393 932.302c-1.656-2.867-5.197-3.918-7.909-2.353-2.712 1.566-3.565 5.154-1.91 8.021 1.656 2.868 5.19 3.922 7.902 2.357 2.712-1.566 3.572-5.158 1.917-8.025zm-1.074.62c1.293 2.24.62 5.046-1.499 6.27-2.118 1.223-4.878.399-6.172-1.841-1.293-2.24-.627-5.042 1.492-6.266 2.118-1.223 4.885-.403 6.179 1.837z" opacity=".946" fill="url(#bk)"/><path d="M94.95 956.19c-1.656-2.868-5.197-3.918-7.909-2.353-2.712 1.566-3.565 5.154-1.91 8.021 1.656 2.867 5.19 3.922 7.902 2.357 2.712-1.566 3.572-5.158 1.917-8.025zm-1.074.62c1.293 2.24.62 5.046-1.499 6.27-2.118 1.223-4.878.399-6.172-1.841-1.293-2.24-.627-5.042 1.492-6.266 2.118-1.223 4.885-.403 6.179 1.837z" opacity=".946" fill="url(#bl)"/><path d="M141.282 947.347c0-3.311-2.542-5.992-5.673-5.992-3.131 0-5.665 2.681-5.665 5.992s2.534 5.992 5.665 5.992c3.131 0 5.673-2.681 5.673-5.992zm-1.24 0c0 2.587-1.986 4.68-4.432 4.68-2.446 0-4.424-2.094-4.424-4.68 0-2.587 1.978-4.68 4.424-4.68 2.446 0 4.432 2.093 4.432 4.68z" opacity=".946" fill="url(#bm)"/><path d="M92.581 946.814c0-3.311-2.542-5.992-5.673-5.992-3.131 0-5.665 2.681-5.665 5.992s2.534 5.992 5.665 5.992c3.131 0 5.673-2.681 5.673-5.992zm-1.24 0c0 2.587-1.986 4.68-4.432 4.68-2.446 0-4.425-2.094-4.424-4.68 0-2.587 1.978-4.68 4.424-4.68 2.446 0 4.433 2.094 4.432 4.68z" opacity=".946" fill="url(#bn)"/><path d="M137.127 962.321c1.656-2.867.795-6.46-1.917-8.025-2.712-1.566-6.246-.511-7.902 2.357-1.656 2.868-.802 6.456 1.91 8.021 2.712 1.566 6.253.515 7.909-2.353zm-1.074-.62c-1.293 2.24-4.06 3.06-6.179 1.837-2.118-1.223-2.785-4.025-1.492-6.265 1.293-2.24 4.053-3.064 6.172-1.841 2.118 1.223 2.792 4.029 1.498 6.27z" opacity=".946" fill="url(#bo)"/><path d="M95.217 937.508c1.656-2.868.795-6.46-1.917-8.025-2.712-1.566-6.246-.511-7.902 2.357-1.656 2.867-.802 6.456 1.91 8.021 2.712 1.566 6.253.515 7.909-2.353zm-1.074-.62c-1.293 2.24-4.06 3.06-6.179 1.837-2.118-1.223-2.785-4.025-1.492-6.266 1.293-2.24 4.053-3.064 6.172-1.841 2.118 1.223 2.792 4.029 1.499 6.27z" opacity=".946" fill="url(#bp)"/><path d="M126.04 973.212c2.868-1.656 3.918-5.197 2.353-7.909-1.566-2.712-5.154-3.565-8.021-1.91-2.867 1.656-3.922 5.19-2.357 7.902 1.566 2.712 5.158 3.572 8.025 1.917zm-.62-1.074c-2.24 1.293-5.046.62-6.269-1.499-1.223-2.118-.399-4.878 1.841-6.172 2.24-1.293 5.042-.627 6.266 1.492 1.223 2.118.403 4.885-1.837 6.179z" opacity=".946" fill="url(#bq)"/><path d="M102.152 930.769c2.868-1.656 3.918-5.197 2.353-7.909-1.566-2.712-5.154-3.565-8.021-1.91-2.867 1.656-3.922 5.19-2.357 7.902 1.566 2.712 5.158 3.572 8.025 1.917zm-.62-1.074c-2.24 1.293-5.046.62-6.27-1.498-1.223-2.118-.399-4.878 1.841-6.172 2.24-1.293 5.042-.627 6.266 1.492 1.223 2.118.403 4.885-1.837 6.179z" opacity=".946" fill="url(#br)"/><path d="M130.208 971.11c-1.269.979-16.309-19.859-17.911-19.813-1.602.046-15.42 21.714-16.743 20.809-1.323-.904 13.847-21.648 13.308-23.157-.539-1.509-25.416-7.955-24.965-9.493.451-1.538 24.867 6.48 26.136 5.501 1.269-.979-.288-26.63 1.314-26.676 1.602-.046 1.522 25.652 2.845 26.557 1.323.904 25.238-8.503 25.777-6.994.539 1.509-23.927 9.374-24.378 10.912-.451 1.538 15.886 21.375 14.617 22.354z" opacity=".946" fill="url(#bs)"/><path d="M169.309 852.104c-.275-24.558 55.488-12.105 75.311-17.389 0 0-40.857 27.023-10.218 26.336 38.502-.864 36.374-44.172 72.165-25.723-10.321-6.599-45.105 18.235-32.57 32.46 13.365 15.167 50.491-8.67 60.031-15.311 17.543-12.213 65.856-8.404 65.856-8.404-47.977-5.515-67.76 46.386-80.543 45.339-59.051-4.839-115.212-3.181-127.162-2.478-6.479-11.05-11.083-26.297-22.87-34.829z" opacity=".741" fill="url(#bt)"/><path d="M448.656 842.475l13.823-.357-5.43 6.246h-13.082z" opacity=".644" fill="#fff"/><path d="M443.72 848.899l13.823-.357-5.43 6.246h-13.082z" opacity=".644" fill="#0e232e"/><path d="M458.036 849.434l13.823-.357-5.43 6.246h-13.082z" opacity=".644" fill="#fff"/><path d="M453.099 855.859l13.823-.357-5.43 6.246h-13.082z" opacity=".644" fill="#0e232e"/><path d="M478.029 842.296l13.823-.357-5.43 6.246h-13.082z" opacity=".644" fill="#fff"/><path d="M473.093 848.721l13.823-.357-5.43 6.246h-13.082z" opacity=".644" fill="#0e232e"/><path d="M448.656 842.475l13.823-.357-5.43 6.246h-13.082z" opacity=".644" fill="#fff"/><path d="M443.72 848.899l13.823-.357-5.43 6.246h-13.082z" opacity=".644" fill="#0e232e"/><path d="M458.036 849.434l13.823-.357-5.43 6.246h-13.082z" opacity=".644" fill="#fff"/><path d="M453.099 855.859l13.823-.357-5.43 6.246h-13.082z" opacity=".644" fill="#0e232e"/><path d="M478.029 842.296l13.823-.357-5.43 6.246h-13.082z" opacity=".644" fill="#fff"/><path d="M473.093 848.721l13.823-.357-5.43 6.246h-13.082z" opacity=".644" fill="#0e232e"/><rect width="25.139" height="4.042" x="349.752" y="807.983" ry="1.011" rx="12.57" fill="url(#bu)"/><rect rx="12.57" ry=".786" y="813.822" x="349.393" height="3.144" width="25.139" fill="url(#bv)"/><rect width="25.139" height="3.144" x="349.393" y="818.762" ry=".786" rx="12.57" fill="url(#bw)"/><rect rx="12.57" ry=".786" y="823.703" x="349.393" height="3.144" width="25.139" fill="url(#bx)"/><path d="M350.111 825.949l13.288-4.042-6.464-5.39 8.978-4.941" fill="url(#by)" stroke="#000" stroke-width=".398"/><path d="M500.341 878.726s-6.283-30.495-1.566-28.609c4.716 1.887 9.112 1.255 9.112 1.255l-3.989 20.751z" fill="url(#bz)" stroke="#000" stroke-width=".374"/><path d="M110.299 879.944c-38.072 0-68.948 29.022-68.948 64.803s30.876 64.781 68.948 64.781c38.072 0 68.925-29 68.925-64.781 0-35.781-30.854-64.803-68.925-64.803zm0 15.628c28.889 0 52.298 22.024 52.298 49.175 0 27.151-23.409 49.153-52.298 49.153-28.889 0-52.321-22.002-52.321-49.153s23.432-49.175 52.321-49.175z" opacity=".946" fill="url(#bA)"/><path transform="matrix(.917 0 0 .933 -207.933 190.739)" d="M405 809.148a54.643 48.929 0 1 1-109.286 0 54.643 48.929 0 1 1 109.286 0z" opacity=".946" fill="#2d2d2d"/><path d="M112.394 902.889c-25.858 0-46.828 19.873-46.828 44.373 0 24.501 20.971 44.358 46.828 44.358 25.858 0 46.813-19.857 46.813-44.358 0-24.501-20.955-44.373-46.813-44.373zm0 10.701c19.621 0 35.52 15.081 35.52 33.672 0 18.591-15.899 33.657-35.52 33.657-19.621 0-35.535-15.065-35.535-33.657 0-18.591 15.915-33.672 35.535-33.672z" opacity=".946" fill="url(#bB)"/><path d="M111.501 919.914c-2.96 0-5.357 2.272-5.357 5.071s2.396 5.064 5.357 5.064c2.96 0 5.357-2.265 5.357-5.064s-2.396-5.071-5.357-5.071zm0 1.109c2.313 0 4.184 1.776 4.184 3.963 0 2.187-1.872 3.955-4.184 3.955-2.313 0-4.184-1.769-4.184-3.955 0-2.187 1.872-3.963 4.184-3.963z" opacity=".946" fill="url(#bC)"/><path d="M111.024 963.453c-2.96 0-5.357 2.272-5.357 5.071s2.396 5.064 5.357 5.064c2.96 0 5.357-2.265 5.357-5.064s-2.396-5.071-5.357-5.071zm0 1.109c2.313 0 4.184 1.776 4.184 3.963 0 2.187-1.872 3.955-4.184 3.955-2.313 0-4.184-1.769-4.184-3.955 0-2.187 1.872-3.963 4.184-3.963z" opacity=".946" fill="url(#bD)"/><path d="M124.888 923.629c-2.564-1.48-5.775-.711-7.175 1.714-1.4 2.424-.457 5.584 2.107 7.064 2.564 1.48 5.771.717 7.171-1.707 1.4-2.424.46-5.59-2.103-7.07zm-.554.96c2.003 1.156 2.736 3.63 1.642 5.524-1.093 1.894-3.599 2.49-5.601 1.333-2.003-1.156-2.739-3.624-1.646-5.518 1.093-1.894 3.602-2.496 5.605-1.34z" opacity=".946" fill="url(#bE)"/><path d="M102.705 961.096c-2.564-1.48-5.775-.711-7.175 1.714-1.4 2.424-.457 5.584 2.107 7.064 2.564 1.48 5.771.717 7.171-1.707 1.4-2.424.46-5.59-2.103-7.07zm-.554.96c2.003 1.156 2.736 3.63 1.642 5.524-1.093 1.894-3.599 2.49-5.601 1.333-2.003-1.156-2.739-3.624-1.646-5.518 1.093-1.894 3.602-2.496 5.605-1.34z" opacity=".946" fill="url(#bF)"/><path d="M134.624 933.541c-1.48-2.564-4.646-3.503-7.07-2.103-2.424 1.4-3.187 4.607-1.707 7.171 1.48 2.564 4.64 3.506 7.064 2.107 2.424-1.4 3.194-4.611 1.714-7.175zm-.96.554c1.156 2.003.554 4.511-1.34 5.605-1.894 1.093-4.361.357-5.518-1.646-1.156-2.003-.56-4.508 1.333-5.601 1.894-1.093 4.367-.36 5.524 1.642z" opacity=".946" fill="url(#bG)"/><path d="M96.68 954.897c-1.48-2.564-4.646-3.503-7.07-2.103-2.424 1.4-3.187 4.607-1.707 7.171 1.48 2.564 4.64 3.506 7.064 2.107 2.424-1.4 3.194-4.611 1.714-7.175zm-.96.554c1.156 2.003.554 4.511-1.34 5.605-1.894 1.093-4.361.357-5.518-1.646-1.156-2.003-.56-4.508 1.333-5.601 1.894-1.093 4.368-.36 5.524 1.642z" opacity=".946" fill="url(#bH)"/><path d="M138.101 946.991c0-2.96-2.272-5.357-5.071-5.357s-5.064 2.396-5.064 5.357c0 2.96 2.265 5.357 5.064 5.357s5.071-2.396 5.071-5.357zm-1.109 0c0 2.313-1.776 4.184-3.963 4.184-2.187 0-3.955-1.872-3.955-4.184 0-2.313 1.769-4.184 3.955-4.184 2.187 0 3.963 1.872 3.963 4.184z" opacity=".946" fill="url(#bI)"/><path d="M94.562 946.514c0-2.96-2.272-5.357-5.071-5.357s-5.064 2.396-5.064 5.357c0 2.96 2.265 5.357 5.064 5.357s5.071-2.396 5.071-5.357zm-1.109 0c0 2.313-1.776 4.184-3.963 4.184-2.187 0-3.955-1.872-3.955-4.184 0-2.313 1.769-4.184 3.955-4.184 2.187 0 3.963 1.872 3.963 4.184z" opacity=".946" fill="url(#bJ)"/><path d="M134.386 960.378c1.48-2.563.711-5.775-1.714-7.175-2.424-1.4-5.584-.457-7.064 2.107-1.48 2.564-.717 5.771 1.707 7.171 2.424 1.4 5.59.46 7.07-2.103zm-.96-.554c-1.156 2.003-3.63 2.736-5.524 1.642-1.894-1.093-2.49-3.599-1.333-5.601 1.156-2.003 3.624-2.739 5.518-1.646 1.894 1.093 2.496 3.602 1.34 5.605z" opacity=".946" fill="url(#bK)"/><path d="M96.919 938.195c1.48-2.564.711-5.775-1.714-7.175-2.424-1.4-5.584-.457-7.064 2.107-1.48 2.563-.717 5.771 1.707 7.171 2.424 1.4 5.59.46 7.07-2.103zm-.96-.554c-1.156 2.003-3.63 2.736-5.524 1.642-1.894-1.093-2.49-3.599-1.333-5.601 1.156-2.003 3.624-2.739 5.518-1.646 1.894 1.093 2.496 3.602 1.34 5.605z" opacity=".946" fill="url(#bL)"/><path d="M124.474 970.114c2.564-1.48 3.503-4.646 2.103-7.07-1.4-2.424-4.607-3.187-7.171-1.707-2.564 1.48-3.506 4.64-2.107 7.064 1.4 2.424 4.611 3.194 7.175 1.714zm-.554-.96c-2.003 1.156-4.511.554-5.605-1.34-1.093-1.894-.357-4.361 1.646-5.518 2.003-1.156 4.508-.56 5.601 1.333 1.093 1.894.36 4.367-1.642 5.524z" opacity=".946" fill="url(#bM)"/><path d="M103.118 932.17c2.564-1.48 3.503-4.646 2.103-7.07-1.4-2.424-4.607-3.187-7.171-1.707-2.563 1.48-3.506 4.64-2.107 7.064 1.4 2.424 4.611 3.194 7.175 1.714zm-.554-.96c-2.003 1.156-4.511.554-5.605-1.34-1.093-1.894-.357-4.361 1.646-5.518 2.003-1.156 4.508-.56 5.601 1.333 1.093 1.894.36 4.368-1.642 5.524z" opacity=".946" fill="url(#bN)"/><path d="M128.201 970.1c-1.134.875-14.58-17.753-16.012-17.712-1.432.041-13.785 19.412-14.968 18.603-1.183-.808 12.379-19.353 11.897-20.702-.482-1.349-22.721-7.112-22.318-8.486.403-1.375 22.231 5.793 23.365 4.918 1.134-.875-.258-23.807 1.174-23.848 1.432-.041 1.36 22.933 2.543 23.741 1.183.808 22.562-7.602 23.044-6.253.482 1.349-21.39 8.381-21.793 9.755-.403 1.375 14.202 19.109 13.068 19.984z" opacity=".946" fill="url(#bO)"/><path d="M-30.564 180.766a85.848 90.793 0 1 1-171.697 0 85.848 90.793 0 1 1 171.697 0z" transform="matrix(.929 0 0 .836 220.068 794.454)" opacity=".741" stroke="#0f1719" stroke-width="4.368" stroke-linecap="round" stroke-linejoin="round" stroke-dasharray="8.73561447, 4.36780724" fill="none"/><path transform="matrix(.929 0 0 .836 541.284 794.454)" d="M-30.564 180.766a85.848 90.793 0 1 1-171.697 0 85.848 90.793 0 1 1 171.697 0z" opacity=".741" stroke="#0f1719" stroke-width="4.368" stroke-linecap="round" stroke-linejoin="round" stroke-dasharray="8.73561447, 4.36780724" fill="none"/><path d="M433.103 878.245c-40.262 0-72.915 29.8-72.915 66.541 0 36.74 32.653 66.518 72.915 66.518 40.262 0 72.891-29.777 72.891-66.518 0-36.74-32.629-66.541-72.891-66.541zm0 16.047c30.551 0 55.307 22.615 55.307 50.493 0 27.879-24.756 50.471-55.307 50.471-30.551 0-55.331-22.592-55.331-50.471 0-27.879 24.78-50.493 55.331-50.493z" opacity=".946" fill="url(#bP)"/><path d="M-30.564 180.766a85.848 90.793 0 1 1-171.697 0 85.848 90.793 0 1 1 171.697 0z" transform="matrix(.929 0 0 -.005 541.284 1022.602)" opacity=".741" stroke="#0f1719" stroke-width="4.368" stroke-linecap="round" stroke-linejoin="round" stroke-dasharray="8.73561447, 4.36780724" fill="none"/><path transform="matrix(.929 0 0 -.005 220.068 1022.649)" d="M-30.564 180.766a85.848 90.793 0 1 1-171.697 0 85.848 90.793 0 1 1 171.697 0z" opacity=".741" stroke="#0f1719" stroke-width="4.368" stroke-linecap="round" stroke-linejoin="round" stroke-dasharray="8.73561447, 4.36780724" fill="none"/><path d="M183.383 294.931a94.388 6.293 0 1 1-188.777 0 94.388 6.293 0 1 1 188.777 0z" transform="matrix(.908 0 0 .934 22.418 742.049)" opacity=".473" fill="#0e232e" filter="url(#bQ)"/><path transform="matrix(.836 0 0 .934 371.477 748.764)" d="M183.383 294.931a94.388 6.293 0 1 1-188.777 0 94.388 6.293 0 1 1 188.777 0z" opacity=".473" fill="#0e232e" filter="url(#bR)"/><path d="M117.837 745.905c-4.255 25.354-2.558 53.386-2.681 79.068h2.681c-2.677-33.172-2.457-58.77 2.011-81.703z" fill="#666"/><path d="M-284.768 162.089a10.17 5.085 0 1 1-20.341 0 10.17 5.085 0 1 1 20.341 0z" transform="matrix(1 0 0 .5 414.44 742.486)" opacity=".473" fill="#009100"/><g opacity=".312" fill="none"><path d="M110.258 869.09c13.212 12.093 13.46 24.187 8.022 36.28l13.035-8.192c3.415-10.27-10.049-19.072-21.057-28.088zM131.855 987.428c-13.212 12.093-13.46 24.187-8.022 36.281l-13.035-8.193c-3.415-10.27 10.049-19.072 21.057-28.088zM150.984 874.589c5.246 16.92-.735 27.514-11.641 35.334l15.486-.734c8.219-7.228 1.068-21.421-3.845-34.6zM109.058 987.612c-17.638 4.026-24.049 14.378-25.535 27.506l-7.092-13.456c2.304-10.56 18.474-11.613 32.626-14.05zM182.441 900.625c-4.126 17.213-14.733 23.469-28.184 24.92l13.787 6.921c10.821-2.249 11.9-18.03 14.396-31.841zM88.228 978.048c-17.337-5.12-28.193.717-36.205 11.36l.752-15.113c7.406-8.021 21.949-1.043 35.453 3.753zM196.448 938.393c-12.392 12.894-24.783 13.136-37.175 7.829l8.394 12.721c10.523 3.333 19.543-9.807 28.781-20.55zM75.191 959.47c-12.392-12.894-24.784-13.136-37.175-7.828l8.394-12.721c10.523-3.333 19.543 9.807 28.781 20.55zM190.813 978.138c-17.337 5.12-28.193-.717-36.205-11.36l.752 15.113c7.406 8.021 21.949 1.043 35.453-3.753zM75.003 937.222c-4.126-17.213-14.733-23.47-28.184-24.92l13.787-6.921c10.821 2.249 11.9 18.03 14.396 31.841zM164.134 1008.839c-17.637-4.026-24.048-14.379-25.534-27.506l-7.092 13.455c2.304 10.56 18.474 11.613 32.626 14.05zM84.802 916.893c5.246-16.92-.735-27.515-11.641-35.334l15.486.734c8.219 7.228 1.068 21.421-3.845 34.6z"/></g><g opacity=".312" fill="none"><path d="M447.055 867.376c9.631 15.101 6.741 26.846-1.642 37.12l14.711-4.539c5.956-9.036-4.771-21.023-13.069-32.581zM437.288 987.272c-15.892 8.262-19.262 19.879-17.139 32.968l-10.47-11.288c-.64-10.804 14.643-15.821 27.609-21.681zM484.97 883.229c.688 17.701-7.831 26.387-20.389 31.117l15.148 3.299c9.809-4.854 6.576-20.414 5.241-34.416zM415.221 981.549c-18.079-.676-26.951 7.664-31.783 19.96l-3.367-14.833c4.959-9.604 20.85-6.436 35.151-5.127zM508.617 916.52c-8.44 15.558-20.305 18.857-33.673 16.776l11.526 10.253c11.034.628 16.161-14.335 22.147-27.03zM397.575 966.92c-15.422-9.432-27.418-6.604-37.912 1.603l4.638-14.404c9.23-5.831 21.471 4.674 33.274 12.801zM512.372 956.625c-15.307 9.247-27.339 6.274-37.935-2.06l4.816 14.46c9.302 5.943 21.415-4.415 33.119-12.401zM389.791 945.601c-8.632-15.662-20.539-19.103-33.882-17.183l11.401-10.115c11.027-.495 16.338 14.531 22.481 27.299zM496.642 993.558c-18.072.458-27.047-7.99-32.031-20.344l-3.185 14.793c5.078 9.664 20.931 6.688 35.216 5.551zM395.367 924.063c.47-17.694-8.157-26.483-20.774-31.365l15.109-3.117c9.87 4.973 6.828 20.495 5.665 34.482zM462.926 1016.308c-15.994-8.454-19.508-20.113-17.545-33.177l-10.332 11.162c-.507 10.797 14.839 15.999 27.878 22.016zM410.095 906.962c9.446-14.986 6.411-26.767-2.099-37.143l14.768 4.717c6.068 9.109-4.512 20.967-12.669 32.426z"/></g></g></svg>