<svg xmlns="http://www.w3.org/2000/svg" xmlns:xlink="http://www.w3.org/1999/xlink" width="689.294" height="545.719" version="1"><defs><linearGradient id="a"><stop offset="0" stop-color="#f00"/><stop offset="1" stop-color="#f00"/></linearGradient><linearGradient xlink:href="#a" id="b" gradientUnits="userSpaceOnUse" gradientTransform="translate(111.839 98.364)" x1="-27.449" y1="673.054" x2="290.203" y2="146.373"/><linearGradient xlink:href="#a" id="c" gradientUnits="userSpaceOnUse" gradientTransform="translate(158.326 98.364)" x1="-27.449" y1="673.054" x2="290.203" y2="146.373"/></defs><g><path d="M431.431 76.131l-115.881 156.305 9.432 172.474 35.034 76.805-67.373 32.339 8.085 28.297h169.779l-14.822-18.864 21.559-55.246-8.085-60.635 49.856-4.042-1.347-328.779-91.627 2.695" fill-rule="evenodd"/><path d="M533.837 79.5l115.881 156.305-9.432 172.474-35.034 76.805 67.373 32.339-8.085 28.297h-169.779l14.822-18.864-21.559-55.246 8.085-60.635-49.856-4.042 1.347-328.779 91.627 2.695" fill-rule="evenodd"/><path d="M440.863 77.479l-92.974-10.78-71.415 160.347 83.542 118.576-5.39 21.559 43.119 41.771 61.983-53.898-18.864-18.864 16.169-13.475-35.034-33.686-25.602 2.695-20.212-59.288-18.864-16.169 39.076-47.161-2.695-17.517 47.161-74.11z" fill-rule="evenodd" stroke="#fff"/><path d="M524.405 80.847l92.974-10.78 71.415 160.347-83.542 118.576 5.39 21.559-43.119 41.771-61.983-53.898 18.864-18.864-16.169-13.475 35.034-33.686 25.602 2.695 20.212-59.288 18.864-16.169-39.076-47.161 2.695-17.517-47.161-74.11z" fill-rule="evenodd" stroke="#fff"/><path d="M312.61 386.72a95.669 56.593 0 1 1-191.339 0 95.669 56.593 0 1 1 191.339 0z" transform="matrix(1.056 0 0 .881 230.565 -253.097)" stroke="#fff"/><path d="M468.914 234.457a64.004 59.288 0 1 1-128.008 0 64.004 59.288 0 1 1 128.008 0z" transform="matrix(1.137 0 0 .955 3.45 -167.207)"/><path d="M495.863 250.627a18.864 18.864 0 1 1-37.729 0 18.864 18.864 0 1 1 37.729 0z" transform="translate(54.143 -200.771) translate(-145.525 4.042)"/><path d="M495.863 250.627a18.864 18.864 0 1 1-37.729 0 18.864 18.864 0 1 1 37.729 0z" transform="translate(54.143 -200.771) translate(12.127 2.695)"/><path d="M459.594 113.186s14.594-12.464 31.167-14.148c16.573-1.684 35.124 7.411 35.124 7.411" stroke="#fff" stroke-width=".857" fill="none"/><path d="M420.113 36.022c-4.615 2.337-7.544 5.828-7.544 9.714 0 7.032 9.588 12.74 21.401 12.74s21.401-5.708 21.401-12.74c0-1.511-.459-2.957-1.271-4.302l-33.987-5.413z" fill="#fff"/><path d="M499.054 35.012c5.158 2.612 8.432 6.514 8.432 10.858 0 7.86-10.717 14.24-23.92 14.24-13.204 0-23.92-6.38-23.92-14.24 0-1.689.512-3.305 1.42-4.808l37.988-6.05z" fill="#fff"/><path d="M241.194 485.757a6.064 6.064 0 1 1-12.127 0 6.064 6.064 0 1 1 12.127 0z" transform="translate(54.143 -200.771) translate(141.483 -235.805)" fill="#f00"/><path d="M434.125 44.466l-354.381 495.863h102.407l251.974-495.863z" fill="url(#b)" fill-rule="evenodd"/><path d="M241.194 485.757a6.064 6.064 0 1 1-12.127 0 6.064 6.064 0 1 1 12.127 0z" transform="translate(54.143 -200.771) translate(187.97 -235.131)" fill="#f00"/><path d="M480.613 44.466l-354.381 495.863h102.407l251.974-495.863z" fill="url(#c)" fill-rule="evenodd"/><path d="M234.477 540.329h-156.318l-78.159-85.264 84.602 22.126-24.917-134.39 62.601 81.177 52.506-86.861 7.547 109.349 66.349-90.875-21.316 132.16 68.211-31.264-61.106 83.843z" fill="#ff5600" fill-rule="evenodd"/><path d="M103.556 540.329h105.723l52.862-57.667-49.017 24.989 8.65-100.918-43.25 92.268-34.6-96.112-10.572 73.045-39.406-60.551 14.417 89.384-46.134-21.145 41.328 56.706z" fill="#ffbf00" fill-rule="evenodd"/><path d="M579.406 490.474a57.941 57.941 0 1 1-115.881 0 57.941 57.941 0 1 1 115.881 0z" transform="matrix(.089 -.034 .034 .089 85.683 466.19)"/><path d="M145.437 497.748l-8.931-4.694-.351-10.246-3.895.841 1.524 10.77 9.177 7.032.617 7.549 5.261 7.395.987 12.76 8.57 11.806 4.303-3.592-7.55-10.412-.371-10.725 3.039 9.218 7.097 8.801 3.966-3.625-7.088-7.507-2.34-10.783-5.099-6.97.324-4.665 6.584 3.645 2.157 9.88 4.536-.437-3.709-11.394-11.878-5.189-.745-2.797-5.331.904-.853 2.435z" fill-rule="evenodd"/></g></svg>