<?xml version="1.0" encoding="utf-8"?>
<!-- Generator: Adobe Illustrator 18.0.0, SVG Export Plug-In . SVG Version: 6.00 Build 0)  -->
<!DOCTYPE svg PUBLIC "-//W3C//DTD SVG 1.1//EN" "http://www.w3.org/Graphics/SVG/1.1/DTD/svg11.dtd">
<svg version="1.1"
	 id="svg2" sodipodi:docname="penguin1.svg" sodipodi:docbase="/home/nicosmos/Desktop" xmlns:dc="http://purl.org/dc/elements/1.1/" xmlns:cc="http://web.resource.org/cc/" xmlns:rdf="http://www.w3.org/1999/02/22-rdf-syntax-ns#" xmlns:svg="http://www.w3.org/2000/svg" xmlns:sodipodi="http://sodipodi.sourceforge.net/DTD/sodipodi-0.dtd" xmlns:inkscape="http://www.inkscape.org/namespaces/inkscape" inkscape:version="0.44.1" sodipodi:version="0.32"
	 xmlns="http://www.w3.org/2000/svg" xmlns:xlink="http://www.w3.org/1999/xlink" x="0px" y="0px" viewBox="0 0 471.4 631.1"
	 enable-background="new 0 0 471.4 631.1" xml:space="preserve">
<sodipodi:namedview  inkscape:window-y="30" inkscape:window-x="0" inkscape:document-units="px" inkscape:window-height="1067" inkscape:pageopacity="0.0" inkscape:window-width="1590" inkscape:current-layer="layer1" inkscape:pageshadow="2" inkscape:cy="266.61394" inkscape:cx="248.90148" inkscape:zoom="0.98994949" borderopacity="1.0" bordercolor="#666666" pagecolor="#ffffff" id="base">
	</sodipodi:namedview>
<g id="layer1" transform="translate(-171.4176,-140.6008)" inkscape:groupmode="layer" inkscape:label="Calque 1">
	
		<radialGradient id="path5493_1_" cx="493.764" cy="102.8559" r="96.1595" gradientTransform="matrix(1.5692 0.5374 0.3981 -1.1624 -357.1357 527.6654)" gradientUnits="userSpaceOnUse">
		<stop  offset="0" style="stop-color:#ECBA00"/>
		<stop  offset="1" style="stop-color:#FDF200"/>
	</radialGradient>
	<path id="path5493" sodipodi:nodetypes="cscsscscsc" fill="url(#path5493_1_)" d="M568.7,659.5c-135.9-14.1-111.8-17.2-137.8-13.1
		c-26,4-15.4,29.3-15.4,29.3s25.1,26.3,63.6,39.4c38.5,13.1,94.4,28.3,93.5,13.1c-1-15.2-22.2-26.3-22.2-26.3s26,16.2,29.9,3
		c3.9-13.1-17.3-26.3-17.3-26.3s36.6,7.1,33.7-3C593.8,665.6,569.7,659.5,568.7,659.5z"/>
	
		<radialGradient id="path4560_1_" cx="514.5018" cy="343.8596" r="96.1595" gradientTransform="matrix(1.4074 -0.3673 -0.2193 -0.8404 -290.3661 1164.5343)" gradientUnits="userSpaceOnUse">
		<stop  offset="0" style="stop-color:#ECBA00"/>
		<stop  offset="1" style="stop-color:#FDF200"/>
	</radialGradient>
	<path id="path4560" sodipodi:nodetypes="cscsscscsc" fill="url(#path4560_1_)" d="M243.4,672.4c142.4-14.1,117.2-17.2,144.5-13.1
		c27.3,4,16.2,29.3,16.2,29.3s-26.3,26.3-66.7,39.4c-40.4,13.1-99,28.3-98,13.1c1-15.2,23.2-26.3,23.2-26.3s-27.3,16.2-31.3,3
		c-4-13.1,18.2-26.3,18.2-26.3s-38.4,7.1-35.4-3C217.2,678.5,242.4,672.4,243.4,672.4z"/>
	
		<linearGradient id="path1872_1_" gradientUnits="userSpaceOnUse" x1="220.9952" y1="464.7099" x2="540.1826" y2="522.2886" gradientTransform="matrix(1 0 0 -1 -1.068115e-04 912.2017)">
		<stop  offset="0" style="stop-color:#000000"/>
		<stop  offset="1" style="stop-color:#575757"/>
	</linearGradient>
	<path id="path1872" sodipodi:nodetypes="csscsscssssc" fill="url(#path1872_1_)" d="M277.3,405.2c0,0-53.5-183.1,8.6-227.3
		s169.9-38.1,187.3,43.5c9.5,44.6,3.2,146.3,3.2,146.3s41.1,58,72.2,92.4s124.2,83.5,84.7,83.5c-39.5,0-74.8-27-139.7-76.2
		c0,0,18.3,101.6-15.6,187.6c-8.5,21.5-47.5,41-116.6,7.2s-53.2-212-73-189.9c-14.7,16.5-69.7,85.5-95.5,103.1
		C167.2,593,171.5,566.2,277.3,405.2z"/>
	
		<linearGradient id="path2770_1_" gradientUnits="userSpaceOnUse" x1="377.4564" y1="517.4177" x2="365.1328" y2="634.4741" gradientTransform="matrix(1 0 0 -1 0 912.2016)">
		<stop  offset="0" style="stop-color:#FFCC00"/>
		<stop  offset="1" style="stop-color:#FFCC00;stop-opacity:0"/>
	</linearGradient>
	<path id="path2770" fill="url(#path2770_1_)" d="M300,274.8c77.4,119.9,62.6,120.9,78.5,119.9c15.9-1.1,48.8-142.1,48.8-142.1
		s-44.5-10.6-78.5-5.3S300,276.9,300,274.8z"/>
	
		<path id="path3667" sodipodi:ry="29.7995" sodipodi:rx="31.31473" sodipodi:cy="233.63354" sodipodi:cx="328.29959" sodipodi:type="arc" fill="#FFFFFF" d="
		M359.6,243.6c0,16.5-14,29.8-31.3,29.8c-17.3,0-31.3-13.3-31.3-29.8c0,0,0,0,0,0c0-16.5,14-29.8,31.3-29.8
		C345.6,213.8,359.6,227.2,359.6,243.6C359.6,243.6,359.6,243.6,359.6,243.6z"/>
	
		<path id="path4554" sodipodi:ry="31.819805" sodipodi:rx="26.263966" sodipodi:cy="229.59294" sodipodi:cx="404.061" sodipodi:type="arc" fill="#FFFFFF" d="
		M438.4,231c0,19-13.6,34.3-30.3,34.3S377.8,250,377.8,231s13.6-34.3,30.3-34.3S438.4,212,438.4,231z"/>
	
		<path id="path4556" sodipodi:ry="12.626906" sodipodi:rx="11.616755" sodipodi:cy="236.664" sodipodi:cx="333.85541" sodipodi:type="arc" d="
		M354.6,243.6c0,7-5.2,12.6-11.6,12.6s-11.6-5.7-11.6-12.6s5.2-12.6,11.6-12.6S354.6,236.7,354.6,243.6z"/>
	
		<path id="path4558" sodipodi:ry="16.667517" sodipodi:rx="14.647212" sodipodi:cy="231.61324" sodipodi:cx="400.52548" sodipodi:type="arc" d="
		M409.1,237.6c0,8.6-6.3,15.7-14.1,15.7s-14.1-7-14.1-15.7l0,0c0-8.6,6.3-15.7,14.1-15.7S409.1,228.9,409.1,237.6z"/>
	
		<radialGradient id="path5499_1_" cx="466.9765" cy="261.3878" r="73.2361" gradientTransform="matrix(1.0965 -7.789417e-02 -0.1048 -1.4752 -78.3768 952.1876)" gradientUnits="userSpaceOnUse">
		<stop  offset="0" style="stop-color:#FFFFFF"/>
		<stop  offset="1" style="stop-color:#FFFFFF;stop-opacity:0"/>
	</radialGradient>
	
		<path id="path5499" sodipodi:open="true" sodipodi:end="10.324256" sodipodi:start="4.5112951" sodipodi:ry="103.03556" sodipodi:rx="73.236061" sodipodi:cy="535.16406" sodipodi:cx="397.49503" sodipodi:type="arc" fill="url(#path5499_1_)" d="
		M397.6,404c46.2-13.6,91.3,29.5,100.7,96.2s-20.4,131.9-66.6,145.5c-46.2,13.6-91.3-29.5-100.7-96.2c-6.4-45.5,5.4-92.3,30.5-121.2
		"/>
</g>
</svg>
