<?xml version="1.0" encoding="utf-8"?>
<!-- Generator: Adobe Illustrator 18.0.0, SVG Export Plug-In . SVG Version: 6.00 Build 0)  -->
<!DOCTYPE svg PUBLIC "-//W3C//DTD SVG 1.1//EN" "http://www.w3.org/Graphics/SVG/1.1/DTD/svg11.dtd">
<svg version="1.1"
	 id="svg2" xmlns:dc="http://purl.org/dc/elements/1.1/" xmlns:cc="http://creativecommons.org/ns#" xmlns:rdf="http://www.w3.org/1999/02/22-rdf-syntax-ns#" xmlns:svg="http://www.w3.org/2000/svg" xmlns:sodipodi="http://sodipodi.sourceforge.net/DTD/sodipodi-0.dtd" xmlns:inkscape="http://www.inkscape.org/namespaces/inkscape" inkscape:version="0.46" sodipodi:version="0.32" sodipodi:docname="octopussy.svg" inkscape:output_extension="org.inkscape.output.svg.inkscape"
	 xmlns="http://www.w3.org/2000/svg" xmlns:xlink="http://www.w3.org/1999/xlink" x="0px" y="0px" viewBox="0 0 439.5 424"
	 enable-background="new 0 0 439.5 424" xml:space="preserve">
<defs>
	
	
		<inkscape:perspective  id="perspective10" inkscape:vp_z="744.09448 : 526.18109 : 1" inkscape:vp_y="0 : 1000 : 0" inkscape:vp_x="0 : 526.18109 : 1" sodipodi:type="inkscape:persp3d" inkscape:persp3d-origin="372.04724 : 350.78739 : 1">
		</inkscape:perspective>
	
		<inkscape:perspective  id="perspective2467" inkscape:vp_z="744.09448 : 526.18109 : 1" inkscape:vp_y="0 : 1000 : 0" inkscape:vp_x="0 : 526.18109 : 1" sodipodi:type="inkscape:persp3d" inkscape:persp3d-origin="372.04724 : 350.78739 : 1">
		</inkscape:perspective>
</defs>
<sodipodi:namedview  showgrid="false" inkscape:cy="300.94385" inkscape:cx="280.82145" inkscape:zoom="1" borderopacity="1.0" bordercolor="#666666" pagecolor="#ffffff" id="base" inkscape:window-y="0" inkscape:window-x="0" inkscape:window-height="944" inkscape:window-width="1272" inkscape:current-layer="layer1" inkscape:document-units="px" inkscape:pageshadow="2" inkscape:pageopacity="0.0">
	</sodipodi:namedview>
<g id="layer1" transform="translate(-132.5944,-232.40342)" inkscape:label="Capa 1" inkscape:groupmode="layer">
	<g id="g5285">
		
			<linearGradient id="path2477_1_" gradientUnits="userSpaceOnUse" x1="346.9979" y1="215.0891" x2="430.5754" y2="210.0891" gradientTransform="matrix(1 0 0 -1 -132.5944 655.4034)">
			<stop  offset="0" style="stop-color:#5A4F60"/>
			<stop  offset="1" style="stop-color:#252120"/>
		</linearGradient>
		<path id="path2477" sodipodi:nodetypes="cccccccss" fill="url(#path2477_1_)" d="M242.4,426.2c-9.1-3.7-19.8,13.6-29.6,14
			c-25.2,8.1-54-65-21.8-51.8c9.2,10.4-5.6,16.4,4.9,19.4c12.3-4.1,16.9-17,2.4-28.5c-26-10.9-39.9-10.1-50.6,27.5
			c4.9,66.9,47.6,69.2,95.3,85.9c9,3.7,21.8,20.7,29,14.2C291.3,489.6,266.3,435.9,242.4,426.2z"/>
		
			<linearGradient id="path3617_1_" gradientUnits="userSpaceOnUse" x1="279.325" y1="275.2174" x2="303.6117" y2="252.3112" gradientTransform="matrix(1 0 0 -1 -132.5944 655.4034)">
			<stop  offset="0" style="stop-color:#BFBBC0"/>
			<stop  offset="1" style="stop-color:#BFBBC0;stop-opacity:0"/>
		</linearGradient>
		<path id="path3617" fill="url(#path3617_1_)" d="M174,376.7c-12.5,1.1-18.5,14.1-21.9,24.6c-2.7,6.7-3.1,14.9,0.9,21.2
			c2.4-7.8,2.7-16.3,7-23.6c3.5-9.2,10.9-16.6,20.2-19.7C187.9,377,176.1,376.7,174,376.7z"/>
		
			<linearGradient id="path3626_1_" gradientUnits="userSpaceOnUse" x1="513.428" y1="484.4484" x2="538.0225" y2="457.0739" gradientTransform="matrix(1 0 0 -1 -300.8858 911.3761)">
			<stop  offset="0" style="stop-color:#ACA8AE"/>
			<stop  offset="1" style="stop-color:#ACA8AE;stop-opacity:0"/>
		</linearGradient>
		<path id="path3626" fill="url(#path3626_1_)" d="M239.1,432c-8.5-0.1-18.1,14.1-26.9,14.5c-4.1,1.3-8.3,0.5-12.3-1.8
			c6.2,6.9,13.7,11.1,20.8,8.8c9.8-0.4,20.5-17.7,29.6-14c1.6,0.6,3.1,1.5,4.7,2.4c-4.2-4.3-8.7-7.7-13.2-9.5
			C240.9,432.2,240,432,239.1,432z"/>
		
			<linearGradient id="path2479_1_" gradientUnits="userSpaceOnUse" x1="390.1983" y1="261.4541" x2="456.4272" y2="239.4541" gradientTransform="matrix(1 0 0 -1 -132.5944 655.4034)">
			<stop  offset="0" style="stop-color:#5A4F60"/>
			<stop  offset="1" style="stop-color:#252120"/>
		</linearGradient>
		<path id="path2479" sodipodi:nodetypes="cccccccss" fill="url(#path2479_1_)" d="M282.4,391.1c-5.8-6.2-20.4,3.5-28.2,0.3
			c-22.7-2.7-19-70.5,1.6-48.5c3.4,11.5-10.3,10.9-3.1,17c11.2,1.2,19.4-7.3,12.1-21.5c-16.4-17.9-27.7-22.3-49.6,3.4
			c-20.2,54.3,12.4,71.5,43.9,101.8c5.7,6.1,9.7,24.1,17.7,21.6C297.9,458.5,297.7,407.3,282.4,391.1z"/>
		
			<linearGradient id="path3665_1_" gradientUnits="userSpaceOnUse" x1="305.5369" y1="503.3154" x2="345.8414" y2="466.3154" gradientTransform="matrix(1 0 0 -1 -100.4731 838.6963)">
			<stop  offset="0" style="stop-color:#BFBBC0"/>
			<stop  offset="1" style="stop-color:#BFBBC0;stop-opacity:0"/>
		</linearGradient>
		<path id="path3665" sodipodi:nodetypes="ccccccc" fill="url(#path3665_1_)" d="M240.7,326.1c-11.2,1.7-19.8,10.7-26,19.5
			c-5.3,14.8-8.5,32-2.3,47c-4.6-25,4.8-60.5,35.5-60.1c8,2.1,14.5,9.4,19.3,14.4c-2.5-9.5-11.5-16.2-20.1-20
			C245,326.2,242.8,325.8,240.7,326.1z"/>
		
			<linearGradient id="path3674_1_" gradientUnits="userSpaceOnUse" x1="388.8492" y1="268.5531" x2="405.3107" y2="247.2906" gradientTransform="matrix(1 0 0 -1 -129.5944 658.9034)">
			<stop  offset="0" style="stop-color:#B7B3B8"/>
			<stop  offset="1" style="stop-color:#B7B3B8;stop-opacity:0"/>
		</linearGradient>
		<path id="path3674" fill="url(#path3674_1_)" d="M241.6,385.7c2.2,8.9,6.7,16.2,13.8,17c7.8,3.2,22.5-6.5,28.3-0.3
			c2.5,2.6,4.5,6.2,6.2,10.3c-1.8-6.7-4.6-12.4-8.2-16.3c-5.8-6.2-20.4,3.5-28.3,0.3C248,396.1,244.2,391.7,241.6,385.7z"/>
		
			<linearGradient id="path3277_1_" gradientUnits="userSpaceOnUse" x1="557.2869" y1="127.1399" x2="487.308" y2="180.1844" gradientTransform="matrix(1 0 0 -1 -122.5944 659.4034)">
			<stop  offset="0" style="stop-color:#5A4F60"/>
			<stop  offset="1" style="stop-color:#252120"/>
		</linearGradient>
		<path id="path3277" sodipodi:nodetypes="cccccccss" fill="url(#path3277_1_)" d="M444.8,515.7c9.5,4.6,3.5,25.5,10.2,33.7
			c11.7,25.9,90.9-4,57-20.1c-14.9,0.2-9,16.3-19,10.1c-5.6-12.8,1.4-25.7,21-22.5c27.5,12.8,36.9,24.5,14.7,60.2
			c-56.8,44.4-89.6,12.1-137.3-13.8c-9.4-4.4-32.3-2.5-32.3-12.9C359,522.7,419.8,503.8,444.8,515.7z"/>
		
			<linearGradient id="path3298_1_" gradientUnits="userSpaceOnUse" x1="650.4918" y1="305.9065" x2="593.9848" y2="250.8146" gradientTransform="matrix(1 0 0 -1 -136.4835 657.1712)">
			<stop  offset="0" style="stop-color:#5A4F60"/>
			<stop  offset="1" style="stop-color:#252120"/>
		</linearGradient>
		<path id="path3298" sodipodi:nodetypes="cccccccss" fill="url(#path3298_1_)" d="M442.4,368.7c10-3.5,20.4,15.7,30.9,16.7
			c26.6,10.2,61.8-66.7,26.4-54.4c-10.4,10.7,5,17.9-6.4,20.6c-13-5.2-17.1-19.2-0.9-30.7c28.5-10.2,41.2-3.1,47.3,31.3
			c6.6,51.6-49.6,72.8-101.9,88c-9.8,3.5-24.7,20.9-32,13.5C386.2,434,416.2,377.8,442.4,368.7z"/>
		
			<linearGradient id="path3296_1_" gradientUnits="userSpaceOnUse" x1="629.9481" y1="210.5094" x2="581.6326" y2="227.5094" gradientTransform="matrix(1 0 0 -1 -132.5944 655.4034)">
			<stop  offset="0" style="stop-color:#5A4F60"/>
			<stop  offset="1" style="stop-color:#252120"/>
		</linearGradient>
		<path id="path3296" sodipodi:nodetypes="cccccccss" fill="url(#path3296_1_)" d="M469.3,426c10-3.5,20.4,15.7,30.9,16.7
			c26.6,10.2,61.8-66.7,26.4-54.4c-10.4,10.7,5,17.9-6.4,20.6c-13-5.2-17.1-19.2-0.9-30.7c28.5-10.2,43.5-8.6,52.8,32.5
			c-9.2,71.6-55.1,71.6-107.4,86.7c-9.8,3.5-24.7,20.9-32,13.5C413.1,491.2,443.1,435,469.3,426z"/>
		
			<linearGradient id="path2481_1_" gradientUnits="userSpaceOnUse" x1="391.7614" y1="270.062" x2="504.6725" y2="270.062" gradientTransform="matrix(1 0 0 -1 -132.5944 655.4034)">
			<stop  offset="0" style="stop-color:#5A4F60"/>
			<stop  offset="1" style="stop-color:#252120"/>
		</linearGradient>
		<path id="path2481" sodipodi:nodetypes="cccccccss" fill="url(#path2481_1_)" d="M348.5,375.1c-8.1-4-22.1,9.5-31.7,8.9
			c-26.2,4.4-38.9-59.4-10.3-45.3c6.7,9.6-8.9,13.2,0.7,16.7c12.9-2.3,20-12.6,8.3-23.6c-23-11.6-36.7-12.3-55,18.2
			c-9.2,56.3,31.8,62.3,74.7,80.8c7.9,4,16.9,19.3,25.3,14.6C382.8,432.7,369.7,385.5,348.5,375.1z"/>
		<path id="path2483" sodipodi:nodetypes="cssssssscscccccccssssc" fill="#5A4F60" d="M388.4,231.4c-3.3,0-6.5,0.2-9.4,0.7
			c-26.4,3.8-61.3,20.2-79.4,39.6c-13.7,14.7-24.5,41.9-25.8,61.9c-1.1,17.5,18.6,39.1,15.8,56.4c-2.6,15.9-26.3,28.9-30.2,44.6
			c-3.8,15.5-0.1,38.2,6.1,52.9c4.1,9.7,13.5,21.1,22.1,27.1c4.7,3.3,10.2,6.7,15.9,10.1c-4.8,0.9-9,2.9-12,6.2
			c-6.5,7.2,10.5,20.1,14.2,29c16.7,47.7,19,90.4,85.9,95.3c37.7-10.7,38.4-24.7,27.5-50.6c-11.5-14.5-24.4-10-28.5,2.4
			c3,10.5,9-4.2,19.4,4.9c13.2,32.3-59.9,3.4-51.8-21.8c14.6-38,36.9-67,78.8-75.9c7.6-12.8,6.4-56.4,5.4-62.2
			c-1-5.7,30.5-26.3,38.4-41.2c11.5-21.6,23.6-55.5,18.5-79.5c-7.1-33.2-39.7-72.3-68.6-90C419.8,234.8,402.8,231.3,388.4,231.4z"/>
		
			<path id="path2485" sodipodi:cx="395.9798" sodipodi:cy="466.87778" sodipodi:rx="24.04163" sodipodi:ry="29.698484" sodipodi:type="arc" opacity="0.581" fill="#EEEEEC" enable-background="new    " d="
			M420,465.9c0,16.4-10.8,29.7-24,29.7c-13.3,0-24-13.3-24.1-29.7c0,0,0,0,0,0c0-16.4,10.8-29.7,24-29.7
			C409.2,436.2,420,449.4,420,465.9C420,465.9,420,465.9,420,465.9z"/>
		
			<path id="path2487" sodipodi:cx="395.9798" sodipodi:cy="466.87778" sodipodi:rx="24.04163" sodipodi:ry="29.698484" sodipodi:type="arc" fill="#5C3566" d="
			M405.9,465.9c0,16.4-3.8,29.7-8.5,29.7s-8.5-13.3-8.5-29.7c0,0,0,0,0,0c0-16.4,3.8-29.7,8.5-29.7
			C402.1,436.2,405.9,449.4,405.9,465.9C405.9,465.9,405.9,465.9,405.9,465.9z"/>
		
			<linearGradient id="path2489_1_" gradientUnits="userSpaceOnUse" x1="526.5223" y1="221.7533" x2="526.8639" y2="178.7533" gradientTransform="matrix(1 0 0 -1 -132.5944 655.4034)">
			<stop  offset="0" style="stop-color:#EEEEEC"/>
			<stop  offset="1" style="stop-color:#EEEEEC;stop-opacity:0"/>
		</linearGradient>
		<path id="path2489" sodipodi:nodetypes="cscscc" opacity="0.581" fill="url(#path2489_1_)" enable-background="new    " d="
			M394.2,440.5c-11.1,0-10.2-6.8-20.2,24.9c-0.1,0.4,0,0.8,0,1.2c3.2-1.5,22.2-12.6,25.5-10.7l14.8,8.3
			C413.9,451.1,405,440.5,394.2,440.5z"/>
		<path id="path3272" fill="#B0ABB1" d="M273.9,414.8c-9.2-0.4-18.1,11.9-20.2,28c-2,15.6,3,29.4,11.5,32
			c-1.4-8.9-1.6-18.9-0.2-29.3C266.4,434.1,269.6,423.6,273.9,414.8z"/>
		<path id="path2473" sodipodi:nodetypes="cccccccss" fill="#5A4F60" d="M233.6,487.1c-10.3,2.4-8.8,24.2-17.1,30.7
			c-17,22.8-88-23.2-51.4-31.8c14.5,3.4,5.4,17.9,16.4,13.9c8.2-11.3,4.1-25.4-15.7-26.4c-29.5,6.7-41.3,16-27.1,55.7
			c46.1,55.5,84.9,30.9,137.1,15.7c10.2-2.3,32,4.5,34.3-5.7C316,512.1,260.6,480.7,233.6,487.1z"/>
		
			<linearGradient id="path3300_1_" gradientUnits="userSpaceOnUse" x1="605.5702" y1="236.5037" x2="566.5728" y2="313.5783" gradientTransform="matrix(1 0 0 -1 -129.766 653.2821)">
			<stop  offset="0" style="stop-color:#2E3436"/>
			<stop  offset="1" style="stop-color:#2E3436;stop-opacity:0"/>
		</linearGradient>
		<path id="path3300" fill="url(#path3300_1_)" d="M450.4,321.7c1,7,1.5,14.2,1.5,21.5c0,23.2-4.9,44.8-13.6,63.3
			c4.5,7.8,7.8,17.1,9.4,27.3c21.6-8.2,37.2-30.5,37.2-56.6C484.8,352.2,470.6,330.7,450.4,321.7z"/>
		<path id="path3308" fill="#2E3436" d="M382.5,407.4c-18.5,0-33.5,19.7-33.5,44c0,15.4,6.1,29,15.2,36.9
			c-2.1-5.7-3.2-12.1-3.2-18.9c0-24.3,15-44,33.5-44c6.7,0,13,2.6,18.2,7.1C407.4,417.6,395.9,407.4,382.5,407.4z"/>
		
			<linearGradient id="path3393_1_" gradientUnits="userSpaceOnUse" x1="389.2173" y1="357.1386" x2="464.6864" y2="300.5701" gradientTransform="matrix(1 0 0 -1 -132.6381 657.5191)">
			<stop  offset="0" style="stop-color:#EEEEEC"/>
			<stop  offset="1" style="stop-color:#EEEEEC;stop-opacity:0"/>
		</linearGradient>
		<path id="path3393" fill="url(#path3393_1_)" d="M388.9,238.1c-29.7,2.2-58.2,15.8-80.4,35.2c-16.6,17.1-26.6,41.2-27,65.1
			c2.8,19,19.5,35.4,14.9,55.6c-4.8,19.2-28.3,27.7-30.6,48c-2.3,24.9,5.1,52.5,26,67.9c-4.9-19.3-6.1-42.7,8.7-58.1
			c7.5-9,19.7-17.3,19.9-30.1c-1.6-20-19.6-36.9-15.2-57.8c4.3-31.9,21.6-63,50.2-78.9c25-15.4,54.7-26.5,84.6-22.6
			c3.6,0.3,8.6,1.8,11.2,2c-14.7-14.9-34.3-26.1-55.8-26.2C393.2,238.1,391,238.1,388.9,238.1z"/>
		
			<linearGradient id="path3526_1_" gradientUnits="userSpaceOnUse" x1="269.9691" y1="173.6878" x2="294.2989" y2="145.6878" gradientTransform="matrix(1 0 0 -1 -132.5944 655.4034)">
			<stop  offset="0" style="stop-color:#EEEEEC"/>
			<stop  offset="1" style="stop-color:#EEEEEC;stop-opacity:0"/>
		</linearGradient>
		<path id="path3526" fill="url(#path3526_1_)" d="M165.4,476.6c-1,0-2,0.2-2.9,0.4c-11.2,2.7-26.1,7-28.4,20.2
			c-1.7,11.1,1.6,22.6,5.8,32.7c4.1,5.6,3.8,3.4,1.8-1.9c-3.7-12.4-6.3-28.8,4.6-38.3c7.5-6.7,19-9.3,27.6-11.3
			C171.3,477.4,168.3,476.5,165.4,476.6z M175.6,496.2c0,0-0.1,0.1-0.1,0.1c-0.5,2.4,2.2,4.6,3.4,2.7
			C178.4,498,176.3,495.9,175.6,496.2z M196.4,526.8c-0.1,0,0,0,0.2,0.1C196.6,526.8,196.5,526.8,196.4,526.8z M196.7,526.9
			c0.4,0.1,0.9,0.3,1.3,0.4V527C197.6,527,197.1,527,196.7,526.9z"/>
		
			<linearGradient id="path3533_1_" gradientUnits="userSpaceOnUse" x1="338.2731" y1="158.6798" x2="391.4836" y2="124.7461" gradientTransform="matrix(1 0 0 -1 -132.5944 655.4034)">
			<stop  offset="0" style="stop-color:#EEEEEC"/>
			<stop  offset="1" style="stop-color:#EEEEEC;stop-opacity:0"/>
		</linearGradient>
		<path id="path3533" fill="url(#path3533_1_)" d="M238.6,491.2c-4.5,0.2-8.3,3-9.5,7.6c-3.4,9.3-4.7,20.4-13.5,26.6
			c-4.8,3.6-11.4,4-16.9,3.6c9.1,3,21.5,4,27.7-4.9c6.8-8.6,4.6-22.7,14.4-29.1c5.5-2.4,11.9-1.9,17.8-1.2c-5.8-1.6-11.9-2.7-18-2.5
			C240,491.2,239.3,491.2,238.6,491.2z M198.4,528.8c-0.1,0,0,0,0.2,0.1C198.6,528.8,198.5,528.8,198.4,528.8z"/>
		
			<linearGradient id="path3582_1_" gradientUnits="userSpaceOnUse" x1="414.8846" y1="94.4603" x2="445.0569" y2="74.6459" gradientTransform="matrix(0.9787 0.2053 0.2053 -0.9787 -106.5571 524.4891)">
			<stop  offset="0" style="stop-color:#EEEEEC"/>
			<stop  offset="1" style="stop-color:#EEEEEC;stop-opacity:0"/>
		</linearGradient>
		<path id="path3582" sodipodi:nodetypes="cscscsc" opacity="0.6232" fill="url(#path3582_1_)" enable-background="new    " d="
			M343.2,511.9c-14.8-3.1-29.6,7.9-33.1,24.5c-0.6,3-0.8,6-0.7,8.9c4.2-15.5,18.4-25.6,32.7-22.6c12.1,2.5,18.1,5,18.8,18.1
			c0.2-0.6,0.3-1.3,0.5-2C364.9,522.2,358,515,343.2,511.9z"/>
		
			<linearGradient id="path3599_1_" gradientUnits="userSpaceOnUse" x1="504.167" y1="79.2081" x2="474.4685" y2="119.5132" gradientTransform="matrix(1 0 0 -1 -132.5944 655.4034)">
			<stop  offset="0" style="stop-color:#4B424E"/>
			<stop  offset="1" style="stop-color:#4B424E;stop-opacity:0"/>
		</linearGradient>
		<path id="path3599" fill="url(#path3599_1_)" d="M382.5,543.7l-24-15.6l-21.2-4.2l7.8,50.2l13.4,31.8l3.5,1.4l-8.5-17l6.4-13.4
			L382.5,543.7z"/>
		<path id="path3717" fill="#2E3436" d="M445.7,519.3c1.8,8.6-0.2,18.4,5.4,25.8C448.6,536.7,451.7,526.2,445.7,519.3L445.7,519.3z
			 M451.1,545.1C451.1,545.3,451.2,545.1,451.1,545.1z M504,526.8c-5.1,0.1-8.5,5.8-9.5,10.1c-0.2,2.6,4,4.4,4.5,1.1
			c1.5-4.4,5.5-8.2,9.5-9.3C507.2,527.9,505.7,526.3,504,526.8z M536.1,535.2c2.6,14.1-5.5,27.4-12.6,38.9
			c-18.2,14.7-41.8,25.8-65.7,21.6c21.6,6.7,44.8-0.6,62.6-13.4c9.5-4.9,13.4-15.5,17.2-24.8C540.3,550.5,541,540.7,536.1,535.2z
			 M368.3,557.1c4.2,1.3,10.7,2.2,13.6,2.6C377.6,558.3,371.6,557.6,368.3,557.1z"/>
		<path id="path5266" fill="#2E3436" d="M525.3,386c-7-0.7-9.3,8.1-6.2,13.3c1.4,2.7,0.1,6-1.9,7.4c1.6,2.1,6.1,0.5,4.1-2.3
			c-3.5-6.7-0.6-17.3,7.6-18.1C527.7,386,526.5,385.9,525.3,386z M562.8,392.3c2.5,7.6,5.7,15.7,3,23.8c-3.6,22.6-15,45.3-35.5,56.8
			c-22.9,13.6-50.2,15.9-75,24.8c-7,4.3-14.5,10.6-21.3,13.6c6.8,1.7,12.3-4.8,17.6-7.9c11.1-9.6,26.6-10.1,40.1-14.4
			c23.3-5.8,49.3-13.5,63.2-34.9c8.4-12.8,12.8-28.1,13.9-43.2c-1.6-6.6-3.4-13.2-6.3-19.2L562.8,392.3z"/>
		
			<linearGradient id="path5279_1_" gradientUnits="userSpaceOnUse" x1="503.0997" y1="86.5988" x2="468.4515" y2="127.9646" gradientTransform="matrix(1 0 0 -1 -219.4731 648.5854)">
			<stop  offset="0" style="stop-color:#4B424E"/>
			<stop  offset="1" style="stop-color:#4B424E;stop-opacity:0"/>
		</linearGradient>
		<path id="path5279" sodipodi:nodetypes="czccc" fill="url(#path5279_1_)" d="M295.7,536.8c-0.2-10.8-10.9-19.4-19.1-25.8
			c-7.9-6.2-26.2,6-26.2,6L238,553.8C262.3,543.8,276.8,542.7,295.7,536.8z"/>
	</g>
	<polygon id="rect5283" opacity="0.6232" fill="#2E3436" enable-background="new    " points="42,135.4 218,135.4 218,135.4 	"/>
</g>
</svg>
