<svg xmlns="http://www.w3.org/2000/svg" width="210.696" height="219.561"><title>stone giant</title><g color="#000"><path transform="translate(-274.655 -514.292) translate(-176.533 270.478)" d="M562.969 252.375c-3.923.462-7.941 1.946-11.469 3.406-3.527 1.46-6.695 2.951-7.875 3.344-2.497.832-3.243 2.762-3.906 4.469-.664 1.707-1.078 3.578-1.406 5.406-.483 2.69-.563 4.049-.656 5.219-.568.384-1.078.816-1.5 1.281-.966 1.067-1.738 2.338-2.469 3.75-1.462 2.824-2.746 6.301-3.844 9.75-1.61 5.06-2.59 9.101-3.125 11.406l-20.969.969c-.5-.378-.834-.679-1.969-1.406-1.703-1.093-3.808-2.365-6.219-2.906-2.228-.5-4.767-.402-7.031-.313-2.007.08-3.298.186-3.656.219-.423-.105-2.569-.639-5.719-1.281-3.443-.702-7.403-1.438-10.438-1.438-3.256 0-6.274 1.203-8.625 2.938s-4.313 4.06-4.313 7.219c0 2.3-.7 6.425-.906 7.688-.588.382-.891.544-1.813 1.281-.783.626-1.587 1.316-2.313 2.188-.726.871-1.563 1.92-1.563 3.719v9.375c0 2.846 1.47 4.277 2.563 5.688.425.549.486.565.844.969-.366.925-.658 1.633-1.281 3.5-.468 1.402-.929 2.886-1.25 4.313-.321 1.427-.615 2.642-.281 4.313.466 2.329 1.793 4.564 3.875 6.719 2.082 2.155 5.026 4.088 8.688 4.469 3.484.363 8.709-.17 13.844-.906 2.567-.368 5.057-.808 7.125-1.25 2.068-.442 3.526-.722 4.938-1.438 1.38-.699 1.992-1.602 2.625-2.5.633-.898 1.158-1.872 1.625-2.781.455-.886.503-1.052.781-1.688 1.401-.091 5.461-.362 11.219-.719 6.673-.414 14.129-.813 14.906-.813-.221 0 1.542.63 2.813 1.594.531.403.557.478.938.813-.99 3.08-9.547 29.65-12.75 43.531-3.456 14.976-6.125 47.847-6.125 55.781 0 4.353 1.984 7.708 4.625 9.375 2.641 1.667 5.532 1.906 7.75 1.906 1.501 0 7.4.416 13.469.625 6.068.209 12.286.327 16.469-.719 6.767-1.692 11.375-3.406 11.375-3.406a3 3 0 0 0 1.938-3.031l-1.656-21.281v-12.157c2.076-.203 7.23-.715 14.813-1.531 4.487-.483 9.079-1 12.781-1.469 1.851-.235 3.481-.453 4.781-.656 1.3-.204 2.096-.313 3.031-.625 2.861-.954 4.832-.972 6.969-.281.425.137 1.861 1.172 2.875 2.219.739.763.995 1.112 1.25 1.438.095.797.765 6.461 1.531 13.281.409 3.643.819 7.38 1.125 10.406.306 3.026.5 5.576.5 5.906 0 2.827 1.128 5.767 2.688 8.719.78 1.476 1.7 2.853 2.813 4.031 1.112 1.178 2.528 2.375 4.688 2.375 1.651 0 9.8.011 18.031-.125 4.116-.068 8.24-.187 11.625-.344 3.385-.157 5.604-.199 7.531-.75 1.907-.545 3.334-2.142 3.938-3.688.603-1.546.698-3.085.656-4.625-.084-3.081-.841-6.24-1.406-8.5-.429-1.716-3.006-14.353-5.344-26.063-2.229-11.165-4.122-20.844-4.313-21.813.371-.614.714-1.141 1.438-2.594 1.037-2.083 2.25-4.434 2.25-7.25 0-1.492-.287-4.151-.719-8.344-.431-4.193-1.005-9.522-1.625-14.938-1.239-10.831-2.593-21.745-3.219-25.188-.888-4.885.65-17.202-2.188-33.094-1.424-7.972-4.237-17.785-8.094-26.281-3.857-8.497-8.522-15.924-15.344-18.438-5.674-2.09-12.081-3.001-17.688-3.563-5.607-.562-10.605-.843-12.438-1.25-2.492-.554-8.165-1.773-14.094-2.781-5.928-1.009-11.887-1.874-16.125-1.375z" overflow="visible" enable-background="accumulate"/><path d="M113.063 14.486c-.188-.5 1.125-5.313 1.125-5.313s-3.938.844-4.188-.688c-.113-.69 2.313-3.625 2.813-4.688.5-1.063 2.188-5.375 4.5-3.188 2.313 2.188 4 3.938 4.063 5 .063 1.063-3.75 2.938-3.75 2.938s.468 5.2-.438 6.313c-1.011 1.241-4.125-.375-4.125-.375z" fill="#e9ddaf" overflow="visible" enable-background="accumulate"/><path d="M117.031.405c.1.611.296 1.587.656 2.219.5.875.438 3-.313 3.188-.75.188-5.5 1.688-5.625 2.563-.125.875 2.531.031 2.531.031-.075.72-.217 1.291-.313 1.906.912.057 2.135.609 2.281 1.438.126.713-.022 2.337-.156 3.563.446-.018.835-.12 1.094-.438.906-1.112.438-6.313.438-6.313s3.813-1.875 3.75-2.938c-.063-1.063-1.75-2.813-4.063-5l-.281-.219z" fill="#786721" overflow="visible" enable-background="accumulate"/><path d="M98.62 10.983s-4.961 1.654-5.925 1.516c-.965-.138-.435-1.583-.172-2.308.725-2 3.032-3.652 4.444-4.582 1.061-.699 6.614-.276 7.579.413.965.689 1.378 2.067.413 2.618-.965.551-6.339 2.343-6.339 2.343z" fill="#c83737" overflow="visible" enable-background="accumulate"/><path d="M104.094 5.842c.204.439.536 1.173.406 1.406-.172.31-1.19.931-1.5 1-.31.069-3.375.193-4.719.469-1.344.276-3.618 2.174-4.031 2.656-.413.482.087.559.5.594.685-.209 2.526-.654 4.188-1.063.529-.177 5.12-1.729 6.031-2.25.965-.551.527-1.936-.438-2.625-.098-.07-.255-.124-.438-.188z" fill="#800000" overflow="visible" enable-background="accumulate"/><path d="M97.724 10.742s1.171 3.962 1.309 4.788c-.276.413 2.067.965 2.067.965l3.169-1.791s-1.337-1.288-2.205-1.791c-.906-.526-2.101-2.928-2.101-2.928-.579-.358-2.045.132-2.239.758z" fill="#f4eed7" overflow="visible" enable-background="accumulate"/><path d="M99.406 9.873c-.666.016-1.542.406-1.688.875 0 0 .246.818.469 1.594.407-.131.882-.27 1.156-.25.482.034 2.379.818 3.063 1.781.319.45.313 1.625.313 1.625l.375-.125 1.188-.656s-1.351-1.309-2.219-1.813c-.906-.526-2.094-2.906-2.094-2.906-.145-.089-.341-.13-.563-.125z" fill="#786721" overflow="visible" enable-background="accumulate"/><path d="M122.099 12.434s.655-.727.53-3.977c.563 1.438.619 4.508.619 4.508s.916-.865.354-2.74c.563.438 1.503 2.917 1.503 2.917l1.591-1.061s-.945-2.534-1.945-4.596c.563.563 2.647 4.406 2.21 3.094 0 0 .073-.522-.177-2.21 1.125 1.375 2.033 4.419 2.033 4.419l2.652-.088s-.638-2.73-1.326-5.48c1.938 3.125 2.121 4.95 2.121 4.95l1.679 1.503c1.509-.984 1.11-2.922 1.414-4.508l.177 1.768c.997 2.191.258-1.981.354-3.094l1.768 5.038 3.359-.795.442-4.508.088 6.718 2.298.265c.323-.955-.124-2.064-.619-3.182.772.948 1.544 1.895 1.503 3.005.274-.825.699-1.65.177-2.475.599.546.939 1.144.707 1.856l3.113-.914c.882.651.36-2.441.334-4.212l.795 1.414.619-3.094c-.373 4.611.017 4.894.088 6.983l1.326.354.707-2.74.354 4.685 1.326.088-.088-3.712 1.945 3.536 1.326-.884-.707-3.977 2.74 5.392-.177-3.27 2.121 3.359s2.563.795 2.033.795c-.53 0-1.326-2.74-1.326-2.74l2.74 3.624-1.326 1.061-41.366-6.452z" fill="#4a0" overflow="visible" enable-background="accumulate"/><path d="M89.249 32.48c-5.512.276-11.299 27.008-11.299 27.008l-24.252 1.102s-4.61-3.65-7.992-4.409c-3.069-.689-10.197 0-10.197 0s-11.024-2.756-15.984-2.756c-4.961 0-9.921 3.858-9.921 7.165l-1.102 9.37s-5.512 3.307-5.512 5.512v9.37c0 2.205 3.858 6.063 3.858 6.063s-3.858 9.37-3.307 12.126c.551 2.756 4.412 8.245 9.921 8.819 5.502.573 21.404-1.864 24.252-3.307 1.967-.996 4.409-7.165 4.409-7.165s25.355-1.654 28.11-1.654c2.756 0 7.165 4.409 7.165 4.409s-9.921 30.866-13.228 45.197c-3.307 14.331-6.063 47.953-6.063 55.118 0 7.165 5.512 8.268 9.37 8.268 3.858 0 22.599 1.654 29.213 0 6.614-1.654 11.024-3.307 11.024-3.307l-1.654-21.496v-14.882s34.173-3.307 37.481-4.409c3.307-1.102 6.074-1.163 8.819-.276 2.843.919 6.063 5.236 6.063 5.236s3.307 27.559 3.307 30.866c0 3.307 3.858 12.126 7.165 12.126s32.52 0 36.378-1.102c3.858-1.102 2.205-8.819 1.102-13.228-1.102-4.409-9.921-49.055-9.921-49.055s3.858-6.063 3.858-9.37c0-3.307-4.409-41.89-5.512-47.953-1.102-6.063.551-17.638-2.205-33.071-2.756-15.433-11.024-38.583-21.496-42.441-10.473-3.858-24.803-3.583-29.764-4.685-4.961-1.102-22.437-4.932-29.213-4.134s-15.433 5.512-18.74 6.614c-3.307 1.102-4.134 14.331-4.134 14.331z" fill="#b8b4ab" overflow="visible" enable-background="accumulate"/><path d="M89.25 32.467c-5.512.276-11.313 27.031-11.313 27.031h-.188l3.469 1 8.094-25.156zm-69.719 20.969c-4.961 0-9.938 3.849-9.938 7.156 0 2.917-.768 7.408-.969 8.563l1.25-.125c.276-2.185 1.159-8.673 2.25-10.656 1.747-3.176 4.462-3.494 5.906-3.469 2.523.044 3.797-.354 4.594-1.25-1.148-.139-2.226-.219-3.094-.219zm21.594 2.438c-2.53.03-4.803.235-5.313.281l2.825 2.631-8.481 5.65 1.966 26.97 4.601-1.05c-2.423-6.766-2.037-15.075-2.078-22.005l4.776-.94c.362-1.538 3.653-5.714 7.017-7.85-.316-1.147-.688-2.277-1.063-3.406-1.138-.207-2.692-.3-4.25-.281zm-31.375 14.125l-1.438.063c-.178.107-5.313 3.238-5.313 5.406v9.375c.43 1.36 1.225.49 2.594.25-.475-2.493-.369-9.863.344-10.813.712-.95 3.813-4.281 3.813-4.281zm-3.031 20.75c.209 1.636-3.742 8.406-3.188 12.281.369.921 1.616-.901 2.406-1.313l1.906-8.188c3.238-1.842 6.401-1.82 9.906-1.625-3.824-.218-9.473-.611-11.031-1.156zm159.738 83.837c-4.883-.195-12.908-6.935-8.019-.993 0 0 3.281 27.537 3.281 30.844 0 1.15.502 2.994 1.25 4.875 0 0 12.475.675 12.713-4.312zm-21.2-148.199s7.388-.672 8.06.672c.672 1.343 16.792 49.704 16.792 49.704s-3.023 8.06-3.694 12.426l-1.343 33.248-4.162-.95-3.833 2.646 3.056 3.104c-3.42 14.751-.746 18.534-1.106 27.776l-7.47 1.581-.729-10.19c-.238-2.967-4.422-3.231-4.563-5.16-.475-2.612 1.598-15.9 1.598-15.9l7.405-5.299 1.744-12.049-7.724-14.777zm-55.726 48.362l-16.969 25.656c2.396 1.244 4.844 3.719 4.844 3.719s-9.943 30.888-13.25 45.219c-3.307 14.331-6.063 47.928-6.063 55.094 0 .762.071 1.463.188 2.094 0 0 2.032-1.869 7.731.031l1.906-42.281 5.931-5.706s-2.571-12.521-2.131-14.718c1.9-9.499 7.443-24.579 8.8-25.414 3.087-1.9 10.443-10.187 10.443-10.187l2.647-10.972-6.672 5.034 2.844-19.725zm23.969-63.313c-.501.015-.952.044-1.375.094-6.776.798-15.443 5.523-18.75 6.625-3.307 1.102-4.125 14.313-4.125 14.313-.374.019-.75.191-1.125.438l.375 22.875 3.438-2.375s-1.004-1.162-.452-4.083c1.212-6.415 9.945-3.448 13.135-.758 1.322 1.115 1.005 11.247 1.005 11.247s-6.88.844-9.063.844c-2.183 0-3.781.563-3.781.563l1.5 2.969 4.969.656-8.844 5c.152 2.725.325 5.294 2.031 5.844l7.156-2.656-6.188 7.5 2.906 12.625 2.688 4.188 1.938 6.125s2.332-2.52 3.844-2.688c1.511-.168 9.574 1.172 9.406.5-.168-.672 1.844-5.719 1.844-5.719s-5.364-.656-6.875-.656c-1.511 0-8.406 1.656-8.406 1.656l-1.938-4.375s9.344-3.152 10.688-3.656c1.343-.504 8.719 2.344 8.719 2.344l-.5-2.688s-5.551-2.863-7.063-3.031c-1.511-.168-11.406 4.031-11.406 4.031s-2.848-8.399-2.344-9.406c.504-1.008 9.406-5.719 9.406-5.719s2.426-20.457 2.594-21.969c.168-1.511-2.764-4.988-2.764-4.988s4.558-.733 5.87-3.262c2.059-3.969 12.269-4.187 12.269-4.187s.198-3.362-3.284-7.473c-.202-4.951.681-15.231.815-20.152-3.136-.412-6.098-.662-8.313-.594zm11.438 48.375l-10.227.992-.023 1.695 7.719 1.5v-1.5z" fill="#e7e7dd" overflow="visible" enable-background="accumulate"/><path d="M138.305 20.078s2.48 14.331.276 15.709c-2.205 1.378-2.48 6.339-2.48 6.339s2.48 8.268 2.48 10.473-.551 6.339-1.102 9.095c-.551 2.756 3.032 8.819 3.032 10.197 0 1.378-.827 19.291-2.756 21.496-1.929 2.205-6.339 12.953-6.339 12.953s-17.638 1.378-21.772 1.102c-4.134-.276-8.268-2.48-8.268-2.48s7.992 5.236 8.819 6.339c.827 1.102 10.197 1.654 10.197 1.654s4.685.551 3.858 2.205c-.827 1.654-4.961 3.583-4.961 3.583s14.606-1.654 16.26-3.032c1.654-1.378 10.748-19.567 12.677-19.843 1.929-.276 3.032-3.583 3.032-3.583s4.134-16.811 3.032-17.638c-1.102-.827-2.756-9.646-2.756-12.402 0-2.756-2.48-33.622-5.512-36.654-3.032-3.032-7.717-5.512-7.717-5.512zm18.476 6.608s21.5 46.022 21.5 50.156-2.21 46.866-3.313 47.969c-1.102 1.102-8.267.832-9.094 3.313-.827 2.48-2.23 26.997-2.781 28.375-.551 1.378-7.42 1.932-9.625 1.656s4.946 3.563 6.875 3.563l12.125-1.906c1.929 0 5.247.531 6.625.531 1.378 0 5.793 1.946 6.344 3.875.551 1.929 1.636 12.107 2.188 17.344.551 5.236 5.25 26.483 5.25 28.688 0 1.429-1.927 4.237-3.313 6.125 7.234-.151 14.003-.416 15.719-.906 3.858-1.102 2.196-8.809 1.094-13.219-1.102-4.409-9.906-49.063-9.906-49.063s3.844-6.068 3.844-9.375c0-3.307-4.398-41.874-5.5-47.938-1.102-6.063.537-17.661-2.219-33.094-1.677-9.391-5.393-21.605-10.406-30.625-8.246-3.161-16.448-6.585-25.406-5.469zm-66.719 8.813s-6.872 23.149-8.25 26.594c-2.756 1.24-13.592 1.38-20.406 1.656-2.111.086-6.344 0-6.344 0s-2.889-3.838-5.094-3.563c-2.205.276-6.457 4.224-7.925 7.569-1.367 3.114-.469 8.272-.194 10.201.276 1.929.557 10.758.557 12.136 0 1.378-6.903 1.625-8.281 1.625-1.378 0-3.453-16.995-2.887-24.444.342-4.508 8.419-8.337 8.419-8.337l-13.781-3.031s1.082 3.304.531 4.406c-.551 1.102-2.469 10.188-2.469 10.188l-8-.813-2.7.332s2.692.481 3.794.481c1.102 0 4.969 2.219 4.969 2.219l-.531 17.625-10.5.844 10.5 1.094s2.756 1.659 3.031 3.313c.276 1.654 1.625 12.938 1.625 12.938s-10.727 1.662-12.656 1.938c-.647.092-1.512.41-2.375.781.752.285 1.542.507 2.375.594 5.502.573 21.402-1.87 24.25-3.313 1.967-.996 4.406-7.156 4.406-7.156s25.338-1.656 28.094-1.656c2.756 0 7.188 4.406 7.188 4.406v.031l.125-.031s2.425-7.387 3.875-11c2.894-7.211 9.625-18.738 9.625-21.219 0-2.48.076-11.472-.813-13.25-.965-1.929-1.526-5.093-1.25-8.125l1.094-15.031zm9.384 44.659c-1.397 1.071-1.102 4.409-.689 5.236.413.827.827-3.858 1.378-3.858.551 0 4.272 4.134 4.272 4.134s-2.067 1.654-2.894 1.654l-2.205-.413s.276 1.791 1.24 1.791c.965 0 7.965-2.263 8.957-2.205 2.343.138 13.642 2.618 15.158 2.48 1.516-.138 2.48-2.618 1.378-2.894-1.102-.276-5.098-7.441-6.89-7.579-1.791-.138-3.261-1.041-10.473-1.24-1.54-.043-6.193.563-9.232 2.894zm13.642-26.181s-.827-5.787.827-6.752c1.654-.965 3.583-1.654 5.374-1.102 1.791.551 7.028 5.236 7.854 6.89.643 1.287 1.654 6.752 1.654 6.752s-10.473.827-11.024.827c-.157-2.146 1.953-2.318.413-4.685-1.654-.551-5.098-1.929-5.098-1.929zm-18.051-.276s-2.205-4.685.276-5.512c2.48-.827 5.58.093 7.303 1.929 2.435 2.594 3.445 10.197 2.067 10.473-1.378.276-8.268 0-8.268 0s4.685-.551 4.409-2.205c-.276-1.654-.551-1.654-2.343-2.756-1.174-.722-3.445-1.929-3.445-1.929zm-18.756 111.048s6.628 3.599 8.281 3.875c1.654.276 4.406 6.344 4.406 6.344s-.543 4.136-.818 7.995c-.139 1.944-2.492 14.607-.838 16.537 1.654 1.929 5.79 8.545 4.688 10.75-.454.908-1.139 2.072-1.75 3.156 2.588-.086 4.861-.293 6.438-.688 6.614-1.654 11.031-3.313 11.031-3.313l-1.656-21.5v-14.875s34.162-3.304 37.469-4.406c3.307-1.102 6.099-1.169 8.844-.281 1.277.413 2.616 1.509 3.719 2.594l.406-.375s-3.883-5.244-6.625-4.969c-18.003 1.805-46.843 4.412-49.875 4.688-3.032.276-13.508-3.875-15.438-3.875-1.929 0-8.281-1.656-8.281-1.656z" fill="#595151" overflow="visible" enable-background="accumulate"/><path d="M119.082 11.691c.635-.974-.238-1.813-.206-2.637.457 1.008 1.01 2.135.827 2.343 1.504-.179 1.395-1.228 1.929-1.929v2.067l2.618.689c1.118-.877.474-2.006.551-3.032l1.102 1.654c-.316.732 1.528 1.247 2.205-.827.138-.827-.827-2.894-.827-2.894s1.136 1.686 1.585 2.593c.356.719.895 2.093.895 2.093 1.038-.25 1.836-.578 1.899-1.361.06-.739-.594-1.927-.42-2.383l1.139 2.227c.696 1.362.363 2.443 1.516.138l1.378-2.756c-.355 1.804-1.807 5.528-.965 5.236h1.791c1.412-.138.79-2.084.827-3.445l.689.827c.833.644 1.381-.921.878-3.245l.776 1.591c1.25 2.188.639-2.715.639-2.715.482.625 1.203 2.959.876 4.23l1.102-.689-.689 3.858c1.924.655 3.676.913 4.272-.138.781-1.378 3.064-8.006 2.343-4.134-.139.747-.735 5.459-.051 3.593.235-.641.832-2.799.819-2.579-.09 1.571.522 3.019 1.813 1.379l1.828-3.219s-1.102 3.032-.827 3.996c.276.965-.16 2.568.965 2.756 0 0 1.229-3.108 1.791-3.858-.375 1-.965 3.996-.965 3.996l1.791.551s-.273-4.084.138-6.063c.272-1.311 1.516-3.72 1.516-3.72s-.836 3.746-.827 5.65c.007 1.488.689 4.409.689 4.409.349-1.352.251-2.629 1.516-4.134l.038 3.067c-.069 1.254.271 1.485 1.202.24.218 1.307.972-2.301 1.141-3.495.086-.61.562 1.258.926 1.841.643 1.028.08 3.831 2.205 2.894 0 0 1.378-2.618 1.378-1.791l.138 2.756c-.419.524 1.418.984 1.791.138.138-.551 2.388-2.3 1.288-.663-.317.472-2.33 2.355.013 3.32 2.343.965 2.006 2.442 2.006 2.442l-4.485-3.53s-1.87-.154-3.496-.291c-.7-.059-2.492-.726-3.318-.864-.827-.138-1.791-.551-1.102-.413.689.138 1.516 2.067 1.516 2.067-.689-.735-1.316-1.47-2.894-2.205-2.208-.1-2.567-.637-6.626-.301 0 0 1.413 1.61.976 1.266-.991-.423-.892-.825-2.26-1.266 0 0-6.095-1.003-7.845-.94 1.313.25 2.051 2.31 2.051 2.31s-1.172-2.06-3.797-2.997c.736.929.406 1.822.551 2.756-.601-1.114-.554-2.505-2.205-3.169 0 0-9.646-1.102-10.197-1.516-1.875-.938-6.08-1.46-7.924-1.773z" fill="#447821" overflow="visible" enable-background="accumulate"/></g></svg>