<svg xmlns="http://www.w3.org/2000/svg" viewBox="0 0 723.3 448.1" enable-background="new 0 0 723.3 448.1"><path fill="#D37D1A" stroke="#000" stroke-width="4" stroke-linecap="round" stroke-linejoin="round" d="M554.3 322.2l4.5-1.3c4.8-1.4 4.6-3.4-.4-4.6l-24.1-5.4c-5-1.1-8.4.4-7.6 3.4l2.5 9.4c.8 3 5.3 4.3 10.1 2.9l2.2-.6c2.5 2.2-2.3-5 1-1.5 7.4 7.8 18 21.2-16.3 34.8-38.6 12.5-56.5 1.6-81.4-.9 4.7-10.9 7.2-22.9 7.2-35.5 0-49.8-40.4-90.2-90.2-90.2-49.8 0-90.2 40.4-90.2 90.2 0 49.8 40.4 90.2 90.2 90.2 17.8 0 34.5-5.2 48.5-14.1 57.4-18 86.4-4 144.4-37.6 36.9-21.5 17.2-32-.4-39.2z"/><path fill-opacity=".314" d="M541 326.4c3.1.9-3.3-7-2.5-6.2 4.9 6.8 22.2 19.4-.1 34.3 27.6-10.2 25.5-20.5-10.1-44.1-3.4.9-.8 12 .4 13.2 6.9 5.7 7.4 1.5 12.3 2.8zm19.1 26.8c-53.7 31.1-90.5 20.2-132.1 28.3-7.4 1.5-15 3.5-22.8 6.6-2.3.9-4.4 1.7-6.3 2.3-8.9 4.5-18.5 7.5-28.6 8.9-4.9.7-9.8 1.1-14.8 1.1-38.9 0-77-36.2-84.7-74.9 2.2 47.8 41.7 86 90.1 86 16.4 0 31.8-4.4 45-12 64.5-23.2 93.4-3.4 154.2-42.5 10.8-6.2 12-8.9 15.2-14.6-3.6 3.7-8.8 7.1-15.2 10.8z"/><g stroke="#000" stroke-width="4" stroke-linecap="round" stroke-linejoin="round"><path fill="#D37D1A" d="M434.8 279.9c47.7-8.7 95.2 25.5 95.2 25.5 46.5-35.3 91.7 0 91.7 0 43-50.8 98.7 0 98.7 0 16.2-100.8-177.7-133.3-177.7-133.3-23.9 54.2-116.1 78.9-131.7 82.8"/><g fill="none"><path d="M621.4 301.6s26.8-58.7-76.5-127.3M529.5 302.5s32-61.6 15-128.1"/></g></g><linearGradient id="a" gradientUnits="userSpaceOnUse" x1="1139.552" y1="614.172" x2="1139.552" y2="619.255" gradientTransform="matrix(-1.6 .782 -.749 -1.532 2817.51 229.342)"><stop offset="0" stop-color="#FAB044"/><stop offset="1" stop-color="#C67729"/></linearGradient><path fill="url(#a)" stroke="#000" stroke-width="3" stroke-linecap="round" stroke-linejoin="round" d="M526.7 184.2c-3.4-7-2.7-14.5 1.7-16.6 4.4-2.1 10.7 1.9 14.1 8.9 3.4 7 2.7 14.5-1.7 16.6-4.3 2.1-10.7-1.9-14.1-8.9z"/><linearGradient id="b" gradientUnits="userSpaceOnUse" x1="1146.996" y1="614.171" x2="1146.996" y2="619.255" gradientTransform="matrix(-1.6 .782 -.749 -1.532 2848.506 214.193)"><stop offset="0" stop-color="#FAB044"/><stop offset="1" stop-color="#C67729"/></linearGradient><path fill="url(#b)" stroke="#000" stroke-width="3" stroke-linecap="round" stroke-linejoin="round" d="M545.8 174.8c-3.4-7-2.7-14.5 1.7-16.6 4.4-2.1 10.7 1.9 14.1 8.9 3.4 7 2.7 14.5-1.7 16.6-4.4 2.2-10.7-1.8-14.1-8.9z"/><linearGradient id="c" gradientUnits="userSpaceOnUse" x1="1143.327" y1="615.839" x2="1143.327" y2="621.878" gradientTransform="matrix(-1.6 .782 -.749 -1.532 2833.232 221.658)"><stop offset="0" stop-color="#FAB044"/><stop offset="1" stop-color="#C67729"/></linearGradient><path fill="url(#c)" stroke="#000" stroke-width="3" stroke-linecap="round" stroke-linejoin="round" d="M535.2 177c-4.1-8.4-3.9-16.9.5-19 4.4-2.1 11.2 2.9 15.3 11.3 4.1 8.4 3.9 16.9-.5 19-4.4 2.2-11.2-2.9-15.3-11.3z"/><g stroke="#000" stroke-width="4" stroke-linecap="round" stroke-linejoin="round"><path fill="#D37D1A" d="M288.5 279.9c-47.7-8.7-95.2 25.5-95.2 25.5-46.5-35.3-91.7 0-91.7 0-43-50.8-98.7 0-98.7 0-16.2-100.8 177.7-133.3 177.7-133.3 23.9 54.2 116.1 78.9 131.7 82.7"/><g fill="none"><path d="M101.9 301.6s-26.8-58.7 76.5-127.3M193.8 302.5s-32-61.6-15-128.1"/></g></g><linearGradient id="d" gradientUnits="userSpaceOnUse" x1="606.339" y1="342.018" x2="606.339" y2="347.101" gradientTransform="matrix(1.6 .782 .749 -1.532 -1037.167 229.342)"><stop offset="0" stop-color="#FAB044"/><stop offset="1" stop-color="#C67729"/></linearGradient><path fill="url(#d)" stroke="#000" stroke-width="3" stroke-linecap="round" stroke-linejoin="round" d="M196.6 184.2c3.4-7 2.7-14.5-1.7-16.6-4.4-2.1-10.7 1.9-14.1 8.9s-2.7 14.5 1.7 16.6c4.4 2.1 10.7-1.9 14.1-8.9z"/><linearGradient id="e" gradientUnits="userSpaceOnUse" x1="613.783" y1="342.017" x2="613.783" y2="347.101" gradientTransform="matrix(1.6 .782 .749 -1.532 -1068.163 214.193)"><stop offset="0" stop-color="#FAB044"/><stop offset="1" stop-color="#C67729"/></linearGradient><path fill="url(#e)" stroke="#000" stroke-width="3" stroke-linecap="round" stroke-linejoin="round" d="M177.6 174.8c3.4-7 2.7-14.5-1.7-16.6-4.4-2.1-10.7 1.9-14.1 8.9s-2.7 14.5 1.7 16.6c4.3 2.2 10.6-1.8 14.1-8.9z"/><linearGradient id="f" gradientUnits="userSpaceOnUse" x1="610.114" y1="343.685" x2="610.114" y2="349.724" gradientTransform="matrix(1.6 .782 .749 -1.532 -1052.89 221.658)"><stop offset="0" stop-color="#FAB044"/><stop offset="1" stop-color="#C67729"/></linearGradient><path fill="url(#f)" stroke="#000" stroke-width="3" stroke-linecap="round" stroke-linejoin="round" d="M188.1 177c4.1-8.4 3.9-16.9-.5-19-4.4-2.1-11.2 2.9-15.3 11.3-4.1 8.4-3.9 16.9.5 19 4.4 2.2 11.2-2.9 15.3-11.3z"/><path fill-opacity=".314" d="M409.2 247c0-12.7-18.8 48.5-42.9 48.5-18.6 0-36.5-15.6-50-45.1 28.4 51.5 45.8 76.4 56.5 64 22.4-25.8 36.4-67.4 36.4-67.4z"/><path fill="#D37D1A" stroke="#000" stroke-width="4" stroke-linecap="round" stroke-linejoin="round" d="M360.5 2c-11.1 0-22.3 90.4-34.5 100.8-.5-.4-42 28.4-39.2 57 4 40.5 50.6 148.3 73.7 148.3 24.1 0 74.6-107.6 73.7-148.3-.7-33.4-39.8-57.2-40.3-56.8-12.4-10.5-22.6-101-33.4-101z"/><path fill-opacity=".314" d="M429.9 146.5c0 40.7-49.7 140.4-73.7 140.4-18.6 0-55-88-68.5-117.6 6.9 36.2 51.5 136.8 72.8 136.8 24.1 0 73.7-105.5 73.7-146.2 0-12.8-4.3-21-4.3-13.4z"/><path d="M374.3 272.6c-1.9 3.4-5.5 4.9-7.9 3.5-2.5-1.4-2.9-5.3-.9-8.6 1.9-3.4 5.5-4.9 8-3.5s2.7 5.3.8 8.6zM346.6 272.6c1.9 3.4 5.5 4.9 8 3.5 2.5-1.4 2.9-5.3.9-8.6-1.9-3.4-5.5-4.9-7.9-3.5-2.6 1.4-3 5.3-1 8.6z"/><path fill="#fff" stroke="#000" stroke-width="4" stroke-linecap="round" stroke-linejoin="round" d="M339.7 128.2c-14.4 0-26 13.5-26 30.1s11.7 30.1 26 30.1c8.4 0 15.9-4.7 20.7-11.9 4.8 7.2 12.3 11.9 20.7 11.9 14.4 0 26-13.5 26-30.1s-11.7-30.1-26-30.1c-8.4 0-16 4.7-20.7 11.9-4.8-7.3-12.3-11.9-20.7-11.9z"/><path stroke="#000" stroke-width="2.891" stroke-linecap="round" stroke-linejoin="round" d="M358.8 160.3c0 4.2-3.4 7.5-7.5 7.5-4.2 0-7.5-3.4-7.5-7.5 0-4.2 3.4-7.5 7.5-7.5s7.5 3.3 7.5 7.5z"/><path fill="#fff" d="M350.5 157.7c0 1.1-.9 2-2 2s-2-.9-2-2 .9-2 2-2 2 .9 2 2z"/><path stroke="#000" stroke-width="2.891" stroke-linecap="round" stroke-linejoin="round" d="M377.8 160.3c0 4.2-3.4 7.5-7.5 7.5-4.2 0-7.5-3.4-7.5-7.5 0-4.2 3.4-7.5 7.5-7.5 4.2 0 7.5 3.3 7.5 7.5z"/><path fill="#fff" d="M369.5 157.7c0 1.1-.9 2-2 2s-2-.9-2-2 .9-2 2-2c1.2 0 2 .9 2 2z"/><linearGradient id="g" gradientUnits="userSpaceOnUse" x1="462.193" y1="200.406" x2="462.193" y2="208.661" gradientTransform="matrix(1.781 0 0 1.706 -403.124 68.38)"><stop offset="0" stop-color="#FAB044"/><stop offset="1" stop-color="#C67729"/></linearGradient><path fill="url(#g)" stroke="#000" stroke-width="4" stroke-linecap="round" stroke-linejoin="round" d="M434.3 408.7c0 12.7-6.4 23-14.2 23s-14.2-10.3-14.2-23 6.4-23 14.2-23 14.2 10.3 14.2 23z"/><linearGradient id="h" gradientUnits="userSpaceOnUse" x1="462.193" y1="200.406" x2="462.193" y2="208.661" gradientTransform="matrix(1.781 0 0 1.706 -437.624 68.38)"><stop offset="0" stop-color="#FAB044"/><stop offset="1" stop-color="#C67729"/></linearGradient><path fill="url(#h)" stroke="#000" stroke-width="4" stroke-linecap="round" stroke-linejoin="round" d="M399.8 408.7c0 12.7-6.4 23-14.2 23s-14.2-10.3-14.2-23 6.4-23 14.2-23 14.2 10.3 14.2 23z"/><linearGradient id="i" gradientUnits="userSpaceOnUse" x1="462.193" y1="203.113" x2="462.193" y2="212.923" gradientTransform="matrix(1.781 0 0 1.706 -420.624 68.38)"><stop offset="0" stop-color="#FAB044"/><stop offset="1" stop-color="#C67729"/></linearGradient><path fill="url(#i)" stroke="#000" stroke-width="4" stroke-linecap="round" stroke-linejoin="round" d="M416.8 413.1c0 15.1-6.4 27.4-14.2 27.4s-14.2-12.2-14.2-27.4c0-15.1 6.4-27.4 14.2-27.4s14.2 12.2 14.2 27.4z"/><linearGradient id="j" gradientUnits="userSpaceOnUse" x1="419.521" y1="199.821" x2="419.521" y2="208.076" gradientTransform="matrix(1.781 0 0 1.706 -403.124 68.38)"><stop offset="0" stop-color="#FAB044"/><stop offset="1" stop-color="#C67729"/></linearGradient><path fill="url(#j)" stroke="#000" stroke-width="4" stroke-linecap="round" stroke-linejoin="round" d="M358.3 407.7c0 12.7-6.4 23-14.2 23s-14.2-10.3-14.2-23 6.4-23 14.2-23 14.2 10.3 14.2 23z"/><linearGradient id="k" gradientUnits="userSpaceOnUse" x1="419.521" y1="199.821" x2="419.521" y2="208.076" gradientTransform="matrix(1.781 0 0 1.706 -437.624 68.38)"><stop offset="0" stop-color="#FAB044"/><stop offset="1" stop-color="#C67729"/></linearGradient><path fill="url(#k)" stroke="#000" stroke-width="4" stroke-linecap="round" stroke-linejoin="round" d="M323.8 407.7c0 12.7-6.4 23-14.2 23s-14.2-10.3-14.2-23 6.4-23 14.2-23 14.2 10.3 14.2 23z"/><linearGradient id="l" gradientUnits="userSpaceOnUse" x1="419.521" y1="202.528" x2="419.521" y2="212.335" gradientTransform="matrix(1.781 0 0 1.706 -420.624 68.38)"><stop offset="0" stop-color="#FAB044"/><stop offset="1" stop-color="#C67729"/></linearGradient><path fill="url(#l)" stroke="#000" stroke-width="4" stroke-linecap="round" stroke-linejoin="round" d="M340.8 412.1c0 15.1-6.4 27.4-14.2 27.4s-14.2-12.2-14.2-27.4c0-15.1 6.4-27.4 14.2-27.4s14.2 12.2 14.2 27.4z"/><path fill-opacity=".314" d="M308.5 385.7c-5.8 0-6.8-3.4-9 4.7 13.4 13.4 17.9 17 58.7 22.4-.3-12.3-5.5-28.1-13.2-28.1-3.3 0-8.3 2.8-10.8 5.9-2.4-3-5.4-4.9-8.8-4.9-3.2 0-6.1 1.7-8.5 4.6-2.2-2.9-5.2-4.6-8.4-4.6zm77 0c-7.7 0-13.9 14.8-14.2 27 21.9-.7 41.6-12 60.4-17.3-2.3-7.5-6.2-9.7-11.7-9.7-3.3 0-6.3 1.8-8.8 4.9-2.4-3-5.4-4.9-8.8-4.9-3.2 0-6.1 1.7-8.5 4.6-2.2-2.9-5.2-4.6-8.4-4.6z"/></svg>