<svg xmlns="http://www.w3.org/2000/svg" viewBox="0 0 504 424.4" enable-background="new 0 0 504 424.4"><path fill="#010101" fill-opacity=".314" d="M334.1 395.5c0 13.6-36.8 24.7-82.1 24.7-45.4 0-82.1-11.1-82.1-24.7s36.8-24.7 82.1-24.7c45.4 0 82.1 11.1 82.1 24.7z"/><path fill="#54B948" stroke="#010101" stroke-width="4" d="M459 154.2c-78.1-28.8-80.8 132.2-215.8 161.4-24.9 5.4 70 63.1 171.6 2.5 98.7-59 113.9-132.9 44.2-163.9z"/><circle fill="#FFF200" stroke="#000" stroke-width="4" cx="464.4" cy="204.4" r="21.5"/><path fill="#010101" fill-opacity=".314" d="M481.1 167.7c-.5-.4-1.1-.8-1.6-1.3 6.5 33.2-16.5 78.1-70.9 121.9-72.2 58.2-150.5 43.7-169.5 30.5-1.1 12.9 84.5 53.7 175.5-.7 86.6-51.7 109-114.7 66.5-150.4z"/><path fill="#54B948" stroke="#010101" stroke-width="4" d="M398.7 108.7c-82.9-7.6-43.9 148.6-166.7 211.8-22.7 11.7 83.9 42.9 166.4-42 80.2-82.6 75.7-157.9.3-169.8z"/><circle fill="#FFF200" stroke="#000" stroke-width="4" cx="424.3" cy="156.9" r="21.5"/><path fill="#010101" fill-opacity=".314" d="M423.6 116c-.6-.3-1.2-.5-1.9-.8 14.9 30.4 4.3 79.7-36.9 136.1-54.7 74.9-134.1 81.2-155.8 73.3 2.3 12.8 95.5 30 169.4-46.1 70.2-72.3 75.5-139 25.2-162.5z"/><path fill="#54B948" stroke="#010101" stroke-width="4" d="M355.4 77.5c-83.2-.3-30.7 151.9-147.6 225.5-21.6 13.6 87.3 35.4 162.1-56.3 72.6-89.3 61.6-163.9-14.5-169.2z"/><circle fill="#FFF200" stroke="#000" stroke-width="4" cx="382.2" cy="116.3" r="21.5"/><path fill="#010101" fill-opacity=".314" d="M380.8 82.7l-1.9-.6c17.5 29 11.2 79.1-24.9 138.8-48 79.4-126.5 92.5-148.8 86.6 3.4 12.5 97.8 21.5 164.7-60.7 63.6-78.2 63-145.1 10.9-164.1z"/><path fill="#54B948" stroke="#010101" stroke-width="4" d="M300.7 45.4c-82 14.1-3.9 154.9-106.2 247.7-18.9 17.1 92.2 19.7 149.8-83.6 56.1-100.6 32.2-172.1-43.6-164.1z"/><circle fill="#FFF200" stroke="#000" stroke-width="4" cx="339.3" cy="80.7" r="21.5"/><path fill="#010101" fill-opacity=".314" d="M326.6 46l-2-.3c22.3 25.5 24.7 75.9-.4 141-33.5 86.5-108.5 113.1-131.5 111.1 5.5 11.8 100 4.2 151.7-88.4 49-87.9 36.8-153.7-17.8-163.4z"/><path fill="#54B948" stroke="#010101" stroke-width="4" d="M55 140.8c81.9-14.8 56.7 144.2 184.5 196.4 23.6 9.6-79.9 50-169.4-27.3-87-75.3-89.1-150.7-15.1-169.1z"/><path fill="#010101" fill-opacity=".314" d="M6.4 224.8c8.6 26.1 29.6 55.6 63.7 85 89.5 77.4 193 37 169.4 27.4-10.1-4.1-19.3-8.9-27.6-14.2-30.4 9-96 9.6-155.5-41.8-22.1-19.1-38.7-38.2-50-56.4zm105.7-49.1c5.7 12.8 11.7 26.3 18.9 40.1-6.6-14.6-12.6-28.4-18.9-40.1z"/><circle fill="#FFF200" stroke="#000" stroke-width="4" cx="34.3" cy="204.4" r="21.5"/><path fill="#54B948" stroke="#010101" stroke-width="4" d="M98 108.7c82.9-7.6 43.9 148.6 166.7 211.8 22.7 11.7-83.9 42.9-166.3-42-80.3-82.6-75.7-157.9-.4-169.8z"/><path fill="#010101" fill-opacity=".314" d="M42.3 188.2c6.3 26.7 24.7 57.9 56.1 90.3 82.4 84.9 189 53.7 166.3 42-9.7-5-18.4-10.6-26.3-16.6-31.1 6.3-96.5 1.2-151.3-55.2-20.3-21-35.2-41.4-44.8-60.5zm109.5-39.7c4.6 13.2 9.4 27.3 15.3 41.6-5.3-15.1-10-29.4-15.3-41.6z"/><circle fill="#FFF200" stroke="#000" stroke-width="4" cx="70.4" cy="168.9" r="21.5"/><path fill="#54B948" stroke="#010101" stroke-width="4" d="M141.3 77.5c83.2-.3 30.7 151.9 147.6 225.5 21.6 13.6-87.3 35.4-162.1-56.3-72.6-89.3-61.6-163.9 14.5-169.2z"/><path fill="#010101" fill-opacity=".314" d="M78.9 151.9c3.9 27.2 19.5 59.9 48 94.8 74.7 91.8 183.6 70 162.1 56.4-9.2-5.8-17.4-12.1-24.7-18.8-31.5 3.6-96.2-7.2-145.9-68.2-18.5-22.7-31.6-44.4-39.5-64.2zm112.5-30c3.4 13.5 7 28 11.6 42.8-3.9-15.6-7.3-30.2-11.6-42.8z"/><circle fill="#FFF200" stroke="#000" stroke-width="4" cx="111.1" cy="128.2" r="21.5"/><path fill="#54B948" stroke="#010101" stroke-width="4" d="M196.1 45.4c82 14.1 3.9 154.9 106.2 247.7 18.9 17.1-92.2 19.7-149.8-83.6-56.1-100.6-32.3-172.1 43.6-164.1z"/><path fill="#010101" fill-opacity=".314" d="M121.7 107.7c-.9 27.4 8.8 62.4 30.8 101.7 57.6 103.3 168.7 100.8 149.8 83.6-8.1-7.3-15.1-15-21.1-22.8-31.7-1.9-93.5-23.8-131.8-92.5-14.3-25.4-23.4-49.1-27.7-70zm116-10c1 13.9 2 28.8 4 44.1-1.2-15.9-2-30.9-4-44.1z"/><circle fill="#FFF200" stroke="#000" stroke-width="4" cx="159.4" cy="80.7" r="21.5"/><path fill="#54B948" stroke="#010101" stroke-width="4" d="M247.6 286.4s132.5-282.1 3.6-282.4c-128.8-.4-3.6 282.4-3.6 282.4z"/><circle fill="#FFF200" stroke="#000" stroke-width="4" cx="252" cy="47.7" r="27.1"/><path fill="#010101" fill-opacity=".314" d="M247 2.2c-.7 0-1.4 0-2 .1 26.4 21.3 37.6 70.5 24.1 138.9-17.9 91-8.7 90.7-23.9 136.2 3.3 21.5 13-17.1 47.7-117.3 33-95.1 9.6-157.8-45.9-157.9z"/><g transform="translate(-216.727 -178.058)"><path fill="#50A5DC" stroke="#010101" stroke-width="4" stroke-linecap="round" stroke-linejoin="round" d="M543.1 512.8c0 41.1-33.3 74.4-74.3 74.4-41.1 0-74.4-33.3-74.3-74.4 0-41.1 33.3-74.4 74.3-74.4s74.3 33.3 74.3 74.4z"/><path fill="#010101" fill-opacity=".314" d="M538.6 487.3c.1 1.1.1 2.3.1 3.5 0 41-33.3 74.3-74.3 74.3-32.1 0-59.5-20.4-69.9-48.9 1.8 39.4 34.4 70.9 74.3 70.9 41 0 74.3-33.3 74.3-74.3 0-9-1.6-17.6-4.5-25.5z"/><linearGradient id="a" gradientUnits="userSpaceOnUse" x1="709.443" y1="42.761" x2="709.443" y2="48.365" gradientTransform="matrix(1.781 0 0 1.706 -756.951 508.918)"><stop offset="0" stop-color="#FBB045"/><stop offset="1" stop-color="#C77829"/></linearGradient><path fill="url(#a)" stroke="#010101" stroke-width="4" stroke-linecap="round" stroke-linejoin="round" d="M516.2 581c0 8.6-4.3 15.6-9.7 15.6s-9.7-7-9.7-15.6 4.3-15.6 9.7-15.6 9.7 6.9 9.7 15.6z"/><linearGradient id="b" gradientUnits="userSpaceOnUse" x1="715.666" y1="42.762" x2="715.666" y2="48.365" gradientTransform="matrix(1.781 0 0 1.706 -791.451 508.918)"><stop offset="0" stop-color="#FBB045"/><stop offset="1" stop-color="#C77829"/></linearGradient><path fill="url(#b)" stroke="#010101" stroke-width="4" stroke-linecap="round" stroke-linejoin="round" d="M492.8 581c0 8.6-4.3 15.6-9.7 15.6s-9.7-7-9.7-15.6 4.3-15.6 9.7-15.6 9.7 6.9 9.7 15.6z"/><linearGradient id="c" gradientUnits="userSpaceOnUse" x1="712.599" y1="44.599" x2="712.599" y2="51.256" gradientTransform="matrix(1.781 0 0 1.706 -774.451 508.918)"><stop offset="0" stop-color="#FBB045"/><stop offset="1" stop-color="#C77829"/></linearGradient><path fill="url(#c)" stroke="#010101" stroke-width="4" stroke-linecap="round" stroke-linejoin="round" d="M504.4 583.9c0 10.3-4.3 18.6-9.7 18.6s-9.7-8.3-9.7-18.6 4.3-18.6 9.7-18.6 9.7 8.4 9.7 18.6z"/><linearGradient id="d" gradientUnits="userSpaceOnUse" x1="680.479" y1="42.363" x2="680.479" y2="47.967" gradientTransform="matrix(1.781 0 0 1.706 -756.951 508.918)"><stop offset="0" stop-color="#FBB045"/><stop offset="1" stop-color="#C77829"/></linearGradient><path fill="url(#d)" stroke="#010101" stroke-width="4" stroke-linecap="round" stroke-linejoin="round" d="M464.7 580.3c0 8.6-4.3 15.6-9.7 15.6s-9.7-7-9.7-15.6 4.3-15.6 9.7-15.6 9.7 7 9.7 15.6z"/><linearGradient id="e" gradientUnits="userSpaceOnUse" x1="686.702" y1="42.363" x2="686.702" y2="47.967" gradientTransform="matrix(1.781 0 0 1.706 -791.451 508.918)"><stop offset="0" stop-color="#FBB045"/><stop offset="1" stop-color="#C77829"/></linearGradient><path fill="url(#e)" stroke="#010101" stroke-width="4" stroke-linecap="round" stroke-linejoin="round" d="M441.2 580.3c0 8.6-4.3 15.6-9.7 15.6s-9.7-7-9.7-15.6 4.3-15.6 9.7-15.6 9.7 7 9.7 15.6z"/><linearGradient id="f" gradientUnits="userSpaceOnUse" x1="683.635" y1="44.201" x2="683.635" y2="50.859" gradientTransform="matrix(1.781 0 0 1.706 -774.451 508.918)"><stop offset="0" stop-color="#FBB045"/><stop offset="1" stop-color="#C77829"/></linearGradient><path fill="url(#f)" stroke="#010101" stroke-width="4" stroke-linecap="round" stroke-linejoin="round" d="M452.8 583.2c0 10.3-4.3 18.6-9.7 18.6s-9.7-8.3-9.7-18.6 4.3-18.6 9.7-18.6 9.7 8.4 9.7 18.6z"/><path fill="#010101" fill-opacity=".314" d="M430.9 565.3c-3.9 0-7.3 3.8-8.8 9.3 12.9 3.4 27 5.5 41.9 5.7-.2-8.3-4.4-15-9.7-15-2.2 0-4.3 1.2-5.9 3.3-1.6-2.1-3.7-3.3-5.9-3.3s-4.2 1.2-5.8 3.1c-1.7-1.9-3.7-3.1-5.8-3.1zm52.2 0c-5.2 0-9.4 6.6-9.7 15 14.9-.5 28.9-2.7 41.7-6.3-1.6-5.1-4.9-8.6-8.6-8.6-2.2 0-4.3 1.2-5.9 3.3-1.6-2.1-3.7-3.3-5.9-3.3s-4.2 1.2-5.8 3.1c-1.6-2-3.6-3.2-5.8-3.2z"/><path fill="#50A5DC" stroke="#010101" stroke-width="4" d="M521.8 464.8c-32.7 11.7 9.6 63.9-25.7 109.4-6.5 8.4 39.3 1.4 55.5-45.2 15.8-45.3.8-72.9-29.8-64.2z"/><path fill="#010101" fill-opacity=".314" d="M532.5 463.2h-.8c11 8.9 15.7 29.4 10 57.9-7.5 37.9-36.4 54.3-46 55.2 3.1 4.4 41.4-5.5 55.9-47.3 13.8-39.6 4-65.8-19.1-65.8z"/><path fill="#50A5DC" stroke="#010101" stroke-width="4" d="M415.6 464.8c32.7 11.7-9.6 63.9 25.7 109.4 6.5 8.4-39.3 1.4-55.5-45.2-15.7-45.3-.7-72.9 29.8-64.2z"/><path fill="#010101" fill-opacity=".314" d="M380.9 485.7c-2.3 11.2-.9 26.2 5.3 44 16.2 46.6 62 53.6 55.5 45.2-2.8-3.6-5.1-7.2-7-10.9-12.9-3.1-36.7-16.5-47.5-47.5-4-11.5-6-21.8-6.3-30.8z"/><path fill="#50A5DC" stroke="#010101" stroke-width="4" stroke-linecap="round" stroke-linejoin="round" d="M433.1 463c16.6-25.7 13.6-87.4 13.6-87.4l40.7-2.2s-1 62.1 16 88.3"/><ellipse fill="#50A5DC" cx="468.4" cy="464.7" rx="34.1" ry="11.5"/><path fill="#010101" fill-opacity=".314" d="M487.4 373.4l-11.6.6-29.1 1.6s.2 3.3.2 8.5c8.9 5.6 17.9 8.9 24.2 8.9 2.3 0 4.8-.4 7.6-1.1 4.2 22.6 12 54.5 24.5 69.6l-.7.2h.9c-11.7-18-14.8-53-15.7-73.1-.1-2.3-.2-4.4-.2-6.2 0-1.5-.1-2.8-.1-3.9v-5.1z"/><path fill="#50A5DC" stroke="#010101" stroke-width="4" stroke-linecap="round" stroke-linejoin="round" d="M501.5 283.6c-8.8-6.2-20.1-9.9-33.2-9.9-12 0-22.2 2.9-30.5 7.8-9.5 6.6-17.1 16.1-21.8 27.4-2.2 6.3-3.3 13.2-3.3 20.4 0 30.7 38.1 55.6 55.6 55.6 18.1 0 55.6-24.9 55.6-55.6 0-7.4-1.2-14.5-3.6-20.9-4.3-9.9-10.8-18.5-18.8-24.8z"/><path fill="#010101" fill-opacity=".314" d="M519.2 302.9c1.2 5.2 1.8 10.7 1.8 16.4 0 30.7-37.4 55.6-55.6 55.6-14.1 0-41.5-16.1-51.6-38.4 5.2 27.3 38.8 48.4 54.9 48.4 18.1 0 55.6-24.9 55.6-55.6 0-9.6-1.7-18.5-5.1-26.4z"/></g><path stroke="#010101" stroke-width="4" stroke-linecap="round" d="M234 111.7c-12.5 0-22.7 11.8-22.7 26.2 0 14.5 10.2 26.2 22.7 26.2 7.4 0 13.9-4.1 18-10.4 4.1 6.3 10.7 10.4 18 10.4 12.5 0 22.7-11.8 22.7-26.2 0-14.5-10.2-26.2-22.7-26.2-7.4 0-13.9 4.1-18 10.4-4.2-6.4-10.7-10.4-18-10.4z"/><path fill="#010101" fill-opacity=".314" d="M252.9 161.9c-6.4 0-13.3 7.1-13 11.5.3 4.5 11.3 23.1 13.8 23.1s12.2-18.2 11.9-23.4c-.3-5.3-8.6-11.6-12.7-11.2z"/><linearGradient id="g" gradientUnits="userSpaceOnUse" x1="314.834" y1="155.938" x2="323.888" y2="155.938" gradientTransform="matrix(.641 0 0 .778 47.729 48.85)"><stop offset="0" stop-color="#FBB045"/><stop offset="1" stop-color="#C77829"/></linearGradient><path fill="url(#g)" stroke="#010101" stroke-width="4" d="M251.4 154.6c-6.4 0-13.3 6.4-13 10.4.3 4 11.3 20.8 13.8 20.8s12.2-16.4 11.9-21.1c-.3-4.7-8.5-10.4-12.7-10.1z"/><path fill="#fff" stroke="#010101" stroke-width="4" stroke-linecap="round" d="M236.6 115.5c-10.7 0-19.4 10-19.4 22.4s8.7 22.4 19.4 22.4c6.3 0 11.9-3.5 15.4-8.8 3.5 5.4 9.1 8.8 15.4 8.8 10.7 0 19.4-10 19.4-22.4s-8.7-22.4-19.4-22.4c-6.3 0-11.9 3.5-15.4 8.8-3.5-5.3-9.1-8.8-15.4-8.8z"/><path fill="#010101" stroke="#010101" stroke-width="4" stroke-linecap="round" d="M250.8 139.4c0 3.1-2.5 5.6-5.6 5.6-3.1 0-5.6-2.5-5.6-5.6 0-3.1 2.5-5.6 5.6-5.6 3.1 0 5.6 2.5 5.6 5.6z"/><path fill="#fff" d="M244.6 137.5c0 .8-.6 1.5-1.5 1.5-.8 0-1.5-.7-1.5-1.5s.7-1.5 1.5-1.5 1.5.7 1.5 1.5z"/><path fill="#010101" stroke="#010101" stroke-width="4" stroke-linecap="round" d="M265 139.4c0 3.1-2.5 5.6-5.6 5.6-3.1 0-5.6-2.5-5.6-5.6 0-3.1 2.5-5.6 5.6-5.6 3.1 0 5.6 2.5 5.6 5.6z"/><path fill="#fff" d="M258.8 137.5c0 .8-.6 1.5-1.5 1.5-.8 0-1.5-.7-1.5-1.5s.7-1.5 1.5-1.5 1.5.7 1.5 1.5z"/><g stroke="#010101" stroke-width="4" stroke-linecap="round"><path fill="#50A5DC" d="M271.7 108.4c-4.1-12.4 5.7-30.9 5.7-30.9l-13.6-2.3s1.3 20-6.2 29.2"/><path fill="#D81921" stroke-linejoin="round" d="M283.8 67.7c.5 6.5-4.5 12.2-11 12.7s-12.2-4.5-12.7-11 4.5-12.2 11-12.7 12.2 4.4 12.7 11z"/><path fill="#50A5DC" d="M245.5 106.1c-8.1-10.3-5.2-31-5.2-31l-13.5 2.5s8.1 18.4 4.1 29.6"/><path fill="#D81921" stroke-linejoin="round" d="M242.9 63.7c2.7 6 0 13-6 15.7-6 2.7-13 0-15.7-6-2.7-6 0-13 6-15.7 6-2.7 13 0 15.7 6z"/></g></svg>