<svg xmlns="http://www.w3.org/2000/svg" viewBox="0 0 261.1 282.6" enable-background="new 0 0 261.1 282.6"><path fill="#698000" stroke="#000" stroke-width="4" d="M96 228.6c63.8-53.4 67.9-6.6 121.6-37.5 28.9-20.4 22-40.5 15.7-52.1-8.7-16.2-17.1-22.8-5-22.3 9.3.4 53.6 37.9 15.3 77.5-53.3 55-77.6 8.9-135.6 49-49.3 34.1-11.4-13.8-12-14.6z"/><path fill-opacity=".314" d="M260.9 162.1c-3 5.3-6.5 15-11.9 20.6-53.3 55-86.9 19.3-130.5 49.3-20.1 13.8-25.7 14.1-25.4 9.6-6.7 11.3-10.3 22.5 20.8 1 58-40.1 82.3 6.3 135-54.1 9.1-9.4 9.4-17.9 12-26.4zm-36.5-45.2c-3.5 3.5 3.2 11.2 6.4 16.3 4.2 10.3 14.7 18.6-.1 46.9 23.3-15.3 15.6-49.5-6.3-63.2z"/><path fill="#698000" stroke="#000" stroke-width="3.287" stroke-linecap="round" stroke-linejoin="round" d="M199.6 175c0 51.2-41.5 92.7-92.7 92.7s-92.7-41.5-92.7-92.7 41.5-92.7 92.7-92.7 92.7 41.5 92.7 92.7z"/><path fill-opacity=".314" d="M194 143.2c.1 1.4.1 2.9.1 4.3 0 51.2-41.5 92.7-92.7 92.7-40 0-74.1-25.4-87.1-60.9 2.2 49.2 42.9 88.4 92.6 88.4 51.2 0 92.7-41.5 92.7-92.7 0-11.2-2-21.9-5.6-31.8z"/><path fill="#698000" stroke="#000" stroke-width="4" stroke-linecap="round" stroke-linejoin="round" d="M33.3 257.9c0 19.2 15.5 21.6 34.7 21.6 19.2 0 34.7-2.4 34.7-21.6 0-19.2-16.2-29.8-34.7-34.7-28.8-7.8-34.7 15.5-34.7 34.7z"/><g fill="#fff" stroke="#000" stroke-width="4" stroke-linecap="round" stroke-linejoin="round"><path d="M95 268.7c1.4 5.2-2.8 7-8.1 8.4-5.3 1.4-9.8 1.9-11.2-3.3-1.4-5.2 1.8-10.5 7.1-12 5.4-1.3 10.8 1.8 12.2 6.9zM60 274.4c-1.4 5.2-5.9 4.7-11.2 3.3-5.3-1.4-9.5-3.2-8.1-8.4 1.4-5.2 6.8-8.2 12.2-6.8 5.3 1.3 8.5 6.7 7.1 11.9zM77.1 273.5c0 5.4-4.5 6-10 6s-10-.7-10-6c0-5.4 4.5-9.7 10-9.7 5.6 0 10 4.3 10 9.7z"/></g><path fill-opacity=".314" d="M79 227c4.8 6.2 7.7 14 7.7 23.6 0 22.7-15.6 25.6-34.7 25.6-3 0-5.8-.1-8.6-.3 6.3 3.1 15 3.7 24.7 3.7 19.2 0 34.7-2.5 34.7-21.6-.1-15.3-10.3-25.1-23.8-31z"/><path fill="#698000" stroke="#000" stroke-width="4" stroke-linecap="round" stroke-linejoin="round" d="M180.6 257.9c0 19.2-15.5 21.6-34.7 21.6s-34.7-2.4-34.7-21.6c0-19.2 16.2-29.8 34.7-34.7 28.8-7.7 34.7 15.5 34.7 34.7z"/><g fill="#fff" stroke="#000" stroke-width="4" stroke-linecap="round" stroke-linejoin="round"><path d="M173.7 268.7c1.4 5.2-2.8 7-8.1 8.4-5.3 1.4-9.8 1.9-11.2-3.3-1.4-5.2 1.8-10.5 7.1-12 5.4-1.3 10.8 1.8 12.2 6.9zM138.7 274.4c-1.4 5.2-5.9 4.7-11.2 3.3-5.3-1.4-9.5-3.2-8.1-8.4s6.8-8.2 12.2-6.8c5.3 1.3 8.4 6.7 7.1 11.9zM155.8 273.5c0 5.4-4.5 6-10 6s-10-.7-10-6c0-5.4 4.5-9.7 10-9.7s10 4.3 10 9.7z"/></g><path fill-opacity=".314" d="M161.5 222.2c8.9 6.9 11.3 20.9 11.3 33.2 0 19.9-16.1 22.4-35.9 22.4-4.3 0-8.4-.1-12.2-.5 5.9 1.9 13.2 2.3 21.2 2.3 19.2 0 34.7-2.4 34.7-21.6 0-15.1-3.7-32.6-19.1-35.8zM163.2 106.7c1.4 5.9 2.8 12.1 2.8 18.6 0 34.9-42.6 63.2-63.2 63.2-16 0-47.2-18.3-58.7-43.7 5.9 31.1 44.1 55.1 62.5 55.1 20.6 0 63.2-28.3 63.2-63.2-.1-10.8-2.7-21.1-6.6-30z"/><path fill="#698000" stroke="#000" stroke-width="4" stroke-linecap="round" stroke-linejoin="round" d="M210.9 102.8c0-11.2-13.6-20.8-15.4-30.8-2-11 6.5-25.7 1.1-34.6-5.4-8.9-21.6-7.5-31.5-13.4-8.2-4.9-13.5-20.5-25.5-22.8-9.3-1.8-21.2 10.1-33.2 10.1-12 0-23.8-11.9-33.1-10-11.9 2.4-17.1 18-25.3 23-9.8 5.9-26 4.6-31.4 13.4-5.4 8.8 3 23.5.9 34.5-1.9 9.9-15.5 19.4-15.5 30.6 0 10.4 14.2 17.4 17.1 25.6 3.4 9.2-2.2 23.9 4.3 30.5 6.5 6.5 21.6 1.4 30.5 5.4 1.1.5 3.6.9 7.2 1.3 14.6 13.8 32.2 22.4 43.6 22.4 11.9 0 30.6-8.6 45.6-22.3 4.3-.4 7.3-.9 8.6-1.4 8.9-4.1 24.1 1.1 30.5-5.4 6.5-6.6.9-21.3 4.3-30.5 3.1-8.2 17.2-15.2 17.2-25.6z"/><path fill-opacity=".314" d="M207.4 91.9c-1.5 14-10.1 14.5-16.8 25.1-3.8 6.1.5 27.5-4.7 32.4-4.8 4.6-15.9 2.9-24.4 3.7-2.5.3-4.8.8-6.6 1.7-3.3 1.8-26.4 16-31.4 18.5-8.1 3.9-16.7 5.1-22.7 5.1-6.3 0-16.1-4.9-24.6-10.2-13.4-8.4-15-9.4-27.3-13.8-9.8-3.6-17.9 2.1-27.8-3.7 2.1 19.9 17.1 8.3 33.4 13.1 1.2.4 3.6 2.8 6.8 3.1 14.8 12.9 32.5 21 43.6 21 11.1 0 28-7.5 42.3-19.6 5.2-2.5 9.7-2.4 11.6-3.5 8.6-5.1 26.1 3.4 31.8-4.5 4.5-6.2 2.8-23.8 5-31.8 1.9-6.8 16.4-16.1 16.4-24.3-.2-6-3.5-6.4-4.6-12.3z"/><path fill="#fff" stroke="#000" stroke-width="4" stroke-linecap="round" stroke-linejoin="round" d="M165.3 108.7c0 10.6-8.6 19.2-19.2 19.2s-19.2-8.6-19.2-19.2 8.6-19.2 19.2-19.2 19.2 8.6 19.2 19.2z"/><path d="M148.3 112c0 3.5-2.9 6.4-6.4 6.4-3.5 0-6.4-2.9-6.4-6.4s2.9-6.4 6.4-6.4c3.5 0 6.4 2.9 6.4 6.4z"/><path fill="#fff" stroke="#000" stroke-width="4" stroke-linecap="round" stroke-linejoin="round" d="M86.9 108.7c0 10.6-8.6 19.2-19.2 19.2s-19.2-8.6-19.2-19.2 8.6-19.2 19.2-19.2 19.2 8.6 19.2 19.2z"/><path d="M78.9 112c0 3.5-2.9 6.4-6.4 6.4s-6.4-2.9-6.4-6.4c0-3.5 2.9-6.4 6.4-6.4 3.5 0 6.4 2.9 6.4 6.4zM120.8 168.3c-1.9 3.4-5.5 4.9-7.9 3.5-2.5-1.4-2.9-5.3-.9-8.6 1.9-3.4 5.5-4.9 7.9-3.5 2.4 1.4 2.8 5.3.9 8.6zM93.1 168.3c1.9 3.4 5.5 4.9 7.9 3.5 2.5-1.4 2.9-5.3.9-8.6-1.9-3.4-5.5-4.9-7.9-3.5-2.5 1.4-2.9 5.3-.9 8.6z"/><path fill="#fff" stroke="#000" stroke-width="4" stroke-linejoin="round" d="M113.9 153.6c4.4-4.6-4-27.5-7.4-25.4-3.5 2.1-9.9 19.9-6.9 24.6 2.7 4.5 9.7 5.7 14.3.8z"/><path fill-opacity=".314" d="M113.9 153.6c4.4-4.6-4-27.5-7.5-25.4-.3.2-.7.6-1.1 1 3.7.1 9.2 22 4.6 26-.6.6-1.3 1-2 1.4 2.1-.2 4.2-1.1 6-3z"/><path fill="#fff" stroke="#000" stroke-width="4" stroke-linejoin="round" d="M125.6 67.9c-4.3-9.5 20.8-40.4 25.1-35.3 4.2 5.1 4.7 36.1-2.4 41.8-6.7 5.3-18.2 3.5-22.7-6.5zM88.2 67.9c4.3-9.5-20.8-40.4-25.1-35.3-4.2 5.1-4.7 36.1 2.4 41.8 6.8 5.3 18.2 3.5 22.7-6.5z"/><path fill-opacity=".314" d="M88.2 67.9c4.3-9.5-20.9-40.5-25.1-35.3-.4.5-.8 1.2-1.1 2.2 5.7-1.8 26 29.2 21 37.9-.7 1.2-1.5 2.3-2.3 3.2 3.1-1.6 5.8-4.2 7.5-8z"/></svg>