<svg width="170" height="30" xmlns="http://www.w3.org/2000/svg" viewBox="0 0 170 30"><g fill="currentColor"><path d="M11.232 24.477 L9.334 18.861 4.186 18.861 2.1839999999999997 24.477 4.1339999999999995 24.477 4.1339999999999995 24.971 0.156 24.971 0.156 24.477 1.378 24.477 8.008 6.615000000000002 10.139999999999999 6.615000000000002 16.692 24.477 17.887999999999998 24.477 17.887999999999998 24.971 9.386 24.971 9.386 24.477 11.232 24.477 zM6.864 11.477 L4.42 18.289 9.126 18.289 6.864 11.477 z" /><path d="M27.794 15.299000000000001 Q27.794 15.299000000000001 27.534 14.376000000000001 27.274 13.453000000000001 26.52 13.453000000000001 25.766 13.453000000000001 25.168 14.389000000000001 24.57 15.325000000000001 24.57 16.963 L24.57 21.799 Q24.57 22.917 25.025 23.697 25.48 24.477 26.325 24.477 27.17 24.477 27.482 23.333 27.794 22.189 27.794 19.329 L27.794 17.977 Q27.794 15.299000000000001 27.534 14.376000000000001 zM24.57 5.471 L24.57 14.571 Q25.558 12.335 27.95 12.335 32.812 12.335 32.812 18.809 32.812 22.111 31.473 23.671 30.134 25.231 27.456 25.231 26.104 25.231 25.389 24.815 24.674 24.399 24.414 23.437 L24.232 24.971 18.304000000000002 24.971 18.304000000000002 24.503 19.734 24.503 19.734 5.939 18.304000000000002 5.939 18.304000000000002 5.471 24.57 5.471 z" /><path d="M42.275999999999996 13.323 Q41.314 13.323 40.586 14.571 39.858000000000004 15.819 39.858000000000004 17.535 L39.858000000000004 24.503 41.704 24.503 41.704 24.971 33.592 24.971 33.592 24.503 35.022 24.503 35.022 13.063 33.592 13.063 33.592 12.595 39.858000000000004 12.595 39.858000000000004 15.091000000000001 Q40.196 13.765 41.158 13.05 42.120000000000005 12.335 43.342 12.335 44.564 12.335 45.331 13.024000000000001 46.098 13.713000000000001 46.098 14.974 46.098 16.235 45.525999999999996 16.911 44.954 17.587 43.771 17.587 42.588 17.587 42.028999999999996 16.807000000000002 41.47 16.027 41.886 14.649000000000001 L42.822 14.649000000000001 Q43.472 13.323 42.275999999999996 13.323 z" /><path d="M48.906 10.801 Q48.906 10.801 48.321 10.099 47.736 9.397 47.736 8.357 47.736 7.317 48.373 6.641000000000002 49.01 5.965 50.309999999999995 5.965 51.61 5.965 52.286 6.5760000000000005 52.961999999999996 7.187000000000001 52.961999999999996 8.318000000000001 52.961999999999996 9.449000000000002 52.312 10.125 51.662 10.801 50.284 10.801 zM46.358 12.595 L52.727999999999994 12.595 52.727999999999994 24.503 54.184 24.503 54.184 24.971 46.461999999999996 24.971 46.461999999999996 24.503 47.891999999999996 24.503 47.891999999999996 13.063 46.358 13.063 46.358 12.595 z" /><path d="M54.599999999999994 5.471 L60.97 5.471 60.97 24.503 62.425999999999995 24.503 62.425999999999995 24.971 54.70399999999999 24.971 54.70399999999999 24.503 56.13399999999999 24.503 56.13399999999999 5.939 54.599999999999994 5.939 54.599999999999994 5.471 z" /><path d="M67.88600000000001 6.771000000000001 L81.406 6.771000000000001 81.666 12.179 81.19800000000001 12.179 Q80.236 9.371 78.97500000000001 8.357 77.714 7.343 75.218 7.343 L74.49000000000001 7.343 74.49000000000001 15.793000000000001 75.66 15.793000000000001 Q76.908 15.793000000000001 77.74000000000001 14.883000000000001 78.572 13.973 78.884 12.387 L79.274 12.387 79.274 20.083 78.83200000000001 20.083 Q78.416 18.133 77.675 17.301000000000002 76.934 16.469 75.66 16.469 L74.49000000000001 16.469 74.49000000000001 24.399 77.714 24.399 77.714 24.971 67.88600000000001 24.971 67.88600000000001 24.399 69.42 24.399 69.42 7.343 67.88600000000001 7.343 67.88600000000001 6.771000000000001 z" /><path d="M89.232 18.861 L89.986 18.861 89.986 16.859 Q89.986 14.389000000000001 89.713 13.544 89.44 12.699 88.66 12.699 88.192 12.699 87.815 12.946000000000002 87.438 13.193000000000001 87.438 13.622 87.438 14.051 87.594 14.493 L88.244 14.493 Q88.452 15.039 88.452 15.806000000000001 88.452 16.573 87.80199999999999 17.132 87.152 17.691000000000003 86.164 17.691000000000003 83.928 17.691000000000003 83.928 15.533000000000001 83.928 12.335 89.362 12.335 92.456 12.335 93.639 13.388 94.822 14.441 94.822 17.249000000000002 L94.822 22.527 Q94.822 23.879 95.576 23.879 96.46 23.879 96.616 21.201 L97.006 21.227 Q96.902 23.515 96.148 24.373 95.394 25.231 93.678 25.231 90.55799999999999 25.231 90.09 23.307 89.752 24.295 89.076 24.763 88.4 25.231 87.1 25.231 83.252 25.231 83.252 22.085 83.252 20.239 84.721 19.55 86.19 18.861 89.232 18.861 zM88.192 23.411 Q88.192 23.411 88.335 23.801000000000002 88.478 24.191 88.881 24.191 89.28399999999999 24.191 89.635 23.528 89.986 22.865000000000002 89.986 21.695 L89.986 19.277 89.804 19.277 Q88.192 19.277 88.192 21.643 L88.192 22.059 Q88.192 23.411 88.335 23.801000000000002 z" /><path d="M98.566 21.253 L98.566 13.063 97.136 13.063 97.136 12.595 98.566 12.595 98.566 9.241000000000001 103.402 8.045000000000002 103.402 12.595 106.782 12.595 106.782 13.063 103.402 13.063 103.402 21.825 Q103.402 23.047 103.649 23.619 103.896 24.191 104.676 24.191 105.456 24.191 106.041 23.411 106.626 22.631 106.80799999999999 21.279 L107.25 21.331 Q107.042 23.125 106.106 24.178 105.17 25.231 103.012 25.231 100.854 25.231 99.71 24.373 98.566 23.515 98.566 21.253 z" /><path d="M115.388 5.315000000000001 Q114.4 5.315000000000001 114.088 6.056000000000001 113.776 6.797000000000001 113.776 8.435000000000002 L113.776 12.595 117.208 12.595 117.208 13.063 113.776 13.063 113.776 24.503 116.94800000000001 24.503 116.94800000000001 24.971 107.51 24.971 107.51 24.503 108.94 24.503 108.94 13.063 107.432 13.063 107.432 12.595 108.94 12.595 108.94 12.491000000000001 Q108.94 8.747 110.37 6.810000000000002 111.8 4.873000000000001 115.154 4.873000000000001 117.364 4.873000000000001 118.326 5.744 119.288 6.615000000000002 119.288 7.759 119.288 8.903000000000002 118.69 9.475000000000001 118.092 10.047 117.104 10.047 116.116 10.047 115.583 9.540000000000001 115.05 9.033000000000001 115.05 8.370000000000001 115.05 7.707000000000001 115.206 7.083000000000002 L116.194 7.083000000000002 Q116.714 5.315000000000001 115.388 5.315000000000001 z" /><path d="M123.708 18.861 L124.462 18.861 124.462 16.859 Q124.462 14.389000000000001 124.189 13.544 123.916 12.699 123.136 12.699 122.66799999999999 12.699 122.291 12.946000000000002 121.914 13.193000000000001 121.914 13.622 121.914 14.051 122.07 14.493 L122.72 14.493 Q122.928 15.039 122.928 15.806000000000001 122.928 16.573 122.27799999999999 17.132 121.628 17.691000000000003 120.64 17.691000000000003 118.404 17.691000000000003 118.404 15.533000000000001 118.404 12.335 123.838 12.335 126.932 12.335 128.115 13.388 129.298 14.441 129.298 17.249000000000002 L129.298 22.527 Q129.298 23.879 130.052 23.879 130.936 23.879 131.09199999999998 21.201 L131.482 21.227 Q131.378 23.515 130.624 24.373 129.87 25.231 128.154 25.231 125.03399999999999 25.231 124.566 23.307 124.228 24.295 123.55199999999999 24.763 122.876 25.231 121.576 25.231 117.728 25.231 117.728 22.085 117.728 20.239 119.197 19.55 120.666 18.861 123.708 18.861 zM122.66799999999999 23.411 Q122.66799999999999 23.411 122.81099999999999 23.801000000000002 122.954 24.191 123.357 24.191 123.75999999999999 24.191 124.111 23.528 124.462 22.865000000000002 124.462 21.695 L124.462 19.277 124.28 19.277 Q122.66799999999999 19.277 122.66799999999999 21.643 L122.66799999999999 22.059 Q122.66799999999999 23.411 122.81099999999999 23.801000000000002 z" /><path d="M139.022 12.803 Q137.878 12.803 137.384 14.051 136.89 15.299000000000001 136.89 18.185000000000002 L136.89 19.537 Q136.89 22.111 137.462 23.229 138.034 24.347 139.568 24.347 141.102 24.347 142.012 23.307 142.922 22.267 143.182 20.941 L143.65 20.993000000000002 Q143.156 23.229 141.82999999999998 24.217 140.478 25.231 138.112 25.231 135.096 25.231 133.484 23.606 131.87199999999999 21.981 131.87199999999999 18.848 131.87199999999999 15.715 133.705 14.025 135.538 12.335 138.814 12.335 141.128 12.335 142.35 13.232000000000001 143.572 14.129000000000001 143.572 15.481 143.572 16.833 142.987 17.457 142.402 18.081 141.375 18.081 140.348 18.081 139.724 17.535 139.1 16.989 139.1 15.923 139.1 15.455 139.23 14.987 L140.088 14.987 Q140.27 14.467 140.27 14.051 140.27 12.803 139.022 12.803 z" /><path d="M147.784 25.231 Q147.784 25.231 146.107 23.502 144.42999999999998 21.773 144.42999999999998 18.692 144.42999999999998 15.611 146.315 13.973 148.2 12.335 151.112 12.335 157.01399999999998 12.335 156.78 18.263 L149.44799999999998 18.263 149.44799999999998 19.277 Q149.44799999999998 21.825 150.09799999999998 23.125 150.748 24.425 152.35999999999999 24.425 155.376 24.425 156.31199999999998 21.201 L156.78 21.279 Q156.286 23.151 154.999 24.191 153.712 25.231 151.138 25.231 147.784 25.231 146.107 23.502 zM149.474 17.743000000000002 L152.152 17.743000000000002 152.152 16.469 Q152.152 14.363000000000001 151.905 13.596 151.658 12.829 150.917 12.829 150.176 12.829 149.825 13.648000000000001 149.474 14.467 149.474 16.469 L149.474 17.743000000000002 z" /></g></svg>